%TF.GenerationSoftware,KiCad,Pcbnew,9.0.1*%
%TF.CreationDate,2026-02-19T19:56:59-05:00*%
%TF.ProjectId,Strawberri,53747261-7762-4657-9272-692e6b696361,rev?*%
%TF.SameCoordinates,Original*%
%TF.FileFunction,Legend,Bot*%
%TF.FilePolarity,Positive*%
%FSLAX46Y46*%
G04 Gerber Fmt 4.6, Leading zero omitted, Abs format (unit mm)*
G04 Created by KiCad (PCBNEW 9.0.1) date 2026-02-19 19:56:59*
%MOMM*%
%LPD*%
G01*
G04 APERTURE LIST*
%ADD10C,0.150000*%
%ADD11C,0.120000*%
G04 APERTURE END LIST*
D10*
X79642857Y-112179580D02*
X79690476Y-112227200D01*
X79690476Y-112227200D02*
X79833333Y-112274819D01*
X79833333Y-112274819D02*
X79928571Y-112274819D01*
X79928571Y-112274819D02*
X80071428Y-112227200D01*
X80071428Y-112227200D02*
X80166666Y-112131961D01*
X80166666Y-112131961D02*
X80214285Y-112036723D01*
X80214285Y-112036723D02*
X80261904Y-111846247D01*
X80261904Y-111846247D02*
X80261904Y-111703390D01*
X80261904Y-111703390D02*
X80214285Y-111512914D01*
X80214285Y-111512914D02*
X80166666Y-111417676D01*
X80166666Y-111417676D02*
X80071428Y-111322438D01*
X80071428Y-111322438D02*
X79928571Y-111274819D01*
X79928571Y-111274819D02*
X79833333Y-111274819D01*
X79833333Y-111274819D02*
X79690476Y-111322438D01*
X79690476Y-111322438D02*
X79642857Y-111370057D01*
X78690476Y-112274819D02*
X79261904Y-112274819D01*
X78976190Y-112274819D02*
X78976190Y-111274819D01*
X78976190Y-111274819D02*
X79071428Y-111417676D01*
X79071428Y-111417676D02*
X79166666Y-111512914D01*
X79166666Y-111512914D02*
X79261904Y-111560533D01*
X77738095Y-112274819D02*
X78309523Y-112274819D01*
X78023809Y-112274819D02*
X78023809Y-111274819D01*
X78023809Y-111274819D02*
X78119047Y-111417676D01*
X78119047Y-111417676D02*
X78214285Y-111512914D01*
X78214285Y-111512914D02*
X78309523Y-111560533D01*
X176166666Y-118179580D02*
X176214285Y-118227200D01*
X176214285Y-118227200D02*
X176357142Y-118274819D01*
X176357142Y-118274819D02*
X176452380Y-118274819D01*
X176452380Y-118274819D02*
X176595237Y-118227200D01*
X176595237Y-118227200D02*
X176690475Y-118131961D01*
X176690475Y-118131961D02*
X176738094Y-118036723D01*
X176738094Y-118036723D02*
X176785713Y-117846247D01*
X176785713Y-117846247D02*
X176785713Y-117703390D01*
X176785713Y-117703390D02*
X176738094Y-117512914D01*
X176738094Y-117512914D02*
X176690475Y-117417676D01*
X176690475Y-117417676D02*
X176595237Y-117322438D01*
X176595237Y-117322438D02*
X176452380Y-117274819D01*
X176452380Y-117274819D02*
X176357142Y-117274819D01*
X176357142Y-117274819D02*
X176214285Y-117322438D01*
X176214285Y-117322438D02*
X176166666Y-117370057D01*
X175261904Y-117274819D02*
X175738094Y-117274819D01*
X175738094Y-117274819D02*
X175785713Y-117751009D01*
X175785713Y-117751009D02*
X175738094Y-117703390D01*
X175738094Y-117703390D02*
X175642856Y-117655771D01*
X175642856Y-117655771D02*
X175404761Y-117655771D01*
X175404761Y-117655771D02*
X175309523Y-117703390D01*
X175309523Y-117703390D02*
X175261904Y-117751009D01*
X175261904Y-117751009D02*
X175214285Y-117846247D01*
X175214285Y-117846247D02*
X175214285Y-118084342D01*
X175214285Y-118084342D02*
X175261904Y-118179580D01*
X175261904Y-118179580D02*
X175309523Y-118227200D01*
X175309523Y-118227200D02*
X175404761Y-118274819D01*
X175404761Y-118274819D02*
X175642856Y-118274819D01*
X175642856Y-118274819D02*
X175738094Y-118227200D01*
X175738094Y-118227200D02*
X175785713Y-118179580D01*
X168142857Y-120304819D02*
X168476190Y-119828628D01*
X168714285Y-120304819D02*
X168714285Y-119304819D01*
X168714285Y-119304819D02*
X168333333Y-119304819D01*
X168333333Y-119304819D02*
X168238095Y-119352438D01*
X168238095Y-119352438D02*
X168190476Y-119400057D01*
X168190476Y-119400057D02*
X168142857Y-119495295D01*
X168142857Y-119495295D02*
X168142857Y-119638152D01*
X168142857Y-119638152D02*
X168190476Y-119733390D01*
X168190476Y-119733390D02*
X168238095Y-119781009D01*
X168238095Y-119781009D02*
X168333333Y-119828628D01*
X168333333Y-119828628D02*
X168714285Y-119828628D01*
X167190476Y-120304819D02*
X167761904Y-120304819D01*
X167476190Y-120304819D02*
X167476190Y-119304819D01*
X167476190Y-119304819D02*
X167571428Y-119447676D01*
X167571428Y-119447676D02*
X167666666Y-119542914D01*
X167666666Y-119542914D02*
X167761904Y-119590533D01*
X166857142Y-119304819D02*
X166238095Y-119304819D01*
X166238095Y-119304819D02*
X166571428Y-119685771D01*
X166571428Y-119685771D02*
X166428571Y-119685771D01*
X166428571Y-119685771D02*
X166333333Y-119733390D01*
X166333333Y-119733390D02*
X166285714Y-119781009D01*
X166285714Y-119781009D02*
X166238095Y-119876247D01*
X166238095Y-119876247D02*
X166238095Y-120114342D01*
X166238095Y-120114342D02*
X166285714Y-120209580D01*
X166285714Y-120209580D02*
X166333333Y-120257200D01*
X166333333Y-120257200D02*
X166428571Y-120304819D01*
X166428571Y-120304819D02*
X166714285Y-120304819D01*
X166714285Y-120304819D02*
X166809523Y-120257200D01*
X166809523Y-120257200D02*
X166857142Y-120209580D01*
X174179580Y-111333333D02*
X174227200Y-111285714D01*
X174227200Y-111285714D02*
X174274819Y-111142857D01*
X174274819Y-111142857D02*
X174274819Y-111047619D01*
X174274819Y-111047619D02*
X174227200Y-110904762D01*
X174227200Y-110904762D02*
X174131961Y-110809524D01*
X174131961Y-110809524D02*
X174036723Y-110761905D01*
X174036723Y-110761905D02*
X173846247Y-110714286D01*
X173846247Y-110714286D02*
X173703390Y-110714286D01*
X173703390Y-110714286D02*
X173512914Y-110761905D01*
X173512914Y-110761905D02*
X173417676Y-110809524D01*
X173417676Y-110809524D02*
X173322438Y-110904762D01*
X173322438Y-110904762D02*
X173274819Y-111047619D01*
X173274819Y-111047619D02*
X173274819Y-111142857D01*
X173274819Y-111142857D02*
X173322438Y-111285714D01*
X173322438Y-111285714D02*
X173370057Y-111333333D01*
X173608152Y-112190476D02*
X174274819Y-112190476D01*
X173227200Y-111952381D02*
X173941485Y-111714286D01*
X173941485Y-111714286D02*
X173941485Y-112333333D01*
X93539580Y-125357142D02*
X93587200Y-125309523D01*
X93587200Y-125309523D02*
X93634819Y-125166666D01*
X93634819Y-125166666D02*
X93634819Y-125071428D01*
X93634819Y-125071428D02*
X93587200Y-124928571D01*
X93587200Y-124928571D02*
X93491961Y-124833333D01*
X93491961Y-124833333D02*
X93396723Y-124785714D01*
X93396723Y-124785714D02*
X93206247Y-124738095D01*
X93206247Y-124738095D02*
X93063390Y-124738095D01*
X93063390Y-124738095D02*
X92872914Y-124785714D01*
X92872914Y-124785714D02*
X92777676Y-124833333D01*
X92777676Y-124833333D02*
X92682438Y-124928571D01*
X92682438Y-124928571D02*
X92634819Y-125071428D01*
X92634819Y-125071428D02*
X92634819Y-125166666D01*
X92634819Y-125166666D02*
X92682438Y-125309523D01*
X92682438Y-125309523D02*
X92730057Y-125357142D01*
X93634819Y-126309523D02*
X93634819Y-125738095D01*
X93634819Y-126023809D02*
X92634819Y-126023809D01*
X92634819Y-126023809D02*
X92777676Y-125928571D01*
X92777676Y-125928571D02*
X92872914Y-125833333D01*
X92872914Y-125833333D02*
X92920533Y-125738095D01*
X92634819Y-127166666D02*
X92634819Y-126976190D01*
X92634819Y-126976190D02*
X92682438Y-126880952D01*
X92682438Y-126880952D02*
X92730057Y-126833333D01*
X92730057Y-126833333D02*
X92872914Y-126738095D01*
X92872914Y-126738095D02*
X93063390Y-126690476D01*
X93063390Y-126690476D02*
X93444342Y-126690476D01*
X93444342Y-126690476D02*
X93539580Y-126738095D01*
X93539580Y-126738095D02*
X93587200Y-126785714D01*
X93587200Y-126785714D02*
X93634819Y-126880952D01*
X93634819Y-126880952D02*
X93634819Y-127071428D01*
X93634819Y-127071428D02*
X93587200Y-127166666D01*
X93587200Y-127166666D02*
X93539580Y-127214285D01*
X93539580Y-127214285D02*
X93444342Y-127261904D01*
X93444342Y-127261904D02*
X93206247Y-127261904D01*
X93206247Y-127261904D02*
X93111009Y-127214285D01*
X93111009Y-127214285D02*
X93063390Y-127166666D01*
X93063390Y-127166666D02*
X93015771Y-127071428D01*
X93015771Y-127071428D02*
X93015771Y-126880952D01*
X93015771Y-126880952D02*
X93063390Y-126785714D01*
X93063390Y-126785714D02*
X93111009Y-126738095D01*
X93111009Y-126738095D02*
X93206247Y-126690476D01*
X74142857Y-122179580D02*
X74190476Y-122227200D01*
X74190476Y-122227200D02*
X74333333Y-122274819D01*
X74333333Y-122274819D02*
X74428571Y-122274819D01*
X74428571Y-122274819D02*
X74571428Y-122227200D01*
X74571428Y-122227200D02*
X74666666Y-122131961D01*
X74666666Y-122131961D02*
X74714285Y-122036723D01*
X74714285Y-122036723D02*
X74761904Y-121846247D01*
X74761904Y-121846247D02*
X74761904Y-121703390D01*
X74761904Y-121703390D02*
X74714285Y-121512914D01*
X74714285Y-121512914D02*
X74666666Y-121417676D01*
X74666666Y-121417676D02*
X74571428Y-121322438D01*
X74571428Y-121322438D02*
X74428571Y-121274819D01*
X74428571Y-121274819D02*
X74333333Y-121274819D01*
X74333333Y-121274819D02*
X74190476Y-121322438D01*
X74190476Y-121322438D02*
X74142857Y-121370057D01*
X73190476Y-122274819D02*
X73761904Y-122274819D01*
X73476190Y-122274819D02*
X73476190Y-121274819D01*
X73476190Y-121274819D02*
X73571428Y-121417676D01*
X73571428Y-121417676D02*
X73666666Y-121512914D01*
X73666666Y-121512914D02*
X73761904Y-121560533D01*
X72333333Y-121608152D02*
X72333333Y-122274819D01*
X72571428Y-121227200D02*
X72809523Y-121941485D01*
X72809523Y-121941485D02*
X72190476Y-121941485D01*
X162730357Y-109804819D02*
X163063690Y-109328628D01*
X163301785Y-109804819D02*
X163301785Y-108804819D01*
X163301785Y-108804819D02*
X162920833Y-108804819D01*
X162920833Y-108804819D02*
X162825595Y-108852438D01*
X162825595Y-108852438D02*
X162777976Y-108900057D01*
X162777976Y-108900057D02*
X162730357Y-108995295D01*
X162730357Y-108995295D02*
X162730357Y-109138152D01*
X162730357Y-109138152D02*
X162777976Y-109233390D01*
X162777976Y-109233390D02*
X162825595Y-109281009D01*
X162825595Y-109281009D02*
X162920833Y-109328628D01*
X162920833Y-109328628D02*
X163301785Y-109328628D01*
X161777976Y-109804819D02*
X162349404Y-109804819D01*
X162063690Y-109804819D02*
X162063690Y-108804819D01*
X162063690Y-108804819D02*
X162158928Y-108947676D01*
X162158928Y-108947676D02*
X162254166Y-109042914D01*
X162254166Y-109042914D02*
X162349404Y-109090533D01*
X161397023Y-108900057D02*
X161349404Y-108852438D01*
X161349404Y-108852438D02*
X161254166Y-108804819D01*
X161254166Y-108804819D02*
X161016071Y-108804819D01*
X161016071Y-108804819D02*
X160920833Y-108852438D01*
X160920833Y-108852438D02*
X160873214Y-108900057D01*
X160873214Y-108900057D02*
X160825595Y-108995295D01*
X160825595Y-108995295D02*
X160825595Y-109090533D01*
X160825595Y-109090533D02*
X160873214Y-109233390D01*
X160873214Y-109233390D02*
X161444642Y-109804819D01*
X161444642Y-109804819D02*
X160825595Y-109804819D01*
X173142857Y-113304819D02*
X173476190Y-112828628D01*
X173714285Y-113304819D02*
X173714285Y-112304819D01*
X173714285Y-112304819D02*
X173333333Y-112304819D01*
X173333333Y-112304819D02*
X173238095Y-112352438D01*
X173238095Y-112352438D02*
X173190476Y-112400057D01*
X173190476Y-112400057D02*
X173142857Y-112495295D01*
X173142857Y-112495295D02*
X173142857Y-112638152D01*
X173142857Y-112638152D02*
X173190476Y-112733390D01*
X173190476Y-112733390D02*
X173238095Y-112781009D01*
X173238095Y-112781009D02*
X173333333Y-112828628D01*
X173333333Y-112828628D02*
X173714285Y-112828628D01*
X172190476Y-113304819D02*
X172761904Y-113304819D01*
X172476190Y-113304819D02*
X172476190Y-112304819D01*
X172476190Y-112304819D02*
X172571428Y-112447676D01*
X172571428Y-112447676D02*
X172666666Y-112542914D01*
X172666666Y-112542914D02*
X172761904Y-112590533D01*
X171238095Y-113304819D02*
X171809523Y-113304819D01*
X171523809Y-113304819D02*
X171523809Y-112304819D01*
X171523809Y-112304819D02*
X171619047Y-112447676D01*
X171619047Y-112447676D02*
X171714285Y-112542914D01*
X171714285Y-112542914D02*
X171809523Y-112590533D01*
X160730357Y-114804819D02*
X161063690Y-114328628D01*
X161301785Y-114804819D02*
X161301785Y-113804819D01*
X161301785Y-113804819D02*
X160920833Y-113804819D01*
X160920833Y-113804819D02*
X160825595Y-113852438D01*
X160825595Y-113852438D02*
X160777976Y-113900057D01*
X160777976Y-113900057D02*
X160730357Y-113995295D01*
X160730357Y-113995295D02*
X160730357Y-114138152D01*
X160730357Y-114138152D02*
X160777976Y-114233390D01*
X160777976Y-114233390D02*
X160825595Y-114281009D01*
X160825595Y-114281009D02*
X160920833Y-114328628D01*
X160920833Y-114328628D02*
X161301785Y-114328628D01*
X159777976Y-114804819D02*
X160349404Y-114804819D01*
X160063690Y-114804819D02*
X160063690Y-113804819D01*
X160063690Y-113804819D02*
X160158928Y-113947676D01*
X160158928Y-113947676D02*
X160254166Y-114042914D01*
X160254166Y-114042914D02*
X160349404Y-114090533D01*
X158920833Y-114138152D02*
X158920833Y-114804819D01*
X159158928Y-113757200D02*
X159397023Y-114471485D01*
X159397023Y-114471485D02*
X158777976Y-114471485D01*
X55679580Y-107833333D02*
X55727200Y-107785714D01*
X55727200Y-107785714D02*
X55774819Y-107642857D01*
X55774819Y-107642857D02*
X55774819Y-107547619D01*
X55774819Y-107547619D02*
X55727200Y-107404762D01*
X55727200Y-107404762D02*
X55631961Y-107309524D01*
X55631961Y-107309524D02*
X55536723Y-107261905D01*
X55536723Y-107261905D02*
X55346247Y-107214286D01*
X55346247Y-107214286D02*
X55203390Y-107214286D01*
X55203390Y-107214286D02*
X55012914Y-107261905D01*
X55012914Y-107261905D02*
X54917676Y-107309524D01*
X54917676Y-107309524D02*
X54822438Y-107404762D01*
X54822438Y-107404762D02*
X54774819Y-107547619D01*
X54774819Y-107547619D02*
X54774819Y-107642857D01*
X54774819Y-107642857D02*
X54822438Y-107785714D01*
X54822438Y-107785714D02*
X54870057Y-107833333D01*
X54774819Y-108166667D02*
X54774819Y-108833333D01*
X54774819Y-108833333D02*
X55774819Y-108404762D01*
X66833333Y-124101009D02*
X67166666Y-124101009D01*
X67166666Y-124624819D02*
X67166666Y-123624819D01*
X67166666Y-123624819D02*
X66690476Y-123624819D01*
X65785714Y-124624819D02*
X66357142Y-124624819D01*
X66071428Y-124624819D02*
X66071428Y-123624819D01*
X66071428Y-123624819D02*
X66166666Y-123767676D01*
X66166666Y-123767676D02*
X66261904Y-123862914D01*
X66261904Y-123862914D02*
X66357142Y-123910533D01*
X101142857Y-129039580D02*
X101190476Y-129087200D01*
X101190476Y-129087200D02*
X101333333Y-129134819D01*
X101333333Y-129134819D02*
X101428571Y-129134819D01*
X101428571Y-129134819D02*
X101571428Y-129087200D01*
X101571428Y-129087200D02*
X101666666Y-128991961D01*
X101666666Y-128991961D02*
X101714285Y-128896723D01*
X101714285Y-128896723D02*
X101761904Y-128706247D01*
X101761904Y-128706247D02*
X101761904Y-128563390D01*
X101761904Y-128563390D02*
X101714285Y-128372914D01*
X101714285Y-128372914D02*
X101666666Y-128277676D01*
X101666666Y-128277676D02*
X101571428Y-128182438D01*
X101571428Y-128182438D02*
X101428571Y-128134819D01*
X101428571Y-128134819D02*
X101333333Y-128134819D01*
X101333333Y-128134819D02*
X101190476Y-128182438D01*
X101190476Y-128182438D02*
X101142857Y-128230057D01*
X100761904Y-128230057D02*
X100714285Y-128182438D01*
X100714285Y-128182438D02*
X100619047Y-128134819D01*
X100619047Y-128134819D02*
X100380952Y-128134819D01*
X100380952Y-128134819D02*
X100285714Y-128182438D01*
X100285714Y-128182438D02*
X100238095Y-128230057D01*
X100238095Y-128230057D02*
X100190476Y-128325295D01*
X100190476Y-128325295D02*
X100190476Y-128420533D01*
X100190476Y-128420533D02*
X100238095Y-128563390D01*
X100238095Y-128563390D02*
X100809523Y-129134819D01*
X100809523Y-129134819D02*
X100190476Y-129134819D01*
X99571428Y-128134819D02*
X99476190Y-128134819D01*
X99476190Y-128134819D02*
X99380952Y-128182438D01*
X99380952Y-128182438D02*
X99333333Y-128230057D01*
X99333333Y-128230057D02*
X99285714Y-128325295D01*
X99285714Y-128325295D02*
X99238095Y-128515771D01*
X99238095Y-128515771D02*
X99238095Y-128753866D01*
X99238095Y-128753866D02*
X99285714Y-128944342D01*
X99285714Y-128944342D02*
X99333333Y-129039580D01*
X99333333Y-129039580D02*
X99380952Y-129087200D01*
X99380952Y-129087200D02*
X99476190Y-129134819D01*
X99476190Y-129134819D02*
X99571428Y-129134819D01*
X99571428Y-129134819D02*
X99666666Y-129087200D01*
X99666666Y-129087200D02*
X99714285Y-129039580D01*
X99714285Y-129039580D02*
X99761904Y-128944342D01*
X99761904Y-128944342D02*
X99809523Y-128753866D01*
X99809523Y-128753866D02*
X99809523Y-128515771D01*
X99809523Y-128515771D02*
X99761904Y-128325295D01*
X99761904Y-128325295D02*
X99714285Y-128230057D01*
X99714285Y-128230057D02*
X99666666Y-128182438D01*
X99666666Y-128182438D02*
X99571428Y-128134819D01*
X166642857Y-103304819D02*
X166976190Y-102828628D01*
X167214285Y-103304819D02*
X167214285Y-102304819D01*
X167214285Y-102304819D02*
X166833333Y-102304819D01*
X166833333Y-102304819D02*
X166738095Y-102352438D01*
X166738095Y-102352438D02*
X166690476Y-102400057D01*
X166690476Y-102400057D02*
X166642857Y-102495295D01*
X166642857Y-102495295D02*
X166642857Y-102638152D01*
X166642857Y-102638152D02*
X166690476Y-102733390D01*
X166690476Y-102733390D02*
X166738095Y-102781009D01*
X166738095Y-102781009D02*
X166833333Y-102828628D01*
X166833333Y-102828628D02*
X167214285Y-102828628D01*
X165690476Y-103304819D02*
X166261904Y-103304819D01*
X165976190Y-103304819D02*
X165976190Y-102304819D01*
X165976190Y-102304819D02*
X166071428Y-102447676D01*
X166071428Y-102447676D02*
X166166666Y-102542914D01*
X166166666Y-102542914D02*
X166261904Y-102590533D01*
X165071428Y-102304819D02*
X164976190Y-102304819D01*
X164976190Y-102304819D02*
X164880952Y-102352438D01*
X164880952Y-102352438D02*
X164833333Y-102400057D01*
X164833333Y-102400057D02*
X164785714Y-102495295D01*
X164785714Y-102495295D02*
X164738095Y-102685771D01*
X164738095Y-102685771D02*
X164738095Y-102923866D01*
X164738095Y-102923866D02*
X164785714Y-103114342D01*
X164785714Y-103114342D02*
X164833333Y-103209580D01*
X164833333Y-103209580D02*
X164880952Y-103257200D01*
X164880952Y-103257200D02*
X164976190Y-103304819D01*
X164976190Y-103304819D02*
X165071428Y-103304819D01*
X165071428Y-103304819D02*
X165166666Y-103257200D01*
X165166666Y-103257200D02*
X165214285Y-103209580D01*
X165214285Y-103209580D02*
X165261904Y-103114342D01*
X165261904Y-103114342D02*
X165309523Y-102923866D01*
X165309523Y-102923866D02*
X165309523Y-102685771D01*
X165309523Y-102685771D02*
X165261904Y-102495295D01*
X165261904Y-102495295D02*
X165214285Y-102400057D01*
X165214285Y-102400057D02*
X165166666Y-102352438D01*
X165166666Y-102352438D02*
X165071428Y-102304819D01*
X172754166Y-105304819D02*
X173087499Y-104828628D01*
X173325594Y-105304819D02*
X173325594Y-104304819D01*
X173325594Y-104304819D02*
X172944642Y-104304819D01*
X172944642Y-104304819D02*
X172849404Y-104352438D01*
X172849404Y-104352438D02*
X172801785Y-104400057D01*
X172801785Y-104400057D02*
X172754166Y-104495295D01*
X172754166Y-104495295D02*
X172754166Y-104638152D01*
X172754166Y-104638152D02*
X172801785Y-104733390D01*
X172801785Y-104733390D02*
X172849404Y-104781009D01*
X172849404Y-104781009D02*
X172944642Y-104828628D01*
X172944642Y-104828628D02*
X173325594Y-104828628D01*
X172277975Y-105304819D02*
X172087499Y-105304819D01*
X172087499Y-105304819D02*
X171992261Y-105257200D01*
X171992261Y-105257200D02*
X171944642Y-105209580D01*
X171944642Y-105209580D02*
X171849404Y-105066723D01*
X171849404Y-105066723D02*
X171801785Y-104876247D01*
X171801785Y-104876247D02*
X171801785Y-104495295D01*
X171801785Y-104495295D02*
X171849404Y-104400057D01*
X171849404Y-104400057D02*
X171897023Y-104352438D01*
X171897023Y-104352438D02*
X171992261Y-104304819D01*
X171992261Y-104304819D02*
X172182737Y-104304819D01*
X172182737Y-104304819D02*
X172277975Y-104352438D01*
X172277975Y-104352438D02*
X172325594Y-104400057D01*
X172325594Y-104400057D02*
X172373213Y-104495295D01*
X172373213Y-104495295D02*
X172373213Y-104733390D01*
X172373213Y-104733390D02*
X172325594Y-104828628D01*
X172325594Y-104828628D02*
X172277975Y-104876247D01*
X172277975Y-104876247D02*
X172182737Y-104923866D01*
X172182737Y-104923866D02*
X171992261Y-104923866D01*
X171992261Y-104923866D02*
X171897023Y-104876247D01*
X171897023Y-104876247D02*
X171849404Y-104828628D01*
X171849404Y-104828628D02*
X171801785Y-104733390D01*
X157642857Y-129539580D02*
X157690476Y-129587200D01*
X157690476Y-129587200D02*
X157833333Y-129634819D01*
X157833333Y-129634819D02*
X157928571Y-129634819D01*
X157928571Y-129634819D02*
X158071428Y-129587200D01*
X158071428Y-129587200D02*
X158166666Y-129491961D01*
X158166666Y-129491961D02*
X158214285Y-129396723D01*
X158214285Y-129396723D02*
X158261904Y-129206247D01*
X158261904Y-129206247D02*
X158261904Y-129063390D01*
X158261904Y-129063390D02*
X158214285Y-128872914D01*
X158214285Y-128872914D02*
X158166666Y-128777676D01*
X158166666Y-128777676D02*
X158071428Y-128682438D01*
X158071428Y-128682438D02*
X157928571Y-128634819D01*
X157928571Y-128634819D02*
X157833333Y-128634819D01*
X157833333Y-128634819D02*
X157690476Y-128682438D01*
X157690476Y-128682438D02*
X157642857Y-128730057D01*
X156690476Y-129634819D02*
X157261904Y-129634819D01*
X156976190Y-129634819D02*
X156976190Y-128634819D01*
X156976190Y-128634819D02*
X157071428Y-128777676D01*
X157071428Y-128777676D02*
X157166666Y-128872914D01*
X157166666Y-128872914D02*
X157261904Y-128920533D01*
X156214285Y-129634819D02*
X156023809Y-129634819D01*
X156023809Y-129634819D02*
X155928571Y-129587200D01*
X155928571Y-129587200D02*
X155880952Y-129539580D01*
X155880952Y-129539580D02*
X155785714Y-129396723D01*
X155785714Y-129396723D02*
X155738095Y-129206247D01*
X155738095Y-129206247D02*
X155738095Y-128825295D01*
X155738095Y-128825295D02*
X155785714Y-128730057D01*
X155785714Y-128730057D02*
X155833333Y-128682438D01*
X155833333Y-128682438D02*
X155928571Y-128634819D01*
X155928571Y-128634819D02*
X156119047Y-128634819D01*
X156119047Y-128634819D02*
X156214285Y-128682438D01*
X156214285Y-128682438D02*
X156261904Y-128730057D01*
X156261904Y-128730057D02*
X156309523Y-128825295D01*
X156309523Y-128825295D02*
X156309523Y-129063390D01*
X156309523Y-129063390D02*
X156261904Y-129158628D01*
X156261904Y-129158628D02*
X156214285Y-129206247D01*
X156214285Y-129206247D02*
X156119047Y-129253866D01*
X156119047Y-129253866D02*
X155928571Y-129253866D01*
X155928571Y-129253866D02*
X155833333Y-129206247D01*
X155833333Y-129206247D02*
X155785714Y-129158628D01*
X155785714Y-129158628D02*
X155738095Y-129063390D01*
X154642857Y-123179580D02*
X154690476Y-123227200D01*
X154690476Y-123227200D02*
X154833333Y-123274819D01*
X154833333Y-123274819D02*
X154928571Y-123274819D01*
X154928571Y-123274819D02*
X155071428Y-123227200D01*
X155071428Y-123227200D02*
X155166666Y-123131961D01*
X155166666Y-123131961D02*
X155214285Y-123036723D01*
X155214285Y-123036723D02*
X155261904Y-122846247D01*
X155261904Y-122846247D02*
X155261904Y-122703390D01*
X155261904Y-122703390D02*
X155214285Y-122512914D01*
X155214285Y-122512914D02*
X155166666Y-122417676D01*
X155166666Y-122417676D02*
X155071428Y-122322438D01*
X155071428Y-122322438D02*
X154928571Y-122274819D01*
X154928571Y-122274819D02*
X154833333Y-122274819D01*
X154833333Y-122274819D02*
X154690476Y-122322438D01*
X154690476Y-122322438D02*
X154642857Y-122370057D01*
X154261904Y-122370057D02*
X154214285Y-122322438D01*
X154214285Y-122322438D02*
X154119047Y-122274819D01*
X154119047Y-122274819D02*
X153880952Y-122274819D01*
X153880952Y-122274819D02*
X153785714Y-122322438D01*
X153785714Y-122322438D02*
X153738095Y-122370057D01*
X153738095Y-122370057D02*
X153690476Y-122465295D01*
X153690476Y-122465295D02*
X153690476Y-122560533D01*
X153690476Y-122560533D02*
X153738095Y-122703390D01*
X153738095Y-122703390D02*
X154309523Y-123274819D01*
X154309523Y-123274819D02*
X153690476Y-123274819D01*
X153309523Y-122370057D02*
X153261904Y-122322438D01*
X153261904Y-122322438D02*
X153166666Y-122274819D01*
X153166666Y-122274819D02*
X152928571Y-122274819D01*
X152928571Y-122274819D02*
X152833333Y-122322438D01*
X152833333Y-122322438D02*
X152785714Y-122370057D01*
X152785714Y-122370057D02*
X152738095Y-122465295D01*
X152738095Y-122465295D02*
X152738095Y-122560533D01*
X152738095Y-122560533D02*
X152785714Y-122703390D01*
X152785714Y-122703390D02*
X153357142Y-123274819D01*
X153357142Y-123274819D02*
X152738095Y-123274819D01*
D11*
%TO.C,C11*%
X79261252Y-112765000D02*
X78738748Y-112765000D01*
X79261252Y-114235000D02*
X78738748Y-114235000D01*
%TO.C,C5*%
X176261252Y-118765000D02*
X175738748Y-118765000D01*
X176261252Y-120235000D02*
X175738748Y-120235000D01*
%TO.C,R13*%
X167727064Y-120765000D02*
X167272936Y-120765000D01*
X167727064Y-122235000D02*
X167272936Y-122235000D01*
%TO.C,C4*%
X174765000Y-111238748D02*
X174765000Y-111761252D01*
X176235000Y-111238748D02*
X176235000Y-111761252D01*
%TO.C,C16*%
X90765000Y-126261252D02*
X90765000Y-125738748D01*
X92235000Y-126261252D02*
X92235000Y-125738748D01*
%TO.C,C14*%
X73761252Y-122765000D02*
X73238748Y-122765000D01*
X73761252Y-124235000D02*
X73238748Y-124235000D01*
%TO.C,R12*%
X162314564Y-110265000D02*
X161860436Y-110265000D01*
X162314564Y-111735000D02*
X161860436Y-111735000D01*
%TO.C,R11*%
X172727064Y-113765000D02*
X172272936Y-113765000D01*
X172727064Y-115235000D02*
X172272936Y-115235000D01*
%TO.C,R14*%
X160314564Y-115265000D02*
X159860436Y-115265000D01*
X160314564Y-116735000D02*
X159860436Y-116735000D01*
%TO.C,C7*%
X56265000Y-107738748D02*
X56265000Y-108261252D01*
X57735000Y-107738748D02*
X57735000Y-108261252D01*
%TO.C,F1*%
X67102064Y-125090000D02*
X65897936Y-125090000D01*
X67102064Y-126910000D02*
X65897936Y-126910000D01*
%TO.C,C20*%
X100238748Y-126265000D02*
X100761252Y-126265000D01*
X100238748Y-127735000D02*
X100761252Y-127735000D01*
%TO.C,R10*%
X166227064Y-103765000D02*
X165772936Y-103765000D01*
X166227064Y-105235000D02*
X165772936Y-105235000D01*
%TO.C,R9*%
X172814564Y-105765000D02*
X172360436Y-105765000D01*
X172814564Y-107235000D02*
X172360436Y-107235000D01*
%TO.C,C19*%
X156738748Y-126765000D02*
X157261252Y-126765000D01*
X156738748Y-128235000D02*
X157261252Y-128235000D01*
%TO.C,C22*%
X154261252Y-123765000D02*
X153738748Y-123765000D01*
X154261252Y-125235000D02*
X153738748Y-125235000D01*
%TD*%
M02*
