%TF.GenerationSoftware,KiCad,Pcbnew,9.0.1*%
%TF.CreationDate,2026-02-19T19:56:59-05:00*%
%TF.ProjectId,Strawberri,53747261-7762-4657-9272-692e6b696361,rev?*%
%TF.SameCoordinates,Original*%
%TF.FileFunction,Legend,Top*%
%TF.FilePolarity,Positive*%
%FSLAX46Y46*%
G04 Gerber Fmt 4.6, Leading zero omitted, Abs format (unit mm)*
G04 Created by KiCad (PCBNEW 9.0.1) date 2026-02-19 19:56:59*
%MOMM*%
%LPD*%
G01*
G04 APERTURE LIST*
%ADD10C,0.150000*%
%ADD11C,0.120000*%
%ADD12C,0.127000*%
%ADD13C,0.200000*%
%ADD14C,0.050000*%
%ADD15C,0.152400*%
G04 APERTURE END LIST*
D10*
X31238095Y-127954819D02*
X31238095Y-126954819D01*
X31238095Y-127431009D02*
X31809523Y-127431009D01*
X31809523Y-127954819D02*
X31809523Y-126954819D01*
X32714285Y-127288152D02*
X32714285Y-127954819D01*
X32476190Y-126907200D02*
X32238095Y-127621485D01*
X32238095Y-127621485D02*
X32857142Y-127621485D01*
X193238095Y-126954819D02*
X193238095Y-125954819D01*
X193238095Y-126431009D02*
X193809523Y-126431009D01*
X193809523Y-126954819D02*
X193809523Y-125954819D01*
X194190476Y-125954819D02*
X194809523Y-125954819D01*
X194809523Y-125954819D02*
X194476190Y-126335771D01*
X194476190Y-126335771D02*
X194619047Y-126335771D01*
X194619047Y-126335771D02*
X194714285Y-126383390D01*
X194714285Y-126383390D02*
X194761904Y-126431009D01*
X194761904Y-126431009D02*
X194809523Y-126526247D01*
X194809523Y-126526247D02*
X194809523Y-126764342D01*
X194809523Y-126764342D02*
X194761904Y-126859580D01*
X194761904Y-126859580D02*
X194714285Y-126907200D01*
X194714285Y-126907200D02*
X194619047Y-126954819D01*
X194619047Y-126954819D02*
X194333333Y-126954819D01*
X194333333Y-126954819D02*
X194238095Y-126907200D01*
X194238095Y-126907200D02*
X194190476Y-126859580D01*
X31238095Y-100454819D02*
X31238095Y-99454819D01*
X31238095Y-99931009D02*
X31809523Y-99931009D01*
X31809523Y-100454819D02*
X31809523Y-99454819D01*
X32238095Y-99550057D02*
X32285714Y-99502438D01*
X32285714Y-99502438D02*
X32380952Y-99454819D01*
X32380952Y-99454819D02*
X32619047Y-99454819D01*
X32619047Y-99454819D02*
X32714285Y-99502438D01*
X32714285Y-99502438D02*
X32761904Y-99550057D01*
X32761904Y-99550057D02*
X32809523Y-99645295D01*
X32809523Y-99645295D02*
X32809523Y-99740533D01*
X32809523Y-99740533D02*
X32761904Y-99883390D01*
X32761904Y-99883390D02*
X32190476Y-100454819D01*
X32190476Y-100454819D02*
X32809523Y-100454819D01*
X192738095Y-100454819D02*
X192738095Y-99454819D01*
X192738095Y-99931009D02*
X193309523Y-99931009D01*
X193309523Y-100454819D02*
X193309523Y-99454819D01*
X194309523Y-100454819D02*
X193738095Y-100454819D01*
X194023809Y-100454819D02*
X194023809Y-99454819D01*
X194023809Y-99454819D02*
X193928571Y-99597676D01*
X193928571Y-99597676D02*
X193833333Y-99692914D01*
X193833333Y-99692914D02*
X193738095Y-99740533D01*
X135126666Y-125734819D02*
X135126666Y-126449104D01*
X135126666Y-126449104D02*
X135079047Y-126591961D01*
X135079047Y-126591961D02*
X134983809Y-126687200D01*
X134983809Y-126687200D02*
X134840952Y-126734819D01*
X134840952Y-126734819D02*
X134745714Y-126734819D01*
X135650476Y-126734819D02*
X135840952Y-126734819D01*
X135840952Y-126734819D02*
X135936190Y-126687200D01*
X135936190Y-126687200D02*
X135983809Y-126639580D01*
X135983809Y-126639580D02*
X136079047Y-126496723D01*
X136079047Y-126496723D02*
X136126666Y-126306247D01*
X136126666Y-126306247D02*
X136126666Y-125925295D01*
X136126666Y-125925295D02*
X136079047Y-125830057D01*
X136079047Y-125830057D02*
X136031428Y-125782438D01*
X136031428Y-125782438D02*
X135936190Y-125734819D01*
X135936190Y-125734819D02*
X135745714Y-125734819D01*
X135745714Y-125734819D02*
X135650476Y-125782438D01*
X135650476Y-125782438D02*
X135602857Y-125830057D01*
X135602857Y-125830057D02*
X135555238Y-125925295D01*
X135555238Y-125925295D02*
X135555238Y-126163390D01*
X135555238Y-126163390D02*
X135602857Y-126258628D01*
X135602857Y-126258628D02*
X135650476Y-126306247D01*
X135650476Y-126306247D02*
X135745714Y-126353866D01*
X135745714Y-126353866D02*
X135936190Y-126353866D01*
X135936190Y-126353866D02*
X136031428Y-126306247D01*
X136031428Y-126306247D02*
X136079047Y-126258628D01*
X136079047Y-126258628D02*
X136126666Y-126163390D01*
X147666666Y-127054819D02*
X147666666Y-127769104D01*
X147666666Y-127769104D02*
X147619047Y-127911961D01*
X147619047Y-127911961D02*
X147523809Y-128007200D01*
X147523809Y-128007200D02*
X147380952Y-128054819D01*
X147380952Y-128054819D02*
X147285714Y-128054819D01*
X148095238Y-127150057D02*
X148142857Y-127102438D01*
X148142857Y-127102438D02*
X148238095Y-127054819D01*
X148238095Y-127054819D02*
X148476190Y-127054819D01*
X148476190Y-127054819D02*
X148571428Y-127102438D01*
X148571428Y-127102438D02*
X148619047Y-127150057D01*
X148619047Y-127150057D02*
X148666666Y-127245295D01*
X148666666Y-127245295D02*
X148666666Y-127340533D01*
X148666666Y-127340533D02*
X148619047Y-127483390D01*
X148619047Y-127483390D02*
X148047619Y-128054819D01*
X148047619Y-128054819D02*
X148666666Y-128054819D01*
X111833333Y-122304819D02*
X111500000Y-121828628D01*
X111261905Y-122304819D02*
X111261905Y-121304819D01*
X111261905Y-121304819D02*
X111642857Y-121304819D01*
X111642857Y-121304819D02*
X111738095Y-121352438D01*
X111738095Y-121352438D02*
X111785714Y-121400057D01*
X111785714Y-121400057D02*
X111833333Y-121495295D01*
X111833333Y-121495295D02*
X111833333Y-121638152D01*
X111833333Y-121638152D02*
X111785714Y-121733390D01*
X111785714Y-121733390D02*
X111738095Y-121781009D01*
X111738095Y-121781009D02*
X111642857Y-121828628D01*
X111642857Y-121828628D02*
X111261905Y-121828628D01*
X112404762Y-121733390D02*
X112309524Y-121685771D01*
X112309524Y-121685771D02*
X112261905Y-121638152D01*
X112261905Y-121638152D02*
X112214286Y-121542914D01*
X112214286Y-121542914D02*
X112214286Y-121495295D01*
X112214286Y-121495295D02*
X112261905Y-121400057D01*
X112261905Y-121400057D02*
X112309524Y-121352438D01*
X112309524Y-121352438D02*
X112404762Y-121304819D01*
X112404762Y-121304819D02*
X112595238Y-121304819D01*
X112595238Y-121304819D02*
X112690476Y-121352438D01*
X112690476Y-121352438D02*
X112738095Y-121400057D01*
X112738095Y-121400057D02*
X112785714Y-121495295D01*
X112785714Y-121495295D02*
X112785714Y-121542914D01*
X112785714Y-121542914D02*
X112738095Y-121638152D01*
X112738095Y-121638152D02*
X112690476Y-121685771D01*
X112690476Y-121685771D02*
X112595238Y-121733390D01*
X112595238Y-121733390D02*
X112404762Y-121733390D01*
X112404762Y-121733390D02*
X112309524Y-121781009D01*
X112309524Y-121781009D02*
X112261905Y-121828628D01*
X112261905Y-121828628D02*
X112214286Y-121923866D01*
X112214286Y-121923866D02*
X112214286Y-122114342D01*
X112214286Y-122114342D02*
X112261905Y-122209580D01*
X112261905Y-122209580D02*
X112309524Y-122257200D01*
X112309524Y-122257200D02*
X112404762Y-122304819D01*
X112404762Y-122304819D02*
X112595238Y-122304819D01*
X112595238Y-122304819D02*
X112690476Y-122257200D01*
X112690476Y-122257200D02*
X112738095Y-122209580D01*
X112738095Y-122209580D02*
X112785714Y-122114342D01*
X112785714Y-122114342D02*
X112785714Y-121923866D01*
X112785714Y-121923866D02*
X112738095Y-121828628D01*
X112738095Y-121828628D02*
X112690476Y-121781009D01*
X112690476Y-121781009D02*
X112595238Y-121733390D01*
X100690476Y-127554819D02*
X100690476Y-128269104D01*
X100690476Y-128269104D02*
X100642857Y-128411961D01*
X100642857Y-128411961D02*
X100547619Y-128507200D01*
X100547619Y-128507200D02*
X100404762Y-128554819D01*
X100404762Y-128554819D02*
X100309524Y-128554819D01*
X101690476Y-128554819D02*
X101119048Y-128554819D01*
X101404762Y-128554819D02*
X101404762Y-127554819D01*
X101404762Y-127554819D02*
X101309524Y-127697676D01*
X101309524Y-127697676D02*
X101214286Y-127792914D01*
X101214286Y-127792914D02*
X101119048Y-127840533D01*
X102166667Y-128554819D02*
X102357143Y-128554819D01*
X102357143Y-128554819D02*
X102452381Y-128507200D01*
X102452381Y-128507200D02*
X102500000Y-128459580D01*
X102500000Y-128459580D02*
X102595238Y-128316723D01*
X102595238Y-128316723D02*
X102642857Y-128126247D01*
X102642857Y-128126247D02*
X102642857Y-127745295D01*
X102642857Y-127745295D02*
X102595238Y-127650057D01*
X102595238Y-127650057D02*
X102547619Y-127602438D01*
X102547619Y-127602438D02*
X102452381Y-127554819D01*
X102452381Y-127554819D02*
X102261905Y-127554819D01*
X102261905Y-127554819D02*
X102166667Y-127602438D01*
X102166667Y-127602438D02*
X102119048Y-127650057D01*
X102119048Y-127650057D02*
X102071429Y-127745295D01*
X102071429Y-127745295D02*
X102071429Y-127983390D01*
X102071429Y-127983390D02*
X102119048Y-128078628D01*
X102119048Y-128078628D02*
X102166667Y-128126247D01*
X102166667Y-128126247D02*
X102261905Y-128173866D01*
X102261905Y-128173866D02*
X102452381Y-128173866D01*
X102452381Y-128173866D02*
X102547619Y-128126247D01*
X102547619Y-128126247D02*
X102595238Y-128078628D01*
X102595238Y-128078628D02*
X102642857Y-127983390D01*
X77920833Y-107304819D02*
X77587500Y-106828628D01*
X77349405Y-107304819D02*
X77349405Y-106304819D01*
X77349405Y-106304819D02*
X77730357Y-106304819D01*
X77730357Y-106304819D02*
X77825595Y-106352438D01*
X77825595Y-106352438D02*
X77873214Y-106400057D01*
X77873214Y-106400057D02*
X77920833Y-106495295D01*
X77920833Y-106495295D02*
X77920833Y-106638152D01*
X77920833Y-106638152D02*
X77873214Y-106733390D01*
X77873214Y-106733390D02*
X77825595Y-106781009D01*
X77825595Y-106781009D02*
X77730357Y-106828628D01*
X77730357Y-106828628D02*
X77349405Y-106828628D01*
X78777976Y-106638152D02*
X78777976Y-107304819D01*
X78539881Y-106257200D02*
X78301786Y-106971485D01*
X78301786Y-106971485D02*
X78920833Y-106971485D01*
X169785714Y-109554819D02*
X169690476Y-109507200D01*
X169690476Y-109507200D02*
X169642857Y-109459580D01*
X169642857Y-109459580D02*
X169595238Y-109364342D01*
X169595238Y-109364342D02*
X169595238Y-109078628D01*
X169595238Y-109078628D02*
X169642857Y-108983390D01*
X169642857Y-108983390D02*
X169690476Y-108935771D01*
X169690476Y-108935771D02*
X169785714Y-108888152D01*
X169785714Y-108888152D02*
X169928571Y-108888152D01*
X169928571Y-108888152D02*
X170023809Y-108935771D01*
X170023809Y-108935771D02*
X170071428Y-108983390D01*
X170071428Y-108983390D02*
X170119047Y-109078628D01*
X170119047Y-109078628D02*
X170119047Y-109364342D01*
X170119047Y-109364342D02*
X170071428Y-109459580D01*
X170071428Y-109459580D02*
X170023809Y-109507200D01*
X170023809Y-109507200D02*
X169928571Y-109554819D01*
X169928571Y-109554819D02*
X169785714Y-109554819D01*
X170547619Y-109554819D02*
X170547619Y-108888152D01*
X170547619Y-108983390D02*
X170595238Y-108935771D01*
X170595238Y-108935771D02*
X170690476Y-108888152D01*
X170690476Y-108888152D02*
X170833333Y-108888152D01*
X170833333Y-108888152D02*
X170928571Y-108935771D01*
X170928571Y-108935771D02*
X170976190Y-109031009D01*
X170976190Y-109031009D02*
X170976190Y-109554819D01*
X170976190Y-109031009D02*
X171023809Y-108935771D01*
X171023809Y-108935771D02*
X171119047Y-108888152D01*
X171119047Y-108888152D02*
X171261904Y-108888152D01*
X171261904Y-108888152D02*
X171357143Y-108935771D01*
X171357143Y-108935771D02*
X171404762Y-109031009D01*
X171404762Y-109031009D02*
X171404762Y-109554819D01*
X172309523Y-108554819D02*
X172119047Y-108554819D01*
X172119047Y-108554819D02*
X172023809Y-108602438D01*
X172023809Y-108602438D02*
X171976190Y-108650057D01*
X171976190Y-108650057D02*
X171880952Y-108792914D01*
X171880952Y-108792914D02*
X171833333Y-108983390D01*
X171833333Y-108983390D02*
X171833333Y-109364342D01*
X171833333Y-109364342D02*
X171880952Y-109459580D01*
X171880952Y-109459580D02*
X171928571Y-109507200D01*
X171928571Y-109507200D02*
X172023809Y-109554819D01*
X172023809Y-109554819D02*
X172214285Y-109554819D01*
X172214285Y-109554819D02*
X172309523Y-109507200D01*
X172309523Y-109507200D02*
X172357142Y-109459580D01*
X172357142Y-109459580D02*
X172404761Y-109364342D01*
X172404761Y-109364342D02*
X172404761Y-109126247D01*
X172404761Y-109126247D02*
X172357142Y-109031009D01*
X172357142Y-109031009D02*
X172309523Y-108983390D01*
X172309523Y-108983390D02*
X172214285Y-108935771D01*
X172214285Y-108935771D02*
X172023809Y-108935771D01*
X172023809Y-108935771D02*
X171928571Y-108983390D01*
X171928571Y-108983390D02*
X171880952Y-109031009D01*
X171880952Y-109031009D02*
X171833333Y-109126247D01*
X89190476Y-127554819D02*
X89190476Y-128269104D01*
X89190476Y-128269104D02*
X89142857Y-128411961D01*
X89142857Y-128411961D02*
X89047619Y-128507200D01*
X89047619Y-128507200D02*
X88904762Y-128554819D01*
X88904762Y-128554819D02*
X88809524Y-128554819D01*
X90190476Y-128554819D02*
X89619048Y-128554819D01*
X89904762Y-128554819D02*
X89904762Y-127554819D01*
X89904762Y-127554819D02*
X89809524Y-127697676D01*
X89809524Y-127697676D02*
X89714286Y-127792914D01*
X89714286Y-127792914D02*
X89619048Y-127840533D01*
X90761905Y-127983390D02*
X90666667Y-127935771D01*
X90666667Y-127935771D02*
X90619048Y-127888152D01*
X90619048Y-127888152D02*
X90571429Y-127792914D01*
X90571429Y-127792914D02*
X90571429Y-127745295D01*
X90571429Y-127745295D02*
X90619048Y-127650057D01*
X90619048Y-127650057D02*
X90666667Y-127602438D01*
X90666667Y-127602438D02*
X90761905Y-127554819D01*
X90761905Y-127554819D02*
X90952381Y-127554819D01*
X90952381Y-127554819D02*
X91047619Y-127602438D01*
X91047619Y-127602438D02*
X91095238Y-127650057D01*
X91095238Y-127650057D02*
X91142857Y-127745295D01*
X91142857Y-127745295D02*
X91142857Y-127792914D01*
X91142857Y-127792914D02*
X91095238Y-127888152D01*
X91095238Y-127888152D02*
X91047619Y-127935771D01*
X91047619Y-127935771D02*
X90952381Y-127983390D01*
X90952381Y-127983390D02*
X90761905Y-127983390D01*
X90761905Y-127983390D02*
X90666667Y-128031009D01*
X90666667Y-128031009D02*
X90619048Y-128078628D01*
X90619048Y-128078628D02*
X90571429Y-128173866D01*
X90571429Y-128173866D02*
X90571429Y-128364342D01*
X90571429Y-128364342D02*
X90619048Y-128459580D01*
X90619048Y-128459580D02*
X90666667Y-128507200D01*
X90666667Y-128507200D02*
X90761905Y-128554819D01*
X90761905Y-128554819D02*
X90952381Y-128554819D01*
X90952381Y-128554819D02*
X91047619Y-128507200D01*
X91047619Y-128507200D02*
X91095238Y-128459580D01*
X91095238Y-128459580D02*
X91142857Y-128364342D01*
X91142857Y-128364342D02*
X91142857Y-128173866D01*
X91142857Y-128173866D02*
X91095238Y-128078628D01*
X91095238Y-128078628D02*
X91047619Y-128031009D01*
X91047619Y-128031009D02*
X90952381Y-127983390D01*
X170285714Y-101554819D02*
X170190476Y-101507200D01*
X170190476Y-101507200D02*
X170142857Y-101459580D01*
X170142857Y-101459580D02*
X170095238Y-101364342D01*
X170095238Y-101364342D02*
X170095238Y-101078628D01*
X170095238Y-101078628D02*
X170142857Y-100983390D01*
X170142857Y-100983390D02*
X170190476Y-100935771D01*
X170190476Y-100935771D02*
X170285714Y-100888152D01*
X170285714Y-100888152D02*
X170428571Y-100888152D01*
X170428571Y-100888152D02*
X170523809Y-100935771D01*
X170523809Y-100935771D02*
X170571428Y-100983390D01*
X170571428Y-100983390D02*
X170619047Y-101078628D01*
X170619047Y-101078628D02*
X170619047Y-101364342D01*
X170619047Y-101364342D02*
X170571428Y-101459580D01*
X170571428Y-101459580D02*
X170523809Y-101507200D01*
X170523809Y-101507200D02*
X170428571Y-101554819D01*
X170428571Y-101554819D02*
X170285714Y-101554819D01*
X171047619Y-101554819D02*
X171047619Y-100888152D01*
X171047619Y-100983390D02*
X171095238Y-100935771D01*
X171095238Y-100935771D02*
X171190476Y-100888152D01*
X171190476Y-100888152D02*
X171333333Y-100888152D01*
X171333333Y-100888152D02*
X171428571Y-100935771D01*
X171428571Y-100935771D02*
X171476190Y-101031009D01*
X171476190Y-101031009D02*
X171476190Y-101554819D01*
X171476190Y-101031009D02*
X171523809Y-100935771D01*
X171523809Y-100935771D02*
X171619047Y-100888152D01*
X171619047Y-100888152D02*
X171761904Y-100888152D01*
X171761904Y-100888152D02*
X171857143Y-100935771D01*
X171857143Y-100935771D02*
X171904762Y-101031009D01*
X171904762Y-101031009D02*
X171904762Y-101554819D01*
X172857142Y-100554819D02*
X172380952Y-100554819D01*
X172380952Y-100554819D02*
X172333333Y-101031009D01*
X172333333Y-101031009D02*
X172380952Y-100983390D01*
X172380952Y-100983390D02*
X172476190Y-100935771D01*
X172476190Y-100935771D02*
X172714285Y-100935771D01*
X172714285Y-100935771D02*
X172809523Y-100983390D01*
X172809523Y-100983390D02*
X172857142Y-101031009D01*
X172857142Y-101031009D02*
X172904761Y-101126247D01*
X172904761Y-101126247D02*
X172904761Y-101364342D01*
X172904761Y-101364342D02*
X172857142Y-101459580D01*
X172857142Y-101459580D02*
X172809523Y-101507200D01*
X172809523Y-101507200D02*
X172714285Y-101554819D01*
X172714285Y-101554819D02*
X172476190Y-101554819D01*
X172476190Y-101554819D02*
X172380952Y-101507200D01*
X172380952Y-101507200D02*
X172333333Y-101459580D01*
X110785714Y-128554819D02*
X110690476Y-128507200D01*
X110690476Y-128507200D02*
X110642857Y-128459580D01*
X110642857Y-128459580D02*
X110595238Y-128364342D01*
X110595238Y-128364342D02*
X110595238Y-128078628D01*
X110595238Y-128078628D02*
X110642857Y-127983390D01*
X110642857Y-127983390D02*
X110690476Y-127935771D01*
X110690476Y-127935771D02*
X110785714Y-127888152D01*
X110785714Y-127888152D02*
X110928571Y-127888152D01*
X110928571Y-127888152D02*
X111023809Y-127935771D01*
X111023809Y-127935771D02*
X111071428Y-127983390D01*
X111071428Y-127983390D02*
X111119047Y-128078628D01*
X111119047Y-128078628D02*
X111119047Y-128364342D01*
X111119047Y-128364342D02*
X111071428Y-128459580D01*
X111071428Y-128459580D02*
X111023809Y-128507200D01*
X111023809Y-128507200D02*
X110928571Y-128554819D01*
X110928571Y-128554819D02*
X110785714Y-128554819D01*
X111547619Y-128554819D02*
X111547619Y-127888152D01*
X111547619Y-127983390D02*
X111595238Y-127935771D01*
X111595238Y-127935771D02*
X111690476Y-127888152D01*
X111690476Y-127888152D02*
X111833333Y-127888152D01*
X111833333Y-127888152D02*
X111928571Y-127935771D01*
X111928571Y-127935771D02*
X111976190Y-128031009D01*
X111976190Y-128031009D02*
X111976190Y-128554819D01*
X111976190Y-128031009D02*
X112023809Y-127935771D01*
X112023809Y-127935771D02*
X112119047Y-127888152D01*
X112119047Y-127888152D02*
X112261904Y-127888152D01*
X112261904Y-127888152D02*
X112357143Y-127935771D01*
X112357143Y-127935771D02*
X112404762Y-128031009D01*
X112404762Y-128031009D02*
X112404762Y-128554819D01*
X113309523Y-127888152D02*
X113309523Y-128554819D01*
X113071428Y-127507200D02*
X112833333Y-128221485D01*
X112833333Y-128221485D02*
X113452380Y-128221485D01*
X86833333Y-123804819D02*
X86500000Y-123328628D01*
X86261905Y-123804819D02*
X86261905Y-122804819D01*
X86261905Y-122804819D02*
X86642857Y-122804819D01*
X86642857Y-122804819D02*
X86738095Y-122852438D01*
X86738095Y-122852438D02*
X86785714Y-122900057D01*
X86785714Y-122900057D02*
X86833333Y-122995295D01*
X86833333Y-122995295D02*
X86833333Y-123138152D01*
X86833333Y-123138152D02*
X86785714Y-123233390D01*
X86785714Y-123233390D02*
X86738095Y-123281009D01*
X86738095Y-123281009D02*
X86642857Y-123328628D01*
X86642857Y-123328628D02*
X86261905Y-123328628D01*
X87690476Y-122804819D02*
X87500000Y-122804819D01*
X87500000Y-122804819D02*
X87404762Y-122852438D01*
X87404762Y-122852438D02*
X87357143Y-122900057D01*
X87357143Y-122900057D02*
X87261905Y-123042914D01*
X87261905Y-123042914D02*
X87214286Y-123233390D01*
X87214286Y-123233390D02*
X87214286Y-123614342D01*
X87214286Y-123614342D02*
X87261905Y-123709580D01*
X87261905Y-123709580D02*
X87309524Y-123757200D01*
X87309524Y-123757200D02*
X87404762Y-123804819D01*
X87404762Y-123804819D02*
X87595238Y-123804819D01*
X87595238Y-123804819D02*
X87690476Y-123757200D01*
X87690476Y-123757200D02*
X87738095Y-123709580D01*
X87738095Y-123709580D02*
X87785714Y-123614342D01*
X87785714Y-123614342D02*
X87785714Y-123376247D01*
X87785714Y-123376247D02*
X87738095Y-123281009D01*
X87738095Y-123281009D02*
X87690476Y-123233390D01*
X87690476Y-123233390D02*
X87595238Y-123185771D01*
X87595238Y-123185771D02*
X87404762Y-123185771D01*
X87404762Y-123185771D02*
X87309524Y-123233390D01*
X87309524Y-123233390D02*
X87261905Y-123281009D01*
X87261905Y-123281009D02*
X87214286Y-123376247D01*
X63333333Y-110804819D02*
X63000000Y-110328628D01*
X62761905Y-110804819D02*
X62761905Y-109804819D01*
X62761905Y-109804819D02*
X63142857Y-109804819D01*
X63142857Y-109804819D02*
X63238095Y-109852438D01*
X63238095Y-109852438D02*
X63285714Y-109900057D01*
X63285714Y-109900057D02*
X63333333Y-109995295D01*
X63333333Y-109995295D02*
X63333333Y-110138152D01*
X63333333Y-110138152D02*
X63285714Y-110233390D01*
X63285714Y-110233390D02*
X63238095Y-110281009D01*
X63238095Y-110281009D02*
X63142857Y-110328628D01*
X63142857Y-110328628D02*
X62761905Y-110328628D01*
X63666667Y-109804819D02*
X64285714Y-109804819D01*
X64285714Y-109804819D02*
X63952381Y-110185771D01*
X63952381Y-110185771D02*
X64095238Y-110185771D01*
X64095238Y-110185771D02*
X64190476Y-110233390D01*
X64190476Y-110233390D02*
X64238095Y-110281009D01*
X64238095Y-110281009D02*
X64285714Y-110376247D01*
X64285714Y-110376247D02*
X64285714Y-110614342D01*
X64285714Y-110614342D02*
X64238095Y-110709580D01*
X64238095Y-110709580D02*
X64190476Y-110757200D01*
X64190476Y-110757200D02*
X64095238Y-110804819D01*
X64095238Y-110804819D02*
X63809524Y-110804819D01*
X63809524Y-110804819D02*
X63714286Y-110757200D01*
X63714286Y-110757200D02*
X63666667Y-110709580D01*
X116333333Y-126304819D02*
X116000000Y-125828628D01*
X115761905Y-126304819D02*
X115761905Y-125304819D01*
X115761905Y-125304819D02*
X116142857Y-125304819D01*
X116142857Y-125304819D02*
X116238095Y-125352438D01*
X116238095Y-125352438D02*
X116285714Y-125400057D01*
X116285714Y-125400057D02*
X116333333Y-125495295D01*
X116333333Y-125495295D02*
X116333333Y-125638152D01*
X116333333Y-125638152D02*
X116285714Y-125733390D01*
X116285714Y-125733390D02*
X116238095Y-125781009D01*
X116238095Y-125781009D02*
X116142857Y-125828628D01*
X116142857Y-125828628D02*
X115761905Y-125828628D01*
X116666667Y-125304819D02*
X117333333Y-125304819D01*
X117333333Y-125304819D02*
X116904762Y-126304819D01*
X57785714Y-101554819D02*
X57690476Y-101507200D01*
X57690476Y-101507200D02*
X57642857Y-101459580D01*
X57642857Y-101459580D02*
X57595238Y-101364342D01*
X57595238Y-101364342D02*
X57595238Y-101078628D01*
X57595238Y-101078628D02*
X57642857Y-100983390D01*
X57642857Y-100983390D02*
X57690476Y-100935771D01*
X57690476Y-100935771D02*
X57785714Y-100888152D01*
X57785714Y-100888152D02*
X57928571Y-100888152D01*
X57928571Y-100888152D02*
X58023809Y-100935771D01*
X58023809Y-100935771D02*
X58071428Y-100983390D01*
X58071428Y-100983390D02*
X58119047Y-101078628D01*
X58119047Y-101078628D02*
X58119047Y-101364342D01*
X58119047Y-101364342D02*
X58071428Y-101459580D01*
X58071428Y-101459580D02*
X58023809Y-101507200D01*
X58023809Y-101507200D02*
X57928571Y-101554819D01*
X57928571Y-101554819D02*
X57785714Y-101554819D01*
X58547619Y-101554819D02*
X58547619Y-100888152D01*
X58547619Y-100983390D02*
X58595238Y-100935771D01*
X58595238Y-100935771D02*
X58690476Y-100888152D01*
X58690476Y-100888152D02*
X58833333Y-100888152D01*
X58833333Y-100888152D02*
X58928571Y-100935771D01*
X58928571Y-100935771D02*
X58976190Y-101031009D01*
X58976190Y-101031009D02*
X58976190Y-101554819D01*
X58976190Y-101031009D02*
X59023809Y-100935771D01*
X59023809Y-100935771D02*
X59119047Y-100888152D01*
X59119047Y-100888152D02*
X59261904Y-100888152D01*
X59261904Y-100888152D02*
X59357143Y-100935771D01*
X59357143Y-100935771D02*
X59404762Y-101031009D01*
X59404762Y-101031009D02*
X59404762Y-101554819D01*
X60404761Y-101554819D02*
X59833333Y-101554819D01*
X60119047Y-101554819D02*
X60119047Y-100554819D01*
X60119047Y-100554819D02*
X60023809Y-100697676D01*
X60023809Y-100697676D02*
X59928571Y-100792914D01*
X59928571Y-100792914D02*
X59833333Y-100840533D01*
X54054819Y-116714285D02*
X54007200Y-116809523D01*
X54007200Y-116809523D02*
X53959580Y-116857142D01*
X53959580Y-116857142D02*
X53864342Y-116904761D01*
X53864342Y-116904761D02*
X53578628Y-116904761D01*
X53578628Y-116904761D02*
X53483390Y-116857142D01*
X53483390Y-116857142D02*
X53435771Y-116809523D01*
X53435771Y-116809523D02*
X53388152Y-116714285D01*
X53388152Y-116714285D02*
X53388152Y-116571428D01*
X53388152Y-116571428D02*
X53435771Y-116476190D01*
X53435771Y-116476190D02*
X53483390Y-116428571D01*
X53483390Y-116428571D02*
X53578628Y-116380952D01*
X53578628Y-116380952D02*
X53864342Y-116380952D01*
X53864342Y-116380952D02*
X53959580Y-116428571D01*
X53959580Y-116428571D02*
X54007200Y-116476190D01*
X54007200Y-116476190D02*
X54054819Y-116571428D01*
X54054819Y-116571428D02*
X54054819Y-116714285D01*
X54054819Y-115952380D02*
X53388152Y-115952380D01*
X53483390Y-115952380D02*
X53435771Y-115904761D01*
X53435771Y-115904761D02*
X53388152Y-115809523D01*
X53388152Y-115809523D02*
X53388152Y-115666666D01*
X53388152Y-115666666D02*
X53435771Y-115571428D01*
X53435771Y-115571428D02*
X53531009Y-115523809D01*
X53531009Y-115523809D02*
X54054819Y-115523809D01*
X53531009Y-115523809D02*
X53435771Y-115476190D01*
X53435771Y-115476190D02*
X53388152Y-115380952D01*
X53388152Y-115380952D02*
X53388152Y-115238095D01*
X53388152Y-115238095D02*
X53435771Y-115142856D01*
X53435771Y-115142856D02*
X53531009Y-115095237D01*
X53531009Y-115095237D02*
X54054819Y-115095237D01*
X53150057Y-114666666D02*
X53102438Y-114619047D01*
X53102438Y-114619047D02*
X53054819Y-114523809D01*
X53054819Y-114523809D02*
X53054819Y-114285714D01*
X53054819Y-114285714D02*
X53102438Y-114190476D01*
X53102438Y-114190476D02*
X53150057Y-114142857D01*
X53150057Y-114142857D02*
X53245295Y-114095238D01*
X53245295Y-114095238D02*
X53340533Y-114095238D01*
X53340533Y-114095238D02*
X53483390Y-114142857D01*
X53483390Y-114142857D02*
X54054819Y-114714285D01*
X54054819Y-114714285D02*
X54054819Y-114095238D01*
X81833333Y-125304819D02*
X81500000Y-124828628D01*
X81261905Y-125304819D02*
X81261905Y-124304819D01*
X81261905Y-124304819D02*
X81642857Y-124304819D01*
X81642857Y-124304819D02*
X81738095Y-124352438D01*
X81738095Y-124352438D02*
X81785714Y-124400057D01*
X81785714Y-124400057D02*
X81833333Y-124495295D01*
X81833333Y-124495295D02*
X81833333Y-124638152D01*
X81833333Y-124638152D02*
X81785714Y-124733390D01*
X81785714Y-124733390D02*
X81738095Y-124781009D01*
X81738095Y-124781009D02*
X81642857Y-124828628D01*
X81642857Y-124828628D02*
X81261905Y-124828628D01*
X82738095Y-124304819D02*
X82261905Y-124304819D01*
X82261905Y-124304819D02*
X82214286Y-124781009D01*
X82214286Y-124781009D02*
X82261905Y-124733390D01*
X82261905Y-124733390D02*
X82357143Y-124685771D01*
X82357143Y-124685771D02*
X82595238Y-124685771D01*
X82595238Y-124685771D02*
X82690476Y-124733390D01*
X82690476Y-124733390D02*
X82738095Y-124781009D01*
X82738095Y-124781009D02*
X82785714Y-124876247D01*
X82785714Y-124876247D02*
X82785714Y-125114342D01*
X82785714Y-125114342D02*
X82738095Y-125209580D01*
X82738095Y-125209580D02*
X82690476Y-125257200D01*
X82690476Y-125257200D02*
X82595238Y-125304819D01*
X82595238Y-125304819D02*
X82357143Y-125304819D01*
X82357143Y-125304819D02*
X82261905Y-125257200D01*
X82261905Y-125257200D02*
X82214286Y-125209580D01*
X61833333Y-116179580D02*
X61785714Y-116227200D01*
X61785714Y-116227200D02*
X61642857Y-116274819D01*
X61642857Y-116274819D02*
X61547619Y-116274819D01*
X61547619Y-116274819D02*
X61404762Y-116227200D01*
X61404762Y-116227200D02*
X61309524Y-116131961D01*
X61309524Y-116131961D02*
X61261905Y-116036723D01*
X61261905Y-116036723D02*
X61214286Y-115846247D01*
X61214286Y-115846247D02*
X61214286Y-115703390D01*
X61214286Y-115703390D02*
X61261905Y-115512914D01*
X61261905Y-115512914D02*
X61309524Y-115417676D01*
X61309524Y-115417676D02*
X61404762Y-115322438D01*
X61404762Y-115322438D02*
X61547619Y-115274819D01*
X61547619Y-115274819D02*
X61642857Y-115274819D01*
X61642857Y-115274819D02*
X61785714Y-115322438D01*
X61785714Y-115322438D02*
X61833333Y-115370057D01*
X62785714Y-116274819D02*
X62214286Y-116274819D01*
X62500000Y-116274819D02*
X62500000Y-115274819D01*
X62500000Y-115274819D02*
X62404762Y-115417676D01*
X62404762Y-115417676D02*
X62309524Y-115512914D01*
X62309524Y-115512914D02*
X62214286Y-115560533D01*
X60954819Y-129333333D02*
X61669104Y-129333333D01*
X61669104Y-129333333D02*
X61811961Y-129380952D01*
X61811961Y-129380952D02*
X61907200Y-129476190D01*
X61907200Y-129476190D02*
X61954819Y-129619047D01*
X61954819Y-129619047D02*
X61954819Y-129714285D01*
X60954819Y-128952380D02*
X60954819Y-128285714D01*
X60954819Y-128285714D02*
X61954819Y-128714285D01*
X57614700Y-136071428D02*
X57614700Y-134928571D01*
X58186128Y-135499999D02*
X57043271Y-135499999D01*
X57614700Y-123071428D02*
X57614700Y-121928571D01*
X120857142Y-125179580D02*
X120809523Y-125227200D01*
X120809523Y-125227200D02*
X120666666Y-125274819D01*
X120666666Y-125274819D02*
X120571428Y-125274819D01*
X120571428Y-125274819D02*
X120428571Y-125227200D01*
X120428571Y-125227200D02*
X120333333Y-125131961D01*
X120333333Y-125131961D02*
X120285714Y-125036723D01*
X120285714Y-125036723D02*
X120238095Y-124846247D01*
X120238095Y-124846247D02*
X120238095Y-124703390D01*
X120238095Y-124703390D02*
X120285714Y-124512914D01*
X120285714Y-124512914D02*
X120333333Y-124417676D01*
X120333333Y-124417676D02*
X120428571Y-124322438D01*
X120428571Y-124322438D02*
X120571428Y-124274819D01*
X120571428Y-124274819D02*
X120666666Y-124274819D01*
X120666666Y-124274819D02*
X120809523Y-124322438D01*
X120809523Y-124322438D02*
X120857142Y-124370057D01*
X121238095Y-124370057D02*
X121285714Y-124322438D01*
X121285714Y-124322438D02*
X121380952Y-124274819D01*
X121380952Y-124274819D02*
X121619047Y-124274819D01*
X121619047Y-124274819D02*
X121714285Y-124322438D01*
X121714285Y-124322438D02*
X121761904Y-124370057D01*
X121761904Y-124370057D02*
X121809523Y-124465295D01*
X121809523Y-124465295D02*
X121809523Y-124560533D01*
X121809523Y-124560533D02*
X121761904Y-124703390D01*
X121761904Y-124703390D02*
X121190476Y-125274819D01*
X121190476Y-125274819D02*
X121809523Y-125274819D01*
X122761904Y-125274819D02*
X122190476Y-125274819D01*
X122476190Y-125274819D02*
X122476190Y-124274819D01*
X122476190Y-124274819D02*
X122380952Y-124417676D01*
X122380952Y-124417676D02*
X122285714Y-124512914D01*
X122285714Y-124512914D02*
X122190476Y-124560533D01*
X179844819Y-131579523D02*
X180559104Y-131579523D01*
X180559104Y-131579523D02*
X180701961Y-131627142D01*
X180701961Y-131627142D02*
X180797200Y-131722380D01*
X180797200Y-131722380D02*
X180844819Y-131865237D01*
X180844819Y-131865237D02*
X180844819Y-131960475D01*
X180844819Y-130579523D02*
X180844819Y-131150951D01*
X180844819Y-130865237D02*
X179844819Y-130865237D01*
X179844819Y-130865237D02*
X179987676Y-130960475D01*
X179987676Y-130960475D02*
X180082914Y-131055713D01*
X180082914Y-131055713D02*
X180130533Y-131150951D01*
X179844819Y-129674761D02*
X179844819Y-130150951D01*
X179844819Y-130150951D02*
X180321009Y-130198570D01*
X180321009Y-130198570D02*
X180273390Y-130150951D01*
X180273390Y-130150951D02*
X180225771Y-130055713D01*
X180225771Y-130055713D02*
X180225771Y-129817618D01*
X180225771Y-129817618D02*
X180273390Y-129722380D01*
X180273390Y-129722380D02*
X180321009Y-129674761D01*
X180321009Y-129674761D02*
X180416247Y-129627142D01*
X180416247Y-129627142D02*
X180654342Y-129627142D01*
X180654342Y-129627142D02*
X180749580Y-129674761D01*
X180749580Y-129674761D02*
X180797200Y-129722380D01*
X180797200Y-129722380D02*
X180844819Y-129817618D01*
X180844819Y-129817618D02*
X180844819Y-130055713D01*
X180844819Y-130055713D02*
X180797200Y-130150951D01*
X180797200Y-130150951D02*
X180749580Y-130198570D01*
X185333333Y-101179580D02*
X185285714Y-101227200D01*
X185285714Y-101227200D02*
X185142857Y-101274819D01*
X185142857Y-101274819D02*
X185047619Y-101274819D01*
X185047619Y-101274819D02*
X184904762Y-101227200D01*
X184904762Y-101227200D02*
X184809524Y-101131961D01*
X184809524Y-101131961D02*
X184761905Y-101036723D01*
X184761905Y-101036723D02*
X184714286Y-100846247D01*
X184714286Y-100846247D02*
X184714286Y-100703390D01*
X184714286Y-100703390D02*
X184761905Y-100512914D01*
X184761905Y-100512914D02*
X184809524Y-100417676D01*
X184809524Y-100417676D02*
X184904762Y-100322438D01*
X184904762Y-100322438D02*
X185047619Y-100274819D01*
X185047619Y-100274819D02*
X185142857Y-100274819D01*
X185142857Y-100274819D02*
X185285714Y-100322438D01*
X185285714Y-100322438D02*
X185333333Y-100370057D01*
X185666667Y-100274819D02*
X186285714Y-100274819D01*
X186285714Y-100274819D02*
X185952381Y-100655771D01*
X185952381Y-100655771D02*
X186095238Y-100655771D01*
X186095238Y-100655771D02*
X186190476Y-100703390D01*
X186190476Y-100703390D02*
X186238095Y-100751009D01*
X186238095Y-100751009D02*
X186285714Y-100846247D01*
X186285714Y-100846247D02*
X186285714Y-101084342D01*
X186285714Y-101084342D02*
X186238095Y-101179580D01*
X186238095Y-101179580D02*
X186190476Y-101227200D01*
X186190476Y-101227200D02*
X186095238Y-101274819D01*
X186095238Y-101274819D02*
X185809524Y-101274819D01*
X185809524Y-101274819D02*
X185714286Y-101227200D01*
X185714286Y-101227200D02*
X185666667Y-101179580D01*
X137087200Y-126523809D02*
X137134819Y-126428571D01*
X137134819Y-126428571D02*
X137134819Y-126238095D01*
X137134819Y-126238095D02*
X137087200Y-126142857D01*
X137087200Y-126142857D02*
X136991961Y-126095238D01*
X136991961Y-126095238D02*
X136944342Y-126095238D01*
X136944342Y-126095238D02*
X136849104Y-126142857D01*
X136849104Y-126142857D02*
X136801485Y-126238095D01*
X136801485Y-126238095D02*
X136801485Y-126380952D01*
X136801485Y-126380952D02*
X136753866Y-126476190D01*
X136753866Y-126476190D02*
X136658628Y-126523809D01*
X136658628Y-126523809D02*
X136611009Y-126523809D01*
X136611009Y-126523809D02*
X136515771Y-126476190D01*
X136515771Y-126476190D02*
X136468152Y-126380952D01*
X136468152Y-126380952D02*
X136468152Y-126238095D01*
X136468152Y-126238095D02*
X136515771Y-126142857D01*
X136468152Y-125809523D02*
X136468152Y-125428571D01*
X136134819Y-125666666D02*
X136991961Y-125666666D01*
X136991961Y-125666666D02*
X137087200Y-125619047D01*
X137087200Y-125619047D02*
X137134819Y-125523809D01*
X137134819Y-125523809D02*
X137134819Y-125428571D01*
X137134819Y-124666666D02*
X136611009Y-124666666D01*
X136611009Y-124666666D02*
X136515771Y-124714285D01*
X136515771Y-124714285D02*
X136468152Y-124809523D01*
X136468152Y-124809523D02*
X136468152Y-124999999D01*
X136468152Y-124999999D02*
X136515771Y-125095237D01*
X137087200Y-124666666D02*
X137134819Y-124761904D01*
X137134819Y-124761904D02*
X137134819Y-124999999D01*
X137134819Y-124999999D02*
X137087200Y-125095237D01*
X137087200Y-125095237D02*
X136991961Y-125142856D01*
X136991961Y-125142856D02*
X136896723Y-125142856D01*
X136896723Y-125142856D02*
X136801485Y-125095237D01*
X136801485Y-125095237D02*
X136753866Y-124999999D01*
X136753866Y-124999999D02*
X136753866Y-124761904D01*
X136753866Y-124761904D02*
X136706247Y-124666666D01*
X137134819Y-124190475D02*
X136468152Y-124190475D01*
X136658628Y-124190475D02*
X136563390Y-124142856D01*
X136563390Y-124142856D02*
X136515771Y-124095237D01*
X136515771Y-124095237D02*
X136468152Y-123999999D01*
X136468152Y-123999999D02*
X136468152Y-123904761D01*
X136468152Y-123714284D02*
X136468152Y-123333332D01*
X136134819Y-123571427D02*
X136991961Y-123571427D01*
X136991961Y-123571427D02*
X137087200Y-123523808D01*
X137087200Y-123523808D02*
X137134819Y-123428570D01*
X137134819Y-123428570D02*
X137134819Y-123333332D01*
X137134819Y-122476189D02*
X137134819Y-123047617D01*
X137134819Y-122761903D02*
X136134819Y-122761903D01*
X136134819Y-122761903D02*
X136277676Y-122857141D01*
X136277676Y-122857141D02*
X136372914Y-122952379D01*
X136372914Y-122952379D02*
X136420533Y-123047617D01*
X78285714Y-128054819D02*
X78190476Y-128007200D01*
X78190476Y-128007200D02*
X78142857Y-127959580D01*
X78142857Y-127959580D02*
X78095238Y-127864342D01*
X78095238Y-127864342D02*
X78095238Y-127578628D01*
X78095238Y-127578628D02*
X78142857Y-127483390D01*
X78142857Y-127483390D02*
X78190476Y-127435771D01*
X78190476Y-127435771D02*
X78285714Y-127388152D01*
X78285714Y-127388152D02*
X78428571Y-127388152D01*
X78428571Y-127388152D02*
X78523809Y-127435771D01*
X78523809Y-127435771D02*
X78571428Y-127483390D01*
X78571428Y-127483390D02*
X78619047Y-127578628D01*
X78619047Y-127578628D02*
X78619047Y-127864342D01*
X78619047Y-127864342D02*
X78571428Y-127959580D01*
X78571428Y-127959580D02*
X78523809Y-128007200D01*
X78523809Y-128007200D02*
X78428571Y-128054819D01*
X78428571Y-128054819D02*
X78285714Y-128054819D01*
X79047619Y-128054819D02*
X79047619Y-127388152D01*
X79047619Y-127483390D02*
X79095238Y-127435771D01*
X79095238Y-127435771D02*
X79190476Y-127388152D01*
X79190476Y-127388152D02*
X79333333Y-127388152D01*
X79333333Y-127388152D02*
X79428571Y-127435771D01*
X79428571Y-127435771D02*
X79476190Y-127531009D01*
X79476190Y-127531009D02*
X79476190Y-128054819D01*
X79476190Y-127531009D02*
X79523809Y-127435771D01*
X79523809Y-127435771D02*
X79619047Y-127388152D01*
X79619047Y-127388152D02*
X79761904Y-127388152D01*
X79761904Y-127388152D02*
X79857143Y-127435771D01*
X79857143Y-127435771D02*
X79904762Y-127531009D01*
X79904762Y-127531009D02*
X79904762Y-128054819D01*
X80285714Y-127054819D02*
X80904761Y-127054819D01*
X80904761Y-127054819D02*
X80571428Y-127435771D01*
X80571428Y-127435771D02*
X80714285Y-127435771D01*
X80714285Y-127435771D02*
X80809523Y-127483390D01*
X80809523Y-127483390D02*
X80857142Y-127531009D01*
X80857142Y-127531009D02*
X80904761Y-127626247D01*
X80904761Y-127626247D02*
X80904761Y-127864342D01*
X80904761Y-127864342D02*
X80857142Y-127959580D01*
X80857142Y-127959580D02*
X80809523Y-128007200D01*
X80809523Y-128007200D02*
X80714285Y-128054819D01*
X80714285Y-128054819D02*
X80428571Y-128054819D01*
X80428571Y-128054819D02*
X80333333Y-128007200D01*
X80333333Y-128007200D02*
X80285714Y-127959580D01*
X76179580Y-126166666D02*
X76227200Y-126214285D01*
X76227200Y-126214285D02*
X76274819Y-126357142D01*
X76274819Y-126357142D02*
X76274819Y-126452380D01*
X76274819Y-126452380D02*
X76227200Y-126595237D01*
X76227200Y-126595237D02*
X76131961Y-126690475D01*
X76131961Y-126690475D02*
X76036723Y-126738094D01*
X76036723Y-126738094D02*
X75846247Y-126785713D01*
X75846247Y-126785713D02*
X75703390Y-126785713D01*
X75703390Y-126785713D02*
X75512914Y-126738094D01*
X75512914Y-126738094D02*
X75417676Y-126690475D01*
X75417676Y-126690475D02*
X75322438Y-126595237D01*
X75322438Y-126595237D02*
X75274819Y-126452380D01*
X75274819Y-126452380D02*
X75274819Y-126357142D01*
X75274819Y-126357142D02*
X75322438Y-126214285D01*
X75322438Y-126214285D02*
X75370057Y-126166666D01*
X75370057Y-125785713D02*
X75322438Y-125738094D01*
X75322438Y-125738094D02*
X75274819Y-125642856D01*
X75274819Y-125642856D02*
X75274819Y-125404761D01*
X75274819Y-125404761D02*
X75322438Y-125309523D01*
X75322438Y-125309523D02*
X75370057Y-125261904D01*
X75370057Y-125261904D02*
X75465295Y-125214285D01*
X75465295Y-125214285D02*
X75560533Y-125214285D01*
X75560533Y-125214285D02*
X75703390Y-125261904D01*
X75703390Y-125261904D02*
X76274819Y-125833332D01*
X76274819Y-125833332D02*
X76274819Y-125214285D01*
X65833333Y-101804819D02*
X65500000Y-101328628D01*
X65261905Y-101804819D02*
X65261905Y-100804819D01*
X65261905Y-100804819D02*
X65642857Y-100804819D01*
X65642857Y-100804819D02*
X65738095Y-100852438D01*
X65738095Y-100852438D02*
X65785714Y-100900057D01*
X65785714Y-100900057D02*
X65833333Y-100995295D01*
X65833333Y-100995295D02*
X65833333Y-101138152D01*
X65833333Y-101138152D02*
X65785714Y-101233390D01*
X65785714Y-101233390D02*
X65738095Y-101281009D01*
X65738095Y-101281009D02*
X65642857Y-101328628D01*
X65642857Y-101328628D02*
X65261905Y-101328628D01*
X66785714Y-101804819D02*
X66214286Y-101804819D01*
X66500000Y-101804819D02*
X66500000Y-100804819D01*
X66500000Y-100804819D02*
X66404762Y-100947676D01*
X66404762Y-100947676D02*
X66309524Y-101042914D01*
X66309524Y-101042914D02*
X66214286Y-101090533D01*
X74833333Y-102304819D02*
X74500000Y-101828628D01*
X74261905Y-102304819D02*
X74261905Y-101304819D01*
X74261905Y-101304819D02*
X74642857Y-101304819D01*
X74642857Y-101304819D02*
X74738095Y-101352438D01*
X74738095Y-101352438D02*
X74785714Y-101400057D01*
X74785714Y-101400057D02*
X74833333Y-101495295D01*
X74833333Y-101495295D02*
X74833333Y-101638152D01*
X74833333Y-101638152D02*
X74785714Y-101733390D01*
X74785714Y-101733390D02*
X74738095Y-101781009D01*
X74738095Y-101781009D02*
X74642857Y-101828628D01*
X74642857Y-101828628D02*
X74261905Y-101828628D01*
X75214286Y-101400057D02*
X75261905Y-101352438D01*
X75261905Y-101352438D02*
X75357143Y-101304819D01*
X75357143Y-101304819D02*
X75595238Y-101304819D01*
X75595238Y-101304819D02*
X75690476Y-101352438D01*
X75690476Y-101352438D02*
X75738095Y-101400057D01*
X75738095Y-101400057D02*
X75785714Y-101495295D01*
X75785714Y-101495295D02*
X75785714Y-101590533D01*
X75785714Y-101590533D02*
X75738095Y-101733390D01*
X75738095Y-101733390D02*
X75166667Y-102304819D01*
X75166667Y-102304819D02*
X75785714Y-102304819D01*
X104933095Y-100659819D02*
X104933095Y-101469342D01*
X104933095Y-101469342D02*
X104980714Y-101564580D01*
X104980714Y-101564580D02*
X105028333Y-101612200D01*
X105028333Y-101612200D02*
X105123571Y-101659819D01*
X105123571Y-101659819D02*
X105314047Y-101659819D01*
X105314047Y-101659819D02*
X105409285Y-101612200D01*
X105409285Y-101612200D02*
X105456904Y-101564580D01*
X105456904Y-101564580D02*
X105504523Y-101469342D01*
X105504523Y-101469342D02*
X105504523Y-100659819D01*
X106504523Y-101659819D02*
X105933095Y-101659819D01*
X106218809Y-101659819D02*
X106218809Y-100659819D01*
X106218809Y-100659819D02*
X106123571Y-100802676D01*
X106123571Y-100802676D02*
X106028333Y-100897914D01*
X106028333Y-100897914D02*
X105933095Y-100945533D01*
X111833333Y-125679580D02*
X111785714Y-125727200D01*
X111785714Y-125727200D02*
X111642857Y-125774819D01*
X111642857Y-125774819D02*
X111547619Y-125774819D01*
X111547619Y-125774819D02*
X111404762Y-125727200D01*
X111404762Y-125727200D02*
X111309524Y-125631961D01*
X111309524Y-125631961D02*
X111261905Y-125536723D01*
X111261905Y-125536723D02*
X111214286Y-125346247D01*
X111214286Y-125346247D02*
X111214286Y-125203390D01*
X111214286Y-125203390D02*
X111261905Y-125012914D01*
X111261905Y-125012914D02*
X111309524Y-124917676D01*
X111309524Y-124917676D02*
X111404762Y-124822438D01*
X111404762Y-124822438D02*
X111547619Y-124774819D01*
X111547619Y-124774819D02*
X111642857Y-124774819D01*
X111642857Y-124774819D02*
X111785714Y-124822438D01*
X111785714Y-124822438D02*
X111833333Y-124870057D01*
X112690476Y-124774819D02*
X112500000Y-124774819D01*
X112500000Y-124774819D02*
X112404762Y-124822438D01*
X112404762Y-124822438D02*
X112357143Y-124870057D01*
X112357143Y-124870057D02*
X112261905Y-125012914D01*
X112261905Y-125012914D02*
X112214286Y-125203390D01*
X112214286Y-125203390D02*
X112214286Y-125584342D01*
X112214286Y-125584342D02*
X112261905Y-125679580D01*
X112261905Y-125679580D02*
X112309524Y-125727200D01*
X112309524Y-125727200D02*
X112404762Y-125774819D01*
X112404762Y-125774819D02*
X112595238Y-125774819D01*
X112595238Y-125774819D02*
X112690476Y-125727200D01*
X112690476Y-125727200D02*
X112738095Y-125679580D01*
X112738095Y-125679580D02*
X112785714Y-125584342D01*
X112785714Y-125584342D02*
X112785714Y-125346247D01*
X112785714Y-125346247D02*
X112738095Y-125251009D01*
X112738095Y-125251009D02*
X112690476Y-125203390D01*
X112690476Y-125203390D02*
X112595238Y-125155771D01*
X112595238Y-125155771D02*
X112404762Y-125155771D01*
X112404762Y-125155771D02*
X112309524Y-125203390D01*
X112309524Y-125203390D02*
X112261905Y-125251009D01*
X112261905Y-125251009D02*
X112214286Y-125346247D01*
X75657278Y-132110463D02*
X75704988Y-131967332D01*
X75704988Y-131967332D02*
X75704988Y-131728779D01*
X75704988Y-131728779D02*
X75657278Y-131633358D01*
X75657278Y-131633358D02*
X75609567Y-131585648D01*
X75609567Y-131585648D02*
X75514146Y-131537937D01*
X75514146Y-131537937D02*
X75418725Y-131537937D01*
X75418725Y-131537937D02*
X75323304Y-131585648D01*
X75323304Y-131585648D02*
X75275593Y-131633358D01*
X75275593Y-131633358D02*
X75227883Y-131728779D01*
X75227883Y-131728779D02*
X75180172Y-131919621D01*
X75180172Y-131919621D02*
X75132462Y-132015042D01*
X75132462Y-132015042D02*
X75084751Y-132062753D01*
X75084751Y-132062753D02*
X74989330Y-132110463D01*
X74989330Y-132110463D02*
X74893909Y-132110463D01*
X74893909Y-132110463D02*
X74798488Y-132062753D01*
X74798488Y-132062753D02*
X74750778Y-132015042D01*
X74750778Y-132015042D02*
X74703067Y-131919621D01*
X74703067Y-131919621D02*
X74703067Y-131681069D01*
X74703067Y-131681069D02*
X74750778Y-131537937D01*
X74703067Y-131203964D02*
X75704988Y-130965411D01*
X75704988Y-130965411D02*
X74989330Y-130774569D01*
X74989330Y-130774569D02*
X75704988Y-130583727D01*
X75704988Y-130583727D02*
X74703067Y-130345175D01*
X75704988Y-129438674D02*
X75704988Y-130011200D01*
X75704988Y-129724937D02*
X74703067Y-129724937D01*
X74703067Y-129724937D02*
X74846199Y-129820358D01*
X74846199Y-129820358D02*
X74941620Y-129915779D01*
X74941620Y-129915779D02*
X74989330Y-130011200D01*
X66039819Y-119686904D02*
X66849342Y-119686904D01*
X66849342Y-119686904D02*
X66944580Y-119639285D01*
X66944580Y-119639285D02*
X66992200Y-119591666D01*
X66992200Y-119591666D02*
X67039819Y-119496428D01*
X67039819Y-119496428D02*
X67039819Y-119305952D01*
X67039819Y-119305952D02*
X66992200Y-119210714D01*
X66992200Y-119210714D02*
X66944580Y-119163095D01*
X66944580Y-119163095D02*
X66849342Y-119115476D01*
X66849342Y-119115476D02*
X66039819Y-119115476D01*
X67039819Y-118591666D02*
X67039819Y-118401190D01*
X67039819Y-118401190D02*
X66992200Y-118305952D01*
X66992200Y-118305952D02*
X66944580Y-118258333D01*
X66944580Y-118258333D02*
X66801723Y-118163095D01*
X66801723Y-118163095D02*
X66611247Y-118115476D01*
X66611247Y-118115476D02*
X66230295Y-118115476D01*
X66230295Y-118115476D02*
X66135057Y-118163095D01*
X66135057Y-118163095D02*
X66087438Y-118210714D01*
X66087438Y-118210714D02*
X66039819Y-118305952D01*
X66039819Y-118305952D02*
X66039819Y-118496428D01*
X66039819Y-118496428D02*
X66087438Y-118591666D01*
X66087438Y-118591666D02*
X66135057Y-118639285D01*
X66135057Y-118639285D02*
X66230295Y-118686904D01*
X66230295Y-118686904D02*
X66468390Y-118686904D01*
X66468390Y-118686904D02*
X66563628Y-118639285D01*
X66563628Y-118639285D02*
X66611247Y-118591666D01*
X66611247Y-118591666D02*
X66658866Y-118496428D01*
X66658866Y-118496428D02*
X66658866Y-118305952D01*
X66658866Y-118305952D02*
X66611247Y-118210714D01*
X66611247Y-118210714D02*
X66563628Y-118163095D01*
X66563628Y-118163095D02*
X66468390Y-118115476D01*
X123190476Y-127554819D02*
X123190476Y-128269104D01*
X123190476Y-128269104D02*
X123142857Y-128411961D01*
X123142857Y-128411961D02*
X123047619Y-128507200D01*
X123047619Y-128507200D02*
X122904762Y-128554819D01*
X122904762Y-128554819D02*
X122809524Y-128554819D01*
X123619048Y-127650057D02*
X123666667Y-127602438D01*
X123666667Y-127602438D02*
X123761905Y-127554819D01*
X123761905Y-127554819D02*
X124000000Y-127554819D01*
X124000000Y-127554819D02*
X124095238Y-127602438D01*
X124095238Y-127602438D02*
X124142857Y-127650057D01*
X124142857Y-127650057D02*
X124190476Y-127745295D01*
X124190476Y-127745295D02*
X124190476Y-127840533D01*
X124190476Y-127840533D02*
X124142857Y-127983390D01*
X124142857Y-127983390D02*
X123571429Y-128554819D01*
X123571429Y-128554819D02*
X124190476Y-128554819D01*
X124809524Y-127554819D02*
X124904762Y-127554819D01*
X124904762Y-127554819D02*
X125000000Y-127602438D01*
X125000000Y-127602438D02*
X125047619Y-127650057D01*
X125047619Y-127650057D02*
X125095238Y-127745295D01*
X125095238Y-127745295D02*
X125142857Y-127935771D01*
X125142857Y-127935771D02*
X125142857Y-128173866D01*
X125142857Y-128173866D02*
X125095238Y-128364342D01*
X125095238Y-128364342D02*
X125047619Y-128459580D01*
X125047619Y-128459580D02*
X125000000Y-128507200D01*
X125000000Y-128507200D02*
X124904762Y-128554819D01*
X124904762Y-128554819D02*
X124809524Y-128554819D01*
X124809524Y-128554819D02*
X124714286Y-128507200D01*
X124714286Y-128507200D02*
X124666667Y-128459580D01*
X124666667Y-128459580D02*
X124619048Y-128364342D01*
X124619048Y-128364342D02*
X124571429Y-128173866D01*
X124571429Y-128173866D02*
X124571429Y-127935771D01*
X124571429Y-127935771D02*
X124619048Y-127745295D01*
X124619048Y-127745295D02*
X124666667Y-127650057D01*
X124666667Y-127650057D02*
X124714286Y-127602438D01*
X124714286Y-127602438D02*
X124809524Y-127554819D01*
X175554819Y-109833333D02*
X176269104Y-109833333D01*
X176269104Y-109833333D02*
X176411961Y-109880952D01*
X176411961Y-109880952D02*
X176507200Y-109976190D01*
X176507200Y-109976190D02*
X176554819Y-110119047D01*
X176554819Y-110119047D02*
X176554819Y-110214285D01*
X175554819Y-109452380D02*
X175554819Y-108833333D01*
X175554819Y-108833333D02*
X175935771Y-109166666D01*
X175935771Y-109166666D02*
X175935771Y-109023809D01*
X175935771Y-109023809D02*
X175983390Y-108928571D01*
X175983390Y-108928571D02*
X176031009Y-108880952D01*
X176031009Y-108880952D02*
X176126247Y-108833333D01*
X176126247Y-108833333D02*
X176364342Y-108833333D01*
X176364342Y-108833333D02*
X176459580Y-108880952D01*
X176459580Y-108880952D02*
X176507200Y-108928571D01*
X176507200Y-108928571D02*
X176554819Y-109023809D01*
X176554819Y-109023809D02*
X176554819Y-109309523D01*
X176554819Y-109309523D02*
X176507200Y-109404761D01*
X176507200Y-109404761D02*
X176459580Y-109452380D01*
X43429567Y-123447200D02*
X43572424Y-123494819D01*
X43572424Y-123494819D02*
X43810519Y-123494819D01*
X43810519Y-123494819D02*
X43905757Y-123447200D01*
X43905757Y-123447200D02*
X43953376Y-123399580D01*
X43953376Y-123399580D02*
X44000995Y-123304342D01*
X44000995Y-123304342D02*
X44000995Y-123209104D01*
X44000995Y-123209104D02*
X43953376Y-123113866D01*
X43953376Y-123113866D02*
X43905757Y-123066247D01*
X43905757Y-123066247D02*
X43810519Y-123018628D01*
X43810519Y-123018628D02*
X43620043Y-122971009D01*
X43620043Y-122971009D02*
X43524805Y-122923390D01*
X43524805Y-122923390D02*
X43477186Y-122875771D01*
X43477186Y-122875771D02*
X43429567Y-122780533D01*
X43429567Y-122780533D02*
X43429567Y-122685295D01*
X43429567Y-122685295D02*
X43477186Y-122590057D01*
X43477186Y-122590057D02*
X43524805Y-122542438D01*
X43524805Y-122542438D02*
X43620043Y-122494819D01*
X43620043Y-122494819D02*
X43858138Y-122494819D01*
X43858138Y-122494819D02*
X44000995Y-122542438D01*
X44334329Y-122494819D02*
X44572424Y-123494819D01*
X44572424Y-123494819D02*
X44762900Y-122780533D01*
X44762900Y-122780533D02*
X44953376Y-123494819D01*
X44953376Y-123494819D02*
X45191472Y-122494819D01*
X45524805Y-122590057D02*
X45572424Y-122542438D01*
X45572424Y-122542438D02*
X45667662Y-122494819D01*
X45667662Y-122494819D02*
X45905757Y-122494819D01*
X45905757Y-122494819D02*
X46000995Y-122542438D01*
X46000995Y-122542438D02*
X46048614Y-122590057D01*
X46048614Y-122590057D02*
X46096233Y-122685295D01*
X46096233Y-122685295D02*
X46096233Y-122780533D01*
X46096233Y-122780533D02*
X46048614Y-122923390D01*
X46048614Y-122923390D02*
X45477186Y-123494819D01*
X45477186Y-123494819D02*
X46096233Y-123494819D01*
X39771800Y-118468919D02*
X39771800Y-118707014D01*
X39533705Y-118611776D02*
X39771800Y-118707014D01*
X39771800Y-118707014D02*
X40009895Y-118611776D01*
X39628943Y-118897490D02*
X39771800Y-118707014D01*
X39771800Y-118707014D02*
X39914657Y-118897490D01*
X47623652Y-116271819D02*
X47814128Y-116271819D01*
X47814128Y-116271819D02*
X47909366Y-116319438D01*
X47909366Y-116319438D02*
X48004604Y-116414676D01*
X48004604Y-116414676D02*
X48052223Y-116605152D01*
X48052223Y-116605152D02*
X48052223Y-116938485D01*
X48052223Y-116938485D02*
X48004604Y-117128961D01*
X48004604Y-117128961D02*
X47909366Y-117224200D01*
X47909366Y-117224200D02*
X47814128Y-117271819D01*
X47814128Y-117271819D02*
X47623652Y-117271819D01*
X47623652Y-117271819D02*
X47528414Y-117224200D01*
X47528414Y-117224200D02*
X47433176Y-117128961D01*
X47433176Y-117128961D02*
X47385557Y-116938485D01*
X47385557Y-116938485D02*
X47385557Y-116605152D01*
X47385557Y-116605152D02*
X47433176Y-116414676D01*
X47433176Y-116414676D02*
X47528414Y-116319438D01*
X47528414Y-116319438D02*
X47623652Y-116271819D01*
X48480795Y-117271819D02*
X48480795Y-116271819D01*
X48480795Y-116271819D02*
X49052223Y-117271819D01*
X49052223Y-117271819D02*
X49052223Y-116271819D01*
X39771800Y-118468919D02*
X39771800Y-118707014D01*
X39533705Y-118611776D02*
X39771800Y-118707014D01*
X39771800Y-118707014D02*
X40009895Y-118611776D01*
X39628943Y-118897490D02*
X39771800Y-118707014D01*
X39771800Y-118707014D02*
X39914657Y-118897490D01*
X40330719Y-116271819D02*
X40521195Y-116271819D01*
X40521195Y-116271819D02*
X40616433Y-116319438D01*
X40616433Y-116319438D02*
X40711671Y-116414676D01*
X40711671Y-116414676D02*
X40759290Y-116605152D01*
X40759290Y-116605152D02*
X40759290Y-116938485D01*
X40759290Y-116938485D02*
X40711671Y-117128961D01*
X40711671Y-117128961D02*
X40616433Y-117224200D01*
X40616433Y-117224200D02*
X40521195Y-117271819D01*
X40521195Y-117271819D02*
X40330719Y-117271819D01*
X40330719Y-117271819D02*
X40235481Y-117224200D01*
X40235481Y-117224200D02*
X40140243Y-117128961D01*
X40140243Y-117128961D02*
X40092624Y-116938485D01*
X40092624Y-116938485D02*
X40092624Y-116605152D01*
X40092624Y-116605152D02*
X40140243Y-116414676D01*
X40140243Y-116414676D02*
X40235481Y-116319438D01*
X40235481Y-116319438D02*
X40330719Y-116271819D01*
X41521195Y-116748009D02*
X41187862Y-116748009D01*
X41187862Y-117271819D02*
X41187862Y-116271819D01*
X41187862Y-116271819D02*
X41664052Y-116271819D01*
X42378338Y-116748009D02*
X42045005Y-116748009D01*
X42045005Y-117271819D02*
X42045005Y-116271819D01*
X42045005Y-116271819D02*
X42521195Y-116271819D01*
X159690476Y-127054819D02*
X159690476Y-127769104D01*
X159690476Y-127769104D02*
X159642857Y-127911961D01*
X159642857Y-127911961D02*
X159547619Y-128007200D01*
X159547619Y-128007200D02*
X159404762Y-128054819D01*
X159404762Y-128054819D02*
X159309524Y-128054819D01*
X160690476Y-128054819D02*
X160119048Y-128054819D01*
X160404762Y-128054819D02*
X160404762Y-127054819D01*
X160404762Y-127054819D02*
X160309524Y-127197676D01*
X160309524Y-127197676D02*
X160214286Y-127292914D01*
X160214286Y-127292914D02*
X160119048Y-127340533D01*
X161023810Y-127054819D02*
X161690476Y-127054819D01*
X161690476Y-127054819D02*
X161261905Y-128054819D01*
X168285714Y-116054819D02*
X168190476Y-116007200D01*
X168190476Y-116007200D02*
X168142857Y-115959580D01*
X168142857Y-115959580D02*
X168095238Y-115864342D01*
X168095238Y-115864342D02*
X168095238Y-115578628D01*
X168095238Y-115578628D02*
X168142857Y-115483390D01*
X168142857Y-115483390D02*
X168190476Y-115435771D01*
X168190476Y-115435771D02*
X168285714Y-115388152D01*
X168285714Y-115388152D02*
X168428571Y-115388152D01*
X168428571Y-115388152D02*
X168523809Y-115435771D01*
X168523809Y-115435771D02*
X168571428Y-115483390D01*
X168571428Y-115483390D02*
X168619047Y-115578628D01*
X168619047Y-115578628D02*
X168619047Y-115864342D01*
X168619047Y-115864342D02*
X168571428Y-115959580D01*
X168571428Y-115959580D02*
X168523809Y-116007200D01*
X168523809Y-116007200D02*
X168428571Y-116054819D01*
X168428571Y-116054819D02*
X168285714Y-116054819D01*
X169047619Y-116054819D02*
X169047619Y-115388152D01*
X169047619Y-115483390D02*
X169095238Y-115435771D01*
X169095238Y-115435771D02*
X169190476Y-115388152D01*
X169190476Y-115388152D02*
X169333333Y-115388152D01*
X169333333Y-115388152D02*
X169428571Y-115435771D01*
X169428571Y-115435771D02*
X169476190Y-115531009D01*
X169476190Y-115531009D02*
X169476190Y-116054819D01*
X169476190Y-115531009D02*
X169523809Y-115435771D01*
X169523809Y-115435771D02*
X169619047Y-115388152D01*
X169619047Y-115388152D02*
X169761904Y-115388152D01*
X169761904Y-115388152D02*
X169857143Y-115435771D01*
X169857143Y-115435771D02*
X169904762Y-115531009D01*
X169904762Y-115531009D02*
X169904762Y-116054819D01*
X170285714Y-115054819D02*
X170952380Y-115054819D01*
X170952380Y-115054819D02*
X170523809Y-116054819D01*
D11*
%TO.C,J9*%
X131280000Y-127280000D02*
X139640000Y-127280000D01*
X131280000Y-129000000D02*
X139640000Y-129000000D01*
X131280000Y-132100000D02*
X139640000Y-132100000D01*
X131280000Y-133100000D02*
X139640000Y-133100000D01*
X131280000Y-134020000D02*
X131280000Y-127280000D01*
X132620000Y-134020000D02*
X131280000Y-134020000D01*
X139640000Y-127280000D02*
X139640000Y-134020000D01*
X139640000Y-134020000D02*
X133220000Y-134020000D01*
X133360000Y-134630000D02*
X132480000Y-134630000D01*
X132920000Y-134020000D01*
X133360000Y-134630000D01*
G36*
X133360000Y-134630000D02*
G01*
X132480000Y-134630000D01*
X132920000Y-134020000D01*
X133360000Y-134630000D01*
G37*
%TO.C,J2*%
X142640000Y-128390000D02*
X142640000Y-129640000D01*
X142940000Y-128690000D02*
X142940000Y-133410000D01*
X142940000Y-130000000D02*
X143550000Y-130000000D01*
X142940000Y-131300000D02*
X143550000Y-131300000D01*
X142940000Y-133410000D02*
X153060000Y-133410000D01*
X143550000Y-129300000D02*
X143550000Y-132800000D01*
X143550000Y-132800000D02*
X152450000Y-132800000D01*
X143890000Y-128390000D02*
X142640000Y-128390000D01*
X144400000Y-128490000D02*
X144400000Y-128690000D01*
X144700000Y-128490000D02*
X144400000Y-128490000D01*
X144700000Y-128590000D02*
X144400000Y-128590000D01*
X144700000Y-128690000D02*
X144700000Y-128490000D01*
X145500000Y-128690000D02*
X145500000Y-129300000D01*
X145500000Y-129300000D02*
X143550000Y-129300000D01*
X145900000Y-132300000D02*
X146100000Y-132300000D01*
X145900000Y-132800000D02*
X145900000Y-132300000D01*
X146000000Y-132800000D02*
X146000000Y-132300000D01*
X146100000Y-132300000D02*
X146100000Y-132800000D01*
X147900000Y-132300000D02*
X148100000Y-132300000D01*
X147900000Y-132800000D02*
X147900000Y-132300000D01*
X148000000Y-132800000D02*
X148000000Y-132300000D01*
X148100000Y-132300000D02*
X148100000Y-132800000D01*
X149900000Y-132300000D02*
X150100000Y-132300000D01*
X149900000Y-132800000D02*
X149900000Y-132300000D01*
X150000000Y-132800000D02*
X150000000Y-132300000D01*
X150100000Y-132300000D02*
X150100000Y-132800000D01*
X150500000Y-129300000D02*
X150500000Y-128690000D01*
X152450000Y-129300000D02*
X150500000Y-129300000D01*
X152450000Y-132800000D02*
X152450000Y-129300000D01*
X153060000Y-128690000D02*
X142940000Y-128690000D01*
X153060000Y-130000000D02*
X152450000Y-130000000D01*
X153060000Y-131300000D02*
X152450000Y-131300000D01*
X153060000Y-133410000D02*
X153060000Y-128690000D01*
%TO.C,R8*%
X111772936Y-122765000D02*
X112227064Y-122765000D01*
X111772936Y-124235000D02*
X112227064Y-124235000D01*
%TO.C,J19*%
X97140000Y-128890000D02*
X97140000Y-130140000D01*
X97440000Y-129190000D02*
X97440000Y-133910000D01*
X97440000Y-130500000D02*
X98050000Y-130500000D01*
X97440000Y-131800000D02*
X98050000Y-131800000D01*
X97440000Y-133910000D02*
X105560000Y-133910000D01*
X98050000Y-129800000D02*
X98050000Y-133300000D01*
X98050000Y-133300000D02*
X104950000Y-133300000D01*
X98390000Y-128890000D02*
X97140000Y-128890000D01*
X98900000Y-128990000D02*
X98900000Y-129190000D01*
X99200000Y-128990000D02*
X98900000Y-128990000D01*
X99200000Y-129090000D02*
X98900000Y-129090000D01*
X99200000Y-129190000D02*
X99200000Y-128990000D01*
X100000000Y-129190000D02*
X100000000Y-129800000D01*
X100000000Y-129800000D02*
X98050000Y-129800000D01*
X100400000Y-132800000D02*
X100600000Y-132800000D01*
X100400000Y-133300000D02*
X100400000Y-132800000D01*
X100500000Y-133300000D02*
X100500000Y-132800000D01*
X100600000Y-132800000D02*
X100600000Y-133300000D01*
X102400000Y-132800000D02*
X102600000Y-132800000D01*
X102400000Y-133300000D02*
X102400000Y-132800000D01*
X102500000Y-133300000D02*
X102500000Y-132800000D01*
X102600000Y-132800000D02*
X102600000Y-133300000D01*
X103000000Y-129800000D02*
X103000000Y-129190000D01*
X104950000Y-129800000D02*
X103000000Y-129800000D01*
X104950000Y-133300000D02*
X104950000Y-129800000D01*
X105560000Y-129190000D02*
X97440000Y-129190000D01*
X105560000Y-130500000D02*
X104950000Y-130500000D01*
X105560000Y-131800000D02*
X104950000Y-131800000D01*
X105560000Y-133910000D02*
X105560000Y-129190000D01*
%TO.C,R4*%
X77860436Y-107765000D02*
X78314564Y-107765000D01*
X77860436Y-109235000D02*
X78314564Y-109235000D01*
%TO.C,om6*%
X166640000Y-109890000D02*
X166640000Y-111140000D01*
X166940000Y-110190000D02*
X166940000Y-114910000D01*
X166940000Y-111500000D02*
X167550000Y-111500000D01*
X166940000Y-112800000D02*
X167550000Y-112800000D01*
X166940000Y-114910000D02*
X175060000Y-114910000D01*
X167550000Y-110800000D02*
X167550000Y-114300000D01*
X167550000Y-114300000D02*
X174450000Y-114300000D01*
X167890000Y-109890000D02*
X166640000Y-109890000D01*
X168400000Y-109990000D02*
X168400000Y-110190000D01*
X168700000Y-109990000D02*
X168400000Y-109990000D01*
X168700000Y-110090000D02*
X168400000Y-110090000D01*
X168700000Y-110190000D02*
X168700000Y-109990000D01*
X169500000Y-110190000D02*
X169500000Y-110800000D01*
X169500000Y-110800000D02*
X167550000Y-110800000D01*
X169900000Y-113800000D02*
X170100000Y-113800000D01*
X169900000Y-114300000D02*
X169900000Y-113800000D01*
X170000000Y-114300000D02*
X170000000Y-113800000D01*
X170100000Y-113800000D02*
X170100000Y-114300000D01*
X171900000Y-113800000D02*
X172100000Y-113800000D01*
X171900000Y-114300000D02*
X171900000Y-113800000D01*
X172000000Y-114300000D02*
X172000000Y-113800000D01*
X172100000Y-113800000D02*
X172100000Y-114300000D01*
X172500000Y-110800000D02*
X172500000Y-110190000D01*
X174450000Y-110800000D02*
X172500000Y-110800000D01*
X174450000Y-114300000D02*
X174450000Y-110800000D01*
X175060000Y-110190000D02*
X166940000Y-110190000D01*
X175060000Y-111500000D02*
X174450000Y-111500000D01*
X175060000Y-112800000D02*
X174450000Y-112800000D01*
X175060000Y-114910000D02*
X175060000Y-110190000D01*
%TO.C,J18*%
X85640000Y-128890000D02*
X85640000Y-130140000D01*
X85940000Y-129190000D02*
X85940000Y-133910000D01*
X85940000Y-130500000D02*
X86550000Y-130500000D01*
X85940000Y-131800000D02*
X86550000Y-131800000D01*
X85940000Y-133910000D02*
X94060000Y-133910000D01*
X86550000Y-129800000D02*
X86550000Y-133300000D01*
X86550000Y-133300000D02*
X93450000Y-133300000D01*
X86890000Y-128890000D02*
X85640000Y-128890000D01*
X87400000Y-128990000D02*
X87400000Y-129190000D01*
X87700000Y-128990000D02*
X87400000Y-128990000D01*
X87700000Y-129090000D02*
X87400000Y-129090000D01*
X87700000Y-129190000D02*
X87700000Y-128990000D01*
X88500000Y-129190000D02*
X88500000Y-129800000D01*
X88500000Y-129800000D02*
X86550000Y-129800000D01*
X88900000Y-132800000D02*
X89100000Y-132800000D01*
X88900000Y-133300000D02*
X88900000Y-132800000D01*
X89000000Y-133300000D02*
X89000000Y-132800000D01*
X89100000Y-132800000D02*
X89100000Y-133300000D01*
X90900000Y-132800000D02*
X91100000Y-132800000D01*
X90900000Y-133300000D02*
X90900000Y-132800000D01*
X91000000Y-133300000D02*
X91000000Y-132800000D01*
X91100000Y-132800000D02*
X91100000Y-133300000D01*
X91500000Y-129800000D02*
X91500000Y-129190000D01*
X93450000Y-129800000D02*
X91500000Y-129800000D01*
X93450000Y-133300000D02*
X93450000Y-129800000D01*
X94060000Y-129190000D02*
X85940000Y-129190000D01*
X94060000Y-130500000D02*
X93450000Y-130500000D01*
X94060000Y-131800000D02*
X93450000Y-131800000D01*
X94060000Y-133910000D02*
X94060000Y-129190000D01*
%TO.C,om5*%
X167140000Y-101890000D02*
X167140000Y-103140000D01*
X167440000Y-102190000D02*
X167440000Y-106910000D01*
X167440000Y-103500000D02*
X168050000Y-103500000D01*
X167440000Y-104800000D02*
X168050000Y-104800000D01*
X167440000Y-106910000D02*
X175560000Y-106910000D01*
X168050000Y-102800000D02*
X168050000Y-106300000D01*
X168050000Y-106300000D02*
X174950000Y-106300000D01*
X168390000Y-101890000D02*
X167140000Y-101890000D01*
X168900000Y-101990000D02*
X168900000Y-102190000D01*
X169200000Y-101990000D02*
X168900000Y-101990000D01*
X169200000Y-102090000D02*
X168900000Y-102090000D01*
X169200000Y-102190000D02*
X169200000Y-101990000D01*
X170000000Y-102190000D02*
X170000000Y-102800000D01*
X170000000Y-102800000D02*
X168050000Y-102800000D01*
X170400000Y-105800000D02*
X170600000Y-105800000D01*
X170400000Y-106300000D02*
X170400000Y-105800000D01*
X170500000Y-106300000D02*
X170500000Y-105800000D01*
X170600000Y-105800000D02*
X170600000Y-106300000D01*
X172400000Y-105800000D02*
X172600000Y-105800000D01*
X172400000Y-106300000D02*
X172400000Y-105800000D01*
X172500000Y-106300000D02*
X172500000Y-105800000D01*
X172600000Y-105800000D02*
X172600000Y-106300000D01*
X173000000Y-102800000D02*
X173000000Y-102190000D01*
X174950000Y-102800000D02*
X173000000Y-102800000D01*
X174950000Y-106300000D02*
X174950000Y-102800000D01*
X175560000Y-102190000D02*
X167440000Y-102190000D01*
X175560000Y-103500000D02*
X174950000Y-103500000D01*
X175560000Y-104800000D02*
X174950000Y-104800000D01*
X175560000Y-106910000D02*
X175560000Y-102190000D01*
%TO.C,om4*%
X107640000Y-128890000D02*
X107640000Y-130140000D01*
X107940000Y-129190000D02*
X107940000Y-133910000D01*
X107940000Y-130500000D02*
X108550000Y-130500000D01*
X107940000Y-131800000D02*
X108550000Y-131800000D01*
X107940000Y-133910000D02*
X116060000Y-133910000D01*
X108550000Y-129800000D02*
X108550000Y-133300000D01*
X108550000Y-133300000D02*
X115450000Y-133300000D01*
X108890000Y-128890000D02*
X107640000Y-128890000D01*
X109400000Y-128990000D02*
X109400000Y-129190000D01*
X109700000Y-128990000D02*
X109400000Y-128990000D01*
X109700000Y-129090000D02*
X109400000Y-129090000D01*
X109700000Y-129190000D02*
X109700000Y-128990000D01*
X110500000Y-129190000D02*
X110500000Y-129800000D01*
X110500000Y-129800000D02*
X108550000Y-129800000D01*
X110900000Y-132800000D02*
X111100000Y-132800000D01*
X110900000Y-133300000D02*
X110900000Y-132800000D01*
X111000000Y-133300000D02*
X111000000Y-132800000D01*
X111100000Y-132800000D02*
X111100000Y-133300000D01*
X112900000Y-132800000D02*
X113100000Y-132800000D01*
X112900000Y-133300000D02*
X112900000Y-132800000D01*
X113000000Y-133300000D02*
X113000000Y-132800000D01*
X113100000Y-132800000D02*
X113100000Y-133300000D01*
X113500000Y-129800000D02*
X113500000Y-129190000D01*
X115450000Y-129800000D02*
X113500000Y-129800000D01*
X115450000Y-133300000D02*
X115450000Y-129800000D01*
X116060000Y-129190000D02*
X107940000Y-129190000D01*
X116060000Y-130500000D02*
X115450000Y-130500000D01*
X116060000Y-131800000D02*
X115450000Y-131800000D01*
X116060000Y-133910000D02*
X116060000Y-129190000D01*
%TO.C,R6*%
X86772936Y-124265000D02*
X87227064Y-124265000D01*
X86772936Y-125735000D02*
X87227064Y-125735000D01*
%TO.C,R3*%
X63272936Y-111265000D02*
X63727064Y-111265000D01*
X63272936Y-112735000D02*
X63727064Y-112735000D01*
%TO.C,R7*%
X116272936Y-126765000D02*
X116727064Y-126765000D01*
X116272936Y-128235000D02*
X116727064Y-128235000D01*
%TO.C,om1*%
X54640000Y-101890000D02*
X54640000Y-103140000D01*
X54940000Y-102190000D02*
X54940000Y-106910000D01*
X54940000Y-103500000D02*
X55550000Y-103500000D01*
X54940000Y-104800000D02*
X55550000Y-104800000D01*
X54940000Y-106910000D02*
X63060000Y-106910000D01*
X55550000Y-102800000D02*
X55550000Y-106300000D01*
X55550000Y-106300000D02*
X62450000Y-106300000D01*
X55890000Y-101890000D02*
X54640000Y-101890000D01*
X56400000Y-101990000D02*
X56400000Y-102190000D01*
X56700000Y-101990000D02*
X56400000Y-101990000D01*
X56700000Y-102090000D02*
X56400000Y-102090000D01*
X56700000Y-102190000D02*
X56700000Y-101990000D01*
X57500000Y-102190000D02*
X57500000Y-102800000D01*
X57500000Y-102800000D02*
X55550000Y-102800000D01*
X57900000Y-105800000D02*
X58100000Y-105800000D01*
X57900000Y-106300000D02*
X57900000Y-105800000D01*
X58000000Y-106300000D02*
X58000000Y-105800000D01*
X58100000Y-105800000D02*
X58100000Y-106300000D01*
X59900000Y-105800000D02*
X60100000Y-105800000D01*
X59900000Y-106300000D02*
X59900000Y-105800000D01*
X60000000Y-106300000D02*
X60000000Y-105800000D01*
X60100000Y-105800000D02*
X60100000Y-106300000D01*
X60500000Y-102800000D02*
X60500000Y-102190000D01*
X62450000Y-102800000D02*
X60500000Y-102800000D01*
X62450000Y-106300000D02*
X62450000Y-102800000D01*
X63060000Y-102190000D02*
X54940000Y-102190000D01*
X63060000Y-103500000D02*
X62450000Y-103500000D01*
X63060000Y-104800000D02*
X62450000Y-104800000D01*
X63060000Y-106910000D02*
X63060000Y-102190000D01*
%TO.C,om2*%
X54390000Y-118610000D02*
X54390000Y-119860000D01*
X54390000Y-119860000D02*
X55640000Y-119860000D01*
X54490000Y-117800000D02*
X54490000Y-118100000D01*
X54490000Y-118100000D02*
X54690000Y-118100000D01*
X54590000Y-117800000D02*
X54590000Y-118100000D01*
X54690000Y-111440000D02*
X54690000Y-119560000D01*
X54690000Y-117000000D02*
X55300000Y-117000000D01*
X54690000Y-117800000D02*
X54490000Y-117800000D01*
X54690000Y-119560000D02*
X59410000Y-119560000D01*
X55300000Y-112050000D02*
X55300000Y-114000000D01*
X55300000Y-114000000D02*
X54690000Y-114000000D01*
X55300000Y-117000000D02*
X55300000Y-118950000D01*
X55300000Y-118950000D02*
X58800000Y-118950000D01*
X56000000Y-111440000D02*
X56000000Y-112050000D01*
X56000000Y-119560000D02*
X56000000Y-118950000D01*
X57300000Y-111440000D02*
X57300000Y-112050000D01*
X57300000Y-119560000D02*
X57300000Y-118950000D01*
X58300000Y-114400000D02*
X58800000Y-114400000D01*
X58300000Y-114600000D02*
X58300000Y-114400000D01*
X58300000Y-116400000D02*
X58800000Y-116400000D01*
X58300000Y-116600000D02*
X58300000Y-116400000D01*
X58800000Y-112050000D02*
X55300000Y-112050000D01*
X58800000Y-114500000D02*
X58300000Y-114500000D01*
X58800000Y-114600000D02*
X58300000Y-114600000D01*
X58800000Y-116500000D02*
X58300000Y-116500000D01*
X58800000Y-116600000D02*
X58300000Y-116600000D01*
X58800000Y-118950000D02*
X58800000Y-112050000D01*
X59410000Y-111440000D02*
X54690000Y-111440000D01*
X59410000Y-119560000D02*
X59410000Y-111440000D01*
%TO.C,R5*%
X81772936Y-125765000D02*
X82227064Y-125765000D01*
X81772936Y-127235000D02*
X82227064Y-127235000D01*
%TO.C,C1*%
X61738748Y-116765000D02*
X62261252Y-116765000D01*
X61738748Y-118235000D02*
X62261252Y-118235000D01*
%TO.C,J7*%
X54790000Y-125490000D02*
X54790000Y-134210000D01*
X56090000Y-123790000D02*
X54790000Y-125490000D01*
X58910000Y-123790000D02*
X56090000Y-123790000D01*
X58910000Y-123790000D02*
X60210000Y-125490000D01*
X60210000Y-125490000D02*
X60210000Y-134210000D01*
X60210000Y-134210000D02*
X54790000Y-134210000D01*
%TO.C,C21*%
X121238748Y-125765000D02*
X121761252Y-125765000D01*
X121238748Y-127235000D02*
X121761252Y-127235000D01*
%TO.C,J15*%
X166130000Y-128170000D02*
X166130000Y-133370000D01*
X176350000Y-130770000D02*
X176350000Y-133370000D01*
X176350000Y-133370000D02*
X166130000Y-133370000D01*
X178950000Y-128170000D02*
X166130000Y-128170000D01*
X178950000Y-128170000D02*
X178950000Y-130770000D01*
X178950000Y-130770000D02*
X176350000Y-130770000D01*
X178950000Y-132040000D02*
X178950000Y-133370000D01*
X178950000Y-133370000D02*
X177620000Y-133370000D01*
%TO.C,C3*%
X185238748Y-101765000D02*
X185761252Y-101765000D01*
X185238748Y-103235000D02*
X185761252Y-103235000D01*
%TO.C,start1*%
X134265000Y-124238748D02*
X134265000Y-124761252D01*
X135735000Y-124238748D02*
X135735000Y-124761252D01*
%TO.C,om3*%
X75140000Y-128390000D02*
X75140000Y-129640000D01*
X75440000Y-128690000D02*
X75440000Y-133410000D01*
X75440000Y-130000000D02*
X76050000Y-130000000D01*
X75440000Y-131300000D02*
X76050000Y-131300000D01*
X75440000Y-133410000D02*
X83560000Y-133410000D01*
X76050000Y-129300000D02*
X76050000Y-132800000D01*
X76050000Y-132800000D02*
X82950000Y-132800000D01*
X76390000Y-128390000D02*
X75140000Y-128390000D01*
X76900000Y-128490000D02*
X76900000Y-128690000D01*
X77200000Y-128490000D02*
X76900000Y-128490000D01*
X77200000Y-128590000D02*
X76900000Y-128590000D01*
X77200000Y-128690000D02*
X77200000Y-128490000D01*
X78000000Y-128690000D02*
X78000000Y-129300000D01*
X78000000Y-129300000D02*
X76050000Y-129300000D01*
X78400000Y-132300000D02*
X78600000Y-132300000D01*
X78400000Y-132800000D02*
X78400000Y-132300000D01*
X78500000Y-132800000D02*
X78500000Y-132300000D01*
X78600000Y-132300000D02*
X78600000Y-132800000D01*
X80400000Y-132300000D02*
X80600000Y-132300000D01*
X80400000Y-132800000D02*
X80400000Y-132300000D01*
X80500000Y-132800000D02*
X80500000Y-132300000D01*
X80600000Y-132300000D02*
X80600000Y-132800000D01*
X81000000Y-129300000D02*
X81000000Y-128690000D01*
X82950000Y-129300000D02*
X81000000Y-129300000D01*
X82950000Y-132800000D02*
X82950000Y-129300000D01*
X83560000Y-128690000D02*
X75440000Y-128690000D01*
X83560000Y-130000000D02*
X82950000Y-130000000D01*
X83560000Y-131300000D02*
X82950000Y-131300000D01*
X83560000Y-133410000D02*
X83560000Y-128690000D01*
%TO.C,C2*%
X76765000Y-126261252D02*
X76765000Y-125738748D01*
X78235000Y-126261252D02*
X78235000Y-125738748D01*
%TO.C,R1*%
X65772936Y-102265000D02*
X66227064Y-102265000D01*
X65772936Y-103735000D02*
X66227064Y-103735000D01*
%TO.C,R2*%
X74772936Y-102765000D02*
X75227064Y-102765000D01*
X74772936Y-104235000D02*
X75227064Y-104235000D01*
D12*
%TO.C,U1*%
X101820000Y-115530000D02*
X101820000Y-107470000D01*
X102520000Y-102610000D02*
X102520000Y-107470000D01*
X102520000Y-102610000D02*
X163480000Y-102610000D01*
X102520000Y-107470000D02*
X101820000Y-107470000D01*
X102520000Y-115530000D02*
X101820000Y-115530000D01*
X102520000Y-120390000D02*
X102520000Y-115530000D01*
X163480000Y-102610000D02*
X163480000Y-120390000D01*
X163480000Y-120390000D02*
X102520000Y-120390000D01*
D13*
X108970000Y-121000000D02*
G75*
G02*
X108770000Y-121000000I-100000J0D01*
G01*
X108770000Y-121000000D02*
G75*
G02*
X108970000Y-121000000I100000J0D01*
G01*
D11*
%TO.C,C6*%
X111738748Y-126265000D02*
X112261252Y-126265000D01*
X111738748Y-127735000D02*
X112261252Y-127735000D01*
D13*
%TO.C,SW1*%
X61450000Y-127700000D02*
X74150000Y-127700000D01*
X61450000Y-134300000D02*
X61450000Y-127700000D01*
X74150000Y-127700000D02*
X74150000Y-134300000D01*
X74150000Y-134300000D02*
X61450000Y-134300000D01*
D14*
X72341419Y-126700000D02*
G75*
G02*
X72058581Y-126700000I-141419J0D01*
G01*
X72058581Y-126700000D02*
G75*
G02*
X72341419Y-126700000I141419J0D01*
G01*
X72423606Y-126700000D02*
G75*
G02*
X71976394Y-126700000I-223606J0D01*
G01*
X71976394Y-126700000D02*
G75*
G02*
X72423606Y-126700000I223606J0D01*
G01*
X72423606Y-126700000D02*
G75*
G02*
X71976394Y-126700000I-223606J0D01*
G01*
X71976394Y-126700000D02*
G75*
G02*
X72423606Y-126700000I223606J0D01*
G01*
X72423606Y-126700000D02*
G75*
G02*
X71976394Y-126700000I-223606J0D01*
G01*
X71976394Y-126700000D02*
G75*
G02*
X72423606Y-126700000I223606J0D01*
G01*
X72482841Y-126700000D02*
G75*
G02*
X71917159Y-126700000I-282841J0D01*
G01*
X71917159Y-126700000D02*
G75*
G02*
X72482841Y-126700000I282841J0D01*
G01*
X72560553Y-126700000D02*
G75*
G02*
X71839447Y-126700000I-360553J0D01*
G01*
X71839447Y-126700000D02*
G75*
G02*
X72560553Y-126700000I360553J0D01*
G01*
D12*
%TO.C,U9*%
X67750000Y-110650000D02*
X75250000Y-110650000D01*
X67750000Y-122350000D02*
X67750000Y-110650000D01*
X75250000Y-122350000D02*
X67750000Y-122350000D01*
X75250000Y-122350000D02*
X75250000Y-110650000D01*
D13*
X73350000Y-123050000D02*
G75*
G02*
X73150000Y-123050000I-100000J0D01*
G01*
X73150000Y-123050000D02*
G75*
G02*
X73350000Y-123050000I100000J0D01*
G01*
D11*
%TO.C,J20*%
X119640000Y-128890000D02*
X119640000Y-130140000D01*
X119940000Y-129190000D02*
X119940000Y-133910000D01*
X119940000Y-130500000D02*
X120550000Y-130500000D01*
X119940000Y-131800000D02*
X120550000Y-131800000D01*
X119940000Y-133910000D02*
X128060000Y-133910000D01*
X120550000Y-129800000D02*
X120550000Y-133300000D01*
X120550000Y-133300000D02*
X127450000Y-133300000D01*
X120890000Y-128890000D02*
X119640000Y-128890000D01*
X121400000Y-128990000D02*
X121400000Y-129190000D01*
X121700000Y-128990000D02*
X121400000Y-128990000D01*
X121700000Y-129090000D02*
X121400000Y-129090000D01*
X121700000Y-129190000D02*
X121700000Y-128990000D01*
X122500000Y-129190000D02*
X122500000Y-129800000D01*
X122500000Y-129800000D02*
X120550000Y-129800000D01*
X122900000Y-132800000D02*
X123100000Y-132800000D01*
X122900000Y-133300000D02*
X122900000Y-132800000D01*
X123000000Y-133300000D02*
X123000000Y-132800000D01*
X123100000Y-132800000D02*
X123100000Y-133300000D01*
X124900000Y-132800000D02*
X125100000Y-132800000D01*
X124900000Y-133300000D02*
X124900000Y-132800000D01*
X125000000Y-133300000D02*
X125000000Y-132800000D01*
X125100000Y-132800000D02*
X125100000Y-133300000D01*
X125500000Y-129800000D02*
X125500000Y-129190000D01*
X127450000Y-129800000D02*
X125500000Y-129800000D01*
X127450000Y-133300000D02*
X127450000Y-129800000D01*
X128060000Y-129190000D02*
X119940000Y-129190000D01*
X128060000Y-130500000D02*
X127450000Y-130500000D01*
X128060000Y-131800000D02*
X127450000Y-131800000D01*
X128060000Y-133910000D02*
X128060000Y-129190000D01*
%TO.C,J3*%
X176890000Y-115610000D02*
X176890000Y-116860000D01*
X176890000Y-116860000D02*
X178140000Y-116860000D01*
X176990000Y-114800000D02*
X176990000Y-115100000D01*
X176990000Y-115100000D02*
X177190000Y-115100000D01*
X177090000Y-114800000D02*
X177090000Y-115100000D01*
X177190000Y-102440000D02*
X177190000Y-116560000D01*
X177190000Y-114000000D02*
X177800000Y-114000000D01*
X177190000Y-114800000D02*
X176990000Y-114800000D01*
X177190000Y-116560000D02*
X181910000Y-116560000D01*
X177800000Y-103050000D02*
X177800000Y-105000000D01*
X177800000Y-105000000D02*
X177190000Y-105000000D01*
X177800000Y-114000000D02*
X177800000Y-115950000D01*
X177800000Y-115950000D02*
X181300000Y-115950000D01*
X178500000Y-102440000D02*
X178500000Y-103050000D01*
X178500000Y-116560000D02*
X178500000Y-115950000D01*
X179800000Y-102440000D02*
X179800000Y-103050000D01*
X179800000Y-116560000D02*
X179800000Y-115950000D01*
X180800000Y-105400000D02*
X181300000Y-105400000D01*
X180800000Y-105600000D02*
X180800000Y-105400000D01*
X180800000Y-107400000D02*
X181300000Y-107400000D01*
X180800000Y-107600000D02*
X180800000Y-107400000D01*
X180800000Y-109400000D02*
X181300000Y-109400000D01*
X180800000Y-109600000D02*
X180800000Y-109400000D01*
X180800000Y-111400000D02*
X181300000Y-111400000D01*
X180800000Y-111600000D02*
X180800000Y-111400000D01*
X180800000Y-113400000D02*
X181300000Y-113400000D01*
X180800000Y-113600000D02*
X180800000Y-113400000D01*
X181300000Y-103050000D02*
X177800000Y-103050000D01*
X181300000Y-105500000D02*
X180800000Y-105500000D01*
X181300000Y-105600000D02*
X180800000Y-105600000D01*
X181300000Y-107500000D02*
X180800000Y-107500000D01*
X181300000Y-107600000D02*
X180800000Y-107600000D01*
X181300000Y-109500000D02*
X180800000Y-109500000D01*
X181300000Y-109600000D02*
X180800000Y-109600000D01*
X181300000Y-111500000D02*
X180800000Y-111500000D01*
X181300000Y-111600000D02*
X180800000Y-111600000D01*
X181300000Y-113500000D02*
X180800000Y-113500000D01*
X181300000Y-113600000D02*
X180800000Y-113600000D01*
X181300000Y-115950000D02*
X181300000Y-103050000D01*
X181910000Y-102440000D02*
X177190000Y-102440000D01*
X181910000Y-116560000D02*
X181910000Y-102440000D01*
D15*
%TO.C,SW2*%
X41156100Y-118214000D02*
X41156100Y-127866000D01*
X41156100Y-127866000D02*
X48369700Y-127866000D01*
X48369700Y-118214000D02*
X41156100Y-118214000D01*
X48369700Y-127866000D02*
X48369700Y-118214000D01*
D11*
%TO.C,J17*%
X156140000Y-128390000D02*
X156140000Y-129640000D01*
X156440000Y-128690000D02*
X156440000Y-133410000D01*
X156440000Y-130000000D02*
X157050000Y-130000000D01*
X156440000Y-131300000D02*
X157050000Y-131300000D01*
X156440000Y-133410000D02*
X164560000Y-133410000D01*
X157050000Y-129300000D02*
X157050000Y-132800000D01*
X157050000Y-132800000D02*
X163950000Y-132800000D01*
X157390000Y-128390000D02*
X156140000Y-128390000D01*
X157900000Y-128490000D02*
X157900000Y-128690000D01*
X158200000Y-128490000D02*
X157900000Y-128490000D01*
X158200000Y-128590000D02*
X157900000Y-128590000D01*
X158200000Y-128690000D02*
X158200000Y-128490000D01*
X159000000Y-128690000D02*
X159000000Y-129300000D01*
X159000000Y-129300000D02*
X157050000Y-129300000D01*
X159400000Y-132300000D02*
X159600000Y-132300000D01*
X159400000Y-132800000D02*
X159400000Y-132300000D01*
X159500000Y-132800000D02*
X159500000Y-132300000D01*
X159600000Y-132300000D02*
X159600000Y-132800000D01*
X161400000Y-132300000D02*
X161600000Y-132300000D01*
X161400000Y-132800000D02*
X161400000Y-132300000D01*
X161500000Y-132800000D02*
X161500000Y-132300000D01*
X161600000Y-132300000D02*
X161600000Y-132800000D01*
X162000000Y-129300000D02*
X162000000Y-128690000D01*
X163950000Y-129300000D02*
X162000000Y-129300000D01*
X163950000Y-132800000D02*
X163950000Y-129300000D01*
X164560000Y-128690000D02*
X156440000Y-128690000D01*
X164560000Y-130000000D02*
X163950000Y-130000000D01*
X164560000Y-131300000D02*
X163950000Y-131300000D01*
X164560000Y-133410000D02*
X164560000Y-128690000D01*
%TO.C,om7*%
X165140000Y-116390000D02*
X165140000Y-117640000D01*
X165440000Y-116690000D02*
X165440000Y-121410000D01*
X165440000Y-118000000D02*
X166050000Y-118000000D01*
X165440000Y-119300000D02*
X166050000Y-119300000D01*
X165440000Y-121410000D02*
X173560000Y-121410000D01*
X166050000Y-117300000D02*
X166050000Y-120800000D01*
X166050000Y-120800000D02*
X172950000Y-120800000D01*
X166390000Y-116390000D02*
X165140000Y-116390000D01*
X166900000Y-116490000D02*
X166900000Y-116690000D01*
X167200000Y-116490000D02*
X166900000Y-116490000D01*
X167200000Y-116590000D02*
X166900000Y-116590000D01*
X167200000Y-116690000D02*
X167200000Y-116490000D01*
X168000000Y-116690000D02*
X168000000Y-117300000D01*
X168000000Y-117300000D02*
X166050000Y-117300000D01*
X168400000Y-120300000D02*
X168600000Y-120300000D01*
X168400000Y-120800000D02*
X168400000Y-120300000D01*
X168500000Y-120800000D02*
X168500000Y-120300000D01*
X168600000Y-120300000D02*
X168600000Y-120800000D01*
X170400000Y-120300000D02*
X170600000Y-120300000D01*
X170400000Y-120800000D02*
X170400000Y-120300000D01*
X170500000Y-120800000D02*
X170500000Y-120300000D01*
X170600000Y-120300000D02*
X170600000Y-120800000D01*
X171000000Y-117300000D02*
X171000000Y-116690000D01*
X172950000Y-117300000D02*
X171000000Y-117300000D01*
X172950000Y-120800000D02*
X172950000Y-117300000D01*
X173560000Y-116690000D02*
X165440000Y-116690000D01*
X173560000Y-118000000D02*
X172950000Y-118000000D01*
X173560000Y-119300000D02*
X172950000Y-119300000D01*
X173560000Y-121410000D02*
X173560000Y-116690000D01*
%TD*%
M02*
