%TF.GenerationSoftware,KiCad,Pcbnew,9.0.1*%
%TF.CreationDate,2026-02-19T19:56:57-05:00*%
%TF.ProjectId,Strawberri,53747261-7762-4657-9272-692e6b696361,rev?*%
%TF.SameCoordinates,Original*%
%TF.FileFunction,Copper,L1,Top*%
%TF.FilePolarity,Positive*%
%FSLAX46Y46*%
G04 Gerber Fmt 4.6, Leading zero omitted, Abs format (unit mm)*
G04 Created by KiCad (PCBNEW 9.0.1) date 2026-02-19 19:56:57*
%MOMM*%
%LPD*%
G01*
G04 APERTURE LIST*
G04 Aperture macros list*
%AMRoundRect*
0 Rectangle with rounded corners*
0 $1 Rounding radius*
0 $2 $3 $4 $5 $6 $7 $8 $9 X,Y pos of 4 corners*
0 Add a 4 corners polygon primitive as box body*
4,1,4,$2,$3,$4,$5,$6,$7,$8,$9,$2,$3,0*
0 Add four circle primitives for the rounded corners*
1,1,$1+$1,$2,$3*
1,1,$1+$1,$4,$5*
1,1,$1+$1,$6,$7*
1,1,$1+$1,$8,$9*
0 Add four rect primitives between the rounded corners*
20,1,$1+$1,$2,$3,$4,$5,0*
20,1,$1+$1,$4,$5,$6,$7,0*
20,1,$1+$1,$6,$7,$8,$9,0*
20,1,$1+$1,$8,$9,$2,$3,0*%
G04 Aperture macros list end*
%TA.AperFunction,ComponentPad*%
%ADD10RoundRect,0.250000X-0.750000X-0.750000X0.750000X-0.750000X0.750000X0.750000X-0.750000X0.750000X0*%
%TD*%
%TA.AperFunction,ComponentPad*%
%ADD11C,2.000000*%
%TD*%
%TA.AperFunction,ComponentPad*%
%ADD12RoundRect,0.250000X-0.350000X-0.625000X0.350000X-0.625000X0.350000X0.625000X-0.350000X0.625000X0*%
%TD*%
%TA.AperFunction,ComponentPad*%
%ADD13O,1.200000X1.750000*%
%TD*%
%TA.AperFunction,SMDPad,CuDef*%
%ADD14RoundRect,0.250000X-0.262500X-0.450000X0.262500X-0.450000X0.262500X0.450000X-0.262500X0.450000X0*%
%TD*%
%TA.AperFunction,ComponentPad*%
%ADD15RoundRect,0.250000X0.625000X-0.350000X0.625000X0.350000X-0.625000X0.350000X-0.625000X-0.350000X0*%
%TD*%
%TA.AperFunction,ComponentPad*%
%ADD16O,1.750000X1.200000*%
%TD*%
%TA.AperFunction,SMDPad,CuDef*%
%ADD17RoundRect,0.250000X-0.250000X-0.475000X0.250000X-0.475000X0.250000X0.475000X-0.250000X0.475000X0*%
%TD*%
%TA.AperFunction,ComponentPad*%
%ADD18RoundRect,0.760000X-1.140000X1.140000X-1.140000X-1.140000X1.140000X-1.140000X1.140000X1.140000X0*%
%TD*%
%TA.AperFunction,ComponentPad*%
%ADD19C,4.000000*%
%TD*%
%TA.AperFunction,ComponentPad*%
%ADD20R,1.700000X1.700000*%
%TD*%
%TA.AperFunction,ComponentPad*%
%ADD21C,1.700000*%
%TD*%
%TA.AperFunction,SMDPad,CuDef*%
%ADD22RoundRect,0.250000X-0.475000X0.250000X-0.475000X-0.250000X0.475000X-0.250000X0.475000X0.250000X0*%
%TD*%
%TA.AperFunction,SMDPad,CuDef*%
%ADD23RoundRect,0.250000X0.475000X-0.250000X0.475000X0.250000X-0.475000X0.250000X-0.475000X-0.250000X0*%
%TD*%
%TA.AperFunction,ComponentPad*%
%ADD24C,1.308000*%
%TD*%
%TA.AperFunction,ComponentPad*%
%ADD25R,2.450000X2.450000*%
%TD*%
%TA.AperFunction,ComponentPad*%
%ADD26C,2.450000*%
%TD*%
%TA.AperFunction,ComponentPad*%
%ADD27R,1.358000X1.358000*%
%TD*%
%TA.AperFunction,ComponentPad*%
%ADD28C,1.358000*%
%TD*%
%TA.AperFunction,SMDPad,CuDef*%
%ADD29R,1.219200X0.685800*%
%TD*%
%TA.AperFunction,ViaPad*%
%ADD30C,0.600000*%
%TD*%
%TA.AperFunction,Conductor*%
%ADD31C,0.400000*%
%TD*%
%TA.AperFunction,Conductor*%
%ADD32C,0.200000*%
%TD*%
G04 APERTURE END LIST*
D10*
%TO.P,J9,1,Pin_1*%
%TO.N,start*%
X132920000Y-130500000D03*
D11*
%TO.P,J9,2,Pin_2*%
%TO.N,+3.3V*%
X135460000Y-130500000D03*
%TO.P,J9,3,Pin_3*%
%TO.N,GND*%
X138000000Y-130500000D03*
%TD*%
D12*
%TO.P,J2,1,Pin_1*%
%TO.N,GND*%
X145000000Y-130500000D03*
D13*
%TO.P,J2,2,Pin_2*%
%TO.N,transmitter*%
X147000000Y-130500000D03*
%TO.P,J2,3,Pin_3*%
%TO.N,receiver*%
X149000000Y-130500000D03*
%TO.P,J2,4,Pin_4*%
%TO.N,+5V*%
X151000000Y-130500000D03*
%TD*%
D14*
%TO.P,R8,1*%
%TO.N,OM4*%
X111087500Y-123500000D03*
%TO.P,R8,2*%
%TO.N,GND*%
X112912500Y-123500000D03*
%TD*%
D12*
%TO.P,J19,1,Pin_1*%
%TO.N,GND*%
X99500000Y-131000000D03*
D13*
%TO.P,J19,2,Pin_2*%
%TO.N,+5V*%
X101500000Y-131000000D03*
%TO.P,J19,3,Pin_3*%
%TO.N,l3*%
X103500000Y-131000000D03*
%TD*%
D14*
%TO.P,R4,1*%
%TO.N,OM2*%
X77175000Y-108500000D03*
%TO.P,R4,2*%
%TO.N,GND*%
X79000000Y-108500000D03*
%TD*%
D12*
%TO.P,om6,1,Pin_1*%
%TO.N,+12V*%
X169000000Y-112000000D03*
D13*
%TO.P,om6,2,Pin_2*%
%TO.N,GND*%
X171000000Y-112000000D03*
%TO.P,om6,3,Pin_3*%
%TO.N,Net-(om6-Pin_3)*%
X173000000Y-112000000D03*
%TD*%
D12*
%TO.P,J18,1,Pin_1*%
%TO.N,GND*%
X88000000Y-131000000D03*
D13*
%TO.P,J18,2,Pin_2*%
%TO.N,+5V*%
X90000000Y-131000000D03*
%TO.P,J18,3,Pin_3*%
%TO.N,l2*%
X92000000Y-131000000D03*
%TD*%
D12*
%TO.P,om5,1,Pin_1*%
%TO.N,+12V*%
X169500000Y-104000000D03*
D13*
%TO.P,om5,2,Pin_2*%
%TO.N,GND*%
X171500000Y-104000000D03*
%TO.P,om5,3,Pin_3*%
%TO.N,Net-(om5-Pin_3)*%
X173500000Y-104000000D03*
%TD*%
D12*
%TO.P,om4,1,Pin_1*%
%TO.N,+12V*%
X110000000Y-131000000D03*
D13*
%TO.P,om4,2,Pin_2*%
%TO.N,GND*%
X112000000Y-131000000D03*
%TO.P,om4,3,Pin_3*%
%TO.N,Net-(om4-Pin_3)*%
X114000000Y-131000000D03*
%TD*%
D14*
%TO.P,R6,1*%
%TO.N,OM3*%
X86087500Y-125000000D03*
%TO.P,R6,2*%
%TO.N,GND*%
X87912500Y-125000000D03*
%TD*%
%TO.P,R3,1*%
%TO.N,Net-(om2-Pin_3)*%
X62587500Y-112000000D03*
%TO.P,R3,2*%
%TO.N,OM2*%
X64412500Y-112000000D03*
%TD*%
%TO.P,R7,1*%
%TO.N,Net-(om4-Pin_3)*%
X115587500Y-127500000D03*
%TO.P,R7,2*%
%TO.N,OM4*%
X117412500Y-127500000D03*
%TD*%
D12*
%TO.P,om1,1,Pin_1*%
%TO.N,+12V*%
X57000000Y-104000000D03*
D13*
%TO.P,om1,2,Pin_2*%
%TO.N,GND*%
X59000000Y-104000000D03*
%TO.P,om1,3,Pin_3*%
%TO.N,Net-(om1-Pin_3)*%
X61000000Y-104000000D03*
%TD*%
D15*
%TO.P,om2,1,Pin_1*%
%TO.N,+12V*%
X56500000Y-117500000D03*
D16*
%TO.P,om2,2,Pin_2*%
%TO.N,GND*%
X56500000Y-115500000D03*
%TO.P,om2,3,Pin_3*%
%TO.N,Net-(om2-Pin_3)*%
X56500000Y-113500000D03*
%TD*%
D14*
%TO.P,R5,1*%
%TO.N,Net-(om3-Pin_3)*%
X81087500Y-126500000D03*
%TO.P,R5,2*%
%TO.N,OM3*%
X82912500Y-126500000D03*
%TD*%
D17*
%TO.P,C1,1*%
%TO.N,+12V*%
X61050000Y-117500000D03*
%TO.P,C1,2*%
%TO.N,GND*%
X62950000Y-117500000D03*
%TD*%
D18*
%TO.P,J7,1,Pin_1*%
%TO.N,GND*%
X57500000Y-126500000D03*
D19*
%TO.P,J7,2,Pin_2*%
%TO.N,Net-(J7-Pin_2)*%
X57500000Y-131500000D03*
%TD*%
D17*
%TO.P,C21,1*%
%TO.N,GND*%
X120550000Y-126500000D03*
%TO.P,C21,2*%
%TO.N,+5V*%
X122450000Y-126500000D03*
%TD*%
D20*
%TO.P,J15,1,Pin_1*%
%TO.N,GND*%
X177620000Y-132040000D03*
D21*
%TO.P,J15,2,Pin_2*%
%TO.N,unconnected-(J15-Pin_2-Pad2)*%
X177620000Y-129500000D03*
%TO.P,J15,3,Pin_3*%
%TO.N,BDC11*%
X175080000Y-132040000D03*
%TO.P,J15,4,Pin_4*%
%TO.N,BDC2*%
X175080000Y-129500000D03*
%TO.P,J15,5,Pin_5*%
%TO.N,BDC1*%
X172540000Y-132040000D03*
%TO.P,J15,6,Pin_6*%
%TO.N,BDC22*%
X172540000Y-129500000D03*
%TO.P,J15,7,Pin_7*%
%TO.N,PWMA*%
X170000000Y-132040000D03*
%TO.P,J15,8,Pin_8*%
%TO.N,PWMB*%
X170000000Y-129500000D03*
%TO.P,J15,9,Pin_9*%
%TO.N,+5V*%
X167460000Y-132040000D03*
%TO.P,J15,10,Pin_10*%
%TO.N,unconnected-(J15-Pin_10-Pad10)*%
X167460000Y-129500000D03*
%TD*%
D17*
%TO.P,C3,1*%
%TO.N,+12V*%
X184550000Y-102500000D03*
%TO.P,C3,2*%
%TO.N,GND*%
X186450000Y-102500000D03*
%TD*%
D22*
%TO.P,start1,1*%
%TO.N,GND*%
X135000000Y-123550000D03*
%TO.P,start1,2*%
%TO.N,+3.3V*%
X135000000Y-125450000D03*
%TD*%
D12*
%TO.P,om3,1,Pin_1*%
%TO.N,+12V*%
X77500000Y-130500000D03*
D13*
%TO.P,om3,2,Pin_2*%
%TO.N,GND*%
X79500000Y-130500000D03*
%TO.P,om3,3,Pin_3*%
%TO.N,Net-(om3-Pin_3)*%
X81500000Y-130500000D03*
%TD*%
D23*
%TO.P,C2,1*%
%TO.N,+12V*%
X77500000Y-126950000D03*
%TO.P,C2,2*%
%TO.N,GND*%
X77500000Y-125050000D03*
%TD*%
D14*
%TO.P,R1,1*%
%TO.N,Net-(om1-Pin_3)*%
X65087500Y-103000000D03*
%TO.P,R1,2*%
%TO.N,OM1*%
X66912500Y-103000000D03*
%TD*%
%TO.P,R2,1*%
%TO.N,OM1*%
X74087500Y-103500000D03*
%TO.P,R2,2*%
%TO.N,GND*%
X75912500Y-103500000D03*
%TD*%
D24*
%TO.P,U1,0,RX1*%
%TO.N,OM3*%
X106330000Y-119120000D03*
%TO.P,U1,1,TX1*%
%TO.N,l2*%
X108870000Y-119120000D03*
%TO.P,U1,2,OUT2*%
%TO.N,l3*%
X111410000Y-119120000D03*
%TO.P,U1,3,LRCLK2*%
%TO.N,OM4*%
X113950000Y-119120000D03*
%TO.P,U1,3.3V_1,3.3V*%
%TO.N,+3.3V*%
X139350000Y-119120000D03*
%TO.P,U1,3.3V_2,3.3V*%
X108870000Y-103880000D03*
%TO.P,U1,4,BCLK2*%
%TO.N,unconnected-(U1-BCLK2-Pad4)*%
X116490000Y-119120000D03*
%TO.P,U1,5,IN2*%
%TO.N,unconnected-(U1-IN2-Pad5)*%
X119030000Y-119120000D03*
%TO.P,U1,6,OUT1D*%
%TO.N,unconnected-(U1-OUT1D-Pad6)*%
X121570000Y-119120000D03*
%TO.P,U1,7,RX2*%
%TO.N,unconnected-(U1-RX2-Pad7)*%
X124110000Y-119120000D03*
%TO.P,U1,8,TX2*%
%TO.N,l4*%
X126650000Y-119120000D03*
%TO.P,U1,9,OUT1C*%
%TO.N,unconnected-(U1-OUT1C-Pad9)*%
X129190000Y-119120000D03*
%TO.P,U1,10,CS1*%
%TO.N,start*%
X131730000Y-119120000D03*
%TO.P,U1,11,MOSI*%
%TO.N,BDC1*%
X134270000Y-119120000D03*
%TO.P,U1,12,MISO*%
%TO.N,BDC11*%
X136810000Y-119120000D03*
%TO.P,U1,13,SCK*%
%TO.N,unconnected-(U1-SCK-Pad13)*%
X136810000Y-103880000D03*
%TO.P,U1,14,A0*%
%TO.N,unconnected-(U1-A0-Pad14)*%
X134270000Y-103880000D03*
%TO.P,U1,15,A1*%
%TO.N,unconnected-(U1-A1-Pad15)*%
X131730000Y-103880000D03*
%TO.P,U1,16,A2*%
%TO.N,unconnected-(U1-A2-Pad16)*%
X129190000Y-103880000D03*
%TO.P,U1,17,A3*%
%TO.N,unconnected-(U1-A3-Pad17)*%
X126650000Y-103880000D03*
%TO.P,U1,18,A4*%
%TO.N,unconnected-(U1-A4-Pad18)*%
X124110000Y-103880000D03*
%TO.P,U1,19,A5*%
%TO.N,switch3*%
X121570000Y-103880000D03*
%TO.P,U1,20,A6*%
%TO.N,switch2*%
X119030000Y-103880000D03*
%TO.P,U1,21,A7*%
%TO.N,switch1*%
X116490000Y-103880000D03*
%TO.P,U1,22,A8*%
%TO.N,OM2*%
X113950000Y-103880000D03*
%TO.P,U1,23,A9*%
%TO.N,OM1*%
X111410000Y-103880000D03*
%TO.P,U1,24,A10*%
%TO.N,transmitter*%
X141890000Y-119120000D03*
%TO.P,U1,25,A11*%
%TO.N,receiver*%
X144430000Y-119120000D03*
%TO.P,U1,26,A12*%
%TO.N,l1*%
X146970000Y-119120000D03*
%TO.P,U1,27,A13*%
%TO.N,PWMA*%
X149510000Y-119120000D03*
%TO.P,U1,28,RX7*%
%TO.N,PWMB*%
X152050000Y-119120000D03*
%TO.P,U1,29,TX7*%
%TO.N,unconnected-(U1-TX7-Pad29)*%
X154590000Y-119120000D03*
%TO.P,U1,30,CRX3*%
%TO.N,unconnected-(U1-CRX3-Pad30)*%
X157130000Y-119120000D03*
%TO.P,U1,31,CTX3*%
%TO.N,unconnected-(U1-CTX3-Pad31)*%
X159670000Y-119120000D03*
%TO.P,U1,32,OUT1B*%
%TO.N,OM7*%
X162210000Y-119120000D03*
%TO.P,U1,33,MCLK2*%
%TO.N,OM5*%
X162210000Y-103880000D03*
%TO.P,U1,34,RX8*%
%TO.N,OM6*%
X159670000Y-103880000D03*
%TO.P,U1,35,TX8*%
%TO.N,unconnected-(U1-TX8-Pad35)*%
X157130000Y-103880000D03*
%TO.P,U1,36,CS2*%
%TO.N,BDC22*%
X154590000Y-103880000D03*
%TO.P,U1,37,CS3*%
%TO.N,BDC2*%
X152050000Y-103880000D03*
%TO.P,U1,38,A14*%
%TO.N,int*%
X149510000Y-103880000D03*
%TO.P,U1,39,A15*%
%TO.N,ado*%
X146970000Y-103880000D03*
%TO.P,U1,40,A16*%
%TO.N,sda*%
X144430000Y-103880000D03*
%TO.P,U1,41,A17*%
%TO.N,scl*%
X141890000Y-103880000D03*
%TO.P,U1,GND1,GND*%
%TO.N,GND*%
X103790000Y-119120000D03*
%TO.P,U1,GND2,GND*%
X139350000Y-103880000D03*
%TO.P,U1,GND3,GND*%
X106330000Y-103880000D03*
%TO.P,U1,VIN,VIN*%
%TO.N,+5V*%
X103790000Y-103880000D03*
%TD*%
D17*
%TO.P,C6,1*%
%TO.N,+12V*%
X111050000Y-127000000D03*
%TO.P,C6,2*%
%TO.N,GND*%
X112950000Y-127000000D03*
%TD*%
D25*
%TO.P,SW1,1,A*%
%TO.N,Net-(SW1-A)*%
X72500000Y-131000000D03*
D26*
%TO.P,SW1,2,B*%
%TO.N,Net-(J7-Pin_2)*%
X67800000Y-131000000D03*
%TO.P,SW1,3,C*%
%TO.N,unconnected-(SW1-C-Pad3)*%
X63100000Y-131000000D03*
%TD*%
D27*
%TO.P,U9,1,+VIN*%
%TO.N,+12V*%
X73250000Y-119040000D03*
D28*
%TO.P,U9,2,GND*%
%TO.N,GND*%
X73250000Y-116500000D03*
%TO.P,U9,3,+VOUT*%
%TO.N,+5V*%
X73250000Y-113960000D03*
%TD*%
D12*
%TO.P,J20,1,Pin_1*%
%TO.N,GND*%
X122000000Y-131000000D03*
D13*
%TO.P,J20,2,Pin_2*%
%TO.N,+5V*%
X124000000Y-131000000D03*
%TO.P,J20,3,Pin_3*%
%TO.N,l4*%
X126000000Y-131000000D03*
%TD*%
D15*
%TO.P,J3,1,Pin_1*%
%TO.N,+5V*%
X179000000Y-114500000D03*
D16*
%TO.P,J3,2,Pin_2*%
%TO.N,GND*%
X179000000Y-112500000D03*
%TO.P,J3,3,Pin_3*%
%TO.N,scl*%
X179000000Y-110500000D03*
%TO.P,J3,4,Pin_4*%
%TO.N,sda*%
X179000000Y-108500000D03*
%TO.P,J3,5,Pin_5*%
%TO.N,ado*%
X179000000Y-106500000D03*
%TO.P,J3,6,Pin_6*%
%TO.N,int*%
X179000000Y-104500000D03*
%TD*%
D29*
%TO.P,SW2,1*%
%TO.N,+5V*%
X40025800Y-120500000D03*
%TO.P,SW2,2*%
X40025800Y-123040000D03*
%TO.P,SW2,3*%
X40025800Y-125580000D03*
%TO.P,SW2,4*%
%TO.N,switch3*%
X49500000Y-125580000D03*
%TO.P,SW2,5*%
%TO.N,switch2*%
X49500000Y-123040000D03*
%TO.P,SW2,6*%
%TO.N,switch1*%
X49500000Y-120500000D03*
%TD*%
D12*
%TO.P,J17,1,Pin_1*%
%TO.N,GND*%
X158500000Y-130500000D03*
D13*
%TO.P,J17,2,Pin_2*%
%TO.N,+5V*%
X160500000Y-130500000D03*
%TO.P,J17,3,Pin_3*%
%TO.N,l1*%
X162500000Y-130500000D03*
%TD*%
D12*
%TO.P,om7,1,Pin_1*%
%TO.N,+12V*%
X167500000Y-118500000D03*
D13*
%TO.P,om7,2,Pin_2*%
%TO.N,GND*%
X169500000Y-118500000D03*
%TO.P,om7,3,Pin_3*%
%TO.N,Net-(om7-Pin_3)*%
X171500000Y-118500000D03*
%TD*%
D30*
%TO.N,GND*%
X138000000Y-128500000D03*
X81000000Y-109500000D03*
X135000000Y-122000000D03*
%TO.N,+5V*%
X139500000Y-133500000D03*
X143000000Y-133500000D03*
X40000000Y-129000000D03*
%TO.N,BDC22*%
X158000000Y-111500000D03*
%TO.N,BDC11*%
X144500000Y-134500000D03*
X141000000Y-123500000D03*
%TD*%
D31*
%TO.N,GND*%
X171500000Y-104000000D02*
X173000000Y-102500000D01*
X182980000Y-131980000D02*
X182880000Y-132080000D01*
X182880000Y-132080000D02*
X182880000Y-133350000D01*
X177500000Y-114000000D02*
X179000000Y-112500000D01*
D32*
X112912500Y-126962500D02*
X112950000Y-127000000D01*
D31*
X182980000Y-131980000D02*
X169500000Y-118500000D01*
X141000000Y-121500000D02*
X142000000Y-121500000D01*
D32*
X79000000Y-108500000D02*
X80000000Y-108500000D01*
D31*
X173000000Y-102500000D02*
X180500000Y-102500000D01*
X112950000Y-130050000D02*
X112000000Y-131000000D01*
X112950000Y-127000000D02*
X112950000Y-130050000D01*
X182500000Y-104500000D02*
X185900000Y-104500000D01*
X135000000Y-122000000D02*
X135000000Y-123550000D01*
X105000000Y-102550000D02*
X106330000Y-103880000D01*
X139500000Y-129000000D02*
X139500000Y-123000000D01*
X171000000Y-112000000D02*
X173000000Y-114000000D01*
X182880000Y-133350000D02*
X181610000Y-134620000D01*
X138000000Y-130500000D02*
X138000000Y-128500000D01*
X112912500Y-123500000D02*
X112912500Y-126962500D01*
X56500000Y-115500000D02*
X60950000Y-115500000D01*
X139500000Y-123000000D02*
X141000000Y-121500000D01*
D32*
X87912500Y-130912500D02*
X88000000Y-131000000D01*
D31*
X120550000Y-126500000D02*
X120550000Y-129550000D01*
X185900000Y-104500000D02*
X186450000Y-105050000D01*
X120550000Y-129550000D02*
X122000000Y-131000000D01*
X60950000Y-115500000D02*
X62950000Y-117500000D01*
X186450000Y-102500000D02*
X186450000Y-105050000D01*
X145000000Y-124500000D02*
X145000000Y-130500000D01*
X81500000Y-102500000D02*
X105000000Y-102500000D01*
D32*
X80000000Y-108500000D02*
X81000000Y-109500000D01*
D31*
X183040000Y-132040000D02*
X182980000Y-131980000D01*
X80500000Y-103500000D02*
X81500000Y-102500000D01*
X177620000Y-133170000D02*
X177620000Y-132040000D01*
X142000000Y-121500000D02*
X145000000Y-124500000D01*
D32*
X105000000Y-102500000D02*
X105000000Y-102550000D01*
D31*
X181610000Y-134620000D02*
X179070000Y-134620000D01*
X79500000Y-127050000D02*
X79500000Y-130500000D01*
X87912500Y-125000000D02*
X87912500Y-130912500D01*
X179070000Y-134620000D02*
X177620000Y-133170000D01*
X186450000Y-105050000D02*
X179000000Y-112500000D01*
X138000000Y-130500000D02*
X139500000Y-129000000D01*
X77500000Y-125050000D02*
X79500000Y-127050000D01*
X75912500Y-103500000D02*
X80500000Y-103500000D01*
X180500000Y-102500000D02*
X182500000Y-104500000D01*
X173000000Y-114000000D02*
X177500000Y-114000000D01*
%TO.N,+12V*%
X61050000Y-117500000D02*
X56500000Y-117500000D01*
X111050000Y-129950000D02*
X110000000Y-131000000D01*
X183550000Y-101500000D02*
X171500000Y-101500000D01*
X184550000Y-102500000D02*
X183550000Y-101500000D01*
X77500000Y-130500000D02*
X77500000Y-126950000D01*
X171500000Y-101500000D02*
X169500000Y-103500000D01*
D32*
X169500000Y-103500000D02*
X169500000Y-104000000D01*
D31*
X111050000Y-127000000D02*
X111050000Y-129950000D01*
D32*
%TO.N,+5V*%
X149000000Y-132500000D02*
X151000000Y-130500000D01*
D31*
X40025800Y-128974200D02*
X40025800Y-125580000D01*
X40025800Y-125580000D02*
X40025800Y-123040000D01*
D32*
X40000000Y-129000000D02*
X40025800Y-128974200D01*
X126500000Y-133500000D02*
X139500000Y-133500000D01*
X90000000Y-131000000D02*
X90000000Y-128450000D01*
X143000000Y-133500000D02*
X143000000Y-133090840D01*
D31*
X124000000Y-131000000D02*
X124000000Y-128050000D01*
D32*
X124000000Y-131000000D02*
X126500000Y-133500000D01*
X143000000Y-133090840D02*
X143590840Y-132500000D01*
D31*
X40025800Y-123040000D02*
X40025800Y-120500000D01*
D32*
X143590840Y-132500000D02*
X149000000Y-132500000D01*
D31*
X124000000Y-128050000D02*
X122450000Y-126500000D01*
D32*
X73710000Y-113500000D02*
X73250000Y-113960000D01*
D31*
%TO.N,ado*%
X149590000Y-106500000D02*
X146970000Y-103880000D01*
X179000000Y-106500000D02*
X149590000Y-106500000D01*
%TO.N,sda*%
X149050000Y-108500000D02*
X144430000Y-103880000D01*
X179000000Y-108500000D02*
X149050000Y-108500000D01*
%TO.N,int*%
X178000000Y-105500000D02*
X151130000Y-105500000D01*
X179000000Y-104500000D02*
X178000000Y-105500000D01*
X151130000Y-105500000D02*
X149510000Y-103880000D01*
D32*
%TO.N,OM2*%
X64412500Y-112000000D02*
X65500000Y-112000000D01*
X112330000Y-105500000D02*
X113950000Y-103880000D01*
D31*
X72000000Y-105500000D02*
X79500000Y-105500000D01*
D32*
X77175000Y-108500000D02*
X77175000Y-107825000D01*
D31*
X79500000Y-105500000D02*
X112330000Y-105500000D01*
X77175000Y-107825000D02*
X79500000Y-105500000D01*
X65500000Y-112000000D02*
X72000000Y-105500000D01*
%TO.N,scl*%
X179000000Y-110500000D02*
X178000000Y-109500000D01*
X178000000Y-109500000D02*
X147510000Y-109500000D01*
X147510000Y-109500000D02*
X141890000Y-103880000D01*
%TO.N,OM3*%
X86087500Y-123912500D02*
X87500000Y-122500000D01*
X106330000Y-119120000D02*
X102950000Y-122500000D01*
X86000000Y-122500000D02*
X82912500Y-125587500D01*
X102950000Y-122500000D02*
X87500000Y-122500000D01*
D32*
X82912500Y-125587500D02*
X82912500Y-126500000D01*
X87500000Y-122500000D02*
X86000000Y-122500000D01*
D31*
X86087500Y-125000000D02*
X86087500Y-123912500D01*
%TO.N,Net-(J7-Pin_2)*%
X57500000Y-131500000D02*
X59500000Y-133500000D01*
X59500000Y-133500000D02*
X65300000Y-133500000D01*
X65300000Y-133500000D02*
X67800000Y-131000000D01*
%TO.N,start*%
X132920000Y-120310000D02*
X132920000Y-130500000D01*
X131730000Y-119120000D02*
X132920000Y-120310000D01*
%TO.N,+3.3V*%
X135000000Y-125450000D02*
X139350000Y-121100000D01*
D32*
X135460000Y-125910000D02*
X135000000Y-125450000D01*
D31*
X139350000Y-121100000D02*
X139350000Y-119120000D01*
X135460000Y-130500000D02*
X135460000Y-125910000D01*
%TO.N,PWMB*%
X152050000Y-120050000D02*
X153804265Y-121804265D01*
D32*
X152669206Y-119120000D02*
X152050000Y-119120000D01*
D31*
X168500000Y-128000000D02*
X170000000Y-129500000D01*
X157804265Y-121804265D02*
X164000000Y-128000000D01*
X152050000Y-119120000D02*
X152050000Y-120050000D01*
X164000000Y-128000000D02*
X168500000Y-128000000D01*
X153804265Y-121804265D02*
X157804265Y-121804265D01*
%TO.N,BDC22*%
X172540000Y-126040000D02*
X158000000Y-111500000D01*
X172540000Y-129500000D02*
X172540000Y-126040000D01*
%TO.N,PWMA*%
X165500000Y-134000000D02*
X164000000Y-132500000D01*
X157500000Y-123500000D02*
X153890000Y-123500000D01*
X153890000Y-123500000D02*
X149510000Y-119120000D01*
X170000000Y-132500000D02*
X168500000Y-134000000D01*
X164000000Y-130000000D02*
X157500000Y-123500000D01*
X168500000Y-134000000D02*
X165500000Y-134000000D01*
X164000000Y-132500000D02*
X164000000Y-130000000D01*
D32*
X170000000Y-132040000D02*
X170000000Y-132500000D01*
%TO.N,BDC11*%
X143000000Y-134500000D02*
X141000000Y-132500000D01*
X144500000Y-134500000D02*
X143000000Y-134500000D01*
D31*
X141000000Y-132500000D02*
X141000000Y-123500000D01*
%TO.N,l1*%
X152350000Y-124500000D02*
X146970000Y-119120000D01*
X162500000Y-130500000D02*
X156500000Y-124500000D01*
X156500000Y-124500000D02*
X152350000Y-124500000D01*
%TO.N,l2*%
X97500000Y-124000000D02*
X92000000Y-129500000D01*
X108870000Y-119120000D02*
X103990000Y-124000000D01*
X103990000Y-124000000D02*
X97500000Y-124000000D01*
X92000000Y-129500000D02*
X92000000Y-131000000D01*
%TO.N,l3*%
X111410000Y-119120000D02*
X103500000Y-127030000D01*
X103500000Y-127030000D02*
X103500000Y-131000000D01*
%TO.N,l4*%
X126650000Y-119120000D02*
X126650000Y-130350000D01*
D32*
X126650000Y-130350000D02*
X126000000Y-131000000D01*
D31*
%TO.N,OM1*%
X72500000Y-103500000D02*
X74087500Y-103500000D01*
X66912500Y-103000000D02*
X68412500Y-101500000D01*
X70500000Y-101500000D02*
X72500000Y-103500000D01*
D32*
X109030000Y-101500000D02*
X111410000Y-103880000D01*
D31*
X70500000Y-101500000D02*
X109030000Y-101500000D01*
X68412500Y-101500000D02*
X70500000Y-101500000D01*
%TO.N,transmitter*%
X147000000Y-124230000D02*
X141890000Y-119120000D01*
X147000000Y-130500000D02*
X147000000Y-124230000D01*
%TO.N,receiver*%
X149000000Y-123690000D02*
X144430000Y-119120000D01*
X149000000Y-130500000D02*
X149000000Y-123690000D01*
%TO.N,Net-(om1-Pin_3)*%
X61000000Y-104000000D02*
X64087500Y-104000000D01*
X64087500Y-104000000D02*
X65087500Y-103000000D01*
%TO.N,Net-(om2-Pin_3)*%
X56500000Y-113500000D02*
X61087500Y-113500000D01*
X61087500Y-113500000D02*
X62587500Y-112000000D01*
%TO.N,Net-(om3-Pin_3)*%
X81500000Y-130500000D02*
X81500000Y-126912500D01*
D32*
X81500000Y-126912500D02*
X81087500Y-126500000D01*
D31*
%TO.N,Net-(om4-Pin_3)*%
X114000000Y-131000000D02*
X114000000Y-129087500D01*
X114000000Y-129087500D02*
X115587500Y-127500000D01*
%TO.N,OM4*%
X117412500Y-122582500D02*
X113950000Y-119120000D01*
X111087500Y-121982500D02*
X111087500Y-123500000D01*
X113950000Y-119120000D02*
X111087500Y-121982500D01*
X117412500Y-127500000D02*
X117412500Y-122582500D01*
%TO.N,switch3*%
X115450000Y-110000000D02*
X121570000Y-103880000D01*
D32*
X49500000Y-125580000D02*
X49500000Y-125500000D01*
D31*
X80500000Y-123000000D02*
X93500000Y-110000000D01*
X93500000Y-110000000D02*
X115450000Y-110000000D01*
X52000000Y-123000000D02*
X80500000Y-123000000D01*
X49500000Y-125500000D02*
X52000000Y-123000000D01*
%TO.N,switch2*%
X93000000Y-108500000D02*
X114410000Y-108500000D01*
X114410000Y-108500000D02*
X119030000Y-103880000D01*
X79500000Y-122000000D02*
X93000000Y-108500000D01*
X50540000Y-122000000D02*
X79500000Y-122000000D01*
D32*
X49500000Y-123040000D02*
X50540000Y-122000000D01*
D31*
%TO.N,switch1*%
X77500000Y-121000000D02*
X91000000Y-107500000D01*
X49500000Y-120500000D02*
X50000000Y-121000000D01*
X50000000Y-121000000D02*
X77500000Y-121000000D01*
X112870000Y-107500000D02*
X116490000Y-103880000D01*
X91000000Y-107500000D02*
X112870000Y-107500000D01*
%TD*%
%TA.AperFunction,Conductor*%
%TO.N,+12V*%
G36*
X67689021Y-101020185D02*
G01*
X67734776Y-101072989D01*
X67744720Y-101142147D01*
X67715695Y-101205703D01*
X67709663Y-101212181D01*
X67158661Y-101763181D01*
X67097338Y-101796666D01*
X67070980Y-101799500D01*
X66599998Y-101799500D01*
X66599980Y-101799501D01*
X66497203Y-101810000D01*
X66497200Y-101810001D01*
X66330668Y-101865185D01*
X66330663Y-101865187D01*
X66181342Y-101957289D01*
X66087681Y-102050951D01*
X66026358Y-102084436D01*
X65956666Y-102079452D01*
X65912319Y-102050951D01*
X65818657Y-101957289D01*
X65818656Y-101957288D01*
X65692090Y-101879222D01*
X65669336Y-101865187D01*
X65669331Y-101865185D01*
X65618351Y-101848292D01*
X65502797Y-101810001D01*
X65502795Y-101810000D01*
X65400010Y-101799500D01*
X64774998Y-101799500D01*
X64774980Y-101799501D01*
X64672203Y-101810000D01*
X64672200Y-101810001D01*
X64505668Y-101865185D01*
X64505663Y-101865187D01*
X64356342Y-101957289D01*
X64232289Y-102081342D01*
X64140187Y-102230663D01*
X64140185Y-102230668D01*
X64123452Y-102281166D01*
X64085001Y-102397203D01*
X64085001Y-102397204D01*
X64085000Y-102397204D01*
X64074500Y-102499983D01*
X64074500Y-102970980D01*
X64054815Y-103038019D01*
X64038181Y-103058661D01*
X63833662Y-103263181D01*
X63772339Y-103296666D01*
X63745981Y-103299500D01*
X62094303Y-103299500D01*
X62027264Y-103279815D01*
X61983819Y-103231795D01*
X61941232Y-103148212D01*
X61941230Y-103148209D01*
X61941229Y-103148207D01*
X61911334Y-103107061D01*
X61839414Y-103008072D01*
X61716928Y-102885586D01*
X61576788Y-102783768D01*
X61500565Y-102744931D01*
X61422447Y-102705128D01*
X61422446Y-102705127D01*
X61422445Y-102705127D01*
X61257701Y-102651598D01*
X61257699Y-102651597D01*
X61257698Y-102651597D01*
X61126271Y-102630781D01*
X61086611Y-102624500D01*
X60913389Y-102624500D01*
X60873728Y-102630781D01*
X60742302Y-102651597D01*
X60742299Y-102651598D01*
X60587324Y-102701953D01*
X60577552Y-102705128D01*
X60423211Y-102783768D01*
X60343256Y-102841859D01*
X60283072Y-102885586D01*
X60283070Y-102885588D01*
X60283069Y-102885588D01*
X60160588Y-103008069D01*
X60160581Y-103008078D01*
X60100317Y-103091023D01*
X60044987Y-103133689D01*
X59975374Y-103139667D01*
X59913579Y-103107061D01*
X59899683Y-103091023D01*
X59849782Y-103022342D01*
X59839414Y-103008072D01*
X59716928Y-102885586D01*
X59576788Y-102783768D01*
X59500565Y-102744931D01*
X59422447Y-102705128D01*
X59422446Y-102705127D01*
X59422445Y-102705127D01*
X59257701Y-102651598D01*
X59257699Y-102651597D01*
X59257698Y-102651597D01*
X59126271Y-102630781D01*
X59086611Y-102624500D01*
X58913389Y-102624500D01*
X58873728Y-102630781D01*
X58742302Y-102651597D01*
X58742299Y-102651598D01*
X58587324Y-102701953D01*
X58577552Y-102705128D01*
X58423211Y-102783768D01*
X58283073Y-102885585D01*
X58175166Y-102993492D01*
X58113843Y-103026976D01*
X58044151Y-103021992D01*
X57988218Y-102980120D01*
X57981946Y-102970906D01*
X57942317Y-102906656D01*
X57818345Y-102782684D01*
X57669124Y-102690643D01*
X57669119Y-102690641D01*
X57502697Y-102635494D01*
X57502690Y-102635493D01*
X57399986Y-102625000D01*
X57250000Y-102625000D01*
X57250000Y-103719670D01*
X57230255Y-103699925D01*
X57144745Y-103650556D01*
X57049370Y-103625000D01*
X56950630Y-103625000D01*
X56855255Y-103650556D01*
X56769745Y-103699925D01*
X56750000Y-103719670D01*
X56750000Y-102625000D01*
X56600027Y-102625000D01*
X56600012Y-102625001D01*
X56497302Y-102635494D01*
X56330880Y-102690641D01*
X56330875Y-102690643D01*
X56181654Y-102782684D01*
X56057684Y-102906654D01*
X55965643Y-103055875D01*
X55965641Y-103055880D01*
X55910494Y-103222302D01*
X55910493Y-103222309D01*
X55900000Y-103325013D01*
X55900000Y-103750000D01*
X56719670Y-103750000D01*
X56699925Y-103769745D01*
X56650556Y-103855255D01*
X56625000Y-103950630D01*
X56625000Y-104049370D01*
X56650556Y-104144745D01*
X56699925Y-104230255D01*
X56719670Y-104250000D01*
X55900001Y-104250000D01*
X55900001Y-104674986D01*
X55910494Y-104777697D01*
X55965641Y-104944119D01*
X55965643Y-104944124D01*
X56057684Y-105093345D01*
X56181654Y-105217315D01*
X56330875Y-105309356D01*
X56330880Y-105309358D01*
X56497302Y-105364505D01*
X56497309Y-105364506D01*
X56600019Y-105374999D01*
X56749999Y-105374999D01*
X56750000Y-105374998D01*
X56750000Y-104280330D01*
X56769745Y-104300075D01*
X56855255Y-104349444D01*
X56950630Y-104375000D01*
X57049370Y-104375000D01*
X57144745Y-104349444D01*
X57230255Y-104300075D01*
X57250000Y-104280330D01*
X57250000Y-105374999D01*
X57399972Y-105374999D01*
X57399986Y-105374998D01*
X57502697Y-105364505D01*
X57669119Y-105309358D01*
X57669124Y-105309356D01*
X57818345Y-105217315D01*
X57942315Y-105093345D01*
X57981945Y-105029094D01*
X58033893Y-104982368D01*
X58102855Y-104971145D01*
X58166937Y-104998988D01*
X58175166Y-105006508D01*
X58283072Y-105114414D01*
X58423212Y-105216232D01*
X58577555Y-105294873D01*
X58742299Y-105348402D01*
X58913389Y-105375500D01*
X58913390Y-105375500D01*
X59086610Y-105375500D01*
X59086611Y-105375500D01*
X59257701Y-105348402D01*
X59422445Y-105294873D01*
X59576788Y-105216232D01*
X59716928Y-105114414D01*
X59839414Y-104991928D01*
X59899682Y-104908975D01*
X59955012Y-104866311D01*
X60024626Y-104860332D01*
X60086421Y-104892938D01*
X60100315Y-104908973D01*
X60160586Y-104991928D01*
X60283072Y-105114414D01*
X60423212Y-105216232D01*
X60577555Y-105294873D01*
X60742299Y-105348402D01*
X60913389Y-105375500D01*
X60913390Y-105375500D01*
X61086610Y-105375500D01*
X61086611Y-105375500D01*
X61257701Y-105348402D01*
X61422445Y-105294873D01*
X61576788Y-105216232D01*
X61716928Y-105114414D01*
X61839414Y-104991928D01*
X61941232Y-104851788D01*
X61983819Y-104768204D01*
X62031792Y-104717410D01*
X62094303Y-104700500D01*
X64156496Y-104700500D01*
X64247540Y-104682389D01*
X64291828Y-104673580D01*
X64371780Y-104640463D01*
X64419307Y-104620777D01*
X64419308Y-104620776D01*
X64419311Y-104620775D01*
X64534043Y-104544114D01*
X64841339Y-104236816D01*
X64902661Y-104203333D01*
X64929019Y-104200499D01*
X65400002Y-104200499D01*
X65400008Y-104200499D01*
X65502797Y-104189999D01*
X65669334Y-104134814D01*
X65818656Y-104042712D01*
X65912319Y-103949049D01*
X65973642Y-103915564D01*
X66043334Y-103920548D01*
X66087681Y-103949049D01*
X66181344Y-104042712D01*
X66330666Y-104134814D01*
X66497203Y-104189999D01*
X66599991Y-104200500D01*
X67225008Y-104200499D01*
X67225016Y-104200498D01*
X67225019Y-104200498D01*
X67298037Y-104193039D01*
X67327797Y-104189999D01*
X67494334Y-104134814D01*
X67643656Y-104042712D01*
X67767712Y-103918656D01*
X67859814Y-103769334D01*
X67914999Y-103602797D01*
X67925500Y-103500009D01*
X67925499Y-103029017D01*
X67945183Y-102961979D01*
X67961813Y-102941342D01*
X68666337Y-102236819D01*
X68727660Y-102203334D01*
X68754018Y-102200500D01*
X70158481Y-102200500D01*
X70225520Y-102220185D01*
X70246162Y-102236819D01*
X72053453Y-104044111D01*
X72053454Y-104044112D01*
X72168192Y-104120777D01*
X72295667Y-104173578D01*
X72295672Y-104173580D01*
X72295676Y-104173580D01*
X72295677Y-104173581D01*
X72431004Y-104200500D01*
X72431007Y-104200500D01*
X73029092Y-104200500D01*
X73096131Y-104220185D01*
X73134636Y-104264271D01*
X73136395Y-104263187D01*
X73140185Y-104269332D01*
X73140186Y-104269334D01*
X73232288Y-104418656D01*
X73232289Y-104418657D01*
X73356344Y-104542712D01*
X73400522Y-104569961D01*
X73447247Y-104621909D01*
X73458470Y-104690871D01*
X73430627Y-104754953D01*
X73372558Y-104793810D01*
X73335426Y-104799500D01*
X71931003Y-104799500D01*
X71822590Y-104821065D01*
X71822589Y-104821065D01*
X71795671Y-104826420D01*
X71668190Y-104879224D01*
X71553454Y-104955887D01*
X71553453Y-104955888D01*
X65435536Y-111073806D01*
X65374213Y-111107291D01*
X65304521Y-111102307D01*
X65260174Y-111073806D01*
X65143657Y-110957289D01*
X65143656Y-110957288D01*
X65015451Y-110878211D01*
X64994336Y-110865187D01*
X64994331Y-110865185D01*
X64992862Y-110864698D01*
X64827797Y-110810001D01*
X64827795Y-110810000D01*
X64725010Y-110799500D01*
X64099998Y-110799500D01*
X64099980Y-110799501D01*
X63997203Y-110810000D01*
X63997200Y-110810001D01*
X63830668Y-110865185D01*
X63830663Y-110865187D01*
X63681342Y-110957289D01*
X63587681Y-111050951D01*
X63526358Y-111084436D01*
X63456666Y-111079452D01*
X63412319Y-111050951D01*
X63318657Y-110957289D01*
X63318656Y-110957288D01*
X63190451Y-110878211D01*
X63169336Y-110865187D01*
X63169331Y-110865185D01*
X63167862Y-110864698D01*
X63002797Y-110810001D01*
X63002795Y-110810000D01*
X62900010Y-110799500D01*
X62274998Y-110799500D01*
X62274980Y-110799501D01*
X62172203Y-110810000D01*
X62172200Y-110810001D01*
X62005668Y-110865185D01*
X62005663Y-110865187D01*
X61856342Y-110957289D01*
X61732289Y-111081342D01*
X61640187Y-111230663D01*
X61640185Y-111230668D01*
X61616365Y-111302552D01*
X61585001Y-111397203D01*
X61585001Y-111397204D01*
X61585000Y-111397204D01*
X61574500Y-111499983D01*
X61574500Y-111970981D01*
X61554815Y-112038020D01*
X61538181Y-112058662D01*
X60833662Y-112763181D01*
X60772339Y-112796666D01*
X60745981Y-112799500D01*
X57682205Y-112799500D01*
X57615166Y-112779815D01*
X57594524Y-112763182D01*
X57551005Y-112719663D01*
X57491928Y-112660586D01*
X57351788Y-112558768D01*
X57197445Y-112480127D01*
X57032701Y-112426598D01*
X57032699Y-112426597D01*
X57032698Y-112426597D01*
X56901271Y-112405781D01*
X56861611Y-112399500D01*
X56138389Y-112399500D01*
X56098728Y-112405781D01*
X55967302Y-112426597D01*
X55802552Y-112480128D01*
X55648211Y-112558768D01*
X55568256Y-112616859D01*
X55508072Y-112660586D01*
X55508070Y-112660588D01*
X55508069Y-112660588D01*
X55385588Y-112783069D01*
X55385588Y-112783070D01*
X55385586Y-112783072D01*
X55341859Y-112843256D01*
X55283768Y-112923211D01*
X55205128Y-113077552D01*
X55151597Y-113242302D01*
X55130580Y-113374999D01*
X55124500Y-113413389D01*
X55124500Y-113586611D01*
X55151598Y-113757701D01*
X55205127Y-113922445D01*
X55283768Y-114076788D01*
X55385586Y-114216928D01*
X55508072Y-114339414D01*
X55508078Y-114339418D01*
X55591023Y-114399683D01*
X55633689Y-114455013D01*
X55639667Y-114524626D01*
X55607061Y-114586421D01*
X55591023Y-114600317D01*
X55508078Y-114660581D01*
X55508069Y-114660588D01*
X55385588Y-114783069D01*
X55385588Y-114783070D01*
X55385586Y-114783072D01*
X55355487Y-114824500D01*
X55283768Y-114923211D01*
X55205128Y-115077552D01*
X55151597Y-115242302D01*
X55134612Y-115349543D01*
X55124500Y-115413389D01*
X55124500Y-115586611D01*
X55126700Y-115600499D01*
X55147464Y-115731604D01*
X55151598Y-115757701D01*
X55205127Y-115922445D01*
X55283768Y-116076788D01*
X55385586Y-116216928D01*
X55385588Y-116216930D01*
X55493491Y-116324833D01*
X55526976Y-116386156D01*
X55521992Y-116455848D01*
X55480120Y-116511781D01*
X55470907Y-116518053D01*
X55406654Y-116557684D01*
X55282684Y-116681654D01*
X55190643Y-116830875D01*
X55190641Y-116830880D01*
X55135494Y-116997302D01*
X55135493Y-116997309D01*
X55125000Y-117100013D01*
X55125000Y-117250000D01*
X56219670Y-117250000D01*
X56199925Y-117269745D01*
X56150556Y-117355255D01*
X56125000Y-117450630D01*
X56125000Y-117549370D01*
X56150556Y-117644745D01*
X56199925Y-117730255D01*
X56219670Y-117750000D01*
X55125001Y-117750000D01*
X55125001Y-117899986D01*
X55135494Y-118002697D01*
X55190641Y-118169119D01*
X55190643Y-118169124D01*
X55282684Y-118318345D01*
X55406654Y-118442315D01*
X55555875Y-118534356D01*
X55555880Y-118534358D01*
X55722302Y-118589505D01*
X55722309Y-118589506D01*
X55825019Y-118599999D01*
X56249999Y-118599999D01*
X56250000Y-118599998D01*
X56250000Y-117780330D01*
X56269745Y-117800075D01*
X56355255Y-117849444D01*
X56450630Y-117875000D01*
X56549370Y-117875000D01*
X56644745Y-117849444D01*
X56730255Y-117800075D01*
X56750000Y-117780330D01*
X56750000Y-118599999D01*
X57174972Y-118599999D01*
X57174986Y-118599998D01*
X57277697Y-118589505D01*
X57444119Y-118534358D01*
X57444124Y-118534356D01*
X57593345Y-118442315D01*
X57717315Y-118318345D01*
X57809356Y-118169124D01*
X57809358Y-118169119D01*
X57857119Y-118024986D01*
X60050001Y-118024986D01*
X60060494Y-118127697D01*
X60115641Y-118294119D01*
X60115643Y-118294124D01*
X60207684Y-118443345D01*
X60331654Y-118567315D01*
X60480875Y-118659356D01*
X60480880Y-118659358D01*
X60647302Y-118714505D01*
X60647309Y-118714506D01*
X60750019Y-118724999D01*
X60799999Y-118724998D01*
X60800000Y-118724998D01*
X60800000Y-117750000D01*
X60050001Y-117750000D01*
X60050001Y-118024986D01*
X57857119Y-118024986D01*
X57864505Y-118002697D01*
X57864506Y-118002690D01*
X57874999Y-117899986D01*
X57875000Y-117899973D01*
X57875000Y-117750000D01*
X56780330Y-117750000D01*
X56800075Y-117730255D01*
X56849444Y-117644745D01*
X56875000Y-117549370D01*
X56875000Y-117450630D01*
X56849444Y-117355255D01*
X56800075Y-117269745D01*
X56780330Y-117250000D01*
X57874999Y-117250000D01*
X57874999Y-117100028D01*
X57874998Y-117100013D01*
X57864505Y-116997302D01*
X57809358Y-116830880D01*
X57809356Y-116830875D01*
X57717315Y-116681654D01*
X57593345Y-116557684D01*
X57529093Y-116518053D01*
X57513540Y-116500761D01*
X57494922Y-116486824D01*
X57490613Y-116475270D01*
X57482369Y-116466105D01*
X57478633Y-116443151D01*
X57470506Y-116421359D01*
X57473127Y-116409310D01*
X57471147Y-116397142D01*
X57480414Y-116375813D01*
X57485358Y-116353087D01*
X57497109Y-116337389D01*
X57498990Y-116333060D01*
X57506498Y-116324843D01*
X57594524Y-116236818D01*
X57655848Y-116203334D01*
X57682205Y-116200500D01*
X60270846Y-116200500D01*
X60337885Y-116220185D01*
X60383640Y-116272989D01*
X60393584Y-116342147D01*
X60364559Y-116405703D01*
X60335945Y-116430038D01*
X60331654Y-116432684D01*
X60207684Y-116556654D01*
X60115643Y-116705875D01*
X60115641Y-116705880D01*
X60060494Y-116872302D01*
X60060493Y-116872309D01*
X60050000Y-116975013D01*
X60050000Y-117250000D01*
X60926000Y-117250000D01*
X60993039Y-117269685D01*
X61038794Y-117322489D01*
X61050000Y-117374000D01*
X61050000Y-117500000D01*
X61176000Y-117500000D01*
X61243039Y-117519685D01*
X61288794Y-117572489D01*
X61300000Y-117624000D01*
X61300000Y-118724999D01*
X61349972Y-118724999D01*
X61349986Y-118724998D01*
X61452697Y-118714505D01*
X61619119Y-118659358D01*
X61619124Y-118659356D01*
X61768345Y-118567315D01*
X61892318Y-118443342D01*
X61894165Y-118440348D01*
X61895969Y-118438724D01*
X61896798Y-118437677D01*
X61896976Y-118437818D01*
X61946110Y-118393621D01*
X62015073Y-118382396D01*
X62079156Y-118410236D01*
X62105243Y-118440341D01*
X62107288Y-118443656D01*
X62231344Y-118567712D01*
X62380666Y-118659814D01*
X62547203Y-118714999D01*
X62649991Y-118725500D01*
X63250008Y-118725499D01*
X63250016Y-118725498D01*
X63250019Y-118725498D01*
X63306302Y-118719748D01*
X63352797Y-118714999D01*
X63519334Y-118659814D01*
X63668656Y-118567712D01*
X63792712Y-118443656D01*
X63884814Y-118294334D01*
X63939999Y-118127797D01*
X63950500Y-118025009D01*
X63950499Y-116974992D01*
X63939999Y-116872203D01*
X63884814Y-116705666D01*
X63792712Y-116556344D01*
X63668656Y-116432288D01*
X63540250Y-116353087D01*
X63519336Y-116340187D01*
X63519331Y-116340185D01*
X63497829Y-116333060D01*
X63352797Y-116285001D01*
X63352795Y-116285000D01*
X63250016Y-116274500D01*
X63250009Y-116274500D01*
X62766519Y-116274500D01*
X62699480Y-116254815D01*
X62678838Y-116238181D01*
X61396546Y-114955888D01*
X61396545Y-114955887D01*
X61281807Y-114879222D01*
X61154332Y-114826421D01*
X61154322Y-114826418D01*
X61018996Y-114799500D01*
X61018994Y-114799500D01*
X61018993Y-114799500D01*
X57682205Y-114799500D01*
X57615166Y-114779815D01*
X57594524Y-114763182D01*
X57551527Y-114720185D01*
X57491928Y-114660586D01*
X57408975Y-114600317D01*
X57366311Y-114544988D01*
X57360332Y-114475374D01*
X57392938Y-114413579D01*
X57408976Y-114399682D01*
X57491928Y-114339414D01*
X57594524Y-114236818D01*
X57655847Y-114203334D01*
X57682205Y-114200500D01*
X61156496Y-114200500D01*
X61247540Y-114182389D01*
X61291828Y-114173580D01*
X61355569Y-114147177D01*
X61419307Y-114120777D01*
X61419308Y-114120776D01*
X61419311Y-114120775D01*
X61534043Y-114044114D01*
X61710992Y-113867165D01*
X61803539Y-113774618D01*
X62341337Y-113236818D01*
X62402660Y-113203333D01*
X62429018Y-113200499D01*
X62900002Y-113200499D01*
X62900008Y-113200499D01*
X63002797Y-113189999D01*
X63169334Y-113134814D01*
X63318656Y-113042712D01*
X63412319Y-112949049D01*
X63473642Y-112915564D01*
X63543334Y-112920548D01*
X63587681Y-112949049D01*
X63681344Y-113042712D01*
X63830666Y-113134814D01*
X63997203Y-113189999D01*
X64099991Y-113200500D01*
X64725008Y-113200499D01*
X64725016Y-113200498D01*
X64725019Y-113200498D01*
X64781302Y-113194748D01*
X64827797Y-113189999D01*
X64994334Y-113134814D01*
X65143656Y-113042712D01*
X65267712Y-112918656D01*
X65359814Y-112769334D01*
X65359814Y-112769332D01*
X65363605Y-112763187D01*
X65365399Y-112764293D01*
X65404687Y-112719663D01*
X65470908Y-112700500D01*
X65568996Y-112700500D01*
X65660040Y-112682389D01*
X65704328Y-112673580D01*
X65768069Y-112647177D01*
X65831807Y-112620777D01*
X65831808Y-112620776D01*
X65831811Y-112620775D01*
X65946543Y-112544114D01*
X72253838Y-106236819D01*
X72315161Y-106203334D01*
X72341519Y-106200500D01*
X77509481Y-106200500D01*
X77576520Y-106220185D01*
X77622275Y-106272989D01*
X77632219Y-106342147D01*
X77603194Y-106405703D01*
X77597162Y-106412181D01*
X76690208Y-107319133D01*
X76641534Y-107349157D01*
X76593167Y-107365185D01*
X76443842Y-107457289D01*
X76319789Y-107581342D01*
X76227687Y-107730663D01*
X76227685Y-107730668D01*
X76210321Y-107783069D01*
X76172501Y-107897203D01*
X76172501Y-107897204D01*
X76172500Y-107897204D01*
X76162000Y-107999983D01*
X76162000Y-109000001D01*
X76162001Y-109000019D01*
X76172500Y-109102796D01*
X76172501Y-109102799D01*
X76225647Y-109263181D01*
X76227686Y-109269334D01*
X76319788Y-109418656D01*
X76443844Y-109542712D01*
X76593166Y-109634814D01*
X76759703Y-109689999D01*
X76862491Y-109700500D01*
X77487508Y-109700499D01*
X77487516Y-109700498D01*
X77487519Y-109700498D01*
X77543802Y-109694748D01*
X77590297Y-109689999D01*
X77756834Y-109634814D01*
X77906156Y-109542712D01*
X77999819Y-109449049D01*
X78061142Y-109415564D01*
X78130834Y-109420548D01*
X78175181Y-109449049D01*
X78268844Y-109542712D01*
X78418166Y-109634814D01*
X78584703Y-109689999D01*
X78687491Y-109700500D01*
X79312508Y-109700499D01*
X79312516Y-109700498D01*
X79312519Y-109700498D01*
X79368802Y-109694748D01*
X79415297Y-109689999D01*
X79581834Y-109634814D01*
X79731156Y-109542712D01*
X79855212Y-109418656D01*
X79855214Y-109418652D01*
X79859695Y-109412987D01*
X79860925Y-109413959D01*
X79871890Y-109404094D01*
X79885832Y-109385472D01*
X79897377Y-109381165D01*
X79906540Y-109372923D01*
X79929500Y-109369184D01*
X79951296Y-109361055D01*
X79963337Y-109363674D01*
X79975501Y-109361694D01*
X79996837Y-109370961D01*
X80019569Y-109375907D01*
X80035255Y-109387649D01*
X80039586Y-109389531D01*
X80047823Y-109397058D01*
X80165425Y-109514660D01*
X80198910Y-109575983D01*
X80199361Y-109578149D01*
X80230261Y-109733491D01*
X80230264Y-109733501D01*
X80290602Y-109879172D01*
X80290609Y-109879185D01*
X80378210Y-110010288D01*
X80378213Y-110010292D01*
X80489707Y-110121786D01*
X80489711Y-110121789D01*
X80620814Y-110209390D01*
X80620827Y-110209397D01*
X80700261Y-110242299D01*
X80766503Y-110269737D01*
X80921153Y-110300499D01*
X80921156Y-110300500D01*
X80921158Y-110300500D01*
X81078844Y-110300500D01*
X81078845Y-110300499D01*
X81233497Y-110269737D01*
X81379179Y-110209394D01*
X81510289Y-110121789D01*
X81621789Y-110010289D01*
X81709394Y-109879179D01*
X81769737Y-109733497D01*
X81800500Y-109578842D01*
X81800500Y-109421158D01*
X81800500Y-109421155D01*
X81800499Y-109421153D01*
X81793835Y-109387649D01*
X81769737Y-109266503D01*
X81753379Y-109227011D01*
X81709397Y-109120827D01*
X81709390Y-109120814D01*
X81621789Y-108989711D01*
X81621786Y-108989707D01*
X81510292Y-108878213D01*
X81510288Y-108878210D01*
X81379185Y-108790609D01*
X81379172Y-108790602D01*
X81233501Y-108730264D01*
X81233491Y-108730261D01*
X81078151Y-108699362D01*
X81016241Y-108666977D01*
X81014662Y-108665426D01*
X80487590Y-108138355D01*
X80487588Y-108138352D01*
X80368717Y-108019481D01*
X80368716Y-108019480D01*
X80334946Y-107999983D01*
X80270221Y-107962614D01*
X80270219Y-107962613D01*
X80258567Y-107955886D01*
X80231785Y-107940423D01*
X80079057Y-107899499D01*
X80071412Y-107899499D01*
X80055536Y-107894459D01*
X80035293Y-107880817D01*
X80012971Y-107870941D01*
X80006557Y-107861451D01*
X79997596Y-107855412D01*
X79989027Y-107835513D01*
X79975351Y-107815276D01*
X79969184Y-107796666D01*
X79947314Y-107730666D01*
X79855212Y-107581344D01*
X79731156Y-107457288D01*
X79581834Y-107365186D01*
X79415297Y-107310001D01*
X79415295Y-107310000D01*
X79312516Y-107299500D01*
X79312509Y-107299500D01*
X78990518Y-107299500D01*
X78923479Y-107279815D01*
X78877724Y-107227011D01*
X78867780Y-107157853D01*
X78896805Y-107094297D01*
X78902837Y-107087819D01*
X79753838Y-106236819D01*
X79815161Y-106203334D01*
X79841519Y-106200500D01*
X112398995Y-106200500D01*
X112490041Y-106182389D01*
X112534328Y-106173580D01*
X112661811Y-106120775D01*
X112776542Y-106044114D01*
X112874114Y-105946542D01*
X112950775Y-105831811D01*
X113003580Y-105704328D01*
X113003580Y-105704325D01*
X113005346Y-105698506D01*
X113006760Y-105698934D01*
X113035734Y-105643527D01*
X113037241Y-105641992D01*
X113629375Y-105049858D01*
X113690696Y-105016375D01*
X113736452Y-105015068D01*
X113859139Y-105034500D01*
X113859140Y-105034500D01*
X114045480Y-105034500D01*
X114112519Y-105054185D01*
X114158274Y-105106989D01*
X114168218Y-105176147D01*
X114139193Y-105239703D01*
X114133161Y-105246181D01*
X112616162Y-106763181D01*
X112554839Y-106796666D01*
X112528481Y-106799500D01*
X90931004Y-106799500D01*
X90795677Y-106826418D01*
X90795667Y-106826421D01*
X90668192Y-106879222D01*
X90553454Y-106955887D01*
X90553453Y-106955888D01*
X77246162Y-120263181D01*
X77184839Y-120296666D01*
X77158481Y-120299500D01*
X74360440Y-120299500D01*
X74293401Y-120279815D01*
X74247646Y-120227011D01*
X74237702Y-120157853D01*
X74266727Y-120094297D01*
X74286131Y-120076232D01*
X74286190Y-120076187D01*
X74372350Y-119961093D01*
X74372354Y-119961086D01*
X74422596Y-119826379D01*
X74422598Y-119826372D01*
X74428999Y-119766844D01*
X74429000Y-119766827D01*
X74429000Y-119290000D01*
X73596410Y-119290000D01*
X73646037Y-119204044D01*
X73675000Y-119095952D01*
X73675000Y-118984048D01*
X73646037Y-118875956D01*
X73596410Y-118790000D01*
X74429000Y-118790000D01*
X74429000Y-118313172D01*
X74428999Y-118313155D01*
X74422598Y-118253627D01*
X74422596Y-118253620D01*
X74372354Y-118118913D01*
X74372350Y-118118906D01*
X74286190Y-118003812D01*
X74286187Y-118003809D01*
X74171093Y-117917649D01*
X74171086Y-117917645D01*
X74036379Y-117867403D01*
X74036372Y-117867401D01*
X73976844Y-117861000D01*
X73661118Y-117861000D01*
X73594079Y-117841315D01*
X73548324Y-117788511D01*
X73538380Y-117719353D01*
X73567405Y-117655797D01*
X73622798Y-117619069D01*
X73702771Y-117593085D01*
X73868193Y-117508799D01*
X74018393Y-117399672D01*
X74149672Y-117268393D01*
X74258799Y-117118193D01*
X74343085Y-116952771D01*
X74400457Y-116776200D01*
X74415432Y-116681654D01*
X74429500Y-116592834D01*
X74429500Y-116407165D01*
X74405369Y-116254815D01*
X74400457Y-116223800D01*
X74343085Y-116047229D01*
X74258799Y-115881807D01*
X74149672Y-115731607D01*
X74018393Y-115600328D01*
X73868193Y-115491201D01*
X73702771Y-115406915D01*
X73526200Y-115349543D01*
X73526197Y-115349542D01*
X73521567Y-115348038D01*
X73522277Y-115345852D01*
X73469914Y-115315797D01*
X73437740Y-115253776D01*
X73444205Y-115184206D01*
X73487256Y-115129176D01*
X73522004Y-115113307D01*
X73521567Y-115111962D01*
X73526197Y-115110457D01*
X73526200Y-115110457D01*
X73702771Y-115053085D01*
X73868193Y-114968799D01*
X74018393Y-114859672D01*
X74149672Y-114728393D01*
X74258799Y-114578193D01*
X74343085Y-114412771D01*
X74400457Y-114236200D01*
X74418738Y-114120777D01*
X74429500Y-114052834D01*
X74429500Y-113867165D01*
X74400457Y-113683803D01*
X74400457Y-113683800D01*
X74343085Y-113507229D01*
X74324015Y-113469801D01*
X74314138Y-113428663D01*
X74311561Y-113429003D01*
X74310500Y-113420950D01*
X74310500Y-113420943D01*
X74269577Y-113268216D01*
X74254615Y-113242302D01*
X74190521Y-113131287D01*
X74190516Y-113131281D01*
X74078718Y-113019483D01*
X74078712Y-113019478D01*
X73941786Y-112940424D01*
X73941785Y-112940423D01*
X73941784Y-112940423D01*
X73789057Y-112899500D01*
X73789056Y-112899500D01*
X73780997Y-112898439D01*
X73781336Y-112895861D01*
X73740198Y-112885985D01*
X73702773Y-112866916D01*
X73702772Y-112866915D01*
X73702771Y-112866915D01*
X73526200Y-112809543D01*
X73526198Y-112809542D01*
X73526196Y-112809542D01*
X73342834Y-112780500D01*
X73342829Y-112780500D01*
X73157171Y-112780500D01*
X73157166Y-112780500D01*
X72973803Y-112809542D01*
X72797226Y-112866916D01*
X72631806Y-112951201D01*
X72566034Y-112998988D01*
X72481607Y-113060328D01*
X72481605Y-113060330D01*
X72481604Y-113060330D01*
X72350330Y-113191604D01*
X72350330Y-113191605D01*
X72350328Y-113191607D01*
X72317480Y-113236818D01*
X72241201Y-113341806D01*
X72156916Y-113507226D01*
X72099542Y-113683803D01*
X72070500Y-113867165D01*
X72070500Y-114052834D01*
X72096491Y-114216930D01*
X72099543Y-114236200D01*
X72152662Y-114399683D01*
X72156916Y-114412773D01*
X72223837Y-114544114D01*
X72241201Y-114578193D01*
X72350328Y-114728393D01*
X72481607Y-114859672D01*
X72631807Y-114968799D01*
X72797229Y-115053085D01*
X72973800Y-115110457D01*
X72973802Y-115110457D01*
X72978433Y-115111962D01*
X72977726Y-115114135D01*
X73030129Y-115144248D01*
X73062271Y-115206286D01*
X73055771Y-115275852D01*
X73012692Y-115330861D01*
X72977999Y-115346704D01*
X72978433Y-115348038D01*
X72973802Y-115349542D01*
X72973800Y-115349543D01*
X72797229Y-115406915D01*
X72797226Y-115406916D01*
X72631806Y-115491201D01*
X72571779Y-115534814D01*
X72481607Y-115600328D01*
X72481605Y-115600330D01*
X72481604Y-115600330D01*
X72350330Y-115731604D01*
X72350330Y-115731605D01*
X72350328Y-115731607D01*
X72331370Y-115757701D01*
X72241201Y-115881806D01*
X72156916Y-116047226D01*
X72099542Y-116223803D01*
X72070500Y-116407165D01*
X72070500Y-116592834D01*
X72088405Y-116705880D01*
X72099543Y-116776200D01*
X72156915Y-116952771D01*
X72241201Y-117118193D01*
X72350328Y-117268393D01*
X72481607Y-117399672D01*
X72631807Y-117508799D01*
X72797229Y-117593085D01*
X72877201Y-117619069D01*
X72934876Y-117658507D01*
X72962074Y-117722865D01*
X72950159Y-117791712D01*
X72902915Y-117843187D01*
X72838882Y-117861000D01*
X72523155Y-117861000D01*
X72463627Y-117867401D01*
X72463620Y-117867403D01*
X72328913Y-117917645D01*
X72328906Y-117917649D01*
X72213812Y-118003809D01*
X72213809Y-118003812D01*
X72127649Y-118118906D01*
X72127645Y-118118913D01*
X72077403Y-118253620D01*
X72077401Y-118253627D01*
X72071000Y-118313155D01*
X72071000Y-118790000D01*
X72903590Y-118790000D01*
X72853963Y-118875956D01*
X72825000Y-118984048D01*
X72825000Y-119095952D01*
X72853963Y-119204044D01*
X72903590Y-119290000D01*
X72071000Y-119290000D01*
X72071000Y-119766844D01*
X72077401Y-119826372D01*
X72077403Y-119826379D01*
X72127645Y-119961086D01*
X72127649Y-119961093D01*
X72213809Y-120076187D01*
X72213869Y-120076232D01*
X72213913Y-120076291D01*
X72220082Y-120082460D01*
X72219195Y-120083346D01*
X72255741Y-120132165D01*
X72260727Y-120201856D01*
X72227242Y-120263180D01*
X72165920Y-120296666D01*
X72139560Y-120299500D01*
X50734099Y-120299500D01*
X50667060Y-120279815D01*
X50621305Y-120227011D01*
X50610099Y-120175500D01*
X50610099Y-120109229D01*
X50610098Y-120109223D01*
X50610097Y-120109216D01*
X50603691Y-120049617D01*
X50599394Y-120038097D01*
X50553397Y-119914771D01*
X50553393Y-119914764D01*
X50467147Y-119799555D01*
X50467144Y-119799552D01*
X50351935Y-119713306D01*
X50351928Y-119713302D01*
X50217082Y-119663008D01*
X50217083Y-119663008D01*
X50157483Y-119656601D01*
X50157481Y-119656600D01*
X50157473Y-119656600D01*
X50157464Y-119656600D01*
X48842529Y-119656600D01*
X48842523Y-119656601D01*
X48782916Y-119663008D01*
X48648071Y-119713302D01*
X48648064Y-119713306D01*
X48532855Y-119799552D01*
X48532852Y-119799555D01*
X48446606Y-119914764D01*
X48446602Y-119914771D01*
X48396308Y-120049617D01*
X48389901Y-120109216D01*
X48389901Y-120109223D01*
X48389900Y-120109235D01*
X48389900Y-120890770D01*
X48389901Y-120890776D01*
X48396308Y-120950383D01*
X48446602Y-121085228D01*
X48446606Y-121085235D01*
X48532852Y-121200444D01*
X48532855Y-121200447D01*
X48648064Y-121286693D01*
X48648071Y-121286697D01*
X48658552Y-121290606D01*
X48782917Y-121336991D01*
X48842527Y-121343400D01*
X49301379Y-121343399D01*
X49368418Y-121363083D01*
X49389060Y-121379718D01*
X49553454Y-121544112D01*
X49553457Y-121544114D01*
X49668189Y-121620775D01*
X49668315Y-121620827D01*
X49780851Y-121667441D01*
X49835255Y-121711281D01*
X49857320Y-121777575D01*
X49840041Y-121845275D01*
X49821080Y-121869683D01*
X49530482Y-122160281D01*
X49469159Y-122193766D01*
X49442801Y-122196600D01*
X48842529Y-122196600D01*
X48842523Y-122196601D01*
X48782916Y-122203008D01*
X48648071Y-122253302D01*
X48648064Y-122253306D01*
X48532855Y-122339552D01*
X48532852Y-122339555D01*
X48446606Y-122454764D01*
X48446602Y-122454771D01*
X48396308Y-122589617D01*
X48389909Y-122649142D01*
X48389901Y-122649223D01*
X48389900Y-122649235D01*
X48389900Y-123430770D01*
X48389901Y-123430776D01*
X48396308Y-123490383D01*
X48446602Y-123625228D01*
X48446606Y-123625235D01*
X48532852Y-123740444D01*
X48532855Y-123740447D01*
X48648064Y-123826693D01*
X48648071Y-123826697D01*
X48782917Y-123876991D01*
X48782916Y-123876991D01*
X48789844Y-123877735D01*
X48842527Y-123883400D01*
X49826580Y-123883399D01*
X49893619Y-123903083D01*
X49939374Y-123955887D01*
X49949318Y-124025046D01*
X49920293Y-124088602D01*
X49914261Y-124095080D01*
X49309060Y-124700281D01*
X49247737Y-124733766D01*
X49221379Y-124736600D01*
X48842530Y-124736600D01*
X48842523Y-124736601D01*
X48782916Y-124743008D01*
X48648071Y-124793302D01*
X48648064Y-124793306D01*
X48532855Y-124879552D01*
X48532852Y-124879555D01*
X48446606Y-124994764D01*
X48446602Y-124994771D01*
X48396308Y-125129617D01*
X48391582Y-125173580D01*
X48389901Y-125189223D01*
X48389900Y-125189235D01*
X48389900Y-125970770D01*
X48389901Y-125970776D01*
X48396308Y-126030383D01*
X48446602Y-126165228D01*
X48446606Y-126165235D01*
X48532852Y-126280444D01*
X48532855Y-126280447D01*
X48648064Y-126366693D01*
X48648071Y-126366697D01*
X48782917Y-126416991D01*
X48782916Y-126416991D01*
X48789844Y-126417735D01*
X48842527Y-126423400D01*
X50157472Y-126423399D01*
X50217083Y-126416991D01*
X50351931Y-126366696D01*
X50467146Y-126280446D01*
X50553396Y-126165231D01*
X50603691Y-126030383D01*
X50610100Y-125970773D01*
X50610099Y-125431917D01*
X50629783Y-125364879D01*
X50646413Y-125344242D01*
X52253838Y-123736819D01*
X52315161Y-123703334D01*
X52341519Y-123700500D01*
X80568996Y-123700500D01*
X80661224Y-123682154D01*
X80704328Y-123673580D01*
X80821044Y-123625235D01*
X80831807Y-123620777D01*
X80831808Y-123620776D01*
X80831811Y-123620775D01*
X80946543Y-123544114D01*
X93753837Y-110736818D01*
X93815160Y-110703334D01*
X93841518Y-110700500D01*
X115518996Y-110700500D01*
X115610040Y-110682389D01*
X115654328Y-110673580D01*
X115746276Y-110635494D01*
X115781807Y-110620777D01*
X115781808Y-110620776D01*
X115781811Y-110620775D01*
X115896543Y-110544114D01*
X121371461Y-105069194D01*
X121432782Y-105035711D01*
X121474255Y-105034528D01*
X121474288Y-105034118D01*
X121478106Y-105034418D01*
X121478546Y-105034406D01*
X121479139Y-105034500D01*
X121479146Y-105034500D01*
X121660860Y-105034500D01*
X121660861Y-105034500D01*
X121840346Y-105006072D01*
X121840349Y-105006071D01*
X121840350Y-105006071D01*
X122013171Y-104949918D01*
X122013171Y-104949917D01*
X122013174Y-104949917D01*
X122175090Y-104867417D01*
X122322106Y-104760603D01*
X122450603Y-104632106D01*
X122557417Y-104485090D01*
X122639917Y-104323174D01*
X122679776Y-104200500D01*
X122696071Y-104150350D01*
X122696071Y-104150349D01*
X122696072Y-104150346D01*
X122717527Y-104014884D01*
X122747456Y-103951750D01*
X122806768Y-103914819D01*
X122876630Y-103915817D01*
X122934863Y-103954427D01*
X122962473Y-104014885D01*
X122983928Y-104150347D01*
X122983928Y-104150350D01*
X123040081Y-104323171D01*
X123040083Y-104323174D01*
X123122583Y-104485090D01*
X123229397Y-104632106D01*
X123357894Y-104760603D01*
X123504910Y-104867417D01*
X123666826Y-104949917D01*
X123666828Y-104949918D01*
X123732159Y-104971145D01*
X123839654Y-105006072D01*
X124019139Y-105034500D01*
X124019140Y-105034500D01*
X124200860Y-105034500D01*
X124200861Y-105034500D01*
X124380346Y-105006072D01*
X124380349Y-105006071D01*
X124380350Y-105006071D01*
X124553171Y-104949918D01*
X124553171Y-104949917D01*
X124553174Y-104949917D01*
X124715090Y-104867417D01*
X124862106Y-104760603D01*
X124990603Y-104632106D01*
X125097417Y-104485090D01*
X125179917Y-104323174D01*
X125219776Y-104200500D01*
X125236071Y-104150350D01*
X125236071Y-104150349D01*
X125236072Y-104150346D01*
X125257527Y-104014884D01*
X125287456Y-103951750D01*
X125346768Y-103914819D01*
X125416630Y-103915817D01*
X125474863Y-103954427D01*
X125502473Y-104014885D01*
X125523928Y-104150347D01*
X125523928Y-104150350D01*
X125580081Y-104323171D01*
X125580083Y-104323174D01*
X125662583Y-104485090D01*
X125769397Y-104632106D01*
X125897894Y-104760603D01*
X126044910Y-104867417D01*
X126206826Y-104949917D01*
X126206828Y-104949918D01*
X126272159Y-104971145D01*
X126379654Y-105006072D01*
X126559139Y-105034500D01*
X126559140Y-105034500D01*
X126740860Y-105034500D01*
X126740861Y-105034500D01*
X126920346Y-105006072D01*
X126920349Y-105006071D01*
X126920350Y-105006071D01*
X127093171Y-104949918D01*
X127093171Y-104949917D01*
X127093174Y-104949917D01*
X127255090Y-104867417D01*
X127402106Y-104760603D01*
X127530603Y-104632106D01*
X127637417Y-104485090D01*
X127719917Y-104323174D01*
X127759776Y-104200500D01*
X127776071Y-104150350D01*
X127776071Y-104150349D01*
X127776072Y-104150346D01*
X127797527Y-104014884D01*
X127827456Y-103951750D01*
X127886768Y-103914819D01*
X127956630Y-103915817D01*
X128014863Y-103954427D01*
X128042473Y-104014885D01*
X128063928Y-104150347D01*
X128063928Y-104150350D01*
X128120081Y-104323171D01*
X128120083Y-104323174D01*
X128202583Y-104485090D01*
X128309397Y-104632106D01*
X128437894Y-104760603D01*
X128584910Y-104867417D01*
X128746826Y-104949917D01*
X128746828Y-104949918D01*
X128812159Y-104971145D01*
X128919654Y-105006072D01*
X129099139Y-105034500D01*
X129099140Y-105034500D01*
X129280860Y-105034500D01*
X129280861Y-105034500D01*
X129460346Y-105006072D01*
X129460349Y-105006071D01*
X129460350Y-105006071D01*
X129633171Y-104949918D01*
X129633171Y-104949917D01*
X129633174Y-104949917D01*
X129795090Y-104867417D01*
X129942106Y-104760603D01*
X130070603Y-104632106D01*
X130177417Y-104485090D01*
X130259917Y-104323174D01*
X130299776Y-104200500D01*
X130316071Y-104150350D01*
X130316071Y-104150349D01*
X130316072Y-104150346D01*
X130337527Y-104014884D01*
X130367456Y-103951750D01*
X130426768Y-103914819D01*
X130496630Y-103915817D01*
X130554863Y-103954427D01*
X130582473Y-104014885D01*
X130603928Y-104150347D01*
X130603928Y-104150350D01*
X130660081Y-104323171D01*
X130660083Y-104323174D01*
X130742583Y-104485090D01*
X130849397Y-104632106D01*
X130977894Y-104760603D01*
X131124910Y-104867417D01*
X131286826Y-104949917D01*
X131286828Y-104949918D01*
X131352159Y-104971145D01*
X131459654Y-105006072D01*
X131639139Y-105034500D01*
X131639140Y-105034500D01*
X131820860Y-105034500D01*
X131820861Y-105034500D01*
X132000346Y-105006072D01*
X132000349Y-105006071D01*
X132000350Y-105006071D01*
X132173171Y-104949918D01*
X132173171Y-104949917D01*
X132173174Y-104949917D01*
X132335090Y-104867417D01*
X132482106Y-104760603D01*
X132610603Y-104632106D01*
X132717417Y-104485090D01*
X132799917Y-104323174D01*
X132839776Y-104200500D01*
X132856071Y-104150350D01*
X132856071Y-104150349D01*
X132856072Y-104150346D01*
X132877527Y-104014884D01*
X132907456Y-103951750D01*
X132966768Y-103914819D01*
X133036630Y-103915817D01*
X133094863Y-103954427D01*
X133122473Y-104014885D01*
X133143928Y-104150347D01*
X133143928Y-104150350D01*
X133200081Y-104323171D01*
X133200083Y-104323174D01*
X133282583Y-104485090D01*
X133389397Y-104632106D01*
X133517894Y-104760603D01*
X133664910Y-104867417D01*
X133826826Y-104949917D01*
X133826828Y-104949918D01*
X133892159Y-104971145D01*
X133999654Y-105006072D01*
X134179139Y-105034500D01*
X134179140Y-105034500D01*
X134360860Y-105034500D01*
X134360861Y-105034500D01*
X134540346Y-105006072D01*
X134540349Y-105006071D01*
X134540350Y-105006071D01*
X134713171Y-104949918D01*
X134713171Y-104949917D01*
X134713174Y-104949917D01*
X134875090Y-104867417D01*
X135022106Y-104760603D01*
X135150603Y-104632106D01*
X135257417Y-104485090D01*
X135339917Y-104323174D01*
X135379776Y-104200500D01*
X135396071Y-104150350D01*
X135396071Y-104150349D01*
X135396072Y-104150346D01*
X135417527Y-104014884D01*
X135447456Y-103951750D01*
X135506768Y-103914819D01*
X135576630Y-103915817D01*
X135634863Y-103954427D01*
X135662473Y-104014885D01*
X135683928Y-104150347D01*
X135683928Y-104150350D01*
X135740081Y-104323171D01*
X135740083Y-104323174D01*
X135822583Y-104485090D01*
X135929397Y-104632106D01*
X136057894Y-104760603D01*
X136204910Y-104867417D01*
X136366826Y-104949917D01*
X136366828Y-104949918D01*
X136432159Y-104971145D01*
X136539654Y-105006072D01*
X136719139Y-105034500D01*
X136719140Y-105034500D01*
X136900860Y-105034500D01*
X136900861Y-105034500D01*
X137080346Y-105006072D01*
X137080349Y-105006071D01*
X137080350Y-105006071D01*
X137253171Y-104949918D01*
X137253171Y-104949917D01*
X137253174Y-104949917D01*
X137415090Y-104867417D01*
X137562106Y-104760603D01*
X137690603Y-104632106D01*
X137797417Y-104485090D01*
X137879917Y-104323174D01*
X137919776Y-104200500D01*
X137936071Y-104150350D01*
X137936071Y-104150349D01*
X137936072Y-104150346D01*
X137957527Y-104014884D01*
X137987456Y-103951750D01*
X138046768Y-103914819D01*
X138116630Y-103915817D01*
X138174863Y-103954427D01*
X138202473Y-104014885D01*
X138223928Y-104150347D01*
X138223928Y-104150350D01*
X138280081Y-104323171D01*
X138280083Y-104323174D01*
X138362583Y-104485090D01*
X138469397Y-104632106D01*
X138597894Y-104760603D01*
X138744910Y-104867417D01*
X138906826Y-104949917D01*
X138906828Y-104949918D01*
X138972159Y-104971145D01*
X139079654Y-105006072D01*
X139259139Y-105034500D01*
X139259140Y-105034500D01*
X139440860Y-105034500D01*
X139440861Y-105034500D01*
X139620346Y-105006072D01*
X139620349Y-105006071D01*
X139620350Y-105006071D01*
X139793171Y-104949918D01*
X139793171Y-104949917D01*
X139793174Y-104949917D01*
X139955090Y-104867417D01*
X140102106Y-104760603D01*
X140230603Y-104632106D01*
X140337417Y-104485090D01*
X140419917Y-104323174D01*
X140459776Y-104200500D01*
X140476071Y-104150350D01*
X140476071Y-104150349D01*
X140476072Y-104150346D01*
X140497527Y-104014884D01*
X140527456Y-103951750D01*
X140586768Y-103914819D01*
X140656630Y-103915817D01*
X140714863Y-103954427D01*
X140742473Y-104014885D01*
X140763928Y-104150347D01*
X140763928Y-104150350D01*
X140820081Y-104323171D01*
X140820083Y-104323174D01*
X140902583Y-104485090D01*
X141009397Y-104632106D01*
X141137894Y-104760603D01*
X141284910Y-104867417D01*
X141446826Y-104949917D01*
X141446828Y-104949918D01*
X141512159Y-104971145D01*
X141619654Y-105006072D01*
X141799139Y-105034500D01*
X141799140Y-105034500D01*
X141980851Y-105034500D01*
X141980861Y-105034500D01*
X141981443Y-105034407D01*
X141981666Y-105034436D01*
X141985712Y-105034118D01*
X141985778Y-105034967D01*
X142050733Y-105043350D01*
X142088539Y-105069196D01*
X147063453Y-110044111D01*
X147063454Y-110044112D01*
X147178190Y-110120776D01*
X147276790Y-110161617D01*
X147305671Y-110173580D01*
X147305672Y-110173580D01*
X147305677Y-110173582D01*
X147332545Y-110178925D01*
X147332551Y-110178926D01*
X147332591Y-110178934D01*
X147422937Y-110196905D01*
X147441006Y-110200500D01*
X147441007Y-110200500D01*
X177513033Y-110200500D01*
X177580072Y-110220185D01*
X177625827Y-110272989D01*
X177635771Y-110342147D01*
X177635506Y-110343897D01*
X177624500Y-110413388D01*
X177624500Y-110586610D01*
X177648290Y-110736819D01*
X177651598Y-110757701D01*
X177705127Y-110922445D01*
X177783768Y-111076788D01*
X177885586Y-111216928D01*
X178008072Y-111339414D01*
X178008078Y-111339418D01*
X178091023Y-111399683D01*
X178133689Y-111455013D01*
X178139667Y-111524626D01*
X178107061Y-111586421D01*
X178091023Y-111600317D01*
X178008078Y-111660581D01*
X178008069Y-111660588D01*
X177885588Y-111783069D01*
X177885588Y-111783070D01*
X177885586Y-111783072D01*
X177841859Y-111843256D01*
X177783768Y-111923211D01*
X177705128Y-112077552D01*
X177651597Y-112242302D01*
X177624500Y-112413389D01*
X177624500Y-112586610D01*
X177651598Y-112757704D01*
X177651599Y-112757707D01*
X177652653Y-112760952D01*
X177652690Y-112762252D01*
X177652736Y-112762444D01*
X177652695Y-112762453D01*
X177654643Y-112830793D01*
X177622400Y-112886941D01*
X177246162Y-113263181D01*
X177184839Y-113296666D01*
X177158481Y-113299500D01*
X173831204Y-113299500D01*
X173764165Y-113279815D01*
X173718410Y-113227011D01*
X173708466Y-113157853D01*
X173737491Y-113094297D01*
X173743523Y-113087819D01*
X173788632Y-113042710D01*
X173839414Y-112991928D01*
X173941232Y-112851788D01*
X174019873Y-112697445D01*
X174073402Y-112532701D01*
X174100500Y-112361611D01*
X174100500Y-111638389D01*
X174073402Y-111467299D01*
X174019873Y-111302555D01*
X173941232Y-111148212D01*
X173839414Y-111008072D01*
X173716928Y-110885586D01*
X173576788Y-110783768D01*
X173422445Y-110705127D01*
X173257701Y-110651598D01*
X173257699Y-110651597D01*
X173257698Y-110651597D01*
X173126271Y-110630781D01*
X173086611Y-110624500D01*
X172913389Y-110624500D01*
X172873728Y-110630781D01*
X172742302Y-110651597D01*
X172577552Y-110705128D01*
X172423211Y-110783768D01*
X172387105Y-110810001D01*
X172283072Y-110885586D01*
X172283070Y-110885588D01*
X172283069Y-110885588D01*
X172160588Y-111008069D01*
X172160581Y-111008078D01*
X172100317Y-111091023D01*
X172044987Y-111133689D01*
X171975374Y-111139667D01*
X171913579Y-111107061D01*
X171899683Y-111091023D01*
X171851899Y-111025257D01*
X171839414Y-111008072D01*
X171716928Y-110885586D01*
X171576788Y-110783768D01*
X171422445Y-110705127D01*
X171257701Y-110651598D01*
X171257699Y-110651597D01*
X171257698Y-110651597D01*
X171126271Y-110630781D01*
X171086611Y-110624500D01*
X170913389Y-110624500D01*
X170873728Y-110630781D01*
X170742302Y-110651597D01*
X170577552Y-110705128D01*
X170423211Y-110783768D01*
X170283073Y-110885585D01*
X170175166Y-110993492D01*
X170113843Y-111026976D01*
X170044151Y-111021992D01*
X169988218Y-110980120D01*
X169981946Y-110970906D01*
X169942317Y-110906656D01*
X169818345Y-110782684D01*
X169669124Y-110690643D01*
X169669119Y-110690641D01*
X169502697Y-110635494D01*
X169502690Y-110635493D01*
X169399986Y-110625000D01*
X169250000Y-110625000D01*
X169250000Y-111719670D01*
X169230255Y-111699925D01*
X169144745Y-111650556D01*
X169049370Y-111625000D01*
X168950630Y-111625000D01*
X168855255Y-111650556D01*
X168769745Y-111699925D01*
X168750000Y-111719670D01*
X168750000Y-110625000D01*
X168600027Y-110625000D01*
X168600012Y-110625001D01*
X168497302Y-110635494D01*
X168330880Y-110690641D01*
X168330875Y-110690643D01*
X168181654Y-110782684D01*
X168057684Y-110906654D01*
X167965643Y-111055875D01*
X167965641Y-111055880D01*
X167910494Y-111222302D01*
X167910493Y-111222309D01*
X167900000Y-111325013D01*
X167900000Y-111750000D01*
X168719670Y-111750000D01*
X168699925Y-111769745D01*
X168650556Y-111855255D01*
X168625000Y-111950630D01*
X168625000Y-112049370D01*
X168650556Y-112144745D01*
X168699925Y-112230255D01*
X168719670Y-112250000D01*
X167900001Y-112250000D01*
X167900001Y-112674986D01*
X167910494Y-112777697D01*
X167965641Y-112944119D01*
X167965643Y-112944124D01*
X168057684Y-113093345D01*
X168181654Y-113217315D01*
X168330875Y-113309356D01*
X168330880Y-113309358D01*
X168497302Y-113364505D01*
X168497309Y-113364506D01*
X168600019Y-113374999D01*
X168749999Y-113374999D01*
X168750000Y-113374998D01*
X168750000Y-112280330D01*
X168769745Y-112300075D01*
X168855255Y-112349444D01*
X168950630Y-112375000D01*
X169049370Y-112375000D01*
X169144745Y-112349444D01*
X169230255Y-112300075D01*
X169250000Y-112280330D01*
X169250000Y-113374999D01*
X169399972Y-113374999D01*
X169399986Y-113374998D01*
X169502697Y-113364505D01*
X169669119Y-113309358D01*
X169669124Y-113309356D01*
X169818345Y-113217315D01*
X169942315Y-113093345D01*
X169981945Y-113029094D01*
X170033893Y-112982368D01*
X170102855Y-112971145D01*
X170166937Y-112998988D01*
X170175166Y-113006508D01*
X170283072Y-113114414D01*
X170423212Y-113216232D01*
X170577555Y-113294873D01*
X170742299Y-113348402D01*
X170913389Y-113375500D01*
X170913390Y-113375500D01*
X171086610Y-113375500D01*
X171086611Y-113375500D01*
X171257701Y-113348402D01*
X171260935Y-113347350D01*
X171262232Y-113347313D01*
X171262436Y-113347265D01*
X171262446Y-113347307D01*
X171330775Y-113345351D01*
X171386941Y-113377598D01*
X172553453Y-114544111D01*
X172553457Y-114544114D01*
X172616487Y-114586229D01*
X172668189Y-114620775D01*
X172668190Y-114620775D01*
X172668191Y-114620776D01*
X172764306Y-114660588D01*
X172795672Y-114673580D01*
X172795676Y-114673580D01*
X172795677Y-114673581D01*
X172931004Y-114700500D01*
X177500501Y-114700500D01*
X177567540Y-114720185D01*
X177613295Y-114772989D01*
X177624501Y-114824500D01*
X177624501Y-114900019D01*
X177635000Y-115002796D01*
X177635001Y-115002799D01*
X177659772Y-115077552D01*
X177690186Y-115169334D01*
X177782288Y-115318656D01*
X177906344Y-115442712D01*
X178055666Y-115534814D01*
X178222203Y-115589999D01*
X178324991Y-115600500D01*
X179675008Y-115600499D01*
X179676663Y-115600330D01*
X179692895Y-115598671D01*
X179777797Y-115589999D01*
X179944334Y-115534814D01*
X180093656Y-115442712D01*
X180217712Y-115318656D01*
X180309814Y-115169334D01*
X180364999Y-115002797D01*
X180375500Y-114900009D01*
X180375499Y-114099992D01*
X180364999Y-113997203D01*
X180309814Y-113830666D01*
X180217712Y-113681344D01*
X180093656Y-113557288D01*
X180093652Y-113557285D01*
X180029456Y-113517688D01*
X179982731Y-113465740D01*
X179971510Y-113396777D01*
X179999353Y-113332695D01*
X180006850Y-113324491D01*
X180114414Y-113216928D01*
X180216232Y-113076788D01*
X180294873Y-112922445D01*
X180348402Y-112757701D01*
X180375500Y-112586611D01*
X180375500Y-112413389D01*
X180348402Y-112242299D01*
X180347348Y-112239055D01*
X180347310Y-112237755D01*
X180347265Y-112237564D01*
X180347305Y-112237554D01*
X180345353Y-112169214D01*
X180377596Y-112113059D01*
X186994114Y-105496543D01*
X187070775Y-105381811D01*
X187077944Y-105364505D01*
X187106786Y-105294873D01*
X187123580Y-105254328D01*
X187137399Y-105184858D01*
X187150500Y-105118996D01*
X187150500Y-104368872D01*
X191499500Y-104368872D01*
X191499500Y-104631127D01*
X191525212Y-104826420D01*
X191533730Y-104891116D01*
X191600962Y-105142031D01*
X191601602Y-105144418D01*
X191601605Y-105144428D01*
X191701953Y-105386690D01*
X191701958Y-105386700D01*
X191833075Y-105613803D01*
X191992718Y-105821851D01*
X191992726Y-105821860D01*
X192178140Y-106007274D01*
X192178148Y-106007281D01*
X192386196Y-106166924D01*
X192613299Y-106298041D01*
X192613309Y-106298046D01*
X192855571Y-106398394D01*
X192855581Y-106398398D01*
X193108884Y-106466270D01*
X193368880Y-106500500D01*
X193368887Y-106500500D01*
X193631113Y-106500500D01*
X193631120Y-106500500D01*
X193891116Y-106466270D01*
X194144419Y-106398398D01*
X194386697Y-106298043D01*
X194613803Y-106166924D01*
X194821851Y-106007282D01*
X194821855Y-106007277D01*
X194821860Y-106007274D01*
X195007274Y-105821860D01*
X195007277Y-105821855D01*
X195007282Y-105821851D01*
X195166924Y-105613803D01*
X195298043Y-105386697D01*
X195302889Y-105374999D01*
X195364124Y-105227163D01*
X195398398Y-105144419D01*
X195466270Y-104891116D01*
X195500500Y-104631120D01*
X195500500Y-104368880D01*
X195466270Y-104108884D01*
X195398398Y-103855581D01*
X195394090Y-103845180D01*
X195298046Y-103613309D01*
X195298041Y-103613299D01*
X195166924Y-103386196D01*
X195007281Y-103178148D01*
X195007274Y-103178140D01*
X194821860Y-102992726D01*
X194821851Y-102992718D01*
X194613803Y-102833075D01*
X194386700Y-102701958D01*
X194386690Y-102701953D01*
X194144428Y-102601605D01*
X194144421Y-102601603D01*
X194144419Y-102601602D01*
X193891116Y-102533730D01*
X193833339Y-102526123D01*
X193631127Y-102499500D01*
X193631120Y-102499500D01*
X193368880Y-102499500D01*
X193368872Y-102499500D01*
X193137772Y-102529926D01*
X193108884Y-102533730D01*
X192919646Y-102584436D01*
X192855581Y-102601602D01*
X192855571Y-102601605D01*
X192613309Y-102701953D01*
X192613299Y-102701958D01*
X192386196Y-102833075D01*
X192178148Y-102992718D01*
X191992718Y-103178148D01*
X191833075Y-103386196D01*
X191701958Y-103613299D01*
X191701953Y-103613309D01*
X191601605Y-103855571D01*
X191601602Y-103855581D01*
X191533730Y-104108884D01*
X191532164Y-104120777D01*
X191499500Y-104368872D01*
X187150500Y-104368872D01*
X187150500Y-103637230D01*
X187170185Y-103570191D01*
X187186819Y-103549549D01*
X187236359Y-103500009D01*
X187292712Y-103443656D01*
X187384814Y-103294334D01*
X187439999Y-103127797D01*
X187450500Y-103025009D01*
X187450499Y-101974992D01*
X187448547Y-101955887D01*
X187439999Y-101872203D01*
X187439998Y-101872200D01*
X187424828Y-101826420D01*
X187384814Y-101705666D01*
X187292712Y-101556344D01*
X187168656Y-101432288D01*
X187019334Y-101340186D01*
X186852797Y-101285001D01*
X186852795Y-101285000D01*
X186750010Y-101274500D01*
X186149998Y-101274500D01*
X186149980Y-101274501D01*
X186047203Y-101285000D01*
X186047200Y-101285001D01*
X185880668Y-101340185D01*
X185880663Y-101340187D01*
X185731342Y-101432289D01*
X185607288Y-101556343D01*
X185607283Y-101556349D01*
X185605241Y-101559661D01*
X185603247Y-101561453D01*
X185602807Y-101562011D01*
X185602711Y-101561935D01*
X185553291Y-101606383D01*
X185484328Y-101617602D01*
X185420247Y-101589755D01*
X185394168Y-101559656D01*
X185392319Y-101556659D01*
X185392316Y-101556655D01*
X185268345Y-101432684D01*
X185119124Y-101340643D01*
X185119119Y-101340641D01*
X184952697Y-101285494D01*
X184952690Y-101285493D01*
X184849986Y-101275000D01*
X184800000Y-101275000D01*
X184800000Y-102376000D01*
X184780315Y-102443039D01*
X184727511Y-102488794D01*
X184676000Y-102500000D01*
X184550000Y-102500000D01*
X184550000Y-102626000D01*
X184530315Y-102693039D01*
X184477511Y-102738794D01*
X184426000Y-102750000D01*
X183550001Y-102750000D01*
X183550001Y-103024986D01*
X183560494Y-103127697D01*
X183615641Y-103294119D01*
X183615643Y-103294124D01*
X183707684Y-103443345D01*
X183831654Y-103567315D01*
X183835945Y-103569962D01*
X183882668Y-103621911D01*
X183893889Y-103690874D01*
X183866045Y-103754956D01*
X183807975Y-103793811D01*
X183770846Y-103799500D01*
X182841519Y-103799500D01*
X182774480Y-103779815D01*
X182753838Y-103763181D01*
X181050203Y-102059545D01*
X180965671Y-101975013D01*
X183550000Y-101975013D01*
X183550000Y-102250000D01*
X184300000Y-102250000D01*
X184300000Y-101275000D01*
X184299999Y-101274999D01*
X184250029Y-101275000D01*
X184250011Y-101275001D01*
X184147302Y-101285494D01*
X183980880Y-101340641D01*
X183980875Y-101340643D01*
X183831654Y-101432684D01*
X183707684Y-101556654D01*
X183615643Y-101705875D01*
X183615641Y-101705880D01*
X183560494Y-101872302D01*
X183560493Y-101872309D01*
X183550000Y-101975013D01*
X180965671Y-101975013D01*
X180946545Y-101955887D01*
X180831807Y-101879222D01*
X180704332Y-101826421D01*
X180704322Y-101826418D01*
X180568996Y-101799500D01*
X180568994Y-101799500D01*
X180568993Y-101799500D01*
X172931007Y-101799500D01*
X172931003Y-101799500D01*
X172822590Y-101821065D01*
X172822589Y-101821065D01*
X172809131Y-101823742D01*
X172795673Y-101826419D01*
X172769268Y-101837356D01*
X172742866Y-101848292D01*
X172742864Y-101848293D01*
X172742863Y-101848292D01*
X172668191Y-101879223D01*
X172567445Y-101946539D01*
X172567446Y-101946540D01*
X172553456Y-101955887D01*
X172553454Y-101955889D01*
X171886941Y-102622400D01*
X171825618Y-102655885D01*
X171762445Y-102652727D01*
X171762444Y-102652736D01*
X171762399Y-102652725D01*
X171760952Y-102652653D01*
X171757707Y-102651599D01*
X171757704Y-102651598D01*
X171629383Y-102631274D01*
X171586611Y-102624500D01*
X171413389Y-102624500D01*
X171373728Y-102630781D01*
X171242302Y-102651597D01*
X171242299Y-102651598D01*
X171087324Y-102701953D01*
X171077552Y-102705128D01*
X170923211Y-102783768D01*
X170783073Y-102885585D01*
X170675166Y-102993492D01*
X170613843Y-103026976D01*
X170544151Y-103021992D01*
X170488218Y-102980120D01*
X170481946Y-102970906D01*
X170442317Y-102906656D01*
X170318345Y-102782684D01*
X170169124Y-102690643D01*
X170169119Y-102690641D01*
X170002697Y-102635494D01*
X170002690Y-102635493D01*
X169899986Y-102625000D01*
X169750000Y-102625000D01*
X169750000Y-103719670D01*
X169730255Y-103699925D01*
X169644745Y-103650556D01*
X169549370Y-103625000D01*
X169450630Y-103625000D01*
X169355255Y-103650556D01*
X169269745Y-103699925D01*
X169250000Y-103719670D01*
X169250000Y-102625000D01*
X169100027Y-102625000D01*
X169100012Y-102625001D01*
X168997302Y-102635494D01*
X168830880Y-102690641D01*
X168830875Y-102690643D01*
X168681654Y-102782684D01*
X168557684Y-102906654D01*
X168465643Y-103055875D01*
X168465641Y-103055880D01*
X168410494Y-103222302D01*
X168410493Y-103222309D01*
X168400000Y-103325013D01*
X168400000Y-103750000D01*
X169219670Y-103750000D01*
X169199925Y-103769745D01*
X169150556Y-103855255D01*
X169125000Y-103950630D01*
X169125000Y-104049370D01*
X169150556Y-104144745D01*
X169199925Y-104230255D01*
X169219670Y-104250000D01*
X168400001Y-104250000D01*
X168400001Y-104675500D01*
X168380316Y-104742539D01*
X168327512Y-104788294D01*
X168276001Y-104799500D01*
X163212348Y-104799500D01*
X163145309Y-104779815D01*
X163099554Y-104727011D01*
X163089610Y-104657853D01*
X163112030Y-104602614D01*
X163154533Y-104544114D01*
X163197417Y-104485090D01*
X163279917Y-104323174D01*
X163319776Y-104200500D01*
X163336071Y-104150350D01*
X163336071Y-104150349D01*
X163336072Y-104150346D01*
X163364500Y-103970861D01*
X163364500Y-103789139D01*
X163336072Y-103609654D01*
X163336071Y-103609650D01*
X163336071Y-103609649D01*
X163279918Y-103436828D01*
X163279916Y-103436825D01*
X163274705Y-103426598D01*
X163247278Y-103372769D01*
X163211910Y-103303355D01*
X163197417Y-103274910D01*
X163090603Y-103127894D01*
X162962106Y-102999397D01*
X162815090Y-102892583D01*
X162653174Y-102810083D01*
X162653171Y-102810081D01*
X162480348Y-102753928D01*
X162333477Y-102730666D01*
X162300861Y-102725500D01*
X162119139Y-102725500D01*
X162086523Y-102730666D01*
X161939652Y-102753928D01*
X161939649Y-102753928D01*
X161766828Y-102810081D01*
X161766825Y-102810083D01*
X161604909Y-102892583D01*
X161585540Y-102906656D01*
X161457894Y-102999397D01*
X161457892Y-102999399D01*
X161457891Y-102999399D01*
X161329399Y-103127891D01*
X161329399Y-103127892D01*
X161329397Y-103127894D01*
X161283525Y-103191030D01*
X161222583Y-103274909D01*
X161140083Y-103436825D01*
X161140081Y-103436828D01*
X161083928Y-103609649D01*
X161083928Y-103609652D01*
X161062473Y-103745114D01*
X161032544Y-103808249D01*
X160973232Y-103845180D01*
X160903370Y-103844182D01*
X160845137Y-103805572D01*
X160817527Y-103745114D01*
X160814521Y-103726135D01*
X160796072Y-103609654D01*
X160796071Y-103609650D01*
X160796071Y-103609649D01*
X160739918Y-103436828D01*
X160739916Y-103436825D01*
X160734706Y-103426598D01*
X160657417Y-103274910D01*
X160550603Y-103127894D01*
X160422106Y-102999397D01*
X160275090Y-102892583D01*
X160113174Y-102810083D01*
X160113171Y-102810081D01*
X159940348Y-102753928D01*
X159793477Y-102730666D01*
X159760861Y-102725500D01*
X159579139Y-102725500D01*
X159546523Y-102730666D01*
X159399652Y-102753928D01*
X159399649Y-102753928D01*
X159226828Y-102810081D01*
X159226825Y-102810083D01*
X159064909Y-102892583D01*
X159045540Y-102906656D01*
X158917894Y-102999397D01*
X158917892Y-102999399D01*
X158917891Y-102999399D01*
X158789399Y-103127891D01*
X158789399Y-103127892D01*
X158789397Y-103127894D01*
X158743525Y-103191030D01*
X158682583Y-103274909D01*
X158600083Y-103436825D01*
X158600081Y-103436828D01*
X158543928Y-103609649D01*
X158543928Y-103609652D01*
X158522473Y-103745114D01*
X158492544Y-103808249D01*
X158433232Y-103845180D01*
X158363370Y-103844182D01*
X158305137Y-103805572D01*
X158277527Y-103745114D01*
X158274521Y-103726135D01*
X158256072Y-103609654D01*
X158256071Y-103609650D01*
X158256071Y-103609649D01*
X158199918Y-103436828D01*
X158199916Y-103436825D01*
X158194706Y-103426598D01*
X158117417Y-103274910D01*
X158010603Y-103127894D01*
X157882106Y-102999397D01*
X157735090Y-102892583D01*
X157573174Y-102810083D01*
X157573171Y-102810081D01*
X157400348Y-102753928D01*
X157253477Y-102730666D01*
X157220861Y-102725500D01*
X157039139Y-102725500D01*
X157006523Y-102730666D01*
X156859652Y-102753928D01*
X156859649Y-102753928D01*
X156686828Y-102810081D01*
X156686825Y-102810083D01*
X156524909Y-102892583D01*
X156505540Y-102906656D01*
X156377894Y-102999397D01*
X156377892Y-102999399D01*
X156377891Y-102999399D01*
X156249399Y-103127891D01*
X156249399Y-103127892D01*
X156249397Y-103127894D01*
X156203525Y-103191030D01*
X156142583Y-103274909D01*
X156060083Y-103436825D01*
X156060081Y-103436828D01*
X156003928Y-103609649D01*
X156003928Y-103609652D01*
X155982473Y-103745114D01*
X155952544Y-103808249D01*
X155893232Y-103845180D01*
X155823370Y-103844182D01*
X155765137Y-103805572D01*
X155737527Y-103745114D01*
X155734521Y-103726135D01*
X155716072Y-103609654D01*
X155716071Y-103609650D01*
X155716071Y-103609649D01*
X155659918Y-103436828D01*
X155659916Y-103436825D01*
X155654706Y-103426598D01*
X155577417Y-103274910D01*
X155470603Y-103127894D01*
X155342106Y-102999397D01*
X155195090Y-102892583D01*
X155033174Y-102810083D01*
X155033171Y-102810081D01*
X154860348Y-102753928D01*
X154713477Y-102730666D01*
X154680861Y-102725500D01*
X154499139Y-102725500D01*
X154466523Y-102730666D01*
X154319652Y-102753928D01*
X154319649Y-102753928D01*
X154146828Y-102810081D01*
X154146825Y-102810083D01*
X153984909Y-102892583D01*
X153965540Y-102906656D01*
X153837894Y-102999397D01*
X153837892Y-102999399D01*
X153837891Y-102999399D01*
X153709399Y-103127891D01*
X153709399Y-103127892D01*
X153709397Y-103127894D01*
X153663525Y-103191030D01*
X153602583Y-103274909D01*
X153520083Y-103436825D01*
X153520081Y-103436828D01*
X153463928Y-103609649D01*
X153463928Y-103609652D01*
X153442473Y-103745114D01*
X153412544Y-103808249D01*
X153353232Y-103845180D01*
X153283370Y-103844182D01*
X153225137Y-103805572D01*
X153197527Y-103745114D01*
X153194521Y-103726135D01*
X153176072Y-103609654D01*
X153176071Y-103609650D01*
X153176071Y-103609649D01*
X153119918Y-103436828D01*
X153119916Y-103436825D01*
X153114706Y-103426598D01*
X153037417Y-103274910D01*
X152930603Y-103127894D01*
X152802106Y-102999397D01*
X152655090Y-102892583D01*
X152493174Y-102810083D01*
X152493171Y-102810081D01*
X152320348Y-102753928D01*
X152173477Y-102730666D01*
X152140861Y-102725500D01*
X151959139Y-102725500D01*
X151926523Y-102730666D01*
X151779652Y-102753928D01*
X151779649Y-102753928D01*
X151606828Y-102810081D01*
X151606825Y-102810083D01*
X151444909Y-102892583D01*
X151425540Y-102906656D01*
X151297894Y-102999397D01*
X151297892Y-102999399D01*
X151297891Y-102999399D01*
X151169399Y-103127891D01*
X151169399Y-103127892D01*
X151169397Y-103127894D01*
X151123525Y-103191030D01*
X151062583Y-103274909D01*
X150980083Y-103436825D01*
X150980081Y-103436828D01*
X150923928Y-103609649D01*
X150923928Y-103609652D01*
X150902473Y-103745114D01*
X150872544Y-103808249D01*
X150813232Y-103845180D01*
X150743370Y-103844182D01*
X150685137Y-103805572D01*
X150657527Y-103745114D01*
X150654521Y-103726135D01*
X150636072Y-103609654D01*
X150636071Y-103609650D01*
X150636071Y-103609649D01*
X150579918Y-103436828D01*
X150579916Y-103436825D01*
X150574706Y-103426598D01*
X150497417Y-103274910D01*
X150390603Y-103127894D01*
X150262106Y-102999397D01*
X150115090Y-102892583D01*
X149953174Y-102810083D01*
X149953171Y-102810081D01*
X149780348Y-102753928D01*
X149633477Y-102730666D01*
X149600861Y-102725500D01*
X149419139Y-102725500D01*
X149386523Y-102730666D01*
X149239652Y-102753928D01*
X149239649Y-102753928D01*
X149066828Y-102810081D01*
X149066825Y-102810083D01*
X148904909Y-102892583D01*
X148885540Y-102906656D01*
X148757894Y-102999397D01*
X148757892Y-102999399D01*
X148757891Y-102999399D01*
X148629399Y-103127891D01*
X148629399Y-103127892D01*
X148629397Y-103127894D01*
X148583525Y-103191030D01*
X148522583Y-103274909D01*
X148440083Y-103436825D01*
X148440081Y-103436828D01*
X148383928Y-103609649D01*
X148383928Y-103609652D01*
X148362473Y-103745114D01*
X148332544Y-103808249D01*
X148273232Y-103845180D01*
X148203370Y-103844182D01*
X148145137Y-103805572D01*
X148117527Y-103745114D01*
X148114521Y-103726135D01*
X148096072Y-103609654D01*
X148096071Y-103609650D01*
X148096071Y-103609649D01*
X148039918Y-103436828D01*
X148039916Y-103436825D01*
X148034706Y-103426598D01*
X147957417Y-103274910D01*
X147850603Y-103127894D01*
X147722106Y-102999397D01*
X147575090Y-102892583D01*
X147413174Y-102810083D01*
X147413171Y-102810081D01*
X147240348Y-102753928D01*
X147093477Y-102730666D01*
X147060861Y-102725500D01*
X146879139Y-102725500D01*
X146846523Y-102730666D01*
X146699652Y-102753928D01*
X146699649Y-102753928D01*
X146526828Y-102810081D01*
X146526825Y-102810083D01*
X146364909Y-102892583D01*
X146345540Y-102906656D01*
X146217894Y-102999397D01*
X146217892Y-102999399D01*
X146217891Y-102999399D01*
X146089399Y-103127891D01*
X146089399Y-103127892D01*
X146089397Y-103127894D01*
X146043525Y-103191030D01*
X145982583Y-103274909D01*
X145900083Y-103436825D01*
X145900081Y-103436828D01*
X145843928Y-103609649D01*
X145843928Y-103609652D01*
X145822473Y-103745114D01*
X145792544Y-103808249D01*
X145733232Y-103845180D01*
X145663370Y-103844182D01*
X145605137Y-103805572D01*
X145577527Y-103745114D01*
X145574521Y-103726135D01*
X145556072Y-103609654D01*
X145556071Y-103609650D01*
X145556071Y-103609649D01*
X145499918Y-103436828D01*
X145499916Y-103436825D01*
X145494706Y-103426598D01*
X145417417Y-103274910D01*
X145310603Y-103127894D01*
X145182106Y-102999397D01*
X145035090Y-102892583D01*
X144873174Y-102810083D01*
X144873171Y-102810081D01*
X144700348Y-102753928D01*
X144553477Y-102730666D01*
X144520861Y-102725500D01*
X144339139Y-102725500D01*
X144306523Y-102730666D01*
X144159652Y-102753928D01*
X144159649Y-102753928D01*
X143986828Y-102810081D01*
X143986825Y-102810083D01*
X143824909Y-102892583D01*
X143805540Y-102906656D01*
X143677894Y-102999397D01*
X143677892Y-102999399D01*
X143677891Y-102999399D01*
X143549399Y-103127891D01*
X143549399Y-103127892D01*
X143549397Y-103127894D01*
X143503525Y-103191030D01*
X143442583Y-103274909D01*
X143360083Y-103436825D01*
X143360081Y-103436828D01*
X143303928Y-103609649D01*
X143303928Y-103609652D01*
X143282473Y-103745114D01*
X143252544Y-103808249D01*
X143193232Y-103845180D01*
X143123370Y-103844182D01*
X143065137Y-103805572D01*
X143037527Y-103745114D01*
X143034521Y-103726135D01*
X143016072Y-103609654D01*
X143016071Y-103609650D01*
X143016071Y-103609649D01*
X142959918Y-103436828D01*
X142959916Y-103436825D01*
X142954706Y-103426598D01*
X142877417Y-103274910D01*
X142770603Y-103127894D01*
X142642106Y-102999397D01*
X142495090Y-102892583D01*
X142333174Y-102810083D01*
X142333171Y-102810081D01*
X142160348Y-102753928D01*
X142013477Y-102730666D01*
X141980861Y-102725500D01*
X141799139Y-102725500D01*
X141766523Y-102730666D01*
X141619652Y-102753928D01*
X141619649Y-102753928D01*
X141446828Y-102810081D01*
X141446825Y-102810083D01*
X141284909Y-102892583D01*
X141265540Y-102906656D01*
X141137894Y-102999397D01*
X141137892Y-102999399D01*
X141137891Y-102999399D01*
X141009399Y-103127891D01*
X141009399Y-103127892D01*
X141009397Y-103127894D01*
X140963525Y-103191030D01*
X140902583Y-103274909D01*
X140820083Y-103436825D01*
X140820081Y-103436828D01*
X140763928Y-103609649D01*
X140763928Y-103609652D01*
X140742473Y-103745114D01*
X140712544Y-103808249D01*
X140653232Y-103845180D01*
X140583370Y-103844182D01*
X140525137Y-103805572D01*
X140497527Y-103745114D01*
X140494521Y-103726135D01*
X140476072Y-103609654D01*
X140476071Y-103609650D01*
X140476071Y-103609649D01*
X140419918Y-103436828D01*
X140419916Y-103436825D01*
X140414706Y-103426598D01*
X140337417Y-103274910D01*
X140230603Y-103127894D01*
X140102106Y-102999397D01*
X139955090Y-102892583D01*
X139793174Y-102810083D01*
X139793171Y-102810081D01*
X139620348Y-102753928D01*
X139473477Y-102730666D01*
X139440861Y-102725500D01*
X139259139Y-102725500D01*
X139226523Y-102730666D01*
X139079652Y-102753928D01*
X139079649Y-102753928D01*
X138906828Y-102810081D01*
X138906825Y-102810083D01*
X138744909Y-102892583D01*
X138725540Y-102906656D01*
X138597894Y-102999397D01*
X138597892Y-102999399D01*
X138597891Y-102999399D01*
X138469399Y-103127891D01*
X138469399Y-103127892D01*
X138469397Y-103127894D01*
X138423525Y-103191030D01*
X138362583Y-103274909D01*
X138280083Y-103436825D01*
X138280081Y-103436828D01*
X138223928Y-103609649D01*
X138223928Y-103609652D01*
X138202473Y-103745114D01*
X138172544Y-103808249D01*
X138113232Y-103845180D01*
X138043370Y-103844182D01*
X137985137Y-103805572D01*
X137957527Y-103745114D01*
X137954521Y-103726135D01*
X137936072Y-103609654D01*
X137936071Y-103609650D01*
X137936071Y-103609649D01*
X137879918Y-103436828D01*
X137879916Y-103436825D01*
X137874706Y-103426598D01*
X137797417Y-103274910D01*
X137690603Y-103127894D01*
X137562106Y-102999397D01*
X137415090Y-102892583D01*
X137253174Y-102810083D01*
X137253171Y-102810081D01*
X137080348Y-102753928D01*
X136933477Y-102730666D01*
X136900861Y-102725500D01*
X136719139Y-102725500D01*
X136686523Y-102730666D01*
X136539652Y-102753928D01*
X136539649Y-102753928D01*
X136366828Y-102810081D01*
X136366825Y-102810083D01*
X136204909Y-102892583D01*
X136185540Y-102906656D01*
X136057894Y-102999397D01*
X136057892Y-102999399D01*
X136057891Y-102999399D01*
X135929399Y-103127891D01*
X135929399Y-103127892D01*
X135929397Y-103127894D01*
X135883525Y-103191030D01*
X135822583Y-103274909D01*
X135740083Y-103436825D01*
X135740081Y-103436828D01*
X135683928Y-103609649D01*
X135683928Y-103609652D01*
X135662473Y-103745114D01*
X135632544Y-103808249D01*
X135573232Y-103845180D01*
X135503370Y-103844182D01*
X135445137Y-103805572D01*
X135417527Y-103745114D01*
X135414521Y-103726135D01*
X135396072Y-103609654D01*
X135396071Y-103609650D01*
X135396071Y-103609649D01*
X135339918Y-103436828D01*
X135339916Y-103436825D01*
X135334706Y-103426598D01*
X135257417Y-103274910D01*
X135150603Y-103127894D01*
X135022106Y-102999397D01*
X134875090Y-102892583D01*
X134713174Y-102810083D01*
X134713171Y-102810081D01*
X134540348Y-102753928D01*
X134393477Y-102730666D01*
X134360861Y-102725500D01*
X134179139Y-102725500D01*
X134146523Y-102730666D01*
X133999652Y-102753928D01*
X133999649Y-102753928D01*
X133826828Y-102810081D01*
X133826825Y-102810083D01*
X133664909Y-102892583D01*
X133645540Y-102906656D01*
X133517894Y-102999397D01*
X133517892Y-102999399D01*
X133517891Y-102999399D01*
X133389399Y-103127891D01*
X133389399Y-103127892D01*
X133389397Y-103127894D01*
X133343525Y-103191030D01*
X133282583Y-103274909D01*
X133200083Y-103436825D01*
X133200081Y-103436828D01*
X133143928Y-103609649D01*
X133143928Y-103609652D01*
X133122473Y-103745114D01*
X133092544Y-103808249D01*
X133033232Y-103845180D01*
X132963370Y-103844182D01*
X132905137Y-103805572D01*
X132877527Y-103745114D01*
X132874521Y-103726135D01*
X132856072Y-103609654D01*
X132856071Y-103609650D01*
X132856071Y-103609649D01*
X132799918Y-103436828D01*
X132799916Y-103436825D01*
X132794706Y-103426598D01*
X132717417Y-103274910D01*
X132610603Y-103127894D01*
X132482106Y-102999397D01*
X132335090Y-102892583D01*
X132173174Y-102810083D01*
X132173171Y-102810081D01*
X132000348Y-102753928D01*
X131853477Y-102730666D01*
X131820861Y-102725500D01*
X131639139Y-102725500D01*
X131606523Y-102730666D01*
X131459652Y-102753928D01*
X131459649Y-102753928D01*
X131286828Y-102810081D01*
X131286825Y-102810083D01*
X131124909Y-102892583D01*
X131105540Y-102906656D01*
X130977894Y-102999397D01*
X130977892Y-102999399D01*
X130977891Y-102999399D01*
X130849399Y-103127891D01*
X130849399Y-103127892D01*
X130849397Y-103127894D01*
X130803525Y-103191030D01*
X130742583Y-103274909D01*
X130660083Y-103436825D01*
X130660081Y-103436828D01*
X130603928Y-103609649D01*
X130603928Y-103609652D01*
X130582473Y-103745114D01*
X130552544Y-103808249D01*
X130493232Y-103845180D01*
X130423370Y-103844182D01*
X130365137Y-103805572D01*
X130337527Y-103745114D01*
X130334521Y-103726135D01*
X130316072Y-103609654D01*
X130316071Y-103609650D01*
X130316071Y-103609649D01*
X130259918Y-103436828D01*
X130259916Y-103436825D01*
X130254706Y-103426598D01*
X130177417Y-103274910D01*
X130070603Y-103127894D01*
X129942106Y-102999397D01*
X129795090Y-102892583D01*
X129633174Y-102810083D01*
X129633171Y-102810081D01*
X129460348Y-102753928D01*
X129313477Y-102730666D01*
X129280861Y-102725500D01*
X129099139Y-102725500D01*
X129066523Y-102730666D01*
X128919652Y-102753928D01*
X128919649Y-102753928D01*
X128746828Y-102810081D01*
X128746825Y-102810083D01*
X128584909Y-102892583D01*
X128565540Y-102906656D01*
X128437894Y-102999397D01*
X128437892Y-102999399D01*
X128437891Y-102999399D01*
X128309399Y-103127891D01*
X128309399Y-103127892D01*
X128309397Y-103127894D01*
X128263525Y-103191030D01*
X128202583Y-103274909D01*
X128120083Y-103436825D01*
X128120081Y-103436828D01*
X128063928Y-103609649D01*
X128063928Y-103609652D01*
X128042473Y-103745114D01*
X128012544Y-103808249D01*
X127953232Y-103845180D01*
X127883370Y-103844182D01*
X127825137Y-103805572D01*
X127797527Y-103745114D01*
X127794521Y-103726135D01*
X127776072Y-103609654D01*
X127776071Y-103609650D01*
X127776071Y-103609649D01*
X127719918Y-103436828D01*
X127719916Y-103436825D01*
X127714706Y-103426598D01*
X127637417Y-103274910D01*
X127530603Y-103127894D01*
X127402106Y-102999397D01*
X127255090Y-102892583D01*
X127093174Y-102810083D01*
X127093171Y-102810081D01*
X126920348Y-102753928D01*
X126773477Y-102730666D01*
X126740861Y-102725500D01*
X126559139Y-102725500D01*
X126526523Y-102730666D01*
X126379652Y-102753928D01*
X126379649Y-102753928D01*
X126206828Y-102810081D01*
X126206825Y-102810083D01*
X126044909Y-102892583D01*
X126025540Y-102906656D01*
X125897894Y-102999397D01*
X125897892Y-102999399D01*
X125897891Y-102999399D01*
X125769399Y-103127891D01*
X125769399Y-103127892D01*
X125769397Y-103127894D01*
X125723525Y-103191030D01*
X125662583Y-103274909D01*
X125580083Y-103436825D01*
X125580081Y-103436828D01*
X125523928Y-103609649D01*
X125523928Y-103609652D01*
X125502473Y-103745114D01*
X125472544Y-103808249D01*
X125413232Y-103845180D01*
X125343370Y-103844182D01*
X125285137Y-103805572D01*
X125257527Y-103745114D01*
X125254521Y-103726135D01*
X125236072Y-103609654D01*
X125236071Y-103609650D01*
X125236071Y-103609649D01*
X125179918Y-103436828D01*
X125179916Y-103436825D01*
X125174706Y-103426598D01*
X125097417Y-103274910D01*
X124990603Y-103127894D01*
X124862106Y-102999397D01*
X124715090Y-102892583D01*
X124553174Y-102810083D01*
X124553171Y-102810081D01*
X124380348Y-102753928D01*
X124233477Y-102730666D01*
X124200861Y-102725500D01*
X124019139Y-102725500D01*
X123986523Y-102730666D01*
X123839652Y-102753928D01*
X123839649Y-102753928D01*
X123666828Y-102810081D01*
X123666825Y-102810083D01*
X123504909Y-102892583D01*
X123485540Y-102906656D01*
X123357894Y-102999397D01*
X123357892Y-102999399D01*
X123357891Y-102999399D01*
X123229399Y-103127891D01*
X123229399Y-103127892D01*
X123229397Y-103127894D01*
X123183525Y-103191030D01*
X123122583Y-103274909D01*
X123040083Y-103436825D01*
X123040081Y-103436828D01*
X122983928Y-103609649D01*
X122983928Y-103609652D01*
X122962473Y-103745114D01*
X122932544Y-103808249D01*
X122873232Y-103845180D01*
X122803370Y-103844182D01*
X122745137Y-103805572D01*
X122717527Y-103745114D01*
X122714521Y-103726135D01*
X122696072Y-103609654D01*
X122696071Y-103609650D01*
X122696071Y-103609649D01*
X122639918Y-103436828D01*
X122639916Y-103436825D01*
X122634706Y-103426598D01*
X122557417Y-103274910D01*
X122450603Y-103127894D01*
X122322106Y-102999397D01*
X122175090Y-102892583D01*
X122013174Y-102810083D01*
X122013171Y-102810081D01*
X121840348Y-102753928D01*
X121693477Y-102730666D01*
X121660861Y-102725500D01*
X121479139Y-102725500D01*
X121446523Y-102730666D01*
X121299652Y-102753928D01*
X121299649Y-102753928D01*
X121126828Y-102810081D01*
X121126825Y-102810083D01*
X120964909Y-102892583D01*
X120945540Y-102906656D01*
X120817894Y-102999397D01*
X120817892Y-102999399D01*
X120817891Y-102999399D01*
X120689399Y-103127891D01*
X120689399Y-103127892D01*
X120689397Y-103127894D01*
X120643525Y-103191030D01*
X120582583Y-103274909D01*
X120500083Y-103436825D01*
X120500081Y-103436828D01*
X120443928Y-103609649D01*
X120443928Y-103609652D01*
X120422473Y-103745114D01*
X120392544Y-103808249D01*
X120333232Y-103845180D01*
X120263370Y-103844182D01*
X120205137Y-103805572D01*
X120177527Y-103745114D01*
X120174521Y-103726135D01*
X120156072Y-103609654D01*
X120156071Y-103609650D01*
X120156071Y-103609649D01*
X120099918Y-103436828D01*
X120099916Y-103436825D01*
X120094706Y-103426598D01*
X120017417Y-103274910D01*
X119910603Y-103127894D01*
X119782106Y-102999397D01*
X119635090Y-102892583D01*
X119473174Y-102810083D01*
X119473171Y-102810081D01*
X119300348Y-102753928D01*
X119153477Y-102730666D01*
X119120861Y-102725500D01*
X118939139Y-102725500D01*
X118906523Y-102730666D01*
X118759652Y-102753928D01*
X118759649Y-102753928D01*
X118586828Y-102810081D01*
X118586825Y-102810083D01*
X118424909Y-102892583D01*
X118405540Y-102906656D01*
X118277894Y-102999397D01*
X118277892Y-102999399D01*
X118277891Y-102999399D01*
X118149399Y-103127891D01*
X118149399Y-103127892D01*
X118149397Y-103127894D01*
X118103525Y-103191030D01*
X118042583Y-103274909D01*
X117960083Y-103436825D01*
X117960081Y-103436828D01*
X117903928Y-103609649D01*
X117903928Y-103609652D01*
X117882473Y-103745114D01*
X117852544Y-103808249D01*
X117793232Y-103845180D01*
X117723370Y-103844182D01*
X117665137Y-103805572D01*
X117637527Y-103745114D01*
X117634521Y-103726135D01*
X117616072Y-103609654D01*
X117616071Y-103609650D01*
X117616071Y-103609649D01*
X117559918Y-103436828D01*
X117559916Y-103436825D01*
X117554706Y-103426598D01*
X117477417Y-103274910D01*
X117370603Y-103127894D01*
X117242106Y-102999397D01*
X117095090Y-102892583D01*
X116933174Y-102810083D01*
X116933171Y-102810081D01*
X116760348Y-102753928D01*
X116613477Y-102730666D01*
X116580861Y-102725500D01*
X116399139Y-102725500D01*
X116366523Y-102730666D01*
X116219652Y-102753928D01*
X116219649Y-102753928D01*
X116046828Y-102810081D01*
X116046825Y-102810083D01*
X115884909Y-102892583D01*
X115865540Y-102906656D01*
X115737894Y-102999397D01*
X115737892Y-102999399D01*
X115737891Y-102999399D01*
X115609399Y-103127891D01*
X115609399Y-103127892D01*
X115609397Y-103127894D01*
X115563525Y-103191030D01*
X115502583Y-103274909D01*
X115420083Y-103436825D01*
X115420081Y-103436828D01*
X115363928Y-103609649D01*
X115363928Y-103609652D01*
X115342473Y-103745114D01*
X115312544Y-103808249D01*
X115253232Y-103845180D01*
X115183370Y-103844182D01*
X115125137Y-103805572D01*
X115097527Y-103745114D01*
X115094521Y-103726135D01*
X115076072Y-103609654D01*
X115076071Y-103609650D01*
X115076071Y-103609649D01*
X115019918Y-103436828D01*
X115019916Y-103436825D01*
X115014706Y-103426598D01*
X114937417Y-103274910D01*
X114830603Y-103127894D01*
X114702106Y-102999397D01*
X114555090Y-102892583D01*
X114393174Y-102810083D01*
X114393171Y-102810081D01*
X114220348Y-102753928D01*
X114073477Y-102730666D01*
X114040861Y-102725500D01*
X113859139Y-102725500D01*
X113826523Y-102730666D01*
X113679652Y-102753928D01*
X113679649Y-102753928D01*
X113506828Y-102810081D01*
X113506825Y-102810083D01*
X113344909Y-102892583D01*
X113325540Y-102906656D01*
X113197894Y-102999397D01*
X113197892Y-102999399D01*
X113197891Y-102999399D01*
X113069399Y-103127891D01*
X113069399Y-103127892D01*
X113069397Y-103127894D01*
X113023525Y-103191030D01*
X112962583Y-103274909D01*
X112880083Y-103436825D01*
X112880081Y-103436828D01*
X112823928Y-103609649D01*
X112823928Y-103609652D01*
X112802473Y-103745114D01*
X112772544Y-103808249D01*
X112713232Y-103845180D01*
X112643370Y-103844182D01*
X112585137Y-103805572D01*
X112557527Y-103745114D01*
X112554521Y-103726135D01*
X112536072Y-103609654D01*
X112536071Y-103609650D01*
X112536071Y-103609649D01*
X112479918Y-103436828D01*
X112479916Y-103436825D01*
X112474706Y-103426598D01*
X112397417Y-103274910D01*
X112290603Y-103127894D01*
X112162106Y-102999397D01*
X112015090Y-102892583D01*
X111853174Y-102810083D01*
X111853171Y-102810081D01*
X111680348Y-102753928D01*
X111533477Y-102730666D01*
X111500861Y-102725500D01*
X111319139Y-102725500D01*
X111196452Y-102744931D01*
X111127159Y-102735976D01*
X111089374Y-102710139D01*
X109737297Y-101358062D01*
X109709774Y-101316250D01*
X109705575Y-101305705D01*
X109703580Y-101295672D01*
X109652013Y-101171179D01*
X109651691Y-101170369D01*
X109648512Y-101136405D01*
X109644865Y-101102483D01*
X109645262Y-101101688D01*
X109645180Y-101100803D01*
X109660861Y-101070525D01*
X109676140Y-101040004D01*
X109676905Y-101039549D01*
X109677314Y-101038761D01*
X109706916Y-101021743D01*
X109736230Y-101004352D01*
X109737434Y-101004200D01*
X109737888Y-101003940D01*
X109739051Y-101003997D01*
X109766895Y-101000500D01*
X197375500Y-101000500D01*
X197442539Y-101020185D01*
X197488294Y-101072989D01*
X197499500Y-101124500D01*
X197499500Y-134875500D01*
X197479815Y-134942539D01*
X197427011Y-134988294D01*
X197375500Y-134999500D01*
X182520519Y-134999500D01*
X182453480Y-134979815D01*
X182407725Y-134927011D01*
X182397781Y-134857853D01*
X182426806Y-134794297D01*
X182432838Y-134787819D01*
X183424112Y-133796545D01*
X183424114Y-133796543D01*
X183500775Y-133681811D01*
X183553580Y-133554329D01*
X183564027Y-133501806D01*
X183573162Y-133455886D01*
X183573162Y-133455880D01*
X183580500Y-133418996D01*
X183580500Y-132529566D01*
X183600185Y-132462527D01*
X183601398Y-132460675D01*
X183602913Y-132458408D01*
X183660775Y-132371811D01*
X183713580Y-132244329D01*
X183728334Y-132170157D01*
X183740500Y-132108996D01*
X183740500Y-131971003D01*
X183713581Y-131835677D01*
X183713580Y-131835676D01*
X183713580Y-131835672D01*
X183709993Y-131827011D01*
X183660777Y-131708192D01*
X183657870Y-131703841D01*
X183584114Y-131593457D01*
X183426543Y-131435886D01*
X182859529Y-130868872D01*
X191999500Y-130868872D01*
X191999500Y-131131127D01*
X192018811Y-131277796D01*
X192033730Y-131391116D01*
X192100789Y-131641385D01*
X192101602Y-131644418D01*
X192101605Y-131644428D01*
X192201953Y-131886690D01*
X192201958Y-131886700D01*
X192333075Y-132113803D01*
X192492718Y-132321851D01*
X192492726Y-132321860D01*
X192678140Y-132507274D01*
X192678148Y-132507281D01*
X192886196Y-132666924D01*
X193113299Y-132798041D01*
X193113309Y-132798046D01*
X193355571Y-132898394D01*
X193355581Y-132898398D01*
X193608884Y-132966270D01*
X193868880Y-133000500D01*
X193868887Y-133000500D01*
X194131113Y-133000500D01*
X194131120Y-133000500D01*
X194391116Y-132966270D01*
X194644419Y-132898398D01*
X194821340Y-132825114D01*
X194886690Y-132798046D01*
X194886691Y-132798045D01*
X194886697Y-132798043D01*
X195113803Y-132666924D01*
X195321851Y-132507282D01*
X195321855Y-132507277D01*
X195321860Y-132507274D01*
X195507274Y-132321860D01*
X195507277Y-132321855D01*
X195507282Y-132321851D01*
X195666924Y-132113803D01*
X195798043Y-131886697D01*
X195802889Y-131874999D01*
X195857948Y-131742074D01*
X195898398Y-131644419D01*
X195966270Y-131391116D01*
X196000500Y-131131120D01*
X196000500Y-130868880D01*
X195966270Y-130608884D01*
X195898398Y-130355581D01*
X195848532Y-130235194D01*
X195798046Y-130113309D01*
X195798041Y-130113299D01*
X195666924Y-129886196D01*
X195523984Y-129699915D01*
X195507282Y-129678149D01*
X195507281Y-129678148D01*
X195507274Y-129678140D01*
X195321860Y-129492726D01*
X195321851Y-129492718D01*
X195113803Y-129333075D01*
X194886700Y-129201958D01*
X194886690Y-129201953D01*
X194644428Y-129101605D01*
X194644421Y-129101603D01*
X194644419Y-129101602D01*
X194391116Y-129033730D01*
X194333339Y-129026123D01*
X194131127Y-128999500D01*
X194131120Y-128999500D01*
X193868880Y-128999500D01*
X193868872Y-128999500D01*
X193637772Y-129029926D01*
X193608884Y-129033730D01*
X193440508Y-129078846D01*
X193355581Y-129101602D01*
X193355571Y-129101605D01*
X193113309Y-129201953D01*
X193113299Y-129201958D01*
X192886196Y-129333075D01*
X192678148Y-129492718D01*
X192492718Y-129678148D01*
X192333075Y-129886196D01*
X192201958Y-130113299D01*
X192201953Y-130113309D01*
X192101605Y-130355571D01*
X192101602Y-130355581D01*
X192038830Y-130589853D01*
X192033730Y-130608885D01*
X191999500Y-130868872D01*
X182859529Y-130868872D01*
X171952427Y-119961770D01*
X171918942Y-119900447D01*
X171923926Y-119830755D01*
X171965798Y-119774822D01*
X171983814Y-119763604D01*
X172076786Y-119716233D01*
X172076785Y-119716233D01*
X172076788Y-119716232D01*
X172216928Y-119614414D01*
X172339414Y-119491928D01*
X172441232Y-119351788D01*
X172519873Y-119197445D01*
X172573402Y-119032701D01*
X172600500Y-118861611D01*
X172600500Y-118138389D01*
X172573402Y-117967299D01*
X172519873Y-117802555D01*
X172441232Y-117648212D01*
X172339414Y-117508072D01*
X172216928Y-117385586D01*
X172076788Y-117283768D01*
X171922445Y-117205127D01*
X171757701Y-117151598D01*
X171757699Y-117151597D01*
X171757698Y-117151597D01*
X171626271Y-117130781D01*
X171586611Y-117124500D01*
X171413389Y-117124500D01*
X171373728Y-117130781D01*
X171242302Y-117151597D01*
X171077552Y-117205128D01*
X170923211Y-117283768D01*
X170869917Y-117322489D01*
X170783072Y-117385586D01*
X170783070Y-117385588D01*
X170783069Y-117385588D01*
X170660588Y-117508069D01*
X170660581Y-117508078D01*
X170600317Y-117591023D01*
X170544987Y-117633689D01*
X170475374Y-117639667D01*
X170413579Y-117607061D01*
X170399683Y-117591023D01*
X170351899Y-117525257D01*
X170339414Y-117508072D01*
X170216928Y-117385586D01*
X170076788Y-117283768D01*
X169922445Y-117205127D01*
X169757701Y-117151598D01*
X169757699Y-117151597D01*
X169757698Y-117151597D01*
X169626271Y-117130781D01*
X169586611Y-117124500D01*
X169413389Y-117124500D01*
X169373728Y-117130781D01*
X169242302Y-117151597D01*
X169077552Y-117205128D01*
X168923211Y-117283768D01*
X168783073Y-117385585D01*
X168675166Y-117493492D01*
X168613843Y-117526976D01*
X168544151Y-117521992D01*
X168488218Y-117480120D01*
X168481946Y-117470906D01*
X168442317Y-117406656D01*
X168318345Y-117282684D01*
X168169124Y-117190643D01*
X168169119Y-117190641D01*
X168002697Y-117135494D01*
X168002690Y-117135493D01*
X167899986Y-117125000D01*
X167750000Y-117125000D01*
X167750000Y-118219670D01*
X167730255Y-118199925D01*
X167644745Y-118150556D01*
X167549370Y-118125000D01*
X167450630Y-118125000D01*
X167355255Y-118150556D01*
X167269745Y-118199925D01*
X167250000Y-118219670D01*
X167250000Y-117125000D01*
X167100027Y-117125000D01*
X167100012Y-117125001D01*
X166997302Y-117135494D01*
X166830880Y-117190641D01*
X166830875Y-117190643D01*
X166681654Y-117282684D01*
X166557684Y-117406654D01*
X166465643Y-117555875D01*
X166465641Y-117555880D01*
X166410494Y-117722302D01*
X166410493Y-117722309D01*
X166400000Y-117825013D01*
X166400000Y-118250000D01*
X167219670Y-118250000D01*
X167199925Y-118269745D01*
X167150556Y-118355255D01*
X167125000Y-118450630D01*
X167125000Y-118549370D01*
X167150556Y-118644745D01*
X167199925Y-118730255D01*
X167219670Y-118750000D01*
X166393341Y-118750000D01*
X166346682Y-118775476D01*
X166276990Y-118770489D01*
X166232647Y-118741990D01*
X158796071Y-111305414D01*
X158769191Y-111265185D01*
X158709397Y-111120827D01*
X158709390Y-111120814D01*
X158621789Y-110989711D01*
X158621786Y-110989707D01*
X158510292Y-110878213D01*
X158510288Y-110878210D01*
X158379185Y-110790609D01*
X158379172Y-110790602D01*
X158233501Y-110730264D01*
X158233489Y-110730261D01*
X158078845Y-110699500D01*
X158078842Y-110699500D01*
X157921158Y-110699500D01*
X157921155Y-110699500D01*
X157766510Y-110730261D01*
X157766498Y-110730264D01*
X157620827Y-110790602D01*
X157620814Y-110790609D01*
X157489711Y-110878210D01*
X157489707Y-110878213D01*
X157378213Y-110989707D01*
X157378210Y-110989711D01*
X157290609Y-111120814D01*
X157290602Y-111120827D01*
X157230264Y-111266498D01*
X157230261Y-111266510D01*
X157199500Y-111421153D01*
X157199500Y-111578846D01*
X157230261Y-111733489D01*
X157230264Y-111733501D01*
X157290602Y-111879172D01*
X157290609Y-111879185D01*
X157378210Y-112010288D01*
X157378213Y-112010292D01*
X157489707Y-112121786D01*
X157489711Y-112121789D01*
X157620814Y-112209390D01*
X157620827Y-112209397D01*
X157765185Y-112269191D01*
X157805414Y-112296071D01*
X171803181Y-126293838D01*
X171836666Y-126355161D01*
X171839500Y-126381519D01*
X171839500Y-128276452D01*
X171819815Y-128343491D01*
X171788385Y-128376770D01*
X171660213Y-128469890D01*
X171509890Y-128620213D01*
X171384949Y-128792182D01*
X171380484Y-128800946D01*
X171332509Y-128851742D01*
X171264688Y-128868536D01*
X171198553Y-128845998D01*
X171159516Y-128800946D01*
X171155050Y-128792182D01*
X171030109Y-128620213D01*
X170879786Y-128469890D01*
X170707820Y-128344951D01*
X170518414Y-128248444D01*
X170518413Y-128248443D01*
X170518412Y-128248443D01*
X170316243Y-128182754D01*
X170316241Y-128182753D01*
X170316240Y-128182753D01*
X170154957Y-128157208D01*
X170106287Y-128149500D01*
X169893713Y-128149500D01*
X169737226Y-128174284D01*
X169667933Y-128165329D01*
X169630148Y-128139492D01*
X168946546Y-127455888D01*
X168946545Y-127455887D01*
X168831807Y-127379222D01*
X168704332Y-127326421D01*
X168704322Y-127326418D01*
X168568996Y-127299500D01*
X168568994Y-127299500D01*
X168568993Y-127299500D01*
X164341518Y-127299500D01*
X164274479Y-127279815D01*
X164253837Y-127263181D01*
X158250811Y-121260153D01*
X158250810Y-121260152D01*
X158136072Y-121183487D01*
X158008597Y-121130686D01*
X158008587Y-121130683D01*
X157873261Y-121103765D01*
X157873259Y-121103765D01*
X157873258Y-121103765D01*
X154145783Y-121103765D01*
X154078744Y-121084080D01*
X154058102Y-121067446D01*
X152976941Y-119986285D01*
X152943456Y-119924962D01*
X152948440Y-119855270D01*
X152964299Y-119825726D01*
X153037417Y-119725090D01*
X153119917Y-119563174D01*
X153133400Y-119521674D01*
X153144007Y-119497885D01*
X153148746Y-119489695D01*
X153149726Y-119488716D01*
X153228783Y-119351784D01*
X153228976Y-119351062D01*
X153233450Y-119343332D01*
X153253042Y-119324688D01*
X153270005Y-119303619D01*
X153277977Y-119300961D01*
X153284066Y-119295168D01*
X153310628Y-119290076D01*
X153336289Y-119281523D01*
X153344434Y-119283597D01*
X153352687Y-119282016D01*
X153377783Y-119292092D01*
X153403996Y-119298770D01*
X153409725Y-119304918D01*
X153417525Y-119308050D01*
X153433191Y-119330098D01*
X153451631Y-119349885D01*
X153455245Y-119361136D01*
X153457995Y-119365006D01*
X153458250Y-119370491D01*
X153463245Y-119386038D01*
X153463927Y-119390343D01*
X153463928Y-119390350D01*
X153520081Y-119563171D01*
X153520083Y-119563174D01*
X153602583Y-119725090D01*
X153709397Y-119872106D01*
X153837894Y-120000603D01*
X153984910Y-120107417D01*
X154146826Y-120189917D01*
X154146828Y-120189918D01*
X154239717Y-120220099D01*
X154319654Y-120246072D01*
X154499139Y-120274500D01*
X154499140Y-120274500D01*
X154680860Y-120274500D01*
X154680861Y-120274500D01*
X154860346Y-120246072D01*
X154860349Y-120246071D01*
X154860350Y-120246071D01*
X155033171Y-120189918D01*
X155033171Y-120189917D01*
X155033174Y-120189917D01*
X155195090Y-120107417D01*
X155342106Y-120000603D01*
X155470603Y-119872106D01*
X155577417Y-119725090D01*
X155659917Y-119563174D01*
X155681131Y-119497885D01*
X155716071Y-119390350D01*
X155716071Y-119390349D01*
X155716072Y-119390346D01*
X155737527Y-119254884D01*
X155767456Y-119191750D01*
X155826768Y-119154819D01*
X155896630Y-119155817D01*
X155954863Y-119194427D01*
X155982472Y-119254884D01*
X155988035Y-119290000D01*
X156003928Y-119390347D01*
X156003928Y-119390350D01*
X156060081Y-119563171D01*
X156060083Y-119563174D01*
X156142583Y-119725090D01*
X156249397Y-119872106D01*
X156377894Y-120000603D01*
X156524910Y-120107417D01*
X156686826Y-120189917D01*
X156686828Y-120189918D01*
X156779717Y-120220099D01*
X156859654Y-120246072D01*
X157039139Y-120274500D01*
X157039140Y-120274500D01*
X157220860Y-120274500D01*
X157220861Y-120274500D01*
X157400346Y-120246072D01*
X157400349Y-120246071D01*
X157400350Y-120246071D01*
X157573171Y-120189918D01*
X157573171Y-120189917D01*
X157573174Y-120189917D01*
X157735090Y-120107417D01*
X157882106Y-120000603D01*
X158010603Y-119872106D01*
X158117417Y-119725090D01*
X158199917Y-119563174D01*
X158221131Y-119497885D01*
X158256071Y-119390350D01*
X158256071Y-119390349D01*
X158256072Y-119390346D01*
X158277527Y-119254884D01*
X158307456Y-119191750D01*
X158366768Y-119154819D01*
X158436630Y-119155817D01*
X158494863Y-119194427D01*
X158522472Y-119254884D01*
X158528035Y-119290000D01*
X158543928Y-119390347D01*
X158543928Y-119390350D01*
X158600081Y-119563171D01*
X158600083Y-119563174D01*
X158682583Y-119725090D01*
X158789397Y-119872106D01*
X158917894Y-120000603D01*
X159064910Y-120107417D01*
X159226826Y-120189917D01*
X159226828Y-120189918D01*
X159319717Y-120220099D01*
X159399654Y-120246072D01*
X159579139Y-120274500D01*
X159579140Y-120274500D01*
X159760860Y-120274500D01*
X159760861Y-120274500D01*
X159940346Y-120246072D01*
X159940349Y-120246071D01*
X159940350Y-120246071D01*
X160113171Y-120189918D01*
X160113171Y-120189917D01*
X160113174Y-120189917D01*
X160275090Y-120107417D01*
X160422106Y-120000603D01*
X160550603Y-119872106D01*
X160657417Y-119725090D01*
X160739917Y-119563174D01*
X160761131Y-119497885D01*
X160796071Y-119390350D01*
X160796071Y-119390349D01*
X160796072Y-119390346D01*
X160817527Y-119254884D01*
X160847456Y-119191750D01*
X160906768Y-119154819D01*
X160976630Y-119155817D01*
X161034863Y-119194427D01*
X161062472Y-119254884D01*
X161068035Y-119290000D01*
X161083928Y-119390347D01*
X161083928Y-119390350D01*
X161140081Y-119563171D01*
X161140083Y-119563174D01*
X161222583Y-119725090D01*
X161329397Y-119872106D01*
X161457894Y-120000603D01*
X161604910Y-120107417D01*
X161766826Y-120189917D01*
X161766828Y-120189918D01*
X161859717Y-120220099D01*
X161939654Y-120246072D01*
X162119139Y-120274500D01*
X162119140Y-120274500D01*
X162300860Y-120274500D01*
X162300861Y-120274500D01*
X162480346Y-120246072D01*
X162480349Y-120246071D01*
X162480350Y-120246071D01*
X162653171Y-120189918D01*
X162653171Y-120189917D01*
X162653174Y-120189917D01*
X162815090Y-120107417D01*
X162962106Y-120000603D01*
X163090603Y-119872106D01*
X163197417Y-119725090D01*
X163279917Y-119563174D01*
X163301131Y-119497885D01*
X163336071Y-119390350D01*
X163336071Y-119390349D01*
X163336072Y-119390346D01*
X163364500Y-119210861D01*
X163364500Y-119029139D01*
X163336072Y-118849654D01*
X163336071Y-118849650D01*
X163336071Y-118849649D01*
X163279918Y-118676828D01*
X163279916Y-118676825D01*
X163271249Y-118659814D01*
X163197417Y-118514910D01*
X163090603Y-118367894D01*
X162962106Y-118239397D01*
X162815090Y-118132583D01*
X162653174Y-118050083D01*
X162653171Y-118050081D01*
X162480348Y-117993928D01*
X162360689Y-117974976D01*
X162300861Y-117965500D01*
X162119139Y-117965500D01*
X162059310Y-117974976D01*
X161939652Y-117993928D01*
X161939649Y-117993928D01*
X161766828Y-118050081D01*
X161766825Y-118050083D01*
X161604909Y-118132583D01*
X161554616Y-118169124D01*
X161457894Y-118239397D01*
X161457892Y-118239399D01*
X161457891Y-118239399D01*
X161329399Y-118367891D01*
X161329399Y-118367892D01*
X161329397Y-118367894D01*
X161323508Y-118376000D01*
X161222583Y-118514909D01*
X161140083Y-118676825D01*
X161140081Y-118676828D01*
X161083928Y-118849649D01*
X161083928Y-118849652D01*
X161062473Y-118985114D01*
X161032544Y-119048249D01*
X160973232Y-119085180D01*
X160903370Y-119084182D01*
X160845137Y-119045572D01*
X160817527Y-118985114D01*
X160817358Y-118984048D01*
X160796072Y-118849654D01*
X160796071Y-118849650D01*
X160796071Y-118849649D01*
X160739918Y-118676828D01*
X160739916Y-118676825D01*
X160731249Y-118659814D01*
X160657417Y-118514910D01*
X160550603Y-118367894D01*
X160422106Y-118239397D01*
X160275090Y-118132583D01*
X160113174Y-118050083D01*
X160113171Y-118050081D01*
X159940348Y-117993928D01*
X159820689Y-117974976D01*
X159760861Y-117965500D01*
X159579139Y-117965500D01*
X159519310Y-117974976D01*
X159399652Y-117993928D01*
X159399649Y-117993928D01*
X159226828Y-118050081D01*
X159226825Y-118050083D01*
X159064909Y-118132583D01*
X159014616Y-118169124D01*
X158917894Y-118239397D01*
X158917892Y-118239399D01*
X158917891Y-118239399D01*
X158789399Y-118367891D01*
X158789399Y-118367892D01*
X158789397Y-118367894D01*
X158783508Y-118376000D01*
X158682583Y-118514909D01*
X158600083Y-118676825D01*
X158600081Y-118676828D01*
X158543928Y-118849649D01*
X158543928Y-118849652D01*
X158522473Y-118985114D01*
X158492544Y-119048249D01*
X158433232Y-119085180D01*
X158363370Y-119084182D01*
X158305137Y-119045572D01*
X158277527Y-118985114D01*
X158277358Y-118984048D01*
X158256072Y-118849654D01*
X158256071Y-118849650D01*
X158256071Y-118849649D01*
X158199918Y-118676828D01*
X158199916Y-118676825D01*
X158191249Y-118659814D01*
X158117417Y-118514910D01*
X158010603Y-118367894D01*
X157882106Y-118239397D01*
X157735090Y-118132583D01*
X157573174Y-118050083D01*
X157573171Y-118050081D01*
X157400348Y-117993928D01*
X157280689Y-117974976D01*
X157220861Y-117965500D01*
X157039139Y-117965500D01*
X156979310Y-117974976D01*
X156859652Y-117993928D01*
X156859649Y-117993928D01*
X156686828Y-118050081D01*
X156686825Y-118050083D01*
X156524909Y-118132583D01*
X156474616Y-118169124D01*
X156377894Y-118239397D01*
X156377892Y-118239399D01*
X156377891Y-118239399D01*
X156249399Y-118367891D01*
X156249399Y-118367892D01*
X156249397Y-118367894D01*
X156243508Y-118376000D01*
X156142583Y-118514909D01*
X156060083Y-118676825D01*
X156060081Y-118676828D01*
X156003928Y-118849649D01*
X156003928Y-118849652D01*
X155982473Y-118985114D01*
X155952544Y-119048249D01*
X155893232Y-119085180D01*
X155823370Y-119084182D01*
X155765137Y-119045572D01*
X155737527Y-118985114D01*
X155737358Y-118984048D01*
X155716072Y-118849654D01*
X155716071Y-118849650D01*
X155716071Y-118849649D01*
X155659918Y-118676828D01*
X155659916Y-118676825D01*
X155651249Y-118659814D01*
X155577417Y-118514910D01*
X155470603Y-118367894D01*
X155342106Y-118239397D01*
X155195090Y-118132583D01*
X155033174Y-118050083D01*
X155033171Y-118050081D01*
X154860348Y-117993928D01*
X154740689Y-117974976D01*
X154680861Y-117965500D01*
X154499139Y-117965500D01*
X154439310Y-117974976D01*
X154319652Y-117993928D01*
X154319649Y-117993928D01*
X154146828Y-118050081D01*
X154146825Y-118050083D01*
X153984909Y-118132583D01*
X153934616Y-118169124D01*
X153837894Y-118239397D01*
X153837892Y-118239399D01*
X153837891Y-118239399D01*
X153709399Y-118367891D01*
X153709399Y-118367892D01*
X153709397Y-118367894D01*
X153703508Y-118376000D01*
X153602583Y-118514909D01*
X153520083Y-118676825D01*
X153520081Y-118676828D01*
X153463928Y-118849649D01*
X153463927Y-118849653D01*
X153463245Y-118853963D01*
X153451099Y-118879578D01*
X153441854Y-118906380D01*
X153436326Y-118910736D01*
X153433311Y-118917096D01*
X153409241Y-118932080D01*
X153386977Y-118949627D01*
X153379971Y-118950303D01*
X153373997Y-118954023D01*
X153345647Y-118953616D01*
X153317431Y-118956340D01*
X153311172Y-118953121D01*
X153304135Y-118953021D01*
X153280507Y-118937353D01*
X153255295Y-118924388D01*
X153250568Y-118917499D01*
X153245905Y-118914407D01*
X153233449Y-118896667D01*
X153228976Y-118888939D01*
X153228783Y-118888216D01*
X153149726Y-118751284D01*
X153148746Y-118750304D01*
X153144007Y-118742115D01*
X153142359Y-118735355D01*
X153133400Y-118718322D01*
X153119919Y-118676831D01*
X153119917Y-118676828D01*
X153119917Y-118676826D01*
X153037417Y-118514910D01*
X152930603Y-118367894D01*
X152802106Y-118239397D01*
X152655090Y-118132583D01*
X152493174Y-118050083D01*
X152493171Y-118050081D01*
X152320348Y-117993928D01*
X152200689Y-117974976D01*
X152140861Y-117965500D01*
X151959139Y-117965500D01*
X151899310Y-117974976D01*
X151779652Y-117993928D01*
X151779649Y-117993928D01*
X151606828Y-118050081D01*
X151606825Y-118050083D01*
X151444909Y-118132583D01*
X151394616Y-118169124D01*
X151297894Y-118239397D01*
X151297892Y-118239399D01*
X151297891Y-118239399D01*
X151169399Y-118367891D01*
X151169399Y-118367892D01*
X151169397Y-118367894D01*
X151163508Y-118376000D01*
X151062583Y-118514909D01*
X150980083Y-118676825D01*
X150980081Y-118676828D01*
X150923928Y-118849649D01*
X150923928Y-118849652D01*
X150902473Y-118985114D01*
X150872544Y-119048249D01*
X150813232Y-119085180D01*
X150743370Y-119084182D01*
X150685137Y-119045572D01*
X150657527Y-118985114D01*
X150657358Y-118984048D01*
X150636072Y-118849654D01*
X150636071Y-118849650D01*
X150636071Y-118849649D01*
X150579918Y-118676828D01*
X150579916Y-118676825D01*
X150571249Y-118659814D01*
X150497417Y-118514910D01*
X150390603Y-118367894D01*
X150262106Y-118239397D01*
X150115090Y-118132583D01*
X149953174Y-118050083D01*
X149953171Y-118050081D01*
X149780348Y-117993928D01*
X149660689Y-117974976D01*
X149600861Y-117965500D01*
X149419139Y-117965500D01*
X149359310Y-117974976D01*
X149239652Y-117993928D01*
X149239649Y-117993928D01*
X149066828Y-118050081D01*
X149066825Y-118050083D01*
X148904909Y-118132583D01*
X148854616Y-118169124D01*
X148757894Y-118239397D01*
X148757892Y-118239399D01*
X148757891Y-118239399D01*
X148629399Y-118367891D01*
X148629399Y-118367892D01*
X148629397Y-118367894D01*
X148623508Y-118376000D01*
X148522583Y-118514909D01*
X148440083Y-118676825D01*
X148440081Y-118676828D01*
X148383928Y-118849649D01*
X148383928Y-118849652D01*
X148362473Y-118985114D01*
X148332544Y-119048249D01*
X148273232Y-119085180D01*
X148203370Y-119084182D01*
X148145137Y-119045572D01*
X148117527Y-118985114D01*
X148117358Y-118984048D01*
X148096072Y-118849654D01*
X148096071Y-118849650D01*
X148096071Y-118849649D01*
X148039918Y-118676828D01*
X148039916Y-118676825D01*
X148031249Y-118659814D01*
X147957417Y-118514910D01*
X147850603Y-118367894D01*
X147722106Y-118239397D01*
X147575090Y-118132583D01*
X147413174Y-118050083D01*
X147413171Y-118050081D01*
X147240348Y-117993928D01*
X147120689Y-117974976D01*
X147060861Y-117965500D01*
X146879139Y-117965500D01*
X146819310Y-117974976D01*
X146699652Y-117993928D01*
X146699649Y-117993928D01*
X146526828Y-118050081D01*
X146526825Y-118050083D01*
X146364909Y-118132583D01*
X146314616Y-118169124D01*
X146217894Y-118239397D01*
X146217892Y-118239399D01*
X146217891Y-118239399D01*
X146089399Y-118367891D01*
X146089399Y-118367892D01*
X146089397Y-118367894D01*
X146083508Y-118376000D01*
X145982583Y-118514909D01*
X145900083Y-118676825D01*
X145900081Y-118676828D01*
X145843928Y-118849649D01*
X145843928Y-118849652D01*
X145822473Y-118985114D01*
X145792544Y-119048249D01*
X145733232Y-119085180D01*
X145663370Y-119084182D01*
X145605137Y-119045572D01*
X145577527Y-118985114D01*
X145577358Y-118984048D01*
X145556072Y-118849654D01*
X145556071Y-118849650D01*
X145556071Y-118849649D01*
X145499918Y-118676828D01*
X145499916Y-118676825D01*
X145491249Y-118659814D01*
X145417417Y-118514910D01*
X145310603Y-118367894D01*
X145182106Y-118239397D01*
X145035090Y-118132583D01*
X144873174Y-118050083D01*
X144873171Y-118050081D01*
X144700348Y-117993928D01*
X144580689Y-117974976D01*
X144520861Y-117965500D01*
X144339139Y-117965500D01*
X144279310Y-117974976D01*
X144159652Y-117993928D01*
X144159649Y-117993928D01*
X143986828Y-118050081D01*
X143986825Y-118050083D01*
X143824909Y-118132583D01*
X143774616Y-118169124D01*
X143677894Y-118239397D01*
X143677892Y-118239399D01*
X143677891Y-118239399D01*
X143549399Y-118367891D01*
X143549399Y-118367892D01*
X143549397Y-118367894D01*
X143543508Y-118376000D01*
X143442583Y-118514909D01*
X143360083Y-118676825D01*
X143360081Y-118676828D01*
X143303928Y-118849649D01*
X143303928Y-118849652D01*
X143282473Y-118985114D01*
X143252544Y-119048249D01*
X143193232Y-119085180D01*
X143123370Y-119084182D01*
X143065137Y-119045572D01*
X143037527Y-118985114D01*
X143037358Y-118984048D01*
X143016072Y-118849654D01*
X143016071Y-118849650D01*
X143016071Y-118849649D01*
X142959918Y-118676828D01*
X142959916Y-118676825D01*
X142951249Y-118659814D01*
X142877417Y-118514910D01*
X142770603Y-118367894D01*
X142642106Y-118239397D01*
X142495090Y-118132583D01*
X142333174Y-118050083D01*
X142333171Y-118050081D01*
X142160348Y-117993928D01*
X142040689Y-117974976D01*
X141980861Y-117965500D01*
X141799139Y-117965500D01*
X141739310Y-117974976D01*
X141619652Y-117993928D01*
X141619649Y-117993928D01*
X141446828Y-118050081D01*
X141446825Y-118050083D01*
X141284909Y-118132583D01*
X141234616Y-118169124D01*
X141137894Y-118239397D01*
X141137892Y-118239399D01*
X141137891Y-118239399D01*
X141009399Y-118367891D01*
X141009399Y-118367892D01*
X141009397Y-118367894D01*
X141003508Y-118376000D01*
X140902583Y-118514909D01*
X140820083Y-118676825D01*
X140820081Y-118676828D01*
X140763928Y-118849649D01*
X140763928Y-118849652D01*
X140742473Y-118985114D01*
X140712544Y-119048249D01*
X140653232Y-119085180D01*
X140583370Y-119084182D01*
X140525137Y-119045572D01*
X140497527Y-118985114D01*
X140497358Y-118984048D01*
X140476072Y-118849654D01*
X140476071Y-118849650D01*
X140476071Y-118849649D01*
X140419918Y-118676828D01*
X140419916Y-118676825D01*
X140411249Y-118659814D01*
X140337417Y-118514910D01*
X140230603Y-118367894D01*
X140102106Y-118239397D01*
X139955090Y-118132583D01*
X139793174Y-118050083D01*
X139793171Y-118050081D01*
X139620348Y-117993928D01*
X139500689Y-117974976D01*
X139440861Y-117965500D01*
X139259139Y-117965500D01*
X139199310Y-117974976D01*
X139079652Y-117993928D01*
X139079649Y-117993928D01*
X138906828Y-118050081D01*
X138906825Y-118050083D01*
X138744909Y-118132583D01*
X138694616Y-118169124D01*
X138597894Y-118239397D01*
X138597892Y-118239399D01*
X138597891Y-118239399D01*
X138469399Y-118367891D01*
X138469399Y-118367892D01*
X138469397Y-118367894D01*
X138463508Y-118376000D01*
X138362583Y-118514909D01*
X138280083Y-118676825D01*
X138280081Y-118676828D01*
X138223928Y-118849649D01*
X138223928Y-118849652D01*
X138202473Y-118985114D01*
X138172544Y-119048249D01*
X138113232Y-119085180D01*
X138043370Y-119084182D01*
X137985137Y-119045572D01*
X137957527Y-118985114D01*
X137957358Y-118984048D01*
X137936072Y-118849654D01*
X137936071Y-118849650D01*
X137936071Y-118849649D01*
X137879918Y-118676828D01*
X137879916Y-118676825D01*
X137871249Y-118659814D01*
X137797417Y-118514910D01*
X137690603Y-118367894D01*
X137562106Y-118239397D01*
X137415090Y-118132583D01*
X137253174Y-118050083D01*
X137253171Y-118050081D01*
X137080348Y-117993928D01*
X136960689Y-117974976D01*
X136900861Y-117965500D01*
X136719139Y-117965500D01*
X136659310Y-117974976D01*
X136539652Y-117993928D01*
X136539649Y-117993928D01*
X136366828Y-118050081D01*
X136366825Y-118050083D01*
X136204909Y-118132583D01*
X136154616Y-118169124D01*
X136057894Y-118239397D01*
X136057892Y-118239399D01*
X136057891Y-118239399D01*
X135929399Y-118367891D01*
X135929399Y-118367892D01*
X135929397Y-118367894D01*
X135923508Y-118376000D01*
X135822583Y-118514909D01*
X135740083Y-118676825D01*
X135740081Y-118676828D01*
X135683928Y-118849649D01*
X135683928Y-118849652D01*
X135662473Y-118985114D01*
X135632544Y-119048249D01*
X135573232Y-119085180D01*
X135503370Y-119084182D01*
X135445137Y-119045572D01*
X135417527Y-118985114D01*
X135417358Y-118984048D01*
X135396072Y-118849654D01*
X135396071Y-118849650D01*
X135396071Y-118849649D01*
X135339918Y-118676828D01*
X135339916Y-118676825D01*
X135331249Y-118659814D01*
X135257417Y-118514910D01*
X135150603Y-118367894D01*
X135022106Y-118239397D01*
X134875090Y-118132583D01*
X134713174Y-118050083D01*
X134713171Y-118050081D01*
X134540348Y-117993928D01*
X134420689Y-117974976D01*
X134360861Y-117965500D01*
X134179139Y-117965500D01*
X134119310Y-117974976D01*
X133999652Y-117993928D01*
X133999649Y-117993928D01*
X133826828Y-118050081D01*
X133826825Y-118050083D01*
X133664909Y-118132583D01*
X133614616Y-118169124D01*
X133517894Y-118239397D01*
X133517892Y-118239399D01*
X133517891Y-118239399D01*
X133389399Y-118367891D01*
X133389399Y-118367892D01*
X133389397Y-118367894D01*
X133383508Y-118376000D01*
X133282583Y-118514909D01*
X133200083Y-118676825D01*
X133200081Y-118676828D01*
X133143928Y-118849649D01*
X133143928Y-118849652D01*
X133122473Y-118985114D01*
X133092544Y-119048249D01*
X133033232Y-119085180D01*
X132963370Y-119084182D01*
X132905137Y-119045572D01*
X132877527Y-118985114D01*
X132877358Y-118984048D01*
X132856072Y-118849654D01*
X132856071Y-118849650D01*
X132856071Y-118849649D01*
X132799918Y-118676828D01*
X132799916Y-118676825D01*
X132791249Y-118659814D01*
X132717417Y-118514910D01*
X132610603Y-118367894D01*
X132482106Y-118239397D01*
X132335090Y-118132583D01*
X132173174Y-118050083D01*
X132173171Y-118050081D01*
X132000348Y-117993928D01*
X131880689Y-117974976D01*
X131820861Y-117965500D01*
X131639139Y-117965500D01*
X131579310Y-117974976D01*
X131459652Y-117993928D01*
X131459649Y-117993928D01*
X131286828Y-118050081D01*
X131286825Y-118050083D01*
X131124909Y-118132583D01*
X131074616Y-118169124D01*
X130977894Y-118239397D01*
X130977892Y-118239399D01*
X130977891Y-118239399D01*
X130849399Y-118367891D01*
X130849399Y-118367892D01*
X130849397Y-118367894D01*
X130843508Y-118376000D01*
X130742583Y-118514909D01*
X130660083Y-118676825D01*
X130660081Y-118676828D01*
X130603928Y-118849649D01*
X130603928Y-118849652D01*
X130582473Y-118985114D01*
X130552544Y-119048249D01*
X130493232Y-119085180D01*
X130423370Y-119084182D01*
X130365137Y-119045572D01*
X130337527Y-118985114D01*
X130337358Y-118984048D01*
X130316072Y-118849654D01*
X130316071Y-118849650D01*
X130316071Y-118849649D01*
X130259918Y-118676828D01*
X130259916Y-118676825D01*
X130251249Y-118659814D01*
X130177417Y-118514910D01*
X130070603Y-118367894D01*
X129942106Y-118239397D01*
X129795090Y-118132583D01*
X129633174Y-118050083D01*
X129633171Y-118050081D01*
X129460348Y-117993928D01*
X129340689Y-117974976D01*
X129280861Y-117965500D01*
X129099139Y-117965500D01*
X129039310Y-117974976D01*
X128919652Y-117993928D01*
X128919649Y-117993928D01*
X128746828Y-118050081D01*
X128746825Y-118050083D01*
X128584909Y-118132583D01*
X128534616Y-118169124D01*
X128437894Y-118239397D01*
X128437892Y-118239399D01*
X128437891Y-118239399D01*
X128309399Y-118367891D01*
X128309399Y-118367892D01*
X128309397Y-118367894D01*
X128303508Y-118376000D01*
X128202583Y-118514909D01*
X128120083Y-118676825D01*
X128120081Y-118676828D01*
X128063928Y-118849649D01*
X128063928Y-118849652D01*
X128042473Y-118985114D01*
X128012544Y-119048249D01*
X127953232Y-119085180D01*
X127883370Y-119084182D01*
X127825137Y-119045572D01*
X127797527Y-118985114D01*
X127797358Y-118984048D01*
X127776072Y-118849654D01*
X127776071Y-118849650D01*
X127776071Y-118849649D01*
X127719918Y-118676828D01*
X127719916Y-118676825D01*
X127711249Y-118659814D01*
X127637417Y-118514910D01*
X127530603Y-118367894D01*
X127402106Y-118239397D01*
X127255090Y-118132583D01*
X127093174Y-118050083D01*
X127093171Y-118050081D01*
X126920348Y-117993928D01*
X126800689Y-117974976D01*
X126740861Y-117965500D01*
X126559139Y-117965500D01*
X126499310Y-117974976D01*
X126379652Y-117993928D01*
X126379649Y-117993928D01*
X126206828Y-118050081D01*
X126206825Y-118050083D01*
X126044909Y-118132583D01*
X125994616Y-118169124D01*
X125897894Y-118239397D01*
X125897892Y-118239399D01*
X125897891Y-118239399D01*
X125769399Y-118367891D01*
X125769399Y-118367892D01*
X125769397Y-118367894D01*
X125763508Y-118376000D01*
X125662583Y-118514909D01*
X125580083Y-118676825D01*
X125580081Y-118676828D01*
X125523928Y-118849649D01*
X125523928Y-118849652D01*
X125502473Y-118985114D01*
X125472544Y-119048249D01*
X125413232Y-119085180D01*
X125343370Y-119084182D01*
X125285137Y-119045572D01*
X125257527Y-118985114D01*
X125257358Y-118984048D01*
X125236072Y-118849654D01*
X125236071Y-118849650D01*
X125236071Y-118849649D01*
X125179918Y-118676828D01*
X125179916Y-118676825D01*
X125171249Y-118659814D01*
X125097417Y-118514910D01*
X124990603Y-118367894D01*
X124862106Y-118239397D01*
X124715090Y-118132583D01*
X124553174Y-118050083D01*
X124553171Y-118050081D01*
X124380348Y-117993928D01*
X124260689Y-117974976D01*
X124200861Y-117965500D01*
X124019139Y-117965500D01*
X123959310Y-117974976D01*
X123839652Y-117993928D01*
X123839649Y-117993928D01*
X123666828Y-118050081D01*
X123666825Y-118050083D01*
X123504909Y-118132583D01*
X123454616Y-118169124D01*
X123357894Y-118239397D01*
X123357892Y-118239399D01*
X123357891Y-118239399D01*
X123229399Y-118367891D01*
X123229399Y-118367892D01*
X123229397Y-118367894D01*
X123223508Y-118376000D01*
X123122583Y-118514909D01*
X123040083Y-118676825D01*
X123040081Y-118676828D01*
X122983928Y-118849649D01*
X122983928Y-118849652D01*
X122962473Y-118985114D01*
X122932544Y-119048249D01*
X122873232Y-119085180D01*
X122803370Y-119084182D01*
X122745137Y-119045572D01*
X122717527Y-118985114D01*
X122717358Y-118984048D01*
X122696072Y-118849654D01*
X122696071Y-118849650D01*
X122696071Y-118849649D01*
X122639918Y-118676828D01*
X122639916Y-118676825D01*
X122631249Y-118659814D01*
X122557417Y-118514910D01*
X122450603Y-118367894D01*
X122322106Y-118239397D01*
X122175090Y-118132583D01*
X122013174Y-118050083D01*
X122013171Y-118050081D01*
X121840348Y-117993928D01*
X121720689Y-117974976D01*
X121660861Y-117965500D01*
X121479139Y-117965500D01*
X121419310Y-117974976D01*
X121299652Y-117993928D01*
X121299649Y-117993928D01*
X121126828Y-118050081D01*
X121126825Y-118050083D01*
X120964909Y-118132583D01*
X120914616Y-118169124D01*
X120817894Y-118239397D01*
X120817892Y-118239399D01*
X120817891Y-118239399D01*
X120689399Y-118367891D01*
X120689399Y-118367892D01*
X120689397Y-118367894D01*
X120683508Y-118376000D01*
X120582583Y-118514909D01*
X120500083Y-118676825D01*
X120500081Y-118676828D01*
X120443928Y-118849649D01*
X120443928Y-118849652D01*
X120422473Y-118985114D01*
X120392544Y-119048249D01*
X120333232Y-119085180D01*
X120263370Y-119084182D01*
X120205137Y-119045572D01*
X120177527Y-118985114D01*
X120177358Y-118984048D01*
X120156072Y-118849654D01*
X120156071Y-118849650D01*
X120156071Y-118849649D01*
X120099918Y-118676828D01*
X120099916Y-118676825D01*
X120091249Y-118659814D01*
X120017417Y-118514910D01*
X119910603Y-118367894D01*
X119782106Y-118239397D01*
X119635090Y-118132583D01*
X119473174Y-118050083D01*
X119473171Y-118050081D01*
X119300348Y-117993928D01*
X119180689Y-117974976D01*
X119120861Y-117965500D01*
X118939139Y-117965500D01*
X118879310Y-117974976D01*
X118759652Y-117993928D01*
X118759649Y-117993928D01*
X118586828Y-118050081D01*
X118586825Y-118050083D01*
X118424909Y-118132583D01*
X118374616Y-118169124D01*
X118277894Y-118239397D01*
X118277892Y-118239399D01*
X118277891Y-118239399D01*
X118149399Y-118367891D01*
X118149399Y-118367892D01*
X118149397Y-118367894D01*
X118143508Y-118376000D01*
X118042583Y-118514909D01*
X117960083Y-118676825D01*
X117960081Y-118676828D01*
X117903928Y-118849649D01*
X117903928Y-118849652D01*
X117882473Y-118985114D01*
X117852544Y-119048249D01*
X117793232Y-119085180D01*
X117723370Y-119084182D01*
X117665137Y-119045572D01*
X117637527Y-118985114D01*
X117637358Y-118984048D01*
X117616072Y-118849654D01*
X117616071Y-118849650D01*
X117616071Y-118849649D01*
X117559918Y-118676828D01*
X117559916Y-118676825D01*
X117551249Y-118659814D01*
X117477417Y-118514910D01*
X117370603Y-118367894D01*
X117242106Y-118239397D01*
X117095090Y-118132583D01*
X116933174Y-118050083D01*
X116933171Y-118050081D01*
X116760348Y-117993928D01*
X116640689Y-117974976D01*
X116580861Y-117965500D01*
X116399139Y-117965500D01*
X116339310Y-117974976D01*
X116219652Y-117993928D01*
X116219649Y-117993928D01*
X116046828Y-118050081D01*
X116046825Y-118050083D01*
X115884909Y-118132583D01*
X115834616Y-118169124D01*
X115737894Y-118239397D01*
X115737892Y-118239399D01*
X115737891Y-118239399D01*
X115609399Y-118367891D01*
X115609399Y-118367892D01*
X115609397Y-118367894D01*
X115603508Y-118376000D01*
X115502583Y-118514909D01*
X115420083Y-118676825D01*
X115420081Y-118676828D01*
X115363928Y-118849649D01*
X115363928Y-118849652D01*
X115342473Y-118985114D01*
X115312544Y-119048249D01*
X115253232Y-119085180D01*
X115183370Y-119084182D01*
X115125137Y-119045572D01*
X115097527Y-118985114D01*
X115097358Y-118984048D01*
X115076072Y-118849654D01*
X115076071Y-118849650D01*
X115076071Y-118849649D01*
X115019918Y-118676828D01*
X115019916Y-118676825D01*
X115011249Y-118659814D01*
X114937417Y-118514910D01*
X114830603Y-118367894D01*
X114702106Y-118239397D01*
X114555090Y-118132583D01*
X114393174Y-118050083D01*
X114393171Y-118050081D01*
X114220348Y-117993928D01*
X114100689Y-117974976D01*
X114040861Y-117965500D01*
X113859139Y-117965500D01*
X113799310Y-117974976D01*
X113679652Y-117993928D01*
X113679649Y-117993928D01*
X113506828Y-118050081D01*
X113506825Y-118050083D01*
X113344909Y-118132583D01*
X113294616Y-118169124D01*
X113197894Y-118239397D01*
X113197892Y-118239399D01*
X113197891Y-118239399D01*
X113069399Y-118367891D01*
X113069399Y-118367892D01*
X113069397Y-118367894D01*
X113063508Y-118376000D01*
X112962583Y-118514909D01*
X112880083Y-118676825D01*
X112880081Y-118676828D01*
X112823928Y-118849649D01*
X112823928Y-118849652D01*
X112802473Y-118985114D01*
X112772544Y-119048249D01*
X112713232Y-119085180D01*
X112643370Y-119084182D01*
X112585137Y-119045572D01*
X112557527Y-118985114D01*
X112557358Y-118984048D01*
X112536072Y-118849654D01*
X112536071Y-118849650D01*
X112536071Y-118849649D01*
X112479918Y-118676828D01*
X112479916Y-118676825D01*
X112471249Y-118659814D01*
X112397417Y-118514910D01*
X112290603Y-118367894D01*
X112162106Y-118239397D01*
X112015090Y-118132583D01*
X111853174Y-118050083D01*
X111853171Y-118050081D01*
X111680348Y-117993928D01*
X111560689Y-117974976D01*
X111500861Y-117965500D01*
X111319139Y-117965500D01*
X111259310Y-117974976D01*
X111139652Y-117993928D01*
X111139649Y-117993928D01*
X110966828Y-118050081D01*
X110966825Y-118050083D01*
X110804909Y-118132583D01*
X110754616Y-118169124D01*
X110657894Y-118239397D01*
X110657892Y-118239399D01*
X110657891Y-118239399D01*
X110529399Y-118367891D01*
X110529399Y-118367892D01*
X110529397Y-118367894D01*
X110523508Y-118376000D01*
X110422583Y-118514909D01*
X110340083Y-118676825D01*
X110340081Y-118676828D01*
X110283928Y-118849649D01*
X110283928Y-118849652D01*
X110262473Y-118985114D01*
X110232544Y-119048249D01*
X110173232Y-119085180D01*
X110103370Y-119084182D01*
X110045137Y-119045572D01*
X110017527Y-118985114D01*
X110017358Y-118984048D01*
X109996072Y-118849654D01*
X109996071Y-118849650D01*
X109996071Y-118849649D01*
X109939918Y-118676828D01*
X109939916Y-118676825D01*
X109931249Y-118659814D01*
X109857417Y-118514910D01*
X109750603Y-118367894D01*
X109622106Y-118239397D01*
X109475090Y-118132583D01*
X109313174Y-118050083D01*
X109313171Y-118050081D01*
X109140348Y-117993928D01*
X109020689Y-117974976D01*
X108960861Y-117965500D01*
X108779139Y-117965500D01*
X108719310Y-117974976D01*
X108599652Y-117993928D01*
X108599649Y-117993928D01*
X108426828Y-118050081D01*
X108426825Y-118050083D01*
X108264909Y-118132583D01*
X108214616Y-118169124D01*
X108117894Y-118239397D01*
X108117892Y-118239399D01*
X108117891Y-118239399D01*
X107989399Y-118367891D01*
X107989399Y-118367892D01*
X107989397Y-118367894D01*
X107983508Y-118376000D01*
X107882583Y-118514909D01*
X107800083Y-118676825D01*
X107800081Y-118676828D01*
X107743928Y-118849649D01*
X107743928Y-118849652D01*
X107722473Y-118985114D01*
X107692544Y-119048249D01*
X107633232Y-119085180D01*
X107563370Y-119084182D01*
X107505137Y-119045572D01*
X107477527Y-118985114D01*
X107477358Y-118984048D01*
X107456072Y-118849654D01*
X107456071Y-118849650D01*
X107456071Y-118849649D01*
X107399918Y-118676828D01*
X107399916Y-118676825D01*
X107391249Y-118659814D01*
X107317417Y-118514910D01*
X107210603Y-118367894D01*
X107082106Y-118239397D01*
X106935090Y-118132583D01*
X106773174Y-118050083D01*
X106773171Y-118050081D01*
X106600348Y-117993928D01*
X106480689Y-117974976D01*
X106420861Y-117965500D01*
X106239139Y-117965500D01*
X106179310Y-117974976D01*
X106059652Y-117993928D01*
X106059649Y-117993928D01*
X105886828Y-118050081D01*
X105886825Y-118050083D01*
X105724909Y-118132583D01*
X105674616Y-118169124D01*
X105577894Y-118239397D01*
X105577892Y-118239399D01*
X105577891Y-118239399D01*
X105449399Y-118367891D01*
X105449399Y-118367892D01*
X105449397Y-118367894D01*
X105443508Y-118376000D01*
X105342583Y-118514909D01*
X105260083Y-118676825D01*
X105260081Y-118676828D01*
X105203928Y-118849649D01*
X105203928Y-118849652D01*
X105182473Y-118985114D01*
X105152544Y-119048249D01*
X105093232Y-119085180D01*
X105023370Y-119084182D01*
X104965137Y-119045572D01*
X104937527Y-118985114D01*
X104937358Y-118984048D01*
X104916072Y-118849654D01*
X104916071Y-118849650D01*
X104916071Y-118849649D01*
X104859918Y-118676828D01*
X104859916Y-118676825D01*
X104851249Y-118659814D01*
X104777417Y-118514910D01*
X104670603Y-118367894D01*
X104542106Y-118239397D01*
X104395090Y-118132583D01*
X104233174Y-118050083D01*
X104233171Y-118050081D01*
X104060348Y-117993928D01*
X103940689Y-117974976D01*
X103880861Y-117965500D01*
X103699139Y-117965500D01*
X103639310Y-117974976D01*
X103519652Y-117993928D01*
X103519649Y-117993928D01*
X103346828Y-118050081D01*
X103346825Y-118050083D01*
X103184909Y-118132583D01*
X103134616Y-118169124D01*
X103037894Y-118239397D01*
X103037892Y-118239399D01*
X103037891Y-118239399D01*
X102909399Y-118367891D01*
X102909399Y-118367892D01*
X102909397Y-118367894D01*
X102903508Y-118376000D01*
X102802583Y-118514909D01*
X102720083Y-118676825D01*
X102720081Y-118676828D01*
X102663928Y-118849649D01*
X102663928Y-118849652D01*
X102635500Y-119029139D01*
X102635500Y-119210860D01*
X102663928Y-119390347D01*
X102663928Y-119390350D01*
X102720081Y-119563171D01*
X102720083Y-119563174D01*
X102802583Y-119725090D01*
X102909397Y-119872106D01*
X103037894Y-120000603D01*
X103184910Y-120107417D01*
X103346826Y-120189917D01*
X103346828Y-120189918D01*
X103439717Y-120220099D01*
X103519654Y-120246072D01*
X103699139Y-120274500D01*
X103699140Y-120274500D01*
X103885480Y-120274500D01*
X103952519Y-120294185D01*
X103998274Y-120346989D01*
X104008218Y-120416147D01*
X103979193Y-120479703D01*
X103973161Y-120486181D01*
X102696162Y-121763181D01*
X102634839Y-121796666D01*
X102608481Y-121799500D01*
X87431004Y-121799500D01*
X87295677Y-121826418D01*
X87295667Y-121826421D01*
X87168190Y-121879223D01*
X87162819Y-121882095D01*
X87162123Y-121880794D01*
X87102438Y-121899480D01*
X87100230Y-121899500D01*
X86399768Y-121899500D01*
X86337627Y-121881253D01*
X86337178Y-121882095D01*
X86333137Y-121879934D01*
X86332729Y-121879815D01*
X86331913Y-121879280D01*
X86331809Y-121879225D01*
X86204328Y-121826420D01*
X86204320Y-121826418D01*
X86068998Y-121799501D01*
X86068994Y-121799501D01*
X85931006Y-121799501D01*
X85863338Y-121812960D01*
X85795669Y-121826420D01*
X85668189Y-121879225D01*
X85668185Y-121879227D01*
X85553461Y-121955883D01*
X85553453Y-121955889D01*
X82368388Y-125140953D01*
X82368387Y-125140954D01*
X82291722Y-125255692D01*
X82238917Y-125383176D01*
X82238132Y-125385766D01*
X82237259Y-125387179D01*
X82236589Y-125388799D01*
X82236327Y-125388690D01*
X82204885Y-125439652D01*
X82195536Y-125448533D01*
X82181344Y-125457288D01*
X82086589Y-125552042D01*
X82085408Y-125553165D01*
X82055680Y-125568423D01*
X82026356Y-125584435D01*
X82024713Y-125584317D01*
X82023248Y-125585070D01*
X81989993Y-125581834D01*
X81956665Y-125579451D01*
X81955089Y-125578438D01*
X81953707Y-125578304D01*
X81948564Y-125574244D01*
X81912318Y-125550950D01*
X81818657Y-125457289D01*
X81818656Y-125457288D01*
X81669334Y-125365186D01*
X81502797Y-125310001D01*
X81502795Y-125310000D01*
X81400010Y-125299500D01*
X80774998Y-125299500D01*
X80774980Y-125299501D01*
X80672203Y-125310000D01*
X80672200Y-125310001D01*
X80505668Y-125365185D01*
X80505663Y-125365187D01*
X80356342Y-125457289D01*
X80232289Y-125581342D01*
X80140187Y-125730663D01*
X80140185Y-125730668D01*
X80127372Y-125769336D01*
X80085001Y-125897203D01*
X80085001Y-125897204D01*
X80085000Y-125897204D01*
X80074500Y-125999983D01*
X80074500Y-126334481D01*
X80054815Y-126401520D01*
X80002011Y-126447275D01*
X79932853Y-126457219D01*
X79869297Y-126428194D01*
X79862819Y-126422162D01*
X78761818Y-125321161D01*
X78728333Y-125259838D01*
X78725499Y-125233480D01*
X78725499Y-124749998D01*
X78725498Y-124749981D01*
X78714999Y-124647203D01*
X78714998Y-124647200D01*
X78699137Y-124599335D01*
X78659814Y-124480666D01*
X78567712Y-124331344D01*
X78443656Y-124207288D01*
X78301059Y-124119334D01*
X78294336Y-124115187D01*
X78294331Y-124115185D01*
X78273285Y-124108211D01*
X78127797Y-124060001D01*
X78127795Y-124060000D01*
X78025010Y-124049500D01*
X76974998Y-124049500D01*
X76974980Y-124049501D01*
X76872203Y-124060000D01*
X76872200Y-124060001D01*
X76705668Y-124115185D01*
X76705663Y-124115187D01*
X76556342Y-124207289D01*
X76432289Y-124331342D01*
X76340187Y-124480663D01*
X76340186Y-124480666D01*
X76285001Y-124647203D01*
X76285001Y-124647204D01*
X76285000Y-124647204D01*
X76274500Y-124749983D01*
X76274500Y-125350001D01*
X76274501Y-125350019D01*
X76285000Y-125452796D01*
X76285001Y-125452799D01*
X76334706Y-125602796D01*
X76340186Y-125619334D01*
X76432288Y-125768656D01*
X76556344Y-125892712D01*
X76559628Y-125894737D01*
X76559653Y-125894753D01*
X76561445Y-125896746D01*
X76562011Y-125897193D01*
X76561934Y-125897289D01*
X76606379Y-125946699D01*
X76617603Y-126015661D01*
X76589761Y-126079744D01*
X76559665Y-126105826D01*
X76556660Y-126107679D01*
X76556655Y-126107683D01*
X76432684Y-126231654D01*
X76340643Y-126380875D01*
X76340641Y-126380880D01*
X76285494Y-126547302D01*
X76285493Y-126547309D01*
X76275000Y-126650013D01*
X76275000Y-126700000D01*
X77376000Y-126700000D01*
X77443039Y-126719685D01*
X77488794Y-126772489D01*
X77500000Y-126824000D01*
X77500000Y-126950000D01*
X77626000Y-126950000D01*
X77693039Y-126969685D01*
X77738794Y-127022489D01*
X77750000Y-127074000D01*
X77750000Y-127949999D01*
X78024972Y-127949999D01*
X78024986Y-127949998D01*
X78127697Y-127939505D01*
X78294119Y-127884358D01*
X78294124Y-127884356D01*
X78443345Y-127792315D01*
X78567316Y-127668344D01*
X78567317Y-127668342D01*
X78569960Y-127664059D01*
X78621906Y-127617333D01*
X78690869Y-127606109D01*
X78754952Y-127633951D01*
X78793809Y-127692019D01*
X78799500Y-127729153D01*
X78799500Y-129317795D01*
X78790855Y-129347234D01*
X78784332Y-129377222D01*
X78780577Y-129382237D01*
X78779815Y-129384834D01*
X78763182Y-129405476D01*
X78763181Y-129405477D01*
X78675166Y-129493491D01*
X78613842Y-129526975D01*
X78544151Y-129521991D01*
X78488217Y-129480119D01*
X78481946Y-129470906D01*
X78442315Y-129406654D01*
X78318345Y-129282684D01*
X78169124Y-129190643D01*
X78169119Y-129190641D01*
X78002697Y-129135494D01*
X78002690Y-129135493D01*
X77899986Y-129125000D01*
X77750000Y-129125000D01*
X77750000Y-130219670D01*
X77730255Y-130199925D01*
X77644745Y-130150556D01*
X77549370Y-130125000D01*
X77450630Y-130125000D01*
X77355255Y-130150556D01*
X77269745Y-130199925D01*
X77250000Y-130219670D01*
X77250000Y-129125000D01*
X77100027Y-129125000D01*
X77100012Y-129125001D01*
X76997302Y-129135494D01*
X76830880Y-129190641D01*
X76830875Y-129190643D01*
X76681654Y-129282684D01*
X76557684Y-129406654D01*
X76465643Y-129555875D01*
X76465641Y-129555880D01*
X76410494Y-129722302D01*
X76410493Y-129722309D01*
X76400000Y-129825013D01*
X76400000Y-130250000D01*
X77219670Y-130250000D01*
X77199925Y-130269745D01*
X77150556Y-130355255D01*
X77125000Y-130450630D01*
X77125000Y-130549370D01*
X77150556Y-130644745D01*
X77199925Y-130730255D01*
X77219670Y-130750000D01*
X76400001Y-130750000D01*
X76400001Y-131174986D01*
X76410494Y-131277697D01*
X76465641Y-131444119D01*
X76465643Y-131444124D01*
X76557684Y-131593345D01*
X76681654Y-131717315D01*
X76830875Y-131809356D01*
X76830880Y-131809358D01*
X76997302Y-131864505D01*
X76997309Y-131864506D01*
X77100019Y-131874999D01*
X77249999Y-131874999D01*
X77250000Y-131874998D01*
X77250000Y-130780330D01*
X77269745Y-130800075D01*
X77355255Y-130849444D01*
X77450630Y-130875000D01*
X77549370Y-130875000D01*
X77644745Y-130849444D01*
X77730255Y-130800075D01*
X77750000Y-130780330D01*
X77750000Y-131874999D01*
X77899972Y-131874999D01*
X77899986Y-131874998D01*
X78002697Y-131864505D01*
X78169119Y-131809358D01*
X78169124Y-131809356D01*
X78318345Y-131717315D01*
X78442315Y-131593345D01*
X78481945Y-131529094D01*
X78533893Y-131482368D01*
X78602855Y-131471145D01*
X78666937Y-131498988D01*
X78675166Y-131506508D01*
X78783072Y-131614414D01*
X78923212Y-131716232D01*
X79077555Y-131794873D01*
X79242299Y-131848402D01*
X79413389Y-131875500D01*
X79413390Y-131875500D01*
X79586610Y-131875500D01*
X79586611Y-131875500D01*
X79757701Y-131848402D01*
X79922445Y-131794873D01*
X80076788Y-131716232D01*
X80216928Y-131614414D01*
X80339414Y-131491928D01*
X80399682Y-131408975D01*
X80455012Y-131366311D01*
X80524626Y-131360332D01*
X80586421Y-131392938D01*
X80600315Y-131408973D01*
X80660586Y-131491928D01*
X80783072Y-131614414D01*
X80923212Y-131716232D01*
X81077555Y-131794873D01*
X81242299Y-131848402D01*
X81413389Y-131875500D01*
X81413390Y-131875500D01*
X81586610Y-131875500D01*
X81586611Y-131875500D01*
X81757701Y-131848402D01*
X81922445Y-131794873D01*
X82076788Y-131716232D01*
X82216928Y-131614414D01*
X82339414Y-131491928D01*
X82441232Y-131351788D01*
X82519873Y-131197445D01*
X82573402Y-131032701D01*
X82600500Y-130861611D01*
X82600500Y-130138389D01*
X82573402Y-129967299D01*
X82519873Y-129802555D01*
X82441232Y-129648212D01*
X82339414Y-129508072D01*
X82236818Y-129405476D01*
X82203334Y-129344153D01*
X82200500Y-129317795D01*
X82200500Y-127763401D01*
X82220185Y-127696362D01*
X82272989Y-127650607D01*
X82342147Y-127640663D01*
X82363499Y-127645693D01*
X82497203Y-127689999D01*
X82599991Y-127700500D01*
X83225008Y-127700499D01*
X83225016Y-127700498D01*
X83225019Y-127700498D01*
X83308022Y-127692019D01*
X83327797Y-127689999D01*
X83494334Y-127634814D01*
X83643656Y-127542712D01*
X83767712Y-127418656D01*
X83859814Y-127269334D01*
X83914999Y-127102797D01*
X83925500Y-127000009D01*
X83925499Y-125999992D01*
X83923218Y-125977666D01*
X83914999Y-125897203D01*
X83900284Y-125852797D01*
X83859814Y-125730666D01*
X83859810Y-125730660D01*
X83859025Y-125728290D01*
X83856623Y-125658462D01*
X83889048Y-125601606D01*
X84862820Y-124627835D01*
X84924142Y-124594351D01*
X84993834Y-124599335D01*
X85049767Y-124641207D01*
X85074184Y-124706671D01*
X85074500Y-124715517D01*
X85074500Y-125500001D01*
X85074501Y-125500019D01*
X85085000Y-125602796D01*
X85085001Y-125602799D01*
X85140185Y-125769331D01*
X85140187Y-125769336D01*
X85166368Y-125811782D01*
X85232288Y-125918656D01*
X85356344Y-126042712D01*
X85505666Y-126134814D01*
X85672203Y-126189999D01*
X85774991Y-126200500D01*
X86400008Y-126200499D01*
X86400016Y-126200498D01*
X86400019Y-126200498D01*
X86456302Y-126194748D01*
X86502797Y-126189999D01*
X86669334Y-126134814D01*
X86818656Y-126042712D01*
X86912321Y-125949046D01*
X86920262Y-125944710D01*
X86925688Y-125937463D01*
X86950447Y-125928228D01*
X86973640Y-125915564D01*
X86982669Y-125916209D01*
X86991152Y-125913046D01*
X87016974Y-125918663D01*
X87043332Y-125920548D01*
X87052384Y-125926365D01*
X87059425Y-125927897D01*
X87087680Y-125949048D01*
X87175682Y-126037050D01*
X87209166Y-126098371D01*
X87212000Y-126124730D01*
X87212000Y-129700270D01*
X87192315Y-129767309D01*
X87175681Y-129787951D01*
X87057289Y-129906342D01*
X86965187Y-130055663D01*
X86965185Y-130055668D01*
X86965115Y-130055880D01*
X86910001Y-130222203D01*
X86910001Y-130222204D01*
X86910000Y-130222204D01*
X86899500Y-130324983D01*
X86899500Y-131675001D01*
X86899501Y-131675018D01*
X86910000Y-131777796D01*
X86910001Y-131777799D01*
X86965185Y-131944331D01*
X86965187Y-131944336D01*
X86988645Y-131982368D01*
X87057288Y-132093656D01*
X87181344Y-132217712D01*
X87330666Y-132309814D01*
X87497203Y-132364999D01*
X87599991Y-132375500D01*
X88400008Y-132375499D01*
X88400016Y-132375498D01*
X88400019Y-132375498D01*
X88456302Y-132369748D01*
X88502797Y-132364999D01*
X88669334Y-132309814D01*
X88818656Y-132217712D01*
X88942712Y-132093656D01*
X88982310Y-132029456D01*
X89034258Y-131982732D01*
X89103220Y-131971509D01*
X89167303Y-131999352D01*
X89175530Y-132006872D01*
X89283072Y-132114414D01*
X89423212Y-132216232D01*
X89577555Y-132294873D01*
X89742299Y-132348402D01*
X89913389Y-132375500D01*
X89913390Y-132375500D01*
X90086610Y-132375500D01*
X90086611Y-132375500D01*
X90257701Y-132348402D01*
X90422445Y-132294873D01*
X90576788Y-132216232D01*
X90716928Y-132114414D01*
X90839414Y-131991928D01*
X90899682Y-131908975D01*
X90955012Y-131866311D01*
X91024626Y-131860332D01*
X91086421Y-131892938D01*
X91100315Y-131908973D01*
X91160586Y-131991928D01*
X91283072Y-132114414D01*
X91423212Y-132216232D01*
X91577555Y-132294873D01*
X91742299Y-132348402D01*
X91913389Y-132375500D01*
X91913390Y-132375500D01*
X92086610Y-132375500D01*
X92086611Y-132375500D01*
X92257701Y-132348402D01*
X92422445Y-132294873D01*
X92576788Y-132216232D01*
X92716928Y-132114414D01*
X92839414Y-131991928D01*
X92941232Y-131851788D01*
X93019873Y-131697445D01*
X93073402Y-131532701D01*
X93100500Y-131361611D01*
X93100500Y-130638389D01*
X93073402Y-130467299D01*
X93019873Y-130302555D01*
X92941232Y-130148212D01*
X92839414Y-130008072D01*
X92748680Y-129917338D01*
X92715195Y-129856015D01*
X92720179Y-129786323D01*
X92748678Y-129741978D01*
X97753838Y-124736819D01*
X97815161Y-124703334D01*
X97841519Y-124700500D01*
X104058996Y-124700500D01*
X104150040Y-124682389D01*
X104194328Y-124673580D01*
X104287923Y-124634812D01*
X104321807Y-124620777D01*
X104321808Y-124620776D01*
X104321811Y-124620775D01*
X104436543Y-124544114D01*
X108671461Y-120309194D01*
X108732782Y-120275711D01*
X108760115Y-120272881D01*
X108769377Y-120272953D01*
X108779139Y-120274500D01*
X108960861Y-120274500D01*
X108961101Y-120274461D01*
X108966455Y-120274504D01*
X108999474Y-120284481D01*
X109032519Y-120294185D01*
X109032850Y-120294567D01*
X109033338Y-120294715D01*
X109055766Y-120321014D01*
X109078274Y-120346989D01*
X109078346Y-120347490D01*
X109078676Y-120347877D01*
X109083312Y-120382031D01*
X109088218Y-120416147D01*
X109088006Y-120416609D01*
X109088075Y-120417112D01*
X109073535Y-120448298D01*
X109059193Y-120479703D01*
X109058592Y-120480347D01*
X109058551Y-120480437D01*
X109058450Y-120480500D01*
X109053161Y-120486181D01*
X102955888Y-126583453D01*
X102955887Y-126583454D01*
X102879222Y-126698192D01*
X102826421Y-126825667D01*
X102826418Y-126825679D01*
X102800520Y-126955877D01*
X102800519Y-126955882D01*
X102799501Y-126960996D01*
X102799500Y-126961011D01*
X102799500Y-129817795D01*
X102779815Y-129884834D01*
X102763182Y-129905476D01*
X102660583Y-130008075D01*
X102660581Y-130008078D01*
X102600317Y-130091023D01*
X102544987Y-130133689D01*
X102475374Y-130139667D01*
X102413579Y-130107061D01*
X102399683Y-130091023D01*
X102351899Y-130025257D01*
X102339414Y-130008072D01*
X102216928Y-129885586D01*
X102076788Y-129783768D01*
X101922445Y-129705127D01*
X101757701Y-129651598D01*
X101757699Y-129651597D01*
X101757698Y-129651597D01*
X101607768Y-129627851D01*
X101586611Y-129624500D01*
X101413389Y-129624500D01*
X101392232Y-129627851D01*
X101242302Y-129651597D01*
X101242299Y-129651598D01*
X101093387Y-129699983D01*
X101077552Y-129705128D01*
X100923211Y-129783768D01*
X100783073Y-129885585D01*
X100675530Y-129993128D01*
X100614207Y-130026612D01*
X100544515Y-130021628D01*
X100488582Y-129979756D01*
X100482310Y-129970543D01*
X100457922Y-129931004D01*
X100442712Y-129906344D01*
X100318656Y-129782288D01*
X100193559Y-129705128D01*
X100169336Y-129690187D01*
X100169331Y-129690185D01*
X100167862Y-129689698D01*
X100002797Y-129635001D01*
X100002795Y-129635000D01*
X99900010Y-129624500D01*
X99099998Y-129624500D01*
X99099980Y-129624501D01*
X98997203Y-129635000D01*
X98997200Y-129635001D01*
X98830668Y-129690185D01*
X98830663Y-129690187D01*
X98681342Y-129782289D01*
X98557289Y-129906342D01*
X98465187Y-130055663D01*
X98465185Y-130055668D01*
X98465115Y-130055880D01*
X98410001Y-130222203D01*
X98410001Y-130222204D01*
X98410000Y-130222204D01*
X98399500Y-130324983D01*
X98399500Y-131675001D01*
X98399501Y-131675018D01*
X98410000Y-131777796D01*
X98410001Y-131777799D01*
X98465185Y-131944331D01*
X98465187Y-131944336D01*
X98488645Y-131982368D01*
X98557288Y-132093656D01*
X98681344Y-132217712D01*
X98830666Y-132309814D01*
X98997203Y-132364999D01*
X99099991Y-132375500D01*
X99900008Y-132375499D01*
X99900016Y-132375498D01*
X99900019Y-132375498D01*
X99956302Y-132369748D01*
X100002797Y-132364999D01*
X100169334Y-132309814D01*
X100318656Y-132217712D01*
X100442712Y-132093656D01*
X100482310Y-132029456D01*
X100534258Y-131982732D01*
X100603220Y-131971509D01*
X100667303Y-131999352D01*
X100675530Y-132006872D01*
X100783072Y-132114414D01*
X100923212Y-132216232D01*
X101077555Y-132294873D01*
X101242299Y-132348402D01*
X101413389Y-132375500D01*
X101413390Y-132375500D01*
X101586610Y-132375500D01*
X101586611Y-132375500D01*
X101757701Y-132348402D01*
X101922445Y-132294873D01*
X102076788Y-132216232D01*
X102216928Y-132114414D01*
X102339414Y-131991928D01*
X102399682Y-131908975D01*
X102455012Y-131866311D01*
X102524626Y-131860332D01*
X102586421Y-131892938D01*
X102600315Y-131908973D01*
X102660586Y-131991928D01*
X102783072Y-132114414D01*
X102923212Y-132216232D01*
X103077555Y-132294873D01*
X103242299Y-132348402D01*
X103413389Y-132375500D01*
X103413390Y-132375500D01*
X103586610Y-132375500D01*
X103586611Y-132375500D01*
X103757701Y-132348402D01*
X103922445Y-132294873D01*
X104076788Y-132216232D01*
X104216928Y-132114414D01*
X104339414Y-131991928D01*
X104441232Y-131851788D01*
X104519873Y-131697445D01*
X104573402Y-131532701D01*
X104600500Y-131361611D01*
X104600500Y-130638389D01*
X104573402Y-130467299D01*
X104519873Y-130302555D01*
X104441232Y-130148212D01*
X104339414Y-130008072D01*
X104236818Y-129905476D01*
X104203334Y-129844153D01*
X104200500Y-129817795D01*
X104200500Y-127524986D01*
X110050001Y-127524986D01*
X110060494Y-127627697D01*
X110115641Y-127794119D01*
X110115643Y-127794124D01*
X110207684Y-127943345D01*
X110331654Y-128067315D01*
X110480875Y-128159356D01*
X110480880Y-128159358D01*
X110647302Y-128214505D01*
X110647309Y-128214506D01*
X110750019Y-128224999D01*
X110799999Y-128224998D01*
X110800000Y-128224998D01*
X110800000Y-127250000D01*
X110050001Y-127250000D01*
X110050001Y-127524986D01*
X104200500Y-127524986D01*
X104200500Y-127371518D01*
X104209144Y-127342077D01*
X104215668Y-127312091D01*
X104219422Y-127307075D01*
X104220185Y-127304479D01*
X104236814Y-127283842D01*
X105045643Y-126475013D01*
X110050000Y-126475013D01*
X110050000Y-126750000D01*
X110800000Y-126750000D01*
X110800000Y-125775000D01*
X110799999Y-125774999D01*
X110750029Y-125775000D01*
X110750011Y-125775001D01*
X110647302Y-125785494D01*
X110480880Y-125840641D01*
X110480875Y-125840643D01*
X110331654Y-125932684D01*
X110207684Y-126056654D01*
X110115643Y-126205875D01*
X110115641Y-126205880D01*
X110060494Y-126372302D01*
X110060493Y-126372309D01*
X110050000Y-126475013D01*
X105045643Y-126475013D01*
X111211461Y-120309194D01*
X111272782Y-120275711D01*
X111300115Y-120272881D01*
X111309377Y-120272953D01*
X111319139Y-120274500D01*
X111500861Y-120274500D01*
X111501101Y-120274461D01*
X111506455Y-120274504D01*
X111539474Y-120284481D01*
X111572519Y-120294185D01*
X111572850Y-120294567D01*
X111573338Y-120294715D01*
X111595766Y-120321014D01*
X111618274Y-120346989D01*
X111618346Y-120347490D01*
X111618676Y-120347877D01*
X111623312Y-120382031D01*
X111628218Y-120416147D01*
X111628006Y-120416609D01*
X111628075Y-120417112D01*
X111613535Y-120448298D01*
X111599193Y-120479703D01*
X111598592Y-120480347D01*
X111598551Y-120480437D01*
X111598450Y-120480500D01*
X111593161Y-120486181D01*
X110543383Y-121535959D01*
X110521314Y-121568991D01*
X110521312Y-121568994D01*
X110466728Y-121650683D01*
X110466721Y-121650695D01*
X110413921Y-121778167D01*
X110413918Y-121778177D01*
X110387000Y-121913504D01*
X110387000Y-122375270D01*
X110367315Y-122442309D01*
X110350681Y-122462951D01*
X110232289Y-122581342D01*
X110140187Y-122730663D01*
X110140185Y-122730668D01*
X110123647Y-122780577D01*
X110085001Y-122897203D01*
X110085001Y-122897204D01*
X110085000Y-122897204D01*
X110074500Y-122999983D01*
X110074500Y-124000001D01*
X110074501Y-124000019D01*
X110085000Y-124102796D01*
X110085001Y-124102799D01*
X110119626Y-124207288D01*
X110140186Y-124269334D01*
X110232288Y-124418656D01*
X110356344Y-124542712D01*
X110505666Y-124634814D01*
X110672203Y-124689999D01*
X110774991Y-124700500D01*
X111400008Y-124700499D01*
X111400016Y-124700498D01*
X111400019Y-124700498D01*
X111456302Y-124694748D01*
X111502797Y-124689999D01*
X111669334Y-124634814D01*
X111818656Y-124542712D01*
X111912321Y-124449046D01*
X111920262Y-124444710D01*
X111925688Y-124437463D01*
X111950447Y-124428228D01*
X111973640Y-124415564D01*
X111982669Y-124416209D01*
X111991152Y-124413046D01*
X112016974Y-124418663D01*
X112043332Y-124420548D01*
X112052384Y-124426365D01*
X112059425Y-124427897D01*
X112087680Y-124449048D01*
X112175682Y-124537050D01*
X112209166Y-124598371D01*
X112212000Y-124624730D01*
X112212000Y-125900270D01*
X112192315Y-125967309D01*
X112175681Y-125987951D01*
X112107288Y-126056343D01*
X112107283Y-126056349D01*
X112105241Y-126059661D01*
X112103247Y-126061453D01*
X112102807Y-126062011D01*
X112102711Y-126061935D01*
X112053291Y-126106383D01*
X111984328Y-126117602D01*
X111920247Y-126089755D01*
X111894168Y-126059656D01*
X111892319Y-126056659D01*
X111892316Y-126056655D01*
X111768345Y-125932684D01*
X111619124Y-125840643D01*
X111619119Y-125840641D01*
X111452697Y-125785494D01*
X111452690Y-125785493D01*
X111349986Y-125775000D01*
X111300000Y-125775000D01*
X111300000Y-128224999D01*
X111349972Y-128224999D01*
X111349986Y-128224998D01*
X111452697Y-128214505D01*
X111619119Y-128159358D01*
X111619124Y-128159356D01*
X111768345Y-128067315D01*
X111892318Y-127943342D01*
X111894165Y-127940348D01*
X111895969Y-127938724D01*
X111896798Y-127937677D01*
X111896976Y-127937818D01*
X111946110Y-127893621D01*
X112015073Y-127882396D01*
X112079156Y-127910236D01*
X112089404Y-127919823D01*
X112098402Y-127929250D01*
X112107288Y-127943656D01*
X112214211Y-128050579D01*
X112215198Y-128051613D01*
X112230593Y-128081437D01*
X112246666Y-128110872D01*
X112246897Y-128113021D01*
X112247247Y-128113699D01*
X112247117Y-128115067D01*
X112249500Y-128137230D01*
X112249500Y-129505113D01*
X112229815Y-129572152D01*
X112177011Y-129617907D01*
X112107853Y-129627851D01*
X112106103Y-129627587D01*
X112086611Y-129624500D01*
X111913389Y-129624500D01*
X111892232Y-129627851D01*
X111742302Y-129651597D01*
X111742299Y-129651598D01*
X111593387Y-129699983D01*
X111577552Y-129705128D01*
X111423211Y-129783768D01*
X111283073Y-129885585D01*
X111175166Y-129993492D01*
X111113843Y-130026976D01*
X111044151Y-130021992D01*
X110988218Y-129980120D01*
X110981946Y-129970906D01*
X110942317Y-129906656D01*
X110818345Y-129782684D01*
X110669124Y-129690643D01*
X110669119Y-129690641D01*
X110502697Y-129635494D01*
X110502690Y-129635493D01*
X110399986Y-129625000D01*
X110250000Y-129625000D01*
X110250000Y-130719670D01*
X110230255Y-130699925D01*
X110144745Y-130650556D01*
X110049370Y-130625000D01*
X109950630Y-130625000D01*
X109855255Y-130650556D01*
X109769745Y-130699925D01*
X109750000Y-130719670D01*
X109750000Y-129625000D01*
X109600027Y-129625000D01*
X109600012Y-129625001D01*
X109497302Y-129635494D01*
X109330880Y-129690641D01*
X109330875Y-129690643D01*
X109181654Y-129782684D01*
X109057684Y-129906654D01*
X108965643Y-130055875D01*
X108965641Y-130055880D01*
X108910494Y-130222302D01*
X108910493Y-130222309D01*
X108900000Y-130325013D01*
X108900000Y-130750000D01*
X109719670Y-130750000D01*
X109699925Y-130769745D01*
X109650556Y-130855255D01*
X109625000Y-130950630D01*
X109625000Y-131049370D01*
X109650556Y-131144745D01*
X109699925Y-131230255D01*
X109719670Y-131250000D01*
X108900001Y-131250000D01*
X108900001Y-131674986D01*
X108910494Y-131777697D01*
X108965641Y-131944119D01*
X108965643Y-131944124D01*
X109057684Y-132093345D01*
X109181654Y-132217315D01*
X109330875Y-132309356D01*
X109330880Y-132309358D01*
X109497302Y-132364505D01*
X109497309Y-132364506D01*
X109600019Y-132374999D01*
X109749999Y-132374999D01*
X109750000Y-132374998D01*
X109750000Y-131280330D01*
X109769745Y-131300075D01*
X109855255Y-131349444D01*
X109950630Y-131375000D01*
X110049370Y-131375000D01*
X110144745Y-131349444D01*
X110230255Y-131300075D01*
X110250000Y-131280330D01*
X110250000Y-132374999D01*
X110399972Y-132374999D01*
X110399986Y-132374998D01*
X110502697Y-132364505D01*
X110669119Y-132309358D01*
X110669124Y-132309356D01*
X110818345Y-132217315D01*
X110942315Y-132093345D01*
X110981945Y-132029094D01*
X111033893Y-131982368D01*
X111102855Y-131971145D01*
X111166937Y-131998988D01*
X111175166Y-132006508D01*
X111283072Y-132114414D01*
X111423212Y-132216232D01*
X111577555Y-132294873D01*
X111742299Y-132348402D01*
X111913389Y-132375500D01*
X111913390Y-132375500D01*
X112086610Y-132375500D01*
X112086611Y-132375500D01*
X112257701Y-132348402D01*
X112422445Y-132294873D01*
X112576788Y-132216232D01*
X112716928Y-132114414D01*
X112839414Y-131991928D01*
X112899682Y-131908975D01*
X112955012Y-131866311D01*
X113024626Y-131860332D01*
X113086421Y-131892938D01*
X113100315Y-131908973D01*
X113160586Y-131991928D01*
X113283072Y-132114414D01*
X113423212Y-132216232D01*
X113577555Y-132294873D01*
X113742299Y-132348402D01*
X113913389Y-132375500D01*
X113913390Y-132375500D01*
X114086610Y-132375500D01*
X114086611Y-132375500D01*
X114257701Y-132348402D01*
X114422445Y-132294873D01*
X114576788Y-132216232D01*
X114716928Y-132114414D01*
X114839414Y-131991928D01*
X114941232Y-131851788D01*
X115019873Y-131697445D01*
X115073402Y-131532701D01*
X115100500Y-131361611D01*
X115100500Y-130638389D01*
X115073402Y-130467299D01*
X115019873Y-130302555D01*
X114941232Y-130148212D01*
X114839414Y-130008072D01*
X114736818Y-129905476D01*
X114703334Y-129844153D01*
X114700500Y-129817795D01*
X114700500Y-129429018D01*
X114720185Y-129361979D01*
X114736815Y-129341341D01*
X115341338Y-128736817D01*
X115402661Y-128703333D01*
X115429019Y-128700499D01*
X115900002Y-128700499D01*
X115900008Y-128700499D01*
X116002797Y-128689999D01*
X116169334Y-128634814D01*
X116318656Y-128542712D01*
X116412319Y-128449049D01*
X116473642Y-128415564D01*
X116543334Y-128420548D01*
X116587681Y-128449049D01*
X116681344Y-128542712D01*
X116830666Y-128634814D01*
X116997203Y-128689999D01*
X117099991Y-128700500D01*
X117725008Y-128700499D01*
X117725016Y-128700498D01*
X117725019Y-128700498D01*
X117781302Y-128694748D01*
X117827797Y-128689999D01*
X117994334Y-128634814D01*
X118143656Y-128542712D01*
X118267712Y-128418656D01*
X118359814Y-128269334D01*
X118414999Y-128102797D01*
X118425500Y-128000009D01*
X118425499Y-126999992D01*
X118414999Y-126897203D01*
X118359814Y-126730666D01*
X118267712Y-126581344D01*
X118149319Y-126462951D01*
X118115834Y-126401628D01*
X118113000Y-126375270D01*
X118113000Y-122513504D01*
X118093063Y-122413281D01*
X118091434Y-122405091D01*
X118086080Y-122378171D01*
X118057843Y-122310001D01*
X118042374Y-122272656D01*
X118033276Y-122250691D01*
X118033271Y-122250682D01*
X117956615Y-122135959D01*
X117931384Y-122110728D01*
X117859042Y-122038386D01*
X117083837Y-121263181D01*
X116306838Y-120486181D01*
X116273353Y-120424858D01*
X116278337Y-120355166D01*
X116320209Y-120299233D01*
X116385673Y-120274816D01*
X116394519Y-120274500D01*
X116580860Y-120274500D01*
X116580861Y-120274500D01*
X116760346Y-120246072D01*
X116760349Y-120246071D01*
X116760350Y-120246071D01*
X116933171Y-120189918D01*
X116933171Y-120189917D01*
X116933174Y-120189917D01*
X117095090Y-120107417D01*
X117242106Y-120000603D01*
X117370603Y-119872106D01*
X117477417Y-119725090D01*
X117559917Y-119563174D01*
X117581131Y-119497885D01*
X117616071Y-119390350D01*
X117616071Y-119390349D01*
X117616072Y-119390346D01*
X117637527Y-119254884D01*
X117667456Y-119191750D01*
X117726768Y-119154819D01*
X117796630Y-119155817D01*
X117854863Y-119194427D01*
X117882472Y-119254884D01*
X117888035Y-119290000D01*
X117903928Y-119390347D01*
X117903928Y-119390350D01*
X117960081Y-119563171D01*
X117960083Y-119563174D01*
X118042583Y-119725090D01*
X118149397Y-119872106D01*
X118277894Y-120000603D01*
X118424910Y-120107417D01*
X118586826Y-120189917D01*
X118586828Y-120189918D01*
X118679717Y-120220099D01*
X118759654Y-120246072D01*
X118939139Y-120274500D01*
X118939140Y-120274500D01*
X119120860Y-120274500D01*
X119120861Y-120274500D01*
X119300346Y-120246072D01*
X119300349Y-120246071D01*
X119300350Y-120246071D01*
X119473171Y-120189918D01*
X119473171Y-120189917D01*
X119473174Y-120189917D01*
X119635090Y-120107417D01*
X119782106Y-120000603D01*
X119910603Y-119872106D01*
X120017417Y-119725090D01*
X120099917Y-119563174D01*
X120121131Y-119497885D01*
X120156071Y-119390350D01*
X120156071Y-119390349D01*
X120156072Y-119390346D01*
X120177527Y-119254884D01*
X120207456Y-119191750D01*
X120266768Y-119154819D01*
X120336630Y-119155817D01*
X120394863Y-119194427D01*
X120422472Y-119254884D01*
X120428035Y-119290000D01*
X120443928Y-119390347D01*
X120443928Y-119390350D01*
X120500081Y-119563171D01*
X120500083Y-119563174D01*
X120582583Y-119725090D01*
X120689397Y-119872106D01*
X120817894Y-120000603D01*
X120964910Y-120107417D01*
X121126826Y-120189917D01*
X121126828Y-120189918D01*
X121219717Y-120220099D01*
X121299654Y-120246072D01*
X121479139Y-120274500D01*
X121479140Y-120274500D01*
X121660860Y-120274500D01*
X121660861Y-120274500D01*
X121840346Y-120246072D01*
X121840349Y-120246071D01*
X121840350Y-120246071D01*
X122013171Y-120189918D01*
X122013171Y-120189917D01*
X122013174Y-120189917D01*
X122175090Y-120107417D01*
X122322106Y-120000603D01*
X122450603Y-119872106D01*
X122557417Y-119725090D01*
X122639917Y-119563174D01*
X122661131Y-119497885D01*
X122696071Y-119390350D01*
X122696071Y-119390349D01*
X122696072Y-119390346D01*
X122717527Y-119254884D01*
X122747456Y-119191750D01*
X122806768Y-119154819D01*
X122876630Y-119155817D01*
X122934863Y-119194427D01*
X122962472Y-119254884D01*
X122968035Y-119290000D01*
X122983928Y-119390347D01*
X122983928Y-119390350D01*
X123040081Y-119563171D01*
X123040083Y-119563174D01*
X123122583Y-119725090D01*
X123229397Y-119872106D01*
X123357894Y-120000603D01*
X123504910Y-120107417D01*
X123666826Y-120189917D01*
X123666828Y-120189918D01*
X123759717Y-120220099D01*
X123839654Y-120246072D01*
X124019139Y-120274500D01*
X124019140Y-120274500D01*
X124200860Y-120274500D01*
X124200861Y-120274500D01*
X124380346Y-120246072D01*
X124380349Y-120246071D01*
X124380350Y-120246071D01*
X124553171Y-120189918D01*
X124553171Y-120189917D01*
X124553174Y-120189917D01*
X124715090Y-120107417D01*
X124862106Y-120000603D01*
X124990603Y-119872106D01*
X125097417Y-119725090D01*
X125179917Y-119563174D01*
X125201131Y-119497885D01*
X125236071Y-119390350D01*
X125236071Y-119390349D01*
X125236072Y-119390346D01*
X125257527Y-119254884D01*
X125287456Y-119191750D01*
X125346768Y-119154819D01*
X125416630Y-119155817D01*
X125474863Y-119194427D01*
X125502472Y-119254884D01*
X125508035Y-119290000D01*
X125523928Y-119390347D01*
X125523928Y-119390350D01*
X125580081Y-119563171D01*
X125580083Y-119563174D01*
X125662583Y-119725090D01*
X125769397Y-119872106D01*
X125897894Y-120000603D01*
X125898375Y-120000952D01*
X125898513Y-120001131D01*
X125901599Y-120003767D01*
X125901045Y-120004414D01*
X125941046Y-120056276D01*
X125949500Y-120101277D01*
X125949500Y-129512874D01*
X125929815Y-129579913D01*
X125877011Y-129625668D01*
X125844899Y-129635347D01*
X125742301Y-129651597D01*
X125577552Y-129705128D01*
X125423211Y-129783768D01*
X125366443Y-129825013D01*
X125283072Y-129885586D01*
X125283070Y-129885588D01*
X125283069Y-129885588D01*
X125160588Y-130008069D01*
X125160581Y-130008078D01*
X125100317Y-130091023D01*
X125044987Y-130133689D01*
X124975374Y-130139667D01*
X124913579Y-130107061D01*
X124899683Y-130091023D01*
X124851899Y-130025257D01*
X124839414Y-130008072D01*
X124736818Y-129905476D01*
X124703334Y-129844153D01*
X124700500Y-129817795D01*
X124700500Y-127981006D01*
X124693644Y-127946543D01*
X124693644Y-127946540D01*
X124683543Y-127895761D01*
X124673580Y-127845672D01*
X124670395Y-127837982D01*
X124620777Y-127718192D01*
X124544112Y-127603454D01*
X123486818Y-126546160D01*
X123453333Y-126484837D01*
X123450499Y-126458479D01*
X123450499Y-125974998D01*
X123450498Y-125974981D01*
X123439999Y-125872203D01*
X123439998Y-125872200D01*
X123425601Y-125828752D01*
X123384814Y-125705666D01*
X123292712Y-125556344D01*
X123168656Y-125432288D01*
X123019334Y-125340186D01*
X122852797Y-125285001D01*
X122852795Y-125285000D01*
X122750010Y-125274500D01*
X122149998Y-125274500D01*
X122149980Y-125274501D01*
X122047203Y-125285000D01*
X122047200Y-125285001D01*
X121880668Y-125340185D01*
X121880663Y-125340187D01*
X121731342Y-125432289D01*
X121607285Y-125556346D01*
X121605537Y-125559182D01*
X121603829Y-125560717D01*
X121602807Y-125562011D01*
X121602585Y-125561836D01*
X121553589Y-125605905D01*
X121484626Y-125617126D01*
X121420544Y-125589282D01*
X121394463Y-125559182D01*
X121392714Y-125556346D01*
X121268657Y-125432289D01*
X121268656Y-125432288D01*
X121119334Y-125340186D01*
X120952797Y-125285001D01*
X120952795Y-125285000D01*
X120850010Y-125274500D01*
X120249998Y-125274500D01*
X120249980Y-125274501D01*
X120147203Y-125285000D01*
X120147200Y-125285001D01*
X119980668Y-125340185D01*
X119980663Y-125340187D01*
X119831342Y-125432289D01*
X119707289Y-125556342D01*
X119615187Y-125705663D01*
X119615185Y-125705668D01*
X119607689Y-125728290D01*
X119560001Y-125872203D01*
X119560001Y-125872204D01*
X119560000Y-125872204D01*
X119549500Y-125974983D01*
X119549500Y-127025001D01*
X119549501Y-127025019D01*
X119560000Y-127127796D01*
X119560001Y-127127799D01*
X119615185Y-127294331D01*
X119615187Y-127294336D01*
X119631114Y-127320157D01*
X119701034Y-127433517D01*
X119707289Y-127443657D01*
X119813181Y-127549549D01*
X119846666Y-127610872D01*
X119849500Y-127637230D01*
X119849500Y-129481006D01*
X119849500Y-129618994D01*
X119849500Y-129618996D01*
X119849499Y-129618996D01*
X119876418Y-129754322D01*
X119876421Y-129754332D01*
X119929222Y-129881807D01*
X120005887Y-129996545D01*
X120005888Y-129996546D01*
X120863181Y-130853838D01*
X120896666Y-130915161D01*
X120899500Y-130941519D01*
X120899500Y-131675001D01*
X120899501Y-131675019D01*
X120910000Y-131777796D01*
X120910001Y-131777799D01*
X120965185Y-131944331D01*
X120965187Y-131944336D01*
X120988645Y-131982368D01*
X121057288Y-132093656D01*
X121181344Y-132217712D01*
X121330666Y-132309814D01*
X121497203Y-132364999D01*
X121599991Y-132375500D01*
X122400008Y-132375499D01*
X122400016Y-132375498D01*
X122400019Y-132375498D01*
X122456302Y-132369748D01*
X122502797Y-132364999D01*
X122669334Y-132309814D01*
X122818656Y-132217712D01*
X122942712Y-132093656D01*
X122982310Y-132029456D01*
X123034258Y-131982732D01*
X123103220Y-131971509D01*
X123167303Y-131999352D01*
X123175530Y-132006872D01*
X123283072Y-132114414D01*
X123423212Y-132216232D01*
X123577555Y-132294873D01*
X123742299Y-132348402D01*
X123913389Y-132375500D01*
X123913390Y-132375500D01*
X124086610Y-132375500D01*
X124086611Y-132375500D01*
X124257701Y-132348402D01*
X124367684Y-132312665D01*
X124437522Y-132310671D01*
X124493681Y-132342916D01*
X126015139Y-133864374D01*
X126015149Y-133864385D01*
X126019479Y-133868715D01*
X126019480Y-133868716D01*
X126131284Y-133980520D01*
X126131286Y-133980521D01*
X126131287Y-133980522D01*
X126147203Y-133989711D01*
X126205867Y-134023580D01*
X126205868Y-134023581D01*
X126268209Y-134059574D01*
X126268212Y-134059576D01*
X126268214Y-134059576D01*
X126268215Y-134059577D01*
X126420943Y-134100501D01*
X126420946Y-134100501D01*
X126586653Y-134100501D01*
X126586669Y-134100500D01*
X138920234Y-134100500D01*
X138987273Y-134120185D01*
X138989125Y-134121398D01*
X139120814Y-134209390D01*
X139120827Y-134209397D01*
X139258683Y-134266498D01*
X139266503Y-134269737D01*
X139421153Y-134300499D01*
X139421156Y-134300500D01*
X139421158Y-134300500D01*
X139578844Y-134300500D01*
X139578845Y-134300499D01*
X139733497Y-134269737D01*
X139879179Y-134209394D01*
X140010289Y-134121789D01*
X140121789Y-134010289D01*
X140209394Y-133879179D01*
X140269737Y-133733497D01*
X140300500Y-133578842D01*
X140300500Y-133421158D01*
X140300500Y-133421155D01*
X140300499Y-133421153D01*
X140294402Y-133390500D01*
X140269737Y-133266503D01*
X140248642Y-133215575D01*
X140209397Y-133120827D01*
X140209390Y-133120814D01*
X140121789Y-132989711D01*
X140121786Y-132989707D01*
X140010292Y-132878213D01*
X140010288Y-132878210D01*
X139879185Y-132790609D01*
X139879172Y-132790602D01*
X139733501Y-132730264D01*
X139733489Y-132730261D01*
X139578845Y-132699500D01*
X139578842Y-132699500D01*
X139421158Y-132699500D01*
X139421155Y-132699500D01*
X139266510Y-132730261D01*
X139266498Y-132730264D01*
X139120827Y-132790602D01*
X139120814Y-132790609D01*
X138989125Y-132878602D01*
X138922447Y-132899480D01*
X138920234Y-132899500D01*
X126800097Y-132899500D01*
X126733058Y-132879815D01*
X126712416Y-132863181D01*
X126355449Y-132506214D01*
X126321964Y-132444891D01*
X126326948Y-132375199D01*
X126368820Y-132319266D01*
X126404810Y-132300602D01*
X126422445Y-132294873D01*
X126576788Y-132216232D01*
X126716928Y-132114414D01*
X126839414Y-131991928D01*
X126941232Y-131851788D01*
X127019873Y-131697445D01*
X127073402Y-131532701D01*
X127100500Y-131361611D01*
X127100500Y-130941518D01*
X127120185Y-130874479D01*
X127136814Y-130853841D01*
X127194114Y-130796542D01*
X127270775Y-130681811D01*
X127323580Y-130554328D01*
X127335714Y-130493325D01*
X127350500Y-130418995D01*
X127350500Y-120101277D01*
X127370185Y-120034238D01*
X127398669Y-120004081D01*
X127398401Y-120003767D01*
X127401325Y-120001269D01*
X127401623Y-120000953D01*
X127402106Y-120000603D01*
X127530603Y-119872106D01*
X127637417Y-119725090D01*
X127719917Y-119563174D01*
X127741131Y-119497885D01*
X127776071Y-119390350D01*
X127776071Y-119390349D01*
X127776072Y-119390346D01*
X127797527Y-119254884D01*
X127827456Y-119191750D01*
X127886768Y-119154819D01*
X127956630Y-119155817D01*
X128014863Y-119194427D01*
X128042472Y-119254884D01*
X128048035Y-119290000D01*
X128063928Y-119390347D01*
X128063928Y-119390350D01*
X128120081Y-119563171D01*
X128120083Y-119563174D01*
X128202583Y-119725090D01*
X128309397Y-119872106D01*
X128437894Y-120000603D01*
X128584910Y-120107417D01*
X128746826Y-120189917D01*
X128746828Y-120189918D01*
X128839717Y-120220099D01*
X128919654Y-120246072D01*
X129099139Y-120274500D01*
X129099140Y-120274500D01*
X129280860Y-120274500D01*
X129280861Y-120274500D01*
X129460346Y-120246072D01*
X129460349Y-120246071D01*
X129460350Y-120246071D01*
X129633171Y-120189918D01*
X129633171Y-120189917D01*
X129633174Y-120189917D01*
X129795090Y-120107417D01*
X129942106Y-120000603D01*
X130070603Y-119872106D01*
X130177417Y-119725090D01*
X130259917Y-119563174D01*
X130281131Y-119497885D01*
X130316071Y-119390350D01*
X130316071Y-119390349D01*
X130316072Y-119390346D01*
X130337527Y-119254884D01*
X130367456Y-119191750D01*
X130426768Y-119154819D01*
X130496630Y-119155817D01*
X130554863Y-119194427D01*
X130582472Y-119254884D01*
X130588035Y-119290000D01*
X130603928Y-119390347D01*
X130603928Y-119390350D01*
X130660081Y-119563171D01*
X130660083Y-119563174D01*
X130742583Y-119725090D01*
X130849397Y-119872106D01*
X130977894Y-120000603D01*
X131124910Y-120107417D01*
X131286826Y-120189917D01*
X131286828Y-120189918D01*
X131379717Y-120220099D01*
X131459654Y-120246072D01*
X131639139Y-120274500D01*
X131639140Y-120274500D01*
X131820851Y-120274500D01*
X131820861Y-120274500D01*
X131821443Y-120274407D01*
X131821666Y-120274436D01*
X131825712Y-120274118D01*
X131825778Y-120274967D01*
X131890733Y-120283350D01*
X131928539Y-120309196D01*
X132183181Y-120563838D01*
X132216666Y-120625161D01*
X132219500Y-120651519D01*
X132219500Y-128877357D01*
X132199815Y-128944396D01*
X132147011Y-128990151D01*
X132108102Y-129000715D01*
X132017202Y-129010001D01*
X132017200Y-129010001D01*
X131850668Y-129065185D01*
X131850663Y-129065187D01*
X131701342Y-129157289D01*
X131577289Y-129281342D01*
X131485187Y-129430663D01*
X131485185Y-129430668D01*
X131457945Y-129512874D01*
X131430001Y-129597203D01*
X131430001Y-129597204D01*
X131430000Y-129597204D01*
X131419500Y-129699983D01*
X131419500Y-131300001D01*
X131419501Y-131300018D01*
X131430000Y-131402796D01*
X131430001Y-131402799D01*
X131481564Y-131558404D01*
X131485186Y-131569334D01*
X131577288Y-131718656D01*
X131701344Y-131842712D01*
X131850666Y-131934814D01*
X132017203Y-131989999D01*
X132119991Y-132000500D01*
X133720008Y-132000499D01*
X133731237Y-131999352D01*
X133737895Y-131998671D01*
X133822797Y-131989999D01*
X133989334Y-131934814D01*
X134138656Y-131842712D01*
X134262712Y-131718656D01*
X134292512Y-131670341D01*
X134344458Y-131623618D01*
X134413420Y-131612395D01*
X134477503Y-131640238D01*
X134478758Y-131641385D01*
X134478786Y-131641353D01*
X134482481Y-131644508D01*
X134482490Y-131644517D01*
X134673567Y-131783343D01*
X134726593Y-131810361D01*
X134884003Y-131890566D01*
X134884005Y-131890566D01*
X134884008Y-131890568D01*
X134940662Y-131908976D01*
X135108631Y-131963553D01*
X135341903Y-132000500D01*
X135341908Y-132000500D01*
X135578097Y-132000500D01*
X135811368Y-131963553D01*
X135834961Y-131955887D01*
X136035992Y-131890568D01*
X136246433Y-131783343D01*
X136437510Y-131644517D01*
X136604517Y-131477510D01*
X136629682Y-131442872D01*
X136685011Y-131400207D01*
X136754625Y-131394228D01*
X136816420Y-131426833D01*
X136830318Y-131442873D01*
X136853669Y-131475014D01*
X136855483Y-131477510D01*
X137022490Y-131644517D01*
X137213567Y-131783343D01*
X137266593Y-131810361D01*
X137424003Y-131890566D01*
X137424005Y-131890566D01*
X137424008Y-131890568D01*
X137480662Y-131908976D01*
X137648631Y-131963553D01*
X137881903Y-132000500D01*
X137881908Y-132000500D01*
X138118097Y-132000500D01*
X138351368Y-131963553D01*
X138374961Y-131955887D01*
X138575992Y-131890568D01*
X138786433Y-131783343D01*
X138977510Y-131644517D01*
X139144517Y-131477510D01*
X139283343Y-131286433D01*
X139390568Y-131075992D01*
X139463553Y-130851368D01*
X139465124Y-130841447D01*
X139500500Y-130618097D01*
X139500500Y-130381902D01*
X139464403Y-130153999D01*
X139463553Y-130148632D01*
X139457229Y-130129171D01*
X139455235Y-130059332D01*
X139487478Y-130003176D01*
X140044113Y-129446543D01*
X140070974Y-129406344D01*
X140072386Y-129404229D01*
X140125989Y-129359416D01*
X140195313Y-129350696D01*
X140258346Y-129380839D01*
X140295076Y-129440276D01*
X140299500Y-129473103D01*
X140299500Y-132568993D01*
X140299500Y-132568995D01*
X140299499Y-132568995D01*
X140326418Y-132704322D01*
X140326421Y-132704332D01*
X140379221Y-132831804D01*
X140379228Y-132831817D01*
X140455885Y-132946541D01*
X140455888Y-132946545D01*
X140553454Y-133044111D01*
X140553458Y-133044114D01*
X140668182Y-133120771D01*
X140668195Y-133120778D01*
X140744678Y-133152458D01*
X140795672Y-133173580D01*
X140795679Y-133173581D01*
X140801505Y-133175349D01*
X140801075Y-133176765D01*
X140856474Y-133205737D01*
X140858062Y-133207297D01*
X142438584Y-134787819D01*
X142472069Y-134849142D01*
X142467085Y-134918834D01*
X142425213Y-134974767D01*
X142359749Y-134999184D01*
X142350903Y-134999500D01*
X28624500Y-134999500D01*
X28557461Y-134979815D01*
X28511706Y-134927011D01*
X28500500Y-134875500D01*
X28500500Y-131868872D01*
X29999500Y-131868872D01*
X29999500Y-132131127D01*
X30024611Y-132321851D01*
X30033730Y-132391116D01*
X30099730Y-132637432D01*
X30101602Y-132644418D01*
X30101605Y-132644428D01*
X30201953Y-132886690D01*
X30201958Y-132886700D01*
X30333075Y-133113803D01*
X30492718Y-133321851D01*
X30492726Y-133321860D01*
X30678140Y-133507274D01*
X30678148Y-133507281D01*
X30886196Y-133666924D01*
X31113299Y-133798041D01*
X31113309Y-133798046D01*
X31346115Y-133894477D01*
X31355581Y-133898398D01*
X31608884Y-133966270D01*
X31868880Y-134000500D01*
X31868887Y-134000500D01*
X32131113Y-134000500D01*
X32131120Y-134000500D01*
X32391116Y-133966270D01*
X32644419Y-133898398D01*
X32886697Y-133798043D01*
X33113803Y-133666924D01*
X33321851Y-133507282D01*
X33321855Y-133507277D01*
X33321860Y-133507274D01*
X33507274Y-133321860D01*
X33507277Y-133321855D01*
X33507282Y-133321851D01*
X33666924Y-133113803D01*
X33798043Y-132886697D01*
X33801559Y-132878210D01*
X33834161Y-132799500D01*
X33898398Y-132644419D01*
X33966270Y-132391116D01*
X34000500Y-132131120D01*
X34000500Y-131868880D01*
X33966270Y-131608884D01*
X33899466Y-131359568D01*
X54999500Y-131359568D01*
X54999500Y-131640431D01*
X55030942Y-131919494D01*
X55030945Y-131919512D01*
X55093439Y-132193317D01*
X55093443Y-132193329D01*
X55186200Y-132458411D01*
X55308053Y-132711442D01*
X55308055Y-132711445D01*
X55457477Y-132949248D01*
X55632584Y-133168825D01*
X55831175Y-133367416D01*
X56050752Y-133542523D01*
X56288555Y-133691945D01*
X56541592Y-133813801D01*
X56698530Y-133868716D01*
X56806670Y-133906556D01*
X56806682Y-133906560D01*
X57080491Y-133969055D01*
X57080497Y-133969055D01*
X57080505Y-133969057D01*
X57263784Y-133989707D01*
X57359569Y-134000499D01*
X57359572Y-134000500D01*
X57359575Y-134000500D01*
X57640428Y-134000500D01*
X57640429Y-134000499D01*
X57783055Y-133984429D01*
X57919494Y-133969057D01*
X57919499Y-133969056D01*
X57919509Y-133969055D01*
X58193318Y-133906560D01*
X58458408Y-133813801D01*
X58625320Y-133733419D01*
X58694260Y-133722068D01*
X58758395Y-133749790D01*
X58766802Y-133757459D01*
X59053453Y-134044111D01*
X59053457Y-134044114D01*
X59115143Y-134085331D01*
X59168189Y-134120775D01*
X59168190Y-134120775D01*
X59168191Y-134120776D01*
X59170637Y-134121789D01*
X59295672Y-134173580D01*
X59295676Y-134173580D01*
X59295677Y-134173581D01*
X59431004Y-134200500D01*
X59431007Y-134200500D01*
X65368996Y-134200500D01*
X65460040Y-134182389D01*
X65504328Y-134173580D01*
X65568069Y-134147177D01*
X65631807Y-134120777D01*
X65631808Y-134120776D01*
X65631811Y-134120775D01*
X65746543Y-134044114D01*
X67121820Y-132668835D01*
X67183141Y-132635352D01*
X67241593Y-132636743D01*
X67244162Y-132637431D01*
X67244166Y-132637433D01*
X67462649Y-132695976D01*
X67686905Y-132725500D01*
X67686912Y-132725500D01*
X67913088Y-132725500D01*
X67913095Y-132725500D01*
X68137351Y-132695976D01*
X68355834Y-132637433D01*
X68564806Y-132550874D01*
X68760693Y-132437779D01*
X68940142Y-132300083D01*
X69100083Y-132140142D01*
X69237779Y-131960693D01*
X69350874Y-131764806D01*
X69437433Y-131555834D01*
X69495976Y-131337351D01*
X69525500Y-131113095D01*
X69525500Y-130886905D01*
X69495976Y-130662649D01*
X69437433Y-130444166D01*
X69372977Y-130288555D01*
X69350879Y-130235205D01*
X69350872Y-130235190D01*
X69237779Y-130039307D01*
X69100084Y-129859859D01*
X69100078Y-129859852D01*
X68967361Y-129727135D01*
X70774500Y-129727135D01*
X70774500Y-132272870D01*
X70774501Y-132272876D01*
X70780908Y-132332483D01*
X70831202Y-132467328D01*
X70831206Y-132467335D01*
X70917452Y-132582544D01*
X70917455Y-132582547D01*
X71032664Y-132668793D01*
X71032671Y-132668797D01*
X71167517Y-132719091D01*
X71167516Y-132719091D01*
X71174444Y-132719835D01*
X71227127Y-132725500D01*
X73772872Y-132725499D01*
X73832483Y-132719091D01*
X73967331Y-132668796D01*
X74082546Y-132582546D01*
X74168796Y-132467331D01*
X74219091Y-132332483D01*
X74225500Y-132272873D01*
X74225499Y-129727128D01*
X74219091Y-129667517D01*
X74213153Y-129651597D01*
X74168797Y-129532671D01*
X74168793Y-129532664D01*
X74082547Y-129417455D01*
X74082544Y-129417452D01*
X73967335Y-129331206D01*
X73967328Y-129331202D01*
X73832482Y-129280908D01*
X73832483Y-129280908D01*
X73772883Y-129274501D01*
X73772881Y-129274500D01*
X73772873Y-129274500D01*
X73772864Y-129274500D01*
X71227129Y-129274500D01*
X71227123Y-129274501D01*
X71167516Y-129280908D01*
X71032671Y-129331202D01*
X71032664Y-129331206D01*
X70917455Y-129417452D01*
X70917452Y-129417455D01*
X70831206Y-129532664D01*
X70831202Y-129532671D01*
X70780908Y-129667517D01*
X70776406Y-129709397D01*
X70774501Y-129727123D01*
X70774500Y-129727135D01*
X68967361Y-129727135D01*
X68940147Y-129699921D01*
X68940140Y-129699915D01*
X68760692Y-129562220D01*
X68564809Y-129449127D01*
X68564794Y-129449120D01*
X68355834Y-129362567D01*
X68245773Y-129333076D01*
X68137351Y-129304024D01*
X68137350Y-129304023D01*
X68137347Y-129304023D01*
X67913104Y-129274501D01*
X67913101Y-129274500D01*
X67913095Y-129274500D01*
X67686905Y-129274500D01*
X67686899Y-129274500D01*
X67686895Y-129274501D01*
X67462652Y-129304023D01*
X67244165Y-129362567D01*
X67035205Y-129449120D01*
X67035190Y-129449127D01*
X66839307Y-129562220D01*
X66659859Y-129699915D01*
X66659852Y-129699921D01*
X66499921Y-129859852D01*
X66499915Y-129859859D01*
X66362220Y-130039307D01*
X66249127Y-130235190D01*
X66249120Y-130235205D01*
X66162567Y-130444165D01*
X66104023Y-130662652D01*
X66074501Y-130886895D01*
X66074500Y-130886911D01*
X66074500Y-131113088D01*
X66074501Y-131113104D01*
X66103343Y-131332184D01*
X66104024Y-131337351D01*
X66156368Y-131532701D01*
X66163256Y-131558404D01*
X66161593Y-131628254D01*
X66131162Y-131678179D01*
X65046162Y-132763181D01*
X64984839Y-132796666D01*
X64958481Y-132799500D01*
X63887960Y-132799500D01*
X63820921Y-132779815D01*
X63775166Y-132727011D01*
X63765222Y-132657853D01*
X63794247Y-132594297D01*
X63840508Y-132560939D01*
X63864794Y-132550879D01*
X63864794Y-132550878D01*
X63864806Y-132550874D01*
X64060693Y-132437779D01*
X64240142Y-132300083D01*
X64400083Y-132140142D01*
X64537779Y-131960693D01*
X64650874Y-131764806D01*
X64737433Y-131555834D01*
X64795976Y-131337351D01*
X64825500Y-131113095D01*
X64825500Y-130886905D01*
X64795976Y-130662649D01*
X64737433Y-130444166D01*
X64672977Y-130288555D01*
X64650879Y-130235205D01*
X64650872Y-130235190D01*
X64537779Y-130039307D01*
X64400084Y-129859859D01*
X64400078Y-129859852D01*
X64240147Y-129699921D01*
X64240140Y-129699915D01*
X64060692Y-129562220D01*
X63864809Y-129449127D01*
X63864794Y-129449120D01*
X63655834Y-129362567D01*
X63545773Y-129333076D01*
X63437351Y-129304024D01*
X63437350Y-129304023D01*
X63437347Y-129304023D01*
X63213104Y-129274501D01*
X63213101Y-129274500D01*
X63213095Y-129274500D01*
X62986905Y-129274500D01*
X62986899Y-129274500D01*
X62986895Y-129274501D01*
X62762652Y-129304023D01*
X62544165Y-129362567D01*
X62335205Y-129449120D01*
X62335190Y-129449127D01*
X62139307Y-129562220D01*
X61959859Y-129699915D01*
X61959852Y-129699921D01*
X61799921Y-129859852D01*
X61799915Y-129859859D01*
X61662220Y-130039307D01*
X61549127Y-130235190D01*
X61549120Y-130235205D01*
X61462567Y-130444165D01*
X61404023Y-130662652D01*
X61374501Y-130886895D01*
X61374500Y-130886911D01*
X61374500Y-131113088D01*
X61374501Y-131113104D01*
X61403343Y-131332184D01*
X61404024Y-131337351D01*
X61418598Y-131391742D01*
X61462567Y-131555834D01*
X61549120Y-131764794D01*
X61549127Y-131764809D01*
X61662220Y-131960692D01*
X61799915Y-132140140D01*
X61799921Y-132140147D01*
X61959852Y-132300078D01*
X61959859Y-132300084D01*
X62139307Y-132437779D01*
X62335190Y-132550872D01*
X62335205Y-132550879D01*
X62359492Y-132560939D01*
X62413896Y-132604779D01*
X62435961Y-132671073D01*
X62418682Y-132738773D01*
X62367545Y-132786383D01*
X62312040Y-132799500D01*
X59846884Y-132799500D01*
X59779845Y-132779815D01*
X59734090Y-132727011D01*
X59724146Y-132657853D01*
X59735164Y-132621698D01*
X59813801Y-132458408D01*
X59906560Y-132193318D01*
X59969055Y-131919509D01*
X59971310Y-131899500D01*
X59990350Y-131730512D01*
X60000500Y-131640425D01*
X60000500Y-131359575D01*
X59986627Y-131236448D01*
X59969057Y-131080501D01*
X59969054Y-131080487D01*
X59924708Y-130886196D01*
X59906560Y-130806682D01*
X59893724Y-130770000D01*
X59879817Y-130730255D01*
X59813801Y-130541592D01*
X59691945Y-130288555D01*
X59542523Y-130050752D01*
X59367416Y-129831175D01*
X59168825Y-129632584D01*
X58949248Y-129457477D01*
X58749252Y-129331811D01*
X58711442Y-129308053D01*
X58458411Y-129186200D01*
X58330784Y-129141541D01*
X58274008Y-129100819D01*
X58248261Y-129035867D01*
X58261717Y-128967305D01*
X58310105Y-128916902D01*
X58371739Y-128900500D01*
X58704730Y-128900500D01*
X58704736Y-128900500D01*
X58837983Y-128890013D01*
X59058000Y-128834574D01*
X59264582Y-128740740D01*
X59264584Y-128740738D01*
X59264589Y-128740736D01*
X59437740Y-128620775D01*
X59451089Y-128611527D01*
X59611527Y-128451089D01*
X59667053Y-128370943D01*
X59740736Y-128264589D01*
X59740741Y-128264579D01*
X59742054Y-128261690D01*
X59834574Y-128058000D01*
X59890013Y-127837983D01*
X59900500Y-127704736D01*
X59900500Y-127249986D01*
X76275001Y-127249986D01*
X76285494Y-127352697D01*
X76340641Y-127519119D01*
X76340643Y-127519124D01*
X76432684Y-127668345D01*
X76556654Y-127792315D01*
X76705875Y-127884356D01*
X76705880Y-127884358D01*
X76872302Y-127939505D01*
X76872309Y-127939506D01*
X76975019Y-127949999D01*
X77249999Y-127949999D01*
X77250000Y-127949998D01*
X77250000Y-127200000D01*
X76275001Y-127200000D01*
X76275001Y-127249986D01*
X59900500Y-127249986D01*
X59900500Y-125295264D01*
X59890013Y-125162017D01*
X59834574Y-124942000D01*
X59813132Y-124894795D01*
X59740741Y-124735420D01*
X59740736Y-124735410D01*
X59611526Y-124548909D01*
X59451089Y-124388472D01*
X59264589Y-124259263D01*
X59264579Y-124259258D01*
X59058002Y-124165426D01*
X58911322Y-124128466D01*
X58837983Y-124109987D01*
X58804671Y-124107365D01*
X58704739Y-124099500D01*
X58704736Y-124099500D01*
X56295264Y-124099500D01*
X56295260Y-124099500D01*
X56162017Y-124109987D01*
X55941997Y-124165426D01*
X55735420Y-124259258D01*
X55735410Y-124259263D01*
X55548911Y-124388472D01*
X55388473Y-124548909D01*
X55259263Y-124735410D01*
X55259258Y-124735420D01*
X55165426Y-124941997D01*
X55109987Y-125162017D01*
X55099500Y-125295260D01*
X55099500Y-127704739D01*
X55106393Y-127792315D01*
X55109987Y-127837983D01*
X55128193Y-127910236D01*
X55165426Y-128058002D01*
X55259258Y-128264579D01*
X55259263Y-128264589D01*
X55388473Y-128451090D01*
X55548909Y-128611526D01*
X55735410Y-128740736D01*
X55735420Y-128740741D01*
X55941997Y-128834573D01*
X55941998Y-128834573D01*
X55942000Y-128834574D01*
X56162017Y-128890013D01*
X56295264Y-128900500D01*
X56295270Y-128900500D01*
X56628261Y-128900500D01*
X56695300Y-128920185D01*
X56741055Y-128972989D01*
X56750999Y-129042147D01*
X56721974Y-129105703D01*
X56669216Y-129141541D01*
X56541588Y-129186200D01*
X56288557Y-129308053D01*
X56050753Y-129457476D01*
X55831175Y-129632583D01*
X55632583Y-129831175D01*
X55457476Y-130050753D01*
X55308053Y-130288557D01*
X55186200Y-130541588D01*
X55093443Y-130806670D01*
X55093439Y-130806682D01*
X55030945Y-131080487D01*
X55030943Y-131080501D01*
X54999500Y-131359568D01*
X33899466Y-131359568D01*
X33898398Y-131355581D01*
X33866179Y-131277797D01*
X33798046Y-131113309D01*
X33798041Y-131113299D01*
X33666924Y-130886196D01*
X33515992Y-130689500D01*
X33507282Y-130678149D01*
X33507281Y-130678148D01*
X33507274Y-130678140D01*
X33321860Y-130492726D01*
X33321851Y-130492718D01*
X33113803Y-130333075D01*
X32886700Y-130201958D01*
X32886690Y-130201953D01*
X32644428Y-130101605D01*
X32644421Y-130101603D01*
X32644419Y-130101602D01*
X32391116Y-130033730D01*
X32333339Y-130026123D01*
X32131127Y-129999500D01*
X32131120Y-129999500D01*
X31868880Y-129999500D01*
X31868872Y-129999500D01*
X31660184Y-130026976D01*
X31608884Y-130033730D01*
X31526219Y-130055880D01*
X31355581Y-130101602D01*
X31355571Y-130101605D01*
X31113309Y-130201953D01*
X31113299Y-130201958D01*
X30886196Y-130333075D01*
X30678148Y-130492718D01*
X30492718Y-130678148D01*
X30333075Y-130886196D01*
X30201958Y-131113299D01*
X30201953Y-131113309D01*
X30101605Y-131355571D01*
X30101603Y-131355578D01*
X30101602Y-131355581D01*
X30037811Y-131593656D01*
X30033730Y-131608885D01*
X29999500Y-131868872D01*
X28500500Y-131868872D01*
X28500500Y-120109235D01*
X38915700Y-120109235D01*
X38915700Y-120890770D01*
X38915701Y-120890776D01*
X38922108Y-120950383D01*
X38972402Y-121085228D01*
X38972406Y-121085235D01*
X39058652Y-121200444D01*
X39058655Y-121200447D01*
X39173864Y-121286693D01*
X39173873Y-121286698D01*
X39244632Y-121313089D01*
X39300566Y-121354959D01*
X39324984Y-121420423D01*
X39325300Y-121429271D01*
X39325300Y-122110728D01*
X39305615Y-122177767D01*
X39252811Y-122223522D01*
X39244633Y-122226910D01*
X39173871Y-122253302D01*
X39173864Y-122253306D01*
X39058655Y-122339552D01*
X39058652Y-122339555D01*
X38972406Y-122454764D01*
X38972402Y-122454771D01*
X38922108Y-122589617D01*
X38915709Y-122649142D01*
X38915701Y-122649223D01*
X38915700Y-122649235D01*
X38915700Y-123430770D01*
X38915701Y-123430776D01*
X38922108Y-123490383D01*
X38972402Y-123625228D01*
X38972406Y-123625235D01*
X39058652Y-123740444D01*
X39058655Y-123740447D01*
X39173864Y-123826693D01*
X39173873Y-123826698D01*
X39244632Y-123853089D01*
X39300566Y-123894959D01*
X39324984Y-123960423D01*
X39325300Y-123969271D01*
X39325300Y-124650728D01*
X39305615Y-124717767D01*
X39252811Y-124763522D01*
X39244633Y-124766910D01*
X39173871Y-124793302D01*
X39173864Y-124793306D01*
X39058655Y-124879552D01*
X39058652Y-124879555D01*
X38972406Y-124994764D01*
X38972402Y-124994771D01*
X38922108Y-125129617D01*
X38917382Y-125173580D01*
X38915701Y-125189223D01*
X38915700Y-125189235D01*
X38915700Y-125970770D01*
X38915701Y-125970776D01*
X38922108Y-126030383D01*
X38972402Y-126165228D01*
X38972406Y-126165235D01*
X39058652Y-126280444D01*
X39058655Y-126280447D01*
X39173864Y-126366693D01*
X39173873Y-126366698D01*
X39244632Y-126393089D01*
X39300566Y-126434959D01*
X39324984Y-126500423D01*
X39325300Y-126509271D01*
X39325300Y-128531282D01*
X39305615Y-128598321D01*
X39304403Y-128600171D01*
X39290611Y-128620812D01*
X39290602Y-128620828D01*
X39230264Y-128766498D01*
X39230261Y-128766510D01*
X39199500Y-128921153D01*
X39199500Y-129078846D01*
X39230261Y-129233489D01*
X39230264Y-129233501D01*
X39290602Y-129379172D01*
X39290609Y-129379185D01*
X39378210Y-129510288D01*
X39378213Y-129510292D01*
X39489707Y-129621786D01*
X39489711Y-129621789D01*
X39620814Y-129709390D01*
X39620827Y-129709397D01*
X39760641Y-129767309D01*
X39766503Y-129769737D01*
X39869161Y-129790157D01*
X39921153Y-129800499D01*
X39921156Y-129800500D01*
X39921158Y-129800500D01*
X40078844Y-129800500D01*
X40078845Y-129800499D01*
X40233497Y-129769737D01*
X40379179Y-129709394D01*
X40510289Y-129621789D01*
X40621789Y-129510289D01*
X40709394Y-129379179D01*
X40710025Y-129377657D01*
X40740524Y-129304023D01*
X40769737Y-129233497D01*
X40800500Y-129078842D01*
X40800500Y-128921158D01*
X40800500Y-128921155D01*
X40800499Y-128921153D01*
X40794305Y-128890012D01*
X40769737Y-128766503D01*
X40746268Y-128709843D01*
X40735739Y-128684423D01*
X40726300Y-128636971D01*
X40726300Y-126509271D01*
X40745985Y-126442232D01*
X40798789Y-126396477D01*
X40806968Y-126393089D01*
X40877726Y-126366698D01*
X40877726Y-126366697D01*
X40877731Y-126366696D01*
X40992946Y-126280446D01*
X41079196Y-126165231D01*
X41129491Y-126030383D01*
X41135900Y-125970773D01*
X41135899Y-125189228D01*
X41129491Y-125129617D01*
X41126193Y-125120775D01*
X41079197Y-124994771D01*
X41079193Y-124994764D01*
X40992947Y-124879555D01*
X40992944Y-124879552D01*
X40877735Y-124793306D01*
X40877728Y-124793302D01*
X40806967Y-124766910D01*
X40751033Y-124725039D01*
X40726616Y-124659574D01*
X40726300Y-124650728D01*
X40726300Y-123969271D01*
X40745985Y-123902232D01*
X40798789Y-123856477D01*
X40806968Y-123853089D01*
X40877726Y-123826698D01*
X40877726Y-123826697D01*
X40877731Y-123826696D01*
X40992946Y-123740446D01*
X41079196Y-123625231D01*
X41129491Y-123490383D01*
X41135900Y-123430773D01*
X41135899Y-122649228D01*
X41129491Y-122589617D01*
X41128986Y-122588264D01*
X41079197Y-122454771D01*
X41079193Y-122454764D01*
X40992947Y-122339555D01*
X40992944Y-122339552D01*
X40877735Y-122253306D01*
X40877728Y-122253302D01*
X40806967Y-122226910D01*
X40751033Y-122185039D01*
X40726616Y-122119574D01*
X40726300Y-122110728D01*
X40726300Y-121429271D01*
X40745985Y-121362232D01*
X40798789Y-121316477D01*
X40806968Y-121313089D01*
X40877726Y-121286698D01*
X40877726Y-121286697D01*
X40877731Y-121286696D01*
X40992946Y-121200446D01*
X41079196Y-121085231D01*
X41129491Y-120950383D01*
X41135900Y-120890773D01*
X41135899Y-120109228D01*
X41129491Y-120049617D01*
X41125194Y-120038097D01*
X41079197Y-119914771D01*
X41079193Y-119914764D01*
X40992947Y-119799555D01*
X40992944Y-119799552D01*
X40877735Y-119713306D01*
X40877728Y-119713302D01*
X40742882Y-119663008D01*
X40742883Y-119663008D01*
X40683283Y-119656601D01*
X40683281Y-119656600D01*
X40683273Y-119656600D01*
X40683264Y-119656600D01*
X39368329Y-119656600D01*
X39368323Y-119656601D01*
X39308716Y-119663008D01*
X39173871Y-119713302D01*
X39173864Y-119713306D01*
X39058655Y-119799552D01*
X39058652Y-119799555D01*
X38972406Y-119914764D01*
X38972402Y-119914771D01*
X38922108Y-120049617D01*
X38915701Y-120109216D01*
X38915701Y-120109223D01*
X38915700Y-120109235D01*
X28500500Y-120109235D01*
X28500500Y-104368872D01*
X29999500Y-104368872D01*
X29999500Y-104631127D01*
X30025212Y-104826420D01*
X30033730Y-104891116D01*
X30100962Y-105142031D01*
X30101602Y-105144418D01*
X30101605Y-105144428D01*
X30201953Y-105386690D01*
X30201958Y-105386700D01*
X30333075Y-105613803D01*
X30492718Y-105821851D01*
X30492726Y-105821860D01*
X30678140Y-106007274D01*
X30678148Y-106007281D01*
X30886196Y-106166924D01*
X31113299Y-106298041D01*
X31113309Y-106298046D01*
X31355571Y-106398394D01*
X31355581Y-106398398D01*
X31608884Y-106466270D01*
X31868880Y-106500500D01*
X31868887Y-106500500D01*
X32131113Y-106500500D01*
X32131120Y-106500500D01*
X32391116Y-106466270D01*
X32644419Y-106398398D01*
X32886697Y-106298043D01*
X33113803Y-106166924D01*
X33321851Y-106007282D01*
X33321855Y-106007277D01*
X33321860Y-106007274D01*
X33507274Y-105821860D01*
X33507277Y-105821855D01*
X33507282Y-105821851D01*
X33666924Y-105613803D01*
X33798043Y-105386697D01*
X33802889Y-105374999D01*
X33864124Y-105227163D01*
X33898398Y-105144419D01*
X33966270Y-104891116D01*
X34000500Y-104631120D01*
X34000500Y-104368880D01*
X33984849Y-104250000D01*
X33980218Y-104214823D01*
X33974788Y-104173581D01*
X33966270Y-104108884D01*
X33898398Y-103855581D01*
X33894090Y-103845180D01*
X33798046Y-103613309D01*
X33798041Y-103613299D01*
X33699918Y-103443345D01*
X33666924Y-103386197D01*
X33664007Y-103382396D01*
X33548867Y-103232343D01*
X33507282Y-103178149D01*
X33507281Y-103178148D01*
X33507274Y-103178140D01*
X33321860Y-102992726D01*
X33321851Y-102992718D01*
X33113803Y-102833075D01*
X32886700Y-102701958D01*
X32886690Y-102701953D01*
X32644428Y-102601605D01*
X32644421Y-102601603D01*
X32644419Y-102601602D01*
X32391116Y-102533730D01*
X32333339Y-102526123D01*
X32131127Y-102499500D01*
X32131120Y-102499500D01*
X31868880Y-102499500D01*
X31868872Y-102499500D01*
X31637772Y-102529926D01*
X31608884Y-102533730D01*
X31419646Y-102584436D01*
X31355581Y-102601602D01*
X31355571Y-102601605D01*
X31113309Y-102701953D01*
X31113299Y-102701958D01*
X30886196Y-102833075D01*
X30678148Y-102992718D01*
X30492718Y-103178148D01*
X30333075Y-103386196D01*
X30201958Y-103613299D01*
X30201953Y-103613309D01*
X30101605Y-103855571D01*
X30101602Y-103855581D01*
X30033730Y-104108884D01*
X30032164Y-104120777D01*
X29999500Y-104368872D01*
X28500500Y-104368872D01*
X28500500Y-101124500D01*
X28520185Y-101057461D01*
X28572989Y-101011706D01*
X28624500Y-101000500D01*
X67621982Y-101000500D01*
X67689021Y-101020185D01*
G37*
%TD.AperFunction*%
%TD*%
M02*
