%TF.GenerationSoftware,KiCad,Pcbnew,9.0.2*%
%TF.CreationDate,2025-08-17T08:15:12-04:00*%
%TF.ProjectId,Controller_Simple,436f6e74-726f-46c6-9c65-725f53696d70,rev?*%
%TF.SameCoordinates,Original*%
%TF.FileFunction,Soldermask,Top*%
%TF.FilePolarity,Negative*%
%FSLAX46Y46*%
G04 Gerber Fmt 4.6, Leading zero omitted, Abs format (unit mm)*
G04 Created by KiCad (PCBNEW 9.0.2) date 2025-08-17 08:15:12*
%MOMM*%
%LPD*%
G01*
G04 APERTURE LIST*
G04 Aperture macros list*
%AMRoundRect*
0 Rectangle with rounded corners*
0 $1 Rounding radius*
0 $2 $3 $4 $5 $6 $7 $8 $9 X,Y pos of 4 corners*
0 Add a 4 corners polygon primitive as box body*
4,1,4,$2,$3,$4,$5,$6,$7,$8,$9,$2,$3,0*
0 Add four circle primitives for the rounded corners*
1,1,$1+$1,$2,$3*
1,1,$1+$1,$4,$5*
1,1,$1+$1,$6,$7*
1,1,$1+$1,$8,$9*
0 Add four rect primitives between the rounded corners*
20,1,$1+$1,$2,$3,$4,$5,0*
20,1,$1+$1,$4,$5,$6,$7,0*
20,1,$1+$1,$6,$7,$8,$9,0*
20,1,$1+$1,$8,$9,$2,$3,0*%
G04 Aperture macros list end*
%ADD10C,1.562000*%
%ADD11RoundRect,0.102000X0.679000X-0.679000X0.679000X0.679000X-0.679000X0.679000X-0.679000X-0.679000X0*%
%ADD12RoundRect,0.250000X-0.450000X0.262500X-0.450000X-0.262500X0.450000X-0.262500X0.450000X0.262500X0*%
%ADD13RoundRect,0.243750X-0.456250X0.243750X-0.456250X-0.243750X0.456250X-0.243750X0.456250X0.243750X0*%
%ADD14C,2.794000*%
%ADD15R,2.794000X2.794000*%
%ADD16O,1.900000X3.200000*%
%ADD17RoundRect,0.250000X0.262500X0.450000X-0.262500X0.450000X-0.262500X-0.450000X0.262500X-0.450000X0*%
%ADD18O,3.200000X1.900000*%
%ADD19RoundRect,0.250000X-0.475000X0.337500X-0.475000X-0.337500X0.475000X-0.337500X0.475000X0.337500X0*%
%ADD20RoundRect,0.250000X-0.337500X-0.475000X0.337500X-0.475000X0.337500X0.475000X-0.337500X0.475000X0*%
%ADD21RoundRect,0.250000X0.475000X-0.337500X0.475000X0.337500X-0.475000X0.337500X-0.475000X-0.337500X0*%
%ADD22R,1.700000X1.700000*%
%ADD23C,1.700000*%
%ADD24RoundRect,0.250000X-0.262500X-0.450000X0.262500X-0.450000X0.262500X0.450000X-0.262500X0.450000X0*%
%ADD25RoundRect,0.250000X0.325000X0.450000X-0.325000X0.450000X-0.325000X-0.450000X0.325000X-0.450000X0*%
%ADD26C,1.400000*%
%ADD27RoundRect,0.770000X0.980000X-0.980000X0.980000X0.980000X-0.980000X0.980000X-0.980000X-0.980000X0*%
%ADD28C,3.500000*%
G04 APERTURE END LIST*
D10*
%TO.C,PS1*%
X90000000Y-61460000D03*
X90000000Y-64000000D03*
D11*
X90000000Y-66540000D03*
%TD*%
D12*
%TO.C,R9*%
X110000000Y-77500000D03*
X110000000Y-79325000D03*
%TD*%
D13*
%TO.C,D1*%
X110000000Y-71500000D03*
X110000000Y-73375000D03*
%TD*%
D14*
%TO.C,SW9*%
X105301000Y-87500000D03*
X110000000Y-87500000D03*
D15*
X114699000Y-87500000D03*
%TD*%
D12*
%TO.C,R8*%
X60500000Y-87587500D03*
X60500000Y-89412500D03*
%TD*%
D16*
%TO.C,SW5*%
X82500000Y-58750000D03*
X82500000Y-71250000D03*
X77500000Y-58750000D03*
X77500000Y-71250000D03*
%TD*%
D17*
%TO.C,R4*%
X130000000Y-97500000D03*
X128175000Y-97500000D03*
%TD*%
D16*
%TO.C,SW4*%
X142250000Y-84750000D03*
X142250000Y-97250000D03*
X137250000Y-84750000D03*
X137250000Y-97250000D03*
%TD*%
D18*
%TO.C,SW8*%
X60750000Y-75500000D03*
X73250000Y-75500000D03*
X60750000Y-80500000D03*
X73250000Y-80500000D03*
%TD*%
D19*
%TO.C,C2*%
X102500000Y-66462500D03*
X102500000Y-68537500D03*
%TD*%
D20*
%TO.C,C3*%
X100462500Y-61500000D03*
X102537500Y-61500000D03*
%TD*%
D18*
%TO.C,SW6*%
X86750000Y-75500000D03*
X99250000Y-75500000D03*
X86750000Y-80500000D03*
X99250000Y-80500000D03*
%TD*%
D16*
%TO.C,SW2*%
X137250000Y-71250000D03*
X137250000Y-58750000D03*
X142250000Y-71250000D03*
X142250000Y-58750000D03*
%TD*%
D21*
%TO.C,C1*%
X119500000Y-27537500D03*
X119500000Y-25462500D03*
%TD*%
D12*
%TO.C,R1*%
X120500000Y-87675000D03*
X120500000Y-89500000D03*
%TD*%
%TO.C,R3*%
X159000000Y-87587500D03*
X159000000Y-89412500D03*
%TD*%
D17*
%TO.C,R5*%
X70000000Y-58500000D03*
X68175000Y-58500000D03*
%TD*%
D22*
%TO.C,J3*%
X145000000Y-34450000D03*
D23*
X145000000Y-36990000D03*
X145000000Y-39530000D03*
X145000000Y-42070000D03*
X145000000Y-44610000D03*
%TD*%
D22*
%TO.C,J2*%
X75000000Y-44580000D03*
D23*
X75000000Y-42040000D03*
X75000000Y-39500000D03*
X75000000Y-36960000D03*
X75000000Y-34420000D03*
%TD*%
D22*
%TO.C,J1*%
X113800000Y-27790000D03*
D23*
X113800000Y-25250000D03*
X111260000Y-27790000D03*
X111260000Y-25250000D03*
X108720000Y-27790000D03*
X108720000Y-25250000D03*
X106180000Y-27790000D03*
X106180000Y-25250000D03*
%TD*%
D24*
%TO.C,R7*%
X89587500Y-97500000D03*
X91412500Y-97500000D03*
%TD*%
D25*
%TO.C,F1*%
X106000000Y-81000000D03*
X103950000Y-81000000D03*
%TD*%
D16*
%TO.C,SW7*%
X77500000Y-97250000D03*
X77500000Y-84750000D03*
X82500000Y-97250000D03*
X82500000Y-84750000D03*
%TD*%
D12*
%TO.C,R6*%
X99500000Y-87500000D03*
X99500000Y-89325000D03*
%TD*%
D24*
%TO.C,R2*%
X149175000Y-58500000D03*
X151000000Y-58500000D03*
%TD*%
D18*
%TO.C,SW3*%
X146500000Y-75500000D03*
X159000000Y-75500000D03*
X146500000Y-80500000D03*
X159000000Y-80500000D03*
%TD*%
%TO.C,SW1*%
X120500000Y-75500000D03*
X133000000Y-75500000D03*
X120500000Y-80500000D03*
X133000000Y-80500000D03*
%TD*%
D22*
%TO.C,U2*%
X133280000Y-51740000D03*
D23*
X130740000Y-51740000D03*
X128200000Y-51740000D03*
X125660000Y-51740000D03*
X123120000Y-51740000D03*
X120580000Y-51740000D03*
X118040000Y-51740000D03*
X115500000Y-51740000D03*
X112960000Y-51740000D03*
X110420000Y-51740000D03*
X107880000Y-51740000D03*
X105340000Y-51740000D03*
X102800000Y-51740000D03*
X100260000Y-51740000D03*
X97720000Y-51740000D03*
X95180000Y-51740000D03*
X92640000Y-51740000D03*
X90100000Y-51740000D03*
X87560000Y-51740000D03*
X85020000Y-51740000D03*
X85020000Y-36500000D03*
X87560000Y-36500000D03*
X90100000Y-36500000D03*
X92640000Y-36500000D03*
X95180000Y-36500000D03*
X97720000Y-36500000D03*
X100260000Y-36500000D03*
X102800000Y-36500000D03*
X105340000Y-36500000D03*
X107880000Y-36500000D03*
X110420000Y-36500000D03*
X112960000Y-36500000D03*
X115500000Y-36500000D03*
X118040000Y-36500000D03*
X120580000Y-36500000D03*
X123120000Y-36500000D03*
X125660000Y-36500000D03*
X128200000Y-36500000D03*
X130740000Y-36500000D03*
X133280000Y-36500000D03*
%TD*%
D26*
%TO.C,J4*%
X120175000Y-69000000D03*
X120175000Y-58000000D03*
D27*
X130175000Y-61000000D03*
D28*
X130175000Y-66000000D03*
%TD*%
M02*
