%TF.GenerationSoftware,KiCad,Pcbnew,8.0.4*%
%TF.CreationDate,2024-09-27T18:01:19-04:00*%
%TF.ProjectId,Sp-I,53702d49-2e6b-4696-9361-645f70636258,rev?*%
%TF.SameCoordinates,Original*%
%TF.FileFunction,Copper,L2,Bot*%
%TF.FilePolarity,Positive*%
%FSLAX46Y46*%
G04 Gerber Fmt 4.6, Leading zero omitted, Abs format (unit mm)*
G04 Created by KiCad (PCBNEW 8.0.4) date 2024-09-27 18:01:19*
%MOMM*%
%LPD*%
G01*
G04 APERTURE LIST*
G04 Aperture macros list*
%AMRoundRect*
0 Rectangle with rounded corners*
0 $1 Rounding radius*
0 $2 $3 $4 $5 $6 $7 $8 $9 X,Y pos of 4 corners*
0 Add a 4 corners polygon primitive as box body*
4,1,4,$2,$3,$4,$5,$6,$7,$8,$9,$2,$3,0*
0 Add four circle primitives for the rounded corners*
1,1,$1+$1,$2,$3*
1,1,$1+$1,$4,$5*
1,1,$1+$1,$6,$7*
1,1,$1+$1,$8,$9*
0 Add four rect primitives between the rounded corners*
20,1,$1+$1,$2,$3,$4,$5,0*
20,1,$1+$1,$4,$5,$6,$7,0*
20,1,$1+$1,$6,$7,$8,$9,0*
20,1,$1+$1,$8,$9,$2,$3,0*%
G04 Aperture macros list end*
%TA.AperFunction,ComponentPad*%
%ADD10C,6.000000*%
%TD*%
%TA.AperFunction,ComponentPad*%
%ADD11C,1.665000*%
%TD*%
%TA.AperFunction,ComponentPad*%
%ADD12R,1.700000X1.700000*%
%TD*%
%TA.AperFunction,ComponentPad*%
%ADD13O,1.700000X1.700000*%
%TD*%
%TA.AperFunction,ComponentPad*%
%ADD14RoundRect,0.250000X-0.625000X0.350000X-0.625000X-0.350000X0.625000X-0.350000X0.625000X0.350000X0*%
%TD*%
%TA.AperFunction,ComponentPad*%
%ADD15O,1.750000X1.200000*%
%TD*%
%TA.AperFunction,ComponentPad*%
%ADD16RoundRect,0.250000X0.625000X-0.350000X0.625000X0.350000X-0.625000X0.350000X-0.625000X-0.350000X0*%
%TD*%
%TA.AperFunction,ComponentPad*%
%ADD17R,3.800000X3.800000*%
%TD*%
%TA.AperFunction,ComponentPad*%
%ADD18C,4.000000*%
%TD*%
%TA.AperFunction,ComponentPad*%
%ADD19C,1.270000*%
%TD*%
%TA.AperFunction,ComponentPad*%
%ADD20RoundRect,0.250000X-0.350000X-0.625000X0.350000X-0.625000X0.350000X0.625000X-0.350000X0.625000X0*%
%TD*%
%TA.AperFunction,ComponentPad*%
%ADD21O,1.200000X1.750000*%
%TD*%
%TA.AperFunction,ViaPad*%
%ADD22C,0.600000*%
%TD*%
%TA.AperFunction,Conductor*%
%ADD23C,0.200000*%
%TD*%
G04 APERTURE END LIST*
D10*
%TO.P,REF\u002A\u002A,1*%
%TO.N,N/C*%
X121500000Y-124500000D03*
%TD*%
%TO.P,REF\u002A\u002A,1*%
%TO.N,N/C*%
X190500000Y-134500000D03*
%TD*%
D11*
%TO.P,IC1,1,TX1*%
%TO.N,Kill_Switch*%
X184780000Y-127000000D03*
%TO.P,IC1,2,OUT2*%
%TO.N,Left_IR*%
X182240000Y-127000000D03*
%TO.P,IC1,3,LRCLK2*%
%TO.N,Middle_IR*%
X179700000Y-127000000D03*
%TO.P,IC1,4,BCLK2*%
%TO.N,Right_IR*%
X177160000Y-127000000D03*
%TO.P,IC1,5,IN2*%
%TO.N,DIR_L*%
X174620000Y-127000000D03*
%TO.P,IC1,6,OUT1D*%
%TO.N,PWM_L*%
X172080000Y-127000000D03*
%TO.P,IC1,7,RX2*%
%TO.N,DIR_R*%
X169540000Y-127000000D03*
%TO.P,IC1,8,TX2*%
%TO.N,PWM_R*%
X167000000Y-127000000D03*
%TO.P,IC1,17,A3*%
%TO.N,unconnected-(IC1-A3-Pad17)*%
X167000000Y-142240000D03*
%TO.P,IC1,18,A4*%
%TO.N,SDA*%
X169540000Y-142240000D03*
%TO.P,IC1,19,A5*%
%TO.N,SCL*%
X172080000Y-142240000D03*
%TO.P,IC1,20,A6*%
%TO.N,unconnected-(IC1-A6-Pad20)*%
X174620000Y-142240000D03*
%TO.P,IC1,21,A7*%
%TO.N,unconnected-(IC1-A7-Pad21)*%
X177160000Y-142240000D03*
%TO.P,IC1,22,A8*%
%TO.N,Left_Line*%
X179700000Y-142240000D03*
%TO.P,IC1,23,A9*%
%TO.N,Right_Line*%
X182240000Y-142240000D03*
%TO.P,IC1,53,3.3V_(250_M_A_MAX)*%
%TO.N,+3.3V*%
X184780000Y-142240000D03*
%TO.P,IC1,55,VIN_(3.6_TO_5.5_VOLTS)*%
%TO.N,5V*%
X189860000Y-142240000D03*
%TO.P,IC1,57,RX1*%
%TO.N,Start_Module*%
X187320000Y-127000000D03*
%TO.P,IC1,70,GND_5*%
%TO.N,GND*%
X187320000Y-142240000D03*
%TO.P,IC1,71,GND_6*%
%TO.N,unconnected-(IC1-GND_6-Pad71)*%
X189860000Y-127000000D03*
%TD*%
D12*
%TO.P,J8,1,Pin_1*%
%TO.N,GND*%
X137000000Y-126125000D03*
D13*
%TO.P,J8,2,Pin_2*%
%TO.N,DIR_L*%
X137000000Y-128665000D03*
%TO.P,J8,3,Pin_3*%
%TO.N,PWM_L*%
X137000000Y-131205000D03*
%TO.P,J8,4,Pin_4*%
%TO.N,unconnected-(J8-Pin_4-Pad4)*%
X137000000Y-133745000D03*
%TO.P,J8,5,Pin_5*%
%TO.N,unconnected-(J8-Pin_5-Pad5)*%
X137000000Y-136285000D03*
%TO.P,J8,6,Pin_6*%
%TO.N,unconnected-(J8-Pin_6-Pad6)*%
X137000000Y-138825000D03*
%TO.P,J8,7,Pin_7*%
%TO.N,unconnected-(J8-Pin_7-Pad7)*%
X137000000Y-141365000D03*
%TO.P,J8,8,Pin_8*%
%TO.N,unconnected-(J8-Pin_8-Pad8)*%
X137000000Y-143905000D03*
%TD*%
D14*
%TO.P,J2,1,Pin_1*%
%TO.N,+3.3V*%
X145450000Y-134500000D03*
D15*
%TO.P,J2,2,Pin_2*%
%TO.N,GND*%
X145450000Y-136500000D03*
%TO.P,J2,3,Pin_3*%
%TO.N,Middle_IR*%
X145450000Y-138500000D03*
%TD*%
D16*
%TO.P,J3,1,Pin_1*%
%TO.N,+3.3V*%
X149500000Y-129500000D03*
D15*
%TO.P,J3,2,Pin_2*%
%TO.N,GND*%
X149500000Y-127500000D03*
%TO.P,J3,3,Pin_3*%
%TO.N,Right_IR*%
X149500000Y-125500000D03*
%TD*%
D12*
%TO.P,J7,1,Pin_1*%
%TO.N,GND*%
X157500000Y-144000000D03*
D13*
%TO.P,J7,2,Pin_2*%
%TO.N,DIR_R*%
X157500000Y-141460000D03*
%TO.P,J7,3,Pin_3*%
%TO.N,PWM_R*%
X157500000Y-138920000D03*
%TO.P,J7,4,Pin_4*%
%TO.N,unconnected-(J7-Pin_4-Pad4)*%
X157500000Y-136380000D03*
%TO.P,J7,5,Pin_5*%
%TO.N,unconnected-(J7-Pin_5-Pad5)*%
X157500000Y-133840000D03*
%TO.P,J7,6,Pin_6*%
%TO.N,unconnected-(J7-Pin_6-Pad6)*%
X157500000Y-131300000D03*
%TO.P,J7,7,Pin_7*%
%TO.N,unconnected-(J7-Pin_7-Pad7)*%
X157500000Y-128760000D03*
%TO.P,J7,8,Pin_8*%
%TO.N,unconnected-(J7-Pin_8-Pad8)*%
X157500000Y-126220000D03*
%TD*%
D17*
%TO.P,J9,1,Pin_1*%
%TO.N,GND*%
X106000000Y-144000000D03*
D18*
%TO.P,J9,2,Pin_2*%
%TO.N,Net-(J9-Pin_2)*%
X106000000Y-139000000D03*
%TD*%
D19*
%TO.P,U1,1,+VIN*%
%TO.N,Net-(U1-+VIN)*%
X108500000Y-131500000D03*
%TO.P,U1,2,GND*%
%TO.N,GND*%
X108500000Y-128960000D03*
%TO.P,U1,3,+VOUT*%
%TO.N,5V*%
X108500000Y-126420000D03*
%TD*%
D12*
%TO.P,J4,1,Pin_1*%
%TO.N,+3.3V*%
X115920000Y-145500000D03*
D13*
%TO.P,J4,2,Pin_2*%
%TO.N,GND*%
X118460000Y-145500000D03*
%TO.P,J4,3,Pin_3*%
%TO.N,Start_Module*%
X121000000Y-145500000D03*
%TO.P,J4,4,Pin_4*%
%TO.N,Kill_Switch*%
X123540000Y-145500000D03*
%TD*%
D14*
%TO.P,J1,1,Pin_1*%
%TO.N,+3.3V*%
X145500000Y-125500000D03*
D15*
%TO.P,J1,2,Pin_2*%
%TO.N,GND*%
X145500000Y-127500000D03*
%TO.P,J1,3,Pin_3*%
%TO.N,Left_IR*%
X145500000Y-129500000D03*
%TD*%
D16*
%TO.P,J6,1,Pin_1*%
%TO.N,+3.3V*%
X149500000Y-138500000D03*
D15*
%TO.P,J6,2,Pin_2*%
%TO.N,GND*%
X149500000Y-136500000D03*
%TO.P,J6,3,Pin_3*%
%TO.N,Right_Line*%
X149500000Y-134500000D03*
%TD*%
D20*
%TO.P,J5,1,Pin_1*%
%TO.N,+3.3V*%
X145000000Y-143050000D03*
D21*
%TO.P,J5,2,Pin_2*%
%TO.N,GND*%
X147000000Y-143050000D03*
%TO.P,J5,3,Pin_3*%
%TO.N,Left_Line*%
X149000000Y-143050000D03*
%TD*%
D22*
%TO.N,SDA*%
X171234265Y-140545735D03*
%TO.N,GND*%
X172500000Y-132725000D03*
%TD*%
D23*
%TO.N,Left_IR*%
X147500000Y-127500000D02*
X145500000Y-129500000D01*
X147500000Y-124934314D02*
X147500000Y-127500000D01*
X151434314Y-121000000D02*
X147500000Y-124934314D01*
X176240000Y-121000000D02*
X151434314Y-121000000D01*
X182240000Y-127000000D02*
X176240000Y-121000000D01*
%TO.N,GND*%
X177805000Y-132725000D02*
X187320000Y-142240000D01*
X172500000Y-132725000D02*
X177805000Y-132725000D01*
%TO.N,Middle_IR*%
X148000000Y-135950000D02*
X145450000Y-138500000D01*
X151500000Y-121500000D02*
X148000000Y-125000000D01*
X174200000Y-121500000D02*
X151500000Y-121500000D01*
X148000000Y-125000000D02*
X148000000Y-135950000D01*
X179700000Y-127000000D02*
X174200000Y-121500000D01*
%TO.N,Kill_Switch*%
X184780000Y-127000000D02*
X184780000Y-126220000D01*
%TO.N,Right_IR*%
X172160000Y-122000000D02*
X153000000Y-122000000D01*
X177160000Y-127000000D02*
X172160000Y-122000000D01*
X153000000Y-122000000D02*
X149500000Y-125500000D01*
%TO.N,Left_Line*%
X176000000Y-145940000D02*
X176000000Y-146000000D01*
X179700000Y-142240000D02*
X176000000Y-145940000D01*
X176000000Y-146000000D02*
X151950000Y-146000000D01*
X151950000Y-146000000D02*
X149000000Y-143050000D01*
%TO.N,SDA*%
X171234265Y-140545735D02*
X169540000Y-142240000D01*
%TD*%
%TA.AperFunction,Conductor*%
%TO.N,GND*%
G36*
X150852255Y-120520185D02*
G01*
X150898010Y-120572989D01*
X150907954Y-120642147D01*
X150878929Y-120705703D01*
X150872897Y-120712181D01*
X147019481Y-124565596D01*
X147019475Y-124565604D01*
X146981651Y-124631119D01*
X146981650Y-124631122D01*
X146942931Y-124698182D01*
X146892363Y-124746397D01*
X146823755Y-124759618D01*
X146758891Y-124733649D01*
X146730006Y-124701276D01*
X146717712Y-124681344D01*
X146593657Y-124557289D01*
X146593656Y-124557288D01*
X146444334Y-124465186D01*
X146277797Y-124410001D01*
X146277795Y-124410000D01*
X146175010Y-124399500D01*
X144824998Y-124399500D01*
X144824981Y-124399501D01*
X144722203Y-124410000D01*
X144722200Y-124410001D01*
X144555668Y-124465185D01*
X144555663Y-124465187D01*
X144406342Y-124557289D01*
X144282289Y-124681342D01*
X144190187Y-124830663D01*
X144190185Y-124830668D01*
X144178343Y-124866405D01*
X144135001Y-124997203D01*
X144135001Y-124997204D01*
X144135000Y-124997204D01*
X144124500Y-125099983D01*
X144124500Y-125900001D01*
X144124501Y-125900019D01*
X144135000Y-126002796D01*
X144135001Y-126002799D01*
X144190185Y-126169331D01*
X144190186Y-126169334D01*
X144282288Y-126318656D01*
X144406344Y-126442712D01*
X144470981Y-126482580D01*
X144517705Y-126534526D01*
X144528928Y-126603489D01*
X144501085Y-126667571D01*
X144493566Y-126675799D01*
X144385964Y-126783401D01*
X144284195Y-126923475D01*
X144205591Y-127077744D01*
X144152085Y-127242415D01*
X144150884Y-127249999D01*
X144150885Y-127250000D01*
X145219670Y-127250000D01*
X145199925Y-127269745D01*
X145150556Y-127355255D01*
X145125000Y-127450630D01*
X145125000Y-127549370D01*
X145150556Y-127644745D01*
X145199925Y-127730255D01*
X145219670Y-127750000D01*
X144150885Y-127750000D01*
X144152085Y-127757584D01*
X144205591Y-127922255D01*
X144284195Y-128076524D01*
X144385967Y-128216602D01*
X144508401Y-128339036D01*
X144591447Y-128399371D01*
X144634114Y-128454701D01*
X144640093Y-128524314D01*
X144607488Y-128586109D01*
X144591450Y-128600007D01*
X144508072Y-128660585D01*
X144385588Y-128783069D01*
X144385588Y-128783070D01*
X144385586Y-128783072D01*
X144351009Y-128830663D01*
X144283768Y-128923211D01*
X144205128Y-129077552D01*
X144151597Y-129242302D01*
X144124500Y-129413389D01*
X144124500Y-129586610D01*
X144143012Y-129703495D01*
X144151598Y-129757701D01*
X144204223Y-129919664D01*
X144205128Y-129922447D01*
X144235982Y-129983002D01*
X144283768Y-130076788D01*
X144385586Y-130216928D01*
X144508072Y-130339414D01*
X144648212Y-130441232D01*
X144802555Y-130519873D01*
X144967299Y-130573402D01*
X145138389Y-130600500D01*
X145138390Y-130600500D01*
X145861610Y-130600500D01*
X145861611Y-130600500D01*
X146032701Y-130573402D01*
X146197445Y-130519873D01*
X146351788Y-130441232D01*
X146491928Y-130339414D01*
X146614414Y-130216928D01*
X146716232Y-130076788D01*
X146794873Y-129922445D01*
X146848402Y-129757701D01*
X146875500Y-129586611D01*
X146875500Y-129413389D01*
X146848402Y-129242299D01*
X146812665Y-129132315D01*
X146810671Y-129062476D01*
X146842916Y-129006318D01*
X147089235Y-128759999D01*
X147187820Y-128661414D01*
X147249142Y-128627930D01*
X147318834Y-128632914D01*
X147374767Y-128674786D01*
X147399184Y-128740250D01*
X147399500Y-128749096D01*
X147399500Y-135649902D01*
X147379815Y-135716941D01*
X147363181Y-135737583D01*
X146955817Y-136144946D01*
X146894494Y-136178431D01*
X146824802Y-136173447D01*
X146768869Y-136131575D01*
X146750205Y-136095583D01*
X146744408Y-136077744D01*
X146665804Y-135923475D01*
X146564032Y-135783397D01*
X146456434Y-135675799D01*
X146422949Y-135614476D01*
X146427933Y-135544784D01*
X146469805Y-135488851D01*
X146478995Y-135482594D01*
X146543656Y-135442712D01*
X146667712Y-135318656D01*
X146759814Y-135169334D01*
X146814999Y-135002797D01*
X146825500Y-134900009D01*
X146825499Y-134099992D01*
X146814999Y-133997203D01*
X146759814Y-133830666D01*
X146667712Y-133681344D01*
X146543656Y-133557288D01*
X146418559Y-133480128D01*
X146394336Y-133465187D01*
X146394331Y-133465185D01*
X146392862Y-133464698D01*
X146227797Y-133410001D01*
X146227795Y-133410000D01*
X146125010Y-133399500D01*
X144774998Y-133399500D01*
X144774981Y-133399501D01*
X144672203Y-133410000D01*
X144672200Y-133410001D01*
X144505668Y-133465185D01*
X144505663Y-133465187D01*
X144356342Y-133557289D01*
X144232289Y-133681342D01*
X144140187Y-133830663D01*
X144140186Y-133830666D01*
X144085001Y-133997203D01*
X144085001Y-133997204D01*
X144085000Y-133997204D01*
X144074500Y-134099983D01*
X144074500Y-134900001D01*
X144074501Y-134900019D01*
X144085000Y-135002796D01*
X144085001Y-135002799D01*
X144120844Y-135110965D01*
X144140186Y-135169334D01*
X144232288Y-135318656D01*
X144356344Y-135442712D01*
X144420981Y-135482580D01*
X144467705Y-135534526D01*
X144478928Y-135603489D01*
X144451085Y-135667571D01*
X144443566Y-135675799D01*
X144335964Y-135783401D01*
X144234195Y-135923475D01*
X144155591Y-136077744D01*
X144102085Y-136242415D01*
X144100884Y-136249999D01*
X144100885Y-136250000D01*
X145169670Y-136250000D01*
X145149925Y-136269745D01*
X145100556Y-136355255D01*
X145075000Y-136450630D01*
X145075000Y-136549370D01*
X145100556Y-136644745D01*
X145149925Y-136730255D01*
X145169670Y-136750000D01*
X144100885Y-136750000D01*
X144102085Y-136757584D01*
X144155591Y-136922255D01*
X144234195Y-137076524D01*
X144335967Y-137216602D01*
X144458401Y-137339036D01*
X144541447Y-137399371D01*
X144584114Y-137454701D01*
X144590093Y-137524314D01*
X144557488Y-137586109D01*
X144541450Y-137600007D01*
X144458072Y-137660585D01*
X144335588Y-137783069D01*
X144335588Y-137783070D01*
X144335586Y-137783072D01*
X144328378Y-137792993D01*
X144233768Y-137923211D01*
X144155128Y-138077552D01*
X144101597Y-138242302D01*
X144082744Y-138361337D01*
X144074500Y-138413389D01*
X144074500Y-138586611D01*
X144101598Y-138757701D01*
X144155127Y-138922445D01*
X144233768Y-139076788D01*
X144335586Y-139216928D01*
X144458072Y-139339414D01*
X144598212Y-139441232D01*
X144752555Y-139519873D01*
X144917299Y-139573402D01*
X145088389Y-139600500D01*
X145088390Y-139600500D01*
X145811610Y-139600500D01*
X145811611Y-139600500D01*
X145982701Y-139573402D01*
X146147445Y-139519873D01*
X146301788Y-139441232D01*
X146441928Y-139339414D01*
X146564414Y-139216928D01*
X146666232Y-139076788D01*
X146744873Y-138922445D01*
X146798402Y-138757701D01*
X146825500Y-138586611D01*
X146825500Y-138413389D01*
X146798402Y-138242299D01*
X146762665Y-138132315D01*
X146760671Y-138062475D01*
X146792914Y-138006319D01*
X147981923Y-136817312D01*
X148043243Y-136783829D01*
X148112935Y-136788813D01*
X148168868Y-136830685D01*
X148187532Y-136866676D01*
X148205591Y-136922256D01*
X148284195Y-137076524D01*
X148385967Y-137216602D01*
X148493565Y-137324200D01*
X148527050Y-137385523D01*
X148522066Y-137455215D01*
X148480194Y-137511148D01*
X148470983Y-137517418D01*
X148454903Y-137527337D01*
X148406342Y-137557289D01*
X148282289Y-137681342D01*
X148190187Y-137830663D01*
X148190185Y-137830668D01*
X148173339Y-137881506D01*
X148135001Y-137997203D01*
X148135001Y-137997204D01*
X148135000Y-137997204D01*
X148124500Y-138099983D01*
X148124500Y-138900001D01*
X148124501Y-138900019D01*
X148135000Y-139002796D01*
X148135001Y-139002799D01*
X148154091Y-139060408D01*
X148190186Y-139169334D01*
X148282288Y-139318656D01*
X148406344Y-139442712D01*
X148555666Y-139534814D01*
X148722203Y-139589999D01*
X148824991Y-139600500D01*
X150175008Y-139600499D01*
X150277797Y-139589999D01*
X150444334Y-139534814D01*
X150593656Y-139442712D01*
X150717712Y-139318656D01*
X150809814Y-139169334D01*
X150864999Y-139002797D01*
X150875500Y-138900009D01*
X150875499Y-138099992D01*
X150871637Y-138062190D01*
X150864999Y-137997203D01*
X150864998Y-137997200D01*
X150842301Y-137928705D01*
X150809814Y-137830666D01*
X150717712Y-137681344D01*
X150593656Y-137557288D01*
X150593655Y-137557287D01*
X150545097Y-137527337D01*
X150529018Y-137517419D01*
X150482294Y-137465472D01*
X150471071Y-137396510D01*
X150498914Y-137332428D01*
X150506434Y-137324199D01*
X150614035Y-137216598D01*
X150715804Y-137076524D01*
X150794408Y-136922255D01*
X150847914Y-136757584D01*
X150849115Y-136750000D01*
X149780330Y-136750000D01*
X149800075Y-136730255D01*
X149849444Y-136644745D01*
X149875000Y-136549370D01*
X149875000Y-136450630D01*
X149849444Y-136355255D01*
X149800075Y-136269745D01*
X149780330Y-136250000D01*
X150849115Y-136250000D01*
X150849115Y-136249999D01*
X150847914Y-136242415D01*
X150794408Y-136077744D01*
X150715804Y-135923475D01*
X150614032Y-135783397D01*
X150491602Y-135660967D01*
X150408551Y-135600628D01*
X150365885Y-135545298D01*
X150359906Y-135475685D01*
X150392511Y-135413889D01*
X150408551Y-135399991D01*
X150491928Y-135339414D01*
X150614414Y-135216928D01*
X150716232Y-135076788D01*
X150794873Y-134922445D01*
X150848402Y-134757701D01*
X150875500Y-134586611D01*
X150875500Y-134413389D01*
X150848402Y-134242299D01*
X150794873Y-134077555D01*
X150716232Y-133923212D01*
X150614414Y-133783072D01*
X150491928Y-133660586D01*
X150351788Y-133558768D01*
X150197445Y-133480127D01*
X150032701Y-133426598D01*
X150032699Y-133426597D01*
X150032698Y-133426597D01*
X149901271Y-133405781D01*
X149861611Y-133399500D01*
X149138389Y-133399500D01*
X149098728Y-133405781D01*
X148967302Y-133426597D01*
X148802549Y-133480129D01*
X148780794Y-133491214D01*
X148712125Y-133504110D01*
X148647385Y-133477833D01*
X148607128Y-133420727D01*
X148600500Y-133380729D01*
X148600500Y-130714879D01*
X148620185Y-130647840D01*
X148672989Y-130602085D01*
X148737102Y-130591521D01*
X148824991Y-130600500D01*
X150175008Y-130600499D01*
X150277797Y-130589999D01*
X150444334Y-130534814D01*
X150593656Y-130442712D01*
X150717712Y-130318656D01*
X150809814Y-130169334D01*
X150864999Y-130002797D01*
X150875500Y-129900009D01*
X150875499Y-129099992D01*
X150871637Y-129062190D01*
X150864999Y-128997203D01*
X150864998Y-128997200D01*
X150852671Y-128959999D01*
X150809814Y-128830666D01*
X150717712Y-128681344D01*
X150593656Y-128557288D01*
X150593655Y-128557287D01*
X150549988Y-128530353D01*
X150529018Y-128517419D01*
X150482294Y-128465472D01*
X150471071Y-128396510D01*
X150498914Y-128332428D01*
X150506434Y-128324199D01*
X150614035Y-128216598D01*
X150715804Y-128076524D01*
X150794408Y-127922255D01*
X150847914Y-127757584D01*
X150849115Y-127750000D01*
X149780330Y-127750000D01*
X149800075Y-127730255D01*
X149849444Y-127644745D01*
X149875000Y-127549370D01*
X149875000Y-127450630D01*
X149849444Y-127355255D01*
X149800075Y-127269745D01*
X149780330Y-127250000D01*
X150849115Y-127250000D01*
X150849115Y-127249999D01*
X150847914Y-127242415D01*
X150794408Y-127077744D01*
X150715804Y-126923475D01*
X150614032Y-126783397D01*
X150491602Y-126660967D01*
X150408551Y-126600628D01*
X150365885Y-126545298D01*
X150359906Y-126475685D01*
X150392511Y-126413889D01*
X150408551Y-126399991D01*
X150442948Y-126375000D01*
X150491928Y-126339414D01*
X150614414Y-126216928D01*
X150716232Y-126076788D01*
X150794873Y-125922445D01*
X150848402Y-125757701D01*
X150875500Y-125586611D01*
X150875500Y-125413389D01*
X150848402Y-125242299D01*
X150812665Y-125132315D01*
X150810671Y-125062475D01*
X150842914Y-125006319D01*
X153212416Y-122636819D01*
X153273739Y-122603334D01*
X153300097Y-122600500D01*
X171859903Y-122600500D01*
X171926942Y-122620185D01*
X171947584Y-122636819D01*
X174765584Y-125454819D01*
X174799069Y-125516142D01*
X174794085Y-125585834D01*
X174752213Y-125641767D01*
X174686749Y-125666184D01*
X174667096Y-125666028D01*
X174620002Y-125661908D01*
X174619999Y-125661908D01*
X174387647Y-125682236D01*
X174387637Y-125682238D01*
X174162353Y-125742602D01*
X174162339Y-125742607D01*
X173950957Y-125841176D01*
X173950955Y-125841177D01*
X173950954Y-125841178D01*
X173759891Y-125974962D01*
X173759889Y-125974963D01*
X173759886Y-125974966D01*
X173594966Y-126139886D01*
X173594963Y-126139889D01*
X173594962Y-126139891D01*
X173545548Y-126210462D01*
X173461177Y-126330955D01*
X173458473Y-126335640D01*
X173456824Y-126334688D01*
X173416199Y-126380818D01*
X173349003Y-126399963D01*
X173282124Y-126379740D01*
X173243115Y-126334722D01*
X173241527Y-126335640D01*
X173238822Y-126330955D01*
X173238822Y-126330954D01*
X173105038Y-126139891D01*
X172940109Y-125974962D01*
X172749046Y-125841178D01*
X172749042Y-125841176D01*
X172537660Y-125742607D01*
X172537646Y-125742602D01*
X172312362Y-125682238D01*
X172312352Y-125682236D01*
X172080001Y-125661908D01*
X172079999Y-125661908D01*
X171847647Y-125682236D01*
X171847637Y-125682238D01*
X171622353Y-125742602D01*
X171622339Y-125742607D01*
X171410957Y-125841176D01*
X171410955Y-125841177D01*
X171410954Y-125841178D01*
X171219891Y-125974962D01*
X171219889Y-125974963D01*
X171219886Y-125974966D01*
X171054966Y-126139886D01*
X171054963Y-126139889D01*
X171054962Y-126139891D01*
X171005548Y-126210462D01*
X170921177Y-126330955D01*
X170918473Y-126335640D01*
X170916824Y-126334688D01*
X170876199Y-126380818D01*
X170809003Y-126399963D01*
X170742124Y-126379740D01*
X170703115Y-126334722D01*
X170701527Y-126335640D01*
X170698822Y-126330955D01*
X170698822Y-126330954D01*
X170565038Y-126139891D01*
X170400109Y-125974962D01*
X170209046Y-125841178D01*
X170209042Y-125841176D01*
X169997660Y-125742607D01*
X169997646Y-125742602D01*
X169772362Y-125682238D01*
X169772352Y-125682236D01*
X169540001Y-125661908D01*
X169539999Y-125661908D01*
X169307647Y-125682236D01*
X169307637Y-125682238D01*
X169082353Y-125742602D01*
X169082339Y-125742607D01*
X168870957Y-125841176D01*
X168870955Y-125841177D01*
X168870954Y-125841178D01*
X168679891Y-125974962D01*
X168679889Y-125974963D01*
X168679886Y-125974966D01*
X168514966Y-126139886D01*
X168514963Y-126139889D01*
X168514962Y-126139891D01*
X168465548Y-126210462D01*
X168381177Y-126330955D01*
X168378473Y-126335640D01*
X168376824Y-126334688D01*
X168336199Y-126380818D01*
X168269003Y-126399963D01*
X168202124Y-126379740D01*
X168163115Y-126334722D01*
X168161527Y-126335640D01*
X168158822Y-126330955D01*
X168158822Y-126330954D01*
X168025038Y-126139891D01*
X167860109Y-125974962D01*
X167669046Y-125841178D01*
X167669042Y-125841176D01*
X167457660Y-125742607D01*
X167457646Y-125742602D01*
X167232362Y-125682238D01*
X167232352Y-125682236D01*
X167000001Y-125661908D01*
X166999999Y-125661908D01*
X166767647Y-125682236D01*
X166767637Y-125682238D01*
X166542353Y-125742602D01*
X166542339Y-125742607D01*
X166330957Y-125841176D01*
X166330955Y-125841177D01*
X166330954Y-125841178D01*
X166139891Y-125974962D01*
X166139889Y-125974963D01*
X166139886Y-125974966D01*
X165974966Y-126139886D01*
X165974963Y-126139889D01*
X165974962Y-126139891D01*
X165925548Y-126210462D01*
X165841177Y-126330955D01*
X165841176Y-126330957D01*
X165742607Y-126542339D01*
X165742602Y-126542353D01*
X165682238Y-126767637D01*
X165682236Y-126767647D01*
X165661908Y-126999999D01*
X165661908Y-127000000D01*
X165682236Y-127232352D01*
X165682238Y-127232362D01*
X165742602Y-127457646D01*
X165742607Y-127457660D01*
X165788231Y-127555500D01*
X165841178Y-127669046D01*
X165974962Y-127860109D01*
X166139891Y-128025038D01*
X166330954Y-128158822D01*
X166454856Y-128216598D01*
X166542339Y-128257392D01*
X166542341Y-128257392D01*
X166542346Y-128257395D01*
X166767643Y-128317763D01*
X166953528Y-128334026D01*
X166999999Y-128338092D01*
X167000000Y-128338092D01*
X167000001Y-128338092D01*
X167038726Y-128334703D01*
X167232357Y-128317763D01*
X167457654Y-128257395D01*
X167669046Y-128158822D01*
X167860109Y-128025038D01*
X168025038Y-127860109D01*
X168158822Y-127669046D01*
X168158826Y-127669035D01*
X168161527Y-127664360D01*
X168163179Y-127665313D01*
X168203784Y-127619192D01*
X168270976Y-127600036D01*
X168337859Y-127620248D01*
X168376879Y-127665280D01*
X168378473Y-127664360D01*
X168381176Y-127669042D01*
X168381178Y-127669046D01*
X168514962Y-127860109D01*
X168679891Y-128025038D01*
X168870954Y-128158822D01*
X168994856Y-128216598D01*
X169082339Y-128257392D01*
X169082341Y-128257392D01*
X169082346Y-128257395D01*
X169307643Y-128317763D01*
X169493528Y-128334026D01*
X169539999Y-128338092D01*
X169540000Y-128338092D01*
X169540001Y-128338092D01*
X169578726Y-128334703D01*
X169772357Y-128317763D01*
X169997654Y-128257395D01*
X170209046Y-128158822D01*
X170400109Y-128025038D01*
X170565038Y-127860109D01*
X170698822Y-127669046D01*
X170698826Y-127669035D01*
X170701527Y-127664360D01*
X170703179Y-127665313D01*
X170743784Y-127619192D01*
X170810976Y-127600036D01*
X170877859Y-127620248D01*
X170916879Y-127665280D01*
X170918473Y-127664360D01*
X170921176Y-127669042D01*
X170921178Y-127669046D01*
X171054962Y-127860109D01*
X171219891Y-128025038D01*
X171410954Y-128158822D01*
X171534856Y-128216598D01*
X171622339Y-128257392D01*
X171622341Y-128257392D01*
X171622346Y-128257395D01*
X171847643Y-128317763D01*
X172033528Y-128334026D01*
X172079999Y-128338092D01*
X172080000Y-128338092D01*
X172080001Y-128338092D01*
X172118726Y-128334703D01*
X172312357Y-128317763D01*
X172537654Y-128257395D01*
X172749046Y-128158822D01*
X172940109Y-128025038D01*
X173105038Y-127860109D01*
X173238822Y-127669046D01*
X173238826Y-127669035D01*
X173241527Y-127664360D01*
X173243179Y-127665313D01*
X173283784Y-127619192D01*
X173350976Y-127600036D01*
X173417859Y-127620248D01*
X173456879Y-127665280D01*
X173458473Y-127664360D01*
X173461176Y-127669042D01*
X173461178Y-127669046D01*
X173594962Y-127860109D01*
X173759891Y-128025038D01*
X173950954Y-128158822D01*
X174074856Y-128216598D01*
X174162339Y-128257392D01*
X174162341Y-128257392D01*
X174162346Y-128257395D01*
X174387643Y-128317763D01*
X174573528Y-128334026D01*
X174619999Y-128338092D01*
X174620000Y-128338092D01*
X174620001Y-128338092D01*
X174658726Y-128334703D01*
X174852357Y-128317763D01*
X175077654Y-128257395D01*
X175289046Y-128158822D01*
X175480109Y-128025038D01*
X175645038Y-127860109D01*
X175778822Y-127669046D01*
X175778826Y-127669035D01*
X175781527Y-127664360D01*
X175783179Y-127665313D01*
X175823784Y-127619192D01*
X175890976Y-127600036D01*
X175957859Y-127620248D01*
X175996879Y-127665280D01*
X175998473Y-127664360D01*
X176001176Y-127669042D01*
X176001178Y-127669046D01*
X176134962Y-127860109D01*
X176299891Y-128025038D01*
X176490954Y-128158822D01*
X176614856Y-128216598D01*
X176702339Y-128257392D01*
X176702341Y-128257392D01*
X176702346Y-128257395D01*
X176927643Y-128317763D01*
X177113528Y-128334026D01*
X177159999Y-128338092D01*
X177160000Y-128338092D01*
X177160001Y-128338092D01*
X177198726Y-128334703D01*
X177392357Y-128317763D01*
X177617654Y-128257395D01*
X177829046Y-128158822D01*
X178020109Y-128025038D01*
X178185038Y-127860109D01*
X178318822Y-127669046D01*
X178318826Y-127669035D01*
X178321527Y-127664360D01*
X178323179Y-127665313D01*
X178363784Y-127619192D01*
X178430976Y-127600036D01*
X178497859Y-127620248D01*
X178536879Y-127665280D01*
X178538473Y-127664360D01*
X178541176Y-127669042D01*
X178541178Y-127669046D01*
X178674962Y-127860109D01*
X178839891Y-128025038D01*
X179030954Y-128158822D01*
X179154856Y-128216598D01*
X179242339Y-128257392D01*
X179242341Y-128257392D01*
X179242346Y-128257395D01*
X179467643Y-128317763D01*
X179653528Y-128334026D01*
X179699999Y-128338092D01*
X179700000Y-128338092D01*
X179700001Y-128338092D01*
X179738726Y-128334703D01*
X179932357Y-128317763D01*
X180157654Y-128257395D01*
X180369046Y-128158822D01*
X180560109Y-128025038D01*
X180725038Y-127860109D01*
X180858822Y-127669046D01*
X180858826Y-127669035D01*
X180861527Y-127664360D01*
X180863179Y-127665313D01*
X180903784Y-127619192D01*
X180970976Y-127600036D01*
X181037859Y-127620248D01*
X181076879Y-127665280D01*
X181078473Y-127664360D01*
X181081176Y-127669042D01*
X181081178Y-127669046D01*
X181214962Y-127860109D01*
X181379891Y-128025038D01*
X181570954Y-128158822D01*
X181694856Y-128216598D01*
X181782339Y-128257392D01*
X181782341Y-128257392D01*
X181782346Y-128257395D01*
X182007643Y-128317763D01*
X182193528Y-128334026D01*
X182239999Y-128338092D01*
X182240000Y-128338092D01*
X182240001Y-128338092D01*
X182278726Y-128334703D01*
X182472357Y-128317763D01*
X182697654Y-128257395D01*
X182909046Y-128158822D01*
X183100109Y-128025038D01*
X183265038Y-127860109D01*
X183398822Y-127669046D01*
X183398826Y-127669035D01*
X183401527Y-127664360D01*
X183403179Y-127665313D01*
X183443784Y-127619192D01*
X183510976Y-127600036D01*
X183577859Y-127620248D01*
X183616879Y-127665280D01*
X183618473Y-127664360D01*
X183621176Y-127669042D01*
X183621178Y-127669046D01*
X183754962Y-127860109D01*
X183919891Y-128025038D01*
X184110954Y-128158822D01*
X184234856Y-128216598D01*
X184322339Y-128257392D01*
X184322341Y-128257392D01*
X184322346Y-128257395D01*
X184547643Y-128317763D01*
X184733528Y-128334026D01*
X184779999Y-128338092D01*
X184780000Y-128338092D01*
X184780001Y-128338092D01*
X184818726Y-128334703D01*
X185012357Y-128317763D01*
X185237654Y-128257395D01*
X185449046Y-128158822D01*
X185640109Y-128025038D01*
X185805038Y-127860109D01*
X185938822Y-127669046D01*
X185938826Y-127669035D01*
X185941527Y-127664360D01*
X185943179Y-127665313D01*
X185983784Y-127619192D01*
X186050976Y-127600036D01*
X186117859Y-127620248D01*
X186156879Y-127665280D01*
X186158473Y-127664360D01*
X186161176Y-127669042D01*
X186161178Y-127669046D01*
X186294962Y-127860109D01*
X186459891Y-128025038D01*
X186650954Y-128158822D01*
X186774856Y-128216598D01*
X186862339Y-128257392D01*
X186862341Y-128257392D01*
X186862346Y-128257395D01*
X187087643Y-128317763D01*
X187273528Y-128334026D01*
X187319999Y-128338092D01*
X187320000Y-128338092D01*
X187320001Y-128338092D01*
X187358726Y-128334703D01*
X187552357Y-128317763D01*
X187777654Y-128257395D01*
X187989046Y-128158822D01*
X188180109Y-128025038D01*
X188345038Y-127860109D01*
X188478822Y-127669046D01*
X188478826Y-127669035D01*
X188481527Y-127664360D01*
X188483179Y-127665313D01*
X188523784Y-127619192D01*
X188590976Y-127600036D01*
X188657859Y-127620248D01*
X188696879Y-127665280D01*
X188698473Y-127664360D01*
X188701176Y-127669042D01*
X188701178Y-127669046D01*
X188834962Y-127860109D01*
X188999891Y-128025038D01*
X189190954Y-128158822D01*
X189314856Y-128216598D01*
X189402339Y-128257392D01*
X189402341Y-128257392D01*
X189402346Y-128257395D01*
X189627643Y-128317763D01*
X189813528Y-128334026D01*
X189859999Y-128338092D01*
X189860000Y-128338092D01*
X189860001Y-128338092D01*
X189898726Y-128334703D01*
X190092357Y-128317763D01*
X190317654Y-128257395D01*
X190529046Y-128158822D01*
X190720109Y-128025038D01*
X190885038Y-127860109D01*
X191018822Y-127669046D01*
X191117395Y-127457654D01*
X191177763Y-127232357D01*
X191198092Y-127000000D01*
X191177763Y-126767643D01*
X191125716Y-126573402D01*
X191117397Y-126542353D01*
X191117392Y-126542339D01*
X191063788Y-126427384D01*
X191018822Y-126330954D01*
X190885038Y-126139891D01*
X190720109Y-125974962D01*
X190529046Y-125841178D01*
X190529042Y-125841176D01*
X190317660Y-125742607D01*
X190317646Y-125742602D01*
X190092362Y-125682238D01*
X190092352Y-125682236D01*
X189860001Y-125661908D01*
X189859999Y-125661908D01*
X189627647Y-125682236D01*
X189627637Y-125682238D01*
X189402353Y-125742602D01*
X189402339Y-125742607D01*
X189190957Y-125841176D01*
X189190955Y-125841177D01*
X189190954Y-125841178D01*
X188999891Y-125974962D01*
X188999889Y-125974963D01*
X188999886Y-125974966D01*
X188834966Y-126139886D01*
X188834963Y-126139889D01*
X188834962Y-126139891D01*
X188785548Y-126210462D01*
X188701177Y-126330955D01*
X188698473Y-126335640D01*
X188696824Y-126334688D01*
X188656199Y-126380818D01*
X188589003Y-126399963D01*
X188522124Y-126379740D01*
X188483115Y-126334722D01*
X188481527Y-126335640D01*
X188478822Y-126330955D01*
X188478822Y-126330954D01*
X188345038Y-126139891D01*
X188180109Y-125974962D01*
X187989046Y-125841178D01*
X187989042Y-125841176D01*
X187777660Y-125742607D01*
X187777646Y-125742602D01*
X187552362Y-125682238D01*
X187552352Y-125682236D01*
X187320001Y-125661908D01*
X187319999Y-125661908D01*
X187087647Y-125682236D01*
X187087637Y-125682238D01*
X186862353Y-125742602D01*
X186862339Y-125742607D01*
X186650957Y-125841176D01*
X186650955Y-125841177D01*
X186650954Y-125841178D01*
X186459891Y-125974962D01*
X186459889Y-125974963D01*
X186459886Y-125974966D01*
X186294966Y-126139886D01*
X186294963Y-126139889D01*
X186294962Y-126139891D01*
X186245548Y-126210462D01*
X186161177Y-126330955D01*
X186158473Y-126335640D01*
X186156824Y-126334688D01*
X186116199Y-126380818D01*
X186049003Y-126399963D01*
X185982124Y-126379740D01*
X185943115Y-126334722D01*
X185941527Y-126335640D01*
X185938822Y-126330955D01*
X185938822Y-126330954D01*
X185805038Y-126139891D01*
X185640109Y-125974962D01*
X185449046Y-125841178D01*
X185449042Y-125841176D01*
X185237660Y-125742607D01*
X185237646Y-125742602D01*
X185097560Y-125705067D01*
X185067653Y-125692679D01*
X185049570Y-125682239D01*
X185042394Y-125678095D01*
X185011786Y-125660424D01*
X185011785Y-125660423D01*
X185011784Y-125660423D01*
X184859057Y-125619500D01*
X184700943Y-125619500D01*
X184548216Y-125660423D01*
X184548213Y-125660424D01*
X184492342Y-125692680D01*
X184462439Y-125705066D01*
X184322351Y-125742603D01*
X184322339Y-125742607D01*
X184110957Y-125841176D01*
X184110955Y-125841177D01*
X184110954Y-125841178D01*
X183919891Y-125974962D01*
X183919889Y-125974963D01*
X183919886Y-125974966D01*
X183754966Y-126139886D01*
X183754963Y-126139889D01*
X183754962Y-126139891D01*
X183705548Y-126210462D01*
X183621177Y-126330955D01*
X183618473Y-126335640D01*
X183616824Y-126334688D01*
X183576199Y-126380818D01*
X183509003Y-126399963D01*
X183442124Y-126379740D01*
X183403115Y-126334722D01*
X183401527Y-126335640D01*
X183398822Y-126330955D01*
X183398822Y-126330954D01*
X183265038Y-126139891D01*
X183100109Y-125974962D01*
X182909046Y-125841178D01*
X182909042Y-125841176D01*
X182697660Y-125742607D01*
X182697646Y-125742602D01*
X182472362Y-125682238D01*
X182472352Y-125682236D01*
X182240001Y-125661908D01*
X182239999Y-125661908D01*
X182007647Y-125682236D01*
X182007634Y-125682239D01*
X181890530Y-125713616D01*
X181820681Y-125711953D01*
X181770757Y-125681522D01*
X176801416Y-120712181D01*
X176767931Y-120650858D01*
X176772915Y-120581166D01*
X176814787Y-120525233D01*
X176880251Y-120500816D01*
X176889097Y-120500500D01*
X194375500Y-120500500D01*
X194442539Y-120520185D01*
X194488294Y-120572989D01*
X194499500Y-120624500D01*
X194499500Y-149375500D01*
X194479815Y-149442539D01*
X194427011Y-149488294D01*
X194375500Y-149499500D01*
X100624500Y-149499500D01*
X100557461Y-149479815D01*
X100511706Y-149427011D01*
X100500500Y-149375500D01*
X100500500Y-138999994D01*
X103494556Y-138999994D01*
X103494556Y-139000005D01*
X103514310Y-139314004D01*
X103514311Y-139314011D01*
X103527598Y-139383663D01*
X103568961Y-139600498D01*
X103573270Y-139623083D01*
X103670497Y-139922316D01*
X103670499Y-139922321D01*
X103804461Y-140207003D01*
X103804464Y-140207009D01*
X103973051Y-140472661D01*
X103973054Y-140472665D01*
X104173606Y-140715090D01*
X104173608Y-140715092D01*
X104173610Y-140715094D01*
X104245038Y-140782169D01*
X104402968Y-140930476D01*
X104402978Y-140930484D01*
X104657504Y-141115408D01*
X104657509Y-141115410D01*
X104657516Y-141115416D01*
X104933234Y-141266994D01*
X104933239Y-141266996D01*
X104933241Y-141266997D01*
X104933242Y-141266998D01*
X105169927Y-141360708D01*
X105225013Y-141403689D01*
X105248116Y-141469628D01*
X105231903Y-141537591D01*
X105181519Y-141585998D01*
X105124280Y-141600000D01*
X104052155Y-141600000D01*
X103992627Y-141606401D01*
X103992620Y-141606403D01*
X103857913Y-141656645D01*
X103857906Y-141656649D01*
X103742812Y-141742809D01*
X103742809Y-141742812D01*
X103656649Y-141857906D01*
X103656645Y-141857913D01*
X103606403Y-141992620D01*
X103606401Y-141992627D01*
X103600000Y-142052155D01*
X103600000Y-143750000D01*
X104672769Y-143750000D01*
X104650000Y-143893753D01*
X104650000Y-144106247D01*
X104672769Y-144250000D01*
X103600000Y-144250000D01*
X103600000Y-145947844D01*
X103606401Y-146007372D01*
X103606403Y-146007379D01*
X103656645Y-146142086D01*
X103656649Y-146142093D01*
X103742809Y-146257187D01*
X103742812Y-146257190D01*
X103857906Y-146343350D01*
X103857913Y-146343354D01*
X103992620Y-146393596D01*
X103992627Y-146393598D01*
X104052155Y-146399999D01*
X104052172Y-146400000D01*
X105750000Y-146400000D01*
X105750000Y-145327231D01*
X105893753Y-145350000D01*
X106106247Y-145350000D01*
X106250000Y-145327231D01*
X106250000Y-146400000D01*
X107947828Y-146400000D01*
X107947844Y-146399999D01*
X108007372Y-146393598D01*
X108007379Y-146393596D01*
X108142086Y-146343354D01*
X108142093Y-146343350D01*
X108257187Y-146257190D01*
X108257190Y-146257187D01*
X108343350Y-146142093D01*
X108343354Y-146142086D01*
X108393596Y-146007379D01*
X108393598Y-146007372D01*
X108399999Y-145947844D01*
X108400000Y-145947827D01*
X108400000Y-144602135D01*
X114569500Y-144602135D01*
X114569500Y-146397870D01*
X114569501Y-146397876D01*
X114575908Y-146457483D01*
X114626202Y-146592328D01*
X114626206Y-146592335D01*
X114712452Y-146707544D01*
X114712455Y-146707547D01*
X114827664Y-146793793D01*
X114827671Y-146793797D01*
X114962517Y-146844091D01*
X114962516Y-146844091D01*
X114969444Y-146844835D01*
X115022127Y-146850500D01*
X116817872Y-146850499D01*
X116877483Y-146844091D01*
X117012331Y-146793796D01*
X117127546Y-146707546D01*
X117213796Y-146592331D01*
X117263002Y-146460401D01*
X117304872Y-146404468D01*
X117370337Y-146380050D01*
X117438610Y-146394901D01*
X117466865Y-146416053D01*
X117588917Y-146538105D01*
X117782421Y-146673600D01*
X117996507Y-146773429D01*
X117996516Y-146773433D01*
X118210000Y-146830634D01*
X118210000Y-145933012D01*
X118267007Y-145965925D01*
X118394174Y-146000000D01*
X118525826Y-146000000D01*
X118652993Y-145965925D01*
X118710000Y-145933012D01*
X118710000Y-146830633D01*
X118923483Y-146773433D01*
X118923492Y-146773429D01*
X119137578Y-146673600D01*
X119331082Y-146538105D01*
X119498105Y-146371082D01*
X119628119Y-146185405D01*
X119682696Y-146141781D01*
X119752195Y-146134588D01*
X119814549Y-146166110D01*
X119831269Y-146185405D01*
X119961505Y-146371401D01*
X120128599Y-146538495D01*
X120217150Y-146600499D01*
X120322165Y-146674032D01*
X120322167Y-146674033D01*
X120322170Y-146674035D01*
X120536337Y-146773903D01*
X120764592Y-146835063D01*
X120941034Y-146850500D01*
X120999999Y-146855659D01*
X121000000Y-146855659D01*
X121000001Y-146855659D01*
X121058966Y-146850500D01*
X121235408Y-146835063D01*
X121463663Y-146773903D01*
X121677830Y-146674035D01*
X121871401Y-146538495D01*
X122038495Y-146371401D01*
X122168425Y-146185842D01*
X122223002Y-146142217D01*
X122292500Y-146135023D01*
X122354855Y-146166546D01*
X122371575Y-146185842D01*
X122501500Y-146371395D01*
X122501505Y-146371401D01*
X122668599Y-146538495D01*
X122757150Y-146600499D01*
X122862165Y-146674032D01*
X122862167Y-146674033D01*
X122862170Y-146674035D01*
X123076337Y-146773903D01*
X123304592Y-146835063D01*
X123481034Y-146850500D01*
X123539999Y-146855659D01*
X123540000Y-146855659D01*
X123540001Y-146855659D01*
X123598966Y-146850500D01*
X123775408Y-146835063D01*
X124003663Y-146773903D01*
X124217830Y-146674035D01*
X124411401Y-146538495D01*
X124578495Y-146371401D01*
X124714035Y-146177830D01*
X124813903Y-145963663D01*
X124875063Y-145735408D01*
X124895659Y-145500000D01*
X124875063Y-145264592D01*
X124825344Y-145079035D01*
X124813905Y-145036344D01*
X124813904Y-145036343D01*
X124813903Y-145036337D01*
X124714035Y-144822171D01*
X124708731Y-144814595D01*
X124578494Y-144628597D01*
X124411402Y-144461506D01*
X124411395Y-144461501D01*
X124217834Y-144325967D01*
X124217830Y-144325965D01*
X124196730Y-144316126D01*
X124003663Y-144226097D01*
X124003659Y-144226096D01*
X124003655Y-144226094D01*
X123775413Y-144164938D01*
X123775403Y-144164936D01*
X123540001Y-144144341D01*
X123539999Y-144144341D01*
X123304596Y-144164936D01*
X123304586Y-144164938D01*
X123076344Y-144226094D01*
X123076335Y-144226098D01*
X122862171Y-144325964D01*
X122862169Y-144325965D01*
X122668597Y-144461505D01*
X122501505Y-144628597D01*
X122371575Y-144814158D01*
X122316998Y-144857783D01*
X122247500Y-144864977D01*
X122185145Y-144833454D01*
X122168425Y-144814158D01*
X122038494Y-144628597D01*
X121871402Y-144461506D01*
X121871395Y-144461501D01*
X121677834Y-144325967D01*
X121677830Y-144325965D01*
X121656730Y-144316126D01*
X121463663Y-144226097D01*
X121463659Y-144226096D01*
X121463655Y-144226094D01*
X121235413Y-144164938D01*
X121235403Y-144164936D01*
X121000001Y-144144341D01*
X120999999Y-144144341D01*
X120764596Y-144164936D01*
X120764586Y-144164938D01*
X120536344Y-144226094D01*
X120536335Y-144226098D01*
X120322171Y-144325964D01*
X120322169Y-144325965D01*
X120128597Y-144461505D01*
X119961508Y-144628594D01*
X119831269Y-144814595D01*
X119776692Y-144858219D01*
X119707193Y-144865412D01*
X119644839Y-144833890D01*
X119628119Y-144814594D01*
X119498113Y-144628926D01*
X119498108Y-144628920D01*
X119331082Y-144461894D01*
X119137578Y-144326399D01*
X118923492Y-144226570D01*
X118923486Y-144226567D01*
X118710000Y-144169364D01*
X118710000Y-145066988D01*
X118652993Y-145034075D01*
X118525826Y-145000000D01*
X118394174Y-145000000D01*
X118267007Y-145034075D01*
X118210000Y-145066988D01*
X118210000Y-144169364D01*
X118209999Y-144169364D01*
X117996513Y-144226567D01*
X117996507Y-144226570D01*
X117782422Y-144326399D01*
X117782420Y-144326400D01*
X117588926Y-144461886D01*
X117466865Y-144583947D01*
X117405542Y-144617431D01*
X117335850Y-144612447D01*
X117279917Y-144570575D01*
X117263002Y-144539598D01*
X117213797Y-144407671D01*
X117213793Y-144407664D01*
X117127547Y-144292455D01*
X117127544Y-144292452D01*
X117012335Y-144206206D01*
X117012328Y-144206202D01*
X116877482Y-144155908D01*
X116877483Y-144155908D01*
X116817883Y-144149501D01*
X116817881Y-144149500D01*
X116817873Y-144149500D01*
X116817864Y-144149500D01*
X115022129Y-144149500D01*
X115022123Y-144149501D01*
X114962516Y-144155908D01*
X114827671Y-144206202D01*
X114827664Y-144206206D01*
X114712455Y-144292452D01*
X114712452Y-144292455D01*
X114626206Y-144407664D01*
X114626202Y-144407671D01*
X114575908Y-144542517D01*
X114569501Y-144602116D01*
X114569500Y-144602135D01*
X108400000Y-144602135D01*
X108400000Y-144250000D01*
X107327231Y-144250000D01*
X107350000Y-144106247D01*
X107350000Y-143893753D01*
X107327231Y-143750000D01*
X108400000Y-143750000D01*
X108400000Y-142052172D01*
X108399999Y-142052155D01*
X108393598Y-141992627D01*
X108393596Y-141992620D01*
X108343354Y-141857913D01*
X108343350Y-141857906D01*
X108257190Y-141742812D01*
X108257187Y-141742809D01*
X108142093Y-141656649D01*
X108142086Y-141656645D01*
X108007379Y-141606403D01*
X108007372Y-141606401D01*
X107947844Y-141600000D01*
X106875720Y-141600000D01*
X106808681Y-141580315D01*
X106762926Y-141527511D01*
X106752982Y-141458353D01*
X106782007Y-141394797D01*
X106830073Y-141360708D01*
X107066757Y-141266998D01*
X107066758Y-141266997D01*
X107066756Y-141266997D01*
X107066766Y-141266994D01*
X107342484Y-141115416D01*
X107597030Y-140930478D01*
X107826390Y-140715094D01*
X108026947Y-140472663D01*
X108195537Y-140207007D01*
X108329503Y-139922315D01*
X108426731Y-139623079D01*
X108485688Y-139314015D01*
X108491796Y-139216928D01*
X108505444Y-139000005D01*
X108505444Y-138999994D01*
X108485689Y-138685995D01*
X108485688Y-138685988D01*
X108485688Y-138685985D01*
X108426731Y-138376921D01*
X108329503Y-138077685D01*
X108329440Y-138077552D01*
X108273695Y-137959087D01*
X108195537Y-137792993D01*
X108090512Y-137627500D01*
X108026948Y-137527338D01*
X108026945Y-137527334D01*
X107826393Y-137284909D01*
X107826391Y-137284907D01*
X107790705Y-137251395D01*
X107597030Y-137069522D01*
X107597027Y-137069520D01*
X107597021Y-137069515D01*
X107342495Y-136884591D01*
X107342488Y-136884586D01*
X107342484Y-136884584D01*
X107066766Y-136733006D01*
X107066763Y-136733004D01*
X107066758Y-136733002D01*
X107066757Y-136733001D01*
X106774228Y-136617181D01*
X106774225Y-136617180D01*
X106469476Y-136538934D01*
X106469463Y-136538932D01*
X106157329Y-136499500D01*
X106157318Y-136499500D01*
X105842682Y-136499500D01*
X105842670Y-136499500D01*
X105530536Y-136538932D01*
X105530523Y-136538934D01*
X105225774Y-136617180D01*
X105225771Y-136617181D01*
X104933242Y-136733001D01*
X104933241Y-136733002D01*
X104657516Y-136884584D01*
X104657504Y-136884591D01*
X104402978Y-137069515D01*
X104402968Y-137069523D01*
X104173608Y-137284907D01*
X104173606Y-137284909D01*
X103973054Y-137527334D01*
X103973051Y-137527338D01*
X103804464Y-137792990D01*
X103804461Y-137792996D01*
X103670499Y-138077678D01*
X103670497Y-138077683D01*
X103573270Y-138376916D01*
X103514311Y-138685988D01*
X103514310Y-138685995D01*
X103494556Y-138999994D01*
X100500500Y-138999994D01*
X100500500Y-131499999D01*
X107359635Y-131499999D01*
X107359635Y-131500000D01*
X107379051Y-131709537D01*
X107379051Y-131709539D01*
X107379052Y-131709542D01*
X107394451Y-131763663D01*
X107436642Y-131911950D01*
X107518526Y-132076395D01*
X107530442Y-132100325D01*
X107638561Y-132243498D01*
X107657261Y-132268260D01*
X107812776Y-132410030D01*
X107812778Y-132410032D01*
X107991692Y-132520811D01*
X107991698Y-132520814D01*
X107997346Y-132523002D01*
X108187924Y-132596832D01*
X108394780Y-132635500D01*
X108394782Y-132635500D01*
X108605218Y-132635500D01*
X108605220Y-132635500D01*
X108812076Y-132596832D01*
X109008304Y-132520813D01*
X109187223Y-132410031D01*
X109342740Y-132268259D01*
X109469558Y-132100325D01*
X109563359Y-131911947D01*
X109620948Y-131709542D01*
X109640365Y-131500000D01*
X109620948Y-131290458D01*
X109563359Y-131088053D01*
X109469558Y-130899675D01*
X109342740Y-130731741D01*
X109187223Y-130589969D01*
X109187221Y-130589967D01*
X109008307Y-130479188D01*
X109008301Y-130479185D01*
X108853648Y-130419273D01*
X108812076Y-130403168D01*
X108605220Y-130364500D01*
X108394780Y-130364500D01*
X108187924Y-130403168D01*
X108187921Y-130403168D01*
X108187921Y-130403169D01*
X107991698Y-130479185D01*
X107991692Y-130479188D01*
X107812778Y-130589967D01*
X107812776Y-130589969D01*
X107657261Y-130731739D01*
X107530442Y-130899674D01*
X107436642Y-131088049D01*
X107379051Y-131290462D01*
X107359635Y-131499999D01*
X100500500Y-131499999D01*
X100500500Y-128959999D01*
X107360138Y-128959999D01*
X107360138Y-128960000D01*
X107379545Y-129169444D01*
X107437111Y-129371769D01*
X107530871Y-129560062D01*
X107537545Y-129568899D01*
X108119000Y-128987446D01*
X108119000Y-129010160D01*
X108144964Y-129107061D01*
X108195124Y-129193940D01*
X108266060Y-129264876D01*
X108352939Y-129315036D01*
X108449840Y-129341000D01*
X108472553Y-129341000D01*
X107893887Y-129919663D01*
X107991918Y-129980362D01*
X107991920Y-129980363D01*
X108188063Y-130056348D01*
X108394829Y-130095000D01*
X108605171Y-130095000D01*
X108811935Y-130056348D01*
X108811936Y-130056348D01*
X109008079Y-129980363D01*
X109008080Y-129980362D01*
X109106110Y-129919664D01*
X109106111Y-129919663D01*
X108527448Y-129341000D01*
X108550160Y-129341000D01*
X108647061Y-129315036D01*
X108733940Y-129264876D01*
X108804876Y-129193940D01*
X108855036Y-129107061D01*
X108881000Y-129010160D01*
X108881000Y-128987447D01*
X109462452Y-129568899D01*
X109462453Y-129568899D01*
X109469128Y-129560061D01*
X109562888Y-129371769D01*
X109620454Y-129169444D01*
X109639862Y-128960000D01*
X109639862Y-128959999D01*
X109620454Y-128750555D01*
X109596111Y-128664999D01*
X135644341Y-128664999D01*
X135644341Y-128665000D01*
X135664936Y-128900403D01*
X135664938Y-128900413D01*
X135726094Y-129128655D01*
X135726096Y-129128659D01*
X135726097Y-129128663D01*
X135812313Y-129313553D01*
X135825965Y-129342830D01*
X135825967Y-129342834D01*
X135961501Y-129536395D01*
X135961506Y-129536402D01*
X136128597Y-129703493D01*
X136128603Y-129703498D01*
X136314158Y-129833425D01*
X136357783Y-129888002D01*
X136364977Y-129957500D01*
X136333454Y-130019855D01*
X136314158Y-130036575D01*
X136128597Y-130166505D01*
X135961505Y-130333597D01*
X135825965Y-130527169D01*
X135825964Y-130527171D01*
X135726098Y-130741335D01*
X135726094Y-130741344D01*
X135664938Y-130969586D01*
X135664936Y-130969596D01*
X135644341Y-131204999D01*
X135644341Y-131205000D01*
X135664936Y-131440403D01*
X135664938Y-131440413D01*
X135726094Y-131668655D01*
X135726096Y-131668659D01*
X135726097Y-131668663D01*
X135770397Y-131763664D01*
X135825965Y-131882830D01*
X135825967Y-131882834D01*
X135961501Y-132076395D01*
X135961506Y-132076402D01*
X136128597Y-132243493D01*
X136128603Y-132243498D01*
X136314158Y-132373425D01*
X136357783Y-132428002D01*
X136364977Y-132497500D01*
X136333454Y-132559855D01*
X136314158Y-132576575D01*
X136128597Y-132706505D01*
X135961505Y-132873597D01*
X135825965Y-133067169D01*
X135825964Y-133067171D01*
X135726098Y-133281335D01*
X135726094Y-133281344D01*
X135664938Y-133509586D01*
X135664936Y-133509596D01*
X135644341Y-133744999D01*
X135644341Y-133745000D01*
X135664936Y-133980403D01*
X135664938Y-133980413D01*
X135726094Y-134208655D01*
X135726096Y-134208659D01*
X135726097Y-134208663D01*
X135770397Y-134303664D01*
X135825965Y-134422830D01*
X135825967Y-134422834D01*
X135961501Y-134616395D01*
X135961506Y-134616402D01*
X136128597Y-134783493D01*
X136128603Y-134783498D01*
X136314158Y-134913425D01*
X136357783Y-134968002D01*
X136364977Y-135037500D01*
X136333454Y-135099855D01*
X136314158Y-135116575D01*
X136128597Y-135246505D01*
X135961505Y-135413597D01*
X135825965Y-135607169D01*
X135825964Y-135607171D01*
X135726098Y-135821335D01*
X135726094Y-135821344D01*
X135664938Y-136049586D01*
X135664936Y-136049596D01*
X135644341Y-136284999D01*
X135644341Y-136285000D01*
X135664936Y-136520403D01*
X135664938Y-136520413D01*
X135726094Y-136748655D01*
X135726096Y-136748659D01*
X135726097Y-136748663D01*
X135807045Y-136922255D01*
X135825965Y-136962830D01*
X135825967Y-136962834D01*
X135961501Y-137156395D01*
X135961506Y-137156402D01*
X136128597Y-137323493D01*
X136128603Y-137323498D01*
X136314158Y-137453425D01*
X136357783Y-137508002D01*
X136364977Y-137577500D01*
X136333454Y-137639855D01*
X136314158Y-137656575D01*
X136128597Y-137786505D01*
X135961505Y-137953597D01*
X135825965Y-138147169D01*
X135825964Y-138147171D01*
X135726098Y-138361335D01*
X135726094Y-138361344D01*
X135664938Y-138589586D01*
X135664936Y-138589596D01*
X135644341Y-138824999D01*
X135644341Y-138825000D01*
X135664936Y-139060403D01*
X135664938Y-139060413D01*
X135726094Y-139288655D01*
X135726096Y-139288659D01*
X135726097Y-139288663D01*
X135825965Y-139502830D01*
X135825967Y-139502834D01*
X135961501Y-139696395D01*
X135961506Y-139696402D01*
X136128597Y-139863493D01*
X136128603Y-139863498D01*
X136314158Y-139993425D01*
X136357783Y-140048002D01*
X136364977Y-140117500D01*
X136333454Y-140179855D01*
X136314158Y-140196575D01*
X136128597Y-140326505D01*
X135961505Y-140493597D01*
X135825965Y-140687169D01*
X135825964Y-140687171D01*
X135726098Y-140901335D01*
X135726094Y-140901344D01*
X135664938Y-141129586D01*
X135664936Y-141129596D01*
X135644341Y-141364999D01*
X135644341Y-141365000D01*
X135664936Y-141600403D01*
X135664938Y-141600413D01*
X135726094Y-141828655D01*
X135726096Y-141828659D01*
X135726097Y-141828663D01*
X135820073Y-142030194D01*
X135825965Y-142042830D01*
X135825967Y-142042834D01*
X135961501Y-142236395D01*
X135961506Y-142236402D01*
X136128597Y-142403493D01*
X136128603Y-142403498D01*
X136314158Y-142533425D01*
X136357783Y-142588002D01*
X136364977Y-142657500D01*
X136333454Y-142719855D01*
X136314158Y-142736575D01*
X136128597Y-142866505D01*
X135961505Y-143033597D01*
X135825965Y-143227169D01*
X135825964Y-143227171D01*
X135726098Y-143441335D01*
X135726094Y-143441344D01*
X135664938Y-143669586D01*
X135664936Y-143669596D01*
X135644341Y-143904999D01*
X135644341Y-143905000D01*
X135664936Y-144140403D01*
X135664938Y-144140413D01*
X135726094Y-144368655D01*
X135726096Y-144368659D01*
X135726097Y-144368663D01*
X135771451Y-144465925D01*
X135825965Y-144582830D01*
X135825967Y-144582834D01*
X135913298Y-144707554D01*
X135961505Y-144776401D01*
X136128599Y-144943495D01*
X136225384Y-145011265D01*
X136322165Y-145079032D01*
X136322167Y-145079033D01*
X136322170Y-145079035D01*
X136536337Y-145178903D01*
X136764592Y-145240063D01*
X136952918Y-145256539D01*
X136999999Y-145260659D01*
X137000000Y-145260659D01*
X137000001Y-145260659D01*
X137039234Y-145257226D01*
X137235408Y-145240063D01*
X137463663Y-145178903D01*
X137677830Y-145079035D01*
X137871401Y-144943495D01*
X138038495Y-144776401D01*
X138174035Y-144582830D01*
X138273903Y-144368663D01*
X138335063Y-144140408D01*
X138355659Y-143905000D01*
X138335063Y-143669592D01*
X138273903Y-143441337D01*
X138174035Y-143227171D01*
X138151331Y-143194745D01*
X138038494Y-143033597D01*
X137871402Y-142866506D01*
X137871396Y-142866501D01*
X137685842Y-142736575D01*
X137642217Y-142681998D01*
X137635023Y-142612500D01*
X137666546Y-142550145D01*
X137685842Y-142533425D01*
X137799682Y-142453713D01*
X137871401Y-142403495D01*
X137899913Y-142374983D01*
X143899500Y-142374983D01*
X143899500Y-143725001D01*
X143899501Y-143725018D01*
X143910000Y-143827796D01*
X143910001Y-143827799D01*
X143937209Y-143909905D01*
X143965186Y-143994334D01*
X144057288Y-144143656D01*
X144181344Y-144267712D01*
X144330666Y-144359814D01*
X144497203Y-144414999D01*
X144599991Y-144425500D01*
X145400008Y-144425499D01*
X145400016Y-144425498D01*
X145400019Y-144425498D01*
X145456302Y-144419748D01*
X145502797Y-144414999D01*
X145669334Y-144359814D01*
X145818656Y-144267712D01*
X145942712Y-144143656D01*
X145982581Y-144079016D01*
X146034525Y-144032294D01*
X146103488Y-144021071D01*
X146167570Y-144048914D01*
X146175799Y-144056434D01*
X146283397Y-144164032D01*
X146423475Y-144265804D01*
X146577744Y-144344408D01*
X146742415Y-144397914D01*
X146742414Y-144397914D01*
X146749999Y-144399115D01*
X146750000Y-144399114D01*
X146750000Y-143330330D01*
X146769745Y-143350075D01*
X146855255Y-143399444D01*
X146950630Y-143425000D01*
X147049370Y-143425000D01*
X147144745Y-143399444D01*
X147230255Y-143350075D01*
X147250000Y-143330330D01*
X147250000Y-144399115D01*
X147257584Y-144397914D01*
X147422255Y-144344408D01*
X147576524Y-144265804D01*
X147716602Y-144164032D01*
X147839036Y-144041598D01*
X147899371Y-143958552D01*
X147954700Y-143915886D01*
X148024313Y-143909905D01*
X148086109Y-143942510D01*
X148100008Y-143958550D01*
X148120587Y-143986874D01*
X148160586Y-144041928D01*
X148283072Y-144164414D01*
X148423212Y-144266232D01*
X148577555Y-144344873D01*
X148742299Y-144398402D01*
X148913389Y-144425500D01*
X148913390Y-144425500D01*
X149086610Y-144425500D01*
X149086611Y-144425500D01*
X149257701Y-144398402D01*
X149367684Y-144362665D01*
X149437522Y-144360671D01*
X149493681Y-144392916D01*
X151465139Y-146364374D01*
X151465149Y-146364385D01*
X151469479Y-146368715D01*
X151469480Y-146368716D01*
X151581284Y-146480520D01*
X151668095Y-146530639D01*
X151668097Y-146530641D01*
X151706151Y-146552611D01*
X151718215Y-146559577D01*
X151870943Y-146600501D01*
X151870946Y-146600501D01*
X152036653Y-146600501D01*
X152036669Y-146600500D01*
X176079055Y-146600500D01*
X176079057Y-146600500D01*
X176231784Y-146559577D01*
X176368716Y-146480520D01*
X176480520Y-146368716D01*
X176554323Y-146240883D01*
X176574023Y-146215210D01*
X179230758Y-143558475D01*
X179292079Y-143524992D01*
X179350530Y-143526383D01*
X179379238Y-143534075D01*
X179467643Y-143557763D01*
X179652898Y-143573971D01*
X179699999Y-143578092D01*
X179700000Y-143578092D01*
X179700001Y-143578092D01*
X179747102Y-143573971D01*
X179932357Y-143557763D01*
X180157654Y-143497395D01*
X180369046Y-143398822D01*
X180560109Y-143265038D01*
X180725038Y-143100109D01*
X180858822Y-142909046D01*
X180858826Y-142909035D01*
X180861527Y-142904360D01*
X180863179Y-142905313D01*
X180903784Y-142859192D01*
X180970976Y-142840036D01*
X181037859Y-142860248D01*
X181076879Y-142905280D01*
X181078473Y-142904360D01*
X181081176Y-142909042D01*
X181081178Y-142909046D01*
X181214962Y-143100109D01*
X181379891Y-143265038D01*
X181570954Y-143398822D01*
X181698132Y-143458126D01*
X181782339Y-143497392D01*
X181782341Y-143497392D01*
X181782346Y-143497395D01*
X181782351Y-143497396D01*
X181782353Y-143497397D01*
X181836578Y-143511926D01*
X182007643Y-143557763D01*
X182192898Y-143573971D01*
X182239999Y-143578092D01*
X182240000Y-143578092D01*
X182240001Y-143578092D01*
X182287102Y-143573971D01*
X182472357Y-143557763D01*
X182697654Y-143497395D01*
X182909046Y-143398822D01*
X183100109Y-143265038D01*
X183265038Y-143100109D01*
X183398822Y-142909046D01*
X183398826Y-142909035D01*
X183401527Y-142904360D01*
X183403179Y-142905313D01*
X183443784Y-142859192D01*
X183510976Y-142840036D01*
X183577859Y-142860248D01*
X183616879Y-142905280D01*
X183618473Y-142904360D01*
X183621176Y-142909042D01*
X183621178Y-142909046D01*
X183754962Y-143100109D01*
X183919891Y-143265038D01*
X184110954Y-143398822D01*
X184238132Y-143458126D01*
X184322339Y-143497392D01*
X184322341Y-143497392D01*
X184322346Y-143497395D01*
X184322351Y-143497396D01*
X184322353Y-143497397D01*
X184376578Y-143511926D01*
X184547643Y-143557763D01*
X184732898Y-143573971D01*
X184779999Y-143578092D01*
X184780000Y-143578092D01*
X184780001Y-143578092D01*
X184827102Y-143573971D01*
X185012357Y-143557763D01*
X185237654Y-143497395D01*
X185449046Y-143398822D01*
X185640109Y-143265038D01*
X185805038Y-143100109D01*
X185938822Y-142909046D01*
X185938826Y-142909035D01*
X185941527Y-142904360D01*
X185943016Y-142905219D01*
X185984060Y-142858600D01*
X186051252Y-142839444D01*
X186118134Y-142859655D01*
X186157401Y-142904971D01*
X186158905Y-142904104D01*
X186161613Y-142908795D01*
X186217638Y-142988807D01*
X186217639Y-142988808D01*
X186792129Y-142414317D01*
X186802822Y-142454222D01*
X186875890Y-142580778D01*
X186979222Y-142684110D01*
X187105778Y-142757178D01*
X187145682Y-142767870D01*
X186571190Y-143342360D01*
X186651209Y-143398388D01*
X186862515Y-143496921D01*
X186862521Y-143496924D01*
X187087727Y-143557268D01*
X187087735Y-143557269D01*
X187319998Y-143577590D01*
X187320002Y-143577590D01*
X187552264Y-143557269D01*
X187552272Y-143557268D01*
X187777478Y-143496924D01*
X187777484Y-143496921D01*
X187988794Y-143398386D01*
X188068808Y-143342360D01*
X187494317Y-142767870D01*
X187534222Y-142757178D01*
X187660778Y-142684110D01*
X187764110Y-142580778D01*
X187837178Y-142454222D01*
X187847870Y-142414318D01*
X188422360Y-142988808D01*
X188478387Y-142908793D01*
X188481092Y-142904109D01*
X188482656Y-142905012D01*
X188523475Y-142858620D01*
X188590662Y-142839444D01*
X188657550Y-142859635D01*
X188697043Y-142905185D01*
X188698473Y-142904360D01*
X188701176Y-142909042D01*
X188701178Y-142909046D01*
X188834962Y-143100109D01*
X188999891Y-143265038D01*
X189190954Y-143398822D01*
X189318132Y-143458126D01*
X189402339Y-143497392D01*
X189402341Y-143497392D01*
X189402346Y-143497395D01*
X189402351Y-143497396D01*
X189402353Y-143497397D01*
X189456578Y-143511926D01*
X189627643Y-143557763D01*
X189812898Y-143573971D01*
X189859999Y-143578092D01*
X189860000Y-143578092D01*
X189860001Y-143578092D01*
X189907102Y-143573971D01*
X190092357Y-143557763D01*
X190317654Y-143497395D01*
X190529046Y-143398822D01*
X190720109Y-143265038D01*
X190885038Y-143100109D01*
X191018822Y-142909046D01*
X191117395Y-142697654D01*
X191177763Y-142472357D01*
X191198092Y-142240000D01*
X191177763Y-142007643D01*
X191117395Y-141782346D01*
X191018822Y-141570954D01*
X190885038Y-141379891D01*
X190720109Y-141214962D01*
X190529046Y-141081178D01*
X190529042Y-141081176D01*
X190317660Y-140982607D01*
X190317646Y-140982602D01*
X190092362Y-140922238D01*
X190092352Y-140922236D01*
X189860001Y-140901908D01*
X189859999Y-140901908D01*
X189627647Y-140922236D01*
X189627637Y-140922238D01*
X189402353Y-140982602D01*
X189402339Y-140982607D01*
X189190957Y-141081176D01*
X189190955Y-141081177D01*
X189142057Y-141115416D01*
X188999891Y-141214962D01*
X188999889Y-141214963D01*
X188999886Y-141214966D01*
X188834966Y-141379886D01*
X188834963Y-141379889D01*
X188834962Y-141379891D01*
X188780022Y-141458353D01*
X188701177Y-141570955D01*
X188698473Y-141575640D01*
X188696992Y-141574785D01*
X188655896Y-141621426D01*
X188588696Y-141640555D01*
X188521822Y-141620315D01*
X188482600Y-141575026D01*
X188481095Y-141575896D01*
X188478390Y-141571212D01*
X188422359Y-141491190D01*
X187847869Y-142065681D01*
X187837178Y-142025778D01*
X187764110Y-141899222D01*
X187660778Y-141795890D01*
X187534222Y-141722822D01*
X187494317Y-141712129D01*
X188068808Y-141137639D01*
X188068807Y-141137638D01*
X187988795Y-141081613D01*
X187988793Y-141081612D01*
X187777484Y-140983078D01*
X187777478Y-140983075D01*
X187552272Y-140922731D01*
X187552264Y-140922730D01*
X187320002Y-140902410D01*
X187319998Y-140902410D01*
X187087735Y-140922730D01*
X187087727Y-140922731D01*
X186862521Y-140983075D01*
X186862515Y-140983078D01*
X186651202Y-141081614D01*
X186571190Y-141137637D01*
X187145682Y-141712129D01*
X187105778Y-141722822D01*
X186979222Y-141795890D01*
X186875890Y-141899222D01*
X186802822Y-142025778D01*
X186792129Y-142065681D01*
X186217638Y-141491190D01*
X186217637Y-141491190D01*
X186161613Y-141571204D01*
X186158910Y-141575887D01*
X186157355Y-141574989D01*
X186116476Y-141621409D01*
X186049281Y-141640555D01*
X185982402Y-141620333D01*
X185942959Y-141574813D01*
X185941527Y-141575640D01*
X185938822Y-141570955D01*
X185938822Y-141570954D01*
X185805038Y-141379891D01*
X185640109Y-141214962D01*
X185449046Y-141081178D01*
X185449042Y-141081176D01*
X185237660Y-140982607D01*
X185237646Y-140982602D01*
X185012362Y-140922238D01*
X185012352Y-140922236D01*
X184780001Y-140901908D01*
X184779999Y-140901908D01*
X184547647Y-140922236D01*
X184547637Y-140922238D01*
X184322353Y-140982602D01*
X184322339Y-140982607D01*
X184110957Y-141081176D01*
X184110955Y-141081177D01*
X184062057Y-141115416D01*
X183919891Y-141214962D01*
X183919889Y-141214963D01*
X183919886Y-141214966D01*
X183754966Y-141379886D01*
X183754963Y-141379889D01*
X183754962Y-141379891D01*
X183700022Y-141458353D01*
X183621177Y-141570955D01*
X183618473Y-141575640D01*
X183616824Y-141574688D01*
X183576199Y-141620818D01*
X183509003Y-141639963D01*
X183442124Y-141619740D01*
X183403115Y-141574722D01*
X183401527Y-141575640D01*
X183398822Y-141570955D01*
X183398822Y-141570954D01*
X183265038Y-141379891D01*
X183100109Y-141214962D01*
X182909046Y-141081178D01*
X182909042Y-141081176D01*
X182697660Y-140982607D01*
X182697646Y-140982602D01*
X182472362Y-140922238D01*
X182472352Y-140922236D01*
X182240001Y-140901908D01*
X182239999Y-140901908D01*
X182007647Y-140922236D01*
X182007637Y-140922238D01*
X181782353Y-140982602D01*
X181782339Y-140982607D01*
X181570957Y-141081176D01*
X181570955Y-141081177D01*
X181522057Y-141115416D01*
X181379891Y-141214962D01*
X181379889Y-141214963D01*
X181379886Y-141214966D01*
X181214966Y-141379886D01*
X181214963Y-141379889D01*
X181214962Y-141379891D01*
X181160022Y-141458353D01*
X181081177Y-141570955D01*
X181078473Y-141575640D01*
X181076824Y-141574688D01*
X181036199Y-141620818D01*
X180969003Y-141639963D01*
X180902124Y-141619740D01*
X180863115Y-141574722D01*
X180861527Y-141575640D01*
X180858822Y-141570955D01*
X180858822Y-141570954D01*
X180725038Y-141379891D01*
X180560109Y-141214962D01*
X180369046Y-141081178D01*
X180369042Y-141081176D01*
X180157660Y-140982607D01*
X180157646Y-140982602D01*
X179932362Y-140922238D01*
X179932352Y-140922236D01*
X179700001Y-140901908D01*
X179699999Y-140901908D01*
X179467647Y-140922236D01*
X179467637Y-140922238D01*
X179242353Y-140982602D01*
X179242339Y-140982607D01*
X179030957Y-141081176D01*
X179030955Y-141081177D01*
X178982057Y-141115416D01*
X178839891Y-141214962D01*
X178839889Y-141214963D01*
X178839886Y-141214966D01*
X178674966Y-141379886D01*
X178674963Y-141379889D01*
X178674962Y-141379891D01*
X178620022Y-141458353D01*
X178541177Y-141570955D01*
X178538473Y-141575640D01*
X178536824Y-141574688D01*
X178496199Y-141620818D01*
X178429003Y-141639963D01*
X178362124Y-141619740D01*
X178323115Y-141574722D01*
X178321527Y-141575640D01*
X178318822Y-141570955D01*
X178318822Y-141570954D01*
X178185038Y-141379891D01*
X178020109Y-141214962D01*
X177829046Y-141081178D01*
X177829042Y-141081176D01*
X177617660Y-140982607D01*
X177617646Y-140982602D01*
X177392362Y-140922238D01*
X177392352Y-140922236D01*
X177160001Y-140901908D01*
X177159999Y-140901908D01*
X176927647Y-140922236D01*
X176927637Y-140922238D01*
X176702353Y-140982602D01*
X176702339Y-140982607D01*
X176490957Y-141081176D01*
X176490955Y-141081177D01*
X176442057Y-141115416D01*
X176299891Y-141214962D01*
X176299889Y-141214963D01*
X176299886Y-141214966D01*
X176134966Y-141379886D01*
X176134963Y-141379889D01*
X176134962Y-141379891D01*
X176080022Y-141458353D01*
X176001177Y-141570955D01*
X175998473Y-141575640D01*
X175996824Y-141574688D01*
X175956199Y-141620818D01*
X175889003Y-141639963D01*
X175822124Y-141619740D01*
X175783115Y-141574722D01*
X175781527Y-141575640D01*
X175778822Y-141570955D01*
X175778822Y-141570954D01*
X175645038Y-141379891D01*
X175480109Y-141214962D01*
X175289046Y-141081178D01*
X175289042Y-141081176D01*
X175077660Y-140982607D01*
X175077646Y-140982602D01*
X174852362Y-140922238D01*
X174852352Y-140922236D01*
X174620001Y-140901908D01*
X174619999Y-140901908D01*
X174387647Y-140922236D01*
X174387637Y-140922238D01*
X174162353Y-140982602D01*
X174162339Y-140982607D01*
X173950957Y-141081176D01*
X173950955Y-141081177D01*
X173902057Y-141115416D01*
X173759891Y-141214962D01*
X173759889Y-141214963D01*
X173759886Y-141214966D01*
X173594966Y-141379886D01*
X173594963Y-141379889D01*
X173594962Y-141379891D01*
X173540022Y-141458353D01*
X173461177Y-141570955D01*
X173458473Y-141575640D01*
X173456824Y-141574688D01*
X173416199Y-141620818D01*
X173349003Y-141639963D01*
X173282124Y-141619740D01*
X173243115Y-141574722D01*
X173241527Y-141575640D01*
X173238822Y-141570955D01*
X173238822Y-141570954D01*
X173105038Y-141379891D01*
X172940109Y-141214962D01*
X172749046Y-141081178D01*
X172749042Y-141081176D01*
X172537660Y-140982607D01*
X172537646Y-140982602D01*
X172312362Y-140922238D01*
X172312352Y-140922236D01*
X172120282Y-140905432D01*
X172055214Y-140879979D01*
X172014235Y-140823388D01*
X172010357Y-140753626D01*
X172014050Y-140740946D01*
X172019631Y-140724995D01*
X172019633Y-140724990D01*
X172020748Y-140715094D01*
X172039830Y-140545738D01*
X172039830Y-140545731D01*
X172019634Y-140366485D01*
X172019633Y-140366480D01*
X172005644Y-140326501D01*
X171960054Y-140196213D01*
X171956756Y-140190965D01*
X171902832Y-140105145D01*
X171864081Y-140043473D01*
X171736527Y-139915919D01*
X171653092Y-139863493D01*
X171583788Y-139819946D01*
X171413519Y-139760366D01*
X171413514Y-139760365D01*
X171234269Y-139740170D01*
X171234261Y-139740170D01*
X171055015Y-139760365D01*
X171055010Y-139760366D01*
X170884741Y-139819946D01*
X170732002Y-139915919D01*
X170604449Y-140043472D01*
X170508475Y-140196213D01*
X170448895Y-140366485D01*
X170439102Y-140453402D01*
X170412035Y-140517816D01*
X170403563Y-140527199D01*
X170009240Y-140921522D01*
X169947917Y-140955007D01*
X169889466Y-140953616D01*
X169772362Y-140922238D01*
X169772352Y-140922236D01*
X169540001Y-140901908D01*
X169539999Y-140901908D01*
X169307647Y-140922236D01*
X169307637Y-140922238D01*
X169082353Y-140982602D01*
X169082339Y-140982607D01*
X168870957Y-141081176D01*
X168870955Y-141081177D01*
X168822057Y-141115416D01*
X168679891Y-141214962D01*
X168679889Y-141214963D01*
X168679886Y-141214966D01*
X168514966Y-141379886D01*
X168514963Y-141379889D01*
X168514962Y-141379891D01*
X168460022Y-141458353D01*
X168381177Y-141570955D01*
X168378473Y-141575640D01*
X168376824Y-141574688D01*
X168336199Y-141620818D01*
X168269003Y-141639963D01*
X168202124Y-141619740D01*
X168163115Y-141574722D01*
X168161527Y-141575640D01*
X168158822Y-141570955D01*
X168158822Y-141570954D01*
X168025038Y-141379891D01*
X167860109Y-141214962D01*
X167669046Y-141081178D01*
X167669042Y-141081176D01*
X167457660Y-140982607D01*
X167457646Y-140982602D01*
X167232362Y-140922238D01*
X167232352Y-140922236D01*
X167000001Y-140901908D01*
X166999999Y-140901908D01*
X166767647Y-140922236D01*
X166767637Y-140922238D01*
X166542353Y-140982602D01*
X166542339Y-140982607D01*
X166330957Y-141081176D01*
X166330955Y-141081177D01*
X166282057Y-141115416D01*
X166139891Y-141214962D01*
X166139889Y-141214963D01*
X166139886Y-141214966D01*
X165974966Y-141379886D01*
X165974963Y-141379889D01*
X165974962Y-141379891D01*
X165920022Y-141458353D01*
X165841177Y-141570955D01*
X165841176Y-141570957D01*
X165742607Y-141782339D01*
X165742602Y-141782353D01*
X165682238Y-142007637D01*
X165682236Y-142007647D01*
X165661908Y-142239999D01*
X165661908Y-142240000D01*
X165682236Y-142472352D01*
X165682238Y-142472362D01*
X165742602Y-142697646D01*
X165742607Y-142697660D01*
X165839393Y-142905219D01*
X165841178Y-142909046D01*
X165974962Y-143100109D01*
X166139891Y-143265038D01*
X166330954Y-143398822D01*
X166458132Y-143458126D01*
X166542339Y-143497392D01*
X166542341Y-143497392D01*
X166542346Y-143497395D01*
X166542351Y-143497396D01*
X166542353Y-143497397D01*
X166596578Y-143511926D01*
X166767643Y-143557763D01*
X166952898Y-143573971D01*
X166999999Y-143578092D01*
X167000000Y-143578092D01*
X167000001Y-143578092D01*
X167047102Y-143573971D01*
X167232357Y-143557763D01*
X167457654Y-143497395D01*
X167669046Y-143398822D01*
X167860109Y-143265038D01*
X168025038Y-143100109D01*
X168158822Y-142909046D01*
X168158826Y-142909035D01*
X168161527Y-142904360D01*
X168163179Y-142905313D01*
X168203784Y-142859192D01*
X168270976Y-142840036D01*
X168337859Y-142860248D01*
X168376879Y-142905280D01*
X168378473Y-142904360D01*
X168381176Y-142909042D01*
X168381178Y-142909046D01*
X168514962Y-143100109D01*
X168679891Y-143265038D01*
X168870954Y-143398822D01*
X168998132Y-143458126D01*
X169082339Y-143497392D01*
X169082341Y-143497392D01*
X169082346Y-143497395D01*
X169082351Y-143497396D01*
X169082353Y-143497397D01*
X169136578Y-143511926D01*
X169307643Y-143557763D01*
X169492898Y-143573971D01*
X169539999Y-143578092D01*
X169540000Y-143578092D01*
X169540001Y-143578092D01*
X169587102Y-143573971D01*
X169772357Y-143557763D01*
X169997654Y-143497395D01*
X170209046Y-143398822D01*
X170400109Y-143265038D01*
X170565038Y-143100109D01*
X170698822Y-142909046D01*
X170698826Y-142909035D01*
X170701527Y-142904360D01*
X170703179Y-142905313D01*
X170743784Y-142859192D01*
X170810976Y-142840036D01*
X170877859Y-142860248D01*
X170916879Y-142905280D01*
X170918473Y-142904360D01*
X170921176Y-142909042D01*
X170921178Y-142909046D01*
X171054962Y-143100109D01*
X171219891Y-143265038D01*
X171410954Y-143398822D01*
X171538132Y-143458126D01*
X171622339Y-143497392D01*
X171622341Y-143497392D01*
X171622346Y-143497395D01*
X171622351Y-143497396D01*
X171622353Y-143497397D01*
X171676578Y-143511926D01*
X171847643Y-143557763D01*
X172032898Y-143573971D01*
X172079999Y-143578092D01*
X172080000Y-143578092D01*
X172080001Y-143578092D01*
X172127102Y-143573971D01*
X172312357Y-143557763D01*
X172537654Y-143497395D01*
X172749046Y-143398822D01*
X172940109Y-143265038D01*
X173105038Y-143100109D01*
X173238822Y-142909046D01*
X173238826Y-142909035D01*
X173241527Y-142904360D01*
X173243179Y-142905313D01*
X173283784Y-142859192D01*
X173350976Y-142840036D01*
X173417859Y-142860248D01*
X173456879Y-142905280D01*
X173458473Y-142904360D01*
X173461176Y-142909042D01*
X173461178Y-142909046D01*
X173594962Y-143100109D01*
X173759891Y-143265038D01*
X173950954Y-143398822D01*
X174078132Y-143458126D01*
X174162339Y-143497392D01*
X174162341Y-143497392D01*
X174162346Y-143497395D01*
X174162351Y-143497396D01*
X174162353Y-143497397D01*
X174216578Y-143511926D01*
X174387643Y-143557763D01*
X174572898Y-143573971D01*
X174619999Y-143578092D01*
X174620000Y-143578092D01*
X174620001Y-143578092D01*
X174667102Y-143573971D01*
X174852357Y-143557763D01*
X175077654Y-143497395D01*
X175289046Y-143398822D01*
X175480109Y-143265038D01*
X175645038Y-143100109D01*
X175778822Y-142909046D01*
X175778826Y-142909035D01*
X175781527Y-142904360D01*
X175783179Y-142905313D01*
X175823784Y-142859192D01*
X175890976Y-142840036D01*
X175957859Y-142860248D01*
X175996879Y-142905280D01*
X175998473Y-142904360D01*
X176001176Y-142909042D01*
X176001178Y-142909046D01*
X176134962Y-143100109D01*
X176299891Y-143265038D01*
X176490954Y-143398822D01*
X176618132Y-143458126D01*
X176702339Y-143497392D01*
X176702341Y-143497392D01*
X176702346Y-143497395D01*
X176702351Y-143497396D01*
X176702353Y-143497397D01*
X176756578Y-143511926D01*
X176927643Y-143557763D01*
X177160000Y-143578092D01*
X177207095Y-143573971D01*
X177275593Y-143587737D01*
X177325777Y-143636351D01*
X177341711Y-143704379D01*
X177318337Y-143770223D01*
X177305583Y-143785180D01*
X175727584Y-145363181D01*
X175666261Y-145396666D01*
X175639903Y-145399500D01*
X158810947Y-145399500D01*
X158743908Y-145379815D01*
X158698153Y-145327011D01*
X158688209Y-145257853D01*
X158711681Y-145201189D01*
X158793350Y-145092093D01*
X158793354Y-145092086D01*
X158843596Y-144957379D01*
X158843598Y-144957372D01*
X158849999Y-144897844D01*
X158850000Y-144897827D01*
X158850000Y-144250000D01*
X157933012Y-144250000D01*
X157965925Y-144192993D01*
X158000000Y-144065826D01*
X158000000Y-143934174D01*
X157965925Y-143807007D01*
X157933012Y-143750000D01*
X158850000Y-143750000D01*
X158850000Y-143102172D01*
X158849999Y-143102155D01*
X158843598Y-143042627D01*
X158843596Y-143042620D01*
X158793354Y-142907913D01*
X158793350Y-142907906D01*
X158707190Y-142792812D01*
X158707187Y-142792809D01*
X158592093Y-142706649D01*
X158592088Y-142706646D01*
X158460528Y-142657577D01*
X158404595Y-142615705D01*
X158380178Y-142550241D01*
X158395030Y-142481968D01*
X158416175Y-142453720D01*
X158538495Y-142331401D01*
X158674035Y-142137830D01*
X158773903Y-141923663D01*
X158835063Y-141695408D01*
X158855659Y-141460000D01*
X158835063Y-141224592D01*
X158773903Y-140996337D01*
X158674035Y-140782171D01*
X158634001Y-140724995D01*
X158538494Y-140588597D01*
X158371402Y-140421506D01*
X158371396Y-140421501D01*
X158185842Y-140291575D01*
X158142217Y-140236998D01*
X158135023Y-140167500D01*
X158166546Y-140105145D01*
X158185842Y-140088425D01*
X158297637Y-140010145D01*
X158371401Y-139958495D01*
X158538495Y-139791401D01*
X158674035Y-139597830D01*
X158773903Y-139383663D01*
X158835063Y-139155408D01*
X158855659Y-138920000D01*
X158835063Y-138684592D01*
X158773903Y-138456337D01*
X158674035Y-138242171D01*
X158607515Y-138147169D01*
X158538494Y-138048597D01*
X158371402Y-137881506D01*
X158371396Y-137881501D01*
X158185842Y-137751575D01*
X158142217Y-137696998D01*
X158135023Y-137627500D01*
X158166546Y-137565145D01*
X158185842Y-137548425D01*
X158220276Y-137524314D01*
X158371401Y-137418495D01*
X158538495Y-137251401D01*
X158674035Y-137057830D01*
X158773903Y-136843663D01*
X158835063Y-136615408D01*
X158855659Y-136380000D01*
X158835063Y-136144592D01*
X158776422Y-135925739D01*
X158773905Y-135916344D01*
X158773904Y-135916343D01*
X158773903Y-135916337D01*
X158674035Y-135702171D01*
X158655570Y-135675799D01*
X158538494Y-135508597D01*
X158371402Y-135341506D01*
X158371396Y-135341501D01*
X158185842Y-135211575D01*
X158142217Y-135156998D01*
X158135023Y-135087500D01*
X158166546Y-135025145D01*
X158185842Y-135008425D01*
X158308634Y-134922445D01*
X158371401Y-134878495D01*
X158538495Y-134711401D01*
X158674035Y-134517830D01*
X158682350Y-134499999D01*
X186994696Y-134499999D01*
X186994696Y-134500000D01*
X187013898Y-134866405D01*
X187059924Y-135156998D01*
X187071295Y-135228794D01*
X187156102Y-135545298D01*
X187166260Y-135583206D01*
X187297746Y-135925739D01*
X187464320Y-136252656D01*
X187664147Y-136560364D01*
X187816629Y-136748663D01*
X187895051Y-136845506D01*
X188154494Y-137104949D01*
X188218032Y-137156401D01*
X188439635Y-137335852D01*
X188734499Y-137527338D01*
X188747348Y-137535682D01*
X189074264Y-137702255D01*
X189416801Y-137833742D01*
X189771206Y-137928705D01*
X190133596Y-137986102D01*
X190479734Y-138004241D01*
X190499999Y-138005304D01*
X190500000Y-138005304D01*
X190500001Y-138005304D01*
X190519203Y-138004297D01*
X190866404Y-137986102D01*
X191228794Y-137928705D01*
X191583199Y-137833742D01*
X191925736Y-137702255D01*
X192252652Y-137535682D01*
X192560366Y-137335851D01*
X192845506Y-137104949D01*
X193104949Y-136845506D01*
X193335851Y-136560366D01*
X193535682Y-136252652D01*
X193702255Y-135925736D01*
X193833742Y-135583199D01*
X193928705Y-135228794D01*
X193986102Y-134866404D01*
X194005304Y-134500000D01*
X193986102Y-134133596D01*
X193928705Y-133771206D01*
X193833742Y-133416801D01*
X193702255Y-133074264D01*
X193535682Y-132747348D01*
X193509159Y-132706506D01*
X193335852Y-132439635D01*
X193104952Y-132154498D01*
X193104949Y-132154494D01*
X192845506Y-131895051D01*
X192683257Y-131763664D01*
X192560364Y-131664147D01*
X192252656Y-131464320D01*
X191925739Y-131297746D01*
X191583206Y-131166260D01*
X191583199Y-131166258D01*
X191228794Y-131071295D01*
X191228790Y-131071294D01*
X191228789Y-131071294D01*
X190866405Y-131013898D01*
X190500001Y-130994696D01*
X190499999Y-130994696D01*
X190133594Y-131013898D01*
X189771211Y-131071294D01*
X189771209Y-131071294D01*
X189416793Y-131166260D01*
X189074260Y-131297746D01*
X188747343Y-131464320D01*
X188439635Y-131664147D01*
X188154498Y-131895047D01*
X188154490Y-131895054D01*
X187895054Y-132154490D01*
X187895047Y-132154498D01*
X187664147Y-132439635D01*
X187464320Y-132747343D01*
X187297746Y-133074260D01*
X187166260Y-133416793D01*
X187071294Y-133771209D01*
X187071294Y-133771211D01*
X187013898Y-134133594D01*
X186994696Y-134499999D01*
X158682350Y-134499999D01*
X158773903Y-134303663D01*
X158835063Y-134075408D01*
X158855659Y-133840000D01*
X158835063Y-133604592D01*
X158780110Y-133399501D01*
X158773905Y-133376344D01*
X158773904Y-133376343D01*
X158773903Y-133376337D01*
X158674035Y-133162171D01*
X158612483Y-133074264D01*
X158538494Y-132968597D01*
X158371402Y-132801506D01*
X158371396Y-132801501D01*
X158185842Y-132671575D01*
X158142217Y-132616998D01*
X158135023Y-132547500D01*
X158166546Y-132485145D01*
X158185842Y-132468425D01*
X158243572Y-132428002D01*
X158371401Y-132338495D01*
X158538495Y-132171401D01*
X158674035Y-131977830D01*
X158773903Y-131763663D01*
X158835063Y-131535408D01*
X158855659Y-131300000D01*
X158835063Y-131064592D01*
X158773903Y-130836337D01*
X158674035Y-130622171D01*
X158658861Y-130600499D01*
X158538494Y-130428597D01*
X158371402Y-130261506D01*
X158371396Y-130261501D01*
X158185842Y-130131575D01*
X158142217Y-130076998D01*
X158135023Y-130007500D01*
X158166546Y-129945145D01*
X158185842Y-129928425D01*
X158297637Y-129850145D01*
X158371401Y-129798495D01*
X158538495Y-129631401D01*
X158674035Y-129437830D01*
X158773903Y-129223663D01*
X158835063Y-128995408D01*
X158855659Y-128760000D01*
X158835063Y-128524592D01*
X158779644Y-128317763D01*
X158773905Y-128296344D01*
X158773904Y-128296343D01*
X158773903Y-128296337D01*
X158674035Y-128082171D01*
X158634031Y-128025038D01*
X158538494Y-127888597D01*
X158371402Y-127721506D01*
X158371396Y-127721501D01*
X158185842Y-127591575D01*
X158142217Y-127536998D01*
X158135023Y-127467500D01*
X158166546Y-127405145D01*
X158185842Y-127388425D01*
X158208026Y-127372891D01*
X158371401Y-127258495D01*
X158538495Y-127091401D01*
X158674035Y-126897830D01*
X158773903Y-126683663D01*
X158835063Y-126455408D01*
X158855659Y-126220000D01*
X158835063Y-125984592D01*
X158788626Y-125811285D01*
X158773905Y-125756344D01*
X158773904Y-125756343D01*
X158773903Y-125756337D01*
X158674035Y-125542171D01*
X158655810Y-125516142D01*
X158538494Y-125348597D01*
X158371402Y-125181506D01*
X158371395Y-125181501D01*
X158177834Y-125045967D01*
X158177830Y-125045965D01*
X158149825Y-125032906D01*
X157963663Y-124946097D01*
X157963659Y-124946096D01*
X157963655Y-124946094D01*
X157735413Y-124884938D01*
X157735403Y-124884936D01*
X157500001Y-124864341D01*
X157499999Y-124864341D01*
X157264596Y-124884936D01*
X157264586Y-124884938D01*
X157036344Y-124946094D01*
X157036335Y-124946098D01*
X156822171Y-125045964D01*
X156822169Y-125045965D01*
X156628597Y-125181505D01*
X156461505Y-125348597D01*
X156325965Y-125542169D01*
X156325964Y-125542171D01*
X156226098Y-125756335D01*
X156226094Y-125756344D01*
X156164938Y-125984586D01*
X156164936Y-125984596D01*
X156144341Y-126219999D01*
X156144341Y-126220000D01*
X156164936Y-126455403D01*
X156164938Y-126455413D01*
X156226094Y-126683655D01*
X156226096Y-126683659D01*
X156226097Y-126683663D01*
X156295243Y-126831947D01*
X156325965Y-126897830D01*
X156325967Y-126897834D01*
X156461501Y-127091395D01*
X156461506Y-127091402D01*
X156628597Y-127258493D01*
X156628603Y-127258498D01*
X156814158Y-127388425D01*
X156857783Y-127443002D01*
X156864977Y-127512500D01*
X156833454Y-127574855D01*
X156814158Y-127591575D01*
X156628597Y-127721505D01*
X156461505Y-127888597D01*
X156325965Y-128082169D01*
X156325964Y-128082171D01*
X156226098Y-128296335D01*
X156226094Y-128296344D01*
X156164938Y-128524586D01*
X156164936Y-128524596D01*
X156144341Y-128759999D01*
X156144341Y-128760000D01*
X156164936Y-128995403D01*
X156164938Y-128995413D01*
X156226094Y-129223655D01*
X156226096Y-129223659D01*
X156226097Y-129223663D01*
X156281666Y-129342830D01*
X156325965Y-129437830D01*
X156325967Y-129437834D01*
X156461501Y-129631395D01*
X156461506Y-129631402D01*
X156628597Y-129798493D01*
X156628603Y-129798498D01*
X156814158Y-129928425D01*
X156857783Y-129983002D01*
X156864977Y-130052500D01*
X156833454Y-130114855D01*
X156814158Y-130131575D01*
X156628597Y-130261505D01*
X156461505Y-130428597D01*
X156325965Y-130622169D01*
X156325964Y-130622171D01*
X156226098Y-130836335D01*
X156226094Y-130836344D01*
X156164938Y-131064586D01*
X156164936Y-131064596D01*
X156144341Y-131299999D01*
X156144341Y-131300000D01*
X156164936Y-131535403D01*
X156164938Y-131535413D01*
X156226094Y-131763655D01*
X156226096Y-131763659D01*
X156226097Y-131763663D01*
X156287366Y-131895054D01*
X156325965Y-131977830D01*
X156325967Y-131977834D01*
X156461501Y-132171395D01*
X156461506Y-132171402D01*
X156628597Y-132338493D01*
X156628603Y-132338498D01*
X156814158Y-132468425D01*
X156857783Y-132523002D01*
X156864977Y-132592500D01*
X156833454Y-132654855D01*
X156814158Y-132671575D01*
X156628597Y-132801505D01*
X156461505Y-132968597D01*
X156325965Y-133162169D01*
X156325964Y-133162171D01*
X156226098Y-133376335D01*
X156226094Y-133376344D01*
X156164938Y-133604586D01*
X156164936Y-133604596D01*
X156144341Y-133839999D01*
X156144341Y-133840000D01*
X156164936Y-134075403D01*
X156164938Y-134075413D01*
X156226094Y-134303655D01*
X156226096Y-134303659D01*
X156226097Y-134303663D01*
X156277263Y-134413389D01*
X156325965Y-134517830D01*
X156325967Y-134517834D01*
X156461501Y-134711395D01*
X156461506Y-134711402D01*
X156628597Y-134878493D01*
X156628603Y-134878498D01*
X156814158Y-135008425D01*
X156857783Y-135063002D01*
X156864977Y-135132500D01*
X156833454Y-135194855D01*
X156814158Y-135211575D01*
X156628597Y-135341505D01*
X156461505Y-135508597D01*
X156325965Y-135702169D01*
X156325964Y-135702171D01*
X156226098Y-135916335D01*
X156226094Y-135916344D01*
X156164938Y-136144586D01*
X156164936Y-136144596D01*
X156144341Y-136379999D01*
X156144341Y-136380000D01*
X156164936Y-136615403D01*
X156164938Y-136615413D01*
X156226094Y-136843655D01*
X156226096Y-136843659D01*
X156226097Y-136843663D01*
X156262745Y-136922255D01*
X156325965Y-137057830D01*
X156325967Y-137057834D01*
X156461501Y-137251395D01*
X156461506Y-137251402D01*
X156628597Y-137418493D01*
X156628603Y-137418498D01*
X156814158Y-137548425D01*
X156857783Y-137603002D01*
X156864977Y-137672500D01*
X156833454Y-137734855D01*
X156814158Y-137751575D01*
X156628597Y-137881505D01*
X156461505Y-138048597D01*
X156325965Y-138242169D01*
X156325964Y-138242171D01*
X156226098Y-138456335D01*
X156226094Y-138456344D01*
X156164938Y-138684586D01*
X156164936Y-138684596D01*
X156144341Y-138919999D01*
X156144341Y-138920000D01*
X156164936Y-139155403D01*
X156164938Y-139155413D01*
X156226094Y-139383655D01*
X156226096Y-139383659D01*
X156226097Y-139383663D01*
X156253632Y-139442712D01*
X156325965Y-139597830D01*
X156325967Y-139597834D01*
X156461501Y-139791395D01*
X156461506Y-139791402D01*
X156628597Y-139958493D01*
X156628603Y-139958498D01*
X156814158Y-140088425D01*
X156857783Y-140143002D01*
X156864977Y-140212500D01*
X156833454Y-140274855D01*
X156814158Y-140291575D01*
X156628597Y-140421505D01*
X156461505Y-140588597D01*
X156325965Y-140782169D01*
X156325964Y-140782171D01*
X156226098Y-140996335D01*
X156226094Y-140996344D01*
X156164938Y-141224586D01*
X156164936Y-141224596D01*
X156144341Y-141459999D01*
X156144341Y-141460000D01*
X156164936Y-141695403D01*
X156164938Y-141695413D01*
X156226094Y-141923655D01*
X156226096Y-141923659D01*
X156226097Y-141923663D01*
X156281666Y-142042830D01*
X156325965Y-142137830D01*
X156325967Y-142137834D01*
X156397505Y-142240000D01*
X156461501Y-142331396D01*
X156461506Y-142331402D01*
X156583818Y-142453714D01*
X156617303Y-142515037D01*
X156612319Y-142584729D01*
X156570447Y-142640662D01*
X156539471Y-142657577D01*
X156407912Y-142706646D01*
X156407906Y-142706649D01*
X156292812Y-142792809D01*
X156292809Y-142792812D01*
X156206649Y-142907906D01*
X156206645Y-142907913D01*
X156156403Y-143042620D01*
X156156401Y-143042627D01*
X156150000Y-143102155D01*
X156150000Y-143750000D01*
X157066988Y-143750000D01*
X157034075Y-143807007D01*
X157000000Y-143934174D01*
X157000000Y-144065826D01*
X157034075Y-144192993D01*
X157066988Y-144250000D01*
X156150000Y-144250000D01*
X156150000Y-144897844D01*
X156156401Y-144957372D01*
X156156403Y-144957379D01*
X156206645Y-145092086D01*
X156206649Y-145092093D01*
X156288319Y-145201189D01*
X156312737Y-145266653D01*
X156297886Y-145334926D01*
X156248481Y-145384332D01*
X156189053Y-145399500D01*
X152250097Y-145399500D01*
X152183058Y-145379815D01*
X152162416Y-145363181D01*
X150136819Y-143337584D01*
X150103334Y-143276261D01*
X150100500Y-143249903D01*
X150100500Y-142688389D01*
X150095608Y-142657500D01*
X150073402Y-142517299D01*
X150019873Y-142352555D01*
X149941232Y-142198212D01*
X149839414Y-142058072D01*
X149716928Y-141935586D01*
X149576788Y-141833768D01*
X149422445Y-141755127D01*
X149257701Y-141701598D01*
X149257699Y-141701597D01*
X149257698Y-141701597D01*
X149126271Y-141680781D01*
X149086611Y-141674500D01*
X148913389Y-141674500D01*
X148873728Y-141680781D01*
X148742302Y-141701597D01*
X148577552Y-141755128D01*
X148423211Y-141833768D01*
X148389979Y-141857913D01*
X148283072Y-141935586D01*
X148283070Y-141935588D01*
X148283069Y-141935588D01*
X148160585Y-142058072D01*
X148100007Y-142141450D01*
X148044677Y-142184115D01*
X147975063Y-142190093D01*
X147913269Y-142157486D01*
X147899371Y-142141447D01*
X147839036Y-142058401D01*
X147716602Y-141935967D01*
X147576524Y-141834195D01*
X147422257Y-141755591D01*
X147257589Y-141702087D01*
X147257581Y-141702085D01*
X147250000Y-141700884D01*
X147250000Y-142769670D01*
X147230255Y-142749925D01*
X147144745Y-142700556D01*
X147049370Y-142675000D01*
X146950630Y-142675000D01*
X146855255Y-142700556D01*
X146769745Y-142749925D01*
X146750000Y-142769670D01*
X146750000Y-141700884D01*
X146749999Y-141700884D01*
X146742418Y-141702085D01*
X146742410Y-141702087D01*
X146577742Y-141755591D01*
X146423475Y-141834195D01*
X146283401Y-141935964D01*
X146175799Y-142043566D01*
X146114476Y-142077050D01*
X146044784Y-142072066D01*
X145988851Y-142030194D01*
X145982585Y-142020988D01*
X145942712Y-141956344D01*
X145818656Y-141832288D01*
X145693559Y-141755128D01*
X145669336Y-141740187D01*
X145669331Y-141740185D01*
X145667862Y-141739698D01*
X145502797Y-141685001D01*
X145502795Y-141685000D01*
X145400010Y-141674500D01*
X144599998Y-141674500D01*
X144599980Y-141674501D01*
X144497203Y-141685000D01*
X144497200Y-141685001D01*
X144330668Y-141740185D01*
X144330663Y-141740187D01*
X144181342Y-141832289D01*
X144057289Y-141956342D01*
X143965187Y-142105663D01*
X143965185Y-142105668D01*
X143944884Y-142166933D01*
X143910001Y-142272203D01*
X143910001Y-142272204D01*
X143910000Y-142272204D01*
X143899500Y-142374983D01*
X137899913Y-142374983D01*
X138038495Y-142236401D01*
X138174035Y-142042830D01*
X138273903Y-141828663D01*
X138335063Y-141600408D01*
X138355659Y-141365000D01*
X138355283Y-141360708D01*
X138343375Y-141224596D01*
X138335063Y-141129592D01*
X138281711Y-140930476D01*
X138273905Y-140901344D01*
X138273904Y-140901343D01*
X138273903Y-140901337D01*
X138174035Y-140687171D01*
X138105015Y-140588599D01*
X138038494Y-140493597D01*
X137871402Y-140326506D01*
X137871396Y-140326501D01*
X137685842Y-140196575D01*
X137642217Y-140141998D01*
X137635023Y-140072500D01*
X137666546Y-140010145D01*
X137685842Y-139993425D01*
X137735730Y-139958493D01*
X137871401Y-139863495D01*
X138038495Y-139696401D01*
X138174035Y-139502830D01*
X138273903Y-139288663D01*
X138335063Y-139060408D01*
X138355659Y-138825000D01*
X138335063Y-138589592D01*
X138273903Y-138361337D01*
X138174035Y-138147171D01*
X138163634Y-138132316D01*
X138038494Y-137953597D01*
X137871402Y-137786506D01*
X137871396Y-137786501D01*
X137685842Y-137656575D01*
X137642217Y-137601998D01*
X137635023Y-137532500D01*
X137666546Y-137470145D01*
X137685842Y-137453425D01*
X137762853Y-137399501D01*
X137871401Y-137323495D01*
X138038495Y-137156401D01*
X138174035Y-136962830D01*
X138273903Y-136748663D01*
X138335063Y-136520408D01*
X138355659Y-136285000D01*
X138335063Y-136049592D01*
X138273903Y-135821337D01*
X138174035Y-135607171D01*
X138169364Y-135600499D01*
X138038494Y-135413597D01*
X137871402Y-135246506D01*
X137871396Y-135246501D01*
X137685842Y-135116575D01*
X137642217Y-135061998D01*
X137635023Y-134992500D01*
X137666546Y-134930145D01*
X137685842Y-134913425D01*
X137752995Y-134866404D01*
X137871401Y-134783495D01*
X138038495Y-134616401D01*
X138174035Y-134422830D01*
X138273903Y-134208663D01*
X138335063Y-133980408D01*
X138355659Y-133745000D01*
X138335063Y-133509592D01*
X138273903Y-133281337D01*
X138174035Y-133067171D01*
X138105015Y-132968599D01*
X138038494Y-132873597D01*
X137871402Y-132706506D01*
X137871396Y-132706501D01*
X137685842Y-132576575D01*
X137642217Y-132521998D01*
X137635023Y-132452500D01*
X137666546Y-132390145D01*
X137685842Y-132373425D01*
X137735730Y-132338493D01*
X137871401Y-132243495D01*
X138038495Y-132076401D01*
X138174035Y-131882830D01*
X138273903Y-131668663D01*
X138335063Y-131440408D01*
X138355659Y-131205000D01*
X138335063Y-130969592D01*
X138273903Y-130741337D01*
X138174035Y-130527171D01*
X138140437Y-130479187D01*
X138038494Y-130333597D01*
X137871402Y-130166506D01*
X137871396Y-130166501D01*
X137685842Y-130036575D01*
X137642217Y-129981998D01*
X137635023Y-129912500D01*
X137666546Y-129850145D01*
X137685842Y-129833425D01*
X137793987Y-129757701D01*
X137871401Y-129703495D01*
X138038495Y-129536401D01*
X138174035Y-129342830D01*
X138273903Y-129128663D01*
X138335063Y-128900408D01*
X138355659Y-128665000D01*
X138335063Y-128429592D01*
X138273903Y-128201337D01*
X138174035Y-127987171D01*
X138173286Y-127986102D01*
X138038496Y-127793600D01*
X137983690Y-127738794D01*
X137916179Y-127671283D01*
X137882696Y-127609963D01*
X137887680Y-127540271D01*
X137929551Y-127484337D01*
X137960529Y-127467422D01*
X138092086Y-127418354D01*
X138092093Y-127418350D01*
X138207187Y-127332190D01*
X138207190Y-127332187D01*
X138293350Y-127217093D01*
X138293354Y-127217086D01*
X138343596Y-127082379D01*
X138343598Y-127082372D01*
X138349999Y-127022844D01*
X138350000Y-127022827D01*
X138350000Y-126375000D01*
X137433012Y-126375000D01*
X137465925Y-126317993D01*
X137500000Y-126190826D01*
X137500000Y-126059174D01*
X137465925Y-125932007D01*
X137433012Y-125875000D01*
X138350000Y-125875000D01*
X138350000Y-125227172D01*
X138349999Y-125227155D01*
X138343598Y-125167627D01*
X138343596Y-125167620D01*
X138293354Y-125032913D01*
X138293350Y-125032906D01*
X138207190Y-124917812D01*
X138207187Y-124917809D01*
X138092093Y-124831649D01*
X138092086Y-124831645D01*
X137957379Y-124781403D01*
X137957372Y-124781401D01*
X137897844Y-124775000D01*
X137250000Y-124775000D01*
X137250000Y-125691988D01*
X137192993Y-125659075D01*
X137065826Y-125625000D01*
X136934174Y-125625000D01*
X136807007Y-125659075D01*
X136750000Y-125691988D01*
X136750000Y-124775000D01*
X136102155Y-124775000D01*
X136042627Y-124781401D01*
X136042620Y-124781403D01*
X135907913Y-124831645D01*
X135907906Y-124831649D01*
X135792812Y-124917809D01*
X135792809Y-124917812D01*
X135706649Y-125032906D01*
X135706645Y-125032913D01*
X135656403Y-125167620D01*
X135656401Y-125167627D01*
X135650000Y-125227155D01*
X135650000Y-125875000D01*
X136566988Y-125875000D01*
X136534075Y-125932007D01*
X136500000Y-126059174D01*
X136500000Y-126190826D01*
X136534075Y-126317993D01*
X136566988Y-126375000D01*
X135650000Y-126375000D01*
X135650000Y-127022844D01*
X135656401Y-127082372D01*
X135656403Y-127082379D01*
X135706645Y-127217086D01*
X135706649Y-127217093D01*
X135792809Y-127332187D01*
X135792812Y-127332190D01*
X135907906Y-127418350D01*
X135907913Y-127418354D01*
X136039470Y-127467421D01*
X136095403Y-127509292D01*
X136119821Y-127574756D01*
X136104970Y-127643029D01*
X136083819Y-127671284D01*
X135961503Y-127793600D01*
X135825965Y-127987169D01*
X135825964Y-127987171D01*
X135726098Y-128201335D01*
X135726094Y-128201344D01*
X135664938Y-128429586D01*
X135664936Y-128429596D01*
X135644341Y-128664999D01*
X109596111Y-128664999D01*
X109562888Y-128548230D01*
X109469130Y-128359941D01*
X109469128Y-128359937D01*
X109462453Y-128351099D01*
X109462452Y-128351098D01*
X108881000Y-128932551D01*
X108881000Y-128909840D01*
X108855036Y-128812939D01*
X108804876Y-128726060D01*
X108733940Y-128655124D01*
X108647061Y-128604964D01*
X108550160Y-128579000D01*
X108527448Y-128579000D01*
X109106111Y-128000335D01*
X109106110Y-128000334D01*
X109008083Y-127939638D01*
X109008077Y-127939636D01*
X108811936Y-127863651D01*
X108605171Y-127825000D01*
X108394829Y-127825000D01*
X108188064Y-127863651D01*
X108188063Y-127863651D01*
X107991923Y-127939635D01*
X107893887Y-128000335D01*
X108472553Y-128579000D01*
X108449840Y-128579000D01*
X108352939Y-128604964D01*
X108266060Y-128655124D01*
X108195124Y-128726060D01*
X108144964Y-128812939D01*
X108119000Y-128909840D01*
X108119000Y-128932553D01*
X107537546Y-128351099D01*
X107537545Y-128351099D01*
X107530870Y-128359939D01*
X107437111Y-128548230D01*
X107379545Y-128750555D01*
X107360138Y-128959999D01*
X100500500Y-128959999D01*
X100500500Y-126419999D01*
X107359635Y-126419999D01*
X107359635Y-126420000D01*
X107379051Y-126629537D01*
X107379051Y-126629539D01*
X107379052Y-126629542D01*
X107426037Y-126794676D01*
X107436642Y-126831950D01*
X107474247Y-126907470D01*
X107530442Y-127020325D01*
X107594349Y-127104952D01*
X107657261Y-127188260D01*
X107812776Y-127330030D01*
X107812778Y-127330032D01*
X107991692Y-127440811D01*
X107991698Y-127440814D01*
X108033268Y-127456918D01*
X108187924Y-127516832D01*
X108394780Y-127555500D01*
X108394782Y-127555500D01*
X108605218Y-127555500D01*
X108605220Y-127555500D01*
X108812076Y-127516832D01*
X109008304Y-127440813D01*
X109187223Y-127330031D01*
X109342740Y-127188259D01*
X109469558Y-127020325D01*
X109563359Y-126831947D01*
X109620948Y-126629542D01*
X109640365Y-126420000D01*
X109620948Y-126210458D01*
X109563359Y-126008053D01*
X109469558Y-125819675D01*
X109342740Y-125651741D01*
X109313406Y-125625000D01*
X109187223Y-125509969D01*
X109187221Y-125509967D01*
X109008307Y-125399188D01*
X109008301Y-125399185D01*
X108853648Y-125339273D01*
X108812076Y-125323168D01*
X108605220Y-125284500D01*
X108394780Y-125284500D01*
X108187924Y-125323168D01*
X108187921Y-125323168D01*
X108187921Y-125323169D01*
X107991698Y-125399185D01*
X107991692Y-125399188D01*
X107812778Y-125509967D01*
X107812776Y-125509969D01*
X107657261Y-125651739D01*
X107530442Y-125819674D01*
X107436642Y-126008049D01*
X107379051Y-126210462D01*
X107359635Y-126419999D01*
X100500500Y-126419999D01*
X100500500Y-124499999D01*
X117994696Y-124499999D01*
X117994696Y-124500000D01*
X118013898Y-124866405D01*
X118063805Y-125181505D01*
X118071295Y-125228794D01*
X118146635Y-125509967D01*
X118166260Y-125583206D01*
X118297746Y-125925739D01*
X118464320Y-126252656D01*
X118664147Y-126560364D01*
X118763993Y-126683663D01*
X118895051Y-126845506D01*
X119154494Y-127104949D01*
X119271780Y-127199925D01*
X119439635Y-127335852D01*
X119718318Y-127516830D01*
X119747348Y-127535682D01*
X120074264Y-127702255D01*
X120416801Y-127833742D01*
X120771206Y-127928705D01*
X121133596Y-127986102D01*
X121479734Y-128004241D01*
X121499999Y-128005304D01*
X121500000Y-128005304D01*
X121500001Y-128005304D01*
X121519203Y-128004297D01*
X121866404Y-127986102D01*
X122228794Y-127928705D01*
X122583199Y-127833742D01*
X122925736Y-127702255D01*
X123252652Y-127535682D01*
X123560366Y-127335851D01*
X123845506Y-127104949D01*
X124104949Y-126845506D01*
X124335851Y-126560366D01*
X124535682Y-126252652D01*
X124702255Y-125925736D01*
X124833742Y-125583199D01*
X124928705Y-125228794D01*
X124986102Y-124866404D01*
X125005304Y-124500000D01*
X124986102Y-124133596D01*
X124928705Y-123771206D01*
X124833742Y-123416801D01*
X124702255Y-123074264D01*
X124535682Y-122747348D01*
X124335851Y-122439634D01*
X124104949Y-122154494D01*
X123845506Y-121895051D01*
X123667443Y-121750858D01*
X123560364Y-121664147D01*
X123252656Y-121464320D01*
X122925739Y-121297746D01*
X122583206Y-121166260D01*
X122583199Y-121166258D01*
X122228794Y-121071295D01*
X122228790Y-121071294D01*
X122228789Y-121071294D01*
X121866405Y-121013898D01*
X121500001Y-120994696D01*
X121499999Y-120994696D01*
X121133594Y-121013898D01*
X120771211Y-121071294D01*
X120771209Y-121071294D01*
X120416793Y-121166260D01*
X120074260Y-121297746D01*
X119747343Y-121464320D01*
X119439635Y-121664147D01*
X119154498Y-121895047D01*
X119154490Y-121895054D01*
X118895054Y-122154490D01*
X118895047Y-122154498D01*
X118664147Y-122439635D01*
X118464320Y-122747343D01*
X118297746Y-123074260D01*
X118166260Y-123416793D01*
X118071294Y-123771209D01*
X118071294Y-123771211D01*
X118013898Y-124133594D01*
X117994696Y-124499999D01*
X100500500Y-124499999D01*
X100500500Y-120624500D01*
X100520185Y-120557461D01*
X100572989Y-120511706D01*
X100624500Y-120500500D01*
X150785216Y-120500500D01*
X150852255Y-120520185D01*
G37*
%TD.AperFunction*%
%TD*%
M02*
