%TF.GenerationSoftware,KiCad,Pcbnew,8.0.4*%
%TF.CreationDate,2024-09-27T18:01:19-04:00*%
%TF.ProjectId,Sp-I,53702d49-2e6b-4696-9361-645f70636258,rev?*%
%TF.SameCoordinates,Original*%
%TF.FileFunction,Soldermask,Bot*%
%TF.FilePolarity,Negative*%
%FSLAX46Y46*%
G04 Gerber Fmt 4.6, Leading zero omitted, Abs format (unit mm)*
G04 Created by KiCad (PCBNEW 8.0.4) date 2024-09-27 18:01:19*
%MOMM*%
%LPD*%
G01*
G04 APERTURE LIST*
G04 Aperture macros list*
%AMRoundRect*
0 Rectangle with rounded corners*
0 $1 Rounding radius*
0 $2 $3 $4 $5 $6 $7 $8 $9 X,Y pos of 4 corners*
0 Add a 4 corners polygon primitive as box body*
4,1,4,$2,$3,$4,$5,$6,$7,$8,$9,$2,$3,0*
0 Add four circle primitives for the rounded corners*
1,1,$1+$1,$2,$3*
1,1,$1+$1,$4,$5*
1,1,$1+$1,$6,$7*
1,1,$1+$1,$8,$9*
0 Add four rect primitives between the rounded corners*
20,1,$1+$1,$2,$3,$4,$5,0*
20,1,$1+$1,$4,$5,$6,$7,0*
20,1,$1+$1,$6,$7,$8,$9,0*
20,1,$1+$1,$8,$9,$2,$3,0*%
G04 Aperture macros list end*
%ADD10C,6.000000*%
%ADD11C,1.869000*%
%ADD12R,1.700000X1.700000*%
%ADD13O,1.700000X1.700000*%
%ADD14RoundRect,0.250000X-0.625000X0.350000X-0.625000X-0.350000X0.625000X-0.350000X0.625000X0.350000X0*%
%ADD15O,1.750000X1.200000*%
%ADD16RoundRect,0.250000X0.625000X-0.350000X0.625000X0.350000X-0.625000X0.350000X-0.625000X-0.350000X0*%
%ADD17R,3.800000X3.800000*%
%ADD18C,4.000000*%
%ADD19C,1.270000*%
%ADD20RoundRect,0.250000X-0.350000X-0.625000X0.350000X-0.625000X0.350000X0.625000X-0.350000X0.625000X0*%
%ADD21O,1.200000X1.750000*%
G04 APERTURE END LIST*
D10*
%TO.C,REF\u002A\u002A*%
X121500000Y-124500000D03*
%TD*%
%TO.C,REF\u002A\u002A*%
X190500000Y-134500000D03*
%TD*%
D11*
%TO.C,IC1*%
X184780000Y-127000000D03*
X182240000Y-127000000D03*
X179700000Y-127000000D03*
X177160000Y-127000000D03*
X174620000Y-127000000D03*
X172080000Y-127000000D03*
X169540000Y-127000000D03*
X167000000Y-127000000D03*
X167000000Y-142240000D03*
X169540000Y-142240000D03*
X172080000Y-142240000D03*
X174620000Y-142240000D03*
X177160000Y-142240000D03*
X179700000Y-142240000D03*
X182240000Y-142240000D03*
X184780000Y-142240000D03*
X189860000Y-142240000D03*
X187320000Y-127000000D03*
X187320000Y-142240000D03*
X189860000Y-127000000D03*
%TD*%
D12*
%TO.C,J8*%
X137000000Y-126125000D03*
D13*
X137000000Y-128665000D03*
X137000000Y-131205000D03*
X137000000Y-133745000D03*
X137000000Y-136285000D03*
X137000000Y-138825000D03*
X137000000Y-141365000D03*
X137000000Y-143905000D03*
%TD*%
D14*
%TO.C,J2*%
X145450000Y-134500000D03*
D15*
X145450000Y-136500000D03*
X145450000Y-138500000D03*
%TD*%
D16*
%TO.C,J3*%
X149500000Y-129500000D03*
D15*
X149500000Y-127500000D03*
X149500000Y-125500000D03*
%TD*%
D12*
%TO.C,J7*%
X157500000Y-144000000D03*
D13*
X157500000Y-141460000D03*
X157500000Y-138920000D03*
X157500000Y-136380000D03*
X157500000Y-133840000D03*
X157500000Y-131300000D03*
X157500000Y-128760000D03*
X157500000Y-126220000D03*
%TD*%
D17*
%TO.C,J9*%
X106000000Y-144000000D03*
D18*
X106000000Y-139000000D03*
%TD*%
D19*
%TO.C,U1*%
X108500000Y-131500000D03*
X108500000Y-128960000D03*
X108500000Y-126420000D03*
%TD*%
D12*
%TO.C,J4*%
X115920000Y-145500000D03*
D13*
X118460000Y-145500000D03*
X121000000Y-145500000D03*
X123540000Y-145500000D03*
%TD*%
D14*
%TO.C,J1*%
X145500000Y-125500000D03*
D15*
X145500000Y-127500000D03*
X145500000Y-129500000D03*
%TD*%
D16*
%TO.C,J6*%
X149500000Y-138500000D03*
D15*
X149500000Y-136500000D03*
X149500000Y-134500000D03*
%TD*%
D20*
%TO.C,J5*%
X145000000Y-143050000D03*
D21*
X147000000Y-143050000D03*
X149000000Y-143050000D03*
%TD*%
M02*
