%TF.GenerationSoftware,KiCad,Pcbnew,8.0.4*%
%TF.CreationDate,2024-09-27T18:01:19-04:00*%
%TF.ProjectId,Sp-I,53702d49-2e6b-4696-9361-645f70636258,rev?*%
%TF.SameCoordinates,Original*%
%TF.FileFunction,Copper,L1,Top*%
%TF.FilePolarity,Positive*%
%FSLAX46Y46*%
G04 Gerber Fmt 4.6, Leading zero omitted, Abs format (unit mm)*
G04 Created by KiCad (PCBNEW 8.0.4) date 2024-09-27 18:01:19*
%MOMM*%
%LPD*%
G01*
G04 APERTURE LIST*
G04 Aperture macros list*
%AMRoundRect*
0 Rectangle with rounded corners*
0 $1 Rounding radius*
0 $2 $3 $4 $5 $6 $7 $8 $9 X,Y pos of 4 corners*
0 Add a 4 corners polygon primitive as box body*
4,1,4,$2,$3,$4,$5,$6,$7,$8,$9,$2,$3,0*
0 Add four circle primitives for the rounded corners*
1,1,$1+$1,$2,$3*
1,1,$1+$1,$4,$5*
1,1,$1+$1,$6,$7*
1,1,$1+$1,$8,$9*
0 Add four rect primitives between the rounded corners*
20,1,$1+$1,$2,$3,$4,$5,0*
20,1,$1+$1,$4,$5,$6,$7,0*
20,1,$1+$1,$6,$7,$8,$9,0*
20,1,$1+$1,$8,$9,$2,$3,0*%
G04 Aperture macros list end*
%TA.AperFunction,ComponentPad*%
%ADD10C,6.000000*%
%TD*%
%TA.AperFunction,ComponentPad*%
%ADD11C,1.665000*%
%TD*%
%TA.AperFunction,ComponentPad*%
%ADD12R,1.700000X1.700000*%
%TD*%
%TA.AperFunction,ComponentPad*%
%ADD13O,1.700000X1.700000*%
%TD*%
%TA.AperFunction,SMDPad,CuDef*%
%ADD14RoundRect,0.250000X0.337500X0.475000X-0.337500X0.475000X-0.337500X-0.475000X0.337500X-0.475000X0*%
%TD*%
%TA.AperFunction,ComponentPad*%
%ADD15RoundRect,0.250000X-0.625000X0.350000X-0.625000X-0.350000X0.625000X-0.350000X0.625000X0.350000X0*%
%TD*%
%TA.AperFunction,ComponentPad*%
%ADD16O,1.750000X1.200000*%
%TD*%
%TA.AperFunction,ComponentPad*%
%ADD17RoundRect,0.250000X0.625000X-0.350000X0.625000X0.350000X-0.625000X0.350000X-0.625000X-0.350000X0*%
%TD*%
%TA.AperFunction,SMDPad,CuDef*%
%ADD18R,0.475000X0.250000*%
%TD*%
%TA.AperFunction,SMDPad,CuDef*%
%ADD19R,0.250000X0.475000*%
%TD*%
%TA.AperFunction,ComponentPad*%
%ADD20R,3.800000X3.800000*%
%TD*%
%TA.AperFunction,ComponentPad*%
%ADD21C,4.000000*%
%TD*%
%TA.AperFunction,SMDPad,CuDef*%
%ADD22R,0.698500X0.939800*%
%TD*%
%TA.AperFunction,ComponentPad*%
%ADD23C,1.270000*%
%TD*%
%TA.AperFunction,ComponentPad*%
%ADD24RoundRect,0.250000X-0.350000X-0.625000X0.350000X-0.625000X0.350000X0.625000X-0.350000X0.625000X0*%
%TD*%
%TA.AperFunction,ComponentPad*%
%ADD25O,1.200000X1.750000*%
%TD*%
%TA.AperFunction,ViaPad*%
%ADD26C,0.600000*%
%TD*%
%TA.AperFunction,Conductor*%
%ADD27C,0.200000*%
%TD*%
G04 APERTURE END LIST*
D10*
%TO.P,REF\u002A\u002A,1*%
%TO.N,N/C*%
X121500000Y-124500000D03*
%TD*%
%TO.P,REF\u002A\u002A,1*%
%TO.N,N/C*%
X190500000Y-134500000D03*
%TD*%
D11*
%TO.P,IC1,1,TX1*%
%TO.N,Kill_Switch*%
X184780000Y-127000000D03*
%TO.P,IC1,2,OUT2*%
%TO.N,Left_IR*%
X182240000Y-127000000D03*
%TO.P,IC1,3,LRCLK2*%
%TO.N,Middle_IR*%
X179700000Y-127000000D03*
%TO.P,IC1,4,BCLK2*%
%TO.N,Right_IR*%
X177160000Y-127000000D03*
%TO.P,IC1,5,IN2*%
%TO.N,DIR_L*%
X174620000Y-127000000D03*
%TO.P,IC1,6,OUT1D*%
%TO.N,PWM_L*%
X172080000Y-127000000D03*
%TO.P,IC1,7,RX2*%
%TO.N,DIR_R*%
X169540000Y-127000000D03*
%TO.P,IC1,8,TX2*%
%TO.N,PWM_R*%
X167000000Y-127000000D03*
%TO.P,IC1,17,A3*%
%TO.N,unconnected-(IC1-A3-Pad17)*%
X167000000Y-142240000D03*
%TO.P,IC1,18,A4*%
%TO.N,SDA*%
X169540000Y-142240000D03*
%TO.P,IC1,19,A5*%
%TO.N,SCL*%
X172080000Y-142240000D03*
%TO.P,IC1,20,A6*%
%TO.N,unconnected-(IC1-A6-Pad20)*%
X174620000Y-142240000D03*
%TO.P,IC1,21,A7*%
%TO.N,unconnected-(IC1-A7-Pad21)*%
X177160000Y-142240000D03*
%TO.P,IC1,22,A8*%
%TO.N,Left_Line*%
X179700000Y-142240000D03*
%TO.P,IC1,23,A9*%
%TO.N,Right_Line*%
X182240000Y-142240000D03*
%TO.P,IC1,53,3.3V_(250_M_A_MAX)*%
%TO.N,+3.3V*%
X184780000Y-142240000D03*
%TO.P,IC1,55,VIN_(3.6_TO_5.5_VOLTS)*%
%TO.N,5V*%
X189860000Y-142240000D03*
%TO.P,IC1,57,RX1*%
%TO.N,Start_Module*%
X187320000Y-127000000D03*
%TO.P,IC1,70,GND_5*%
%TO.N,GND*%
X187320000Y-142240000D03*
%TO.P,IC1,71,GND_6*%
%TO.N,unconnected-(IC1-GND_6-Pad71)*%
X189860000Y-127000000D03*
%TD*%
D12*
%TO.P,J8,1,Pin_1*%
%TO.N,GND*%
X137000000Y-126125000D03*
D13*
%TO.P,J8,2,Pin_2*%
%TO.N,DIR_L*%
X137000000Y-128665000D03*
%TO.P,J8,3,Pin_3*%
%TO.N,PWM_L*%
X137000000Y-131205000D03*
%TO.P,J8,4,Pin_4*%
%TO.N,unconnected-(J8-Pin_4-Pad4)*%
X137000000Y-133745000D03*
%TO.P,J8,5,Pin_5*%
%TO.N,unconnected-(J8-Pin_5-Pad5)*%
X137000000Y-136285000D03*
%TO.P,J8,6,Pin_6*%
%TO.N,unconnected-(J8-Pin_6-Pad6)*%
X137000000Y-138825000D03*
%TO.P,J8,7,Pin_7*%
%TO.N,unconnected-(J8-Pin_7-Pad7)*%
X137000000Y-141365000D03*
%TO.P,J8,8,Pin_8*%
%TO.N,unconnected-(J8-Pin_8-Pad8)*%
X137000000Y-143905000D03*
%TD*%
D14*
%TO.P,C6,1*%
%TO.N,5V*%
X112537500Y-144000000D03*
%TO.P,C6,2*%
%TO.N,GND*%
X110462500Y-144000000D03*
%TD*%
D15*
%TO.P,J2,1,Pin_1*%
%TO.N,+3.3V*%
X145450000Y-134500000D03*
D16*
%TO.P,J2,2,Pin_2*%
%TO.N,GND*%
X145450000Y-136500000D03*
%TO.P,J2,3,Pin_3*%
%TO.N,Middle_IR*%
X145450000Y-138500000D03*
%TD*%
D17*
%TO.P,J3,1,Pin_1*%
%TO.N,+3.3V*%
X149500000Y-129500000D03*
D16*
%TO.P,J3,2,Pin_2*%
%TO.N,GND*%
X149500000Y-127500000D03*
%TO.P,J3,3,Pin_3*%
%TO.N,Right_IR*%
X149500000Y-125500000D03*
%TD*%
D18*
%TO.P,MT1,1,AP_SDO/AP_AD0*%
%TO.N,unconnected-(MT1-AP_SDO{slash}AP_AD0-Pad1)*%
X171662500Y-135250000D03*
%TO.P,MT1,2,RESV*%
%TO.N,unconnected-(MT1-RESV-Pad2)*%
X171662500Y-134750000D03*
%TO.P,MT1,3,RESV__1*%
%TO.N,unconnected-(MT1-RESV__1-Pad3)*%
X171662500Y-134250000D03*
%TO.P,MT1,4,INT1/INT*%
%TO.N,unconnected-(MT1-INT1{slash}INT-Pad4)*%
X171662500Y-133750000D03*
D19*
%TO.P,MT1,5,VDDIO*%
%TO.N,+3.3V*%
X171000000Y-133587500D03*
%TO.P,MT1,6,GND*%
%TO.N,GND*%
X170500000Y-133587500D03*
%TO.P,MT1,7,FSYNC*%
%TO.N,unconnected-(MT1-FSYNC-Pad7)*%
X170000000Y-133587500D03*
D18*
%TO.P,MT1,8,VDD*%
%TO.N,+3.3V*%
X169337500Y-133750000D03*
%TO.P,MT1,9,INT2*%
%TO.N,unconnected-(MT1-INT2-Pad9)*%
X169337500Y-134250000D03*
%TO.P,MT1,10,RESV__2*%
%TO.N,unconnected-(MT1-RESV__2-Pad10)*%
X169337500Y-134750000D03*
%TO.P,MT1,11,RESV__3*%
%TO.N,unconnected-(MT1-RESV__3-Pad11)*%
X169337500Y-135250000D03*
D19*
%TO.P,MT1,12,AP_CS*%
%TO.N,unconnected-(MT1-AP_CS-Pad12)*%
X170000000Y-135412500D03*
%TO.P,MT1,13,AP_SCL/AP_SCLK*%
%TO.N,SCL*%
X170500000Y-135412500D03*
%TO.P,MT1,14,AP_SDA/AP_SDIO/AP_SDI*%
%TO.N,SDA*%
X171000000Y-135412500D03*
%TD*%
D12*
%TO.P,J7,1,Pin_1*%
%TO.N,GND*%
X157500000Y-144000000D03*
D13*
%TO.P,J7,2,Pin_2*%
%TO.N,DIR_R*%
X157500000Y-141460000D03*
%TO.P,J7,3,Pin_3*%
%TO.N,PWM_R*%
X157500000Y-138920000D03*
%TO.P,J7,4,Pin_4*%
%TO.N,unconnected-(J7-Pin_4-Pad4)*%
X157500000Y-136380000D03*
%TO.P,J7,5,Pin_5*%
%TO.N,unconnected-(J7-Pin_5-Pad5)*%
X157500000Y-133840000D03*
%TO.P,J7,6,Pin_6*%
%TO.N,unconnected-(J7-Pin_6-Pad6)*%
X157500000Y-131300000D03*
%TO.P,J7,7,Pin_7*%
%TO.N,unconnected-(J7-Pin_7-Pad7)*%
X157500000Y-128760000D03*
%TO.P,J7,8,Pin_8*%
%TO.N,unconnected-(J7-Pin_8-Pad8)*%
X157500000Y-126220000D03*
%TD*%
D20*
%TO.P,J9,1,Pin_1*%
%TO.N,GND*%
X106000000Y-144000000D03*
D21*
%TO.P,J9,2,Pin_2*%
%TO.N,Net-(J9-Pin_2)*%
X106000000Y-139000000D03*
%TD*%
D22*
%TO.P,F1,1*%
%TO.N,Net-(J9-Pin_2)*%
X110820550Y-139000000D03*
%TO.P,F1,2*%
%TO.N,Net-(U1-+VIN)*%
X112179450Y-139000000D03*
%TD*%
D23*
%TO.P,U1,1,+VIN*%
%TO.N,Net-(U1-+VIN)*%
X108500000Y-131500000D03*
%TO.P,U1,2,GND*%
%TO.N,GND*%
X108500000Y-128960000D03*
%TO.P,U1,3,+VOUT*%
%TO.N,5V*%
X108500000Y-126420000D03*
%TD*%
D12*
%TO.P,J4,1,Pin_1*%
%TO.N,+3.3V*%
X115920000Y-145500000D03*
D13*
%TO.P,J4,2,Pin_2*%
%TO.N,GND*%
X118460000Y-145500000D03*
%TO.P,J4,3,Pin_3*%
%TO.N,Start_Module*%
X121000000Y-145500000D03*
%TO.P,J4,4,Pin_4*%
%TO.N,Kill_Switch*%
X123540000Y-145500000D03*
%TD*%
D15*
%TO.P,J1,1,Pin_1*%
%TO.N,+3.3V*%
X145500000Y-125500000D03*
D16*
%TO.P,J1,2,Pin_2*%
%TO.N,GND*%
X145500000Y-127500000D03*
%TO.P,J1,3,Pin_3*%
%TO.N,Left_IR*%
X145500000Y-129500000D03*
%TD*%
D17*
%TO.P,J6,1,Pin_1*%
%TO.N,+3.3V*%
X149500000Y-138500000D03*
D16*
%TO.P,J6,2,Pin_2*%
%TO.N,GND*%
X149500000Y-136500000D03*
%TO.P,J6,3,Pin_3*%
%TO.N,Right_Line*%
X149500000Y-134500000D03*
%TD*%
D24*
%TO.P,J5,1,Pin_1*%
%TO.N,+3.3V*%
X145000000Y-143050000D03*
D25*
%TO.P,J5,2,Pin_2*%
%TO.N,GND*%
X147000000Y-143050000D03*
%TO.P,J5,3,Pin_3*%
%TO.N,Left_Line*%
X149000000Y-143050000D03*
%TD*%
D26*
%TO.N,SDA*%
X171234265Y-140545735D03*
%TO.N,GND*%
X172500000Y-132725000D03*
%TD*%
D27*
%TO.N,+3.3V*%
X174665000Y-132125000D02*
X176020000Y-133480000D01*
X170500000Y-132125000D02*
X174665000Y-132125000D01*
X169337500Y-133750000D02*
X169337500Y-133287500D01*
X169337500Y-133287500D02*
X170500000Y-132125000D01*
%TO.N,GND*%
X172500000Y-132925000D02*
X172500000Y-132725000D01*
X170700000Y-132925000D02*
X172500000Y-132925000D01*
X170500000Y-133125000D02*
X170700000Y-132925000D01*
X170500000Y-133587500D02*
X170500000Y-133125000D01*
%TO.N,+3.3V*%
X145450000Y-134500000D02*
X149500000Y-130450000D01*
X149500000Y-130450000D02*
X149500000Y-129500000D01*
X141000000Y-139000000D02*
X141500000Y-138500000D01*
X144275000Y-142275000D02*
X141000000Y-139000000D01*
X141500000Y-138500000D02*
X141500000Y-138450000D01*
X144275000Y-142325000D02*
X144275000Y-142275000D01*
X145000000Y-143050000D02*
X144275000Y-142325000D01*
X141500000Y-138450000D02*
X145450000Y-134500000D01*
%TO.N,5V*%
X184600000Y-147500000D02*
X115312500Y-147500000D01*
X113509744Y-143027756D02*
X113509744Y-131429744D01*
X189860000Y-142240000D02*
X184600000Y-147500000D01*
X115312500Y-147500000D02*
X112537500Y-144725000D01*
X112537500Y-144725000D02*
X112537500Y-144000000D01*
X113509744Y-131429744D02*
X108500000Y-126420000D01*
X112537500Y-144000000D02*
X113509744Y-143027756D01*
%TO.N,Net-(U1-+VIN)*%
X112179450Y-139000000D02*
X112179450Y-135179450D01*
X112179450Y-135179450D02*
X108500000Y-131500000D01*
%TO.N,Net-(J9-Pin_2)*%
X106000000Y-139000000D02*
X110820550Y-139000000D01*
%TO.N,DIR_R*%
X169540000Y-127000000D02*
X169540000Y-129420000D01*
X169540000Y-129420000D02*
X157500000Y-141460000D01*
%TO.N,Kill_Switch*%
X123540000Y-137285000D02*
X123540000Y-145500000D01*
X179980000Y-122200000D02*
X138625000Y-122200000D01*
X184780000Y-127000000D02*
X179980000Y-122200000D01*
X138625000Y-122200000D02*
X123540000Y-137285000D01*
%TO.N,DIR_L*%
X174620000Y-127000000D02*
X170220000Y-122600000D01*
X143065000Y-122600000D02*
X137000000Y-128665000D01*
X170220000Y-122600000D02*
X143065000Y-122600000D01*
%TO.N,Start_Module*%
X121000000Y-139259314D02*
X121000000Y-145500000D01*
X187320000Y-127000000D02*
X182120000Y-121800000D01*
X182120000Y-121800000D02*
X138459314Y-121800000D01*
X138459314Y-121800000D02*
X121000000Y-139259314D01*
%TO.N,SCL*%
X170500000Y-140660000D02*
X172080000Y-142240000D01*
X170500000Y-135412500D02*
X170500000Y-140660000D01*
%TO.N,Right_Line*%
X182240000Y-142240000D02*
X178980000Y-145500000D01*
X156000000Y-145500000D02*
X151000000Y-140500000D01*
X151000000Y-140500000D02*
X151000000Y-136000000D01*
X151000000Y-136000000D02*
X149500000Y-134500000D01*
X178980000Y-145500000D02*
X156000000Y-145500000D01*
%TO.N,SDA*%
X171234265Y-140545735D02*
X171000000Y-140311470D01*
X171000000Y-140311470D02*
X171000000Y-135412500D01*
%TO.N,PWM_R*%
X167000000Y-127000000D02*
X167000000Y-129420000D01*
X167000000Y-129420000D02*
X157500000Y-138920000D01*
%TO.N,+3.3V*%
X149500000Y-129500000D02*
X145500000Y-125500000D01*
X115920000Y-145500000D02*
X117520000Y-147100000D01*
X171262500Y-133325000D02*
X175865000Y-133325000D01*
X145500000Y-125500000D02*
X144950000Y-125500000D01*
X149500000Y-138500000D02*
X145000000Y-143000000D01*
X117520000Y-147100000D02*
X140950000Y-147100000D01*
X148450000Y-146500000D02*
X145000000Y-143050000D01*
X184780000Y-142240000D02*
X180520000Y-146500000D01*
X140950000Y-147100000D02*
X145000000Y-143050000D01*
X175865000Y-133325000D02*
X176020000Y-133480000D01*
X149050000Y-129500000D02*
X149500000Y-129500000D01*
X176020000Y-133480000D02*
X184780000Y-142240000D01*
X180520000Y-146500000D02*
X148450000Y-146500000D01*
X145000000Y-143000000D02*
X145000000Y-143050000D01*
X171000000Y-133587500D02*
X171262500Y-133325000D01*
%TO.N,PWM_L*%
X172080000Y-127000000D02*
X168080000Y-123000000D01*
X145205000Y-123000000D02*
X137000000Y-131205000D01*
X168080000Y-123000000D02*
X145205000Y-123000000D01*
%TD*%
%TA.AperFunction,Conductor*%
%TO.N,GND*%
G36*
X186802822Y-142454222D02*
G01*
X186875890Y-142580778D01*
X186979222Y-142684110D01*
X187105778Y-142757178D01*
X187145682Y-142767870D01*
X186571190Y-143342360D01*
X186651209Y-143398388D01*
X186862515Y-143496921D01*
X186862521Y-143496924D01*
X187087727Y-143557268D01*
X187087735Y-143557269D01*
X187319998Y-143577590D01*
X187319999Y-143577590D01*
X187367642Y-143573421D01*
X187436142Y-143587187D01*
X187486326Y-143635801D01*
X187502260Y-143703830D01*
X187478886Y-143769673D01*
X187466132Y-143784630D01*
X184387584Y-146863181D01*
X184326261Y-146896666D01*
X184299903Y-146899500D01*
X181269096Y-146899500D01*
X181202057Y-146879815D01*
X181156302Y-146827011D01*
X181146358Y-146757853D01*
X181175383Y-146694297D01*
X181181415Y-146687819D01*
X182676241Y-145192993D01*
X184310759Y-143558475D01*
X184372080Y-143524992D01*
X184430531Y-143526383D01*
X184472784Y-143537704D01*
X184547643Y-143557763D01*
X184726611Y-143573421D01*
X184779999Y-143578092D01*
X184780000Y-143578092D01*
X184780001Y-143578092D01*
X184827102Y-143573971D01*
X185012357Y-143557763D01*
X185237654Y-143497395D01*
X185449046Y-143398822D01*
X185640109Y-143265038D01*
X185805038Y-143100109D01*
X185938822Y-142909046D01*
X185938826Y-142909035D01*
X185941527Y-142904360D01*
X185943016Y-142905219D01*
X185984060Y-142858600D01*
X186051252Y-142839444D01*
X186118134Y-142859655D01*
X186157401Y-142904971D01*
X186158905Y-142904104D01*
X186161613Y-142908795D01*
X186217638Y-142988807D01*
X186217639Y-142988808D01*
X186792129Y-142414317D01*
X186802822Y-142454222D01*
G37*
%TD.AperFunction*%
%TA.AperFunction,Conductor*%
G36*
X144043834Y-125112913D02*
G01*
X144099767Y-125154785D01*
X144124184Y-125220249D01*
X144124500Y-125229095D01*
X144124500Y-125900001D01*
X144124501Y-125900019D01*
X144135000Y-126002796D01*
X144135001Y-126002799D01*
X144190185Y-126169331D01*
X144190186Y-126169334D01*
X144282288Y-126318656D01*
X144406344Y-126442712D01*
X144470981Y-126482580D01*
X144517705Y-126534526D01*
X144528928Y-126603489D01*
X144501085Y-126667571D01*
X144493566Y-126675799D01*
X144385964Y-126783401D01*
X144284195Y-126923475D01*
X144205591Y-127077744D01*
X144152085Y-127242415D01*
X144150884Y-127249999D01*
X144150885Y-127250000D01*
X145219670Y-127250000D01*
X145199925Y-127269745D01*
X145150556Y-127355255D01*
X145125000Y-127450630D01*
X145125000Y-127549370D01*
X145150556Y-127644745D01*
X145199925Y-127730255D01*
X145219670Y-127750000D01*
X144150885Y-127750000D01*
X144152085Y-127757584D01*
X144205591Y-127922255D01*
X144284195Y-128076524D01*
X144385967Y-128216602D01*
X144508401Y-128339036D01*
X144591447Y-128399371D01*
X144634114Y-128454701D01*
X144640093Y-128524314D01*
X144607488Y-128586109D01*
X144591450Y-128600007D01*
X144508072Y-128660585D01*
X144385588Y-128783069D01*
X144385588Y-128783070D01*
X144385586Y-128783072D01*
X144351009Y-128830663D01*
X144283768Y-128923211D01*
X144205128Y-129077552D01*
X144151597Y-129242302D01*
X144124500Y-129413389D01*
X144124500Y-129586610D01*
X144143012Y-129703495D01*
X144151598Y-129757701D01*
X144205127Y-129922445D01*
X144283768Y-130076788D01*
X144385586Y-130216928D01*
X144508072Y-130339414D01*
X144648212Y-130441232D01*
X144802555Y-130519873D01*
X144967299Y-130573402D01*
X145138389Y-130600500D01*
X145138390Y-130600500D01*
X145861610Y-130600500D01*
X145861611Y-130600500D01*
X146032701Y-130573402D01*
X146197445Y-130519873D01*
X146351788Y-130441232D01*
X146491928Y-130339414D01*
X146614414Y-130216928D01*
X146716232Y-130076788D01*
X146794873Y-129922445D01*
X146848402Y-129757701D01*
X146875500Y-129586611D01*
X146875500Y-129413389D01*
X146848402Y-129242299D01*
X146794873Y-129077555D01*
X146716232Y-128923212D01*
X146614414Y-128783072D01*
X146491928Y-128660586D01*
X146408550Y-128600008D01*
X146365885Y-128544677D01*
X146359906Y-128475064D01*
X146392512Y-128413269D01*
X146408552Y-128399371D01*
X146491598Y-128339036D01*
X146614032Y-128216602D01*
X146715804Y-128076524D01*
X146794408Y-127922256D01*
X146800204Y-127904418D01*
X146839640Y-127846741D01*
X146903998Y-127819542D01*
X146972845Y-127831454D01*
X147005817Y-127855052D01*
X148094537Y-128943772D01*
X148128022Y-129005095D01*
X148130214Y-129044055D01*
X148124500Y-129099981D01*
X148124500Y-129900001D01*
X148124501Y-129900019D01*
X148135000Y-130002796D01*
X148135001Y-130002799D01*
X148190185Y-130169331D01*
X148190187Y-130169336D01*
X148282289Y-130318657D01*
X148406345Y-130442713D01*
X148416489Y-130448969D01*
X148428548Y-130456408D01*
X148475274Y-130508354D01*
X148486498Y-130577316D01*
X148458656Y-130641399D01*
X148451135Y-130649628D01*
X145737582Y-133363181D01*
X145676259Y-133396666D01*
X145649901Y-133399500D01*
X144774998Y-133399500D01*
X144774980Y-133399501D01*
X144672203Y-133410000D01*
X144672200Y-133410001D01*
X144505668Y-133465185D01*
X144505663Y-133465187D01*
X144356342Y-133557289D01*
X144232289Y-133681342D01*
X144140187Y-133830663D01*
X144140186Y-133830666D01*
X144085001Y-133997203D01*
X144085001Y-133997204D01*
X144085000Y-133997204D01*
X144074500Y-134099983D01*
X144074500Y-134900001D01*
X144074502Y-134900022D01*
X144080214Y-134955945D01*
X144067443Y-135024638D01*
X144044537Y-135056226D01*
X141131286Y-137969478D01*
X141019481Y-138081282D01*
X141019479Y-138081285D01*
X141000452Y-138114240D01*
X140969360Y-138168095D01*
X140969358Y-138168098D01*
X140959339Y-138185449D01*
X140939638Y-138211124D01*
X140631284Y-138519481D01*
X140519480Y-138631284D01*
X140440423Y-138768214D01*
X140440423Y-138768215D01*
X140399499Y-138920943D01*
X140399499Y-138920945D01*
X140399499Y-139079054D01*
X140399498Y-139079054D01*
X140419959Y-139155413D01*
X140440423Y-139231785D01*
X140519481Y-139368716D01*
X140519483Y-139368718D01*
X143714632Y-142563867D01*
X143734336Y-142589544D01*
X143744359Y-142606903D01*
X143744361Y-142606908D01*
X143794475Y-142693709D01*
X143794481Y-142693717D01*
X143863181Y-142762417D01*
X143896666Y-142823740D01*
X143899500Y-142850098D01*
X143899500Y-143249902D01*
X143879815Y-143316941D01*
X143863181Y-143337583D01*
X140737584Y-146463181D01*
X140676261Y-146496666D01*
X140649903Y-146499500D01*
X124727001Y-146499500D01*
X124659962Y-146479815D01*
X124614207Y-146427011D01*
X124604263Y-146357853D01*
X124625426Y-146304376D01*
X124658466Y-146257190D01*
X124714035Y-146177830D01*
X124813903Y-145963663D01*
X124875063Y-145735408D01*
X124895659Y-145500000D01*
X124875063Y-145264592D01*
X124825344Y-145079035D01*
X124813905Y-145036344D01*
X124813904Y-145036343D01*
X124813903Y-145036337D01*
X124714035Y-144822171D01*
X124708731Y-144814595D01*
X124578494Y-144628597D01*
X124411402Y-144461506D01*
X124411395Y-144461501D01*
X124402770Y-144455462D01*
X124334518Y-144407671D01*
X124217831Y-144325965D01*
X124217826Y-144325962D01*
X124212091Y-144323288D01*
X124159653Y-144277113D01*
X124140500Y-144210908D01*
X124140500Y-137585097D01*
X124160185Y-137518058D01*
X124176819Y-137497416D01*
X131504904Y-130169331D01*
X135438320Y-126235915D01*
X135499642Y-126202431D01*
X135569334Y-126207415D01*
X135625267Y-126249287D01*
X135649684Y-126314751D01*
X135650000Y-126323597D01*
X135650000Y-127022844D01*
X135656401Y-127082372D01*
X135656403Y-127082379D01*
X135706645Y-127217086D01*
X135706649Y-127217093D01*
X135792809Y-127332187D01*
X135792812Y-127332190D01*
X135907906Y-127418350D01*
X135907913Y-127418354D01*
X136039470Y-127467421D01*
X136095403Y-127509292D01*
X136119821Y-127574756D01*
X136104970Y-127643029D01*
X136083819Y-127671284D01*
X135961503Y-127793600D01*
X135825965Y-127987169D01*
X135825964Y-127987171D01*
X135726098Y-128201335D01*
X135726094Y-128201344D01*
X135664938Y-128429586D01*
X135664936Y-128429596D01*
X135644341Y-128664999D01*
X135644341Y-128665000D01*
X135664936Y-128900403D01*
X135664938Y-128900413D01*
X135726094Y-129128655D01*
X135726096Y-129128659D01*
X135726097Y-129128663D01*
X135812313Y-129313553D01*
X135825965Y-129342830D01*
X135825967Y-129342834D01*
X135961501Y-129536395D01*
X135961506Y-129536402D01*
X136128597Y-129703493D01*
X136128603Y-129703498D01*
X136314158Y-129833425D01*
X136357783Y-129888002D01*
X136364977Y-129957500D01*
X136333454Y-130019855D01*
X136314158Y-130036575D01*
X136128597Y-130166505D01*
X135961505Y-130333597D01*
X135825965Y-130527169D01*
X135825964Y-130527171D01*
X135726098Y-130741335D01*
X135726094Y-130741344D01*
X135664938Y-130969586D01*
X135664936Y-130969596D01*
X135644341Y-131204998D01*
X135664936Y-131440403D01*
X135664938Y-131440413D01*
X135726094Y-131668655D01*
X135726096Y-131668659D01*
X135726097Y-131668663D01*
X135770397Y-131763664D01*
X135825965Y-131882830D01*
X135825967Y-131882834D01*
X135961501Y-132076395D01*
X135961506Y-132076402D01*
X136128597Y-132243493D01*
X136128603Y-132243498D01*
X136314158Y-132373425D01*
X136357783Y-132428002D01*
X136364977Y-132497500D01*
X136333454Y-132559855D01*
X136314158Y-132576575D01*
X136128597Y-132706505D01*
X135961505Y-132873597D01*
X135825965Y-133067169D01*
X135825964Y-133067171D01*
X135726098Y-133281335D01*
X135726094Y-133281344D01*
X135664938Y-133509586D01*
X135664936Y-133509596D01*
X135644341Y-133744999D01*
X135644341Y-133745000D01*
X135664936Y-133980403D01*
X135664938Y-133980413D01*
X135726094Y-134208655D01*
X135726096Y-134208659D01*
X135726097Y-134208663D01*
X135770397Y-134303664D01*
X135825965Y-134422830D01*
X135825967Y-134422834D01*
X135961501Y-134616395D01*
X135961506Y-134616402D01*
X136128597Y-134783493D01*
X136128603Y-134783498D01*
X136314158Y-134913425D01*
X136357783Y-134968002D01*
X136364977Y-135037500D01*
X136333454Y-135099855D01*
X136314158Y-135116575D01*
X136128597Y-135246505D01*
X135961505Y-135413597D01*
X135825965Y-135607169D01*
X135825964Y-135607171D01*
X135726098Y-135821335D01*
X135726094Y-135821344D01*
X135664938Y-136049586D01*
X135664936Y-136049596D01*
X135644341Y-136284999D01*
X135644341Y-136285000D01*
X135664936Y-136520403D01*
X135664938Y-136520413D01*
X135726094Y-136748655D01*
X135726096Y-136748659D01*
X135726097Y-136748663D01*
X135798725Y-136904414D01*
X135825965Y-136962830D01*
X135825967Y-136962834D01*
X135961501Y-137156395D01*
X135961506Y-137156402D01*
X136128597Y-137323493D01*
X136128603Y-137323498D01*
X136314158Y-137453425D01*
X136357783Y-137508002D01*
X136364977Y-137577500D01*
X136333454Y-137639855D01*
X136314158Y-137656575D01*
X136128597Y-137786505D01*
X135961505Y-137953597D01*
X135825965Y-138147169D01*
X135825964Y-138147171D01*
X135726098Y-138361335D01*
X135726094Y-138361344D01*
X135664938Y-138589586D01*
X135664936Y-138589596D01*
X135644341Y-138824999D01*
X135644341Y-138825000D01*
X135664936Y-139060403D01*
X135664938Y-139060413D01*
X135726094Y-139288655D01*
X135726096Y-139288659D01*
X135726097Y-139288663D01*
X135770397Y-139383664D01*
X135825965Y-139502830D01*
X135825967Y-139502834D01*
X135961501Y-139696395D01*
X135961506Y-139696402D01*
X136128597Y-139863493D01*
X136128603Y-139863498D01*
X136314158Y-139993425D01*
X136357783Y-140048002D01*
X136364977Y-140117500D01*
X136333454Y-140179855D01*
X136314158Y-140196575D01*
X136128597Y-140326505D01*
X135961505Y-140493597D01*
X135825965Y-140687169D01*
X135825964Y-140687171D01*
X135726098Y-140901335D01*
X135726094Y-140901344D01*
X135664938Y-141129586D01*
X135664936Y-141129596D01*
X135644341Y-141364999D01*
X135644341Y-141365000D01*
X135664936Y-141600403D01*
X135664938Y-141600413D01*
X135726094Y-141828655D01*
X135726096Y-141828659D01*
X135726097Y-141828663D01*
X135825965Y-142042830D01*
X135825967Y-142042834D01*
X135961501Y-142236395D01*
X135961506Y-142236402D01*
X136128597Y-142403493D01*
X136128603Y-142403498D01*
X136314158Y-142533425D01*
X136357783Y-142588002D01*
X136364977Y-142657500D01*
X136333454Y-142719855D01*
X136314158Y-142736575D01*
X136128597Y-142866505D01*
X135961505Y-143033597D01*
X135825965Y-143227169D01*
X135825964Y-143227171D01*
X135726098Y-143441335D01*
X135726094Y-143441344D01*
X135664938Y-143669586D01*
X135664936Y-143669596D01*
X135644341Y-143904999D01*
X135644341Y-143905000D01*
X135664936Y-144140403D01*
X135664938Y-144140413D01*
X135726094Y-144368655D01*
X135726096Y-144368659D01*
X135726097Y-144368663D01*
X135771451Y-144465925D01*
X135825965Y-144582830D01*
X135825967Y-144582834D01*
X135913298Y-144707554D01*
X135961505Y-144776401D01*
X136128599Y-144943495D01*
X136225384Y-145011265D01*
X136322165Y-145079032D01*
X136322167Y-145079033D01*
X136322170Y-145079035D01*
X136536337Y-145178903D01*
X136764592Y-145240063D01*
X136952918Y-145256539D01*
X136999999Y-145260659D01*
X137000000Y-145260659D01*
X137000001Y-145260659D01*
X137039234Y-145257226D01*
X137235408Y-145240063D01*
X137463663Y-145178903D01*
X137677830Y-145079035D01*
X137871401Y-144943495D01*
X138038495Y-144776401D01*
X138174035Y-144582830D01*
X138273903Y-144368663D01*
X138335063Y-144140408D01*
X138355659Y-143905000D01*
X138335063Y-143669592D01*
X138282926Y-143475013D01*
X138273905Y-143441344D01*
X138273904Y-143441343D01*
X138273903Y-143441337D01*
X138174035Y-143227171D01*
X138159124Y-143205875D01*
X138038494Y-143033597D01*
X137871402Y-142866506D01*
X137871396Y-142866501D01*
X137685842Y-142736575D01*
X137642217Y-142681998D01*
X137635023Y-142612500D01*
X137666546Y-142550145D01*
X137685842Y-142533425D01*
X137799682Y-142453713D01*
X137871401Y-142403495D01*
X138038495Y-142236401D01*
X138174035Y-142042830D01*
X138273903Y-141828663D01*
X138335063Y-141600408D01*
X138355659Y-141365000D01*
X138355283Y-141360708D01*
X138343375Y-141224596D01*
X138335063Y-141129592D01*
X138281711Y-140930476D01*
X138273905Y-140901344D01*
X138273904Y-140901343D01*
X138273903Y-140901337D01*
X138174035Y-140687171D01*
X138105015Y-140588599D01*
X138038494Y-140493597D01*
X137871402Y-140326506D01*
X137871396Y-140326501D01*
X137685842Y-140196575D01*
X137642217Y-140141998D01*
X137635023Y-140072500D01*
X137666546Y-140010145D01*
X137685842Y-139993425D01*
X137743492Y-139953058D01*
X137871401Y-139863495D01*
X138038495Y-139696401D01*
X138174035Y-139502830D01*
X138273903Y-139288663D01*
X138335063Y-139060408D01*
X138355659Y-138825000D01*
X138335063Y-138589592D01*
X138273903Y-138361337D01*
X138174035Y-138147171D01*
X138141000Y-138099991D01*
X138038494Y-137953597D01*
X137871402Y-137786506D01*
X137871396Y-137786501D01*
X137685842Y-137656575D01*
X137642217Y-137601998D01*
X137635023Y-137532500D01*
X137666546Y-137470145D01*
X137685842Y-137453425D01*
X137735730Y-137418493D01*
X137871401Y-137323495D01*
X138038495Y-137156401D01*
X138174035Y-136962830D01*
X138273903Y-136748663D01*
X138335063Y-136520408D01*
X138355659Y-136285000D01*
X138335063Y-136049592D01*
X138288415Y-135875498D01*
X138273905Y-135821344D01*
X138273904Y-135821343D01*
X138273903Y-135821337D01*
X138174035Y-135607171D01*
X138169364Y-135600499D01*
X138038494Y-135413597D01*
X137871402Y-135246506D01*
X137871396Y-135246501D01*
X137685842Y-135116575D01*
X137642217Y-135061998D01*
X137635023Y-134992500D01*
X137666546Y-134930145D01*
X137685842Y-134913425D01*
X137781058Y-134846754D01*
X137871401Y-134783495D01*
X138038495Y-134616401D01*
X138174035Y-134422830D01*
X138273903Y-134208663D01*
X138335063Y-133980408D01*
X138355659Y-133745000D01*
X138335063Y-133509592D01*
X138273903Y-133281337D01*
X138174035Y-133067171D01*
X138166014Y-133055715D01*
X138038494Y-132873597D01*
X137871402Y-132706506D01*
X137871396Y-132706501D01*
X137685842Y-132576575D01*
X137642217Y-132521998D01*
X137635023Y-132452500D01*
X137666546Y-132390145D01*
X137685842Y-132373425D01*
X137735730Y-132338493D01*
X137871401Y-132243495D01*
X138038495Y-132076401D01*
X138174035Y-131882830D01*
X138273903Y-131668663D01*
X138335063Y-131440408D01*
X138355659Y-131205000D01*
X138352269Y-131166258D01*
X138343375Y-131064596D01*
X138335063Y-130969592D01*
X138300671Y-130841239D01*
X138302334Y-130771393D01*
X138332763Y-130721470D01*
X143912821Y-125141412D01*
X143974142Y-125107929D01*
X144043834Y-125112913D01*
G37*
%TD.AperFunction*%
%TA.AperFunction,Conductor*%
G36*
X167846942Y-123620185D02*
G01*
X167867584Y-123636819D01*
X169685584Y-125454819D01*
X169719069Y-125516142D01*
X169714085Y-125585834D01*
X169672213Y-125641767D01*
X169606749Y-125666184D01*
X169587096Y-125666028D01*
X169540002Y-125661908D01*
X169539999Y-125661908D01*
X169307647Y-125682236D01*
X169307637Y-125682238D01*
X169082353Y-125742602D01*
X169082339Y-125742607D01*
X168870957Y-125841176D01*
X168870955Y-125841177D01*
X168870954Y-125841178D01*
X168679891Y-125974962D01*
X168679889Y-125974963D01*
X168679886Y-125974966D01*
X168514966Y-126139886D01*
X168514963Y-126139889D01*
X168514962Y-126139891D01*
X168436006Y-126252652D01*
X168381177Y-126330955D01*
X168378473Y-126335640D01*
X168376824Y-126334688D01*
X168336199Y-126380818D01*
X168269003Y-126399963D01*
X168202124Y-126379740D01*
X168163115Y-126334722D01*
X168161527Y-126335640D01*
X168158822Y-126330955D01*
X168158822Y-126330954D01*
X168025038Y-126139891D01*
X167860109Y-125974962D01*
X167669046Y-125841178D01*
X167669042Y-125841176D01*
X167457660Y-125742607D01*
X167457646Y-125742602D01*
X167232362Y-125682238D01*
X167232352Y-125682236D01*
X167000001Y-125661908D01*
X166999999Y-125661908D01*
X166767647Y-125682236D01*
X166767637Y-125682238D01*
X166542353Y-125742602D01*
X166542339Y-125742607D01*
X166330957Y-125841176D01*
X166330955Y-125841177D01*
X166330954Y-125841178D01*
X166139891Y-125974962D01*
X166139889Y-125974963D01*
X166139886Y-125974966D01*
X165974966Y-126139886D01*
X165974963Y-126139889D01*
X165974962Y-126139891D01*
X165896006Y-126252652D01*
X165841177Y-126330955D01*
X165841176Y-126330957D01*
X165742607Y-126542339D01*
X165742602Y-126542353D01*
X165682238Y-126767637D01*
X165682236Y-126767647D01*
X165661908Y-126999999D01*
X165661908Y-127000000D01*
X165682236Y-127232352D01*
X165682238Y-127232362D01*
X165742602Y-127457646D01*
X165742607Y-127457660D01*
X165788231Y-127555500D01*
X165841178Y-127669046D01*
X165974962Y-127860109D01*
X166139891Y-128025038D01*
X166330954Y-128158822D01*
X166330959Y-128158824D01*
X166335640Y-128161527D01*
X166334607Y-128163315D01*
X166380317Y-128203528D01*
X166399500Y-128269781D01*
X166399500Y-129119902D01*
X166379815Y-129186941D01*
X166363181Y-129207583D01*
X159064432Y-136506331D01*
X159003109Y-136539816D01*
X158933417Y-136534832D01*
X158877484Y-136492960D01*
X158853067Y-136427496D01*
X158853223Y-136407842D01*
X158855659Y-136380000D01*
X158855659Y-136379999D01*
X158846007Y-136269685D01*
X158835063Y-136144592D01*
X158776422Y-135925739D01*
X158773905Y-135916344D01*
X158773904Y-135916343D01*
X158773903Y-135916337D01*
X158674035Y-135702171D01*
X158655570Y-135675799D01*
X158538494Y-135508597D01*
X158371402Y-135341506D01*
X158371396Y-135341501D01*
X158185842Y-135211575D01*
X158142217Y-135156998D01*
X158135023Y-135087500D01*
X158166546Y-135025145D01*
X158185842Y-135008425D01*
X158286692Y-134937809D01*
X158371401Y-134878495D01*
X158538495Y-134711401D01*
X158674035Y-134517830D01*
X158773903Y-134303663D01*
X158835063Y-134075408D01*
X158855659Y-133840000D01*
X158835063Y-133604592D01*
X158780110Y-133399501D01*
X158773905Y-133376344D01*
X158773904Y-133376343D01*
X158773903Y-133376337D01*
X158674035Y-133162171D01*
X158612483Y-133074264D01*
X158538494Y-132968597D01*
X158371402Y-132801506D01*
X158371396Y-132801501D01*
X158185842Y-132671575D01*
X158142217Y-132616998D01*
X158135023Y-132547500D01*
X158166546Y-132485145D01*
X158185842Y-132468425D01*
X158243572Y-132428002D01*
X158371401Y-132338495D01*
X158538495Y-132171401D01*
X158674035Y-131977830D01*
X158773903Y-131763663D01*
X158835063Y-131535408D01*
X158855659Y-131300000D01*
X158835063Y-131064592D01*
X158773903Y-130836337D01*
X158674035Y-130622171D01*
X158658916Y-130600578D01*
X158538494Y-130428597D01*
X158371402Y-130261506D01*
X158371396Y-130261501D01*
X158185842Y-130131575D01*
X158142217Y-130076998D01*
X158135023Y-130007500D01*
X158166546Y-129945145D01*
X158185842Y-129928425D01*
X158226424Y-129900009D01*
X158371401Y-129798495D01*
X158538495Y-129631401D01*
X158674035Y-129437830D01*
X158773903Y-129223663D01*
X158835063Y-128995408D01*
X158855659Y-128760000D01*
X158835063Y-128524592D01*
X158779644Y-128317763D01*
X158773905Y-128296344D01*
X158773904Y-128296343D01*
X158773903Y-128296337D01*
X158674035Y-128082171D01*
X158634031Y-128025038D01*
X158538494Y-127888597D01*
X158371402Y-127721506D01*
X158371396Y-127721501D01*
X158185842Y-127591575D01*
X158142217Y-127536998D01*
X158135023Y-127467500D01*
X158166546Y-127405145D01*
X158185842Y-127388425D01*
X158208026Y-127372891D01*
X158371401Y-127258495D01*
X158538495Y-127091401D01*
X158674035Y-126897830D01*
X158773903Y-126683663D01*
X158835063Y-126455408D01*
X158855659Y-126220000D01*
X158835063Y-125984592D01*
X158788626Y-125811285D01*
X158773905Y-125756344D01*
X158773904Y-125756343D01*
X158773903Y-125756337D01*
X158674035Y-125542171D01*
X158655810Y-125516142D01*
X158538494Y-125348597D01*
X158371402Y-125181506D01*
X158371395Y-125181501D01*
X158177834Y-125045967D01*
X158177830Y-125045965D01*
X158149825Y-125032906D01*
X157963663Y-124946097D01*
X157963659Y-124946096D01*
X157963655Y-124946094D01*
X157735413Y-124884938D01*
X157735403Y-124884936D01*
X157500001Y-124864341D01*
X157499999Y-124864341D01*
X157264596Y-124884936D01*
X157264586Y-124884938D01*
X157036344Y-124946094D01*
X157036335Y-124946098D01*
X156822171Y-125045964D01*
X156822169Y-125045965D01*
X156628597Y-125181505D01*
X156461505Y-125348597D01*
X156325965Y-125542169D01*
X156325964Y-125542171D01*
X156226098Y-125756335D01*
X156226094Y-125756344D01*
X156164938Y-125984586D01*
X156164936Y-125984596D01*
X156144341Y-126219999D01*
X156144341Y-126220000D01*
X156164936Y-126455403D01*
X156164938Y-126455413D01*
X156226094Y-126683655D01*
X156226096Y-126683659D01*
X156226097Y-126683663D01*
X156272604Y-126783397D01*
X156325965Y-126897830D01*
X156325967Y-126897834D01*
X156461501Y-127091395D01*
X156461506Y-127091402D01*
X156628597Y-127258493D01*
X156628603Y-127258498D01*
X156814158Y-127388425D01*
X156857783Y-127443002D01*
X156864977Y-127512500D01*
X156833454Y-127574855D01*
X156814158Y-127591575D01*
X156628597Y-127721505D01*
X156461505Y-127888597D01*
X156325965Y-128082169D01*
X156325964Y-128082171D01*
X156226098Y-128296335D01*
X156226094Y-128296344D01*
X156164938Y-128524586D01*
X156164936Y-128524596D01*
X156144341Y-128759999D01*
X156144341Y-128760000D01*
X156164936Y-128995403D01*
X156164938Y-128995413D01*
X156226094Y-129223655D01*
X156226096Y-129223659D01*
X156226097Y-129223663D01*
X156281666Y-129342830D01*
X156325965Y-129437830D01*
X156325967Y-129437834D01*
X156461501Y-129631395D01*
X156461506Y-129631402D01*
X156628597Y-129798493D01*
X156628603Y-129798498D01*
X156814158Y-129928425D01*
X156857783Y-129983002D01*
X156864977Y-130052500D01*
X156833454Y-130114855D01*
X156814158Y-130131575D01*
X156628597Y-130261505D01*
X156461505Y-130428597D01*
X156325965Y-130622169D01*
X156325964Y-130622171D01*
X156226098Y-130836335D01*
X156226094Y-130836344D01*
X156164938Y-131064586D01*
X156164936Y-131064596D01*
X156144341Y-131299999D01*
X156144341Y-131300000D01*
X156164936Y-131535403D01*
X156164938Y-131535413D01*
X156226094Y-131763655D01*
X156226096Y-131763659D01*
X156226097Y-131763663D01*
X156287366Y-131895054D01*
X156325965Y-131977830D01*
X156325967Y-131977834D01*
X156461501Y-132171395D01*
X156461506Y-132171402D01*
X156628597Y-132338493D01*
X156628603Y-132338498D01*
X156814158Y-132468425D01*
X156857783Y-132523002D01*
X156864977Y-132592500D01*
X156833454Y-132654855D01*
X156814158Y-132671575D01*
X156628597Y-132801505D01*
X156461505Y-132968597D01*
X156325965Y-133162169D01*
X156325964Y-133162171D01*
X156226098Y-133376335D01*
X156226094Y-133376344D01*
X156164938Y-133604586D01*
X156164936Y-133604596D01*
X156144341Y-133839999D01*
X156144341Y-133840000D01*
X156164936Y-134075403D01*
X156164938Y-134075413D01*
X156226094Y-134303655D01*
X156226096Y-134303659D01*
X156226097Y-134303663D01*
X156309482Y-134482483D01*
X156325965Y-134517830D01*
X156325967Y-134517834D01*
X156461501Y-134711395D01*
X156461506Y-134711402D01*
X156628597Y-134878493D01*
X156628603Y-134878498D01*
X156814158Y-135008425D01*
X156857783Y-135063002D01*
X156864977Y-135132500D01*
X156833454Y-135194855D01*
X156814158Y-135211575D01*
X156628597Y-135341505D01*
X156461505Y-135508597D01*
X156325965Y-135702169D01*
X156325964Y-135702171D01*
X156226098Y-135916335D01*
X156226094Y-135916344D01*
X156164938Y-136144586D01*
X156164936Y-136144596D01*
X156144341Y-136379999D01*
X156144341Y-136380000D01*
X156164936Y-136615403D01*
X156164938Y-136615413D01*
X156226094Y-136843655D01*
X156226096Y-136843659D01*
X156226097Y-136843663D01*
X156262745Y-136922255D01*
X156325965Y-137057830D01*
X156325967Y-137057834D01*
X156461501Y-137251395D01*
X156461506Y-137251402D01*
X156628597Y-137418493D01*
X156628603Y-137418498D01*
X156814158Y-137548425D01*
X156857783Y-137603002D01*
X156864977Y-137672500D01*
X156833454Y-137734855D01*
X156814158Y-137751575D01*
X156628597Y-137881505D01*
X156461505Y-138048597D01*
X156325965Y-138242169D01*
X156325964Y-138242171D01*
X156226098Y-138456335D01*
X156226094Y-138456344D01*
X156164938Y-138684586D01*
X156164936Y-138684596D01*
X156144341Y-138919999D01*
X156144341Y-138920000D01*
X156164936Y-139155403D01*
X156164938Y-139155413D01*
X156226094Y-139383655D01*
X156226096Y-139383659D01*
X156226097Y-139383663D01*
X156289612Y-139519871D01*
X156325965Y-139597830D01*
X156325967Y-139597834D01*
X156461501Y-139791395D01*
X156461506Y-139791402D01*
X156628597Y-139958493D01*
X156628603Y-139958498D01*
X156814158Y-140088425D01*
X156857783Y-140143002D01*
X156864977Y-140212500D01*
X156833454Y-140274855D01*
X156814158Y-140291575D01*
X156628597Y-140421505D01*
X156461505Y-140588597D01*
X156325965Y-140782169D01*
X156325964Y-140782171D01*
X156226098Y-140996335D01*
X156226094Y-140996344D01*
X156164938Y-141224586D01*
X156164936Y-141224596D01*
X156144341Y-141459999D01*
X156144341Y-141460000D01*
X156164936Y-141695403D01*
X156164938Y-141695413D01*
X156226094Y-141923655D01*
X156226096Y-141923659D01*
X156226097Y-141923663D01*
X156273714Y-142025778D01*
X156325965Y-142137830D01*
X156325967Y-142137834D01*
X156397505Y-142240000D01*
X156461501Y-142331396D01*
X156461506Y-142331402D01*
X156583818Y-142453714D01*
X156617303Y-142515037D01*
X156612319Y-142584729D01*
X156570447Y-142640662D01*
X156539471Y-142657577D01*
X156407912Y-142706646D01*
X156407906Y-142706649D01*
X156292812Y-142792809D01*
X156292809Y-142792812D01*
X156206649Y-142907906D01*
X156206645Y-142907913D01*
X156156403Y-143042620D01*
X156156401Y-143042627D01*
X156150000Y-143102155D01*
X156150000Y-143750000D01*
X157066988Y-143750000D01*
X157034075Y-143807007D01*
X157000000Y-143934174D01*
X157000000Y-144065826D01*
X157034075Y-144192993D01*
X157066988Y-144250000D01*
X156150000Y-144250000D01*
X156150000Y-144501403D01*
X156130315Y-144568442D01*
X156077511Y-144614197D01*
X156008353Y-144624141D01*
X155944797Y-144595116D01*
X155938319Y-144589084D01*
X151636819Y-140287584D01*
X151603334Y-140226261D01*
X151600500Y-140199903D01*
X151600500Y-135920944D01*
X151600500Y-135920943D01*
X151592833Y-135892331D01*
X151573948Y-135821851D01*
X151573812Y-135821344D01*
X151559578Y-135768218D01*
X151559576Y-135768213D01*
X151480524Y-135631290D01*
X151480521Y-135631286D01*
X151480520Y-135631284D01*
X151368716Y-135519480D01*
X151368715Y-135519479D01*
X151364385Y-135515149D01*
X151364374Y-135515139D01*
X150842916Y-134993681D01*
X150809431Y-134932358D01*
X150812665Y-134867684D01*
X150848402Y-134757701D01*
X150875500Y-134586611D01*
X150875500Y-134413389D01*
X150848402Y-134242299D01*
X150794873Y-134077555D01*
X150716232Y-133923212D01*
X150614414Y-133783072D01*
X150491928Y-133660586D01*
X150351788Y-133558768D01*
X150197445Y-133480127D01*
X150032701Y-133426598D01*
X150032699Y-133426597D01*
X150032698Y-133426597D01*
X149901271Y-133405781D01*
X149861611Y-133399500D01*
X149138389Y-133399500D01*
X149098728Y-133405781D01*
X148967302Y-133426597D01*
X148802552Y-133480128D01*
X148648211Y-133558768D01*
X148585149Y-133604586D01*
X148508072Y-133660586D01*
X148508070Y-133660588D01*
X148508069Y-133660588D01*
X148385588Y-133783069D01*
X148385588Y-133783070D01*
X148385586Y-133783072D01*
X148351009Y-133830663D01*
X148283768Y-133923211D01*
X148205128Y-134077552D01*
X148151597Y-134242302D01*
X148124500Y-134413389D01*
X148124500Y-134586610D01*
X148142289Y-134698930D01*
X148151598Y-134757701D01*
X148205127Y-134922445D01*
X148283768Y-135076788D01*
X148385586Y-135216928D01*
X148508072Y-135339414D01*
X148580266Y-135391866D01*
X148591449Y-135399991D01*
X148634114Y-135455322D01*
X148640093Y-135524935D01*
X148607487Y-135586730D01*
X148591448Y-135600627D01*
X148508404Y-135660961D01*
X148508399Y-135660965D01*
X148385967Y-135783397D01*
X148284195Y-135923475D01*
X148205591Y-136077744D01*
X148152085Y-136242415D01*
X148150884Y-136249999D01*
X148150885Y-136250000D01*
X149219670Y-136250000D01*
X149199925Y-136269745D01*
X149150556Y-136355255D01*
X149125000Y-136450630D01*
X149125000Y-136549370D01*
X149150556Y-136644745D01*
X149199925Y-136730255D01*
X149219670Y-136750000D01*
X148150885Y-136750000D01*
X148152085Y-136757584D01*
X148205591Y-136922255D01*
X148284195Y-137076524D01*
X148385967Y-137216602D01*
X148493565Y-137324200D01*
X148527050Y-137385523D01*
X148522066Y-137455215D01*
X148480194Y-137511148D01*
X148470983Y-137517418D01*
X148454903Y-137527337D01*
X148406342Y-137557289D01*
X148282289Y-137681342D01*
X148190187Y-137830663D01*
X148190185Y-137830668D01*
X148162349Y-137914670D01*
X148135001Y-137997203D01*
X148135001Y-137997204D01*
X148135000Y-137997204D01*
X148124500Y-138099983D01*
X148124500Y-138900001D01*
X148124502Y-138900022D01*
X148130214Y-138955945D01*
X148117443Y-139024638D01*
X148094537Y-139056226D01*
X145510861Y-141639902D01*
X145449538Y-141673387D01*
X145410582Y-141675579D01*
X145400028Y-141674501D01*
X145400012Y-141674500D01*
X145400009Y-141674500D01*
X145400003Y-141674500D01*
X144599999Y-141674500D01*
X144599983Y-141674501D01*
X144589413Y-141675581D01*
X144520721Y-141662807D01*
X144489138Y-141639903D01*
X141936916Y-139087681D01*
X141903431Y-139026358D01*
X141908415Y-138956666D01*
X141936915Y-138912319D01*
X141980520Y-138868716D01*
X142040661Y-138764545D01*
X142060362Y-138738871D01*
X143944187Y-136855046D01*
X144005505Y-136821565D01*
X144075197Y-136826549D01*
X144131130Y-136868421D01*
X144149794Y-136904414D01*
X144155590Y-136922253D01*
X144234195Y-137076524D01*
X144335967Y-137216602D01*
X144458401Y-137339036D01*
X144541447Y-137399371D01*
X144584114Y-137454701D01*
X144590093Y-137524314D01*
X144557488Y-137586109D01*
X144541450Y-137600007D01*
X144458072Y-137660585D01*
X144335588Y-137783069D01*
X144335588Y-137783070D01*
X144335586Y-137783072D01*
X144328378Y-137792993D01*
X144233768Y-137923211D01*
X144155128Y-138077552D01*
X144101597Y-138242302D01*
X144074500Y-138413389D01*
X144074500Y-138586610D01*
X144100443Y-138750413D01*
X144101598Y-138757701D01*
X144154332Y-138919999D01*
X144155128Y-138922447D01*
X144211437Y-139032960D01*
X144233768Y-139076788D01*
X144335586Y-139216928D01*
X144458072Y-139339414D01*
X144598212Y-139441232D01*
X144752555Y-139519873D01*
X144917299Y-139573402D01*
X145088389Y-139600500D01*
X145088390Y-139600500D01*
X145811610Y-139600500D01*
X145811611Y-139600500D01*
X145982701Y-139573402D01*
X146147445Y-139519873D01*
X146301788Y-139441232D01*
X146441928Y-139339414D01*
X146564414Y-139216928D01*
X146666232Y-139076788D01*
X146744873Y-138922445D01*
X146798402Y-138757701D01*
X146825500Y-138586611D01*
X146825500Y-138413389D01*
X146798402Y-138242299D01*
X146744873Y-138077555D01*
X146666232Y-137923212D01*
X146564414Y-137783072D01*
X146441928Y-137660586D01*
X146358550Y-137600008D01*
X146315885Y-137544677D01*
X146309906Y-137475064D01*
X146342512Y-137413269D01*
X146358552Y-137399371D01*
X146441598Y-137339036D01*
X146564032Y-137216602D01*
X146665804Y-137076524D01*
X146744408Y-136922255D01*
X146797914Y-136757584D01*
X146799115Y-136750000D01*
X145730330Y-136750000D01*
X145750075Y-136730255D01*
X145799444Y-136644745D01*
X145825000Y-136549370D01*
X145825000Y-136450630D01*
X145799444Y-136355255D01*
X145750075Y-136269745D01*
X145730330Y-136250000D01*
X146799115Y-136250000D01*
X146799115Y-136249999D01*
X146797914Y-136242415D01*
X146744408Y-136077744D01*
X146665804Y-135923475D01*
X146564032Y-135783397D01*
X146456434Y-135675799D01*
X146422949Y-135614476D01*
X146427933Y-135544784D01*
X146469805Y-135488851D01*
X146478995Y-135482594D01*
X146543656Y-135442712D01*
X146667712Y-135318656D01*
X146759814Y-135169334D01*
X146814999Y-135002797D01*
X146825500Y-134900009D01*
X146825499Y-134099992D01*
X146823163Y-134077128D01*
X146819785Y-134044053D01*
X146832555Y-133975360D01*
X146855459Y-133943774D01*
X149858506Y-130940728D01*
X149858511Y-130940724D01*
X149868714Y-130930520D01*
X149868716Y-130930520D01*
X149980520Y-130818716D01*
X150038192Y-130718825D01*
X150059577Y-130681785D01*
X150059579Y-130681775D01*
X150061536Y-130677053D01*
X150105374Y-130622647D01*
X150171667Y-130600578D01*
X150174410Y-130600529D01*
X150174998Y-130600499D01*
X150175008Y-130600499D01*
X150277797Y-130589999D01*
X150444334Y-130534814D01*
X150593656Y-130442712D01*
X150717712Y-130318656D01*
X150809814Y-130169334D01*
X150864999Y-130002797D01*
X150875500Y-129900009D01*
X150875499Y-129099992D01*
X150864999Y-128997203D01*
X150809814Y-128830666D01*
X150717712Y-128681344D01*
X150593656Y-128557288D01*
X150593655Y-128557287D01*
X150549988Y-128530353D01*
X150529018Y-128517419D01*
X150482294Y-128465472D01*
X150471071Y-128396510D01*
X150498914Y-128332428D01*
X150506434Y-128324199D01*
X150614035Y-128216598D01*
X150715804Y-128076524D01*
X150794408Y-127922255D01*
X150847914Y-127757584D01*
X150849115Y-127750000D01*
X149780330Y-127750000D01*
X149800075Y-127730255D01*
X149849444Y-127644745D01*
X149875000Y-127549370D01*
X149875000Y-127450630D01*
X149849444Y-127355255D01*
X149800075Y-127269745D01*
X149780330Y-127250000D01*
X150849115Y-127250000D01*
X150849115Y-127249999D01*
X150847914Y-127242415D01*
X150794408Y-127077744D01*
X150715804Y-126923475D01*
X150614032Y-126783397D01*
X150491602Y-126660967D01*
X150408551Y-126600628D01*
X150365885Y-126545298D01*
X150359906Y-126475685D01*
X150392511Y-126413889D01*
X150408551Y-126399991D01*
X150442948Y-126375000D01*
X150491928Y-126339414D01*
X150614414Y-126216928D01*
X150716232Y-126076788D01*
X150794873Y-125922445D01*
X150848402Y-125757701D01*
X150875500Y-125586611D01*
X150875500Y-125413389D01*
X150848402Y-125242299D01*
X150794873Y-125077555D01*
X150716232Y-124923212D01*
X150614414Y-124783072D01*
X150491928Y-124660586D01*
X150351788Y-124558768D01*
X150197445Y-124480127D01*
X150032701Y-124426598D01*
X150032699Y-124426597D01*
X150032698Y-124426597D01*
X149901271Y-124405781D01*
X149861611Y-124399500D01*
X149138389Y-124399500D01*
X149098728Y-124405781D01*
X148967302Y-124426597D01*
X148802552Y-124480128D01*
X148648211Y-124558768D01*
X148568256Y-124616859D01*
X148508072Y-124660586D01*
X148508070Y-124660588D01*
X148508069Y-124660588D01*
X148385588Y-124783069D01*
X148385588Y-124783070D01*
X148385586Y-124783072D01*
X148351009Y-124830663D01*
X148283768Y-124923211D01*
X148205128Y-125077552D01*
X148151597Y-125242302D01*
X148124500Y-125413389D01*
X148124500Y-125586610D01*
X148151381Y-125756335D01*
X148151598Y-125757701D01*
X148205127Y-125922445D01*
X148283768Y-126076788D01*
X148385586Y-126216928D01*
X148508072Y-126339414D01*
X148557052Y-126375000D01*
X148591449Y-126399991D01*
X148634114Y-126455322D01*
X148640093Y-126524935D01*
X148607487Y-126586730D01*
X148591448Y-126600627D01*
X148508404Y-126660961D01*
X148508399Y-126660965D01*
X148385967Y-126783397D01*
X148284195Y-126923475D01*
X148205591Y-127077743D01*
X148199793Y-127095588D01*
X148160354Y-127153262D01*
X148095994Y-127180458D01*
X148027148Y-127168542D01*
X147994182Y-127144947D01*
X146905462Y-126056227D01*
X146871977Y-125994904D01*
X146869785Y-125955946D01*
X146875500Y-125900009D01*
X146875499Y-125099992D01*
X146864999Y-124997203D01*
X146809814Y-124830666D01*
X146717712Y-124681344D01*
X146593656Y-124557288D01*
X146468559Y-124480128D01*
X146444336Y-124465187D01*
X146444331Y-124465185D01*
X146442862Y-124464698D01*
X146277797Y-124410001D01*
X146277795Y-124410000D01*
X146175016Y-124399500D01*
X144954095Y-124399500D01*
X144887056Y-124379815D01*
X144841301Y-124327011D01*
X144831357Y-124257853D01*
X144860382Y-124194297D01*
X144866396Y-124187837D01*
X145417416Y-123636819D01*
X145478739Y-123603334D01*
X145505097Y-123600500D01*
X167779903Y-123600500D01*
X167846942Y-123620185D01*
G37*
%TD.AperFunction*%
%TA.AperFunction,Conductor*%
G36*
X141782942Y-122820185D02*
G01*
X141828697Y-122872989D01*
X141838641Y-122942147D01*
X141809616Y-123005703D01*
X141803584Y-123012181D01*
X138477083Y-126338681D01*
X138415760Y-126372166D01*
X138389402Y-126375000D01*
X137433012Y-126375000D01*
X137465925Y-126317993D01*
X137500000Y-126190826D01*
X137500000Y-126059174D01*
X137465925Y-125932007D01*
X137433012Y-125875000D01*
X138350000Y-125875000D01*
X138350000Y-125227172D01*
X138349999Y-125227155D01*
X138343598Y-125167627D01*
X138343596Y-125167620D01*
X138293354Y-125032913D01*
X138293350Y-125032906D01*
X138207190Y-124917812D01*
X138207187Y-124917809D01*
X138092093Y-124831649D01*
X138092086Y-124831645D01*
X137957379Y-124781403D01*
X137957372Y-124781401D01*
X137897844Y-124775000D01*
X137198598Y-124775000D01*
X137131559Y-124755315D01*
X137085804Y-124702511D01*
X137075860Y-124633353D01*
X137104885Y-124569797D01*
X137110917Y-124563319D01*
X138837417Y-122836819D01*
X138898740Y-122803334D01*
X138925098Y-122800500D01*
X141715903Y-122800500D01*
X141782942Y-122820185D01*
G37*
%TD.AperFunction*%
%TA.AperFunction,Conductor*%
G36*
X194442539Y-120520185D02*
G01*
X194488294Y-120572989D01*
X194499500Y-120624500D01*
X194499500Y-149375500D01*
X194479815Y-149442539D01*
X194427011Y-149488294D01*
X194375500Y-149499500D01*
X100624500Y-149499500D01*
X100557461Y-149479815D01*
X100511706Y-149427011D01*
X100500500Y-149375500D01*
X100500500Y-138999994D01*
X103494556Y-138999994D01*
X103494556Y-139000005D01*
X103514310Y-139314004D01*
X103514311Y-139314011D01*
X103527598Y-139383663D01*
X103568961Y-139600498D01*
X103573270Y-139623083D01*
X103670497Y-139922316D01*
X103670499Y-139922321D01*
X103804461Y-140207003D01*
X103804464Y-140207009D01*
X103973051Y-140472661D01*
X103973054Y-140472665D01*
X104173606Y-140715090D01*
X104173608Y-140715092D01*
X104173610Y-140715094D01*
X104394197Y-140922239D01*
X104402968Y-140930476D01*
X104402978Y-140930484D01*
X104657504Y-141115408D01*
X104657509Y-141115410D01*
X104657516Y-141115416D01*
X104933234Y-141266994D01*
X104933239Y-141266996D01*
X104933241Y-141266997D01*
X104933242Y-141266998D01*
X105169927Y-141360708D01*
X105225013Y-141403689D01*
X105248116Y-141469628D01*
X105231903Y-141537591D01*
X105181519Y-141585998D01*
X105124280Y-141600000D01*
X104052155Y-141600000D01*
X103992627Y-141606401D01*
X103992620Y-141606403D01*
X103857913Y-141656645D01*
X103857906Y-141656649D01*
X103742812Y-141742809D01*
X103742809Y-141742812D01*
X103656649Y-141857906D01*
X103656645Y-141857913D01*
X103606403Y-141992620D01*
X103606401Y-141992627D01*
X103600000Y-142052155D01*
X103600000Y-143750000D01*
X104672769Y-143750000D01*
X104650000Y-143893753D01*
X104650000Y-144106247D01*
X104672769Y-144250000D01*
X103600000Y-144250000D01*
X103600000Y-145947844D01*
X103606401Y-146007372D01*
X103606403Y-146007379D01*
X103656645Y-146142086D01*
X103656649Y-146142093D01*
X103742809Y-146257187D01*
X103742812Y-146257190D01*
X103857906Y-146343350D01*
X103857913Y-146343354D01*
X103992620Y-146393596D01*
X103992627Y-146393598D01*
X104052155Y-146399999D01*
X104052172Y-146400000D01*
X105750000Y-146400000D01*
X105750000Y-145327231D01*
X105893753Y-145350000D01*
X106106247Y-145350000D01*
X106250000Y-145327231D01*
X106250000Y-146400000D01*
X107947828Y-146400000D01*
X107947844Y-146399999D01*
X108007372Y-146393598D01*
X108007379Y-146393596D01*
X108142086Y-146343354D01*
X108142093Y-146343350D01*
X108257187Y-146257190D01*
X108257190Y-146257187D01*
X108343350Y-146142093D01*
X108343354Y-146142086D01*
X108393596Y-146007379D01*
X108393598Y-146007372D01*
X108399999Y-145947844D01*
X108400000Y-145947827D01*
X108400000Y-144524986D01*
X109375001Y-144524986D01*
X109385494Y-144627697D01*
X109440641Y-144794119D01*
X109440643Y-144794124D01*
X109532684Y-144943345D01*
X109656654Y-145067315D01*
X109805875Y-145159356D01*
X109805880Y-145159358D01*
X109972302Y-145214505D01*
X109972309Y-145214506D01*
X110075019Y-145224999D01*
X110212499Y-145224999D01*
X110212500Y-145224998D01*
X110212500Y-144250000D01*
X109375001Y-144250000D01*
X109375001Y-144524986D01*
X108400000Y-144524986D01*
X108400000Y-144250000D01*
X107327231Y-144250000D01*
X107350000Y-144106247D01*
X107350000Y-143893753D01*
X107327231Y-143750000D01*
X108400000Y-143750000D01*
X108400000Y-143475013D01*
X109375000Y-143475013D01*
X109375000Y-143750000D01*
X110212500Y-143750000D01*
X110212500Y-142775000D01*
X110075027Y-142775000D01*
X110075012Y-142775001D01*
X109972302Y-142785494D01*
X109805880Y-142840641D01*
X109805875Y-142840643D01*
X109656654Y-142932684D01*
X109532684Y-143056654D01*
X109440643Y-143205875D01*
X109440641Y-143205880D01*
X109385494Y-143372302D01*
X109385493Y-143372309D01*
X109375000Y-143475013D01*
X108400000Y-143475013D01*
X108400000Y-142052172D01*
X108399999Y-142052155D01*
X108393598Y-141992627D01*
X108393596Y-141992620D01*
X108343354Y-141857913D01*
X108343350Y-141857906D01*
X108257190Y-141742812D01*
X108257187Y-141742809D01*
X108142093Y-141656649D01*
X108142086Y-141656645D01*
X108007379Y-141606403D01*
X108007372Y-141606401D01*
X107947844Y-141600000D01*
X106875720Y-141600000D01*
X106808681Y-141580315D01*
X106762926Y-141527511D01*
X106752982Y-141458353D01*
X106782007Y-141394797D01*
X106830073Y-141360708D01*
X107066757Y-141266998D01*
X107066758Y-141266997D01*
X107066756Y-141266997D01*
X107066766Y-141266994D01*
X107342484Y-141115416D01*
X107597030Y-140930478D01*
X107826390Y-140715094D01*
X108026947Y-140472663D01*
X108195537Y-140207007D01*
X108329503Y-139922315D01*
X108406227Y-139686180D01*
X108445664Y-139628507D01*
X108510023Y-139601308D01*
X108524158Y-139600500D01*
X109899736Y-139600500D01*
X109966775Y-139620185D01*
X110012530Y-139672989D01*
X110015918Y-139681168D01*
X110027501Y-139712226D01*
X110027506Y-139712235D01*
X110113752Y-139827444D01*
X110113755Y-139827447D01*
X110228964Y-139913693D01*
X110228971Y-139913697D01*
X110363817Y-139963991D01*
X110363816Y-139963991D01*
X110370744Y-139964735D01*
X110423427Y-139970400D01*
X111217672Y-139970399D01*
X111277283Y-139963991D01*
X111412131Y-139913696D01*
X111425688Y-139903546D01*
X111491152Y-139879129D01*
X111559425Y-139893980D01*
X111574312Y-139903547D01*
X111587868Y-139913695D01*
X111587871Y-139913697D01*
X111722717Y-139963991D01*
X111722716Y-139963991D01*
X111729644Y-139964735D01*
X111782327Y-139970400D01*
X112576572Y-139970399D01*
X112636183Y-139963991D01*
X112741911Y-139924556D01*
X112811602Y-139919573D01*
X112872925Y-139953058D01*
X112906410Y-140014381D01*
X112909244Y-140040739D01*
X112909244Y-142650500D01*
X112889559Y-142717539D01*
X112836755Y-142763294D01*
X112785244Y-142774500D01*
X112149998Y-142774500D01*
X112149980Y-142774501D01*
X112047203Y-142785000D01*
X112047200Y-142785001D01*
X111880668Y-142840185D01*
X111880663Y-142840187D01*
X111731342Y-142932289D01*
X111607288Y-143056343D01*
X111607283Y-143056349D01*
X111605241Y-143059661D01*
X111603247Y-143061453D01*
X111602807Y-143062011D01*
X111602711Y-143061935D01*
X111553291Y-143106383D01*
X111484328Y-143117602D01*
X111420247Y-143089755D01*
X111394168Y-143059656D01*
X111392319Y-143056659D01*
X111392316Y-143056655D01*
X111268345Y-142932684D01*
X111119124Y-142840643D01*
X111119119Y-142840641D01*
X110952697Y-142785494D01*
X110952690Y-142785493D01*
X110849986Y-142775000D01*
X110712500Y-142775000D01*
X110712500Y-145224999D01*
X110849972Y-145224999D01*
X110849986Y-145224998D01*
X110952697Y-145214505D01*
X111119119Y-145159358D01*
X111119124Y-145159356D01*
X111268345Y-145067315D01*
X111392318Y-144943342D01*
X111394165Y-144940348D01*
X111395969Y-144938724D01*
X111396798Y-144937677D01*
X111396976Y-144937818D01*
X111446110Y-144893621D01*
X111515073Y-144882396D01*
X111579156Y-144910236D01*
X111605243Y-144940341D01*
X111607288Y-144943656D01*
X111731344Y-145067712D01*
X111880666Y-145159814D01*
X112047203Y-145214999D01*
X112149292Y-145225428D01*
X112213983Y-145251824D01*
X112224369Y-145261104D01*
X114943784Y-147980520D01*
X114943786Y-147980521D01*
X114943790Y-147980524D01*
X115080709Y-148059573D01*
X115080716Y-148059577D01*
X115233443Y-148100501D01*
X115233445Y-148100501D01*
X115399154Y-148100501D01*
X115399170Y-148100500D01*
X184513331Y-148100500D01*
X184513347Y-148100501D01*
X184520943Y-148100501D01*
X184679054Y-148100501D01*
X184679057Y-148100501D01*
X184831785Y-148059577D01*
X184881904Y-148030639D01*
X184968716Y-147980520D01*
X185080520Y-147868716D01*
X185080520Y-147868714D01*
X185090728Y-147858507D01*
X185090730Y-147858504D01*
X189390758Y-143558475D01*
X189452079Y-143524992D01*
X189510530Y-143526383D01*
X189539238Y-143534075D01*
X189627643Y-143557763D01*
X189806611Y-143573421D01*
X189859999Y-143578092D01*
X189860000Y-143578092D01*
X189860001Y-143578092D01*
X189907102Y-143573971D01*
X190092357Y-143557763D01*
X190317654Y-143497395D01*
X190529046Y-143398822D01*
X190720109Y-143265038D01*
X190885038Y-143100109D01*
X191018822Y-142909046D01*
X191117395Y-142697654D01*
X191177763Y-142472357D01*
X191198092Y-142240000D01*
X191177763Y-142007643D01*
X191117395Y-141782346D01*
X191018822Y-141570954D01*
X190885038Y-141379891D01*
X190720109Y-141214962D01*
X190529046Y-141081178D01*
X190529042Y-141081176D01*
X190317660Y-140982607D01*
X190317646Y-140982602D01*
X190092362Y-140922238D01*
X190092352Y-140922236D01*
X189860001Y-140901908D01*
X189859999Y-140901908D01*
X189627647Y-140922236D01*
X189627637Y-140922238D01*
X189402353Y-140982602D01*
X189402339Y-140982607D01*
X189190957Y-141081176D01*
X189190955Y-141081177D01*
X189142057Y-141115416D01*
X188999891Y-141214962D01*
X188999889Y-141214963D01*
X188999886Y-141214966D01*
X188834966Y-141379886D01*
X188834963Y-141379889D01*
X188834962Y-141379891D01*
X188780022Y-141458353D01*
X188701177Y-141570955D01*
X188698473Y-141575640D01*
X188696992Y-141574785D01*
X188655896Y-141621426D01*
X188588696Y-141640555D01*
X188521822Y-141620315D01*
X188482600Y-141575026D01*
X188481095Y-141575896D01*
X188478386Y-141571204D01*
X188422360Y-141491191D01*
X188422360Y-141491190D01*
X187847870Y-142065681D01*
X187837178Y-142025778D01*
X187764110Y-141899222D01*
X187660778Y-141795890D01*
X187534222Y-141722822D01*
X187494317Y-141712129D01*
X188068808Y-141137639D01*
X188068807Y-141137638D01*
X187988795Y-141081613D01*
X187988793Y-141081612D01*
X187777484Y-140983078D01*
X187777478Y-140983075D01*
X187552272Y-140922731D01*
X187552264Y-140922730D01*
X187320002Y-140902410D01*
X187319998Y-140902410D01*
X187087735Y-140922730D01*
X187087727Y-140922731D01*
X186862521Y-140983075D01*
X186862515Y-140983078D01*
X186651202Y-141081614D01*
X186571190Y-141137637D01*
X187145682Y-141712129D01*
X187105778Y-141722822D01*
X186979222Y-141795890D01*
X186875890Y-141899222D01*
X186802822Y-142025778D01*
X186792129Y-142065681D01*
X186217638Y-141491190D01*
X186217637Y-141491190D01*
X186161613Y-141571204D01*
X186158910Y-141575887D01*
X186157355Y-141574989D01*
X186116476Y-141621409D01*
X186049281Y-141640555D01*
X185982402Y-141620333D01*
X185942959Y-141574813D01*
X185941527Y-141575640D01*
X185938822Y-141570955D01*
X185938822Y-141570954D01*
X185805038Y-141379891D01*
X185640109Y-141214962D01*
X185449046Y-141081178D01*
X185449042Y-141081176D01*
X185237660Y-140982607D01*
X185237646Y-140982602D01*
X185012362Y-140922238D01*
X185012352Y-140922236D01*
X184780001Y-140901908D01*
X184779999Y-140901908D01*
X184547647Y-140922236D01*
X184547634Y-140922239D01*
X184430530Y-140953616D01*
X184360681Y-140951953D01*
X184310757Y-140921522D01*
X177889234Y-134499999D01*
X186994696Y-134499999D01*
X186994696Y-134500000D01*
X187013898Y-134866405D01*
X187059924Y-135156998D01*
X187071295Y-135228794D01*
X187149184Y-135519480D01*
X187166260Y-135583206D01*
X187297746Y-135925739D01*
X187464320Y-136252656D01*
X187664147Y-136560364D01*
X187816629Y-136748663D01*
X187895051Y-136845506D01*
X188154494Y-137104949D01*
X188218032Y-137156401D01*
X188439635Y-137335852D01*
X188747343Y-137535679D01*
X188747348Y-137535682D01*
X189074264Y-137702255D01*
X189416801Y-137833742D01*
X189771206Y-137928705D01*
X190133596Y-137986102D01*
X190479734Y-138004241D01*
X190499999Y-138005304D01*
X190500000Y-138005304D01*
X190500001Y-138005304D01*
X190519203Y-138004297D01*
X190866404Y-137986102D01*
X191228794Y-137928705D01*
X191583199Y-137833742D01*
X191925736Y-137702255D01*
X192252652Y-137535682D01*
X192560366Y-137335851D01*
X192845506Y-137104949D01*
X193104949Y-136845506D01*
X193335851Y-136560366D01*
X193535682Y-136252652D01*
X193702255Y-135925736D01*
X193833742Y-135583199D01*
X193928705Y-135228794D01*
X193986102Y-134866404D01*
X194005304Y-134500000D01*
X193986102Y-134133596D01*
X193928705Y-133771206D01*
X193833742Y-133416801D01*
X193702255Y-133074264D01*
X193535682Y-132747348D01*
X193509159Y-132706506D01*
X193335852Y-132439635D01*
X193104952Y-132154498D01*
X193104949Y-132154494D01*
X192845506Y-131895051D01*
X192683257Y-131763664D01*
X192560364Y-131664147D01*
X192252656Y-131464320D01*
X191925739Y-131297746D01*
X191583206Y-131166260D01*
X191583199Y-131166258D01*
X191228794Y-131071295D01*
X191228790Y-131071294D01*
X191228789Y-131071294D01*
X190866405Y-131013898D01*
X190500001Y-130994696D01*
X190499999Y-130994696D01*
X190133594Y-131013898D01*
X189771211Y-131071294D01*
X189771209Y-131071294D01*
X189416793Y-131166260D01*
X189074260Y-131297746D01*
X188747343Y-131464320D01*
X188439635Y-131664147D01*
X188154498Y-131895047D01*
X188154490Y-131895054D01*
X187895054Y-132154490D01*
X187895047Y-132154498D01*
X187664147Y-132439635D01*
X187464320Y-132747343D01*
X187297746Y-133074260D01*
X187166260Y-133416793D01*
X187071294Y-133771209D01*
X187071294Y-133771211D01*
X187013898Y-134133594D01*
X186994696Y-134499999D01*
X177889234Y-134499999D01*
X176352590Y-132963355D01*
X176352587Y-132963351D01*
X176352587Y-132963352D01*
X176345520Y-132956285D01*
X176345520Y-132956284D01*
X176233716Y-132844480D01*
X176233715Y-132844479D01*
X176229385Y-132840149D01*
X176229374Y-132840139D01*
X175152590Y-131763355D01*
X175152588Y-131763352D01*
X175033717Y-131644481D01*
X175033716Y-131644480D01*
X174933845Y-131586820D01*
X174933844Y-131586819D01*
X174896783Y-131565422D01*
X174840881Y-131550443D01*
X174744057Y-131524499D01*
X174585943Y-131524499D01*
X174578347Y-131524499D01*
X174578331Y-131524500D01*
X170420942Y-131524500D01*
X170268214Y-131565423D01*
X170231155Y-131586820D01*
X170231154Y-131586820D01*
X170131287Y-131644477D01*
X170131282Y-131644481D01*
X168856981Y-132918782D01*
X168856977Y-132918787D01*
X168835331Y-132956282D01*
X168835330Y-132956284D01*
X168777923Y-133055715D01*
X168736999Y-133208443D01*
X168736999Y-133208445D01*
X168736999Y-133233468D01*
X168717314Y-133300507D01*
X168712266Y-133307778D01*
X168656206Y-133382665D01*
X168656202Y-133382671D01*
X168608863Y-133509596D01*
X168605909Y-133517517D01*
X168599500Y-133577127D01*
X168599500Y-133577134D01*
X168599500Y-133577135D01*
X168599500Y-133922869D01*
X168599501Y-133922879D01*
X168606367Y-133986751D01*
X168606367Y-134013257D01*
X168605909Y-134017516D01*
X168605909Y-134017517D01*
X168599500Y-134077127D01*
X168599500Y-134077130D01*
X168599500Y-134077133D01*
X168599500Y-134422869D01*
X168599501Y-134422879D01*
X168606367Y-134486751D01*
X168606367Y-134513257D01*
X168605909Y-134517516D01*
X168605909Y-134517517D01*
X168599500Y-134577127D01*
X168599500Y-134577130D01*
X168599500Y-134577133D01*
X168599500Y-134922869D01*
X168599501Y-134922879D01*
X168606367Y-134986751D01*
X168606367Y-135013257D01*
X168605909Y-135017516D01*
X168605909Y-135017517D01*
X168599500Y-135077127D01*
X168599500Y-135077130D01*
X168599500Y-135077133D01*
X168599500Y-135422869D01*
X168599501Y-135422876D01*
X168605908Y-135482483D01*
X168656202Y-135617328D01*
X168656206Y-135617335D01*
X168742452Y-135732544D01*
X168742455Y-135732547D01*
X168857664Y-135818793D01*
X168857671Y-135818797D01*
X168902618Y-135835561D01*
X168992517Y-135869091D01*
X169052127Y-135875500D01*
X169356534Y-135875499D01*
X169423573Y-135895183D01*
X169455800Y-135925188D01*
X169517452Y-136007544D01*
X169517455Y-136007547D01*
X169632664Y-136093793D01*
X169632671Y-136093797D01*
X169677618Y-136110561D01*
X169767517Y-136144091D01*
X169788756Y-136146374D01*
X169853304Y-136173110D01*
X169893154Y-136230502D01*
X169899500Y-136269663D01*
X169899500Y-140573330D01*
X169899499Y-140573348D01*
X169899499Y-140739058D01*
X169906978Y-140766970D01*
X169905315Y-140836820D01*
X169866152Y-140894682D01*
X169801923Y-140922185D01*
X169776396Y-140922590D01*
X169540002Y-140901908D01*
X169539999Y-140901908D01*
X169307647Y-140922236D01*
X169307637Y-140922238D01*
X169082353Y-140982602D01*
X169082339Y-140982607D01*
X168870957Y-141081176D01*
X168870955Y-141081177D01*
X168822057Y-141115416D01*
X168679891Y-141214962D01*
X168679889Y-141214963D01*
X168679886Y-141214966D01*
X168514966Y-141379886D01*
X168514963Y-141379889D01*
X168514962Y-141379891D01*
X168460022Y-141458353D01*
X168381177Y-141570955D01*
X168378473Y-141575640D01*
X168376824Y-141574688D01*
X168336199Y-141620818D01*
X168269003Y-141639963D01*
X168202124Y-141619740D01*
X168163115Y-141574722D01*
X168161527Y-141575640D01*
X168158822Y-141570955D01*
X168158822Y-141570954D01*
X168025038Y-141379891D01*
X167860109Y-141214962D01*
X167669046Y-141081178D01*
X167669042Y-141081176D01*
X167457660Y-140982607D01*
X167457646Y-140982602D01*
X167232362Y-140922238D01*
X167232352Y-140922236D01*
X167000001Y-140901908D01*
X166999999Y-140901908D01*
X166767647Y-140922236D01*
X166767637Y-140922238D01*
X166542353Y-140982602D01*
X166542339Y-140982607D01*
X166330957Y-141081176D01*
X166330955Y-141081177D01*
X166282057Y-141115416D01*
X166139891Y-141214962D01*
X166139889Y-141214963D01*
X166139886Y-141214966D01*
X165974966Y-141379886D01*
X165974963Y-141379889D01*
X165974962Y-141379891D01*
X165920022Y-141458353D01*
X165841177Y-141570955D01*
X165841176Y-141570957D01*
X165742607Y-141782339D01*
X165742602Y-141782353D01*
X165682238Y-142007637D01*
X165682236Y-142007647D01*
X165661908Y-142239999D01*
X165661908Y-142240000D01*
X165682236Y-142472352D01*
X165682238Y-142472362D01*
X165742602Y-142697646D01*
X165742607Y-142697660D01*
X165838993Y-142904360D01*
X165841178Y-142909046D01*
X165974962Y-143100109D01*
X166139891Y-143265038D01*
X166330954Y-143398822D01*
X166458132Y-143458126D01*
X166542339Y-143497392D01*
X166542341Y-143497392D01*
X166542346Y-143497395D01*
X166542351Y-143497396D01*
X166542353Y-143497397D01*
X166596578Y-143511926D01*
X166767643Y-143557763D01*
X166946611Y-143573421D01*
X166999999Y-143578092D01*
X167000000Y-143578092D01*
X167000001Y-143578092D01*
X167047102Y-143573971D01*
X167232357Y-143557763D01*
X167457654Y-143497395D01*
X167669046Y-143398822D01*
X167860109Y-143265038D01*
X168025038Y-143100109D01*
X168158822Y-142909046D01*
X168158826Y-142909035D01*
X168161527Y-142904360D01*
X168163179Y-142905313D01*
X168203784Y-142859192D01*
X168270976Y-142840036D01*
X168337859Y-142860248D01*
X168376879Y-142905280D01*
X168378473Y-142904360D01*
X168381176Y-142909042D01*
X168381178Y-142909046D01*
X168514962Y-143100109D01*
X168679891Y-143265038D01*
X168870954Y-143398822D01*
X168998132Y-143458126D01*
X169082339Y-143497392D01*
X169082341Y-143497392D01*
X169082346Y-143497395D01*
X169082351Y-143497396D01*
X169082353Y-143497397D01*
X169136578Y-143511926D01*
X169307643Y-143557763D01*
X169486611Y-143573421D01*
X169539999Y-143578092D01*
X169540000Y-143578092D01*
X169540001Y-143578092D01*
X169587102Y-143573971D01*
X169772357Y-143557763D01*
X169997654Y-143497395D01*
X170209046Y-143398822D01*
X170400109Y-143265038D01*
X170565038Y-143100109D01*
X170698822Y-142909046D01*
X170698826Y-142909035D01*
X170701527Y-142904360D01*
X170703179Y-142905313D01*
X170743784Y-142859192D01*
X170810976Y-142840036D01*
X170877859Y-142860248D01*
X170916879Y-142905280D01*
X170918473Y-142904360D01*
X170921176Y-142909042D01*
X170921178Y-142909046D01*
X171054962Y-143100109D01*
X171219891Y-143265038D01*
X171410954Y-143398822D01*
X171538132Y-143458126D01*
X171622339Y-143497392D01*
X171622341Y-143497392D01*
X171622346Y-143497395D01*
X171622351Y-143497396D01*
X171622353Y-143497397D01*
X171676578Y-143511926D01*
X171847643Y-143557763D01*
X172026611Y-143573421D01*
X172079999Y-143578092D01*
X172080000Y-143578092D01*
X172080001Y-143578092D01*
X172127102Y-143573971D01*
X172312357Y-143557763D01*
X172537654Y-143497395D01*
X172749046Y-143398822D01*
X172940109Y-143265038D01*
X173105038Y-143100109D01*
X173238822Y-142909046D01*
X173238826Y-142909035D01*
X173241527Y-142904360D01*
X173243179Y-142905313D01*
X173283784Y-142859192D01*
X173350976Y-142840036D01*
X173417859Y-142860248D01*
X173456879Y-142905280D01*
X173458473Y-142904360D01*
X173461176Y-142909042D01*
X173461178Y-142909046D01*
X173594962Y-143100109D01*
X173759891Y-143265038D01*
X173950954Y-143398822D01*
X174078132Y-143458126D01*
X174162339Y-143497392D01*
X174162341Y-143497392D01*
X174162346Y-143497395D01*
X174162351Y-143497396D01*
X174162353Y-143497397D01*
X174216578Y-143511926D01*
X174387643Y-143557763D01*
X174566611Y-143573421D01*
X174619999Y-143578092D01*
X174620000Y-143578092D01*
X174620001Y-143578092D01*
X174667102Y-143573971D01*
X174852357Y-143557763D01*
X175077654Y-143497395D01*
X175289046Y-143398822D01*
X175480109Y-143265038D01*
X175645038Y-143100109D01*
X175778822Y-142909046D01*
X175778826Y-142909035D01*
X175781527Y-142904360D01*
X175783179Y-142905313D01*
X175823784Y-142859192D01*
X175890976Y-142840036D01*
X175957859Y-142860248D01*
X175996879Y-142905280D01*
X175998473Y-142904360D01*
X176001176Y-142909042D01*
X176001178Y-142909046D01*
X176134962Y-143100109D01*
X176299891Y-143265038D01*
X176490954Y-143398822D01*
X176618132Y-143458126D01*
X176702339Y-143497392D01*
X176702341Y-143497392D01*
X176702346Y-143497395D01*
X176702351Y-143497396D01*
X176702353Y-143497397D01*
X176756578Y-143511926D01*
X176927643Y-143557763D01*
X177106611Y-143573421D01*
X177159999Y-143578092D01*
X177160000Y-143578092D01*
X177160001Y-143578092D01*
X177207102Y-143573971D01*
X177392357Y-143557763D01*
X177617654Y-143497395D01*
X177829046Y-143398822D01*
X178020109Y-143265038D01*
X178185038Y-143100109D01*
X178318822Y-142909046D01*
X178318826Y-142909035D01*
X178321527Y-142904360D01*
X178323179Y-142905313D01*
X178363784Y-142859192D01*
X178430976Y-142840036D01*
X178497859Y-142860248D01*
X178536879Y-142905280D01*
X178538473Y-142904360D01*
X178541176Y-142909042D01*
X178541178Y-142909046D01*
X178674962Y-143100109D01*
X178839891Y-143265038D01*
X179030954Y-143398822D01*
X179158132Y-143458126D01*
X179242339Y-143497392D01*
X179242341Y-143497392D01*
X179242346Y-143497395D01*
X179242351Y-143497396D01*
X179242353Y-143497397D01*
X179296578Y-143511926D01*
X179467643Y-143557763D01*
X179700000Y-143578092D01*
X179747095Y-143573971D01*
X179815593Y-143587737D01*
X179865777Y-143636351D01*
X179881711Y-143704379D01*
X179858337Y-143770223D01*
X179845583Y-143785180D01*
X178767584Y-144863181D01*
X178706261Y-144896666D01*
X178679903Y-144899500D01*
X158974000Y-144899500D01*
X158906961Y-144879815D01*
X158861206Y-144827011D01*
X158850000Y-144775500D01*
X158850000Y-144250000D01*
X157933012Y-144250000D01*
X157965925Y-144192993D01*
X158000000Y-144065826D01*
X158000000Y-143934174D01*
X157965925Y-143807007D01*
X157933012Y-143750000D01*
X158850000Y-143750000D01*
X158850000Y-143102172D01*
X158849999Y-143102155D01*
X158843598Y-143042627D01*
X158843596Y-143042620D01*
X158793354Y-142907913D01*
X158793350Y-142907906D01*
X158707190Y-142792812D01*
X158707187Y-142792809D01*
X158592093Y-142706649D01*
X158592088Y-142706646D01*
X158460528Y-142657577D01*
X158404595Y-142615705D01*
X158380178Y-142550241D01*
X158395030Y-142481968D01*
X158416175Y-142453720D01*
X158538495Y-142331401D01*
X158674035Y-142137830D01*
X158773903Y-141923663D01*
X158835063Y-141695408D01*
X158855659Y-141460000D01*
X158835063Y-141224592D01*
X158800671Y-141096239D01*
X158802334Y-141026393D01*
X158832763Y-140976470D01*
X169908713Y-129900521D01*
X169908716Y-129900520D01*
X170020520Y-129788716D01*
X170070639Y-129701904D01*
X170099577Y-129651785D01*
X170140500Y-129499058D01*
X170140500Y-129340943D01*
X170140500Y-128269781D01*
X170160185Y-128202742D01*
X170205375Y-128163285D01*
X170204360Y-128161527D01*
X170209035Y-128158826D01*
X170209046Y-128158822D01*
X170400109Y-128025038D01*
X170565038Y-127860109D01*
X170698822Y-127669046D01*
X170698826Y-127669035D01*
X170701527Y-127664360D01*
X170703179Y-127665313D01*
X170743784Y-127619192D01*
X170810976Y-127600036D01*
X170877859Y-127620248D01*
X170916879Y-127665280D01*
X170918473Y-127664360D01*
X170921176Y-127669042D01*
X170921178Y-127669046D01*
X171054962Y-127860109D01*
X171219891Y-128025038D01*
X171410954Y-128158822D01*
X171506827Y-128203528D01*
X171622339Y-128257392D01*
X171622341Y-128257392D01*
X171622346Y-128257395D01*
X171847643Y-128317763D01*
X172033528Y-128334026D01*
X172079999Y-128338092D01*
X172080000Y-128338092D01*
X172080001Y-128338092D01*
X172118726Y-128334703D01*
X172312357Y-128317763D01*
X172537654Y-128257395D01*
X172749046Y-128158822D01*
X172940109Y-128025038D01*
X173105038Y-127860109D01*
X173238822Y-127669046D01*
X173238826Y-127669035D01*
X173241527Y-127664360D01*
X173243179Y-127665313D01*
X173283784Y-127619192D01*
X173350976Y-127600036D01*
X173417859Y-127620248D01*
X173456879Y-127665280D01*
X173458473Y-127664360D01*
X173461176Y-127669042D01*
X173461178Y-127669046D01*
X173594962Y-127860109D01*
X173759891Y-128025038D01*
X173950954Y-128158822D01*
X174046827Y-128203528D01*
X174162339Y-128257392D01*
X174162341Y-128257392D01*
X174162346Y-128257395D01*
X174387643Y-128317763D01*
X174573528Y-128334026D01*
X174619999Y-128338092D01*
X174620000Y-128338092D01*
X174620001Y-128338092D01*
X174658726Y-128334703D01*
X174852357Y-128317763D01*
X175077654Y-128257395D01*
X175289046Y-128158822D01*
X175480109Y-128025038D01*
X175645038Y-127860109D01*
X175778822Y-127669046D01*
X175778826Y-127669035D01*
X175781527Y-127664360D01*
X175783179Y-127665313D01*
X175823784Y-127619192D01*
X175890976Y-127600036D01*
X175957859Y-127620248D01*
X175996879Y-127665280D01*
X175998473Y-127664360D01*
X176001176Y-127669042D01*
X176001178Y-127669046D01*
X176134962Y-127860109D01*
X176299891Y-128025038D01*
X176490954Y-128158822D01*
X176586827Y-128203528D01*
X176702339Y-128257392D01*
X176702341Y-128257392D01*
X176702346Y-128257395D01*
X176927643Y-128317763D01*
X177113528Y-128334026D01*
X177159999Y-128338092D01*
X177160000Y-128338092D01*
X177160001Y-128338092D01*
X177198726Y-128334703D01*
X177392357Y-128317763D01*
X177617654Y-128257395D01*
X177829046Y-128158822D01*
X178020109Y-128025038D01*
X178185038Y-127860109D01*
X178318822Y-127669046D01*
X178318826Y-127669035D01*
X178321527Y-127664360D01*
X178323179Y-127665313D01*
X178363784Y-127619192D01*
X178430976Y-127600036D01*
X178497859Y-127620248D01*
X178536879Y-127665280D01*
X178538473Y-127664360D01*
X178541176Y-127669042D01*
X178541178Y-127669046D01*
X178674962Y-127860109D01*
X178839891Y-128025038D01*
X179030954Y-128158822D01*
X179126827Y-128203528D01*
X179242339Y-128257392D01*
X179242341Y-128257392D01*
X179242346Y-128257395D01*
X179467643Y-128317763D01*
X179653528Y-128334026D01*
X179699999Y-128338092D01*
X179700000Y-128338092D01*
X179700001Y-128338092D01*
X179738726Y-128334703D01*
X179932357Y-128317763D01*
X180157654Y-128257395D01*
X180369046Y-128158822D01*
X180560109Y-128025038D01*
X180725038Y-127860109D01*
X180858822Y-127669046D01*
X180858826Y-127669035D01*
X180861527Y-127664360D01*
X180863179Y-127665313D01*
X180903784Y-127619192D01*
X180970976Y-127600036D01*
X181037859Y-127620248D01*
X181076879Y-127665280D01*
X181078473Y-127664360D01*
X181081176Y-127669042D01*
X181081178Y-127669046D01*
X181214962Y-127860109D01*
X181379891Y-128025038D01*
X181570954Y-128158822D01*
X181666827Y-128203528D01*
X181782339Y-128257392D01*
X181782341Y-128257392D01*
X181782346Y-128257395D01*
X182007643Y-128317763D01*
X182193528Y-128334026D01*
X182239999Y-128338092D01*
X182240000Y-128338092D01*
X182240001Y-128338092D01*
X182278726Y-128334703D01*
X182472357Y-128317763D01*
X182697654Y-128257395D01*
X182909046Y-128158822D01*
X183100109Y-128025038D01*
X183265038Y-127860109D01*
X183398822Y-127669046D01*
X183398826Y-127669035D01*
X183401527Y-127664360D01*
X183403179Y-127665313D01*
X183443784Y-127619192D01*
X183510976Y-127600036D01*
X183577859Y-127620248D01*
X183616879Y-127665280D01*
X183618473Y-127664360D01*
X183621176Y-127669042D01*
X183621178Y-127669046D01*
X183754962Y-127860109D01*
X183919891Y-128025038D01*
X184110954Y-128158822D01*
X184206827Y-128203528D01*
X184322339Y-128257392D01*
X184322341Y-128257392D01*
X184322346Y-128257395D01*
X184547643Y-128317763D01*
X184733528Y-128334026D01*
X184779999Y-128338092D01*
X184780000Y-128338092D01*
X184780001Y-128338092D01*
X184818726Y-128334703D01*
X185012357Y-128317763D01*
X185237654Y-128257395D01*
X185449046Y-128158822D01*
X185640109Y-128025038D01*
X185805038Y-127860109D01*
X185938822Y-127669046D01*
X185938826Y-127669035D01*
X185941527Y-127664360D01*
X185943179Y-127665313D01*
X185983784Y-127619192D01*
X186050976Y-127600036D01*
X186117859Y-127620248D01*
X186156879Y-127665280D01*
X186158473Y-127664360D01*
X186161176Y-127669042D01*
X186161178Y-127669046D01*
X186294962Y-127860109D01*
X186459891Y-128025038D01*
X186650954Y-128158822D01*
X186746827Y-128203528D01*
X186862339Y-128257392D01*
X186862341Y-128257392D01*
X186862346Y-128257395D01*
X187087643Y-128317763D01*
X187273528Y-128334026D01*
X187319999Y-128338092D01*
X187320000Y-128338092D01*
X187320001Y-128338092D01*
X187358726Y-128334703D01*
X187552357Y-128317763D01*
X187777654Y-128257395D01*
X187989046Y-128158822D01*
X188180109Y-128025038D01*
X188345038Y-127860109D01*
X188478822Y-127669046D01*
X188478826Y-127669035D01*
X188481527Y-127664360D01*
X188483179Y-127665313D01*
X188523784Y-127619192D01*
X188590976Y-127600036D01*
X188657859Y-127620248D01*
X188696879Y-127665280D01*
X188698473Y-127664360D01*
X188701176Y-127669042D01*
X188701178Y-127669046D01*
X188834962Y-127860109D01*
X188999891Y-128025038D01*
X189190954Y-128158822D01*
X189286827Y-128203528D01*
X189402339Y-128257392D01*
X189402341Y-128257392D01*
X189402346Y-128257395D01*
X189627643Y-128317763D01*
X189813528Y-128334026D01*
X189859999Y-128338092D01*
X189860000Y-128338092D01*
X189860001Y-128338092D01*
X189898726Y-128334703D01*
X190092357Y-128317763D01*
X190317654Y-128257395D01*
X190529046Y-128158822D01*
X190720109Y-128025038D01*
X190885038Y-127860109D01*
X191018822Y-127669046D01*
X191117395Y-127457654D01*
X191177763Y-127232357D01*
X191198092Y-127000000D01*
X191177763Y-126767643D01*
X191125716Y-126573402D01*
X191117397Y-126542353D01*
X191117392Y-126542339D01*
X191065943Y-126432007D01*
X191018822Y-126330954D01*
X190885038Y-126139891D01*
X190720109Y-125974962D01*
X190529046Y-125841178D01*
X190529042Y-125841176D01*
X190317660Y-125742607D01*
X190317646Y-125742602D01*
X190092362Y-125682238D01*
X190092352Y-125682236D01*
X189860001Y-125661908D01*
X189859999Y-125661908D01*
X189627647Y-125682236D01*
X189627637Y-125682238D01*
X189402353Y-125742602D01*
X189402339Y-125742607D01*
X189190957Y-125841176D01*
X189190955Y-125841177D01*
X189190954Y-125841178D01*
X188999891Y-125974962D01*
X188999889Y-125974963D01*
X188999886Y-125974966D01*
X188834966Y-126139886D01*
X188834963Y-126139889D01*
X188834962Y-126139891D01*
X188756006Y-126252652D01*
X188701177Y-126330955D01*
X188698473Y-126335640D01*
X188696824Y-126334688D01*
X188656199Y-126380818D01*
X188589003Y-126399963D01*
X188522124Y-126379740D01*
X188483115Y-126334722D01*
X188481527Y-126335640D01*
X188478822Y-126330955D01*
X188478822Y-126330954D01*
X188345038Y-126139891D01*
X188180109Y-125974962D01*
X187989046Y-125841178D01*
X187989042Y-125841176D01*
X187777660Y-125742607D01*
X187777646Y-125742602D01*
X187552362Y-125682238D01*
X187552352Y-125682236D01*
X187320001Y-125661908D01*
X187319999Y-125661908D01*
X187087647Y-125682236D01*
X187087637Y-125682238D01*
X186970532Y-125713616D01*
X186900682Y-125711953D01*
X186850758Y-125681522D01*
X182607590Y-121438355D01*
X182607588Y-121438352D01*
X182488717Y-121319481D01*
X182488716Y-121319480D01*
X182401904Y-121269360D01*
X182401904Y-121269359D01*
X182401900Y-121269358D01*
X182351785Y-121240423D01*
X182199057Y-121199499D01*
X182040943Y-121199499D01*
X182033347Y-121199499D01*
X182033331Y-121199500D01*
X138545984Y-121199500D01*
X138545968Y-121199499D01*
X138538372Y-121199499D01*
X138380257Y-121199499D01*
X138303893Y-121219961D01*
X138227528Y-121240423D01*
X138227523Y-121240426D01*
X138090604Y-121319475D01*
X138090596Y-121319481D01*
X120519480Y-138890597D01*
X120514051Y-138900001D01*
X120500461Y-138923541D01*
X120440423Y-139027529D01*
X120399499Y-139180257D01*
X120399499Y-139180259D01*
X120399499Y-139348360D01*
X120399500Y-139348373D01*
X120399500Y-144210908D01*
X120379815Y-144277947D01*
X120327914Y-144323286D01*
X120322173Y-144325963D01*
X120322169Y-144325965D01*
X120128597Y-144461505D01*
X119961508Y-144628594D01*
X119831269Y-144814595D01*
X119776692Y-144858219D01*
X119707193Y-144865412D01*
X119644839Y-144833890D01*
X119628119Y-144814594D01*
X119498113Y-144628926D01*
X119498108Y-144628920D01*
X119331082Y-144461894D01*
X119137578Y-144326399D01*
X118923492Y-144226570D01*
X118923486Y-144226567D01*
X118710000Y-144169364D01*
X118710000Y-145066988D01*
X118652993Y-145034075D01*
X118525826Y-145000000D01*
X118394174Y-145000000D01*
X118267007Y-145034075D01*
X118210000Y-145066988D01*
X118210000Y-144169364D01*
X118209999Y-144169364D01*
X117996513Y-144226567D01*
X117996507Y-144226570D01*
X117782422Y-144326399D01*
X117782420Y-144326400D01*
X117588926Y-144461886D01*
X117466865Y-144583947D01*
X117405542Y-144617431D01*
X117335850Y-144612447D01*
X117279917Y-144570575D01*
X117263002Y-144539598D01*
X117257563Y-144525016D01*
X117213796Y-144407669D01*
X117213795Y-144407668D01*
X117213793Y-144407664D01*
X117127547Y-144292455D01*
X117127544Y-144292452D01*
X117012335Y-144206206D01*
X117012328Y-144206202D01*
X116877482Y-144155908D01*
X116877483Y-144155908D01*
X116817883Y-144149501D01*
X116817881Y-144149500D01*
X116817873Y-144149500D01*
X116817864Y-144149500D01*
X115022129Y-144149500D01*
X115022123Y-144149501D01*
X114962516Y-144155908D01*
X114827671Y-144206202D01*
X114827664Y-144206206D01*
X114712455Y-144292452D01*
X114712452Y-144292455D01*
X114626206Y-144407664D01*
X114626202Y-144407671D01*
X114575908Y-144542517D01*
X114569501Y-144602116D01*
X114569500Y-144602135D01*
X114569500Y-145608403D01*
X114549815Y-145675442D01*
X114497011Y-145721197D01*
X114427853Y-145731141D01*
X114364297Y-145702116D01*
X114357819Y-145696084D01*
X113588075Y-144926340D01*
X113554590Y-144865017D01*
X113558050Y-144799655D01*
X113559812Y-144794336D01*
X113559814Y-144794334D01*
X113614999Y-144627797D01*
X113625500Y-144525009D01*
X113625499Y-143812597D01*
X113645183Y-143745559D01*
X113661818Y-143724917D01*
X113804038Y-143582697D01*
X113990264Y-143396472D01*
X114069321Y-143259540D01*
X114110245Y-143106813D01*
X114110245Y-142948698D01*
X114110245Y-142941103D01*
X114110244Y-142941085D01*
X114110244Y-131518803D01*
X114110245Y-131518790D01*
X114110245Y-131350689D01*
X114110245Y-131350687D01*
X114069321Y-131197959D01*
X114016493Y-131106459D01*
X113990264Y-131061028D01*
X113878460Y-130949224D01*
X113878459Y-130949223D01*
X113874129Y-130944893D01*
X113874118Y-130944883D01*
X109656836Y-126727601D01*
X109623351Y-126666278D01*
X109621046Y-126628481D01*
X109640365Y-126420000D01*
X109620948Y-126210458D01*
X109563359Y-126008053D01*
X109469558Y-125819675D01*
X109342740Y-125651741D01*
X109313406Y-125625000D01*
X109187223Y-125509969D01*
X109187221Y-125509967D01*
X109008307Y-125399188D01*
X109008301Y-125399185D01*
X108853648Y-125339273D01*
X108812076Y-125323168D01*
X108605220Y-125284500D01*
X108394780Y-125284500D01*
X108187924Y-125323168D01*
X108187921Y-125323168D01*
X108187921Y-125323169D01*
X107991698Y-125399185D01*
X107991692Y-125399188D01*
X107812778Y-125509967D01*
X107812776Y-125509969D01*
X107657261Y-125651739D01*
X107530442Y-125819674D01*
X107436642Y-126008049D01*
X107379051Y-126210462D01*
X107359635Y-126419999D01*
X107359635Y-126420000D01*
X107379051Y-126629537D01*
X107379051Y-126629539D01*
X107379052Y-126629542D01*
X107422829Y-126783401D01*
X107436642Y-126831950D01*
X107482216Y-126923475D01*
X107530442Y-127020325D01*
X107642370Y-127168542D01*
X107657261Y-127188260D01*
X107812776Y-127330030D01*
X107812778Y-127330032D01*
X107991692Y-127440811D01*
X107991698Y-127440814D01*
X108033268Y-127456918D01*
X108187924Y-127516832D01*
X108394780Y-127555500D01*
X108394782Y-127555500D01*
X108605217Y-127555500D01*
X108605220Y-127555500D01*
X108693504Y-127538996D01*
X108763017Y-127546027D01*
X108803969Y-127573204D01*
X108876211Y-127645446D01*
X108909696Y-127706769D01*
X108904712Y-127776461D01*
X108862840Y-127832394D01*
X108797376Y-127856811D01*
X108765745Y-127855016D01*
X108605171Y-127825000D01*
X108394829Y-127825000D01*
X108188064Y-127863651D01*
X108188063Y-127863651D01*
X107991923Y-127939635D01*
X107893887Y-128000335D01*
X108472553Y-128579000D01*
X108449840Y-128579000D01*
X108352939Y-128604964D01*
X108266060Y-128655124D01*
X108195124Y-128726060D01*
X108144964Y-128812939D01*
X108119000Y-128909840D01*
X108119000Y-128932553D01*
X107537546Y-128351099D01*
X107537545Y-128351099D01*
X107530870Y-128359939D01*
X107437111Y-128548230D01*
X107379545Y-128750555D01*
X107360138Y-128959999D01*
X107360138Y-128960000D01*
X107379545Y-129169444D01*
X107437111Y-129371769D01*
X107530871Y-129560062D01*
X107537545Y-129568899D01*
X108119000Y-128987446D01*
X108119000Y-129010160D01*
X108144964Y-129107061D01*
X108195124Y-129193940D01*
X108266060Y-129264876D01*
X108352939Y-129315036D01*
X108449840Y-129341000D01*
X108472553Y-129341000D01*
X107893887Y-129919663D01*
X107991918Y-129980362D01*
X107991920Y-129980363D01*
X108188063Y-130056348D01*
X108394829Y-130095000D01*
X108605171Y-130095000D01*
X108811935Y-130056348D01*
X108811936Y-130056348D01*
X109008079Y-129980363D01*
X109008080Y-129980362D01*
X109106110Y-129919664D01*
X109106111Y-129919663D01*
X108527448Y-129341000D01*
X108550160Y-129341000D01*
X108647061Y-129315036D01*
X108733940Y-129264876D01*
X108804876Y-129193940D01*
X108855036Y-129107061D01*
X108881000Y-129010160D01*
X108881000Y-128987447D01*
X109462452Y-129568899D01*
X109462453Y-129568899D01*
X109469128Y-129560061D01*
X109562888Y-129371769D01*
X109620454Y-129169444D01*
X109639862Y-128960000D01*
X109639862Y-128959999D01*
X109620454Y-128750552D01*
X109607609Y-128705407D01*
X109608195Y-128635540D01*
X109646462Y-128577081D01*
X109710259Y-128548590D01*
X109779332Y-128559114D01*
X109814556Y-128583791D01*
X112872925Y-131642160D01*
X112906410Y-131703483D01*
X112909244Y-131729841D01*
X112909244Y-134779715D01*
X112889559Y-134846754D01*
X112836755Y-134892509D01*
X112767597Y-134902453D01*
X112704041Y-134873428D01*
X112677857Y-134841714D01*
X112659974Y-134810740D01*
X112659971Y-134810736D01*
X112659970Y-134810734D01*
X112548166Y-134698930D01*
X112548165Y-134698929D01*
X112543835Y-134694599D01*
X112543824Y-134694589D01*
X109656836Y-131807601D01*
X109623351Y-131746278D01*
X109621046Y-131708481D01*
X109640365Y-131500000D01*
X109620948Y-131290458D01*
X109563359Y-131088053D01*
X109469558Y-130899675D01*
X109342740Y-130731741D01*
X109187223Y-130589969D01*
X109187221Y-130589967D01*
X109008307Y-130479188D01*
X109008301Y-130479185D01*
X108853648Y-130419273D01*
X108812076Y-130403168D01*
X108605220Y-130364500D01*
X108394780Y-130364500D01*
X108187924Y-130403168D01*
X108187921Y-130403168D01*
X108187921Y-130403169D01*
X107991698Y-130479185D01*
X107991692Y-130479188D01*
X107812778Y-130589967D01*
X107812776Y-130589969D01*
X107657261Y-130731739D01*
X107530442Y-130899674D01*
X107436642Y-131088049D01*
X107379051Y-131290462D01*
X107359635Y-131499999D01*
X107359635Y-131500000D01*
X107379051Y-131709537D01*
X107379051Y-131709539D01*
X107379052Y-131709542D01*
X107394451Y-131763663D01*
X107436642Y-131911950D01*
X107518526Y-132076395D01*
X107530442Y-132100325D01*
X107638561Y-132243498D01*
X107657261Y-132268260D01*
X107812776Y-132410030D01*
X107812778Y-132410032D01*
X107991692Y-132520811D01*
X107991698Y-132520814D01*
X107997346Y-132523002D01*
X108187924Y-132596832D01*
X108394780Y-132635500D01*
X108394782Y-132635500D01*
X108605217Y-132635500D01*
X108605220Y-132635500D01*
X108693504Y-132618996D01*
X108763017Y-132626027D01*
X108803969Y-132653204D01*
X111542631Y-135391866D01*
X111576116Y-135453189D01*
X111578950Y-135479547D01*
X111578950Y-137969929D01*
X111559265Y-138036968D01*
X111506461Y-138082723D01*
X111437303Y-138092667D01*
X111411618Y-138086111D01*
X111277285Y-138036009D01*
X111277283Y-138036008D01*
X111217683Y-138029601D01*
X111217681Y-138029600D01*
X111217673Y-138029600D01*
X111217664Y-138029600D01*
X110423429Y-138029600D01*
X110423423Y-138029601D01*
X110363816Y-138036008D01*
X110228971Y-138086302D01*
X110228964Y-138086306D01*
X110113755Y-138172552D01*
X110113752Y-138172555D01*
X110027506Y-138287764D01*
X110027501Y-138287773D01*
X110015918Y-138318832D01*
X109974048Y-138374766D01*
X109908584Y-138399184D01*
X109899736Y-138399500D01*
X108524158Y-138399500D01*
X108457119Y-138379815D01*
X108411364Y-138327011D01*
X108406230Y-138313826D01*
X108329503Y-138077685D01*
X108329440Y-138077552D01*
X108273695Y-137959087D01*
X108195537Y-137792993D01*
X108098353Y-137639855D01*
X108026948Y-137527338D01*
X108026945Y-137527334D01*
X107826393Y-137284909D01*
X107826391Y-137284907D01*
X107790705Y-137251395D01*
X107597030Y-137069522D01*
X107597027Y-137069520D01*
X107597021Y-137069515D01*
X107342495Y-136884591D01*
X107342488Y-136884586D01*
X107342484Y-136884584D01*
X107066766Y-136733006D01*
X107066763Y-136733004D01*
X107066758Y-136733002D01*
X107066757Y-136733001D01*
X106774228Y-136617181D01*
X106774225Y-136617180D01*
X106469476Y-136538934D01*
X106469463Y-136538932D01*
X106157329Y-136499500D01*
X106157318Y-136499500D01*
X105842682Y-136499500D01*
X105842670Y-136499500D01*
X105530536Y-136538932D01*
X105530523Y-136538934D01*
X105225774Y-136617180D01*
X105225771Y-136617181D01*
X104933242Y-136733001D01*
X104933241Y-136733002D01*
X104657516Y-136884584D01*
X104657504Y-136884591D01*
X104402978Y-137069515D01*
X104402968Y-137069523D01*
X104173608Y-137284907D01*
X104173606Y-137284909D01*
X103973054Y-137527334D01*
X103973051Y-137527338D01*
X103804464Y-137792990D01*
X103804461Y-137792996D01*
X103670499Y-138077678D01*
X103670497Y-138077683D01*
X103573270Y-138376916D01*
X103514311Y-138685988D01*
X103514310Y-138685995D01*
X103494556Y-138999994D01*
X100500500Y-138999994D01*
X100500500Y-124499999D01*
X117994696Y-124499999D01*
X117994696Y-124500000D01*
X118013898Y-124866405D01*
X118063805Y-125181505D01*
X118071295Y-125228794D01*
X118146635Y-125509967D01*
X118166260Y-125583206D01*
X118297746Y-125925739D01*
X118464320Y-126252656D01*
X118664147Y-126560364D01*
X118763993Y-126683663D01*
X118895051Y-126845506D01*
X119154494Y-127104949D01*
X119271780Y-127199925D01*
X119439635Y-127335852D01*
X119718318Y-127516830D01*
X119747348Y-127535682D01*
X120074264Y-127702255D01*
X120312227Y-127793600D01*
X120410840Y-127831454D01*
X120416801Y-127833742D01*
X120771206Y-127928705D01*
X121133596Y-127986102D01*
X121479734Y-128004241D01*
X121499999Y-128005304D01*
X121500000Y-128005304D01*
X121500001Y-128005304D01*
X121519203Y-128004297D01*
X121866404Y-127986102D01*
X122228794Y-127928705D01*
X122583199Y-127833742D01*
X122925736Y-127702255D01*
X123252652Y-127535682D01*
X123560366Y-127335851D01*
X123845506Y-127104949D01*
X124104949Y-126845506D01*
X124335851Y-126560366D01*
X124535682Y-126252652D01*
X124702255Y-125925736D01*
X124833742Y-125583199D01*
X124928705Y-125228794D01*
X124986102Y-124866404D01*
X125005304Y-124500000D01*
X124986102Y-124133596D01*
X124928705Y-123771206D01*
X124833742Y-123416801D01*
X124702255Y-123074264D01*
X124535682Y-122747348D01*
X124447904Y-122612181D01*
X124335852Y-122439635D01*
X124104952Y-122154498D01*
X124104949Y-122154494D01*
X123845506Y-121895051D01*
X123560366Y-121664149D01*
X123560364Y-121664147D01*
X123252656Y-121464320D01*
X122925739Y-121297746D01*
X122583206Y-121166260D01*
X122583199Y-121166258D01*
X122228794Y-121071295D01*
X122228790Y-121071294D01*
X122228789Y-121071294D01*
X121866405Y-121013898D01*
X121500001Y-120994696D01*
X121499999Y-120994696D01*
X121133594Y-121013898D01*
X120771211Y-121071294D01*
X120771209Y-121071294D01*
X120416793Y-121166260D01*
X120074260Y-121297746D01*
X119747343Y-121464320D01*
X119439635Y-121664147D01*
X119154498Y-121895047D01*
X119154490Y-121895054D01*
X118895054Y-122154490D01*
X118895047Y-122154498D01*
X118664147Y-122439635D01*
X118464320Y-122747343D01*
X118297746Y-123074260D01*
X118166260Y-123416793D01*
X118071294Y-123771209D01*
X118071294Y-123771211D01*
X118013898Y-124133594D01*
X117994696Y-124499999D01*
X100500500Y-124499999D01*
X100500500Y-120624500D01*
X100520185Y-120557461D01*
X100572989Y-120511706D01*
X100624500Y-120500500D01*
X194375500Y-120500500D01*
X194442539Y-120520185D01*
G37*
%TD.AperFunction*%
%TD*%
M02*
