%TF.GenerationSoftware,KiCad,Pcbnew,9.0.2+dfsg-1*%
%TF.CreationDate,2025-08-18T22:10:58-04:00*%
%TF.ProjectId,Complex_Controller_V1,436f6d70-6c65-4785-9f43-6f6e74726f6c,rev?*%
%TF.SameCoordinates,Original*%
%TF.FileFunction,Drillmap*%
%TF.FilePolarity,Positive*%
%FSLAX45Y45*%
G04 Gerber Fmt 4.5, Leading zero omitted, Abs format (unit mm)*
G04 Created by KiCad (PCBNEW 9.0.2+dfsg-1) date 2025-08-18 22:10:58*
%MOMM*%
%LPD*%
G01*
G04 APERTURE LIST*
%ADD10C,0.050000*%
%ADD11C,0.200000*%
%ADD12C,0.300000*%
G04 APERTURE END LIST*
D10*
X10832500Y-12400000D02*
X18832500Y-12400000D01*
X10832500Y-8400000D02*
X10832500Y-12400000D01*
X18832500Y-12400000D02*
X18832500Y-8400000D01*
X18832500Y-8400000D02*
X10832500Y-8400000D01*
D11*
D12*
X12182500Y-8700000D02*
X12482500Y-9000000D01*
X12482500Y-8700000D02*
X12182500Y-9000000D01*
X12682500Y-10750000D02*
X12982500Y-11050000D01*
X12982500Y-10750000D02*
X12682500Y-11050000D01*
X16682500Y-10750000D02*
X16982500Y-11050000D01*
X16982500Y-10750000D02*
X16682500Y-11050000D01*
X17182500Y-8700000D02*
X17482500Y-9000000D01*
X17482500Y-8700000D02*
X17182500Y-9000000D01*
D11*
X11090777Y-12713984D02*
X11090777Y-12513984D01*
X11090777Y-12513984D02*
X11138396Y-12513984D01*
X11138396Y-12513984D02*
X11166967Y-12523508D01*
X11166967Y-12523508D02*
X11186015Y-12542555D01*
X11186015Y-12542555D02*
X11195539Y-12561603D01*
X11195539Y-12561603D02*
X11205062Y-12599698D01*
X11205062Y-12599698D02*
X11205062Y-12628269D01*
X11205062Y-12628269D02*
X11195539Y-12666365D01*
X11195539Y-12666365D02*
X11186015Y-12685412D01*
X11186015Y-12685412D02*
X11166967Y-12704460D01*
X11166967Y-12704460D02*
X11138396Y-12713984D01*
X11138396Y-12713984D02*
X11090777Y-12713984D01*
X11290777Y-12713984D02*
X11290777Y-12580650D01*
X11290777Y-12618746D02*
X11300301Y-12599698D01*
X11300301Y-12599698D02*
X11309824Y-12590174D01*
X11309824Y-12590174D02*
X11328872Y-12580650D01*
X11328872Y-12580650D02*
X11347920Y-12580650D01*
X11414586Y-12713984D02*
X11414586Y-12580650D01*
X11414586Y-12513984D02*
X11405062Y-12523508D01*
X11405062Y-12523508D02*
X11414586Y-12533031D01*
X11414586Y-12533031D02*
X11424110Y-12523508D01*
X11424110Y-12523508D02*
X11414586Y-12513984D01*
X11414586Y-12513984D02*
X11414586Y-12533031D01*
X11538396Y-12713984D02*
X11519348Y-12704460D01*
X11519348Y-12704460D02*
X11509824Y-12685412D01*
X11509824Y-12685412D02*
X11509824Y-12513984D01*
X11643158Y-12713984D02*
X11624110Y-12704460D01*
X11624110Y-12704460D02*
X11614586Y-12685412D01*
X11614586Y-12685412D02*
X11614586Y-12513984D01*
X11871729Y-12713984D02*
X11871729Y-12513984D01*
X11871729Y-12513984D02*
X11938396Y-12656841D01*
X11938396Y-12656841D02*
X12005062Y-12513984D01*
X12005062Y-12513984D02*
X12005062Y-12713984D01*
X12186015Y-12713984D02*
X12186015Y-12609222D01*
X12186015Y-12609222D02*
X12176491Y-12590174D01*
X12176491Y-12590174D02*
X12157443Y-12580650D01*
X12157443Y-12580650D02*
X12119348Y-12580650D01*
X12119348Y-12580650D02*
X12100301Y-12590174D01*
X12186015Y-12704460D02*
X12166967Y-12713984D01*
X12166967Y-12713984D02*
X12119348Y-12713984D01*
X12119348Y-12713984D02*
X12100301Y-12704460D01*
X12100301Y-12704460D02*
X12090777Y-12685412D01*
X12090777Y-12685412D02*
X12090777Y-12666365D01*
X12090777Y-12666365D02*
X12100301Y-12647317D01*
X12100301Y-12647317D02*
X12119348Y-12637793D01*
X12119348Y-12637793D02*
X12166967Y-12637793D01*
X12166967Y-12637793D02*
X12186015Y-12628269D01*
X12281253Y-12580650D02*
X12281253Y-12780650D01*
X12281253Y-12590174D02*
X12300301Y-12580650D01*
X12300301Y-12580650D02*
X12338396Y-12580650D01*
X12338396Y-12580650D02*
X12357443Y-12590174D01*
X12357443Y-12590174D02*
X12366967Y-12599698D01*
X12366967Y-12599698D02*
X12376491Y-12618746D01*
X12376491Y-12618746D02*
X12376491Y-12675888D01*
X12376491Y-12675888D02*
X12366967Y-12694936D01*
X12366967Y-12694936D02*
X12357443Y-12704460D01*
X12357443Y-12704460D02*
X12338396Y-12713984D01*
X12338396Y-12713984D02*
X12300301Y-12713984D01*
X12300301Y-12713984D02*
X12281253Y-12704460D01*
X12462205Y-12694936D02*
X12471729Y-12704460D01*
X12471729Y-12704460D02*
X12462205Y-12713984D01*
X12462205Y-12713984D02*
X12452682Y-12704460D01*
X12452682Y-12704460D02*
X12462205Y-12694936D01*
X12462205Y-12694936D02*
X12462205Y-12713984D01*
X12462205Y-12590174D02*
X12471729Y-12599698D01*
X12471729Y-12599698D02*
X12462205Y-12609222D01*
X12462205Y-12609222D02*
X12452682Y-12599698D01*
X12452682Y-12599698D02*
X12462205Y-12590174D01*
X12462205Y-12590174D02*
X12462205Y-12609222D01*
X10630000Y-12942500D02*
X10830000Y-13142500D01*
X10830000Y-12942500D02*
X10630000Y-13142500D01*
X11071729Y-12933984D02*
X11195539Y-12933984D01*
X11195539Y-12933984D02*
X11128872Y-13010174D01*
X11128872Y-13010174D02*
X11157444Y-13010174D01*
X11157444Y-13010174D02*
X11176491Y-13019698D01*
X11176491Y-13019698D02*
X11186015Y-13029222D01*
X11186015Y-13029222D02*
X11195539Y-13048269D01*
X11195539Y-13048269D02*
X11195539Y-13095888D01*
X11195539Y-13095888D02*
X11186015Y-13114936D01*
X11186015Y-13114936D02*
X11176491Y-13124460D01*
X11176491Y-13124460D02*
X11157444Y-13133984D01*
X11157444Y-13133984D02*
X11100301Y-13133984D01*
X11100301Y-13133984D02*
X11081253Y-13124460D01*
X11081253Y-13124460D02*
X11071729Y-13114936D01*
X11281253Y-13114936D02*
X11290777Y-13124460D01*
X11290777Y-13124460D02*
X11281253Y-13133984D01*
X11281253Y-13133984D02*
X11271729Y-13124460D01*
X11271729Y-13124460D02*
X11281253Y-13114936D01*
X11281253Y-13114936D02*
X11281253Y-13133984D01*
X11414586Y-12933984D02*
X11433634Y-12933984D01*
X11433634Y-12933984D02*
X11452682Y-12943508D01*
X11452682Y-12943508D02*
X11462205Y-12953031D01*
X11462205Y-12953031D02*
X11471729Y-12972079D01*
X11471729Y-12972079D02*
X11481253Y-13010174D01*
X11481253Y-13010174D02*
X11481253Y-13057793D01*
X11481253Y-13057793D02*
X11471729Y-13095888D01*
X11471729Y-13095888D02*
X11462205Y-13114936D01*
X11462205Y-13114936D02*
X11452682Y-13124460D01*
X11452682Y-13124460D02*
X11433634Y-13133984D01*
X11433634Y-13133984D02*
X11414586Y-13133984D01*
X11414586Y-13133984D02*
X11395539Y-13124460D01*
X11395539Y-13124460D02*
X11386015Y-13114936D01*
X11386015Y-13114936D02*
X11376491Y-13095888D01*
X11376491Y-13095888D02*
X11366967Y-13057793D01*
X11366967Y-13057793D02*
X11366967Y-13010174D01*
X11366967Y-13010174D02*
X11376491Y-12972079D01*
X11376491Y-12972079D02*
X11386015Y-12953031D01*
X11386015Y-12953031D02*
X11395539Y-12943508D01*
X11395539Y-12943508D02*
X11414586Y-12933984D01*
X11605062Y-12933984D02*
X11624110Y-12933984D01*
X11624110Y-12933984D02*
X11643158Y-12943508D01*
X11643158Y-12943508D02*
X11652682Y-12953031D01*
X11652682Y-12953031D02*
X11662205Y-12972079D01*
X11662205Y-12972079D02*
X11671729Y-13010174D01*
X11671729Y-13010174D02*
X11671729Y-13057793D01*
X11671729Y-13057793D02*
X11662205Y-13095888D01*
X11662205Y-13095888D02*
X11652682Y-13114936D01*
X11652682Y-13114936D02*
X11643158Y-13124460D01*
X11643158Y-13124460D02*
X11624110Y-13133984D01*
X11624110Y-13133984D02*
X11605062Y-13133984D01*
X11605062Y-13133984D02*
X11586015Y-13124460D01*
X11586015Y-13124460D02*
X11576491Y-13114936D01*
X11576491Y-13114936D02*
X11566967Y-13095888D01*
X11566967Y-13095888D02*
X11557443Y-13057793D01*
X11557443Y-13057793D02*
X11557443Y-13010174D01*
X11557443Y-13010174D02*
X11566967Y-12972079D01*
X11566967Y-12972079D02*
X11576491Y-12953031D01*
X11576491Y-12953031D02*
X11586015Y-12943508D01*
X11586015Y-12943508D02*
X11605062Y-12933984D01*
X11795539Y-12933984D02*
X11814586Y-12933984D01*
X11814586Y-12933984D02*
X11833634Y-12943508D01*
X11833634Y-12943508D02*
X11843158Y-12953031D01*
X11843158Y-12953031D02*
X11852682Y-12972079D01*
X11852682Y-12972079D02*
X11862205Y-13010174D01*
X11862205Y-13010174D02*
X11862205Y-13057793D01*
X11862205Y-13057793D02*
X11852682Y-13095888D01*
X11852682Y-13095888D02*
X11843158Y-13114936D01*
X11843158Y-13114936D02*
X11833634Y-13124460D01*
X11833634Y-13124460D02*
X11814586Y-13133984D01*
X11814586Y-13133984D02*
X11795539Y-13133984D01*
X11795539Y-13133984D02*
X11776491Y-13124460D01*
X11776491Y-13124460D02*
X11766967Y-13114936D01*
X11766967Y-13114936D02*
X11757443Y-13095888D01*
X11757443Y-13095888D02*
X11747920Y-13057793D01*
X11747920Y-13057793D02*
X11747920Y-13010174D01*
X11747920Y-13010174D02*
X11757443Y-12972079D01*
X11757443Y-12972079D02*
X11766967Y-12953031D01*
X11766967Y-12953031D02*
X11776491Y-12943508D01*
X11776491Y-12943508D02*
X11795539Y-12933984D01*
X11947920Y-13133984D02*
X11947920Y-13000650D01*
X11947920Y-13019698D02*
X11957443Y-13010174D01*
X11957443Y-13010174D02*
X11976491Y-13000650D01*
X11976491Y-13000650D02*
X12005063Y-13000650D01*
X12005063Y-13000650D02*
X12024110Y-13010174D01*
X12024110Y-13010174D02*
X12033634Y-13029222D01*
X12033634Y-13029222D02*
X12033634Y-13133984D01*
X12033634Y-13029222D02*
X12043158Y-13010174D01*
X12043158Y-13010174D02*
X12062205Y-13000650D01*
X12062205Y-13000650D02*
X12090777Y-13000650D01*
X12090777Y-13000650D02*
X12109824Y-13010174D01*
X12109824Y-13010174D02*
X12119348Y-13029222D01*
X12119348Y-13029222D02*
X12119348Y-13133984D01*
X12214586Y-13133984D02*
X12214586Y-13000650D01*
X12214586Y-13019698D02*
X12224110Y-13010174D01*
X12224110Y-13010174D02*
X12243158Y-13000650D01*
X12243158Y-13000650D02*
X12271729Y-13000650D01*
X12271729Y-13000650D02*
X12290777Y-13010174D01*
X12290777Y-13010174D02*
X12300301Y-13029222D01*
X12300301Y-13029222D02*
X12300301Y-13133984D01*
X12300301Y-13029222D02*
X12309824Y-13010174D01*
X12309824Y-13010174D02*
X12328872Y-13000650D01*
X12328872Y-13000650D02*
X12357443Y-13000650D01*
X12357443Y-13000650D02*
X12376491Y-13010174D01*
X12376491Y-13010174D02*
X12386015Y-13029222D01*
X12386015Y-13029222D02*
X12386015Y-13133984D01*
X12776491Y-12924460D02*
X12605063Y-13181603D01*
X13033634Y-12933984D02*
X13052682Y-12933984D01*
X13052682Y-12933984D02*
X13071729Y-12943508D01*
X13071729Y-12943508D02*
X13081253Y-12953031D01*
X13081253Y-12953031D02*
X13090777Y-12972079D01*
X13090777Y-12972079D02*
X13100301Y-13010174D01*
X13100301Y-13010174D02*
X13100301Y-13057793D01*
X13100301Y-13057793D02*
X13090777Y-13095888D01*
X13090777Y-13095888D02*
X13081253Y-13114936D01*
X13081253Y-13114936D02*
X13071729Y-13124460D01*
X13071729Y-13124460D02*
X13052682Y-13133984D01*
X13052682Y-13133984D02*
X13033634Y-13133984D01*
X13033634Y-13133984D02*
X13014586Y-13124460D01*
X13014586Y-13124460D02*
X13005063Y-13114936D01*
X13005063Y-13114936D02*
X12995539Y-13095888D01*
X12995539Y-13095888D02*
X12986015Y-13057793D01*
X12986015Y-13057793D02*
X12986015Y-13010174D01*
X12986015Y-13010174D02*
X12995539Y-12972079D01*
X12995539Y-12972079D02*
X13005063Y-12953031D01*
X13005063Y-12953031D02*
X13014586Y-12943508D01*
X13014586Y-12943508D02*
X13033634Y-12933984D01*
X13186015Y-13114936D02*
X13195539Y-13124460D01*
X13195539Y-13124460D02*
X13186015Y-13133984D01*
X13186015Y-13133984D02*
X13176491Y-13124460D01*
X13176491Y-13124460D02*
X13186015Y-13114936D01*
X13186015Y-13114936D02*
X13186015Y-13133984D01*
X13386015Y-13133984D02*
X13271729Y-13133984D01*
X13328872Y-13133984D02*
X13328872Y-12933984D01*
X13328872Y-12933984D02*
X13309825Y-12962555D01*
X13309825Y-12962555D02*
X13290777Y-12981603D01*
X13290777Y-12981603D02*
X13271729Y-12991127D01*
X13576491Y-13133984D02*
X13462206Y-13133984D01*
X13519348Y-13133984D02*
X13519348Y-12933984D01*
X13519348Y-12933984D02*
X13500301Y-12962555D01*
X13500301Y-12962555D02*
X13481253Y-12981603D01*
X13481253Y-12981603D02*
X13462206Y-12991127D01*
X13690777Y-13019698D02*
X13671729Y-13010174D01*
X13671729Y-13010174D02*
X13662206Y-13000650D01*
X13662206Y-13000650D02*
X13652682Y-12981603D01*
X13652682Y-12981603D02*
X13652682Y-12972079D01*
X13652682Y-12972079D02*
X13662206Y-12953031D01*
X13662206Y-12953031D02*
X13671729Y-12943508D01*
X13671729Y-12943508D02*
X13690777Y-12933984D01*
X13690777Y-12933984D02*
X13728872Y-12933984D01*
X13728872Y-12933984D02*
X13747920Y-12943508D01*
X13747920Y-12943508D02*
X13757444Y-12953031D01*
X13757444Y-12953031D02*
X13766967Y-12972079D01*
X13766967Y-12972079D02*
X13766967Y-12981603D01*
X13766967Y-12981603D02*
X13757444Y-13000650D01*
X13757444Y-13000650D02*
X13747920Y-13010174D01*
X13747920Y-13010174D02*
X13728872Y-13019698D01*
X13728872Y-13019698D02*
X13690777Y-13019698D01*
X13690777Y-13019698D02*
X13671729Y-13029222D01*
X13671729Y-13029222D02*
X13662206Y-13038746D01*
X13662206Y-13038746D02*
X13652682Y-13057793D01*
X13652682Y-13057793D02*
X13652682Y-13095888D01*
X13652682Y-13095888D02*
X13662206Y-13114936D01*
X13662206Y-13114936D02*
X13671729Y-13124460D01*
X13671729Y-13124460D02*
X13690777Y-13133984D01*
X13690777Y-13133984D02*
X13728872Y-13133984D01*
X13728872Y-13133984D02*
X13747920Y-13124460D01*
X13747920Y-13124460D02*
X13757444Y-13114936D01*
X13757444Y-13114936D02*
X13766967Y-13095888D01*
X13766967Y-13095888D02*
X13766967Y-13057793D01*
X13766967Y-13057793D02*
X13757444Y-13038746D01*
X13757444Y-13038746D02*
X13747920Y-13029222D01*
X13747920Y-13029222D02*
X13728872Y-13019698D01*
X13957444Y-13133984D02*
X13843158Y-13133984D01*
X13900301Y-13133984D02*
X13900301Y-12933984D01*
X13900301Y-12933984D02*
X13881253Y-12962555D01*
X13881253Y-12962555D02*
X13862206Y-12981603D01*
X13862206Y-12981603D02*
X13843158Y-12991127D01*
X14033634Y-12933984D02*
X14033634Y-12972079D01*
X14109825Y-12933984D02*
X14109825Y-12972079D01*
X14405063Y-13210174D02*
X14395539Y-13200650D01*
X14395539Y-13200650D02*
X14376491Y-13172079D01*
X14376491Y-13172079D02*
X14366968Y-13153031D01*
X14366968Y-13153031D02*
X14357444Y-13124460D01*
X14357444Y-13124460D02*
X14347920Y-13076841D01*
X14347920Y-13076841D02*
X14347920Y-13038746D01*
X14347920Y-13038746D02*
X14357444Y-12991127D01*
X14357444Y-12991127D02*
X14366968Y-12962555D01*
X14366968Y-12962555D02*
X14376491Y-12943508D01*
X14376491Y-12943508D02*
X14395539Y-12914936D01*
X14395539Y-12914936D02*
X14405063Y-12905412D01*
X14566968Y-13000650D02*
X14566968Y-13133984D01*
X14519348Y-12924460D02*
X14471729Y-13067317D01*
X14471729Y-13067317D02*
X14595539Y-13067317D01*
X14824110Y-13133984D02*
X14824110Y-12933984D01*
X14909825Y-13133984D02*
X14909825Y-13029222D01*
X14909825Y-13029222D02*
X14900301Y-13010174D01*
X14900301Y-13010174D02*
X14881253Y-13000650D01*
X14881253Y-13000650D02*
X14852682Y-13000650D01*
X14852682Y-13000650D02*
X14833634Y-13010174D01*
X14833634Y-13010174D02*
X14824110Y-13019698D01*
X15033634Y-13133984D02*
X15014587Y-13124460D01*
X15014587Y-13124460D02*
X15005063Y-13114936D01*
X15005063Y-13114936D02*
X14995539Y-13095888D01*
X14995539Y-13095888D02*
X14995539Y-13038746D01*
X14995539Y-13038746D02*
X15005063Y-13019698D01*
X15005063Y-13019698D02*
X15014587Y-13010174D01*
X15014587Y-13010174D02*
X15033634Y-13000650D01*
X15033634Y-13000650D02*
X15062206Y-13000650D01*
X15062206Y-13000650D02*
X15081253Y-13010174D01*
X15081253Y-13010174D02*
X15090777Y-13019698D01*
X15090777Y-13019698D02*
X15100301Y-13038746D01*
X15100301Y-13038746D02*
X15100301Y-13095888D01*
X15100301Y-13095888D02*
X15090777Y-13114936D01*
X15090777Y-13114936D02*
X15081253Y-13124460D01*
X15081253Y-13124460D02*
X15062206Y-13133984D01*
X15062206Y-13133984D02*
X15033634Y-13133984D01*
X15214587Y-13133984D02*
X15195539Y-13124460D01*
X15195539Y-13124460D02*
X15186015Y-13105412D01*
X15186015Y-13105412D02*
X15186015Y-12933984D01*
X15366968Y-13124460D02*
X15347920Y-13133984D01*
X15347920Y-13133984D02*
X15309825Y-13133984D01*
X15309825Y-13133984D02*
X15290777Y-13124460D01*
X15290777Y-13124460D02*
X15281253Y-13105412D01*
X15281253Y-13105412D02*
X15281253Y-13029222D01*
X15281253Y-13029222D02*
X15290777Y-13010174D01*
X15290777Y-13010174D02*
X15309825Y-13000650D01*
X15309825Y-13000650D02*
X15347920Y-13000650D01*
X15347920Y-13000650D02*
X15366968Y-13010174D01*
X15366968Y-13010174D02*
X15376491Y-13029222D01*
X15376491Y-13029222D02*
X15376491Y-13048269D01*
X15376491Y-13048269D02*
X15281253Y-13067317D01*
X15452682Y-13124460D02*
X15471730Y-13133984D01*
X15471730Y-13133984D02*
X15509825Y-13133984D01*
X15509825Y-13133984D02*
X15528872Y-13124460D01*
X15528872Y-13124460D02*
X15538396Y-13105412D01*
X15538396Y-13105412D02*
X15538396Y-13095888D01*
X15538396Y-13095888D02*
X15528872Y-13076841D01*
X15528872Y-13076841D02*
X15509825Y-13067317D01*
X15509825Y-13067317D02*
X15481253Y-13067317D01*
X15481253Y-13067317D02*
X15462206Y-13057793D01*
X15462206Y-13057793D02*
X15452682Y-13038746D01*
X15452682Y-13038746D02*
X15452682Y-13029222D01*
X15452682Y-13029222D02*
X15462206Y-13010174D01*
X15462206Y-13010174D02*
X15481253Y-13000650D01*
X15481253Y-13000650D02*
X15509825Y-13000650D01*
X15509825Y-13000650D02*
X15528872Y-13010174D01*
X15605063Y-13210174D02*
X15614587Y-13200650D01*
X15614587Y-13200650D02*
X15633634Y-13172079D01*
X15633634Y-13172079D02*
X15643158Y-13153031D01*
X15643158Y-13153031D02*
X15652682Y-13124460D01*
X15652682Y-13124460D02*
X15662206Y-13076841D01*
X15662206Y-13076841D02*
X15662206Y-13038746D01*
X15662206Y-13038746D02*
X15652682Y-12991127D01*
X15652682Y-12991127D02*
X15643158Y-12962555D01*
X15643158Y-12962555D02*
X15633634Y-12943508D01*
X15633634Y-12943508D02*
X15614587Y-12914936D01*
X15614587Y-12914936D02*
X15605063Y-12905412D01*
X15966968Y-13210174D02*
X15957444Y-13200650D01*
X15957444Y-13200650D02*
X15938396Y-13172079D01*
X15938396Y-13172079D02*
X15928872Y-13153031D01*
X15928872Y-13153031D02*
X15919349Y-13124460D01*
X15919349Y-13124460D02*
X15909825Y-13076841D01*
X15909825Y-13076841D02*
X15909825Y-13038746D01*
X15909825Y-13038746D02*
X15919349Y-12991127D01*
X15919349Y-12991127D02*
X15928872Y-12962555D01*
X15928872Y-12962555D02*
X15938396Y-12943508D01*
X15938396Y-12943508D02*
X15957444Y-12914936D01*
X15957444Y-12914936D02*
X15966968Y-12905412D01*
X16043158Y-13000650D02*
X16043158Y-13133984D01*
X16043158Y-13019698D02*
X16052682Y-13010174D01*
X16052682Y-13010174D02*
X16071730Y-13000650D01*
X16071730Y-13000650D02*
X16100301Y-13000650D01*
X16100301Y-13000650D02*
X16119349Y-13010174D01*
X16119349Y-13010174D02*
X16128872Y-13029222D01*
X16128872Y-13029222D02*
X16128872Y-13133984D01*
X16252682Y-13133984D02*
X16233634Y-13124460D01*
X16233634Y-13124460D02*
X16224111Y-13114936D01*
X16224111Y-13114936D02*
X16214587Y-13095888D01*
X16214587Y-13095888D02*
X16214587Y-13038746D01*
X16214587Y-13038746D02*
X16224111Y-13019698D01*
X16224111Y-13019698D02*
X16233634Y-13010174D01*
X16233634Y-13010174D02*
X16252682Y-13000650D01*
X16252682Y-13000650D02*
X16281253Y-13000650D01*
X16281253Y-13000650D02*
X16300301Y-13010174D01*
X16300301Y-13010174D02*
X16309825Y-13019698D01*
X16309825Y-13019698D02*
X16319349Y-13038746D01*
X16319349Y-13038746D02*
X16319349Y-13095888D01*
X16319349Y-13095888D02*
X16309825Y-13114936D01*
X16309825Y-13114936D02*
X16300301Y-13124460D01*
X16300301Y-13124460D02*
X16281253Y-13133984D01*
X16281253Y-13133984D02*
X16252682Y-13133984D01*
X16376492Y-13000650D02*
X16452682Y-13000650D01*
X16405063Y-12933984D02*
X16405063Y-13105412D01*
X16405063Y-13105412D02*
X16414587Y-13124460D01*
X16414587Y-13124460D02*
X16433634Y-13133984D01*
X16433634Y-13133984D02*
X16452682Y-13133984D01*
X16671730Y-13000650D02*
X16671730Y-13200650D01*
X16671730Y-13010174D02*
X16690777Y-13000650D01*
X16690777Y-13000650D02*
X16728873Y-13000650D01*
X16728873Y-13000650D02*
X16747920Y-13010174D01*
X16747920Y-13010174D02*
X16757444Y-13019698D01*
X16757444Y-13019698D02*
X16766968Y-13038746D01*
X16766968Y-13038746D02*
X16766968Y-13095888D01*
X16766968Y-13095888D02*
X16757444Y-13114936D01*
X16757444Y-13114936D02*
X16747920Y-13124460D01*
X16747920Y-13124460D02*
X16728873Y-13133984D01*
X16728873Y-13133984D02*
X16690777Y-13133984D01*
X16690777Y-13133984D02*
X16671730Y-13124460D01*
X16881254Y-13133984D02*
X16862206Y-13124460D01*
X16862206Y-13124460D02*
X16852682Y-13105412D01*
X16852682Y-13105412D02*
X16852682Y-12933984D01*
X17043158Y-13133984D02*
X17043158Y-13029222D01*
X17043158Y-13029222D02*
X17033635Y-13010174D01*
X17033635Y-13010174D02*
X17014587Y-13000650D01*
X17014587Y-13000650D02*
X16976492Y-13000650D01*
X16976492Y-13000650D02*
X16957444Y-13010174D01*
X17043158Y-13124460D02*
X17024111Y-13133984D01*
X17024111Y-13133984D02*
X16976492Y-13133984D01*
X16976492Y-13133984D02*
X16957444Y-13124460D01*
X16957444Y-13124460D02*
X16947920Y-13105412D01*
X16947920Y-13105412D02*
X16947920Y-13086365D01*
X16947920Y-13086365D02*
X16957444Y-13067317D01*
X16957444Y-13067317D02*
X16976492Y-13057793D01*
X16976492Y-13057793D02*
X17024111Y-13057793D01*
X17024111Y-13057793D02*
X17043158Y-13048269D01*
X17109825Y-13000650D02*
X17186015Y-13000650D01*
X17138396Y-12933984D02*
X17138396Y-13105412D01*
X17138396Y-13105412D02*
X17147920Y-13124460D01*
X17147920Y-13124460D02*
X17166968Y-13133984D01*
X17166968Y-13133984D02*
X17186015Y-13133984D01*
X17328873Y-13124460D02*
X17309825Y-13133984D01*
X17309825Y-13133984D02*
X17271730Y-13133984D01*
X17271730Y-13133984D02*
X17252682Y-13124460D01*
X17252682Y-13124460D02*
X17243158Y-13105412D01*
X17243158Y-13105412D02*
X17243158Y-13029222D01*
X17243158Y-13029222D02*
X17252682Y-13010174D01*
X17252682Y-13010174D02*
X17271730Y-13000650D01*
X17271730Y-13000650D02*
X17309825Y-13000650D01*
X17309825Y-13000650D02*
X17328873Y-13010174D01*
X17328873Y-13010174D02*
X17338396Y-13029222D01*
X17338396Y-13029222D02*
X17338396Y-13048269D01*
X17338396Y-13048269D02*
X17243158Y-13067317D01*
X17509825Y-13133984D02*
X17509825Y-12933984D01*
X17509825Y-13124460D02*
X17490777Y-13133984D01*
X17490777Y-13133984D02*
X17452682Y-13133984D01*
X17452682Y-13133984D02*
X17433635Y-13124460D01*
X17433635Y-13124460D02*
X17424111Y-13114936D01*
X17424111Y-13114936D02*
X17414587Y-13095888D01*
X17414587Y-13095888D02*
X17414587Y-13038746D01*
X17414587Y-13038746D02*
X17424111Y-13019698D01*
X17424111Y-13019698D02*
X17433635Y-13010174D01*
X17433635Y-13010174D02*
X17452682Y-13000650D01*
X17452682Y-13000650D02*
X17490777Y-13000650D01*
X17490777Y-13000650D02*
X17509825Y-13010174D01*
X17586016Y-13210174D02*
X17595539Y-13200650D01*
X17595539Y-13200650D02*
X17614587Y-13172079D01*
X17614587Y-13172079D02*
X17624111Y-13153031D01*
X17624111Y-13153031D02*
X17633635Y-13124460D01*
X17633635Y-13124460D02*
X17643158Y-13076841D01*
X17643158Y-13076841D02*
X17643158Y-13038746D01*
X17643158Y-13038746D02*
X17633635Y-12991127D01*
X17633635Y-12991127D02*
X17624111Y-12962555D01*
X17624111Y-12962555D02*
X17614587Y-12943508D01*
X17614587Y-12943508D02*
X17595539Y-12914936D01*
X17595539Y-12914936D02*
X17586016Y-12905412D01*
M02*
