%TF.GenerationSoftware,KiCad,Pcbnew,9.0.2+dfsg-1*%
%TF.CreationDate,2025-08-18T22:10:58-04:00*%
%TF.ProjectId,Complex_Controller_V1,436f6d70-6c65-4785-9f43-6f6e74726f6c,rev?*%
%TF.SameCoordinates,Original*%
%TF.FileFunction,Drillmap*%
%TF.FilePolarity,Positive*%
%FSLAX45Y45*%
G04 Gerber Fmt 4.5, Leading zero omitted, Abs format (unit mm)*
G04 Created by KiCad (PCBNEW 9.0.2+dfsg-1) date 2025-08-18 22:10:58*
%MOMM*%
%LPD*%
G01*
G04 APERTURE LIST*
%ADD10C,0.050000*%
%ADD11C,0.200000*%
%ADD12C,0.100000*%
%ADD13C,0.149860*%
%ADD14C,0.270000*%
G04 APERTURE END LIST*
D10*
X10832500Y-12400000D02*
X18832500Y-12400000D01*
X10832500Y-8400000D02*
X10832500Y-12400000D01*
X18832500Y-12400000D02*
X18832500Y-8400000D01*
X18832500Y-8400000D02*
X10832500Y-8400000D01*
D11*
D12*
X11067500Y-11635000D02*
X11097500Y-11665000D01*
X11097500Y-11635000D02*
X11067500Y-11665000D01*
X11067500Y-12185000D02*
X11097500Y-12215000D01*
X11097500Y-12185000D02*
X11067500Y-12215000D01*
X11407255Y-10475082D02*
X11437255Y-10505082D01*
X11437255Y-10475082D02*
X11407255Y-10505082D01*
X11666818Y-9855389D02*
X11696818Y-9885389D01*
X11696818Y-9855389D02*
X11666818Y-9885389D01*
X11767500Y-9635000D02*
X11797500Y-9665000D01*
X11797500Y-9635000D02*
X11767500Y-9665000D01*
X11774000Y-9728500D02*
X11804000Y-9758500D01*
X11804000Y-9728500D02*
X11774000Y-9758500D01*
X11885000Y-10385000D02*
X11915000Y-10415000D01*
X11915000Y-10385000D02*
X11885000Y-10415000D01*
X11985000Y-10285000D02*
X12015000Y-10315000D01*
X12015000Y-10285000D02*
X11985000Y-10315000D01*
X12045000Y-9474500D02*
X12075000Y-9504500D01*
X12075000Y-9474500D02*
X12045000Y-9504500D01*
X12620000Y-9601500D02*
X12650000Y-9631500D01*
X12650000Y-9601500D02*
X12620000Y-9631500D01*
X12652500Y-11605000D02*
X12682500Y-11635000D01*
X12682500Y-11605000D02*
X12652500Y-11635000D01*
X12774751Y-10204133D02*
X12804751Y-10234133D01*
X12804751Y-10204133D02*
X12774751Y-10234133D01*
X12985000Y-9969900D02*
X13015000Y-9999900D01*
X13015000Y-9969900D02*
X12985000Y-9999900D01*
X12985604Y-10321434D02*
X13015604Y-10351434D01*
X13015604Y-10321434D02*
X12985604Y-10351434D01*
X13185000Y-10235000D02*
X13215000Y-10265000D01*
X13215000Y-10235000D02*
X13185000Y-10265000D01*
X13317500Y-9985000D02*
X13347500Y-10015000D01*
X13347500Y-9985000D02*
X13317500Y-10015000D01*
X13485000Y-9985000D02*
X13515000Y-10015000D01*
X13515000Y-9985000D02*
X13485000Y-10015000D01*
X13567500Y-11535000D02*
X13597500Y-11565000D01*
X13597500Y-11535000D02*
X13567500Y-11565000D01*
X13685000Y-9685000D02*
X13715000Y-9715000D01*
X13715000Y-9685000D02*
X13685000Y-9715000D01*
X13696524Y-9605834D02*
X13726524Y-9635834D01*
X13726524Y-9605834D02*
X13696524Y-9635834D01*
X13762500Y-10400000D02*
X13792500Y-10430000D01*
X13792500Y-10400000D02*
X13762500Y-10430000D01*
X13791500Y-10550000D02*
X13821500Y-10580000D01*
X13821500Y-10550000D02*
X13791500Y-10580000D01*
X13835000Y-9870000D02*
X13865000Y-9900000D01*
X13865000Y-9870000D02*
X13835000Y-9900000D01*
X13861486Y-11130559D02*
X13891486Y-11160559D01*
X13891486Y-11130559D02*
X13861486Y-11160559D01*
X13862500Y-11288000D02*
X13892500Y-11318000D01*
X13892500Y-11288000D02*
X13862500Y-11318000D01*
X13885000Y-9585000D02*
X13915000Y-9615000D01*
X13915000Y-9585000D02*
X13885000Y-9615000D01*
X13887500Y-10235000D02*
X13917500Y-10265000D01*
X13917500Y-10235000D02*
X13887500Y-10265000D01*
X13887500Y-10100000D02*
X13917500Y-10130000D01*
X13917500Y-10100000D02*
X13887500Y-10130000D01*
X13965962Y-9600000D02*
X13995962Y-9630000D01*
X13995962Y-9600000D02*
X13965962Y-9630000D01*
X14017500Y-10885000D02*
X14047500Y-10915000D01*
X14047500Y-10885000D02*
X14017500Y-10915000D01*
X14017500Y-11420000D02*
X14047500Y-11450000D01*
X14047500Y-11420000D02*
X14017500Y-11450000D01*
X14017500Y-11685000D02*
X14047500Y-11715000D01*
X14047500Y-11685000D02*
X14017500Y-11715000D01*
X14094473Y-9412030D02*
X14124473Y-9442030D01*
X14124473Y-9412030D02*
X14094473Y-9442030D01*
X14169940Y-11830000D02*
X14199940Y-11860000D01*
X14199940Y-11830000D02*
X14169940Y-11860000D01*
X14317500Y-9985000D02*
X14347500Y-10015000D01*
X14347500Y-9985000D02*
X14317500Y-10015000D01*
X14317500Y-12050000D02*
X14347500Y-12080000D01*
X14347500Y-12050000D02*
X14317500Y-12080000D01*
X14373710Y-9698026D02*
X14403710Y-9728026D01*
X14403710Y-9698026D02*
X14373710Y-9728026D01*
X14417500Y-9885000D02*
X14447500Y-9915000D01*
X14447500Y-9885000D02*
X14417500Y-9915000D01*
X14517500Y-8935000D02*
X14547500Y-8965000D01*
X14547500Y-8935000D02*
X14517500Y-8965000D01*
X14517500Y-8935000D02*
X14547500Y-8965000D01*
X14547500Y-8935000D02*
X14517500Y-8965000D01*
X14530288Y-10530288D02*
X14560288Y-10560288D01*
X14560288Y-10530288D02*
X14530288Y-10560288D01*
X14567500Y-11420000D02*
X14597500Y-11450000D01*
X14597500Y-11420000D02*
X14567500Y-11450000D01*
X14617500Y-9835000D02*
X14647500Y-9865000D01*
X14647500Y-9835000D02*
X14617500Y-9865000D01*
X14617500Y-10285000D02*
X14647500Y-10315000D01*
X14647500Y-10285000D02*
X14617500Y-10315000D01*
X14617500Y-11354900D02*
X14647500Y-11384900D01*
X14647500Y-11354900D02*
X14617500Y-11384900D01*
X14717500Y-10435000D02*
X14747500Y-10465000D01*
X14747500Y-10435000D02*
X14717500Y-10465000D01*
X14791576Y-10483500D02*
X14821576Y-10513500D01*
X14821576Y-10483500D02*
X14791576Y-10513500D01*
X14796538Y-11405962D02*
X14826538Y-11435962D01*
X14826538Y-11405962D02*
X14796538Y-11435962D01*
X14868549Y-10675875D02*
X14898549Y-10705875D01*
X14898549Y-10675875D02*
X14868549Y-10705875D01*
X14895563Y-11420000D02*
X14925563Y-11450000D01*
X14925563Y-11420000D02*
X14895563Y-11450000D01*
X14918703Y-10529900D02*
X14948703Y-10559900D01*
X14948703Y-10529900D02*
X14918703Y-10559900D01*
X14967500Y-11385000D02*
X14997500Y-11415000D01*
X14997500Y-11385000D02*
X14967500Y-11415000D01*
X14998703Y-10529900D02*
X15028703Y-10559900D01*
X15028703Y-10529900D02*
X14998703Y-10559900D01*
X15017500Y-8935000D02*
X15047500Y-8965000D01*
X15047500Y-8935000D02*
X15017500Y-8965000D01*
X15017500Y-8935000D02*
X15047500Y-8965000D01*
X15047500Y-8935000D02*
X15017500Y-8965000D01*
X15017500Y-10985000D02*
X15047500Y-11015000D01*
X15047500Y-10985000D02*
X15017500Y-11015000D01*
X15048443Y-10467133D02*
X15078443Y-10497133D01*
X15078443Y-10467133D02*
X15048443Y-10497133D01*
X15084922Y-10233681D02*
X15114922Y-10263681D01*
X15114922Y-10233681D02*
X15084922Y-10263681D01*
X15085000Y-9700000D02*
X15115000Y-9730000D01*
X15115000Y-9700000D02*
X15085000Y-9730000D01*
X15089664Y-10313541D02*
X15119664Y-10343541D01*
X15119664Y-10313541D02*
X15089664Y-10343541D01*
X15092500Y-10660000D02*
X15122500Y-10690000D01*
X15122500Y-10660000D02*
X15092500Y-10690000D01*
X15104929Y-10097429D02*
X15134929Y-10127429D01*
X15134929Y-10097429D02*
X15104929Y-10127429D01*
X15107776Y-10408551D02*
X15137776Y-10438551D01*
X15137776Y-10408551D02*
X15107776Y-10438551D01*
X15145276Y-9752600D02*
X15175276Y-9782600D01*
X15175276Y-9752600D02*
X15145276Y-9782600D01*
X15207027Y-10981100D02*
X15237027Y-11011100D01*
X15237027Y-10981100D02*
X15207027Y-11011100D01*
X15372500Y-9882967D02*
X15402500Y-9912967D01*
X15402500Y-9882967D02*
X15372500Y-9912967D01*
X15381822Y-10341392D02*
X15411822Y-10371392D01*
X15411822Y-10341392D02*
X15381822Y-10371392D01*
X15485000Y-9885000D02*
X15515000Y-9915000D01*
X15515000Y-9885000D02*
X15485000Y-9915000D01*
X15500505Y-9518005D02*
X15530505Y-9548005D01*
X15530505Y-9518005D02*
X15500505Y-9548005D01*
X15535000Y-10435000D02*
X15565000Y-10465000D01*
X15565000Y-10435000D02*
X15535000Y-10465000D01*
X15564038Y-10314038D02*
X15594038Y-10344038D01*
X15594038Y-10314038D02*
X15564038Y-10344038D01*
X15568337Y-10160261D02*
X15598337Y-10190261D01*
X15598337Y-10160261D02*
X15568337Y-10190261D01*
X15585000Y-9885000D02*
X15615000Y-9915000D01*
X15615000Y-9885000D02*
X15585000Y-9915000D01*
X15618245Y-11001755D02*
X15648245Y-11031755D01*
X15648245Y-11001755D02*
X15618245Y-11031755D01*
X15727401Y-10091637D02*
X15757401Y-10121637D01*
X15757401Y-10091637D02*
X15727401Y-10121637D01*
X15835000Y-10335000D02*
X15865000Y-10365000D01*
X15865000Y-10335000D02*
X15835000Y-10365000D01*
X16085000Y-9885000D02*
X16115000Y-9915000D01*
X16115000Y-9885000D02*
X16085000Y-9915000D01*
X16185000Y-10922212D02*
X16215000Y-10952212D01*
X16215000Y-10922212D02*
X16185000Y-10952212D01*
X16581326Y-9855389D02*
X16611326Y-9885389D01*
X16611326Y-9855389D02*
X16581326Y-9885389D01*
X16717500Y-11635000D02*
X16747500Y-11665000D01*
X16747500Y-11635000D02*
X16717500Y-11665000D01*
X16767500Y-11385000D02*
X16797500Y-11415000D01*
X16797500Y-11385000D02*
X16767500Y-11415000D01*
X16824069Y-11328431D02*
X16854069Y-11358431D01*
X16854069Y-11328431D02*
X16824069Y-11358431D01*
X16965000Y-9474500D02*
X16995000Y-9504500D01*
X16995000Y-9474500D02*
X16965000Y-9504500D01*
X16967500Y-11585000D02*
X16997500Y-11615000D01*
X16997500Y-11585000D02*
X16967500Y-11615000D01*
X17067500Y-11485000D02*
X17097500Y-11515000D01*
X17097500Y-11485000D02*
X17067500Y-11515000D01*
X17317500Y-10835000D02*
X17347500Y-10865000D01*
X17347500Y-10835000D02*
X17317500Y-10865000D01*
X17540000Y-9601500D02*
X17570000Y-9631500D01*
X17570000Y-9601500D02*
X17540000Y-9631500D01*
X17617500Y-11135000D02*
X17647500Y-11165000D01*
X17647500Y-11135000D02*
X17617500Y-11165000D01*
X18467500Y-11735000D02*
X18497500Y-11765000D01*
X18497500Y-11735000D02*
X18467500Y-11765000D01*
X18467500Y-12135000D02*
X18497500Y-12165000D01*
X18497500Y-12135000D02*
X18467500Y-12165000D01*
X12299000Y-9550000D02*
G75*
G02*
X12266000Y-9550000I-16500J0D01*
G01*
X12266000Y-9550000D02*
G75*
G02*
X12299000Y-9550000I16500J0D01*
G01*
X12299000Y-9680000D02*
G75*
G02*
X12266000Y-9680000I-16500J0D01*
G01*
X12266000Y-9680000D02*
G75*
G02*
X12299000Y-9680000I16500J0D01*
G01*
X12299000Y-9810000D02*
G75*
G02*
X12266000Y-9810000I-16500J0D01*
G01*
X12266000Y-9810000D02*
G75*
G02*
X12299000Y-9810000I16500J0D01*
G01*
X12429000Y-9550000D02*
G75*
G02*
X12396000Y-9550000I-16500J0D01*
G01*
X12396000Y-9550000D02*
G75*
G02*
X12429000Y-9550000I16500J0D01*
G01*
X12429000Y-9680000D02*
G75*
G02*
X12396000Y-9680000I-16500J0D01*
G01*
X12396000Y-9680000D02*
G75*
G02*
X12429000Y-9680000I16500J0D01*
G01*
X12429000Y-9810000D02*
G75*
G02*
X12396000Y-9810000I-16500J0D01*
G01*
X12396000Y-9810000D02*
G75*
G02*
X12429000Y-9810000I16500J0D01*
G01*
X17219000Y-9550000D02*
G75*
G02*
X17186000Y-9550000I-16500J0D01*
G01*
X17186000Y-9550000D02*
G75*
G02*
X17219000Y-9550000I16500J0D01*
G01*
X17219000Y-9680000D02*
G75*
G02*
X17186000Y-9680000I-16500J0D01*
G01*
X17186000Y-9680000D02*
G75*
G02*
X17219000Y-9680000I16500J0D01*
G01*
X17219000Y-9810000D02*
G75*
G02*
X17186000Y-9810000I-16500J0D01*
G01*
X17186000Y-9810000D02*
G75*
G02*
X17219000Y-9810000I16500J0D01*
G01*
X17349000Y-9550000D02*
G75*
G02*
X17316000Y-9550000I-16500J0D01*
G01*
X17316000Y-9550000D02*
G75*
G02*
X17349000Y-9550000I16500J0D01*
G01*
X17349000Y-9680000D02*
G75*
G02*
X17316000Y-9680000I-16500J0D01*
G01*
X17316000Y-9680000D02*
G75*
G02*
X17349000Y-9680000I16500J0D01*
G01*
X17349000Y-9810000D02*
G75*
G02*
X17316000Y-9810000I-16500J0D01*
G01*
X17316000Y-9810000D02*
G75*
G02*
X17349000Y-9810000I16500J0D01*
G01*
X11382500Y-11160630D02*
X11382500Y-11239370D01*
X11343130Y-11200000D02*
X11421870Y-11200000D01*
X11582500Y-11160630D02*
X11582500Y-11239370D01*
X11543130Y-11200000D02*
X11621870Y-11200000D01*
X11782500Y-11160630D02*
X11782500Y-11239370D01*
X11743130Y-11200000D02*
X11821870Y-11200000D01*
X18032500Y-11910630D02*
X18032500Y-11989370D01*
X17993130Y-11950000D02*
X18071870Y-11950000D01*
X18232500Y-11910630D02*
X18232500Y-11989370D01*
X18193130Y-11950000D02*
X18271870Y-11950000D01*
X18432500Y-11910630D02*
X18432500Y-11989370D01*
X18393130Y-11950000D02*
X18471870Y-11950000D01*
X14661237Y-11828737D02*
X14661237Y-11771263D01*
X14603763Y-11771263D01*
X14603763Y-11828737D01*
X14661237Y-11828737D01*
X14661237Y-12028737D02*
X14661237Y-11971263D01*
X14603763Y-11971263D01*
X14603763Y-12028737D01*
X14661237Y-12028737D01*
X14861237Y-11828737D02*
X14861237Y-11771263D01*
X14803763Y-11771263D01*
X14803763Y-11828737D01*
X14861237Y-11828737D01*
X14861237Y-12028737D02*
X14861237Y-11971263D01*
X14803763Y-11971263D01*
X14803763Y-12028737D01*
X14861237Y-12028737D01*
X15061237Y-11828737D02*
X15061237Y-11771263D01*
X15003763Y-11771263D01*
X15003763Y-11828737D01*
X15061237Y-11828737D01*
X15061237Y-12028737D02*
X15061237Y-11971263D01*
X15003763Y-11971263D01*
X15003763Y-12028737D01*
X15061237Y-12028737D01*
X15261237Y-11828737D02*
X15261237Y-11771263D01*
X15203763Y-11771263D01*
X15203763Y-11828737D01*
X15261237Y-11828737D01*
X15261237Y-12028737D02*
X15261237Y-11971263D01*
X15203763Y-11971263D01*
X15203763Y-12028737D01*
X15261237Y-12028737D01*
X13182500Y-8867500D02*
X13230000Y-8820000D01*
X13182500Y-8772500D01*
X13135000Y-8820000D01*
X13182500Y-8867500D01*
X13432500Y-8867500D02*
X13480000Y-8820000D01*
X13432500Y-8772500D01*
X13385000Y-8820000D01*
X13432500Y-8867500D01*
X13682500Y-8867500D02*
X13730000Y-8820000D01*
X13682500Y-8772500D01*
X13635000Y-8820000D01*
X13682500Y-8867500D01*
X15832500Y-8897500D02*
X15880000Y-8850000D01*
X15832500Y-8802500D01*
X15785000Y-8850000D01*
X15832500Y-8897500D01*
X16082500Y-8897500D02*
X16130000Y-8850000D01*
X16082500Y-8802500D01*
X16035000Y-8850000D01*
X16082500Y-8897500D01*
X16332500Y-8897500D02*
X16380000Y-8850000D01*
X16332500Y-8802500D01*
X16285000Y-8850000D01*
X16332500Y-8897500D01*
X18282500Y-10297500D02*
X18330000Y-10250000D01*
X18282500Y-10202500D01*
X18235000Y-10250000D01*
X18282500Y-10297500D01*
X18282500Y-10547500D02*
X18330000Y-10500000D01*
X18282500Y-10452500D01*
X18235000Y-10500000D01*
X18282500Y-10547500D01*
X18282500Y-10797500D02*
X18330000Y-10750000D01*
X18282500Y-10702500D01*
X18235000Y-10750000D01*
X18282500Y-10797500D01*
X18282500Y-11047500D02*
X18330000Y-11000000D01*
X18282500Y-10952500D01*
X18235000Y-11000000D01*
X18282500Y-11047500D01*
X11232500Y-8800000D02*
X11332500Y-8900000D01*
X11332500Y-8800000D02*
X11232500Y-8900000D01*
X11332500Y-8850000D02*
G75*
G02*
X11232500Y-8850000I-50000J0D01*
G01*
X11232500Y-8850000D02*
G75*
G02*
X11332500Y-8850000I50000J0D01*
G01*
X11482500Y-8800000D02*
X11582500Y-8900000D01*
X11582500Y-8800000D02*
X11482500Y-8900000D01*
X11582500Y-8850000D02*
G75*
G02*
X11482500Y-8850000I-50000J0D01*
G01*
X11482500Y-8850000D02*
G75*
G02*
X11582500Y-8850000I50000J0D01*
G01*
X15796000Y-11146000D02*
X15896000Y-11246000D01*
X15896000Y-11146000D02*
X15796000Y-11246000D01*
X15896000Y-11196000D02*
G75*
G02*
X15796000Y-11196000I-50000J0D01*
G01*
X15796000Y-11196000D02*
G75*
G02*
X15896000Y-11196000I50000J0D01*
G01*
X15796000Y-11400000D02*
X15896000Y-11500000D01*
X15896000Y-11400000D02*
X15796000Y-11500000D01*
X15896000Y-11450000D02*
G75*
G02*
X15796000Y-11450000I-50000J0D01*
G01*
X15796000Y-11450000D02*
G75*
G02*
X15896000Y-11450000I50000J0D01*
G01*
X15796000Y-11654000D02*
X15896000Y-11754000D01*
X15896000Y-11654000D02*
X15796000Y-11754000D01*
X15896000Y-11704000D02*
G75*
G02*
X15796000Y-11704000I-50000J0D01*
G01*
X15796000Y-11704000D02*
G75*
G02*
X15896000Y-11704000I50000J0D01*
G01*
X16050000Y-11146000D02*
X16150000Y-11246000D01*
X16150000Y-11146000D02*
X16050000Y-11246000D01*
X16150000Y-11196000D02*
G75*
G02*
X16050000Y-11196000I-50000J0D01*
G01*
X16050000Y-11196000D02*
G75*
G02*
X16150000Y-11196000I50000J0D01*
G01*
X16050000Y-11400000D02*
X16150000Y-11500000D01*
X16150000Y-11400000D02*
X16050000Y-11500000D01*
X16150000Y-11450000D02*
G75*
G02*
X16050000Y-11450000I-50000J0D01*
G01*
X16050000Y-11450000D02*
G75*
G02*
X16150000Y-11450000I50000J0D01*
G01*
X16050000Y-11654000D02*
X16150000Y-11754000D01*
X16150000Y-11654000D02*
X16050000Y-11754000D01*
X16150000Y-11704000D02*
G75*
G02*
X16050000Y-11704000I-50000J0D01*
G01*
X16050000Y-11704000D02*
G75*
G02*
X16150000Y-11704000I50000J0D01*
G01*
X18082500Y-8900000D02*
X18182500Y-9000000D01*
X18182500Y-8900000D02*
X18082500Y-9000000D01*
X18182500Y-8950000D02*
G75*
G02*
X18082500Y-8950000I-50000J0D01*
G01*
X18082500Y-8950000D02*
G75*
G02*
X18182500Y-8950000I50000J0D01*
G01*
X18332500Y-8900000D02*
X18432500Y-9000000D01*
X18432500Y-8900000D02*
X18332500Y-9000000D01*
X18432500Y-8950000D02*
G75*
G02*
X18332500Y-8950000I-50000J0D01*
G01*
X18332500Y-8950000D02*
G75*
G02*
X18432500Y-8950000I50000J0D01*
G01*
D13*
X11097570Y-11125070D02*
X11247430Y-11274930D01*
X11247430Y-11125070D02*
X11097570Y-11274930D01*
X11172500Y-11125070D02*
X11172500Y-11274930D01*
X11097570Y-11200000D02*
X11247430Y-11200000D01*
X11917570Y-11125070D02*
X12067430Y-11274930D01*
X12067430Y-11125070D02*
X11917570Y-11274930D01*
X11992500Y-11125070D02*
X11992500Y-11274930D01*
X11917570Y-11200000D02*
X12067430Y-11200000D01*
X17747570Y-11875070D02*
X17897430Y-12024930D01*
X17897430Y-11875070D02*
X17747570Y-12024930D01*
X17822500Y-11875070D02*
X17822500Y-12024930D01*
X17747570Y-11950000D02*
X17897430Y-11950000D01*
X18567570Y-11875070D02*
X18717430Y-12024930D01*
X18717430Y-11875070D02*
X18567570Y-12024930D01*
X18642500Y-11875070D02*
X18642500Y-12024930D01*
X18567570Y-11950000D02*
X18717430Y-11950000D01*
D14*
X11247500Y-11765000D02*
X11517500Y-12035000D01*
X11517500Y-11765000D02*
X11247500Y-12035000D01*
X11477960Y-11995460D02*
X11477960Y-11804540D01*
X11287040Y-11804540D01*
X11287040Y-11995460D01*
X11477960Y-11995460D01*
X11747500Y-11765000D02*
X12017500Y-12035000D01*
X12017500Y-11765000D02*
X11747500Y-12035000D01*
X11977960Y-11995460D02*
X11977960Y-11804540D01*
X11787040Y-11804540D01*
X11787040Y-11995460D01*
X11977960Y-11995460D01*
D11*
X11090777Y-12713984D02*
X11090777Y-12513984D01*
X11090777Y-12513984D02*
X11138396Y-12513984D01*
X11138396Y-12513984D02*
X11166967Y-12523508D01*
X11166967Y-12523508D02*
X11186015Y-12542555D01*
X11186015Y-12542555D02*
X11195539Y-12561603D01*
X11195539Y-12561603D02*
X11205062Y-12599698D01*
X11205062Y-12599698D02*
X11205062Y-12628269D01*
X11205062Y-12628269D02*
X11195539Y-12666365D01*
X11195539Y-12666365D02*
X11186015Y-12685412D01*
X11186015Y-12685412D02*
X11166967Y-12704460D01*
X11166967Y-12704460D02*
X11138396Y-12713984D01*
X11138396Y-12713984D02*
X11090777Y-12713984D01*
X11290777Y-12713984D02*
X11290777Y-12580650D01*
X11290777Y-12618746D02*
X11300301Y-12599698D01*
X11300301Y-12599698D02*
X11309824Y-12590174D01*
X11309824Y-12590174D02*
X11328872Y-12580650D01*
X11328872Y-12580650D02*
X11347920Y-12580650D01*
X11414586Y-12713984D02*
X11414586Y-12580650D01*
X11414586Y-12513984D02*
X11405062Y-12523508D01*
X11405062Y-12523508D02*
X11414586Y-12533031D01*
X11414586Y-12533031D02*
X11424110Y-12523508D01*
X11424110Y-12523508D02*
X11414586Y-12513984D01*
X11414586Y-12513984D02*
X11414586Y-12533031D01*
X11538396Y-12713984D02*
X11519348Y-12704460D01*
X11519348Y-12704460D02*
X11509824Y-12685412D01*
X11509824Y-12685412D02*
X11509824Y-12513984D01*
X11643158Y-12713984D02*
X11624110Y-12704460D01*
X11624110Y-12704460D02*
X11614586Y-12685412D01*
X11614586Y-12685412D02*
X11614586Y-12513984D01*
X11871729Y-12713984D02*
X11871729Y-12513984D01*
X11871729Y-12513984D02*
X11938396Y-12656841D01*
X11938396Y-12656841D02*
X12005062Y-12513984D01*
X12005062Y-12513984D02*
X12005062Y-12713984D01*
X12186015Y-12713984D02*
X12186015Y-12609222D01*
X12186015Y-12609222D02*
X12176491Y-12590174D01*
X12176491Y-12590174D02*
X12157443Y-12580650D01*
X12157443Y-12580650D02*
X12119348Y-12580650D01*
X12119348Y-12580650D02*
X12100301Y-12590174D01*
X12186015Y-12704460D02*
X12166967Y-12713984D01*
X12166967Y-12713984D02*
X12119348Y-12713984D01*
X12119348Y-12713984D02*
X12100301Y-12704460D01*
X12100301Y-12704460D02*
X12090777Y-12685412D01*
X12090777Y-12685412D02*
X12090777Y-12666365D01*
X12090777Y-12666365D02*
X12100301Y-12647317D01*
X12100301Y-12647317D02*
X12119348Y-12637793D01*
X12119348Y-12637793D02*
X12166967Y-12637793D01*
X12166967Y-12637793D02*
X12186015Y-12628269D01*
X12281253Y-12580650D02*
X12281253Y-12780650D01*
X12281253Y-12590174D02*
X12300301Y-12580650D01*
X12300301Y-12580650D02*
X12338396Y-12580650D01*
X12338396Y-12580650D02*
X12357443Y-12590174D01*
X12357443Y-12590174D02*
X12366967Y-12599698D01*
X12366967Y-12599698D02*
X12376491Y-12618746D01*
X12376491Y-12618746D02*
X12376491Y-12675888D01*
X12376491Y-12675888D02*
X12366967Y-12694936D01*
X12366967Y-12694936D02*
X12357443Y-12704460D01*
X12357443Y-12704460D02*
X12338396Y-12713984D01*
X12338396Y-12713984D02*
X12300301Y-12713984D01*
X12300301Y-12713984D02*
X12281253Y-12704460D01*
X12462205Y-12694936D02*
X12471729Y-12704460D01*
X12471729Y-12704460D02*
X12462205Y-12713984D01*
X12462205Y-12713984D02*
X12452682Y-12704460D01*
X12452682Y-12704460D02*
X12462205Y-12694936D01*
X12462205Y-12694936D02*
X12462205Y-12713984D01*
X12462205Y-12590174D02*
X12471729Y-12599698D01*
X12471729Y-12599698D02*
X12462205Y-12609222D01*
X12462205Y-12609222D02*
X12452682Y-12599698D01*
X12452682Y-12599698D02*
X12462205Y-12590174D01*
X12462205Y-12590174D02*
X12462205Y-12609222D01*
D12*
X10800000Y-13027500D02*
X10830000Y-13057500D01*
X10830000Y-13027500D02*
X10800000Y-13057500D01*
D11*
X11128872Y-12933984D02*
X11147920Y-12933984D01*
X11147920Y-12933984D02*
X11166967Y-12943508D01*
X11166967Y-12943508D02*
X11176491Y-12953031D01*
X11176491Y-12953031D02*
X11186015Y-12972079D01*
X11186015Y-12972079D02*
X11195539Y-13010174D01*
X11195539Y-13010174D02*
X11195539Y-13057793D01*
X11195539Y-13057793D02*
X11186015Y-13095888D01*
X11186015Y-13095888D02*
X11176491Y-13114936D01*
X11176491Y-13114936D02*
X11166967Y-13124460D01*
X11166967Y-13124460D02*
X11147920Y-13133984D01*
X11147920Y-13133984D02*
X11128872Y-13133984D01*
X11128872Y-13133984D02*
X11109824Y-13124460D01*
X11109824Y-13124460D02*
X11100301Y-13114936D01*
X11100301Y-13114936D02*
X11090777Y-13095888D01*
X11090777Y-13095888D02*
X11081253Y-13057793D01*
X11081253Y-13057793D02*
X11081253Y-13010174D01*
X11081253Y-13010174D02*
X11090777Y-12972079D01*
X11090777Y-12972079D02*
X11100301Y-12953031D01*
X11100301Y-12953031D02*
X11109824Y-12943508D01*
X11109824Y-12943508D02*
X11128872Y-12933984D01*
X11281253Y-13114936D02*
X11290777Y-13124460D01*
X11290777Y-13124460D02*
X11281253Y-13133984D01*
X11281253Y-13133984D02*
X11271729Y-13124460D01*
X11271729Y-13124460D02*
X11281253Y-13114936D01*
X11281253Y-13114936D02*
X11281253Y-13133984D01*
X11357443Y-12933984D02*
X11481253Y-12933984D01*
X11481253Y-12933984D02*
X11414586Y-13010174D01*
X11414586Y-13010174D02*
X11443158Y-13010174D01*
X11443158Y-13010174D02*
X11462205Y-13019698D01*
X11462205Y-13019698D02*
X11471729Y-13029222D01*
X11471729Y-13029222D02*
X11481253Y-13048269D01*
X11481253Y-13048269D02*
X11481253Y-13095888D01*
X11481253Y-13095888D02*
X11471729Y-13114936D01*
X11471729Y-13114936D02*
X11462205Y-13124460D01*
X11462205Y-13124460D02*
X11443158Y-13133984D01*
X11443158Y-13133984D02*
X11386015Y-13133984D01*
X11386015Y-13133984D02*
X11366967Y-13124460D01*
X11366967Y-13124460D02*
X11357443Y-13114936D01*
X11605062Y-12933984D02*
X11624110Y-12933984D01*
X11624110Y-12933984D02*
X11643158Y-12943508D01*
X11643158Y-12943508D02*
X11652682Y-12953031D01*
X11652682Y-12953031D02*
X11662205Y-12972079D01*
X11662205Y-12972079D02*
X11671729Y-13010174D01*
X11671729Y-13010174D02*
X11671729Y-13057793D01*
X11671729Y-13057793D02*
X11662205Y-13095888D01*
X11662205Y-13095888D02*
X11652682Y-13114936D01*
X11652682Y-13114936D02*
X11643158Y-13124460D01*
X11643158Y-13124460D02*
X11624110Y-13133984D01*
X11624110Y-13133984D02*
X11605062Y-13133984D01*
X11605062Y-13133984D02*
X11586015Y-13124460D01*
X11586015Y-13124460D02*
X11576491Y-13114936D01*
X11576491Y-13114936D02*
X11566967Y-13095888D01*
X11566967Y-13095888D02*
X11557443Y-13057793D01*
X11557443Y-13057793D02*
X11557443Y-13010174D01*
X11557443Y-13010174D02*
X11566967Y-12972079D01*
X11566967Y-12972079D02*
X11576491Y-12953031D01*
X11576491Y-12953031D02*
X11586015Y-12943508D01*
X11586015Y-12943508D02*
X11605062Y-12933984D01*
X11795539Y-12933984D02*
X11814586Y-12933984D01*
X11814586Y-12933984D02*
X11833634Y-12943508D01*
X11833634Y-12943508D02*
X11843158Y-12953031D01*
X11843158Y-12953031D02*
X11852682Y-12972079D01*
X11852682Y-12972079D02*
X11862205Y-13010174D01*
X11862205Y-13010174D02*
X11862205Y-13057793D01*
X11862205Y-13057793D02*
X11852682Y-13095888D01*
X11852682Y-13095888D02*
X11843158Y-13114936D01*
X11843158Y-13114936D02*
X11833634Y-13124460D01*
X11833634Y-13124460D02*
X11814586Y-13133984D01*
X11814586Y-13133984D02*
X11795539Y-13133984D01*
X11795539Y-13133984D02*
X11776491Y-13124460D01*
X11776491Y-13124460D02*
X11766967Y-13114936D01*
X11766967Y-13114936D02*
X11757443Y-13095888D01*
X11757443Y-13095888D02*
X11747920Y-13057793D01*
X11747920Y-13057793D02*
X11747920Y-13010174D01*
X11747920Y-13010174D02*
X11757443Y-12972079D01*
X11757443Y-12972079D02*
X11766967Y-12953031D01*
X11766967Y-12953031D02*
X11776491Y-12943508D01*
X11776491Y-12943508D02*
X11795539Y-12933984D01*
X11947920Y-13133984D02*
X11947920Y-13000650D01*
X11947920Y-13019698D02*
X11957443Y-13010174D01*
X11957443Y-13010174D02*
X11976491Y-13000650D01*
X11976491Y-13000650D02*
X12005063Y-13000650D01*
X12005063Y-13000650D02*
X12024110Y-13010174D01*
X12024110Y-13010174D02*
X12033634Y-13029222D01*
X12033634Y-13029222D02*
X12033634Y-13133984D01*
X12033634Y-13029222D02*
X12043158Y-13010174D01*
X12043158Y-13010174D02*
X12062205Y-13000650D01*
X12062205Y-13000650D02*
X12090777Y-13000650D01*
X12090777Y-13000650D02*
X12109824Y-13010174D01*
X12109824Y-13010174D02*
X12119348Y-13029222D01*
X12119348Y-13029222D02*
X12119348Y-13133984D01*
X12214586Y-13133984D02*
X12214586Y-13000650D01*
X12214586Y-13019698D02*
X12224110Y-13010174D01*
X12224110Y-13010174D02*
X12243158Y-13000650D01*
X12243158Y-13000650D02*
X12271729Y-13000650D01*
X12271729Y-13000650D02*
X12290777Y-13010174D01*
X12290777Y-13010174D02*
X12300301Y-13029222D01*
X12300301Y-13029222D02*
X12300301Y-13133984D01*
X12300301Y-13029222D02*
X12309824Y-13010174D01*
X12309824Y-13010174D02*
X12328872Y-13000650D01*
X12328872Y-13000650D02*
X12357443Y-13000650D01*
X12357443Y-13000650D02*
X12376491Y-13010174D01*
X12376491Y-13010174D02*
X12386015Y-13029222D01*
X12386015Y-13029222D02*
X12386015Y-13133984D01*
X12776491Y-12924460D02*
X12605063Y-13181603D01*
X13033634Y-12933984D02*
X13052682Y-12933984D01*
X13052682Y-12933984D02*
X13071729Y-12943508D01*
X13071729Y-12943508D02*
X13081253Y-12953031D01*
X13081253Y-12953031D02*
X13090777Y-12972079D01*
X13090777Y-12972079D02*
X13100301Y-13010174D01*
X13100301Y-13010174D02*
X13100301Y-13057793D01*
X13100301Y-13057793D02*
X13090777Y-13095888D01*
X13090777Y-13095888D02*
X13081253Y-13114936D01*
X13081253Y-13114936D02*
X13071729Y-13124460D01*
X13071729Y-13124460D02*
X13052682Y-13133984D01*
X13052682Y-13133984D02*
X13033634Y-13133984D01*
X13033634Y-13133984D02*
X13014586Y-13124460D01*
X13014586Y-13124460D02*
X13005063Y-13114936D01*
X13005063Y-13114936D02*
X12995539Y-13095888D01*
X12995539Y-13095888D02*
X12986015Y-13057793D01*
X12986015Y-13057793D02*
X12986015Y-13010174D01*
X12986015Y-13010174D02*
X12995539Y-12972079D01*
X12995539Y-12972079D02*
X13005063Y-12953031D01*
X13005063Y-12953031D02*
X13014586Y-12943508D01*
X13014586Y-12943508D02*
X13033634Y-12933984D01*
X13186015Y-13114936D02*
X13195539Y-13124460D01*
X13195539Y-13124460D02*
X13186015Y-13133984D01*
X13186015Y-13133984D02*
X13176491Y-13124460D01*
X13176491Y-13124460D02*
X13186015Y-13114936D01*
X13186015Y-13114936D02*
X13186015Y-13133984D01*
X13319348Y-12933984D02*
X13338396Y-12933984D01*
X13338396Y-12933984D02*
X13357444Y-12943508D01*
X13357444Y-12943508D02*
X13366967Y-12953031D01*
X13366967Y-12953031D02*
X13376491Y-12972079D01*
X13376491Y-12972079D02*
X13386015Y-13010174D01*
X13386015Y-13010174D02*
X13386015Y-13057793D01*
X13386015Y-13057793D02*
X13376491Y-13095888D01*
X13376491Y-13095888D02*
X13366967Y-13114936D01*
X13366967Y-13114936D02*
X13357444Y-13124460D01*
X13357444Y-13124460D02*
X13338396Y-13133984D01*
X13338396Y-13133984D02*
X13319348Y-13133984D01*
X13319348Y-13133984D02*
X13300301Y-13124460D01*
X13300301Y-13124460D02*
X13290777Y-13114936D01*
X13290777Y-13114936D02*
X13281253Y-13095888D01*
X13281253Y-13095888D02*
X13271729Y-13057793D01*
X13271729Y-13057793D02*
X13271729Y-13010174D01*
X13271729Y-13010174D02*
X13281253Y-12972079D01*
X13281253Y-12972079D02*
X13290777Y-12953031D01*
X13290777Y-12953031D02*
X13300301Y-12943508D01*
X13300301Y-12943508D02*
X13319348Y-12933984D01*
X13576491Y-13133984D02*
X13462206Y-13133984D01*
X13519348Y-13133984D02*
X13519348Y-12933984D01*
X13519348Y-12933984D02*
X13500301Y-12962555D01*
X13500301Y-12962555D02*
X13481253Y-12981603D01*
X13481253Y-12981603D02*
X13462206Y-12991127D01*
X13766967Y-13133984D02*
X13652682Y-13133984D01*
X13709825Y-13133984D02*
X13709825Y-12933984D01*
X13709825Y-12933984D02*
X13690777Y-12962555D01*
X13690777Y-12962555D02*
X13671729Y-12981603D01*
X13671729Y-12981603D02*
X13652682Y-12991127D01*
X13881253Y-13019698D02*
X13862206Y-13010174D01*
X13862206Y-13010174D02*
X13852682Y-13000650D01*
X13852682Y-13000650D02*
X13843158Y-12981603D01*
X13843158Y-12981603D02*
X13843158Y-12972079D01*
X13843158Y-12972079D02*
X13852682Y-12953031D01*
X13852682Y-12953031D02*
X13862206Y-12943508D01*
X13862206Y-12943508D02*
X13881253Y-12933984D01*
X13881253Y-12933984D02*
X13919348Y-12933984D01*
X13919348Y-12933984D02*
X13938396Y-12943508D01*
X13938396Y-12943508D02*
X13947920Y-12953031D01*
X13947920Y-12953031D02*
X13957444Y-12972079D01*
X13957444Y-12972079D02*
X13957444Y-12981603D01*
X13957444Y-12981603D02*
X13947920Y-13000650D01*
X13947920Y-13000650D02*
X13938396Y-13010174D01*
X13938396Y-13010174D02*
X13919348Y-13019698D01*
X13919348Y-13019698D02*
X13881253Y-13019698D01*
X13881253Y-13019698D02*
X13862206Y-13029222D01*
X13862206Y-13029222D02*
X13852682Y-13038746D01*
X13852682Y-13038746D02*
X13843158Y-13057793D01*
X13843158Y-13057793D02*
X13843158Y-13095888D01*
X13843158Y-13095888D02*
X13852682Y-13114936D01*
X13852682Y-13114936D02*
X13862206Y-13124460D01*
X13862206Y-13124460D02*
X13881253Y-13133984D01*
X13881253Y-13133984D02*
X13919348Y-13133984D01*
X13919348Y-13133984D02*
X13938396Y-13124460D01*
X13938396Y-13124460D02*
X13947920Y-13114936D01*
X13947920Y-13114936D02*
X13957444Y-13095888D01*
X13957444Y-13095888D02*
X13957444Y-13057793D01*
X13957444Y-13057793D02*
X13947920Y-13038746D01*
X13947920Y-13038746D02*
X13938396Y-13029222D01*
X13938396Y-13029222D02*
X13919348Y-13019698D01*
X14033634Y-12933984D02*
X14033634Y-12972079D01*
X14109825Y-12933984D02*
X14109825Y-12972079D01*
X14405063Y-13210174D02*
X14395539Y-13200650D01*
X14395539Y-13200650D02*
X14376491Y-13172079D01*
X14376491Y-13172079D02*
X14366968Y-13153031D01*
X14366968Y-13153031D02*
X14357444Y-13124460D01*
X14357444Y-13124460D02*
X14347920Y-13076841D01*
X14347920Y-13076841D02*
X14347920Y-13038746D01*
X14347920Y-13038746D02*
X14357444Y-12991127D01*
X14357444Y-12991127D02*
X14366968Y-12962555D01*
X14366968Y-12962555D02*
X14376491Y-12943508D01*
X14376491Y-12943508D02*
X14395539Y-12914936D01*
X14395539Y-12914936D02*
X14405063Y-12905412D01*
X14490777Y-13133984D02*
X14528872Y-13133984D01*
X14528872Y-13133984D02*
X14547920Y-13124460D01*
X14547920Y-13124460D02*
X14557444Y-13114936D01*
X14557444Y-13114936D02*
X14576491Y-13086365D01*
X14576491Y-13086365D02*
X14586015Y-13048269D01*
X14586015Y-13048269D02*
X14586015Y-12972079D01*
X14586015Y-12972079D02*
X14576491Y-12953031D01*
X14576491Y-12953031D02*
X14566968Y-12943508D01*
X14566968Y-12943508D02*
X14547920Y-12933984D01*
X14547920Y-12933984D02*
X14509825Y-12933984D01*
X14509825Y-12933984D02*
X14490777Y-12943508D01*
X14490777Y-12943508D02*
X14481253Y-12953031D01*
X14481253Y-12953031D02*
X14471729Y-12972079D01*
X14471729Y-12972079D02*
X14471729Y-13019698D01*
X14471729Y-13019698D02*
X14481253Y-13038746D01*
X14481253Y-13038746D02*
X14490777Y-13048269D01*
X14490777Y-13048269D02*
X14509825Y-13057793D01*
X14509825Y-13057793D02*
X14547920Y-13057793D01*
X14547920Y-13057793D02*
X14566968Y-13048269D01*
X14566968Y-13048269D02*
X14576491Y-13038746D01*
X14576491Y-13038746D02*
X14586015Y-13019698D01*
X14709825Y-12933984D02*
X14728872Y-12933984D01*
X14728872Y-12933984D02*
X14747920Y-12943508D01*
X14747920Y-12943508D02*
X14757444Y-12953031D01*
X14757444Y-12953031D02*
X14766968Y-12972079D01*
X14766968Y-12972079D02*
X14776491Y-13010174D01*
X14776491Y-13010174D02*
X14776491Y-13057793D01*
X14776491Y-13057793D02*
X14766968Y-13095888D01*
X14766968Y-13095888D02*
X14757444Y-13114936D01*
X14757444Y-13114936D02*
X14747920Y-13124460D01*
X14747920Y-13124460D02*
X14728872Y-13133984D01*
X14728872Y-13133984D02*
X14709825Y-13133984D01*
X14709825Y-13133984D02*
X14690777Y-13124460D01*
X14690777Y-13124460D02*
X14681253Y-13114936D01*
X14681253Y-13114936D02*
X14671729Y-13095888D01*
X14671729Y-13095888D02*
X14662206Y-13057793D01*
X14662206Y-13057793D02*
X14662206Y-13010174D01*
X14662206Y-13010174D02*
X14671729Y-12972079D01*
X14671729Y-12972079D02*
X14681253Y-12953031D01*
X14681253Y-12953031D02*
X14690777Y-12943508D01*
X14690777Y-12943508D02*
X14709825Y-12933984D01*
X15014587Y-13133984D02*
X15014587Y-12933984D01*
X15100301Y-13133984D02*
X15100301Y-13029222D01*
X15100301Y-13029222D02*
X15090777Y-13010174D01*
X15090777Y-13010174D02*
X15071730Y-13000650D01*
X15071730Y-13000650D02*
X15043158Y-13000650D01*
X15043158Y-13000650D02*
X15024110Y-13010174D01*
X15024110Y-13010174D02*
X15014587Y-13019698D01*
X15224110Y-13133984D02*
X15205063Y-13124460D01*
X15205063Y-13124460D02*
X15195539Y-13114936D01*
X15195539Y-13114936D02*
X15186015Y-13095888D01*
X15186015Y-13095888D02*
X15186015Y-13038746D01*
X15186015Y-13038746D02*
X15195539Y-13019698D01*
X15195539Y-13019698D02*
X15205063Y-13010174D01*
X15205063Y-13010174D02*
X15224110Y-13000650D01*
X15224110Y-13000650D02*
X15252682Y-13000650D01*
X15252682Y-13000650D02*
X15271730Y-13010174D01*
X15271730Y-13010174D02*
X15281253Y-13019698D01*
X15281253Y-13019698D02*
X15290777Y-13038746D01*
X15290777Y-13038746D02*
X15290777Y-13095888D01*
X15290777Y-13095888D02*
X15281253Y-13114936D01*
X15281253Y-13114936D02*
X15271730Y-13124460D01*
X15271730Y-13124460D02*
X15252682Y-13133984D01*
X15252682Y-13133984D02*
X15224110Y-13133984D01*
X15405063Y-13133984D02*
X15386015Y-13124460D01*
X15386015Y-13124460D02*
X15376491Y-13105412D01*
X15376491Y-13105412D02*
X15376491Y-12933984D01*
X15557444Y-13124460D02*
X15538396Y-13133984D01*
X15538396Y-13133984D02*
X15500301Y-13133984D01*
X15500301Y-13133984D02*
X15481253Y-13124460D01*
X15481253Y-13124460D02*
X15471730Y-13105412D01*
X15471730Y-13105412D02*
X15471730Y-13029222D01*
X15471730Y-13029222D02*
X15481253Y-13010174D01*
X15481253Y-13010174D02*
X15500301Y-13000650D01*
X15500301Y-13000650D02*
X15538396Y-13000650D01*
X15538396Y-13000650D02*
X15557444Y-13010174D01*
X15557444Y-13010174D02*
X15566968Y-13029222D01*
X15566968Y-13029222D02*
X15566968Y-13048269D01*
X15566968Y-13048269D02*
X15471730Y-13067317D01*
X15643158Y-13124460D02*
X15662206Y-13133984D01*
X15662206Y-13133984D02*
X15700301Y-13133984D01*
X15700301Y-13133984D02*
X15719349Y-13124460D01*
X15719349Y-13124460D02*
X15728872Y-13105412D01*
X15728872Y-13105412D02*
X15728872Y-13095888D01*
X15728872Y-13095888D02*
X15719349Y-13076841D01*
X15719349Y-13076841D02*
X15700301Y-13067317D01*
X15700301Y-13067317D02*
X15671730Y-13067317D01*
X15671730Y-13067317D02*
X15652682Y-13057793D01*
X15652682Y-13057793D02*
X15643158Y-13038746D01*
X15643158Y-13038746D02*
X15643158Y-13029222D01*
X15643158Y-13029222D02*
X15652682Y-13010174D01*
X15652682Y-13010174D02*
X15671730Y-13000650D01*
X15671730Y-13000650D02*
X15700301Y-13000650D01*
X15700301Y-13000650D02*
X15719349Y-13010174D01*
X15795539Y-13210174D02*
X15805063Y-13200650D01*
X15805063Y-13200650D02*
X15824111Y-13172079D01*
X15824111Y-13172079D02*
X15833634Y-13153031D01*
X15833634Y-13153031D02*
X15843158Y-13124460D01*
X15843158Y-13124460D02*
X15852682Y-13076841D01*
X15852682Y-13076841D02*
X15852682Y-13038746D01*
X15852682Y-13038746D02*
X15843158Y-12991127D01*
X15843158Y-12991127D02*
X15833634Y-12962555D01*
X15833634Y-12962555D02*
X15824111Y-12943508D01*
X15824111Y-12943508D02*
X15805063Y-12914936D01*
X15805063Y-12914936D02*
X15795539Y-12905412D01*
D12*
X10830000Y-13306500D02*
G75*
G02*
X10797000Y-13306500I-16500J0D01*
G01*
X10797000Y-13306500D02*
G75*
G02*
X10830000Y-13306500I16500J0D01*
G01*
D11*
X11128872Y-13197984D02*
X11147920Y-13197984D01*
X11147920Y-13197984D02*
X11166967Y-13207508D01*
X11166967Y-13207508D02*
X11176491Y-13217031D01*
X11176491Y-13217031D02*
X11186015Y-13236079D01*
X11186015Y-13236079D02*
X11195539Y-13274174D01*
X11195539Y-13274174D02*
X11195539Y-13321793D01*
X11195539Y-13321793D02*
X11186015Y-13359888D01*
X11186015Y-13359888D02*
X11176491Y-13378936D01*
X11176491Y-13378936D02*
X11166967Y-13388460D01*
X11166967Y-13388460D02*
X11147920Y-13397984D01*
X11147920Y-13397984D02*
X11128872Y-13397984D01*
X11128872Y-13397984D02*
X11109824Y-13388460D01*
X11109824Y-13388460D02*
X11100301Y-13378936D01*
X11100301Y-13378936D02*
X11090777Y-13359888D01*
X11090777Y-13359888D02*
X11081253Y-13321793D01*
X11081253Y-13321793D02*
X11081253Y-13274174D01*
X11081253Y-13274174D02*
X11090777Y-13236079D01*
X11090777Y-13236079D02*
X11100301Y-13217031D01*
X11100301Y-13217031D02*
X11109824Y-13207508D01*
X11109824Y-13207508D02*
X11128872Y-13197984D01*
X11281253Y-13378936D02*
X11290777Y-13388460D01*
X11290777Y-13388460D02*
X11281253Y-13397984D01*
X11281253Y-13397984D02*
X11271729Y-13388460D01*
X11271729Y-13388460D02*
X11281253Y-13378936D01*
X11281253Y-13378936D02*
X11281253Y-13397984D01*
X11357443Y-13197984D02*
X11481253Y-13197984D01*
X11481253Y-13197984D02*
X11414586Y-13274174D01*
X11414586Y-13274174D02*
X11443158Y-13274174D01*
X11443158Y-13274174D02*
X11462205Y-13283698D01*
X11462205Y-13283698D02*
X11471729Y-13293222D01*
X11471729Y-13293222D02*
X11481253Y-13312269D01*
X11481253Y-13312269D02*
X11481253Y-13359888D01*
X11481253Y-13359888D02*
X11471729Y-13378936D01*
X11471729Y-13378936D02*
X11462205Y-13388460D01*
X11462205Y-13388460D02*
X11443158Y-13397984D01*
X11443158Y-13397984D02*
X11386015Y-13397984D01*
X11386015Y-13397984D02*
X11366967Y-13388460D01*
X11366967Y-13388460D02*
X11357443Y-13378936D01*
X11547920Y-13197984D02*
X11671729Y-13197984D01*
X11671729Y-13197984D02*
X11605062Y-13274174D01*
X11605062Y-13274174D02*
X11633634Y-13274174D01*
X11633634Y-13274174D02*
X11652682Y-13283698D01*
X11652682Y-13283698D02*
X11662205Y-13293222D01*
X11662205Y-13293222D02*
X11671729Y-13312269D01*
X11671729Y-13312269D02*
X11671729Y-13359888D01*
X11671729Y-13359888D02*
X11662205Y-13378936D01*
X11662205Y-13378936D02*
X11652682Y-13388460D01*
X11652682Y-13388460D02*
X11633634Y-13397984D01*
X11633634Y-13397984D02*
X11576491Y-13397984D01*
X11576491Y-13397984D02*
X11557443Y-13388460D01*
X11557443Y-13388460D02*
X11547920Y-13378936D01*
X11795539Y-13197984D02*
X11814586Y-13197984D01*
X11814586Y-13197984D02*
X11833634Y-13207508D01*
X11833634Y-13207508D02*
X11843158Y-13217031D01*
X11843158Y-13217031D02*
X11852682Y-13236079D01*
X11852682Y-13236079D02*
X11862205Y-13274174D01*
X11862205Y-13274174D02*
X11862205Y-13321793D01*
X11862205Y-13321793D02*
X11852682Y-13359888D01*
X11852682Y-13359888D02*
X11843158Y-13378936D01*
X11843158Y-13378936D02*
X11833634Y-13388460D01*
X11833634Y-13388460D02*
X11814586Y-13397984D01*
X11814586Y-13397984D02*
X11795539Y-13397984D01*
X11795539Y-13397984D02*
X11776491Y-13388460D01*
X11776491Y-13388460D02*
X11766967Y-13378936D01*
X11766967Y-13378936D02*
X11757443Y-13359888D01*
X11757443Y-13359888D02*
X11747920Y-13321793D01*
X11747920Y-13321793D02*
X11747920Y-13274174D01*
X11747920Y-13274174D02*
X11757443Y-13236079D01*
X11757443Y-13236079D02*
X11766967Y-13217031D01*
X11766967Y-13217031D02*
X11776491Y-13207508D01*
X11776491Y-13207508D02*
X11795539Y-13197984D01*
X11947920Y-13397984D02*
X11947920Y-13264650D01*
X11947920Y-13283698D02*
X11957443Y-13274174D01*
X11957443Y-13274174D02*
X11976491Y-13264650D01*
X11976491Y-13264650D02*
X12005063Y-13264650D01*
X12005063Y-13264650D02*
X12024110Y-13274174D01*
X12024110Y-13274174D02*
X12033634Y-13293222D01*
X12033634Y-13293222D02*
X12033634Y-13397984D01*
X12033634Y-13293222D02*
X12043158Y-13274174D01*
X12043158Y-13274174D02*
X12062205Y-13264650D01*
X12062205Y-13264650D02*
X12090777Y-13264650D01*
X12090777Y-13264650D02*
X12109824Y-13274174D01*
X12109824Y-13274174D02*
X12119348Y-13293222D01*
X12119348Y-13293222D02*
X12119348Y-13397984D01*
X12214586Y-13397984D02*
X12214586Y-13264650D01*
X12214586Y-13283698D02*
X12224110Y-13274174D01*
X12224110Y-13274174D02*
X12243158Y-13264650D01*
X12243158Y-13264650D02*
X12271729Y-13264650D01*
X12271729Y-13264650D02*
X12290777Y-13274174D01*
X12290777Y-13274174D02*
X12300301Y-13293222D01*
X12300301Y-13293222D02*
X12300301Y-13397984D01*
X12300301Y-13293222D02*
X12309824Y-13274174D01*
X12309824Y-13274174D02*
X12328872Y-13264650D01*
X12328872Y-13264650D02*
X12357443Y-13264650D01*
X12357443Y-13264650D02*
X12376491Y-13274174D01*
X12376491Y-13274174D02*
X12386015Y-13293222D01*
X12386015Y-13293222D02*
X12386015Y-13397984D01*
X12776491Y-13188460D02*
X12605063Y-13445603D01*
X13033634Y-13197984D02*
X13052682Y-13197984D01*
X13052682Y-13197984D02*
X13071729Y-13207508D01*
X13071729Y-13207508D02*
X13081253Y-13217031D01*
X13081253Y-13217031D02*
X13090777Y-13236079D01*
X13090777Y-13236079D02*
X13100301Y-13274174D01*
X13100301Y-13274174D02*
X13100301Y-13321793D01*
X13100301Y-13321793D02*
X13090777Y-13359888D01*
X13090777Y-13359888D02*
X13081253Y-13378936D01*
X13081253Y-13378936D02*
X13071729Y-13388460D01*
X13071729Y-13388460D02*
X13052682Y-13397984D01*
X13052682Y-13397984D02*
X13033634Y-13397984D01*
X13033634Y-13397984D02*
X13014586Y-13388460D01*
X13014586Y-13388460D02*
X13005063Y-13378936D01*
X13005063Y-13378936D02*
X12995539Y-13359888D01*
X12995539Y-13359888D02*
X12986015Y-13321793D01*
X12986015Y-13321793D02*
X12986015Y-13274174D01*
X12986015Y-13274174D02*
X12995539Y-13236079D01*
X12995539Y-13236079D02*
X13005063Y-13217031D01*
X13005063Y-13217031D02*
X13014586Y-13207508D01*
X13014586Y-13207508D02*
X13033634Y-13197984D01*
X13186015Y-13378936D02*
X13195539Y-13388460D01*
X13195539Y-13388460D02*
X13186015Y-13397984D01*
X13186015Y-13397984D02*
X13176491Y-13388460D01*
X13176491Y-13388460D02*
X13186015Y-13378936D01*
X13186015Y-13378936D02*
X13186015Y-13397984D01*
X13319348Y-13197984D02*
X13338396Y-13197984D01*
X13338396Y-13197984D02*
X13357444Y-13207508D01*
X13357444Y-13207508D02*
X13366967Y-13217031D01*
X13366967Y-13217031D02*
X13376491Y-13236079D01*
X13376491Y-13236079D02*
X13386015Y-13274174D01*
X13386015Y-13274174D02*
X13386015Y-13321793D01*
X13386015Y-13321793D02*
X13376491Y-13359888D01*
X13376491Y-13359888D02*
X13366967Y-13378936D01*
X13366967Y-13378936D02*
X13357444Y-13388460D01*
X13357444Y-13388460D02*
X13338396Y-13397984D01*
X13338396Y-13397984D02*
X13319348Y-13397984D01*
X13319348Y-13397984D02*
X13300301Y-13388460D01*
X13300301Y-13388460D02*
X13290777Y-13378936D01*
X13290777Y-13378936D02*
X13281253Y-13359888D01*
X13281253Y-13359888D02*
X13271729Y-13321793D01*
X13271729Y-13321793D02*
X13271729Y-13274174D01*
X13271729Y-13274174D02*
X13281253Y-13236079D01*
X13281253Y-13236079D02*
X13290777Y-13217031D01*
X13290777Y-13217031D02*
X13300301Y-13207508D01*
X13300301Y-13207508D02*
X13319348Y-13197984D01*
X13576491Y-13397984D02*
X13462206Y-13397984D01*
X13519348Y-13397984D02*
X13519348Y-13197984D01*
X13519348Y-13197984D02*
X13500301Y-13226555D01*
X13500301Y-13226555D02*
X13481253Y-13245603D01*
X13481253Y-13245603D02*
X13462206Y-13255127D01*
X13643158Y-13197984D02*
X13766967Y-13197984D01*
X13766967Y-13197984D02*
X13700301Y-13274174D01*
X13700301Y-13274174D02*
X13728872Y-13274174D01*
X13728872Y-13274174D02*
X13747920Y-13283698D01*
X13747920Y-13283698D02*
X13757444Y-13293222D01*
X13757444Y-13293222D02*
X13766967Y-13312269D01*
X13766967Y-13312269D02*
X13766967Y-13359888D01*
X13766967Y-13359888D02*
X13757444Y-13378936D01*
X13757444Y-13378936D02*
X13747920Y-13388460D01*
X13747920Y-13388460D02*
X13728872Y-13397984D01*
X13728872Y-13397984D02*
X13671729Y-13397984D01*
X13671729Y-13397984D02*
X13652682Y-13388460D01*
X13652682Y-13388460D02*
X13643158Y-13378936D01*
X13890777Y-13197984D02*
X13909825Y-13197984D01*
X13909825Y-13197984D02*
X13928872Y-13207508D01*
X13928872Y-13207508D02*
X13938396Y-13217031D01*
X13938396Y-13217031D02*
X13947920Y-13236079D01*
X13947920Y-13236079D02*
X13957444Y-13274174D01*
X13957444Y-13274174D02*
X13957444Y-13321793D01*
X13957444Y-13321793D02*
X13947920Y-13359888D01*
X13947920Y-13359888D02*
X13938396Y-13378936D01*
X13938396Y-13378936D02*
X13928872Y-13388460D01*
X13928872Y-13388460D02*
X13909825Y-13397984D01*
X13909825Y-13397984D02*
X13890777Y-13397984D01*
X13890777Y-13397984D02*
X13871729Y-13388460D01*
X13871729Y-13388460D02*
X13862206Y-13378936D01*
X13862206Y-13378936D02*
X13852682Y-13359888D01*
X13852682Y-13359888D02*
X13843158Y-13321793D01*
X13843158Y-13321793D02*
X13843158Y-13274174D01*
X13843158Y-13274174D02*
X13852682Y-13236079D01*
X13852682Y-13236079D02*
X13862206Y-13217031D01*
X13862206Y-13217031D02*
X13871729Y-13207508D01*
X13871729Y-13207508D02*
X13890777Y-13197984D01*
X14033634Y-13197984D02*
X14033634Y-13236079D01*
X14109825Y-13197984D02*
X14109825Y-13236079D01*
X14405063Y-13474174D02*
X14395539Y-13464650D01*
X14395539Y-13464650D02*
X14376491Y-13436079D01*
X14376491Y-13436079D02*
X14366968Y-13417031D01*
X14366968Y-13417031D02*
X14357444Y-13388460D01*
X14357444Y-13388460D02*
X14347920Y-13340841D01*
X14347920Y-13340841D02*
X14347920Y-13302746D01*
X14347920Y-13302746D02*
X14357444Y-13255127D01*
X14357444Y-13255127D02*
X14366968Y-13226555D01*
X14366968Y-13226555D02*
X14376491Y-13207508D01*
X14376491Y-13207508D02*
X14395539Y-13178936D01*
X14395539Y-13178936D02*
X14405063Y-13169412D01*
X14586015Y-13397984D02*
X14471729Y-13397984D01*
X14528872Y-13397984D02*
X14528872Y-13197984D01*
X14528872Y-13197984D02*
X14509825Y-13226555D01*
X14509825Y-13226555D02*
X14490777Y-13245603D01*
X14490777Y-13245603D02*
X14471729Y-13255127D01*
X14662206Y-13217031D02*
X14671729Y-13207508D01*
X14671729Y-13207508D02*
X14690777Y-13197984D01*
X14690777Y-13197984D02*
X14738396Y-13197984D01*
X14738396Y-13197984D02*
X14757444Y-13207508D01*
X14757444Y-13207508D02*
X14766968Y-13217031D01*
X14766968Y-13217031D02*
X14776491Y-13236079D01*
X14776491Y-13236079D02*
X14776491Y-13255127D01*
X14776491Y-13255127D02*
X14766968Y-13283698D01*
X14766968Y-13283698D02*
X14652682Y-13397984D01*
X14652682Y-13397984D02*
X14776491Y-13397984D01*
X15014587Y-13397984D02*
X15014587Y-13197984D01*
X15100301Y-13397984D02*
X15100301Y-13293222D01*
X15100301Y-13293222D02*
X15090777Y-13274174D01*
X15090777Y-13274174D02*
X15071730Y-13264650D01*
X15071730Y-13264650D02*
X15043158Y-13264650D01*
X15043158Y-13264650D02*
X15024110Y-13274174D01*
X15024110Y-13274174D02*
X15014587Y-13283698D01*
X15224110Y-13397984D02*
X15205063Y-13388460D01*
X15205063Y-13388460D02*
X15195539Y-13378936D01*
X15195539Y-13378936D02*
X15186015Y-13359888D01*
X15186015Y-13359888D02*
X15186015Y-13302746D01*
X15186015Y-13302746D02*
X15195539Y-13283698D01*
X15195539Y-13283698D02*
X15205063Y-13274174D01*
X15205063Y-13274174D02*
X15224110Y-13264650D01*
X15224110Y-13264650D02*
X15252682Y-13264650D01*
X15252682Y-13264650D02*
X15271730Y-13274174D01*
X15271730Y-13274174D02*
X15281253Y-13283698D01*
X15281253Y-13283698D02*
X15290777Y-13302746D01*
X15290777Y-13302746D02*
X15290777Y-13359888D01*
X15290777Y-13359888D02*
X15281253Y-13378936D01*
X15281253Y-13378936D02*
X15271730Y-13388460D01*
X15271730Y-13388460D02*
X15252682Y-13397984D01*
X15252682Y-13397984D02*
X15224110Y-13397984D01*
X15405063Y-13397984D02*
X15386015Y-13388460D01*
X15386015Y-13388460D02*
X15376491Y-13369412D01*
X15376491Y-13369412D02*
X15376491Y-13197984D01*
X15557444Y-13388460D02*
X15538396Y-13397984D01*
X15538396Y-13397984D02*
X15500301Y-13397984D01*
X15500301Y-13397984D02*
X15481253Y-13388460D01*
X15481253Y-13388460D02*
X15471730Y-13369412D01*
X15471730Y-13369412D02*
X15471730Y-13293222D01*
X15471730Y-13293222D02*
X15481253Y-13274174D01*
X15481253Y-13274174D02*
X15500301Y-13264650D01*
X15500301Y-13264650D02*
X15538396Y-13264650D01*
X15538396Y-13264650D02*
X15557444Y-13274174D01*
X15557444Y-13274174D02*
X15566968Y-13293222D01*
X15566968Y-13293222D02*
X15566968Y-13312269D01*
X15566968Y-13312269D02*
X15471730Y-13331317D01*
X15643158Y-13388460D02*
X15662206Y-13397984D01*
X15662206Y-13397984D02*
X15700301Y-13397984D01*
X15700301Y-13397984D02*
X15719349Y-13388460D01*
X15719349Y-13388460D02*
X15728872Y-13369412D01*
X15728872Y-13369412D02*
X15728872Y-13359888D01*
X15728872Y-13359888D02*
X15719349Y-13340841D01*
X15719349Y-13340841D02*
X15700301Y-13331317D01*
X15700301Y-13331317D02*
X15671730Y-13331317D01*
X15671730Y-13331317D02*
X15652682Y-13321793D01*
X15652682Y-13321793D02*
X15643158Y-13302746D01*
X15643158Y-13302746D02*
X15643158Y-13293222D01*
X15643158Y-13293222D02*
X15652682Y-13274174D01*
X15652682Y-13274174D02*
X15671730Y-13264650D01*
X15671730Y-13264650D02*
X15700301Y-13264650D01*
X15700301Y-13264650D02*
X15719349Y-13274174D01*
X15795539Y-13474174D02*
X15805063Y-13464650D01*
X15805063Y-13464650D02*
X15824111Y-13436079D01*
X15824111Y-13436079D02*
X15833634Y-13417031D01*
X15833634Y-13417031D02*
X15843158Y-13388460D01*
X15843158Y-13388460D02*
X15852682Y-13340841D01*
X15852682Y-13340841D02*
X15852682Y-13302746D01*
X15852682Y-13302746D02*
X15843158Y-13255127D01*
X15843158Y-13255127D02*
X15833634Y-13226555D01*
X15833634Y-13226555D02*
X15824111Y-13207508D01*
X15824111Y-13207508D02*
X15805063Y-13178936D01*
X15805063Y-13178936D02*
X15795539Y-13169412D01*
D12*
X10790630Y-13531130D02*
X10790630Y-13609870D01*
X10751260Y-13570500D02*
X10830000Y-13570500D01*
D11*
X11128872Y-13461984D02*
X11147920Y-13461984D01*
X11147920Y-13461984D02*
X11166967Y-13471508D01*
X11166967Y-13471508D02*
X11176491Y-13481031D01*
X11176491Y-13481031D02*
X11186015Y-13500079D01*
X11186015Y-13500079D02*
X11195539Y-13538174D01*
X11195539Y-13538174D02*
X11195539Y-13585793D01*
X11195539Y-13585793D02*
X11186015Y-13623888D01*
X11186015Y-13623888D02*
X11176491Y-13642936D01*
X11176491Y-13642936D02*
X11166967Y-13652460D01*
X11166967Y-13652460D02*
X11147920Y-13661984D01*
X11147920Y-13661984D02*
X11128872Y-13661984D01*
X11128872Y-13661984D02*
X11109824Y-13652460D01*
X11109824Y-13652460D02*
X11100301Y-13642936D01*
X11100301Y-13642936D02*
X11090777Y-13623888D01*
X11090777Y-13623888D02*
X11081253Y-13585793D01*
X11081253Y-13585793D02*
X11081253Y-13538174D01*
X11081253Y-13538174D02*
X11090777Y-13500079D01*
X11090777Y-13500079D02*
X11100301Y-13481031D01*
X11100301Y-13481031D02*
X11109824Y-13471508D01*
X11109824Y-13471508D02*
X11128872Y-13461984D01*
X11281253Y-13642936D02*
X11290777Y-13652460D01*
X11290777Y-13652460D02*
X11281253Y-13661984D01*
X11281253Y-13661984D02*
X11271729Y-13652460D01*
X11271729Y-13652460D02*
X11281253Y-13642936D01*
X11281253Y-13642936D02*
X11281253Y-13661984D01*
X11357443Y-13461984D02*
X11490777Y-13461984D01*
X11490777Y-13461984D02*
X11405062Y-13661984D01*
X11595539Y-13547698D02*
X11576491Y-13538174D01*
X11576491Y-13538174D02*
X11566967Y-13528650D01*
X11566967Y-13528650D02*
X11557443Y-13509603D01*
X11557443Y-13509603D02*
X11557443Y-13500079D01*
X11557443Y-13500079D02*
X11566967Y-13481031D01*
X11566967Y-13481031D02*
X11576491Y-13471508D01*
X11576491Y-13471508D02*
X11595539Y-13461984D01*
X11595539Y-13461984D02*
X11633634Y-13461984D01*
X11633634Y-13461984D02*
X11652682Y-13471508D01*
X11652682Y-13471508D02*
X11662205Y-13481031D01*
X11662205Y-13481031D02*
X11671729Y-13500079D01*
X11671729Y-13500079D02*
X11671729Y-13509603D01*
X11671729Y-13509603D02*
X11662205Y-13528650D01*
X11662205Y-13528650D02*
X11652682Y-13538174D01*
X11652682Y-13538174D02*
X11633634Y-13547698D01*
X11633634Y-13547698D02*
X11595539Y-13547698D01*
X11595539Y-13547698D02*
X11576491Y-13557222D01*
X11576491Y-13557222D02*
X11566967Y-13566746D01*
X11566967Y-13566746D02*
X11557443Y-13585793D01*
X11557443Y-13585793D02*
X11557443Y-13623888D01*
X11557443Y-13623888D02*
X11566967Y-13642936D01*
X11566967Y-13642936D02*
X11576491Y-13652460D01*
X11576491Y-13652460D02*
X11595539Y-13661984D01*
X11595539Y-13661984D02*
X11633634Y-13661984D01*
X11633634Y-13661984D02*
X11652682Y-13652460D01*
X11652682Y-13652460D02*
X11662205Y-13642936D01*
X11662205Y-13642936D02*
X11671729Y-13623888D01*
X11671729Y-13623888D02*
X11671729Y-13585793D01*
X11671729Y-13585793D02*
X11662205Y-13566746D01*
X11662205Y-13566746D02*
X11652682Y-13557222D01*
X11652682Y-13557222D02*
X11633634Y-13547698D01*
X11738396Y-13461984D02*
X11871729Y-13461984D01*
X11871729Y-13461984D02*
X11786015Y-13661984D01*
X11947920Y-13661984D02*
X11947920Y-13528650D01*
X11947920Y-13547698D02*
X11957443Y-13538174D01*
X11957443Y-13538174D02*
X11976491Y-13528650D01*
X11976491Y-13528650D02*
X12005063Y-13528650D01*
X12005063Y-13528650D02*
X12024110Y-13538174D01*
X12024110Y-13538174D02*
X12033634Y-13557222D01*
X12033634Y-13557222D02*
X12033634Y-13661984D01*
X12033634Y-13557222D02*
X12043158Y-13538174D01*
X12043158Y-13538174D02*
X12062205Y-13528650D01*
X12062205Y-13528650D02*
X12090777Y-13528650D01*
X12090777Y-13528650D02*
X12109824Y-13538174D01*
X12109824Y-13538174D02*
X12119348Y-13557222D01*
X12119348Y-13557222D02*
X12119348Y-13661984D01*
X12214586Y-13661984D02*
X12214586Y-13528650D01*
X12214586Y-13547698D02*
X12224110Y-13538174D01*
X12224110Y-13538174D02*
X12243158Y-13528650D01*
X12243158Y-13528650D02*
X12271729Y-13528650D01*
X12271729Y-13528650D02*
X12290777Y-13538174D01*
X12290777Y-13538174D02*
X12300301Y-13557222D01*
X12300301Y-13557222D02*
X12300301Y-13661984D01*
X12300301Y-13557222D02*
X12309824Y-13538174D01*
X12309824Y-13538174D02*
X12328872Y-13528650D01*
X12328872Y-13528650D02*
X12357443Y-13528650D01*
X12357443Y-13528650D02*
X12376491Y-13538174D01*
X12376491Y-13538174D02*
X12386015Y-13557222D01*
X12386015Y-13557222D02*
X12386015Y-13661984D01*
X12776491Y-13452460D02*
X12605063Y-13709603D01*
X13033634Y-13461984D02*
X13052682Y-13461984D01*
X13052682Y-13461984D02*
X13071729Y-13471508D01*
X13071729Y-13471508D02*
X13081253Y-13481031D01*
X13081253Y-13481031D02*
X13090777Y-13500079D01*
X13090777Y-13500079D02*
X13100301Y-13538174D01*
X13100301Y-13538174D02*
X13100301Y-13585793D01*
X13100301Y-13585793D02*
X13090777Y-13623888D01*
X13090777Y-13623888D02*
X13081253Y-13642936D01*
X13081253Y-13642936D02*
X13071729Y-13652460D01*
X13071729Y-13652460D02*
X13052682Y-13661984D01*
X13052682Y-13661984D02*
X13033634Y-13661984D01*
X13033634Y-13661984D02*
X13014586Y-13652460D01*
X13014586Y-13652460D02*
X13005063Y-13642936D01*
X13005063Y-13642936D02*
X12995539Y-13623888D01*
X12995539Y-13623888D02*
X12986015Y-13585793D01*
X12986015Y-13585793D02*
X12986015Y-13538174D01*
X12986015Y-13538174D02*
X12995539Y-13500079D01*
X12995539Y-13500079D02*
X13005063Y-13481031D01*
X13005063Y-13481031D02*
X13014586Y-13471508D01*
X13014586Y-13471508D02*
X13033634Y-13461984D01*
X13186015Y-13642936D02*
X13195539Y-13652460D01*
X13195539Y-13652460D02*
X13186015Y-13661984D01*
X13186015Y-13661984D02*
X13176491Y-13652460D01*
X13176491Y-13652460D02*
X13186015Y-13642936D01*
X13186015Y-13642936D02*
X13186015Y-13661984D01*
X13319348Y-13461984D02*
X13338396Y-13461984D01*
X13338396Y-13461984D02*
X13357444Y-13471508D01*
X13357444Y-13471508D02*
X13366967Y-13481031D01*
X13366967Y-13481031D02*
X13376491Y-13500079D01*
X13376491Y-13500079D02*
X13386015Y-13538174D01*
X13386015Y-13538174D02*
X13386015Y-13585793D01*
X13386015Y-13585793D02*
X13376491Y-13623888D01*
X13376491Y-13623888D02*
X13366967Y-13642936D01*
X13366967Y-13642936D02*
X13357444Y-13652460D01*
X13357444Y-13652460D02*
X13338396Y-13661984D01*
X13338396Y-13661984D02*
X13319348Y-13661984D01*
X13319348Y-13661984D02*
X13300301Y-13652460D01*
X13300301Y-13652460D02*
X13290777Y-13642936D01*
X13290777Y-13642936D02*
X13281253Y-13623888D01*
X13281253Y-13623888D02*
X13271729Y-13585793D01*
X13271729Y-13585793D02*
X13271729Y-13538174D01*
X13271729Y-13538174D02*
X13281253Y-13500079D01*
X13281253Y-13500079D02*
X13290777Y-13481031D01*
X13290777Y-13481031D02*
X13300301Y-13471508D01*
X13300301Y-13471508D02*
X13319348Y-13461984D01*
X13452682Y-13461984D02*
X13576491Y-13461984D01*
X13576491Y-13461984D02*
X13509825Y-13538174D01*
X13509825Y-13538174D02*
X13538396Y-13538174D01*
X13538396Y-13538174D02*
X13557444Y-13547698D01*
X13557444Y-13547698D02*
X13566967Y-13557222D01*
X13566967Y-13557222D02*
X13576491Y-13576269D01*
X13576491Y-13576269D02*
X13576491Y-13623888D01*
X13576491Y-13623888D02*
X13566967Y-13642936D01*
X13566967Y-13642936D02*
X13557444Y-13652460D01*
X13557444Y-13652460D02*
X13538396Y-13661984D01*
X13538396Y-13661984D02*
X13481253Y-13661984D01*
X13481253Y-13661984D02*
X13462206Y-13652460D01*
X13462206Y-13652460D02*
X13452682Y-13642936D01*
X13766967Y-13661984D02*
X13652682Y-13661984D01*
X13709825Y-13661984D02*
X13709825Y-13461984D01*
X13709825Y-13461984D02*
X13690777Y-13490555D01*
X13690777Y-13490555D02*
X13671729Y-13509603D01*
X13671729Y-13509603D02*
X13652682Y-13519127D01*
X13890777Y-13461984D02*
X13909825Y-13461984D01*
X13909825Y-13461984D02*
X13928872Y-13471508D01*
X13928872Y-13471508D02*
X13938396Y-13481031D01*
X13938396Y-13481031D02*
X13947920Y-13500079D01*
X13947920Y-13500079D02*
X13957444Y-13538174D01*
X13957444Y-13538174D02*
X13957444Y-13585793D01*
X13957444Y-13585793D02*
X13947920Y-13623888D01*
X13947920Y-13623888D02*
X13938396Y-13642936D01*
X13938396Y-13642936D02*
X13928872Y-13652460D01*
X13928872Y-13652460D02*
X13909825Y-13661984D01*
X13909825Y-13661984D02*
X13890777Y-13661984D01*
X13890777Y-13661984D02*
X13871729Y-13652460D01*
X13871729Y-13652460D02*
X13862206Y-13642936D01*
X13862206Y-13642936D02*
X13852682Y-13623888D01*
X13852682Y-13623888D02*
X13843158Y-13585793D01*
X13843158Y-13585793D02*
X13843158Y-13538174D01*
X13843158Y-13538174D02*
X13852682Y-13500079D01*
X13852682Y-13500079D02*
X13862206Y-13481031D01*
X13862206Y-13481031D02*
X13871729Y-13471508D01*
X13871729Y-13471508D02*
X13890777Y-13461984D01*
X14033634Y-13461984D02*
X14033634Y-13500079D01*
X14109825Y-13461984D02*
X14109825Y-13500079D01*
X14405063Y-13738174D02*
X14395539Y-13728650D01*
X14395539Y-13728650D02*
X14376491Y-13700079D01*
X14376491Y-13700079D02*
X14366968Y-13681031D01*
X14366968Y-13681031D02*
X14357444Y-13652460D01*
X14357444Y-13652460D02*
X14347920Y-13604841D01*
X14347920Y-13604841D02*
X14347920Y-13566746D01*
X14347920Y-13566746D02*
X14357444Y-13519127D01*
X14357444Y-13519127D02*
X14366968Y-13490555D01*
X14366968Y-13490555D02*
X14376491Y-13471508D01*
X14376491Y-13471508D02*
X14395539Y-13442936D01*
X14395539Y-13442936D02*
X14405063Y-13433412D01*
X14566968Y-13461984D02*
X14528872Y-13461984D01*
X14528872Y-13461984D02*
X14509825Y-13471508D01*
X14509825Y-13471508D02*
X14500301Y-13481031D01*
X14500301Y-13481031D02*
X14481253Y-13509603D01*
X14481253Y-13509603D02*
X14471729Y-13547698D01*
X14471729Y-13547698D02*
X14471729Y-13623888D01*
X14471729Y-13623888D02*
X14481253Y-13642936D01*
X14481253Y-13642936D02*
X14490777Y-13652460D01*
X14490777Y-13652460D02*
X14509825Y-13661984D01*
X14509825Y-13661984D02*
X14547920Y-13661984D01*
X14547920Y-13661984D02*
X14566968Y-13652460D01*
X14566968Y-13652460D02*
X14576491Y-13642936D01*
X14576491Y-13642936D02*
X14586015Y-13623888D01*
X14586015Y-13623888D02*
X14586015Y-13576269D01*
X14586015Y-13576269D02*
X14576491Y-13557222D01*
X14576491Y-13557222D02*
X14566968Y-13547698D01*
X14566968Y-13547698D02*
X14547920Y-13538174D01*
X14547920Y-13538174D02*
X14509825Y-13538174D01*
X14509825Y-13538174D02*
X14490777Y-13547698D01*
X14490777Y-13547698D02*
X14481253Y-13557222D01*
X14481253Y-13557222D02*
X14471729Y-13576269D01*
X14824110Y-13661984D02*
X14824110Y-13461984D01*
X14909825Y-13661984D02*
X14909825Y-13557222D01*
X14909825Y-13557222D02*
X14900301Y-13538174D01*
X14900301Y-13538174D02*
X14881253Y-13528650D01*
X14881253Y-13528650D02*
X14852682Y-13528650D01*
X14852682Y-13528650D02*
X14833634Y-13538174D01*
X14833634Y-13538174D02*
X14824110Y-13547698D01*
X15033634Y-13661984D02*
X15014587Y-13652460D01*
X15014587Y-13652460D02*
X15005063Y-13642936D01*
X15005063Y-13642936D02*
X14995539Y-13623888D01*
X14995539Y-13623888D02*
X14995539Y-13566746D01*
X14995539Y-13566746D02*
X15005063Y-13547698D01*
X15005063Y-13547698D02*
X15014587Y-13538174D01*
X15014587Y-13538174D02*
X15033634Y-13528650D01*
X15033634Y-13528650D02*
X15062206Y-13528650D01*
X15062206Y-13528650D02*
X15081253Y-13538174D01*
X15081253Y-13538174D02*
X15090777Y-13547698D01*
X15090777Y-13547698D02*
X15100301Y-13566746D01*
X15100301Y-13566746D02*
X15100301Y-13623888D01*
X15100301Y-13623888D02*
X15090777Y-13642936D01*
X15090777Y-13642936D02*
X15081253Y-13652460D01*
X15081253Y-13652460D02*
X15062206Y-13661984D01*
X15062206Y-13661984D02*
X15033634Y-13661984D01*
X15214587Y-13661984D02*
X15195539Y-13652460D01*
X15195539Y-13652460D02*
X15186015Y-13633412D01*
X15186015Y-13633412D02*
X15186015Y-13461984D01*
X15366968Y-13652460D02*
X15347920Y-13661984D01*
X15347920Y-13661984D02*
X15309825Y-13661984D01*
X15309825Y-13661984D02*
X15290777Y-13652460D01*
X15290777Y-13652460D02*
X15281253Y-13633412D01*
X15281253Y-13633412D02*
X15281253Y-13557222D01*
X15281253Y-13557222D02*
X15290777Y-13538174D01*
X15290777Y-13538174D02*
X15309825Y-13528650D01*
X15309825Y-13528650D02*
X15347920Y-13528650D01*
X15347920Y-13528650D02*
X15366968Y-13538174D01*
X15366968Y-13538174D02*
X15376491Y-13557222D01*
X15376491Y-13557222D02*
X15376491Y-13576269D01*
X15376491Y-13576269D02*
X15281253Y-13595317D01*
X15452682Y-13652460D02*
X15471730Y-13661984D01*
X15471730Y-13661984D02*
X15509825Y-13661984D01*
X15509825Y-13661984D02*
X15528872Y-13652460D01*
X15528872Y-13652460D02*
X15538396Y-13633412D01*
X15538396Y-13633412D02*
X15538396Y-13623888D01*
X15538396Y-13623888D02*
X15528872Y-13604841D01*
X15528872Y-13604841D02*
X15509825Y-13595317D01*
X15509825Y-13595317D02*
X15481253Y-13595317D01*
X15481253Y-13595317D02*
X15462206Y-13585793D01*
X15462206Y-13585793D02*
X15452682Y-13566746D01*
X15452682Y-13566746D02*
X15452682Y-13557222D01*
X15452682Y-13557222D02*
X15462206Y-13538174D01*
X15462206Y-13538174D02*
X15481253Y-13528650D01*
X15481253Y-13528650D02*
X15509825Y-13528650D01*
X15509825Y-13528650D02*
X15528872Y-13538174D01*
X15605063Y-13738174D02*
X15614587Y-13728650D01*
X15614587Y-13728650D02*
X15633634Y-13700079D01*
X15633634Y-13700079D02*
X15643158Y-13681031D01*
X15643158Y-13681031D02*
X15652682Y-13652460D01*
X15652682Y-13652460D02*
X15662206Y-13604841D01*
X15662206Y-13604841D02*
X15662206Y-13566746D01*
X15662206Y-13566746D02*
X15652682Y-13519127D01*
X15652682Y-13519127D02*
X15643158Y-13490555D01*
X15643158Y-13490555D02*
X15633634Y-13471508D01*
X15633634Y-13471508D02*
X15614587Y-13442936D01*
X15614587Y-13442936D02*
X15605063Y-13433412D01*
D12*
X10818097Y-13863237D02*
X10818097Y-13805763D01*
X10760623Y-13805763D01*
X10760623Y-13863237D01*
X10818097Y-13863237D01*
D11*
X11128872Y-13725984D02*
X11147920Y-13725984D01*
X11147920Y-13725984D02*
X11166967Y-13735508D01*
X11166967Y-13735508D02*
X11176491Y-13745031D01*
X11176491Y-13745031D02*
X11186015Y-13764079D01*
X11186015Y-13764079D02*
X11195539Y-13802174D01*
X11195539Y-13802174D02*
X11195539Y-13849793D01*
X11195539Y-13849793D02*
X11186015Y-13887888D01*
X11186015Y-13887888D02*
X11176491Y-13906936D01*
X11176491Y-13906936D02*
X11166967Y-13916460D01*
X11166967Y-13916460D02*
X11147920Y-13925984D01*
X11147920Y-13925984D02*
X11128872Y-13925984D01*
X11128872Y-13925984D02*
X11109824Y-13916460D01*
X11109824Y-13916460D02*
X11100301Y-13906936D01*
X11100301Y-13906936D02*
X11090777Y-13887888D01*
X11090777Y-13887888D02*
X11081253Y-13849793D01*
X11081253Y-13849793D02*
X11081253Y-13802174D01*
X11081253Y-13802174D02*
X11090777Y-13764079D01*
X11090777Y-13764079D02*
X11100301Y-13745031D01*
X11100301Y-13745031D02*
X11109824Y-13735508D01*
X11109824Y-13735508D02*
X11128872Y-13725984D01*
X11281253Y-13906936D02*
X11290777Y-13916460D01*
X11290777Y-13916460D02*
X11281253Y-13925984D01*
X11281253Y-13925984D02*
X11271729Y-13916460D01*
X11271729Y-13916460D02*
X11281253Y-13906936D01*
X11281253Y-13906936D02*
X11281253Y-13925984D01*
X11405062Y-13811698D02*
X11386015Y-13802174D01*
X11386015Y-13802174D02*
X11376491Y-13792650D01*
X11376491Y-13792650D02*
X11366967Y-13773603D01*
X11366967Y-13773603D02*
X11366967Y-13764079D01*
X11366967Y-13764079D02*
X11376491Y-13745031D01*
X11376491Y-13745031D02*
X11386015Y-13735508D01*
X11386015Y-13735508D02*
X11405062Y-13725984D01*
X11405062Y-13725984D02*
X11443158Y-13725984D01*
X11443158Y-13725984D02*
X11462205Y-13735508D01*
X11462205Y-13735508D02*
X11471729Y-13745031D01*
X11471729Y-13745031D02*
X11481253Y-13764079D01*
X11481253Y-13764079D02*
X11481253Y-13773603D01*
X11481253Y-13773603D02*
X11471729Y-13792650D01*
X11471729Y-13792650D02*
X11462205Y-13802174D01*
X11462205Y-13802174D02*
X11443158Y-13811698D01*
X11443158Y-13811698D02*
X11405062Y-13811698D01*
X11405062Y-13811698D02*
X11386015Y-13821222D01*
X11386015Y-13821222D02*
X11376491Y-13830746D01*
X11376491Y-13830746D02*
X11366967Y-13849793D01*
X11366967Y-13849793D02*
X11366967Y-13887888D01*
X11366967Y-13887888D02*
X11376491Y-13906936D01*
X11376491Y-13906936D02*
X11386015Y-13916460D01*
X11386015Y-13916460D02*
X11405062Y-13925984D01*
X11405062Y-13925984D02*
X11443158Y-13925984D01*
X11443158Y-13925984D02*
X11462205Y-13916460D01*
X11462205Y-13916460D02*
X11471729Y-13906936D01*
X11471729Y-13906936D02*
X11481253Y-13887888D01*
X11481253Y-13887888D02*
X11481253Y-13849793D01*
X11481253Y-13849793D02*
X11471729Y-13830746D01*
X11471729Y-13830746D02*
X11462205Y-13821222D01*
X11462205Y-13821222D02*
X11443158Y-13811698D01*
X11671729Y-13925984D02*
X11557443Y-13925984D01*
X11614586Y-13925984D02*
X11614586Y-13725984D01*
X11614586Y-13725984D02*
X11595539Y-13754555D01*
X11595539Y-13754555D02*
X11576491Y-13773603D01*
X11576491Y-13773603D02*
X11557443Y-13783127D01*
X11738396Y-13725984D02*
X11862205Y-13725984D01*
X11862205Y-13725984D02*
X11795539Y-13802174D01*
X11795539Y-13802174D02*
X11824110Y-13802174D01*
X11824110Y-13802174D02*
X11843158Y-13811698D01*
X11843158Y-13811698D02*
X11852682Y-13821222D01*
X11852682Y-13821222D02*
X11862205Y-13840269D01*
X11862205Y-13840269D02*
X11862205Y-13887888D01*
X11862205Y-13887888D02*
X11852682Y-13906936D01*
X11852682Y-13906936D02*
X11843158Y-13916460D01*
X11843158Y-13916460D02*
X11824110Y-13925984D01*
X11824110Y-13925984D02*
X11766967Y-13925984D01*
X11766967Y-13925984D02*
X11747920Y-13916460D01*
X11747920Y-13916460D02*
X11738396Y-13906936D01*
X11947920Y-13925984D02*
X11947920Y-13792650D01*
X11947920Y-13811698D02*
X11957443Y-13802174D01*
X11957443Y-13802174D02*
X11976491Y-13792650D01*
X11976491Y-13792650D02*
X12005063Y-13792650D01*
X12005063Y-13792650D02*
X12024110Y-13802174D01*
X12024110Y-13802174D02*
X12033634Y-13821222D01*
X12033634Y-13821222D02*
X12033634Y-13925984D01*
X12033634Y-13821222D02*
X12043158Y-13802174D01*
X12043158Y-13802174D02*
X12062205Y-13792650D01*
X12062205Y-13792650D02*
X12090777Y-13792650D01*
X12090777Y-13792650D02*
X12109824Y-13802174D01*
X12109824Y-13802174D02*
X12119348Y-13821222D01*
X12119348Y-13821222D02*
X12119348Y-13925984D01*
X12214586Y-13925984D02*
X12214586Y-13792650D01*
X12214586Y-13811698D02*
X12224110Y-13802174D01*
X12224110Y-13802174D02*
X12243158Y-13792650D01*
X12243158Y-13792650D02*
X12271729Y-13792650D01*
X12271729Y-13792650D02*
X12290777Y-13802174D01*
X12290777Y-13802174D02*
X12300301Y-13821222D01*
X12300301Y-13821222D02*
X12300301Y-13925984D01*
X12300301Y-13821222D02*
X12309824Y-13802174D01*
X12309824Y-13802174D02*
X12328872Y-13792650D01*
X12328872Y-13792650D02*
X12357443Y-13792650D01*
X12357443Y-13792650D02*
X12376491Y-13802174D01*
X12376491Y-13802174D02*
X12386015Y-13821222D01*
X12386015Y-13821222D02*
X12386015Y-13925984D01*
X12776491Y-13716460D02*
X12605063Y-13973603D01*
X13033634Y-13725984D02*
X13052682Y-13725984D01*
X13052682Y-13725984D02*
X13071729Y-13735508D01*
X13071729Y-13735508D02*
X13081253Y-13745031D01*
X13081253Y-13745031D02*
X13090777Y-13764079D01*
X13090777Y-13764079D02*
X13100301Y-13802174D01*
X13100301Y-13802174D02*
X13100301Y-13849793D01*
X13100301Y-13849793D02*
X13090777Y-13887888D01*
X13090777Y-13887888D02*
X13081253Y-13906936D01*
X13081253Y-13906936D02*
X13071729Y-13916460D01*
X13071729Y-13916460D02*
X13052682Y-13925984D01*
X13052682Y-13925984D02*
X13033634Y-13925984D01*
X13033634Y-13925984D02*
X13014586Y-13916460D01*
X13014586Y-13916460D02*
X13005063Y-13906936D01*
X13005063Y-13906936D02*
X12995539Y-13887888D01*
X12995539Y-13887888D02*
X12986015Y-13849793D01*
X12986015Y-13849793D02*
X12986015Y-13802174D01*
X12986015Y-13802174D02*
X12995539Y-13764079D01*
X12995539Y-13764079D02*
X13005063Y-13745031D01*
X13005063Y-13745031D02*
X13014586Y-13735508D01*
X13014586Y-13735508D02*
X13033634Y-13725984D01*
X13186015Y-13906936D02*
X13195539Y-13916460D01*
X13195539Y-13916460D02*
X13186015Y-13925984D01*
X13186015Y-13925984D02*
X13176491Y-13916460D01*
X13176491Y-13916460D02*
X13186015Y-13906936D01*
X13186015Y-13906936D02*
X13186015Y-13925984D01*
X13319348Y-13725984D02*
X13338396Y-13725984D01*
X13338396Y-13725984D02*
X13357444Y-13735508D01*
X13357444Y-13735508D02*
X13366967Y-13745031D01*
X13366967Y-13745031D02*
X13376491Y-13764079D01*
X13376491Y-13764079D02*
X13386015Y-13802174D01*
X13386015Y-13802174D02*
X13386015Y-13849793D01*
X13386015Y-13849793D02*
X13376491Y-13887888D01*
X13376491Y-13887888D02*
X13366967Y-13906936D01*
X13366967Y-13906936D02*
X13357444Y-13916460D01*
X13357444Y-13916460D02*
X13338396Y-13925984D01*
X13338396Y-13925984D02*
X13319348Y-13925984D01*
X13319348Y-13925984D02*
X13300301Y-13916460D01*
X13300301Y-13916460D02*
X13290777Y-13906936D01*
X13290777Y-13906936D02*
X13281253Y-13887888D01*
X13281253Y-13887888D02*
X13271729Y-13849793D01*
X13271729Y-13849793D02*
X13271729Y-13802174D01*
X13271729Y-13802174D02*
X13281253Y-13764079D01*
X13281253Y-13764079D02*
X13290777Y-13745031D01*
X13290777Y-13745031D02*
X13300301Y-13735508D01*
X13300301Y-13735508D02*
X13319348Y-13725984D01*
X13452682Y-13725984D02*
X13576491Y-13725984D01*
X13576491Y-13725984D02*
X13509825Y-13802174D01*
X13509825Y-13802174D02*
X13538396Y-13802174D01*
X13538396Y-13802174D02*
X13557444Y-13811698D01*
X13557444Y-13811698D02*
X13566967Y-13821222D01*
X13566967Y-13821222D02*
X13576491Y-13840269D01*
X13576491Y-13840269D02*
X13576491Y-13887888D01*
X13576491Y-13887888D02*
X13566967Y-13906936D01*
X13566967Y-13906936D02*
X13557444Y-13916460D01*
X13557444Y-13916460D02*
X13538396Y-13925984D01*
X13538396Y-13925984D02*
X13481253Y-13925984D01*
X13481253Y-13925984D02*
X13462206Y-13916460D01*
X13462206Y-13916460D02*
X13452682Y-13906936D01*
X13652682Y-13745031D02*
X13662206Y-13735508D01*
X13662206Y-13735508D02*
X13681253Y-13725984D01*
X13681253Y-13725984D02*
X13728872Y-13725984D01*
X13728872Y-13725984D02*
X13747920Y-13735508D01*
X13747920Y-13735508D02*
X13757444Y-13745031D01*
X13757444Y-13745031D02*
X13766967Y-13764079D01*
X13766967Y-13764079D02*
X13766967Y-13783127D01*
X13766967Y-13783127D02*
X13757444Y-13811698D01*
X13757444Y-13811698D02*
X13643158Y-13925984D01*
X13643158Y-13925984D02*
X13766967Y-13925984D01*
X13890777Y-13725984D02*
X13909825Y-13725984D01*
X13909825Y-13725984D02*
X13928872Y-13735508D01*
X13928872Y-13735508D02*
X13938396Y-13745031D01*
X13938396Y-13745031D02*
X13947920Y-13764079D01*
X13947920Y-13764079D02*
X13957444Y-13802174D01*
X13957444Y-13802174D02*
X13957444Y-13849793D01*
X13957444Y-13849793D02*
X13947920Y-13887888D01*
X13947920Y-13887888D02*
X13938396Y-13906936D01*
X13938396Y-13906936D02*
X13928872Y-13916460D01*
X13928872Y-13916460D02*
X13909825Y-13925984D01*
X13909825Y-13925984D02*
X13890777Y-13925984D01*
X13890777Y-13925984D02*
X13871729Y-13916460D01*
X13871729Y-13916460D02*
X13862206Y-13906936D01*
X13862206Y-13906936D02*
X13852682Y-13887888D01*
X13852682Y-13887888D02*
X13843158Y-13849793D01*
X13843158Y-13849793D02*
X13843158Y-13802174D01*
X13843158Y-13802174D02*
X13852682Y-13764079D01*
X13852682Y-13764079D02*
X13862206Y-13745031D01*
X13862206Y-13745031D02*
X13871729Y-13735508D01*
X13871729Y-13735508D02*
X13890777Y-13725984D01*
X14033634Y-13725984D02*
X14033634Y-13764079D01*
X14109825Y-13725984D02*
X14109825Y-13764079D01*
X14405063Y-14002174D02*
X14395539Y-13992650D01*
X14395539Y-13992650D02*
X14376491Y-13964079D01*
X14376491Y-13964079D02*
X14366968Y-13945031D01*
X14366968Y-13945031D02*
X14357444Y-13916460D01*
X14357444Y-13916460D02*
X14347920Y-13868841D01*
X14347920Y-13868841D02*
X14347920Y-13830746D01*
X14347920Y-13830746D02*
X14357444Y-13783127D01*
X14357444Y-13783127D02*
X14366968Y-13754555D01*
X14366968Y-13754555D02*
X14376491Y-13735508D01*
X14376491Y-13735508D02*
X14395539Y-13706936D01*
X14395539Y-13706936D02*
X14405063Y-13697412D01*
X14509825Y-13811698D02*
X14490777Y-13802174D01*
X14490777Y-13802174D02*
X14481253Y-13792650D01*
X14481253Y-13792650D02*
X14471729Y-13773603D01*
X14471729Y-13773603D02*
X14471729Y-13764079D01*
X14471729Y-13764079D02*
X14481253Y-13745031D01*
X14481253Y-13745031D02*
X14490777Y-13735508D01*
X14490777Y-13735508D02*
X14509825Y-13725984D01*
X14509825Y-13725984D02*
X14547920Y-13725984D01*
X14547920Y-13725984D02*
X14566968Y-13735508D01*
X14566968Y-13735508D02*
X14576491Y-13745031D01*
X14576491Y-13745031D02*
X14586015Y-13764079D01*
X14586015Y-13764079D02*
X14586015Y-13773603D01*
X14586015Y-13773603D02*
X14576491Y-13792650D01*
X14576491Y-13792650D02*
X14566968Y-13802174D01*
X14566968Y-13802174D02*
X14547920Y-13811698D01*
X14547920Y-13811698D02*
X14509825Y-13811698D01*
X14509825Y-13811698D02*
X14490777Y-13821222D01*
X14490777Y-13821222D02*
X14481253Y-13830746D01*
X14481253Y-13830746D02*
X14471729Y-13849793D01*
X14471729Y-13849793D02*
X14471729Y-13887888D01*
X14471729Y-13887888D02*
X14481253Y-13906936D01*
X14481253Y-13906936D02*
X14490777Y-13916460D01*
X14490777Y-13916460D02*
X14509825Y-13925984D01*
X14509825Y-13925984D02*
X14547920Y-13925984D01*
X14547920Y-13925984D02*
X14566968Y-13916460D01*
X14566968Y-13916460D02*
X14576491Y-13906936D01*
X14576491Y-13906936D02*
X14586015Y-13887888D01*
X14586015Y-13887888D02*
X14586015Y-13849793D01*
X14586015Y-13849793D02*
X14576491Y-13830746D01*
X14576491Y-13830746D02*
X14566968Y-13821222D01*
X14566968Y-13821222D02*
X14547920Y-13811698D01*
X14824110Y-13925984D02*
X14824110Y-13725984D01*
X14909825Y-13925984D02*
X14909825Y-13821222D01*
X14909825Y-13821222D02*
X14900301Y-13802174D01*
X14900301Y-13802174D02*
X14881253Y-13792650D01*
X14881253Y-13792650D02*
X14852682Y-13792650D01*
X14852682Y-13792650D02*
X14833634Y-13802174D01*
X14833634Y-13802174D02*
X14824110Y-13811698D01*
X15033634Y-13925984D02*
X15014587Y-13916460D01*
X15014587Y-13916460D02*
X15005063Y-13906936D01*
X15005063Y-13906936D02*
X14995539Y-13887888D01*
X14995539Y-13887888D02*
X14995539Y-13830746D01*
X14995539Y-13830746D02*
X15005063Y-13811698D01*
X15005063Y-13811698D02*
X15014587Y-13802174D01*
X15014587Y-13802174D02*
X15033634Y-13792650D01*
X15033634Y-13792650D02*
X15062206Y-13792650D01*
X15062206Y-13792650D02*
X15081253Y-13802174D01*
X15081253Y-13802174D02*
X15090777Y-13811698D01*
X15090777Y-13811698D02*
X15100301Y-13830746D01*
X15100301Y-13830746D02*
X15100301Y-13887888D01*
X15100301Y-13887888D02*
X15090777Y-13906936D01*
X15090777Y-13906936D02*
X15081253Y-13916460D01*
X15081253Y-13916460D02*
X15062206Y-13925984D01*
X15062206Y-13925984D02*
X15033634Y-13925984D01*
X15214587Y-13925984D02*
X15195539Y-13916460D01*
X15195539Y-13916460D02*
X15186015Y-13897412D01*
X15186015Y-13897412D02*
X15186015Y-13725984D01*
X15366968Y-13916460D02*
X15347920Y-13925984D01*
X15347920Y-13925984D02*
X15309825Y-13925984D01*
X15309825Y-13925984D02*
X15290777Y-13916460D01*
X15290777Y-13916460D02*
X15281253Y-13897412D01*
X15281253Y-13897412D02*
X15281253Y-13821222D01*
X15281253Y-13821222D02*
X15290777Y-13802174D01*
X15290777Y-13802174D02*
X15309825Y-13792650D01*
X15309825Y-13792650D02*
X15347920Y-13792650D01*
X15347920Y-13792650D02*
X15366968Y-13802174D01*
X15366968Y-13802174D02*
X15376491Y-13821222D01*
X15376491Y-13821222D02*
X15376491Y-13840269D01*
X15376491Y-13840269D02*
X15281253Y-13859317D01*
X15452682Y-13916460D02*
X15471730Y-13925984D01*
X15471730Y-13925984D02*
X15509825Y-13925984D01*
X15509825Y-13925984D02*
X15528872Y-13916460D01*
X15528872Y-13916460D02*
X15538396Y-13897412D01*
X15538396Y-13897412D02*
X15538396Y-13887888D01*
X15538396Y-13887888D02*
X15528872Y-13868841D01*
X15528872Y-13868841D02*
X15509825Y-13859317D01*
X15509825Y-13859317D02*
X15481253Y-13859317D01*
X15481253Y-13859317D02*
X15462206Y-13849793D01*
X15462206Y-13849793D02*
X15452682Y-13830746D01*
X15452682Y-13830746D02*
X15452682Y-13821222D01*
X15452682Y-13821222D02*
X15462206Y-13802174D01*
X15462206Y-13802174D02*
X15481253Y-13792650D01*
X15481253Y-13792650D02*
X15509825Y-13792650D01*
X15509825Y-13792650D02*
X15528872Y-13802174D01*
X15605063Y-14002174D02*
X15614587Y-13992650D01*
X15614587Y-13992650D02*
X15633634Y-13964079D01*
X15633634Y-13964079D02*
X15643158Y-13945031D01*
X15643158Y-13945031D02*
X15652682Y-13916460D01*
X15652682Y-13916460D02*
X15662206Y-13868841D01*
X15662206Y-13868841D02*
X15662206Y-13830746D01*
X15662206Y-13830746D02*
X15652682Y-13783127D01*
X15652682Y-13783127D02*
X15643158Y-13754555D01*
X15643158Y-13754555D02*
X15633634Y-13735508D01*
X15633634Y-13735508D02*
X15614587Y-13706936D01*
X15614587Y-13706936D02*
X15605063Y-13697412D01*
D12*
X10782500Y-14146000D02*
X10830000Y-14098500D01*
X10782500Y-14051000D01*
X10735000Y-14098500D01*
X10782500Y-14146000D01*
D11*
X11128872Y-13989984D02*
X11147920Y-13989984D01*
X11147920Y-13989984D02*
X11166967Y-13999508D01*
X11166967Y-13999508D02*
X11176491Y-14009031D01*
X11176491Y-14009031D02*
X11186015Y-14028079D01*
X11186015Y-14028079D02*
X11195539Y-14066174D01*
X11195539Y-14066174D02*
X11195539Y-14113793D01*
X11195539Y-14113793D02*
X11186015Y-14151888D01*
X11186015Y-14151888D02*
X11176491Y-14170936D01*
X11176491Y-14170936D02*
X11166967Y-14180460D01*
X11166967Y-14180460D02*
X11147920Y-14189984D01*
X11147920Y-14189984D02*
X11128872Y-14189984D01*
X11128872Y-14189984D02*
X11109824Y-14180460D01*
X11109824Y-14180460D02*
X11100301Y-14170936D01*
X11100301Y-14170936D02*
X11090777Y-14151888D01*
X11090777Y-14151888D02*
X11081253Y-14113793D01*
X11081253Y-14113793D02*
X11081253Y-14066174D01*
X11081253Y-14066174D02*
X11090777Y-14028079D01*
X11090777Y-14028079D02*
X11100301Y-14009031D01*
X11100301Y-14009031D02*
X11109824Y-13999508D01*
X11109824Y-13999508D02*
X11128872Y-13989984D01*
X11281253Y-14170936D02*
X11290777Y-14180460D01*
X11290777Y-14180460D02*
X11281253Y-14189984D01*
X11281253Y-14189984D02*
X11271729Y-14180460D01*
X11271729Y-14180460D02*
X11281253Y-14170936D01*
X11281253Y-14170936D02*
X11281253Y-14189984D01*
X11386015Y-14189984D02*
X11424110Y-14189984D01*
X11424110Y-14189984D02*
X11443158Y-14180460D01*
X11443158Y-14180460D02*
X11452682Y-14170936D01*
X11452682Y-14170936D02*
X11471729Y-14142365D01*
X11471729Y-14142365D02*
X11481253Y-14104269D01*
X11481253Y-14104269D02*
X11481253Y-14028079D01*
X11481253Y-14028079D02*
X11471729Y-14009031D01*
X11471729Y-14009031D02*
X11462205Y-13999508D01*
X11462205Y-13999508D02*
X11443158Y-13989984D01*
X11443158Y-13989984D02*
X11405062Y-13989984D01*
X11405062Y-13989984D02*
X11386015Y-13999508D01*
X11386015Y-13999508D02*
X11376491Y-14009031D01*
X11376491Y-14009031D02*
X11366967Y-14028079D01*
X11366967Y-14028079D02*
X11366967Y-14075698D01*
X11366967Y-14075698D02*
X11376491Y-14094746D01*
X11376491Y-14094746D02*
X11386015Y-14104269D01*
X11386015Y-14104269D02*
X11405062Y-14113793D01*
X11405062Y-14113793D02*
X11443158Y-14113793D01*
X11443158Y-14113793D02*
X11462205Y-14104269D01*
X11462205Y-14104269D02*
X11471729Y-14094746D01*
X11471729Y-14094746D02*
X11481253Y-14075698D01*
X11662205Y-13989984D02*
X11566967Y-13989984D01*
X11566967Y-13989984D02*
X11557443Y-14085222D01*
X11557443Y-14085222D02*
X11566967Y-14075698D01*
X11566967Y-14075698D02*
X11586015Y-14066174D01*
X11586015Y-14066174D02*
X11633634Y-14066174D01*
X11633634Y-14066174D02*
X11652682Y-14075698D01*
X11652682Y-14075698D02*
X11662205Y-14085222D01*
X11662205Y-14085222D02*
X11671729Y-14104269D01*
X11671729Y-14104269D02*
X11671729Y-14151888D01*
X11671729Y-14151888D02*
X11662205Y-14170936D01*
X11662205Y-14170936D02*
X11652682Y-14180460D01*
X11652682Y-14180460D02*
X11633634Y-14189984D01*
X11633634Y-14189984D02*
X11586015Y-14189984D01*
X11586015Y-14189984D02*
X11566967Y-14180460D01*
X11566967Y-14180460D02*
X11557443Y-14170936D01*
X11795539Y-13989984D02*
X11814586Y-13989984D01*
X11814586Y-13989984D02*
X11833634Y-13999508D01*
X11833634Y-13999508D02*
X11843158Y-14009031D01*
X11843158Y-14009031D02*
X11852682Y-14028079D01*
X11852682Y-14028079D02*
X11862205Y-14066174D01*
X11862205Y-14066174D02*
X11862205Y-14113793D01*
X11862205Y-14113793D02*
X11852682Y-14151888D01*
X11852682Y-14151888D02*
X11843158Y-14170936D01*
X11843158Y-14170936D02*
X11833634Y-14180460D01*
X11833634Y-14180460D02*
X11814586Y-14189984D01*
X11814586Y-14189984D02*
X11795539Y-14189984D01*
X11795539Y-14189984D02*
X11776491Y-14180460D01*
X11776491Y-14180460D02*
X11766967Y-14170936D01*
X11766967Y-14170936D02*
X11757443Y-14151888D01*
X11757443Y-14151888D02*
X11747920Y-14113793D01*
X11747920Y-14113793D02*
X11747920Y-14066174D01*
X11747920Y-14066174D02*
X11757443Y-14028079D01*
X11757443Y-14028079D02*
X11766967Y-14009031D01*
X11766967Y-14009031D02*
X11776491Y-13999508D01*
X11776491Y-13999508D02*
X11795539Y-13989984D01*
X11947920Y-14189984D02*
X11947920Y-14056650D01*
X11947920Y-14075698D02*
X11957443Y-14066174D01*
X11957443Y-14066174D02*
X11976491Y-14056650D01*
X11976491Y-14056650D02*
X12005063Y-14056650D01*
X12005063Y-14056650D02*
X12024110Y-14066174D01*
X12024110Y-14066174D02*
X12033634Y-14085222D01*
X12033634Y-14085222D02*
X12033634Y-14189984D01*
X12033634Y-14085222D02*
X12043158Y-14066174D01*
X12043158Y-14066174D02*
X12062205Y-14056650D01*
X12062205Y-14056650D02*
X12090777Y-14056650D01*
X12090777Y-14056650D02*
X12109824Y-14066174D01*
X12109824Y-14066174D02*
X12119348Y-14085222D01*
X12119348Y-14085222D02*
X12119348Y-14189984D01*
X12214586Y-14189984D02*
X12214586Y-14056650D01*
X12214586Y-14075698D02*
X12224110Y-14066174D01*
X12224110Y-14066174D02*
X12243158Y-14056650D01*
X12243158Y-14056650D02*
X12271729Y-14056650D01*
X12271729Y-14056650D02*
X12290777Y-14066174D01*
X12290777Y-14066174D02*
X12300301Y-14085222D01*
X12300301Y-14085222D02*
X12300301Y-14189984D01*
X12300301Y-14085222D02*
X12309824Y-14066174D01*
X12309824Y-14066174D02*
X12328872Y-14056650D01*
X12328872Y-14056650D02*
X12357443Y-14056650D01*
X12357443Y-14056650D02*
X12376491Y-14066174D01*
X12376491Y-14066174D02*
X12386015Y-14085222D01*
X12386015Y-14085222D02*
X12386015Y-14189984D01*
X12776491Y-13980460D02*
X12605063Y-14237603D01*
X13033634Y-13989984D02*
X13052682Y-13989984D01*
X13052682Y-13989984D02*
X13071729Y-13999508D01*
X13071729Y-13999508D02*
X13081253Y-14009031D01*
X13081253Y-14009031D02*
X13090777Y-14028079D01*
X13090777Y-14028079D02*
X13100301Y-14066174D01*
X13100301Y-14066174D02*
X13100301Y-14113793D01*
X13100301Y-14113793D02*
X13090777Y-14151888D01*
X13090777Y-14151888D02*
X13081253Y-14170936D01*
X13081253Y-14170936D02*
X13071729Y-14180460D01*
X13071729Y-14180460D02*
X13052682Y-14189984D01*
X13052682Y-14189984D02*
X13033634Y-14189984D01*
X13033634Y-14189984D02*
X13014586Y-14180460D01*
X13014586Y-14180460D02*
X13005063Y-14170936D01*
X13005063Y-14170936D02*
X12995539Y-14151888D01*
X12995539Y-14151888D02*
X12986015Y-14113793D01*
X12986015Y-14113793D02*
X12986015Y-14066174D01*
X12986015Y-14066174D02*
X12995539Y-14028079D01*
X12995539Y-14028079D02*
X13005063Y-14009031D01*
X13005063Y-14009031D02*
X13014586Y-13999508D01*
X13014586Y-13999508D02*
X13033634Y-13989984D01*
X13186015Y-14170936D02*
X13195539Y-14180460D01*
X13195539Y-14180460D02*
X13186015Y-14189984D01*
X13186015Y-14189984D02*
X13176491Y-14180460D01*
X13176491Y-14180460D02*
X13186015Y-14170936D01*
X13186015Y-14170936D02*
X13186015Y-14189984D01*
X13319348Y-13989984D02*
X13338396Y-13989984D01*
X13338396Y-13989984D02*
X13357444Y-13999508D01*
X13357444Y-13999508D02*
X13366967Y-14009031D01*
X13366967Y-14009031D02*
X13376491Y-14028079D01*
X13376491Y-14028079D02*
X13386015Y-14066174D01*
X13386015Y-14066174D02*
X13386015Y-14113793D01*
X13386015Y-14113793D02*
X13376491Y-14151888D01*
X13376491Y-14151888D02*
X13366967Y-14170936D01*
X13366967Y-14170936D02*
X13357444Y-14180460D01*
X13357444Y-14180460D02*
X13338396Y-14189984D01*
X13338396Y-14189984D02*
X13319348Y-14189984D01*
X13319348Y-14189984D02*
X13300301Y-14180460D01*
X13300301Y-14180460D02*
X13290777Y-14170936D01*
X13290777Y-14170936D02*
X13281253Y-14151888D01*
X13281253Y-14151888D02*
X13271729Y-14113793D01*
X13271729Y-14113793D02*
X13271729Y-14066174D01*
X13271729Y-14066174D02*
X13281253Y-14028079D01*
X13281253Y-14028079D02*
X13290777Y-14009031D01*
X13290777Y-14009031D02*
X13300301Y-13999508D01*
X13300301Y-13999508D02*
X13319348Y-13989984D01*
X13452682Y-13989984D02*
X13576491Y-13989984D01*
X13576491Y-13989984D02*
X13509825Y-14066174D01*
X13509825Y-14066174D02*
X13538396Y-14066174D01*
X13538396Y-14066174D02*
X13557444Y-14075698D01*
X13557444Y-14075698D02*
X13566967Y-14085222D01*
X13566967Y-14085222D02*
X13576491Y-14104269D01*
X13576491Y-14104269D02*
X13576491Y-14151888D01*
X13576491Y-14151888D02*
X13566967Y-14170936D01*
X13566967Y-14170936D02*
X13557444Y-14180460D01*
X13557444Y-14180460D02*
X13538396Y-14189984D01*
X13538396Y-14189984D02*
X13481253Y-14189984D01*
X13481253Y-14189984D02*
X13462206Y-14180460D01*
X13462206Y-14180460D02*
X13452682Y-14170936D01*
X13643158Y-13989984D02*
X13776491Y-13989984D01*
X13776491Y-13989984D02*
X13690777Y-14189984D01*
X13938396Y-14056650D02*
X13938396Y-14189984D01*
X13890777Y-13980460D02*
X13843158Y-14123317D01*
X13843158Y-14123317D02*
X13966967Y-14123317D01*
X14033634Y-13989984D02*
X14033634Y-14028079D01*
X14109825Y-13989984D02*
X14109825Y-14028079D01*
X14405063Y-14266174D02*
X14395539Y-14256650D01*
X14395539Y-14256650D02*
X14376491Y-14228079D01*
X14376491Y-14228079D02*
X14366968Y-14209031D01*
X14366968Y-14209031D02*
X14357444Y-14180460D01*
X14357444Y-14180460D02*
X14347920Y-14132841D01*
X14347920Y-14132841D02*
X14347920Y-14094746D01*
X14347920Y-14094746D02*
X14357444Y-14047127D01*
X14357444Y-14047127D02*
X14366968Y-14018555D01*
X14366968Y-14018555D02*
X14376491Y-13999508D01*
X14376491Y-13999508D02*
X14395539Y-13970936D01*
X14395539Y-13970936D02*
X14405063Y-13961412D01*
X14586015Y-14189984D02*
X14471729Y-14189984D01*
X14528872Y-14189984D02*
X14528872Y-13989984D01*
X14528872Y-13989984D02*
X14509825Y-14018555D01*
X14509825Y-14018555D02*
X14490777Y-14037603D01*
X14490777Y-14037603D02*
X14471729Y-14047127D01*
X14709825Y-13989984D02*
X14728872Y-13989984D01*
X14728872Y-13989984D02*
X14747920Y-13999508D01*
X14747920Y-13999508D02*
X14757444Y-14009031D01*
X14757444Y-14009031D02*
X14766968Y-14028079D01*
X14766968Y-14028079D02*
X14776491Y-14066174D01*
X14776491Y-14066174D02*
X14776491Y-14113793D01*
X14776491Y-14113793D02*
X14766968Y-14151888D01*
X14766968Y-14151888D02*
X14757444Y-14170936D01*
X14757444Y-14170936D02*
X14747920Y-14180460D01*
X14747920Y-14180460D02*
X14728872Y-14189984D01*
X14728872Y-14189984D02*
X14709825Y-14189984D01*
X14709825Y-14189984D02*
X14690777Y-14180460D01*
X14690777Y-14180460D02*
X14681253Y-14170936D01*
X14681253Y-14170936D02*
X14671729Y-14151888D01*
X14671729Y-14151888D02*
X14662206Y-14113793D01*
X14662206Y-14113793D02*
X14662206Y-14066174D01*
X14662206Y-14066174D02*
X14671729Y-14028079D01*
X14671729Y-14028079D02*
X14681253Y-14009031D01*
X14681253Y-14009031D02*
X14690777Y-13999508D01*
X14690777Y-13999508D02*
X14709825Y-13989984D01*
X15014587Y-14189984D02*
X15014587Y-13989984D01*
X15100301Y-14189984D02*
X15100301Y-14085222D01*
X15100301Y-14085222D02*
X15090777Y-14066174D01*
X15090777Y-14066174D02*
X15071730Y-14056650D01*
X15071730Y-14056650D02*
X15043158Y-14056650D01*
X15043158Y-14056650D02*
X15024110Y-14066174D01*
X15024110Y-14066174D02*
X15014587Y-14075698D01*
X15224110Y-14189984D02*
X15205063Y-14180460D01*
X15205063Y-14180460D02*
X15195539Y-14170936D01*
X15195539Y-14170936D02*
X15186015Y-14151888D01*
X15186015Y-14151888D02*
X15186015Y-14094746D01*
X15186015Y-14094746D02*
X15195539Y-14075698D01*
X15195539Y-14075698D02*
X15205063Y-14066174D01*
X15205063Y-14066174D02*
X15224110Y-14056650D01*
X15224110Y-14056650D02*
X15252682Y-14056650D01*
X15252682Y-14056650D02*
X15271730Y-14066174D01*
X15271730Y-14066174D02*
X15281253Y-14075698D01*
X15281253Y-14075698D02*
X15290777Y-14094746D01*
X15290777Y-14094746D02*
X15290777Y-14151888D01*
X15290777Y-14151888D02*
X15281253Y-14170936D01*
X15281253Y-14170936D02*
X15271730Y-14180460D01*
X15271730Y-14180460D02*
X15252682Y-14189984D01*
X15252682Y-14189984D02*
X15224110Y-14189984D01*
X15405063Y-14189984D02*
X15386015Y-14180460D01*
X15386015Y-14180460D02*
X15376491Y-14161412D01*
X15376491Y-14161412D02*
X15376491Y-13989984D01*
X15557444Y-14180460D02*
X15538396Y-14189984D01*
X15538396Y-14189984D02*
X15500301Y-14189984D01*
X15500301Y-14189984D02*
X15481253Y-14180460D01*
X15481253Y-14180460D02*
X15471730Y-14161412D01*
X15471730Y-14161412D02*
X15471730Y-14085222D01*
X15471730Y-14085222D02*
X15481253Y-14066174D01*
X15481253Y-14066174D02*
X15500301Y-14056650D01*
X15500301Y-14056650D02*
X15538396Y-14056650D01*
X15538396Y-14056650D02*
X15557444Y-14066174D01*
X15557444Y-14066174D02*
X15566968Y-14085222D01*
X15566968Y-14085222D02*
X15566968Y-14104269D01*
X15566968Y-14104269D02*
X15471730Y-14123317D01*
X15643158Y-14180460D02*
X15662206Y-14189984D01*
X15662206Y-14189984D02*
X15700301Y-14189984D01*
X15700301Y-14189984D02*
X15719349Y-14180460D01*
X15719349Y-14180460D02*
X15728872Y-14161412D01*
X15728872Y-14161412D02*
X15728872Y-14151888D01*
X15728872Y-14151888D02*
X15719349Y-14132841D01*
X15719349Y-14132841D02*
X15700301Y-14123317D01*
X15700301Y-14123317D02*
X15671730Y-14123317D01*
X15671730Y-14123317D02*
X15652682Y-14113793D01*
X15652682Y-14113793D02*
X15643158Y-14094746D01*
X15643158Y-14094746D02*
X15643158Y-14085222D01*
X15643158Y-14085222D02*
X15652682Y-14066174D01*
X15652682Y-14066174D02*
X15671730Y-14056650D01*
X15671730Y-14056650D02*
X15700301Y-14056650D01*
X15700301Y-14056650D02*
X15719349Y-14066174D01*
X15795539Y-14266174D02*
X15805063Y-14256650D01*
X15805063Y-14256650D02*
X15824111Y-14228079D01*
X15824111Y-14228079D02*
X15833634Y-14209031D01*
X15833634Y-14209031D02*
X15843158Y-14180460D01*
X15843158Y-14180460D02*
X15852682Y-14132841D01*
X15852682Y-14132841D02*
X15852682Y-14094746D01*
X15852682Y-14094746D02*
X15843158Y-14047127D01*
X15843158Y-14047127D02*
X15833634Y-14018555D01*
X15833634Y-14018555D02*
X15824111Y-13999508D01*
X15824111Y-13999508D02*
X15805063Y-13970936D01*
X15805063Y-13970936D02*
X15795539Y-13961412D01*
D12*
X10730000Y-14312500D02*
X10830000Y-14412500D01*
X10830000Y-14312500D02*
X10730000Y-14412500D01*
X10830000Y-14362500D02*
G75*
G02*
X10730000Y-14362500I-50000J0D01*
G01*
X10730000Y-14362500D02*
G75*
G02*
X10830000Y-14362500I50000J0D01*
G01*
D11*
X11195539Y-14453984D02*
X11081253Y-14453984D01*
X11138396Y-14453984D02*
X11138396Y-14253984D01*
X11138396Y-14253984D02*
X11119348Y-14282555D01*
X11119348Y-14282555D02*
X11100301Y-14301603D01*
X11100301Y-14301603D02*
X11081253Y-14311127D01*
X11281253Y-14434936D02*
X11290777Y-14444460D01*
X11290777Y-14444460D02*
X11281253Y-14453984D01*
X11281253Y-14453984D02*
X11271729Y-14444460D01*
X11271729Y-14444460D02*
X11281253Y-14434936D01*
X11281253Y-14434936D02*
X11281253Y-14453984D01*
X11414586Y-14253984D02*
X11433634Y-14253984D01*
X11433634Y-14253984D02*
X11452682Y-14263508D01*
X11452682Y-14263508D02*
X11462205Y-14273031D01*
X11462205Y-14273031D02*
X11471729Y-14292079D01*
X11471729Y-14292079D02*
X11481253Y-14330174D01*
X11481253Y-14330174D02*
X11481253Y-14377793D01*
X11481253Y-14377793D02*
X11471729Y-14415888D01*
X11471729Y-14415888D02*
X11462205Y-14434936D01*
X11462205Y-14434936D02*
X11452682Y-14444460D01*
X11452682Y-14444460D02*
X11433634Y-14453984D01*
X11433634Y-14453984D02*
X11414586Y-14453984D01*
X11414586Y-14453984D02*
X11395539Y-14444460D01*
X11395539Y-14444460D02*
X11386015Y-14434936D01*
X11386015Y-14434936D02*
X11376491Y-14415888D01*
X11376491Y-14415888D02*
X11366967Y-14377793D01*
X11366967Y-14377793D02*
X11366967Y-14330174D01*
X11366967Y-14330174D02*
X11376491Y-14292079D01*
X11376491Y-14292079D02*
X11386015Y-14273031D01*
X11386015Y-14273031D02*
X11395539Y-14263508D01*
X11395539Y-14263508D02*
X11414586Y-14253984D01*
X11605062Y-14253984D02*
X11624110Y-14253984D01*
X11624110Y-14253984D02*
X11643158Y-14263508D01*
X11643158Y-14263508D02*
X11652682Y-14273031D01*
X11652682Y-14273031D02*
X11662205Y-14292079D01*
X11662205Y-14292079D02*
X11671729Y-14330174D01*
X11671729Y-14330174D02*
X11671729Y-14377793D01*
X11671729Y-14377793D02*
X11662205Y-14415888D01*
X11662205Y-14415888D02*
X11652682Y-14434936D01*
X11652682Y-14434936D02*
X11643158Y-14444460D01*
X11643158Y-14444460D02*
X11624110Y-14453984D01*
X11624110Y-14453984D02*
X11605062Y-14453984D01*
X11605062Y-14453984D02*
X11586015Y-14444460D01*
X11586015Y-14444460D02*
X11576491Y-14434936D01*
X11576491Y-14434936D02*
X11566967Y-14415888D01*
X11566967Y-14415888D02*
X11557443Y-14377793D01*
X11557443Y-14377793D02*
X11557443Y-14330174D01*
X11557443Y-14330174D02*
X11566967Y-14292079D01*
X11566967Y-14292079D02*
X11576491Y-14273031D01*
X11576491Y-14273031D02*
X11586015Y-14263508D01*
X11586015Y-14263508D02*
X11605062Y-14253984D01*
X11795539Y-14253984D02*
X11814586Y-14253984D01*
X11814586Y-14253984D02*
X11833634Y-14263508D01*
X11833634Y-14263508D02*
X11843158Y-14273031D01*
X11843158Y-14273031D02*
X11852682Y-14292079D01*
X11852682Y-14292079D02*
X11862205Y-14330174D01*
X11862205Y-14330174D02*
X11862205Y-14377793D01*
X11862205Y-14377793D02*
X11852682Y-14415888D01*
X11852682Y-14415888D02*
X11843158Y-14434936D01*
X11843158Y-14434936D02*
X11833634Y-14444460D01*
X11833634Y-14444460D02*
X11814586Y-14453984D01*
X11814586Y-14453984D02*
X11795539Y-14453984D01*
X11795539Y-14453984D02*
X11776491Y-14444460D01*
X11776491Y-14444460D02*
X11766967Y-14434936D01*
X11766967Y-14434936D02*
X11757443Y-14415888D01*
X11757443Y-14415888D02*
X11747920Y-14377793D01*
X11747920Y-14377793D02*
X11747920Y-14330174D01*
X11747920Y-14330174D02*
X11757443Y-14292079D01*
X11757443Y-14292079D02*
X11766967Y-14273031D01*
X11766967Y-14273031D02*
X11776491Y-14263508D01*
X11776491Y-14263508D02*
X11795539Y-14253984D01*
X11947920Y-14453984D02*
X11947920Y-14320650D01*
X11947920Y-14339698D02*
X11957443Y-14330174D01*
X11957443Y-14330174D02*
X11976491Y-14320650D01*
X11976491Y-14320650D02*
X12005063Y-14320650D01*
X12005063Y-14320650D02*
X12024110Y-14330174D01*
X12024110Y-14330174D02*
X12033634Y-14349222D01*
X12033634Y-14349222D02*
X12033634Y-14453984D01*
X12033634Y-14349222D02*
X12043158Y-14330174D01*
X12043158Y-14330174D02*
X12062205Y-14320650D01*
X12062205Y-14320650D02*
X12090777Y-14320650D01*
X12090777Y-14320650D02*
X12109824Y-14330174D01*
X12109824Y-14330174D02*
X12119348Y-14349222D01*
X12119348Y-14349222D02*
X12119348Y-14453984D01*
X12214586Y-14453984D02*
X12214586Y-14320650D01*
X12214586Y-14339698D02*
X12224110Y-14330174D01*
X12224110Y-14330174D02*
X12243158Y-14320650D01*
X12243158Y-14320650D02*
X12271729Y-14320650D01*
X12271729Y-14320650D02*
X12290777Y-14330174D01*
X12290777Y-14330174D02*
X12300301Y-14349222D01*
X12300301Y-14349222D02*
X12300301Y-14453984D01*
X12300301Y-14349222D02*
X12309824Y-14330174D01*
X12309824Y-14330174D02*
X12328872Y-14320650D01*
X12328872Y-14320650D02*
X12357443Y-14320650D01*
X12357443Y-14320650D02*
X12376491Y-14330174D01*
X12376491Y-14330174D02*
X12386015Y-14349222D01*
X12386015Y-14349222D02*
X12386015Y-14453984D01*
X12776491Y-14244460D02*
X12605063Y-14501603D01*
X13033634Y-14253984D02*
X13052682Y-14253984D01*
X13052682Y-14253984D02*
X13071729Y-14263508D01*
X13071729Y-14263508D02*
X13081253Y-14273031D01*
X13081253Y-14273031D02*
X13090777Y-14292079D01*
X13090777Y-14292079D02*
X13100301Y-14330174D01*
X13100301Y-14330174D02*
X13100301Y-14377793D01*
X13100301Y-14377793D02*
X13090777Y-14415888D01*
X13090777Y-14415888D02*
X13081253Y-14434936D01*
X13081253Y-14434936D02*
X13071729Y-14444460D01*
X13071729Y-14444460D02*
X13052682Y-14453984D01*
X13052682Y-14453984D02*
X13033634Y-14453984D01*
X13033634Y-14453984D02*
X13014586Y-14444460D01*
X13014586Y-14444460D02*
X13005063Y-14434936D01*
X13005063Y-14434936D02*
X12995539Y-14415888D01*
X12995539Y-14415888D02*
X12986015Y-14377793D01*
X12986015Y-14377793D02*
X12986015Y-14330174D01*
X12986015Y-14330174D02*
X12995539Y-14292079D01*
X12995539Y-14292079D02*
X13005063Y-14273031D01*
X13005063Y-14273031D02*
X13014586Y-14263508D01*
X13014586Y-14263508D02*
X13033634Y-14253984D01*
X13186015Y-14434936D02*
X13195539Y-14444460D01*
X13195539Y-14444460D02*
X13186015Y-14453984D01*
X13186015Y-14453984D02*
X13176491Y-14444460D01*
X13176491Y-14444460D02*
X13186015Y-14434936D01*
X13186015Y-14434936D02*
X13186015Y-14453984D01*
X13319348Y-14253984D02*
X13338396Y-14253984D01*
X13338396Y-14253984D02*
X13357444Y-14263508D01*
X13357444Y-14263508D02*
X13366967Y-14273031D01*
X13366967Y-14273031D02*
X13376491Y-14292079D01*
X13376491Y-14292079D02*
X13386015Y-14330174D01*
X13386015Y-14330174D02*
X13386015Y-14377793D01*
X13386015Y-14377793D02*
X13376491Y-14415888D01*
X13376491Y-14415888D02*
X13366967Y-14434936D01*
X13366967Y-14434936D02*
X13357444Y-14444460D01*
X13357444Y-14444460D02*
X13338396Y-14453984D01*
X13338396Y-14453984D02*
X13319348Y-14453984D01*
X13319348Y-14453984D02*
X13300301Y-14444460D01*
X13300301Y-14444460D02*
X13290777Y-14434936D01*
X13290777Y-14434936D02*
X13281253Y-14415888D01*
X13281253Y-14415888D02*
X13271729Y-14377793D01*
X13271729Y-14377793D02*
X13271729Y-14330174D01*
X13271729Y-14330174D02*
X13281253Y-14292079D01*
X13281253Y-14292079D02*
X13290777Y-14273031D01*
X13290777Y-14273031D02*
X13300301Y-14263508D01*
X13300301Y-14263508D02*
X13319348Y-14253984D01*
X13452682Y-14253984D02*
X13576491Y-14253984D01*
X13576491Y-14253984D02*
X13509825Y-14330174D01*
X13509825Y-14330174D02*
X13538396Y-14330174D01*
X13538396Y-14330174D02*
X13557444Y-14339698D01*
X13557444Y-14339698D02*
X13566967Y-14349222D01*
X13566967Y-14349222D02*
X13576491Y-14368269D01*
X13576491Y-14368269D02*
X13576491Y-14415888D01*
X13576491Y-14415888D02*
X13566967Y-14434936D01*
X13566967Y-14434936D02*
X13557444Y-14444460D01*
X13557444Y-14444460D02*
X13538396Y-14453984D01*
X13538396Y-14453984D02*
X13481253Y-14453984D01*
X13481253Y-14453984D02*
X13462206Y-14444460D01*
X13462206Y-14444460D02*
X13452682Y-14434936D01*
X13671729Y-14453984D02*
X13709825Y-14453984D01*
X13709825Y-14453984D02*
X13728872Y-14444460D01*
X13728872Y-14444460D02*
X13738396Y-14434936D01*
X13738396Y-14434936D02*
X13757444Y-14406365D01*
X13757444Y-14406365D02*
X13766967Y-14368269D01*
X13766967Y-14368269D02*
X13766967Y-14292079D01*
X13766967Y-14292079D02*
X13757444Y-14273031D01*
X13757444Y-14273031D02*
X13747920Y-14263508D01*
X13747920Y-14263508D02*
X13728872Y-14253984D01*
X13728872Y-14253984D02*
X13690777Y-14253984D01*
X13690777Y-14253984D02*
X13671729Y-14263508D01*
X13671729Y-14263508D02*
X13662206Y-14273031D01*
X13662206Y-14273031D02*
X13652682Y-14292079D01*
X13652682Y-14292079D02*
X13652682Y-14339698D01*
X13652682Y-14339698D02*
X13662206Y-14358746D01*
X13662206Y-14358746D02*
X13671729Y-14368269D01*
X13671729Y-14368269D02*
X13690777Y-14377793D01*
X13690777Y-14377793D02*
X13728872Y-14377793D01*
X13728872Y-14377793D02*
X13747920Y-14368269D01*
X13747920Y-14368269D02*
X13757444Y-14358746D01*
X13757444Y-14358746D02*
X13766967Y-14339698D01*
X13938396Y-14320650D02*
X13938396Y-14453984D01*
X13890777Y-14244460D02*
X13843158Y-14387317D01*
X13843158Y-14387317D02*
X13966967Y-14387317D01*
X14033634Y-14253984D02*
X14033634Y-14292079D01*
X14109825Y-14253984D02*
X14109825Y-14292079D01*
X14405063Y-14530174D02*
X14395539Y-14520650D01*
X14395539Y-14520650D02*
X14376491Y-14492079D01*
X14376491Y-14492079D02*
X14366968Y-14473031D01*
X14366968Y-14473031D02*
X14357444Y-14444460D01*
X14357444Y-14444460D02*
X14347920Y-14396841D01*
X14347920Y-14396841D02*
X14347920Y-14358746D01*
X14347920Y-14358746D02*
X14357444Y-14311127D01*
X14357444Y-14311127D02*
X14366968Y-14282555D01*
X14366968Y-14282555D02*
X14376491Y-14263508D01*
X14376491Y-14263508D02*
X14395539Y-14234936D01*
X14395539Y-14234936D02*
X14405063Y-14225412D01*
X14586015Y-14453984D02*
X14471729Y-14453984D01*
X14528872Y-14453984D02*
X14528872Y-14253984D01*
X14528872Y-14253984D02*
X14509825Y-14282555D01*
X14509825Y-14282555D02*
X14490777Y-14301603D01*
X14490777Y-14301603D02*
X14471729Y-14311127D01*
X14709825Y-14253984D02*
X14728872Y-14253984D01*
X14728872Y-14253984D02*
X14747920Y-14263508D01*
X14747920Y-14263508D02*
X14757444Y-14273031D01*
X14757444Y-14273031D02*
X14766968Y-14292079D01*
X14766968Y-14292079D02*
X14776491Y-14330174D01*
X14776491Y-14330174D02*
X14776491Y-14377793D01*
X14776491Y-14377793D02*
X14766968Y-14415888D01*
X14766968Y-14415888D02*
X14757444Y-14434936D01*
X14757444Y-14434936D02*
X14747920Y-14444460D01*
X14747920Y-14444460D02*
X14728872Y-14453984D01*
X14728872Y-14453984D02*
X14709825Y-14453984D01*
X14709825Y-14453984D02*
X14690777Y-14444460D01*
X14690777Y-14444460D02*
X14681253Y-14434936D01*
X14681253Y-14434936D02*
X14671729Y-14415888D01*
X14671729Y-14415888D02*
X14662206Y-14377793D01*
X14662206Y-14377793D02*
X14662206Y-14330174D01*
X14662206Y-14330174D02*
X14671729Y-14292079D01*
X14671729Y-14292079D02*
X14681253Y-14273031D01*
X14681253Y-14273031D02*
X14690777Y-14263508D01*
X14690777Y-14263508D02*
X14709825Y-14253984D01*
X15014587Y-14453984D02*
X15014587Y-14253984D01*
X15100301Y-14453984D02*
X15100301Y-14349222D01*
X15100301Y-14349222D02*
X15090777Y-14330174D01*
X15090777Y-14330174D02*
X15071730Y-14320650D01*
X15071730Y-14320650D02*
X15043158Y-14320650D01*
X15043158Y-14320650D02*
X15024110Y-14330174D01*
X15024110Y-14330174D02*
X15014587Y-14339698D01*
X15224110Y-14453984D02*
X15205063Y-14444460D01*
X15205063Y-14444460D02*
X15195539Y-14434936D01*
X15195539Y-14434936D02*
X15186015Y-14415888D01*
X15186015Y-14415888D02*
X15186015Y-14358746D01*
X15186015Y-14358746D02*
X15195539Y-14339698D01*
X15195539Y-14339698D02*
X15205063Y-14330174D01*
X15205063Y-14330174D02*
X15224110Y-14320650D01*
X15224110Y-14320650D02*
X15252682Y-14320650D01*
X15252682Y-14320650D02*
X15271730Y-14330174D01*
X15271730Y-14330174D02*
X15281253Y-14339698D01*
X15281253Y-14339698D02*
X15290777Y-14358746D01*
X15290777Y-14358746D02*
X15290777Y-14415888D01*
X15290777Y-14415888D02*
X15281253Y-14434936D01*
X15281253Y-14434936D02*
X15271730Y-14444460D01*
X15271730Y-14444460D02*
X15252682Y-14453984D01*
X15252682Y-14453984D02*
X15224110Y-14453984D01*
X15405063Y-14453984D02*
X15386015Y-14444460D01*
X15386015Y-14444460D02*
X15376491Y-14425412D01*
X15376491Y-14425412D02*
X15376491Y-14253984D01*
X15557444Y-14444460D02*
X15538396Y-14453984D01*
X15538396Y-14453984D02*
X15500301Y-14453984D01*
X15500301Y-14453984D02*
X15481253Y-14444460D01*
X15481253Y-14444460D02*
X15471730Y-14425412D01*
X15471730Y-14425412D02*
X15471730Y-14349222D01*
X15471730Y-14349222D02*
X15481253Y-14330174D01*
X15481253Y-14330174D02*
X15500301Y-14320650D01*
X15500301Y-14320650D02*
X15538396Y-14320650D01*
X15538396Y-14320650D02*
X15557444Y-14330174D01*
X15557444Y-14330174D02*
X15566968Y-14349222D01*
X15566968Y-14349222D02*
X15566968Y-14368269D01*
X15566968Y-14368269D02*
X15471730Y-14387317D01*
X15643158Y-14444460D02*
X15662206Y-14453984D01*
X15662206Y-14453984D02*
X15700301Y-14453984D01*
X15700301Y-14453984D02*
X15719349Y-14444460D01*
X15719349Y-14444460D02*
X15728872Y-14425412D01*
X15728872Y-14425412D02*
X15728872Y-14415888D01*
X15728872Y-14415888D02*
X15719349Y-14396841D01*
X15719349Y-14396841D02*
X15700301Y-14387317D01*
X15700301Y-14387317D02*
X15671730Y-14387317D01*
X15671730Y-14387317D02*
X15652682Y-14377793D01*
X15652682Y-14377793D02*
X15643158Y-14358746D01*
X15643158Y-14358746D02*
X15643158Y-14349222D01*
X15643158Y-14349222D02*
X15652682Y-14330174D01*
X15652682Y-14330174D02*
X15671730Y-14320650D01*
X15671730Y-14320650D02*
X15700301Y-14320650D01*
X15700301Y-14320650D02*
X15719349Y-14330174D01*
X15795539Y-14530174D02*
X15805063Y-14520650D01*
X15805063Y-14520650D02*
X15824111Y-14492079D01*
X15824111Y-14492079D02*
X15833634Y-14473031D01*
X15833634Y-14473031D02*
X15843158Y-14444460D01*
X15843158Y-14444460D02*
X15852682Y-14396841D01*
X15852682Y-14396841D02*
X15852682Y-14358746D01*
X15852682Y-14358746D02*
X15843158Y-14311127D01*
X15843158Y-14311127D02*
X15833634Y-14282555D01*
X15833634Y-14282555D02*
X15824111Y-14263508D01*
X15824111Y-14263508D02*
X15805063Y-14234936D01*
X15805063Y-14234936D02*
X15795539Y-14225412D01*
D13*
X10680140Y-14551570D02*
X10830000Y-14701430D01*
X10830000Y-14551570D02*
X10680140Y-14701430D01*
X10755070Y-14551570D02*
X10755070Y-14701430D01*
X10680140Y-14626500D02*
X10830000Y-14626500D01*
D11*
X11195539Y-14717984D02*
X11081253Y-14717984D01*
X11138396Y-14717984D02*
X11138396Y-14517984D01*
X11138396Y-14517984D02*
X11119348Y-14546555D01*
X11119348Y-14546555D02*
X11100301Y-14565603D01*
X11100301Y-14565603D02*
X11081253Y-14575127D01*
X11281253Y-14698936D02*
X11290777Y-14708460D01*
X11290777Y-14708460D02*
X11281253Y-14717984D01*
X11281253Y-14717984D02*
X11271729Y-14708460D01*
X11271729Y-14708460D02*
X11281253Y-14698936D01*
X11281253Y-14698936D02*
X11281253Y-14717984D01*
X11462205Y-14584650D02*
X11462205Y-14717984D01*
X11414586Y-14508460D02*
X11366967Y-14651317D01*
X11366967Y-14651317D02*
X11490777Y-14651317D01*
X11576491Y-14717984D02*
X11614586Y-14717984D01*
X11614586Y-14717984D02*
X11633634Y-14708460D01*
X11633634Y-14708460D02*
X11643158Y-14698936D01*
X11643158Y-14698936D02*
X11662205Y-14670365D01*
X11662205Y-14670365D02*
X11671729Y-14632269D01*
X11671729Y-14632269D02*
X11671729Y-14556079D01*
X11671729Y-14556079D02*
X11662205Y-14537031D01*
X11662205Y-14537031D02*
X11652682Y-14527508D01*
X11652682Y-14527508D02*
X11633634Y-14517984D01*
X11633634Y-14517984D02*
X11595539Y-14517984D01*
X11595539Y-14517984D02*
X11576491Y-14527508D01*
X11576491Y-14527508D02*
X11566967Y-14537031D01*
X11566967Y-14537031D02*
X11557443Y-14556079D01*
X11557443Y-14556079D02*
X11557443Y-14603698D01*
X11557443Y-14603698D02*
X11566967Y-14622746D01*
X11566967Y-14622746D02*
X11576491Y-14632269D01*
X11576491Y-14632269D02*
X11595539Y-14641793D01*
X11595539Y-14641793D02*
X11633634Y-14641793D01*
X11633634Y-14641793D02*
X11652682Y-14632269D01*
X11652682Y-14632269D02*
X11662205Y-14622746D01*
X11662205Y-14622746D02*
X11671729Y-14603698D01*
X11766967Y-14717984D02*
X11805062Y-14717984D01*
X11805062Y-14717984D02*
X11824110Y-14708460D01*
X11824110Y-14708460D02*
X11833634Y-14698936D01*
X11833634Y-14698936D02*
X11852682Y-14670365D01*
X11852682Y-14670365D02*
X11862205Y-14632269D01*
X11862205Y-14632269D02*
X11862205Y-14556079D01*
X11862205Y-14556079D02*
X11852682Y-14537031D01*
X11852682Y-14537031D02*
X11843158Y-14527508D01*
X11843158Y-14527508D02*
X11824110Y-14517984D01*
X11824110Y-14517984D02*
X11786015Y-14517984D01*
X11786015Y-14517984D02*
X11766967Y-14527508D01*
X11766967Y-14527508D02*
X11757443Y-14537031D01*
X11757443Y-14537031D02*
X11747920Y-14556079D01*
X11747920Y-14556079D02*
X11747920Y-14603698D01*
X11747920Y-14603698D02*
X11757443Y-14622746D01*
X11757443Y-14622746D02*
X11766967Y-14632269D01*
X11766967Y-14632269D02*
X11786015Y-14641793D01*
X11786015Y-14641793D02*
X11824110Y-14641793D01*
X11824110Y-14641793D02*
X11843158Y-14632269D01*
X11843158Y-14632269D02*
X11852682Y-14622746D01*
X11852682Y-14622746D02*
X11862205Y-14603698D01*
X11947920Y-14717984D02*
X11947920Y-14584650D01*
X11947920Y-14603698D02*
X11957443Y-14594174D01*
X11957443Y-14594174D02*
X11976491Y-14584650D01*
X11976491Y-14584650D02*
X12005063Y-14584650D01*
X12005063Y-14584650D02*
X12024110Y-14594174D01*
X12024110Y-14594174D02*
X12033634Y-14613222D01*
X12033634Y-14613222D02*
X12033634Y-14717984D01*
X12033634Y-14613222D02*
X12043158Y-14594174D01*
X12043158Y-14594174D02*
X12062205Y-14584650D01*
X12062205Y-14584650D02*
X12090777Y-14584650D01*
X12090777Y-14584650D02*
X12109824Y-14594174D01*
X12109824Y-14594174D02*
X12119348Y-14613222D01*
X12119348Y-14613222D02*
X12119348Y-14717984D01*
X12214586Y-14717984D02*
X12214586Y-14584650D01*
X12214586Y-14603698D02*
X12224110Y-14594174D01*
X12224110Y-14594174D02*
X12243158Y-14584650D01*
X12243158Y-14584650D02*
X12271729Y-14584650D01*
X12271729Y-14584650D02*
X12290777Y-14594174D01*
X12290777Y-14594174D02*
X12300301Y-14613222D01*
X12300301Y-14613222D02*
X12300301Y-14717984D01*
X12300301Y-14613222D02*
X12309824Y-14594174D01*
X12309824Y-14594174D02*
X12328872Y-14584650D01*
X12328872Y-14584650D02*
X12357443Y-14584650D01*
X12357443Y-14584650D02*
X12376491Y-14594174D01*
X12376491Y-14594174D02*
X12386015Y-14613222D01*
X12386015Y-14613222D02*
X12386015Y-14717984D01*
X12776491Y-14508460D02*
X12605063Y-14765603D01*
X13033634Y-14517984D02*
X13052682Y-14517984D01*
X13052682Y-14517984D02*
X13071729Y-14527508D01*
X13071729Y-14527508D02*
X13081253Y-14537031D01*
X13081253Y-14537031D02*
X13090777Y-14556079D01*
X13090777Y-14556079D02*
X13100301Y-14594174D01*
X13100301Y-14594174D02*
X13100301Y-14641793D01*
X13100301Y-14641793D02*
X13090777Y-14679888D01*
X13090777Y-14679888D02*
X13081253Y-14698936D01*
X13081253Y-14698936D02*
X13071729Y-14708460D01*
X13071729Y-14708460D02*
X13052682Y-14717984D01*
X13052682Y-14717984D02*
X13033634Y-14717984D01*
X13033634Y-14717984D02*
X13014586Y-14708460D01*
X13014586Y-14708460D02*
X13005063Y-14698936D01*
X13005063Y-14698936D02*
X12995539Y-14679888D01*
X12995539Y-14679888D02*
X12986015Y-14641793D01*
X12986015Y-14641793D02*
X12986015Y-14594174D01*
X12986015Y-14594174D02*
X12995539Y-14556079D01*
X12995539Y-14556079D02*
X13005063Y-14537031D01*
X13005063Y-14537031D02*
X13014586Y-14527508D01*
X13014586Y-14527508D02*
X13033634Y-14517984D01*
X13186015Y-14698936D02*
X13195539Y-14708460D01*
X13195539Y-14708460D02*
X13186015Y-14717984D01*
X13186015Y-14717984D02*
X13176491Y-14708460D01*
X13176491Y-14708460D02*
X13186015Y-14698936D01*
X13186015Y-14698936D02*
X13186015Y-14717984D01*
X13319348Y-14517984D02*
X13338396Y-14517984D01*
X13338396Y-14517984D02*
X13357444Y-14527508D01*
X13357444Y-14527508D02*
X13366967Y-14537031D01*
X13366967Y-14537031D02*
X13376491Y-14556079D01*
X13376491Y-14556079D02*
X13386015Y-14594174D01*
X13386015Y-14594174D02*
X13386015Y-14641793D01*
X13386015Y-14641793D02*
X13376491Y-14679888D01*
X13376491Y-14679888D02*
X13366967Y-14698936D01*
X13366967Y-14698936D02*
X13357444Y-14708460D01*
X13357444Y-14708460D02*
X13338396Y-14717984D01*
X13338396Y-14717984D02*
X13319348Y-14717984D01*
X13319348Y-14717984D02*
X13300301Y-14708460D01*
X13300301Y-14708460D02*
X13290777Y-14698936D01*
X13290777Y-14698936D02*
X13281253Y-14679888D01*
X13281253Y-14679888D02*
X13271729Y-14641793D01*
X13271729Y-14641793D02*
X13271729Y-14594174D01*
X13271729Y-14594174D02*
X13281253Y-14556079D01*
X13281253Y-14556079D02*
X13290777Y-14537031D01*
X13290777Y-14537031D02*
X13300301Y-14527508D01*
X13300301Y-14527508D02*
X13319348Y-14517984D01*
X13566967Y-14517984D02*
X13471729Y-14517984D01*
X13471729Y-14517984D02*
X13462206Y-14613222D01*
X13462206Y-14613222D02*
X13471729Y-14603698D01*
X13471729Y-14603698D02*
X13490777Y-14594174D01*
X13490777Y-14594174D02*
X13538396Y-14594174D01*
X13538396Y-14594174D02*
X13557444Y-14603698D01*
X13557444Y-14603698D02*
X13566967Y-14613222D01*
X13566967Y-14613222D02*
X13576491Y-14632269D01*
X13576491Y-14632269D02*
X13576491Y-14679888D01*
X13576491Y-14679888D02*
X13566967Y-14698936D01*
X13566967Y-14698936D02*
X13557444Y-14708460D01*
X13557444Y-14708460D02*
X13538396Y-14717984D01*
X13538396Y-14717984D02*
X13490777Y-14717984D01*
X13490777Y-14717984D02*
X13471729Y-14708460D01*
X13471729Y-14708460D02*
X13462206Y-14698936D01*
X13671729Y-14717984D02*
X13709825Y-14717984D01*
X13709825Y-14717984D02*
X13728872Y-14708460D01*
X13728872Y-14708460D02*
X13738396Y-14698936D01*
X13738396Y-14698936D02*
X13757444Y-14670365D01*
X13757444Y-14670365D02*
X13766967Y-14632269D01*
X13766967Y-14632269D02*
X13766967Y-14556079D01*
X13766967Y-14556079D02*
X13757444Y-14537031D01*
X13757444Y-14537031D02*
X13747920Y-14527508D01*
X13747920Y-14527508D02*
X13728872Y-14517984D01*
X13728872Y-14517984D02*
X13690777Y-14517984D01*
X13690777Y-14517984D02*
X13671729Y-14527508D01*
X13671729Y-14527508D02*
X13662206Y-14537031D01*
X13662206Y-14537031D02*
X13652682Y-14556079D01*
X13652682Y-14556079D02*
X13652682Y-14603698D01*
X13652682Y-14603698D02*
X13662206Y-14622746D01*
X13662206Y-14622746D02*
X13671729Y-14632269D01*
X13671729Y-14632269D02*
X13690777Y-14641793D01*
X13690777Y-14641793D02*
X13728872Y-14641793D01*
X13728872Y-14641793D02*
X13747920Y-14632269D01*
X13747920Y-14632269D02*
X13757444Y-14622746D01*
X13757444Y-14622746D02*
X13766967Y-14603698D01*
X13890777Y-14517984D02*
X13909825Y-14517984D01*
X13909825Y-14517984D02*
X13928872Y-14527508D01*
X13928872Y-14527508D02*
X13938396Y-14537031D01*
X13938396Y-14537031D02*
X13947920Y-14556079D01*
X13947920Y-14556079D02*
X13957444Y-14594174D01*
X13957444Y-14594174D02*
X13957444Y-14641793D01*
X13957444Y-14641793D02*
X13947920Y-14679888D01*
X13947920Y-14679888D02*
X13938396Y-14698936D01*
X13938396Y-14698936D02*
X13928872Y-14708460D01*
X13928872Y-14708460D02*
X13909825Y-14717984D01*
X13909825Y-14717984D02*
X13890777Y-14717984D01*
X13890777Y-14717984D02*
X13871729Y-14708460D01*
X13871729Y-14708460D02*
X13862206Y-14698936D01*
X13862206Y-14698936D02*
X13852682Y-14679888D01*
X13852682Y-14679888D02*
X13843158Y-14641793D01*
X13843158Y-14641793D02*
X13843158Y-14594174D01*
X13843158Y-14594174D02*
X13852682Y-14556079D01*
X13852682Y-14556079D02*
X13862206Y-14537031D01*
X13862206Y-14537031D02*
X13871729Y-14527508D01*
X13871729Y-14527508D02*
X13890777Y-14517984D01*
X14033634Y-14517984D02*
X14033634Y-14556079D01*
X14109825Y-14517984D02*
X14109825Y-14556079D01*
X14405063Y-14794174D02*
X14395539Y-14784650D01*
X14395539Y-14784650D02*
X14376491Y-14756079D01*
X14376491Y-14756079D02*
X14366968Y-14737031D01*
X14366968Y-14737031D02*
X14357444Y-14708460D01*
X14357444Y-14708460D02*
X14347920Y-14660841D01*
X14347920Y-14660841D02*
X14347920Y-14622746D01*
X14347920Y-14622746D02*
X14357444Y-14575127D01*
X14357444Y-14575127D02*
X14366968Y-14546555D01*
X14366968Y-14546555D02*
X14376491Y-14527508D01*
X14376491Y-14527508D02*
X14395539Y-14498936D01*
X14395539Y-14498936D02*
X14405063Y-14489412D01*
X14566968Y-14584650D02*
X14566968Y-14717984D01*
X14519348Y-14508460D02*
X14471729Y-14651317D01*
X14471729Y-14651317D02*
X14595539Y-14651317D01*
X14824110Y-14717984D02*
X14824110Y-14517984D01*
X14909825Y-14717984D02*
X14909825Y-14613222D01*
X14909825Y-14613222D02*
X14900301Y-14594174D01*
X14900301Y-14594174D02*
X14881253Y-14584650D01*
X14881253Y-14584650D02*
X14852682Y-14584650D01*
X14852682Y-14584650D02*
X14833634Y-14594174D01*
X14833634Y-14594174D02*
X14824110Y-14603698D01*
X15033634Y-14717984D02*
X15014587Y-14708460D01*
X15014587Y-14708460D02*
X15005063Y-14698936D01*
X15005063Y-14698936D02*
X14995539Y-14679888D01*
X14995539Y-14679888D02*
X14995539Y-14622746D01*
X14995539Y-14622746D02*
X15005063Y-14603698D01*
X15005063Y-14603698D02*
X15014587Y-14594174D01*
X15014587Y-14594174D02*
X15033634Y-14584650D01*
X15033634Y-14584650D02*
X15062206Y-14584650D01*
X15062206Y-14584650D02*
X15081253Y-14594174D01*
X15081253Y-14594174D02*
X15090777Y-14603698D01*
X15090777Y-14603698D02*
X15100301Y-14622746D01*
X15100301Y-14622746D02*
X15100301Y-14679888D01*
X15100301Y-14679888D02*
X15090777Y-14698936D01*
X15090777Y-14698936D02*
X15081253Y-14708460D01*
X15081253Y-14708460D02*
X15062206Y-14717984D01*
X15062206Y-14717984D02*
X15033634Y-14717984D01*
X15214587Y-14717984D02*
X15195539Y-14708460D01*
X15195539Y-14708460D02*
X15186015Y-14689412D01*
X15186015Y-14689412D02*
X15186015Y-14517984D01*
X15366968Y-14708460D02*
X15347920Y-14717984D01*
X15347920Y-14717984D02*
X15309825Y-14717984D01*
X15309825Y-14717984D02*
X15290777Y-14708460D01*
X15290777Y-14708460D02*
X15281253Y-14689412D01*
X15281253Y-14689412D02*
X15281253Y-14613222D01*
X15281253Y-14613222D02*
X15290777Y-14594174D01*
X15290777Y-14594174D02*
X15309825Y-14584650D01*
X15309825Y-14584650D02*
X15347920Y-14584650D01*
X15347920Y-14584650D02*
X15366968Y-14594174D01*
X15366968Y-14594174D02*
X15376491Y-14613222D01*
X15376491Y-14613222D02*
X15376491Y-14632269D01*
X15376491Y-14632269D02*
X15281253Y-14651317D01*
X15452682Y-14708460D02*
X15471730Y-14717984D01*
X15471730Y-14717984D02*
X15509825Y-14717984D01*
X15509825Y-14717984D02*
X15528872Y-14708460D01*
X15528872Y-14708460D02*
X15538396Y-14689412D01*
X15538396Y-14689412D02*
X15538396Y-14679888D01*
X15538396Y-14679888D02*
X15528872Y-14660841D01*
X15528872Y-14660841D02*
X15509825Y-14651317D01*
X15509825Y-14651317D02*
X15481253Y-14651317D01*
X15481253Y-14651317D02*
X15462206Y-14641793D01*
X15462206Y-14641793D02*
X15452682Y-14622746D01*
X15452682Y-14622746D02*
X15452682Y-14613222D01*
X15452682Y-14613222D02*
X15462206Y-14594174D01*
X15462206Y-14594174D02*
X15481253Y-14584650D01*
X15481253Y-14584650D02*
X15509825Y-14584650D01*
X15509825Y-14584650D02*
X15528872Y-14594174D01*
X15605063Y-14794174D02*
X15614587Y-14784650D01*
X15614587Y-14784650D02*
X15633634Y-14756079D01*
X15633634Y-14756079D02*
X15643158Y-14737031D01*
X15643158Y-14737031D02*
X15652682Y-14708460D01*
X15652682Y-14708460D02*
X15662206Y-14660841D01*
X15662206Y-14660841D02*
X15662206Y-14622746D01*
X15662206Y-14622746D02*
X15652682Y-14575127D01*
X15652682Y-14575127D02*
X15643158Y-14546555D01*
X15643158Y-14546555D02*
X15633634Y-14527508D01*
X15633634Y-14527508D02*
X15614587Y-14498936D01*
X15614587Y-14498936D02*
X15605063Y-14489412D01*
X10630000Y-14796360D02*
X10830000Y-14996360D01*
X10830000Y-14796360D02*
X10630000Y-14996360D01*
X10800711Y-14967071D02*
X10800711Y-14825649D01*
X10659289Y-14825649D01*
X10659289Y-14967071D01*
X10800711Y-14967071D01*
X11081253Y-14806891D02*
X11090777Y-14797368D01*
X11090777Y-14797368D02*
X11109824Y-14787844D01*
X11109824Y-14787844D02*
X11157444Y-14787844D01*
X11157444Y-14787844D02*
X11176491Y-14797368D01*
X11176491Y-14797368D02*
X11186015Y-14806891D01*
X11186015Y-14806891D02*
X11195539Y-14825939D01*
X11195539Y-14825939D02*
X11195539Y-14844987D01*
X11195539Y-14844987D02*
X11186015Y-14873558D01*
X11186015Y-14873558D02*
X11071729Y-14987844D01*
X11071729Y-14987844D02*
X11195539Y-14987844D01*
X11281253Y-14968796D02*
X11290777Y-14978320D01*
X11290777Y-14978320D02*
X11281253Y-14987844D01*
X11281253Y-14987844D02*
X11271729Y-14978320D01*
X11271729Y-14978320D02*
X11281253Y-14968796D01*
X11281253Y-14968796D02*
X11281253Y-14987844D01*
X11357443Y-14787844D02*
X11490777Y-14787844D01*
X11490777Y-14787844D02*
X11405062Y-14987844D01*
X11605062Y-14787844D02*
X11624110Y-14787844D01*
X11624110Y-14787844D02*
X11643158Y-14797368D01*
X11643158Y-14797368D02*
X11652682Y-14806891D01*
X11652682Y-14806891D02*
X11662205Y-14825939D01*
X11662205Y-14825939D02*
X11671729Y-14864034D01*
X11671729Y-14864034D02*
X11671729Y-14911653D01*
X11671729Y-14911653D02*
X11662205Y-14949748D01*
X11662205Y-14949748D02*
X11652682Y-14968796D01*
X11652682Y-14968796D02*
X11643158Y-14978320D01*
X11643158Y-14978320D02*
X11624110Y-14987844D01*
X11624110Y-14987844D02*
X11605062Y-14987844D01*
X11605062Y-14987844D02*
X11586015Y-14978320D01*
X11586015Y-14978320D02*
X11576491Y-14968796D01*
X11576491Y-14968796D02*
X11566967Y-14949748D01*
X11566967Y-14949748D02*
X11557443Y-14911653D01*
X11557443Y-14911653D02*
X11557443Y-14864034D01*
X11557443Y-14864034D02*
X11566967Y-14825939D01*
X11566967Y-14825939D02*
X11576491Y-14806891D01*
X11576491Y-14806891D02*
X11586015Y-14797368D01*
X11586015Y-14797368D02*
X11605062Y-14787844D01*
X11795539Y-14787844D02*
X11814586Y-14787844D01*
X11814586Y-14787844D02*
X11833634Y-14797368D01*
X11833634Y-14797368D02*
X11843158Y-14806891D01*
X11843158Y-14806891D02*
X11852682Y-14825939D01*
X11852682Y-14825939D02*
X11862205Y-14864034D01*
X11862205Y-14864034D02*
X11862205Y-14911653D01*
X11862205Y-14911653D02*
X11852682Y-14949748D01*
X11852682Y-14949748D02*
X11843158Y-14968796D01*
X11843158Y-14968796D02*
X11833634Y-14978320D01*
X11833634Y-14978320D02*
X11814586Y-14987844D01*
X11814586Y-14987844D02*
X11795539Y-14987844D01*
X11795539Y-14987844D02*
X11776491Y-14978320D01*
X11776491Y-14978320D02*
X11766967Y-14968796D01*
X11766967Y-14968796D02*
X11757443Y-14949748D01*
X11757443Y-14949748D02*
X11747920Y-14911653D01*
X11747920Y-14911653D02*
X11747920Y-14864034D01*
X11747920Y-14864034D02*
X11757443Y-14825939D01*
X11757443Y-14825939D02*
X11766967Y-14806891D01*
X11766967Y-14806891D02*
X11776491Y-14797368D01*
X11776491Y-14797368D02*
X11795539Y-14787844D01*
X11947920Y-14987844D02*
X11947920Y-14854510D01*
X11947920Y-14873558D02*
X11957443Y-14864034D01*
X11957443Y-14864034D02*
X11976491Y-14854510D01*
X11976491Y-14854510D02*
X12005063Y-14854510D01*
X12005063Y-14854510D02*
X12024110Y-14864034D01*
X12024110Y-14864034D02*
X12033634Y-14883082D01*
X12033634Y-14883082D02*
X12033634Y-14987844D01*
X12033634Y-14883082D02*
X12043158Y-14864034D01*
X12043158Y-14864034D02*
X12062205Y-14854510D01*
X12062205Y-14854510D02*
X12090777Y-14854510D01*
X12090777Y-14854510D02*
X12109824Y-14864034D01*
X12109824Y-14864034D02*
X12119348Y-14883082D01*
X12119348Y-14883082D02*
X12119348Y-14987844D01*
X12214586Y-14987844D02*
X12214586Y-14854510D01*
X12214586Y-14873558D02*
X12224110Y-14864034D01*
X12224110Y-14864034D02*
X12243158Y-14854510D01*
X12243158Y-14854510D02*
X12271729Y-14854510D01*
X12271729Y-14854510D02*
X12290777Y-14864034D01*
X12290777Y-14864034D02*
X12300301Y-14883082D01*
X12300301Y-14883082D02*
X12300301Y-14987844D01*
X12300301Y-14883082D02*
X12309824Y-14864034D01*
X12309824Y-14864034D02*
X12328872Y-14854510D01*
X12328872Y-14854510D02*
X12357443Y-14854510D01*
X12357443Y-14854510D02*
X12376491Y-14864034D01*
X12376491Y-14864034D02*
X12386015Y-14883082D01*
X12386015Y-14883082D02*
X12386015Y-14987844D01*
X12776491Y-14778320D02*
X12605063Y-15035463D01*
X13033634Y-14787844D02*
X13052682Y-14787844D01*
X13052682Y-14787844D02*
X13071729Y-14797368D01*
X13071729Y-14797368D02*
X13081253Y-14806891D01*
X13081253Y-14806891D02*
X13090777Y-14825939D01*
X13090777Y-14825939D02*
X13100301Y-14864034D01*
X13100301Y-14864034D02*
X13100301Y-14911653D01*
X13100301Y-14911653D02*
X13090777Y-14949748D01*
X13090777Y-14949748D02*
X13081253Y-14968796D01*
X13081253Y-14968796D02*
X13071729Y-14978320D01*
X13071729Y-14978320D02*
X13052682Y-14987844D01*
X13052682Y-14987844D02*
X13033634Y-14987844D01*
X13033634Y-14987844D02*
X13014586Y-14978320D01*
X13014586Y-14978320D02*
X13005063Y-14968796D01*
X13005063Y-14968796D02*
X12995539Y-14949748D01*
X12995539Y-14949748D02*
X12986015Y-14911653D01*
X12986015Y-14911653D02*
X12986015Y-14864034D01*
X12986015Y-14864034D02*
X12995539Y-14825939D01*
X12995539Y-14825939D02*
X13005063Y-14806891D01*
X13005063Y-14806891D02*
X13014586Y-14797368D01*
X13014586Y-14797368D02*
X13033634Y-14787844D01*
X13186015Y-14968796D02*
X13195539Y-14978320D01*
X13195539Y-14978320D02*
X13186015Y-14987844D01*
X13186015Y-14987844D02*
X13176491Y-14978320D01*
X13176491Y-14978320D02*
X13186015Y-14968796D01*
X13186015Y-14968796D02*
X13186015Y-14987844D01*
X13386015Y-14987844D02*
X13271729Y-14987844D01*
X13328872Y-14987844D02*
X13328872Y-14787844D01*
X13328872Y-14787844D02*
X13309825Y-14816415D01*
X13309825Y-14816415D02*
X13290777Y-14835463D01*
X13290777Y-14835463D02*
X13271729Y-14844987D01*
X13509825Y-14787844D02*
X13528872Y-14787844D01*
X13528872Y-14787844D02*
X13547920Y-14797368D01*
X13547920Y-14797368D02*
X13557444Y-14806891D01*
X13557444Y-14806891D02*
X13566967Y-14825939D01*
X13566967Y-14825939D02*
X13576491Y-14864034D01*
X13576491Y-14864034D02*
X13576491Y-14911653D01*
X13576491Y-14911653D02*
X13566967Y-14949748D01*
X13566967Y-14949748D02*
X13557444Y-14968796D01*
X13557444Y-14968796D02*
X13547920Y-14978320D01*
X13547920Y-14978320D02*
X13528872Y-14987844D01*
X13528872Y-14987844D02*
X13509825Y-14987844D01*
X13509825Y-14987844D02*
X13490777Y-14978320D01*
X13490777Y-14978320D02*
X13481253Y-14968796D01*
X13481253Y-14968796D02*
X13471729Y-14949748D01*
X13471729Y-14949748D02*
X13462206Y-14911653D01*
X13462206Y-14911653D02*
X13462206Y-14864034D01*
X13462206Y-14864034D02*
X13471729Y-14825939D01*
X13471729Y-14825939D02*
X13481253Y-14806891D01*
X13481253Y-14806891D02*
X13490777Y-14797368D01*
X13490777Y-14797368D02*
X13509825Y-14787844D01*
X13747920Y-14787844D02*
X13709825Y-14787844D01*
X13709825Y-14787844D02*
X13690777Y-14797368D01*
X13690777Y-14797368D02*
X13681253Y-14806891D01*
X13681253Y-14806891D02*
X13662206Y-14835463D01*
X13662206Y-14835463D02*
X13652682Y-14873558D01*
X13652682Y-14873558D02*
X13652682Y-14949748D01*
X13652682Y-14949748D02*
X13662206Y-14968796D01*
X13662206Y-14968796D02*
X13671729Y-14978320D01*
X13671729Y-14978320D02*
X13690777Y-14987844D01*
X13690777Y-14987844D02*
X13728872Y-14987844D01*
X13728872Y-14987844D02*
X13747920Y-14978320D01*
X13747920Y-14978320D02*
X13757444Y-14968796D01*
X13757444Y-14968796D02*
X13766967Y-14949748D01*
X13766967Y-14949748D02*
X13766967Y-14902129D01*
X13766967Y-14902129D02*
X13757444Y-14883082D01*
X13757444Y-14883082D02*
X13747920Y-14873558D01*
X13747920Y-14873558D02*
X13728872Y-14864034D01*
X13728872Y-14864034D02*
X13690777Y-14864034D01*
X13690777Y-14864034D02*
X13671729Y-14873558D01*
X13671729Y-14873558D02*
X13662206Y-14883082D01*
X13662206Y-14883082D02*
X13652682Y-14902129D01*
X13833634Y-14787844D02*
X13957444Y-14787844D01*
X13957444Y-14787844D02*
X13890777Y-14864034D01*
X13890777Y-14864034D02*
X13919348Y-14864034D01*
X13919348Y-14864034D02*
X13938396Y-14873558D01*
X13938396Y-14873558D02*
X13947920Y-14883082D01*
X13947920Y-14883082D02*
X13957444Y-14902129D01*
X13957444Y-14902129D02*
X13957444Y-14949748D01*
X13957444Y-14949748D02*
X13947920Y-14968796D01*
X13947920Y-14968796D02*
X13938396Y-14978320D01*
X13938396Y-14978320D02*
X13919348Y-14987844D01*
X13919348Y-14987844D02*
X13862206Y-14987844D01*
X13862206Y-14987844D02*
X13843158Y-14978320D01*
X13843158Y-14978320D02*
X13833634Y-14968796D01*
X14033634Y-14787844D02*
X14033634Y-14825939D01*
X14109825Y-14787844D02*
X14109825Y-14825939D01*
X14405063Y-15064034D02*
X14395539Y-15054510D01*
X14395539Y-15054510D02*
X14376491Y-15025939D01*
X14376491Y-15025939D02*
X14366968Y-15006891D01*
X14366968Y-15006891D02*
X14357444Y-14978320D01*
X14357444Y-14978320D02*
X14347920Y-14930701D01*
X14347920Y-14930701D02*
X14347920Y-14892606D01*
X14347920Y-14892606D02*
X14357444Y-14844987D01*
X14357444Y-14844987D02*
X14366968Y-14816415D01*
X14366968Y-14816415D02*
X14376491Y-14797368D01*
X14376491Y-14797368D02*
X14395539Y-14768796D01*
X14395539Y-14768796D02*
X14405063Y-14759272D01*
X14471729Y-14806891D02*
X14481253Y-14797368D01*
X14481253Y-14797368D02*
X14500301Y-14787844D01*
X14500301Y-14787844D02*
X14547920Y-14787844D01*
X14547920Y-14787844D02*
X14566968Y-14797368D01*
X14566968Y-14797368D02*
X14576491Y-14806891D01*
X14576491Y-14806891D02*
X14586015Y-14825939D01*
X14586015Y-14825939D02*
X14586015Y-14844987D01*
X14586015Y-14844987D02*
X14576491Y-14873558D01*
X14576491Y-14873558D02*
X14462206Y-14987844D01*
X14462206Y-14987844D02*
X14586015Y-14987844D01*
X14824110Y-14987844D02*
X14824110Y-14787844D01*
X14909825Y-14987844D02*
X14909825Y-14883082D01*
X14909825Y-14883082D02*
X14900301Y-14864034D01*
X14900301Y-14864034D02*
X14881253Y-14854510D01*
X14881253Y-14854510D02*
X14852682Y-14854510D01*
X14852682Y-14854510D02*
X14833634Y-14864034D01*
X14833634Y-14864034D02*
X14824110Y-14873558D01*
X15033634Y-14987844D02*
X15014587Y-14978320D01*
X15014587Y-14978320D02*
X15005063Y-14968796D01*
X15005063Y-14968796D02*
X14995539Y-14949748D01*
X14995539Y-14949748D02*
X14995539Y-14892606D01*
X14995539Y-14892606D02*
X15005063Y-14873558D01*
X15005063Y-14873558D02*
X15014587Y-14864034D01*
X15014587Y-14864034D02*
X15033634Y-14854510D01*
X15033634Y-14854510D02*
X15062206Y-14854510D01*
X15062206Y-14854510D02*
X15081253Y-14864034D01*
X15081253Y-14864034D02*
X15090777Y-14873558D01*
X15090777Y-14873558D02*
X15100301Y-14892606D01*
X15100301Y-14892606D02*
X15100301Y-14949748D01*
X15100301Y-14949748D02*
X15090777Y-14968796D01*
X15090777Y-14968796D02*
X15081253Y-14978320D01*
X15081253Y-14978320D02*
X15062206Y-14987844D01*
X15062206Y-14987844D02*
X15033634Y-14987844D01*
X15214587Y-14987844D02*
X15195539Y-14978320D01*
X15195539Y-14978320D02*
X15186015Y-14959272D01*
X15186015Y-14959272D02*
X15186015Y-14787844D01*
X15366968Y-14978320D02*
X15347920Y-14987844D01*
X15347920Y-14987844D02*
X15309825Y-14987844D01*
X15309825Y-14987844D02*
X15290777Y-14978320D01*
X15290777Y-14978320D02*
X15281253Y-14959272D01*
X15281253Y-14959272D02*
X15281253Y-14883082D01*
X15281253Y-14883082D02*
X15290777Y-14864034D01*
X15290777Y-14864034D02*
X15309825Y-14854510D01*
X15309825Y-14854510D02*
X15347920Y-14854510D01*
X15347920Y-14854510D02*
X15366968Y-14864034D01*
X15366968Y-14864034D02*
X15376491Y-14883082D01*
X15376491Y-14883082D02*
X15376491Y-14902129D01*
X15376491Y-14902129D02*
X15281253Y-14921177D01*
X15452682Y-14978320D02*
X15471730Y-14987844D01*
X15471730Y-14987844D02*
X15509825Y-14987844D01*
X15509825Y-14987844D02*
X15528872Y-14978320D01*
X15528872Y-14978320D02*
X15538396Y-14959272D01*
X15538396Y-14959272D02*
X15538396Y-14949748D01*
X15538396Y-14949748D02*
X15528872Y-14930701D01*
X15528872Y-14930701D02*
X15509825Y-14921177D01*
X15509825Y-14921177D02*
X15481253Y-14921177D01*
X15481253Y-14921177D02*
X15462206Y-14911653D01*
X15462206Y-14911653D02*
X15452682Y-14892606D01*
X15452682Y-14892606D02*
X15452682Y-14883082D01*
X15452682Y-14883082D02*
X15462206Y-14864034D01*
X15462206Y-14864034D02*
X15481253Y-14854510D01*
X15481253Y-14854510D02*
X15509825Y-14854510D01*
X15509825Y-14854510D02*
X15528872Y-14864034D01*
X15605063Y-15064034D02*
X15614587Y-15054510D01*
X15614587Y-15054510D02*
X15633634Y-15025939D01*
X15633634Y-15025939D02*
X15643158Y-15006891D01*
X15643158Y-15006891D02*
X15652682Y-14978320D01*
X15652682Y-14978320D02*
X15662206Y-14930701D01*
X15662206Y-14930701D02*
X15662206Y-14892606D01*
X15662206Y-14892606D02*
X15652682Y-14844987D01*
X15652682Y-14844987D02*
X15643158Y-14816415D01*
X15643158Y-14816415D02*
X15633634Y-14797368D01*
X15633634Y-14797368D02*
X15614587Y-14768796D01*
X15614587Y-14768796D02*
X15605063Y-14759272D01*
M02*
