G04 #@! TF.GenerationSoftware,KiCad,Pcbnew,9.0.2+dfsg-1*
G04 #@! TF.CreationDate,2025-08-18T20:52:40-04:00*
G04 #@! TF.ProjectId,Complex_Controller_V1,436f6d70-6c65-4785-9f43-6f6e74726f6c,rev?*
G04 #@! TF.SameCoordinates,Original*
G04 #@! TF.FileFunction,Paste,Top*
G04 #@! TF.FilePolarity,Positive*
%FSLAX46Y46*%
G04 Gerber Fmt 4.6, Leading zero omitted, Abs format (unit mm)*
G04 Created by KiCad (PCBNEW 9.0.2+dfsg-1) date 2025-08-18 20:52:40*
%MOMM*%
%LPD*%
G01*
G04 APERTURE LIST*
G04 Aperture macros list*
%AMRoundRect*
0 Rectangle with rounded corners*
0 $1 Rounding radius*
0 $2 $3 $4 $5 $6 $7 $8 $9 X,Y pos of 4 corners*
0 Add a 4 corners polygon primitive as box body*
4,1,4,$2,$3,$4,$5,$6,$7,$8,$9,$2,$3,0*
0 Add four circle primitives for the rounded corners*
1,1,$1+$1,$2,$3*
1,1,$1+$1,$4,$5*
1,1,$1+$1,$6,$7*
1,1,$1+$1,$8,$9*
0 Add four rect primitives between the rounded corners*
20,1,$1+$1,$2,$3,$4,$5,0*
20,1,$1+$1,$4,$5,$6,$7,0*
20,1,$1+$1,$6,$7,$8,$9,0*
20,1,$1+$1,$8,$9,$2,$3,0*%
G04 Aperture macros list end*
%ADD10RoundRect,0.140000X-0.170000X0.140000X-0.170000X-0.140000X0.170000X-0.140000X0.170000X0.140000X0*%
%ADD11RoundRect,0.075000X-0.075000X-0.662500X0.075000X-0.662500X0.075000X0.662500X-0.075000X0.662500X0*%
%ADD12RoundRect,0.075000X-0.662500X-0.075000X0.662500X-0.075000X0.662500X0.075000X-0.662500X0.075000X0*%
%ADD13R,1.350000X0.400000*%
%ADD14R,1.600000X2.100000*%
%ADD15R,1.900000X1.900000*%
%ADD16R,1.900000X1.800000*%
%ADD17RoundRect,0.225000X0.250000X-0.225000X0.250000X0.225000X-0.250000X0.225000X-0.250000X-0.225000X0*%
%ADD18RoundRect,0.225000X-0.225000X-0.250000X0.225000X-0.250000X0.225000X0.250000X-0.225000X0.250000X0*%
%ADD19RoundRect,0.200000X-0.200000X-0.275000X0.200000X-0.275000X0.200000X0.275000X-0.200000X0.275000X0*%
%ADD20RoundRect,0.375000X-0.625000X-0.375000X0.625000X-0.375000X0.625000X0.375000X-0.625000X0.375000X0*%
%ADD21RoundRect,0.500000X-0.500000X-1.400000X0.500000X-1.400000X0.500000X1.400000X-0.500000X1.400000X0*%
%ADD22RoundRect,0.225000X0.225000X0.250000X-0.225000X0.250000X-0.225000X-0.250000X0.225000X-0.250000X0*%
%ADD23RoundRect,0.375000X0.375000X-0.625000X0.375000X0.625000X-0.375000X0.625000X-0.375000X-0.625000X0*%
%ADD24RoundRect,0.500000X1.400000X-0.500000X1.400000X0.500000X-1.400000X0.500000X-1.400000X-0.500000X0*%
%ADD25RoundRect,0.140000X0.021213X-0.219203X0.219203X-0.021213X-0.021213X0.219203X-0.219203X0.021213X0*%
%ADD26RoundRect,0.140000X-0.140000X-0.170000X0.140000X-0.170000X0.140000X0.170000X-0.140000X0.170000X0*%
%ADD27RoundRect,0.225000X-0.250000X0.225000X-0.250000X-0.225000X0.250000X-0.225000X0.250000X0.225000X0*%
%ADD28RoundRect,0.140000X0.140000X0.170000X-0.140000X0.170000X-0.140000X-0.170000X0.140000X-0.170000X0*%
%ADD29RoundRect,0.218750X0.256250X-0.218750X0.256250X0.218750X-0.256250X0.218750X-0.256250X-0.218750X0*%
%ADD30R,1.000000X1.100000*%
%ADD31RoundRect,0.140000X0.219203X0.021213X0.021213X0.219203X-0.219203X-0.021213X-0.021213X-0.219203X0*%
%ADD32R,0.970000X1.000000*%
%ADD33RoundRect,0.200000X0.200000X0.275000X-0.200000X0.275000X-0.200000X-0.275000X0.200000X-0.275000X0*%
%ADD34R,2.400000X3.100000*%
%ADD35R,2.200000X0.500000*%
G04 APERTURE END LIST*
D10*
X152220267Y-109961000D03*
X152220267Y-109001000D03*
D11*
X145575000Y-99837500D03*
X146075000Y-99837500D03*
X146575000Y-99837500D03*
X147075000Y-99837500D03*
X147575000Y-99837500D03*
X148075000Y-99837500D03*
X148575000Y-99837500D03*
X149075000Y-99837500D03*
X149575000Y-99837500D03*
X150075000Y-99837500D03*
X150575000Y-99837500D03*
X151075000Y-99837500D03*
D12*
X152487500Y-101250000D03*
X152487500Y-101750000D03*
X152487500Y-102250000D03*
X152487500Y-102750000D03*
X152487500Y-103250000D03*
X152487500Y-103750000D03*
X152487500Y-104250000D03*
X152487500Y-104750000D03*
X152487500Y-105250000D03*
X152487500Y-105750000D03*
X152487500Y-106250000D03*
X152487500Y-106750000D03*
D11*
X151075000Y-108162500D03*
X150575000Y-108162500D03*
X150075000Y-108162500D03*
X149575000Y-108162500D03*
X149075000Y-108162500D03*
X148575000Y-108162500D03*
X148075000Y-108162500D03*
X147575000Y-108162500D03*
X147075000Y-108162500D03*
X146575000Y-108162500D03*
X146075000Y-108162500D03*
X145575000Y-108162500D03*
D12*
X144162500Y-106750000D03*
X144162500Y-106250000D03*
X144162500Y-105750000D03*
X144162500Y-105250000D03*
X144162500Y-104750000D03*
X144162500Y-104250000D03*
X144162500Y-103750000D03*
X144162500Y-103250000D03*
X144162500Y-102750000D03*
X144162500Y-102250000D03*
X144162500Y-101750000D03*
X144162500Y-101250000D03*
D13*
X112567349Y-103576281D03*
X112567349Y-102926281D03*
X112567349Y-104226281D03*
X112567349Y-102276281D03*
X112567349Y-104876281D03*
D14*
X112442349Y-100476281D03*
X112442349Y-106676281D03*
D15*
X109892349Y-102376281D03*
X109892349Y-104776281D03*
D16*
X109892349Y-99776281D03*
X109892349Y-107376281D03*
D17*
X141849402Y-120000000D03*
X141849402Y-118450000D03*
D18*
X152325000Y-98979673D03*
X153875000Y-98979673D03*
D19*
X116818185Y-98703894D03*
X118468185Y-98703894D03*
D20*
X126675000Y-116200000D03*
X126675000Y-118500000D03*
D21*
X132975000Y-118500000D03*
D20*
X126675000Y-120800000D03*
D22*
X141875000Y-109000000D03*
X140325000Y-109000000D03*
D23*
X145525000Y-92650000D03*
X147825000Y-92650000D03*
D24*
X147825000Y-86350000D03*
D23*
X150125000Y-92650000D03*
D25*
X156745189Y-101745189D03*
X157424011Y-101066367D03*
D26*
X138065003Y-105650000D03*
X139025003Y-105650000D03*
D27*
X124325000Y-120000000D03*
X124325000Y-121550000D03*
D22*
X140325000Y-113030000D03*
X138775000Y-113030000D03*
D27*
X143216402Y-86628356D03*
X143216402Y-88178356D03*
D28*
X138530000Y-107000000D03*
X137570000Y-107000000D03*
D29*
X123825000Y-112575000D03*
X123825000Y-111000000D03*
D30*
X139025003Y-104150000D03*
X139025002Y-102500000D03*
X137774999Y-102500000D03*
X137775000Y-104150000D03*
D31*
X144565925Y-97809075D03*
X143887103Y-97130255D03*
D27*
X135325000Y-118522986D03*
X135325000Y-120072986D03*
D19*
X165963263Y-98703894D03*
X167613263Y-98703894D03*
D32*
X142003832Y-112962753D03*
X142003832Y-111492753D03*
D28*
X139025003Y-101150000D03*
X138065003Y-101150000D03*
D25*
X141263470Y-100213470D03*
X141942292Y-99534648D03*
D33*
X149150000Y-97500000D03*
X147500000Y-97500000D03*
D34*
X172675000Y-96800000D03*
D35*
X169800000Y-94895000D03*
X169800000Y-96165000D03*
X169800000Y-97435000D03*
X169800000Y-98705000D03*
X175550000Y-98705000D03*
X175550000Y-97435000D03*
X175550000Y-96165000D03*
X175550000Y-94895000D03*
D17*
X152553147Y-92846280D03*
X152553147Y-91296280D03*
D22*
X176864991Y-100421212D03*
X175314991Y-100421212D03*
D34*
X123475000Y-96800000D03*
D35*
X120600000Y-94895000D03*
X120600000Y-96165000D03*
X120600000Y-97435000D03*
X120600000Y-98705000D03*
X126350000Y-98705000D03*
X126350000Y-97435000D03*
X126350000Y-96165000D03*
X126350000Y-94895000D03*
D22*
X140314860Y-111455590D03*
X138764860Y-111455590D03*
X127897507Y-102191327D03*
X126347507Y-102191327D03*
X127875000Y-100500000D03*
X126325000Y-100500000D03*
X176875000Y-102000000D03*
X175325000Y-102000000D03*
M02*
