G04 #@! TF.GenerationSoftware,KiCad,Pcbnew,9.0.2+dfsg-1*
G04 #@! TF.CreationDate,2025-08-18T20:52:40-04:00*
G04 #@! TF.ProjectId,Complex_Controller_V1,436f6d70-6c65-4785-9f43-6f6e74726f6c,rev?*
G04 #@! TF.SameCoordinates,Original*
G04 #@! TF.FileFunction,Copper,L1,Top*
G04 #@! TF.FilePolarity,Positive*
%FSLAX46Y46*%
G04 Gerber Fmt 4.6, Leading zero omitted, Abs format (unit mm)*
G04 Created by KiCad (PCBNEW 9.0.2+dfsg-1) date 2025-08-18 20:52:40*
%MOMM*%
%LPD*%
G01*
G04 APERTURE LIST*
G04 Aperture macros list*
%AMRoundRect*
0 Rectangle with rounded corners*
0 $1 Rounding radius*
0 $2 $3 $4 $5 $6 $7 $8 $9 X,Y pos of 4 corners*
0 Add a 4 corners polygon primitive as box body*
4,1,4,$2,$3,$4,$5,$6,$7,$8,$9,$2,$3,0*
0 Add four circle primitives for the rounded corners*
1,1,$1+$1,$2,$3*
1,1,$1+$1,$4,$5*
1,1,$1+$1,$6,$7*
1,1,$1+$1,$8,$9*
0 Add four rect primitives between the rounded corners*
20,1,$1+$1,$2,$3,$4,$5,0*
20,1,$1+$1,$4,$5,$6,$7,0*
20,1,$1+$1,$6,$7,$8,$9,0*
20,1,$1+$1,$8,$9,$2,$3,0*%
G04 Aperture macros list end*
G04 #@! TA.AperFunction,ComponentPad*
%ADD10O,1.700000X1.950000*%
G04 #@! TD*
G04 #@! TA.AperFunction,ComponentPad*
%ADD11RoundRect,0.250000X-0.600000X-0.725000X0.600000X-0.725000X0.600000X0.725000X-0.600000X0.725000X0*%
G04 #@! TD*
G04 #@! TA.AperFunction,ComponentPad*
%ADD12O,1.950000X1.700000*%
G04 #@! TD*
G04 #@! TA.AperFunction,ComponentPad*
%ADD13RoundRect,0.250000X0.725000X-0.600000X0.725000X0.600000X-0.725000X0.600000X-0.725000X-0.600000X0*%
G04 #@! TD*
G04 #@! TA.AperFunction,SMDPad,CuDef*
%ADD14RoundRect,0.140000X-0.170000X0.140000X-0.170000X-0.140000X0.170000X-0.140000X0.170000X0.140000X0*%
G04 #@! TD*
G04 #@! TA.AperFunction,SMDPad,CuDef*
%ADD15RoundRect,0.075000X-0.075000X-0.662500X0.075000X-0.662500X0.075000X0.662500X-0.075000X0.662500X0*%
G04 #@! TD*
G04 #@! TA.AperFunction,SMDPad,CuDef*
%ADD16RoundRect,0.075000X-0.662500X-0.075000X0.662500X-0.075000X0.662500X0.075000X-0.662500X0.075000X0*%
G04 #@! TD*
G04 #@! TA.AperFunction,SMDPad,CuDef*
%ADD17R,1.350000X0.400000*%
G04 #@! TD*
G04 #@! TA.AperFunction,SMDPad,CuDef*
%ADD18R,1.600000X2.100000*%
G04 #@! TD*
G04 #@! TA.AperFunction,SMDPad,CuDef*
%ADD19R,1.900000X1.900000*%
G04 #@! TD*
G04 #@! TA.AperFunction,SMDPad,CuDef*
%ADD20R,1.900000X1.800000*%
G04 #@! TD*
G04 #@! TA.AperFunction,SMDPad,CuDef*
%ADD21RoundRect,0.225000X0.250000X-0.225000X0.250000X0.225000X-0.250000X0.225000X-0.250000X-0.225000X0*%
G04 #@! TD*
G04 #@! TA.AperFunction,ComponentPad*
%ADD22R,1.700000X1.700000*%
G04 #@! TD*
G04 #@! TA.AperFunction,ComponentPad*
%ADD23C,1.700000*%
G04 #@! TD*
G04 #@! TA.AperFunction,SMDPad,CuDef*
%ADD24RoundRect,0.225000X-0.225000X-0.250000X0.225000X-0.250000X0.225000X0.250000X-0.225000X0.250000X0*%
G04 #@! TD*
G04 #@! TA.AperFunction,SMDPad,CuDef*
%ADD25RoundRect,0.200000X-0.200000X-0.275000X0.200000X-0.275000X0.200000X0.275000X-0.200000X0.275000X0*%
G04 #@! TD*
G04 #@! TA.AperFunction,ComponentPad*
%ADD26RoundRect,0.760000X-1.140000X-1.140000X1.140000X-1.140000X1.140000X1.140000X-1.140000X1.140000X0*%
G04 #@! TD*
G04 #@! TA.AperFunction,ComponentPad*
%ADD27C,4.000000*%
G04 #@! TD*
G04 #@! TA.AperFunction,SMDPad,CuDef*
%ADD28RoundRect,0.375000X-0.625000X-0.375000X0.625000X-0.375000X0.625000X0.375000X-0.625000X0.375000X0*%
G04 #@! TD*
G04 #@! TA.AperFunction,SMDPad,CuDef*
%ADD29RoundRect,0.500000X-0.500000X-1.400000X0.500000X-1.400000X0.500000X1.400000X-0.500000X1.400000X0*%
G04 #@! TD*
G04 #@! TA.AperFunction,SMDPad,CuDef*
%ADD30RoundRect,0.225000X0.225000X0.250000X-0.225000X0.250000X-0.225000X-0.250000X0.225000X-0.250000X0*%
G04 #@! TD*
G04 #@! TA.AperFunction,SMDPad,CuDef*
%ADD31RoundRect,0.375000X0.375000X-0.625000X0.375000X0.625000X-0.375000X0.625000X-0.375000X-0.625000X0*%
G04 #@! TD*
G04 #@! TA.AperFunction,SMDPad,CuDef*
%ADD32RoundRect,0.500000X1.400000X-0.500000X1.400000X0.500000X-1.400000X0.500000X-1.400000X-0.500000X0*%
G04 #@! TD*
G04 #@! TA.AperFunction,SMDPad,CuDef*
%ADD33RoundRect,0.140000X0.021213X-0.219203X0.219203X-0.021213X-0.021213X0.219203X-0.219203X0.021213X0*%
G04 #@! TD*
G04 #@! TA.AperFunction,SMDPad,CuDef*
%ADD34RoundRect,0.140000X-0.140000X-0.170000X0.140000X-0.170000X0.140000X0.170000X-0.140000X0.170000X0*%
G04 #@! TD*
G04 #@! TA.AperFunction,SMDPad,CuDef*
%ADD35RoundRect,0.225000X-0.250000X0.225000X-0.250000X-0.225000X0.250000X-0.225000X0.250000X0.225000X0*%
G04 #@! TD*
G04 #@! TA.AperFunction,SMDPad,CuDef*
%ADD36RoundRect,0.140000X0.140000X0.170000X-0.140000X0.170000X-0.140000X-0.170000X0.140000X-0.170000X0*%
G04 #@! TD*
G04 #@! TA.AperFunction,SMDPad,CuDef*
%ADD37RoundRect,0.218750X0.256250X-0.218750X0.256250X0.218750X-0.256250X0.218750X-0.256250X-0.218750X0*%
G04 #@! TD*
G04 #@! TA.AperFunction,SMDPad,CuDef*
%ADD38R,1.000000X1.100000*%
G04 #@! TD*
G04 #@! TA.AperFunction,SMDPad,CuDef*
%ADD39RoundRect,0.140000X0.219203X0.021213X0.021213X0.219203X-0.219203X-0.021213X-0.021213X-0.219203X0*%
G04 #@! TD*
G04 #@! TA.AperFunction,ComponentPad*
%ADD40C,1.320800*%
G04 #@! TD*
G04 #@! TA.AperFunction,SMDPad,CuDef*
%ADD41R,0.970000X1.000000*%
G04 #@! TD*
G04 #@! TA.AperFunction,SMDPad,CuDef*
%ADD42RoundRect,0.200000X0.200000X0.275000X-0.200000X0.275000X-0.200000X-0.275000X0.200000X-0.275000X0*%
G04 #@! TD*
G04 #@! TA.AperFunction,SMDPad,CuDef*
%ADD43R,2.200000X0.500000*%
G04 #@! TD*
G04 #@! TA.AperFunction,ComponentPad*
%ADD44C,0.630000*%
G04 #@! TD*
G04 #@! TA.AperFunction,SMDPad,CuDef*
%ADD45R,2.950000X4.900000*%
G04 #@! TD*
G04 #@! TA.AperFunction,ComponentPad*
%ADD46R,1.295400X1.295400*%
G04 #@! TD*
G04 #@! TA.AperFunction,ComponentPad*
%ADD47C,1.295400*%
G04 #@! TD*
G04 #@! TA.AperFunction,ComponentPad*
%ADD48C,1.498600*%
G04 #@! TD*
G04 #@! TA.AperFunction,ComponentPad*
%ADD49RoundRect,0.250000X0.600000X0.750000X-0.600000X0.750000X-0.600000X-0.750000X0.600000X-0.750000X0*%
G04 #@! TD*
G04 #@! TA.AperFunction,ComponentPad*
%ADD50O,1.700000X2.000000*%
G04 #@! TD*
G04 #@! TA.AperFunction,ViaPad*
%ADD51C,0.600000*%
G04 #@! TD*
G04 #@! TA.AperFunction,ViaPad*
%ADD52C,1.300000*%
G04 #@! TD*
G04 #@! TA.AperFunction,Conductor*
%ADD53C,0.300000*%
G04 #@! TD*
G04 #@! TA.AperFunction,Conductor*
%ADD54C,0.500000*%
G04 #@! TD*
G04 #@! TA.AperFunction,Conductor*
%ADD55C,1.300000*%
G04 #@! TD*
G04 #@! TA.AperFunction,Conductor*
%ADD56C,1.000000*%
G04 #@! TD*
G04 APERTURE END LIST*
D10*
X136825000Y-88200000D03*
X134325000Y-88200000D03*
D11*
X131825000Y-88200000D03*
D12*
X182825000Y-102500000D03*
X182825000Y-105000000D03*
X182825000Y-107500000D03*
D13*
X182825000Y-110000000D03*
D14*
X152220267Y-109961000D03*
X152220267Y-109001000D03*
D15*
X145575000Y-99837500D03*
X146075000Y-99837500D03*
X146575000Y-99837500D03*
X147075000Y-99837500D03*
X147575000Y-99837500D03*
X148075000Y-99837500D03*
X148575000Y-99837500D03*
X149075000Y-99837500D03*
X149575000Y-99837500D03*
X150075000Y-99837500D03*
X150575000Y-99837500D03*
X151075000Y-99837500D03*
D16*
X152487500Y-101250000D03*
X152487500Y-101750000D03*
X152487500Y-102250000D03*
X152487500Y-102750000D03*
X152487500Y-103250000D03*
X152487500Y-103750000D03*
X152487500Y-104250000D03*
X152487500Y-104750000D03*
X152487500Y-105250000D03*
X152487500Y-105750000D03*
X152487500Y-106250000D03*
X152487500Y-106750000D03*
D15*
X151075000Y-108162500D03*
X150575000Y-108162500D03*
X150075000Y-108162500D03*
X149575000Y-108162500D03*
X149075000Y-108162500D03*
X148575000Y-108162500D03*
X148075000Y-108162500D03*
X147575000Y-108162500D03*
X147075000Y-108162500D03*
X146575000Y-108162500D03*
X146075000Y-108162500D03*
X145575000Y-108162500D03*
D16*
X144162500Y-106750000D03*
X144162500Y-106250000D03*
X144162500Y-105750000D03*
X144162500Y-105250000D03*
X144162500Y-104750000D03*
X144162500Y-104250000D03*
X144162500Y-103750000D03*
X144162500Y-103250000D03*
X144162500Y-102750000D03*
X144162500Y-102250000D03*
X144162500Y-101750000D03*
X144162500Y-101250000D03*
D17*
X112567349Y-103576281D03*
X112567349Y-102926281D03*
X112567349Y-104226281D03*
X112567349Y-102276281D03*
X112567349Y-104876281D03*
D18*
X112442349Y-100476281D03*
X112442349Y-106676281D03*
D19*
X109892349Y-102376281D03*
X109892349Y-104776281D03*
D20*
X109892349Y-99776281D03*
X109892349Y-107376281D03*
D21*
X141849402Y-120000000D03*
X141849402Y-118450000D03*
D22*
X161000000Y-117040000D03*
D23*
X158460000Y-117040000D03*
X161000000Y-114500000D03*
X158460000Y-114500000D03*
X161000000Y-111960000D03*
X158460000Y-111960000D03*
D24*
X152325000Y-98979673D03*
X153875000Y-98979673D03*
D25*
X116818185Y-98703894D03*
X118468185Y-98703894D03*
D26*
X113825000Y-119000000D03*
D27*
X118825000Y-119000000D03*
D28*
X126675000Y-116200000D03*
X126675000Y-118500000D03*
D29*
X132975000Y-118500000D03*
D28*
X126675000Y-120800000D03*
D30*
X141875000Y-109000000D03*
X140325000Y-109000000D03*
D31*
X145525000Y-92650000D03*
X147825000Y-92650000D03*
D32*
X147825000Y-86350000D03*
D31*
X150125000Y-92650000D03*
D33*
X156745189Y-101745189D03*
X157424011Y-101066367D03*
D34*
X138065003Y-105650000D03*
X139025003Y-105650000D03*
D35*
X124325000Y-120000000D03*
X124325000Y-121550000D03*
D30*
X140325000Y-113030000D03*
X138775000Y-113030000D03*
D35*
X143216402Y-86628356D03*
X143216402Y-88178356D03*
D36*
X138530000Y-107000000D03*
X137570000Y-107000000D03*
D37*
X123825000Y-112575000D03*
X123825000Y-111000000D03*
D38*
X139025003Y-104150000D03*
X139025002Y-102500000D03*
X137774999Y-102500000D03*
X137775000Y-104150000D03*
D39*
X144565925Y-97809075D03*
X143887103Y-97130255D03*
D35*
X135325000Y-118522986D03*
X135325000Y-120072986D03*
D25*
X165963263Y-98703894D03*
X167613263Y-98703894D03*
D40*
X146325000Y-118000000D03*
X146325000Y-120000001D03*
X148324999Y-118000000D03*
X148324999Y-120000001D03*
X150325000Y-118000000D03*
X150325000Y-120000001D03*
X152324998Y-118000000D03*
X152324998Y-120000001D03*
D41*
X142003832Y-112962753D03*
X142003832Y-111492753D03*
D36*
X139025003Y-101150000D03*
X138065003Y-101150000D03*
D33*
X141263470Y-100213470D03*
X141942292Y-99534648D03*
D42*
X149150000Y-97500000D03*
X147500000Y-97500000D03*
D43*
X169800000Y-94895000D03*
X169800000Y-96165000D03*
X169800000Y-97435000D03*
X169800000Y-98705000D03*
X175550000Y-98705000D03*
X175550000Y-97435000D03*
X175550000Y-96165000D03*
X175550000Y-94895000D03*
D44*
X172025000Y-95500000D03*
X172025000Y-96800000D03*
X172025000Y-98100000D03*
D45*
X172675000Y-96800000D03*
D44*
X173325000Y-95500000D03*
X173325000Y-96800000D03*
X173325000Y-98100000D03*
D21*
X152553147Y-92846280D03*
X152553147Y-91296280D03*
D30*
X176864991Y-100421212D03*
X175314991Y-100421212D03*
D43*
X120600000Y-94895000D03*
X120600000Y-96165000D03*
X120600000Y-97435000D03*
X120600000Y-98705000D03*
X126350000Y-98705000D03*
X126350000Y-97435000D03*
X126350000Y-96165000D03*
X126350000Y-94895000D03*
D44*
X122825000Y-95500000D03*
X122825000Y-96800000D03*
X122825000Y-98100000D03*
D45*
X123475000Y-96800000D03*
D44*
X124125000Y-95500000D03*
X124125000Y-96800000D03*
X124125000Y-98100000D03*
D46*
X184325000Y-119500000D03*
D47*
X182325000Y-119500000D03*
X180324999Y-119500000D03*
D48*
X186425001Y-119500000D03*
X178225000Y-119500000D03*
D11*
X158325000Y-88500000D03*
D10*
X160825000Y-88500000D03*
X163325000Y-88500000D03*
D49*
X115325000Y-88500000D03*
D50*
X112825000Y-88500000D03*
D30*
X140314860Y-111455590D03*
X138764860Y-111455590D03*
D46*
X113824999Y-112000000D03*
D47*
X115824999Y-112000000D03*
X117825000Y-112000000D03*
D48*
X111724998Y-112000000D03*
X119924999Y-112000000D03*
D30*
X127897507Y-102191327D03*
X126347507Y-102191327D03*
D49*
X183825000Y-89500000D03*
D50*
X181325000Y-89500000D03*
D30*
X127875000Y-100500000D03*
X126325000Y-100500000D03*
X176875000Y-102000000D03*
X175325000Y-102000000D03*
D51*
X141094731Y-94270304D03*
X114222550Y-104900819D03*
X138500000Y-98850000D03*
X138065003Y-105650000D03*
X139025003Y-101150000D03*
X152220267Y-109961000D03*
X127897507Y-102191327D03*
X157424011Y-101066367D03*
X120000000Y-103000000D03*
X130000000Y-99849000D03*
X130006043Y-103364340D03*
X139000000Y-96000000D03*
X137115243Y-96208344D03*
X151602764Y-97676000D03*
X155000000Y-99000000D03*
X153968224Y-103563920D03*
X155790380Y-103290380D03*
X135000000Y-100000000D03*
X139809621Y-96150000D03*
X132000000Y-102500000D03*
X119000000Y-104000000D03*
X156000000Y-99000000D03*
X137000000Y-97000000D03*
X151000000Y-97150000D03*
X156332447Y-110167553D03*
X150999217Y-102486811D03*
X155833372Y-101752611D03*
X151046644Y-103285407D03*
X151227765Y-104235506D03*
X150634434Y-104821327D03*
X150137030Y-105449000D03*
X149337027Y-105449000D03*
X148065761Y-104985001D03*
X150325000Y-110000000D03*
X146325000Y-98500000D03*
X141849402Y-118450000D03*
X176325000Y-111500000D03*
X173325000Y-108500000D03*
X126675000Y-116200000D03*
X184825000Y-117500000D03*
X110825000Y-116500000D03*
X120600000Y-94895000D03*
X153875000Y-98979673D03*
D52*
X165963263Y-98703894D03*
D51*
X110825000Y-122000000D03*
X139025002Y-102500000D03*
X169800000Y-94895000D03*
X138764860Y-111455590D03*
X184825000Y-121500000D03*
X140325000Y-109000000D03*
X146325000Y-103000000D03*
D52*
X116818185Y-98703894D03*
D51*
X126350000Y-96165000D03*
X137775000Y-104150000D03*
X143887103Y-97130255D03*
X138775000Y-113030000D03*
X175550000Y-96165000D03*
X161000000Y-99000000D03*
X155500000Y-104500000D03*
X149105626Y-114350000D03*
X149825000Y-114000000D03*
X146325000Y-113699000D03*
X143325000Y-120650001D03*
X117890000Y-97435000D03*
X133325000Y-100000000D03*
X169825000Y-116000000D03*
X151199293Y-101124293D03*
X151075000Y-106750000D03*
X167825000Y-114000000D03*
X143325000Y-100000000D03*
X158500000Y-103500000D03*
X140325000Y-117000000D03*
X140325000Y-114350000D03*
X144325000Y-99000000D03*
X162000000Y-109372120D03*
D52*
X167325000Y-116500000D03*
X135825000Y-115500000D03*
D51*
X145825000Y-114350000D03*
X148115380Y-114209620D03*
X155155053Y-95330053D03*
X148835488Y-106908751D03*
X170825000Y-115000000D03*
X168390687Y-113434313D03*
X147325000Y-104500000D03*
X145452880Y-105452880D03*
X150325000Y-89500000D03*
X145325000Y-89500000D03*
D52*
X145325000Y-89500000D03*
X150325000Y-89500000D03*
D51*
X117825000Y-96500000D03*
D53*
X144162500Y-104250000D02*
X143075000Y-104250000D01*
X143075000Y-104250000D02*
X140325000Y-107000000D01*
X140325000Y-107000000D02*
X138530000Y-107000000D01*
D54*
X152553147Y-92846280D02*
X150321280Y-92846280D01*
X150321280Y-92846280D02*
X150125000Y-92650000D01*
X144500000Y-94500000D02*
X150899427Y-94500000D01*
X150899427Y-94500000D02*
X152553147Y-92846280D01*
X139262925Y-93000000D02*
X131075000Y-101187925D01*
X144500000Y-94500000D02*
X143000000Y-93000000D01*
X143000000Y-93000000D02*
X139262925Y-93000000D01*
X131075000Y-101187925D02*
X131075000Y-105750000D01*
D53*
X120000000Y-103000000D02*
X119926281Y-102926281D01*
X119926281Y-102926281D02*
X112567349Y-102926281D01*
X115923760Y-103576240D02*
X115923719Y-103576281D01*
X115923719Y-103576281D02*
X112567349Y-103576281D01*
X114198012Y-104876281D02*
X114222550Y-104900819D01*
X112567349Y-104876281D02*
X114198012Y-104876281D01*
X138500000Y-98850000D02*
X141257644Y-98850000D01*
X141257644Y-98850000D02*
X141942292Y-99534648D01*
X162000000Y-109372120D02*
X161872120Y-109372120D01*
X160352000Y-109000000D02*
X160351000Y-109001000D01*
X151075000Y-109001000D02*
X151075000Y-108162500D01*
X161872120Y-109372120D02*
X161500000Y-109000000D01*
X161500000Y-109000000D02*
X160352000Y-109000000D01*
X160351000Y-109001000D02*
X151075000Y-109001000D01*
X130006043Y-103364340D02*
X130006043Y-102006043D01*
X130006043Y-102006043D02*
X130000000Y-102000000D01*
X130000000Y-102000000D02*
X130000000Y-99849000D01*
X119000000Y-104000000D02*
X116347520Y-104000000D01*
X116347520Y-104000000D02*
X115923760Y-103576240D01*
X120000000Y-103000000D02*
X119926240Y-102926240D01*
X139000000Y-96000000D02*
X137323587Y-96000000D01*
X137323587Y-96000000D02*
X137115243Y-96208344D01*
X155000000Y-99000000D02*
X155000000Y-98808851D01*
X155000000Y-98808851D02*
X153867149Y-97676000D01*
X153867149Y-97676000D02*
X151602764Y-97676000D01*
X151000000Y-97150000D02*
X151150000Y-97000000D01*
X154000000Y-97000000D02*
X156000000Y-99000000D01*
X151150000Y-97000000D02*
X154000000Y-97000000D01*
X153654304Y-103250000D02*
X153968224Y-103563920D01*
X152487500Y-103250000D02*
X153654304Y-103250000D01*
X155500000Y-103000000D02*
X155790380Y-103290380D01*
X154041479Y-102750000D02*
X154255842Y-102964362D01*
X152487500Y-102750000D02*
X154041479Y-102750000D01*
X154255842Y-102964362D02*
X154291480Y-103000000D01*
X154291480Y-103000000D02*
X155500000Y-103000000D01*
X155500000Y-104500000D02*
X154000000Y-104500000D01*
X154000000Y-104500000D02*
X153750000Y-104250000D01*
X153750000Y-104250000D02*
X152487500Y-104250000D01*
X161000000Y-99000000D02*
X162565000Y-97435000D01*
X162565000Y-97435000D02*
X169800000Y-97435000D01*
X153655760Y-102750000D02*
X152487500Y-102750000D01*
X152487500Y-102250000D02*
X154250000Y-102250000D01*
X154250000Y-102250000D02*
X154500000Y-102500000D01*
X154500000Y-102500000D02*
X156791480Y-102500000D01*
X162825000Y-108000000D02*
X168325000Y-113500000D01*
X156791480Y-102500000D02*
X157500000Y-103208520D01*
X157500000Y-105500000D02*
X160000000Y-108000000D01*
X157500000Y-103208520D02*
X157500000Y-105500000D01*
X160000000Y-108000000D02*
X162825000Y-108000000D01*
X168325000Y-113500000D02*
X168390687Y-113434313D01*
X155833372Y-101752611D02*
X154576155Y-101752611D01*
X154576155Y-101752611D02*
X154573544Y-101750000D01*
X154573544Y-101750000D02*
X152487500Y-101750000D01*
X158500000Y-103500000D02*
X156000000Y-101000000D01*
X156000000Y-101000000D02*
X152325000Y-101000000D01*
X135000000Y-100000000D02*
X134500000Y-100000000D01*
X134500000Y-100000000D02*
X132000000Y-102500000D01*
X156332447Y-110167553D02*
X156332447Y-112372447D01*
X156332447Y-112372447D02*
X158460000Y-114500000D01*
X150075000Y-99837500D02*
X150075000Y-101816084D01*
X150075000Y-101816084D02*
X150321416Y-102062500D01*
X150321416Y-102062500D02*
X150574906Y-102062500D01*
X150574906Y-102062500D02*
X150999217Y-102486811D01*
X149575000Y-99837500D02*
X149575000Y-102024604D01*
X149575000Y-102024604D02*
X150835803Y-103285407D01*
X150835803Y-103285407D02*
X151046644Y-103285407D01*
X151077504Y-104235506D02*
X151227765Y-104235506D01*
X149670999Y-102829001D02*
X151077504Y-104235506D01*
X150634434Y-104500947D02*
X150634434Y-104821327D01*
X149787511Y-103654024D02*
X150634434Y-104500947D01*
X149787511Y-103654024D02*
X148575000Y-102441513D01*
X148575000Y-102441513D02*
X148575000Y-99837500D01*
X149988027Y-105299997D02*
X149988027Y-105179346D01*
X149838027Y-104420987D02*
X148958520Y-103541480D01*
X150137030Y-105449000D02*
X149988027Y-105299997D01*
X149988027Y-105179346D02*
X149838027Y-105029346D01*
X149838027Y-105029346D02*
X149838027Y-104420987D01*
X149337027Y-105449000D02*
X149337027Y-104628507D01*
X149337027Y-104628507D02*
X147477000Y-102768480D01*
X147477000Y-102768480D02*
X147477000Y-102522826D01*
X147477000Y-102522826D02*
X147075000Y-102120826D01*
X147075000Y-102120826D02*
X147075000Y-99837500D01*
X146976000Y-102976000D02*
X148334001Y-104334001D01*
X146976000Y-102730346D02*
X146976000Y-102976000D01*
X145251000Y-101005346D02*
X146976000Y-102730346D01*
X144994654Y-100749000D02*
X145003534Y-100749000D01*
X148335415Y-104334001D02*
X148716761Y-104715347D01*
X145251000Y-100996466D02*
X145251000Y-101005346D01*
X142745654Y-98500000D02*
X144994654Y-100749000D01*
X148566761Y-105404655D02*
X148566761Y-106066761D01*
X148334001Y-104334001D02*
X148335415Y-104334001D01*
X148716761Y-104715347D02*
X148716761Y-105254655D01*
X145003534Y-100749000D02*
X145251000Y-100996466D01*
X141325000Y-98000000D02*
X141825000Y-98500000D01*
X148599000Y-106099000D02*
X151000000Y-106099000D01*
X141825000Y-98500000D02*
X142745654Y-98500000D01*
X135325000Y-98000000D02*
X141325000Y-98000000D01*
X133325000Y-100000000D02*
X135325000Y-98000000D01*
X148716761Y-105254655D02*
X148566761Y-105404655D01*
X148566761Y-106066761D02*
X148599000Y-106099000D01*
X151000000Y-106099000D02*
X151000000Y-105375000D01*
X151000000Y-105375000D02*
X151625000Y-104750000D01*
X151625000Y-104750000D02*
X152487500Y-104750000D01*
X148075000Y-102657960D02*
X148958520Y-103541480D01*
X148075000Y-99837500D02*
X148075000Y-102657960D01*
X148958520Y-103541480D02*
X149081253Y-103664213D01*
X148075000Y-106750000D02*
X148075000Y-108162500D01*
X148065761Y-104985001D02*
X148065761Y-106740761D01*
X148065761Y-106740761D02*
X148075000Y-106750000D01*
X151199293Y-101124293D02*
X151075000Y-101000000D01*
X151075000Y-101000000D02*
X151075000Y-99837500D01*
X149075000Y-99837500D02*
X149075000Y-102233002D01*
X149075000Y-102233002D02*
X149670999Y-102829001D01*
X145155760Y-105750000D02*
X144162500Y-105750000D01*
X145452880Y-105452880D02*
X145155760Y-105750000D01*
X146325000Y-103000000D02*
X146325000Y-103500000D01*
X146325000Y-103500000D02*
X145075000Y-104750000D01*
X145075000Y-104750000D02*
X144162500Y-104750000D01*
X148835488Y-106932493D02*
X148575000Y-107192981D01*
X148835488Y-106908751D02*
X148835488Y-106932493D01*
X148575000Y-107192981D02*
X148575000Y-108162500D01*
X150575000Y-108162500D02*
X150575000Y-109750000D01*
X150575000Y-109750000D02*
X150325000Y-110000000D01*
X146075000Y-98750000D02*
X146325000Y-98500000D01*
X146075000Y-99837500D02*
X146075000Y-98750000D01*
X156825000Y-96500000D02*
X164325000Y-104000000D01*
X149150000Y-97500000D02*
X150150000Y-96500000D01*
X168825000Y-104000000D02*
X173325000Y-108500000D01*
X150150000Y-96500000D02*
X153825000Y-96500000D01*
X182325000Y-117500000D02*
X182325000Y-119500000D01*
X176325000Y-111500000D02*
X182325000Y-117500000D01*
X164325000Y-104000000D02*
X168825000Y-104000000D01*
X153825000Y-96500000D02*
X156825000Y-96500000D01*
X142575000Y-103750000D02*
X144162500Y-103750000D01*
X139025003Y-105650000D02*
X139025003Y-104150000D01*
X140675000Y-105650000D02*
X142575000Y-103750000D01*
X139025003Y-105650000D02*
X140675000Y-105650000D01*
X138065003Y-101150000D02*
X138065003Y-102209996D01*
X138065003Y-100840001D02*
X138065003Y-101150000D01*
X141825000Y-102000000D02*
X140325000Y-102000000D01*
X140325000Y-102000000D02*
X139825000Y-101500000D01*
X139825000Y-100500000D02*
X139480164Y-100155164D01*
X139825000Y-101500000D02*
X139825000Y-100500000D01*
X143075000Y-103250000D02*
X141825000Y-102000000D01*
X138065003Y-102209996D02*
X137774999Y-102500000D01*
X139480164Y-100155164D02*
X138749840Y-100155164D01*
X138749840Y-100155164D02*
X138065003Y-100840001D01*
X144162500Y-103250000D02*
X143075000Y-103250000D01*
D54*
X139025003Y-101150000D02*
X139025002Y-102500000D01*
D53*
X184325000Y-121000000D02*
X184825000Y-121500000D01*
X184325000Y-118000000D02*
X184825000Y-117500000D01*
X184325000Y-119500000D02*
X184325000Y-118000000D01*
D54*
X137775000Y-104150000D02*
X137775000Y-105359997D01*
D55*
X110825000Y-116500000D02*
X113325000Y-119000000D01*
D53*
X184325000Y-119500000D02*
X184325000Y-121000000D01*
D55*
X113825000Y-119000000D02*
X110825000Y-122000000D01*
X113325000Y-119000000D02*
X113825000Y-119000000D01*
D54*
X137775000Y-105359997D02*
X138065003Y-105650000D01*
D55*
X118468185Y-98703894D02*
X120598894Y-98703894D01*
X167613263Y-98703894D02*
X169798894Y-98703894D01*
X120598894Y-98703894D02*
X120600000Y-98705000D01*
X169798894Y-98703894D02*
X169800000Y-98705000D01*
D56*
X175930000Y-94895000D02*
X181325000Y-89500000D01*
X175550000Y-94895000D02*
X175930000Y-94895000D01*
X175550000Y-97435000D02*
X177650000Y-97435000D01*
X183825000Y-91260000D02*
X183825000Y-89500000D01*
X177650000Y-97435000D02*
X183825000Y-91260000D01*
X115625000Y-93000000D02*
X125825000Y-93000000D01*
X125825000Y-93000000D02*
X126350000Y-93525000D01*
X126350000Y-93525000D02*
X126350000Y-94895000D01*
X112825000Y-88500000D02*
X112825000Y-90200000D01*
X112825000Y-90200000D02*
X115625000Y-93000000D01*
X115325000Y-90799000D02*
X115325000Y-88500000D01*
X130825000Y-97000000D02*
X130825000Y-94500000D01*
X126350000Y-97435000D02*
X130390000Y-97435000D01*
X128124000Y-91799000D02*
X116325000Y-91799000D01*
X130390000Y-97435000D02*
X130825000Y-97000000D01*
X116325000Y-91799000D02*
X115325000Y-90799000D01*
X130825000Y-94500000D02*
X128124000Y-91799000D01*
D53*
X147075000Y-108162500D02*
X147075000Y-112250000D01*
X149105626Y-114280626D02*
X149105626Y-114350000D01*
X147075000Y-112250000D02*
X147325000Y-112500000D01*
X147325000Y-112500000D02*
X149105626Y-114280626D01*
X147575000Y-108162500D02*
X147575000Y-111750000D01*
X147575000Y-111750000D02*
X149825000Y-114000000D01*
X143325000Y-120650001D02*
X143686400Y-121011401D01*
X143686400Y-121011401D02*
X147313599Y-121011401D01*
X146325000Y-113699000D02*
X146325000Y-113500000D01*
X147313599Y-121011401D02*
X148324999Y-120000001D01*
X146325000Y-113500000D02*
X146075000Y-113250000D01*
X146075000Y-113250000D02*
X146075000Y-108162500D01*
X117890000Y-97435000D02*
X120600000Y-97435000D01*
X162325000Y-108500000D02*
X167825000Y-114000000D01*
X170825000Y-116000000D02*
X179325000Y-107500000D01*
X169825000Y-116000000D02*
X170825000Y-116000000D01*
X152825000Y-108500000D02*
X162325000Y-108500000D01*
X151075000Y-106750000D02*
X152825000Y-108500000D01*
X179325000Y-107500000D02*
X182825000Y-107500000D01*
X187575301Y-119023530D02*
X187575301Y-119976470D01*
X148081774Y-96674000D02*
X148399000Y-96991226D01*
X136675000Y-114350000D02*
X135325000Y-113000000D01*
X148399000Y-96991226D02*
X148399000Y-98008774D01*
X152325000Y-101000000D02*
X152325000Y-101087500D01*
X187325000Y-120226771D02*
X187325000Y-122500000D01*
X144162500Y-101250000D02*
X142825000Y-101250000D01*
X140392247Y-112962753D02*
X140325000Y-113030000D01*
X141825000Y-122500000D02*
X139325000Y-120000000D01*
X135325000Y-101500000D02*
X137325000Y-99500000D01*
X182825000Y-102500000D02*
X187325000Y-107000000D01*
X139325000Y-120000000D02*
X146325000Y-120000001D01*
X187325000Y-107000000D02*
X187325000Y-118773229D01*
X177324999Y-122500000D02*
X141825000Y-122500000D01*
X140325000Y-114350000D02*
X140325000Y-113030000D01*
X135325000Y-118522986D02*
X137847986Y-118522986D01*
X148399000Y-98008774D02*
X148716226Y-98326000D01*
X140550000Y-99500000D02*
X141825000Y-100775000D01*
X135302014Y-118500000D02*
X135325000Y-118522986D01*
X152325000Y-101087500D02*
X152487500Y-101250000D01*
X142825000Y-100500000D02*
X143325000Y-100000000D01*
X144325000Y-98050000D02*
X144875000Y-97500000D01*
X138802014Y-118522986D02*
X140325000Y-117000000D01*
X187325000Y-122500000D02*
X183324999Y-122500000D01*
X140325000Y-114350000D02*
X136675000Y-114350000D01*
X137847986Y-118522986D02*
X138802014Y-118522986D01*
X152325000Y-98979673D02*
X152325000Y-101000000D01*
X137847986Y-118522986D02*
X139325000Y-120000000D01*
X145575000Y-98200000D02*
X144875000Y-97500000D01*
X144875000Y-97500000D02*
X145701000Y-96674000D01*
X187575301Y-119976470D02*
X187325000Y-120226771D01*
X180324999Y-119500000D02*
X177324999Y-122500000D01*
X151671327Y-98326000D02*
X152325000Y-98979673D01*
X145701000Y-96674000D02*
X148081774Y-96674000D01*
X187325000Y-118773229D02*
X187575301Y-119023530D01*
X142003832Y-112962753D02*
X140392247Y-112962753D01*
X135325000Y-113000000D02*
X135575000Y-113250000D01*
X145575000Y-99837500D02*
X145575000Y-98200000D01*
X142825000Y-101250000D02*
X142300000Y-101250000D01*
X135325000Y-113000000D02*
X135325000Y-101500000D01*
X142825000Y-101250000D02*
X142825000Y-100500000D01*
X152737500Y-101000000D02*
X152487500Y-101250000D01*
X183324999Y-122500000D02*
X180324999Y-119500000D01*
X132975000Y-118500000D02*
X135302014Y-118500000D01*
X144325000Y-99000000D02*
X144325000Y-98050000D01*
X148716226Y-98326000D02*
X151671327Y-98326000D01*
X142300000Y-101250000D02*
X141825000Y-100775000D01*
X137325000Y-99500000D02*
X140550000Y-99500000D01*
X147575000Y-97717497D02*
X147558116Y-97700613D01*
X147575000Y-99837500D02*
X147575000Y-97717497D01*
D56*
X175550000Y-100186203D02*
X175314991Y-100421212D01*
D55*
X123825000Y-107000000D02*
X126325000Y-104500000D01*
D53*
X124325000Y-115500000D02*
X124325000Y-120000000D01*
X125875000Y-120000000D02*
X126675000Y-120800000D01*
D55*
X129825000Y-104500000D02*
X131075000Y-105750000D01*
D53*
X124825000Y-112000000D02*
X123825000Y-111000000D01*
X124325000Y-115500000D02*
X124825000Y-115000000D01*
D55*
X126325000Y-104500000D02*
X129825000Y-104500000D01*
D54*
X150325000Y-92850000D02*
X150125000Y-92650000D01*
D55*
X167325000Y-116500000D02*
X175314991Y-108510009D01*
D53*
X145575000Y-114100000D02*
X145575000Y-108162500D01*
X145825000Y-114350000D02*
X145575000Y-114100000D01*
D55*
X175314991Y-108510009D02*
X175314991Y-100421212D01*
D53*
X124325000Y-120000000D02*
X125875000Y-120000000D01*
D55*
X126325000Y-104500000D02*
X126325000Y-100500000D01*
X123825000Y-111000000D02*
X123825000Y-107000000D01*
X118825000Y-119000000D02*
X115824999Y-115999999D01*
D53*
X124825000Y-115000000D02*
X124825000Y-112000000D01*
D55*
X131075000Y-105750000D02*
X132325000Y-107000000D01*
D56*
X126350000Y-98705000D02*
X126350000Y-100475000D01*
X126350000Y-100475000D02*
X126325000Y-100500000D01*
D55*
X132325000Y-107000000D02*
X132325000Y-112000000D01*
X132325000Y-112000000D02*
X135825000Y-115500000D01*
D56*
X175550000Y-98705000D02*
X175550000Y-100186203D01*
D55*
X115824999Y-115999999D02*
X115824999Y-112000000D01*
D53*
X143075000Y-105250000D02*
X144162500Y-105250000D01*
X140352023Y-111492753D02*
X140314860Y-111455590D01*
X140314860Y-110560140D02*
X141875000Y-109000000D01*
X141875000Y-106450000D02*
X143075000Y-105250000D01*
X141875000Y-109000000D02*
X141875000Y-106450000D01*
X170825000Y-115000000D02*
X180825000Y-105000000D01*
X146575000Y-108162500D02*
X146575000Y-112669240D01*
X146575000Y-112669240D02*
X148115380Y-114209620D01*
X145575000Y-106250000D02*
X147325000Y-104500000D01*
X160716227Y-95331803D02*
X162826803Y-95331803D01*
X163660000Y-96165000D02*
X169800000Y-96165000D01*
X144162500Y-106250000D02*
X145575000Y-106250000D01*
X162826803Y-95331803D02*
X163660000Y-96165000D01*
X160714477Y-95330053D02*
X160716227Y-95331803D01*
X155155053Y-95330053D02*
X160714477Y-95330053D01*
X120265000Y-96500000D02*
X120600000Y-96165000D01*
X117825000Y-96500000D02*
X120265000Y-96500000D01*
X142003832Y-111492753D02*
X140352023Y-111492753D01*
X140314860Y-111455590D02*
X140314860Y-110560140D01*
D54*
X158675000Y-86350000D02*
X160825000Y-88500000D01*
X147546644Y-86628356D02*
X147825000Y-86350000D01*
X143216402Y-86628356D02*
X147546644Y-86628356D01*
X143216402Y-86628356D02*
X141953356Y-86628356D01*
X137525000Y-85000000D02*
X134325000Y-88200000D01*
X141953356Y-86628356D02*
X140325000Y-85000000D01*
X140325000Y-85000000D02*
X137525000Y-85000000D01*
X147825000Y-86350000D02*
X158675000Y-86350000D01*
D55*
X122749700Y-113650300D02*
X123825000Y-112575000D01*
X117825000Y-112000000D02*
X117825000Y-112233878D01*
X119241422Y-113650300D02*
X122749700Y-113650300D01*
X117825000Y-112233878D02*
X119241422Y-113650300D01*
D53*
X180825000Y-105000000D02*
X182825000Y-105000000D01*
X138959621Y-97000000D02*
X137000000Y-97000000D01*
X139809621Y-96150000D02*
X138959621Y-97000000D01*
G04 #@! TA.AperFunction,Conductor*
G36*
X149768039Y-85019685D02*
G01*
X149813794Y-85072489D01*
X149825000Y-85124000D01*
X149825000Y-87376000D01*
X149805315Y-87443039D01*
X149752511Y-87488794D01*
X149701000Y-87500000D01*
X148825000Y-87500000D01*
X148825000Y-93625500D01*
X148805315Y-93692539D01*
X148752511Y-93738294D01*
X148701000Y-93749500D01*
X146949000Y-93749500D01*
X146881961Y-93729815D01*
X146836206Y-93677011D01*
X146825000Y-93625500D01*
X146825000Y-87590000D01*
X146824999Y-87589999D01*
X143987249Y-87406004D01*
X143925948Y-87383603D01*
X143925593Y-87384179D01*
X143922786Y-87382447D01*
X143921624Y-87382023D01*
X143919638Y-87380506D01*
X143775107Y-87291357D01*
X143775101Y-87291354D01*
X143775099Y-87291353D01*
X143713466Y-87270930D01*
X143614111Y-87238007D01*
X143514748Y-87227856D01*
X142918064Y-87227856D01*
X142918046Y-87227857D01*
X142818694Y-87238006D01*
X142818691Y-87238007D01*
X142719338Y-87270930D01*
X142657705Y-87291353D01*
X142657703Y-87291353D01*
X142650850Y-87293625D01*
X142649957Y-87290930D01*
X142593705Y-87299463D01*
X142529927Y-87270930D01*
X142491699Y-87212446D01*
X142486402Y-87176592D01*
X142486402Y-86050234D01*
X142506087Y-85983195D01*
X142558891Y-85937440D01*
X142613243Y-85926267D01*
X145825000Y-86000000D01*
X145825000Y-85999999D01*
X145825000Y-85124000D01*
X145844685Y-85056961D01*
X145897489Y-85011206D01*
X145949000Y-85000000D01*
X149701000Y-85000000D01*
X149768039Y-85019685D01*
G37*
G04 #@! TD.AperFunction*
G04 #@! TA.AperFunction,Conductor*
G36*
X136730810Y-84520185D02*
G01*
X136776565Y-84572989D01*
X136786509Y-84642147D01*
X136757484Y-84705703D01*
X136751452Y-84712181D01*
X134741716Y-86721915D01*
X134680393Y-86755400D01*
X134634637Y-86756707D01*
X134468592Y-86730408D01*
X134431287Y-86724500D01*
X134218713Y-86724500D01*
X134170042Y-86732208D01*
X134008760Y-86757753D01*
X133806585Y-86823444D01*
X133617179Y-86919951D01*
X133445215Y-87044889D01*
X133306035Y-87184069D01*
X133244712Y-87217553D01*
X133175020Y-87212569D01*
X133119087Y-87170697D01*
X133112815Y-87161484D01*
X133017315Y-87006654D01*
X132893345Y-86882684D01*
X132744124Y-86790643D01*
X132744119Y-86790641D01*
X132577697Y-86735494D01*
X132577690Y-86735493D01*
X132474986Y-86725000D01*
X132075000Y-86725000D01*
X132075000Y-87795854D01*
X132008343Y-87757370D01*
X131887535Y-87725000D01*
X131762465Y-87725000D01*
X131641657Y-87757370D01*
X131575000Y-87795854D01*
X131575000Y-86725000D01*
X131175028Y-86725000D01*
X131175012Y-86725001D01*
X131072302Y-86735494D01*
X130905880Y-86790641D01*
X130905875Y-86790643D01*
X130756654Y-86882684D01*
X130632684Y-87006654D01*
X130540643Y-87155875D01*
X130540641Y-87155880D01*
X130485494Y-87322302D01*
X130485493Y-87322309D01*
X130475000Y-87425013D01*
X130475000Y-87950000D01*
X131420854Y-87950000D01*
X131382370Y-88016657D01*
X131350000Y-88137465D01*
X131350000Y-88262535D01*
X131382370Y-88383343D01*
X131420854Y-88450000D01*
X130475001Y-88450000D01*
X130475001Y-88974986D01*
X130485494Y-89077697D01*
X130540641Y-89244119D01*
X130540643Y-89244124D01*
X130632684Y-89393345D01*
X130756654Y-89517315D01*
X130905875Y-89609356D01*
X130905880Y-89609358D01*
X131072302Y-89664505D01*
X131072309Y-89664506D01*
X131175019Y-89674999D01*
X131574999Y-89674999D01*
X131575000Y-89674998D01*
X131575000Y-88604145D01*
X131641657Y-88642630D01*
X131762465Y-88675000D01*
X131887535Y-88675000D01*
X132008343Y-88642630D01*
X132075000Y-88604145D01*
X132075000Y-89674999D01*
X132474972Y-89674999D01*
X132474986Y-89674998D01*
X132577697Y-89664505D01*
X132744119Y-89609358D01*
X132744124Y-89609356D01*
X132893345Y-89517315D01*
X133017317Y-89393343D01*
X133112815Y-89238516D01*
X133164763Y-89191791D01*
X133233725Y-89180568D01*
X133297808Y-89208412D01*
X133306035Y-89215931D01*
X133445213Y-89355109D01*
X133617179Y-89480048D01*
X133617181Y-89480049D01*
X133617184Y-89480051D01*
X133806588Y-89576557D01*
X134008757Y-89642246D01*
X134218713Y-89675500D01*
X134218714Y-89675500D01*
X134431286Y-89675500D01*
X134431287Y-89675500D01*
X134641243Y-89642246D01*
X134843412Y-89576557D01*
X135032816Y-89480051D01*
X135094026Y-89435580D01*
X135204786Y-89355109D01*
X135204788Y-89355106D01*
X135204792Y-89355104D01*
X135355104Y-89204792D01*
X135474683Y-89040204D01*
X135530011Y-88997540D01*
X135599624Y-88991561D01*
X135661420Y-89024166D01*
X135675313Y-89040199D01*
X135702557Y-89077697D01*
X135794896Y-89204792D01*
X135945213Y-89355109D01*
X136117179Y-89480048D01*
X136117181Y-89480049D01*
X136117184Y-89480051D01*
X136306588Y-89576557D01*
X136508757Y-89642246D01*
X136718713Y-89675500D01*
X136718714Y-89675500D01*
X136931286Y-89675500D01*
X136931287Y-89675500D01*
X137141243Y-89642246D01*
X137343412Y-89576557D01*
X137532816Y-89480051D01*
X137594026Y-89435580D01*
X137704786Y-89355109D01*
X137704788Y-89355106D01*
X137704792Y-89355104D01*
X137855104Y-89204792D01*
X137855106Y-89204788D01*
X137855109Y-89204786D01*
X137980048Y-89032820D01*
X137980047Y-89032820D01*
X137980051Y-89032816D01*
X138076557Y-88843412D01*
X138142246Y-88641243D01*
X138172270Y-88451678D01*
X142241403Y-88451678D01*
X142251546Y-88550963D01*
X142304854Y-88711837D01*
X142304859Y-88711848D01*
X142393826Y-88856084D01*
X142393829Y-88856088D01*
X142513669Y-88975928D01*
X142513673Y-88975931D01*
X142657909Y-89064898D01*
X142657920Y-89064903D01*
X142818795Y-89118211D01*
X142918085Y-89128355D01*
X143466402Y-89128355D01*
X143514710Y-89128355D01*
X143514724Y-89128354D01*
X143614009Y-89118211D01*
X143774883Y-89064903D01*
X143774894Y-89064898D01*
X143919130Y-88975931D01*
X143919134Y-88975928D01*
X144038974Y-88856088D01*
X144038977Y-88856084D01*
X144127944Y-88711848D01*
X144127949Y-88711837D01*
X144181257Y-88550962D01*
X144191401Y-88451678D01*
X144191402Y-88451665D01*
X144191402Y-88428356D01*
X143466402Y-88428356D01*
X143466402Y-89128355D01*
X142918085Y-89128355D01*
X142966401Y-89128354D01*
X142966402Y-89128354D01*
X142966402Y-88428356D01*
X142241403Y-88428356D01*
X142241403Y-88451678D01*
X138172270Y-88451678D01*
X138175500Y-88431287D01*
X138175500Y-87968713D01*
X138142246Y-87758757D01*
X138076557Y-87556588D01*
X137980051Y-87367184D01*
X137980049Y-87367181D01*
X137980048Y-87367179D01*
X137855109Y-87195213D01*
X137704786Y-87044890D01*
X137532820Y-86919951D01*
X137343414Y-86823444D01*
X137343413Y-86823443D01*
X137343412Y-86823443D01*
X137242327Y-86790598D01*
X137141241Y-86757753D01*
X137111723Y-86753078D01*
X137048589Y-86723147D01*
X137011659Y-86663835D01*
X137012658Y-86593973D01*
X137043440Y-86542926D01*
X137799548Y-85786819D01*
X137860871Y-85753334D01*
X137887229Y-85750500D01*
X139962770Y-85750500D01*
X140029809Y-85770185D01*
X140050451Y-85786819D01*
X141370405Y-87106772D01*
X141474940Y-87211307D01*
X141474943Y-87211309D01*
X141474944Y-87211310D01*
X141597850Y-87293433D01*
X141597854Y-87293435D01*
X141597861Y-87293440D01*
X141661732Y-87319896D01*
X141734443Y-87350014D01*
X141734447Y-87350014D01*
X141734448Y-87350015D01*
X141879435Y-87378856D01*
X141879438Y-87378856D01*
X141938214Y-87378856D01*
X142005253Y-87398541D01*
X142050607Y-87450474D01*
X142068574Y-87489025D01*
X142106797Y-87547500D01*
X142106801Y-87547506D01*
X142190639Y-87642763D01*
X142201858Y-87655510D01*
X142202131Y-87655682D01*
X142202346Y-87655927D01*
X142208606Y-87661267D01*
X142207838Y-87662166D01*
X142248295Y-87708129D01*
X142258775Y-87777208D01*
X142253611Y-87799515D01*
X142251546Y-87805746D01*
X142241402Y-87905033D01*
X142241402Y-87928356D01*
X144226778Y-87928356D01*
X144234788Y-87928615D01*
X146203523Y-88056264D01*
X146269148Y-88080245D01*
X146311391Y-88135899D01*
X146319500Y-88180004D01*
X146319500Y-88568084D01*
X146299815Y-88635123D01*
X146247011Y-88680878D01*
X146177853Y-88690822D01*
X146114297Y-88661797D01*
X146107819Y-88655765D01*
X146074499Y-88622445D01*
X146074494Y-88622441D01*
X145927997Y-88516006D01*
X145927996Y-88516005D01*
X145927994Y-88516004D01*
X145838125Y-88470213D01*
X145766639Y-88433788D01*
X145766636Y-88433787D01*
X145594410Y-88377829D01*
X145415551Y-88349500D01*
X145415546Y-88349500D01*
X145234454Y-88349500D01*
X145234449Y-88349500D01*
X145055589Y-88377829D01*
X144883363Y-88433787D01*
X144883360Y-88433788D01*
X144722002Y-88516006D01*
X144575505Y-88622441D01*
X144575500Y-88622445D01*
X144447445Y-88750500D01*
X144447441Y-88750505D01*
X144341006Y-88897002D01*
X144258788Y-89058360D01*
X144258787Y-89058363D01*
X144202829Y-89230589D01*
X144174500Y-89409448D01*
X144174500Y-89590551D01*
X144202829Y-89769410D01*
X144258787Y-89941636D01*
X144258788Y-89941639D01*
X144314664Y-90051300D01*
X144340222Y-90101460D01*
X144341006Y-90102997D01*
X144447441Y-90249494D01*
X144447445Y-90249499D01*
X144575500Y-90377554D01*
X144575505Y-90377558D01*
X144691798Y-90462049D01*
X144722006Y-90483996D01*
X144811885Y-90529792D01*
X144883360Y-90566211D01*
X144883363Y-90566212D01*
X144969476Y-90594191D01*
X145055591Y-90622171D01*
X145138429Y-90635291D01*
X145234449Y-90650500D01*
X145234454Y-90650500D01*
X145415551Y-90650500D01*
X145502259Y-90636765D01*
X145594409Y-90622171D01*
X145766639Y-90566211D01*
X145927994Y-90483996D01*
X146074501Y-90377553D01*
X146107819Y-90344235D01*
X146169142Y-90310750D01*
X146238834Y-90315734D01*
X146294767Y-90357606D01*
X146319184Y-90423070D01*
X146319500Y-90431916D01*
X146319500Y-91069058D01*
X146299815Y-91136097D01*
X146247011Y-91181852D01*
X146177853Y-91191796D01*
X146165574Y-91189393D01*
X146018826Y-91152897D01*
X145976097Y-91150000D01*
X145775000Y-91150000D01*
X145775000Y-92526000D01*
X145755315Y-92593039D01*
X145702511Y-92638794D01*
X145651000Y-92650000D01*
X145525000Y-92650000D01*
X145525000Y-92776000D01*
X145505315Y-92843039D01*
X145452511Y-92888794D01*
X145401000Y-92900000D01*
X144275000Y-92900000D01*
X144275000Y-92914270D01*
X144255315Y-92981309D01*
X144202511Y-93027064D01*
X144133353Y-93037008D01*
X144069797Y-93007983D01*
X144063319Y-93001951D01*
X143478413Y-92417045D01*
X143429179Y-92384150D01*
X143396355Y-92362218D01*
X143355495Y-92334916D01*
X143355494Y-92334915D01*
X143355492Y-92334914D01*
X143355490Y-92334913D01*
X143218917Y-92278343D01*
X143218907Y-92278340D01*
X143073920Y-92249500D01*
X143073918Y-92249500D01*
X139189007Y-92249500D01*
X139189001Y-92249500D01*
X139160167Y-92255234D01*
X139160168Y-92255235D01*
X139044018Y-92278339D01*
X139044008Y-92278342D01*
X138964006Y-92311479D01*
X138964007Y-92311480D01*
X138907430Y-92334915D01*
X138825297Y-92389795D01*
X138784510Y-92417047D01*
X138784506Y-92417050D01*
X130963531Y-100238025D01*
X130902208Y-100271510D01*
X130832516Y-100266526D01*
X130776583Y-100224654D01*
X130752166Y-100159190D01*
X130761288Y-100102893D01*
X130769737Y-100082497D01*
X130800500Y-99927842D01*
X130800500Y-99770158D01*
X130800500Y-99770155D01*
X130800499Y-99770153D01*
X130788414Y-99709397D01*
X130769737Y-99615503D01*
X130758532Y-99588452D01*
X130709397Y-99469827D01*
X130709390Y-99469814D01*
X130621789Y-99338711D01*
X130621786Y-99338707D01*
X130510292Y-99227213D01*
X130510288Y-99227210D01*
X130379185Y-99139609D01*
X130379172Y-99139602D01*
X130233501Y-99079264D01*
X130233489Y-99079261D01*
X130078845Y-99048500D01*
X130078842Y-99048500D01*
X129921158Y-99048500D01*
X129921155Y-99048500D01*
X129766510Y-99079261D01*
X129766498Y-99079264D01*
X129620827Y-99139602D01*
X129620814Y-99139609D01*
X129489711Y-99227210D01*
X129489707Y-99227213D01*
X129378213Y-99338707D01*
X129378210Y-99338711D01*
X129290609Y-99469814D01*
X129290602Y-99469827D01*
X129230264Y-99615498D01*
X129230261Y-99615510D01*
X129199500Y-99770153D01*
X129199500Y-99927846D01*
X129230261Y-100082489D01*
X129230264Y-100082501D01*
X129290602Y-100228172D01*
X129290606Y-100228179D01*
X129328602Y-100285044D01*
X129349480Y-100351721D01*
X129349500Y-100353935D01*
X129349500Y-102064069D01*
X129349748Y-102065318D01*
X129353160Y-102082467D01*
X129355543Y-102106661D01*
X129355543Y-102859404D01*
X129335858Y-102926443D01*
X129334646Y-102928294D01*
X129296651Y-102985157D01*
X129296645Y-102985168D01*
X129236307Y-103130838D01*
X129236304Y-103130850D01*
X129212665Y-103249691D01*
X129180280Y-103311602D01*
X129119564Y-103346176D01*
X129091048Y-103349500D01*
X128455146Y-103349500D01*
X128388107Y-103329815D01*
X128342352Y-103277011D01*
X128332408Y-103207853D01*
X128361433Y-103144297D01*
X128416142Y-103107794D01*
X128430988Y-103102874D01*
X128430999Y-103102869D01*
X128575235Y-103013902D01*
X128575239Y-103013899D01*
X128695079Y-102894059D01*
X128695082Y-102894055D01*
X128784049Y-102749819D01*
X128784054Y-102749808D01*
X128837362Y-102588933D01*
X128847506Y-102489649D01*
X128847507Y-102489636D01*
X128847507Y-102441327D01*
X128021507Y-102441327D01*
X127954468Y-102421642D01*
X127908713Y-102368838D01*
X127897507Y-102317327D01*
X127897507Y-102191327D01*
X127771507Y-102191327D01*
X127704468Y-102171642D01*
X127658713Y-102118838D01*
X127647507Y-102067327D01*
X127647507Y-101593517D01*
X127627834Y-101557489D01*
X127625000Y-101531131D01*
X127625000Y-101097809D01*
X128125000Y-101097809D01*
X128144673Y-101133838D01*
X128147507Y-101160196D01*
X128147507Y-101941327D01*
X128847506Y-101941327D01*
X128847506Y-101893019D01*
X128847505Y-101893004D01*
X128837362Y-101793719D01*
X128784054Y-101632845D01*
X128784049Y-101632834D01*
X128695082Y-101488598D01*
X128695079Y-101488594D01*
X128628576Y-101422091D01*
X128595091Y-101360768D01*
X128600075Y-101291076D01*
X128628576Y-101246729D01*
X128672572Y-101202732D01*
X128672575Y-101202728D01*
X128761542Y-101058492D01*
X128761547Y-101058481D01*
X128814855Y-100897606D01*
X128824999Y-100798322D01*
X128825000Y-100798309D01*
X128825000Y-100750000D01*
X128125000Y-100750000D01*
X128125000Y-101097809D01*
X127625000Y-101097809D01*
X127625000Y-100250000D01*
X128125000Y-100250000D01*
X128824999Y-100250000D01*
X128824999Y-100201692D01*
X128824998Y-100201677D01*
X128814855Y-100102392D01*
X128761547Y-99941518D01*
X128761542Y-99941507D01*
X128672574Y-99797269D01*
X128552732Y-99677427D01*
X128552728Y-99677424D01*
X128408492Y-99588457D01*
X128408481Y-99588452D01*
X128247606Y-99535144D01*
X128148322Y-99525000D01*
X128125000Y-99525000D01*
X128125000Y-100250000D01*
X127625000Y-100250000D01*
X127625000Y-99509134D01*
X127626780Y-99503069D01*
X127625609Y-99496856D01*
X127636507Y-99469942D01*
X127644685Y-99442095D01*
X127650058Y-99436481D01*
X127651835Y-99432095D01*
X127664351Y-99421550D01*
X127677475Y-99407841D01*
X127687992Y-99400414D01*
X127692331Y-99398796D01*
X127807546Y-99312546D01*
X127893796Y-99197331D01*
X127944091Y-99062483D01*
X127950500Y-99002873D01*
X127950499Y-98559499D01*
X127970183Y-98492461D01*
X128022987Y-98446706D01*
X128074499Y-98435500D01*
X130488543Y-98435500D01*
X130528383Y-98427574D01*
X130593264Y-98414669D01*
X130681836Y-98397051D01*
X130751978Y-98367997D01*
X130863914Y-98321632D01*
X131027782Y-98212139D01*
X131167139Y-98072782D01*
X131167141Y-98072779D01*
X131174206Y-98065714D01*
X131174209Y-98065710D01*
X131462778Y-97777141D01*
X131462782Y-97777139D01*
X131602139Y-97637782D01*
X131711632Y-97473914D01*
X131773521Y-97324500D01*
X131787051Y-97291836D01*
X131820406Y-97124148D01*
X131825500Y-97098541D01*
X131825500Y-94401459D01*
X131825500Y-94401456D01*
X131812389Y-94335547D01*
X131791840Y-94232241D01*
X131787051Y-94208164D01*
X131760680Y-94144500D01*
X131711632Y-94026086D01*
X131631827Y-93906649D01*
X131602139Y-93862217D01*
X131459686Y-93719764D01*
X131459655Y-93719735D01*
X129688823Y-91948903D01*
X144275000Y-91948903D01*
X144275000Y-92400000D01*
X145275000Y-92400000D01*
X145275000Y-91150000D01*
X145073903Y-91150000D01*
X145031175Y-91152897D01*
X144846476Y-91198831D01*
X144675977Y-91283390D01*
X144675974Y-91283392D01*
X144527633Y-91402632D01*
X144527632Y-91402633D01*
X144408392Y-91550974D01*
X144408390Y-91550977D01*
X144323831Y-91721476D01*
X144277897Y-91906175D01*
X144275000Y-91948903D01*
X129688823Y-91948903D01*
X128905479Y-91165559D01*
X128905459Y-91165537D01*
X128761785Y-91021863D01*
X128761781Y-91021860D01*
X128597920Y-90912371D01*
X128597911Y-90912366D01*
X128525315Y-90882296D01*
X128469165Y-90859038D01*
X128415836Y-90836949D01*
X128415832Y-90836948D01*
X128415828Y-90836946D01*
X128319188Y-90817724D01*
X128222544Y-90798500D01*
X128222541Y-90798500D01*
X116790783Y-90798500D01*
X116723744Y-90778815D01*
X116703102Y-90762181D01*
X116361819Y-90420898D01*
X116328334Y-90359575D01*
X116325500Y-90333217D01*
X116325500Y-89953957D01*
X116345185Y-89886918D01*
X116384407Y-89848416D01*
X116393656Y-89842712D01*
X116517712Y-89718656D01*
X116609814Y-89569334D01*
X116664999Y-89402797D01*
X116675500Y-89300009D01*
X116675499Y-88385258D01*
X121574500Y-88385258D01*
X121574500Y-88614741D01*
X121592308Y-88750000D01*
X121604452Y-88842238D01*
X121640025Y-88975000D01*
X121663842Y-89063887D01*
X121751650Y-89275876D01*
X121751657Y-89275890D01*
X121866392Y-89474617D01*
X122006081Y-89656661D01*
X122006089Y-89656670D01*
X122168330Y-89818911D01*
X122168338Y-89818918D01*
X122168339Y-89818919D01*
X122206779Y-89848415D01*
X122350382Y-89958607D01*
X122350385Y-89958608D01*
X122350388Y-89958611D01*
X122549112Y-90073344D01*
X122549117Y-90073346D01*
X122549123Y-90073349D01*
X122616990Y-90101460D01*
X122761113Y-90161158D01*
X122982762Y-90220548D01*
X123210266Y-90250500D01*
X123210273Y-90250500D01*
X123439727Y-90250500D01*
X123439734Y-90250500D01*
X123667238Y-90220548D01*
X123888887Y-90161158D01*
X124100888Y-90073344D01*
X124299612Y-89958611D01*
X124481661Y-89818919D01*
X124481665Y-89818914D01*
X124481670Y-89818911D01*
X124643911Y-89656670D01*
X124643914Y-89656665D01*
X124643919Y-89656661D01*
X124783611Y-89474612D01*
X124898344Y-89275888D01*
X124986158Y-89063887D01*
X125045548Y-88842238D01*
X125075500Y-88614734D01*
X125075500Y-88385266D01*
X125045548Y-88157762D01*
X124986158Y-87936113D01*
X124920337Y-87777208D01*
X124898349Y-87724123D01*
X124898346Y-87724117D01*
X124898344Y-87724112D01*
X124783611Y-87525388D01*
X124750966Y-87482845D01*
X124668979Y-87375998D01*
X124643919Y-87343339D01*
X124643918Y-87343338D01*
X124643911Y-87343330D01*
X124481670Y-87181089D01*
X124481661Y-87181081D01*
X124299617Y-87041392D01*
X124100890Y-86926657D01*
X124100876Y-86926650D01*
X123888887Y-86838842D01*
X123831420Y-86823444D01*
X123667238Y-86779452D01*
X123629215Y-86774446D01*
X123439741Y-86749500D01*
X123439734Y-86749500D01*
X123210266Y-86749500D01*
X123210258Y-86749500D01*
X122993715Y-86778009D01*
X122982762Y-86779452D01*
X122889076Y-86804554D01*
X122761112Y-86838842D01*
X122549123Y-86926650D01*
X122549109Y-86926657D01*
X122350382Y-87041392D01*
X122168338Y-87181081D01*
X122006081Y-87343338D01*
X121866392Y-87525382D01*
X121751657Y-87724109D01*
X121751650Y-87724123D01*
X121663842Y-87936112D01*
X121604453Y-88157759D01*
X121604451Y-88157770D01*
X121574500Y-88385258D01*
X116675499Y-88385258D01*
X116675499Y-87699992D01*
X116664999Y-87597203D01*
X116609814Y-87430666D01*
X116517712Y-87281344D01*
X116393656Y-87157288D01*
X116298253Y-87098443D01*
X116244336Y-87065187D01*
X116244331Y-87065185D01*
X116242862Y-87064698D01*
X116077797Y-87010001D01*
X116077795Y-87010000D01*
X115975010Y-86999500D01*
X114674998Y-86999500D01*
X114674981Y-86999501D01*
X114572203Y-87010000D01*
X114572200Y-87010001D01*
X114405668Y-87065185D01*
X114405663Y-87065187D01*
X114256342Y-87157289D01*
X114132289Y-87281342D01*
X114036821Y-87436121D01*
X113984873Y-87482845D01*
X113915910Y-87494068D01*
X113851828Y-87466224D01*
X113843601Y-87458705D01*
X113704786Y-87319890D01*
X113532820Y-87194951D01*
X113343414Y-87098444D01*
X113343413Y-87098443D01*
X113343412Y-87098443D01*
X113141243Y-87032754D01*
X113141241Y-87032753D01*
X113141240Y-87032753D01*
X112976455Y-87006654D01*
X112931287Y-86999500D01*
X112718713Y-86999500D01*
X112673545Y-87006654D01*
X112508760Y-87032753D01*
X112306585Y-87098444D01*
X112117179Y-87194951D01*
X111945213Y-87319890D01*
X111794890Y-87470213D01*
X111669951Y-87642179D01*
X111573444Y-87831585D01*
X111507753Y-88033760D01*
X111474500Y-88243713D01*
X111474500Y-88756286D01*
X111503793Y-88941239D01*
X111507754Y-88966243D01*
X111560427Y-89128354D01*
X111573444Y-89168414D01*
X111669951Y-89357820D01*
X111797759Y-89533734D01*
X111796888Y-89534366D01*
X111823357Y-89593401D01*
X111824500Y-89610199D01*
X111824500Y-90298544D01*
X111857023Y-90462049D01*
X111857024Y-90462049D01*
X111857024Y-90462051D01*
X111862949Y-90491835D01*
X111862950Y-90491837D01*
X111862950Y-90491839D01*
X111938364Y-90673907D01*
X111938371Y-90673920D01*
X112047860Y-90837781D01*
X112047863Y-90837785D01*
X112191537Y-90981459D01*
X112191559Y-90981479D01*
X114844735Y-93634655D01*
X114844764Y-93634686D01*
X114987214Y-93777136D01*
X114987218Y-93777139D01*
X115151079Y-93886628D01*
X115151086Y-93886632D01*
X115262906Y-93932949D01*
X115333164Y-93962051D01*
X115429812Y-93981275D01*
X115505482Y-93996327D01*
X115526458Y-94000500D01*
X115526459Y-94000500D01*
X115526460Y-94000500D01*
X115723540Y-94000500D01*
X119154052Y-94000500D01*
X119221091Y-94020185D01*
X119266846Y-94072989D01*
X119276790Y-94142147D01*
X119247765Y-94205703D01*
X119228363Y-94223766D01*
X119142812Y-94287809D01*
X119142809Y-94287812D01*
X119056649Y-94402906D01*
X119056645Y-94402913D01*
X119006403Y-94537620D01*
X119006401Y-94537627D01*
X119000000Y-94597155D01*
X119000000Y-94645000D01*
X122272192Y-94645000D01*
X122339231Y-94664685D01*
X122359873Y-94681319D01*
X122825000Y-95146446D01*
X123228758Y-94742688D01*
X123290081Y-94709203D01*
X123359773Y-94714187D01*
X123404120Y-94742688D01*
X123475000Y-94813568D01*
X123545880Y-94742688D01*
X123607203Y-94709203D01*
X123676895Y-94714187D01*
X123721242Y-94742688D01*
X124893554Y-95915000D01*
X127950000Y-95915000D01*
X127950000Y-95867172D01*
X127949999Y-95867155D01*
X127943598Y-95807627D01*
X127943596Y-95807620D01*
X127893354Y-95672913D01*
X127893352Y-95672910D01*
X127842311Y-95604727D01*
X127817894Y-95539262D01*
X127832746Y-95470989D01*
X127842308Y-95456108D01*
X127893796Y-95387331D01*
X127944091Y-95252483D01*
X127950500Y-95192873D01*
X127950499Y-94597128D01*
X127944091Y-94537517D01*
X127893884Y-94402906D01*
X127893797Y-94402671D01*
X127893793Y-94402664D01*
X127807547Y-94287455D01*
X127807544Y-94287452D01*
X127692335Y-94201206D01*
X127692328Y-94201202D01*
X127557482Y-94150908D01*
X127557483Y-94150908D01*
X127497883Y-94144501D01*
X127497881Y-94144500D01*
X127497873Y-94144500D01*
X127497865Y-94144500D01*
X127474500Y-94144500D01*
X127407461Y-94124815D01*
X127361706Y-94072011D01*
X127350500Y-94020500D01*
X127350500Y-93426456D01*
X127312052Y-93233169D01*
X127312049Y-93233159D01*
X127306150Y-93218920D01*
X127306147Y-93218912D01*
X127289961Y-93179834D01*
X127258211Y-93103183D01*
X127236635Y-93051092D01*
X127236628Y-93051079D01*
X127197414Y-92992391D01*
X127176536Y-92925713D01*
X127195021Y-92858333D01*
X127247000Y-92811643D01*
X127300516Y-92799500D01*
X127658218Y-92799500D01*
X127725257Y-92819185D01*
X127745899Y-92835819D01*
X129788181Y-94878101D01*
X129821666Y-94939424D01*
X129824500Y-94965782D01*
X129824500Y-96310500D01*
X129804815Y-96377539D01*
X129752011Y-96423294D01*
X129700500Y-96434500D01*
X128020862Y-96434500D01*
X127954453Y-96415000D01*
X124863553Y-96415000D01*
X124478554Y-96800000D01*
X124713974Y-97035420D01*
X124747459Y-97096743D01*
X124749450Y-97133806D01*
X124749500Y-97133806D01*
X124749500Y-97133811D01*
X124749678Y-97133821D01*
X124749564Y-97135941D01*
X124749585Y-97136329D01*
X124749501Y-97137105D01*
X124749500Y-97137136D01*
X124749500Y-97732870D01*
X124749501Y-97732884D01*
X124752495Y-97760735D01*
X124740087Y-97829494D01*
X124716886Y-97861666D01*
X124301777Y-98276777D01*
X123725000Y-98853553D01*
X123725000Y-99750000D01*
X124997828Y-99750000D01*
X124997844Y-99749999D01*
X125057372Y-99743598D01*
X125057379Y-99743596D01*
X125182167Y-99697054D01*
X125212775Y-99694865D01*
X125243147Y-99690498D01*
X125247302Y-99692395D01*
X125251858Y-99692070D01*
X125278787Y-99706774D01*
X125306703Y-99719523D01*
X125309172Y-99723365D01*
X125313182Y-99725555D01*
X125327888Y-99752488D01*
X125344477Y-99778301D01*
X125345368Y-99784501D01*
X125346666Y-99786878D01*
X125349500Y-99813236D01*
X125349500Y-99850561D01*
X125335985Y-99906856D01*
X125258788Y-100058360D01*
X125258787Y-100058363D01*
X125202829Y-100230589D01*
X125174500Y-100409448D01*
X125174500Y-103972084D01*
X125154815Y-104039123D01*
X125138181Y-104059765D01*
X122947447Y-106250498D01*
X122929918Y-106274625D01*
X122857356Y-106374499D01*
X122843925Y-106392986D01*
X122841002Y-106397009D01*
X122758788Y-106558360D01*
X122758787Y-106558363D01*
X122702829Y-106730589D01*
X122695315Y-106778029D01*
X122675869Y-106900808D01*
X122674499Y-106909455D01*
X122674499Y-107095656D01*
X122674500Y-107095681D01*
X122674500Y-111090551D01*
X122702829Y-111269410D01*
X122758787Y-111441636D01*
X122758788Y-111441639D01*
X122814664Y-111551300D01*
X122832004Y-111585331D01*
X122841006Y-111602997D01*
X122917177Y-111707839D01*
X122940657Y-111773645D01*
X122924831Y-111841699D01*
X122904540Y-111868405D01*
X122309466Y-112463481D01*
X122248143Y-112496966D01*
X122221785Y-112499800D01*
X121247394Y-112499800D01*
X121180355Y-112480115D01*
X121134600Y-112427311D01*
X121124656Y-112358153D01*
X121129463Y-112337482D01*
X121144024Y-112292666D01*
X121144024Y-112292665D01*
X121144025Y-112292662D01*
X121164373Y-112164190D01*
X121174799Y-112098366D01*
X121174799Y-111901633D01*
X121144025Y-111707337D01*
X121083232Y-111520238D01*
X120993923Y-111344961D01*
X120985653Y-111333578D01*
X120878293Y-111185810D01*
X120739189Y-111046706D01*
X120580037Y-110931075D01*
X120535735Y-110908502D01*
X120404760Y-110841766D01*
X120217661Y-110780973D01*
X120023365Y-110750200D01*
X120023360Y-110750200D01*
X119826638Y-110750200D01*
X119826633Y-110750200D01*
X119632336Y-110780973D01*
X119445237Y-110841766D01*
X119269960Y-110931075D01*
X119250957Y-110944882D01*
X119110809Y-111046706D01*
X119110807Y-111046708D01*
X119110806Y-111046708D01*
X118971704Y-111185810D01*
X118913946Y-111265307D01*
X118858616Y-111307972D01*
X118789002Y-111313950D01*
X118727208Y-111281343D01*
X118713310Y-111265305D01*
X118703774Y-111252180D01*
X118702553Y-111250499D01*
X118574501Y-111122447D01*
X118574499Y-111122445D01*
X118574494Y-111122441D01*
X118427997Y-111016006D01*
X118427996Y-111016005D01*
X118427994Y-111016004D01*
X118376300Y-110989664D01*
X118266639Y-110933788D01*
X118266636Y-110933787D01*
X118094410Y-110877829D01*
X117915551Y-110849500D01*
X117915546Y-110849500D01*
X117734454Y-110849500D01*
X117734449Y-110849500D01*
X117555589Y-110877829D01*
X117383363Y-110933787D01*
X117383360Y-110933788D01*
X117222002Y-111016006D01*
X117075505Y-111122441D01*
X117075500Y-111122445D01*
X116947443Y-111250502D01*
X116925316Y-111280958D01*
X116869986Y-111323623D01*
X116800372Y-111329601D01*
X116738578Y-111296994D01*
X116724680Y-111280956D01*
X116702552Y-111250499D01*
X116574500Y-111122447D01*
X116574498Y-111122445D01*
X116574493Y-111122441D01*
X116427996Y-111016006D01*
X116427995Y-111016005D01*
X116427993Y-111016004D01*
X116376299Y-110989664D01*
X116266638Y-110933788D01*
X116266635Y-110933787D01*
X116094409Y-110877829D01*
X115915550Y-110849500D01*
X115915545Y-110849500D01*
X115734453Y-110849500D01*
X115734448Y-110849500D01*
X115555588Y-110877829D01*
X115383362Y-110933787D01*
X115383359Y-110933788D01*
X115222005Y-111016003D01*
X115077454Y-111121025D01*
X115011647Y-111144504D01*
X114943593Y-111128678D01*
X114905303Y-111095018D01*
X114846154Y-111016006D01*
X114830245Y-110994754D01*
X114830243Y-110994753D01*
X114830243Y-110994752D01*
X114715034Y-110908506D01*
X114715027Y-110908502D01*
X114580181Y-110858208D01*
X114580182Y-110858208D01*
X114520582Y-110851801D01*
X114520580Y-110851800D01*
X114520572Y-110851800D01*
X114520563Y-110851800D01*
X113129428Y-110851800D01*
X113129422Y-110851801D01*
X113069815Y-110858208D01*
X112934970Y-110908502D01*
X112934963Y-110908506D01*
X112819754Y-110994752D01*
X112819753Y-110994753D01*
X112763154Y-111070358D01*
X112707220Y-111112228D01*
X112637528Y-111117211D01*
X112576208Y-111083726D01*
X112539190Y-111046708D01*
X112539188Y-111046706D01*
X112380036Y-110931075D01*
X112335734Y-110908502D01*
X112204759Y-110841766D01*
X112017660Y-110780973D01*
X111823364Y-110750200D01*
X111823359Y-110750200D01*
X111626637Y-110750200D01*
X111626632Y-110750200D01*
X111432335Y-110780973D01*
X111245236Y-110841766D01*
X111069959Y-110931075D01*
X111050956Y-110944882D01*
X110910808Y-111046706D01*
X110910806Y-111046708D01*
X110910805Y-111046708D01*
X110771706Y-111185807D01*
X110771706Y-111185808D01*
X110771704Y-111185810D01*
X110736063Y-111234866D01*
X110656073Y-111344961D01*
X110566764Y-111520238D01*
X110505971Y-111707337D01*
X110475198Y-111901633D01*
X110475198Y-112098366D01*
X110505971Y-112292662D01*
X110566764Y-112479761D01*
X110635228Y-112614128D01*
X110656073Y-112655038D01*
X110771704Y-112814190D01*
X110910808Y-112953294D01*
X111069960Y-113068925D01*
X111143927Y-113106613D01*
X111245236Y-113158233D01*
X111245238Y-113158233D01*
X111245241Y-113158235D01*
X111326184Y-113184535D01*
X111432335Y-113219026D01*
X111626632Y-113249800D01*
X111626637Y-113249800D01*
X111823364Y-113249800D01*
X112017660Y-113219026D01*
X112040647Y-113211557D01*
X112204755Y-113158235D01*
X112380036Y-113068925D01*
X112539188Y-112953294D01*
X112576209Y-112916273D01*
X112637532Y-112882788D01*
X112707224Y-112887772D01*
X112763156Y-112929642D01*
X112819753Y-113005246D01*
X112837851Y-113018794D01*
X112934963Y-113091493D01*
X112934970Y-113091497D01*
X113069816Y-113141791D01*
X113069815Y-113141791D01*
X113076743Y-113142535D01*
X113129426Y-113148200D01*
X114520571Y-113148199D01*
X114520574Y-113148198D01*
X114520584Y-113148198D01*
X114537242Y-113146407D01*
X114606002Y-113158811D01*
X114657140Y-113206421D01*
X114674499Y-113269696D01*
X114674499Y-115905037D01*
X114674498Y-115905052D01*
X114674498Y-115909453D01*
X114674498Y-116090545D01*
X114682668Y-116142127D01*
X114691834Y-116200000D01*
X114696628Y-116230263D01*
X114702828Y-116269408D01*
X114758121Y-116439586D01*
X114758695Y-116441571D01*
X114758555Y-116474555D01*
X114759497Y-116507524D01*
X114758407Y-116509329D01*
X114758399Y-116511440D01*
X114740443Y-116539119D01*
X114723416Y-116567356D01*
X114721523Y-116568286D01*
X114720375Y-116570057D01*
X114690302Y-116583636D01*
X114660715Y-116598184D01*
X114657470Y-116598462D01*
X114656697Y-116598812D01*
X114655488Y-116598632D01*
X114639571Y-116600000D01*
X114075000Y-116600000D01*
X114075000Y-117672768D01*
X113931247Y-117650000D01*
X113718753Y-117650000D01*
X113575000Y-117672768D01*
X113575000Y-116600000D01*
X112620280Y-116600000D01*
X112487093Y-116610482D01*
X112487087Y-116610483D01*
X112267170Y-116665898D01*
X112267167Y-116665899D01*
X112060669Y-116759695D01*
X112060663Y-116759698D01*
X111874241Y-116888851D01*
X111874229Y-116888861D01*
X111713861Y-117049229D01*
X111713851Y-117049241D01*
X111584698Y-117235663D01*
X111584695Y-117235669D01*
X111490899Y-117442167D01*
X111490898Y-117442170D01*
X111435483Y-117662087D01*
X111435482Y-117662093D01*
X111425000Y-117795280D01*
X111425000Y-118750000D01*
X112497769Y-118750000D01*
X112475000Y-118893753D01*
X112475000Y-119106247D01*
X112497769Y-119250000D01*
X111425000Y-119250000D01*
X111425000Y-120204719D01*
X111435482Y-120337906D01*
X111435483Y-120337912D01*
X111490898Y-120557829D01*
X111490899Y-120557832D01*
X111584695Y-120764330D01*
X111584698Y-120764336D01*
X111713851Y-120950758D01*
X111713861Y-120950770D01*
X111874229Y-121111138D01*
X111874241Y-121111148D01*
X112060663Y-121240301D01*
X112060669Y-121240304D01*
X112267167Y-121334100D01*
X112267170Y-121334101D01*
X112487087Y-121389516D01*
X112487093Y-121389517D01*
X112620280Y-121399999D01*
X112620294Y-121400000D01*
X113575000Y-121400000D01*
X113575000Y-120327231D01*
X113718753Y-120350000D01*
X113931247Y-120350000D01*
X114075000Y-120327231D01*
X114075000Y-121400000D01*
X115029706Y-121400000D01*
X115029719Y-121399999D01*
X115162906Y-121389517D01*
X115162912Y-121389516D01*
X115382829Y-121334101D01*
X115382832Y-121334100D01*
X115589330Y-121240304D01*
X115589336Y-121240301D01*
X115775758Y-121111148D01*
X115775770Y-121111138D01*
X115936138Y-120950770D01*
X115936148Y-120950758D01*
X116065301Y-120764336D01*
X116065304Y-120764330D01*
X116159100Y-120557832D01*
X116159101Y-120557829D01*
X116214516Y-120337912D01*
X116214517Y-120337906D01*
X116224999Y-120204719D01*
X116225000Y-120204706D01*
X116225000Y-119870309D01*
X116244685Y-119803270D01*
X116297489Y-119757515D01*
X116366647Y-119747571D01*
X116430203Y-119776596D01*
X116466041Y-119829354D01*
X116511200Y-119958411D01*
X116633053Y-120211442D01*
X116633055Y-120211445D01*
X116782477Y-120449248D01*
X116895564Y-120591054D01*
X116940736Y-120647699D01*
X116957584Y-120668825D01*
X117156175Y-120867416D01*
X117375752Y-121042523D01*
X117613555Y-121191945D01*
X117866592Y-121313801D01*
X117996901Y-121359398D01*
X118131670Y-121406556D01*
X118131682Y-121406560D01*
X118405491Y-121469055D01*
X118405497Y-121469055D01*
X118405505Y-121469057D01*
X118591547Y-121490018D01*
X118684569Y-121500499D01*
X118684572Y-121500500D01*
X118684575Y-121500500D01*
X118965428Y-121500500D01*
X118965429Y-121500499D01*
X119108055Y-121484429D01*
X119244494Y-121469057D01*
X119244499Y-121469056D01*
X119244509Y-121469055D01*
X119518318Y-121406560D01*
X119783408Y-121313801D01*
X120036445Y-121191945D01*
X120274248Y-121042523D01*
X120493825Y-120867416D01*
X120692416Y-120668825D01*
X120867523Y-120449248D01*
X121016945Y-120211445D01*
X121138801Y-119958408D01*
X121231560Y-119693318D01*
X121294055Y-119419509D01*
X121295633Y-119405510D01*
X121316953Y-119216283D01*
X121325500Y-119140425D01*
X121325500Y-118859575D01*
X121306852Y-118694069D01*
X121294057Y-118580505D01*
X121294054Y-118580487D01*
X121288743Y-118557220D01*
X121231560Y-118306682D01*
X121222564Y-118280974D01*
X121194230Y-118200000D01*
X121138801Y-118041592D01*
X121016945Y-117788555D01*
X120867523Y-117550752D01*
X120692416Y-117331175D01*
X120493825Y-117132584D01*
X120274248Y-116957477D01*
X120036445Y-116808055D01*
X120036442Y-116808053D01*
X119783411Y-116686200D01*
X119518329Y-116593443D01*
X119518317Y-116593439D01*
X119244512Y-116530945D01*
X119244494Y-116530942D01*
X118965431Y-116499500D01*
X118965425Y-116499500D01*
X118684575Y-116499500D01*
X118684568Y-116499500D01*
X118405505Y-116530942D01*
X118405487Y-116530945D01*
X118128322Y-116594206D01*
X118058583Y-116589933D01*
X118013049Y-116560996D01*
X117011818Y-115559765D01*
X116978333Y-115498442D01*
X116975499Y-115472084D01*
X116975499Y-113310792D01*
X116995184Y-113243753D01*
X117047988Y-113197998D01*
X117117146Y-113188054D01*
X117180702Y-113217079D01*
X117187180Y-113223111D01*
X118360743Y-114396674D01*
X118360757Y-114396689D01*
X118363868Y-114399800D01*
X118363869Y-114399801D01*
X118491921Y-114527853D01*
X118626323Y-114625501D01*
X118626326Y-114625503D01*
X118638426Y-114634295D01*
X118799782Y-114716511D01*
X118799785Y-114716512D01*
X118885898Y-114744491D01*
X118972013Y-114772471D01*
X119150875Y-114800801D01*
X119150876Y-114800801D01*
X119337079Y-114800801D01*
X119337103Y-114800800D01*
X122654019Y-114800800D01*
X122654043Y-114800801D01*
X122659154Y-114800801D01*
X122840245Y-114800801D01*
X122840246Y-114800801D01*
X123019109Y-114772471D01*
X123191339Y-114716511D01*
X123352694Y-114634296D01*
X123364799Y-114625501D01*
X123499201Y-114527853D01*
X123627253Y-114399801D01*
X123627254Y-114399799D01*
X123634314Y-114392739D01*
X123634319Y-114392732D01*
X123962820Y-114064232D01*
X124024142Y-114030748D01*
X124093834Y-114035732D01*
X124149767Y-114077604D01*
X124174184Y-114143068D01*
X124174500Y-114151914D01*
X124174500Y-114679191D01*
X124154815Y-114746230D01*
X124138181Y-114766872D01*
X123819727Y-115085325D01*
X123819724Y-115085328D01*
X123749955Y-115189747D01*
X123748535Y-115191871D01*
X123748532Y-115191877D01*
X123699500Y-115310251D01*
X123699497Y-115310261D01*
X123674500Y-115435928D01*
X123674500Y-119100452D01*
X123654815Y-119167491D01*
X123627410Y-119197719D01*
X123621958Y-119202029D01*
X123502029Y-119321959D01*
X123413001Y-119466294D01*
X123412996Y-119466305D01*
X123359651Y-119627290D01*
X123349500Y-119726647D01*
X123349500Y-120273337D01*
X123349501Y-120273355D01*
X123359650Y-120372707D01*
X123359651Y-120372710D01*
X123412996Y-120533694D01*
X123413001Y-120533705D01*
X123502029Y-120678040D01*
X123502032Y-120678044D01*
X123511660Y-120687672D01*
X123545145Y-120748995D01*
X123540161Y-120818687D01*
X123511663Y-120863031D01*
X123502428Y-120872265D01*
X123502424Y-120872271D01*
X123413457Y-121016507D01*
X123413452Y-121016518D01*
X123360144Y-121177393D01*
X123350000Y-121276677D01*
X123350000Y-121300000D01*
X124201000Y-121300000D01*
X124268039Y-121319685D01*
X124313794Y-121372489D01*
X124325000Y-121424000D01*
X124325000Y-121550000D01*
X124451000Y-121550000D01*
X124518039Y-121569685D01*
X124563794Y-121622489D01*
X124575000Y-121674000D01*
X124575000Y-122499999D01*
X124623308Y-122499999D01*
X124623322Y-122499998D01*
X124722607Y-122489855D01*
X124883481Y-122436547D01*
X124883492Y-122436542D01*
X125027728Y-122347575D01*
X125027732Y-122347572D01*
X125147572Y-122227732D01*
X125147575Y-122227728D01*
X125236542Y-122083492D01*
X125236547Y-122083481D01*
X125289856Y-121922604D01*
X125290721Y-121918566D01*
X125291941Y-121916311D01*
X125291986Y-121916179D01*
X125292009Y-121916186D01*
X125323998Y-121857130D01*
X125385208Y-121823438D01*
X125454916Y-121828188D01*
X125489659Y-121847865D01*
X125575704Y-121917030D01*
X125575707Y-121917031D01*
X125575709Y-121917033D01*
X125746302Y-122001639D01*
X125746303Y-122001639D01*
X125746307Y-122001641D01*
X125931111Y-122047600D01*
X125973877Y-122050500D01*
X127376122Y-122050499D01*
X127418889Y-122047600D01*
X127603693Y-122001641D01*
X127774296Y-121917030D01*
X127922722Y-121797722D01*
X128042030Y-121649296D01*
X128126641Y-121478693D01*
X128172600Y-121293889D01*
X128175500Y-121251123D01*
X128175499Y-120348878D01*
X128172600Y-120306111D01*
X128136120Y-120159423D01*
X128139044Y-120089618D01*
X128179244Y-120032472D01*
X128243958Y-120006131D01*
X128256455Y-120005500D01*
X131159610Y-120005500D01*
X131226649Y-120025185D01*
X131272404Y-120077989D01*
X131283111Y-120118385D01*
X131311373Y-120432418D01*
X131326213Y-120516633D01*
X131326214Y-120516636D01*
X131336917Y-120557018D01*
X131365725Y-120637498D01*
X131365729Y-120637506D01*
X131443512Y-120758537D01*
X131443520Y-120758548D01*
X131489264Y-120811340D01*
X131489267Y-120811343D01*
X131489271Y-120811347D01*
X131598005Y-120905567D01*
X131598008Y-120905568D01*
X131598009Y-120905569D01*
X131716164Y-120959530D01*
X131728882Y-120965338D01*
X131795921Y-120985023D01*
X131795925Y-120985024D01*
X131938341Y-121005500D01*
X131938344Y-121005500D01*
X134200990Y-121005500D01*
X134201000Y-121005500D01*
X134308456Y-120993947D01*
X134359967Y-120982741D01*
X134399596Y-120969551D01*
X134462497Y-120948616D01*
X134462499Y-120948614D01*
X134462504Y-120948613D01*
X134537036Y-120900713D01*
X134604073Y-120881028D01*
X134669173Y-120899490D01*
X134766511Y-120959530D01*
X134766518Y-120959533D01*
X134927393Y-121012841D01*
X135026683Y-121022985D01*
X135575000Y-121022985D01*
X135623308Y-121022985D01*
X135623322Y-121022984D01*
X135722607Y-121012841D01*
X135883481Y-120959533D01*
X135883492Y-120959528D01*
X136027728Y-120870561D01*
X136027732Y-120870558D01*
X136147572Y-120750718D01*
X136147575Y-120750714D01*
X136236542Y-120606478D01*
X136236547Y-120606467D01*
X136289855Y-120445592D01*
X136299999Y-120346308D01*
X136300000Y-120346295D01*
X136300000Y-120322986D01*
X135575000Y-120322986D01*
X135575000Y-121022985D01*
X135026683Y-121022985D01*
X135074999Y-121022984D01*
X135075000Y-121022984D01*
X135075000Y-120196986D01*
X135094685Y-120129947D01*
X135147489Y-120084192D01*
X135199000Y-120072986D01*
X135325000Y-120072986D01*
X135325000Y-119946986D01*
X135344685Y-119879947D01*
X135397489Y-119834192D01*
X135449000Y-119822986D01*
X136299999Y-119822986D01*
X136299999Y-119799678D01*
X136299998Y-119799663D01*
X136289855Y-119700378D01*
X136270665Y-119642465D01*
X136268263Y-119572637D01*
X136303995Y-119512595D01*
X136357114Y-119484881D01*
X136356768Y-119483619D01*
X136359959Y-119482742D01*
X136359967Y-119482741D01*
X136409382Y-119466294D01*
X136462497Y-119448616D01*
X136462501Y-119448613D01*
X136462504Y-119448613D01*
X136583543Y-119370825D01*
X136636347Y-119325070D01*
X136730567Y-119216336D01*
X136730566Y-119216336D01*
X136730613Y-119216283D01*
X136789391Y-119178509D01*
X136824325Y-119173486D01*
X137527178Y-119173486D01*
X137594217Y-119193171D01*
X137614859Y-119209805D01*
X138815382Y-120410327D01*
X138815403Y-120410350D01*
X141410326Y-123005273D01*
X141410329Y-123005275D01*
X141410331Y-123005277D01*
X141516873Y-123076465D01*
X141635256Y-123125501D01*
X141635260Y-123125501D01*
X141635261Y-123125502D01*
X141760928Y-123150500D01*
X141760931Y-123150500D01*
X177389070Y-123150500D01*
X177473614Y-123133682D01*
X177514743Y-123125501D01*
X177633126Y-123076465D01*
X177739668Y-123005277D01*
X180070924Y-120674019D01*
X180132245Y-120640536D01*
X180177996Y-120639229D01*
X180234634Y-120648200D01*
X180234637Y-120648200D01*
X180415363Y-120648200D01*
X180415364Y-120648200D01*
X180471996Y-120639230D01*
X180541289Y-120648184D01*
X180579075Y-120674022D01*
X182910324Y-123005272D01*
X182910325Y-123005273D01*
X182910328Y-123005275D01*
X182910330Y-123005277D01*
X183016872Y-123076465D01*
X183135255Y-123125501D01*
X183135259Y-123125501D01*
X183135260Y-123125502D01*
X183260927Y-123150500D01*
X183260930Y-123150500D01*
X187389071Y-123150500D01*
X187473615Y-123133682D01*
X187514744Y-123125501D01*
X187633127Y-123076465D01*
X187633131Y-123076461D01*
X187638502Y-123073592D01*
X187639295Y-123075077D01*
X187698263Y-123056601D01*
X187765647Y-123075073D01*
X187812347Y-123127043D01*
X187824500Y-123180581D01*
X187824500Y-123375500D01*
X187804815Y-123442539D01*
X187752011Y-123488294D01*
X187700500Y-123499500D01*
X108949500Y-123499500D01*
X108882461Y-123479815D01*
X108836706Y-123427011D01*
X108825500Y-123375500D01*
X108825500Y-121823322D01*
X123350001Y-121823322D01*
X123360144Y-121922607D01*
X123413452Y-122083481D01*
X123413457Y-122083492D01*
X123502424Y-122227728D01*
X123502427Y-122227732D01*
X123622267Y-122347572D01*
X123622271Y-122347575D01*
X123766507Y-122436542D01*
X123766518Y-122436547D01*
X123927393Y-122489855D01*
X124026683Y-122499999D01*
X124074999Y-122499998D01*
X124075000Y-122499998D01*
X124075000Y-121800000D01*
X123350001Y-121800000D01*
X123350001Y-121823322D01*
X108825500Y-121823322D01*
X108825500Y-108900780D01*
X108845185Y-108833741D01*
X108897989Y-108787986D01*
X108949495Y-108776780D01*
X110890221Y-108776780D01*
X110949832Y-108770372D01*
X111084680Y-108720077D01*
X111199895Y-108633827D01*
X111286145Y-108518612D01*
X111336440Y-108383764D01*
X111342849Y-108324154D01*
X111342848Y-108324126D01*
X111343027Y-108320828D01*
X111344957Y-108320931D01*
X111362012Y-108261125D01*
X111414457Y-108214958D01*
X111483536Y-108204475D01*
X111510178Y-108211164D01*
X111534866Y-108220372D01*
X111594476Y-108226781D01*
X113290221Y-108226780D01*
X113349832Y-108220372D01*
X113484680Y-108170077D01*
X113599895Y-108083827D01*
X113686145Y-107968612D01*
X113736440Y-107833764D01*
X113742849Y-107774154D01*
X113742848Y-105578409D01*
X113736440Y-105518798D01*
X113689854Y-105393896D01*
X113684871Y-105324208D01*
X113689855Y-105307232D01*
X113735946Y-105183657D01*
X113735947Y-105183653D01*
X113742348Y-105124125D01*
X113742349Y-105124108D01*
X113742349Y-105076281D01*
X113581784Y-105076281D01*
X113558936Y-105069572D01*
X113535240Y-105067214D01*
X113526026Y-105059908D01*
X113514745Y-105056596D01*
X113499152Y-105038600D01*
X113480491Y-105023805D01*
X113476689Y-105012677D01*
X113468990Y-105003792D01*
X113465601Y-104980222D01*
X113457902Y-104957688D01*
X113460719Y-104946272D01*
X113459046Y-104934634D01*
X113468939Y-104912970D01*
X113474645Y-104889854D01*
X113484596Y-104878687D01*
X113488071Y-104871078D01*
X113496572Y-104862198D01*
X113501758Y-104857292D01*
X113599895Y-104783827D01*
X113649561Y-104717481D01*
X113657261Y-104710198D01*
X113679316Y-104698938D01*
X113699140Y-104684099D01*
X113713437Y-104681519D01*
X113719491Y-104678429D01*
X113726629Y-104679139D01*
X113742321Y-104676308D01*
X113742349Y-104676281D01*
X113742349Y-104628453D01*
X113742348Y-104628441D01*
X113735729Y-104566885D01*
X113735110Y-104548843D01*
X113735605Y-104536000D01*
X113736440Y-104533764D01*
X113742849Y-104474154D01*
X113742849Y-104348380D01*
X113742941Y-104345997D01*
X113753343Y-104315040D01*
X113762534Y-104283742D01*
X113764406Y-104282119D01*
X113765197Y-104279767D01*
X113790691Y-104259343D01*
X113815338Y-104237987D01*
X113818100Y-104237386D01*
X113819727Y-104236083D01*
X113828130Y-104235204D01*
X113866849Y-104226781D01*
X115602993Y-104226781D01*
X115670032Y-104246466D01*
X115690669Y-104263095D01*
X115842244Y-104414669D01*
X115901728Y-104474153D01*
X115932852Y-104505277D01*
X116039386Y-104576461D01*
X116039395Y-104576466D01*
X116045136Y-104578844D01*
X116157776Y-104625501D01*
X116157780Y-104625501D01*
X116157781Y-104625502D01*
X116283448Y-104650500D01*
X116283451Y-104650500D01*
X118495065Y-104650500D01*
X118562104Y-104670185D01*
X118563909Y-104671366D01*
X118620821Y-104709394D01*
X118620823Y-104709395D01*
X118620827Y-104709397D01*
X118713718Y-104747873D01*
X118766503Y-104769737D01*
X118921153Y-104800499D01*
X118921156Y-104800500D01*
X118921158Y-104800500D01*
X119078844Y-104800500D01*
X119078845Y-104800499D01*
X119233497Y-104769737D01*
X119379179Y-104709394D01*
X119510289Y-104621789D01*
X119621789Y-104510289D01*
X119709394Y-104379179D01*
X119716212Y-104362720D01*
X119743796Y-104296125D01*
X119769737Y-104233497D01*
X119800500Y-104078842D01*
X119800500Y-103924500D01*
X119820185Y-103857461D01*
X119872989Y-103811706D01*
X119924500Y-103800500D01*
X120078844Y-103800500D01*
X120078845Y-103800499D01*
X120233497Y-103769737D01*
X120379179Y-103709394D01*
X120510289Y-103621789D01*
X120621789Y-103510289D01*
X120709394Y-103379179D01*
X120716212Y-103362720D01*
X120745367Y-103292331D01*
X120769737Y-103233497D01*
X120800500Y-103078842D01*
X120800500Y-102921158D01*
X120800500Y-102921155D01*
X120800499Y-102921153D01*
X120774531Y-102790606D01*
X120769737Y-102766503D01*
X120756066Y-102733497D01*
X120709397Y-102620827D01*
X120709390Y-102620814D01*
X120621789Y-102489711D01*
X120621786Y-102489707D01*
X120510292Y-102378213D01*
X120510288Y-102378210D01*
X120379185Y-102290609D01*
X120379172Y-102290602D01*
X120233501Y-102230264D01*
X120233489Y-102230261D01*
X120078845Y-102199500D01*
X120078842Y-102199500D01*
X119921158Y-102199500D01*
X119921155Y-102199500D01*
X119766510Y-102230261D01*
X119766502Y-102230263D01*
X119724356Y-102247720D01*
X119679398Y-102266342D01*
X119631948Y-102275781D01*
X113866848Y-102275781D01*
X113799809Y-102256096D01*
X113754054Y-102203292D01*
X113742848Y-102151781D01*
X113742848Y-102028410D01*
X113742847Y-102028404D01*
X113739794Y-102000000D01*
X113736440Y-101968798D01*
X113736428Y-101968767D01*
X113711575Y-101902132D01*
X113690121Y-101844612D01*
X113685137Y-101774924D01*
X113690119Y-101757956D01*
X113736440Y-101633764D01*
X113742849Y-101574154D01*
X113742848Y-99378409D01*
X113736440Y-99318798D01*
X113734108Y-99312546D01*
X113686146Y-99183952D01*
X113686142Y-99183945D01*
X113599896Y-99068736D01*
X113599893Y-99068733D01*
X113555468Y-99035476D01*
X115918186Y-99035476D01*
X115924593Y-99105996D01*
X115924594Y-99106001D01*
X115975166Y-99268290D01*
X116063112Y-99413771D01*
X116183307Y-99533966D01*
X116328789Y-99621913D01*
X116328788Y-99621913D01*
X116491079Y-99672484D01*
X116491078Y-99672484D01*
X116561593Y-99678892D01*
X116561611Y-99678893D01*
X116568184Y-99678892D01*
X116568185Y-99678892D01*
X116568185Y-98953894D01*
X115918186Y-98953894D01*
X115918186Y-99035476D01*
X113555468Y-99035476D01*
X113510498Y-99001811D01*
X113510480Y-99001799D01*
X113484679Y-98982484D01*
X113484677Y-98982483D01*
X113349831Y-98932189D01*
X113349832Y-98932189D01*
X113290232Y-98925782D01*
X113290230Y-98925781D01*
X113290222Y-98925781D01*
X113290213Y-98925781D01*
X111594478Y-98925781D01*
X111594472Y-98925782D01*
X111534866Y-98932189D01*
X111510179Y-98941397D01*
X111440487Y-98946380D01*
X111379165Y-98912893D01*
X111345681Y-98851569D01*
X111343544Y-98831689D01*
X111343249Y-98831704D01*
X111343203Y-98831710D01*
X111343202Y-98831707D01*
X111343025Y-98831717D01*
X111342848Y-98828422D01*
X111342848Y-98828409D01*
X111336440Y-98768798D01*
X111335582Y-98766498D01*
X111286146Y-98633952D01*
X111286142Y-98633945D01*
X111199896Y-98518736D01*
X111199893Y-98518733D01*
X111133158Y-98468775D01*
X111084684Y-98432487D01*
X111084677Y-98432483D01*
X110949831Y-98382189D01*
X110949832Y-98382189D01*
X110890232Y-98375782D01*
X110890230Y-98375781D01*
X110890222Y-98375781D01*
X110890214Y-98375781D01*
X108949500Y-98375781D01*
X108937717Y-98372321D01*
X115918185Y-98372321D01*
X115918185Y-98453894D01*
X116568185Y-98453894D01*
X116568185Y-97728894D01*
X116568184Y-97728893D01*
X116561621Y-97728894D01*
X116561602Y-97728895D01*
X116491082Y-97735302D01*
X116491077Y-97735303D01*
X116328788Y-97785875D01*
X116183307Y-97873821D01*
X116063112Y-97994016D01*
X115975165Y-98139498D01*
X115924594Y-98301787D01*
X115918185Y-98372321D01*
X108937717Y-98372321D01*
X108882461Y-98356096D01*
X108836706Y-98303292D01*
X108825500Y-98251781D01*
X108825500Y-96421153D01*
X117024500Y-96421153D01*
X117024500Y-96578846D01*
X117055261Y-96733489D01*
X117055264Y-96733501D01*
X117115602Y-96879172D01*
X117115609Y-96879185D01*
X117164076Y-96951720D01*
X117184954Y-97018397D01*
X117175535Y-97068063D01*
X117120264Y-97201498D01*
X117120261Y-97201510D01*
X117089500Y-97356153D01*
X117089500Y-97513846D01*
X117108712Y-97610430D01*
X117102485Y-97680021D01*
X117074777Y-97722301D01*
X117068185Y-97728893D01*
X117068185Y-99678893D01*
X117074766Y-99678893D01*
X117145287Y-99672485D01*
X117145292Y-99672484D01*
X117307581Y-99621912D01*
X117453059Y-99533968D01*
X117474447Y-99512579D01*
X117535769Y-99479092D01*
X117605461Y-99484074D01*
X117649813Y-99512576D01*
X117718685Y-99581448D01*
X117718690Y-99581452D01*
X117818292Y-99653816D01*
X117865191Y-99687890D01*
X117970669Y-99741634D01*
X118026545Y-99770105D01*
X118026548Y-99770106D01*
X118099833Y-99793917D01*
X118198776Y-99826065D01*
X118281614Y-99839185D01*
X118377634Y-99854394D01*
X118377639Y-99854394D01*
X120492707Y-99854394D01*
X120504583Y-99855328D01*
X120504600Y-99855119D01*
X120509451Y-99855501D01*
X120509453Y-99855501D01*
X120690545Y-99855501D01*
X120690546Y-99855501D01*
X120869409Y-99827171D01*
X121041639Y-99771211D01*
X121202994Y-99688996D01*
X121349501Y-99582552D01*
X121405505Y-99526547D01*
X121466825Y-99493063D01*
X121536517Y-99498047D01*
X121592451Y-99539917D01*
X121642812Y-99607190D01*
X121757906Y-99693350D01*
X121757913Y-99693354D01*
X121892620Y-99743596D01*
X121892627Y-99743598D01*
X121952155Y-99749999D01*
X121952172Y-99750000D01*
X123225000Y-99750000D01*
X123225000Y-98853554D01*
X122438625Y-98067179D01*
X122660000Y-98067179D01*
X122660000Y-98132821D01*
X122685119Y-98193465D01*
X122731535Y-98239881D01*
X122792179Y-98265000D01*
X122857821Y-98265000D01*
X122918465Y-98239881D01*
X122964881Y-98193465D01*
X122990000Y-98132821D01*
X122990000Y-98100000D01*
X123178554Y-98100000D01*
X123225000Y-98146445D01*
X123225000Y-98146444D01*
X123725000Y-98146444D01*
X123771445Y-98100000D01*
X123738624Y-98067179D01*
X123960000Y-98067179D01*
X123960000Y-98132821D01*
X123985119Y-98193465D01*
X124031535Y-98239881D01*
X124092179Y-98265000D01*
X124157821Y-98265000D01*
X124218465Y-98239881D01*
X124264881Y-98193465D01*
X124290000Y-98132821D01*
X124290000Y-98067179D01*
X124264881Y-98006535D01*
X124218465Y-97960119D01*
X124157821Y-97935000D01*
X124092179Y-97935000D01*
X124031535Y-97960119D01*
X123985119Y-98006535D01*
X123960000Y-98067179D01*
X123738624Y-98067179D01*
X123725000Y-98053555D01*
X123725000Y-98146444D01*
X123225000Y-98146444D01*
X123225000Y-98053554D01*
X123178554Y-98100000D01*
X122990000Y-98100000D01*
X122990000Y-98067179D01*
X122964881Y-98006535D01*
X122918465Y-97960119D01*
X122857821Y-97935000D01*
X122792179Y-97935000D01*
X122731535Y-97960119D01*
X122685119Y-98006535D01*
X122660000Y-98067179D01*
X122438625Y-98067179D01*
X122233112Y-97861666D01*
X122199627Y-97800343D01*
X122197504Y-97760734D01*
X122200500Y-97732873D01*
X122200500Y-97450000D01*
X122528554Y-97450000D01*
X122825000Y-97746446D01*
X123121446Y-97450000D01*
X123828554Y-97450000D01*
X124125000Y-97746446D01*
X124421446Y-97450000D01*
X124125000Y-97153554D01*
X123828554Y-97450000D01*
X123121446Y-97450000D01*
X122825000Y-97153554D01*
X122528554Y-97450000D01*
X122200500Y-97450000D01*
X122200499Y-97137128D01*
X122200418Y-97136379D01*
X122200449Y-97136207D01*
X122200321Y-97133805D01*
X122200888Y-97133774D01*
X122212809Y-97067620D01*
X122236024Y-97035419D01*
X122471445Y-96799999D01*
X122438625Y-96767179D01*
X122660000Y-96767179D01*
X122660000Y-96832821D01*
X122685119Y-96893465D01*
X122731535Y-96939881D01*
X122792179Y-96965000D01*
X122857821Y-96965000D01*
X122918465Y-96939881D01*
X122964881Y-96893465D01*
X122990000Y-96832821D01*
X122990000Y-96799999D01*
X123178554Y-96799999D01*
X123225000Y-96846445D01*
X123285961Y-96821194D01*
X123297489Y-96811206D01*
X123349000Y-96800000D01*
X123601000Y-96800000D01*
X123668039Y-96819685D01*
X123672319Y-96824624D01*
X123724999Y-96846445D01*
X123771445Y-96799999D01*
X123738625Y-96767179D01*
X123960000Y-96767179D01*
X123960000Y-96832821D01*
X123985119Y-96893465D01*
X124031535Y-96939881D01*
X124092179Y-96965000D01*
X124157821Y-96965000D01*
X124218465Y-96939881D01*
X124264881Y-96893465D01*
X124290000Y-96832821D01*
X124290000Y-96767179D01*
X124264881Y-96706535D01*
X124218465Y-96660119D01*
X124157821Y-96635000D01*
X124092179Y-96635000D01*
X124031535Y-96660119D01*
X123985119Y-96706535D01*
X123960000Y-96767179D01*
X123738625Y-96767179D01*
X123475000Y-96503554D01*
X123178554Y-96799999D01*
X122990000Y-96799999D01*
X122990000Y-96767179D01*
X122964881Y-96706535D01*
X122918465Y-96660119D01*
X122857821Y-96635000D01*
X122792179Y-96635000D01*
X122731535Y-96660119D01*
X122685119Y-96706535D01*
X122660000Y-96767179D01*
X122438625Y-96767179D01*
X122236025Y-96564579D01*
X122202540Y-96503256D01*
X122200554Y-96466194D01*
X122200500Y-96466194D01*
X122200499Y-96466188D01*
X122200322Y-96466179D01*
X122200437Y-96464023D01*
X122200417Y-96463642D01*
X122200500Y-96462873D01*
X122200499Y-96150000D01*
X122528554Y-96150000D01*
X122825000Y-96446446D01*
X123121446Y-96150000D01*
X123828554Y-96150000D01*
X124125000Y-96446446D01*
X124421446Y-96150000D01*
X124125000Y-95853554D01*
X123828554Y-96150000D01*
X123121446Y-96150000D01*
X122825000Y-95853554D01*
X122528554Y-96150000D01*
X122200499Y-96150000D01*
X122200499Y-95867128D01*
X122197504Y-95839266D01*
X122209911Y-95770507D01*
X122233113Y-95738331D01*
X122471445Y-95499999D01*
X122438625Y-95467179D01*
X122660000Y-95467179D01*
X122660000Y-95532821D01*
X122685119Y-95593465D01*
X122731535Y-95639881D01*
X122792179Y-95665000D01*
X122857821Y-95665000D01*
X122918465Y-95639881D01*
X122964881Y-95593465D01*
X122990000Y-95532821D01*
X122990000Y-95500000D01*
X123178554Y-95500000D01*
X123475000Y-95796446D01*
X123771446Y-95500000D01*
X123738625Y-95467179D01*
X123960000Y-95467179D01*
X123960000Y-95532821D01*
X123985119Y-95593465D01*
X124031535Y-95639881D01*
X124092179Y-95665000D01*
X124157821Y-95665000D01*
X124218465Y-95639881D01*
X124264881Y-95593465D01*
X124290000Y-95532821D01*
X124290000Y-95467179D01*
X124264881Y-95406535D01*
X124218465Y-95360119D01*
X124157821Y-95335000D01*
X124092179Y-95335000D01*
X124031535Y-95360119D01*
X123985119Y-95406535D01*
X123960000Y-95467179D01*
X123738625Y-95467179D01*
X123475000Y-95203554D01*
X123178554Y-95500000D01*
X122990000Y-95500000D01*
X122990000Y-95467179D01*
X122964881Y-95406535D01*
X122918465Y-95360119D01*
X122857821Y-95335000D01*
X122792179Y-95335000D01*
X122731535Y-95360119D01*
X122685119Y-95406535D01*
X122660000Y-95467179D01*
X122438625Y-95467179D01*
X122116446Y-95145000D01*
X119000000Y-95145000D01*
X119000000Y-95192844D01*
X119006401Y-95252372D01*
X119006403Y-95252379D01*
X119056645Y-95387086D01*
X119056647Y-95387088D01*
X119107688Y-95455271D01*
X119132105Y-95520735D01*
X119117885Y-95587838D01*
X119113400Y-95596264D01*
X119056204Y-95672669D01*
X119017470Y-95776518D01*
X119013619Y-95783756D01*
X118994686Y-95803099D01*
X118978466Y-95824767D01*
X118970609Y-95827697D01*
X118964746Y-95833688D01*
X118938363Y-95839724D01*
X118913002Y-95849184D01*
X118904155Y-95849500D01*
X118329935Y-95849500D01*
X118262896Y-95829815D01*
X118261090Y-95828633D01*
X118204179Y-95790606D01*
X118204172Y-95790602D01*
X118058501Y-95730264D01*
X118058489Y-95730261D01*
X117903845Y-95699500D01*
X117903842Y-95699500D01*
X117746158Y-95699500D01*
X117746155Y-95699500D01*
X117591510Y-95730261D01*
X117591498Y-95730264D01*
X117445827Y-95790602D01*
X117445814Y-95790609D01*
X117314711Y-95878210D01*
X117314707Y-95878213D01*
X117203213Y-95989707D01*
X117203210Y-95989711D01*
X117115609Y-96120814D01*
X117115602Y-96120827D01*
X117055264Y-96266498D01*
X117055261Y-96266510D01*
X117024500Y-96421153D01*
X108825500Y-96421153D01*
X108825500Y-84624500D01*
X108845185Y-84557461D01*
X108897989Y-84511706D01*
X108949500Y-84500500D01*
X136663771Y-84500500D01*
X136730810Y-84520185D01*
G37*
G04 #@! TD.AperFunction*
G04 #@! TA.AperFunction,Conductor*
G36*
X142845249Y-106502209D02*
G01*
X142901183Y-106544080D01*
X142925600Y-106609545D01*
X142924857Y-106634563D01*
X142924501Y-106637267D01*
X142924500Y-106637286D01*
X142924500Y-106862727D01*
X142939313Y-106975235D01*
X142939313Y-106975236D01*
X142987078Y-107090552D01*
X142997302Y-107115233D01*
X143089549Y-107235451D01*
X143209767Y-107327698D01*
X143349764Y-107385687D01*
X143462280Y-107400500D01*
X143462287Y-107400500D01*
X144800500Y-107400500D01*
X144867539Y-107420185D01*
X144913294Y-107472989D01*
X144924500Y-107524500D01*
X144924500Y-114164071D01*
X144938311Y-114233501D01*
X144946659Y-114275465D01*
X144949499Y-114289744D01*
X144998535Y-114408127D01*
X145022207Y-114443555D01*
X145026682Y-114453923D01*
X145027758Y-114462711D01*
X145034451Y-114478870D01*
X145055261Y-114583489D01*
X145055264Y-114583501D01*
X145115602Y-114729172D01*
X145115609Y-114729185D01*
X145203210Y-114860288D01*
X145203213Y-114860292D01*
X145314707Y-114971786D01*
X145314711Y-114971789D01*
X145445814Y-115059390D01*
X145445827Y-115059397D01*
X145591498Y-115119735D01*
X145591503Y-115119737D01*
X145734892Y-115148259D01*
X145746153Y-115150499D01*
X145746156Y-115150500D01*
X145746158Y-115150500D01*
X145903844Y-115150500D01*
X145903845Y-115150499D01*
X146058497Y-115119737D01*
X146171166Y-115073067D01*
X146204172Y-115059397D01*
X146204172Y-115059396D01*
X146204179Y-115059394D01*
X146335289Y-114971789D01*
X146446789Y-114860289D01*
X146534394Y-114729179D01*
X146538233Y-114719912D01*
X146548064Y-114696177D01*
X146594737Y-114583497D01*
X146609938Y-114507076D01*
X146642321Y-114445169D01*
X146684101Y-114416710D01*
X146704179Y-114408394D01*
X146835289Y-114320789D01*
X146946789Y-114209289D01*
X146962305Y-114186066D01*
X146978471Y-114172556D01*
X146991098Y-114155689D01*
X147004741Y-114150600D01*
X147015915Y-114141262D01*
X147036819Y-114138635D01*
X147056562Y-114131272D01*
X147070791Y-114134367D01*
X147085240Y-114132552D01*
X147104247Y-114141645D01*
X147124835Y-114146124D01*
X147144711Y-114161003D01*
X147148268Y-114162705D01*
X147153089Y-114167275D01*
X147298364Y-114312550D01*
X147331849Y-114373873D01*
X147332300Y-114376040D01*
X147345641Y-114443109D01*
X147345644Y-114443121D01*
X147405982Y-114588792D01*
X147405989Y-114588805D01*
X147493590Y-114719908D01*
X147493593Y-114719912D01*
X147605087Y-114831406D01*
X147605091Y-114831409D01*
X147736194Y-114919010D01*
X147736207Y-114919017D01*
X147863605Y-114971786D01*
X147881883Y-114979357D01*
X147997305Y-115002316D01*
X148036533Y-115010119D01*
X148036536Y-115010120D01*
X148036538Y-115010120D01*
X148194224Y-115010120D01*
X148194225Y-115010119D01*
X148348877Y-114979357D01*
X148451955Y-114936660D01*
X148521424Y-114929192D01*
X148583903Y-114960467D01*
X148587088Y-114963541D01*
X148595333Y-114971786D01*
X148595337Y-114971789D01*
X148726440Y-115059390D01*
X148726453Y-115059397D01*
X148872124Y-115119735D01*
X148872129Y-115119737D01*
X149015518Y-115148259D01*
X149026779Y-115150499D01*
X149026782Y-115150500D01*
X149026784Y-115150500D01*
X149184470Y-115150500D01*
X149184471Y-115150499D01*
X149339123Y-115119737D01*
X149451792Y-115073067D01*
X149484798Y-115059397D01*
X149484798Y-115059396D01*
X149484805Y-115059394D01*
X149615915Y-114971789D01*
X149727415Y-114860289D01*
X149730540Y-114855611D01*
X149784151Y-114810806D01*
X149833644Y-114800500D01*
X149903844Y-114800500D01*
X149903845Y-114800499D01*
X150058497Y-114769737D01*
X150178796Y-114719908D01*
X150204172Y-114709397D01*
X150204172Y-114709396D01*
X150204179Y-114709394D01*
X150335289Y-114621789D01*
X150446789Y-114510289D01*
X150534394Y-114379179D01*
X150594737Y-114233497D01*
X150625500Y-114078842D01*
X150625500Y-113921158D01*
X150625500Y-113921155D01*
X150625499Y-113921153D01*
X150615033Y-113868536D01*
X150594737Y-113766503D01*
X150587274Y-113748485D01*
X150534397Y-113620827D01*
X150534390Y-113620814D01*
X150446789Y-113489711D01*
X150446786Y-113489707D01*
X150335292Y-113378213D01*
X150335288Y-113378210D01*
X150204185Y-113290609D01*
X150204172Y-113290602D01*
X150058501Y-113230264D01*
X150058489Y-113230261D01*
X149991420Y-113216920D01*
X149929509Y-113184535D01*
X149927930Y-113182984D01*
X148261819Y-111516873D01*
X148228334Y-111455550D01*
X148225500Y-111429192D01*
X148225500Y-110211000D01*
X151415763Y-110211000D01*
X151458235Y-110357195D01*
X151540545Y-110496374D01*
X151540552Y-110496383D01*
X151654883Y-110610714D01*
X151654892Y-110610721D01*
X151794071Y-110693031D01*
X151949356Y-110738145D01*
X151970267Y-110739789D01*
X152470267Y-110739789D01*
X152491177Y-110738145D01*
X152646462Y-110693031D01*
X152785641Y-110610721D01*
X152785650Y-110610714D01*
X152899981Y-110496383D01*
X152899988Y-110496374D01*
X152982298Y-110357195D01*
X153024771Y-110211000D01*
X152470267Y-110211000D01*
X152470267Y-110739789D01*
X151970267Y-110739789D01*
X151970267Y-110211000D01*
X151415763Y-110211000D01*
X148225500Y-110211000D01*
X148225500Y-109510722D01*
X148245185Y-109443683D01*
X148297989Y-109397928D01*
X148365685Y-109387783D01*
X148424499Y-109395526D01*
X148462264Y-109400498D01*
X148462280Y-109400500D01*
X148462287Y-109400500D01*
X148687713Y-109400500D01*
X148687720Y-109400500D01*
X148800236Y-109385687D01*
X148800236Y-109385686D01*
X148808295Y-109384626D01*
X148808698Y-109387689D01*
X148841302Y-109387689D01*
X148841705Y-109384626D01*
X148849763Y-109385686D01*
X148849764Y-109385687D01*
X148962280Y-109400500D01*
X148962287Y-109400500D01*
X149187713Y-109400500D01*
X149187720Y-109400500D01*
X149300236Y-109385687D01*
X149300236Y-109385686D01*
X149308295Y-109384626D01*
X149308698Y-109387689D01*
X149341302Y-109387689D01*
X149341705Y-109384626D01*
X149349763Y-109385686D01*
X149349764Y-109385687D01*
X149462280Y-109400500D01*
X149462287Y-109400500D01*
X149687713Y-109400500D01*
X149687720Y-109400500D01*
X149800236Y-109385687D01*
X149800236Y-109385686D01*
X149808295Y-109384626D01*
X149808698Y-109387689D01*
X149841302Y-109387689D01*
X149841705Y-109384626D01*
X149849763Y-109385686D01*
X149849764Y-109385687D01*
X149962280Y-109400500D01*
X149962287Y-109400500D01*
X150187713Y-109400500D01*
X150187720Y-109400500D01*
X150300236Y-109385687D01*
X150300236Y-109385686D01*
X150308295Y-109384626D01*
X150308404Y-109385456D01*
X150325893Y-109383134D01*
X150485389Y-109382888D01*
X150510503Y-109390220D01*
X150536416Y-109393788D01*
X150546461Y-109400718D01*
X150552458Y-109402469D01*
X150557638Y-109408429D01*
X150573261Y-109419207D01*
X150660327Y-109506273D01*
X150660331Y-109506276D01*
X150766866Y-109577461D01*
X150766872Y-109577464D01*
X150766873Y-109577465D01*
X150885256Y-109626501D01*
X150885260Y-109626501D01*
X150885261Y-109626502D01*
X151010928Y-109651500D01*
X151010931Y-109651500D01*
X151309129Y-109651500D01*
X151376168Y-109671185D01*
X151408290Y-109701048D01*
X151415762Y-109711000D01*
X151721915Y-109711000D01*
X151785033Y-109728267D01*
X151793872Y-109733494D01*
X151793875Y-109733494D01*
X151793877Y-109733496D01*
X151949269Y-109778642D01*
X151949272Y-109778642D01*
X151949274Y-109778643D01*
X151985577Y-109781500D01*
X151985585Y-109781500D01*
X152454949Y-109781500D01*
X152454957Y-109781500D01*
X152491260Y-109778643D01*
X152491262Y-109778642D01*
X152491264Y-109778642D01*
X152646656Y-109733496D01*
X152646656Y-109733495D01*
X152646662Y-109733494D01*
X152655500Y-109728267D01*
X152718619Y-109711000D01*
X153024772Y-109711000D01*
X153032244Y-109701048D01*
X153088238Y-109659256D01*
X153131405Y-109651500D01*
X155494169Y-109651500D01*
X155561208Y-109671185D01*
X155606963Y-109723989D01*
X155616907Y-109793147D01*
X155608730Y-109822952D01*
X155562711Y-109934051D01*
X155562708Y-109934063D01*
X155531947Y-110088706D01*
X155531947Y-110246399D01*
X155562708Y-110401042D01*
X155562711Y-110401054D01*
X155623049Y-110546725D01*
X155623053Y-110546732D01*
X155661049Y-110603597D01*
X155681927Y-110670274D01*
X155681947Y-110672488D01*
X155681947Y-112436518D01*
X155696717Y-112510766D01*
X155704140Y-112548083D01*
X155706946Y-112562191D01*
X155706947Y-112562195D01*
X155706948Y-112562196D01*
X155755979Y-112680570D01*
X155755982Y-112680574D01*
X155822415Y-112780000D01*
X155827173Y-112787120D01*
X155827174Y-112787121D01*
X157109342Y-114069288D01*
X157142827Y-114130611D01*
X157142319Y-114178755D01*
X157143516Y-114178945D01*
X157109500Y-114393713D01*
X157109500Y-114606286D01*
X157140260Y-114800500D01*
X157142754Y-114816243D01*
X157205748Y-115010119D01*
X157208444Y-115018414D01*
X157304951Y-115207820D01*
X157429890Y-115379786D01*
X157580213Y-115530109D01*
X157752182Y-115655050D01*
X157760946Y-115659516D01*
X157811742Y-115707491D01*
X157828536Y-115775312D01*
X157805998Y-115841447D01*
X157760946Y-115880484D01*
X157752182Y-115884949D01*
X157580213Y-116009890D01*
X157429890Y-116160213D01*
X157304951Y-116332179D01*
X157208444Y-116521585D01*
X157208443Y-116521587D01*
X157208443Y-116521588D01*
X157142754Y-116723757D01*
X157109500Y-116933713D01*
X157109500Y-117146287D01*
X157119534Y-117209644D01*
X157138783Y-117331175D01*
X157142754Y-117356243D01*
X157207129Y-117554369D01*
X157208444Y-117558414D01*
X157304951Y-117747820D01*
X157429890Y-117919786D01*
X157580213Y-118070109D01*
X157752179Y-118195048D01*
X157752181Y-118195049D01*
X157752184Y-118195051D01*
X157941588Y-118291557D01*
X158143757Y-118357246D01*
X158353713Y-118390500D01*
X158353714Y-118390500D01*
X158566286Y-118390500D01*
X158566287Y-118390500D01*
X158776243Y-118357246D01*
X158978412Y-118291557D01*
X159167816Y-118195051D01*
X159310577Y-118091330D01*
X159339784Y-118070110D01*
X159339784Y-118070109D01*
X159339792Y-118070104D01*
X159453329Y-117956566D01*
X159514648Y-117923084D01*
X159584340Y-117928068D01*
X159640274Y-117969939D01*
X159657189Y-118000917D01*
X159706202Y-118132328D01*
X159706206Y-118132335D01*
X159792452Y-118247544D01*
X159792455Y-118247547D01*
X159907664Y-118333793D01*
X159907671Y-118333797D01*
X160042517Y-118384091D01*
X160042516Y-118384091D01*
X160049444Y-118384835D01*
X160102127Y-118390500D01*
X161897872Y-118390499D01*
X161957483Y-118384091D01*
X162092331Y-118333796D01*
X162207546Y-118247546D01*
X162293796Y-118132331D01*
X162344091Y-117997483D01*
X162350500Y-117937873D01*
X162350499Y-116142128D01*
X162344091Y-116082517D01*
X162342810Y-116079083D01*
X162293797Y-115947671D01*
X162293793Y-115947664D01*
X162207547Y-115832455D01*
X162207544Y-115832452D01*
X162092335Y-115746206D01*
X162092328Y-115746202D01*
X161960917Y-115697189D01*
X161904983Y-115655318D01*
X161880566Y-115589853D01*
X161895418Y-115521580D01*
X161916563Y-115493332D01*
X162030104Y-115379792D01*
X162155051Y-115207816D01*
X162251557Y-115018412D01*
X162317246Y-114816243D01*
X162350500Y-114606287D01*
X162350500Y-114393713D01*
X162317246Y-114183757D01*
X162251557Y-113981588D01*
X162155051Y-113792184D01*
X162155049Y-113792181D01*
X162155048Y-113792179D01*
X162030109Y-113620213D01*
X161879786Y-113469890D01*
X161707820Y-113344951D01*
X161707115Y-113344591D01*
X161699054Y-113340485D01*
X161648259Y-113292512D01*
X161631463Y-113224692D01*
X161653999Y-113158556D01*
X161699054Y-113119515D01*
X161707816Y-113115051D01*
X161748696Y-113085350D01*
X161879786Y-112990109D01*
X161879788Y-112990106D01*
X161879792Y-112990104D01*
X162030104Y-112839792D01*
X162030106Y-112839788D01*
X162030109Y-112839786D01*
X162155048Y-112667820D01*
X162155047Y-112667820D01*
X162155051Y-112667816D01*
X162251557Y-112478412D01*
X162317246Y-112276243D01*
X162350500Y-112066287D01*
X162350500Y-111853713D01*
X162317246Y-111643757D01*
X162251557Y-111441588D01*
X162155051Y-111252184D01*
X162155049Y-111252181D01*
X162155048Y-111252179D01*
X162030109Y-111080213D01*
X161879786Y-110929890D01*
X161707820Y-110804951D01*
X161518414Y-110708444D01*
X161518413Y-110708443D01*
X161518412Y-110708443D01*
X161316243Y-110642754D01*
X161316241Y-110642753D01*
X161316240Y-110642753D01*
X161154957Y-110617208D01*
X161106287Y-110609500D01*
X160893713Y-110609500D01*
X160845042Y-110617208D01*
X160683760Y-110642753D01*
X160481585Y-110708444D01*
X160292179Y-110804951D01*
X160120213Y-110929890D01*
X159969890Y-111080213D01*
X159844949Y-111252182D01*
X159840484Y-111260946D01*
X159792509Y-111311742D01*
X159724688Y-111328536D01*
X159658553Y-111305998D01*
X159619516Y-111260946D01*
X159615050Y-111252182D01*
X159490109Y-111080213D01*
X159339786Y-110929890D01*
X159167820Y-110804951D01*
X158978414Y-110708444D01*
X158978413Y-110708443D01*
X158978412Y-110708443D01*
X158776243Y-110642754D01*
X158776241Y-110642753D01*
X158776240Y-110642753D01*
X158614957Y-110617208D01*
X158566287Y-110609500D01*
X158353713Y-110609500D01*
X158305042Y-110617208D01*
X158143760Y-110642753D01*
X157941585Y-110708444D01*
X157752179Y-110804951D01*
X157580213Y-110929890D01*
X157429890Y-111080213D01*
X157304951Y-111252180D01*
X157217432Y-111423945D01*
X157169457Y-111474741D01*
X157101636Y-111491536D01*
X157035501Y-111468998D01*
X156992050Y-111414283D01*
X156982947Y-111367650D01*
X156982947Y-110672488D01*
X157002632Y-110605449D01*
X157003813Y-110603643D01*
X157041841Y-110546732D01*
X157102184Y-110401050D01*
X157132947Y-110246395D01*
X157132947Y-110088711D01*
X157132947Y-110088708D01*
X157132946Y-110088706D01*
X157114090Y-109993910D01*
X157102184Y-109934056D01*
X157094124Y-109914597D01*
X157056164Y-109822952D01*
X157048695Y-109753483D01*
X157079970Y-109691004D01*
X157140059Y-109655352D01*
X157170725Y-109651500D01*
X160415073Y-109651500D01*
X160419166Y-109651097D01*
X160431317Y-109650500D01*
X161165999Y-109650500D01*
X161233038Y-109670185D01*
X161278793Y-109722989D01*
X161280560Y-109727046D01*
X161290606Y-109751299D01*
X161290609Y-109751305D01*
X161378210Y-109882408D01*
X161378213Y-109882412D01*
X161489707Y-109993906D01*
X161489711Y-109993909D01*
X161620814Y-110081510D01*
X161620827Y-110081517D01*
X161766498Y-110141855D01*
X161766503Y-110141857D01*
X161921153Y-110172619D01*
X161921156Y-110172620D01*
X161921158Y-110172620D01*
X162078844Y-110172620D01*
X162078845Y-110172619D01*
X162233497Y-110141857D01*
X162379179Y-110081514D01*
X162510289Y-109993909D01*
X162616946Y-109887251D01*
X162678267Y-109853768D01*
X162747959Y-109858752D01*
X162792307Y-109887253D01*
X167007984Y-114102930D01*
X167041469Y-114164253D01*
X167041920Y-114166420D01*
X167055261Y-114233489D01*
X167055264Y-114233501D01*
X167115602Y-114379172D01*
X167115609Y-114379185D01*
X167203210Y-114510288D01*
X167203213Y-114510292D01*
X167314708Y-114621787D01*
X167314711Y-114621789D01*
X167345805Y-114642565D01*
X167390611Y-114696177D01*
X167399318Y-114765502D01*
X167369164Y-114828530D01*
X167364596Y-114833349D01*
X166575502Y-115622444D01*
X166447447Y-115750498D01*
X166429419Y-115775312D01*
X166357356Y-115874499D01*
X166341004Y-115897006D01*
X166341002Y-115897009D01*
X166258788Y-116058360D01*
X166258787Y-116058363D01*
X166202829Y-116230589D01*
X166186738Y-116332184D01*
X166174499Y-116409454D01*
X166174499Y-116590546D01*
X166180036Y-116625502D01*
X166195598Y-116723757D01*
X166202828Y-116769404D01*
X166202830Y-116769414D01*
X166258787Y-116941636D01*
X166258788Y-116941639D01*
X166313609Y-117049229D01*
X166332004Y-117085331D01*
X166341006Y-117102997D01*
X166447441Y-117249494D01*
X166447445Y-117249499D01*
X166575502Y-117377556D01*
X166655846Y-117435928D01*
X166718675Y-117481576D01*
X166718677Y-117481578D01*
X166718678Y-117481578D01*
X166722005Y-117483996D01*
X166722009Y-117483998D01*
X166883350Y-117566206D01*
X166883363Y-117566212D01*
X166967657Y-117593600D01*
X167055591Y-117622171D01*
X167234454Y-117650501D01*
X167234455Y-117650501D01*
X167415545Y-117650501D01*
X167415546Y-117650501D01*
X167594409Y-117622171D01*
X167766639Y-117566211D01*
X167781942Y-117558414D01*
X167927990Y-117483998D01*
X167927994Y-117483996D01*
X167931319Y-117481580D01*
X168074501Y-117377553D01*
X168202553Y-117249501D01*
X168202554Y-117249499D01*
X168209614Y-117242439D01*
X168209620Y-117242432D01*
X168991651Y-116460400D01*
X169052972Y-116426917D01*
X169122664Y-116431901D01*
X169178597Y-116473773D01*
X169182432Y-116479192D01*
X169203210Y-116510288D01*
X169203213Y-116510292D01*
X169314707Y-116621786D01*
X169314711Y-116621789D01*
X169445814Y-116709390D01*
X169445827Y-116709397D01*
X169583683Y-116766498D01*
X169591503Y-116769737D01*
X169746153Y-116800499D01*
X169746156Y-116800500D01*
X169746158Y-116800500D01*
X169903844Y-116800500D01*
X169903845Y-116800499D01*
X170058497Y-116769737D01*
X170204179Y-116709394D01*
X170261044Y-116671397D01*
X170327721Y-116650520D01*
X170329935Y-116650500D01*
X170889071Y-116650500D01*
X170973615Y-116633682D01*
X171014744Y-116625501D01*
X171133127Y-116576465D01*
X171148473Y-116566211D01*
X171239669Y-116505277D01*
X175631254Y-112113691D01*
X175692575Y-112080208D01*
X175762267Y-112085192D01*
X175806614Y-112113693D01*
X175814707Y-112121786D01*
X175814711Y-112121789D01*
X175945814Y-112209390D01*
X175945827Y-112209397D01*
X176033230Y-112245599D01*
X176091503Y-112269737D01*
X176158580Y-112283079D01*
X176220490Y-112315463D01*
X176222069Y-112317015D01*
X181638181Y-117733127D01*
X181671666Y-117794450D01*
X181674500Y-117820808D01*
X181674500Y-118490181D01*
X181654815Y-118557220D01*
X181623385Y-118590499D01*
X181577004Y-118624196D01*
X181576999Y-118624200D01*
X181449200Y-118751999D01*
X181425317Y-118784872D01*
X181369986Y-118827537D01*
X181300373Y-118833516D01*
X181238578Y-118800910D01*
X181224680Y-118784870D01*
X181200800Y-118752001D01*
X181072995Y-118624196D01*
X180926790Y-118517974D01*
X180926789Y-118517973D01*
X180926787Y-118517972D01*
X180765755Y-118435922D01*
X180593870Y-118380073D01*
X180593868Y-118380072D01*
X180593866Y-118380072D01*
X180458947Y-118358703D01*
X180415364Y-118351800D01*
X180234634Y-118351800D01*
X180200250Y-118357246D01*
X180056131Y-118380072D01*
X180056128Y-118380073D01*
X179899161Y-118431075D01*
X179884240Y-118435923D01*
X179723207Y-118517974D01*
X179577002Y-118624196D01*
X179449199Y-118751999D01*
X179438107Y-118767266D01*
X179382775Y-118809930D01*
X179313162Y-118815906D01*
X179251368Y-118783298D01*
X179237473Y-118767263D01*
X179229492Y-118756278D01*
X179178294Y-118685810D01*
X179039190Y-118546706D01*
X178880038Y-118431075D01*
X178704761Y-118341766D01*
X178517662Y-118280973D01*
X178323366Y-118250200D01*
X178323361Y-118250200D01*
X178126639Y-118250200D01*
X178126634Y-118250200D01*
X177932337Y-118280973D01*
X177745238Y-118341766D01*
X177569961Y-118431075D01*
X177500173Y-118481780D01*
X177410810Y-118546706D01*
X177410808Y-118546708D01*
X177410807Y-118546708D01*
X177271708Y-118685807D01*
X177271708Y-118685808D01*
X177271706Y-118685810D01*
X177234705Y-118736737D01*
X177156075Y-118844961D01*
X177066766Y-119020238D01*
X177005973Y-119207337D01*
X176975200Y-119401633D01*
X176975200Y-119598366D01*
X177005973Y-119792662D01*
X177066766Y-119979761D01*
X177155864Y-120154623D01*
X177156075Y-120155038D01*
X177271706Y-120314190D01*
X177410810Y-120453294D01*
X177569962Y-120568925D01*
X177652774Y-120611120D01*
X177745238Y-120658233D01*
X177745240Y-120658233D01*
X177745243Y-120658235D01*
X177806209Y-120678044D01*
X177931367Y-120718711D01*
X177989042Y-120758149D01*
X178016240Y-120822508D01*
X178004325Y-120891354D01*
X177980729Y-120924323D01*
X177091872Y-121813181D01*
X177030549Y-121846666D01*
X177004191Y-121849500D01*
X147613476Y-121849500D01*
X147546437Y-121829815D01*
X147500682Y-121777011D01*
X147490738Y-121707853D01*
X147519763Y-121644297D01*
X147566023Y-121610939D01*
X147621726Y-121587866D01*
X147728268Y-121516678D01*
X148059824Y-121185120D01*
X148121143Y-121151638D01*
X148166897Y-121150331D01*
X148209525Y-121157082D01*
X148233631Y-121160901D01*
X148233634Y-121160901D01*
X148416369Y-121160901D01*
X148516630Y-121145020D01*
X148596844Y-121132316D01*
X148770630Y-121075849D01*
X148933443Y-120992892D01*
X149081275Y-120885486D01*
X149210484Y-120756277D01*
X149224681Y-120736736D01*
X149280007Y-120694070D01*
X149349620Y-120688089D01*
X149411416Y-120720693D01*
X149425316Y-120736734D01*
X149439515Y-120756277D01*
X149568724Y-120885486D01*
X149716556Y-120992892D01*
X149879369Y-121075849D01*
X150053155Y-121132316D01*
X150120835Y-121143035D01*
X150233630Y-121160901D01*
X150233635Y-121160901D01*
X150416370Y-121160901D01*
X150516631Y-121145020D01*
X150596845Y-121132316D01*
X150770631Y-121075849D01*
X150933444Y-120992892D01*
X151081276Y-120885486D01*
X151210485Y-120756277D01*
X151224680Y-120736738D01*
X151280009Y-120694072D01*
X151349622Y-120688091D01*
X151411418Y-120720696D01*
X151425315Y-120736735D01*
X151439513Y-120756277D01*
X151568722Y-120885486D01*
X151716554Y-120992892D01*
X151879367Y-121075849D01*
X152053153Y-121132316D01*
X152120833Y-121143035D01*
X152233628Y-121160901D01*
X152233633Y-121160901D01*
X152416368Y-121160901D01*
X152516629Y-121145020D01*
X152596843Y-121132316D01*
X152770629Y-121075849D01*
X152933442Y-120992892D01*
X153081274Y-120885486D01*
X153210483Y-120756277D01*
X153317889Y-120608445D01*
X153400846Y-120445632D01*
X153457313Y-120271846D01*
X153470017Y-120191632D01*
X153485898Y-120091371D01*
X153485898Y-119908630D01*
X153464985Y-119776596D01*
X153457313Y-119728156D01*
X153400846Y-119554370D01*
X153317889Y-119391557D01*
X153210483Y-119243725D01*
X153081274Y-119114516D01*
X153061731Y-119100317D01*
X153019066Y-119044989D01*
X153013087Y-118975375D01*
X153045692Y-118913580D01*
X153061728Y-118899685D01*
X153081274Y-118885485D01*
X153210483Y-118756276D01*
X153317889Y-118608444D01*
X153400846Y-118445631D01*
X153457313Y-118271845D01*
X153475524Y-118156865D01*
X153485898Y-118091370D01*
X153485898Y-117908629D01*
X153464300Y-117772271D01*
X153457313Y-117728155D01*
X153400846Y-117554369D01*
X153317889Y-117391556D01*
X153210483Y-117243724D01*
X153081274Y-117114515D01*
X152933442Y-117007109D01*
X152770629Y-116924152D01*
X152596843Y-116867685D01*
X152596841Y-116867684D01*
X152596839Y-116867684D01*
X152416368Y-116839100D01*
X152416363Y-116839100D01*
X152233633Y-116839100D01*
X152233628Y-116839100D01*
X152053156Y-116867684D01*
X151879364Y-116924153D01*
X151716553Y-117007109D01*
X151568719Y-117114517D01*
X151439516Y-117243720D01*
X151439515Y-117243722D01*
X151439513Y-117243724D01*
X151425317Y-117263264D01*
X151425316Y-117263265D01*
X151369985Y-117305929D01*
X151300371Y-117311907D01*
X151238577Y-117279299D01*
X151224682Y-117263265D01*
X151210485Y-117243724D01*
X151081276Y-117114515D01*
X150933444Y-117007109D01*
X150770631Y-116924152D01*
X150596845Y-116867685D01*
X150596843Y-116867684D01*
X150596841Y-116867684D01*
X150416370Y-116839100D01*
X150416365Y-116839100D01*
X150233635Y-116839100D01*
X150233630Y-116839100D01*
X150053158Y-116867684D01*
X149879366Y-116924153D01*
X149716555Y-117007109D01*
X149568721Y-117114517D01*
X149439514Y-117243724D01*
X149425316Y-117263267D01*
X149369985Y-117305932D01*
X149300372Y-117311910D01*
X149238577Y-117279303D01*
X149224681Y-117263265D01*
X149210484Y-117243724D01*
X149081275Y-117114515D01*
X148933443Y-117007109D01*
X148770630Y-116924152D01*
X148596844Y-116867685D01*
X148596842Y-116867684D01*
X148596840Y-116867684D01*
X148416369Y-116839100D01*
X148416364Y-116839100D01*
X148233634Y-116839100D01*
X148233629Y-116839100D01*
X148053157Y-116867684D01*
X147879365Y-116924153D01*
X147716554Y-117007109D01*
X147568720Y-117114517D01*
X147439515Y-117243722D01*
X147383485Y-117320841D01*
X147328154Y-117363506D01*
X147312778Y-117365772D01*
X146731400Y-117947151D01*
X146731400Y-117946496D01*
X146703705Y-117843135D01*
X146650201Y-117750464D01*
X146574536Y-117674799D01*
X146481865Y-117621295D01*
X146378504Y-117593600D01*
X146377847Y-117593600D01*
X146950978Y-117020467D01*
X146933178Y-117007535D01*
X146770443Y-116924616D01*
X146596728Y-116868172D01*
X146416330Y-116839600D01*
X146233670Y-116839600D01*
X146053271Y-116868172D01*
X145879556Y-116924616D01*
X145716813Y-117007539D01*
X145716808Y-117007543D01*
X145699020Y-117020465D01*
X145699020Y-117020468D01*
X146272154Y-117593600D01*
X146271496Y-117593600D01*
X146168135Y-117621295D01*
X146075464Y-117674799D01*
X145999799Y-117750464D01*
X145946295Y-117843135D01*
X145918600Y-117946496D01*
X145918600Y-117947152D01*
X145345468Y-117374020D01*
X145345465Y-117374020D01*
X145332543Y-117391808D01*
X145332539Y-117391813D01*
X145249616Y-117554556D01*
X145193172Y-117728271D01*
X145164600Y-117908669D01*
X145164600Y-118091330D01*
X145193172Y-118271728D01*
X145249616Y-118445443D01*
X145332535Y-118608178D01*
X145345467Y-118625978D01*
X145918600Y-118052845D01*
X145918600Y-118053504D01*
X145946295Y-118156865D01*
X145999799Y-118249536D01*
X146075464Y-118325201D01*
X146168135Y-118378705D01*
X146271496Y-118406400D01*
X146272153Y-118406400D01*
X145687653Y-118990897D01*
X145682208Y-119016818D01*
X145645841Y-119058487D01*
X145568722Y-119114517D01*
X145439514Y-119243725D01*
X145399800Y-119298387D01*
X145344470Y-119341052D01*
X145299483Y-119349500D01*
X142751276Y-119349500D01*
X142721835Y-119340855D01*
X142691849Y-119334332D01*
X142686833Y-119330577D01*
X142684237Y-119329815D01*
X142663595Y-119313181D01*
X142662741Y-119312327D01*
X142629256Y-119251004D01*
X142634240Y-119181312D01*
X142662747Y-119136959D01*
X142671975Y-119127731D01*
X142760944Y-118983492D01*
X142760949Y-118983481D01*
X142814257Y-118822606D01*
X142824401Y-118723322D01*
X142824402Y-118723309D01*
X142824402Y-118700000D01*
X140874403Y-118700000D01*
X140874403Y-118723322D01*
X140884546Y-118822607D01*
X140937854Y-118983481D01*
X140937859Y-118983492D01*
X141026826Y-119127728D01*
X141026829Y-119127732D01*
X141036062Y-119136965D01*
X141040382Y-119144876D01*
X141047605Y-119150277D01*
X141056868Y-119175068D01*
X141069547Y-119198288D01*
X141068903Y-119207280D01*
X141072060Y-119215727D01*
X141066450Y-119241586D01*
X141064563Y-119267980D01*
X141058767Y-119277003D01*
X141057248Y-119284009D01*
X141036114Y-119312276D01*
X141035258Y-119313131D01*
X140973957Y-119346651D01*
X140947528Y-119349500D01*
X139645807Y-119349500D01*
X139578768Y-119329815D01*
X139558126Y-119313181D01*
X139332626Y-119087681D01*
X139299141Y-119026358D01*
X139304125Y-118956666D01*
X139332626Y-118912319D01*
X139866240Y-118378705D01*
X140068268Y-118176677D01*
X140874402Y-118176677D01*
X140874402Y-118200000D01*
X141599402Y-118200000D01*
X142099402Y-118200000D01*
X142824401Y-118200000D01*
X142824401Y-118176692D01*
X142824400Y-118176677D01*
X142814257Y-118077392D01*
X142769661Y-117942807D01*
X142769660Y-117942805D01*
X142760950Y-117916521D01*
X142760944Y-117916507D01*
X142671977Y-117772271D01*
X142671974Y-117772267D01*
X142552134Y-117652427D01*
X142552130Y-117652424D01*
X142407894Y-117563457D01*
X142407883Y-117563452D01*
X142247008Y-117510144D01*
X142147724Y-117500000D01*
X142099402Y-117500000D01*
X142099402Y-118200000D01*
X141599402Y-118200000D01*
X141599402Y-117500000D01*
X141599401Y-117499999D01*
X141551095Y-117500000D01*
X141551077Y-117500001D01*
X141451794Y-117510144D01*
X141290920Y-117563452D01*
X141290909Y-117563457D01*
X141147035Y-117652201D01*
X141014564Y-117792151D01*
X140937859Y-117916507D01*
X140937854Y-117916518D01*
X140884546Y-118077393D01*
X140874402Y-118176677D01*
X140068268Y-118176677D01*
X140427931Y-117817013D01*
X140489252Y-117783530D01*
X140491317Y-117783099D01*
X140558497Y-117769737D01*
X140704179Y-117709394D01*
X140835289Y-117621789D01*
X140946789Y-117510289D01*
X141034394Y-117379179D01*
X141094737Y-117233497D01*
X141125500Y-117078842D01*
X141125500Y-116921158D01*
X141125500Y-116921155D01*
X141125499Y-116921153D01*
X141117634Y-116881615D01*
X141094737Y-116766503D01*
X141071082Y-116709394D01*
X141034397Y-116620827D01*
X141034390Y-116620814D01*
X140946789Y-116489711D01*
X140946786Y-116489707D01*
X140835292Y-116378213D01*
X140835288Y-116378210D01*
X140704185Y-116290609D01*
X140704172Y-116290602D01*
X140558501Y-116230264D01*
X140558489Y-116230261D01*
X140403845Y-116199500D01*
X140403842Y-116199500D01*
X140246158Y-116199500D01*
X140246155Y-116199500D01*
X140091510Y-116230261D01*
X140091498Y-116230264D01*
X139945827Y-116290602D01*
X139945814Y-116290609D01*
X139814711Y-116378210D01*
X139814707Y-116378213D01*
X139703213Y-116489707D01*
X139703210Y-116489711D01*
X139615609Y-116620814D01*
X139615602Y-116620827D01*
X139555264Y-116766498D01*
X139555261Y-116766508D01*
X139541920Y-116833579D01*
X139509535Y-116895490D01*
X139507984Y-116897068D01*
X138568887Y-117836167D01*
X138507564Y-117869652D01*
X138481206Y-117872486D01*
X136847742Y-117872486D01*
X136780703Y-117852801D01*
X136743427Y-117815526D01*
X136713813Y-117769446D01*
X136695825Y-117741457D01*
X136688607Y-117733127D01*
X136650076Y-117688659D01*
X136650072Y-117688656D01*
X136650070Y-117688653D01*
X136541336Y-117594433D01*
X136541333Y-117594431D01*
X136541331Y-117594430D01*
X136410465Y-117534664D01*
X136410460Y-117534662D01*
X136410459Y-117534662D01*
X136343420Y-117514977D01*
X136343422Y-117514977D01*
X136343417Y-117514976D01*
X136295944Y-117508150D01*
X136201000Y-117494500D01*
X136200998Y-117494500D01*
X134954500Y-117494500D01*
X134887461Y-117474815D01*
X134841706Y-117422011D01*
X134830500Y-117370500D01*
X134830500Y-116624010D01*
X134830500Y-116624000D01*
X134818947Y-116516544D01*
X134807741Y-116465033D01*
X134796235Y-116430466D01*
X134793741Y-116360643D01*
X134829393Y-116300553D01*
X134891872Y-116269278D01*
X134961341Y-116276745D01*
X135001571Y-116303625D01*
X135075499Y-116377553D01*
X135075502Y-116377555D01*
X135075506Y-116377559D01*
X135207935Y-116473773D01*
X135222006Y-116483996D01*
X135330191Y-116539119D01*
X135344859Y-116546593D01*
X135344860Y-116546594D01*
X135383355Y-116566209D01*
X135383363Y-116566212D01*
X135458258Y-116590546D01*
X135555591Y-116622171D01*
X135734453Y-116650501D01*
X135734454Y-116650501D01*
X135915545Y-116650501D01*
X135915546Y-116650501D01*
X136094409Y-116622171D01*
X136266639Y-116566211D01*
X136266639Y-116566210D01*
X136266644Y-116566209D01*
X136305140Y-116546594D01*
X136305141Y-116546593D01*
X136319809Y-116539119D01*
X136427994Y-116483996D01*
X136574501Y-116377553D01*
X136702553Y-116249501D01*
X136808996Y-116102994D01*
X136891211Y-115941639D01*
X136947171Y-115769409D01*
X136947631Y-115766506D01*
X136947632Y-115766506D01*
X136947632Y-115766496D01*
X136975501Y-115590546D01*
X136975501Y-115409453D01*
X136947171Y-115230591D01*
X136947170Y-115230587D01*
X136925151Y-115162817D01*
X136923156Y-115092976D01*
X136959237Y-115033144D01*
X137021938Y-115002316D01*
X137043082Y-115000500D01*
X139820065Y-115000500D01*
X139887104Y-115020185D01*
X139888909Y-115021366D01*
X139945821Y-115059394D01*
X139945823Y-115059395D01*
X139945827Y-115059397D01*
X140091498Y-115119735D01*
X140091503Y-115119737D01*
X140234892Y-115148259D01*
X140246153Y-115150499D01*
X140246156Y-115150500D01*
X140246158Y-115150500D01*
X140403844Y-115150500D01*
X140403845Y-115150499D01*
X140558497Y-115119737D01*
X140671166Y-115073067D01*
X140704172Y-115059397D01*
X140704172Y-115059396D01*
X140704179Y-115059394D01*
X140835289Y-114971789D01*
X140946789Y-114860289D01*
X141034394Y-114729179D01*
X141038233Y-114719912D01*
X141048067Y-114696166D01*
X141094737Y-114583497D01*
X141125500Y-114428842D01*
X141125500Y-114271158D01*
X141125500Y-114271155D01*
X141125499Y-114271153D01*
X141123793Y-114262576D01*
X141094737Y-114116503D01*
X141059966Y-114032559D01*
X141052498Y-113963091D01*
X141083773Y-113900612D01*
X141143862Y-113864960D01*
X141213687Y-113867454D01*
X141248839Y-113885842D01*
X141276496Y-113906546D01*
X141276503Y-113906550D01*
X141411349Y-113956844D01*
X141411348Y-113956844D01*
X141418276Y-113957588D01*
X141470959Y-113963253D01*
X142536704Y-113963252D01*
X142596315Y-113956844D01*
X142731163Y-113906549D01*
X142846378Y-113820299D01*
X142932628Y-113705084D01*
X142982923Y-113570236D01*
X142989332Y-113510626D01*
X142989331Y-112414881D01*
X142982923Y-112355270D01*
X142951523Y-112271084D01*
X142946540Y-112201395D01*
X142951521Y-112184426D01*
X142982923Y-112100236D01*
X142989332Y-112040626D01*
X142989331Y-110944881D01*
X142982923Y-110885270D01*
X142953451Y-110806252D01*
X142932629Y-110750424D01*
X142932625Y-110750417D01*
X142846379Y-110635208D01*
X142846376Y-110635205D01*
X142731167Y-110548959D01*
X142731160Y-110548955D01*
X142596314Y-110498661D01*
X142596315Y-110498661D01*
X142536715Y-110492254D01*
X142536713Y-110492253D01*
X142536705Y-110492253D01*
X142536697Y-110492253D01*
X141602052Y-110492253D01*
X141535013Y-110472568D01*
X141489258Y-110419764D01*
X141479314Y-110350606D01*
X141508339Y-110287050D01*
X141514357Y-110280586D01*
X141783126Y-110011818D01*
X141844449Y-109978333D01*
X141870807Y-109975499D01*
X142148338Y-109975499D01*
X142148344Y-109975499D01*
X142148352Y-109975498D01*
X142148355Y-109975498D01*
X142202760Y-109969940D01*
X142247708Y-109965349D01*
X142408697Y-109912003D01*
X142553044Y-109822968D01*
X142672968Y-109703044D01*
X142762003Y-109558697D01*
X142815349Y-109397708D01*
X142825500Y-109298345D01*
X142825499Y-108701656D01*
X142815349Y-108602292D01*
X142762003Y-108441303D01*
X142761999Y-108441297D01*
X142761998Y-108441294D01*
X142672970Y-108296959D01*
X142672969Y-108296958D01*
X142672968Y-108296956D01*
X142561818Y-108185806D01*
X142528334Y-108124483D01*
X142525500Y-108098125D01*
X142525500Y-106770808D01*
X142545185Y-106703769D01*
X142561813Y-106683132D01*
X142714238Y-106530707D01*
X142775558Y-106497225D01*
X142845249Y-106502209D01*
G37*
G04 #@! TD.AperFunction*
G04 #@! TA.AperFunction,Conductor*
G36*
X184575000Y-120647700D02*
G01*
X185020528Y-120647700D01*
X185020544Y-120647699D01*
X185080072Y-120641298D01*
X185080079Y-120641296D01*
X185214786Y-120591054D01*
X185214793Y-120591050D01*
X185329887Y-120504890D01*
X185329888Y-120504889D01*
X185386484Y-120429287D01*
X185442417Y-120387415D01*
X185512109Y-120382431D01*
X185573431Y-120415915D01*
X185603109Y-120445592D01*
X185610811Y-120453294D01*
X185769963Y-120568925D01*
X185852775Y-120611120D01*
X185945239Y-120658233D01*
X185945241Y-120658233D01*
X185945244Y-120658235D01*
X186006210Y-120678044D01*
X186132338Y-120719026D01*
X186326635Y-120749800D01*
X186326640Y-120749800D01*
X186523356Y-120749800D01*
X186523362Y-120749800D01*
X186531098Y-120748574D01*
X186600387Y-120757524D01*
X186653842Y-120802516D01*
X186674487Y-120869266D01*
X186674500Y-120871046D01*
X186674500Y-121725500D01*
X186654815Y-121792539D01*
X186602011Y-121838294D01*
X186550500Y-121849500D01*
X183645807Y-121849500D01*
X183578768Y-121829815D01*
X183558126Y-121813181D01*
X182564113Y-120819168D01*
X182530628Y-120757845D01*
X182535612Y-120688153D01*
X182577484Y-120632220D01*
X182613471Y-120613558D01*
X182765756Y-120564078D01*
X182926788Y-120482028D01*
X183071569Y-120376838D01*
X183137375Y-120353359D01*
X183205429Y-120369184D01*
X183243720Y-120402845D01*
X183320112Y-120504890D01*
X183435206Y-120591050D01*
X183435213Y-120591054D01*
X183569920Y-120641296D01*
X183569927Y-120641298D01*
X183629455Y-120647699D01*
X183629472Y-120647700D01*
X184075000Y-120647700D01*
X184075000Y-119806775D01*
X184083263Y-119815038D01*
X184173038Y-119866870D01*
X184273168Y-119893700D01*
X184376832Y-119893700D01*
X184476962Y-119866870D01*
X184566737Y-119815038D01*
X184575000Y-119806775D01*
X184575000Y-120647700D01*
G37*
G04 #@! TD.AperFunction*
G04 #@! TA.AperFunction,Conductor*
G36*
X147315897Y-118637344D02*
G01*
X147341815Y-118642789D01*
X147383483Y-118679157D01*
X147439514Y-118756276D01*
X147568723Y-118885485D01*
X147588264Y-118899682D01*
X147630930Y-118955011D01*
X147636910Y-119024624D01*
X147604304Y-119086419D01*
X147588266Y-119100317D01*
X147568723Y-119114515D01*
X147439516Y-119243722D01*
X147439511Y-119243728D01*
X147425315Y-119263267D01*
X147369984Y-119305931D01*
X147300370Y-119311909D01*
X147238576Y-119279301D01*
X147224682Y-119263266D01*
X147210485Y-119243725D01*
X147081276Y-119114516D01*
X147004156Y-119058485D01*
X146961492Y-119003156D01*
X146959224Y-118987777D01*
X146377848Y-118406400D01*
X146378504Y-118406400D01*
X146481865Y-118378705D01*
X146574536Y-118325201D01*
X146650201Y-118249536D01*
X146703705Y-118156865D01*
X146731400Y-118053504D01*
X146731400Y-118052847D01*
X147315897Y-118637344D01*
G37*
G04 #@! TD.AperFunction*
G04 #@! TA.AperFunction,Conductor*
G36*
X184450360Y-105065572D02*
G01*
X184501411Y-105096357D01*
X186638181Y-107233127D01*
X186671666Y-107294450D01*
X186674500Y-107320808D01*
X186674500Y-118128952D01*
X186654815Y-118195991D01*
X186602011Y-118241746D01*
X186532853Y-118251690D01*
X186531104Y-118251426D01*
X186523363Y-118250200D01*
X186523362Y-118250200D01*
X186326640Y-118250200D01*
X186326635Y-118250200D01*
X186132338Y-118280973D01*
X185945239Y-118341766D01*
X185769962Y-118431075D01*
X185700174Y-118481780D01*
X185610811Y-118546706D01*
X185610809Y-118546708D01*
X185610807Y-118546709D01*
X185573432Y-118584084D01*
X185512109Y-118617569D01*
X185442417Y-118612583D01*
X185386486Y-118570714D01*
X185329887Y-118495109D01*
X185214793Y-118408949D01*
X185214786Y-118408945D01*
X185080079Y-118358703D01*
X185080072Y-118358701D01*
X185020544Y-118352300D01*
X184575000Y-118352300D01*
X184575000Y-119193225D01*
X184566737Y-119184962D01*
X184476962Y-119133130D01*
X184376832Y-119106300D01*
X184273168Y-119106300D01*
X184173038Y-119133130D01*
X184083263Y-119184962D01*
X184075000Y-119193225D01*
X184075000Y-118352300D01*
X183629455Y-118352300D01*
X183569927Y-118358701D01*
X183569920Y-118358703D01*
X183435213Y-118408945D01*
X183435206Y-118408949D01*
X183320112Y-118495109D01*
X183243720Y-118597154D01*
X183237185Y-118602045D01*
X183233378Y-118609262D01*
X183209626Y-118622675D01*
X183187785Y-118639025D01*
X183179644Y-118639607D01*
X183172540Y-118643619D01*
X183145308Y-118642062D01*
X183118094Y-118644008D01*
X183109136Y-118639994D01*
X183102784Y-118639631D01*
X183071569Y-118623160D01*
X183026615Y-118590499D01*
X182983949Y-118535169D01*
X182975500Y-118490181D01*
X182975500Y-117435928D01*
X182950502Y-117310261D01*
X182950501Y-117310260D01*
X182950501Y-117310256D01*
X182901465Y-117191873D01*
X182890144Y-117174930D01*
X182890144Y-117174929D01*
X182830277Y-117085331D01*
X182830271Y-117085324D01*
X177142015Y-111397068D01*
X177108530Y-111335745D01*
X177108079Y-111333578D01*
X177094738Y-111266510D01*
X177094737Y-111266503D01*
X177061312Y-111185807D01*
X177034397Y-111120827D01*
X177034390Y-111120814D01*
X176946789Y-110989711D01*
X176946786Y-110989707D01*
X176938693Y-110981614D01*
X176905208Y-110920291D01*
X176910192Y-110850599D01*
X176938691Y-110806254D01*
X179558127Y-108186819D01*
X179619450Y-108153334D01*
X179645808Y-108150500D01*
X181440382Y-108150500D01*
X181507421Y-108170185D01*
X181541099Y-108204591D01*
X181542085Y-108203875D01*
X181669890Y-108379786D01*
X181809068Y-108518964D01*
X181842553Y-108580287D01*
X181837569Y-108649979D01*
X181795697Y-108705912D01*
X181786484Y-108712183D01*
X181631659Y-108807680D01*
X181631655Y-108807683D01*
X181507684Y-108931654D01*
X181415643Y-109080875D01*
X181415641Y-109080880D01*
X181360494Y-109247302D01*
X181360493Y-109247309D01*
X181350000Y-109350013D01*
X181350000Y-109750000D01*
X182420854Y-109750000D01*
X182382370Y-109816657D01*
X182350000Y-109937465D01*
X182350000Y-110062535D01*
X182382370Y-110183343D01*
X182420854Y-110250000D01*
X181350001Y-110250000D01*
X181350001Y-110649986D01*
X181360494Y-110752697D01*
X181415641Y-110919119D01*
X181415643Y-110919124D01*
X181507684Y-111068345D01*
X181631654Y-111192315D01*
X181780875Y-111284356D01*
X181780880Y-111284358D01*
X181947302Y-111339505D01*
X181947309Y-111339506D01*
X182050019Y-111349999D01*
X182574999Y-111349999D01*
X182575000Y-111349998D01*
X182575000Y-110404145D01*
X182641657Y-110442630D01*
X182762465Y-110475000D01*
X182887535Y-110475000D01*
X183008343Y-110442630D01*
X183075000Y-110404145D01*
X183075000Y-111349999D01*
X183599972Y-111349999D01*
X183599986Y-111349998D01*
X183702697Y-111339505D01*
X183869119Y-111284358D01*
X183869124Y-111284356D01*
X184018345Y-111192315D01*
X184142315Y-111068345D01*
X184234356Y-110919124D01*
X184234358Y-110919119D01*
X184289505Y-110752697D01*
X184289506Y-110752690D01*
X184299999Y-110649986D01*
X184300000Y-110649973D01*
X184300000Y-110250000D01*
X183229146Y-110250000D01*
X183267630Y-110183343D01*
X183300000Y-110062535D01*
X183300000Y-109937465D01*
X183267630Y-109816657D01*
X183229146Y-109750000D01*
X184299999Y-109750000D01*
X184299999Y-109350028D01*
X184299998Y-109350013D01*
X184289505Y-109247302D01*
X184234358Y-109080880D01*
X184234356Y-109080875D01*
X184142315Y-108931654D01*
X184018345Y-108807684D01*
X183863515Y-108712184D01*
X183816791Y-108660236D01*
X183805568Y-108591273D01*
X183833412Y-108527191D01*
X183840909Y-108518986D01*
X183980104Y-108379792D01*
X184040288Y-108296956D01*
X184093211Y-108224112D01*
X184105051Y-108207816D01*
X184201557Y-108018412D01*
X184267246Y-107816243D01*
X184300500Y-107606287D01*
X184300500Y-107393713D01*
X184267246Y-107183757D01*
X184201557Y-106981588D01*
X184105051Y-106792184D01*
X184105049Y-106792181D01*
X184105048Y-106792179D01*
X183980109Y-106620213D01*
X183829792Y-106469896D01*
X183781233Y-106434616D01*
X183665204Y-106350316D01*
X183622540Y-106294989D01*
X183616561Y-106225376D01*
X183649166Y-106163580D01*
X183665199Y-106149686D01*
X183829792Y-106030104D01*
X183980104Y-105879792D01*
X183980106Y-105879788D01*
X183980109Y-105879786D01*
X184105048Y-105707820D01*
X184105047Y-105707820D01*
X184105051Y-105707816D01*
X184201557Y-105518412D01*
X184267246Y-105316243D01*
X184269740Y-105300500D01*
X184281653Y-105225281D01*
X184291257Y-105164639D01*
X184321186Y-105101506D01*
X184380497Y-105064574D01*
X184450360Y-105065572D01*
G37*
G04 #@! TD.AperFunction*
G04 #@! TA.AperFunction,Conductor*
G36*
X129364124Y-105670185D02*
G01*
X129384766Y-105686819D01*
X131138181Y-107440234D01*
X131171666Y-107501557D01*
X131174500Y-107527915D01*
X131174500Y-111905038D01*
X131174499Y-111905053D01*
X131174499Y-111909454D01*
X131174499Y-112090546D01*
X131192056Y-112201395D01*
X131201470Y-112260829D01*
X131202829Y-112269410D01*
X131258787Y-112441636D01*
X131258788Y-112441639D01*
X131341006Y-112602997D01*
X131447440Y-112749493D01*
X131447444Y-112749497D01*
X131447447Y-112749501D01*
X131537732Y-112839786D01*
X131579829Y-112881883D01*
X131579840Y-112881893D01*
X134522989Y-115825042D01*
X134556474Y-115886365D01*
X134551490Y-115956057D01*
X134509618Y-116011990D01*
X134444154Y-116036407D01*
X134400372Y-116031700D01*
X134343419Y-116014976D01*
X134257966Y-116002690D01*
X134201000Y-115994500D01*
X131938341Y-115994500D01*
X131853164Y-116001727D01*
X131811973Y-116008769D01*
X131811963Y-116008771D01*
X131729215Y-116030252D01*
X131601691Y-116096876D01*
X131544995Y-116137717D01*
X131441415Y-116237561D01*
X131370153Y-116362552D01*
X131344538Y-116427555D01*
X131344534Y-116427565D01*
X131344532Y-116427572D01*
X131311375Y-116567568D01*
X131283111Y-116881615D01*
X131257496Y-116946620D01*
X131200803Y-116987458D01*
X131159610Y-116994500D01*
X128255942Y-116994500D01*
X128188903Y-116974815D01*
X128143148Y-116922011D01*
X128133204Y-116852853D01*
X128135607Y-116840574D01*
X128172102Y-116693826D01*
X128175000Y-116651096D01*
X128175000Y-116450000D01*
X126799000Y-116450000D01*
X126731961Y-116430315D01*
X126686206Y-116377511D01*
X126675000Y-116326000D01*
X126675000Y-116200000D01*
X126549000Y-116200000D01*
X126481961Y-116180315D01*
X126436206Y-116127511D01*
X126425000Y-116076000D01*
X126425000Y-115950000D01*
X126925000Y-115950000D01*
X128175000Y-115950000D01*
X128175000Y-115748903D01*
X128172102Y-115706175D01*
X128126168Y-115521476D01*
X128041609Y-115350977D01*
X128041607Y-115350974D01*
X127922367Y-115202633D01*
X127922366Y-115202632D01*
X127774025Y-115083392D01*
X127774022Y-115083390D01*
X127603523Y-114998831D01*
X127418824Y-114952897D01*
X127376097Y-114950000D01*
X126925000Y-114950000D01*
X126925000Y-115950000D01*
X126425000Y-115950000D01*
X126425000Y-114950000D01*
X125973903Y-114950000D01*
X125931175Y-114952897D01*
X125746480Y-114998830D01*
X125654594Y-115044401D01*
X125585789Y-115056552D01*
X125521337Y-115029575D01*
X125481701Y-114972036D01*
X125475500Y-114933312D01*
X125475500Y-111935928D01*
X125450502Y-111810262D01*
X125450501Y-111810256D01*
X125421057Y-111739171D01*
X125401466Y-111691874D01*
X125330277Y-111585331D01*
X125330272Y-111585325D01*
X125001032Y-111256086D01*
X124967547Y-111194763D01*
X124966240Y-111149006D01*
X124970704Y-111120827D01*
X124975500Y-111090546D01*
X124975500Y-108885258D01*
X126574500Y-108885258D01*
X126574500Y-109114741D01*
X126586962Y-109209394D01*
X126604452Y-109342238D01*
X126620591Y-109402469D01*
X126663842Y-109563887D01*
X126751650Y-109775876D01*
X126751657Y-109775890D01*
X126778839Y-109822970D01*
X126861040Y-109965348D01*
X126866392Y-109974617D01*
X127006081Y-110156661D01*
X127006089Y-110156670D01*
X127168330Y-110318911D01*
X127168338Y-110318918D01*
X127350382Y-110458607D01*
X127350385Y-110458608D01*
X127350388Y-110458611D01*
X127549112Y-110573344D01*
X127549117Y-110573346D01*
X127549123Y-110573349D01*
X127626620Y-110605449D01*
X127761113Y-110661158D01*
X127982762Y-110720548D01*
X128199312Y-110749057D01*
X128209688Y-110750424D01*
X128210266Y-110750500D01*
X128210273Y-110750500D01*
X128439727Y-110750500D01*
X128439734Y-110750500D01*
X128667238Y-110720548D01*
X128888887Y-110661158D01*
X129100888Y-110573344D01*
X129299612Y-110458611D01*
X129481661Y-110318919D01*
X129481665Y-110318914D01*
X129481670Y-110318911D01*
X129643911Y-110156670D01*
X129643914Y-110156665D01*
X129643919Y-110156661D01*
X129783611Y-109974612D01*
X129898344Y-109775888D01*
X129986158Y-109563887D01*
X130045548Y-109342238D01*
X130075500Y-109114734D01*
X130075500Y-108885266D01*
X130045548Y-108657762D01*
X129986158Y-108436113D01*
X129913775Y-108261366D01*
X129898349Y-108224123D01*
X129898346Y-108224117D01*
X129898344Y-108224112D01*
X129783611Y-108025388D01*
X129783608Y-108025385D01*
X129783607Y-108025382D01*
X129670677Y-107878210D01*
X129643919Y-107843339D01*
X129643918Y-107843338D01*
X129643911Y-107843330D01*
X129481670Y-107681089D01*
X129481661Y-107681081D01*
X129299617Y-107541392D01*
X129100890Y-107426657D01*
X129100876Y-107426650D01*
X128888887Y-107338842D01*
X128847300Y-107327699D01*
X128667238Y-107279452D01*
X128629215Y-107274446D01*
X128439741Y-107249500D01*
X128439734Y-107249500D01*
X128210266Y-107249500D01*
X128210258Y-107249500D01*
X127993715Y-107278009D01*
X127982762Y-107279452D01*
X127926788Y-107294450D01*
X127761112Y-107338842D01*
X127549123Y-107426650D01*
X127549109Y-107426657D01*
X127350382Y-107541392D01*
X127168338Y-107681081D01*
X127006081Y-107843338D01*
X126866392Y-108025382D01*
X126751657Y-108224109D01*
X126751650Y-108224123D01*
X126663842Y-108436112D01*
X126641737Y-108518612D01*
X126605179Y-108655051D01*
X126604453Y-108657759D01*
X126604451Y-108657770D01*
X126574500Y-108885258D01*
X124975500Y-108885258D01*
X124975500Y-107527915D01*
X124995185Y-107460876D01*
X125011819Y-107440234D01*
X126765234Y-105686819D01*
X126826557Y-105653334D01*
X126852915Y-105650500D01*
X129297085Y-105650500D01*
X129364124Y-105670185D01*
G37*
G04 #@! TD.AperFunction*
G04 #@! TA.AperFunction,Conductor*
G36*
X137249450Y-100598008D02*
G01*
X137305383Y-100639880D01*
X137329800Y-100705344D01*
X137325193Y-100748784D01*
X137287359Y-100879008D01*
X137284503Y-100915302D01*
X137284503Y-101331948D01*
X137264818Y-101398987D01*
X137212014Y-101444742D01*
X137173757Y-101455238D01*
X137167515Y-101455908D01*
X137032670Y-101506202D01*
X137032663Y-101506206D01*
X136917454Y-101592452D01*
X136917451Y-101592455D01*
X136831205Y-101707664D01*
X136831201Y-101707671D01*
X136780907Y-101842517D01*
X136774500Y-101902116D01*
X136774499Y-101902135D01*
X136774499Y-103097870D01*
X136774500Y-103097876D01*
X136780907Y-103157483D01*
X136827492Y-103282383D01*
X136832476Y-103352075D01*
X136827492Y-103369049D01*
X136781403Y-103492620D01*
X136781401Y-103492627D01*
X136775000Y-103552155D01*
X136775000Y-103900000D01*
X137651000Y-103900000D01*
X137718039Y-103919685D01*
X137763794Y-103972489D01*
X137775000Y-104024000D01*
X137775000Y-104276000D01*
X137755315Y-104343039D01*
X137702511Y-104388794D01*
X137651000Y-104400000D01*
X136775000Y-104400000D01*
X136775000Y-104747844D01*
X136781401Y-104807372D01*
X136781403Y-104807379D01*
X136831645Y-104942086D01*
X136831649Y-104942093D01*
X136917809Y-105057187D01*
X136917812Y-105057190D01*
X137032906Y-105143350D01*
X137032913Y-105143354D01*
X137167620Y-105193596D01*
X137167627Y-105193598D01*
X137189377Y-105195937D01*
X137253928Y-105222675D01*
X137293776Y-105280068D01*
X137296269Y-105349893D01*
X137295198Y-105353818D01*
X137287858Y-105379081D01*
X137287857Y-105379087D01*
X137286212Y-105399999D01*
X137286213Y-105400000D01*
X137941003Y-105400000D01*
X138008042Y-105419685D01*
X138053797Y-105472489D01*
X138065003Y-105524000D01*
X138065003Y-105776000D01*
X138045318Y-105843039D01*
X137992514Y-105888794D01*
X137941003Y-105900000D01*
X137286213Y-105900000D01*
X137287857Y-105920910D01*
X137329329Y-106063658D01*
X137329129Y-106133527D01*
X137291186Y-106192197D01*
X137244847Y-106217328D01*
X137173809Y-106237966D01*
X137173804Y-106237968D01*
X137034625Y-106320278D01*
X137034616Y-106320285D01*
X136920285Y-106434616D01*
X136920278Y-106434625D01*
X136837968Y-106573804D01*
X136837966Y-106573809D01*
X136792855Y-106729081D01*
X136792854Y-106729087D01*
X136791209Y-106749999D01*
X136791210Y-106750000D01*
X137446000Y-106750000D01*
X137513039Y-106769685D01*
X137558794Y-106822489D01*
X137570000Y-106874000D01*
X137570000Y-107000000D01*
X137625500Y-107000000D01*
X137692539Y-107019685D01*
X137738294Y-107072489D01*
X137749500Y-107124000D01*
X137749500Y-107234697D01*
X137752356Y-107270991D01*
X137752357Y-107270997D01*
X137797503Y-107426389D01*
X137797505Y-107426393D01*
X137797506Y-107426395D01*
X137802732Y-107435233D01*
X137820000Y-107498352D01*
X137820000Y-107804503D01*
X137966194Y-107762032D01*
X137986384Y-107750091D01*
X138054108Y-107732906D01*
X138112629Y-107750089D01*
X138133605Y-107762494D01*
X138173773Y-107774164D01*
X138289002Y-107807642D01*
X138289005Y-107807642D01*
X138289007Y-107807643D01*
X138325310Y-107810500D01*
X138325318Y-107810500D01*
X138734682Y-107810500D01*
X138734690Y-107810500D01*
X138770993Y-107807643D01*
X138770995Y-107807642D01*
X138770997Y-107807642D01*
X138811975Y-107795736D01*
X138926395Y-107762494D01*
X139065687Y-107680117D01*
X139065692Y-107680111D01*
X139070324Y-107676520D01*
X139135361Y-107650986D01*
X139146324Y-107650500D01*
X140389071Y-107650500D01*
X140473615Y-107633682D01*
X140514744Y-107625501D01*
X140633127Y-107576465D01*
X140739669Y-107505277D01*
X141012819Y-107232127D01*
X141074142Y-107198642D01*
X141143833Y-107203626D01*
X141199767Y-107245497D01*
X141224184Y-107310962D01*
X141224500Y-107319808D01*
X141224500Y-108098125D01*
X141215855Y-108127565D01*
X141209332Y-108157552D01*
X141205577Y-108162567D01*
X141204815Y-108165164D01*
X141188181Y-108185806D01*
X141187327Y-108186660D01*
X141126004Y-108220145D01*
X141056312Y-108215161D01*
X141011965Y-108186660D01*
X141002732Y-108177427D01*
X141002728Y-108177424D01*
X140858492Y-108088457D01*
X140858481Y-108088452D01*
X140697606Y-108035144D01*
X140598322Y-108025000D01*
X140575000Y-108025000D01*
X140575000Y-108876000D01*
X140555315Y-108943039D01*
X140502511Y-108988794D01*
X140451000Y-109000000D01*
X140325000Y-109000000D01*
X140325000Y-109126000D01*
X140305315Y-109193039D01*
X140252511Y-109238794D01*
X140201000Y-109250000D01*
X139375001Y-109250000D01*
X139375001Y-109298322D01*
X139385144Y-109397607D01*
X139438452Y-109558481D01*
X139438457Y-109558492D01*
X139527424Y-109702728D01*
X139527427Y-109702732D01*
X139647267Y-109822572D01*
X139647271Y-109822575D01*
X139791507Y-109911542D01*
X139798059Y-109914597D01*
X139797338Y-109916142D01*
X139847396Y-109950793D01*
X139874226Y-110015306D01*
X139861918Y-110084083D01*
X139838638Y-110116416D01*
X139809582Y-110145472D01*
X139764315Y-110213218D01*
X139764316Y-110213219D01*
X139738394Y-110252014D01*
X139689359Y-110370395D01*
X139689357Y-110370401D01*
X139664360Y-110496068D01*
X139664360Y-110553715D01*
X139655715Y-110583155D01*
X139649192Y-110613142D01*
X139645437Y-110618157D01*
X139644675Y-110620754D01*
X139628041Y-110641396D01*
X139627187Y-110642250D01*
X139565864Y-110675735D01*
X139496172Y-110670751D01*
X139451825Y-110642250D01*
X139442592Y-110633017D01*
X139442588Y-110633014D01*
X139298352Y-110544047D01*
X139298341Y-110544042D01*
X139137466Y-110490734D01*
X139038182Y-110480590D01*
X139014860Y-110480590D01*
X139014860Y-111946764D01*
X139022166Y-111960144D01*
X139025000Y-111986502D01*
X139025000Y-112906000D01*
X139005315Y-112973039D01*
X138952511Y-113018794D01*
X138901000Y-113030000D01*
X138775000Y-113030000D01*
X138775000Y-113156000D01*
X138755315Y-113223039D01*
X138702511Y-113268794D01*
X138651000Y-113280000D01*
X137825001Y-113280000D01*
X137825001Y-113328322D01*
X137835144Y-113427607D01*
X137871226Y-113536496D01*
X137873628Y-113606325D01*
X137837896Y-113666366D01*
X137775375Y-113697559D01*
X137753520Y-113699500D01*
X136995808Y-113699500D01*
X136928769Y-113679815D01*
X136908127Y-113663181D01*
X136011819Y-112766873D01*
X135978334Y-112705550D01*
X135975500Y-112679192D01*
X135975500Y-111753912D01*
X137814861Y-111753912D01*
X137825004Y-111853197D01*
X137878312Y-112014071D01*
X137878317Y-112014082D01*
X137967284Y-112158318D01*
X137967287Y-112158322D01*
X137969519Y-112160554D01*
X137970561Y-112162462D01*
X137971765Y-112163985D01*
X137971504Y-112164190D01*
X138003004Y-112221877D01*
X137998020Y-112291569D01*
X137979110Y-112325138D01*
X137977428Y-112327265D01*
X137888457Y-112471507D01*
X137888452Y-112471518D01*
X137835144Y-112632393D01*
X137825000Y-112731677D01*
X137825000Y-112780000D01*
X138525000Y-112780000D01*
X138525000Y-112538825D01*
X138517694Y-112525446D01*
X138514860Y-112499088D01*
X138514860Y-111705590D01*
X137814861Y-111705590D01*
X137814861Y-111753912D01*
X135975500Y-111753912D01*
X135975500Y-111157267D01*
X137814860Y-111157267D01*
X137814860Y-111205590D01*
X138514860Y-111205590D01*
X138514860Y-110480589D01*
X138491553Y-110480590D01*
X138491534Y-110480591D01*
X138392252Y-110490734D01*
X138231378Y-110544042D01*
X138231367Y-110544047D01*
X138087131Y-110633014D01*
X138087127Y-110633017D01*
X137967287Y-110752857D01*
X137967284Y-110752861D01*
X137878317Y-110897097D01*
X137878312Y-110897108D01*
X137825004Y-111057983D01*
X137814860Y-111157267D01*
X135975500Y-111157267D01*
X135975500Y-108701677D01*
X139375000Y-108701677D01*
X139375000Y-108750000D01*
X140075000Y-108750000D01*
X140075000Y-108024999D01*
X140051693Y-108025000D01*
X140051674Y-108025001D01*
X139952392Y-108035144D01*
X139791518Y-108088452D01*
X139791507Y-108088457D01*
X139647271Y-108177424D01*
X139647267Y-108177427D01*
X139527427Y-108297267D01*
X139527424Y-108297271D01*
X139438457Y-108441507D01*
X139438452Y-108441518D01*
X139385144Y-108602393D01*
X139375000Y-108701677D01*
X135975500Y-108701677D01*
X135975500Y-107250000D01*
X136791210Y-107250000D01*
X136792854Y-107270910D01*
X136837968Y-107426195D01*
X136920278Y-107565374D01*
X136920285Y-107565383D01*
X137034616Y-107679714D01*
X137034625Y-107679721D01*
X137173804Y-107762031D01*
X137320000Y-107804504D01*
X137320000Y-107250000D01*
X136791210Y-107250000D01*
X135975500Y-107250000D01*
X135975500Y-101820807D01*
X135995185Y-101753768D01*
X136011819Y-101733126D01*
X136562192Y-101182753D01*
X137118437Y-100626507D01*
X137179758Y-100593024D01*
X137249450Y-100598008D01*
G37*
G04 #@! TD.AperFunction*
G04 #@! TA.AperFunction,Conductor*
G36*
X156571231Y-97170185D02*
G01*
X156591873Y-97186819D01*
X163910325Y-104505272D01*
X163910332Y-104505278D01*
X163989427Y-104558127D01*
X163989428Y-104558127D01*
X164016873Y-104576465D01*
X164135256Y-104625501D01*
X164135260Y-104625501D01*
X164135261Y-104625502D01*
X164260928Y-104650500D01*
X164260931Y-104650500D01*
X168504192Y-104650500D01*
X168571231Y-104670185D01*
X168591873Y-104686819D01*
X172507984Y-108602930D01*
X172541469Y-108664253D01*
X172541920Y-108666420D01*
X172555261Y-108733489D01*
X172555264Y-108733501D01*
X172615602Y-108879172D01*
X172615609Y-108879185D01*
X172703210Y-109010288D01*
X172703213Y-109010292D01*
X172814707Y-109121786D01*
X172814713Y-109121791D01*
X172845807Y-109142568D01*
X172890611Y-109196180D01*
X172899318Y-109265506D01*
X172869163Y-109328533D01*
X172864596Y-109333350D01*
X169224036Y-112973909D01*
X169162713Y-113007394D01*
X169093021Y-113002410D01*
X169037088Y-112960538D01*
X169033252Y-112955118D01*
X169032033Y-112953294D01*
X169012476Y-112924024D01*
X169012474Y-112924021D01*
X168900979Y-112812526D01*
X168900975Y-112812523D01*
X168769872Y-112724922D01*
X168769859Y-112724915D01*
X168624188Y-112664577D01*
X168624176Y-112664574D01*
X168469532Y-112633813D01*
X168469529Y-112633813D01*
X168430121Y-112633813D01*
X168363082Y-112614128D01*
X168342440Y-112597494D01*
X164713835Y-108968888D01*
X164630205Y-108885258D01*
X166574500Y-108885258D01*
X166574500Y-109114741D01*
X166586962Y-109209394D01*
X166604452Y-109342238D01*
X166620591Y-109402469D01*
X166663842Y-109563887D01*
X166751650Y-109775876D01*
X166751657Y-109775890D01*
X166778839Y-109822970D01*
X166861040Y-109965348D01*
X166866392Y-109974617D01*
X167006081Y-110156661D01*
X167006089Y-110156670D01*
X167168330Y-110318911D01*
X167168338Y-110318918D01*
X167350382Y-110458607D01*
X167350385Y-110458608D01*
X167350388Y-110458611D01*
X167549112Y-110573344D01*
X167549117Y-110573346D01*
X167549123Y-110573349D01*
X167626620Y-110605449D01*
X167761113Y-110661158D01*
X167982762Y-110720548D01*
X168199312Y-110749057D01*
X168209688Y-110750424D01*
X168210266Y-110750500D01*
X168210273Y-110750500D01*
X168439727Y-110750500D01*
X168439734Y-110750500D01*
X168667238Y-110720548D01*
X168888887Y-110661158D01*
X169100888Y-110573344D01*
X169299612Y-110458611D01*
X169481661Y-110318919D01*
X169481665Y-110318914D01*
X169481670Y-110318911D01*
X169643911Y-110156670D01*
X169643914Y-110156665D01*
X169643919Y-110156661D01*
X169783611Y-109974612D01*
X169898344Y-109775888D01*
X169986158Y-109563887D01*
X170045548Y-109342238D01*
X170075500Y-109114734D01*
X170075500Y-108885266D01*
X170045548Y-108657762D01*
X169986158Y-108436113D01*
X169913775Y-108261366D01*
X169898349Y-108224123D01*
X169898346Y-108224117D01*
X169898344Y-108224112D01*
X169783611Y-108025388D01*
X169783608Y-108025385D01*
X169783607Y-108025382D01*
X169670677Y-107878210D01*
X169643919Y-107843339D01*
X169643918Y-107843338D01*
X169643911Y-107843330D01*
X169481670Y-107681089D01*
X169481661Y-107681081D01*
X169299617Y-107541392D01*
X169100890Y-107426657D01*
X169100876Y-107426650D01*
X168888887Y-107338842D01*
X168847300Y-107327699D01*
X168667238Y-107279452D01*
X168629215Y-107274446D01*
X168439741Y-107249500D01*
X168439734Y-107249500D01*
X168210266Y-107249500D01*
X168210258Y-107249500D01*
X167993715Y-107278009D01*
X167982762Y-107279452D01*
X167926788Y-107294450D01*
X167761112Y-107338842D01*
X167549123Y-107426650D01*
X167549109Y-107426657D01*
X167350382Y-107541392D01*
X167168338Y-107681081D01*
X167006081Y-107843338D01*
X166866392Y-108025382D01*
X166751657Y-108224109D01*
X166751650Y-108224123D01*
X166663842Y-108436112D01*
X166641737Y-108518612D01*
X166605179Y-108655051D01*
X166604453Y-108657759D01*
X166604451Y-108657770D01*
X166574500Y-108885258D01*
X164630205Y-108885258D01*
X163239673Y-107494726D01*
X163207141Y-107472989D01*
X163133127Y-107423535D01*
X163125039Y-107420185D01*
X163014744Y-107374499D01*
X163014741Y-107374498D01*
X163007932Y-107373144D01*
X163001122Y-107371789D01*
X163001120Y-107371788D01*
X163001120Y-107371789D01*
X162889071Y-107349500D01*
X162889069Y-107349500D01*
X160320808Y-107349500D01*
X160253769Y-107329815D01*
X160233127Y-107313181D01*
X158186819Y-105266873D01*
X158153334Y-105205550D01*
X158150500Y-105179192D01*
X158150500Y-104397757D01*
X158170185Y-104330718D01*
X158222989Y-104284963D01*
X158292147Y-104275019D01*
X158298692Y-104276140D01*
X158421155Y-104300500D01*
X158421158Y-104300500D01*
X158578844Y-104300500D01*
X158578845Y-104300499D01*
X158733497Y-104269737D01*
X158879179Y-104209394D01*
X159010289Y-104121789D01*
X159121789Y-104010289D01*
X159209394Y-103879179D01*
X159216212Y-103862720D01*
X159254393Y-103770540D01*
X159269737Y-103733497D01*
X159300500Y-103578842D01*
X159300500Y-103421158D01*
X159300500Y-103421155D01*
X159300499Y-103421153D01*
X159292272Y-103379792D01*
X159269737Y-103266503D01*
X159224580Y-103157483D01*
X159209397Y-103120827D01*
X159209390Y-103120814D01*
X159121789Y-102989711D01*
X159121786Y-102989707D01*
X159010292Y-102878213D01*
X159010288Y-102878210D01*
X158879185Y-102790609D01*
X158879172Y-102790602D01*
X158733501Y-102730264D01*
X158733489Y-102730261D01*
X158666420Y-102716920D01*
X158604509Y-102684535D01*
X158602930Y-102682984D01*
X157849433Y-101929487D01*
X157815948Y-101868164D01*
X157814351Y-101824333D01*
X157816104Y-101812014D01*
X157599624Y-101595534D01*
X157567200Y-101538687D01*
X157564648Y-101528749D01*
X157564647Y-101528744D01*
X157521083Y-101449501D01*
X157486688Y-101386935D01*
X157486687Y-101386933D01*
X157463037Y-101359243D01*
X157206480Y-101102686D01*
X157206478Y-101102683D01*
X157170161Y-101066366D01*
X157777564Y-101066366D01*
X157777564Y-101066367D01*
X158169658Y-101458461D01*
X158169659Y-101458460D01*
X158242999Y-101325056D01*
X158243002Y-101325048D01*
X158283213Y-101168436D01*
X158283214Y-101168431D01*
X158283214Y-101006733D01*
X158283213Y-101006725D01*
X158243002Y-100850114D01*
X158242999Y-100850104D01*
X158165103Y-100708411D01*
X158151474Y-100692454D01*
X157777564Y-101066366D01*
X157170161Y-101066366D01*
X157131150Y-101027355D01*
X157131133Y-101027339D01*
X157103446Y-101003692D01*
X157103442Y-101003689D01*
X156961634Y-100925730D01*
X156951682Y-100923175D01*
X156894843Y-100890753D01*
X156678361Y-100674271D01*
X156666041Y-100676025D01*
X156596897Y-100665982D01*
X156560891Y-100640945D01*
X156414669Y-100494723D01*
X156414668Y-100494722D01*
X156414667Y-100494721D01*
X156374284Y-100467738D01*
X156374231Y-100467704D01*
X156308127Y-100423535D01*
X156189744Y-100374499D01*
X156189738Y-100374497D01*
X156064071Y-100349500D01*
X156064069Y-100349500D01*
X153099500Y-100349500D01*
X153032461Y-100329815D01*
X153024578Y-100320717D01*
X157031916Y-100320717D01*
X157031916Y-100320718D01*
X157424009Y-100712813D01*
X157424010Y-100712813D01*
X157797920Y-100338902D01*
X157797920Y-100338900D01*
X157781972Y-100325278D01*
X157781968Y-100325276D01*
X157640273Y-100247378D01*
X157640263Y-100247375D01*
X157483652Y-100207164D01*
X157321941Y-100207164D01*
X157165322Y-100247377D01*
X157031916Y-100320717D01*
X153024578Y-100320717D01*
X152986706Y-100277011D01*
X152975500Y-100225500D01*
X152975500Y-99881547D01*
X152984134Y-99852141D01*
X152990633Y-99822184D01*
X152994417Y-99817122D01*
X152995185Y-99814508D01*
X153011762Y-99793922D01*
X153012624Y-99793060D01*
X153073924Y-99759542D01*
X153143618Y-99764486D01*
X153188034Y-99793012D01*
X153197267Y-99802245D01*
X153197271Y-99802248D01*
X153341507Y-99891215D01*
X153341518Y-99891220D01*
X153502393Y-99944528D01*
X153601683Y-99954672D01*
X153625000Y-99954671D01*
X153625000Y-99103673D01*
X153644685Y-99036634D01*
X153697489Y-98990879D01*
X153749000Y-98979673D01*
X154001000Y-98979673D01*
X154068039Y-98999358D01*
X154113794Y-99052162D01*
X154125000Y-99103673D01*
X154125000Y-99954672D01*
X154148308Y-99954672D01*
X154148322Y-99954671D01*
X154247607Y-99944528D01*
X154408481Y-99891220D01*
X154408492Y-99891215D01*
X154552730Y-99802247D01*
X154579743Y-99775234D01*
X154641066Y-99741748D01*
X154710758Y-99746732D01*
X154714821Y-99748330D01*
X154766503Y-99769737D01*
X154904915Y-99797269D01*
X154921153Y-99800499D01*
X154921156Y-99800500D01*
X154921158Y-99800500D01*
X155078844Y-99800500D01*
X155078845Y-99800499D01*
X155233497Y-99769737D01*
X155379179Y-99709394D01*
X155431110Y-99674694D01*
X155497785Y-99653816D01*
X155565165Y-99672300D01*
X155568863Y-99674676D01*
X155620821Y-99709394D01*
X155620823Y-99709395D01*
X155620825Y-99709396D01*
X155714877Y-99748353D01*
X155766503Y-99769737D01*
X155904915Y-99797269D01*
X155921153Y-99800499D01*
X155921156Y-99800500D01*
X155921158Y-99800500D01*
X156078844Y-99800500D01*
X156078845Y-99800499D01*
X156233497Y-99769737D01*
X156379179Y-99709394D01*
X156510289Y-99621789D01*
X156621789Y-99510289D01*
X156709394Y-99379179D01*
X156769737Y-99233497D01*
X156800500Y-99078842D01*
X156800500Y-98921158D01*
X156800500Y-98921155D01*
X156800499Y-98921153D01*
X156794079Y-98888877D01*
X156769737Y-98766503D01*
X156762808Y-98749775D01*
X156709397Y-98620827D01*
X156709390Y-98620814D01*
X156621789Y-98489711D01*
X156621786Y-98489707D01*
X156510292Y-98378213D01*
X156510288Y-98378210D01*
X156379185Y-98290609D01*
X156379172Y-98290602D01*
X156233499Y-98230263D01*
X156233491Y-98230261D01*
X156166418Y-98216919D01*
X156104507Y-98184534D01*
X156102929Y-98182983D01*
X155282127Y-97362181D01*
X155248642Y-97300858D01*
X155253626Y-97231166D01*
X155295498Y-97175233D01*
X155360962Y-97150816D01*
X155369808Y-97150500D01*
X156504192Y-97150500D01*
X156571231Y-97170185D01*
G37*
G04 #@! TD.AperFunction*
G04 #@! TA.AperFunction,Conductor*
G36*
X187767539Y-84520185D02*
G01*
X187813294Y-84572989D01*
X187824500Y-84624500D01*
X187824500Y-106280192D01*
X187804815Y-106347231D01*
X187752011Y-106392986D01*
X187682853Y-106402930D01*
X187619297Y-106373905D01*
X187612819Y-106367873D01*
X184270443Y-103025497D01*
X184236958Y-102964174D01*
X184240193Y-102899498D01*
X184267246Y-102816243D01*
X184300500Y-102606287D01*
X184300500Y-102393713D01*
X184267246Y-102183757D01*
X184201557Y-101981588D01*
X184105051Y-101792184D01*
X184105049Y-101792181D01*
X184105048Y-101792179D01*
X183980109Y-101620213D01*
X183829786Y-101469890D01*
X183657820Y-101344951D01*
X183468414Y-101248444D01*
X183468413Y-101248443D01*
X183468412Y-101248443D01*
X183266243Y-101182754D01*
X183266241Y-101182753D01*
X183266240Y-101182753D01*
X183104957Y-101157208D01*
X183056287Y-101149500D01*
X182593713Y-101149500D01*
X182545042Y-101157208D01*
X182383760Y-101182753D01*
X182181585Y-101248444D01*
X181992179Y-101344951D01*
X181820213Y-101469890D01*
X181669890Y-101620213D01*
X181544951Y-101792179D01*
X181448444Y-101981585D01*
X181448443Y-101981587D01*
X181448443Y-101981588D01*
X181421643Y-102064069D01*
X181382753Y-102183760D01*
X181349500Y-102393713D01*
X181349500Y-102606286D01*
X181382753Y-102816239D01*
X181382753Y-102816241D01*
X181382754Y-102816243D01*
X181448147Y-103017502D01*
X181448444Y-103018414D01*
X181544951Y-103207820D01*
X181669890Y-103379786D01*
X181820209Y-103530105D01*
X181820214Y-103530109D01*
X181984793Y-103649682D01*
X182027459Y-103705011D01*
X182033438Y-103774625D01*
X182000833Y-103836420D01*
X181984793Y-103850318D01*
X181820214Y-103969890D01*
X181820209Y-103969894D01*
X181669890Y-104120213D01*
X181542085Y-104296125D01*
X181540740Y-104295148D01*
X181494295Y-104337166D01*
X181440382Y-104349500D01*
X180760929Y-104349500D01*
X180635260Y-104374497D01*
X180635258Y-104374498D01*
X180635256Y-104374499D01*
X180623958Y-104379179D01*
X180623956Y-104379179D01*
X180623955Y-104379180D01*
X180516881Y-104423530D01*
X180516863Y-104423540D01*
X180410332Y-104494721D01*
X180410325Y-104494727D01*
X176677172Y-108227881D01*
X176615849Y-108261366D01*
X176546157Y-108256382D01*
X176490224Y-108214510D01*
X176465807Y-108149046D01*
X176465491Y-108140200D01*
X176465491Y-103098399D01*
X176485176Y-103031360D01*
X176537980Y-102985605D01*
X176598484Y-102975644D01*
X176598526Y-102974839D01*
X176601687Y-102974999D01*
X177125000Y-102974999D01*
X177148308Y-102974999D01*
X177148322Y-102974998D01*
X177247607Y-102964855D01*
X177408481Y-102911547D01*
X177408492Y-102911542D01*
X177552728Y-102822575D01*
X177552732Y-102822572D01*
X177672572Y-102702732D01*
X177672575Y-102702728D01*
X177761542Y-102558492D01*
X177761547Y-102558481D01*
X177814855Y-102397606D01*
X177824999Y-102298322D01*
X177825000Y-102298309D01*
X177825000Y-102250000D01*
X177125000Y-102250000D01*
X177125000Y-102974999D01*
X176601687Y-102974999D01*
X176625000Y-102974998D01*
X176625000Y-101504338D01*
X176617825Y-101491199D01*
X176614991Y-101464841D01*
X176614991Y-100916873D01*
X177114991Y-100916873D01*
X177122166Y-100930013D01*
X177125000Y-100956371D01*
X177125000Y-101750000D01*
X177824999Y-101750000D01*
X177824999Y-101701692D01*
X177824998Y-101701677D01*
X177814855Y-101602392D01*
X177761547Y-101441518D01*
X177761542Y-101441507D01*
X177672575Y-101297271D01*
X177672572Y-101297267D01*
X177668480Y-101293175D01*
X177634995Y-101231852D01*
X177639979Y-101162160D01*
X177658898Y-101128579D01*
X177662568Y-101123937D01*
X177751533Y-100979704D01*
X177751538Y-100979693D01*
X177804846Y-100818818D01*
X177814990Y-100719534D01*
X177814991Y-100719521D01*
X177814991Y-100671212D01*
X177114991Y-100671212D01*
X177114991Y-100916873D01*
X176614991Y-100916873D01*
X176614991Y-100545212D01*
X176634676Y-100478173D01*
X176687480Y-100432418D01*
X176738991Y-100421212D01*
X176864991Y-100421212D01*
X176864991Y-100295212D01*
X176884676Y-100228173D01*
X176937480Y-100182418D01*
X176988991Y-100171212D01*
X177814990Y-100171212D01*
X177814990Y-100122904D01*
X177814989Y-100122889D01*
X177804846Y-100023604D01*
X177751538Y-99862730D01*
X177751533Y-99862719D01*
X177662566Y-99718483D01*
X177662563Y-99718479D01*
X177542723Y-99598639D01*
X177542719Y-99598636D01*
X177398483Y-99509669D01*
X177398472Y-99509664D01*
X177237597Y-99456356D01*
X177141851Y-99446574D01*
X177077159Y-99420178D01*
X177037008Y-99362997D01*
X177034145Y-99293186D01*
X177055188Y-99248904D01*
X177093796Y-99197331D01*
X177144091Y-99062483D01*
X177150500Y-99002873D01*
X177150499Y-98559499D01*
X177170183Y-98492461D01*
X177222987Y-98446706D01*
X177274499Y-98435500D01*
X177748543Y-98435500D01*
X177788383Y-98427574D01*
X177853264Y-98414669D01*
X177941836Y-98397051D01*
X178011978Y-98367997D01*
X178123914Y-98321632D01*
X178287782Y-98212139D01*
X178427139Y-98072782D01*
X178427139Y-98072780D01*
X178437347Y-98062573D01*
X178437348Y-98062570D01*
X184602140Y-91897781D01*
X184629419Y-91856953D01*
X184711632Y-91733914D01*
X184787051Y-91551835D01*
X184799632Y-91488582D01*
X184825500Y-91358543D01*
X184825500Y-90953957D01*
X184845185Y-90886918D01*
X184884407Y-90848416D01*
X184893656Y-90842712D01*
X185017712Y-90718656D01*
X185109814Y-90569334D01*
X185164999Y-90402797D01*
X185175500Y-90300009D01*
X185175499Y-88699992D01*
X185173546Y-88680878D01*
X185164999Y-88597203D01*
X185164998Y-88597200D01*
X185158281Y-88576930D01*
X185109814Y-88430666D01*
X185017712Y-88281344D01*
X184893656Y-88157288D01*
X184744334Y-88065186D01*
X184577797Y-88010001D01*
X184577795Y-88010000D01*
X184475010Y-87999500D01*
X183174998Y-87999500D01*
X183174981Y-87999501D01*
X183072203Y-88010000D01*
X183072200Y-88010001D01*
X182905668Y-88065185D01*
X182905663Y-88065187D01*
X182756342Y-88157289D01*
X182632289Y-88281342D01*
X182536821Y-88436121D01*
X182484873Y-88482845D01*
X182415910Y-88494068D01*
X182351828Y-88466224D01*
X182343601Y-88458705D01*
X182204786Y-88319890D01*
X182032820Y-88194951D01*
X181843414Y-88098444D01*
X181843413Y-88098443D01*
X181843412Y-88098443D01*
X181641243Y-88032754D01*
X181641241Y-88032753D01*
X181641240Y-88032753D01*
X181469169Y-88005500D01*
X181431287Y-87999500D01*
X181218713Y-87999500D01*
X181180831Y-88005500D01*
X181008760Y-88032753D01*
X180806585Y-88098444D01*
X180617179Y-88194951D01*
X180445213Y-88319890D01*
X180294890Y-88470213D01*
X180169951Y-88642179D01*
X180073444Y-88831585D01*
X180073443Y-88831587D01*
X180073443Y-88831588D01*
X180065484Y-88856084D01*
X180007753Y-89033760D01*
X179974500Y-89243713D01*
X179974500Y-89384218D01*
X179954815Y-89451257D01*
X179938181Y-89471899D01*
X175551899Y-93858181D01*
X175490576Y-93891666D01*
X175464218Y-93894500D01*
X175451457Y-93894500D01*
X175258170Y-93932947D01*
X175258160Y-93932950D01*
X175076092Y-94008364D01*
X175076079Y-94008371D01*
X174907154Y-94121245D01*
X174906133Y-94119717D01*
X174891209Y-94126056D01*
X174870326Y-94139477D01*
X174854124Y-94141806D01*
X174849746Y-94143666D01*
X174835391Y-94144500D01*
X174682813Y-94144500D01*
X174615774Y-94124815D01*
X174583547Y-94094811D01*
X174507190Y-93992812D01*
X174507187Y-93992809D01*
X174392093Y-93906649D01*
X174392086Y-93906645D01*
X174257379Y-93856403D01*
X174257372Y-93856401D01*
X174197844Y-93850000D01*
X172925000Y-93850000D01*
X172925000Y-94746446D01*
X174093554Y-95915000D01*
X177150000Y-95915000D01*
X177150000Y-95867172D01*
X177149999Y-95867155D01*
X177143598Y-95807627D01*
X177143596Y-95807620D01*
X177093354Y-95672913D01*
X177093352Y-95672910D01*
X177042311Y-95604727D01*
X177017894Y-95539262D01*
X177032746Y-95470989D01*
X177042308Y-95456108D01*
X177093796Y-95387331D01*
X177144091Y-95252483D01*
X177147405Y-95221658D01*
X177150499Y-95192886D01*
X177150499Y-95192882D01*
X177150500Y-95192873D01*
X177150499Y-95140781D01*
X177170182Y-95073743D01*
X177186813Y-95053105D01*
X181203101Y-91036819D01*
X181264424Y-91003334D01*
X181290782Y-91000500D01*
X181431286Y-91000500D01*
X181431287Y-91000500D01*
X181641243Y-90967246D01*
X181843412Y-90901557D01*
X182032816Y-90805051D01*
X182204792Y-90680104D01*
X182343604Y-90541291D01*
X182404923Y-90507809D01*
X182474615Y-90512793D01*
X182530549Y-90554664D01*
X182536821Y-90563878D01*
X182540185Y-90569333D01*
X182540186Y-90569334D01*
X182632288Y-90718656D01*
X182675813Y-90762181D01*
X182704174Y-90790542D01*
X182737658Y-90851866D01*
X182732673Y-90921557D01*
X182704173Y-90965904D01*
X177290220Y-96379858D01*
X177228897Y-96413343D01*
X177201362Y-96411373D01*
X177201362Y-96415000D01*
X174063553Y-96415000D01*
X173678554Y-96800000D01*
X173913974Y-97035420D01*
X173947459Y-97096743D01*
X173949450Y-97133806D01*
X173949500Y-97133806D01*
X173949500Y-97133811D01*
X173949678Y-97133821D01*
X173949564Y-97135941D01*
X173949585Y-97136329D01*
X173949501Y-97137105D01*
X173949500Y-97137136D01*
X173949500Y-97732870D01*
X173949501Y-97732884D01*
X173952495Y-97760735D01*
X173940087Y-97829494D01*
X173916886Y-97861666D01*
X173501777Y-98276777D01*
X172925000Y-98853553D01*
X172925000Y-99750000D01*
X174163404Y-99750000D01*
X174230443Y-99769685D01*
X174276198Y-99822489D01*
X174286142Y-99891647D01*
X174273888Y-99930296D01*
X174248781Y-99979568D01*
X174248778Y-99979575D01*
X174192820Y-100151801D01*
X174164491Y-100330660D01*
X174164491Y-107908424D01*
X174144806Y-107975463D01*
X174092002Y-108021218D01*
X174022844Y-108031162D01*
X173959288Y-108002137D01*
X173951242Y-107993872D01*
X173951097Y-107994018D01*
X173835292Y-107878213D01*
X173835288Y-107878210D01*
X173704185Y-107790609D01*
X173704172Y-107790602D01*
X173558501Y-107730264D01*
X173558489Y-107730261D01*
X173491420Y-107716920D01*
X173429509Y-107684535D01*
X173427930Y-107682984D01*
X169239674Y-103494727D01*
X169239673Y-103494726D01*
X169238281Y-103493796D01*
X169204479Y-103471210D01*
X169133125Y-103423533D01*
X169014745Y-103374499D01*
X169013000Y-103374152D01*
X169013000Y-103374151D01*
X168889071Y-103349500D01*
X168889069Y-103349500D01*
X164645808Y-103349500D01*
X164578769Y-103329815D01*
X164558127Y-103313181D01*
X161209996Y-99965050D01*
X161176511Y-99903727D01*
X161181495Y-99834035D01*
X161223367Y-99778102D01*
X161250225Y-99762808D01*
X161379172Y-99709397D01*
X161379172Y-99709396D01*
X161379179Y-99709394D01*
X161510289Y-99621789D01*
X161621789Y-99510289D01*
X161709394Y-99379179D01*
X161769737Y-99233497D01*
X161783079Y-99166417D01*
X161815462Y-99104508D01*
X161816956Y-99102988D01*
X161884468Y-99035476D01*
X165063264Y-99035476D01*
X165069671Y-99105996D01*
X165069672Y-99106001D01*
X165120244Y-99268290D01*
X165208190Y-99413771D01*
X165328385Y-99533966D01*
X165473867Y-99621913D01*
X165473866Y-99621913D01*
X165636157Y-99672484D01*
X165636156Y-99672484D01*
X165706671Y-99678892D01*
X165706689Y-99678893D01*
X165713262Y-99678892D01*
X165713263Y-99678892D01*
X165713263Y-98953894D01*
X165063264Y-98953894D01*
X165063264Y-99035476D01*
X161884468Y-99035476D01*
X162798126Y-98121819D01*
X162859449Y-98088334D01*
X162885807Y-98085500D01*
X164968550Y-98085500D01*
X165035589Y-98105185D01*
X165081344Y-98157989D01*
X165091288Y-98227147D01*
X165086935Y-98246390D01*
X165069672Y-98301787D01*
X165063263Y-98372321D01*
X165063263Y-98453894D01*
X165839263Y-98453894D01*
X165906302Y-98473579D01*
X165952057Y-98526383D01*
X165963263Y-98577894D01*
X165963263Y-98703894D01*
X166089263Y-98703894D01*
X166156302Y-98723579D01*
X166202057Y-98776383D01*
X166213263Y-98827894D01*
X166213263Y-99678893D01*
X166219844Y-99678893D01*
X166290365Y-99672485D01*
X166290370Y-99672484D01*
X166452659Y-99621912D01*
X166598137Y-99533968D01*
X166619525Y-99512579D01*
X166680847Y-99479092D01*
X166750539Y-99484074D01*
X166794891Y-99512576D01*
X166863763Y-99581448D01*
X166863768Y-99581452D01*
X166963370Y-99653816D01*
X167010269Y-99687890D01*
X167115747Y-99741634D01*
X167171623Y-99770105D01*
X167171626Y-99770106D01*
X167244911Y-99793917D01*
X167343854Y-99826065D01*
X167426692Y-99839185D01*
X167522712Y-99854394D01*
X167522717Y-99854394D01*
X169692707Y-99854394D01*
X169704583Y-99855328D01*
X169704600Y-99855119D01*
X169709451Y-99855501D01*
X169709453Y-99855501D01*
X169890545Y-99855501D01*
X169890546Y-99855501D01*
X170069409Y-99827171D01*
X170241639Y-99771211D01*
X170402994Y-99688996D01*
X170549501Y-99582552D01*
X170605505Y-99526547D01*
X170666825Y-99493063D01*
X170736517Y-99498047D01*
X170792451Y-99539917D01*
X170842812Y-99607190D01*
X170957906Y-99693350D01*
X170957913Y-99693354D01*
X171092620Y-99743596D01*
X171092627Y-99743598D01*
X171152155Y-99749999D01*
X171152172Y-99750000D01*
X172425000Y-99750000D01*
X172425000Y-98853554D01*
X171638625Y-98067179D01*
X171860000Y-98067179D01*
X171860000Y-98132821D01*
X171885119Y-98193465D01*
X171931535Y-98239881D01*
X171992179Y-98265000D01*
X172057821Y-98265000D01*
X172118465Y-98239881D01*
X172164881Y-98193465D01*
X172190000Y-98132821D01*
X172190000Y-98100000D01*
X172378554Y-98100000D01*
X172425000Y-98146445D01*
X172425000Y-98146444D01*
X172925000Y-98146444D01*
X172971445Y-98100000D01*
X172938624Y-98067179D01*
X173160000Y-98067179D01*
X173160000Y-98132821D01*
X173185119Y-98193465D01*
X173231535Y-98239881D01*
X173292179Y-98265000D01*
X173357821Y-98265000D01*
X173418465Y-98239881D01*
X173464881Y-98193465D01*
X173490000Y-98132821D01*
X173490000Y-98067179D01*
X173464881Y-98006535D01*
X173418465Y-97960119D01*
X173357821Y-97935000D01*
X173292179Y-97935000D01*
X173231535Y-97960119D01*
X173185119Y-98006535D01*
X173160000Y-98067179D01*
X172938624Y-98067179D01*
X172925000Y-98053555D01*
X172925000Y-98146444D01*
X172425000Y-98146444D01*
X172425000Y-98053554D01*
X172378554Y-98100000D01*
X172190000Y-98100000D01*
X172190000Y-98067179D01*
X172164881Y-98006535D01*
X172118465Y-97960119D01*
X172057821Y-97935000D01*
X171992179Y-97935000D01*
X171931535Y-97960119D01*
X171885119Y-98006535D01*
X171860000Y-98067179D01*
X171638625Y-98067179D01*
X171433112Y-97861666D01*
X171399627Y-97800343D01*
X171397504Y-97760734D01*
X171400500Y-97732873D01*
X171400500Y-97450000D01*
X171728554Y-97450000D01*
X172025000Y-97746446D01*
X172321446Y-97450000D01*
X173028554Y-97450000D01*
X173325000Y-97746446D01*
X173621446Y-97450000D01*
X173325000Y-97153554D01*
X173028554Y-97450000D01*
X172321446Y-97450000D01*
X172025000Y-97153554D01*
X171728554Y-97450000D01*
X171400500Y-97450000D01*
X171400499Y-97137128D01*
X171400418Y-97136379D01*
X171400449Y-97136207D01*
X171400321Y-97133805D01*
X171400888Y-97133774D01*
X171412809Y-97067620D01*
X171436024Y-97035419D01*
X171671445Y-96799999D01*
X171638625Y-96767179D01*
X171860000Y-96767179D01*
X171860000Y-96832821D01*
X171885119Y-96893465D01*
X171931535Y-96939881D01*
X171992179Y-96965000D01*
X172057821Y-96965000D01*
X172118465Y-96939881D01*
X172164881Y-96893465D01*
X172190000Y-96832821D01*
X172190000Y-96800000D01*
X172378554Y-96800000D01*
X172425000Y-96846445D01*
X172425000Y-96846444D01*
X172925000Y-96846444D01*
X172971445Y-96800000D01*
X172938624Y-96767179D01*
X173160000Y-96767179D01*
X173160000Y-96832821D01*
X173185119Y-96893465D01*
X173231535Y-96939881D01*
X173292179Y-96965000D01*
X173357821Y-96965000D01*
X173418465Y-96939881D01*
X173464881Y-96893465D01*
X173490000Y-96832821D01*
X173490000Y-96767179D01*
X173464881Y-96706535D01*
X173418465Y-96660119D01*
X173357821Y-96635000D01*
X173292179Y-96635000D01*
X173231535Y-96660119D01*
X173185119Y-96706535D01*
X173160000Y-96767179D01*
X172938624Y-96767179D01*
X172925000Y-96753555D01*
X172925000Y-96846444D01*
X172425000Y-96846444D01*
X172425000Y-96753554D01*
X172378554Y-96800000D01*
X172190000Y-96800000D01*
X172190000Y-96767179D01*
X172164881Y-96706535D01*
X172118465Y-96660119D01*
X172057821Y-96635000D01*
X171992179Y-96635000D01*
X171931535Y-96660119D01*
X171885119Y-96706535D01*
X171860000Y-96767179D01*
X171638625Y-96767179D01*
X171436025Y-96564579D01*
X171402540Y-96503256D01*
X171400554Y-96466194D01*
X171400500Y-96466194D01*
X171400499Y-96466188D01*
X171400322Y-96466179D01*
X171400437Y-96464023D01*
X171400417Y-96463642D01*
X171400500Y-96462873D01*
X171400499Y-96150000D01*
X171728554Y-96150000D01*
X172025000Y-96446446D01*
X172321446Y-96150000D01*
X173028554Y-96150000D01*
X173325000Y-96446446D01*
X173621446Y-96150000D01*
X173325000Y-95853554D01*
X173028554Y-96150000D01*
X172321446Y-96150000D01*
X172025000Y-95853554D01*
X171728554Y-96150000D01*
X171400499Y-96150000D01*
X171400499Y-95867128D01*
X171397504Y-95839266D01*
X171409911Y-95770507D01*
X171433113Y-95738331D01*
X171671445Y-95499999D01*
X171638625Y-95467179D01*
X171860000Y-95467179D01*
X171860000Y-95532821D01*
X171885119Y-95593465D01*
X171931535Y-95639881D01*
X171992179Y-95665000D01*
X172057821Y-95665000D01*
X172118465Y-95639881D01*
X172164881Y-95593465D01*
X172190000Y-95532821D01*
X172190000Y-95500000D01*
X172378554Y-95500000D01*
X172425000Y-95546445D01*
X172425000Y-95546444D01*
X172925000Y-95546444D01*
X172971445Y-95500000D01*
X172938624Y-95467179D01*
X173160000Y-95467179D01*
X173160000Y-95532821D01*
X173185119Y-95593465D01*
X173231535Y-95639881D01*
X173292179Y-95665000D01*
X173357821Y-95665000D01*
X173418465Y-95639881D01*
X173464881Y-95593465D01*
X173490000Y-95532821D01*
X173490000Y-95467179D01*
X173464881Y-95406535D01*
X173418465Y-95360119D01*
X173357821Y-95335000D01*
X173292179Y-95335000D01*
X173231535Y-95360119D01*
X173185119Y-95406535D01*
X173160000Y-95467179D01*
X172938624Y-95467179D01*
X172925000Y-95453555D01*
X172925000Y-95546444D01*
X172425000Y-95546444D01*
X172425000Y-95453554D01*
X172378554Y-95500000D01*
X172190000Y-95500000D01*
X172190000Y-95467179D01*
X172164881Y-95406535D01*
X172118465Y-95360119D01*
X172057821Y-95335000D01*
X171992179Y-95335000D01*
X171931535Y-95360119D01*
X171885119Y-95406535D01*
X171860000Y-95467179D01*
X171638625Y-95467179D01*
X171316446Y-95145000D01*
X168200000Y-95145000D01*
X168200000Y-95192844D01*
X168206401Y-95252372D01*
X168206402Y-95252376D01*
X168241757Y-95347166D01*
X168246741Y-95416858D01*
X168213256Y-95478181D01*
X168151933Y-95511666D01*
X168125575Y-95514500D01*
X163980808Y-95514500D01*
X163913769Y-95494815D01*
X163893127Y-95478181D01*
X163241477Y-94826530D01*
X163241476Y-94826529D01*
X163241472Y-94826526D01*
X163134930Y-94755338D01*
X163113463Y-94746446D01*
X163027767Y-94710949D01*
X163027762Y-94710947D01*
X163016547Y-94706302D01*
X163007749Y-94704552D01*
X163002315Y-94703471D01*
X163002308Y-94703469D01*
X162890874Y-94681303D01*
X162890872Y-94681303D01*
X160799557Y-94681303D01*
X160784640Y-94679833D01*
X160784609Y-94680150D01*
X160778547Y-94679553D01*
X160778546Y-94679553D01*
X155659988Y-94679553D01*
X155592949Y-94659868D01*
X155591143Y-94658686D01*
X155534232Y-94620659D01*
X155534225Y-94620655D01*
X155477490Y-94597155D01*
X168200000Y-94597155D01*
X168200000Y-94645000D01*
X169550000Y-94645000D01*
X169550000Y-94145000D01*
X170050000Y-94145000D01*
X170050000Y-94645000D01*
X171472192Y-94645000D01*
X171539231Y-94664685D01*
X171559873Y-94681319D01*
X172025000Y-95146446D01*
X172424999Y-94746446D01*
X172425000Y-94746445D01*
X172425000Y-93850000D01*
X171152155Y-93850000D01*
X171092627Y-93856401D01*
X171092620Y-93856403D01*
X170957913Y-93906645D01*
X170957906Y-93906649D01*
X170842813Y-93992809D01*
X170766080Y-94095311D01*
X170710146Y-94137182D01*
X170666813Y-94145000D01*
X170050000Y-94145000D01*
X169550000Y-94145000D01*
X168652155Y-94145000D01*
X168592627Y-94151401D01*
X168592620Y-94151403D01*
X168457913Y-94201645D01*
X168457906Y-94201649D01*
X168342812Y-94287809D01*
X168342809Y-94287812D01*
X168256649Y-94402906D01*
X168256645Y-94402913D01*
X168206403Y-94537620D01*
X168206401Y-94537627D01*
X168200000Y-94597155D01*
X155477490Y-94597155D01*
X155388554Y-94560317D01*
X155388542Y-94560314D01*
X155233898Y-94529553D01*
X155233895Y-94529553D01*
X155076211Y-94529553D01*
X155076208Y-94529553D01*
X154921563Y-94560314D01*
X154921551Y-94560317D01*
X154775880Y-94620655D01*
X154775867Y-94620662D01*
X154644764Y-94708263D01*
X154644760Y-94708266D01*
X154533266Y-94819760D01*
X154533263Y-94819764D01*
X154445662Y-94950867D01*
X154445655Y-94950880D01*
X154385317Y-95096551D01*
X154385314Y-95096563D01*
X154354553Y-95251206D01*
X154354553Y-95408899D01*
X154385314Y-95563542D01*
X154385317Y-95563554D01*
X154432742Y-95678048D01*
X154440211Y-95747517D01*
X154408936Y-95809996D01*
X154348847Y-95845648D01*
X154318181Y-95849500D01*
X150085929Y-95849500D01*
X149960261Y-95874497D01*
X149960251Y-95874500D01*
X149911220Y-95894810D01*
X149841881Y-95923530D01*
X149841863Y-95923540D01*
X149735332Y-95994721D01*
X149735325Y-95994727D01*
X149241873Y-96488181D01*
X149180550Y-96521666D01*
X149154192Y-96524500D01*
X148903582Y-96524500D01*
X148836543Y-96504815D01*
X148815901Y-96488181D01*
X148496448Y-96168727D01*
X148496447Y-96168726D01*
X148496443Y-96168723D01*
X148389901Y-96097535D01*
X148326221Y-96071158D01*
X148271518Y-96048499D01*
X148271512Y-96048497D01*
X148145845Y-96023500D01*
X148145843Y-96023500D01*
X145636931Y-96023500D01*
X145636929Y-96023500D01*
X145511261Y-96048497D01*
X145511255Y-96048499D01*
X145392870Y-96097535D01*
X145286331Y-96168722D01*
X145286324Y-96168728D01*
X144750221Y-96704830D01*
X144688898Y-96738315D01*
X144645070Y-96739912D01*
X144632751Y-96738159D01*
X144416271Y-96954639D01*
X144359431Y-96987062D01*
X144349482Y-96989616D01*
X144349480Y-96989616D01*
X144349480Y-96989617D01*
X144207669Y-97067577D01*
X144207667Y-97067577D01*
X144207666Y-97067579D01*
X144179980Y-97091225D01*
X144179976Y-97091229D01*
X144137432Y-97133774D01*
X143971395Y-97299811D01*
X143848079Y-97423126D01*
X143848075Y-97423130D01*
X143824429Y-97450816D01*
X143824427Y-97450817D01*
X143824427Y-97450819D01*
X143806723Y-97483023D01*
X143746464Y-97592635D01*
X143743911Y-97602581D01*
X143711490Y-97659420D01*
X143495008Y-97875903D01*
X143610237Y-97939251D01*
X143619609Y-97948677D01*
X143631703Y-97954200D01*
X143643768Y-97972974D01*
X143659501Y-97988797D01*
X143663130Y-98003102D01*
X143669477Y-98012978D01*
X143674500Y-98047913D01*
X143674500Y-98209537D01*
X143654815Y-98276576D01*
X143602011Y-98322331D01*
X143532853Y-98332275D01*
X143469297Y-98303250D01*
X143462819Y-98297218D01*
X143160327Y-97994726D01*
X143160323Y-97994723D01*
X143053781Y-97923535D01*
X142977342Y-97891873D01*
X142935398Y-97874499D01*
X142935392Y-97874497D01*
X142809725Y-97849500D01*
X142809723Y-97849500D01*
X142145808Y-97849500D01*
X142078769Y-97829815D01*
X142058127Y-97813181D01*
X141739674Y-97494727D01*
X141739673Y-97494726D01*
X141722158Y-97483023D01*
X141633127Y-97423535D01*
X141632149Y-97423130D01*
X141514744Y-97374499D01*
X141514738Y-97374497D01*
X141389071Y-97349500D01*
X141389069Y-97349500D01*
X139829428Y-97349500D01*
X139808182Y-97343261D01*
X139786095Y-97341682D01*
X139775311Y-97333609D01*
X139762389Y-97329815D01*
X139747890Y-97313083D01*
X139730161Y-97299811D01*
X139725453Y-97287188D01*
X139716634Y-97277011D01*
X139713482Y-97255094D01*
X139705744Y-97234346D01*
X139708606Y-97221185D01*
X139706690Y-97207853D01*
X139715889Y-97187709D01*
X139720596Y-97166073D01*
X139733865Y-97148345D01*
X139735715Y-97144297D01*
X139741725Y-97137840D01*
X139808952Y-97070613D01*
X143027900Y-97070613D01*
X143027900Y-97232324D01*
X143068114Y-97388944D01*
X143068114Y-97388945D01*
X143141453Y-97522348D01*
X143141454Y-97522349D01*
X143533549Y-97130255D01*
X143159637Y-96756343D01*
X143146015Y-96772292D01*
X143068114Y-96913992D01*
X143068111Y-96914002D01*
X143027900Y-97070613D01*
X139808952Y-97070613D01*
X139912552Y-96967013D01*
X139973873Y-96933530D01*
X139975938Y-96933099D01*
X140043118Y-96919737D01*
X140188800Y-96859394D01*
X140319910Y-96771789D01*
X140431410Y-96660289D01*
X140519015Y-96529179D01*
X140563761Y-96421153D01*
X140570590Y-96404665D01*
X140570590Y-96404664D01*
X140571367Y-96402789D01*
X143513190Y-96402789D01*
X143887103Y-96776701D01*
X143887104Y-96776701D01*
X144279197Y-96384606D01*
X144279196Y-96384605D01*
X144145792Y-96311266D01*
X143989172Y-96271052D01*
X143827461Y-96271052D01*
X143670850Y-96311263D01*
X143670840Y-96311266D01*
X143529147Y-96389163D01*
X143529138Y-96389169D01*
X143513190Y-96402789D01*
X140571367Y-96402789D01*
X140579358Y-96383497D01*
X140610121Y-96228842D01*
X140610121Y-96071158D01*
X140610121Y-96071155D01*
X140610120Y-96071153D01*
X140594917Y-95994723D01*
X140579358Y-95916503D01*
X140579356Y-95916498D01*
X140519018Y-95770827D01*
X140519011Y-95770814D01*
X140431410Y-95639711D01*
X140431407Y-95639707D01*
X140319913Y-95528213D01*
X140319909Y-95528210D01*
X140188806Y-95440609D01*
X140188793Y-95440602D01*
X140043122Y-95380264D01*
X140043110Y-95380261D01*
X139888466Y-95349500D01*
X139888463Y-95349500D01*
X139730779Y-95349500D01*
X139730774Y-95349500D01*
X139578134Y-95379862D01*
X139508542Y-95373635D01*
X139485053Y-95361347D01*
X139379190Y-95290612D01*
X139379172Y-95290602D01*
X139233501Y-95230264D01*
X139233489Y-95230261D01*
X139078845Y-95199500D01*
X139078842Y-95199500D01*
X138921158Y-95199500D01*
X138921155Y-95199500D01*
X138766510Y-95230261D01*
X138766498Y-95230264D01*
X138620827Y-95290602D01*
X138620820Y-95290606D01*
X138591928Y-95309911D01*
X138563955Y-95328602D01*
X138545908Y-95334253D01*
X138530000Y-95344477D01*
X138499040Y-95348928D01*
X138497279Y-95349480D01*
X138495065Y-95349500D01*
X138274154Y-95349500D01*
X138207115Y-95329815D01*
X138161360Y-95277011D01*
X138151416Y-95207853D01*
X138180441Y-95144297D01*
X138186473Y-95137819D01*
X139537473Y-93786819D01*
X139598796Y-93753334D01*
X139625154Y-93750500D01*
X142637770Y-93750500D01*
X142704809Y-93770185D01*
X142725451Y-93786819D01*
X144021580Y-95082948D01*
X144021584Y-95082951D01*
X144144498Y-95165080D01*
X144144511Y-95165087D01*
X144281082Y-95221656D01*
X144281087Y-95221658D01*
X144281091Y-95221658D01*
X144281092Y-95221659D01*
X144426079Y-95250500D01*
X144426082Y-95250500D01*
X150973347Y-95250500D01*
X151075091Y-95230261D01*
X151118340Y-95221658D01*
X151254922Y-95165084D01*
X151304156Y-95132186D01*
X151377843Y-95082952D01*
X152627695Y-93833097D01*
X152689018Y-93799613D01*
X152715376Y-93796779D01*
X152851485Y-93796779D01*
X152851491Y-93796779D01*
X152851499Y-93796778D01*
X152851502Y-93796778D01*
X152905907Y-93791220D01*
X152950855Y-93786629D01*
X153111844Y-93733283D01*
X153256191Y-93644248D01*
X153376115Y-93524324D01*
X153465150Y-93379977D01*
X153518496Y-93218988D01*
X153528647Y-93119625D01*
X153528646Y-92572936D01*
X153518496Y-92473572D01*
X153465150Y-92312583D01*
X153465146Y-92312577D01*
X153465145Y-92312574D01*
X153376117Y-92168239D01*
X153376114Y-92168235D01*
X153366486Y-92158607D01*
X153333001Y-92097284D01*
X153337985Y-92027592D01*
X153366492Y-91983239D01*
X153375720Y-91974011D01*
X153464689Y-91829772D01*
X153464694Y-91829761D01*
X153518002Y-91668886D01*
X153528146Y-91569602D01*
X153528147Y-91569589D01*
X153528147Y-91546280D01*
X151578148Y-91546280D01*
X151578148Y-91569602D01*
X151588291Y-91668887D01*
X151641599Y-91829761D01*
X151641604Y-91829772D01*
X151689044Y-91906683D01*
X151691128Y-91914300D01*
X151696300Y-91920269D01*
X151700218Y-91947518D01*
X151707485Y-91974075D01*
X151705120Y-91981610D01*
X151706244Y-91989427D01*
X151694807Y-92014469D01*
X151686563Y-92040739D01*
X151680499Y-92045799D01*
X151677219Y-92052983D01*
X151654056Y-92067868D01*
X151632921Y-92085508D01*
X151623590Y-92087447D01*
X151618441Y-92090757D01*
X151583506Y-92095780D01*
X151499499Y-92095780D01*
X151432460Y-92076095D01*
X151386705Y-92023291D01*
X151375499Y-91971780D01*
X151375499Y-91948877D01*
X151375498Y-91948876D01*
X151372600Y-91906111D01*
X151326641Y-91721307D01*
X151251403Y-91569602D01*
X151242032Y-91550707D01*
X151242030Y-91550704D01*
X151122722Y-91402278D01*
X151122721Y-91402277D01*
X150974295Y-91282969D01*
X150974292Y-91282967D01*
X150803697Y-91198360D01*
X150618892Y-91152400D01*
X150597506Y-91150950D01*
X150576123Y-91149500D01*
X150576120Y-91149500D01*
X149673877Y-91149500D01*
X149673874Y-91149501D01*
X149631113Y-91152399D01*
X149631112Y-91152399D01*
X149484426Y-91188879D01*
X149414617Y-91185955D01*
X149357471Y-91145754D01*
X149331131Y-91081040D01*
X149330500Y-91068544D01*
X149330500Y-91022957D01*
X151578147Y-91022957D01*
X151578147Y-91046280D01*
X152303147Y-91046280D01*
X152803147Y-91046280D01*
X153528146Y-91046280D01*
X153528146Y-91022972D01*
X153528145Y-91022957D01*
X153518002Y-90923672D01*
X153464694Y-90762798D01*
X153464689Y-90762787D01*
X153375722Y-90618551D01*
X153375719Y-90618547D01*
X153255879Y-90498707D01*
X153255875Y-90498704D01*
X153111639Y-90409737D01*
X153111628Y-90409732D01*
X152950753Y-90356424D01*
X152851469Y-90346280D01*
X152803147Y-90346280D01*
X152803147Y-91046280D01*
X152303147Y-91046280D01*
X152303147Y-90346280D01*
X152303146Y-90346279D01*
X152254840Y-90346280D01*
X152254822Y-90346281D01*
X152155539Y-90356424D01*
X151994665Y-90409732D01*
X151994654Y-90409737D01*
X151850418Y-90498704D01*
X151850414Y-90498707D01*
X151730574Y-90618547D01*
X151730571Y-90618551D01*
X151641604Y-90762787D01*
X151641599Y-90762798D01*
X151588291Y-90923673D01*
X151578147Y-91022957D01*
X149330500Y-91022957D01*
X149330500Y-90431916D01*
X149350185Y-90364877D01*
X149402989Y-90319122D01*
X149472147Y-90309178D01*
X149535703Y-90338203D01*
X149542181Y-90344235D01*
X149575500Y-90377554D01*
X149575505Y-90377558D01*
X149691798Y-90462049D01*
X149722006Y-90483996D01*
X149811885Y-90529792D01*
X149883360Y-90566211D01*
X149883363Y-90566212D01*
X149969476Y-90594191D01*
X150055591Y-90622171D01*
X150138429Y-90635291D01*
X150234449Y-90650500D01*
X150234454Y-90650500D01*
X150415551Y-90650500D01*
X150502259Y-90636765D01*
X150594409Y-90622171D01*
X150766639Y-90566211D01*
X150927994Y-90483996D01*
X151074501Y-90377553D01*
X151202553Y-90249501D01*
X151308996Y-90102994D01*
X151391211Y-89941639D01*
X151447171Y-89769409D01*
X151465027Y-89656670D01*
X151475500Y-89590551D01*
X151475500Y-89409448D01*
X151456828Y-89291561D01*
X151447171Y-89230591D01*
X151393335Y-89064898D01*
X151391212Y-89058363D01*
X151391211Y-89058360D01*
X151357174Y-88991561D01*
X151308996Y-88897006D01*
X151296710Y-88880095D01*
X151217831Y-88771526D01*
X151217829Y-88771524D01*
X151202554Y-88750500D01*
X151074499Y-88622445D01*
X151074494Y-88622441D01*
X150927997Y-88516006D01*
X150927996Y-88516005D01*
X150927994Y-88516004D01*
X150838125Y-88470213D01*
X150766639Y-88433788D01*
X150766636Y-88433787D01*
X150594410Y-88377829D01*
X150415551Y-88349500D01*
X150415546Y-88349500D01*
X150234454Y-88349500D01*
X150234449Y-88349500D01*
X150055589Y-88377829D01*
X149883363Y-88433787D01*
X149883360Y-88433788D01*
X149722002Y-88516006D01*
X149575505Y-88622441D01*
X149575500Y-88622445D01*
X149542181Y-88655765D01*
X149480858Y-88689250D01*
X149411166Y-88684266D01*
X149355233Y-88642394D01*
X149330816Y-88576930D01*
X149330500Y-88568084D01*
X149330500Y-88129500D01*
X149350185Y-88062461D01*
X149402989Y-88016706D01*
X149454500Y-88005500D01*
X149700990Y-88005500D01*
X149701000Y-88005500D01*
X149808456Y-87993947D01*
X149859967Y-87982741D01*
X149902114Y-87968713D01*
X149962497Y-87948616D01*
X149962501Y-87948613D01*
X149962504Y-87948613D01*
X150083543Y-87870825D01*
X150136347Y-87825070D01*
X150230567Y-87716336D01*
X150290338Y-87585459D01*
X150310023Y-87518420D01*
X150310024Y-87518416D01*
X150330500Y-87376000D01*
X150330500Y-87224500D01*
X150350185Y-87157461D01*
X150402989Y-87111706D01*
X150454500Y-87100500D01*
X157039564Y-87100500D01*
X157106603Y-87120185D01*
X157152358Y-87172989D01*
X157162302Y-87242147D01*
X157136832Y-87301409D01*
X157132684Y-87306654D01*
X157040643Y-87455875D01*
X157040641Y-87455880D01*
X156985494Y-87622302D01*
X156985493Y-87622309D01*
X156975000Y-87725013D01*
X156975000Y-88250000D01*
X157920854Y-88250000D01*
X157882370Y-88316657D01*
X157850000Y-88437465D01*
X157850000Y-88562535D01*
X157882370Y-88683343D01*
X157920854Y-88750000D01*
X156975001Y-88750000D01*
X156975001Y-89274986D01*
X156985494Y-89377697D01*
X157040641Y-89544119D01*
X157040643Y-89544124D01*
X157132684Y-89693345D01*
X157256654Y-89817315D01*
X157405875Y-89909356D01*
X157405880Y-89909358D01*
X157572302Y-89964505D01*
X157572309Y-89964506D01*
X157675019Y-89974999D01*
X158074999Y-89974999D01*
X158075000Y-89974998D01*
X158075000Y-88904145D01*
X158141657Y-88942630D01*
X158262465Y-88975000D01*
X158387535Y-88975000D01*
X158508343Y-88942630D01*
X158575000Y-88904145D01*
X158575000Y-89974999D01*
X158974972Y-89974999D01*
X158974986Y-89974998D01*
X159077697Y-89964505D01*
X159244119Y-89909358D01*
X159244124Y-89909356D01*
X159393345Y-89817315D01*
X159517317Y-89693343D01*
X159612815Y-89538516D01*
X159664763Y-89491791D01*
X159733725Y-89480568D01*
X159797808Y-89508412D01*
X159806035Y-89515931D01*
X159945213Y-89655109D01*
X160117179Y-89780048D01*
X160117181Y-89780049D01*
X160117184Y-89780051D01*
X160306588Y-89876557D01*
X160508757Y-89942246D01*
X160718713Y-89975500D01*
X160718714Y-89975500D01*
X160931286Y-89975500D01*
X160931287Y-89975500D01*
X161141243Y-89942246D01*
X161343412Y-89876557D01*
X161532816Y-89780051D01*
X161595900Y-89734218D01*
X161704786Y-89655109D01*
X161704788Y-89655106D01*
X161704792Y-89655104D01*
X161855104Y-89504792D01*
X161974683Y-89340204D01*
X162030011Y-89297540D01*
X162099624Y-89291561D01*
X162161420Y-89324166D01*
X162175313Y-89340199D01*
X162244611Y-89435580D01*
X162294896Y-89504792D01*
X162445213Y-89655109D01*
X162617179Y-89780048D01*
X162617181Y-89780049D01*
X162617184Y-89780051D01*
X162806588Y-89876557D01*
X163008757Y-89942246D01*
X163218713Y-89975500D01*
X163218714Y-89975500D01*
X163431286Y-89975500D01*
X163431287Y-89975500D01*
X163641243Y-89942246D01*
X163843412Y-89876557D01*
X164032816Y-89780051D01*
X164095900Y-89734218D01*
X164204786Y-89655109D01*
X164204788Y-89655106D01*
X164204792Y-89655104D01*
X164355104Y-89504792D01*
X164355106Y-89504788D01*
X164355109Y-89504786D01*
X164480048Y-89332820D01*
X164480047Y-89332820D01*
X164480051Y-89332816D01*
X164576557Y-89143412D01*
X164642246Y-88941243D01*
X164675500Y-88731287D01*
X164675500Y-88385258D01*
X171574500Y-88385258D01*
X171574500Y-88614741D01*
X171592308Y-88750000D01*
X171604452Y-88842238D01*
X171640025Y-88975000D01*
X171663842Y-89063887D01*
X171751650Y-89275876D01*
X171751657Y-89275890D01*
X171866392Y-89474617D01*
X172006081Y-89656661D01*
X172006089Y-89656670D01*
X172168330Y-89818911D01*
X172168338Y-89818918D01*
X172168339Y-89818919D01*
X172206779Y-89848415D01*
X172350382Y-89958607D01*
X172350385Y-89958608D01*
X172350388Y-89958611D01*
X172549112Y-90073344D01*
X172549117Y-90073346D01*
X172549123Y-90073349D01*
X172616990Y-90101460D01*
X172761113Y-90161158D01*
X172982762Y-90220548D01*
X173210266Y-90250500D01*
X173210273Y-90250500D01*
X173439727Y-90250500D01*
X173439734Y-90250500D01*
X173667238Y-90220548D01*
X173888887Y-90161158D01*
X174100888Y-90073344D01*
X174299612Y-89958611D01*
X174481661Y-89818919D01*
X174481665Y-89818914D01*
X174481670Y-89818911D01*
X174643911Y-89656670D01*
X174643914Y-89656665D01*
X174643919Y-89656661D01*
X174783611Y-89474612D01*
X174898344Y-89275888D01*
X174986158Y-89063887D01*
X175045548Y-88842238D01*
X175075500Y-88614734D01*
X175075500Y-88385266D01*
X175045548Y-88157762D01*
X174986158Y-87936113D01*
X174920337Y-87777208D01*
X174898349Y-87724123D01*
X174898346Y-87724117D01*
X174898344Y-87724112D01*
X174783611Y-87525388D01*
X174783608Y-87525385D01*
X174783607Y-87525382D01*
X174668979Y-87375998D01*
X174643919Y-87343339D01*
X174643918Y-87343338D01*
X174643911Y-87343330D01*
X174481670Y-87181089D01*
X174481661Y-87181081D01*
X174299617Y-87041392D01*
X174100890Y-86926657D01*
X174100876Y-86926650D01*
X173888887Y-86838842D01*
X173831420Y-86823444D01*
X173667238Y-86779452D01*
X173629215Y-86774446D01*
X173439741Y-86749500D01*
X173439734Y-86749500D01*
X173210266Y-86749500D01*
X173210258Y-86749500D01*
X172993715Y-86778009D01*
X172982762Y-86779452D01*
X172889076Y-86804554D01*
X172761112Y-86838842D01*
X172549123Y-86926650D01*
X172549109Y-86926657D01*
X172350382Y-87041392D01*
X172168338Y-87181081D01*
X172006081Y-87343338D01*
X171866392Y-87525382D01*
X171751657Y-87724109D01*
X171751650Y-87724123D01*
X171663842Y-87936112D01*
X171604453Y-88157759D01*
X171604451Y-88157770D01*
X171574500Y-88385258D01*
X164675500Y-88385258D01*
X164675500Y-88268713D01*
X164642246Y-88058757D01*
X164576557Y-87856588D01*
X164480051Y-87667184D01*
X164480049Y-87667181D01*
X164480048Y-87667179D01*
X164355109Y-87495213D01*
X164204786Y-87344890D01*
X164032820Y-87219951D01*
X163843414Y-87123444D01*
X163843413Y-87123443D01*
X163843412Y-87123443D01*
X163641243Y-87057754D01*
X163641241Y-87057753D01*
X163641240Y-87057753D01*
X163479957Y-87032208D01*
X163431287Y-87024500D01*
X163218713Y-87024500D01*
X163170042Y-87032208D01*
X163008760Y-87057753D01*
X162806585Y-87123444D01*
X162617179Y-87219951D01*
X162445213Y-87344890D01*
X162294894Y-87495209D01*
X162294890Y-87495214D01*
X162175318Y-87659793D01*
X162119989Y-87702459D01*
X162050375Y-87708438D01*
X161988580Y-87675833D01*
X161974682Y-87659793D01*
X161855109Y-87495214D01*
X161855105Y-87495209D01*
X161704786Y-87344890D01*
X161532820Y-87219951D01*
X161343414Y-87123444D01*
X161343413Y-87123443D01*
X161343412Y-87123443D01*
X161141243Y-87057754D01*
X161141241Y-87057753D01*
X161141240Y-87057753D01*
X160979957Y-87032208D01*
X160931287Y-87024500D01*
X160718713Y-87024500D01*
X160515360Y-87056707D01*
X160446067Y-87047752D01*
X160408282Y-87021915D01*
X159153421Y-85767052D01*
X159153420Y-85767051D01*
X159128649Y-85750500D01*
X159067883Y-85709898D01*
X159030495Y-85684916D01*
X159030488Y-85684912D01*
X158893917Y-85628343D01*
X158893907Y-85628340D01*
X158748920Y-85599500D01*
X158748918Y-85599500D01*
X150454500Y-85599500D01*
X150387461Y-85579815D01*
X150341706Y-85527011D01*
X150330500Y-85475500D01*
X150330500Y-85124010D01*
X150330500Y-85124000D01*
X150318947Y-85016544D01*
X150307741Y-84965033D01*
X150307637Y-84964722D01*
X150273616Y-84862502D01*
X150273613Y-84862496D01*
X150222950Y-84783664D01*
X150195825Y-84741457D01*
X150195820Y-84741451D01*
X150164844Y-84705702D01*
X150135819Y-84642147D01*
X150145763Y-84572988D01*
X150191518Y-84520184D01*
X150258557Y-84500500D01*
X187700500Y-84500500D01*
X187767539Y-84520185D01*
G37*
G04 #@! TD.AperFunction*
G04 #@! TA.AperFunction,Conductor*
G36*
X145553348Y-102254364D02*
G01*
X145557556Y-102254314D01*
X145583850Y-102270771D01*
X145611174Y-102285469D01*
X145611727Y-102286019D01*
X146289726Y-102964018D01*
X146298938Y-102980889D01*
X146312216Y-102994793D01*
X146318930Y-103017502D01*
X146323211Y-103025341D01*
X146323786Y-103028137D01*
X146325500Y-103036993D01*
X146325500Y-103040069D01*
X146347467Y-103150500D01*
X146347513Y-103150735D01*
X146347542Y-103150881D01*
X146350497Y-103165738D01*
X146350500Y-103165747D01*
X146399532Y-103284123D01*
X146405687Y-103293334D01*
X146463455Y-103379792D01*
X146470726Y-103390673D01*
X146470727Y-103390674D01*
X146798806Y-103718752D01*
X146832291Y-103780075D01*
X146827307Y-103849766D01*
X146798807Y-103894114D01*
X146703210Y-103989711D01*
X146615609Y-104120814D01*
X146615602Y-104120827D01*
X146555264Y-104266498D01*
X146555261Y-104266508D01*
X146541920Y-104333579D01*
X146509535Y-104395490D01*
X146507984Y-104397068D01*
X146101543Y-104803510D01*
X146040220Y-104836995D01*
X145970529Y-104832011D01*
X145944971Y-104818931D01*
X145832065Y-104743489D01*
X145832052Y-104743482D01*
X145686381Y-104683144D01*
X145686369Y-104683141D01*
X145531725Y-104652380D01*
X145531722Y-104652380D01*
X145510729Y-104652380D01*
X145509992Y-104652163D01*
X145509255Y-104652371D01*
X145476532Y-104642338D01*
X145443690Y-104632695D01*
X145443188Y-104632115D01*
X145442455Y-104631891D01*
X145420329Y-104605735D01*
X145397935Y-104579891D01*
X145397661Y-104578938D01*
X145397330Y-104578547D01*
X145387790Y-104544567D01*
X145384196Y-104517271D01*
X145386409Y-104483529D01*
X145384626Y-104483295D01*
X145385830Y-104474153D01*
X145400500Y-104362720D01*
X145400500Y-104137280D01*
X145385687Y-104024764D01*
X145385686Y-104024763D01*
X145384626Y-104016705D01*
X145387689Y-104016301D01*
X145387689Y-103983698D01*
X145384626Y-103983295D01*
X145389030Y-103949843D01*
X145400500Y-103862720D01*
X145400500Y-103637280D01*
X145385687Y-103524764D01*
X145385686Y-103524763D01*
X145384626Y-103516705D01*
X145387689Y-103516301D01*
X145387689Y-103483698D01*
X145384626Y-103483295D01*
X145391147Y-103433764D01*
X145400500Y-103362720D01*
X145400500Y-103137280D01*
X145385687Y-103024764D01*
X145385686Y-103024763D01*
X145384626Y-103016705D01*
X145387689Y-103016301D01*
X145387689Y-102983698D01*
X145384626Y-102983295D01*
X145391867Y-102928294D01*
X145400500Y-102862720D01*
X145400500Y-102637280D01*
X145385687Y-102524764D01*
X145385685Y-102524760D01*
X145384956Y-102519219D01*
X145384907Y-102519113D01*
X145384917Y-102518919D01*
X145384626Y-102516705D01*
X145385040Y-102516650D01*
X145385768Y-102503214D01*
X145384485Y-102483821D01*
X145385581Y-102475491D01*
X145385687Y-102475236D01*
X145400500Y-102362720D01*
X145400500Y-102362125D01*
X145401106Y-102357521D01*
X145413655Y-102329148D01*
X145424313Y-102300016D01*
X145427666Y-102297472D01*
X145429369Y-102293623D01*
X145455263Y-102276541D01*
X145479982Y-102257793D01*
X145484179Y-102257466D01*
X145487692Y-102255149D01*
X145518705Y-102254778D01*
X145549641Y-102252370D01*
X145553348Y-102254364D01*
G37*
G04 #@! TD.AperFunction*
G04 #@! TA.AperFunction,Conductor*
G36*
X139117539Y-101169685D02*
G01*
X139163294Y-101222489D01*
X139174500Y-101274000D01*
X139174500Y-101564069D01*
X139174500Y-101564071D01*
X139174499Y-101564071D01*
X139196274Y-101673532D01*
X139199498Y-101689739D01*
X139199500Y-101689746D01*
X139248533Y-101808124D01*
X139248534Y-101808126D01*
X139248535Y-101808127D01*
X139254103Y-101816461D01*
X139259755Y-101834509D01*
X139269980Y-101850419D01*
X139274430Y-101881371D01*
X139274983Y-101883136D01*
X139275003Y-101885354D01*
X139275003Y-102038637D01*
X139275002Y-102038640D01*
X139275002Y-102376000D01*
X139255317Y-102443039D01*
X139202513Y-102488794D01*
X139151002Y-102500000D01*
X138899498Y-102500000D01*
X138832459Y-102480315D01*
X138786704Y-102427511D01*
X138775498Y-102376000D01*
X138775498Y-101902132D01*
X138775320Y-101898808D01*
X138775427Y-101898802D01*
X138775002Y-101890866D01*
X138775002Y-101648354D01*
X138782711Y-101620174D01*
X138785617Y-101598155D01*
X138790225Y-101592710D01*
X138792272Y-101585230D01*
X138797496Y-101576396D01*
X138797497Y-101576395D01*
X138842646Y-101420993D01*
X138845503Y-101384690D01*
X138845503Y-101274000D01*
X138848053Y-101265314D01*
X138846765Y-101256353D01*
X138857743Y-101232312D01*
X138865188Y-101206961D01*
X138872028Y-101201033D01*
X138875790Y-101192797D01*
X138898024Y-101178507D01*
X138917992Y-101161206D01*
X138928506Y-101158918D01*
X138934568Y-101155023D01*
X138969503Y-101150000D01*
X139050500Y-101150000D01*
X139117539Y-101169685D01*
G37*
G04 #@! TD.AperFunction*
G04 #@! TA.AperFunction,Conductor*
G36*
X141071231Y-98670185D02*
G01*
X141091873Y-98686819D01*
X141280560Y-98875506D01*
X141284898Y-98883451D01*
X141292146Y-98888877D01*
X141301380Y-98913636D01*
X141314045Y-98936829D01*
X141313399Y-98945858D01*
X141316563Y-98954341D01*
X141310946Y-98980161D01*
X141309061Y-99006521D01*
X141303242Y-99015574D01*
X141301711Y-99022614D01*
X141280560Y-99050868D01*
X141238368Y-99093060D01*
X141177045Y-99126545D01*
X141107353Y-99121561D01*
X141063007Y-99093061D01*
X140964669Y-98994723D01*
X140878023Y-98936829D01*
X140858123Y-98923532D01*
X140774900Y-98889061D01*
X140720496Y-98845220D01*
X140698431Y-98778926D01*
X140715710Y-98711227D01*
X140766847Y-98663616D01*
X140822352Y-98650500D01*
X141004192Y-98650500D01*
X141071231Y-98670185D01*
G37*
G04 #@! TD.AperFunction*
G04 #@! TA.AperFunction,Conductor*
G36*
X146542539Y-97344185D02*
G01*
X146588294Y-97396989D01*
X146599500Y-97448500D01*
X146599500Y-97831613D01*
X146605913Y-97902192D01*
X146605913Y-97902194D01*
X146605914Y-97902196D01*
X146656522Y-98064606D01*
X146744163Y-98209582D01*
X146744530Y-98210188D01*
X146864810Y-98330468D01*
X146870715Y-98335094D01*
X146869911Y-98336119D01*
X146871912Y-98338303D01*
X146881703Y-98342775D01*
X146895098Y-98363618D01*
X146911833Y-98381890D01*
X146914653Y-98394047D01*
X146919477Y-98401553D01*
X146924500Y-98436488D01*
X146924500Y-98489278D01*
X146904815Y-98556317D01*
X146852011Y-98602072D01*
X146784314Y-98612216D01*
X146769323Y-98610243D01*
X146687727Y-98599500D01*
X146687720Y-98599500D01*
X146462280Y-98599500D01*
X146462272Y-98599500D01*
X146379062Y-98610455D01*
X146365685Y-98612216D01*
X146296650Y-98601452D01*
X146244394Y-98555072D01*
X146225500Y-98489278D01*
X146225500Y-98135928D01*
X146200502Y-98010261D01*
X146200501Y-98010260D01*
X146200501Y-98010256D01*
X146151465Y-97891873D01*
X146139856Y-97874499D01*
X146131281Y-97861666D01*
X146080277Y-97785331D01*
X146080271Y-97785324D01*
X145882627Y-97587680D01*
X145878288Y-97579734D01*
X145871040Y-97574308D01*
X145861805Y-97549548D01*
X145849142Y-97526357D01*
X145849787Y-97517326D01*
X145846624Y-97508844D01*
X145852240Y-97483023D01*
X145854126Y-97456665D01*
X145859944Y-97447611D01*
X145861476Y-97440571D01*
X145882625Y-97412320D01*
X145934128Y-97360818D01*
X145995451Y-97327334D01*
X146021808Y-97324500D01*
X146475500Y-97324500D01*
X146542539Y-97344185D01*
G37*
G04 #@! TD.AperFunction*
G04 #@! TA.AperFunction,Conductor*
G36*
X134268039Y-116519685D02*
G01*
X134313794Y-116572489D01*
X134325000Y-116624000D01*
X134325000Y-118000000D01*
X136201000Y-118000000D01*
X136268039Y-118019685D01*
X136313794Y-118072489D01*
X136325000Y-118124000D01*
X136325000Y-118876000D01*
X136305315Y-118943039D01*
X136252511Y-118988794D01*
X136201000Y-119000000D01*
X134325000Y-119000000D01*
X134325000Y-120376000D01*
X134305315Y-120443039D01*
X134252511Y-120488794D01*
X134201000Y-120500000D01*
X131938341Y-120500000D01*
X131871302Y-120480315D01*
X131825547Y-120427511D01*
X131814840Y-120387115D01*
X131813840Y-120376000D01*
X131735000Y-119500000D01*
X131734999Y-119500000D01*
X126335181Y-119500000D01*
X126268142Y-119480315D01*
X126266323Y-119479124D01*
X126183127Y-119423535D01*
X126064744Y-119374499D01*
X126064738Y-119374497D01*
X125939071Y-119349500D01*
X125939069Y-119349500D01*
X125449000Y-119349500D01*
X125381961Y-119329815D01*
X125336206Y-119277011D01*
X125325000Y-119225500D01*
X125325000Y-117624000D01*
X125344685Y-117556961D01*
X125397489Y-117511206D01*
X125449000Y-117500000D01*
X131734999Y-117500000D01*
X131735000Y-117500000D01*
X131814840Y-116612883D01*
X131840455Y-116547880D01*
X131897148Y-116507042D01*
X131938341Y-116500000D01*
X134201000Y-116500000D01*
X134268039Y-116519685D01*
G37*
G04 #@! TD.AperFunction*
M02*
