G04 #@! TF.GenerationSoftware,KiCad,Pcbnew,8.0.3*
G04 #@! TF.CreationDate,2025-05-14T17:31:42-04:00*
G04 #@! TF.ProjectId,Sp-I,53702d49-2e6b-4696-9361-645f70636258,rev?*
G04 #@! TF.SameCoordinates,Original*
G04 #@! TF.FileFunction,Legend,Bot*
G04 #@! TF.FilePolarity,Positive*
%FSLAX46Y46*%
G04 Gerber Fmt 4.6, Leading zero omitted, Abs format (unit mm)*
G04 Created by KiCad (PCBNEW 8.0.3) date 2025-05-14 17:31:42*
%MOMM*%
%LPD*%
G01*
G04 APERTURE LIST*
G04 Aperture macros list*
%AMRoundRect*
0 Rectangle with rounded corners*
0 $1 Rounding radius*
0 $2 $3 $4 $5 $6 $7 $8 $9 X,Y pos of 4 corners*
0 Add a 4 corners polygon primitive as box body*
4,1,4,$2,$3,$4,$5,$6,$7,$8,$9,$2,$3,0*
0 Add four circle primitives for the rounded corners*
1,1,$1+$1,$2,$3*
1,1,$1+$1,$4,$5*
1,1,$1+$1,$6,$7*
1,1,$1+$1,$8,$9*
0 Add four rect primitives between the rounded corners*
20,1,$1+$1,$2,$3,$4,$5,0*
20,1,$1+$1,$4,$5,$6,$7,0*
20,1,$1+$1,$6,$7,$8,$9,0*
20,1,$1+$1,$8,$9,$2,$3,0*%
G04 Aperture macros list end*
%ADD10C,0.100000*%
%ADD11C,0.150000*%
%ADD12C,0.508000*%
%ADD13C,0.120000*%
%ADD14C,1.270000*%
%ADD15C,3.000000*%
%ADD16R,1.700000X1.700000*%
%ADD17O,1.700000X1.700000*%
%ADD18C,1.665000*%
%ADD19R,1.300000X1.300000*%
%ADD20C,1.300000*%
%ADD21RoundRect,0.102000X1.225000X-1.225000X1.225000X1.225000X-1.225000X1.225000X-1.225000X-1.225000X0*%
%ADD22C,2.654000*%
%ADD23O,1.500000X1.050000*%
%ADD24R,1.500000X1.050000*%
%ADD25C,1.600200*%
%ADD26C,4.000000*%
%ADD27R,3.800000X3.800000*%
G04 APERTURE END LIST*
D10*
X170696115Y-135241466D02*
X169934211Y-135241466D01*
X168196115Y-135241466D02*
X167434211Y-135241466D01*
X167815163Y-135622419D02*
X167815163Y-134860514D01*
X174696115Y-135241466D02*
X173934211Y-135241466D01*
X174315163Y-135622419D02*
X174315163Y-134860514D01*
X179493734Y-135574800D02*
X179398496Y-135622419D01*
X179398496Y-135622419D02*
X179208020Y-135622419D01*
X179208020Y-135622419D02*
X179112782Y-135574800D01*
X179112782Y-135574800D02*
X179065163Y-135479561D01*
X179065163Y-135479561D02*
X179065163Y-135431942D01*
X179065163Y-135431942D02*
X179112782Y-135336704D01*
X179112782Y-135336704D02*
X179208020Y-135289085D01*
X179208020Y-135289085D02*
X179350877Y-135289085D01*
X179350877Y-135289085D02*
X179446115Y-135241466D01*
X179446115Y-135241466D02*
X179493734Y-135146228D01*
X179493734Y-135146228D02*
X179493734Y-135098609D01*
X179493734Y-135098609D02*
X179446115Y-135003371D01*
X179446115Y-135003371D02*
X179350877Y-134955752D01*
X179350877Y-134955752D02*
X179208020Y-134955752D01*
X179208020Y-134955752D02*
X179112782Y-135003371D01*
X177196115Y-135241466D02*
X176434211Y-135241466D01*
X186196115Y-135241466D02*
X185434211Y-135241466D01*
X188493734Y-135574800D02*
X188398496Y-135622419D01*
X188398496Y-135622419D02*
X188208020Y-135622419D01*
X188208020Y-135622419D02*
X188112782Y-135574800D01*
X188112782Y-135574800D02*
X188065163Y-135479561D01*
X188065163Y-135479561D02*
X188065163Y-135431942D01*
X188065163Y-135431942D02*
X188112782Y-135336704D01*
X188112782Y-135336704D02*
X188208020Y-135289085D01*
X188208020Y-135289085D02*
X188350877Y-135289085D01*
X188350877Y-135289085D02*
X188446115Y-135241466D01*
X188446115Y-135241466D02*
X188493734Y-135146228D01*
X188493734Y-135146228D02*
X188493734Y-135098609D01*
X188493734Y-135098609D02*
X188446115Y-135003371D01*
X188446115Y-135003371D02*
X188350877Y-134955752D01*
X188350877Y-134955752D02*
X188208020Y-134955752D01*
X188208020Y-134955752D02*
X188112782Y-135003371D01*
X183696115Y-135241466D02*
X182934211Y-135241466D01*
X183315163Y-135622419D02*
X183315163Y-134860514D01*
X136243734Y-135574800D02*
X136148496Y-135622419D01*
X136148496Y-135622419D02*
X135958020Y-135622419D01*
X135958020Y-135622419D02*
X135862782Y-135574800D01*
X135862782Y-135574800D02*
X135815163Y-135479561D01*
X135815163Y-135479561D02*
X135815163Y-135431942D01*
X135815163Y-135431942D02*
X135862782Y-135336704D01*
X135862782Y-135336704D02*
X135958020Y-135289085D01*
X135958020Y-135289085D02*
X136100877Y-135289085D01*
X136100877Y-135289085D02*
X136196115Y-135241466D01*
X136196115Y-135241466D02*
X136243734Y-135146228D01*
X136243734Y-135146228D02*
X136243734Y-135098609D01*
X136243734Y-135098609D02*
X136196115Y-135003371D01*
X136196115Y-135003371D02*
X136100877Y-134955752D01*
X136100877Y-134955752D02*
X135958020Y-134955752D01*
X135958020Y-134955752D02*
X135862782Y-135003371D01*
X133946115Y-135241466D02*
X133184211Y-135241466D01*
X131446115Y-135241466D02*
X130684211Y-135241466D01*
X131065163Y-135622419D02*
X131065163Y-134860514D01*
X127696115Y-135241466D02*
X126934211Y-135241466D01*
X125196115Y-135241466D02*
X124434211Y-135241466D01*
X124815163Y-135622419D02*
X124815163Y-134860514D01*
X120743734Y-135574800D02*
X120648496Y-135622419D01*
X120648496Y-135622419D02*
X120458020Y-135622419D01*
X120458020Y-135622419D02*
X120362782Y-135574800D01*
X120362782Y-135574800D02*
X120315163Y-135479561D01*
X120315163Y-135479561D02*
X120315163Y-135431942D01*
X120315163Y-135431942D02*
X120362782Y-135336704D01*
X120362782Y-135336704D02*
X120458020Y-135289085D01*
X120458020Y-135289085D02*
X120600877Y-135289085D01*
X120600877Y-135289085D02*
X120696115Y-135241466D01*
X120696115Y-135241466D02*
X120743734Y-135146228D01*
X120743734Y-135146228D02*
X120743734Y-135098609D01*
X120743734Y-135098609D02*
X120696115Y-135003371D01*
X120696115Y-135003371D02*
X120600877Y-134955752D01*
X120600877Y-134955752D02*
X120458020Y-134955752D01*
X120458020Y-134955752D02*
X120362782Y-135003371D01*
X118446115Y-135241466D02*
X117684211Y-135241466D01*
X115946115Y-135241466D02*
X115184211Y-135241466D01*
X115565163Y-135622419D02*
X115565163Y-134860514D01*
X111993734Y-135574800D02*
X111898496Y-135622419D01*
X111898496Y-135622419D02*
X111708020Y-135622419D01*
X111708020Y-135622419D02*
X111612782Y-135574800D01*
X111612782Y-135574800D02*
X111565163Y-135479561D01*
X111565163Y-135479561D02*
X111565163Y-135431942D01*
X111565163Y-135431942D02*
X111612782Y-135336704D01*
X111612782Y-135336704D02*
X111708020Y-135289085D01*
X111708020Y-135289085D02*
X111850877Y-135289085D01*
X111850877Y-135289085D02*
X111946115Y-135241466D01*
X111946115Y-135241466D02*
X111993734Y-135146228D01*
X111993734Y-135146228D02*
X111993734Y-135098609D01*
X111993734Y-135098609D02*
X111946115Y-135003371D01*
X111946115Y-135003371D02*
X111850877Y-134955752D01*
X111850877Y-134955752D02*
X111708020Y-134955752D01*
X111708020Y-134955752D02*
X111612782Y-135003371D01*
X109696115Y-135241466D02*
X108934211Y-135241466D01*
X107196115Y-135241466D02*
X106434211Y-135241466D01*
X106815163Y-135622419D02*
X106815163Y-134860514D01*
D11*
X135202380Y-143954819D02*
X135202380Y-142954819D01*
X135202380Y-142954819D02*
X134869047Y-143669104D01*
X134869047Y-143669104D02*
X134535714Y-142954819D01*
X134535714Y-142954819D02*
X134535714Y-143954819D01*
X134297619Y-144050057D02*
X133535714Y-144050057D01*
X133297618Y-143954819D02*
X133297618Y-142954819D01*
X132250000Y-143954819D02*
X132583333Y-143478628D01*
X132821428Y-143954819D02*
X132821428Y-142954819D01*
X132821428Y-142954819D02*
X132440476Y-142954819D01*
X132440476Y-142954819D02*
X132345238Y-143002438D01*
X132345238Y-143002438D02*
X132297619Y-143050057D01*
X132297619Y-143050057D02*
X132250000Y-143145295D01*
X132250000Y-143145295D02*
X132250000Y-143288152D01*
X132250000Y-143288152D02*
X132297619Y-143383390D01*
X132297619Y-143383390D02*
X132345238Y-143431009D01*
X132345238Y-143431009D02*
X132440476Y-143478628D01*
X132440476Y-143478628D02*
X132821428Y-143478628D01*
X127523809Y-143954819D02*
X127999999Y-143954819D01*
X127999999Y-143954819D02*
X127999999Y-142954819D01*
X127428571Y-144050057D02*
X126666666Y-144050057D01*
X126428570Y-143954819D02*
X126428570Y-142954819D01*
X126428570Y-142954819D02*
X126095237Y-143669104D01*
X126095237Y-143669104D02*
X125761904Y-142954819D01*
X125761904Y-142954819D02*
X125761904Y-143954819D01*
X125428570Y-142954819D02*
X124857142Y-142954819D01*
X125142856Y-143954819D02*
X125142856Y-142954819D01*
X123952380Y-143954819D02*
X124285713Y-143478628D01*
X124523808Y-143954819D02*
X124523808Y-142954819D01*
X124523808Y-142954819D02*
X124142856Y-142954819D01*
X124142856Y-142954819D02*
X124047618Y-143002438D01*
X124047618Y-143002438D02*
X123999999Y-143050057D01*
X123999999Y-143050057D02*
X123952380Y-143145295D01*
X123952380Y-143145295D02*
X123952380Y-143288152D01*
X123952380Y-143288152D02*
X123999999Y-143383390D01*
X123999999Y-143383390D02*
X124047618Y-143431009D01*
X124047618Y-143431009D02*
X124142856Y-143478628D01*
X124142856Y-143478628D02*
X124523808Y-143478628D01*
X170483809Y-143954819D02*
X170817142Y-143478628D01*
X171055237Y-143954819D02*
X171055237Y-142954819D01*
X171055237Y-142954819D02*
X170674285Y-142954819D01*
X170674285Y-142954819D02*
X170579047Y-143002438D01*
X170579047Y-143002438D02*
X170531428Y-143050057D01*
X170531428Y-143050057D02*
X170483809Y-143145295D01*
X170483809Y-143145295D02*
X170483809Y-143288152D01*
X170483809Y-143288152D02*
X170531428Y-143383390D01*
X170531428Y-143383390D02*
X170579047Y-143431009D01*
X170579047Y-143431009D02*
X170674285Y-143478628D01*
X170674285Y-143478628D02*
X171055237Y-143478628D01*
X170293333Y-144050057D02*
X169531428Y-144050057D01*
X169293332Y-143954819D02*
X169293332Y-142954819D01*
X169293332Y-142954819D02*
X168959999Y-143669104D01*
X168959999Y-143669104D02*
X168626666Y-142954819D01*
X168626666Y-142954819D02*
X168626666Y-143954819D01*
X168293332Y-142954819D02*
X167721904Y-142954819D01*
X168007618Y-143954819D02*
X168007618Y-142954819D01*
X166817142Y-143954819D02*
X167150475Y-143478628D01*
X167388570Y-143954819D02*
X167388570Y-142954819D01*
X167388570Y-142954819D02*
X167007618Y-142954819D01*
X167007618Y-142954819D02*
X166912380Y-143002438D01*
X166912380Y-143002438D02*
X166864761Y-143050057D01*
X166864761Y-143050057D02*
X166817142Y-143145295D01*
X166817142Y-143145295D02*
X166817142Y-143288152D01*
X166817142Y-143288152D02*
X166864761Y-143383390D01*
X166864761Y-143383390D02*
X166912380Y-143431009D01*
X166912380Y-143431009D02*
X167007618Y-143478628D01*
X167007618Y-143478628D02*
X167388570Y-143478628D01*
X187330238Y-143954819D02*
X187663571Y-143478628D01*
X187901666Y-143954819D02*
X187901666Y-142954819D01*
X187901666Y-142954819D02*
X187520714Y-142954819D01*
X187520714Y-142954819D02*
X187425476Y-143002438D01*
X187425476Y-143002438D02*
X187377857Y-143050057D01*
X187377857Y-143050057D02*
X187330238Y-143145295D01*
X187330238Y-143145295D02*
X187330238Y-143288152D01*
X187330238Y-143288152D02*
X187377857Y-143383390D01*
X187377857Y-143383390D02*
X187425476Y-143431009D01*
X187425476Y-143431009D02*
X187520714Y-143478628D01*
X187520714Y-143478628D02*
X187901666Y-143478628D01*
X187139762Y-144050057D02*
X186377857Y-144050057D01*
X185663571Y-143954819D02*
X186139761Y-143954819D01*
X186139761Y-143954819D02*
X186139761Y-142954819D01*
X185330237Y-143954819D02*
X185330237Y-143288152D01*
X185330237Y-142954819D02*
X185377856Y-143002438D01*
X185377856Y-143002438D02*
X185330237Y-143050057D01*
X185330237Y-143050057D02*
X185282618Y-143002438D01*
X185282618Y-143002438D02*
X185330237Y-142954819D01*
X185330237Y-142954819D02*
X185330237Y-143050057D01*
X184854047Y-143288152D02*
X184854047Y-143954819D01*
X184854047Y-143383390D02*
X184806428Y-143335771D01*
X184806428Y-143335771D02*
X184711190Y-143288152D01*
X184711190Y-143288152D02*
X184568333Y-143288152D01*
X184568333Y-143288152D02*
X184473095Y-143335771D01*
X184473095Y-143335771D02*
X184425476Y-143431009D01*
X184425476Y-143431009D02*
X184425476Y-143954819D01*
X183568333Y-143907200D02*
X183663571Y-143954819D01*
X183663571Y-143954819D02*
X183854047Y-143954819D01*
X183854047Y-143954819D02*
X183949285Y-143907200D01*
X183949285Y-143907200D02*
X183996904Y-143811961D01*
X183996904Y-143811961D02*
X183996904Y-143431009D01*
X183996904Y-143431009D02*
X183949285Y-143335771D01*
X183949285Y-143335771D02*
X183854047Y-143288152D01*
X183854047Y-143288152D02*
X183663571Y-143288152D01*
X183663571Y-143288152D02*
X183568333Y-143335771D01*
X183568333Y-143335771D02*
X183520714Y-143431009D01*
X183520714Y-143431009D02*
X183520714Y-143526247D01*
X183520714Y-143526247D02*
X183996904Y-143621485D01*
X177519523Y-143954819D02*
X177852856Y-143478628D01*
X178090951Y-143954819D02*
X178090951Y-142954819D01*
X178090951Y-142954819D02*
X177709999Y-142954819D01*
X177709999Y-142954819D02*
X177614761Y-143002438D01*
X177614761Y-143002438D02*
X177567142Y-143050057D01*
X177567142Y-143050057D02*
X177519523Y-143145295D01*
X177519523Y-143145295D02*
X177519523Y-143288152D01*
X177519523Y-143288152D02*
X177567142Y-143383390D01*
X177567142Y-143383390D02*
X177614761Y-143431009D01*
X177614761Y-143431009D02*
X177709999Y-143478628D01*
X177709999Y-143478628D02*
X178090951Y-143478628D01*
X177329047Y-144050057D02*
X176567142Y-144050057D01*
X176329046Y-143954819D02*
X176329046Y-142954819D01*
X175281428Y-143954819D02*
X175614761Y-143478628D01*
X175852856Y-143954819D02*
X175852856Y-142954819D01*
X175852856Y-142954819D02*
X175471904Y-142954819D01*
X175471904Y-142954819D02*
X175376666Y-143002438D01*
X175376666Y-143002438D02*
X175329047Y-143050057D01*
X175329047Y-143050057D02*
X175281428Y-143145295D01*
X175281428Y-143145295D02*
X175281428Y-143288152D01*
X175281428Y-143288152D02*
X175329047Y-143383390D01*
X175329047Y-143383390D02*
X175376666Y-143431009D01*
X175376666Y-143431009D02*
X175471904Y-143478628D01*
X175471904Y-143478628D02*
X175852856Y-143478628D01*
X119084523Y-143954819D02*
X119560713Y-143954819D01*
X119560713Y-143954819D02*
X119560713Y-142954819D01*
X118989285Y-144050057D02*
X118227380Y-144050057D01*
X117989284Y-143954819D02*
X117989284Y-142954819D01*
X116941666Y-143954819D02*
X117274999Y-143478628D01*
X117513094Y-143954819D02*
X117513094Y-142954819D01*
X117513094Y-142954819D02*
X117132142Y-142954819D01*
X117132142Y-142954819D02*
X117036904Y-143002438D01*
X117036904Y-143002438D02*
X116989285Y-143050057D01*
X116989285Y-143050057D02*
X116941666Y-143145295D01*
X116941666Y-143145295D02*
X116941666Y-143288152D01*
X116941666Y-143288152D02*
X116989285Y-143383390D01*
X116989285Y-143383390D02*
X117036904Y-143431009D01*
X117036904Y-143431009D02*
X117132142Y-143478628D01*
X117132142Y-143478628D02*
X117513094Y-143478628D01*
X110925238Y-143954819D02*
X111401428Y-143954819D01*
X111401428Y-143954819D02*
X111401428Y-142954819D01*
X110830000Y-144050057D02*
X110068095Y-144050057D01*
X109353809Y-143954819D02*
X109829999Y-143954819D01*
X109829999Y-143954819D02*
X109829999Y-142954819D01*
X109020475Y-143954819D02*
X109020475Y-143288152D01*
X109020475Y-142954819D02*
X109068094Y-143002438D01*
X109068094Y-143002438D02*
X109020475Y-143050057D01*
X109020475Y-143050057D02*
X108972856Y-143002438D01*
X108972856Y-143002438D02*
X109020475Y-142954819D01*
X109020475Y-142954819D02*
X109020475Y-143050057D01*
X108544285Y-143288152D02*
X108544285Y-143954819D01*
X108544285Y-143383390D02*
X108496666Y-143335771D01*
X108496666Y-143335771D02*
X108401428Y-143288152D01*
X108401428Y-143288152D02*
X108258571Y-143288152D01*
X108258571Y-143288152D02*
X108163333Y-143335771D01*
X108163333Y-143335771D02*
X108115714Y-143431009D01*
X108115714Y-143431009D02*
X108115714Y-143954819D01*
X107258571Y-143907200D02*
X107353809Y-143954819D01*
X107353809Y-143954819D02*
X107544285Y-143954819D01*
X107544285Y-143954819D02*
X107639523Y-143907200D01*
X107639523Y-143907200D02*
X107687142Y-143811961D01*
X107687142Y-143811961D02*
X107687142Y-143431009D01*
X107687142Y-143431009D02*
X107639523Y-143335771D01*
X107639523Y-143335771D02*
X107544285Y-143288152D01*
X107544285Y-143288152D02*
X107353809Y-143288152D01*
X107353809Y-143288152D02*
X107258571Y-143335771D01*
X107258571Y-143335771D02*
X107210952Y-143431009D01*
X107210952Y-143431009D02*
X107210952Y-143526247D01*
X107210952Y-143526247D02*
X107687142Y-143621485D01*
D12*
X163195900Y-128028000D02*
G75*
G02*
X162433900Y-128028000I-381000J0D01*
G01*
X162433900Y-128028000D02*
G75*
G02*
X163195900Y-128028000I381000J0D01*
G01*
D13*
X132520000Y-142080000D02*
X137660000Y-142080000D01*
X132520000Y-142080000D02*
X132520000Y-139420000D01*
X137660000Y-142080000D02*
X137660000Y-139420000D01*
X129920000Y-140750000D02*
X129920000Y-139420000D01*
X129920000Y-139420000D02*
X131250000Y-139420000D01*
X132520000Y-139420000D02*
X137660000Y-139420000D01*
X126020000Y-142055000D02*
X128620000Y-142055000D01*
X126020000Y-142055000D02*
X126020000Y-139395000D01*
X128620000Y-142055000D02*
X128620000Y-139395000D01*
X123420000Y-140725000D02*
X123420000Y-139395000D01*
X123420000Y-139395000D02*
X124750000Y-139395000D01*
X126020000Y-139395000D02*
X128620000Y-139395000D01*
X168980000Y-142055000D02*
X171580000Y-142055000D01*
X168980000Y-142055000D02*
X168980000Y-139395000D01*
X171580000Y-142055000D02*
X171580000Y-139395000D01*
X166380000Y-140725000D02*
X166380000Y-139395000D01*
X166380000Y-139395000D02*
X167710000Y-139395000D01*
X168980000Y-139395000D02*
X171580000Y-139395000D01*
X184480000Y-139420000D02*
X189620000Y-139420000D01*
X181880000Y-139420000D02*
X183210000Y-139420000D01*
X181880000Y-140750000D02*
X181880000Y-139420000D01*
X189620000Y-142080000D02*
X189620000Y-139420000D01*
X184480000Y-142080000D02*
X184480000Y-139420000D01*
X184480000Y-142080000D02*
X189620000Y-142080000D01*
X175440000Y-139420000D02*
X180580000Y-139420000D01*
X172840000Y-139420000D02*
X174170000Y-139420000D01*
X172840000Y-140750000D02*
X172840000Y-139420000D01*
X180580000Y-142080000D02*
X180580000Y-139420000D01*
X175440000Y-142080000D02*
X175440000Y-139420000D01*
X175440000Y-142080000D02*
X180580000Y-142080000D01*
X117020000Y-142080000D02*
X122160000Y-142080000D01*
X117020000Y-142080000D02*
X117020000Y-139420000D01*
X122160000Y-142080000D02*
X122160000Y-139420000D01*
X114420000Y-140750000D02*
X114420000Y-139420000D01*
X114420000Y-139420000D02*
X115750000Y-139420000D01*
X117020000Y-139420000D02*
X122160000Y-139420000D01*
X108060000Y-139420000D02*
X113200000Y-139420000D01*
X105460000Y-139420000D02*
X106790000Y-139420000D01*
X105460000Y-140750000D02*
X105460000Y-139420000D01*
X113200000Y-142080000D02*
X113200000Y-139420000D01*
X108060000Y-142080000D02*
X108060000Y-139420000D01*
X108060000Y-142080000D02*
X113200000Y-142080000D01*
%LPC*%
D14*
X170394900Y-127028000D03*
X167854900Y-127028000D03*
X165314900Y-127028000D03*
D15*
X189750000Y-125250000D03*
X105250000Y-125250000D03*
D16*
X131250000Y-140750000D03*
D17*
X133790000Y-140750000D03*
X136330000Y-140750000D03*
D16*
X124750000Y-140725000D03*
D17*
X127290000Y-140725000D03*
D16*
X167710000Y-140725000D03*
D17*
X170250000Y-140725000D03*
X188290000Y-140750000D03*
X185750000Y-140750000D03*
D16*
X183210000Y-140750000D03*
D17*
X179250000Y-140750000D03*
X176710000Y-140750000D03*
D16*
X174170000Y-140750000D03*
X115750000Y-140750000D03*
D17*
X118290000Y-140750000D03*
X120830000Y-140750000D03*
D18*
X192040000Y-131800000D03*
X189500000Y-147040000D03*
X189500000Y-131800000D03*
X192040000Y-147040000D03*
X186960000Y-147040000D03*
X184420000Y-147040000D03*
X181880000Y-147040000D03*
X179340000Y-147040000D03*
X176800000Y-147040000D03*
X174260000Y-147040000D03*
X171720000Y-147040000D03*
X169180000Y-147040000D03*
X169180000Y-131800000D03*
X171720000Y-131800000D03*
X174260000Y-131800000D03*
X176800000Y-131800000D03*
X179340000Y-131800000D03*
X181880000Y-131800000D03*
X184420000Y-131800000D03*
X186960000Y-131800000D03*
D19*
X127560000Y-133520000D03*
D20*
X127560000Y-130980000D03*
X119940000Y-130980000D03*
X119940000Y-133520000D03*
D21*
X119750000Y-124250000D03*
D22*
X124450000Y-124250000D03*
X129150000Y-124250000D03*
D23*
X138500000Y-125250000D03*
X138500000Y-126520000D03*
D24*
X138500000Y-127790000D03*
D25*
X142510000Y-127744999D03*
X150130000Y-127744999D03*
X157750000Y-127744999D03*
X160290000Y-127744999D03*
D26*
X177250000Y-124500000D03*
D27*
X182250000Y-124500000D03*
D17*
X112000000Y-131500000D03*
X109460000Y-131500000D03*
X106920000Y-131500000D03*
D16*
X104380000Y-131500000D03*
D17*
X111870000Y-140750000D03*
X109330000Y-140750000D03*
D16*
X106790000Y-140750000D03*
%LPD*%
M02*
