G04 #@! TF.GenerationSoftware,KiCad,Pcbnew,8.0.3*
G04 #@! TF.CreationDate,2025-05-14T17:31:42-04:00*
G04 #@! TF.ProjectId,Sp-I,53702d49-2e6b-4696-9361-645f70636258,rev?*
G04 #@! TF.SameCoordinates,Original*
G04 #@! TF.FileFunction,Soldermask,Bot*
G04 #@! TF.FilePolarity,Negative*
%FSLAX46Y46*%
G04 Gerber Fmt 4.6, Leading zero omitted, Abs format (unit mm)*
G04 Created by KiCad (PCBNEW 8.0.3) date 2025-05-14 17:31:42*
%MOMM*%
%LPD*%
G01*
G04 APERTURE LIST*
G04 Aperture macros list*
%AMRoundRect*
0 Rectangle with rounded corners*
0 $1 Rounding radius*
0 $2 $3 $4 $5 $6 $7 $8 $9 X,Y pos of 4 corners*
0 Add a 4 corners polygon primitive as box body*
4,1,4,$2,$3,$4,$5,$6,$7,$8,$9,$2,$3,0*
0 Add four circle primitives for the rounded corners*
1,1,$1+$1,$2,$3*
1,1,$1+$1,$4,$5*
1,1,$1+$1,$6,$7*
1,1,$1+$1,$8,$9*
0 Add four rect primitives between the rounded corners*
20,1,$1+$1,$2,$3,$4,$5,0*
20,1,$1+$1,$4,$5,$6,$7,0*
20,1,$1+$1,$6,$7,$8,$9,0*
20,1,$1+$1,$8,$9,$2,$3,0*%
G04 Aperture macros list end*
%ADD10C,1.270000*%
%ADD11C,3.000000*%
%ADD12R,1.700000X1.700000*%
%ADD13O,1.700000X1.700000*%
%ADD14C,1.665000*%
%ADD15R,1.300000X1.300000*%
%ADD16C,1.300000*%
%ADD17RoundRect,0.102000X1.225000X-1.225000X1.225000X1.225000X-1.225000X1.225000X-1.225000X-1.225000X0*%
%ADD18C,2.654000*%
%ADD19O,1.500000X1.050000*%
%ADD20R,1.500000X1.050000*%
%ADD21C,1.600200*%
%ADD22C,4.000000*%
%ADD23R,3.800000X3.800000*%
G04 APERTURE END LIST*
D10*
X170394900Y-127028000D03*
X167854900Y-127028000D03*
X165314900Y-127028000D03*
D11*
X189750000Y-125250000D03*
X105250000Y-125250000D03*
D12*
X131250000Y-140750000D03*
D13*
X133790000Y-140750000D03*
X136330000Y-140750000D03*
D12*
X124750000Y-140725000D03*
D13*
X127290000Y-140725000D03*
D12*
X167710000Y-140725000D03*
D13*
X170250000Y-140725000D03*
X188290000Y-140750000D03*
X185750000Y-140750000D03*
D12*
X183210000Y-140750000D03*
D13*
X179250000Y-140750000D03*
X176710000Y-140750000D03*
D12*
X174170000Y-140750000D03*
X115750000Y-140750000D03*
D13*
X118290000Y-140750000D03*
X120830000Y-140750000D03*
D14*
X192040000Y-131800000D03*
X189500000Y-147040000D03*
X189500000Y-131800000D03*
X192040000Y-147040000D03*
X186960000Y-147040000D03*
X184420000Y-147040000D03*
X181880000Y-147040000D03*
X179340000Y-147040000D03*
X176800000Y-147040000D03*
X174260000Y-147040000D03*
X171720000Y-147040000D03*
X169180000Y-147040000D03*
X169180000Y-131800000D03*
X171720000Y-131800000D03*
X174260000Y-131800000D03*
X176800000Y-131800000D03*
X179340000Y-131800000D03*
X181880000Y-131800000D03*
X184420000Y-131800000D03*
X186960000Y-131800000D03*
D15*
X127560000Y-133520000D03*
D16*
X127560000Y-130980000D03*
X119940000Y-130980000D03*
X119940000Y-133520000D03*
D17*
X119750000Y-124250000D03*
D18*
X124450000Y-124250000D03*
X129150000Y-124250000D03*
D19*
X138500000Y-125250000D03*
X138500000Y-126520000D03*
D20*
X138500000Y-127790000D03*
D21*
X142510000Y-127744999D03*
X150130000Y-127744999D03*
X157750000Y-127744999D03*
X160290000Y-127744999D03*
D22*
X177250000Y-124500000D03*
D23*
X182250000Y-124500000D03*
D13*
X112000000Y-131500000D03*
X109460000Y-131500000D03*
X106920000Y-131500000D03*
D12*
X104380000Y-131500000D03*
D13*
X111870000Y-140750000D03*
X109330000Y-140750000D03*
D12*
X106790000Y-140750000D03*
M02*
