%TF.GenerationSoftware,KiCad,Pcbnew,8.0.3*%
%TF.CreationDate,2025-05-14T17:31:46-04:00*%
%TF.ProjectId,Sp-I,53702d49-2e6b-4696-9361-645f70636258,rev?*%
%TF.SameCoordinates,Original*%
%TF.FileFunction,Drillmap*%
%TF.FilePolarity,Positive*%
%FSLAX45Y45*%
G04 Gerber Fmt 4.5, Leading zero omitted, Abs format (unit mm)*
G04 Created by KiCad (PCBNEW 8.0.3) date 2025-05-14 17:31:46*
%MOMM*%
%LPD*%
G01*
G04 APERTURE LIST*
%ADD10C,0.050000*%
%ADD11C,0.200000*%
%ADD12C,0.100000*%
%ADD13C,0.109220*%
%ADD14C,0.111000*%
%ADD15C,0.185000*%
%ADD16C,0.270000*%
G04 APERTURE END LIST*
D10*
X10000000Y-12000000D02*
X19500000Y-12000000D01*
X19500000Y-15000000D01*
X10000000Y-15000000D01*
X10000000Y-12000000D01*
D11*
D12*
X10085000Y-13285000D02*
X10115000Y-13315000D01*
X10115000Y-13285000D02*
X10085000Y-13315000D01*
X13656015Y-14415000D02*
X13686015Y-14445000D01*
X13686015Y-14415000D02*
X13656015Y-14445000D01*
X14585000Y-14415000D02*
X14615000Y-14445000D01*
X14615000Y-14415000D02*
X14585000Y-14445000D01*
X14816095Y-13110000D02*
X14846095Y-13140000D01*
X14846095Y-13110000D02*
X14816095Y-13140000D01*
X15085000Y-13403750D02*
X15115000Y-13433750D01*
X15115000Y-13403750D02*
X15085000Y-13433750D01*
X15281944Y-13185000D02*
X15311944Y-13215000D01*
X15311944Y-13185000D02*
X15281944Y-13215000D01*
X15286013Y-13264897D02*
X15316013Y-13294897D01*
X15316013Y-13264897D02*
X15286013Y-13294897D01*
X15604500Y-14178940D02*
X15634500Y-14208940D01*
X15634500Y-14178940D02*
X15604500Y-14208940D01*
X15731500Y-14178940D02*
X15761500Y-14208940D01*
X15761500Y-14178940D02*
X15731500Y-14208940D01*
X16077500Y-13603940D02*
X16107500Y-13633940D01*
X16107500Y-13603940D02*
X16077500Y-13633940D01*
X16204500Y-14178940D02*
X16234500Y-14208940D01*
X16234500Y-14178940D02*
X16204500Y-14208940D01*
X16217176Y-13040000D02*
X16247176Y-13070000D01*
X16247176Y-13040000D02*
X16217176Y-13070000D01*
X16302028Y-13040000D02*
X16332028Y-13070000D01*
X16332028Y-13040000D02*
X16302028Y-13070000D01*
X16331500Y-13603940D02*
X16361500Y-13633940D01*
X16361500Y-13603940D02*
X16331500Y-13633940D01*
X16331500Y-14178940D02*
X16361500Y-14208940D01*
X16361500Y-14178940D02*
X16331500Y-14208940D01*
X13887500Y-12525000D02*
G75*
G02*
X13812500Y-12525000I-37500J0D01*
G01*
X13812500Y-12525000D02*
G75*
G02*
X13887500Y-12525000I37500J0D01*
G01*
X13887500Y-12652000D02*
G75*
G02*
X13812500Y-12652000I-37500J0D01*
G01*
X13812500Y-12652000D02*
G75*
G02*
X13887500Y-12652000I37500J0D01*
G01*
X13887500Y-12779000D02*
G75*
G02*
X13812500Y-12779000I-37500J0D01*
G01*
X13812500Y-12779000D02*
G75*
G02*
X13887500Y-12779000I37500J0D01*
G01*
X16531490Y-12664700D02*
X16531490Y-12740900D01*
X16493390Y-12702800D02*
X16569590Y-12702800D01*
X16785490Y-12664700D02*
X16785490Y-12740900D01*
X16747390Y-12702800D02*
X16823590Y-12702800D01*
X17039490Y-12664700D02*
X17039490Y-12740900D01*
X17001390Y-12702800D02*
X17077590Y-12702800D01*
X12022284Y-13126284D02*
X12022284Y-13069715D01*
X11965715Y-13069715D01*
X11965715Y-13126284D01*
X12022284Y-13126284D01*
X12022284Y-13380284D02*
X12022284Y-13323715D01*
X11965715Y-13323715D01*
X11965715Y-13380284D01*
X12022284Y-13380284D01*
X12784284Y-13126284D02*
X12784284Y-13069715D01*
X12727715Y-13069715D01*
X12727715Y-13126284D01*
X12784284Y-13126284D01*
X12784284Y-13380284D02*
X12784284Y-13323715D01*
X12727715Y-13323715D01*
X12727715Y-13380284D01*
X12784284Y-13380284D01*
X10438000Y-13200000D02*
X10488000Y-13150000D01*
X10438000Y-13100000D01*
X10388000Y-13150000D01*
X10438000Y-13200000D01*
X10679000Y-14125000D02*
X10729000Y-14075000D01*
X10679000Y-14025000D01*
X10629000Y-14075000D01*
X10679000Y-14125000D01*
X10692000Y-13200000D02*
X10742000Y-13150000D01*
X10692000Y-13100000D01*
X10642000Y-13150000D01*
X10692000Y-13200000D01*
X10933000Y-14125000D02*
X10983000Y-14075000D01*
X10933000Y-14025000D01*
X10883000Y-14075000D01*
X10933000Y-14125000D01*
X10946000Y-13200000D02*
X10996000Y-13150000D01*
X10946000Y-13100000D01*
X10896000Y-13150000D01*
X10946000Y-13200000D01*
X11187000Y-14125000D02*
X11237000Y-14075000D01*
X11187000Y-14025000D01*
X11137000Y-14075000D01*
X11187000Y-14125000D01*
X11200000Y-13200000D02*
X11250000Y-13150000D01*
X11200000Y-13100000D01*
X11150000Y-13150000D01*
X11200000Y-13200000D01*
X11575000Y-14125000D02*
X11625000Y-14075000D01*
X11575000Y-14025000D01*
X11525000Y-14075000D01*
X11575000Y-14125000D01*
X11829000Y-14125000D02*
X11879000Y-14075000D01*
X11829000Y-14025000D01*
X11779000Y-14075000D01*
X11829000Y-14125000D01*
X12083000Y-14125000D02*
X12133000Y-14075000D01*
X12083000Y-14025000D01*
X12033000Y-14075000D01*
X12083000Y-14125000D01*
X12475000Y-14122500D02*
X12525000Y-14072500D01*
X12475000Y-14022500D01*
X12425000Y-14072500D01*
X12475000Y-14122500D01*
X12729000Y-14122500D02*
X12779000Y-14072500D01*
X12729000Y-14022500D01*
X12679000Y-14072500D01*
X12729000Y-14122500D01*
X13125000Y-14125000D02*
X13175000Y-14075000D01*
X13125000Y-14025000D01*
X13075000Y-14075000D01*
X13125000Y-14125000D01*
X13379000Y-14125000D02*
X13429000Y-14075000D01*
X13379000Y-14025000D01*
X13329000Y-14075000D01*
X13379000Y-14125000D01*
X13633000Y-14125000D02*
X13683000Y-14075000D01*
X13633000Y-14025000D01*
X13583000Y-14075000D01*
X13633000Y-14125000D01*
X16771000Y-14122500D02*
X16821000Y-14072500D01*
X16771000Y-14022500D01*
X16721000Y-14072500D01*
X16771000Y-14122500D01*
X17025000Y-14122500D02*
X17075000Y-14072500D01*
X17025000Y-14022500D01*
X16975000Y-14072500D01*
X17025000Y-14122500D01*
X17417000Y-14125000D02*
X17467000Y-14075000D01*
X17417000Y-14025000D01*
X17367000Y-14075000D01*
X17417000Y-14125000D01*
X17671000Y-14125000D02*
X17721000Y-14075000D01*
X17671000Y-14025000D01*
X17621000Y-14075000D01*
X17671000Y-14125000D01*
X17925000Y-14125000D02*
X17975000Y-14075000D01*
X17925000Y-14025000D01*
X17875000Y-14075000D01*
X17925000Y-14125000D01*
X18321000Y-14125000D02*
X18371000Y-14075000D01*
X18321000Y-14025000D01*
X18271000Y-14075000D01*
X18321000Y-14125000D01*
X18575000Y-14125000D02*
X18625000Y-14075000D01*
X18575000Y-14025000D01*
X18525000Y-14075000D01*
X18575000Y-14125000D01*
X18829000Y-14125000D02*
X18879000Y-14075000D01*
X18829000Y-14025000D01*
X18779000Y-14075000D01*
X18829000Y-14125000D01*
D13*
X14196390Y-12719890D02*
X14305610Y-12829110D01*
X14305610Y-12719890D02*
X14196390Y-12829110D01*
X14305610Y-12774500D02*
G75*
G02*
X14196390Y-12774500I-54610J0D01*
G01*
X14196390Y-12774500D02*
G75*
G02*
X14305610Y-12774500I54610J0D01*
G01*
X14958390Y-12719890D02*
X15067610Y-12829110D01*
X15067610Y-12719890D02*
X14958390Y-12829110D01*
X15067610Y-12774500D02*
G75*
G02*
X14958390Y-12774500I-54610J0D01*
G01*
X14958390Y-12774500D02*
G75*
G02*
X15067610Y-12774500I54610J0D01*
G01*
X15720390Y-12719890D02*
X15829610Y-12829110D01*
X15829610Y-12719890D02*
X15720390Y-12829110D01*
X15829610Y-12774500D02*
G75*
G02*
X15720390Y-12774500I-54610J0D01*
G01*
X15720390Y-12774500D02*
G75*
G02*
X15829610Y-12774500I54610J0D01*
G01*
X15974390Y-12719890D02*
X16083610Y-12829110D01*
X16083610Y-12719890D02*
X15974390Y-12829110D01*
X16083610Y-12774500D02*
G75*
G02*
X15974390Y-12774500I-54610J0D01*
G01*
X15974390Y-12774500D02*
G75*
G02*
X16083610Y-12774500I54610J0D01*
G01*
D14*
X16862500Y-13124500D02*
X16973500Y-13235500D01*
X16973500Y-13124500D02*
X16862500Y-13235500D01*
X16918000Y-13124500D02*
X16918000Y-13235500D01*
X16862500Y-13180000D02*
X16973500Y-13180000D01*
X16862500Y-14648500D02*
X16973500Y-14759500D01*
X16973500Y-14648500D02*
X16862500Y-14759500D01*
X16918000Y-14648500D02*
X16918000Y-14759500D01*
X16862500Y-14704000D02*
X16973500Y-14704000D01*
X17116500Y-13124500D02*
X17227500Y-13235500D01*
X17227500Y-13124500D02*
X17116500Y-13235500D01*
X17172000Y-13124500D02*
X17172000Y-13235500D01*
X17116500Y-13180000D02*
X17227500Y-13180000D01*
X17116500Y-14648500D02*
X17227500Y-14759500D01*
X17227500Y-14648500D02*
X17116500Y-14759500D01*
X17172000Y-14648500D02*
X17172000Y-14759500D01*
X17116500Y-14704000D02*
X17227500Y-14704000D01*
X17370500Y-13124500D02*
X17481500Y-13235500D01*
X17481500Y-13124500D02*
X17370500Y-13235500D01*
X17426000Y-13124500D02*
X17426000Y-13235500D01*
X17370500Y-13180000D02*
X17481500Y-13180000D01*
X17370500Y-14648500D02*
X17481500Y-14759500D01*
X17481500Y-14648500D02*
X17370500Y-14759500D01*
X17426000Y-14648500D02*
X17426000Y-14759500D01*
X17370500Y-14704000D02*
X17481500Y-14704000D01*
X17624500Y-13124500D02*
X17735500Y-13235500D01*
X17735500Y-13124500D02*
X17624500Y-13235500D01*
X17680000Y-13124500D02*
X17680000Y-13235500D01*
X17624500Y-13180000D02*
X17735500Y-13180000D01*
X17624500Y-14648500D02*
X17735500Y-14759500D01*
X17735500Y-14648500D02*
X17624500Y-14759500D01*
X17680000Y-14648500D02*
X17680000Y-14759500D01*
X17624500Y-14704000D02*
X17735500Y-14704000D01*
X17878500Y-13124500D02*
X17989500Y-13235500D01*
X17989500Y-13124500D02*
X17878500Y-13235500D01*
X17934000Y-13124500D02*
X17934000Y-13235500D01*
X17878500Y-13180000D02*
X17989500Y-13180000D01*
X17878500Y-14648500D02*
X17989500Y-14759500D01*
X17989500Y-14648500D02*
X17878500Y-14759500D01*
X17934000Y-14648500D02*
X17934000Y-14759500D01*
X17878500Y-14704000D02*
X17989500Y-14704000D01*
X18132500Y-13124500D02*
X18243500Y-13235500D01*
X18243500Y-13124500D02*
X18132500Y-13235500D01*
X18188000Y-13124500D02*
X18188000Y-13235500D01*
X18132500Y-13180000D02*
X18243500Y-13180000D01*
X18132500Y-14648500D02*
X18243500Y-14759500D01*
X18243500Y-14648500D02*
X18132500Y-14759500D01*
X18188000Y-14648500D02*
X18188000Y-14759500D01*
X18132500Y-14704000D02*
X18243500Y-14704000D01*
X18386500Y-13124500D02*
X18497500Y-13235500D01*
X18497500Y-13124500D02*
X18386500Y-13235500D01*
X18442000Y-13124500D02*
X18442000Y-13235500D01*
X18386500Y-13180000D02*
X18497500Y-13180000D01*
X18386500Y-14648500D02*
X18497500Y-14759500D01*
X18497500Y-14648500D02*
X18386500Y-14759500D01*
X18442000Y-14648500D02*
X18442000Y-14759500D01*
X18386500Y-14704000D02*
X18497500Y-14704000D01*
X18640500Y-13124500D02*
X18751500Y-13235500D01*
X18751500Y-13124500D02*
X18640500Y-13235500D01*
X18696000Y-13124500D02*
X18696000Y-13235500D01*
X18640500Y-13180000D02*
X18751500Y-13180000D01*
X18640500Y-14648500D02*
X18751500Y-14759500D01*
X18751500Y-14648500D02*
X18640500Y-14759500D01*
X18696000Y-14648500D02*
X18696000Y-14759500D01*
X18640500Y-14704000D02*
X18751500Y-14704000D01*
X18894500Y-13124500D02*
X19005500Y-13235500D01*
X19005500Y-13124500D02*
X18894500Y-13235500D01*
X18950000Y-13124500D02*
X18950000Y-13235500D01*
X18894500Y-13180000D02*
X19005500Y-13180000D01*
X18894500Y-14648500D02*
X19005500Y-14759500D01*
X19005500Y-14648500D02*
X18894500Y-14759500D01*
X18950000Y-14648500D02*
X18950000Y-14759500D01*
X18894500Y-14704000D02*
X19005500Y-14704000D01*
X19148500Y-13124500D02*
X19259500Y-13235500D01*
X19259500Y-13124500D02*
X19148500Y-13235500D01*
X19204000Y-13124500D02*
X19204000Y-13235500D01*
X19148500Y-13180000D02*
X19259500Y-13180000D01*
X19148500Y-14648500D02*
X19259500Y-14759500D01*
X19259500Y-14648500D02*
X19148500Y-14759500D01*
X19204000Y-14648500D02*
X19204000Y-14759500D01*
X19148500Y-14704000D02*
X19259500Y-14704000D01*
D15*
X11882500Y-12332500D02*
X12067500Y-12517500D01*
X12067500Y-12332500D02*
X11882500Y-12517500D01*
X12040408Y-12490408D02*
X12040408Y-12359592D01*
X11909592Y-12359592D01*
X11909592Y-12490408D01*
X12040408Y-12490408D01*
X12352500Y-12332500D02*
X12537500Y-12517500D01*
X12537500Y-12332500D02*
X12352500Y-12517500D01*
X12510408Y-12490408D02*
X12510408Y-12359592D01*
X12379592Y-12359592D01*
X12379592Y-12490408D01*
X12510408Y-12490408D01*
X12822500Y-12332500D02*
X13007500Y-12517500D01*
X13007500Y-12332500D02*
X12822500Y-12517500D01*
X12980408Y-12490408D02*
X12980408Y-12359592D01*
X12849592Y-12359592D01*
X12849592Y-12490408D01*
X12980408Y-12490408D01*
D16*
X17590000Y-12315000D02*
X17860000Y-12585000D01*
X17860000Y-12315000D02*
X17590000Y-12585000D01*
X17725000Y-12585000D02*
X17860000Y-12450000D01*
X17725000Y-12315000D01*
X17590000Y-12450000D01*
X17725000Y-12585000D01*
X18090000Y-12315000D02*
X18360000Y-12585000D01*
X18360000Y-12315000D02*
X18090000Y-12585000D01*
X18225000Y-12585000D02*
X18360000Y-12450000D01*
X18225000Y-12315000D01*
X18090000Y-12450000D01*
X18225000Y-12585000D01*
D11*
X10258277Y-15313984D02*
X10258277Y-15113984D01*
X10258277Y-15113984D02*
X10305896Y-15113984D01*
X10305896Y-15113984D02*
X10334467Y-15123508D01*
X10334467Y-15123508D02*
X10353515Y-15142555D01*
X10353515Y-15142555D02*
X10363039Y-15161603D01*
X10363039Y-15161603D02*
X10372563Y-15199698D01*
X10372563Y-15199698D02*
X10372563Y-15228269D01*
X10372563Y-15228269D02*
X10363039Y-15266365D01*
X10363039Y-15266365D02*
X10353515Y-15285412D01*
X10353515Y-15285412D02*
X10334467Y-15304460D01*
X10334467Y-15304460D02*
X10305896Y-15313984D01*
X10305896Y-15313984D02*
X10258277Y-15313984D01*
X10458277Y-15313984D02*
X10458277Y-15180650D01*
X10458277Y-15218746D02*
X10467801Y-15199698D01*
X10467801Y-15199698D02*
X10477324Y-15190174D01*
X10477324Y-15190174D02*
X10496372Y-15180650D01*
X10496372Y-15180650D02*
X10515420Y-15180650D01*
X10582086Y-15313984D02*
X10582086Y-15180650D01*
X10582086Y-15113984D02*
X10572563Y-15123508D01*
X10572563Y-15123508D02*
X10582086Y-15133031D01*
X10582086Y-15133031D02*
X10591610Y-15123508D01*
X10591610Y-15123508D02*
X10582086Y-15113984D01*
X10582086Y-15113984D02*
X10582086Y-15133031D01*
X10705896Y-15313984D02*
X10686848Y-15304460D01*
X10686848Y-15304460D02*
X10677324Y-15285412D01*
X10677324Y-15285412D02*
X10677324Y-15113984D01*
X10810658Y-15313984D02*
X10791610Y-15304460D01*
X10791610Y-15304460D02*
X10782086Y-15285412D01*
X10782086Y-15285412D02*
X10782086Y-15113984D01*
X11039229Y-15313984D02*
X11039229Y-15113984D01*
X11039229Y-15113984D02*
X11105896Y-15256841D01*
X11105896Y-15256841D02*
X11172563Y-15113984D01*
X11172563Y-15113984D02*
X11172563Y-15313984D01*
X11353515Y-15313984D02*
X11353515Y-15209222D01*
X11353515Y-15209222D02*
X11343991Y-15190174D01*
X11343991Y-15190174D02*
X11324943Y-15180650D01*
X11324943Y-15180650D02*
X11286848Y-15180650D01*
X11286848Y-15180650D02*
X11267801Y-15190174D01*
X11353515Y-15304460D02*
X11334467Y-15313984D01*
X11334467Y-15313984D02*
X11286848Y-15313984D01*
X11286848Y-15313984D02*
X11267801Y-15304460D01*
X11267801Y-15304460D02*
X11258277Y-15285412D01*
X11258277Y-15285412D02*
X11258277Y-15266365D01*
X11258277Y-15266365D02*
X11267801Y-15247317D01*
X11267801Y-15247317D02*
X11286848Y-15237793D01*
X11286848Y-15237793D02*
X11334467Y-15237793D01*
X11334467Y-15237793D02*
X11353515Y-15228269D01*
X11448753Y-15180650D02*
X11448753Y-15380650D01*
X11448753Y-15190174D02*
X11467801Y-15180650D01*
X11467801Y-15180650D02*
X11505896Y-15180650D01*
X11505896Y-15180650D02*
X11524943Y-15190174D01*
X11524943Y-15190174D02*
X11534467Y-15199698D01*
X11534467Y-15199698D02*
X11543991Y-15218746D01*
X11543991Y-15218746D02*
X11543991Y-15275888D01*
X11543991Y-15275888D02*
X11534467Y-15294936D01*
X11534467Y-15294936D02*
X11524943Y-15304460D01*
X11524943Y-15304460D02*
X11505896Y-15313984D01*
X11505896Y-15313984D02*
X11467801Y-15313984D01*
X11467801Y-15313984D02*
X11448753Y-15304460D01*
X11629705Y-15294936D02*
X11639229Y-15304460D01*
X11639229Y-15304460D02*
X11629705Y-15313984D01*
X11629705Y-15313984D02*
X11620182Y-15304460D01*
X11620182Y-15304460D02*
X11629705Y-15294936D01*
X11629705Y-15294936D02*
X11629705Y-15313984D01*
X11629705Y-15190174D02*
X11639229Y-15199698D01*
X11639229Y-15199698D02*
X11629705Y-15209222D01*
X11629705Y-15209222D02*
X11620182Y-15199698D01*
X11620182Y-15199698D02*
X11629705Y-15190174D01*
X11629705Y-15190174D02*
X11629705Y-15209222D01*
D12*
X9967500Y-15627500D02*
X9997500Y-15657500D01*
X9997500Y-15627500D02*
X9967500Y-15657500D01*
D11*
X10296372Y-15533984D02*
X10315420Y-15533984D01*
X10315420Y-15533984D02*
X10334467Y-15543508D01*
X10334467Y-15543508D02*
X10343991Y-15553031D01*
X10343991Y-15553031D02*
X10353515Y-15572079D01*
X10353515Y-15572079D02*
X10363039Y-15610174D01*
X10363039Y-15610174D02*
X10363039Y-15657793D01*
X10363039Y-15657793D02*
X10353515Y-15695888D01*
X10353515Y-15695888D02*
X10343991Y-15714936D01*
X10343991Y-15714936D02*
X10334467Y-15724460D01*
X10334467Y-15724460D02*
X10315420Y-15733984D01*
X10315420Y-15733984D02*
X10296372Y-15733984D01*
X10296372Y-15733984D02*
X10277324Y-15724460D01*
X10277324Y-15724460D02*
X10267801Y-15714936D01*
X10267801Y-15714936D02*
X10258277Y-15695888D01*
X10258277Y-15695888D02*
X10248753Y-15657793D01*
X10248753Y-15657793D02*
X10248753Y-15610174D01*
X10248753Y-15610174D02*
X10258277Y-15572079D01*
X10258277Y-15572079D02*
X10267801Y-15553031D01*
X10267801Y-15553031D02*
X10277324Y-15543508D01*
X10277324Y-15543508D02*
X10296372Y-15533984D01*
X10448753Y-15714936D02*
X10458277Y-15724460D01*
X10458277Y-15724460D02*
X10448753Y-15733984D01*
X10448753Y-15733984D02*
X10439229Y-15724460D01*
X10439229Y-15724460D02*
X10448753Y-15714936D01*
X10448753Y-15714936D02*
X10448753Y-15733984D01*
X10524944Y-15533984D02*
X10648753Y-15533984D01*
X10648753Y-15533984D02*
X10582086Y-15610174D01*
X10582086Y-15610174D02*
X10610658Y-15610174D01*
X10610658Y-15610174D02*
X10629705Y-15619698D01*
X10629705Y-15619698D02*
X10639229Y-15629222D01*
X10639229Y-15629222D02*
X10648753Y-15648269D01*
X10648753Y-15648269D02*
X10648753Y-15695888D01*
X10648753Y-15695888D02*
X10639229Y-15714936D01*
X10639229Y-15714936D02*
X10629705Y-15724460D01*
X10629705Y-15724460D02*
X10610658Y-15733984D01*
X10610658Y-15733984D02*
X10553515Y-15733984D01*
X10553515Y-15733984D02*
X10534467Y-15724460D01*
X10534467Y-15724460D02*
X10524944Y-15714936D01*
X10772563Y-15533984D02*
X10791610Y-15533984D01*
X10791610Y-15533984D02*
X10810658Y-15543508D01*
X10810658Y-15543508D02*
X10820182Y-15553031D01*
X10820182Y-15553031D02*
X10829705Y-15572079D01*
X10829705Y-15572079D02*
X10839229Y-15610174D01*
X10839229Y-15610174D02*
X10839229Y-15657793D01*
X10839229Y-15657793D02*
X10829705Y-15695888D01*
X10829705Y-15695888D02*
X10820182Y-15714936D01*
X10820182Y-15714936D02*
X10810658Y-15724460D01*
X10810658Y-15724460D02*
X10791610Y-15733984D01*
X10791610Y-15733984D02*
X10772563Y-15733984D01*
X10772563Y-15733984D02*
X10753515Y-15724460D01*
X10753515Y-15724460D02*
X10743991Y-15714936D01*
X10743991Y-15714936D02*
X10734467Y-15695888D01*
X10734467Y-15695888D02*
X10724944Y-15657793D01*
X10724944Y-15657793D02*
X10724944Y-15610174D01*
X10724944Y-15610174D02*
X10734467Y-15572079D01*
X10734467Y-15572079D02*
X10743991Y-15553031D01*
X10743991Y-15553031D02*
X10753515Y-15543508D01*
X10753515Y-15543508D02*
X10772563Y-15533984D01*
X10963039Y-15533984D02*
X10982086Y-15533984D01*
X10982086Y-15533984D02*
X11001134Y-15543508D01*
X11001134Y-15543508D02*
X11010658Y-15553031D01*
X11010658Y-15553031D02*
X11020182Y-15572079D01*
X11020182Y-15572079D02*
X11029705Y-15610174D01*
X11029705Y-15610174D02*
X11029705Y-15657793D01*
X11029705Y-15657793D02*
X11020182Y-15695888D01*
X11020182Y-15695888D02*
X11010658Y-15714936D01*
X11010658Y-15714936D02*
X11001134Y-15724460D01*
X11001134Y-15724460D02*
X10982086Y-15733984D01*
X10982086Y-15733984D02*
X10963039Y-15733984D01*
X10963039Y-15733984D02*
X10943991Y-15724460D01*
X10943991Y-15724460D02*
X10934467Y-15714936D01*
X10934467Y-15714936D02*
X10924944Y-15695888D01*
X10924944Y-15695888D02*
X10915420Y-15657793D01*
X10915420Y-15657793D02*
X10915420Y-15610174D01*
X10915420Y-15610174D02*
X10924944Y-15572079D01*
X10924944Y-15572079D02*
X10934467Y-15553031D01*
X10934467Y-15553031D02*
X10943991Y-15543508D01*
X10943991Y-15543508D02*
X10963039Y-15533984D01*
X11115420Y-15733984D02*
X11115420Y-15600650D01*
X11115420Y-15619698D02*
X11124944Y-15610174D01*
X11124944Y-15610174D02*
X11143991Y-15600650D01*
X11143991Y-15600650D02*
X11172563Y-15600650D01*
X11172563Y-15600650D02*
X11191610Y-15610174D01*
X11191610Y-15610174D02*
X11201134Y-15629222D01*
X11201134Y-15629222D02*
X11201134Y-15733984D01*
X11201134Y-15629222D02*
X11210658Y-15610174D01*
X11210658Y-15610174D02*
X11229705Y-15600650D01*
X11229705Y-15600650D02*
X11258277Y-15600650D01*
X11258277Y-15600650D02*
X11277324Y-15610174D01*
X11277324Y-15610174D02*
X11286848Y-15629222D01*
X11286848Y-15629222D02*
X11286848Y-15733984D01*
X11382086Y-15733984D02*
X11382086Y-15600650D01*
X11382086Y-15619698D02*
X11391610Y-15610174D01*
X11391610Y-15610174D02*
X11410658Y-15600650D01*
X11410658Y-15600650D02*
X11439229Y-15600650D01*
X11439229Y-15600650D02*
X11458277Y-15610174D01*
X11458277Y-15610174D02*
X11467801Y-15629222D01*
X11467801Y-15629222D02*
X11467801Y-15733984D01*
X11467801Y-15629222D02*
X11477324Y-15610174D01*
X11477324Y-15610174D02*
X11496372Y-15600650D01*
X11496372Y-15600650D02*
X11524943Y-15600650D01*
X11524943Y-15600650D02*
X11543991Y-15610174D01*
X11543991Y-15610174D02*
X11553515Y-15629222D01*
X11553515Y-15629222D02*
X11553515Y-15733984D01*
X11943991Y-15524460D02*
X11772563Y-15781603D01*
X12201134Y-15533984D02*
X12220182Y-15533984D01*
X12220182Y-15533984D02*
X12239229Y-15543508D01*
X12239229Y-15543508D02*
X12248753Y-15553031D01*
X12248753Y-15553031D02*
X12258277Y-15572079D01*
X12258277Y-15572079D02*
X12267801Y-15610174D01*
X12267801Y-15610174D02*
X12267801Y-15657793D01*
X12267801Y-15657793D02*
X12258277Y-15695888D01*
X12258277Y-15695888D02*
X12248753Y-15714936D01*
X12248753Y-15714936D02*
X12239229Y-15724460D01*
X12239229Y-15724460D02*
X12220182Y-15733984D01*
X12220182Y-15733984D02*
X12201134Y-15733984D01*
X12201134Y-15733984D02*
X12182086Y-15724460D01*
X12182086Y-15724460D02*
X12172563Y-15714936D01*
X12172563Y-15714936D02*
X12163039Y-15695888D01*
X12163039Y-15695888D02*
X12153515Y-15657793D01*
X12153515Y-15657793D02*
X12153515Y-15610174D01*
X12153515Y-15610174D02*
X12163039Y-15572079D01*
X12163039Y-15572079D02*
X12172563Y-15553031D01*
X12172563Y-15553031D02*
X12182086Y-15543508D01*
X12182086Y-15543508D02*
X12201134Y-15533984D01*
X12353515Y-15714936D02*
X12363039Y-15724460D01*
X12363039Y-15724460D02*
X12353515Y-15733984D01*
X12353515Y-15733984D02*
X12343991Y-15724460D01*
X12343991Y-15724460D02*
X12353515Y-15714936D01*
X12353515Y-15714936D02*
X12353515Y-15733984D01*
X12486848Y-15533984D02*
X12505896Y-15533984D01*
X12505896Y-15533984D02*
X12524944Y-15543508D01*
X12524944Y-15543508D02*
X12534467Y-15553031D01*
X12534467Y-15553031D02*
X12543991Y-15572079D01*
X12543991Y-15572079D02*
X12553515Y-15610174D01*
X12553515Y-15610174D02*
X12553515Y-15657793D01*
X12553515Y-15657793D02*
X12543991Y-15695888D01*
X12543991Y-15695888D02*
X12534467Y-15714936D01*
X12534467Y-15714936D02*
X12524944Y-15724460D01*
X12524944Y-15724460D02*
X12505896Y-15733984D01*
X12505896Y-15733984D02*
X12486848Y-15733984D01*
X12486848Y-15733984D02*
X12467801Y-15724460D01*
X12467801Y-15724460D02*
X12458277Y-15714936D01*
X12458277Y-15714936D02*
X12448753Y-15695888D01*
X12448753Y-15695888D02*
X12439229Y-15657793D01*
X12439229Y-15657793D02*
X12439229Y-15610174D01*
X12439229Y-15610174D02*
X12448753Y-15572079D01*
X12448753Y-15572079D02*
X12458277Y-15553031D01*
X12458277Y-15553031D02*
X12467801Y-15543508D01*
X12467801Y-15543508D02*
X12486848Y-15533984D01*
X12743991Y-15733984D02*
X12629706Y-15733984D01*
X12686848Y-15733984D02*
X12686848Y-15533984D01*
X12686848Y-15533984D02*
X12667801Y-15562555D01*
X12667801Y-15562555D02*
X12648753Y-15581603D01*
X12648753Y-15581603D02*
X12629706Y-15591127D01*
X12934467Y-15733984D02*
X12820182Y-15733984D01*
X12877325Y-15733984D02*
X12877325Y-15533984D01*
X12877325Y-15533984D02*
X12858277Y-15562555D01*
X12858277Y-15562555D02*
X12839229Y-15581603D01*
X12839229Y-15581603D02*
X12820182Y-15591127D01*
X13048753Y-15619698D02*
X13029706Y-15610174D01*
X13029706Y-15610174D02*
X13020182Y-15600650D01*
X13020182Y-15600650D02*
X13010658Y-15581603D01*
X13010658Y-15581603D02*
X13010658Y-15572079D01*
X13010658Y-15572079D02*
X13020182Y-15553031D01*
X13020182Y-15553031D02*
X13029706Y-15543508D01*
X13029706Y-15543508D02*
X13048753Y-15533984D01*
X13048753Y-15533984D02*
X13086848Y-15533984D01*
X13086848Y-15533984D02*
X13105896Y-15543508D01*
X13105896Y-15543508D02*
X13115420Y-15553031D01*
X13115420Y-15553031D02*
X13124944Y-15572079D01*
X13124944Y-15572079D02*
X13124944Y-15581603D01*
X13124944Y-15581603D02*
X13115420Y-15600650D01*
X13115420Y-15600650D02*
X13105896Y-15610174D01*
X13105896Y-15610174D02*
X13086848Y-15619698D01*
X13086848Y-15619698D02*
X13048753Y-15619698D01*
X13048753Y-15619698D02*
X13029706Y-15629222D01*
X13029706Y-15629222D02*
X13020182Y-15638746D01*
X13020182Y-15638746D02*
X13010658Y-15657793D01*
X13010658Y-15657793D02*
X13010658Y-15695888D01*
X13010658Y-15695888D02*
X13020182Y-15714936D01*
X13020182Y-15714936D02*
X13029706Y-15724460D01*
X13029706Y-15724460D02*
X13048753Y-15733984D01*
X13048753Y-15733984D02*
X13086848Y-15733984D01*
X13086848Y-15733984D02*
X13105896Y-15724460D01*
X13105896Y-15724460D02*
X13115420Y-15714936D01*
X13115420Y-15714936D02*
X13124944Y-15695888D01*
X13124944Y-15695888D02*
X13124944Y-15657793D01*
X13124944Y-15657793D02*
X13115420Y-15638746D01*
X13115420Y-15638746D02*
X13105896Y-15629222D01*
X13105896Y-15629222D02*
X13086848Y-15619698D01*
X13201134Y-15533984D02*
X13201134Y-15572079D01*
X13277325Y-15533984D02*
X13277325Y-15572079D01*
X13572563Y-15810174D02*
X13563039Y-15800650D01*
X13563039Y-15800650D02*
X13543991Y-15772079D01*
X13543991Y-15772079D02*
X13534468Y-15753031D01*
X13534468Y-15753031D02*
X13524944Y-15724460D01*
X13524944Y-15724460D02*
X13515420Y-15676841D01*
X13515420Y-15676841D02*
X13515420Y-15638746D01*
X13515420Y-15638746D02*
X13524944Y-15591127D01*
X13524944Y-15591127D02*
X13534468Y-15562555D01*
X13534468Y-15562555D02*
X13543991Y-15543508D01*
X13543991Y-15543508D02*
X13563039Y-15514936D01*
X13563039Y-15514936D02*
X13572563Y-15505412D01*
X13753515Y-15733984D02*
X13639229Y-15733984D01*
X13696372Y-15733984D02*
X13696372Y-15533984D01*
X13696372Y-15533984D02*
X13677325Y-15562555D01*
X13677325Y-15562555D02*
X13658277Y-15581603D01*
X13658277Y-15581603D02*
X13639229Y-15591127D01*
X13934468Y-15533984D02*
X13839229Y-15533984D01*
X13839229Y-15533984D02*
X13829706Y-15629222D01*
X13829706Y-15629222D02*
X13839229Y-15619698D01*
X13839229Y-15619698D02*
X13858277Y-15610174D01*
X13858277Y-15610174D02*
X13905896Y-15610174D01*
X13905896Y-15610174D02*
X13924944Y-15619698D01*
X13924944Y-15619698D02*
X13934468Y-15629222D01*
X13934468Y-15629222D02*
X13943991Y-15648269D01*
X13943991Y-15648269D02*
X13943991Y-15695888D01*
X13943991Y-15695888D02*
X13934468Y-15714936D01*
X13934468Y-15714936D02*
X13924944Y-15724460D01*
X13924944Y-15724460D02*
X13905896Y-15733984D01*
X13905896Y-15733984D02*
X13858277Y-15733984D01*
X13858277Y-15733984D02*
X13839229Y-15724460D01*
X13839229Y-15724460D02*
X13829706Y-15714936D01*
X14182087Y-15733984D02*
X14182087Y-15533984D01*
X14267801Y-15733984D02*
X14267801Y-15629222D01*
X14267801Y-15629222D02*
X14258277Y-15610174D01*
X14258277Y-15610174D02*
X14239230Y-15600650D01*
X14239230Y-15600650D02*
X14210658Y-15600650D01*
X14210658Y-15600650D02*
X14191610Y-15610174D01*
X14191610Y-15610174D02*
X14182087Y-15619698D01*
X14391610Y-15733984D02*
X14372563Y-15724460D01*
X14372563Y-15724460D02*
X14363039Y-15714936D01*
X14363039Y-15714936D02*
X14353515Y-15695888D01*
X14353515Y-15695888D02*
X14353515Y-15638746D01*
X14353515Y-15638746D02*
X14363039Y-15619698D01*
X14363039Y-15619698D02*
X14372563Y-15610174D01*
X14372563Y-15610174D02*
X14391610Y-15600650D01*
X14391610Y-15600650D02*
X14420182Y-15600650D01*
X14420182Y-15600650D02*
X14439230Y-15610174D01*
X14439230Y-15610174D02*
X14448753Y-15619698D01*
X14448753Y-15619698D02*
X14458277Y-15638746D01*
X14458277Y-15638746D02*
X14458277Y-15695888D01*
X14458277Y-15695888D02*
X14448753Y-15714936D01*
X14448753Y-15714936D02*
X14439230Y-15724460D01*
X14439230Y-15724460D02*
X14420182Y-15733984D01*
X14420182Y-15733984D02*
X14391610Y-15733984D01*
X14572563Y-15733984D02*
X14553515Y-15724460D01*
X14553515Y-15724460D02*
X14543991Y-15705412D01*
X14543991Y-15705412D02*
X14543991Y-15533984D01*
X14724944Y-15724460D02*
X14705896Y-15733984D01*
X14705896Y-15733984D02*
X14667801Y-15733984D01*
X14667801Y-15733984D02*
X14648753Y-15724460D01*
X14648753Y-15724460D02*
X14639230Y-15705412D01*
X14639230Y-15705412D02*
X14639230Y-15629222D01*
X14639230Y-15629222D02*
X14648753Y-15610174D01*
X14648753Y-15610174D02*
X14667801Y-15600650D01*
X14667801Y-15600650D02*
X14705896Y-15600650D01*
X14705896Y-15600650D02*
X14724944Y-15610174D01*
X14724944Y-15610174D02*
X14734468Y-15629222D01*
X14734468Y-15629222D02*
X14734468Y-15648269D01*
X14734468Y-15648269D02*
X14639230Y-15667317D01*
X14810658Y-15724460D02*
X14829706Y-15733984D01*
X14829706Y-15733984D02*
X14867801Y-15733984D01*
X14867801Y-15733984D02*
X14886849Y-15724460D01*
X14886849Y-15724460D02*
X14896372Y-15705412D01*
X14896372Y-15705412D02*
X14896372Y-15695888D01*
X14896372Y-15695888D02*
X14886849Y-15676841D01*
X14886849Y-15676841D02*
X14867801Y-15667317D01*
X14867801Y-15667317D02*
X14839230Y-15667317D01*
X14839230Y-15667317D02*
X14820182Y-15657793D01*
X14820182Y-15657793D02*
X14810658Y-15638746D01*
X14810658Y-15638746D02*
X14810658Y-15629222D01*
X14810658Y-15629222D02*
X14820182Y-15610174D01*
X14820182Y-15610174D02*
X14839230Y-15600650D01*
X14839230Y-15600650D02*
X14867801Y-15600650D01*
X14867801Y-15600650D02*
X14886849Y-15610174D01*
X14963039Y-15810174D02*
X14972563Y-15800650D01*
X14972563Y-15800650D02*
X14991611Y-15772079D01*
X14991611Y-15772079D02*
X15001134Y-15753031D01*
X15001134Y-15753031D02*
X15010658Y-15724460D01*
X15010658Y-15724460D02*
X15020182Y-15676841D01*
X15020182Y-15676841D02*
X15020182Y-15638746D01*
X15020182Y-15638746D02*
X15010658Y-15591127D01*
X15010658Y-15591127D02*
X15001134Y-15562555D01*
X15001134Y-15562555D02*
X14991611Y-15543508D01*
X14991611Y-15543508D02*
X14972563Y-15514936D01*
X14972563Y-15514936D02*
X14963039Y-15505412D01*
D12*
X9997500Y-15906500D02*
G75*
G02*
X9922500Y-15906500I-37500J0D01*
G01*
X9922500Y-15906500D02*
G75*
G02*
X9997500Y-15906500I37500J0D01*
G01*
D11*
X10296372Y-15797984D02*
X10315420Y-15797984D01*
X10315420Y-15797984D02*
X10334467Y-15807508D01*
X10334467Y-15807508D02*
X10343991Y-15817031D01*
X10343991Y-15817031D02*
X10353515Y-15836079D01*
X10353515Y-15836079D02*
X10363039Y-15874174D01*
X10363039Y-15874174D02*
X10363039Y-15921793D01*
X10363039Y-15921793D02*
X10353515Y-15959888D01*
X10353515Y-15959888D02*
X10343991Y-15978936D01*
X10343991Y-15978936D02*
X10334467Y-15988460D01*
X10334467Y-15988460D02*
X10315420Y-15997984D01*
X10315420Y-15997984D02*
X10296372Y-15997984D01*
X10296372Y-15997984D02*
X10277324Y-15988460D01*
X10277324Y-15988460D02*
X10267801Y-15978936D01*
X10267801Y-15978936D02*
X10258277Y-15959888D01*
X10258277Y-15959888D02*
X10248753Y-15921793D01*
X10248753Y-15921793D02*
X10248753Y-15874174D01*
X10248753Y-15874174D02*
X10258277Y-15836079D01*
X10258277Y-15836079D02*
X10267801Y-15817031D01*
X10267801Y-15817031D02*
X10277324Y-15807508D01*
X10277324Y-15807508D02*
X10296372Y-15797984D01*
X10448753Y-15978936D02*
X10458277Y-15988460D01*
X10458277Y-15988460D02*
X10448753Y-15997984D01*
X10448753Y-15997984D02*
X10439229Y-15988460D01*
X10439229Y-15988460D02*
X10448753Y-15978936D01*
X10448753Y-15978936D02*
X10448753Y-15997984D01*
X10524944Y-15797984D02*
X10658277Y-15797984D01*
X10658277Y-15797984D02*
X10572563Y-15997984D01*
X10829705Y-15797984D02*
X10734467Y-15797984D01*
X10734467Y-15797984D02*
X10724944Y-15893222D01*
X10724944Y-15893222D02*
X10734467Y-15883698D01*
X10734467Y-15883698D02*
X10753515Y-15874174D01*
X10753515Y-15874174D02*
X10801134Y-15874174D01*
X10801134Y-15874174D02*
X10820182Y-15883698D01*
X10820182Y-15883698D02*
X10829705Y-15893222D01*
X10829705Y-15893222D02*
X10839229Y-15912269D01*
X10839229Y-15912269D02*
X10839229Y-15959888D01*
X10839229Y-15959888D02*
X10829705Y-15978936D01*
X10829705Y-15978936D02*
X10820182Y-15988460D01*
X10820182Y-15988460D02*
X10801134Y-15997984D01*
X10801134Y-15997984D02*
X10753515Y-15997984D01*
X10753515Y-15997984D02*
X10734467Y-15988460D01*
X10734467Y-15988460D02*
X10724944Y-15978936D01*
X10963039Y-15797984D02*
X10982086Y-15797984D01*
X10982086Y-15797984D02*
X11001134Y-15807508D01*
X11001134Y-15807508D02*
X11010658Y-15817031D01*
X11010658Y-15817031D02*
X11020182Y-15836079D01*
X11020182Y-15836079D02*
X11029705Y-15874174D01*
X11029705Y-15874174D02*
X11029705Y-15921793D01*
X11029705Y-15921793D02*
X11020182Y-15959888D01*
X11020182Y-15959888D02*
X11010658Y-15978936D01*
X11010658Y-15978936D02*
X11001134Y-15988460D01*
X11001134Y-15988460D02*
X10982086Y-15997984D01*
X10982086Y-15997984D02*
X10963039Y-15997984D01*
X10963039Y-15997984D02*
X10943991Y-15988460D01*
X10943991Y-15988460D02*
X10934467Y-15978936D01*
X10934467Y-15978936D02*
X10924944Y-15959888D01*
X10924944Y-15959888D02*
X10915420Y-15921793D01*
X10915420Y-15921793D02*
X10915420Y-15874174D01*
X10915420Y-15874174D02*
X10924944Y-15836079D01*
X10924944Y-15836079D02*
X10934467Y-15817031D01*
X10934467Y-15817031D02*
X10943991Y-15807508D01*
X10943991Y-15807508D02*
X10963039Y-15797984D01*
X11115420Y-15997984D02*
X11115420Y-15864650D01*
X11115420Y-15883698D02*
X11124944Y-15874174D01*
X11124944Y-15874174D02*
X11143991Y-15864650D01*
X11143991Y-15864650D02*
X11172563Y-15864650D01*
X11172563Y-15864650D02*
X11191610Y-15874174D01*
X11191610Y-15874174D02*
X11201134Y-15893222D01*
X11201134Y-15893222D02*
X11201134Y-15997984D01*
X11201134Y-15893222D02*
X11210658Y-15874174D01*
X11210658Y-15874174D02*
X11229705Y-15864650D01*
X11229705Y-15864650D02*
X11258277Y-15864650D01*
X11258277Y-15864650D02*
X11277324Y-15874174D01*
X11277324Y-15874174D02*
X11286848Y-15893222D01*
X11286848Y-15893222D02*
X11286848Y-15997984D01*
X11382086Y-15997984D02*
X11382086Y-15864650D01*
X11382086Y-15883698D02*
X11391610Y-15874174D01*
X11391610Y-15874174D02*
X11410658Y-15864650D01*
X11410658Y-15864650D02*
X11439229Y-15864650D01*
X11439229Y-15864650D02*
X11458277Y-15874174D01*
X11458277Y-15874174D02*
X11467801Y-15893222D01*
X11467801Y-15893222D02*
X11467801Y-15997984D01*
X11467801Y-15893222D02*
X11477324Y-15874174D01*
X11477324Y-15874174D02*
X11496372Y-15864650D01*
X11496372Y-15864650D02*
X11524943Y-15864650D01*
X11524943Y-15864650D02*
X11543991Y-15874174D01*
X11543991Y-15874174D02*
X11553515Y-15893222D01*
X11553515Y-15893222D02*
X11553515Y-15997984D01*
X11943991Y-15788460D02*
X11772563Y-16045603D01*
X12201134Y-15797984D02*
X12220182Y-15797984D01*
X12220182Y-15797984D02*
X12239229Y-15807508D01*
X12239229Y-15807508D02*
X12248753Y-15817031D01*
X12248753Y-15817031D02*
X12258277Y-15836079D01*
X12258277Y-15836079D02*
X12267801Y-15874174D01*
X12267801Y-15874174D02*
X12267801Y-15921793D01*
X12267801Y-15921793D02*
X12258277Y-15959888D01*
X12258277Y-15959888D02*
X12248753Y-15978936D01*
X12248753Y-15978936D02*
X12239229Y-15988460D01*
X12239229Y-15988460D02*
X12220182Y-15997984D01*
X12220182Y-15997984D02*
X12201134Y-15997984D01*
X12201134Y-15997984D02*
X12182086Y-15988460D01*
X12182086Y-15988460D02*
X12172563Y-15978936D01*
X12172563Y-15978936D02*
X12163039Y-15959888D01*
X12163039Y-15959888D02*
X12153515Y-15921793D01*
X12153515Y-15921793D02*
X12153515Y-15874174D01*
X12153515Y-15874174D02*
X12163039Y-15836079D01*
X12163039Y-15836079D02*
X12172563Y-15817031D01*
X12172563Y-15817031D02*
X12182086Y-15807508D01*
X12182086Y-15807508D02*
X12201134Y-15797984D01*
X12353515Y-15978936D02*
X12363039Y-15988460D01*
X12363039Y-15988460D02*
X12353515Y-15997984D01*
X12353515Y-15997984D02*
X12343991Y-15988460D01*
X12343991Y-15988460D02*
X12353515Y-15978936D01*
X12353515Y-15978936D02*
X12353515Y-15997984D01*
X12486848Y-15797984D02*
X12505896Y-15797984D01*
X12505896Y-15797984D02*
X12524944Y-15807508D01*
X12524944Y-15807508D02*
X12534467Y-15817031D01*
X12534467Y-15817031D02*
X12543991Y-15836079D01*
X12543991Y-15836079D02*
X12553515Y-15874174D01*
X12553515Y-15874174D02*
X12553515Y-15921793D01*
X12553515Y-15921793D02*
X12543991Y-15959888D01*
X12543991Y-15959888D02*
X12534467Y-15978936D01*
X12534467Y-15978936D02*
X12524944Y-15988460D01*
X12524944Y-15988460D02*
X12505896Y-15997984D01*
X12505896Y-15997984D02*
X12486848Y-15997984D01*
X12486848Y-15997984D02*
X12467801Y-15988460D01*
X12467801Y-15988460D02*
X12458277Y-15978936D01*
X12458277Y-15978936D02*
X12448753Y-15959888D01*
X12448753Y-15959888D02*
X12439229Y-15921793D01*
X12439229Y-15921793D02*
X12439229Y-15874174D01*
X12439229Y-15874174D02*
X12448753Y-15836079D01*
X12448753Y-15836079D02*
X12458277Y-15817031D01*
X12458277Y-15817031D02*
X12467801Y-15807508D01*
X12467801Y-15807508D02*
X12486848Y-15797984D01*
X12629706Y-15817031D02*
X12639229Y-15807508D01*
X12639229Y-15807508D02*
X12658277Y-15797984D01*
X12658277Y-15797984D02*
X12705896Y-15797984D01*
X12705896Y-15797984D02*
X12724944Y-15807508D01*
X12724944Y-15807508D02*
X12734467Y-15817031D01*
X12734467Y-15817031D02*
X12743991Y-15836079D01*
X12743991Y-15836079D02*
X12743991Y-15855127D01*
X12743991Y-15855127D02*
X12734467Y-15883698D01*
X12734467Y-15883698D02*
X12620182Y-15997984D01*
X12620182Y-15997984D02*
X12743991Y-15997984D01*
X12839229Y-15997984D02*
X12877325Y-15997984D01*
X12877325Y-15997984D02*
X12896372Y-15988460D01*
X12896372Y-15988460D02*
X12905896Y-15978936D01*
X12905896Y-15978936D02*
X12924944Y-15950365D01*
X12924944Y-15950365D02*
X12934467Y-15912269D01*
X12934467Y-15912269D02*
X12934467Y-15836079D01*
X12934467Y-15836079D02*
X12924944Y-15817031D01*
X12924944Y-15817031D02*
X12915420Y-15807508D01*
X12915420Y-15807508D02*
X12896372Y-15797984D01*
X12896372Y-15797984D02*
X12858277Y-15797984D01*
X12858277Y-15797984D02*
X12839229Y-15807508D01*
X12839229Y-15807508D02*
X12829706Y-15817031D01*
X12829706Y-15817031D02*
X12820182Y-15836079D01*
X12820182Y-15836079D02*
X12820182Y-15883698D01*
X12820182Y-15883698D02*
X12829706Y-15902746D01*
X12829706Y-15902746D02*
X12839229Y-15912269D01*
X12839229Y-15912269D02*
X12858277Y-15921793D01*
X12858277Y-15921793D02*
X12896372Y-15921793D01*
X12896372Y-15921793D02*
X12915420Y-15912269D01*
X12915420Y-15912269D02*
X12924944Y-15902746D01*
X12924944Y-15902746D02*
X12934467Y-15883698D01*
X13115420Y-15797984D02*
X13020182Y-15797984D01*
X13020182Y-15797984D02*
X13010658Y-15893222D01*
X13010658Y-15893222D02*
X13020182Y-15883698D01*
X13020182Y-15883698D02*
X13039229Y-15874174D01*
X13039229Y-15874174D02*
X13086848Y-15874174D01*
X13086848Y-15874174D02*
X13105896Y-15883698D01*
X13105896Y-15883698D02*
X13115420Y-15893222D01*
X13115420Y-15893222D02*
X13124944Y-15912269D01*
X13124944Y-15912269D02*
X13124944Y-15959888D01*
X13124944Y-15959888D02*
X13115420Y-15978936D01*
X13115420Y-15978936D02*
X13105896Y-15988460D01*
X13105896Y-15988460D02*
X13086848Y-15997984D01*
X13086848Y-15997984D02*
X13039229Y-15997984D01*
X13039229Y-15997984D02*
X13020182Y-15988460D01*
X13020182Y-15988460D02*
X13010658Y-15978936D01*
X13201134Y-15797984D02*
X13201134Y-15836079D01*
X13277325Y-15797984D02*
X13277325Y-15836079D01*
X13572563Y-16074174D02*
X13563039Y-16064650D01*
X13563039Y-16064650D02*
X13543991Y-16036079D01*
X13543991Y-16036079D02*
X13534468Y-16017031D01*
X13534468Y-16017031D02*
X13524944Y-15988460D01*
X13524944Y-15988460D02*
X13515420Y-15940841D01*
X13515420Y-15940841D02*
X13515420Y-15902746D01*
X13515420Y-15902746D02*
X13524944Y-15855127D01*
X13524944Y-15855127D02*
X13534468Y-15826555D01*
X13534468Y-15826555D02*
X13543991Y-15807508D01*
X13543991Y-15807508D02*
X13563039Y-15778936D01*
X13563039Y-15778936D02*
X13572563Y-15769412D01*
X13629706Y-15797984D02*
X13753515Y-15797984D01*
X13753515Y-15797984D02*
X13686848Y-15874174D01*
X13686848Y-15874174D02*
X13715420Y-15874174D01*
X13715420Y-15874174D02*
X13734468Y-15883698D01*
X13734468Y-15883698D02*
X13743991Y-15893222D01*
X13743991Y-15893222D02*
X13753515Y-15912269D01*
X13753515Y-15912269D02*
X13753515Y-15959888D01*
X13753515Y-15959888D02*
X13743991Y-15978936D01*
X13743991Y-15978936D02*
X13734468Y-15988460D01*
X13734468Y-15988460D02*
X13715420Y-15997984D01*
X13715420Y-15997984D02*
X13658277Y-15997984D01*
X13658277Y-15997984D02*
X13639229Y-15988460D01*
X13639229Y-15988460D02*
X13629706Y-15978936D01*
X13991610Y-15997984D02*
X13991610Y-15797984D01*
X14077325Y-15997984D02*
X14077325Y-15893222D01*
X14077325Y-15893222D02*
X14067801Y-15874174D01*
X14067801Y-15874174D02*
X14048753Y-15864650D01*
X14048753Y-15864650D02*
X14020182Y-15864650D01*
X14020182Y-15864650D02*
X14001134Y-15874174D01*
X14001134Y-15874174D02*
X13991610Y-15883698D01*
X14201134Y-15997984D02*
X14182087Y-15988460D01*
X14182087Y-15988460D02*
X14172563Y-15978936D01*
X14172563Y-15978936D02*
X14163039Y-15959888D01*
X14163039Y-15959888D02*
X14163039Y-15902746D01*
X14163039Y-15902746D02*
X14172563Y-15883698D01*
X14172563Y-15883698D02*
X14182087Y-15874174D01*
X14182087Y-15874174D02*
X14201134Y-15864650D01*
X14201134Y-15864650D02*
X14229706Y-15864650D01*
X14229706Y-15864650D02*
X14248753Y-15874174D01*
X14248753Y-15874174D02*
X14258277Y-15883698D01*
X14258277Y-15883698D02*
X14267801Y-15902746D01*
X14267801Y-15902746D02*
X14267801Y-15959888D01*
X14267801Y-15959888D02*
X14258277Y-15978936D01*
X14258277Y-15978936D02*
X14248753Y-15988460D01*
X14248753Y-15988460D02*
X14229706Y-15997984D01*
X14229706Y-15997984D02*
X14201134Y-15997984D01*
X14382087Y-15997984D02*
X14363039Y-15988460D01*
X14363039Y-15988460D02*
X14353515Y-15969412D01*
X14353515Y-15969412D02*
X14353515Y-15797984D01*
X14534468Y-15988460D02*
X14515420Y-15997984D01*
X14515420Y-15997984D02*
X14477325Y-15997984D01*
X14477325Y-15997984D02*
X14458277Y-15988460D01*
X14458277Y-15988460D02*
X14448753Y-15969412D01*
X14448753Y-15969412D02*
X14448753Y-15893222D01*
X14448753Y-15893222D02*
X14458277Y-15874174D01*
X14458277Y-15874174D02*
X14477325Y-15864650D01*
X14477325Y-15864650D02*
X14515420Y-15864650D01*
X14515420Y-15864650D02*
X14534468Y-15874174D01*
X14534468Y-15874174D02*
X14543991Y-15893222D01*
X14543991Y-15893222D02*
X14543991Y-15912269D01*
X14543991Y-15912269D02*
X14448753Y-15931317D01*
X14620182Y-15988460D02*
X14639230Y-15997984D01*
X14639230Y-15997984D02*
X14677325Y-15997984D01*
X14677325Y-15997984D02*
X14696372Y-15988460D01*
X14696372Y-15988460D02*
X14705896Y-15969412D01*
X14705896Y-15969412D02*
X14705896Y-15959888D01*
X14705896Y-15959888D02*
X14696372Y-15940841D01*
X14696372Y-15940841D02*
X14677325Y-15931317D01*
X14677325Y-15931317D02*
X14648753Y-15931317D01*
X14648753Y-15931317D02*
X14629706Y-15921793D01*
X14629706Y-15921793D02*
X14620182Y-15902746D01*
X14620182Y-15902746D02*
X14620182Y-15893222D01*
X14620182Y-15893222D02*
X14629706Y-15874174D01*
X14629706Y-15874174D02*
X14648753Y-15864650D01*
X14648753Y-15864650D02*
X14677325Y-15864650D01*
X14677325Y-15864650D02*
X14696372Y-15874174D01*
X14772563Y-16074174D02*
X14782087Y-16064650D01*
X14782087Y-16064650D02*
X14801134Y-16036079D01*
X14801134Y-16036079D02*
X14810658Y-16017031D01*
X14810658Y-16017031D02*
X14820182Y-15988460D01*
X14820182Y-15988460D02*
X14829706Y-15940841D01*
X14829706Y-15940841D02*
X14829706Y-15902746D01*
X14829706Y-15902746D02*
X14820182Y-15855127D01*
X14820182Y-15855127D02*
X14810658Y-15826555D01*
X14810658Y-15826555D02*
X14801134Y-15807508D01*
X14801134Y-15807508D02*
X14782087Y-15778936D01*
X14782087Y-15778936D02*
X14772563Y-15769412D01*
D12*
X9959400Y-16132400D02*
X9959400Y-16208600D01*
X9921300Y-16170500D02*
X9997500Y-16170500D01*
D11*
X10296372Y-16061984D02*
X10315420Y-16061984D01*
X10315420Y-16061984D02*
X10334467Y-16071508D01*
X10334467Y-16071508D02*
X10343991Y-16081031D01*
X10343991Y-16081031D02*
X10353515Y-16100079D01*
X10353515Y-16100079D02*
X10363039Y-16138174D01*
X10363039Y-16138174D02*
X10363039Y-16185793D01*
X10363039Y-16185793D02*
X10353515Y-16223888D01*
X10353515Y-16223888D02*
X10343991Y-16242936D01*
X10343991Y-16242936D02*
X10334467Y-16252460D01*
X10334467Y-16252460D02*
X10315420Y-16261984D01*
X10315420Y-16261984D02*
X10296372Y-16261984D01*
X10296372Y-16261984D02*
X10277324Y-16252460D01*
X10277324Y-16252460D02*
X10267801Y-16242936D01*
X10267801Y-16242936D02*
X10258277Y-16223888D01*
X10258277Y-16223888D02*
X10248753Y-16185793D01*
X10248753Y-16185793D02*
X10248753Y-16138174D01*
X10248753Y-16138174D02*
X10258277Y-16100079D01*
X10258277Y-16100079D02*
X10267801Y-16081031D01*
X10267801Y-16081031D02*
X10277324Y-16071508D01*
X10277324Y-16071508D02*
X10296372Y-16061984D01*
X10448753Y-16242936D02*
X10458277Y-16252460D01*
X10458277Y-16252460D02*
X10448753Y-16261984D01*
X10448753Y-16261984D02*
X10439229Y-16252460D01*
X10439229Y-16252460D02*
X10448753Y-16242936D01*
X10448753Y-16242936D02*
X10448753Y-16261984D01*
X10524944Y-16061984D02*
X10658277Y-16061984D01*
X10658277Y-16061984D02*
X10572563Y-16261984D01*
X10820182Y-16061984D02*
X10782086Y-16061984D01*
X10782086Y-16061984D02*
X10763039Y-16071508D01*
X10763039Y-16071508D02*
X10753515Y-16081031D01*
X10753515Y-16081031D02*
X10734467Y-16109603D01*
X10734467Y-16109603D02*
X10724944Y-16147698D01*
X10724944Y-16147698D02*
X10724944Y-16223888D01*
X10724944Y-16223888D02*
X10734467Y-16242936D01*
X10734467Y-16242936D02*
X10743991Y-16252460D01*
X10743991Y-16252460D02*
X10763039Y-16261984D01*
X10763039Y-16261984D02*
X10801134Y-16261984D01*
X10801134Y-16261984D02*
X10820182Y-16252460D01*
X10820182Y-16252460D02*
X10829705Y-16242936D01*
X10829705Y-16242936D02*
X10839229Y-16223888D01*
X10839229Y-16223888D02*
X10839229Y-16176269D01*
X10839229Y-16176269D02*
X10829705Y-16157222D01*
X10829705Y-16157222D02*
X10820182Y-16147698D01*
X10820182Y-16147698D02*
X10801134Y-16138174D01*
X10801134Y-16138174D02*
X10763039Y-16138174D01*
X10763039Y-16138174D02*
X10743991Y-16147698D01*
X10743991Y-16147698D02*
X10734467Y-16157222D01*
X10734467Y-16157222D02*
X10724944Y-16176269D01*
X10915420Y-16081031D02*
X10924944Y-16071508D01*
X10924944Y-16071508D02*
X10943991Y-16061984D01*
X10943991Y-16061984D02*
X10991610Y-16061984D01*
X10991610Y-16061984D02*
X11010658Y-16071508D01*
X11010658Y-16071508D02*
X11020182Y-16081031D01*
X11020182Y-16081031D02*
X11029705Y-16100079D01*
X11029705Y-16100079D02*
X11029705Y-16119127D01*
X11029705Y-16119127D02*
X11020182Y-16147698D01*
X11020182Y-16147698D02*
X10905896Y-16261984D01*
X10905896Y-16261984D02*
X11029705Y-16261984D01*
X11115420Y-16261984D02*
X11115420Y-16128650D01*
X11115420Y-16147698D02*
X11124944Y-16138174D01*
X11124944Y-16138174D02*
X11143991Y-16128650D01*
X11143991Y-16128650D02*
X11172563Y-16128650D01*
X11172563Y-16128650D02*
X11191610Y-16138174D01*
X11191610Y-16138174D02*
X11201134Y-16157222D01*
X11201134Y-16157222D02*
X11201134Y-16261984D01*
X11201134Y-16157222D02*
X11210658Y-16138174D01*
X11210658Y-16138174D02*
X11229705Y-16128650D01*
X11229705Y-16128650D02*
X11258277Y-16128650D01*
X11258277Y-16128650D02*
X11277324Y-16138174D01*
X11277324Y-16138174D02*
X11286848Y-16157222D01*
X11286848Y-16157222D02*
X11286848Y-16261984D01*
X11382086Y-16261984D02*
X11382086Y-16128650D01*
X11382086Y-16147698D02*
X11391610Y-16138174D01*
X11391610Y-16138174D02*
X11410658Y-16128650D01*
X11410658Y-16128650D02*
X11439229Y-16128650D01*
X11439229Y-16128650D02*
X11458277Y-16138174D01*
X11458277Y-16138174D02*
X11467801Y-16157222D01*
X11467801Y-16157222D02*
X11467801Y-16261984D01*
X11467801Y-16157222D02*
X11477324Y-16138174D01*
X11477324Y-16138174D02*
X11496372Y-16128650D01*
X11496372Y-16128650D02*
X11524943Y-16128650D01*
X11524943Y-16128650D02*
X11543991Y-16138174D01*
X11543991Y-16138174D02*
X11553515Y-16157222D01*
X11553515Y-16157222D02*
X11553515Y-16261984D01*
X11943991Y-16052460D02*
X11772563Y-16309603D01*
X12201134Y-16061984D02*
X12220182Y-16061984D01*
X12220182Y-16061984D02*
X12239229Y-16071508D01*
X12239229Y-16071508D02*
X12248753Y-16081031D01*
X12248753Y-16081031D02*
X12258277Y-16100079D01*
X12258277Y-16100079D02*
X12267801Y-16138174D01*
X12267801Y-16138174D02*
X12267801Y-16185793D01*
X12267801Y-16185793D02*
X12258277Y-16223888D01*
X12258277Y-16223888D02*
X12248753Y-16242936D01*
X12248753Y-16242936D02*
X12239229Y-16252460D01*
X12239229Y-16252460D02*
X12220182Y-16261984D01*
X12220182Y-16261984D02*
X12201134Y-16261984D01*
X12201134Y-16261984D02*
X12182086Y-16252460D01*
X12182086Y-16252460D02*
X12172563Y-16242936D01*
X12172563Y-16242936D02*
X12163039Y-16223888D01*
X12163039Y-16223888D02*
X12153515Y-16185793D01*
X12153515Y-16185793D02*
X12153515Y-16138174D01*
X12153515Y-16138174D02*
X12163039Y-16100079D01*
X12163039Y-16100079D02*
X12172563Y-16081031D01*
X12172563Y-16081031D02*
X12182086Y-16071508D01*
X12182086Y-16071508D02*
X12201134Y-16061984D01*
X12353515Y-16242936D02*
X12363039Y-16252460D01*
X12363039Y-16252460D02*
X12353515Y-16261984D01*
X12353515Y-16261984D02*
X12343991Y-16252460D01*
X12343991Y-16252460D02*
X12353515Y-16242936D01*
X12353515Y-16242936D02*
X12353515Y-16261984D01*
X12486848Y-16061984D02*
X12505896Y-16061984D01*
X12505896Y-16061984D02*
X12524944Y-16071508D01*
X12524944Y-16071508D02*
X12534467Y-16081031D01*
X12534467Y-16081031D02*
X12543991Y-16100079D01*
X12543991Y-16100079D02*
X12553515Y-16138174D01*
X12553515Y-16138174D02*
X12553515Y-16185793D01*
X12553515Y-16185793D02*
X12543991Y-16223888D01*
X12543991Y-16223888D02*
X12534467Y-16242936D01*
X12534467Y-16242936D02*
X12524944Y-16252460D01*
X12524944Y-16252460D02*
X12505896Y-16261984D01*
X12505896Y-16261984D02*
X12486848Y-16261984D01*
X12486848Y-16261984D02*
X12467801Y-16252460D01*
X12467801Y-16252460D02*
X12458277Y-16242936D01*
X12458277Y-16242936D02*
X12448753Y-16223888D01*
X12448753Y-16223888D02*
X12439229Y-16185793D01*
X12439229Y-16185793D02*
X12439229Y-16138174D01*
X12439229Y-16138174D02*
X12448753Y-16100079D01*
X12448753Y-16100079D02*
X12458277Y-16081031D01*
X12458277Y-16081031D02*
X12467801Y-16071508D01*
X12467801Y-16071508D02*
X12486848Y-16061984D01*
X12620182Y-16061984D02*
X12743991Y-16061984D01*
X12743991Y-16061984D02*
X12677325Y-16138174D01*
X12677325Y-16138174D02*
X12705896Y-16138174D01*
X12705896Y-16138174D02*
X12724944Y-16147698D01*
X12724944Y-16147698D02*
X12734467Y-16157222D01*
X12734467Y-16157222D02*
X12743991Y-16176269D01*
X12743991Y-16176269D02*
X12743991Y-16223888D01*
X12743991Y-16223888D02*
X12734467Y-16242936D01*
X12734467Y-16242936D02*
X12724944Y-16252460D01*
X12724944Y-16252460D02*
X12705896Y-16261984D01*
X12705896Y-16261984D02*
X12648753Y-16261984D01*
X12648753Y-16261984D02*
X12629706Y-16252460D01*
X12629706Y-16252460D02*
X12620182Y-16242936D01*
X12867801Y-16061984D02*
X12886848Y-16061984D01*
X12886848Y-16061984D02*
X12905896Y-16071508D01*
X12905896Y-16071508D02*
X12915420Y-16081031D01*
X12915420Y-16081031D02*
X12924944Y-16100079D01*
X12924944Y-16100079D02*
X12934467Y-16138174D01*
X12934467Y-16138174D02*
X12934467Y-16185793D01*
X12934467Y-16185793D02*
X12924944Y-16223888D01*
X12924944Y-16223888D02*
X12915420Y-16242936D01*
X12915420Y-16242936D02*
X12905896Y-16252460D01*
X12905896Y-16252460D02*
X12886848Y-16261984D01*
X12886848Y-16261984D02*
X12867801Y-16261984D01*
X12867801Y-16261984D02*
X12848753Y-16252460D01*
X12848753Y-16252460D02*
X12839229Y-16242936D01*
X12839229Y-16242936D02*
X12829706Y-16223888D01*
X12829706Y-16223888D02*
X12820182Y-16185793D01*
X12820182Y-16185793D02*
X12820182Y-16138174D01*
X12820182Y-16138174D02*
X12829706Y-16100079D01*
X12829706Y-16100079D02*
X12839229Y-16081031D01*
X12839229Y-16081031D02*
X12848753Y-16071508D01*
X12848753Y-16071508D02*
X12867801Y-16061984D01*
X13058277Y-16061984D02*
X13077325Y-16061984D01*
X13077325Y-16061984D02*
X13096372Y-16071508D01*
X13096372Y-16071508D02*
X13105896Y-16081031D01*
X13105896Y-16081031D02*
X13115420Y-16100079D01*
X13115420Y-16100079D02*
X13124944Y-16138174D01*
X13124944Y-16138174D02*
X13124944Y-16185793D01*
X13124944Y-16185793D02*
X13115420Y-16223888D01*
X13115420Y-16223888D02*
X13105896Y-16242936D01*
X13105896Y-16242936D02*
X13096372Y-16252460D01*
X13096372Y-16252460D02*
X13077325Y-16261984D01*
X13077325Y-16261984D02*
X13058277Y-16261984D01*
X13058277Y-16261984D02*
X13039229Y-16252460D01*
X13039229Y-16252460D02*
X13029706Y-16242936D01*
X13029706Y-16242936D02*
X13020182Y-16223888D01*
X13020182Y-16223888D02*
X13010658Y-16185793D01*
X13010658Y-16185793D02*
X13010658Y-16138174D01*
X13010658Y-16138174D02*
X13020182Y-16100079D01*
X13020182Y-16100079D02*
X13029706Y-16081031D01*
X13029706Y-16081031D02*
X13039229Y-16071508D01*
X13039229Y-16071508D02*
X13058277Y-16061984D01*
X13201134Y-16061984D02*
X13201134Y-16100079D01*
X13277325Y-16061984D02*
X13277325Y-16100079D01*
X13572563Y-16338174D02*
X13563039Y-16328650D01*
X13563039Y-16328650D02*
X13543991Y-16300079D01*
X13543991Y-16300079D02*
X13534468Y-16281031D01*
X13534468Y-16281031D02*
X13524944Y-16252460D01*
X13524944Y-16252460D02*
X13515420Y-16204841D01*
X13515420Y-16204841D02*
X13515420Y-16166746D01*
X13515420Y-16166746D02*
X13524944Y-16119127D01*
X13524944Y-16119127D02*
X13534468Y-16090555D01*
X13534468Y-16090555D02*
X13543991Y-16071508D01*
X13543991Y-16071508D02*
X13563039Y-16042936D01*
X13563039Y-16042936D02*
X13572563Y-16033412D01*
X13629706Y-16061984D02*
X13753515Y-16061984D01*
X13753515Y-16061984D02*
X13686848Y-16138174D01*
X13686848Y-16138174D02*
X13715420Y-16138174D01*
X13715420Y-16138174D02*
X13734468Y-16147698D01*
X13734468Y-16147698D02*
X13743991Y-16157222D01*
X13743991Y-16157222D02*
X13753515Y-16176269D01*
X13753515Y-16176269D02*
X13753515Y-16223888D01*
X13753515Y-16223888D02*
X13743991Y-16242936D01*
X13743991Y-16242936D02*
X13734468Y-16252460D01*
X13734468Y-16252460D02*
X13715420Y-16261984D01*
X13715420Y-16261984D02*
X13658277Y-16261984D01*
X13658277Y-16261984D02*
X13639229Y-16252460D01*
X13639229Y-16252460D02*
X13629706Y-16242936D01*
X13991610Y-16261984D02*
X13991610Y-16061984D01*
X14077325Y-16261984D02*
X14077325Y-16157222D01*
X14077325Y-16157222D02*
X14067801Y-16138174D01*
X14067801Y-16138174D02*
X14048753Y-16128650D01*
X14048753Y-16128650D02*
X14020182Y-16128650D01*
X14020182Y-16128650D02*
X14001134Y-16138174D01*
X14001134Y-16138174D02*
X13991610Y-16147698D01*
X14201134Y-16261984D02*
X14182087Y-16252460D01*
X14182087Y-16252460D02*
X14172563Y-16242936D01*
X14172563Y-16242936D02*
X14163039Y-16223888D01*
X14163039Y-16223888D02*
X14163039Y-16166746D01*
X14163039Y-16166746D02*
X14172563Y-16147698D01*
X14172563Y-16147698D02*
X14182087Y-16138174D01*
X14182087Y-16138174D02*
X14201134Y-16128650D01*
X14201134Y-16128650D02*
X14229706Y-16128650D01*
X14229706Y-16128650D02*
X14248753Y-16138174D01*
X14248753Y-16138174D02*
X14258277Y-16147698D01*
X14258277Y-16147698D02*
X14267801Y-16166746D01*
X14267801Y-16166746D02*
X14267801Y-16223888D01*
X14267801Y-16223888D02*
X14258277Y-16242936D01*
X14258277Y-16242936D02*
X14248753Y-16252460D01*
X14248753Y-16252460D02*
X14229706Y-16261984D01*
X14229706Y-16261984D02*
X14201134Y-16261984D01*
X14382087Y-16261984D02*
X14363039Y-16252460D01*
X14363039Y-16252460D02*
X14353515Y-16233412D01*
X14353515Y-16233412D02*
X14353515Y-16061984D01*
X14534468Y-16252460D02*
X14515420Y-16261984D01*
X14515420Y-16261984D02*
X14477325Y-16261984D01*
X14477325Y-16261984D02*
X14458277Y-16252460D01*
X14458277Y-16252460D02*
X14448753Y-16233412D01*
X14448753Y-16233412D02*
X14448753Y-16157222D01*
X14448753Y-16157222D02*
X14458277Y-16138174D01*
X14458277Y-16138174D02*
X14477325Y-16128650D01*
X14477325Y-16128650D02*
X14515420Y-16128650D01*
X14515420Y-16128650D02*
X14534468Y-16138174D01*
X14534468Y-16138174D02*
X14543991Y-16157222D01*
X14543991Y-16157222D02*
X14543991Y-16176269D01*
X14543991Y-16176269D02*
X14448753Y-16195317D01*
X14620182Y-16252460D02*
X14639230Y-16261984D01*
X14639230Y-16261984D02*
X14677325Y-16261984D01*
X14677325Y-16261984D02*
X14696372Y-16252460D01*
X14696372Y-16252460D02*
X14705896Y-16233412D01*
X14705896Y-16233412D02*
X14705896Y-16223888D01*
X14705896Y-16223888D02*
X14696372Y-16204841D01*
X14696372Y-16204841D02*
X14677325Y-16195317D01*
X14677325Y-16195317D02*
X14648753Y-16195317D01*
X14648753Y-16195317D02*
X14629706Y-16185793D01*
X14629706Y-16185793D02*
X14620182Y-16166746D01*
X14620182Y-16166746D02*
X14620182Y-16157222D01*
X14620182Y-16157222D02*
X14629706Y-16138174D01*
X14629706Y-16138174D02*
X14648753Y-16128650D01*
X14648753Y-16128650D02*
X14677325Y-16128650D01*
X14677325Y-16128650D02*
X14696372Y-16138174D01*
X14772563Y-16338174D02*
X14782087Y-16328650D01*
X14782087Y-16328650D02*
X14801134Y-16300079D01*
X14801134Y-16300079D02*
X14810658Y-16281031D01*
X14810658Y-16281031D02*
X14820182Y-16252460D01*
X14820182Y-16252460D02*
X14829706Y-16204841D01*
X14829706Y-16204841D02*
X14829706Y-16166746D01*
X14829706Y-16166746D02*
X14820182Y-16119127D01*
X14820182Y-16119127D02*
X14810658Y-16090555D01*
X14810658Y-16090555D02*
X14801134Y-16071508D01*
X14801134Y-16071508D02*
X14782087Y-16042936D01*
X14782087Y-16042936D02*
X14772563Y-16033412D01*
D12*
X9985785Y-16462784D02*
X9985785Y-16406215D01*
X9929216Y-16406215D01*
X9929216Y-16462784D01*
X9985785Y-16462784D01*
D11*
X10296372Y-16325984D02*
X10315420Y-16325984D01*
X10315420Y-16325984D02*
X10334467Y-16335508D01*
X10334467Y-16335508D02*
X10343991Y-16345031D01*
X10343991Y-16345031D02*
X10353515Y-16364079D01*
X10353515Y-16364079D02*
X10363039Y-16402174D01*
X10363039Y-16402174D02*
X10363039Y-16449793D01*
X10363039Y-16449793D02*
X10353515Y-16487888D01*
X10353515Y-16487888D02*
X10343991Y-16506936D01*
X10343991Y-16506936D02*
X10334467Y-16516460D01*
X10334467Y-16516460D02*
X10315420Y-16525984D01*
X10315420Y-16525984D02*
X10296372Y-16525984D01*
X10296372Y-16525984D02*
X10277324Y-16516460D01*
X10277324Y-16516460D02*
X10267801Y-16506936D01*
X10267801Y-16506936D02*
X10258277Y-16487888D01*
X10258277Y-16487888D02*
X10248753Y-16449793D01*
X10248753Y-16449793D02*
X10248753Y-16402174D01*
X10248753Y-16402174D02*
X10258277Y-16364079D01*
X10258277Y-16364079D02*
X10267801Y-16345031D01*
X10267801Y-16345031D02*
X10277324Y-16335508D01*
X10277324Y-16335508D02*
X10296372Y-16325984D01*
X10448753Y-16506936D02*
X10458277Y-16516460D01*
X10458277Y-16516460D02*
X10448753Y-16525984D01*
X10448753Y-16525984D02*
X10439229Y-16516460D01*
X10439229Y-16516460D02*
X10448753Y-16506936D01*
X10448753Y-16506936D02*
X10448753Y-16525984D01*
X10572563Y-16411698D02*
X10553515Y-16402174D01*
X10553515Y-16402174D02*
X10543991Y-16392650D01*
X10543991Y-16392650D02*
X10534467Y-16373603D01*
X10534467Y-16373603D02*
X10534467Y-16364079D01*
X10534467Y-16364079D02*
X10543991Y-16345031D01*
X10543991Y-16345031D02*
X10553515Y-16335508D01*
X10553515Y-16335508D02*
X10572563Y-16325984D01*
X10572563Y-16325984D02*
X10610658Y-16325984D01*
X10610658Y-16325984D02*
X10629705Y-16335508D01*
X10629705Y-16335508D02*
X10639229Y-16345031D01*
X10639229Y-16345031D02*
X10648753Y-16364079D01*
X10648753Y-16364079D02*
X10648753Y-16373603D01*
X10648753Y-16373603D02*
X10639229Y-16392650D01*
X10639229Y-16392650D02*
X10629705Y-16402174D01*
X10629705Y-16402174D02*
X10610658Y-16411698D01*
X10610658Y-16411698D02*
X10572563Y-16411698D01*
X10572563Y-16411698D02*
X10553515Y-16421222D01*
X10553515Y-16421222D02*
X10543991Y-16430746D01*
X10543991Y-16430746D02*
X10534467Y-16449793D01*
X10534467Y-16449793D02*
X10534467Y-16487888D01*
X10534467Y-16487888D02*
X10543991Y-16506936D01*
X10543991Y-16506936D02*
X10553515Y-16516460D01*
X10553515Y-16516460D02*
X10572563Y-16525984D01*
X10572563Y-16525984D02*
X10610658Y-16525984D01*
X10610658Y-16525984D02*
X10629705Y-16516460D01*
X10629705Y-16516460D02*
X10639229Y-16506936D01*
X10639229Y-16506936D02*
X10648753Y-16487888D01*
X10648753Y-16487888D02*
X10648753Y-16449793D01*
X10648753Y-16449793D02*
X10639229Y-16430746D01*
X10639229Y-16430746D02*
X10629705Y-16421222D01*
X10629705Y-16421222D02*
X10610658Y-16411698D01*
X10772563Y-16325984D02*
X10791610Y-16325984D01*
X10791610Y-16325984D02*
X10810658Y-16335508D01*
X10810658Y-16335508D02*
X10820182Y-16345031D01*
X10820182Y-16345031D02*
X10829705Y-16364079D01*
X10829705Y-16364079D02*
X10839229Y-16402174D01*
X10839229Y-16402174D02*
X10839229Y-16449793D01*
X10839229Y-16449793D02*
X10829705Y-16487888D01*
X10829705Y-16487888D02*
X10820182Y-16506936D01*
X10820182Y-16506936D02*
X10810658Y-16516460D01*
X10810658Y-16516460D02*
X10791610Y-16525984D01*
X10791610Y-16525984D02*
X10772563Y-16525984D01*
X10772563Y-16525984D02*
X10753515Y-16516460D01*
X10753515Y-16516460D02*
X10743991Y-16506936D01*
X10743991Y-16506936D02*
X10734467Y-16487888D01*
X10734467Y-16487888D02*
X10724944Y-16449793D01*
X10724944Y-16449793D02*
X10724944Y-16402174D01*
X10724944Y-16402174D02*
X10734467Y-16364079D01*
X10734467Y-16364079D02*
X10743991Y-16345031D01*
X10743991Y-16345031D02*
X10753515Y-16335508D01*
X10753515Y-16335508D02*
X10772563Y-16325984D01*
X10963039Y-16325984D02*
X10982086Y-16325984D01*
X10982086Y-16325984D02*
X11001134Y-16335508D01*
X11001134Y-16335508D02*
X11010658Y-16345031D01*
X11010658Y-16345031D02*
X11020182Y-16364079D01*
X11020182Y-16364079D02*
X11029705Y-16402174D01*
X11029705Y-16402174D02*
X11029705Y-16449793D01*
X11029705Y-16449793D02*
X11020182Y-16487888D01*
X11020182Y-16487888D02*
X11010658Y-16506936D01*
X11010658Y-16506936D02*
X11001134Y-16516460D01*
X11001134Y-16516460D02*
X10982086Y-16525984D01*
X10982086Y-16525984D02*
X10963039Y-16525984D01*
X10963039Y-16525984D02*
X10943991Y-16516460D01*
X10943991Y-16516460D02*
X10934467Y-16506936D01*
X10934467Y-16506936D02*
X10924944Y-16487888D01*
X10924944Y-16487888D02*
X10915420Y-16449793D01*
X10915420Y-16449793D02*
X10915420Y-16402174D01*
X10915420Y-16402174D02*
X10924944Y-16364079D01*
X10924944Y-16364079D02*
X10934467Y-16345031D01*
X10934467Y-16345031D02*
X10943991Y-16335508D01*
X10943991Y-16335508D02*
X10963039Y-16325984D01*
X11115420Y-16525984D02*
X11115420Y-16392650D01*
X11115420Y-16411698D02*
X11124944Y-16402174D01*
X11124944Y-16402174D02*
X11143991Y-16392650D01*
X11143991Y-16392650D02*
X11172563Y-16392650D01*
X11172563Y-16392650D02*
X11191610Y-16402174D01*
X11191610Y-16402174D02*
X11201134Y-16421222D01*
X11201134Y-16421222D02*
X11201134Y-16525984D01*
X11201134Y-16421222D02*
X11210658Y-16402174D01*
X11210658Y-16402174D02*
X11229705Y-16392650D01*
X11229705Y-16392650D02*
X11258277Y-16392650D01*
X11258277Y-16392650D02*
X11277324Y-16402174D01*
X11277324Y-16402174D02*
X11286848Y-16421222D01*
X11286848Y-16421222D02*
X11286848Y-16525984D01*
X11382086Y-16525984D02*
X11382086Y-16392650D01*
X11382086Y-16411698D02*
X11391610Y-16402174D01*
X11391610Y-16402174D02*
X11410658Y-16392650D01*
X11410658Y-16392650D02*
X11439229Y-16392650D01*
X11439229Y-16392650D02*
X11458277Y-16402174D01*
X11458277Y-16402174D02*
X11467801Y-16421222D01*
X11467801Y-16421222D02*
X11467801Y-16525984D01*
X11467801Y-16421222D02*
X11477324Y-16402174D01*
X11477324Y-16402174D02*
X11496372Y-16392650D01*
X11496372Y-16392650D02*
X11524943Y-16392650D01*
X11524943Y-16392650D02*
X11543991Y-16402174D01*
X11543991Y-16402174D02*
X11553515Y-16421222D01*
X11553515Y-16421222D02*
X11553515Y-16525984D01*
X11943991Y-16316460D02*
X11772563Y-16573603D01*
X12201134Y-16325984D02*
X12220182Y-16325984D01*
X12220182Y-16325984D02*
X12239229Y-16335508D01*
X12239229Y-16335508D02*
X12248753Y-16345031D01*
X12248753Y-16345031D02*
X12258277Y-16364079D01*
X12258277Y-16364079D02*
X12267801Y-16402174D01*
X12267801Y-16402174D02*
X12267801Y-16449793D01*
X12267801Y-16449793D02*
X12258277Y-16487888D01*
X12258277Y-16487888D02*
X12248753Y-16506936D01*
X12248753Y-16506936D02*
X12239229Y-16516460D01*
X12239229Y-16516460D02*
X12220182Y-16525984D01*
X12220182Y-16525984D02*
X12201134Y-16525984D01*
X12201134Y-16525984D02*
X12182086Y-16516460D01*
X12182086Y-16516460D02*
X12172563Y-16506936D01*
X12172563Y-16506936D02*
X12163039Y-16487888D01*
X12163039Y-16487888D02*
X12153515Y-16449793D01*
X12153515Y-16449793D02*
X12153515Y-16402174D01*
X12153515Y-16402174D02*
X12163039Y-16364079D01*
X12163039Y-16364079D02*
X12172563Y-16345031D01*
X12172563Y-16345031D02*
X12182086Y-16335508D01*
X12182086Y-16335508D02*
X12201134Y-16325984D01*
X12353515Y-16506936D02*
X12363039Y-16516460D01*
X12363039Y-16516460D02*
X12353515Y-16525984D01*
X12353515Y-16525984D02*
X12343991Y-16516460D01*
X12343991Y-16516460D02*
X12353515Y-16506936D01*
X12353515Y-16506936D02*
X12353515Y-16525984D01*
X12486848Y-16325984D02*
X12505896Y-16325984D01*
X12505896Y-16325984D02*
X12524944Y-16335508D01*
X12524944Y-16335508D02*
X12534467Y-16345031D01*
X12534467Y-16345031D02*
X12543991Y-16364079D01*
X12543991Y-16364079D02*
X12553515Y-16402174D01*
X12553515Y-16402174D02*
X12553515Y-16449793D01*
X12553515Y-16449793D02*
X12543991Y-16487888D01*
X12543991Y-16487888D02*
X12534467Y-16506936D01*
X12534467Y-16506936D02*
X12524944Y-16516460D01*
X12524944Y-16516460D02*
X12505896Y-16525984D01*
X12505896Y-16525984D02*
X12486848Y-16525984D01*
X12486848Y-16525984D02*
X12467801Y-16516460D01*
X12467801Y-16516460D02*
X12458277Y-16506936D01*
X12458277Y-16506936D02*
X12448753Y-16487888D01*
X12448753Y-16487888D02*
X12439229Y-16449793D01*
X12439229Y-16449793D02*
X12439229Y-16402174D01*
X12439229Y-16402174D02*
X12448753Y-16364079D01*
X12448753Y-16364079D02*
X12458277Y-16345031D01*
X12458277Y-16345031D02*
X12467801Y-16335508D01*
X12467801Y-16335508D02*
X12486848Y-16325984D01*
X12620182Y-16325984D02*
X12743991Y-16325984D01*
X12743991Y-16325984D02*
X12677325Y-16402174D01*
X12677325Y-16402174D02*
X12705896Y-16402174D01*
X12705896Y-16402174D02*
X12724944Y-16411698D01*
X12724944Y-16411698D02*
X12734467Y-16421222D01*
X12734467Y-16421222D02*
X12743991Y-16440269D01*
X12743991Y-16440269D02*
X12743991Y-16487888D01*
X12743991Y-16487888D02*
X12734467Y-16506936D01*
X12734467Y-16506936D02*
X12724944Y-16516460D01*
X12724944Y-16516460D02*
X12705896Y-16525984D01*
X12705896Y-16525984D02*
X12648753Y-16525984D01*
X12648753Y-16525984D02*
X12629706Y-16516460D01*
X12629706Y-16516460D02*
X12620182Y-16506936D01*
X12934467Y-16525984D02*
X12820182Y-16525984D01*
X12877325Y-16525984D02*
X12877325Y-16325984D01*
X12877325Y-16325984D02*
X12858277Y-16354555D01*
X12858277Y-16354555D02*
X12839229Y-16373603D01*
X12839229Y-16373603D02*
X12820182Y-16383127D01*
X13115420Y-16325984D02*
X13020182Y-16325984D01*
X13020182Y-16325984D02*
X13010658Y-16421222D01*
X13010658Y-16421222D02*
X13020182Y-16411698D01*
X13020182Y-16411698D02*
X13039229Y-16402174D01*
X13039229Y-16402174D02*
X13086848Y-16402174D01*
X13086848Y-16402174D02*
X13105896Y-16411698D01*
X13105896Y-16411698D02*
X13115420Y-16421222D01*
X13115420Y-16421222D02*
X13124944Y-16440269D01*
X13124944Y-16440269D02*
X13124944Y-16487888D01*
X13124944Y-16487888D02*
X13115420Y-16506936D01*
X13115420Y-16506936D02*
X13105896Y-16516460D01*
X13105896Y-16516460D02*
X13086848Y-16525984D01*
X13086848Y-16525984D02*
X13039229Y-16525984D01*
X13039229Y-16525984D02*
X13020182Y-16516460D01*
X13020182Y-16516460D02*
X13010658Y-16506936D01*
X13201134Y-16325984D02*
X13201134Y-16364079D01*
X13277325Y-16325984D02*
X13277325Y-16364079D01*
X13572563Y-16602174D02*
X13563039Y-16592650D01*
X13563039Y-16592650D02*
X13543991Y-16564079D01*
X13543991Y-16564079D02*
X13534468Y-16545031D01*
X13534468Y-16545031D02*
X13524944Y-16516460D01*
X13524944Y-16516460D02*
X13515420Y-16468841D01*
X13515420Y-16468841D02*
X13515420Y-16430746D01*
X13515420Y-16430746D02*
X13524944Y-16383127D01*
X13524944Y-16383127D02*
X13534468Y-16354555D01*
X13534468Y-16354555D02*
X13543991Y-16335508D01*
X13543991Y-16335508D02*
X13563039Y-16306936D01*
X13563039Y-16306936D02*
X13572563Y-16297412D01*
X13734468Y-16392650D02*
X13734468Y-16525984D01*
X13686848Y-16316460D02*
X13639229Y-16459317D01*
X13639229Y-16459317D02*
X13763039Y-16459317D01*
X13991610Y-16525984D02*
X13991610Y-16325984D01*
X14077325Y-16525984D02*
X14077325Y-16421222D01*
X14077325Y-16421222D02*
X14067801Y-16402174D01*
X14067801Y-16402174D02*
X14048753Y-16392650D01*
X14048753Y-16392650D02*
X14020182Y-16392650D01*
X14020182Y-16392650D02*
X14001134Y-16402174D01*
X14001134Y-16402174D02*
X13991610Y-16411698D01*
X14201134Y-16525984D02*
X14182087Y-16516460D01*
X14182087Y-16516460D02*
X14172563Y-16506936D01*
X14172563Y-16506936D02*
X14163039Y-16487888D01*
X14163039Y-16487888D02*
X14163039Y-16430746D01*
X14163039Y-16430746D02*
X14172563Y-16411698D01*
X14172563Y-16411698D02*
X14182087Y-16402174D01*
X14182087Y-16402174D02*
X14201134Y-16392650D01*
X14201134Y-16392650D02*
X14229706Y-16392650D01*
X14229706Y-16392650D02*
X14248753Y-16402174D01*
X14248753Y-16402174D02*
X14258277Y-16411698D01*
X14258277Y-16411698D02*
X14267801Y-16430746D01*
X14267801Y-16430746D02*
X14267801Y-16487888D01*
X14267801Y-16487888D02*
X14258277Y-16506936D01*
X14258277Y-16506936D02*
X14248753Y-16516460D01*
X14248753Y-16516460D02*
X14229706Y-16525984D01*
X14229706Y-16525984D02*
X14201134Y-16525984D01*
X14382087Y-16525984D02*
X14363039Y-16516460D01*
X14363039Y-16516460D02*
X14353515Y-16497412D01*
X14353515Y-16497412D02*
X14353515Y-16325984D01*
X14534468Y-16516460D02*
X14515420Y-16525984D01*
X14515420Y-16525984D02*
X14477325Y-16525984D01*
X14477325Y-16525984D02*
X14458277Y-16516460D01*
X14458277Y-16516460D02*
X14448753Y-16497412D01*
X14448753Y-16497412D02*
X14448753Y-16421222D01*
X14448753Y-16421222D02*
X14458277Y-16402174D01*
X14458277Y-16402174D02*
X14477325Y-16392650D01*
X14477325Y-16392650D02*
X14515420Y-16392650D01*
X14515420Y-16392650D02*
X14534468Y-16402174D01*
X14534468Y-16402174D02*
X14543991Y-16421222D01*
X14543991Y-16421222D02*
X14543991Y-16440269D01*
X14543991Y-16440269D02*
X14448753Y-16459317D01*
X14620182Y-16516460D02*
X14639230Y-16525984D01*
X14639230Y-16525984D02*
X14677325Y-16525984D01*
X14677325Y-16525984D02*
X14696372Y-16516460D01*
X14696372Y-16516460D02*
X14705896Y-16497412D01*
X14705896Y-16497412D02*
X14705896Y-16487888D01*
X14705896Y-16487888D02*
X14696372Y-16468841D01*
X14696372Y-16468841D02*
X14677325Y-16459317D01*
X14677325Y-16459317D02*
X14648753Y-16459317D01*
X14648753Y-16459317D02*
X14629706Y-16449793D01*
X14629706Y-16449793D02*
X14620182Y-16430746D01*
X14620182Y-16430746D02*
X14620182Y-16421222D01*
X14620182Y-16421222D02*
X14629706Y-16402174D01*
X14629706Y-16402174D02*
X14648753Y-16392650D01*
X14648753Y-16392650D02*
X14677325Y-16392650D01*
X14677325Y-16392650D02*
X14696372Y-16402174D01*
X14772563Y-16602174D02*
X14782087Y-16592650D01*
X14782087Y-16592650D02*
X14801134Y-16564079D01*
X14801134Y-16564079D02*
X14810658Y-16545031D01*
X14810658Y-16545031D02*
X14820182Y-16516460D01*
X14820182Y-16516460D02*
X14829706Y-16468841D01*
X14829706Y-16468841D02*
X14829706Y-16430746D01*
X14829706Y-16430746D02*
X14820182Y-16383127D01*
X14820182Y-16383127D02*
X14810658Y-16354555D01*
X14810658Y-16354555D02*
X14801134Y-16335508D01*
X14801134Y-16335508D02*
X14782087Y-16306936D01*
X14782087Y-16306936D02*
X14772563Y-16297412D01*
D12*
X9947500Y-16748500D02*
X9997500Y-16698500D01*
X9947500Y-16648500D01*
X9897500Y-16698500D01*
X9947500Y-16748500D01*
D11*
X10363039Y-16789984D02*
X10248753Y-16789984D01*
X10305896Y-16789984D02*
X10305896Y-16589984D01*
X10305896Y-16589984D02*
X10286848Y-16618555D01*
X10286848Y-16618555D02*
X10267801Y-16637603D01*
X10267801Y-16637603D02*
X10248753Y-16647127D01*
X10448753Y-16770936D02*
X10458277Y-16780460D01*
X10458277Y-16780460D02*
X10448753Y-16789984D01*
X10448753Y-16789984D02*
X10439229Y-16780460D01*
X10439229Y-16780460D02*
X10448753Y-16770936D01*
X10448753Y-16770936D02*
X10448753Y-16789984D01*
X10582086Y-16589984D02*
X10601134Y-16589984D01*
X10601134Y-16589984D02*
X10620182Y-16599508D01*
X10620182Y-16599508D02*
X10629705Y-16609031D01*
X10629705Y-16609031D02*
X10639229Y-16628079D01*
X10639229Y-16628079D02*
X10648753Y-16666174D01*
X10648753Y-16666174D02*
X10648753Y-16713793D01*
X10648753Y-16713793D02*
X10639229Y-16751888D01*
X10639229Y-16751888D02*
X10629705Y-16770936D01*
X10629705Y-16770936D02*
X10620182Y-16780460D01*
X10620182Y-16780460D02*
X10601134Y-16789984D01*
X10601134Y-16789984D02*
X10582086Y-16789984D01*
X10582086Y-16789984D02*
X10563039Y-16780460D01*
X10563039Y-16780460D02*
X10553515Y-16770936D01*
X10553515Y-16770936D02*
X10543991Y-16751888D01*
X10543991Y-16751888D02*
X10534467Y-16713793D01*
X10534467Y-16713793D02*
X10534467Y-16666174D01*
X10534467Y-16666174D02*
X10543991Y-16628079D01*
X10543991Y-16628079D02*
X10553515Y-16609031D01*
X10553515Y-16609031D02*
X10563039Y-16599508D01*
X10563039Y-16599508D02*
X10582086Y-16589984D01*
X10772563Y-16589984D02*
X10791610Y-16589984D01*
X10791610Y-16589984D02*
X10810658Y-16599508D01*
X10810658Y-16599508D02*
X10820182Y-16609031D01*
X10820182Y-16609031D02*
X10829705Y-16628079D01*
X10829705Y-16628079D02*
X10839229Y-16666174D01*
X10839229Y-16666174D02*
X10839229Y-16713793D01*
X10839229Y-16713793D02*
X10829705Y-16751888D01*
X10829705Y-16751888D02*
X10820182Y-16770936D01*
X10820182Y-16770936D02*
X10810658Y-16780460D01*
X10810658Y-16780460D02*
X10791610Y-16789984D01*
X10791610Y-16789984D02*
X10772563Y-16789984D01*
X10772563Y-16789984D02*
X10753515Y-16780460D01*
X10753515Y-16780460D02*
X10743991Y-16770936D01*
X10743991Y-16770936D02*
X10734467Y-16751888D01*
X10734467Y-16751888D02*
X10724944Y-16713793D01*
X10724944Y-16713793D02*
X10724944Y-16666174D01*
X10724944Y-16666174D02*
X10734467Y-16628079D01*
X10734467Y-16628079D02*
X10743991Y-16609031D01*
X10743991Y-16609031D02*
X10753515Y-16599508D01*
X10753515Y-16599508D02*
X10772563Y-16589984D01*
X10963039Y-16589984D02*
X10982086Y-16589984D01*
X10982086Y-16589984D02*
X11001134Y-16599508D01*
X11001134Y-16599508D02*
X11010658Y-16609031D01*
X11010658Y-16609031D02*
X11020182Y-16628079D01*
X11020182Y-16628079D02*
X11029705Y-16666174D01*
X11029705Y-16666174D02*
X11029705Y-16713793D01*
X11029705Y-16713793D02*
X11020182Y-16751888D01*
X11020182Y-16751888D02*
X11010658Y-16770936D01*
X11010658Y-16770936D02*
X11001134Y-16780460D01*
X11001134Y-16780460D02*
X10982086Y-16789984D01*
X10982086Y-16789984D02*
X10963039Y-16789984D01*
X10963039Y-16789984D02*
X10943991Y-16780460D01*
X10943991Y-16780460D02*
X10934467Y-16770936D01*
X10934467Y-16770936D02*
X10924944Y-16751888D01*
X10924944Y-16751888D02*
X10915420Y-16713793D01*
X10915420Y-16713793D02*
X10915420Y-16666174D01*
X10915420Y-16666174D02*
X10924944Y-16628079D01*
X10924944Y-16628079D02*
X10934467Y-16609031D01*
X10934467Y-16609031D02*
X10943991Y-16599508D01*
X10943991Y-16599508D02*
X10963039Y-16589984D01*
X11115420Y-16789984D02*
X11115420Y-16656650D01*
X11115420Y-16675698D02*
X11124944Y-16666174D01*
X11124944Y-16666174D02*
X11143991Y-16656650D01*
X11143991Y-16656650D02*
X11172563Y-16656650D01*
X11172563Y-16656650D02*
X11191610Y-16666174D01*
X11191610Y-16666174D02*
X11201134Y-16685222D01*
X11201134Y-16685222D02*
X11201134Y-16789984D01*
X11201134Y-16685222D02*
X11210658Y-16666174D01*
X11210658Y-16666174D02*
X11229705Y-16656650D01*
X11229705Y-16656650D02*
X11258277Y-16656650D01*
X11258277Y-16656650D02*
X11277324Y-16666174D01*
X11277324Y-16666174D02*
X11286848Y-16685222D01*
X11286848Y-16685222D02*
X11286848Y-16789984D01*
X11382086Y-16789984D02*
X11382086Y-16656650D01*
X11382086Y-16675698D02*
X11391610Y-16666174D01*
X11391610Y-16666174D02*
X11410658Y-16656650D01*
X11410658Y-16656650D02*
X11439229Y-16656650D01*
X11439229Y-16656650D02*
X11458277Y-16666174D01*
X11458277Y-16666174D02*
X11467801Y-16685222D01*
X11467801Y-16685222D02*
X11467801Y-16789984D01*
X11467801Y-16685222D02*
X11477324Y-16666174D01*
X11477324Y-16666174D02*
X11496372Y-16656650D01*
X11496372Y-16656650D02*
X11524943Y-16656650D01*
X11524943Y-16656650D02*
X11543991Y-16666174D01*
X11543991Y-16666174D02*
X11553515Y-16685222D01*
X11553515Y-16685222D02*
X11553515Y-16789984D01*
X11943991Y-16580460D02*
X11772563Y-16837603D01*
X12201134Y-16589984D02*
X12220182Y-16589984D01*
X12220182Y-16589984D02*
X12239229Y-16599508D01*
X12239229Y-16599508D02*
X12248753Y-16609031D01*
X12248753Y-16609031D02*
X12258277Y-16628079D01*
X12258277Y-16628079D02*
X12267801Y-16666174D01*
X12267801Y-16666174D02*
X12267801Y-16713793D01*
X12267801Y-16713793D02*
X12258277Y-16751888D01*
X12258277Y-16751888D02*
X12248753Y-16770936D01*
X12248753Y-16770936D02*
X12239229Y-16780460D01*
X12239229Y-16780460D02*
X12220182Y-16789984D01*
X12220182Y-16789984D02*
X12201134Y-16789984D01*
X12201134Y-16789984D02*
X12182086Y-16780460D01*
X12182086Y-16780460D02*
X12172563Y-16770936D01*
X12172563Y-16770936D02*
X12163039Y-16751888D01*
X12163039Y-16751888D02*
X12153515Y-16713793D01*
X12153515Y-16713793D02*
X12153515Y-16666174D01*
X12153515Y-16666174D02*
X12163039Y-16628079D01*
X12163039Y-16628079D02*
X12172563Y-16609031D01*
X12172563Y-16609031D02*
X12182086Y-16599508D01*
X12182086Y-16599508D02*
X12201134Y-16589984D01*
X12353515Y-16770936D02*
X12363039Y-16780460D01*
X12363039Y-16780460D02*
X12353515Y-16789984D01*
X12353515Y-16789984D02*
X12343991Y-16780460D01*
X12343991Y-16780460D02*
X12353515Y-16770936D01*
X12353515Y-16770936D02*
X12353515Y-16789984D01*
X12486848Y-16589984D02*
X12505896Y-16589984D01*
X12505896Y-16589984D02*
X12524944Y-16599508D01*
X12524944Y-16599508D02*
X12534467Y-16609031D01*
X12534467Y-16609031D02*
X12543991Y-16628079D01*
X12543991Y-16628079D02*
X12553515Y-16666174D01*
X12553515Y-16666174D02*
X12553515Y-16713793D01*
X12553515Y-16713793D02*
X12543991Y-16751888D01*
X12543991Y-16751888D02*
X12534467Y-16770936D01*
X12534467Y-16770936D02*
X12524944Y-16780460D01*
X12524944Y-16780460D02*
X12505896Y-16789984D01*
X12505896Y-16789984D02*
X12486848Y-16789984D01*
X12486848Y-16789984D02*
X12467801Y-16780460D01*
X12467801Y-16780460D02*
X12458277Y-16770936D01*
X12458277Y-16770936D02*
X12448753Y-16751888D01*
X12448753Y-16751888D02*
X12439229Y-16713793D01*
X12439229Y-16713793D02*
X12439229Y-16666174D01*
X12439229Y-16666174D02*
X12448753Y-16628079D01*
X12448753Y-16628079D02*
X12458277Y-16609031D01*
X12458277Y-16609031D02*
X12467801Y-16599508D01*
X12467801Y-16599508D02*
X12486848Y-16589984D01*
X12620182Y-16589984D02*
X12743991Y-16589984D01*
X12743991Y-16589984D02*
X12677325Y-16666174D01*
X12677325Y-16666174D02*
X12705896Y-16666174D01*
X12705896Y-16666174D02*
X12724944Y-16675698D01*
X12724944Y-16675698D02*
X12734467Y-16685222D01*
X12734467Y-16685222D02*
X12743991Y-16704269D01*
X12743991Y-16704269D02*
X12743991Y-16751888D01*
X12743991Y-16751888D02*
X12734467Y-16770936D01*
X12734467Y-16770936D02*
X12724944Y-16780460D01*
X12724944Y-16780460D02*
X12705896Y-16789984D01*
X12705896Y-16789984D02*
X12648753Y-16789984D01*
X12648753Y-16789984D02*
X12629706Y-16780460D01*
X12629706Y-16780460D02*
X12620182Y-16770936D01*
X12839229Y-16789984D02*
X12877325Y-16789984D01*
X12877325Y-16789984D02*
X12896372Y-16780460D01*
X12896372Y-16780460D02*
X12905896Y-16770936D01*
X12905896Y-16770936D02*
X12924944Y-16742365D01*
X12924944Y-16742365D02*
X12934467Y-16704269D01*
X12934467Y-16704269D02*
X12934467Y-16628079D01*
X12934467Y-16628079D02*
X12924944Y-16609031D01*
X12924944Y-16609031D02*
X12915420Y-16599508D01*
X12915420Y-16599508D02*
X12896372Y-16589984D01*
X12896372Y-16589984D02*
X12858277Y-16589984D01*
X12858277Y-16589984D02*
X12839229Y-16599508D01*
X12839229Y-16599508D02*
X12829706Y-16609031D01*
X12829706Y-16609031D02*
X12820182Y-16628079D01*
X12820182Y-16628079D02*
X12820182Y-16675698D01*
X12820182Y-16675698D02*
X12829706Y-16694746D01*
X12829706Y-16694746D02*
X12839229Y-16704269D01*
X12839229Y-16704269D02*
X12858277Y-16713793D01*
X12858277Y-16713793D02*
X12896372Y-16713793D01*
X12896372Y-16713793D02*
X12915420Y-16704269D01*
X12915420Y-16704269D02*
X12924944Y-16694746D01*
X12924944Y-16694746D02*
X12934467Y-16675698D01*
X13105896Y-16656650D02*
X13105896Y-16789984D01*
X13058277Y-16580460D02*
X13010658Y-16723317D01*
X13010658Y-16723317D02*
X13134467Y-16723317D01*
X13201134Y-16589984D02*
X13201134Y-16628079D01*
X13277325Y-16589984D02*
X13277325Y-16628079D01*
X13572563Y-16866174D02*
X13563039Y-16856650D01*
X13563039Y-16856650D02*
X13543991Y-16828079D01*
X13543991Y-16828079D02*
X13534468Y-16809031D01*
X13534468Y-16809031D02*
X13524944Y-16780460D01*
X13524944Y-16780460D02*
X13515420Y-16732841D01*
X13515420Y-16732841D02*
X13515420Y-16694746D01*
X13515420Y-16694746D02*
X13524944Y-16647127D01*
X13524944Y-16647127D02*
X13534468Y-16618555D01*
X13534468Y-16618555D02*
X13543991Y-16599508D01*
X13543991Y-16599508D02*
X13563039Y-16570936D01*
X13563039Y-16570936D02*
X13572563Y-16561412D01*
X13639229Y-16609031D02*
X13648753Y-16599508D01*
X13648753Y-16599508D02*
X13667801Y-16589984D01*
X13667801Y-16589984D02*
X13715420Y-16589984D01*
X13715420Y-16589984D02*
X13734468Y-16599508D01*
X13734468Y-16599508D02*
X13743991Y-16609031D01*
X13743991Y-16609031D02*
X13753515Y-16628079D01*
X13753515Y-16628079D02*
X13753515Y-16647127D01*
X13753515Y-16647127D02*
X13743991Y-16675698D01*
X13743991Y-16675698D02*
X13629706Y-16789984D01*
X13629706Y-16789984D02*
X13753515Y-16789984D01*
X13820182Y-16589984D02*
X13943991Y-16589984D01*
X13943991Y-16589984D02*
X13877325Y-16666174D01*
X13877325Y-16666174D02*
X13905896Y-16666174D01*
X13905896Y-16666174D02*
X13924944Y-16675698D01*
X13924944Y-16675698D02*
X13934468Y-16685222D01*
X13934468Y-16685222D02*
X13943991Y-16704269D01*
X13943991Y-16704269D02*
X13943991Y-16751888D01*
X13943991Y-16751888D02*
X13934468Y-16770936D01*
X13934468Y-16770936D02*
X13924944Y-16780460D01*
X13924944Y-16780460D02*
X13905896Y-16789984D01*
X13905896Y-16789984D02*
X13848753Y-16789984D01*
X13848753Y-16789984D02*
X13829706Y-16780460D01*
X13829706Y-16780460D02*
X13820182Y-16770936D01*
X14182087Y-16789984D02*
X14182087Y-16589984D01*
X14267801Y-16789984D02*
X14267801Y-16685222D01*
X14267801Y-16685222D02*
X14258277Y-16666174D01*
X14258277Y-16666174D02*
X14239230Y-16656650D01*
X14239230Y-16656650D02*
X14210658Y-16656650D01*
X14210658Y-16656650D02*
X14191610Y-16666174D01*
X14191610Y-16666174D02*
X14182087Y-16675698D01*
X14391610Y-16789984D02*
X14372563Y-16780460D01*
X14372563Y-16780460D02*
X14363039Y-16770936D01*
X14363039Y-16770936D02*
X14353515Y-16751888D01*
X14353515Y-16751888D02*
X14353515Y-16694746D01*
X14353515Y-16694746D02*
X14363039Y-16675698D01*
X14363039Y-16675698D02*
X14372563Y-16666174D01*
X14372563Y-16666174D02*
X14391610Y-16656650D01*
X14391610Y-16656650D02*
X14420182Y-16656650D01*
X14420182Y-16656650D02*
X14439230Y-16666174D01*
X14439230Y-16666174D02*
X14448753Y-16675698D01*
X14448753Y-16675698D02*
X14458277Y-16694746D01*
X14458277Y-16694746D02*
X14458277Y-16751888D01*
X14458277Y-16751888D02*
X14448753Y-16770936D01*
X14448753Y-16770936D02*
X14439230Y-16780460D01*
X14439230Y-16780460D02*
X14420182Y-16789984D01*
X14420182Y-16789984D02*
X14391610Y-16789984D01*
X14572563Y-16789984D02*
X14553515Y-16780460D01*
X14553515Y-16780460D02*
X14543991Y-16761412D01*
X14543991Y-16761412D02*
X14543991Y-16589984D01*
X14724944Y-16780460D02*
X14705896Y-16789984D01*
X14705896Y-16789984D02*
X14667801Y-16789984D01*
X14667801Y-16789984D02*
X14648753Y-16780460D01*
X14648753Y-16780460D02*
X14639230Y-16761412D01*
X14639230Y-16761412D02*
X14639230Y-16685222D01*
X14639230Y-16685222D02*
X14648753Y-16666174D01*
X14648753Y-16666174D02*
X14667801Y-16656650D01*
X14667801Y-16656650D02*
X14705896Y-16656650D01*
X14705896Y-16656650D02*
X14724944Y-16666174D01*
X14724944Y-16666174D02*
X14734468Y-16685222D01*
X14734468Y-16685222D02*
X14734468Y-16704269D01*
X14734468Y-16704269D02*
X14639230Y-16723317D01*
X14810658Y-16780460D02*
X14829706Y-16789984D01*
X14829706Y-16789984D02*
X14867801Y-16789984D01*
X14867801Y-16789984D02*
X14886849Y-16780460D01*
X14886849Y-16780460D02*
X14896372Y-16761412D01*
X14896372Y-16761412D02*
X14896372Y-16751888D01*
X14896372Y-16751888D02*
X14886849Y-16732841D01*
X14886849Y-16732841D02*
X14867801Y-16723317D01*
X14867801Y-16723317D02*
X14839230Y-16723317D01*
X14839230Y-16723317D02*
X14820182Y-16713793D01*
X14820182Y-16713793D02*
X14810658Y-16694746D01*
X14810658Y-16694746D02*
X14810658Y-16685222D01*
X14810658Y-16685222D02*
X14820182Y-16666174D01*
X14820182Y-16666174D02*
X14839230Y-16656650D01*
X14839230Y-16656650D02*
X14867801Y-16656650D01*
X14867801Y-16656650D02*
X14886849Y-16666174D01*
X14963039Y-16866174D02*
X14972563Y-16856650D01*
X14972563Y-16856650D02*
X14991611Y-16828079D01*
X14991611Y-16828079D02*
X15001134Y-16809031D01*
X15001134Y-16809031D02*
X15010658Y-16780460D01*
X15010658Y-16780460D02*
X15020182Y-16732841D01*
X15020182Y-16732841D02*
X15020182Y-16694746D01*
X15020182Y-16694746D02*
X15010658Y-16647127D01*
X15010658Y-16647127D02*
X15001134Y-16618555D01*
X15001134Y-16618555D02*
X14991611Y-16599508D01*
X14991611Y-16599508D02*
X14972563Y-16570936D01*
X14972563Y-16570936D02*
X14963039Y-16561412D01*
D13*
X9888280Y-16907890D02*
X9997500Y-17017110D01*
X9997500Y-16907890D02*
X9888280Y-17017110D01*
X9997500Y-16962500D02*
G75*
G02*
X9888280Y-16962500I-54610J0D01*
G01*
X9888280Y-16962500D02*
G75*
G02*
X9997500Y-16962500I54610J0D01*
G01*
D11*
X10363039Y-17053984D02*
X10248753Y-17053984D01*
X10305896Y-17053984D02*
X10305896Y-16853984D01*
X10305896Y-16853984D02*
X10286848Y-16882555D01*
X10286848Y-16882555D02*
X10267801Y-16901603D01*
X10267801Y-16901603D02*
X10248753Y-16911127D01*
X10448753Y-17034936D02*
X10458277Y-17044460D01*
X10458277Y-17044460D02*
X10448753Y-17053984D01*
X10448753Y-17053984D02*
X10439229Y-17044460D01*
X10439229Y-17044460D02*
X10448753Y-17034936D01*
X10448753Y-17034936D02*
X10448753Y-17053984D01*
X10582086Y-16853984D02*
X10601134Y-16853984D01*
X10601134Y-16853984D02*
X10620182Y-16863508D01*
X10620182Y-16863508D02*
X10629705Y-16873031D01*
X10629705Y-16873031D02*
X10639229Y-16892079D01*
X10639229Y-16892079D02*
X10648753Y-16930174D01*
X10648753Y-16930174D02*
X10648753Y-16977793D01*
X10648753Y-16977793D02*
X10639229Y-17015889D01*
X10639229Y-17015889D02*
X10629705Y-17034936D01*
X10629705Y-17034936D02*
X10620182Y-17044460D01*
X10620182Y-17044460D02*
X10601134Y-17053984D01*
X10601134Y-17053984D02*
X10582086Y-17053984D01*
X10582086Y-17053984D02*
X10563039Y-17044460D01*
X10563039Y-17044460D02*
X10553515Y-17034936D01*
X10553515Y-17034936D02*
X10543991Y-17015889D01*
X10543991Y-17015889D02*
X10534467Y-16977793D01*
X10534467Y-16977793D02*
X10534467Y-16930174D01*
X10534467Y-16930174D02*
X10543991Y-16892079D01*
X10543991Y-16892079D02*
X10553515Y-16873031D01*
X10553515Y-16873031D02*
X10563039Y-16863508D01*
X10563039Y-16863508D02*
X10582086Y-16853984D01*
X10743991Y-17053984D02*
X10782086Y-17053984D01*
X10782086Y-17053984D02*
X10801134Y-17044460D01*
X10801134Y-17044460D02*
X10810658Y-17034936D01*
X10810658Y-17034936D02*
X10829705Y-17006365D01*
X10829705Y-17006365D02*
X10839229Y-16968270D01*
X10839229Y-16968270D02*
X10839229Y-16892079D01*
X10839229Y-16892079D02*
X10829705Y-16873031D01*
X10829705Y-16873031D02*
X10820182Y-16863508D01*
X10820182Y-16863508D02*
X10801134Y-16853984D01*
X10801134Y-16853984D02*
X10763039Y-16853984D01*
X10763039Y-16853984D02*
X10743991Y-16863508D01*
X10743991Y-16863508D02*
X10734467Y-16873031D01*
X10734467Y-16873031D02*
X10724944Y-16892079D01*
X10724944Y-16892079D02*
X10724944Y-16939698D01*
X10724944Y-16939698D02*
X10734467Y-16958746D01*
X10734467Y-16958746D02*
X10743991Y-16968270D01*
X10743991Y-16968270D02*
X10763039Y-16977793D01*
X10763039Y-16977793D02*
X10801134Y-16977793D01*
X10801134Y-16977793D02*
X10820182Y-16968270D01*
X10820182Y-16968270D02*
X10829705Y-16958746D01*
X10829705Y-16958746D02*
X10839229Y-16939698D01*
X10915420Y-16873031D02*
X10924944Y-16863508D01*
X10924944Y-16863508D02*
X10943991Y-16853984D01*
X10943991Y-16853984D02*
X10991610Y-16853984D01*
X10991610Y-16853984D02*
X11010658Y-16863508D01*
X11010658Y-16863508D02*
X11020182Y-16873031D01*
X11020182Y-16873031D02*
X11029705Y-16892079D01*
X11029705Y-16892079D02*
X11029705Y-16911127D01*
X11029705Y-16911127D02*
X11020182Y-16939698D01*
X11020182Y-16939698D02*
X10905896Y-17053984D01*
X10905896Y-17053984D02*
X11029705Y-17053984D01*
X11115420Y-17053984D02*
X11115420Y-16920650D01*
X11115420Y-16939698D02*
X11124944Y-16930174D01*
X11124944Y-16930174D02*
X11143991Y-16920650D01*
X11143991Y-16920650D02*
X11172563Y-16920650D01*
X11172563Y-16920650D02*
X11191610Y-16930174D01*
X11191610Y-16930174D02*
X11201134Y-16949222D01*
X11201134Y-16949222D02*
X11201134Y-17053984D01*
X11201134Y-16949222D02*
X11210658Y-16930174D01*
X11210658Y-16930174D02*
X11229705Y-16920650D01*
X11229705Y-16920650D02*
X11258277Y-16920650D01*
X11258277Y-16920650D02*
X11277324Y-16930174D01*
X11277324Y-16930174D02*
X11286848Y-16949222D01*
X11286848Y-16949222D02*
X11286848Y-17053984D01*
X11382086Y-17053984D02*
X11382086Y-16920650D01*
X11382086Y-16939698D02*
X11391610Y-16930174D01*
X11391610Y-16930174D02*
X11410658Y-16920650D01*
X11410658Y-16920650D02*
X11439229Y-16920650D01*
X11439229Y-16920650D02*
X11458277Y-16930174D01*
X11458277Y-16930174D02*
X11467801Y-16949222D01*
X11467801Y-16949222D02*
X11467801Y-17053984D01*
X11467801Y-16949222D02*
X11477324Y-16930174D01*
X11477324Y-16930174D02*
X11496372Y-16920650D01*
X11496372Y-16920650D02*
X11524943Y-16920650D01*
X11524943Y-16920650D02*
X11543991Y-16930174D01*
X11543991Y-16930174D02*
X11553515Y-16949222D01*
X11553515Y-16949222D02*
X11553515Y-17053984D01*
X11943991Y-16844460D02*
X11772563Y-17101603D01*
X12201134Y-16853984D02*
X12220182Y-16853984D01*
X12220182Y-16853984D02*
X12239229Y-16863508D01*
X12239229Y-16863508D02*
X12248753Y-16873031D01*
X12248753Y-16873031D02*
X12258277Y-16892079D01*
X12258277Y-16892079D02*
X12267801Y-16930174D01*
X12267801Y-16930174D02*
X12267801Y-16977793D01*
X12267801Y-16977793D02*
X12258277Y-17015889D01*
X12258277Y-17015889D02*
X12248753Y-17034936D01*
X12248753Y-17034936D02*
X12239229Y-17044460D01*
X12239229Y-17044460D02*
X12220182Y-17053984D01*
X12220182Y-17053984D02*
X12201134Y-17053984D01*
X12201134Y-17053984D02*
X12182086Y-17044460D01*
X12182086Y-17044460D02*
X12172563Y-17034936D01*
X12172563Y-17034936D02*
X12163039Y-17015889D01*
X12163039Y-17015889D02*
X12153515Y-16977793D01*
X12153515Y-16977793D02*
X12153515Y-16930174D01*
X12153515Y-16930174D02*
X12163039Y-16892079D01*
X12163039Y-16892079D02*
X12172563Y-16873031D01*
X12172563Y-16873031D02*
X12182086Y-16863508D01*
X12182086Y-16863508D02*
X12201134Y-16853984D01*
X12353515Y-17034936D02*
X12363039Y-17044460D01*
X12363039Y-17044460D02*
X12353515Y-17053984D01*
X12353515Y-17053984D02*
X12343991Y-17044460D01*
X12343991Y-17044460D02*
X12353515Y-17034936D01*
X12353515Y-17034936D02*
X12353515Y-17053984D01*
X12486848Y-16853984D02*
X12505896Y-16853984D01*
X12505896Y-16853984D02*
X12524944Y-16863508D01*
X12524944Y-16863508D02*
X12534467Y-16873031D01*
X12534467Y-16873031D02*
X12543991Y-16892079D01*
X12543991Y-16892079D02*
X12553515Y-16930174D01*
X12553515Y-16930174D02*
X12553515Y-16977793D01*
X12553515Y-16977793D02*
X12543991Y-17015889D01*
X12543991Y-17015889D02*
X12534467Y-17034936D01*
X12534467Y-17034936D02*
X12524944Y-17044460D01*
X12524944Y-17044460D02*
X12505896Y-17053984D01*
X12505896Y-17053984D02*
X12486848Y-17053984D01*
X12486848Y-17053984D02*
X12467801Y-17044460D01*
X12467801Y-17044460D02*
X12458277Y-17034936D01*
X12458277Y-17034936D02*
X12448753Y-17015889D01*
X12448753Y-17015889D02*
X12439229Y-16977793D01*
X12439229Y-16977793D02*
X12439229Y-16930174D01*
X12439229Y-16930174D02*
X12448753Y-16892079D01*
X12448753Y-16892079D02*
X12458277Y-16873031D01*
X12458277Y-16873031D02*
X12467801Y-16863508D01*
X12467801Y-16863508D02*
X12486848Y-16853984D01*
X12724944Y-16920650D02*
X12724944Y-17053984D01*
X12677325Y-16844460D02*
X12629706Y-16987317D01*
X12629706Y-16987317D02*
X12753515Y-16987317D01*
X12810658Y-16853984D02*
X12934467Y-16853984D01*
X12934467Y-16853984D02*
X12867801Y-16930174D01*
X12867801Y-16930174D02*
X12896372Y-16930174D01*
X12896372Y-16930174D02*
X12915420Y-16939698D01*
X12915420Y-16939698D02*
X12924944Y-16949222D01*
X12924944Y-16949222D02*
X12934467Y-16968270D01*
X12934467Y-16968270D02*
X12934467Y-17015889D01*
X12934467Y-17015889D02*
X12924944Y-17034936D01*
X12924944Y-17034936D02*
X12915420Y-17044460D01*
X12915420Y-17044460D02*
X12896372Y-17053984D01*
X12896372Y-17053984D02*
X12839229Y-17053984D01*
X12839229Y-17053984D02*
X12820182Y-17044460D01*
X12820182Y-17044460D02*
X12810658Y-17034936D01*
X13058277Y-16853984D02*
X13077325Y-16853984D01*
X13077325Y-16853984D02*
X13096372Y-16863508D01*
X13096372Y-16863508D02*
X13105896Y-16873031D01*
X13105896Y-16873031D02*
X13115420Y-16892079D01*
X13115420Y-16892079D02*
X13124944Y-16930174D01*
X13124944Y-16930174D02*
X13124944Y-16977793D01*
X13124944Y-16977793D02*
X13115420Y-17015889D01*
X13115420Y-17015889D02*
X13105896Y-17034936D01*
X13105896Y-17034936D02*
X13096372Y-17044460D01*
X13096372Y-17044460D02*
X13077325Y-17053984D01*
X13077325Y-17053984D02*
X13058277Y-17053984D01*
X13058277Y-17053984D02*
X13039229Y-17044460D01*
X13039229Y-17044460D02*
X13029706Y-17034936D01*
X13029706Y-17034936D02*
X13020182Y-17015889D01*
X13020182Y-17015889D02*
X13010658Y-16977793D01*
X13010658Y-16977793D02*
X13010658Y-16930174D01*
X13010658Y-16930174D02*
X13020182Y-16892079D01*
X13020182Y-16892079D02*
X13029706Y-16873031D01*
X13029706Y-16873031D02*
X13039229Y-16863508D01*
X13039229Y-16863508D02*
X13058277Y-16853984D01*
X13201134Y-16853984D02*
X13201134Y-16892079D01*
X13277325Y-16853984D02*
X13277325Y-16892079D01*
X13572563Y-17130174D02*
X13563039Y-17120650D01*
X13563039Y-17120650D02*
X13543991Y-17092079D01*
X13543991Y-17092079D02*
X13534468Y-17073031D01*
X13534468Y-17073031D02*
X13524944Y-17044460D01*
X13524944Y-17044460D02*
X13515420Y-16996841D01*
X13515420Y-16996841D02*
X13515420Y-16958746D01*
X13515420Y-16958746D02*
X13524944Y-16911127D01*
X13524944Y-16911127D02*
X13534468Y-16882555D01*
X13534468Y-16882555D02*
X13543991Y-16863508D01*
X13543991Y-16863508D02*
X13563039Y-16834936D01*
X13563039Y-16834936D02*
X13572563Y-16825412D01*
X13734468Y-16920650D02*
X13734468Y-17053984D01*
X13686848Y-16844460D02*
X13639229Y-16987317D01*
X13639229Y-16987317D02*
X13763039Y-16987317D01*
X13991610Y-17053984D02*
X13991610Y-16853984D01*
X14077325Y-17053984D02*
X14077325Y-16949222D01*
X14077325Y-16949222D02*
X14067801Y-16930174D01*
X14067801Y-16930174D02*
X14048753Y-16920650D01*
X14048753Y-16920650D02*
X14020182Y-16920650D01*
X14020182Y-16920650D02*
X14001134Y-16930174D01*
X14001134Y-16930174D02*
X13991610Y-16939698D01*
X14201134Y-17053984D02*
X14182087Y-17044460D01*
X14182087Y-17044460D02*
X14172563Y-17034936D01*
X14172563Y-17034936D02*
X14163039Y-17015889D01*
X14163039Y-17015889D02*
X14163039Y-16958746D01*
X14163039Y-16958746D02*
X14172563Y-16939698D01*
X14172563Y-16939698D02*
X14182087Y-16930174D01*
X14182087Y-16930174D02*
X14201134Y-16920650D01*
X14201134Y-16920650D02*
X14229706Y-16920650D01*
X14229706Y-16920650D02*
X14248753Y-16930174D01*
X14248753Y-16930174D02*
X14258277Y-16939698D01*
X14258277Y-16939698D02*
X14267801Y-16958746D01*
X14267801Y-16958746D02*
X14267801Y-17015889D01*
X14267801Y-17015889D02*
X14258277Y-17034936D01*
X14258277Y-17034936D02*
X14248753Y-17044460D01*
X14248753Y-17044460D02*
X14229706Y-17053984D01*
X14229706Y-17053984D02*
X14201134Y-17053984D01*
X14382087Y-17053984D02*
X14363039Y-17044460D01*
X14363039Y-17044460D02*
X14353515Y-17025412D01*
X14353515Y-17025412D02*
X14353515Y-16853984D01*
X14534468Y-17044460D02*
X14515420Y-17053984D01*
X14515420Y-17053984D02*
X14477325Y-17053984D01*
X14477325Y-17053984D02*
X14458277Y-17044460D01*
X14458277Y-17044460D02*
X14448753Y-17025412D01*
X14448753Y-17025412D02*
X14448753Y-16949222D01*
X14448753Y-16949222D02*
X14458277Y-16930174D01*
X14458277Y-16930174D02*
X14477325Y-16920650D01*
X14477325Y-16920650D02*
X14515420Y-16920650D01*
X14515420Y-16920650D02*
X14534468Y-16930174D01*
X14534468Y-16930174D02*
X14543991Y-16949222D01*
X14543991Y-16949222D02*
X14543991Y-16968270D01*
X14543991Y-16968270D02*
X14448753Y-16987317D01*
X14620182Y-17044460D02*
X14639230Y-17053984D01*
X14639230Y-17053984D02*
X14677325Y-17053984D01*
X14677325Y-17053984D02*
X14696372Y-17044460D01*
X14696372Y-17044460D02*
X14705896Y-17025412D01*
X14705896Y-17025412D02*
X14705896Y-17015889D01*
X14705896Y-17015889D02*
X14696372Y-16996841D01*
X14696372Y-16996841D02*
X14677325Y-16987317D01*
X14677325Y-16987317D02*
X14648753Y-16987317D01*
X14648753Y-16987317D02*
X14629706Y-16977793D01*
X14629706Y-16977793D02*
X14620182Y-16958746D01*
X14620182Y-16958746D02*
X14620182Y-16949222D01*
X14620182Y-16949222D02*
X14629706Y-16930174D01*
X14629706Y-16930174D02*
X14648753Y-16920650D01*
X14648753Y-16920650D02*
X14677325Y-16920650D01*
X14677325Y-16920650D02*
X14696372Y-16930174D01*
X14772563Y-17130174D02*
X14782087Y-17120650D01*
X14782087Y-17120650D02*
X14801134Y-17092079D01*
X14801134Y-17092079D02*
X14810658Y-17073031D01*
X14810658Y-17073031D02*
X14820182Y-17044460D01*
X14820182Y-17044460D02*
X14829706Y-16996841D01*
X14829706Y-16996841D02*
X14829706Y-16958746D01*
X14829706Y-16958746D02*
X14820182Y-16911127D01*
X14820182Y-16911127D02*
X14810658Y-16882555D01*
X14810658Y-16882555D02*
X14801134Y-16863508D01*
X14801134Y-16863508D02*
X14782087Y-16834936D01*
X14782087Y-16834936D02*
X14772563Y-16825412D01*
D14*
X9886500Y-17171000D02*
X9997500Y-17282000D01*
X9997500Y-17171000D02*
X9886500Y-17282000D01*
X9942000Y-17171000D02*
X9942000Y-17282000D01*
X9886500Y-17226500D02*
X9997500Y-17226500D01*
D11*
X10363039Y-17317984D02*
X10248753Y-17317984D01*
X10305896Y-17317984D02*
X10305896Y-17117984D01*
X10305896Y-17117984D02*
X10286848Y-17146555D01*
X10286848Y-17146555D02*
X10267801Y-17165603D01*
X10267801Y-17165603D02*
X10248753Y-17175127D01*
X10448753Y-17298936D02*
X10458277Y-17308460D01*
X10458277Y-17308460D02*
X10448753Y-17317984D01*
X10448753Y-17317984D02*
X10439229Y-17308460D01*
X10439229Y-17308460D02*
X10448753Y-17298936D01*
X10448753Y-17298936D02*
X10448753Y-17317984D01*
X10648753Y-17317984D02*
X10534467Y-17317984D01*
X10591610Y-17317984D02*
X10591610Y-17117984D01*
X10591610Y-17117984D02*
X10572563Y-17146555D01*
X10572563Y-17146555D02*
X10553515Y-17165603D01*
X10553515Y-17165603D02*
X10534467Y-17175127D01*
X10839229Y-17317984D02*
X10724944Y-17317984D01*
X10782086Y-17317984D02*
X10782086Y-17117984D01*
X10782086Y-17117984D02*
X10763039Y-17146555D01*
X10763039Y-17146555D02*
X10743991Y-17165603D01*
X10743991Y-17165603D02*
X10724944Y-17175127D01*
X10963039Y-17117984D02*
X10982086Y-17117984D01*
X10982086Y-17117984D02*
X11001134Y-17127508D01*
X11001134Y-17127508D02*
X11010658Y-17137031D01*
X11010658Y-17137031D02*
X11020182Y-17156079D01*
X11020182Y-17156079D02*
X11029705Y-17194174D01*
X11029705Y-17194174D02*
X11029705Y-17241793D01*
X11029705Y-17241793D02*
X11020182Y-17279889D01*
X11020182Y-17279889D02*
X11010658Y-17298936D01*
X11010658Y-17298936D02*
X11001134Y-17308460D01*
X11001134Y-17308460D02*
X10982086Y-17317984D01*
X10982086Y-17317984D02*
X10963039Y-17317984D01*
X10963039Y-17317984D02*
X10943991Y-17308460D01*
X10943991Y-17308460D02*
X10934467Y-17298936D01*
X10934467Y-17298936D02*
X10924944Y-17279889D01*
X10924944Y-17279889D02*
X10915420Y-17241793D01*
X10915420Y-17241793D02*
X10915420Y-17194174D01*
X10915420Y-17194174D02*
X10924944Y-17156079D01*
X10924944Y-17156079D02*
X10934467Y-17137031D01*
X10934467Y-17137031D02*
X10943991Y-17127508D01*
X10943991Y-17127508D02*
X10963039Y-17117984D01*
X11115420Y-17317984D02*
X11115420Y-17184650D01*
X11115420Y-17203698D02*
X11124944Y-17194174D01*
X11124944Y-17194174D02*
X11143991Y-17184650D01*
X11143991Y-17184650D02*
X11172563Y-17184650D01*
X11172563Y-17184650D02*
X11191610Y-17194174D01*
X11191610Y-17194174D02*
X11201134Y-17213222D01*
X11201134Y-17213222D02*
X11201134Y-17317984D01*
X11201134Y-17213222D02*
X11210658Y-17194174D01*
X11210658Y-17194174D02*
X11229705Y-17184650D01*
X11229705Y-17184650D02*
X11258277Y-17184650D01*
X11258277Y-17184650D02*
X11277324Y-17194174D01*
X11277324Y-17194174D02*
X11286848Y-17213222D01*
X11286848Y-17213222D02*
X11286848Y-17317984D01*
X11382086Y-17317984D02*
X11382086Y-17184650D01*
X11382086Y-17203698D02*
X11391610Y-17194174D01*
X11391610Y-17194174D02*
X11410658Y-17184650D01*
X11410658Y-17184650D02*
X11439229Y-17184650D01*
X11439229Y-17184650D02*
X11458277Y-17194174D01*
X11458277Y-17194174D02*
X11467801Y-17213222D01*
X11467801Y-17213222D02*
X11467801Y-17317984D01*
X11467801Y-17213222D02*
X11477324Y-17194174D01*
X11477324Y-17194174D02*
X11496372Y-17184650D01*
X11496372Y-17184650D02*
X11524943Y-17184650D01*
X11524943Y-17184650D02*
X11543991Y-17194174D01*
X11543991Y-17194174D02*
X11553515Y-17213222D01*
X11553515Y-17213222D02*
X11553515Y-17317984D01*
X11943991Y-17108460D02*
X11772563Y-17365603D01*
X12201134Y-17117984D02*
X12220182Y-17117984D01*
X12220182Y-17117984D02*
X12239229Y-17127508D01*
X12239229Y-17127508D02*
X12248753Y-17137031D01*
X12248753Y-17137031D02*
X12258277Y-17156079D01*
X12258277Y-17156079D02*
X12267801Y-17194174D01*
X12267801Y-17194174D02*
X12267801Y-17241793D01*
X12267801Y-17241793D02*
X12258277Y-17279889D01*
X12258277Y-17279889D02*
X12248753Y-17298936D01*
X12248753Y-17298936D02*
X12239229Y-17308460D01*
X12239229Y-17308460D02*
X12220182Y-17317984D01*
X12220182Y-17317984D02*
X12201134Y-17317984D01*
X12201134Y-17317984D02*
X12182086Y-17308460D01*
X12182086Y-17308460D02*
X12172563Y-17298936D01*
X12172563Y-17298936D02*
X12163039Y-17279889D01*
X12163039Y-17279889D02*
X12153515Y-17241793D01*
X12153515Y-17241793D02*
X12153515Y-17194174D01*
X12153515Y-17194174D02*
X12163039Y-17156079D01*
X12163039Y-17156079D02*
X12172563Y-17137031D01*
X12172563Y-17137031D02*
X12182086Y-17127508D01*
X12182086Y-17127508D02*
X12201134Y-17117984D01*
X12353515Y-17298936D02*
X12363039Y-17308460D01*
X12363039Y-17308460D02*
X12353515Y-17317984D01*
X12353515Y-17317984D02*
X12343991Y-17308460D01*
X12343991Y-17308460D02*
X12353515Y-17298936D01*
X12353515Y-17298936D02*
X12353515Y-17317984D01*
X12486848Y-17117984D02*
X12505896Y-17117984D01*
X12505896Y-17117984D02*
X12524944Y-17127508D01*
X12524944Y-17127508D02*
X12534467Y-17137031D01*
X12534467Y-17137031D02*
X12543991Y-17156079D01*
X12543991Y-17156079D02*
X12553515Y-17194174D01*
X12553515Y-17194174D02*
X12553515Y-17241793D01*
X12553515Y-17241793D02*
X12543991Y-17279889D01*
X12543991Y-17279889D02*
X12534467Y-17298936D01*
X12534467Y-17298936D02*
X12524944Y-17308460D01*
X12524944Y-17308460D02*
X12505896Y-17317984D01*
X12505896Y-17317984D02*
X12486848Y-17317984D01*
X12486848Y-17317984D02*
X12467801Y-17308460D01*
X12467801Y-17308460D02*
X12458277Y-17298936D01*
X12458277Y-17298936D02*
X12448753Y-17279889D01*
X12448753Y-17279889D02*
X12439229Y-17241793D01*
X12439229Y-17241793D02*
X12439229Y-17194174D01*
X12439229Y-17194174D02*
X12448753Y-17156079D01*
X12448753Y-17156079D02*
X12458277Y-17137031D01*
X12458277Y-17137031D02*
X12467801Y-17127508D01*
X12467801Y-17127508D02*
X12486848Y-17117984D01*
X12724944Y-17184650D02*
X12724944Y-17317984D01*
X12677325Y-17108460D02*
X12629706Y-17251317D01*
X12629706Y-17251317D02*
X12753515Y-17251317D01*
X12810658Y-17117984D02*
X12934467Y-17117984D01*
X12934467Y-17117984D02*
X12867801Y-17194174D01*
X12867801Y-17194174D02*
X12896372Y-17194174D01*
X12896372Y-17194174D02*
X12915420Y-17203698D01*
X12915420Y-17203698D02*
X12924944Y-17213222D01*
X12924944Y-17213222D02*
X12934467Y-17232270D01*
X12934467Y-17232270D02*
X12934467Y-17279889D01*
X12934467Y-17279889D02*
X12924944Y-17298936D01*
X12924944Y-17298936D02*
X12915420Y-17308460D01*
X12915420Y-17308460D02*
X12896372Y-17317984D01*
X12896372Y-17317984D02*
X12839229Y-17317984D01*
X12839229Y-17317984D02*
X12820182Y-17308460D01*
X12820182Y-17308460D02*
X12810658Y-17298936D01*
X13001134Y-17117984D02*
X13134467Y-17117984D01*
X13134467Y-17117984D02*
X13048753Y-17317984D01*
X13201134Y-17117984D02*
X13201134Y-17156079D01*
X13277325Y-17117984D02*
X13277325Y-17156079D01*
X13572563Y-17394174D02*
X13563039Y-17384650D01*
X13563039Y-17384650D02*
X13543991Y-17356079D01*
X13543991Y-17356079D02*
X13534468Y-17337031D01*
X13534468Y-17337031D02*
X13524944Y-17308460D01*
X13524944Y-17308460D02*
X13515420Y-17260841D01*
X13515420Y-17260841D02*
X13515420Y-17222746D01*
X13515420Y-17222746D02*
X13524944Y-17175127D01*
X13524944Y-17175127D02*
X13534468Y-17146555D01*
X13534468Y-17146555D02*
X13543991Y-17127508D01*
X13543991Y-17127508D02*
X13563039Y-17098936D01*
X13563039Y-17098936D02*
X13572563Y-17089412D01*
X13639229Y-17137031D02*
X13648753Y-17127508D01*
X13648753Y-17127508D02*
X13667801Y-17117984D01*
X13667801Y-17117984D02*
X13715420Y-17117984D01*
X13715420Y-17117984D02*
X13734468Y-17127508D01*
X13734468Y-17127508D02*
X13743991Y-17137031D01*
X13743991Y-17137031D02*
X13753515Y-17156079D01*
X13753515Y-17156079D02*
X13753515Y-17175127D01*
X13753515Y-17175127D02*
X13743991Y-17203698D01*
X13743991Y-17203698D02*
X13629706Y-17317984D01*
X13629706Y-17317984D02*
X13753515Y-17317984D01*
X13877325Y-17117984D02*
X13896372Y-17117984D01*
X13896372Y-17117984D02*
X13915420Y-17127508D01*
X13915420Y-17127508D02*
X13924944Y-17137031D01*
X13924944Y-17137031D02*
X13934468Y-17156079D01*
X13934468Y-17156079D02*
X13943991Y-17194174D01*
X13943991Y-17194174D02*
X13943991Y-17241793D01*
X13943991Y-17241793D02*
X13934468Y-17279889D01*
X13934468Y-17279889D02*
X13924944Y-17298936D01*
X13924944Y-17298936D02*
X13915420Y-17308460D01*
X13915420Y-17308460D02*
X13896372Y-17317984D01*
X13896372Y-17317984D02*
X13877325Y-17317984D01*
X13877325Y-17317984D02*
X13858277Y-17308460D01*
X13858277Y-17308460D02*
X13848753Y-17298936D01*
X13848753Y-17298936D02*
X13839229Y-17279889D01*
X13839229Y-17279889D02*
X13829706Y-17241793D01*
X13829706Y-17241793D02*
X13829706Y-17194174D01*
X13829706Y-17194174D02*
X13839229Y-17156079D01*
X13839229Y-17156079D02*
X13848753Y-17137031D01*
X13848753Y-17137031D02*
X13858277Y-17127508D01*
X13858277Y-17127508D02*
X13877325Y-17117984D01*
X14182087Y-17317984D02*
X14182087Y-17117984D01*
X14267801Y-17317984D02*
X14267801Y-17213222D01*
X14267801Y-17213222D02*
X14258277Y-17194174D01*
X14258277Y-17194174D02*
X14239230Y-17184650D01*
X14239230Y-17184650D02*
X14210658Y-17184650D01*
X14210658Y-17184650D02*
X14191610Y-17194174D01*
X14191610Y-17194174D02*
X14182087Y-17203698D01*
X14391610Y-17317984D02*
X14372563Y-17308460D01*
X14372563Y-17308460D02*
X14363039Y-17298936D01*
X14363039Y-17298936D02*
X14353515Y-17279889D01*
X14353515Y-17279889D02*
X14353515Y-17222746D01*
X14353515Y-17222746D02*
X14363039Y-17203698D01*
X14363039Y-17203698D02*
X14372563Y-17194174D01*
X14372563Y-17194174D02*
X14391610Y-17184650D01*
X14391610Y-17184650D02*
X14420182Y-17184650D01*
X14420182Y-17184650D02*
X14439230Y-17194174D01*
X14439230Y-17194174D02*
X14448753Y-17203698D01*
X14448753Y-17203698D02*
X14458277Y-17222746D01*
X14458277Y-17222746D02*
X14458277Y-17279889D01*
X14458277Y-17279889D02*
X14448753Y-17298936D01*
X14448753Y-17298936D02*
X14439230Y-17308460D01*
X14439230Y-17308460D02*
X14420182Y-17317984D01*
X14420182Y-17317984D02*
X14391610Y-17317984D01*
X14572563Y-17317984D02*
X14553515Y-17308460D01*
X14553515Y-17308460D02*
X14543991Y-17289412D01*
X14543991Y-17289412D02*
X14543991Y-17117984D01*
X14724944Y-17308460D02*
X14705896Y-17317984D01*
X14705896Y-17317984D02*
X14667801Y-17317984D01*
X14667801Y-17317984D02*
X14648753Y-17308460D01*
X14648753Y-17308460D02*
X14639230Y-17289412D01*
X14639230Y-17289412D02*
X14639230Y-17213222D01*
X14639230Y-17213222D02*
X14648753Y-17194174D01*
X14648753Y-17194174D02*
X14667801Y-17184650D01*
X14667801Y-17184650D02*
X14705896Y-17184650D01*
X14705896Y-17184650D02*
X14724944Y-17194174D01*
X14724944Y-17194174D02*
X14734468Y-17213222D01*
X14734468Y-17213222D02*
X14734468Y-17232270D01*
X14734468Y-17232270D02*
X14639230Y-17251317D01*
X14810658Y-17308460D02*
X14829706Y-17317984D01*
X14829706Y-17317984D02*
X14867801Y-17317984D01*
X14867801Y-17317984D02*
X14886849Y-17308460D01*
X14886849Y-17308460D02*
X14896372Y-17289412D01*
X14896372Y-17289412D02*
X14896372Y-17279889D01*
X14896372Y-17279889D02*
X14886849Y-17260841D01*
X14886849Y-17260841D02*
X14867801Y-17251317D01*
X14867801Y-17251317D02*
X14839230Y-17251317D01*
X14839230Y-17251317D02*
X14820182Y-17241793D01*
X14820182Y-17241793D02*
X14810658Y-17222746D01*
X14810658Y-17222746D02*
X14810658Y-17213222D01*
X14810658Y-17213222D02*
X14820182Y-17194174D01*
X14820182Y-17194174D02*
X14839230Y-17184650D01*
X14839230Y-17184650D02*
X14867801Y-17184650D01*
X14867801Y-17184650D02*
X14886849Y-17194174D01*
X14963039Y-17394174D02*
X14972563Y-17384650D01*
X14972563Y-17384650D02*
X14991611Y-17356079D01*
X14991611Y-17356079D02*
X15001134Y-17337031D01*
X15001134Y-17337031D02*
X15010658Y-17308460D01*
X15010658Y-17308460D02*
X15020182Y-17260841D01*
X15020182Y-17260841D02*
X15020182Y-17222746D01*
X15020182Y-17222746D02*
X15010658Y-17175127D01*
X15010658Y-17175127D02*
X15001134Y-17146555D01*
X15001134Y-17146555D02*
X14991611Y-17127508D01*
X14991611Y-17127508D02*
X14972563Y-17098936D01*
X14972563Y-17098936D02*
X14963039Y-17089412D01*
D15*
X9812500Y-17398000D02*
X9997500Y-17583000D01*
X9997500Y-17398000D02*
X9812500Y-17583000D01*
X9970408Y-17555908D02*
X9970408Y-17425092D01*
X9839592Y-17425092D01*
X9839592Y-17555908D01*
X9970408Y-17555908D01*
D11*
X10363039Y-17581984D02*
X10248753Y-17581984D01*
X10305896Y-17581984D02*
X10305896Y-17381984D01*
X10305896Y-17381984D02*
X10286848Y-17410555D01*
X10286848Y-17410555D02*
X10267801Y-17429603D01*
X10267801Y-17429603D02*
X10248753Y-17439127D01*
X10448753Y-17562936D02*
X10458277Y-17572460D01*
X10458277Y-17572460D02*
X10448753Y-17581984D01*
X10448753Y-17581984D02*
X10439229Y-17572460D01*
X10439229Y-17572460D02*
X10448753Y-17562936D01*
X10448753Y-17562936D02*
X10448753Y-17581984D01*
X10572563Y-17467698D02*
X10553515Y-17458174D01*
X10553515Y-17458174D02*
X10543991Y-17448650D01*
X10543991Y-17448650D02*
X10534467Y-17429603D01*
X10534467Y-17429603D02*
X10534467Y-17420079D01*
X10534467Y-17420079D02*
X10543991Y-17401031D01*
X10543991Y-17401031D02*
X10553515Y-17391508D01*
X10553515Y-17391508D02*
X10572563Y-17381984D01*
X10572563Y-17381984D02*
X10610658Y-17381984D01*
X10610658Y-17381984D02*
X10629705Y-17391508D01*
X10629705Y-17391508D02*
X10639229Y-17401031D01*
X10639229Y-17401031D02*
X10648753Y-17420079D01*
X10648753Y-17420079D02*
X10648753Y-17429603D01*
X10648753Y-17429603D02*
X10639229Y-17448650D01*
X10639229Y-17448650D02*
X10629705Y-17458174D01*
X10629705Y-17458174D02*
X10610658Y-17467698D01*
X10610658Y-17467698D02*
X10572563Y-17467698D01*
X10572563Y-17467698D02*
X10553515Y-17477222D01*
X10553515Y-17477222D02*
X10543991Y-17486746D01*
X10543991Y-17486746D02*
X10534467Y-17505793D01*
X10534467Y-17505793D02*
X10534467Y-17543889D01*
X10534467Y-17543889D02*
X10543991Y-17562936D01*
X10543991Y-17562936D02*
X10553515Y-17572460D01*
X10553515Y-17572460D02*
X10572563Y-17581984D01*
X10572563Y-17581984D02*
X10610658Y-17581984D01*
X10610658Y-17581984D02*
X10629705Y-17572460D01*
X10629705Y-17572460D02*
X10639229Y-17562936D01*
X10639229Y-17562936D02*
X10648753Y-17543889D01*
X10648753Y-17543889D02*
X10648753Y-17505793D01*
X10648753Y-17505793D02*
X10639229Y-17486746D01*
X10639229Y-17486746D02*
X10629705Y-17477222D01*
X10629705Y-17477222D02*
X10610658Y-17467698D01*
X10829705Y-17381984D02*
X10734467Y-17381984D01*
X10734467Y-17381984D02*
X10724944Y-17477222D01*
X10724944Y-17477222D02*
X10734467Y-17467698D01*
X10734467Y-17467698D02*
X10753515Y-17458174D01*
X10753515Y-17458174D02*
X10801134Y-17458174D01*
X10801134Y-17458174D02*
X10820182Y-17467698D01*
X10820182Y-17467698D02*
X10829705Y-17477222D01*
X10829705Y-17477222D02*
X10839229Y-17496270D01*
X10839229Y-17496270D02*
X10839229Y-17543889D01*
X10839229Y-17543889D02*
X10829705Y-17562936D01*
X10829705Y-17562936D02*
X10820182Y-17572460D01*
X10820182Y-17572460D02*
X10801134Y-17581984D01*
X10801134Y-17581984D02*
X10753515Y-17581984D01*
X10753515Y-17581984D02*
X10734467Y-17572460D01*
X10734467Y-17572460D02*
X10724944Y-17562936D01*
X10963039Y-17381984D02*
X10982086Y-17381984D01*
X10982086Y-17381984D02*
X11001134Y-17391508D01*
X11001134Y-17391508D02*
X11010658Y-17401031D01*
X11010658Y-17401031D02*
X11020182Y-17420079D01*
X11020182Y-17420079D02*
X11029705Y-17458174D01*
X11029705Y-17458174D02*
X11029705Y-17505793D01*
X11029705Y-17505793D02*
X11020182Y-17543889D01*
X11020182Y-17543889D02*
X11010658Y-17562936D01*
X11010658Y-17562936D02*
X11001134Y-17572460D01*
X11001134Y-17572460D02*
X10982086Y-17581984D01*
X10982086Y-17581984D02*
X10963039Y-17581984D01*
X10963039Y-17581984D02*
X10943991Y-17572460D01*
X10943991Y-17572460D02*
X10934467Y-17562936D01*
X10934467Y-17562936D02*
X10924944Y-17543889D01*
X10924944Y-17543889D02*
X10915420Y-17505793D01*
X10915420Y-17505793D02*
X10915420Y-17458174D01*
X10915420Y-17458174D02*
X10924944Y-17420079D01*
X10924944Y-17420079D02*
X10934467Y-17401031D01*
X10934467Y-17401031D02*
X10943991Y-17391508D01*
X10943991Y-17391508D02*
X10963039Y-17381984D01*
X11115420Y-17581984D02*
X11115420Y-17448650D01*
X11115420Y-17467698D02*
X11124944Y-17458174D01*
X11124944Y-17458174D02*
X11143991Y-17448650D01*
X11143991Y-17448650D02*
X11172563Y-17448650D01*
X11172563Y-17448650D02*
X11191610Y-17458174D01*
X11191610Y-17458174D02*
X11201134Y-17477222D01*
X11201134Y-17477222D02*
X11201134Y-17581984D01*
X11201134Y-17477222D02*
X11210658Y-17458174D01*
X11210658Y-17458174D02*
X11229705Y-17448650D01*
X11229705Y-17448650D02*
X11258277Y-17448650D01*
X11258277Y-17448650D02*
X11277324Y-17458174D01*
X11277324Y-17458174D02*
X11286848Y-17477222D01*
X11286848Y-17477222D02*
X11286848Y-17581984D01*
X11382086Y-17581984D02*
X11382086Y-17448650D01*
X11382086Y-17467698D02*
X11391610Y-17458174D01*
X11391610Y-17458174D02*
X11410658Y-17448650D01*
X11410658Y-17448650D02*
X11439229Y-17448650D01*
X11439229Y-17448650D02*
X11458277Y-17458174D01*
X11458277Y-17458174D02*
X11467801Y-17477222D01*
X11467801Y-17477222D02*
X11467801Y-17581984D01*
X11467801Y-17477222D02*
X11477324Y-17458174D01*
X11477324Y-17458174D02*
X11496372Y-17448650D01*
X11496372Y-17448650D02*
X11524943Y-17448650D01*
X11524943Y-17448650D02*
X11543991Y-17458174D01*
X11543991Y-17458174D02*
X11553515Y-17477222D01*
X11553515Y-17477222D02*
X11553515Y-17581984D01*
X11943991Y-17372460D02*
X11772563Y-17629603D01*
X12201134Y-17381984D02*
X12220182Y-17381984D01*
X12220182Y-17381984D02*
X12239229Y-17391508D01*
X12239229Y-17391508D02*
X12248753Y-17401031D01*
X12248753Y-17401031D02*
X12258277Y-17420079D01*
X12258277Y-17420079D02*
X12267801Y-17458174D01*
X12267801Y-17458174D02*
X12267801Y-17505793D01*
X12267801Y-17505793D02*
X12258277Y-17543889D01*
X12258277Y-17543889D02*
X12248753Y-17562936D01*
X12248753Y-17562936D02*
X12239229Y-17572460D01*
X12239229Y-17572460D02*
X12220182Y-17581984D01*
X12220182Y-17581984D02*
X12201134Y-17581984D01*
X12201134Y-17581984D02*
X12182086Y-17572460D01*
X12182086Y-17572460D02*
X12172563Y-17562936D01*
X12172563Y-17562936D02*
X12163039Y-17543889D01*
X12163039Y-17543889D02*
X12153515Y-17505793D01*
X12153515Y-17505793D02*
X12153515Y-17458174D01*
X12153515Y-17458174D02*
X12163039Y-17420079D01*
X12163039Y-17420079D02*
X12172563Y-17401031D01*
X12172563Y-17401031D02*
X12182086Y-17391508D01*
X12182086Y-17391508D02*
X12201134Y-17381984D01*
X12353515Y-17562936D02*
X12363039Y-17572460D01*
X12363039Y-17572460D02*
X12353515Y-17581984D01*
X12353515Y-17581984D02*
X12343991Y-17572460D01*
X12343991Y-17572460D02*
X12353515Y-17562936D01*
X12353515Y-17562936D02*
X12353515Y-17581984D01*
X12486848Y-17381984D02*
X12505896Y-17381984D01*
X12505896Y-17381984D02*
X12524944Y-17391508D01*
X12524944Y-17391508D02*
X12534467Y-17401031D01*
X12534467Y-17401031D02*
X12543991Y-17420079D01*
X12543991Y-17420079D02*
X12553515Y-17458174D01*
X12553515Y-17458174D02*
X12553515Y-17505793D01*
X12553515Y-17505793D02*
X12543991Y-17543889D01*
X12543991Y-17543889D02*
X12534467Y-17562936D01*
X12534467Y-17562936D02*
X12524944Y-17572460D01*
X12524944Y-17572460D02*
X12505896Y-17581984D01*
X12505896Y-17581984D02*
X12486848Y-17581984D01*
X12486848Y-17581984D02*
X12467801Y-17572460D01*
X12467801Y-17572460D02*
X12458277Y-17562936D01*
X12458277Y-17562936D02*
X12448753Y-17543889D01*
X12448753Y-17543889D02*
X12439229Y-17505793D01*
X12439229Y-17505793D02*
X12439229Y-17458174D01*
X12439229Y-17458174D02*
X12448753Y-17420079D01*
X12448753Y-17420079D02*
X12458277Y-17401031D01*
X12458277Y-17401031D02*
X12467801Y-17391508D01*
X12467801Y-17391508D02*
X12486848Y-17381984D01*
X12620182Y-17381984D02*
X12753515Y-17381984D01*
X12753515Y-17381984D02*
X12667801Y-17581984D01*
X12820182Y-17401031D02*
X12829706Y-17391508D01*
X12829706Y-17391508D02*
X12848753Y-17381984D01*
X12848753Y-17381984D02*
X12896372Y-17381984D01*
X12896372Y-17381984D02*
X12915420Y-17391508D01*
X12915420Y-17391508D02*
X12924944Y-17401031D01*
X12924944Y-17401031D02*
X12934467Y-17420079D01*
X12934467Y-17420079D02*
X12934467Y-17439127D01*
X12934467Y-17439127D02*
X12924944Y-17467698D01*
X12924944Y-17467698D02*
X12810658Y-17581984D01*
X12810658Y-17581984D02*
X12934467Y-17581984D01*
X13048753Y-17467698D02*
X13029706Y-17458174D01*
X13029706Y-17458174D02*
X13020182Y-17448650D01*
X13020182Y-17448650D02*
X13010658Y-17429603D01*
X13010658Y-17429603D02*
X13010658Y-17420079D01*
X13010658Y-17420079D02*
X13020182Y-17401031D01*
X13020182Y-17401031D02*
X13029706Y-17391508D01*
X13029706Y-17391508D02*
X13048753Y-17381984D01*
X13048753Y-17381984D02*
X13086848Y-17381984D01*
X13086848Y-17381984D02*
X13105896Y-17391508D01*
X13105896Y-17391508D02*
X13115420Y-17401031D01*
X13115420Y-17401031D02*
X13124944Y-17420079D01*
X13124944Y-17420079D02*
X13124944Y-17429603D01*
X13124944Y-17429603D02*
X13115420Y-17448650D01*
X13115420Y-17448650D02*
X13105896Y-17458174D01*
X13105896Y-17458174D02*
X13086848Y-17467698D01*
X13086848Y-17467698D02*
X13048753Y-17467698D01*
X13048753Y-17467698D02*
X13029706Y-17477222D01*
X13029706Y-17477222D02*
X13020182Y-17486746D01*
X13020182Y-17486746D02*
X13010658Y-17505793D01*
X13010658Y-17505793D02*
X13010658Y-17543889D01*
X13010658Y-17543889D02*
X13020182Y-17562936D01*
X13020182Y-17562936D02*
X13029706Y-17572460D01*
X13029706Y-17572460D02*
X13048753Y-17581984D01*
X13048753Y-17581984D02*
X13086848Y-17581984D01*
X13086848Y-17581984D02*
X13105896Y-17572460D01*
X13105896Y-17572460D02*
X13115420Y-17562936D01*
X13115420Y-17562936D02*
X13124944Y-17543889D01*
X13124944Y-17543889D02*
X13124944Y-17505793D01*
X13124944Y-17505793D02*
X13115420Y-17486746D01*
X13115420Y-17486746D02*
X13105896Y-17477222D01*
X13105896Y-17477222D02*
X13086848Y-17467698D01*
X13201134Y-17381984D02*
X13201134Y-17420079D01*
X13277325Y-17381984D02*
X13277325Y-17420079D01*
X13572563Y-17658174D02*
X13563039Y-17648650D01*
X13563039Y-17648650D02*
X13543991Y-17620079D01*
X13543991Y-17620079D02*
X13534468Y-17601031D01*
X13534468Y-17601031D02*
X13524944Y-17572460D01*
X13524944Y-17572460D02*
X13515420Y-17524841D01*
X13515420Y-17524841D02*
X13515420Y-17486746D01*
X13515420Y-17486746D02*
X13524944Y-17439127D01*
X13524944Y-17439127D02*
X13534468Y-17410555D01*
X13534468Y-17410555D02*
X13543991Y-17391508D01*
X13543991Y-17391508D02*
X13563039Y-17362936D01*
X13563039Y-17362936D02*
X13572563Y-17353412D01*
X13629706Y-17381984D02*
X13753515Y-17381984D01*
X13753515Y-17381984D02*
X13686848Y-17458174D01*
X13686848Y-17458174D02*
X13715420Y-17458174D01*
X13715420Y-17458174D02*
X13734468Y-17467698D01*
X13734468Y-17467698D02*
X13743991Y-17477222D01*
X13743991Y-17477222D02*
X13753515Y-17496270D01*
X13753515Y-17496270D02*
X13753515Y-17543889D01*
X13753515Y-17543889D02*
X13743991Y-17562936D01*
X13743991Y-17562936D02*
X13734468Y-17572460D01*
X13734468Y-17572460D02*
X13715420Y-17581984D01*
X13715420Y-17581984D02*
X13658277Y-17581984D01*
X13658277Y-17581984D02*
X13639229Y-17572460D01*
X13639229Y-17572460D02*
X13629706Y-17562936D01*
X13991610Y-17581984D02*
X13991610Y-17381984D01*
X14077325Y-17581984D02*
X14077325Y-17477222D01*
X14077325Y-17477222D02*
X14067801Y-17458174D01*
X14067801Y-17458174D02*
X14048753Y-17448650D01*
X14048753Y-17448650D02*
X14020182Y-17448650D01*
X14020182Y-17448650D02*
X14001134Y-17458174D01*
X14001134Y-17458174D02*
X13991610Y-17467698D01*
X14201134Y-17581984D02*
X14182087Y-17572460D01*
X14182087Y-17572460D02*
X14172563Y-17562936D01*
X14172563Y-17562936D02*
X14163039Y-17543889D01*
X14163039Y-17543889D02*
X14163039Y-17486746D01*
X14163039Y-17486746D02*
X14172563Y-17467698D01*
X14172563Y-17467698D02*
X14182087Y-17458174D01*
X14182087Y-17458174D02*
X14201134Y-17448650D01*
X14201134Y-17448650D02*
X14229706Y-17448650D01*
X14229706Y-17448650D02*
X14248753Y-17458174D01*
X14248753Y-17458174D02*
X14258277Y-17467698D01*
X14258277Y-17467698D02*
X14267801Y-17486746D01*
X14267801Y-17486746D02*
X14267801Y-17543889D01*
X14267801Y-17543889D02*
X14258277Y-17562936D01*
X14258277Y-17562936D02*
X14248753Y-17572460D01*
X14248753Y-17572460D02*
X14229706Y-17581984D01*
X14229706Y-17581984D02*
X14201134Y-17581984D01*
X14382087Y-17581984D02*
X14363039Y-17572460D01*
X14363039Y-17572460D02*
X14353515Y-17553412D01*
X14353515Y-17553412D02*
X14353515Y-17381984D01*
X14534468Y-17572460D02*
X14515420Y-17581984D01*
X14515420Y-17581984D02*
X14477325Y-17581984D01*
X14477325Y-17581984D02*
X14458277Y-17572460D01*
X14458277Y-17572460D02*
X14448753Y-17553412D01*
X14448753Y-17553412D02*
X14448753Y-17477222D01*
X14448753Y-17477222D02*
X14458277Y-17458174D01*
X14458277Y-17458174D02*
X14477325Y-17448650D01*
X14477325Y-17448650D02*
X14515420Y-17448650D01*
X14515420Y-17448650D02*
X14534468Y-17458174D01*
X14534468Y-17458174D02*
X14543991Y-17477222D01*
X14543991Y-17477222D02*
X14543991Y-17496270D01*
X14543991Y-17496270D02*
X14448753Y-17515317D01*
X14620182Y-17572460D02*
X14639230Y-17581984D01*
X14639230Y-17581984D02*
X14677325Y-17581984D01*
X14677325Y-17581984D02*
X14696372Y-17572460D01*
X14696372Y-17572460D02*
X14705896Y-17553412D01*
X14705896Y-17553412D02*
X14705896Y-17543889D01*
X14705896Y-17543889D02*
X14696372Y-17524841D01*
X14696372Y-17524841D02*
X14677325Y-17515317D01*
X14677325Y-17515317D02*
X14648753Y-17515317D01*
X14648753Y-17515317D02*
X14629706Y-17505793D01*
X14629706Y-17505793D02*
X14620182Y-17486746D01*
X14620182Y-17486746D02*
X14620182Y-17477222D01*
X14620182Y-17477222D02*
X14629706Y-17458174D01*
X14629706Y-17458174D02*
X14648753Y-17448650D01*
X14648753Y-17448650D02*
X14677325Y-17448650D01*
X14677325Y-17448650D02*
X14696372Y-17458174D01*
X14772563Y-17658174D02*
X14782087Y-17648650D01*
X14782087Y-17648650D02*
X14801134Y-17620079D01*
X14801134Y-17620079D02*
X14810658Y-17601031D01*
X14810658Y-17601031D02*
X14820182Y-17572460D01*
X14820182Y-17572460D02*
X14829706Y-17524841D01*
X14829706Y-17524841D02*
X14829706Y-17486746D01*
X14829706Y-17486746D02*
X14820182Y-17439127D01*
X14820182Y-17439127D02*
X14810658Y-17410555D01*
X14810658Y-17410555D02*
X14801134Y-17391508D01*
X14801134Y-17391508D02*
X14782087Y-17362936D01*
X14782087Y-17362936D02*
X14772563Y-17353412D01*
X9797500Y-17695500D02*
X9997500Y-17895500D01*
X9997500Y-17695500D02*
X9797500Y-17895500D01*
X9897500Y-17895500D02*
X9997500Y-17795500D01*
X9897500Y-17695500D01*
X9797500Y-17795500D01*
X9897500Y-17895500D01*
X10248753Y-17706031D02*
X10258277Y-17696508D01*
X10258277Y-17696508D02*
X10277324Y-17686984D01*
X10277324Y-17686984D02*
X10324944Y-17686984D01*
X10324944Y-17686984D02*
X10343991Y-17696508D01*
X10343991Y-17696508D02*
X10353515Y-17706031D01*
X10353515Y-17706031D02*
X10363039Y-17725079D01*
X10363039Y-17725079D02*
X10363039Y-17744127D01*
X10363039Y-17744127D02*
X10353515Y-17772698D01*
X10353515Y-17772698D02*
X10239229Y-17886984D01*
X10239229Y-17886984D02*
X10363039Y-17886984D01*
X10448753Y-17867936D02*
X10458277Y-17877460D01*
X10458277Y-17877460D02*
X10448753Y-17886984D01*
X10448753Y-17886984D02*
X10439229Y-17877460D01*
X10439229Y-17877460D02*
X10448753Y-17867936D01*
X10448753Y-17867936D02*
X10448753Y-17886984D01*
X10524944Y-17686984D02*
X10658277Y-17686984D01*
X10658277Y-17686984D02*
X10572563Y-17886984D01*
X10772563Y-17686984D02*
X10791610Y-17686984D01*
X10791610Y-17686984D02*
X10810658Y-17696508D01*
X10810658Y-17696508D02*
X10820182Y-17706031D01*
X10820182Y-17706031D02*
X10829705Y-17725079D01*
X10829705Y-17725079D02*
X10839229Y-17763174D01*
X10839229Y-17763174D02*
X10839229Y-17810793D01*
X10839229Y-17810793D02*
X10829705Y-17848889D01*
X10829705Y-17848889D02*
X10820182Y-17867936D01*
X10820182Y-17867936D02*
X10810658Y-17877460D01*
X10810658Y-17877460D02*
X10791610Y-17886984D01*
X10791610Y-17886984D02*
X10772563Y-17886984D01*
X10772563Y-17886984D02*
X10753515Y-17877460D01*
X10753515Y-17877460D02*
X10743991Y-17867936D01*
X10743991Y-17867936D02*
X10734467Y-17848889D01*
X10734467Y-17848889D02*
X10724944Y-17810793D01*
X10724944Y-17810793D02*
X10724944Y-17763174D01*
X10724944Y-17763174D02*
X10734467Y-17725079D01*
X10734467Y-17725079D02*
X10743991Y-17706031D01*
X10743991Y-17706031D02*
X10753515Y-17696508D01*
X10753515Y-17696508D02*
X10772563Y-17686984D01*
X10963039Y-17686984D02*
X10982086Y-17686984D01*
X10982086Y-17686984D02*
X11001134Y-17696508D01*
X11001134Y-17696508D02*
X11010658Y-17706031D01*
X11010658Y-17706031D02*
X11020182Y-17725079D01*
X11020182Y-17725079D02*
X11029705Y-17763174D01*
X11029705Y-17763174D02*
X11029705Y-17810793D01*
X11029705Y-17810793D02*
X11020182Y-17848889D01*
X11020182Y-17848889D02*
X11010658Y-17867936D01*
X11010658Y-17867936D02*
X11001134Y-17877460D01*
X11001134Y-17877460D02*
X10982086Y-17886984D01*
X10982086Y-17886984D02*
X10963039Y-17886984D01*
X10963039Y-17886984D02*
X10943991Y-17877460D01*
X10943991Y-17877460D02*
X10934467Y-17867936D01*
X10934467Y-17867936D02*
X10924944Y-17848889D01*
X10924944Y-17848889D02*
X10915420Y-17810793D01*
X10915420Y-17810793D02*
X10915420Y-17763174D01*
X10915420Y-17763174D02*
X10924944Y-17725079D01*
X10924944Y-17725079D02*
X10934467Y-17706031D01*
X10934467Y-17706031D02*
X10943991Y-17696508D01*
X10943991Y-17696508D02*
X10963039Y-17686984D01*
X11115420Y-17886984D02*
X11115420Y-17753650D01*
X11115420Y-17772698D02*
X11124944Y-17763174D01*
X11124944Y-17763174D02*
X11143991Y-17753650D01*
X11143991Y-17753650D02*
X11172563Y-17753650D01*
X11172563Y-17753650D02*
X11191610Y-17763174D01*
X11191610Y-17763174D02*
X11201134Y-17782222D01*
X11201134Y-17782222D02*
X11201134Y-17886984D01*
X11201134Y-17782222D02*
X11210658Y-17763174D01*
X11210658Y-17763174D02*
X11229705Y-17753650D01*
X11229705Y-17753650D02*
X11258277Y-17753650D01*
X11258277Y-17753650D02*
X11277324Y-17763174D01*
X11277324Y-17763174D02*
X11286848Y-17782222D01*
X11286848Y-17782222D02*
X11286848Y-17886984D01*
X11382086Y-17886984D02*
X11382086Y-17753650D01*
X11382086Y-17772698D02*
X11391610Y-17763174D01*
X11391610Y-17763174D02*
X11410658Y-17753650D01*
X11410658Y-17753650D02*
X11439229Y-17753650D01*
X11439229Y-17753650D02*
X11458277Y-17763174D01*
X11458277Y-17763174D02*
X11467801Y-17782222D01*
X11467801Y-17782222D02*
X11467801Y-17886984D01*
X11467801Y-17782222D02*
X11477324Y-17763174D01*
X11477324Y-17763174D02*
X11496372Y-17753650D01*
X11496372Y-17753650D02*
X11524943Y-17753650D01*
X11524943Y-17753650D02*
X11543991Y-17763174D01*
X11543991Y-17763174D02*
X11553515Y-17782222D01*
X11553515Y-17782222D02*
X11553515Y-17886984D01*
X11943991Y-17677460D02*
X11772563Y-17934603D01*
X12201134Y-17686984D02*
X12220182Y-17686984D01*
X12220182Y-17686984D02*
X12239229Y-17696508D01*
X12239229Y-17696508D02*
X12248753Y-17706031D01*
X12248753Y-17706031D02*
X12258277Y-17725079D01*
X12258277Y-17725079D02*
X12267801Y-17763174D01*
X12267801Y-17763174D02*
X12267801Y-17810793D01*
X12267801Y-17810793D02*
X12258277Y-17848889D01*
X12258277Y-17848889D02*
X12248753Y-17867936D01*
X12248753Y-17867936D02*
X12239229Y-17877460D01*
X12239229Y-17877460D02*
X12220182Y-17886984D01*
X12220182Y-17886984D02*
X12201134Y-17886984D01*
X12201134Y-17886984D02*
X12182086Y-17877460D01*
X12182086Y-17877460D02*
X12172563Y-17867936D01*
X12172563Y-17867936D02*
X12163039Y-17848889D01*
X12163039Y-17848889D02*
X12153515Y-17810793D01*
X12153515Y-17810793D02*
X12153515Y-17763174D01*
X12153515Y-17763174D02*
X12163039Y-17725079D01*
X12163039Y-17725079D02*
X12172563Y-17706031D01*
X12172563Y-17706031D02*
X12182086Y-17696508D01*
X12182086Y-17696508D02*
X12201134Y-17686984D01*
X12353515Y-17867936D02*
X12363039Y-17877460D01*
X12363039Y-17877460D02*
X12353515Y-17886984D01*
X12353515Y-17886984D02*
X12343991Y-17877460D01*
X12343991Y-17877460D02*
X12353515Y-17867936D01*
X12353515Y-17867936D02*
X12353515Y-17886984D01*
X12553515Y-17886984D02*
X12439229Y-17886984D01*
X12496372Y-17886984D02*
X12496372Y-17686984D01*
X12496372Y-17686984D02*
X12477325Y-17715555D01*
X12477325Y-17715555D02*
X12458277Y-17734603D01*
X12458277Y-17734603D02*
X12439229Y-17744127D01*
X12677325Y-17686984D02*
X12696372Y-17686984D01*
X12696372Y-17686984D02*
X12715420Y-17696508D01*
X12715420Y-17696508D02*
X12724944Y-17706031D01*
X12724944Y-17706031D02*
X12734467Y-17725079D01*
X12734467Y-17725079D02*
X12743991Y-17763174D01*
X12743991Y-17763174D02*
X12743991Y-17810793D01*
X12743991Y-17810793D02*
X12734467Y-17848889D01*
X12734467Y-17848889D02*
X12724944Y-17867936D01*
X12724944Y-17867936D02*
X12715420Y-17877460D01*
X12715420Y-17877460D02*
X12696372Y-17886984D01*
X12696372Y-17886984D02*
X12677325Y-17886984D01*
X12677325Y-17886984D02*
X12658277Y-17877460D01*
X12658277Y-17877460D02*
X12648753Y-17867936D01*
X12648753Y-17867936D02*
X12639229Y-17848889D01*
X12639229Y-17848889D02*
X12629706Y-17810793D01*
X12629706Y-17810793D02*
X12629706Y-17763174D01*
X12629706Y-17763174D02*
X12639229Y-17725079D01*
X12639229Y-17725079D02*
X12648753Y-17706031D01*
X12648753Y-17706031D02*
X12658277Y-17696508D01*
X12658277Y-17696508D02*
X12677325Y-17686984D01*
X12915420Y-17686984D02*
X12877325Y-17686984D01*
X12877325Y-17686984D02*
X12858277Y-17696508D01*
X12858277Y-17696508D02*
X12848753Y-17706031D01*
X12848753Y-17706031D02*
X12829706Y-17734603D01*
X12829706Y-17734603D02*
X12820182Y-17772698D01*
X12820182Y-17772698D02*
X12820182Y-17848889D01*
X12820182Y-17848889D02*
X12829706Y-17867936D01*
X12829706Y-17867936D02*
X12839229Y-17877460D01*
X12839229Y-17877460D02*
X12858277Y-17886984D01*
X12858277Y-17886984D02*
X12896372Y-17886984D01*
X12896372Y-17886984D02*
X12915420Y-17877460D01*
X12915420Y-17877460D02*
X12924944Y-17867936D01*
X12924944Y-17867936D02*
X12934467Y-17848889D01*
X12934467Y-17848889D02*
X12934467Y-17801270D01*
X12934467Y-17801270D02*
X12924944Y-17782222D01*
X12924944Y-17782222D02*
X12915420Y-17772698D01*
X12915420Y-17772698D02*
X12896372Y-17763174D01*
X12896372Y-17763174D02*
X12858277Y-17763174D01*
X12858277Y-17763174D02*
X12839229Y-17772698D01*
X12839229Y-17772698D02*
X12829706Y-17782222D01*
X12829706Y-17782222D02*
X12820182Y-17801270D01*
X13001134Y-17686984D02*
X13124944Y-17686984D01*
X13124944Y-17686984D02*
X13058277Y-17763174D01*
X13058277Y-17763174D02*
X13086848Y-17763174D01*
X13086848Y-17763174D02*
X13105896Y-17772698D01*
X13105896Y-17772698D02*
X13115420Y-17782222D01*
X13115420Y-17782222D02*
X13124944Y-17801270D01*
X13124944Y-17801270D02*
X13124944Y-17848889D01*
X13124944Y-17848889D02*
X13115420Y-17867936D01*
X13115420Y-17867936D02*
X13105896Y-17877460D01*
X13105896Y-17877460D02*
X13086848Y-17886984D01*
X13086848Y-17886984D02*
X13029706Y-17886984D01*
X13029706Y-17886984D02*
X13010658Y-17877460D01*
X13010658Y-17877460D02*
X13001134Y-17867936D01*
X13201134Y-17686984D02*
X13201134Y-17725079D01*
X13277325Y-17686984D02*
X13277325Y-17725079D01*
X13572563Y-17963174D02*
X13563039Y-17953650D01*
X13563039Y-17953650D02*
X13543991Y-17925079D01*
X13543991Y-17925079D02*
X13534468Y-17906031D01*
X13534468Y-17906031D02*
X13524944Y-17877460D01*
X13524944Y-17877460D02*
X13515420Y-17829841D01*
X13515420Y-17829841D02*
X13515420Y-17791746D01*
X13515420Y-17791746D02*
X13524944Y-17744127D01*
X13524944Y-17744127D02*
X13534468Y-17715555D01*
X13534468Y-17715555D02*
X13543991Y-17696508D01*
X13543991Y-17696508D02*
X13563039Y-17667936D01*
X13563039Y-17667936D02*
X13572563Y-17658412D01*
X13639229Y-17706031D02*
X13648753Y-17696508D01*
X13648753Y-17696508D02*
X13667801Y-17686984D01*
X13667801Y-17686984D02*
X13715420Y-17686984D01*
X13715420Y-17686984D02*
X13734468Y-17696508D01*
X13734468Y-17696508D02*
X13743991Y-17706031D01*
X13743991Y-17706031D02*
X13753515Y-17725079D01*
X13753515Y-17725079D02*
X13753515Y-17744127D01*
X13753515Y-17744127D02*
X13743991Y-17772698D01*
X13743991Y-17772698D02*
X13629706Y-17886984D01*
X13629706Y-17886984D02*
X13753515Y-17886984D01*
X13991610Y-17886984D02*
X13991610Y-17686984D01*
X14077325Y-17886984D02*
X14077325Y-17782222D01*
X14077325Y-17782222D02*
X14067801Y-17763174D01*
X14067801Y-17763174D02*
X14048753Y-17753650D01*
X14048753Y-17753650D02*
X14020182Y-17753650D01*
X14020182Y-17753650D02*
X14001134Y-17763174D01*
X14001134Y-17763174D02*
X13991610Y-17772698D01*
X14201134Y-17886984D02*
X14182087Y-17877460D01*
X14182087Y-17877460D02*
X14172563Y-17867936D01*
X14172563Y-17867936D02*
X14163039Y-17848889D01*
X14163039Y-17848889D02*
X14163039Y-17791746D01*
X14163039Y-17791746D02*
X14172563Y-17772698D01*
X14172563Y-17772698D02*
X14182087Y-17763174D01*
X14182087Y-17763174D02*
X14201134Y-17753650D01*
X14201134Y-17753650D02*
X14229706Y-17753650D01*
X14229706Y-17753650D02*
X14248753Y-17763174D01*
X14248753Y-17763174D02*
X14258277Y-17772698D01*
X14258277Y-17772698D02*
X14267801Y-17791746D01*
X14267801Y-17791746D02*
X14267801Y-17848889D01*
X14267801Y-17848889D02*
X14258277Y-17867936D01*
X14258277Y-17867936D02*
X14248753Y-17877460D01*
X14248753Y-17877460D02*
X14229706Y-17886984D01*
X14229706Y-17886984D02*
X14201134Y-17886984D01*
X14382087Y-17886984D02*
X14363039Y-17877460D01*
X14363039Y-17877460D02*
X14353515Y-17858412D01*
X14353515Y-17858412D02*
X14353515Y-17686984D01*
X14534468Y-17877460D02*
X14515420Y-17886984D01*
X14515420Y-17886984D02*
X14477325Y-17886984D01*
X14477325Y-17886984D02*
X14458277Y-17877460D01*
X14458277Y-17877460D02*
X14448753Y-17858412D01*
X14448753Y-17858412D02*
X14448753Y-17782222D01*
X14448753Y-17782222D02*
X14458277Y-17763174D01*
X14458277Y-17763174D02*
X14477325Y-17753650D01*
X14477325Y-17753650D02*
X14515420Y-17753650D01*
X14515420Y-17753650D02*
X14534468Y-17763174D01*
X14534468Y-17763174D02*
X14543991Y-17782222D01*
X14543991Y-17782222D02*
X14543991Y-17801270D01*
X14543991Y-17801270D02*
X14448753Y-17820317D01*
X14620182Y-17877460D02*
X14639230Y-17886984D01*
X14639230Y-17886984D02*
X14677325Y-17886984D01*
X14677325Y-17886984D02*
X14696372Y-17877460D01*
X14696372Y-17877460D02*
X14705896Y-17858412D01*
X14705896Y-17858412D02*
X14705896Y-17848889D01*
X14705896Y-17848889D02*
X14696372Y-17829841D01*
X14696372Y-17829841D02*
X14677325Y-17820317D01*
X14677325Y-17820317D02*
X14648753Y-17820317D01*
X14648753Y-17820317D02*
X14629706Y-17810793D01*
X14629706Y-17810793D02*
X14620182Y-17791746D01*
X14620182Y-17791746D02*
X14620182Y-17782222D01*
X14620182Y-17782222D02*
X14629706Y-17763174D01*
X14629706Y-17763174D02*
X14648753Y-17753650D01*
X14648753Y-17753650D02*
X14677325Y-17753650D01*
X14677325Y-17753650D02*
X14696372Y-17763174D01*
X14772563Y-17963174D02*
X14782087Y-17953650D01*
X14782087Y-17953650D02*
X14801134Y-17925079D01*
X14801134Y-17925079D02*
X14810658Y-17906031D01*
X14810658Y-17906031D02*
X14820182Y-17877460D01*
X14820182Y-17877460D02*
X14829706Y-17829841D01*
X14829706Y-17829841D02*
X14829706Y-17791746D01*
X14829706Y-17791746D02*
X14820182Y-17744127D01*
X14820182Y-17744127D02*
X14810658Y-17715555D01*
X14810658Y-17715555D02*
X14801134Y-17696508D01*
X14801134Y-17696508D02*
X14782087Y-17667936D01*
X14782087Y-17667936D02*
X14772563Y-17658412D01*
M02*
