G04 #@! TF.GenerationSoftware,KiCad,Pcbnew,8.0.3*
G04 #@! TF.CreationDate,2025-05-14T17:31:42-04:00*
G04 #@! TF.ProjectId,Sp-I,53702d49-2e6b-4696-9361-645f70636258,rev?*
G04 #@! TF.SameCoordinates,Original*
G04 #@! TF.FileFunction,Soldermask,Top*
G04 #@! TF.FilePolarity,Negative*
%FSLAX46Y46*%
G04 Gerber Fmt 4.6, Leading zero omitted, Abs format (unit mm)*
G04 Created by KiCad (PCBNEW 8.0.3) date 2025-05-14 17:31:42*
%MOMM*%
%LPD*%
G01*
G04 APERTURE LIST*
G04 Aperture macros list*
%AMRoundRect*
0 Rectangle with rounded corners*
0 $1 Rounding radius*
0 $2 $3 $4 $5 $6 $7 $8 $9 X,Y pos of 4 corners*
0 Add a 4 corners polygon primitive as box body*
4,1,4,$2,$3,$4,$5,$6,$7,$8,$9,$2,$3,0*
0 Add four circle primitives for the rounded corners*
1,1,$1+$1,$2,$3*
1,1,$1+$1,$4,$5*
1,1,$1+$1,$6,$7*
1,1,$1+$1,$8,$9*
0 Add four rect primitives between the rounded corners*
20,1,$1+$1,$2,$3,$4,$5,0*
20,1,$1+$1,$4,$5,$6,$7,0*
20,1,$1+$1,$6,$7,$8,$9,0*
20,1,$1+$1,$8,$9,$2,$3,0*%
G04 Aperture macros list end*
%ADD10C,0.000000*%
%ADD11C,1.270000*%
%ADD12C,3.000000*%
%ADD13R,1.700000X1.700000*%
%ADD14O,1.700000X1.700000*%
%ADD15C,1.665000*%
%ADD16R,1.300000X1.300000*%
%ADD17C,1.300000*%
%ADD18RoundRect,0.102000X1.225000X-1.225000X1.225000X1.225000X-1.225000X1.225000X-1.225000X-1.225000X0*%
%ADD19C,2.654000*%
%ADD20R,0.508000X2.209800*%
%ADD21RoundRect,0.250000X0.625000X-0.400000X0.625000X0.400000X-0.625000X0.400000X-0.625000X-0.400000X0*%
%ADD22RoundRect,0.250000X-0.400000X-0.625000X0.400000X-0.625000X0.400000X0.625000X-0.400000X0.625000X0*%
%ADD23O,1.500000X1.050000*%
%ADD24R,1.500000X1.050000*%
%ADD25C,1.600200*%
%ADD26C,4.000000*%
%ADD27R,3.800000X3.800000*%
%ADD28RoundRect,0.250001X-0.462499X-0.624999X0.462499X-0.624999X0.462499X0.624999X-0.462499X0.624999X0*%
%ADD29RoundRect,0.250001X0.624999X-0.462499X0.624999X0.462499X-0.624999X0.462499X-0.624999X-0.462499X0*%
%ADD30RoundRect,0.250000X-0.650000X0.412500X-0.650000X-0.412500X0.650000X-0.412500X0.650000X0.412500X0*%
G04 APERTURE END LIST*
D10*
G36*
X161842600Y-140321700D02*
G01*
X161217100Y-140321700D01*
X161217100Y-137807100D01*
X161842600Y-137807100D01*
X161842600Y-140321700D01*
G37*
G36*
X162630000Y-140321700D02*
G01*
X162242600Y-140321700D01*
X162242600Y-137807100D01*
X162630000Y-137807100D01*
X162630000Y-140321700D01*
G37*
G36*
X163417400Y-140321700D02*
G01*
X163030000Y-140321700D01*
X163030000Y-137807100D01*
X163417400Y-137807100D01*
X163417400Y-140321700D01*
G37*
G36*
X164442900Y-140321700D02*
G01*
X163817400Y-140321700D01*
X163817400Y-137807100D01*
X164442900Y-137807100D01*
X164442900Y-140321700D01*
G37*
G36*
X164442900Y-140321700D02*
G01*
X161217100Y-140321700D01*
X161217100Y-140051800D01*
X164442900Y-140051800D01*
X164442900Y-140321700D01*
G37*
G36*
X164442900Y-139651800D02*
G01*
X161217100Y-139651800D01*
X161217100Y-139264400D01*
X164442900Y-139264400D01*
X164442900Y-139651800D01*
G37*
G36*
X164442900Y-138864400D02*
G01*
X161217100Y-138864400D01*
X161217100Y-138477000D01*
X164442900Y-138477000D01*
X164442900Y-138864400D01*
G37*
G36*
X164442900Y-138077000D02*
G01*
X161217100Y-138077000D01*
X161217100Y-137807100D01*
X164442900Y-137807100D01*
X164442900Y-138077000D01*
G37*
G36*
X155842600Y-140321700D02*
G01*
X155217100Y-140321700D01*
X155217100Y-137807100D01*
X155842600Y-137807100D01*
X155842600Y-140321700D01*
G37*
G36*
X156630000Y-140321700D02*
G01*
X156242600Y-140321700D01*
X156242600Y-137807100D01*
X156630000Y-137807100D01*
X156630000Y-140321700D01*
G37*
G36*
X157417400Y-140321700D02*
G01*
X157030000Y-140321700D01*
X157030000Y-137807100D01*
X157417400Y-137807100D01*
X157417400Y-140321700D01*
G37*
G36*
X158442900Y-140321700D02*
G01*
X157817400Y-140321700D01*
X157817400Y-137807100D01*
X158442900Y-137807100D01*
X158442900Y-140321700D01*
G37*
G36*
X158442900Y-140321700D02*
G01*
X155217100Y-140321700D01*
X155217100Y-140051800D01*
X158442900Y-140051800D01*
X158442900Y-140321700D01*
G37*
G36*
X158442900Y-139651800D02*
G01*
X155217100Y-139651800D01*
X155217100Y-139264400D01*
X158442900Y-139264400D01*
X158442900Y-139651800D01*
G37*
G36*
X158442900Y-138864400D02*
G01*
X155217100Y-138864400D01*
X155217100Y-138477000D01*
X158442900Y-138477000D01*
X158442900Y-138864400D01*
G37*
G36*
X158442900Y-138077000D02*
G01*
X155217100Y-138077000D01*
X155217100Y-137807100D01*
X158442900Y-137807100D01*
X158442900Y-138077000D01*
G37*
D11*
X170394900Y-127028000D03*
X167854900Y-127028000D03*
X165314900Y-127028000D03*
D12*
X189750000Y-125250000D03*
X105250000Y-125250000D03*
D13*
X131250000Y-140750000D03*
D14*
X133790000Y-140750000D03*
X136330000Y-140750000D03*
D13*
X124750000Y-140725000D03*
D14*
X127290000Y-140725000D03*
D13*
X167710000Y-140725000D03*
D14*
X170250000Y-140725000D03*
X188290000Y-140750000D03*
X185750000Y-140750000D03*
D13*
X183210000Y-140750000D03*
D14*
X179250000Y-140750000D03*
X176710000Y-140750000D03*
D13*
X174170000Y-140750000D03*
X115750000Y-140750000D03*
D14*
X118290000Y-140750000D03*
X120830000Y-140750000D03*
D15*
X192040000Y-131800000D03*
X189500000Y-147040000D03*
X189500000Y-131800000D03*
X192040000Y-147040000D03*
X186960000Y-147040000D03*
X184420000Y-147040000D03*
X181880000Y-147040000D03*
X179340000Y-147040000D03*
X176800000Y-147040000D03*
X174260000Y-147040000D03*
X171720000Y-147040000D03*
X169180000Y-147040000D03*
X169180000Y-131800000D03*
X171720000Y-131800000D03*
X174260000Y-131800000D03*
X176800000Y-131800000D03*
X179340000Y-131800000D03*
X181880000Y-131800000D03*
X184420000Y-131800000D03*
X186960000Y-131800000D03*
D16*
X127560000Y-133520000D03*
D17*
X127560000Y-130980000D03*
X119940000Y-130980000D03*
X119940000Y-133520000D03*
D18*
X119750000Y-124250000D03*
D19*
X124450000Y-124250000D03*
X129150000Y-124250000D03*
D20*
X160925000Y-141939401D03*
X162195000Y-141939401D03*
X163465000Y-141939401D03*
X164735000Y-141939401D03*
X164735000Y-136189399D03*
X163465000Y-136189399D03*
X162195000Y-136189399D03*
X160925000Y-136189399D03*
D21*
X146000000Y-144300000D03*
X146000000Y-141200000D03*
X148500000Y-137300000D03*
X148500000Y-134200000D03*
X148500000Y-144300000D03*
X148500000Y-141200000D03*
X151000000Y-144300000D03*
X151000000Y-141200000D03*
D22*
X113700000Y-126750000D03*
X116800000Y-126750000D03*
X113700000Y-124250000D03*
X116800000Y-124250000D03*
D23*
X138500000Y-125250000D03*
X138500000Y-126520000D03*
D24*
X138500000Y-127790000D03*
D20*
X154925000Y-141939401D03*
X156195000Y-141939401D03*
X157465000Y-141939401D03*
X158735000Y-141939401D03*
X158735000Y-136189399D03*
X157465000Y-136189399D03*
X156195000Y-136189399D03*
X154925000Y-136189399D03*
D25*
X142510000Y-127744999D03*
X150130000Y-127744999D03*
X157750000Y-127744999D03*
X160290000Y-127744999D03*
D26*
X177250000Y-124500000D03*
D27*
X182250000Y-124500000D03*
D14*
X112000000Y-131500000D03*
X109460000Y-131500000D03*
X106920000Y-131500000D03*
D13*
X104380000Y-131500000D03*
D28*
X148262500Y-122250000D03*
X151237500Y-122250000D03*
D29*
X146000000Y-137237500D03*
X146000000Y-134262500D03*
D30*
X151000000Y-134187500D03*
X151000000Y-137312500D03*
X141750000Y-134187500D03*
X141750000Y-137312500D03*
X139250000Y-134187500D03*
X139250000Y-137312500D03*
X136750000Y-134187500D03*
X136750000Y-137312500D03*
X134250000Y-134187500D03*
X134250000Y-137312500D03*
D14*
X111870000Y-140750000D03*
X109330000Y-140750000D03*
D13*
X106790000Y-140750000D03*
M02*
