%TF.GenerationSoftware,KiCad,Pcbnew,9.0.3*%
%TF.CreationDate,2026-01-21T00:26:02-05:00*%
%TF.ProjectId,Sp-ii-top-board,53702d69-692d-4746-9f70-2d626f617264,rev?*%
%TF.SameCoordinates,Original*%
%TF.FileFunction,Legend,Bot*%
%TF.FilePolarity,Positive*%
%FSLAX46Y46*%
G04 Gerber Fmt 4.6, Leading zero omitted, Abs format (unit mm)*
G04 Created by KiCad (PCBNEW 9.0.3) date 2026-01-21 00:26:02*
%MOMM*%
%LPD*%
G01*
G04 APERTURE LIST*
%ADD10C,0.060000*%
%ADD11C,0.100000*%
%ADD12C,0.070000*%
%ADD13C,0.150000*%
%ADD14C,0.127000*%
%ADD15C,0.200000*%
%ADD16C,0.120000*%
%ADD17C,0.152400*%
G04 APERTURE END LIST*
D10*
X189796615Y-92360165D02*
X189896615Y-92217308D01*
X189968044Y-92360165D02*
X189968044Y-92060165D01*
X189968044Y-92060165D02*
X189853758Y-92060165D01*
X189853758Y-92060165D02*
X189825187Y-92074451D01*
X189825187Y-92074451D02*
X189810901Y-92088737D01*
X189810901Y-92088737D02*
X189796615Y-92117308D01*
X189796615Y-92117308D02*
X189796615Y-92160165D01*
X189796615Y-92160165D02*
X189810901Y-92188737D01*
X189810901Y-92188737D02*
X189825187Y-92203022D01*
X189825187Y-92203022D02*
X189853758Y-92217308D01*
X189853758Y-92217308D02*
X189968044Y-92217308D01*
X189739473Y-92388737D02*
X189510901Y-92388737D01*
X189439473Y-92245880D02*
X189210902Y-92245880D01*
X195768044Y-95260165D02*
X195910901Y-95260165D01*
X195910901Y-95260165D02*
X195910901Y-94960165D01*
X195739473Y-95288737D02*
X195510901Y-95288737D01*
X195439473Y-95145880D02*
X195210902Y-95145880D01*
X195325187Y-95260165D02*
X195325187Y-95031594D01*
X187976615Y-99460165D02*
X187976615Y-99160165D01*
X187976615Y-99160165D02*
X187876615Y-99374451D01*
X187876615Y-99374451D02*
X187776615Y-99160165D01*
X187776615Y-99160165D02*
X187776615Y-99460165D01*
X187705187Y-99488737D02*
X187476615Y-99488737D01*
X187405187Y-99460165D02*
X187405187Y-99160165D01*
X187090901Y-99460165D02*
X187190901Y-99317308D01*
X187262330Y-99460165D02*
X187262330Y-99160165D01*
X187262330Y-99160165D02*
X187148044Y-99160165D01*
X187148044Y-99160165D02*
X187119473Y-99174451D01*
X187119473Y-99174451D02*
X187105187Y-99188737D01*
X187105187Y-99188737D02*
X187090901Y-99217308D01*
X187090901Y-99217308D02*
X187090901Y-99260165D01*
X187090901Y-99260165D02*
X187105187Y-99288737D01*
X187105187Y-99288737D02*
X187119473Y-99303022D01*
X187119473Y-99303022D02*
X187148044Y-99317308D01*
X187148044Y-99317308D02*
X187262330Y-99317308D01*
X191796615Y-95260165D02*
X191896615Y-95117308D01*
X191968044Y-95260165D02*
X191968044Y-94960165D01*
X191968044Y-94960165D02*
X191853758Y-94960165D01*
X191853758Y-94960165D02*
X191825187Y-94974451D01*
X191825187Y-94974451D02*
X191810901Y-94988737D01*
X191810901Y-94988737D02*
X191796615Y-95017308D01*
X191796615Y-95017308D02*
X191796615Y-95060165D01*
X191796615Y-95060165D02*
X191810901Y-95088737D01*
X191810901Y-95088737D02*
X191825187Y-95103022D01*
X191825187Y-95103022D02*
X191853758Y-95117308D01*
X191853758Y-95117308D02*
X191968044Y-95117308D01*
X191739473Y-95288737D02*
X191510901Y-95288737D01*
X191439473Y-95145880D02*
X191210902Y-95145880D01*
X191325187Y-95260165D02*
X191325187Y-95031594D01*
X191848044Y-99460165D02*
X191990901Y-99460165D01*
X191990901Y-99460165D02*
X191990901Y-99160165D01*
X191819473Y-99488737D02*
X191590901Y-99488737D01*
X191376616Y-99460165D02*
X191519473Y-99460165D01*
X191519473Y-99460165D02*
X191519473Y-99160165D01*
X191276616Y-99460165D02*
X191276616Y-99160165D01*
X191276616Y-99160165D02*
X191105187Y-99460165D01*
X191105187Y-99460165D02*
X191105187Y-99160165D01*
D11*
X148119925Y-88992800D02*
X148034211Y-89021371D01*
X148034211Y-89021371D02*
X147891353Y-89021371D01*
X147891353Y-89021371D02*
X147834211Y-88992800D01*
X147834211Y-88992800D02*
X147805639Y-88964228D01*
X147805639Y-88964228D02*
X147777068Y-88907085D01*
X147777068Y-88907085D02*
X147777068Y-88849942D01*
X147777068Y-88849942D02*
X147805639Y-88792800D01*
X147805639Y-88792800D02*
X147834211Y-88764228D01*
X147834211Y-88764228D02*
X147891353Y-88735657D01*
X147891353Y-88735657D02*
X148005639Y-88707085D01*
X148005639Y-88707085D02*
X148062782Y-88678514D01*
X148062782Y-88678514D02*
X148091353Y-88649942D01*
X148091353Y-88649942D02*
X148119925Y-88592800D01*
X148119925Y-88592800D02*
X148119925Y-88535657D01*
X148119925Y-88535657D02*
X148091353Y-88478514D01*
X148091353Y-88478514D02*
X148062782Y-88449942D01*
X148062782Y-88449942D02*
X148005639Y-88421371D01*
X148005639Y-88421371D02*
X147862782Y-88421371D01*
X147862782Y-88421371D02*
X147777068Y-88449942D01*
X147434210Y-89021371D02*
X147491353Y-88992800D01*
X147491353Y-88992800D02*
X147519924Y-88964228D01*
X147519924Y-88964228D02*
X147548496Y-88907085D01*
X147548496Y-88907085D02*
X147548496Y-88735657D01*
X147548496Y-88735657D02*
X147519924Y-88678514D01*
X147519924Y-88678514D02*
X147491353Y-88649942D01*
X147491353Y-88649942D02*
X147434210Y-88621371D01*
X147434210Y-88621371D02*
X147348496Y-88621371D01*
X147348496Y-88621371D02*
X147291353Y-88649942D01*
X147291353Y-88649942D02*
X147262782Y-88678514D01*
X147262782Y-88678514D02*
X147234210Y-88735657D01*
X147234210Y-88735657D02*
X147234210Y-88907085D01*
X147234210Y-88907085D02*
X147262782Y-88964228D01*
X147262782Y-88964228D02*
X147291353Y-88992800D01*
X147291353Y-88992800D02*
X147348496Y-89021371D01*
X147348496Y-89021371D02*
X147434210Y-89021371D01*
X146891353Y-89021371D02*
X146948496Y-88992800D01*
X146948496Y-88992800D02*
X146977067Y-88935657D01*
X146977067Y-88935657D02*
X146977067Y-88421371D01*
X146405639Y-89021371D02*
X146405639Y-88421371D01*
X146405639Y-88992800D02*
X146462781Y-89021371D01*
X146462781Y-89021371D02*
X146577067Y-89021371D01*
X146577067Y-89021371D02*
X146634210Y-88992800D01*
X146634210Y-88992800D02*
X146662781Y-88964228D01*
X146662781Y-88964228D02*
X146691353Y-88907085D01*
X146691353Y-88907085D02*
X146691353Y-88735657D01*
X146691353Y-88735657D02*
X146662781Y-88678514D01*
X146662781Y-88678514D02*
X146634210Y-88649942D01*
X146634210Y-88649942D02*
X146577067Y-88621371D01*
X146577067Y-88621371D02*
X146462781Y-88621371D01*
X146462781Y-88621371D02*
X146405639Y-88649942D01*
X145891353Y-88992800D02*
X145948496Y-89021371D01*
X145948496Y-89021371D02*
X146062782Y-89021371D01*
X146062782Y-89021371D02*
X146119924Y-88992800D01*
X146119924Y-88992800D02*
X146148496Y-88935657D01*
X146148496Y-88935657D02*
X146148496Y-88707085D01*
X146148496Y-88707085D02*
X146119924Y-88649942D01*
X146119924Y-88649942D02*
X146062782Y-88621371D01*
X146062782Y-88621371D02*
X145948496Y-88621371D01*
X145948496Y-88621371D02*
X145891353Y-88649942D01*
X145891353Y-88649942D02*
X145862782Y-88707085D01*
X145862782Y-88707085D02*
X145862782Y-88764228D01*
X145862782Y-88764228D02*
X146148496Y-88821371D01*
X145605638Y-89021371D02*
X145605638Y-88621371D01*
X145605638Y-88735657D02*
X145577067Y-88678514D01*
X145577067Y-88678514D02*
X145548496Y-88649942D01*
X145548496Y-88649942D02*
X145491353Y-88621371D01*
X145491353Y-88621371D02*
X145434210Y-88621371D01*
X144777066Y-89021371D02*
X144777066Y-88421371D01*
X144777066Y-88649942D02*
X144719924Y-88621371D01*
X144719924Y-88621371D02*
X144605638Y-88621371D01*
X144605638Y-88621371D02*
X144548495Y-88649942D01*
X144548495Y-88649942D02*
X144519924Y-88678514D01*
X144519924Y-88678514D02*
X144491352Y-88735657D01*
X144491352Y-88735657D02*
X144491352Y-88907085D01*
X144491352Y-88907085D02*
X144519924Y-88964228D01*
X144519924Y-88964228D02*
X144548495Y-88992800D01*
X144548495Y-88992800D02*
X144605638Y-89021371D01*
X144605638Y-89021371D02*
X144719924Y-89021371D01*
X144719924Y-89021371D02*
X144777066Y-88992800D01*
X144005638Y-88992800D02*
X144062781Y-89021371D01*
X144062781Y-89021371D02*
X144177067Y-89021371D01*
X144177067Y-89021371D02*
X144234209Y-88992800D01*
X144234209Y-88992800D02*
X144262781Y-88935657D01*
X144262781Y-88935657D02*
X144262781Y-88707085D01*
X144262781Y-88707085D02*
X144234209Y-88649942D01*
X144234209Y-88649942D02*
X144177067Y-88621371D01*
X144177067Y-88621371D02*
X144062781Y-88621371D01*
X144062781Y-88621371D02*
X144005638Y-88649942D01*
X144005638Y-88649942D02*
X143977067Y-88707085D01*
X143977067Y-88707085D02*
X143977067Y-88764228D01*
X143977067Y-88764228D02*
X144262781Y-88821371D01*
X143805638Y-88621371D02*
X143577066Y-88621371D01*
X143719923Y-89021371D02*
X143719923Y-88507085D01*
X143719923Y-88507085D02*
X143691352Y-88449942D01*
X143691352Y-88449942D02*
X143634209Y-88421371D01*
X143634209Y-88421371D02*
X143577066Y-88421371D01*
X143291352Y-89021371D02*
X143348495Y-88992800D01*
X143348495Y-88992800D02*
X143377066Y-88964228D01*
X143377066Y-88964228D02*
X143405638Y-88907085D01*
X143405638Y-88907085D02*
X143405638Y-88735657D01*
X143405638Y-88735657D02*
X143377066Y-88678514D01*
X143377066Y-88678514D02*
X143348495Y-88649942D01*
X143348495Y-88649942D02*
X143291352Y-88621371D01*
X143291352Y-88621371D02*
X143205638Y-88621371D01*
X143205638Y-88621371D02*
X143148495Y-88649942D01*
X143148495Y-88649942D02*
X143119924Y-88678514D01*
X143119924Y-88678514D02*
X143091352Y-88735657D01*
X143091352Y-88735657D02*
X143091352Y-88907085D01*
X143091352Y-88907085D02*
X143119924Y-88964228D01*
X143119924Y-88964228D02*
X143148495Y-88992800D01*
X143148495Y-88992800D02*
X143205638Y-89021371D01*
X143205638Y-89021371D02*
X143291352Y-89021371D01*
X142834209Y-89021371D02*
X142834209Y-88621371D01*
X142834209Y-88735657D02*
X142805638Y-88678514D01*
X142805638Y-88678514D02*
X142777067Y-88649942D01*
X142777067Y-88649942D02*
X142719924Y-88621371D01*
X142719924Y-88621371D02*
X142662781Y-88621371D01*
X142234209Y-88992800D02*
X142291352Y-89021371D01*
X142291352Y-89021371D02*
X142405638Y-89021371D01*
X142405638Y-89021371D02*
X142462780Y-88992800D01*
X142462780Y-88992800D02*
X142491352Y-88935657D01*
X142491352Y-88935657D02*
X142491352Y-88707085D01*
X142491352Y-88707085D02*
X142462780Y-88649942D01*
X142462780Y-88649942D02*
X142405638Y-88621371D01*
X142405638Y-88621371D02*
X142291352Y-88621371D01*
X142291352Y-88621371D02*
X142234209Y-88649942D01*
X142234209Y-88649942D02*
X142205638Y-88707085D01*
X142205638Y-88707085D02*
X142205638Y-88764228D01*
X142205638Y-88764228D02*
X142491352Y-88821371D01*
X141577066Y-88421371D02*
X141234209Y-88421371D01*
X141405637Y-89021371D02*
X141405637Y-88421371D01*
X140805637Y-88992800D02*
X140862780Y-89021371D01*
X140862780Y-89021371D02*
X140977066Y-89021371D01*
X140977066Y-89021371D02*
X141034208Y-88992800D01*
X141034208Y-88992800D02*
X141062780Y-88935657D01*
X141062780Y-88935657D02*
X141062780Y-88707085D01*
X141062780Y-88707085D02*
X141034208Y-88649942D01*
X141034208Y-88649942D02*
X140977066Y-88621371D01*
X140977066Y-88621371D02*
X140862780Y-88621371D01*
X140862780Y-88621371D02*
X140805637Y-88649942D01*
X140805637Y-88649942D02*
X140777066Y-88707085D01*
X140777066Y-88707085D02*
X140777066Y-88764228D01*
X140777066Y-88764228D02*
X141062780Y-88821371D01*
X140291351Y-88992800D02*
X140348494Y-89021371D01*
X140348494Y-89021371D02*
X140462780Y-89021371D01*
X140462780Y-89021371D02*
X140519922Y-88992800D01*
X140519922Y-88992800D02*
X140548494Y-88935657D01*
X140548494Y-88935657D02*
X140548494Y-88707085D01*
X140548494Y-88707085D02*
X140519922Y-88649942D01*
X140519922Y-88649942D02*
X140462780Y-88621371D01*
X140462780Y-88621371D02*
X140348494Y-88621371D01*
X140348494Y-88621371D02*
X140291351Y-88649942D01*
X140291351Y-88649942D02*
X140262780Y-88707085D01*
X140262780Y-88707085D02*
X140262780Y-88764228D01*
X140262780Y-88764228D02*
X140548494Y-88821371D01*
X140005636Y-88621371D02*
X140005636Y-89021371D01*
X140005636Y-88678514D02*
X139977065Y-88649942D01*
X139977065Y-88649942D02*
X139919922Y-88621371D01*
X139919922Y-88621371D02*
X139834208Y-88621371D01*
X139834208Y-88621371D02*
X139777065Y-88649942D01*
X139777065Y-88649942D02*
X139748494Y-88707085D01*
X139748494Y-88707085D02*
X139748494Y-89021371D01*
X139491351Y-88992800D02*
X139434208Y-89021371D01*
X139434208Y-89021371D02*
X139319922Y-89021371D01*
X139319922Y-89021371D02*
X139262779Y-88992800D01*
X139262779Y-88992800D02*
X139234208Y-88935657D01*
X139234208Y-88935657D02*
X139234208Y-88907085D01*
X139234208Y-88907085D02*
X139262779Y-88849942D01*
X139262779Y-88849942D02*
X139319922Y-88821371D01*
X139319922Y-88821371D02*
X139405637Y-88821371D01*
X139405637Y-88821371D02*
X139462779Y-88792800D01*
X139462779Y-88792800D02*
X139491351Y-88735657D01*
X139491351Y-88735657D02*
X139491351Y-88707085D01*
X139491351Y-88707085D02*
X139462779Y-88649942D01*
X139462779Y-88649942D02*
X139405637Y-88621371D01*
X139405637Y-88621371D02*
X139319922Y-88621371D01*
X139319922Y-88621371D02*
X139262779Y-88649942D01*
X139034208Y-88621371D02*
X138891351Y-89021371D01*
X138748494Y-88621371D02*
X138891351Y-89021371D01*
X138891351Y-89021371D02*
X138948494Y-89164228D01*
X138948494Y-89164228D02*
X138977065Y-89192800D01*
X138977065Y-89192800D02*
X139034208Y-89221371D01*
D10*
X191796615Y-92360165D02*
X191896615Y-92217308D01*
X191968044Y-92360165D02*
X191968044Y-92060165D01*
X191968044Y-92060165D02*
X191853758Y-92060165D01*
X191853758Y-92060165D02*
X191825187Y-92074451D01*
X191825187Y-92074451D02*
X191810901Y-92088737D01*
X191810901Y-92088737D02*
X191796615Y-92117308D01*
X191796615Y-92117308D02*
X191796615Y-92160165D01*
X191796615Y-92160165D02*
X191810901Y-92188737D01*
X191810901Y-92188737D02*
X191825187Y-92203022D01*
X191825187Y-92203022D02*
X191853758Y-92217308D01*
X191853758Y-92217308D02*
X191968044Y-92217308D01*
X191739473Y-92388737D02*
X191510901Y-92388737D01*
X191439473Y-92245880D02*
X191210902Y-92245880D01*
X191325187Y-92360165D02*
X191325187Y-92131594D01*
X184133757Y-86760165D02*
X184276614Y-86760165D01*
X184276614Y-86760165D02*
X184276614Y-86460165D01*
X184105186Y-86788737D02*
X183876614Y-86788737D01*
X183662329Y-86460165D02*
X183805186Y-86460165D01*
X183805186Y-86460165D02*
X183819472Y-86603022D01*
X183819472Y-86603022D02*
X183805186Y-86588737D01*
X183805186Y-86588737D02*
X183776615Y-86574451D01*
X183776615Y-86574451D02*
X183705186Y-86574451D01*
X183705186Y-86574451D02*
X183676615Y-86588737D01*
X183676615Y-86588737D02*
X183662329Y-86603022D01*
X183662329Y-86603022D02*
X183648043Y-86631594D01*
X183648043Y-86631594D02*
X183648043Y-86703022D01*
X183648043Y-86703022D02*
X183662329Y-86731594D01*
X183662329Y-86731594D02*
X183676615Y-86745880D01*
X183676615Y-86745880D02*
X183705186Y-86760165D01*
X183705186Y-86760165D02*
X183776615Y-86760165D01*
X183776615Y-86760165D02*
X183805186Y-86745880D01*
X183805186Y-86745880D02*
X183819472Y-86731594D01*
X183462329Y-86460165D02*
X183433758Y-86460165D01*
X183433758Y-86460165D02*
X183405186Y-86474451D01*
X183405186Y-86474451D02*
X183390901Y-86488737D01*
X183390901Y-86488737D02*
X183376615Y-86517308D01*
X183376615Y-86517308D02*
X183362329Y-86574451D01*
X183362329Y-86574451D02*
X183362329Y-86645880D01*
X183362329Y-86645880D02*
X183376615Y-86703022D01*
X183376615Y-86703022D02*
X183390901Y-86731594D01*
X183390901Y-86731594D02*
X183405186Y-86745880D01*
X183405186Y-86745880D02*
X183433758Y-86760165D01*
X183433758Y-86760165D02*
X183462329Y-86760165D01*
X183462329Y-86760165D02*
X183490901Y-86745880D01*
X183490901Y-86745880D02*
X183505186Y-86731594D01*
X183505186Y-86731594D02*
X183519472Y-86703022D01*
X183519472Y-86703022D02*
X183533758Y-86645880D01*
X183533758Y-86645880D02*
X183533758Y-86574451D01*
X183533758Y-86574451D02*
X183519472Y-86517308D01*
X183519472Y-86517308D02*
X183505186Y-86488737D01*
X183505186Y-86488737D02*
X183490901Y-86474451D01*
X183490901Y-86474451D02*
X183462329Y-86460165D01*
X183305187Y-86788737D02*
X183076615Y-86788737D01*
X183005187Y-86760165D02*
X183005187Y-86460165D01*
X182690901Y-86760165D02*
X182790901Y-86617308D01*
X182862330Y-86760165D02*
X182862330Y-86460165D01*
X182862330Y-86460165D02*
X182748044Y-86460165D01*
X182748044Y-86460165D02*
X182719473Y-86474451D01*
X182719473Y-86474451D02*
X182705187Y-86488737D01*
X182705187Y-86488737D02*
X182690901Y-86517308D01*
X182690901Y-86517308D02*
X182690901Y-86560165D01*
X182690901Y-86560165D02*
X182705187Y-86588737D01*
X182705187Y-86588737D02*
X182719473Y-86603022D01*
X182719473Y-86603022D02*
X182748044Y-86617308D01*
X182748044Y-86617308D02*
X182862330Y-86617308D01*
X186282329Y-92360165D02*
X186282329Y-92060165D01*
X185968043Y-92360165D02*
X186068043Y-92217308D01*
X186139472Y-92360165D02*
X186139472Y-92060165D01*
X186139472Y-92060165D02*
X186025186Y-92060165D01*
X186025186Y-92060165D02*
X185996615Y-92074451D01*
X185996615Y-92074451D02*
X185982329Y-92088737D01*
X185982329Y-92088737D02*
X185968043Y-92117308D01*
X185968043Y-92117308D02*
X185968043Y-92160165D01*
X185968043Y-92160165D02*
X185982329Y-92188737D01*
X185982329Y-92188737D02*
X185996615Y-92203022D01*
X185996615Y-92203022D02*
X186025186Y-92217308D01*
X186025186Y-92217308D02*
X186139472Y-92217308D01*
X185910901Y-92388737D02*
X185682329Y-92388737D01*
X185610901Y-92360165D02*
X185610901Y-92060165D01*
X185610901Y-92060165D02*
X185496615Y-92060165D01*
X185496615Y-92060165D02*
X185468044Y-92074451D01*
X185468044Y-92074451D02*
X185453758Y-92088737D01*
X185453758Y-92088737D02*
X185439472Y-92117308D01*
X185439472Y-92117308D02*
X185439472Y-92160165D01*
X185439472Y-92160165D02*
X185453758Y-92188737D01*
X185453758Y-92188737D02*
X185468044Y-92203022D01*
X185468044Y-92203022D02*
X185496615Y-92217308D01*
X185496615Y-92217308D02*
X185610901Y-92217308D01*
X185339472Y-92060165D02*
X185268044Y-92360165D01*
X185268044Y-92360165D02*
X185210901Y-92145880D01*
X185210901Y-92145880D02*
X185153758Y-92360165D01*
X185153758Y-92360165D02*
X185082330Y-92060165D01*
X184796615Y-92360165D02*
X184896615Y-92217308D01*
X184968044Y-92360165D02*
X184968044Y-92060165D01*
X184968044Y-92060165D02*
X184853758Y-92060165D01*
X184853758Y-92060165D02*
X184825187Y-92074451D01*
X184825187Y-92074451D02*
X184810901Y-92088737D01*
X184810901Y-92088737D02*
X184796615Y-92117308D01*
X184796615Y-92117308D02*
X184796615Y-92160165D01*
X184796615Y-92160165D02*
X184810901Y-92188737D01*
X184810901Y-92188737D02*
X184825187Y-92203022D01*
X184825187Y-92203022D02*
X184853758Y-92217308D01*
X184853758Y-92217308D02*
X184968044Y-92217308D01*
X193876615Y-99460165D02*
X193976615Y-99317308D01*
X194048044Y-99460165D02*
X194048044Y-99160165D01*
X194048044Y-99160165D02*
X193933758Y-99160165D01*
X193933758Y-99160165D02*
X193905187Y-99174451D01*
X193905187Y-99174451D02*
X193890901Y-99188737D01*
X193890901Y-99188737D02*
X193876615Y-99217308D01*
X193876615Y-99217308D02*
X193876615Y-99260165D01*
X193876615Y-99260165D02*
X193890901Y-99288737D01*
X193890901Y-99288737D02*
X193905187Y-99303022D01*
X193905187Y-99303022D02*
X193933758Y-99317308D01*
X193933758Y-99317308D02*
X194048044Y-99317308D01*
X193819473Y-99488737D02*
X193590901Y-99488737D01*
X193376616Y-99460165D02*
X193519473Y-99460165D01*
X193519473Y-99460165D02*
X193519473Y-99160165D01*
X193276616Y-99460165D02*
X193276616Y-99160165D01*
X193276616Y-99160165D02*
X193105187Y-99460165D01*
X193105187Y-99460165D02*
X193105187Y-99160165D01*
X182233757Y-86760165D02*
X182376614Y-86760165D01*
X182376614Y-86760165D02*
X182376614Y-86460165D01*
X182205186Y-86788737D02*
X181976614Y-86788737D01*
X181890900Y-86760165D02*
X181833757Y-86760165D01*
X181833757Y-86760165D02*
X181805186Y-86745880D01*
X181805186Y-86745880D02*
X181790900Y-86731594D01*
X181790900Y-86731594D02*
X181762329Y-86688737D01*
X181762329Y-86688737D02*
X181748043Y-86631594D01*
X181748043Y-86631594D02*
X181748043Y-86517308D01*
X181748043Y-86517308D02*
X181762329Y-86488737D01*
X181762329Y-86488737D02*
X181776615Y-86474451D01*
X181776615Y-86474451D02*
X181805186Y-86460165D01*
X181805186Y-86460165D02*
X181862329Y-86460165D01*
X181862329Y-86460165D02*
X181890900Y-86474451D01*
X181890900Y-86474451D02*
X181905186Y-86488737D01*
X181905186Y-86488737D02*
X181919472Y-86517308D01*
X181919472Y-86517308D02*
X181919472Y-86588737D01*
X181919472Y-86588737D02*
X181905186Y-86617308D01*
X181905186Y-86617308D02*
X181890900Y-86631594D01*
X181890900Y-86631594D02*
X181862329Y-86645880D01*
X181862329Y-86645880D02*
X181805186Y-86645880D01*
X181805186Y-86645880D02*
X181776615Y-86631594D01*
X181776615Y-86631594D02*
X181762329Y-86617308D01*
X181762329Y-86617308D02*
X181748043Y-86588737D01*
X181562329Y-86460165D02*
X181533758Y-86460165D01*
X181533758Y-86460165D02*
X181505186Y-86474451D01*
X181505186Y-86474451D02*
X181490901Y-86488737D01*
X181490901Y-86488737D02*
X181476615Y-86517308D01*
X181476615Y-86517308D02*
X181462329Y-86574451D01*
X181462329Y-86574451D02*
X181462329Y-86645880D01*
X181462329Y-86645880D02*
X181476615Y-86703022D01*
X181476615Y-86703022D02*
X181490901Y-86731594D01*
X181490901Y-86731594D02*
X181505186Y-86745880D01*
X181505186Y-86745880D02*
X181533758Y-86760165D01*
X181533758Y-86760165D02*
X181562329Y-86760165D01*
X181562329Y-86760165D02*
X181590901Y-86745880D01*
X181590901Y-86745880D02*
X181605186Y-86731594D01*
X181605186Y-86731594D02*
X181619472Y-86703022D01*
X181619472Y-86703022D02*
X181633758Y-86645880D01*
X181633758Y-86645880D02*
X181633758Y-86574451D01*
X181633758Y-86574451D02*
X181619472Y-86517308D01*
X181619472Y-86517308D02*
X181605186Y-86488737D01*
X181605186Y-86488737D02*
X181590901Y-86474451D01*
X181590901Y-86474451D02*
X181562329Y-86460165D01*
X181405187Y-86788737D02*
X181176615Y-86788737D01*
X181105187Y-86760165D02*
X181105187Y-86460165D01*
X180790901Y-86760165D02*
X180890901Y-86617308D01*
X180962330Y-86760165D02*
X180962330Y-86460165D01*
X180962330Y-86460165D02*
X180848044Y-86460165D01*
X180848044Y-86460165D02*
X180819473Y-86474451D01*
X180819473Y-86474451D02*
X180805187Y-86488737D01*
X180805187Y-86488737D02*
X180790901Y-86517308D01*
X180790901Y-86517308D02*
X180790901Y-86560165D01*
X180790901Y-86560165D02*
X180805187Y-86588737D01*
X180805187Y-86588737D02*
X180819473Y-86603022D01*
X180819473Y-86603022D02*
X180848044Y-86617308D01*
X180848044Y-86617308D02*
X180962330Y-86617308D01*
X195848044Y-86603022D02*
X195805187Y-86617308D01*
X195805187Y-86617308D02*
X195790901Y-86631594D01*
X195790901Y-86631594D02*
X195776615Y-86660165D01*
X195776615Y-86660165D02*
X195776615Y-86703022D01*
X195776615Y-86703022D02*
X195790901Y-86731594D01*
X195790901Y-86731594D02*
X195805187Y-86745880D01*
X195805187Y-86745880D02*
X195833758Y-86760165D01*
X195833758Y-86760165D02*
X195948044Y-86760165D01*
X195948044Y-86760165D02*
X195948044Y-86460165D01*
X195948044Y-86460165D02*
X195848044Y-86460165D01*
X195848044Y-86460165D02*
X195819473Y-86474451D01*
X195819473Y-86474451D02*
X195805187Y-86488737D01*
X195805187Y-86488737D02*
X195790901Y-86517308D01*
X195790901Y-86517308D02*
X195790901Y-86545880D01*
X195790901Y-86545880D02*
X195805187Y-86574451D01*
X195805187Y-86574451D02*
X195819473Y-86588737D01*
X195819473Y-86588737D02*
X195848044Y-86603022D01*
X195848044Y-86603022D02*
X195948044Y-86603022D01*
X195719473Y-86788737D02*
X195490901Y-86788737D01*
X195276616Y-86760165D02*
X195419473Y-86760165D01*
X195419473Y-86760165D02*
X195419473Y-86460165D01*
X195176616Y-86760165D02*
X195176616Y-86460165D01*
X195176616Y-86460165D02*
X195005187Y-86760165D01*
X195005187Y-86760165D02*
X195005187Y-86460165D01*
X186162328Y-86760165D02*
X186262328Y-86617308D01*
X186333757Y-86760165D02*
X186333757Y-86460165D01*
X186333757Y-86460165D02*
X186219471Y-86460165D01*
X186219471Y-86460165D02*
X186190900Y-86474451D01*
X186190900Y-86474451D02*
X186176614Y-86488737D01*
X186176614Y-86488737D02*
X186162328Y-86517308D01*
X186162328Y-86517308D02*
X186162328Y-86560165D01*
X186162328Y-86560165D02*
X186176614Y-86588737D01*
X186176614Y-86588737D02*
X186190900Y-86603022D01*
X186190900Y-86603022D02*
X186219471Y-86617308D01*
X186219471Y-86617308D02*
X186333757Y-86617308D01*
X186105186Y-86788737D02*
X185876614Y-86788737D01*
X185790900Y-86760165D02*
X185733757Y-86760165D01*
X185733757Y-86760165D02*
X185705186Y-86745880D01*
X185705186Y-86745880D02*
X185690900Y-86731594D01*
X185690900Y-86731594D02*
X185662329Y-86688737D01*
X185662329Y-86688737D02*
X185648043Y-86631594D01*
X185648043Y-86631594D02*
X185648043Y-86517308D01*
X185648043Y-86517308D02*
X185662329Y-86488737D01*
X185662329Y-86488737D02*
X185676615Y-86474451D01*
X185676615Y-86474451D02*
X185705186Y-86460165D01*
X185705186Y-86460165D02*
X185762329Y-86460165D01*
X185762329Y-86460165D02*
X185790900Y-86474451D01*
X185790900Y-86474451D02*
X185805186Y-86488737D01*
X185805186Y-86488737D02*
X185819472Y-86517308D01*
X185819472Y-86517308D02*
X185819472Y-86588737D01*
X185819472Y-86588737D02*
X185805186Y-86617308D01*
X185805186Y-86617308D02*
X185790900Y-86631594D01*
X185790900Y-86631594D02*
X185762329Y-86645880D01*
X185762329Y-86645880D02*
X185705186Y-86645880D01*
X185705186Y-86645880D02*
X185676615Y-86631594D01*
X185676615Y-86631594D02*
X185662329Y-86617308D01*
X185662329Y-86617308D02*
X185648043Y-86588737D01*
X185462329Y-86460165D02*
X185433758Y-86460165D01*
X185433758Y-86460165D02*
X185405186Y-86474451D01*
X185405186Y-86474451D02*
X185390901Y-86488737D01*
X185390901Y-86488737D02*
X185376615Y-86517308D01*
X185376615Y-86517308D02*
X185362329Y-86574451D01*
X185362329Y-86574451D02*
X185362329Y-86645880D01*
X185362329Y-86645880D02*
X185376615Y-86703022D01*
X185376615Y-86703022D02*
X185390901Y-86731594D01*
X185390901Y-86731594D02*
X185405186Y-86745880D01*
X185405186Y-86745880D02*
X185433758Y-86760165D01*
X185433758Y-86760165D02*
X185462329Y-86760165D01*
X185462329Y-86760165D02*
X185490901Y-86745880D01*
X185490901Y-86745880D02*
X185505186Y-86731594D01*
X185505186Y-86731594D02*
X185519472Y-86703022D01*
X185519472Y-86703022D02*
X185533758Y-86645880D01*
X185533758Y-86645880D02*
X185533758Y-86574451D01*
X185533758Y-86574451D02*
X185519472Y-86517308D01*
X185519472Y-86517308D02*
X185505186Y-86488737D01*
X185505186Y-86488737D02*
X185490901Y-86474451D01*
X185490901Y-86474451D02*
X185462329Y-86460165D01*
X185305187Y-86788737D02*
X185076615Y-86788737D01*
X185005187Y-86760165D02*
X185005187Y-86460165D01*
X184690901Y-86760165D02*
X184790901Y-86617308D01*
X184862330Y-86760165D02*
X184862330Y-86460165D01*
X184862330Y-86460165D02*
X184748044Y-86460165D01*
X184748044Y-86460165D02*
X184719473Y-86474451D01*
X184719473Y-86474451D02*
X184705187Y-86488737D01*
X184705187Y-86488737D02*
X184690901Y-86517308D01*
X184690901Y-86517308D02*
X184690901Y-86560165D01*
X184690901Y-86560165D02*
X184705187Y-86588737D01*
X184705187Y-86588737D02*
X184719473Y-86603022D01*
X184719473Y-86603022D02*
X184748044Y-86617308D01*
X184748044Y-86617308D02*
X184862330Y-86617308D01*
X191848044Y-86760165D02*
X191990901Y-86760165D01*
X191990901Y-86760165D02*
X191990901Y-86460165D01*
X191819473Y-86788737D02*
X191590901Y-86788737D01*
X191376616Y-86760165D02*
X191519473Y-86760165D01*
X191519473Y-86760165D02*
X191519473Y-86460165D01*
X191276616Y-86760165D02*
X191276616Y-86460165D01*
X191276616Y-86460165D02*
X191105187Y-86760165D01*
X191105187Y-86760165D02*
X191105187Y-86460165D01*
X182233757Y-99460165D02*
X182376614Y-99460165D01*
X182376614Y-99460165D02*
X182376614Y-99160165D01*
X182205186Y-99488737D02*
X181976614Y-99488737D01*
X181890900Y-99460165D02*
X181833757Y-99460165D01*
X181833757Y-99460165D02*
X181805186Y-99445880D01*
X181805186Y-99445880D02*
X181790900Y-99431594D01*
X181790900Y-99431594D02*
X181762329Y-99388737D01*
X181762329Y-99388737D02*
X181748043Y-99331594D01*
X181748043Y-99331594D02*
X181748043Y-99217308D01*
X181748043Y-99217308D02*
X181762329Y-99188737D01*
X181762329Y-99188737D02*
X181776615Y-99174451D01*
X181776615Y-99174451D02*
X181805186Y-99160165D01*
X181805186Y-99160165D02*
X181862329Y-99160165D01*
X181862329Y-99160165D02*
X181890900Y-99174451D01*
X181890900Y-99174451D02*
X181905186Y-99188737D01*
X181905186Y-99188737D02*
X181919472Y-99217308D01*
X181919472Y-99217308D02*
X181919472Y-99288737D01*
X181919472Y-99288737D02*
X181905186Y-99317308D01*
X181905186Y-99317308D02*
X181890900Y-99331594D01*
X181890900Y-99331594D02*
X181862329Y-99345880D01*
X181862329Y-99345880D02*
X181805186Y-99345880D01*
X181805186Y-99345880D02*
X181776615Y-99331594D01*
X181776615Y-99331594D02*
X181762329Y-99317308D01*
X181762329Y-99317308D02*
X181748043Y-99288737D01*
X181562329Y-99160165D02*
X181533758Y-99160165D01*
X181533758Y-99160165D02*
X181505186Y-99174451D01*
X181505186Y-99174451D02*
X181490901Y-99188737D01*
X181490901Y-99188737D02*
X181476615Y-99217308D01*
X181476615Y-99217308D02*
X181462329Y-99274451D01*
X181462329Y-99274451D02*
X181462329Y-99345880D01*
X181462329Y-99345880D02*
X181476615Y-99403022D01*
X181476615Y-99403022D02*
X181490901Y-99431594D01*
X181490901Y-99431594D02*
X181505186Y-99445880D01*
X181505186Y-99445880D02*
X181533758Y-99460165D01*
X181533758Y-99460165D02*
X181562329Y-99460165D01*
X181562329Y-99460165D02*
X181590901Y-99445880D01*
X181590901Y-99445880D02*
X181605186Y-99431594D01*
X181605186Y-99431594D02*
X181619472Y-99403022D01*
X181619472Y-99403022D02*
X181633758Y-99345880D01*
X181633758Y-99345880D02*
X181633758Y-99274451D01*
X181633758Y-99274451D02*
X181619472Y-99217308D01*
X181619472Y-99217308D02*
X181605186Y-99188737D01*
X181605186Y-99188737D02*
X181590901Y-99174451D01*
X181590901Y-99174451D02*
X181562329Y-99160165D01*
X181405187Y-99488737D02*
X181176615Y-99488737D01*
X181105187Y-99460165D02*
X181105187Y-99160165D01*
X180790901Y-99460165D02*
X180890901Y-99317308D01*
X180962330Y-99460165D02*
X180962330Y-99160165D01*
X180962330Y-99160165D02*
X180848044Y-99160165D01*
X180848044Y-99160165D02*
X180819473Y-99174451D01*
X180819473Y-99174451D02*
X180805187Y-99188737D01*
X180805187Y-99188737D02*
X180790901Y-99217308D01*
X180790901Y-99217308D02*
X180790901Y-99260165D01*
X180790901Y-99260165D02*
X180805187Y-99288737D01*
X180805187Y-99288737D02*
X180819473Y-99303022D01*
X180819473Y-99303022D02*
X180848044Y-99317308D01*
X180848044Y-99317308D02*
X180962330Y-99317308D01*
X186282329Y-95260165D02*
X186282329Y-94960165D01*
X185968043Y-95260165D02*
X186068043Y-95117308D01*
X186139472Y-95260165D02*
X186139472Y-94960165D01*
X186139472Y-94960165D02*
X186025186Y-94960165D01*
X186025186Y-94960165D02*
X185996615Y-94974451D01*
X185996615Y-94974451D02*
X185982329Y-94988737D01*
X185982329Y-94988737D02*
X185968043Y-95017308D01*
X185968043Y-95017308D02*
X185968043Y-95060165D01*
X185968043Y-95060165D02*
X185982329Y-95088737D01*
X185982329Y-95088737D02*
X185996615Y-95103022D01*
X185996615Y-95103022D02*
X186025186Y-95117308D01*
X186025186Y-95117308D02*
X186139472Y-95117308D01*
X185910901Y-95288737D02*
X185682329Y-95288737D01*
X185610901Y-95260165D02*
X185610901Y-94960165D01*
X185610901Y-94960165D02*
X185496615Y-94960165D01*
X185496615Y-94960165D02*
X185468044Y-94974451D01*
X185468044Y-94974451D02*
X185453758Y-94988737D01*
X185453758Y-94988737D02*
X185439472Y-95017308D01*
X185439472Y-95017308D02*
X185439472Y-95060165D01*
X185439472Y-95060165D02*
X185453758Y-95088737D01*
X185453758Y-95088737D02*
X185468044Y-95103022D01*
X185468044Y-95103022D02*
X185496615Y-95117308D01*
X185496615Y-95117308D02*
X185610901Y-95117308D01*
X185339472Y-94960165D02*
X185268044Y-95260165D01*
X185268044Y-95260165D02*
X185210901Y-95045880D01*
X185210901Y-95045880D02*
X185153758Y-95260165D01*
X185153758Y-95260165D02*
X185082330Y-94960165D01*
X184796615Y-95260165D02*
X184896615Y-95117308D01*
X184968044Y-95260165D02*
X184968044Y-94960165D01*
X184968044Y-94960165D02*
X184853758Y-94960165D01*
X184853758Y-94960165D02*
X184825187Y-94974451D01*
X184825187Y-94974451D02*
X184810901Y-94988737D01*
X184810901Y-94988737D02*
X184796615Y-95017308D01*
X184796615Y-95017308D02*
X184796615Y-95060165D01*
X184796615Y-95060165D02*
X184810901Y-95088737D01*
X184810901Y-95088737D02*
X184825187Y-95103022D01*
X184825187Y-95103022D02*
X184853758Y-95117308D01*
X184853758Y-95117308D02*
X184968044Y-95117308D01*
X193768044Y-92360165D02*
X193910901Y-92360165D01*
X193910901Y-92360165D02*
X193910901Y-92060165D01*
X193739473Y-92388737D02*
X193510901Y-92388737D01*
X193439473Y-92245880D02*
X193210902Y-92245880D01*
X184133757Y-99460165D02*
X184276614Y-99460165D01*
X184276614Y-99460165D02*
X184276614Y-99160165D01*
X184105186Y-99488737D02*
X183876614Y-99488737D01*
X183662329Y-99160165D02*
X183805186Y-99160165D01*
X183805186Y-99160165D02*
X183819472Y-99303022D01*
X183819472Y-99303022D02*
X183805186Y-99288737D01*
X183805186Y-99288737D02*
X183776615Y-99274451D01*
X183776615Y-99274451D02*
X183705186Y-99274451D01*
X183705186Y-99274451D02*
X183676615Y-99288737D01*
X183676615Y-99288737D02*
X183662329Y-99303022D01*
X183662329Y-99303022D02*
X183648043Y-99331594D01*
X183648043Y-99331594D02*
X183648043Y-99403022D01*
X183648043Y-99403022D02*
X183662329Y-99431594D01*
X183662329Y-99431594D02*
X183676615Y-99445880D01*
X183676615Y-99445880D02*
X183705186Y-99460165D01*
X183705186Y-99460165D02*
X183776615Y-99460165D01*
X183776615Y-99460165D02*
X183805186Y-99445880D01*
X183805186Y-99445880D02*
X183819472Y-99431594D01*
X183462329Y-99160165D02*
X183433758Y-99160165D01*
X183433758Y-99160165D02*
X183405186Y-99174451D01*
X183405186Y-99174451D02*
X183390901Y-99188737D01*
X183390901Y-99188737D02*
X183376615Y-99217308D01*
X183376615Y-99217308D02*
X183362329Y-99274451D01*
X183362329Y-99274451D02*
X183362329Y-99345880D01*
X183362329Y-99345880D02*
X183376615Y-99403022D01*
X183376615Y-99403022D02*
X183390901Y-99431594D01*
X183390901Y-99431594D02*
X183405186Y-99445880D01*
X183405186Y-99445880D02*
X183433758Y-99460165D01*
X183433758Y-99460165D02*
X183462329Y-99460165D01*
X183462329Y-99460165D02*
X183490901Y-99445880D01*
X183490901Y-99445880D02*
X183505186Y-99431594D01*
X183505186Y-99431594D02*
X183519472Y-99403022D01*
X183519472Y-99403022D02*
X183533758Y-99345880D01*
X183533758Y-99345880D02*
X183533758Y-99274451D01*
X183533758Y-99274451D02*
X183519472Y-99217308D01*
X183519472Y-99217308D02*
X183505186Y-99188737D01*
X183505186Y-99188737D02*
X183490901Y-99174451D01*
X183490901Y-99174451D02*
X183462329Y-99160165D01*
X183305187Y-99488737D02*
X183076615Y-99488737D01*
X183005187Y-99460165D02*
X183005187Y-99160165D01*
X182690901Y-99460165D02*
X182790901Y-99317308D01*
X182862330Y-99460165D02*
X182862330Y-99160165D01*
X182862330Y-99160165D02*
X182748044Y-99160165D01*
X182748044Y-99160165D02*
X182719473Y-99174451D01*
X182719473Y-99174451D02*
X182705187Y-99188737D01*
X182705187Y-99188737D02*
X182690901Y-99217308D01*
X182690901Y-99217308D02*
X182690901Y-99260165D01*
X182690901Y-99260165D02*
X182705187Y-99288737D01*
X182705187Y-99288737D02*
X182719473Y-99303022D01*
X182719473Y-99303022D02*
X182748044Y-99317308D01*
X182748044Y-99317308D02*
X182862330Y-99317308D01*
X181968044Y-95145880D02*
X181739473Y-95145880D01*
X181853758Y-95260165D02*
X181853758Y-95031594D01*
X181439472Y-95260165D02*
X181610901Y-95260165D01*
X181525186Y-95260165D02*
X181525186Y-94960165D01*
X181525186Y-94960165D02*
X181553758Y-95003022D01*
X181553758Y-95003022D02*
X181582329Y-95031594D01*
X181582329Y-95031594D02*
X181610901Y-95045880D01*
X181325187Y-94988737D02*
X181310901Y-94974451D01*
X181310901Y-94974451D02*
X181282330Y-94960165D01*
X181282330Y-94960165D02*
X181210901Y-94960165D01*
X181210901Y-94960165D02*
X181182330Y-94974451D01*
X181182330Y-94974451D02*
X181168044Y-94988737D01*
X181168044Y-94988737D02*
X181153758Y-95017308D01*
X181153758Y-95017308D02*
X181153758Y-95045880D01*
X181153758Y-95045880D02*
X181168044Y-95088737D01*
X181168044Y-95088737D02*
X181339472Y-95260165D01*
X181339472Y-95260165D02*
X181153758Y-95260165D01*
X181068044Y-94960165D02*
X180968044Y-95260165D01*
X180968044Y-95260165D02*
X180868044Y-94960165D01*
X195848044Y-99303022D02*
X195805187Y-99317308D01*
X195805187Y-99317308D02*
X195790901Y-99331594D01*
X195790901Y-99331594D02*
X195776615Y-99360165D01*
X195776615Y-99360165D02*
X195776615Y-99403022D01*
X195776615Y-99403022D02*
X195790901Y-99431594D01*
X195790901Y-99431594D02*
X195805187Y-99445880D01*
X195805187Y-99445880D02*
X195833758Y-99460165D01*
X195833758Y-99460165D02*
X195948044Y-99460165D01*
X195948044Y-99460165D02*
X195948044Y-99160165D01*
X195948044Y-99160165D02*
X195848044Y-99160165D01*
X195848044Y-99160165D02*
X195819473Y-99174451D01*
X195819473Y-99174451D02*
X195805187Y-99188737D01*
X195805187Y-99188737D02*
X195790901Y-99217308D01*
X195790901Y-99217308D02*
X195790901Y-99245880D01*
X195790901Y-99245880D02*
X195805187Y-99274451D01*
X195805187Y-99274451D02*
X195819473Y-99288737D01*
X195819473Y-99288737D02*
X195848044Y-99303022D01*
X195848044Y-99303022D02*
X195948044Y-99303022D01*
X195719473Y-99488737D02*
X195490901Y-99488737D01*
X195276616Y-99460165D02*
X195419473Y-99460165D01*
X195419473Y-99460165D02*
X195419473Y-99160165D01*
X195176616Y-99460165D02*
X195176616Y-99160165D01*
X195176616Y-99160165D02*
X195005187Y-99460165D01*
X195005187Y-99460165D02*
X195005187Y-99160165D01*
X193876615Y-86760165D02*
X193976615Y-86617308D01*
X194048044Y-86760165D02*
X194048044Y-86460165D01*
X194048044Y-86460165D02*
X193933758Y-86460165D01*
X193933758Y-86460165D02*
X193905187Y-86474451D01*
X193905187Y-86474451D02*
X193890901Y-86488737D01*
X193890901Y-86488737D02*
X193876615Y-86517308D01*
X193876615Y-86517308D02*
X193876615Y-86560165D01*
X193876615Y-86560165D02*
X193890901Y-86588737D01*
X193890901Y-86588737D02*
X193905187Y-86603022D01*
X193905187Y-86603022D02*
X193933758Y-86617308D01*
X193933758Y-86617308D02*
X194048044Y-86617308D01*
X193819473Y-86788737D02*
X193590901Y-86788737D01*
X193376616Y-86760165D02*
X193519473Y-86760165D01*
X193519473Y-86760165D02*
X193519473Y-86460165D01*
X193276616Y-86760165D02*
X193276616Y-86460165D01*
X193276616Y-86460165D02*
X193105187Y-86760165D01*
X193105187Y-86760165D02*
X193105187Y-86460165D01*
X188010901Y-95245880D02*
X187968044Y-95260165D01*
X187968044Y-95260165D02*
X187896615Y-95260165D01*
X187896615Y-95260165D02*
X187868044Y-95245880D01*
X187868044Y-95245880D02*
X187853758Y-95231594D01*
X187853758Y-95231594D02*
X187839472Y-95203022D01*
X187839472Y-95203022D02*
X187839472Y-95174451D01*
X187839472Y-95174451D02*
X187853758Y-95145880D01*
X187853758Y-95145880D02*
X187868044Y-95131594D01*
X187868044Y-95131594D02*
X187896615Y-95117308D01*
X187896615Y-95117308D02*
X187953758Y-95103022D01*
X187953758Y-95103022D02*
X187982329Y-95088737D01*
X187982329Y-95088737D02*
X187996615Y-95074451D01*
X187996615Y-95074451D02*
X188010901Y-95045880D01*
X188010901Y-95045880D02*
X188010901Y-95017308D01*
X188010901Y-95017308D02*
X187996615Y-94988737D01*
X187996615Y-94988737D02*
X187982329Y-94974451D01*
X187982329Y-94974451D02*
X187953758Y-94960165D01*
X187953758Y-94960165D02*
X187882329Y-94960165D01*
X187882329Y-94960165D02*
X187839472Y-94974451D01*
X187596615Y-95245880D02*
X187625187Y-95260165D01*
X187625187Y-95260165D02*
X187682330Y-95260165D01*
X187682330Y-95260165D02*
X187710901Y-95245880D01*
X187710901Y-95245880D02*
X187725187Y-95217308D01*
X187725187Y-95217308D02*
X187725187Y-95103022D01*
X187725187Y-95103022D02*
X187710901Y-95074451D01*
X187710901Y-95074451D02*
X187682330Y-95060165D01*
X187682330Y-95060165D02*
X187625187Y-95060165D01*
X187625187Y-95060165D02*
X187596615Y-95074451D01*
X187596615Y-95074451D02*
X187582330Y-95103022D01*
X187582330Y-95103022D02*
X187582330Y-95131594D01*
X187582330Y-95131594D02*
X187725187Y-95160165D01*
X187453758Y-95260165D02*
X187453758Y-95060165D01*
X187453758Y-95117308D02*
X187439472Y-95088737D01*
X187439472Y-95088737D02*
X187425187Y-95074451D01*
X187425187Y-95074451D02*
X187396615Y-95060165D01*
X187396615Y-95060165D02*
X187368044Y-95060165D01*
X187296615Y-95060165D02*
X187225187Y-95260165D01*
X187225187Y-95260165D02*
X187153758Y-95060165D01*
X186996616Y-95260165D02*
X187025187Y-95245880D01*
X187025187Y-95245880D02*
X187039473Y-95231594D01*
X187039473Y-95231594D02*
X187053759Y-95203022D01*
X187053759Y-95203022D02*
X187053759Y-95117308D01*
X187053759Y-95117308D02*
X187039473Y-95088737D01*
X187039473Y-95088737D02*
X187025187Y-95074451D01*
X187025187Y-95074451D02*
X186996616Y-95060165D01*
X186996616Y-95060165D02*
X186953759Y-95060165D01*
X186953759Y-95060165D02*
X186925187Y-95074451D01*
X186925187Y-95074451D02*
X186910902Y-95088737D01*
X186910902Y-95088737D02*
X186896616Y-95117308D01*
X186896616Y-95117308D02*
X186896616Y-95203022D01*
X186896616Y-95203022D02*
X186910902Y-95231594D01*
X186910902Y-95231594D02*
X186925187Y-95245880D01*
X186925187Y-95245880D02*
X186953759Y-95260165D01*
X186953759Y-95260165D02*
X186996616Y-95260165D01*
X195768044Y-92360165D02*
X195910901Y-92360165D01*
X195910901Y-92360165D02*
X195910901Y-92060165D01*
X195739473Y-92388737D02*
X195510901Y-92388737D01*
X195439473Y-92245880D02*
X195210902Y-92245880D01*
X195325187Y-92360165D02*
X195325187Y-92131594D01*
X183725187Y-94974451D02*
X183753759Y-94960165D01*
X183753759Y-94960165D02*
X183796616Y-94960165D01*
X183796616Y-94960165D02*
X183839473Y-94974451D01*
X183839473Y-94974451D02*
X183868044Y-95003022D01*
X183868044Y-95003022D02*
X183882330Y-95031594D01*
X183882330Y-95031594D02*
X183896616Y-95088737D01*
X183896616Y-95088737D02*
X183896616Y-95131594D01*
X183896616Y-95131594D02*
X183882330Y-95188737D01*
X183882330Y-95188737D02*
X183868044Y-95217308D01*
X183868044Y-95217308D02*
X183839473Y-95245880D01*
X183839473Y-95245880D02*
X183796616Y-95260165D01*
X183796616Y-95260165D02*
X183768044Y-95260165D01*
X183768044Y-95260165D02*
X183725187Y-95245880D01*
X183725187Y-95245880D02*
X183710901Y-95231594D01*
X183710901Y-95231594D02*
X183710901Y-95131594D01*
X183710901Y-95131594D02*
X183768044Y-95131594D01*
X183582330Y-95260165D02*
X183582330Y-94960165D01*
X183582330Y-94960165D02*
X183410901Y-95260165D01*
X183410901Y-95260165D02*
X183410901Y-94960165D01*
X183268044Y-95260165D02*
X183268044Y-94960165D01*
X183268044Y-94960165D02*
X183196615Y-94960165D01*
X183196615Y-94960165D02*
X183153758Y-94974451D01*
X183153758Y-94974451D02*
X183125187Y-95003022D01*
X183125187Y-95003022D02*
X183110901Y-95031594D01*
X183110901Y-95031594D02*
X183096615Y-95088737D01*
X183096615Y-95088737D02*
X183096615Y-95131594D01*
X183096615Y-95131594D02*
X183110901Y-95188737D01*
X183110901Y-95188737D02*
X183125187Y-95217308D01*
X183125187Y-95217308D02*
X183153758Y-95245880D01*
X183153758Y-95245880D02*
X183196615Y-95260165D01*
X183196615Y-95260165D02*
X183268044Y-95260165D01*
X181968044Y-92245880D02*
X181739473Y-92245880D01*
X181853758Y-92360165D02*
X181853758Y-92131594D01*
X181439472Y-92360165D02*
X181610901Y-92360165D01*
X181525186Y-92360165D02*
X181525186Y-92060165D01*
X181525186Y-92060165D02*
X181553758Y-92103022D01*
X181553758Y-92103022D02*
X181582329Y-92131594D01*
X181582329Y-92131594D02*
X181610901Y-92145880D01*
X181325187Y-92088737D02*
X181310901Y-92074451D01*
X181310901Y-92074451D02*
X181282330Y-92060165D01*
X181282330Y-92060165D02*
X181210901Y-92060165D01*
X181210901Y-92060165D02*
X181182330Y-92074451D01*
X181182330Y-92074451D02*
X181168044Y-92088737D01*
X181168044Y-92088737D02*
X181153758Y-92117308D01*
X181153758Y-92117308D02*
X181153758Y-92145880D01*
X181153758Y-92145880D02*
X181168044Y-92188737D01*
X181168044Y-92188737D02*
X181339472Y-92360165D01*
X181339472Y-92360165D02*
X181153758Y-92360165D01*
X181068044Y-92060165D02*
X180968044Y-92360165D01*
X180968044Y-92360165D02*
X180868044Y-92060165D01*
X188010901Y-92345880D02*
X187968044Y-92360165D01*
X187968044Y-92360165D02*
X187896615Y-92360165D01*
X187896615Y-92360165D02*
X187868044Y-92345880D01*
X187868044Y-92345880D02*
X187853758Y-92331594D01*
X187853758Y-92331594D02*
X187839472Y-92303022D01*
X187839472Y-92303022D02*
X187839472Y-92274451D01*
X187839472Y-92274451D02*
X187853758Y-92245880D01*
X187853758Y-92245880D02*
X187868044Y-92231594D01*
X187868044Y-92231594D02*
X187896615Y-92217308D01*
X187896615Y-92217308D02*
X187953758Y-92203022D01*
X187953758Y-92203022D02*
X187982329Y-92188737D01*
X187982329Y-92188737D02*
X187996615Y-92174451D01*
X187996615Y-92174451D02*
X188010901Y-92145880D01*
X188010901Y-92145880D02*
X188010901Y-92117308D01*
X188010901Y-92117308D02*
X187996615Y-92088737D01*
X187996615Y-92088737D02*
X187982329Y-92074451D01*
X187982329Y-92074451D02*
X187953758Y-92060165D01*
X187953758Y-92060165D02*
X187882329Y-92060165D01*
X187882329Y-92060165D02*
X187839472Y-92074451D01*
X187596615Y-92345880D02*
X187625187Y-92360165D01*
X187625187Y-92360165D02*
X187682330Y-92360165D01*
X187682330Y-92360165D02*
X187710901Y-92345880D01*
X187710901Y-92345880D02*
X187725187Y-92317308D01*
X187725187Y-92317308D02*
X187725187Y-92203022D01*
X187725187Y-92203022D02*
X187710901Y-92174451D01*
X187710901Y-92174451D02*
X187682330Y-92160165D01*
X187682330Y-92160165D02*
X187625187Y-92160165D01*
X187625187Y-92160165D02*
X187596615Y-92174451D01*
X187596615Y-92174451D02*
X187582330Y-92203022D01*
X187582330Y-92203022D02*
X187582330Y-92231594D01*
X187582330Y-92231594D02*
X187725187Y-92260165D01*
X187453758Y-92360165D02*
X187453758Y-92160165D01*
X187453758Y-92217308D02*
X187439472Y-92188737D01*
X187439472Y-92188737D02*
X187425187Y-92174451D01*
X187425187Y-92174451D02*
X187396615Y-92160165D01*
X187396615Y-92160165D02*
X187368044Y-92160165D01*
X187296615Y-92160165D02*
X187225187Y-92360165D01*
X187225187Y-92360165D02*
X187153758Y-92160165D01*
X186996616Y-92360165D02*
X187025187Y-92345880D01*
X187025187Y-92345880D02*
X187039473Y-92331594D01*
X187039473Y-92331594D02*
X187053759Y-92303022D01*
X187053759Y-92303022D02*
X187053759Y-92217308D01*
X187053759Y-92217308D02*
X187039473Y-92188737D01*
X187039473Y-92188737D02*
X187025187Y-92174451D01*
X187025187Y-92174451D02*
X186996616Y-92160165D01*
X186996616Y-92160165D02*
X186953759Y-92160165D01*
X186953759Y-92160165D02*
X186925187Y-92174451D01*
X186925187Y-92174451D02*
X186910902Y-92188737D01*
X186910902Y-92188737D02*
X186896616Y-92217308D01*
X186896616Y-92217308D02*
X186896616Y-92303022D01*
X186896616Y-92303022D02*
X186910902Y-92331594D01*
X186910902Y-92331594D02*
X186925187Y-92345880D01*
X186925187Y-92345880D02*
X186953759Y-92360165D01*
X186953759Y-92360165D02*
X186996616Y-92360165D01*
X187976615Y-86760165D02*
X187976615Y-86460165D01*
X187976615Y-86460165D02*
X187876615Y-86674451D01*
X187876615Y-86674451D02*
X187776615Y-86460165D01*
X187776615Y-86460165D02*
X187776615Y-86760165D01*
X187705187Y-86788737D02*
X187476615Y-86788737D01*
X187405187Y-86760165D02*
X187405187Y-86460165D01*
X187090901Y-86760165D02*
X187190901Y-86617308D01*
X187262330Y-86760165D02*
X187262330Y-86460165D01*
X187262330Y-86460165D02*
X187148044Y-86460165D01*
X187148044Y-86460165D02*
X187119473Y-86474451D01*
X187119473Y-86474451D02*
X187105187Y-86488737D01*
X187105187Y-86488737D02*
X187090901Y-86517308D01*
X187090901Y-86517308D02*
X187090901Y-86560165D01*
X187090901Y-86560165D02*
X187105187Y-86588737D01*
X187105187Y-86588737D02*
X187119473Y-86603022D01*
X187119473Y-86603022D02*
X187148044Y-86617308D01*
X187148044Y-86617308D02*
X187262330Y-86617308D01*
X183725187Y-92074451D02*
X183753759Y-92060165D01*
X183753759Y-92060165D02*
X183796616Y-92060165D01*
X183796616Y-92060165D02*
X183839473Y-92074451D01*
X183839473Y-92074451D02*
X183868044Y-92103022D01*
X183868044Y-92103022D02*
X183882330Y-92131594D01*
X183882330Y-92131594D02*
X183896616Y-92188737D01*
X183896616Y-92188737D02*
X183896616Y-92231594D01*
X183896616Y-92231594D02*
X183882330Y-92288737D01*
X183882330Y-92288737D02*
X183868044Y-92317308D01*
X183868044Y-92317308D02*
X183839473Y-92345880D01*
X183839473Y-92345880D02*
X183796616Y-92360165D01*
X183796616Y-92360165D02*
X183768044Y-92360165D01*
X183768044Y-92360165D02*
X183725187Y-92345880D01*
X183725187Y-92345880D02*
X183710901Y-92331594D01*
X183710901Y-92331594D02*
X183710901Y-92231594D01*
X183710901Y-92231594D02*
X183768044Y-92231594D01*
X183582330Y-92360165D02*
X183582330Y-92060165D01*
X183582330Y-92060165D02*
X183410901Y-92360165D01*
X183410901Y-92360165D02*
X183410901Y-92060165D01*
X183268044Y-92360165D02*
X183268044Y-92060165D01*
X183268044Y-92060165D02*
X183196615Y-92060165D01*
X183196615Y-92060165D02*
X183153758Y-92074451D01*
X183153758Y-92074451D02*
X183125187Y-92103022D01*
X183125187Y-92103022D02*
X183110901Y-92131594D01*
X183110901Y-92131594D02*
X183096615Y-92188737D01*
X183096615Y-92188737D02*
X183096615Y-92231594D01*
X183096615Y-92231594D02*
X183110901Y-92288737D01*
X183110901Y-92288737D02*
X183125187Y-92317308D01*
X183125187Y-92317308D02*
X183153758Y-92345880D01*
X183153758Y-92345880D02*
X183196615Y-92360165D01*
X183196615Y-92360165D02*
X183268044Y-92360165D01*
X190162328Y-86760165D02*
X190262328Y-86617308D01*
X190333757Y-86760165D02*
X190333757Y-86460165D01*
X190333757Y-86460165D02*
X190219471Y-86460165D01*
X190219471Y-86460165D02*
X190190900Y-86474451D01*
X190190900Y-86474451D02*
X190176614Y-86488737D01*
X190176614Y-86488737D02*
X190162328Y-86517308D01*
X190162328Y-86517308D02*
X190162328Y-86560165D01*
X190162328Y-86560165D02*
X190176614Y-86588737D01*
X190176614Y-86588737D02*
X190190900Y-86603022D01*
X190190900Y-86603022D02*
X190219471Y-86617308D01*
X190219471Y-86617308D02*
X190333757Y-86617308D01*
X190105186Y-86788737D02*
X189876614Y-86788737D01*
X189662329Y-86460165D02*
X189805186Y-86460165D01*
X189805186Y-86460165D02*
X189819472Y-86603022D01*
X189819472Y-86603022D02*
X189805186Y-86588737D01*
X189805186Y-86588737D02*
X189776615Y-86574451D01*
X189776615Y-86574451D02*
X189705186Y-86574451D01*
X189705186Y-86574451D02*
X189676615Y-86588737D01*
X189676615Y-86588737D02*
X189662329Y-86603022D01*
X189662329Y-86603022D02*
X189648043Y-86631594D01*
X189648043Y-86631594D02*
X189648043Y-86703022D01*
X189648043Y-86703022D02*
X189662329Y-86731594D01*
X189662329Y-86731594D02*
X189676615Y-86745880D01*
X189676615Y-86745880D02*
X189705186Y-86760165D01*
X189705186Y-86760165D02*
X189776615Y-86760165D01*
X189776615Y-86760165D02*
X189805186Y-86745880D01*
X189805186Y-86745880D02*
X189819472Y-86731594D01*
X189462329Y-86460165D02*
X189433758Y-86460165D01*
X189433758Y-86460165D02*
X189405186Y-86474451D01*
X189405186Y-86474451D02*
X189390901Y-86488737D01*
X189390901Y-86488737D02*
X189376615Y-86517308D01*
X189376615Y-86517308D02*
X189362329Y-86574451D01*
X189362329Y-86574451D02*
X189362329Y-86645880D01*
X189362329Y-86645880D02*
X189376615Y-86703022D01*
X189376615Y-86703022D02*
X189390901Y-86731594D01*
X189390901Y-86731594D02*
X189405186Y-86745880D01*
X189405186Y-86745880D02*
X189433758Y-86760165D01*
X189433758Y-86760165D02*
X189462329Y-86760165D01*
X189462329Y-86760165D02*
X189490901Y-86745880D01*
X189490901Y-86745880D02*
X189505186Y-86731594D01*
X189505186Y-86731594D02*
X189519472Y-86703022D01*
X189519472Y-86703022D02*
X189533758Y-86645880D01*
X189533758Y-86645880D02*
X189533758Y-86574451D01*
X189533758Y-86574451D02*
X189519472Y-86517308D01*
X189519472Y-86517308D02*
X189505186Y-86488737D01*
X189505186Y-86488737D02*
X189490901Y-86474451D01*
X189490901Y-86474451D02*
X189462329Y-86460165D01*
X189305187Y-86788737D02*
X189076615Y-86788737D01*
X189005187Y-86760165D02*
X189005187Y-86460165D01*
X188690901Y-86760165D02*
X188790901Y-86617308D01*
X188862330Y-86760165D02*
X188862330Y-86460165D01*
X188862330Y-86460165D02*
X188748044Y-86460165D01*
X188748044Y-86460165D02*
X188719473Y-86474451D01*
X188719473Y-86474451D02*
X188705187Y-86488737D01*
X188705187Y-86488737D02*
X188690901Y-86517308D01*
X188690901Y-86517308D02*
X188690901Y-86560165D01*
X188690901Y-86560165D02*
X188705187Y-86588737D01*
X188705187Y-86588737D02*
X188719473Y-86603022D01*
X188719473Y-86603022D02*
X188748044Y-86617308D01*
X188748044Y-86617308D02*
X188862330Y-86617308D01*
X186162328Y-99460165D02*
X186262328Y-99317308D01*
X186333757Y-99460165D02*
X186333757Y-99160165D01*
X186333757Y-99160165D02*
X186219471Y-99160165D01*
X186219471Y-99160165D02*
X186190900Y-99174451D01*
X186190900Y-99174451D02*
X186176614Y-99188737D01*
X186176614Y-99188737D02*
X186162328Y-99217308D01*
X186162328Y-99217308D02*
X186162328Y-99260165D01*
X186162328Y-99260165D02*
X186176614Y-99288737D01*
X186176614Y-99288737D02*
X186190900Y-99303022D01*
X186190900Y-99303022D02*
X186219471Y-99317308D01*
X186219471Y-99317308D02*
X186333757Y-99317308D01*
X186105186Y-99488737D02*
X185876614Y-99488737D01*
X185790900Y-99460165D02*
X185733757Y-99460165D01*
X185733757Y-99460165D02*
X185705186Y-99445880D01*
X185705186Y-99445880D02*
X185690900Y-99431594D01*
X185690900Y-99431594D02*
X185662329Y-99388737D01*
X185662329Y-99388737D02*
X185648043Y-99331594D01*
X185648043Y-99331594D02*
X185648043Y-99217308D01*
X185648043Y-99217308D02*
X185662329Y-99188737D01*
X185662329Y-99188737D02*
X185676615Y-99174451D01*
X185676615Y-99174451D02*
X185705186Y-99160165D01*
X185705186Y-99160165D02*
X185762329Y-99160165D01*
X185762329Y-99160165D02*
X185790900Y-99174451D01*
X185790900Y-99174451D02*
X185805186Y-99188737D01*
X185805186Y-99188737D02*
X185819472Y-99217308D01*
X185819472Y-99217308D02*
X185819472Y-99288737D01*
X185819472Y-99288737D02*
X185805186Y-99317308D01*
X185805186Y-99317308D02*
X185790900Y-99331594D01*
X185790900Y-99331594D02*
X185762329Y-99345880D01*
X185762329Y-99345880D02*
X185705186Y-99345880D01*
X185705186Y-99345880D02*
X185676615Y-99331594D01*
X185676615Y-99331594D02*
X185662329Y-99317308D01*
X185662329Y-99317308D02*
X185648043Y-99288737D01*
X185462329Y-99160165D02*
X185433758Y-99160165D01*
X185433758Y-99160165D02*
X185405186Y-99174451D01*
X185405186Y-99174451D02*
X185390901Y-99188737D01*
X185390901Y-99188737D02*
X185376615Y-99217308D01*
X185376615Y-99217308D02*
X185362329Y-99274451D01*
X185362329Y-99274451D02*
X185362329Y-99345880D01*
X185362329Y-99345880D02*
X185376615Y-99403022D01*
X185376615Y-99403022D02*
X185390901Y-99431594D01*
X185390901Y-99431594D02*
X185405186Y-99445880D01*
X185405186Y-99445880D02*
X185433758Y-99460165D01*
X185433758Y-99460165D02*
X185462329Y-99460165D01*
X185462329Y-99460165D02*
X185490901Y-99445880D01*
X185490901Y-99445880D02*
X185505186Y-99431594D01*
X185505186Y-99431594D02*
X185519472Y-99403022D01*
X185519472Y-99403022D02*
X185533758Y-99345880D01*
X185533758Y-99345880D02*
X185533758Y-99274451D01*
X185533758Y-99274451D02*
X185519472Y-99217308D01*
X185519472Y-99217308D02*
X185505186Y-99188737D01*
X185505186Y-99188737D02*
X185490901Y-99174451D01*
X185490901Y-99174451D02*
X185462329Y-99160165D01*
X185305187Y-99488737D02*
X185076615Y-99488737D01*
X185005187Y-99460165D02*
X185005187Y-99160165D01*
X184690901Y-99460165D02*
X184790901Y-99317308D01*
X184862330Y-99460165D02*
X184862330Y-99160165D01*
X184862330Y-99160165D02*
X184748044Y-99160165D01*
X184748044Y-99160165D02*
X184719473Y-99174451D01*
X184719473Y-99174451D02*
X184705187Y-99188737D01*
X184705187Y-99188737D02*
X184690901Y-99217308D01*
X184690901Y-99217308D02*
X184690901Y-99260165D01*
X184690901Y-99260165D02*
X184705187Y-99288737D01*
X184705187Y-99288737D02*
X184719473Y-99303022D01*
X184719473Y-99303022D02*
X184748044Y-99317308D01*
X184748044Y-99317308D02*
X184862330Y-99317308D01*
X190162328Y-99460165D02*
X190262328Y-99317308D01*
X190333757Y-99460165D02*
X190333757Y-99160165D01*
X190333757Y-99160165D02*
X190219471Y-99160165D01*
X190219471Y-99160165D02*
X190190900Y-99174451D01*
X190190900Y-99174451D02*
X190176614Y-99188737D01*
X190176614Y-99188737D02*
X190162328Y-99217308D01*
X190162328Y-99217308D02*
X190162328Y-99260165D01*
X190162328Y-99260165D02*
X190176614Y-99288737D01*
X190176614Y-99288737D02*
X190190900Y-99303022D01*
X190190900Y-99303022D02*
X190219471Y-99317308D01*
X190219471Y-99317308D02*
X190333757Y-99317308D01*
X190105186Y-99488737D02*
X189876614Y-99488737D01*
X189662329Y-99160165D02*
X189805186Y-99160165D01*
X189805186Y-99160165D02*
X189819472Y-99303022D01*
X189819472Y-99303022D02*
X189805186Y-99288737D01*
X189805186Y-99288737D02*
X189776615Y-99274451D01*
X189776615Y-99274451D02*
X189705186Y-99274451D01*
X189705186Y-99274451D02*
X189676615Y-99288737D01*
X189676615Y-99288737D02*
X189662329Y-99303022D01*
X189662329Y-99303022D02*
X189648043Y-99331594D01*
X189648043Y-99331594D02*
X189648043Y-99403022D01*
X189648043Y-99403022D02*
X189662329Y-99431594D01*
X189662329Y-99431594D02*
X189676615Y-99445880D01*
X189676615Y-99445880D02*
X189705186Y-99460165D01*
X189705186Y-99460165D02*
X189776615Y-99460165D01*
X189776615Y-99460165D02*
X189805186Y-99445880D01*
X189805186Y-99445880D02*
X189819472Y-99431594D01*
X189462329Y-99160165D02*
X189433758Y-99160165D01*
X189433758Y-99160165D02*
X189405186Y-99174451D01*
X189405186Y-99174451D02*
X189390901Y-99188737D01*
X189390901Y-99188737D02*
X189376615Y-99217308D01*
X189376615Y-99217308D02*
X189362329Y-99274451D01*
X189362329Y-99274451D02*
X189362329Y-99345880D01*
X189362329Y-99345880D02*
X189376615Y-99403022D01*
X189376615Y-99403022D02*
X189390901Y-99431594D01*
X189390901Y-99431594D02*
X189405186Y-99445880D01*
X189405186Y-99445880D02*
X189433758Y-99460165D01*
X189433758Y-99460165D02*
X189462329Y-99460165D01*
X189462329Y-99460165D02*
X189490901Y-99445880D01*
X189490901Y-99445880D02*
X189505186Y-99431594D01*
X189505186Y-99431594D02*
X189519472Y-99403022D01*
X189519472Y-99403022D02*
X189533758Y-99345880D01*
X189533758Y-99345880D02*
X189533758Y-99274451D01*
X189533758Y-99274451D02*
X189519472Y-99217308D01*
X189519472Y-99217308D02*
X189505186Y-99188737D01*
X189505186Y-99188737D02*
X189490901Y-99174451D01*
X189490901Y-99174451D02*
X189462329Y-99160165D01*
X189305187Y-99488737D02*
X189076615Y-99488737D01*
X189005187Y-99460165D02*
X189005187Y-99160165D01*
X188690901Y-99460165D02*
X188790901Y-99317308D01*
X188862330Y-99460165D02*
X188862330Y-99160165D01*
X188862330Y-99160165D02*
X188748044Y-99160165D01*
X188748044Y-99160165D02*
X188719473Y-99174451D01*
X188719473Y-99174451D02*
X188705187Y-99188737D01*
X188705187Y-99188737D02*
X188690901Y-99217308D01*
X188690901Y-99217308D02*
X188690901Y-99260165D01*
X188690901Y-99260165D02*
X188705187Y-99288737D01*
X188705187Y-99288737D02*
X188719473Y-99303022D01*
X188719473Y-99303022D02*
X188748044Y-99317308D01*
X188748044Y-99317308D02*
X188862330Y-99317308D01*
X193768044Y-95260165D02*
X193910901Y-95260165D01*
X193910901Y-95260165D02*
X193910901Y-94960165D01*
X193739473Y-95288737D02*
X193510901Y-95288737D01*
X193439473Y-95145880D02*
X193210902Y-95145880D01*
X189796615Y-95260165D02*
X189896615Y-95117308D01*
X189968044Y-95260165D02*
X189968044Y-94960165D01*
X189968044Y-94960165D02*
X189853758Y-94960165D01*
X189853758Y-94960165D02*
X189825187Y-94974451D01*
X189825187Y-94974451D02*
X189810901Y-94988737D01*
X189810901Y-94988737D02*
X189796615Y-95017308D01*
X189796615Y-95017308D02*
X189796615Y-95060165D01*
X189796615Y-95060165D02*
X189810901Y-95088737D01*
X189810901Y-95088737D02*
X189825187Y-95103022D01*
X189825187Y-95103022D02*
X189853758Y-95117308D01*
X189853758Y-95117308D02*
X189968044Y-95117308D01*
X189739473Y-95288737D02*
X189510901Y-95288737D01*
X189439473Y-95145880D02*
X189210902Y-95145880D01*
D11*
X190942857Y-87943800D02*
X190857143Y-87972371D01*
X190857143Y-87972371D02*
X190714285Y-87972371D01*
X190714285Y-87972371D02*
X190657143Y-87943800D01*
X190657143Y-87943800D02*
X190628571Y-87915228D01*
X190628571Y-87915228D02*
X190600000Y-87858085D01*
X190600000Y-87858085D02*
X190600000Y-87800942D01*
X190600000Y-87800942D02*
X190628571Y-87743800D01*
X190628571Y-87743800D02*
X190657143Y-87715228D01*
X190657143Y-87715228D02*
X190714285Y-87686657D01*
X190714285Y-87686657D02*
X190828571Y-87658085D01*
X190828571Y-87658085D02*
X190885714Y-87629514D01*
X190885714Y-87629514D02*
X190914285Y-87600942D01*
X190914285Y-87600942D02*
X190942857Y-87543800D01*
X190942857Y-87543800D02*
X190942857Y-87486657D01*
X190942857Y-87486657D02*
X190914285Y-87429514D01*
X190914285Y-87429514D02*
X190885714Y-87400942D01*
X190885714Y-87400942D02*
X190828571Y-87372371D01*
X190828571Y-87372371D02*
X190685714Y-87372371D01*
X190685714Y-87372371D02*
X190600000Y-87400942D01*
X190114285Y-87943800D02*
X190171428Y-87972371D01*
X190171428Y-87972371D02*
X190285714Y-87972371D01*
X190285714Y-87972371D02*
X190342856Y-87943800D01*
X190342856Y-87943800D02*
X190371428Y-87886657D01*
X190371428Y-87886657D02*
X190371428Y-87658085D01*
X190371428Y-87658085D02*
X190342856Y-87600942D01*
X190342856Y-87600942D02*
X190285714Y-87572371D01*
X190285714Y-87572371D02*
X190171428Y-87572371D01*
X190171428Y-87572371D02*
X190114285Y-87600942D01*
X190114285Y-87600942D02*
X190085714Y-87658085D01*
X190085714Y-87658085D02*
X190085714Y-87715228D01*
X190085714Y-87715228D02*
X190371428Y-87772371D01*
X189828570Y-87572371D02*
X189828570Y-87972371D01*
X189828570Y-87629514D02*
X189799999Y-87600942D01*
X189799999Y-87600942D02*
X189742856Y-87572371D01*
X189742856Y-87572371D02*
X189657142Y-87572371D01*
X189657142Y-87572371D02*
X189599999Y-87600942D01*
X189599999Y-87600942D02*
X189571428Y-87658085D01*
X189571428Y-87658085D02*
X189571428Y-87972371D01*
X189314285Y-87943800D02*
X189257142Y-87972371D01*
X189257142Y-87972371D02*
X189142856Y-87972371D01*
X189142856Y-87972371D02*
X189085713Y-87943800D01*
X189085713Y-87943800D02*
X189057142Y-87886657D01*
X189057142Y-87886657D02*
X189057142Y-87858085D01*
X189057142Y-87858085D02*
X189085713Y-87800942D01*
X189085713Y-87800942D02*
X189142856Y-87772371D01*
X189142856Y-87772371D02*
X189228571Y-87772371D01*
X189228571Y-87772371D02*
X189285713Y-87743800D01*
X189285713Y-87743800D02*
X189314285Y-87686657D01*
X189314285Y-87686657D02*
X189314285Y-87658085D01*
X189314285Y-87658085D02*
X189285713Y-87600942D01*
X189285713Y-87600942D02*
X189228571Y-87572371D01*
X189228571Y-87572371D02*
X189142856Y-87572371D01*
X189142856Y-87572371D02*
X189085713Y-87600942D01*
X188714285Y-87972371D02*
X188771428Y-87943800D01*
X188771428Y-87943800D02*
X188799999Y-87915228D01*
X188799999Y-87915228D02*
X188828571Y-87858085D01*
X188828571Y-87858085D02*
X188828571Y-87686657D01*
X188828571Y-87686657D02*
X188799999Y-87629514D01*
X188799999Y-87629514D02*
X188771428Y-87600942D01*
X188771428Y-87600942D02*
X188714285Y-87572371D01*
X188714285Y-87572371D02*
X188628571Y-87572371D01*
X188628571Y-87572371D02*
X188571428Y-87600942D01*
X188571428Y-87600942D02*
X188542857Y-87629514D01*
X188542857Y-87629514D02*
X188514285Y-87686657D01*
X188514285Y-87686657D02*
X188514285Y-87858085D01*
X188514285Y-87858085D02*
X188542857Y-87915228D01*
X188542857Y-87915228D02*
X188571428Y-87943800D01*
X188571428Y-87943800D02*
X188628571Y-87972371D01*
X188628571Y-87972371D02*
X188714285Y-87972371D01*
X188257142Y-87972371D02*
X188257142Y-87572371D01*
X188257142Y-87686657D02*
X188228571Y-87629514D01*
X188228571Y-87629514D02*
X188200000Y-87600942D01*
X188200000Y-87600942D02*
X188142857Y-87572371D01*
X188142857Y-87572371D02*
X188085714Y-87572371D01*
X188028571Y-88029514D02*
X187571428Y-88029514D01*
X187228570Y-87658085D02*
X187142856Y-87686657D01*
X187142856Y-87686657D02*
X187114285Y-87715228D01*
X187114285Y-87715228D02*
X187085713Y-87772371D01*
X187085713Y-87772371D02*
X187085713Y-87858085D01*
X187085713Y-87858085D02*
X187114285Y-87915228D01*
X187114285Y-87915228D02*
X187142856Y-87943800D01*
X187142856Y-87943800D02*
X187199999Y-87972371D01*
X187199999Y-87972371D02*
X187428570Y-87972371D01*
X187428570Y-87972371D02*
X187428570Y-87372371D01*
X187428570Y-87372371D02*
X187228570Y-87372371D01*
X187228570Y-87372371D02*
X187171428Y-87400942D01*
X187171428Y-87400942D02*
X187142856Y-87429514D01*
X187142856Y-87429514D02*
X187114285Y-87486657D01*
X187114285Y-87486657D02*
X187114285Y-87543800D01*
X187114285Y-87543800D02*
X187142856Y-87600942D01*
X187142856Y-87600942D02*
X187171428Y-87629514D01*
X187171428Y-87629514D02*
X187228570Y-87658085D01*
X187228570Y-87658085D02*
X187428570Y-87658085D01*
X186571428Y-87572371D02*
X186571428Y-87972371D01*
X186828570Y-87572371D02*
X186828570Y-87886657D01*
X186828570Y-87886657D02*
X186799999Y-87943800D01*
X186799999Y-87943800D02*
X186742856Y-87972371D01*
X186742856Y-87972371D02*
X186657142Y-87972371D01*
X186657142Y-87972371D02*
X186599999Y-87943800D01*
X186599999Y-87943800D02*
X186571428Y-87915228D01*
X186314285Y-87943800D02*
X186257142Y-87972371D01*
X186257142Y-87972371D02*
X186142856Y-87972371D01*
X186142856Y-87972371D02*
X186085713Y-87943800D01*
X186085713Y-87943800D02*
X186057142Y-87886657D01*
X186057142Y-87886657D02*
X186057142Y-87858085D01*
X186057142Y-87858085D02*
X186085713Y-87800942D01*
X186085713Y-87800942D02*
X186142856Y-87772371D01*
X186142856Y-87772371D02*
X186228571Y-87772371D01*
X186228571Y-87772371D02*
X186285713Y-87743800D01*
X186285713Y-87743800D02*
X186314285Y-87686657D01*
X186314285Y-87686657D02*
X186314285Y-87658085D01*
X186314285Y-87658085D02*
X186285713Y-87600942D01*
X186285713Y-87600942D02*
X186228571Y-87572371D01*
X186228571Y-87572371D02*
X186142856Y-87572371D01*
X186142856Y-87572371D02*
X186085713Y-87600942D01*
X199357142Y-99772371D02*
X199557142Y-99486657D01*
X199699999Y-99772371D02*
X199699999Y-99172371D01*
X199699999Y-99172371D02*
X199471428Y-99172371D01*
X199471428Y-99172371D02*
X199414285Y-99200942D01*
X199414285Y-99200942D02*
X199385714Y-99229514D01*
X199385714Y-99229514D02*
X199357142Y-99286657D01*
X199357142Y-99286657D02*
X199357142Y-99372371D01*
X199357142Y-99372371D02*
X199385714Y-99429514D01*
X199385714Y-99429514D02*
X199414285Y-99458085D01*
X199414285Y-99458085D02*
X199471428Y-99486657D01*
X199471428Y-99486657D02*
X199699999Y-99486657D01*
X199242857Y-99829514D02*
X198785714Y-99829514D01*
X198328571Y-99772371D02*
X198671428Y-99772371D01*
X198499999Y-99772371D02*
X198499999Y-99172371D01*
X198499999Y-99172371D02*
X198557142Y-99258085D01*
X198557142Y-99258085D02*
X198614285Y-99315228D01*
X198614285Y-99315228D02*
X198671428Y-99343800D01*
X197957142Y-99172371D02*
X197899999Y-99172371D01*
X197899999Y-99172371D02*
X197842856Y-99200942D01*
X197842856Y-99200942D02*
X197814285Y-99229514D01*
X197814285Y-99229514D02*
X197785713Y-99286657D01*
X197785713Y-99286657D02*
X197757142Y-99400942D01*
X197757142Y-99400942D02*
X197757142Y-99543800D01*
X197757142Y-99543800D02*
X197785713Y-99658085D01*
X197785713Y-99658085D02*
X197814285Y-99715228D01*
X197814285Y-99715228D02*
X197842856Y-99743800D01*
X197842856Y-99743800D02*
X197899999Y-99772371D01*
X197899999Y-99772371D02*
X197957142Y-99772371D01*
X197957142Y-99772371D02*
X198014285Y-99743800D01*
X198014285Y-99743800D02*
X198042856Y-99715228D01*
X198042856Y-99715228D02*
X198071427Y-99658085D01*
X198071427Y-99658085D02*
X198099999Y-99543800D01*
X198099999Y-99543800D02*
X198099999Y-99400942D01*
X198099999Y-99400942D02*
X198071427Y-99286657D01*
X198071427Y-99286657D02*
X198042856Y-99229514D01*
X198042856Y-99229514D02*
X198014285Y-99200942D01*
X198014285Y-99200942D02*
X197957142Y-99172371D01*
X197499998Y-99772371D02*
X197499998Y-99172371D01*
X197442856Y-99543800D02*
X197271427Y-99772371D01*
X197271427Y-99372371D02*
X197499998Y-99600942D01*
D12*
X139081407Y-85933333D02*
X138890931Y-85800000D01*
X139081407Y-85704762D02*
X138681407Y-85704762D01*
X138681407Y-85704762D02*
X138681407Y-85857143D01*
X138681407Y-85857143D02*
X138700455Y-85895238D01*
X138700455Y-85895238D02*
X138719502Y-85914285D01*
X138719502Y-85914285D02*
X138757598Y-85933333D01*
X138757598Y-85933333D02*
X138814740Y-85933333D01*
X138814740Y-85933333D02*
X138852836Y-85914285D01*
X138852836Y-85914285D02*
X138871883Y-85895238D01*
X138871883Y-85895238D02*
X138890931Y-85857143D01*
X138890931Y-85857143D02*
X138890931Y-85704762D01*
X139119502Y-86009524D02*
X139119502Y-86314285D01*
X138852836Y-86466666D02*
X138833788Y-86428571D01*
X138833788Y-86428571D02*
X138814740Y-86409524D01*
X138814740Y-86409524D02*
X138776645Y-86390476D01*
X138776645Y-86390476D02*
X138757598Y-86390476D01*
X138757598Y-86390476D02*
X138719502Y-86409524D01*
X138719502Y-86409524D02*
X138700455Y-86428571D01*
X138700455Y-86428571D02*
X138681407Y-86466666D01*
X138681407Y-86466666D02*
X138681407Y-86542857D01*
X138681407Y-86542857D02*
X138700455Y-86580952D01*
X138700455Y-86580952D02*
X138719502Y-86600000D01*
X138719502Y-86600000D02*
X138757598Y-86619047D01*
X138757598Y-86619047D02*
X138776645Y-86619047D01*
X138776645Y-86619047D02*
X138814740Y-86600000D01*
X138814740Y-86600000D02*
X138833788Y-86580952D01*
X138833788Y-86580952D02*
X138852836Y-86542857D01*
X138852836Y-86542857D02*
X138852836Y-86466666D01*
X138852836Y-86466666D02*
X138871883Y-86428571D01*
X138871883Y-86428571D02*
X138890931Y-86409524D01*
X138890931Y-86409524D02*
X138929026Y-86390476D01*
X138929026Y-86390476D02*
X139005217Y-86390476D01*
X139005217Y-86390476D02*
X139043312Y-86409524D01*
X139043312Y-86409524D02*
X139062360Y-86428571D01*
X139062360Y-86428571D02*
X139081407Y-86466666D01*
X139081407Y-86466666D02*
X139081407Y-86542857D01*
X139081407Y-86542857D02*
X139062360Y-86580952D01*
X139062360Y-86580952D02*
X139043312Y-86600000D01*
X139043312Y-86600000D02*
X139005217Y-86619047D01*
X139005217Y-86619047D02*
X138929026Y-86619047D01*
X138929026Y-86619047D02*
X138890931Y-86600000D01*
X138890931Y-86600000D02*
X138871883Y-86580952D01*
X138871883Y-86580952D02*
X138852836Y-86542857D01*
X139043312Y-86790476D02*
X139062360Y-86809523D01*
X139062360Y-86809523D02*
X139081407Y-86790476D01*
X139081407Y-86790476D02*
X139062360Y-86771428D01*
X139062360Y-86771428D02*
X139043312Y-86790476D01*
X139043312Y-86790476D02*
X139081407Y-86790476D01*
X139081407Y-86999999D02*
X139081407Y-87076190D01*
X139081407Y-87076190D02*
X139062360Y-87114285D01*
X139062360Y-87114285D02*
X139043312Y-87133333D01*
X139043312Y-87133333D02*
X138986169Y-87171428D01*
X138986169Y-87171428D02*
X138909979Y-87190475D01*
X138909979Y-87190475D02*
X138757598Y-87190475D01*
X138757598Y-87190475D02*
X138719502Y-87171428D01*
X138719502Y-87171428D02*
X138700455Y-87152380D01*
X138700455Y-87152380D02*
X138681407Y-87114285D01*
X138681407Y-87114285D02*
X138681407Y-87038094D01*
X138681407Y-87038094D02*
X138700455Y-86999999D01*
X138700455Y-86999999D02*
X138719502Y-86980952D01*
X138719502Y-86980952D02*
X138757598Y-86961904D01*
X138757598Y-86961904D02*
X138852836Y-86961904D01*
X138852836Y-86961904D02*
X138890931Y-86980952D01*
X138890931Y-86980952D02*
X138909979Y-86999999D01*
X138909979Y-86999999D02*
X138929026Y-87038094D01*
X138929026Y-87038094D02*
X138929026Y-87114285D01*
X138929026Y-87114285D02*
X138909979Y-87152380D01*
X138909979Y-87152380D02*
X138890931Y-87171428D01*
X138890931Y-87171428D02*
X138852836Y-87190475D01*
X139081407Y-87361904D02*
X138681407Y-87361904D01*
X138929026Y-87399999D02*
X139081407Y-87514285D01*
X138814740Y-87514285D02*
X138967121Y-87361904D01*
D13*
X164200000Y-100854819D02*
X164676190Y-100854819D01*
X164676190Y-100854819D02*
X164723809Y-101331009D01*
X164723809Y-101331009D02*
X164676190Y-101283390D01*
X164676190Y-101283390D02*
X164580952Y-101235771D01*
X164580952Y-101235771D02*
X164342857Y-101235771D01*
X164342857Y-101235771D02*
X164247619Y-101283390D01*
X164247619Y-101283390D02*
X164200000Y-101331009D01*
X164200000Y-101331009D02*
X164152381Y-101426247D01*
X164152381Y-101426247D02*
X164152381Y-101664342D01*
X164152381Y-101664342D02*
X164200000Y-101759580D01*
X164200000Y-101759580D02*
X164247619Y-101807200D01*
X164247619Y-101807200D02*
X164342857Y-101854819D01*
X164342857Y-101854819D02*
X164580952Y-101854819D01*
X164580952Y-101854819D02*
X164676190Y-101807200D01*
X164676190Y-101807200D02*
X164723809Y-101759580D01*
X163866666Y-100854819D02*
X163533333Y-101854819D01*
X163533333Y-101854819D02*
X163200000Y-100854819D01*
X163104762Y-101950057D02*
X162342857Y-101950057D01*
X162247618Y-100854819D02*
X161914285Y-101854819D01*
X161914285Y-101854819D02*
X161580952Y-100854819D01*
X160676190Y-101854819D02*
X161009523Y-101378628D01*
X161247618Y-101854819D02*
X161247618Y-100854819D01*
X161247618Y-100854819D02*
X160866666Y-100854819D01*
X160866666Y-100854819D02*
X160771428Y-100902438D01*
X160771428Y-100902438D02*
X160723809Y-100950057D01*
X160723809Y-100950057D02*
X160676190Y-101045295D01*
X160676190Y-101045295D02*
X160676190Y-101188152D01*
X160676190Y-101188152D02*
X160723809Y-101283390D01*
X160723809Y-101283390D02*
X160771428Y-101331009D01*
X160771428Y-101331009D02*
X160866666Y-101378628D01*
X160866666Y-101378628D02*
X161247618Y-101378628D01*
D12*
X153105812Y-85042857D02*
X153124860Y-85023809D01*
X153124860Y-85023809D02*
X153143907Y-84966667D01*
X153143907Y-84966667D02*
X153143907Y-84928571D01*
X153143907Y-84928571D02*
X153124860Y-84871428D01*
X153124860Y-84871428D02*
X153086764Y-84833333D01*
X153086764Y-84833333D02*
X153048669Y-84814286D01*
X153048669Y-84814286D02*
X152972479Y-84795238D01*
X152972479Y-84795238D02*
X152915336Y-84795238D01*
X152915336Y-84795238D02*
X152839145Y-84814286D01*
X152839145Y-84814286D02*
X152801050Y-84833333D01*
X152801050Y-84833333D02*
X152762955Y-84871428D01*
X152762955Y-84871428D02*
X152743907Y-84928571D01*
X152743907Y-84928571D02*
X152743907Y-84966667D01*
X152743907Y-84966667D02*
X152762955Y-85023809D01*
X152762955Y-85023809D02*
X152782002Y-85042857D01*
X153182002Y-85119048D02*
X153182002Y-85423809D01*
X152743907Y-85595238D02*
X152743907Y-85633333D01*
X152743907Y-85633333D02*
X152762955Y-85671429D01*
X152762955Y-85671429D02*
X152782002Y-85690476D01*
X152782002Y-85690476D02*
X152820098Y-85709524D01*
X152820098Y-85709524D02*
X152896288Y-85728571D01*
X152896288Y-85728571D02*
X152991526Y-85728571D01*
X152991526Y-85728571D02*
X153067717Y-85709524D01*
X153067717Y-85709524D02*
X153105812Y-85690476D01*
X153105812Y-85690476D02*
X153124860Y-85671429D01*
X153124860Y-85671429D02*
X153143907Y-85633333D01*
X153143907Y-85633333D02*
X153143907Y-85595238D01*
X153143907Y-85595238D02*
X153124860Y-85557143D01*
X153124860Y-85557143D02*
X153105812Y-85538095D01*
X153105812Y-85538095D02*
X153067717Y-85519048D01*
X153067717Y-85519048D02*
X152991526Y-85500000D01*
X152991526Y-85500000D02*
X152896288Y-85500000D01*
X152896288Y-85500000D02*
X152820098Y-85519048D01*
X152820098Y-85519048D02*
X152782002Y-85538095D01*
X152782002Y-85538095D02*
X152762955Y-85557143D01*
X152762955Y-85557143D02*
X152743907Y-85595238D01*
X153105812Y-85900000D02*
X153124860Y-85919047D01*
X153124860Y-85919047D02*
X153143907Y-85900000D01*
X153143907Y-85900000D02*
X153124860Y-85880952D01*
X153124860Y-85880952D02*
X153105812Y-85900000D01*
X153105812Y-85900000D02*
X153143907Y-85900000D01*
X153143907Y-86299999D02*
X153143907Y-86071428D01*
X153143907Y-86185714D02*
X152743907Y-86185714D01*
X152743907Y-86185714D02*
X152801050Y-86147618D01*
X152801050Y-86147618D02*
X152839145Y-86109523D01*
X152839145Y-86109523D02*
X152858193Y-86071428D01*
X152877240Y-86642856D02*
X153143907Y-86642856D01*
X152877240Y-86471428D02*
X153086764Y-86471428D01*
X153086764Y-86471428D02*
X153124860Y-86490475D01*
X153124860Y-86490475D02*
X153143907Y-86528570D01*
X153143907Y-86528570D02*
X153143907Y-86585713D01*
X153143907Y-86585713D02*
X153124860Y-86623809D01*
X153124860Y-86623809D02*
X153105812Y-86642856D01*
X152934383Y-86966666D02*
X152934383Y-86833333D01*
X153143907Y-86833333D02*
X152743907Y-86833333D01*
X152743907Y-86833333D02*
X152743907Y-87023809D01*
D11*
X127179847Y-86650000D02*
X126989371Y-86516667D01*
X127179847Y-86421429D02*
X126779847Y-86421429D01*
X126779847Y-86421429D02*
X126779847Y-86573810D01*
X126779847Y-86573810D02*
X126798895Y-86611905D01*
X126798895Y-86611905D02*
X126817942Y-86630952D01*
X126817942Y-86630952D02*
X126856038Y-86650000D01*
X126856038Y-86650000D02*
X126913180Y-86650000D01*
X126913180Y-86650000D02*
X126951276Y-86630952D01*
X126951276Y-86630952D02*
X126970323Y-86611905D01*
X126970323Y-86611905D02*
X126989371Y-86573810D01*
X126989371Y-86573810D02*
X126989371Y-86421429D01*
X127217942Y-86726191D02*
X127217942Y-87030952D01*
X126779847Y-87316667D02*
X126779847Y-87126191D01*
X126779847Y-87126191D02*
X126970323Y-87107143D01*
X126970323Y-87107143D02*
X126951276Y-87126191D01*
X126951276Y-87126191D02*
X126932228Y-87164286D01*
X126932228Y-87164286D02*
X126932228Y-87259524D01*
X126932228Y-87259524D02*
X126951276Y-87297619D01*
X126951276Y-87297619D02*
X126970323Y-87316667D01*
X126970323Y-87316667D02*
X127008419Y-87335714D01*
X127008419Y-87335714D02*
X127103657Y-87335714D01*
X127103657Y-87335714D02*
X127141752Y-87316667D01*
X127141752Y-87316667D02*
X127160800Y-87297619D01*
X127160800Y-87297619D02*
X127179847Y-87259524D01*
X127179847Y-87259524D02*
X127179847Y-87164286D01*
X127179847Y-87164286D02*
X127160800Y-87126191D01*
X127160800Y-87126191D02*
X127141752Y-87107143D01*
X126779847Y-87583333D02*
X126779847Y-87621428D01*
X126779847Y-87621428D02*
X126798895Y-87659524D01*
X126798895Y-87659524D02*
X126817942Y-87678571D01*
X126817942Y-87678571D02*
X126856038Y-87697619D01*
X126856038Y-87697619D02*
X126932228Y-87716666D01*
X126932228Y-87716666D02*
X127027466Y-87716666D01*
X127027466Y-87716666D02*
X127103657Y-87697619D01*
X127103657Y-87697619D02*
X127141752Y-87678571D01*
X127141752Y-87678571D02*
X127160800Y-87659524D01*
X127160800Y-87659524D02*
X127179847Y-87621428D01*
X127179847Y-87621428D02*
X127179847Y-87583333D01*
X127179847Y-87583333D02*
X127160800Y-87545238D01*
X127160800Y-87545238D02*
X127141752Y-87526190D01*
X127141752Y-87526190D02*
X127103657Y-87507143D01*
X127103657Y-87507143D02*
X127027466Y-87488095D01*
X127027466Y-87488095D02*
X126932228Y-87488095D01*
X126932228Y-87488095D02*
X126856038Y-87507143D01*
X126856038Y-87507143D02*
X126817942Y-87526190D01*
X126817942Y-87526190D02*
X126798895Y-87545238D01*
X126798895Y-87545238D02*
X126779847Y-87583333D01*
X126779847Y-87964285D02*
X126779847Y-88002380D01*
X126779847Y-88002380D02*
X126798895Y-88040476D01*
X126798895Y-88040476D02*
X126817942Y-88059523D01*
X126817942Y-88059523D02*
X126856038Y-88078571D01*
X126856038Y-88078571D02*
X126932228Y-88097618D01*
X126932228Y-88097618D02*
X127027466Y-88097618D01*
X127027466Y-88097618D02*
X127103657Y-88078571D01*
X127103657Y-88078571D02*
X127141752Y-88059523D01*
X127141752Y-88059523D02*
X127160800Y-88040476D01*
X127160800Y-88040476D02*
X127179847Y-88002380D01*
X127179847Y-88002380D02*
X127179847Y-87964285D01*
X127179847Y-87964285D02*
X127160800Y-87926190D01*
X127160800Y-87926190D02*
X127141752Y-87907142D01*
X127141752Y-87907142D02*
X127103657Y-87888095D01*
X127103657Y-87888095D02*
X127027466Y-87869047D01*
X127027466Y-87869047D02*
X126932228Y-87869047D01*
X126932228Y-87869047D02*
X126856038Y-87888095D01*
X126856038Y-87888095D02*
X126817942Y-87907142D01*
X126817942Y-87907142D02*
X126798895Y-87926190D01*
X126798895Y-87926190D02*
X126779847Y-87964285D01*
D13*
X172797618Y-100854819D02*
X172178571Y-100854819D01*
X172178571Y-100854819D02*
X172511904Y-101235771D01*
X172511904Y-101235771D02*
X172369047Y-101235771D01*
X172369047Y-101235771D02*
X172273809Y-101283390D01*
X172273809Y-101283390D02*
X172226190Y-101331009D01*
X172226190Y-101331009D02*
X172178571Y-101426247D01*
X172178571Y-101426247D02*
X172178571Y-101664342D01*
X172178571Y-101664342D02*
X172226190Y-101759580D01*
X172226190Y-101759580D02*
X172273809Y-101807200D01*
X172273809Y-101807200D02*
X172369047Y-101854819D01*
X172369047Y-101854819D02*
X172654761Y-101854819D01*
X172654761Y-101854819D02*
X172749999Y-101807200D01*
X172749999Y-101807200D02*
X172797618Y-101759580D01*
X171892856Y-100854819D02*
X171559523Y-101854819D01*
X171559523Y-101854819D02*
X171226190Y-100854819D01*
X170988094Y-100854819D02*
X170369047Y-100854819D01*
X170369047Y-100854819D02*
X170702380Y-101235771D01*
X170702380Y-101235771D02*
X170559523Y-101235771D01*
X170559523Y-101235771D02*
X170464285Y-101283390D01*
X170464285Y-101283390D02*
X170416666Y-101331009D01*
X170416666Y-101331009D02*
X170369047Y-101426247D01*
X170369047Y-101426247D02*
X170369047Y-101664342D01*
X170369047Y-101664342D02*
X170416666Y-101759580D01*
X170416666Y-101759580D02*
X170464285Y-101807200D01*
X170464285Y-101807200D02*
X170559523Y-101854819D01*
X170559523Y-101854819D02*
X170845237Y-101854819D01*
X170845237Y-101854819D02*
X170940475Y-101807200D01*
X170940475Y-101807200D02*
X170988094Y-101759580D01*
X170178571Y-101950057D02*
X169416666Y-101950057D01*
X169321427Y-100854819D02*
X168988094Y-101854819D01*
X168988094Y-101854819D02*
X168654761Y-100854819D01*
X167749999Y-101854819D02*
X168083332Y-101378628D01*
X168321427Y-101854819D02*
X168321427Y-100854819D01*
X168321427Y-100854819D02*
X167940475Y-100854819D01*
X167940475Y-100854819D02*
X167845237Y-100902438D01*
X167845237Y-100902438D02*
X167797618Y-100950057D01*
X167797618Y-100950057D02*
X167749999Y-101045295D01*
X167749999Y-101045295D02*
X167749999Y-101188152D01*
X167749999Y-101188152D02*
X167797618Y-101283390D01*
X167797618Y-101283390D02*
X167845237Y-101331009D01*
X167845237Y-101331009D02*
X167940475Y-101378628D01*
X167940475Y-101378628D02*
X168321427Y-101378628D01*
D11*
X167098799Y-96167371D02*
X167384513Y-96167371D01*
X167384513Y-96167371D02*
X167384513Y-95567371D01*
X167041657Y-96224514D02*
X166584514Y-96224514D01*
X166441656Y-96167371D02*
X166441656Y-95567371D01*
X166441656Y-95567371D02*
X166241656Y-95995942D01*
X166241656Y-95995942D02*
X166041656Y-95567371D01*
X166041656Y-95567371D02*
X166041656Y-96167371D01*
X165841657Y-95567371D02*
X165498800Y-95567371D01*
X165670228Y-96167371D02*
X165670228Y-95567371D01*
X164955942Y-96167371D02*
X165155942Y-95881657D01*
X165298799Y-96167371D02*
X165298799Y-95567371D01*
X165298799Y-95567371D02*
X165070228Y-95567371D01*
X165070228Y-95567371D02*
X165013085Y-95595942D01*
X165013085Y-95595942D02*
X164984514Y-95624514D01*
X164984514Y-95624514D02*
X164955942Y-95681657D01*
X164955942Y-95681657D02*
X164955942Y-95767371D01*
X164955942Y-95767371D02*
X164984514Y-95824514D01*
X164984514Y-95824514D02*
X165013085Y-95853085D01*
X165013085Y-95853085D02*
X165070228Y-95881657D01*
X165070228Y-95881657D02*
X165298799Y-95881657D01*
X164841657Y-96224514D02*
X164384514Y-96224514D01*
X164241656Y-96167371D02*
X164241656Y-95567371D01*
X164241656Y-95567371D02*
X164098799Y-95567371D01*
X164098799Y-95567371D02*
X164013085Y-95595942D01*
X164013085Y-95595942D02*
X163955942Y-95653085D01*
X163955942Y-95653085D02*
X163927371Y-95710228D01*
X163927371Y-95710228D02*
X163898799Y-95824514D01*
X163898799Y-95824514D02*
X163898799Y-95910228D01*
X163898799Y-95910228D02*
X163927371Y-96024514D01*
X163927371Y-96024514D02*
X163955942Y-96081657D01*
X163955942Y-96081657D02*
X164013085Y-96138800D01*
X164013085Y-96138800D02*
X164098799Y-96167371D01*
X164098799Y-96167371D02*
X164241656Y-96167371D01*
X163298799Y-96167371D02*
X163498799Y-95881657D01*
X163641656Y-96167371D02*
X163641656Y-95567371D01*
X163641656Y-95567371D02*
X163413085Y-95567371D01*
X163413085Y-95567371D02*
X163355942Y-95595942D01*
X163355942Y-95595942D02*
X163327371Y-95624514D01*
X163327371Y-95624514D02*
X163298799Y-95681657D01*
X163298799Y-95681657D02*
X163298799Y-95767371D01*
X163298799Y-95767371D02*
X163327371Y-95824514D01*
X163327371Y-95824514D02*
X163355942Y-95853085D01*
X163355942Y-95853085D02*
X163413085Y-95881657D01*
X163413085Y-95881657D02*
X163641656Y-95881657D01*
X163127371Y-95567371D02*
X162927371Y-96167371D01*
X162927371Y-96167371D02*
X162727371Y-95567371D01*
X201957142Y-99772371D02*
X202157142Y-99486657D01*
X202299999Y-99772371D02*
X202299999Y-99172371D01*
X202299999Y-99172371D02*
X202071428Y-99172371D01*
X202071428Y-99172371D02*
X202014285Y-99200942D01*
X202014285Y-99200942D02*
X201985714Y-99229514D01*
X201985714Y-99229514D02*
X201957142Y-99286657D01*
X201957142Y-99286657D02*
X201957142Y-99372371D01*
X201957142Y-99372371D02*
X201985714Y-99429514D01*
X201985714Y-99429514D02*
X202014285Y-99458085D01*
X202014285Y-99458085D02*
X202071428Y-99486657D01*
X202071428Y-99486657D02*
X202299999Y-99486657D01*
X201842857Y-99829514D02*
X201385714Y-99829514D01*
X200928571Y-99772371D02*
X201271428Y-99772371D01*
X201099999Y-99772371D02*
X201099999Y-99172371D01*
X201099999Y-99172371D02*
X201157142Y-99258085D01*
X201157142Y-99258085D02*
X201214285Y-99315228D01*
X201214285Y-99315228D02*
X201271428Y-99343800D01*
X200557142Y-99172371D02*
X200499999Y-99172371D01*
X200499999Y-99172371D02*
X200442856Y-99200942D01*
X200442856Y-99200942D02*
X200414285Y-99229514D01*
X200414285Y-99229514D02*
X200385713Y-99286657D01*
X200385713Y-99286657D02*
X200357142Y-99400942D01*
X200357142Y-99400942D02*
X200357142Y-99543800D01*
X200357142Y-99543800D02*
X200385713Y-99658085D01*
X200385713Y-99658085D02*
X200414285Y-99715228D01*
X200414285Y-99715228D02*
X200442856Y-99743800D01*
X200442856Y-99743800D02*
X200499999Y-99772371D01*
X200499999Y-99772371D02*
X200557142Y-99772371D01*
X200557142Y-99772371D02*
X200614285Y-99743800D01*
X200614285Y-99743800D02*
X200642856Y-99715228D01*
X200642856Y-99715228D02*
X200671427Y-99658085D01*
X200671427Y-99658085D02*
X200699999Y-99543800D01*
X200699999Y-99543800D02*
X200699999Y-99400942D01*
X200699999Y-99400942D02*
X200671427Y-99286657D01*
X200671427Y-99286657D02*
X200642856Y-99229514D01*
X200642856Y-99229514D02*
X200614285Y-99200942D01*
X200614285Y-99200942D02*
X200557142Y-99172371D01*
X200099998Y-99772371D02*
X200099998Y-99172371D01*
X200042856Y-99543800D02*
X199871427Y-99772371D01*
X199871427Y-99372371D02*
X200099998Y-99600942D01*
D12*
X172435807Y-93733571D02*
X172245331Y-93600238D01*
X172435807Y-93505000D02*
X172035807Y-93505000D01*
X172035807Y-93505000D02*
X172035807Y-93657381D01*
X172035807Y-93657381D02*
X172054855Y-93695476D01*
X172054855Y-93695476D02*
X172073902Y-93714523D01*
X172073902Y-93714523D02*
X172111998Y-93733571D01*
X172111998Y-93733571D02*
X172169140Y-93733571D01*
X172169140Y-93733571D02*
X172207236Y-93714523D01*
X172207236Y-93714523D02*
X172226283Y-93695476D01*
X172226283Y-93695476D02*
X172245331Y-93657381D01*
X172245331Y-93657381D02*
X172245331Y-93505000D01*
X172473902Y-93809762D02*
X172473902Y-94114523D01*
X172435807Y-94419285D02*
X172435807Y-94190714D01*
X172435807Y-94305000D02*
X172035807Y-94305000D01*
X172035807Y-94305000D02*
X172092950Y-94266904D01*
X172092950Y-94266904D02*
X172131045Y-94228809D01*
X172131045Y-94228809D02*
X172150093Y-94190714D01*
X172207236Y-94647856D02*
X172188188Y-94609761D01*
X172188188Y-94609761D02*
X172169140Y-94590714D01*
X172169140Y-94590714D02*
X172131045Y-94571666D01*
X172131045Y-94571666D02*
X172111998Y-94571666D01*
X172111998Y-94571666D02*
X172073902Y-94590714D01*
X172073902Y-94590714D02*
X172054855Y-94609761D01*
X172054855Y-94609761D02*
X172035807Y-94647856D01*
X172035807Y-94647856D02*
X172035807Y-94724047D01*
X172035807Y-94724047D02*
X172054855Y-94762142D01*
X172054855Y-94762142D02*
X172073902Y-94781190D01*
X172073902Y-94781190D02*
X172111998Y-94800237D01*
X172111998Y-94800237D02*
X172131045Y-94800237D01*
X172131045Y-94800237D02*
X172169140Y-94781190D01*
X172169140Y-94781190D02*
X172188188Y-94762142D01*
X172188188Y-94762142D02*
X172207236Y-94724047D01*
X172207236Y-94724047D02*
X172207236Y-94647856D01*
X172207236Y-94647856D02*
X172226283Y-94609761D01*
X172226283Y-94609761D02*
X172245331Y-94590714D01*
X172245331Y-94590714D02*
X172283426Y-94571666D01*
X172283426Y-94571666D02*
X172359617Y-94571666D01*
X172359617Y-94571666D02*
X172397712Y-94590714D01*
X172397712Y-94590714D02*
X172416760Y-94609761D01*
X172416760Y-94609761D02*
X172435807Y-94647856D01*
X172435807Y-94647856D02*
X172435807Y-94724047D01*
X172435807Y-94724047D02*
X172416760Y-94762142D01*
X172416760Y-94762142D02*
X172397712Y-94781190D01*
X172397712Y-94781190D02*
X172359617Y-94800237D01*
X172359617Y-94800237D02*
X172283426Y-94800237D01*
X172283426Y-94800237D02*
X172245331Y-94781190D01*
X172245331Y-94781190D02*
X172226283Y-94762142D01*
X172226283Y-94762142D02*
X172207236Y-94724047D01*
X172435807Y-94971666D02*
X172035807Y-94971666D01*
X172283426Y-95009761D02*
X172435807Y-95124047D01*
X172169140Y-95124047D02*
X172321521Y-94971666D01*
D11*
X127179847Y-100400000D02*
X126989371Y-100266667D01*
X127179847Y-100171429D02*
X126779847Y-100171429D01*
X126779847Y-100171429D02*
X126779847Y-100323810D01*
X126779847Y-100323810D02*
X126798895Y-100361905D01*
X126798895Y-100361905D02*
X126817942Y-100380952D01*
X126817942Y-100380952D02*
X126856038Y-100400000D01*
X126856038Y-100400000D02*
X126913180Y-100400000D01*
X126913180Y-100400000D02*
X126951276Y-100380952D01*
X126951276Y-100380952D02*
X126970323Y-100361905D01*
X126970323Y-100361905D02*
X126989371Y-100323810D01*
X126989371Y-100323810D02*
X126989371Y-100171429D01*
X127217942Y-100476191D02*
X127217942Y-100780952D01*
X126779847Y-101066667D02*
X126779847Y-100876191D01*
X126779847Y-100876191D02*
X126970323Y-100857143D01*
X126970323Y-100857143D02*
X126951276Y-100876191D01*
X126951276Y-100876191D02*
X126932228Y-100914286D01*
X126932228Y-100914286D02*
X126932228Y-101009524D01*
X126932228Y-101009524D02*
X126951276Y-101047619D01*
X126951276Y-101047619D02*
X126970323Y-101066667D01*
X126970323Y-101066667D02*
X127008419Y-101085714D01*
X127008419Y-101085714D02*
X127103657Y-101085714D01*
X127103657Y-101085714D02*
X127141752Y-101066667D01*
X127141752Y-101066667D02*
X127160800Y-101047619D01*
X127160800Y-101047619D02*
X127179847Y-101009524D01*
X127179847Y-101009524D02*
X127179847Y-100914286D01*
X127179847Y-100914286D02*
X127160800Y-100876191D01*
X127160800Y-100876191D02*
X127141752Y-100857143D01*
X126779847Y-101333333D02*
X126779847Y-101371428D01*
X126779847Y-101371428D02*
X126798895Y-101409524D01*
X126798895Y-101409524D02*
X126817942Y-101428571D01*
X126817942Y-101428571D02*
X126856038Y-101447619D01*
X126856038Y-101447619D02*
X126932228Y-101466666D01*
X126932228Y-101466666D02*
X127027466Y-101466666D01*
X127027466Y-101466666D02*
X127103657Y-101447619D01*
X127103657Y-101447619D02*
X127141752Y-101428571D01*
X127141752Y-101428571D02*
X127160800Y-101409524D01*
X127160800Y-101409524D02*
X127179847Y-101371428D01*
X127179847Y-101371428D02*
X127179847Y-101333333D01*
X127179847Y-101333333D02*
X127160800Y-101295238D01*
X127160800Y-101295238D02*
X127141752Y-101276190D01*
X127141752Y-101276190D02*
X127103657Y-101257143D01*
X127103657Y-101257143D02*
X127027466Y-101238095D01*
X127027466Y-101238095D02*
X126932228Y-101238095D01*
X126932228Y-101238095D02*
X126856038Y-101257143D01*
X126856038Y-101257143D02*
X126817942Y-101276190D01*
X126817942Y-101276190D02*
X126798895Y-101295238D01*
X126798895Y-101295238D02*
X126779847Y-101333333D01*
X126779847Y-101714285D02*
X126779847Y-101752380D01*
X126779847Y-101752380D02*
X126798895Y-101790476D01*
X126798895Y-101790476D02*
X126817942Y-101809523D01*
X126817942Y-101809523D02*
X126856038Y-101828571D01*
X126856038Y-101828571D02*
X126932228Y-101847618D01*
X126932228Y-101847618D02*
X127027466Y-101847618D01*
X127027466Y-101847618D02*
X127103657Y-101828571D01*
X127103657Y-101828571D02*
X127141752Y-101809523D01*
X127141752Y-101809523D02*
X127160800Y-101790476D01*
X127160800Y-101790476D02*
X127179847Y-101752380D01*
X127179847Y-101752380D02*
X127179847Y-101714285D01*
X127179847Y-101714285D02*
X127160800Y-101676190D01*
X127160800Y-101676190D02*
X127141752Y-101657142D01*
X127141752Y-101657142D02*
X127103657Y-101638095D01*
X127103657Y-101638095D02*
X127027466Y-101619047D01*
X127027466Y-101619047D02*
X126932228Y-101619047D01*
X126932228Y-101619047D02*
X126856038Y-101638095D01*
X126856038Y-101638095D02*
X126817942Y-101657142D01*
X126817942Y-101657142D02*
X126798895Y-101676190D01*
X126798895Y-101676190D02*
X126779847Y-101714285D01*
D12*
X153256409Y-99655000D02*
X153065933Y-99521667D01*
X153256409Y-99426429D02*
X152856409Y-99426429D01*
X152856409Y-99426429D02*
X152856409Y-99578810D01*
X152856409Y-99578810D02*
X152875457Y-99616905D01*
X152875457Y-99616905D02*
X152894504Y-99635952D01*
X152894504Y-99635952D02*
X152932600Y-99655000D01*
X152932600Y-99655000D02*
X152989742Y-99655000D01*
X152989742Y-99655000D02*
X153027838Y-99635952D01*
X153027838Y-99635952D02*
X153046885Y-99616905D01*
X153046885Y-99616905D02*
X153065933Y-99578810D01*
X153065933Y-99578810D02*
X153065933Y-99426429D01*
X153294504Y-99731191D02*
X153294504Y-100035952D01*
X152856409Y-100321667D02*
X152856409Y-100131191D01*
X152856409Y-100131191D02*
X153046885Y-100112143D01*
X153046885Y-100112143D02*
X153027838Y-100131191D01*
X153027838Y-100131191D02*
X153008790Y-100169286D01*
X153008790Y-100169286D02*
X153008790Y-100264524D01*
X153008790Y-100264524D02*
X153027838Y-100302619D01*
X153027838Y-100302619D02*
X153046885Y-100321667D01*
X153046885Y-100321667D02*
X153084981Y-100340714D01*
X153084981Y-100340714D02*
X153180219Y-100340714D01*
X153180219Y-100340714D02*
X153218314Y-100321667D01*
X153218314Y-100321667D02*
X153237362Y-100302619D01*
X153237362Y-100302619D02*
X153256409Y-100264524D01*
X153256409Y-100264524D02*
X153256409Y-100169286D01*
X153256409Y-100169286D02*
X153237362Y-100131191D01*
X153237362Y-100131191D02*
X153218314Y-100112143D01*
X152856409Y-100588333D02*
X152856409Y-100626428D01*
X152856409Y-100626428D02*
X152875457Y-100664524D01*
X152875457Y-100664524D02*
X152894504Y-100683571D01*
X152894504Y-100683571D02*
X152932600Y-100702619D01*
X152932600Y-100702619D02*
X153008790Y-100721666D01*
X153008790Y-100721666D02*
X153104028Y-100721666D01*
X153104028Y-100721666D02*
X153180219Y-100702619D01*
X153180219Y-100702619D02*
X153218314Y-100683571D01*
X153218314Y-100683571D02*
X153237362Y-100664524D01*
X153237362Y-100664524D02*
X153256409Y-100626428D01*
X153256409Y-100626428D02*
X153256409Y-100588333D01*
X153256409Y-100588333D02*
X153237362Y-100550238D01*
X153237362Y-100550238D02*
X153218314Y-100531190D01*
X153218314Y-100531190D02*
X153180219Y-100512143D01*
X153180219Y-100512143D02*
X153104028Y-100493095D01*
X153104028Y-100493095D02*
X153008790Y-100493095D01*
X153008790Y-100493095D02*
X152932600Y-100512143D01*
X152932600Y-100512143D02*
X152894504Y-100531190D01*
X152894504Y-100531190D02*
X152875457Y-100550238D01*
X152875457Y-100550238D02*
X152856409Y-100588333D01*
X152856409Y-100969285D02*
X152856409Y-101007380D01*
X152856409Y-101007380D02*
X152875457Y-101045476D01*
X152875457Y-101045476D02*
X152894504Y-101064523D01*
X152894504Y-101064523D02*
X152932600Y-101083571D01*
X152932600Y-101083571D02*
X153008790Y-101102618D01*
X153008790Y-101102618D02*
X153104028Y-101102618D01*
X153104028Y-101102618D02*
X153180219Y-101083571D01*
X153180219Y-101083571D02*
X153218314Y-101064523D01*
X153218314Y-101064523D02*
X153237362Y-101045476D01*
X153237362Y-101045476D02*
X153256409Y-101007380D01*
X153256409Y-101007380D02*
X153256409Y-100969285D01*
X153256409Y-100969285D02*
X153237362Y-100931190D01*
X153237362Y-100931190D02*
X153218314Y-100912142D01*
X153218314Y-100912142D02*
X153180219Y-100893095D01*
X153180219Y-100893095D02*
X153104028Y-100874047D01*
X153104028Y-100874047D02*
X153008790Y-100874047D01*
X153008790Y-100874047D02*
X152932600Y-100893095D01*
X152932600Y-100893095D02*
X152894504Y-100912142D01*
X152894504Y-100912142D02*
X152875457Y-100931190D01*
X152875457Y-100931190D02*
X152856409Y-100969285D01*
D11*
X127179847Y-92150000D02*
X126989371Y-92016667D01*
X127179847Y-91921429D02*
X126779847Y-91921429D01*
X126779847Y-91921429D02*
X126779847Y-92073810D01*
X126779847Y-92073810D02*
X126798895Y-92111905D01*
X126798895Y-92111905D02*
X126817942Y-92130952D01*
X126817942Y-92130952D02*
X126856038Y-92150000D01*
X126856038Y-92150000D02*
X126913180Y-92150000D01*
X126913180Y-92150000D02*
X126951276Y-92130952D01*
X126951276Y-92130952D02*
X126970323Y-92111905D01*
X126970323Y-92111905D02*
X126989371Y-92073810D01*
X126989371Y-92073810D02*
X126989371Y-91921429D01*
X127217942Y-92226191D02*
X127217942Y-92530952D01*
X126779847Y-92816667D02*
X126779847Y-92626191D01*
X126779847Y-92626191D02*
X126970323Y-92607143D01*
X126970323Y-92607143D02*
X126951276Y-92626191D01*
X126951276Y-92626191D02*
X126932228Y-92664286D01*
X126932228Y-92664286D02*
X126932228Y-92759524D01*
X126932228Y-92759524D02*
X126951276Y-92797619D01*
X126951276Y-92797619D02*
X126970323Y-92816667D01*
X126970323Y-92816667D02*
X127008419Y-92835714D01*
X127008419Y-92835714D02*
X127103657Y-92835714D01*
X127103657Y-92835714D02*
X127141752Y-92816667D01*
X127141752Y-92816667D02*
X127160800Y-92797619D01*
X127160800Y-92797619D02*
X127179847Y-92759524D01*
X127179847Y-92759524D02*
X127179847Y-92664286D01*
X127179847Y-92664286D02*
X127160800Y-92626191D01*
X127160800Y-92626191D02*
X127141752Y-92607143D01*
X126779847Y-93083333D02*
X126779847Y-93121428D01*
X126779847Y-93121428D02*
X126798895Y-93159524D01*
X126798895Y-93159524D02*
X126817942Y-93178571D01*
X126817942Y-93178571D02*
X126856038Y-93197619D01*
X126856038Y-93197619D02*
X126932228Y-93216666D01*
X126932228Y-93216666D02*
X127027466Y-93216666D01*
X127027466Y-93216666D02*
X127103657Y-93197619D01*
X127103657Y-93197619D02*
X127141752Y-93178571D01*
X127141752Y-93178571D02*
X127160800Y-93159524D01*
X127160800Y-93159524D02*
X127179847Y-93121428D01*
X127179847Y-93121428D02*
X127179847Y-93083333D01*
X127179847Y-93083333D02*
X127160800Y-93045238D01*
X127160800Y-93045238D02*
X127141752Y-93026190D01*
X127141752Y-93026190D02*
X127103657Y-93007143D01*
X127103657Y-93007143D02*
X127027466Y-92988095D01*
X127027466Y-92988095D02*
X126932228Y-92988095D01*
X126932228Y-92988095D02*
X126856038Y-93007143D01*
X126856038Y-93007143D02*
X126817942Y-93026190D01*
X126817942Y-93026190D02*
X126798895Y-93045238D01*
X126798895Y-93045238D02*
X126779847Y-93083333D01*
X126779847Y-93464285D02*
X126779847Y-93502380D01*
X126779847Y-93502380D02*
X126798895Y-93540476D01*
X126798895Y-93540476D02*
X126817942Y-93559523D01*
X126817942Y-93559523D02*
X126856038Y-93578571D01*
X126856038Y-93578571D02*
X126932228Y-93597618D01*
X126932228Y-93597618D02*
X127027466Y-93597618D01*
X127027466Y-93597618D02*
X127103657Y-93578571D01*
X127103657Y-93578571D02*
X127141752Y-93559523D01*
X127141752Y-93559523D02*
X127160800Y-93540476D01*
X127160800Y-93540476D02*
X127179847Y-93502380D01*
X127179847Y-93502380D02*
X127179847Y-93464285D01*
X127179847Y-93464285D02*
X127160800Y-93426190D01*
X127160800Y-93426190D02*
X127141752Y-93407142D01*
X127141752Y-93407142D02*
X127103657Y-93388095D01*
X127103657Y-93388095D02*
X127027466Y-93369047D01*
X127027466Y-93369047D02*
X126932228Y-93369047D01*
X126932228Y-93369047D02*
X126856038Y-93388095D01*
X126856038Y-93388095D02*
X126817942Y-93407142D01*
X126817942Y-93407142D02*
X126798895Y-93426190D01*
X126798895Y-93426190D02*
X126779847Y-93464285D01*
D12*
X153180814Y-93593095D02*
X153199862Y-93574047D01*
X153199862Y-93574047D02*
X153218909Y-93516905D01*
X153218909Y-93516905D02*
X153218909Y-93478809D01*
X153218909Y-93478809D02*
X153199862Y-93421666D01*
X153199862Y-93421666D02*
X153161766Y-93383571D01*
X153161766Y-93383571D02*
X153123671Y-93364524D01*
X153123671Y-93364524D02*
X153047481Y-93345476D01*
X153047481Y-93345476D02*
X152990338Y-93345476D01*
X152990338Y-93345476D02*
X152914147Y-93364524D01*
X152914147Y-93364524D02*
X152876052Y-93383571D01*
X152876052Y-93383571D02*
X152837957Y-93421666D01*
X152837957Y-93421666D02*
X152818909Y-93478809D01*
X152818909Y-93478809D02*
X152818909Y-93516905D01*
X152818909Y-93516905D02*
X152837957Y-93574047D01*
X152837957Y-93574047D02*
X152857004Y-93593095D01*
X153257004Y-93669286D02*
X153257004Y-93974047D01*
X152818909Y-94259762D02*
X152818909Y-94069286D01*
X152818909Y-94069286D02*
X153009385Y-94050238D01*
X153009385Y-94050238D02*
X152990338Y-94069286D01*
X152990338Y-94069286D02*
X152971290Y-94107381D01*
X152971290Y-94107381D02*
X152971290Y-94202619D01*
X152971290Y-94202619D02*
X152990338Y-94240714D01*
X152990338Y-94240714D02*
X153009385Y-94259762D01*
X153009385Y-94259762D02*
X153047481Y-94278809D01*
X153047481Y-94278809D02*
X153142719Y-94278809D01*
X153142719Y-94278809D02*
X153180814Y-94259762D01*
X153180814Y-94259762D02*
X153199862Y-94240714D01*
X153199862Y-94240714D02*
X153218909Y-94202619D01*
X153218909Y-94202619D02*
X153218909Y-94107381D01*
X153218909Y-94107381D02*
X153199862Y-94069286D01*
X153199862Y-94069286D02*
X153180814Y-94050238D01*
X152818909Y-94526428D02*
X152818909Y-94564523D01*
X152818909Y-94564523D02*
X152837957Y-94602619D01*
X152837957Y-94602619D02*
X152857004Y-94621666D01*
X152857004Y-94621666D02*
X152895100Y-94640714D01*
X152895100Y-94640714D02*
X152971290Y-94659761D01*
X152971290Y-94659761D02*
X153066528Y-94659761D01*
X153066528Y-94659761D02*
X153142719Y-94640714D01*
X153142719Y-94640714D02*
X153180814Y-94621666D01*
X153180814Y-94621666D02*
X153199862Y-94602619D01*
X153199862Y-94602619D02*
X153218909Y-94564523D01*
X153218909Y-94564523D02*
X153218909Y-94526428D01*
X153218909Y-94526428D02*
X153199862Y-94488333D01*
X153199862Y-94488333D02*
X153180814Y-94469285D01*
X153180814Y-94469285D02*
X153142719Y-94450238D01*
X153142719Y-94450238D02*
X153066528Y-94431190D01*
X153066528Y-94431190D02*
X152971290Y-94431190D01*
X152971290Y-94431190D02*
X152895100Y-94450238D01*
X152895100Y-94450238D02*
X152857004Y-94469285D01*
X152857004Y-94469285D02*
X152837957Y-94488333D01*
X152837957Y-94488333D02*
X152818909Y-94526428D01*
X152952242Y-95002618D02*
X153218909Y-95002618D01*
X152952242Y-94831190D02*
X153161766Y-94831190D01*
X153161766Y-94831190D02*
X153199862Y-94850237D01*
X153199862Y-94850237D02*
X153218909Y-94888332D01*
X153218909Y-94888332D02*
X153218909Y-94945475D01*
X153218909Y-94945475D02*
X153199862Y-94983571D01*
X153199862Y-94983571D02*
X153180814Y-95002618D01*
X153009385Y-95326428D02*
X153009385Y-95193095D01*
X153218909Y-95193095D02*
X152818909Y-95193095D01*
X152818909Y-95193095D02*
X152818909Y-95383571D01*
X139031407Y-83333333D02*
X138840931Y-83200000D01*
X139031407Y-83104762D02*
X138631407Y-83104762D01*
X138631407Y-83104762D02*
X138631407Y-83257143D01*
X138631407Y-83257143D02*
X138650455Y-83295238D01*
X138650455Y-83295238D02*
X138669502Y-83314285D01*
X138669502Y-83314285D02*
X138707598Y-83333333D01*
X138707598Y-83333333D02*
X138764740Y-83333333D01*
X138764740Y-83333333D02*
X138802836Y-83314285D01*
X138802836Y-83314285D02*
X138821883Y-83295238D01*
X138821883Y-83295238D02*
X138840931Y-83257143D01*
X138840931Y-83257143D02*
X138840931Y-83104762D01*
X139069502Y-83409524D02*
X139069502Y-83714285D01*
X138631407Y-83771428D02*
X138631407Y-84019047D01*
X138631407Y-84019047D02*
X138783788Y-83885714D01*
X138783788Y-83885714D02*
X138783788Y-83942857D01*
X138783788Y-83942857D02*
X138802836Y-83980952D01*
X138802836Y-83980952D02*
X138821883Y-84000000D01*
X138821883Y-84000000D02*
X138859979Y-84019047D01*
X138859979Y-84019047D02*
X138955217Y-84019047D01*
X138955217Y-84019047D02*
X138993312Y-84000000D01*
X138993312Y-84000000D02*
X139012360Y-83980952D01*
X139012360Y-83980952D02*
X139031407Y-83942857D01*
X139031407Y-83942857D02*
X139031407Y-83828571D01*
X139031407Y-83828571D02*
X139012360Y-83790476D01*
X139012360Y-83790476D02*
X138993312Y-83771428D01*
X138993312Y-84190476D02*
X139012360Y-84209523D01*
X139012360Y-84209523D02*
X139031407Y-84190476D01*
X139031407Y-84190476D02*
X139012360Y-84171428D01*
X139012360Y-84171428D02*
X138993312Y-84190476D01*
X138993312Y-84190476D02*
X139031407Y-84190476D01*
X138631407Y-84342856D02*
X138631407Y-84590475D01*
X138631407Y-84590475D02*
X138783788Y-84457142D01*
X138783788Y-84457142D02*
X138783788Y-84514285D01*
X138783788Y-84514285D02*
X138802836Y-84552380D01*
X138802836Y-84552380D02*
X138821883Y-84571428D01*
X138821883Y-84571428D02*
X138859979Y-84590475D01*
X138859979Y-84590475D02*
X138955217Y-84590475D01*
X138955217Y-84590475D02*
X138993312Y-84571428D01*
X138993312Y-84571428D02*
X139012360Y-84552380D01*
X139012360Y-84552380D02*
X139031407Y-84514285D01*
X139031407Y-84514285D02*
X139031407Y-84399999D01*
X139031407Y-84399999D02*
X139012360Y-84361904D01*
X139012360Y-84361904D02*
X138993312Y-84342856D01*
X139031407Y-84761904D02*
X138631407Y-84761904D01*
X138879026Y-84799999D02*
X139031407Y-84914285D01*
X138764740Y-84914285D02*
X138917121Y-84761904D01*
X153180814Y-90847857D02*
X153199862Y-90828809D01*
X153199862Y-90828809D02*
X153218909Y-90771667D01*
X153218909Y-90771667D02*
X153218909Y-90733571D01*
X153218909Y-90733571D02*
X153199862Y-90676428D01*
X153199862Y-90676428D02*
X153161766Y-90638333D01*
X153161766Y-90638333D02*
X153123671Y-90619286D01*
X153123671Y-90619286D02*
X153047481Y-90600238D01*
X153047481Y-90600238D02*
X152990338Y-90600238D01*
X152990338Y-90600238D02*
X152914147Y-90619286D01*
X152914147Y-90619286D02*
X152876052Y-90638333D01*
X152876052Y-90638333D02*
X152837957Y-90676428D01*
X152837957Y-90676428D02*
X152818909Y-90733571D01*
X152818909Y-90733571D02*
X152818909Y-90771667D01*
X152818909Y-90771667D02*
X152837957Y-90828809D01*
X152837957Y-90828809D02*
X152857004Y-90847857D01*
X153257004Y-90924048D02*
X153257004Y-91228809D01*
X152818909Y-91400238D02*
X152818909Y-91438333D01*
X152818909Y-91438333D02*
X152837957Y-91476429D01*
X152837957Y-91476429D02*
X152857004Y-91495476D01*
X152857004Y-91495476D02*
X152895100Y-91514524D01*
X152895100Y-91514524D02*
X152971290Y-91533571D01*
X152971290Y-91533571D02*
X153066528Y-91533571D01*
X153066528Y-91533571D02*
X153142719Y-91514524D01*
X153142719Y-91514524D02*
X153180814Y-91495476D01*
X153180814Y-91495476D02*
X153199862Y-91476429D01*
X153199862Y-91476429D02*
X153218909Y-91438333D01*
X153218909Y-91438333D02*
X153218909Y-91400238D01*
X153218909Y-91400238D02*
X153199862Y-91362143D01*
X153199862Y-91362143D02*
X153180814Y-91343095D01*
X153180814Y-91343095D02*
X153142719Y-91324048D01*
X153142719Y-91324048D02*
X153066528Y-91305000D01*
X153066528Y-91305000D02*
X152971290Y-91305000D01*
X152971290Y-91305000D02*
X152895100Y-91324048D01*
X152895100Y-91324048D02*
X152857004Y-91343095D01*
X152857004Y-91343095D02*
X152837957Y-91362143D01*
X152837957Y-91362143D02*
X152818909Y-91400238D01*
X153180814Y-91705000D02*
X153199862Y-91724047D01*
X153199862Y-91724047D02*
X153218909Y-91705000D01*
X153218909Y-91705000D02*
X153199862Y-91685952D01*
X153199862Y-91685952D02*
X153180814Y-91705000D01*
X153180814Y-91705000D02*
X153218909Y-91705000D01*
X153218909Y-92104999D02*
X153218909Y-91876428D01*
X153218909Y-91990714D02*
X152818909Y-91990714D01*
X152818909Y-91990714D02*
X152876052Y-91952618D01*
X152876052Y-91952618D02*
X152914147Y-91914523D01*
X152914147Y-91914523D02*
X152933195Y-91876428D01*
X152952242Y-92447856D02*
X153218909Y-92447856D01*
X152952242Y-92276428D02*
X153161766Y-92276428D01*
X153161766Y-92276428D02*
X153199862Y-92295475D01*
X153199862Y-92295475D02*
X153218909Y-92333570D01*
X153218909Y-92333570D02*
X153218909Y-92390713D01*
X153218909Y-92390713D02*
X153199862Y-92428809D01*
X153199862Y-92428809D02*
X153180814Y-92447856D01*
X153009385Y-92771666D02*
X153009385Y-92638333D01*
X153218909Y-92638333D02*
X152818909Y-92638333D01*
X152818909Y-92638333D02*
X152818909Y-92828809D01*
D11*
X127179847Y-103200000D02*
X126989371Y-103066667D01*
X127179847Y-102971429D02*
X126779847Y-102971429D01*
X126779847Y-102971429D02*
X126779847Y-103123810D01*
X126779847Y-103123810D02*
X126798895Y-103161905D01*
X126798895Y-103161905D02*
X126817942Y-103180952D01*
X126817942Y-103180952D02*
X126856038Y-103200000D01*
X126856038Y-103200000D02*
X126913180Y-103200000D01*
X126913180Y-103200000D02*
X126951276Y-103180952D01*
X126951276Y-103180952D02*
X126970323Y-103161905D01*
X126970323Y-103161905D02*
X126989371Y-103123810D01*
X126989371Y-103123810D02*
X126989371Y-102971429D01*
X127217942Y-103276191D02*
X127217942Y-103580952D01*
X126779847Y-103866667D02*
X126779847Y-103676191D01*
X126779847Y-103676191D02*
X126970323Y-103657143D01*
X126970323Y-103657143D02*
X126951276Y-103676191D01*
X126951276Y-103676191D02*
X126932228Y-103714286D01*
X126932228Y-103714286D02*
X126932228Y-103809524D01*
X126932228Y-103809524D02*
X126951276Y-103847619D01*
X126951276Y-103847619D02*
X126970323Y-103866667D01*
X126970323Y-103866667D02*
X127008419Y-103885714D01*
X127008419Y-103885714D02*
X127103657Y-103885714D01*
X127103657Y-103885714D02*
X127141752Y-103866667D01*
X127141752Y-103866667D02*
X127160800Y-103847619D01*
X127160800Y-103847619D02*
X127179847Y-103809524D01*
X127179847Y-103809524D02*
X127179847Y-103714286D01*
X127179847Y-103714286D02*
X127160800Y-103676191D01*
X127160800Y-103676191D02*
X127141752Y-103657143D01*
X126779847Y-104133333D02*
X126779847Y-104171428D01*
X126779847Y-104171428D02*
X126798895Y-104209524D01*
X126798895Y-104209524D02*
X126817942Y-104228571D01*
X126817942Y-104228571D02*
X126856038Y-104247619D01*
X126856038Y-104247619D02*
X126932228Y-104266666D01*
X126932228Y-104266666D02*
X127027466Y-104266666D01*
X127027466Y-104266666D02*
X127103657Y-104247619D01*
X127103657Y-104247619D02*
X127141752Y-104228571D01*
X127141752Y-104228571D02*
X127160800Y-104209524D01*
X127160800Y-104209524D02*
X127179847Y-104171428D01*
X127179847Y-104171428D02*
X127179847Y-104133333D01*
X127179847Y-104133333D02*
X127160800Y-104095238D01*
X127160800Y-104095238D02*
X127141752Y-104076190D01*
X127141752Y-104076190D02*
X127103657Y-104057143D01*
X127103657Y-104057143D02*
X127027466Y-104038095D01*
X127027466Y-104038095D02*
X126932228Y-104038095D01*
X126932228Y-104038095D02*
X126856038Y-104057143D01*
X126856038Y-104057143D02*
X126817942Y-104076190D01*
X126817942Y-104076190D02*
X126798895Y-104095238D01*
X126798895Y-104095238D02*
X126779847Y-104133333D01*
X126779847Y-104514285D02*
X126779847Y-104552380D01*
X126779847Y-104552380D02*
X126798895Y-104590476D01*
X126798895Y-104590476D02*
X126817942Y-104609523D01*
X126817942Y-104609523D02*
X126856038Y-104628571D01*
X126856038Y-104628571D02*
X126932228Y-104647618D01*
X126932228Y-104647618D02*
X127027466Y-104647618D01*
X127027466Y-104647618D02*
X127103657Y-104628571D01*
X127103657Y-104628571D02*
X127141752Y-104609523D01*
X127141752Y-104609523D02*
X127160800Y-104590476D01*
X127160800Y-104590476D02*
X127179847Y-104552380D01*
X127179847Y-104552380D02*
X127179847Y-104514285D01*
X127179847Y-104514285D02*
X127160800Y-104476190D01*
X127160800Y-104476190D02*
X127141752Y-104457142D01*
X127141752Y-104457142D02*
X127103657Y-104438095D01*
X127103657Y-104438095D02*
X127027466Y-104419047D01*
X127027466Y-104419047D02*
X126932228Y-104419047D01*
X126932228Y-104419047D02*
X126856038Y-104438095D01*
X126856038Y-104438095D02*
X126817942Y-104457142D01*
X126817942Y-104457142D02*
X126798895Y-104476190D01*
X126798895Y-104476190D02*
X126779847Y-104514285D01*
D13*
X143816430Y-99663201D02*
X143816430Y-99329460D01*
X143816430Y-99329460D02*
X143115574Y-99329460D01*
X143783056Y-100163813D02*
X143816430Y-100097065D01*
X143816430Y-100097065D02*
X143816430Y-99963568D01*
X143816430Y-99963568D02*
X143783056Y-99896820D01*
X143783056Y-99896820D02*
X143716307Y-99863446D01*
X143716307Y-99863446D02*
X143449315Y-99863446D01*
X143449315Y-99863446D02*
X143382566Y-99896820D01*
X143382566Y-99896820D02*
X143349192Y-99963568D01*
X143349192Y-99963568D02*
X143349192Y-100097065D01*
X143349192Y-100097065D02*
X143382566Y-100163813D01*
X143382566Y-100163813D02*
X143449315Y-100197187D01*
X143449315Y-100197187D02*
X143516063Y-100197187D01*
X143516063Y-100197187D02*
X143582811Y-99863446D01*
X143349192Y-100430806D02*
X143816430Y-100597676D01*
X143816430Y-100597676D02*
X143349192Y-100764547D01*
X143783056Y-101298533D02*
X143816430Y-101231785D01*
X143816430Y-101231785D02*
X143816430Y-101098288D01*
X143816430Y-101098288D02*
X143783056Y-101031540D01*
X143783056Y-101031540D02*
X143716307Y-100998166D01*
X143716307Y-100998166D02*
X143449315Y-100998166D01*
X143449315Y-100998166D02*
X143382566Y-101031540D01*
X143382566Y-101031540D02*
X143349192Y-101098288D01*
X143349192Y-101098288D02*
X143349192Y-101231785D01*
X143349192Y-101231785D02*
X143382566Y-101298533D01*
X143382566Y-101298533D02*
X143449315Y-101331907D01*
X143449315Y-101331907D02*
X143516063Y-101331907D01*
X143516063Y-101331907D02*
X143582811Y-100998166D01*
X143816430Y-101732396D02*
X143783056Y-101665648D01*
X143783056Y-101665648D02*
X143716307Y-101632274D01*
X143716307Y-101632274D02*
X143115574Y-101632274D01*
X143883178Y-101832519D02*
X143883178Y-102366504D01*
X143783056Y-102500001D02*
X143816430Y-102600123D01*
X143816430Y-102600123D02*
X143816430Y-102766994D01*
X143816430Y-102766994D02*
X143783056Y-102833742D01*
X143783056Y-102833742D02*
X143749681Y-102867116D01*
X143749681Y-102867116D02*
X143682933Y-102900490D01*
X143682933Y-102900490D02*
X143616185Y-102900490D01*
X143616185Y-102900490D02*
X143549437Y-102867116D01*
X143549437Y-102867116D02*
X143516063Y-102833742D01*
X143516063Y-102833742D02*
X143482689Y-102766994D01*
X143482689Y-102766994D02*
X143449315Y-102633497D01*
X143449315Y-102633497D02*
X143415940Y-102566749D01*
X143415940Y-102566749D02*
X143382566Y-102533375D01*
X143382566Y-102533375D02*
X143315818Y-102500001D01*
X143315818Y-102500001D02*
X143249070Y-102500001D01*
X143249070Y-102500001D02*
X143182322Y-102533375D01*
X143182322Y-102533375D02*
X143148948Y-102566749D01*
X143148948Y-102566749D02*
X143115574Y-102633497D01*
X143115574Y-102633497D02*
X143115574Y-102800368D01*
X143115574Y-102800368D02*
X143148948Y-102900490D01*
X143816430Y-103200857D02*
X143115574Y-103200857D01*
X143816430Y-103501224D02*
X143449315Y-103501224D01*
X143449315Y-103501224D02*
X143382566Y-103467850D01*
X143382566Y-103467850D02*
X143349192Y-103401102D01*
X143349192Y-103401102D02*
X143349192Y-103300979D01*
X143349192Y-103300979D02*
X143382566Y-103234231D01*
X143382566Y-103234231D02*
X143415940Y-103200857D01*
X143816430Y-103834965D02*
X143349192Y-103834965D01*
X143115574Y-103834965D02*
X143148948Y-103801591D01*
X143148948Y-103801591D02*
X143182322Y-103834965D01*
X143182322Y-103834965D02*
X143148948Y-103868339D01*
X143148948Y-103868339D02*
X143115574Y-103834965D01*
X143115574Y-103834965D02*
X143182322Y-103834965D01*
X143349192Y-104068584D02*
X143349192Y-104335576D01*
X143816430Y-104168706D02*
X143215696Y-104168706D01*
X143215696Y-104168706D02*
X143148948Y-104202080D01*
X143148948Y-104202080D02*
X143115574Y-104268828D01*
X143115574Y-104268828D02*
X143115574Y-104335576D01*
X143349192Y-104469073D02*
X143349192Y-104736065D01*
X143115574Y-104569195D02*
X143716307Y-104569195D01*
X143716307Y-104569195D02*
X143783056Y-104602569D01*
X143783056Y-104602569D02*
X143816430Y-104669317D01*
X143816430Y-104669317D02*
X143816430Y-104736065D01*
X143783056Y-105236677D02*
X143816430Y-105169929D01*
X143816430Y-105169929D02*
X143816430Y-105036432D01*
X143816430Y-105036432D02*
X143783056Y-104969684D01*
X143783056Y-104969684D02*
X143716307Y-104936310D01*
X143716307Y-104936310D02*
X143449315Y-104936310D01*
X143449315Y-104936310D02*
X143382566Y-104969684D01*
X143382566Y-104969684D02*
X143349192Y-105036432D01*
X143349192Y-105036432D02*
X143349192Y-105169929D01*
X143349192Y-105169929D02*
X143382566Y-105236677D01*
X143382566Y-105236677D02*
X143449315Y-105270051D01*
X143449315Y-105270051D02*
X143516063Y-105270051D01*
X143516063Y-105270051D02*
X143582811Y-104936310D01*
X143816430Y-105570418D02*
X143349192Y-105570418D01*
X143482689Y-105570418D02*
X143415940Y-105603792D01*
X143415940Y-105603792D02*
X143382566Y-105637166D01*
X143382566Y-105637166D02*
X143349192Y-105703914D01*
X143349192Y-105703914D02*
X143349192Y-105770663D01*
D12*
X153105812Y-87788095D02*
X153124860Y-87769047D01*
X153124860Y-87769047D02*
X153143907Y-87711905D01*
X153143907Y-87711905D02*
X153143907Y-87673809D01*
X153143907Y-87673809D02*
X153124860Y-87616666D01*
X153124860Y-87616666D02*
X153086764Y-87578571D01*
X153086764Y-87578571D02*
X153048669Y-87559524D01*
X153048669Y-87559524D02*
X152972479Y-87540476D01*
X152972479Y-87540476D02*
X152915336Y-87540476D01*
X152915336Y-87540476D02*
X152839145Y-87559524D01*
X152839145Y-87559524D02*
X152801050Y-87578571D01*
X152801050Y-87578571D02*
X152762955Y-87616666D01*
X152762955Y-87616666D02*
X152743907Y-87673809D01*
X152743907Y-87673809D02*
X152743907Y-87711905D01*
X152743907Y-87711905D02*
X152762955Y-87769047D01*
X152762955Y-87769047D02*
X152782002Y-87788095D01*
X153182002Y-87864286D02*
X153182002Y-88169047D01*
X152743907Y-88454762D02*
X152743907Y-88264286D01*
X152743907Y-88264286D02*
X152934383Y-88245238D01*
X152934383Y-88245238D02*
X152915336Y-88264286D01*
X152915336Y-88264286D02*
X152896288Y-88302381D01*
X152896288Y-88302381D02*
X152896288Y-88397619D01*
X152896288Y-88397619D02*
X152915336Y-88435714D01*
X152915336Y-88435714D02*
X152934383Y-88454762D01*
X152934383Y-88454762D02*
X152972479Y-88473809D01*
X152972479Y-88473809D02*
X153067717Y-88473809D01*
X153067717Y-88473809D02*
X153105812Y-88454762D01*
X153105812Y-88454762D02*
X153124860Y-88435714D01*
X153124860Y-88435714D02*
X153143907Y-88397619D01*
X153143907Y-88397619D02*
X153143907Y-88302381D01*
X153143907Y-88302381D02*
X153124860Y-88264286D01*
X153124860Y-88264286D02*
X153105812Y-88245238D01*
X152743907Y-88721428D02*
X152743907Y-88759523D01*
X152743907Y-88759523D02*
X152762955Y-88797619D01*
X152762955Y-88797619D02*
X152782002Y-88816666D01*
X152782002Y-88816666D02*
X152820098Y-88835714D01*
X152820098Y-88835714D02*
X152896288Y-88854761D01*
X152896288Y-88854761D02*
X152991526Y-88854761D01*
X152991526Y-88854761D02*
X153067717Y-88835714D01*
X153067717Y-88835714D02*
X153105812Y-88816666D01*
X153105812Y-88816666D02*
X153124860Y-88797619D01*
X153124860Y-88797619D02*
X153143907Y-88759523D01*
X153143907Y-88759523D02*
X153143907Y-88721428D01*
X153143907Y-88721428D02*
X153124860Y-88683333D01*
X153124860Y-88683333D02*
X153105812Y-88664285D01*
X153105812Y-88664285D02*
X153067717Y-88645238D01*
X153067717Y-88645238D02*
X152991526Y-88626190D01*
X152991526Y-88626190D02*
X152896288Y-88626190D01*
X152896288Y-88626190D02*
X152820098Y-88645238D01*
X152820098Y-88645238D02*
X152782002Y-88664285D01*
X152782002Y-88664285D02*
X152762955Y-88683333D01*
X152762955Y-88683333D02*
X152743907Y-88721428D01*
X152877240Y-89197618D02*
X153143907Y-89197618D01*
X152877240Y-89026190D02*
X153086764Y-89026190D01*
X153086764Y-89026190D02*
X153124860Y-89045237D01*
X153124860Y-89045237D02*
X153143907Y-89083332D01*
X153143907Y-89083332D02*
X153143907Y-89140475D01*
X153143907Y-89140475D02*
X153124860Y-89178571D01*
X153124860Y-89178571D02*
X153105812Y-89197618D01*
X152934383Y-89521428D02*
X152934383Y-89388095D01*
X153143907Y-89388095D02*
X152743907Y-89388095D01*
X152743907Y-89388095D02*
X152743907Y-89578571D01*
D11*
X127179847Y-106000000D02*
X126989371Y-105866667D01*
X127179847Y-105771429D02*
X126779847Y-105771429D01*
X126779847Y-105771429D02*
X126779847Y-105923810D01*
X126779847Y-105923810D02*
X126798895Y-105961905D01*
X126798895Y-105961905D02*
X126817942Y-105980952D01*
X126817942Y-105980952D02*
X126856038Y-106000000D01*
X126856038Y-106000000D02*
X126913180Y-106000000D01*
X126913180Y-106000000D02*
X126951276Y-105980952D01*
X126951276Y-105980952D02*
X126970323Y-105961905D01*
X126970323Y-105961905D02*
X126989371Y-105923810D01*
X126989371Y-105923810D02*
X126989371Y-105771429D01*
X127217942Y-106076191D02*
X127217942Y-106380952D01*
X126779847Y-106666667D02*
X126779847Y-106476191D01*
X126779847Y-106476191D02*
X126970323Y-106457143D01*
X126970323Y-106457143D02*
X126951276Y-106476191D01*
X126951276Y-106476191D02*
X126932228Y-106514286D01*
X126932228Y-106514286D02*
X126932228Y-106609524D01*
X126932228Y-106609524D02*
X126951276Y-106647619D01*
X126951276Y-106647619D02*
X126970323Y-106666667D01*
X126970323Y-106666667D02*
X127008419Y-106685714D01*
X127008419Y-106685714D02*
X127103657Y-106685714D01*
X127103657Y-106685714D02*
X127141752Y-106666667D01*
X127141752Y-106666667D02*
X127160800Y-106647619D01*
X127160800Y-106647619D02*
X127179847Y-106609524D01*
X127179847Y-106609524D02*
X127179847Y-106514286D01*
X127179847Y-106514286D02*
X127160800Y-106476191D01*
X127160800Y-106476191D02*
X127141752Y-106457143D01*
X126779847Y-106933333D02*
X126779847Y-106971428D01*
X126779847Y-106971428D02*
X126798895Y-107009524D01*
X126798895Y-107009524D02*
X126817942Y-107028571D01*
X126817942Y-107028571D02*
X126856038Y-107047619D01*
X126856038Y-107047619D02*
X126932228Y-107066666D01*
X126932228Y-107066666D02*
X127027466Y-107066666D01*
X127027466Y-107066666D02*
X127103657Y-107047619D01*
X127103657Y-107047619D02*
X127141752Y-107028571D01*
X127141752Y-107028571D02*
X127160800Y-107009524D01*
X127160800Y-107009524D02*
X127179847Y-106971428D01*
X127179847Y-106971428D02*
X127179847Y-106933333D01*
X127179847Y-106933333D02*
X127160800Y-106895238D01*
X127160800Y-106895238D02*
X127141752Y-106876190D01*
X127141752Y-106876190D02*
X127103657Y-106857143D01*
X127103657Y-106857143D02*
X127027466Y-106838095D01*
X127027466Y-106838095D02*
X126932228Y-106838095D01*
X126932228Y-106838095D02*
X126856038Y-106857143D01*
X126856038Y-106857143D02*
X126817942Y-106876190D01*
X126817942Y-106876190D02*
X126798895Y-106895238D01*
X126798895Y-106895238D02*
X126779847Y-106933333D01*
X126779847Y-107314285D02*
X126779847Y-107352380D01*
X126779847Y-107352380D02*
X126798895Y-107390476D01*
X126798895Y-107390476D02*
X126817942Y-107409523D01*
X126817942Y-107409523D02*
X126856038Y-107428571D01*
X126856038Y-107428571D02*
X126932228Y-107447618D01*
X126932228Y-107447618D02*
X127027466Y-107447618D01*
X127027466Y-107447618D02*
X127103657Y-107428571D01*
X127103657Y-107428571D02*
X127141752Y-107409523D01*
X127141752Y-107409523D02*
X127160800Y-107390476D01*
X127160800Y-107390476D02*
X127179847Y-107352380D01*
X127179847Y-107352380D02*
X127179847Y-107314285D01*
X127179847Y-107314285D02*
X127160800Y-107276190D01*
X127160800Y-107276190D02*
X127141752Y-107257142D01*
X127141752Y-107257142D02*
X127103657Y-107238095D01*
X127103657Y-107238095D02*
X127027466Y-107219047D01*
X127027466Y-107219047D02*
X126932228Y-107219047D01*
X126932228Y-107219047D02*
X126856038Y-107238095D01*
X126856038Y-107238095D02*
X126817942Y-107257142D01*
X126817942Y-107257142D02*
X126798895Y-107276190D01*
X126798895Y-107276190D02*
X126779847Y-107314285D01*
X127179847Y-89400000D02*
X126989371Y-89266667D01*
X127179847Y-89171429D02*
X126779847Y-89171429D01*
X126779847Y-89171429D02*
X126779847Y-89323810D01*
X126779847Y-89323810D02*
X126798895Y-89361905D01*
X126798895Y-89361905D02*
X126817942Y-89380952D01*
X126817942Y-89380952D02*
X126856038Y-89400000D01*
X126856038Y-89400000D02*
X126913180Y-89400000D01*
X126913180Y-89400000D02*
X126951276Y-89380952D01*
X126951276Y-89380952D02*
X126970323Y-89361905D01*
X126970323Y-89361905D02*
X126989371Y-89323810D01*
X126989371Y-89323810D02*
X126989371Y-89171429D01*
X127217942Y-89476191D02*
X127217942Y-89780952D01*
X126779847Y-90066667D02*
X126779847Y-89876191D01*
X126779847Y-89876191D02*
X126970323Y-89857143D01*
X126970323Y-89857143D02*
X126951276Y-89876191D01*
X126951276Y-89876191D02*
X126932228Y-89914286D01*
X126932228Y-89914286D02*
X126932228Y-90009524D01*
X126932228Y-90009524D02*
X126951276Y-90047619D01*
X126951276Y-90047619D02*
X126970323Y-90066667D01*
X126970323Y-90066667D02*
X127008419Y-90085714D01*
X127008419Y-90085714D02*
X127103657Y-90085714D01*
X127103657Y-90085714D02*
X127141752Y-90066667D01*
X127141752Y-90066667D02*
X127160800Y-90047619D01*
X127160800Y-90047619D02*
X127179847Y-90009524D01*
X127179847Y-90009524D02*
X127179847Y-89914286D01*
X127179847Y-89914286D02*
X127160800Y-89876191D01*
X127160800Y-89876191D02*
X127141752Y-89857143D01*
X126779847Y-90333333D02*
X126779847Y-90371428D01*
X126779847Y-90371428D02*
X126798895Y-90409524D01*
X126798895Y-90409524D02*
X126817942Y-90428571D01*
X126817942Y-90428571D02*
X126856038Y-90447619D01*
X126856038Y-90447619D02*
X126932228Y-90466666D01*
X126932228Y-90466666D02*
X127027466Y-90466666D01*
X127027466Y-90466666D02*
X127103657Y-90447619D01*
X127103657Y-90447619D02*
X127141752Y-90428571D01*
X127141752Y-90428571D02*
X127160800Y-90409524D01*
X127160800Y-90409524D02*
X127179847Y-90371428D01*
X127179847Y-90371428D02*
X127179847Y-90333333D01*
X127179847Y-90333333D02*
X127160800Y-90295238D01*
X127160800Y-90295238D02*
X127141752Y-90276190D01*
X127141752Y-90276190D02*
X127103657Y-90257143D01*
X127103657Y-90257143D02*
X127027466Y-90238095D01*
X127027466Y-90238095D02*
X126932228Y-90238095D01*
X126932228Y-90238095D02*
X126856038Y-90257143D01*
X126856038Y-90257143D02*
X126817942Y-90276190D01*
X126817942Y-90276190D02*
X126798895Y-90295238D01*
X126798895Y-90295238D02*
X126779847Y-90333333D01*
X126779847Y-90714285D02*
X126779847Y-90752380D01*
X126779847Y-90752380D02*
X126798895Y-90790476D01*
X126798895Y-90790476D02*
X126817942Y-90809523D01*
X126817942Y-90809523D02*
X126856038Y-90828571D01*
X126856038Y-90828571D02*
X126932228Y-90847618D01*
X126932228Y-90847618D02*
X127027466Y-90847618D01*
X127027466Y-90847618D02*
X127103657Y-90828571D01*
X127103657Y-90828571D02*
X127141752Y-90809523D01*
X127141752Y-90809523D02*
X127160800Y-90790476D01*
X127160800Y-90790476D02*
X127179847Y-90752380D01*
X127179847Y-90752380D02*
X127179847Y-90714285D01*
X127179847Y-90714285D02*
X127160800Y-90676190D01*
X127160800Y-90676190D02*
X127141752Y-90657142D01*
X127141752Y-90657142D02*
X127103657Y-90638095D01*
X127103657Y-90638095D02*
X127027466Y-90619047D01*
X127027466Y-90619047D02*
X126932228Y-90619047D01*
X126932228Y-90619047D02*
X126856038Y-90638095D01*
X126856038Y-90638095D02*
X126817942Y-90657142D01*
X126817942Y-90657142D02*
X126798895Y-90676190D01*
X126798895Y-90676190D02*
X126779847Y-90714285D01*
D12*
X172505206Y-87828571D02*
X172314730Y-87695238D01*
X172505206Y-87600000D02*
X172105206Y-87600000D01*
X172105206Y-87600000D02*
X172105206Y-87752381D01*
X172105206Y-87752381D02*
X172124254Y-87790476D01*
X172124254Y-87790476D02*
X172143301Y-87809523D01*
X172143301Y-87809523D02*
X172181397Y-87828571D01*
X172181397Y-87828571D02*
X172238539Y-87828571D01*
X172238539Y-87828571D02*
X172276635Y-87809523D01*
X172276635Y-87809523D02*
X172295682Y-87790476D01*
X172295682Y-87790476D02*
X172314730Y-87752381D01*
X172314730Y-87752381D02*
X172314730Y-87600000D01*
X172543301Y-87904762D02*
X172543301Y-88209523D01*
X172505206Y-88514285D02*
X172505206Y-88285714D01*
X172505206Y-88400000D02*
X172105206Y-88400000D01*
X172105206Y-88400000D02*
X172162349Y-88361904D01*
X172162349Y-88361904D02*
X172200444Y-88323809D01*
X172200444Y-88323809D02*
X172219492Y-88285714D01*
X172276635Y-88742856D02*
X172257587Y-88704761D01*
X172257587Y-88704761D02*
X172238539Y-88685714D01*
X172238539Y-88685714D02*
X172200444Y-88666666D01*
X172200444Y-88666666D02*
X172181397Y-88666666D01*
X172181397Y-88666666D02*
X172143301Y-88685714D01*
X172143301Y-88685714D02*
X172124254Y-88704761D01*
X172124254Y-88704761D02*
X172105206Y-88742856D01*
X172105206Y-88742856D02*
X172105206Y-88819047D01*
X172105206Y-88819047D02*
X172124254Y-88857142D01*
X172124254Y-88857142D02*
X172143301Y-88876190D01*
X172143301Y-88876190D02*
X172181397Y-88895237D01*
X172181397Y-88895237D02*
X172200444Y-88895237D01*
X172200444Y-88895237D02*
X172238539Y-88876190D01*
X172238539Y-88876190D02*
X172257587Y-88857142D01*
X172257587Y-88857142D02*
X172276635Y-88819047D01*
X172276635Y-88819047D02*
X172276635Y-88742856D01*
X172276635Y-88742856D02*
X172295682Y-88704761D01*
X172295682Y-88704761D02*
X172314730Y-88685714D01*
X172314730Y-88685714D02*
X172352825Y-88666666D01*
X172352825Y-88666666D02*
X172429016Y-88666666D01*
X172429016Y-88666666D02*
X172467111Y-88685714D01*
X172467111Y-88685714D02*
X172486159Y-88704761D01*
X172486159Y-88704761D02*
X172505206Y-88742856D01*
X172505206Y-88742856D02*
X172505206Y-88819047D01*
X172505206Y-88819047D02*
X172486159Y-88857142D01*
X172486159Y-88857142D02*
X172467111Y-88876190D01*
X172467111Y-88876190D02*
X172429016Y-88895237D01*
X172429016Y-88895237D02*
X172352825Y-88895237D01*
X172352825Y-88895237D02*
X172314730Y-88876190D01*
X172314730Y-88876190D02*
X172295682Y-88857142D01*
X172295682Y-88857142D02*
X172276635Y-88819047D01*
X172505206Y-89066666D02*
X172105206Y-89066666D01*
X172352825Y-89104761D02*
X172505206Y-89219047D01*
X172238539Y-89219047D02*
X172390920Y-89066666D01*
D11*
X127179847Y-94900000D02*
X126989371Y-94766667D01*
X127179847Y-94671429D02*
X126779847Y-94671429D01*
X126779847Y-94671429D02*
X126779847Y-94823810D01*
X126779847Y-94823810D02*
X126798895Y-94861905D01*
X126798895Y-94861905D02*
X126817942Y-94880952D01*
X126817942Y-94880952D02*
X126856038Y-94900000D01*
X126856038Y-94900000D02*
X126913180Y-94900000D01*
X126913180Y-94900000D02*
X126951276Y-94880952D01*
X126951276Y-94880952D02*
X126970323Y-94861905D01*
X126970323Y-94861905D02*
X126989371Y-94823810D01*
X126989371Y-94823810D02*
X126989371Y-94671429D01*
X127217942Y-94976191D02*
X127217942Y-95280952D01*
X126779847Y-95566667D02*
X126779847Y-95376191D01*
X126779847Y-95376191D02*
X126970323Y-95357143D01*
X126970323Y-95357143D02*
X126951276Y-95376191D01*
X126951276Y-95376191D02*
X126932228Y-95414286D01*
X126932228Y-95414286D02*
X126932228Y-95509524D01*
X126932228Y-95509524D02*
X126951276Y-95547619D01*
X126951276Y-95547619D02*
X126970323Y-95566667D01*
X126970323Y-95566667D02*
X127008419Y-95585714D01*
X127008419Y-95585714D02*
X127103657Y-95585714D01*
X127103657Y-95585714D02*
X127141752Y-95566667D01*
X127141752Y-95566667D02*
X127160800Y-95547619D01*
X127160800Y-95547619D02*
X127179847Y-95509524D01*
X127179847Y-95509524D02*
X127179847Y-95414286D01*
X127179847Y-95414286D02*
X127160800Y-95376191D01*
X127160800Y-95376191D02*
X127141752Y-95357143D01*
X126779847Y-95833333D02*
X126779847Y-95871428D01*
X126779847Y-95871428D02*
X126798895Y-95909524D01*
X126798895Y-95909524D02*
X126817942Y-95928571D01*
X126817942Y-95928571D02*
X126856038Y-95947619D01*
X126856038Y-95947619D02*
X126932228Y-95966666D01*
X126932228Y-95966666D02*
X127027466Y-95966666D01*
X127027466Y-95966666D02*
X127103657Y-95947619D01*
X127103657Y-95947619D02*
X127141752Y-95928571D01*
X127141752Y-95928571D02*
X127160800Y-95909524D01*
X127160800Y-95909524D02*
X127179847Y-95871428D01*
X127179847Y-95871428D02*
X127179847Y-95833333D01*
X127179847Y-95833333D02*
X127160800Y-95795238D01*
X127160800Y-95795238D02*
X127141752Y-95776190D01*
X127141752Y-95776190D02*
X127103657Y-95757143D01*
X127103657Y-95757143D02*
X127027466Y-95738095D01*
X127027466Y-95738095D02*
X126932228Y-95738095D01*
X126932228Y-95738095D02*
X126856038Y-95757143D01*
X126856038Y-95757143D02*
X126817942Y-95776190D01*
X126817942Y-95776190D02*
X126798895Y-95795238D01*
X126798895Y-95795238D02*
X126779847Y-95833333D01*
X126779847Y-96214285D02*
X126779847Y-96252380D01*
X126779847Y-96252380D02*
X126798895Y-96290476D01*
X126798895Y-96290476D02*
X126817942Y-96309523D01*
X126817942Y-96309523D02*
X126856038Y-96328571D01*
X126856038Y-96328571D02*
X126932228Y-96347618D01*
X126932228Y-96347618D02*
X127027466Y-96347618D01*
X127027466Y-96347618D02*
X127103657Y-96328571D01*
X127103657Y-96328571D02*
X127141752Y-96309523D01*
X127141752Y-96309523D02*
X127160800Y-96290476D01*
X127160800Y-96290476D02*
X127179847Y-96252380D01*
X127179847Y-96252380D02*
X127179847Y-96214285D01*
X127179847Y-96214285D02*
X127160800Y-96176190D01*
X127160800Y-96176190D02*
X127141752Y-96157142D01*
X127141752Y-96157142D02*
X127103657Y-96138095D01*
X127103657Y-96138095D02*
X127027466Y-96119047D01*
X127027466Y-96119047D02*
X126932228Y-96119047D01*
X126932228Y-96119047D02*
X126856038Y-96138095D01*
X126856038Y-96138095D02*
X126817942Y-96157142D01*
X126817942Y-96157142D02*
X126798895Y-96176190D01*
X126798895Y-96176190D02*
X126779847Y-96214285D01*
X127179847Y-81150000D02*
X126989371Y-81016667D01*
X127179847Y-80921429D02*
X126779847Y-80921429D01*
X126779847Y-80921429D02*
X126779847Y-81073810D01*
X126779847Y-81073810D02*
X126798895Y-81111905D01*
X126798895Y-81111905D02*
X126817942Y-81130952D01*
X126817942Y-81130952D02*
X126856038Y-81150000D01*
X126856038Y-81150000D02*
X126913180Y-81150000D01*
X126913180Y-81150000D02*
X126951276Y-81130952D01*
X126951276Y-81130952D02*
X126970323Y-81111905D01*
X126970323Y-81111905D02*
X126989371Y-81073810D01*
X126989371Y-81073810D02*
X126989371Y-80921429D01*
X127217942Y-81226191D02*
X127217942Y-81530952D01*
X126779847Y-81816667D02*
X126779847Y-81626191D01*
X126779847Y-81626191D02*
X126970323Y-81607143D01*
X126970323Y-81607143D02*
X126951276Y-81626191D01*
X126951276Y-81626191D02*
X126932228Y-81664286D01*
X126932228Y-81664286D02*
X126932228Y-81759524D01*
X126932228Y-81759524D02*
X126951276Y-81797619D01*
X126951276Y-81797619D02*
X126970323Y-81816667D01*
X126970323Y-81816667D02*
X127008419Y-81835714D01*
X127008419Y-81835714D02*
X127103657Y-81835714D01*
X127103657Y-81835714D02*
X127141752Y-81816667D01*
X127141752Y-81816667D02*
X127160800Y-81797619D01*
X127160800Y-81797619D02*
X127179847Y-81759524D01*
X127179847Y-81759524D02*
X127179847Y-81664286D01*
X127179847Y-81664286D02*
X127160800Y-81626191D01*
X127160800Y-81626191D02*
X127141752Y-81607143D01*
X126779847Y-82083333D02*
X126779847Y-82121428D01*
X126779847Y-82121428D02*
X126798895Y-82159524D01*
X126798895Y-82159524D02*
X126817942Y-82178571D01*
X126817942Y-82178571D02*
X126856038Y-82197619D01*
X126856038Y-82197619D02*
X126932228Y-82216666D01*
X126932228Y-82216666D02*
X127027466Y-82216666D01*
X127027466Y-82216666D02*
X127103657Y-82197619D01*
X127103657Y-82197619D02*
X127141752Y-82178571D01*
X127141752Y-82178571D02*
X127160800Y-82159524D01*
X127160800Y-82159524D02*
X127179847Y-82121428D01*
X127179847Y-82121428D02*
X127179847Y-82083333D01*
X127179847Y-82083333D02*
X127160800Y-82045238D01*
X127160800Y-82045238D02*
X127141752Y-82026190D01*
X127141752Y-82026190D02*
X127103657Y-82007143D01*
X127103657Y-82007143D02*
X127027466Y-81988095D01*
X127027466Y-81988095D02*
X126932228Y-81988095D01*
X126932228Y-81988095D02*
X126856038Y-82007143D01*
X126856038Y-82007143D02*
X126817942Y-82026190D01*
X126817942Y-82026190D02*
X126798895Y-82045238D01*
X126798895Y-82045238D02*
X126779847Y-82083333D01*
X126779847Y-82464285D02*
X126779847Y-82502380D01*
X126779847Y-82502380D02*
X126798895Y-82540476D01*
X126798895Y-82540476D02*
X126817942Y-82559523D01*
X126817942Y-82559523D02*
X126856038Y-82578571D01*
X126856038Y-82578571D02*
X126932228Y-82597618D01*
X126932228Y-82597618D02*
X127027466Y-82597618D01*
X127027466Y-82597618D02*
X127103657Y-82578571D01*
X127103657Y-82578571D02*
X127141752Y-82559523D01*
X127141752Y-82559523D02*
X127160800Y-82540476D01*
X127160800Y-82540476D02*
X127179847Y-82502380D01*
X127179847Y-82502380D02*
X127179847Y-82464285D01*
X127179847Y-82464285D02*
X127160800Y-82426190D01*
X127160800Y-82426190D02*
X127141752Y-82407142D01*
X127141752Y-82407142D02*
X127103657Y-82388095D01*
X127103657Y-82388095D02*
X127027466Y-82369047D01*
X127027466Y-82369047D02*
X126932228Y-82369047D01*
X126932228Y-82369047D02*
X126856038Y-82388095D01*
X126856038Y-82388095D02*
X126817942Y-82407142D01*
X126817942Y-82407142D02*
X126798895Y-82426190D01*
X126798895Y-82426190D02*
X126779847Y-82464285D01*
X167223798Y-83367371D02*
X167423798Y-83081657D01*
X167566655Y-83367371D02*
X167566655Y-82767371D01*
X167566655Y-82767371D02*
X167338084Y-82767371D01*
X167338084Y-82767371D02*
X167280941Y-82795942D01*
X167280941Y-82795942D02*
X167252370Y-82824514D01*
X167252370Y-82824514D02*
X167223798Y-82881657D01*
X167223798Y-82881657D02*
X167223798Y-82967371D01*
X167223798Y-82967371D02*
X167252370Y-83024514D01*
X167252370Y-83024514D02*
X167280941Y-83053085D01*
X167280941Y-83053085D02*
X167338084Y-83081657D01*
X167338084Y-83081657D02*
X167566655Y-83081657D01*
X167109513Y-83424514D02*
X166652370Y-83424514D01*
X166509512Y-83367371D02*
X166509512Y-82767371D01*
X166509512Y-82767371D02*
X166309512Y-83195942D01*
X166309512Y-83195942D02*
X166109512Y-82767371D01*
X166109512Y-82767371D02*
X166109512Y-83367371D01*
X165909513Y-82767371D02*
X165566656Y-82767371D01*
X165738084Y-83367371D02*
X165738084Y-82767371D01*
X165023798Y-83367371D02*
X165223798Y-83081657D01*
X165366655Y-83367371D02*
X165366655Y-82767371D01*
X165366655Y-82767371D02*
X165138084Y-82767371D01*
X165138084Y-82767371D02*
X165080941Y-82795942D01*
X165080941Y-82795942D02*
X165052370Y-82824514D01*
X165052370Y-82824514D02*
X165023798Y-82881657D01*
X165023798Y-82881657D02*
X165023798Y-82967371D01*
X165023798Y-82967371D02*
X165052370Y-83024514D01*
X165052370Y-83024514D02*
X165080941Y-83053085D01*
X165080941Y-83053085D02*
X165138084Y-83081657D01*
X165138084Y-83081657D02*
X165366655Y-83081657D01*
X164909513Y-83424514D02*
X164452370Y-83424514D01*
X164309512Y-83367371D02*
X164309512Y-82767371D01*
X164309512Y-82767371D02*
X164166655Y-82767371D01*
X164166655Y-82767371D02*
X164080941Y-82795942D01*
X164080941Y-82795942D02*
X164023798Y-82853085D01*
X164023798Y-82853085D02*
X163995227Y-82910228D01*
X163995227Y-82910228D02*
X163966655Y-83024514D01*
X163966655Y-83024514D02*
X163966655Y-83110228D01*
X163966655Y-83110228D02*
X163995227Y-83224514D01*
X163995227Y-83224514D02*
X164023798Y-83281657D01*
X164023798Y-83281657D02*
X164080941Y-83338800D01*
X164080941Y-83338800D02*
X164166655Y-83367371D01*
X164166655Y-83367371D02*
X164309512Y-83367371D01*
X163366655Y-83367371D02*
X163566655Y-83081657D01*
X163709512Y-83367371D02*
X163709512Y-82767371D01*
X163709512Y-82767371D02*
X163480941Y-82767371D01*
X163480941Y-82767371D02*
X163423798Y-82795942D01*
X163423798Y-82795942D02*
X163395227Y-82824514D01*
X163395227Y-82824514D02*
X163366655Y-82881657D01*
X163366655Y-82881657D02*
X163366655Y-82967371D01*
X163366655Y-82967371D02*
X163395227Y-83024514D01*
X163395227Y-83024514D02*
X163423798Y-83053085D01*
X163423798Y-83053085D02*
X163480941Y-83081657D01*
X163480941Y-83081657D02*
X163709512Y-83081657D01*
X163195227Y-82767371D02*
X162995227Y-83367371D01*
X162995227Y-83367371D02*
X162795227Y-82767371D01*
X190728570Y-93572371D02*
X190728570Y-92972371D01*
X190728570Y-92972371D02*
X190499999Y-92972371D01*
X190499999Y-92972371D02*
X190442856Y-93000942D01*
X190442856Y-93000942D02*
X190414285Y-93029514D01*
X190414285Y-93029514D02*
X190385713Y-93086657D01*
X190385713Y-93086657D02*
X190385713Y-93172371D01*
X190385713Y-93172371D02*
X190414285Y-93229514D01*
X190414285Y-93229514D02*
X190442856Y-93258085D01*
X190442856Y-93258085D02*
X190499999Y-93286657D01*
X190499999Y-93286657D02*
X190728570Y-93286657D01*
X190042856Y-93572371D02*
X190099999Y-93543800D01*
X190099999Y-93543800D02*
X190128570Y-93515228D01*
X190128570Y-93515228D02*
X190157142Y-93458085D01*
X190157142Y-93458085D02*
X190157142Y-93286657D01*
X190157142Y-93286657D02*
X190128570Y-93229514D01*
X190128570Y-93229514D02*
X190099999Y-93200942D01*
X190099999Y-93200942D02*
X190042856Y-93172371D01*
X190042856Y-93172371D02*
X189957142Y-93172371D01*
X189957142Y-93172371D02*
X189899999Y-93200942D01*
X189899999Y-93200942D02*
X189871428Y-93229514D01*
X189871428Y-93229514D02*
X189842856Y-93286657D01*
X189842856Y-93286657D02*
X189842856Y-93458085D01*
X189842856Y-93458085D02*
X189871428Y-93515228D01*
X189871428Y-93515228D02*
X189899999Y-93543800D01*
X189899999Y-93543800D02*
X189957142Y-93572371D01*
X189957142Y-93572371D02*
X190042856Y-93572371D01*
X189642856Y-93172371D02*
X189528571Y-93572371D01*
X189528571Y-93572371D02*
X189414285Y-93286657D01*
X189414285Y-93286657D02*
X189299999Y-93572371D01*
X189299999Y-93572371D02*
X189185713Y-93172371D01*
X188728571Y-93543800D02*
X188785714Y-93572371D01*
X188785714Y-93572371D02*
X188900000Y-93572371D01*
X188900000Y-93572371D02*
X188957142Y-93543800D01*
X188957142Y-93543800D02*
X188985714Y-93486657D01*
X188985714Y-93486657D02*
X188985714Y-93258085D01*
X188985714Y-93258085D02*
X188957142Y-93200942D01*
X188957142Y-93200942D02*
X188900000Y-93172371D01*
X188900000Y-93172371D02*
X188785714Y-93172371D01*
X188785714Y-93172371D02*
X188728571Y-93200942D01*
X188728571Y-93200942D02*
X188700000Y-93258085D01*
X188700000Y-93258085D02*
X188700000Y-93315228D01*
X188700000Y-93315228D02*
X188985714Y-93372371D01*
X188442856Y-93572371D02*
X188442856Y-93172371D01*
X188442856Y-93286657D02*
X188414285Y-93229514D01*
X188414285Y-93229514D02*
X188385714Y-93200942D01*
X188385714Y-93200942D02*
X188328571Y-93172371D01*
X188328571Y-93172371D02*
X188271428Y-93172371D01*
X188214285Y-93629514D02*
X187757142Y-93629514D01*
X187414284Y-93258085D02*
X187328570Y-93286657D01*
X187328570Y-93286657D02*
X187299999Y-93315228D01*
X187299999Y-93315228D02*
X187271427Y-93372371D01*
X187271427Y-93372371D02*
X187271427Y-93458085D01*
X187271427Y-93458085D02*
X187299999Y-93515228D01*
X187299999Y-93515228D02*
X187328570Y-93543800D01*
X187328570Y-93543800D02*
X187385713Y-93572371D01*
X187385713Y-93572371D02*
X187614284Y-93572371D01*
X187614284Y-93572371D02*
X187614284Y-92972371D01*
X187614284Y-92972371D02*
X187414284Y-92972371D01*
X187414284Y-92972371D02*
X187357142Y-93000942D01*
X187357142Y-93000942D02*
X187328570Y-93029514D01*
X187328570Y-93029514D02*
X187299999Y-93086657D01*
X187299999Y-93086657D02*
X187299999Y-93143800D01*
X187299999Y-93143800D02*
X187328570Y-93200942D01*
X187328570Y-93200942D02*
X187357142Y-93229514D01*
X187357142Y-93229514D02*
X187414284Y-93258085D01*
X187414284Y-93258085D02*
X187614284Y-93258085D01*
X186757142Y-93172371D02*
X186757142Y-93572371D01*
X187014284Y-93172371D02*
X187014284Y-93486657D01*
X187014284Y-93486657D02*
X186985713Y-93543800D01*
X186985713Y-93543800D02*
X186928570Y-93572371D01*
X186928570Y-93572371D02*
X186842856Y-93572371D01*
X186842856Y-93572371D02*
X186785713Y-93543800D01*
X186785713Y-93543800D02*
X186757142Y-93515228D01*
X186499999Y-93543800D02*
X186442856Y-93572371D01*
X186442856Y-93572371D02*
X186328570Y-93572371D01*
X186328570Y-93572371D02*
X186271427Y-93543800D01*
X186271427Y-93543800D02*
X186242856Y-93486657D01*
X186242856Y-93486657D02*
X186242856Y-93458085D01*
X186242856Y-93458085D02*
X186271427Y-93400942D01*
X186271427Y-93400942D02*
X186328570Y-93372371D01*
X186328570Y-93372371D02*
X186414285Y-93372371D01*
X186414285Y-93372371D02*
X186471427Y-93343800D01*
X186471427Y-93343800D02*
X186499999Y-93286657D01*
X186499999Y-93286657D02*
X186499999Y-93258085D01*
X186499999Y-93258085D02*
X186471427Y-93200942D01*
X186471427Y-93200942D02*
X186414285Y-93172371D01*
X186414285Y-93172371D02*
X186328570Y-93172371D01*
X186328570Y-93172371D02*
X186271427Y-93200942D01*
X127179847Y-97650000D02*
X126989371Y-97516667D01*
X127179847Y-97421429D02*
X126779847Y-97421429D01*
X126779847Y-97421429D02*
X126779847Y-97573810D01*
X126779847Y-97573810D02*
X126798895Y-97611905D01*
X126798895Y-97611905D02*
X126817942Y-97630952D01*
X126817942Y-97630952D02*
X126856038Y-97650000D01*
X126856038Y-97650000D02*
X126913180Y-97650000D01*
X126913180Y-97650000D02*
X126951276Y-97630952D01*
X126951276Y-97630952D02*
X126970323Y-97611905D01*
X126970323Y-97611905D02*
X126989371Y-97573810D01*
X126989371Y-97573810D02*
X126989371Y-97421429D01*
X127217942Y-97726191D02*
X127217942Y-98030952D01*
X126779847Y-98316667D02*
X126779847Y-98126191D01*
X126779847Y-98126191D02*
X126970323Y-98107143D01*
X126970323Y-98107143D02*
X126951276Y-98126191D01*
X126951276Y-98126191D02*
X126932228Y-98164286D01*
X126932228Y-98164286D02*
X126932228Y-98259524D01*
X126932228Y-98259524D02*
X126951276Y-98297619D01*
X126951276Y-98297619D02*
X126970323Y-98316667D01*
X126970323Y-98316667D02*
X127008419Y-98335714D01*
X127008419Y-98335714D02*
X127103657Y-98335714D01*
X127103657Y-98335714D02*
X127141752Y-98316667D01*
X127141752Y-98316667D02*
X127160800Y-98297619D01*
X127160800Y-98297619D02*
X127179847Y-98259524D01*
X127179847Y-98259524D02*
X127179847Y-98164286D01*
X127179847Y-98164286D02*
X127160800Y-98126191D01*
X127160800Y-98126191D02*
X127141752Y-98107143D01*
X126779847Y-98583333D02*
X126779847Y-98621428D01*
X126779847Y-98621428D02*
X126798895Y-98659524D01*
X126798895Y-98659524D02*
X126817942Y-98678571D01*
X126817942Y-98678571D02*
X126856038Y-98697619D01*
X126856038Y-98697619D02*
X126932228Y-98716666D01*
X126932228Y-98716666D02*
X127027466Y-98716666D01*
X127027466Y-98716666D02*
X127103657Y-98697619D01*
X127103657Y-98697619D02*
X127141752Y-98678571D01*
X127141752Y-98678571D02*
X127160800Y-98659524D01*
X127160800Y-98659524D02*
X127179847Y-98621428D01*
X127179847Y-98621428D02*
X127179847Y-98583333D01*
X127179847Y-98583333D02*
X127160800Y-98545238D01*
X127160800Y-98545238D02*
X127141752Y-98526190D01*
X127141752Y-98526190D02*
X127103657Y-98507143D01*
X127103657Y-98507143D02*
X127027466Y-98488095D01*
X127027466Y-98488095D02*
X126932228Y-98488095D01*
X126932228Y-98488095D02*
X126856038Y-98507143D01*
X126856038Y-98507143D02*
X126817942Y-98526190D01*
X126817942Y-98526190D02*
X126798895Y-98545238D01*
X126798895Y-98545238D02*
X126779847Y-98583333D01*
X126779847Y-98964285D02*
X126779847Y-99002380D01*
X126779847Y-99002380D02*
X126798895Y-99040476D01*
X126798895Y-99040476D02*
X126817942Y-99059523D01*
X126817942Y-99059523D02*
X126856038Y-99078571D01*
X126856038Y-99078571D02*
X126932228Y-99097618D01*
X126932228Y-99097618D02*
X127027466Y-99097618D01*
X127027466Y-99097618D02*
X127103657Y-99078571D01*
X127103657Y-99078571D02*
X127141752Y-99059523D01*
X127141752Y-99059523D02*
X127160800Y-99040476D01*
X127160800Y-99040476D02*
X127179847Y-99002380D01*
X127179847Y-99002380D02*
X127179847Y-98964285D01*
X127179847Y-98964285D02*
X127160800Y-98926190D01*
X127160800Y-98926190D02*
X127141752Y-98907142D01*
X127141752Y-98907142D02*
X127103657Y-98888095D01*
X127103657Y-98888095D02*
X127027466Y-98869047D01*
X127027466Y-98869047D02*
X126932228Y-98869047D01*
X126932228Y-98869047D02*
X126856038Y-98888095D01*
X126856038Y-98888095D02*
X126817942Y-98907142D01*
X126817942Y-98907142D02*
X126798895Y-98926190D01*
X126798895Y-98926190D02*
X126779847Y-98964285D01*
X127179847Y-83900000D02*
X126989371Y-83766667D01*
X127179847Y-83671429D02*
X126779847Y-83671429D01*
X126779847Y-83671429D02*
X126779847Y-83823810D01*
X126779847Y-83823810D02*
X126798895Y-83861905D01*
X126798895Y-83861905D02*
X126817942Y-83880952D01*
X126817942Y-83880952D02*
X126856038Y-83900000D01*
X126856038Y-83900000D02*
X126913180Y-83900000D01*
X126913180Y-83900000D02*
X126951276Y-83880952D01*
X126951276Y-83880952D02*
X126970323Y-83861905D01*
X126970323Y-83861905D02*
X126989371Y-83823810D01*
X126989371Y-83823810D02*
X126989371Y-83671429D01*
X127217942Y-83976191D02*
X127217942Y-84280952D01*
X126779847Y-84566667D02*
X126779847Y-84376191D01*
X126779847Y-84376191D02*
X126970323Y-84357143D01*
X126970323Y-84357143D02*
X126951276Y-84376191D01*
X126951276Y-84376191D02*
X126932228Y-84414286D01*
X126932228Y-84414286D02*
X126932228Y-84509524D01*
X126932228Y-84509524D02*
X126951276Y-84547619D01*
X126951276Y-84547619D02*
X126970323Y-84566667D01*
X126970323Y-84566667D02*
X127008419Y-84585714D01*
X127008419Y-84585714D02*
X127103657Y-84585714D01*
X127103657Y-84585714D02*
X127141752Y-84566667D01*
X127141752Y-84566667D02*
X127160800Y-84547619D01*
X127160800Y-84547619D02*
X127179847Y-84509524D01*
X127179847Y-84509524D02*
X127179847Y-84414286D01*
X127179847Y-84414286D02*
X127160800Y-84376191D01*
X127160800Y-84376191D02*
X127141752Y-84357143D01*
X126779847Y-84833333D02*
X126779847Y-84871428D01*
X126779847Y-84871428D02*
X126798895Y-84909524D01*
X126798895Y-84909524D02*
X126817942Y-84928571D01*
X126817942Y-84928571D02*
X126856038Y-84947619D01*
X126856038Y-84947619D02*
X126932228Y-84966666D01*
X126932228Y-84966666D02*
X127027466Y-84966666D01*
X127027466Y-84966666D02*
X127103657Y-84947619D01*
X127103657Y-84947619D02*
X127141752Y-84928571D01*
X127141752Y-84928571D02*
X127160800Y-84909524D01*
X127160800Y-84909524D02*
X127179847Y-84871428D01*
X127179847Y-84871428D02*
X127179847Y-84833333D01*
X127179847Y-84833333D02*
X127160800Y-84795238D01*
X127160800Y-84795238D02*
X127141752Y-84776190D01*
X127141752Y-84776190D02*
X127103657Y-84757143D01*
X127103657Y-84757143D02*
X127027466Y-84738095D01*
X127027466Y-84738095D02*
X126932228Y-84738095D01*
X126932228Y-84738095D02*
X126856038Y-84757143D01*
X126856038Y-84757143D02*
X126817942Y-84776190D01*
X126817942Y-84776190D02*
X126798895Y-84795238D01*
X126798895Y-84795238D02*
X126779847Y-84833333D01*
X126779847Y-85214285D02*
X126779847Y-85252380D01*
X126779847Y-85252380D02*
X126798895Y-85290476D01*
X126798895Y-85290476D02*
X126817942Y-85309523D01*
X126817942Y-85309523D02*
X126856038Y-85328571D01*
X126856038Y-85328571D02*
X126932228Y-85347618D01*
X126932228Y-85347618D02*
X127027466Y-85347618D01*
X127027466Y-85347618D02*
X127103657Y-85328571D01*
X127103657Y-85328571D02*
X127141752Y-85309523D01*
X127141752Y-85309523D02*
X127160800Y-85290476D01*
X127160800Y-85290476D02*
X127179847Y-85252380D01*
X127179847Y-85252380D02*
X127179847Y-85214285D01*
X127179847Y-85214285D02*
X127160800Y-85176190D01*
X127160800Y-85176190D02*
X127141752Y-85157142D01*
X127141752Y-85157142D02*
X127103657Y-85138095D01*
X127103657Y-85138095D02*
X127027466Y-85119047D01*
X127027466Y-85119047D02*
X126932228Y-85119047D01*
X126932228Y-85119047D02*
X126856038Y-85138095D01*
X126856038Y-85138095D02*
X126817942Y-85157142D01*
X126817942Y-85157142D02*
X126798895Y-85176190D01*
X126798895Y-85176190D02*
X126779847Y-85214285D01*
D12*
X153256409Y-97005000D02*
X153065933Y-96871667D01*
X153256409Y-96776429D02*
X152856409Y-96776429D01*
X152856409Y-96776429D02*
X152856409Y-96928810D01*
X152856409Y-96928810D02*
X152875457Y-96966905D01*
X152875457Y-96966905D02*
X152894504Y-96985952D01*
X152894504Y-96985952D02*
X152932600Y-97005000D01*
X152932600Y-97005000D02*
X152989742Y-97005000D01*
X152989742Y-97005000D02*
X153027838Y-96985952D01*
X153027838Y-96985952D02*
X153046885Y-96966905D01*
X153046885Y-96966905D02*
X153065933Y-96928810D01*
X153065933Y-96928810D02*
X153065933Y-96776429D01*
X153294504Y-97081191D02*
X153294504Y-97385952D01*
X152856409Y-97671667D02*
X152856409Y-97481191D01*
X152856409Y-97481191D02*
X153046885Y-97462143D01*
X153046885Y-97462143D02*
X153027838Y-97481191D01*
X153027838Y-97481191D02*
X153008790Y-97519286D01*
X153008790Y-97519286D02*
X153008790Y-97614524D01*
X153008790Y-97614524D02*
X153027838Y-97652619D01*
X153027838Y-97652619D02*
X153046885Y-97671667D01*
X153046885Y-97671667D02*
X153084981Y-97690714D01*
X153084981Y-97690714D02*
X153180219Y-97690714D01*
X153180219Y-97690714D02*
X153218314Y-97671667D01*
X153218314Y-97671667D02*
X153237362Y-97652619D01*
X153237362Y-97652619D02*
X153256409Y-97614524D01*
X153256409Y-97614524D02*
X153256409Y-97519286D01*
X153256409Y-97519286D02*
X153237362Y-97481191D01*
X153237362Y-97481191D02*
X153218314Y-97462143D01*
X152856409Y-97938333D02*
X152856409Y-97976428D01*
X152856409Y-97976428D02*
X152875457Y-98014524D01*
X152875457Y-98014524D02*
X152894504Y-98033571D01*
X152894504Y-98033571D02*
X152932600Y-98052619D01*
X152932600Y-98052619D02*
X153008790Y-98071666D01*
X153008790Y-98071666D02*
X153104028Y-98071666D01*
X153104028Y-98071666D02*
X153180219Y-98052619D01*
X153180219Y-98052619D02*
X153218314Y-98033571D01*
X153218314Y-98033571D02*
X153237362Y-98014524D01*
X153237362Y-98014524D02*
X153256409Y-97976428D01*
X153256409Y-97976428D02*
X153256409Y-97938333D01*
X153256409Y-97938333D02*
X153237362Y-97900238D01*
X153237362Y-97900238D02*
X153218314Y-97881190D01*
X153218314Y-97881190D02*
X153180219Y-97862143D01*
X153180219Y-97862143D02*
X153104028Y-97843095D01*
X153104028Y-97843095D02*
X153008790Y-97843095D01*
X153008790Y-97843095D02*
X152932600Y-97862143D01*
X152932600Y-97862143D02*
X152894504Y-97881190D01*
X152894504Y-97881190D02*
X152875457Y-97900238D01*
X152875457Y-97900238D02*
X152856409Y-97938333D01*
X152856409Y-98319285D02*
X152856409Y-98357380D01*
X152856409Y-98357380D02*
X152875457Y-98395476D01*
X152875457Y-98395476D02*
X152894504Y-98414523D01*
X152894504Y-98414523D02*
X152932600Y-98433571D01*
X152932600Y-98433571D02*
X153008790Y-98452618D01*
X153008790Y-98452618D02*
X153104028Y-98452618D01*
X153104028Y-98452618D02*
X153180219Y-98433571D01*
X153180219Y-98433571D02*
X153218314Y-98414523D01*
X153218314Y-98414523D02*
X153237362Y-98395476D01*
X153237362Y-98395476D02*
X153256409Y-98357380D01*
X153256409Y-98357380D02*
X153256409Y-98319285D01*
X153256409Y-98319285D02*
X153237362Y-98281190D01*
X153237362Y-98281190D02*
X153218314Y-98262142D01*
X153218314Y-98262142D02*
X153180219Y-98243095D01*
X153180219Y-98243095D02*
X153104028Y-98224047D01*
X153104028Y-98224047D02*
X153008790Y-98224047D01*
X153008790Y-98224047D02*
X152932600Y-98243095D01*
X152932600Y-98243095D02*
X152894504Y-98262142D01*
X152894504Y-98262142D02*
X152875457Y-98281190D01*
X152875457Y-98281190D02*
X152856409Y-98319285D01*
D14*
%TO.C,Sensor_Bus*%
X179550000Y-83800000D02*
X179550000Y-88300000D01*
X179550000Y-88300000D02*
X197450000Y-88300000D01*
X197450000Y-83800000D02*
X179550000Y-83800000D01*
X197450000Y-88300000D02*
X197450000Y-83800000D01*
D15*
X195600000Y-83100000D02*
G75*
G02*
X195400000Y-83100000I-100000J0D01*
G01*
X195400000Y-83100000D02*
G75*
G02*
X195600000Y-83100000I100000J0D01*
G01*
D16*
%TO.C,R_10k*%
X197590000Y-101872936D02*
X197590000Y-103327064D01*
X199410000Y-101872936D02*
X199410000Y-103327064D01*
%TO.C,R_8.9k*%
X142727064Y-85690000D02*
X141272936Y-85690000D01*
X142727064Y-87510000D02*
X141272936Y-87510000D01*
%TO.C,5V_VR*%
X159290000Y-99490000D02*
X160550000Y-99490000D01*
X159290000Y-103250000D02*
X159290000Y-99490000D01*
X166110000Y-99490000D02*
X164850000Y-99490000D01*
X166110000Y-103250000D02*
X166110000Y-99490000D01*
X166340000Y-104770000D02*
X166010000Y-104530000D01*
X166340000Y-104290000D01*
X166340000Y-104770000D01*
G36*
X166340000Y-104770000D02*
G01*
X166010000Y-104530000D01*
X166340000Y-104290000D01*
X166340000Y-104770000D01*
G37*
%TO.C,C_0.1uF*%
X156811252Y-84990000D02*
X155388748Y-84990000D01*
X156811252Y-86810000D02*
X155388748Y-86810000D01*
%TO.C,R_500*%
X129272936Y-86340000D02*
X130727064Y-86340000D01*
X129272936Y-88160000D02*
X130727064Y-88160000D01*
%TO.C,3V3_VR*%
X166840000Y-99490000D02*
X168100000Y-99490000D01*
X166840000Y-103250000D02*
X166840000Y-99490000D01*
X173660000Y-99490000D02*
X172400000Y-99490000D01*
X173660000Y-103250000D02*
X173660000Y-99490000D01*
X173890000Y-104770000D02*
X173560000Y-104530000D01*
X173890000Y-104290000D01*
X173890000Y-104770000D01*
G36*
X173890000Y-104770000D02*
G01*
X173560000Y-104530000D01*
X173890000Y-104290000D01*
X173890000Y-104770000D01*
G37*
D17*
%TO.C,L_MTR_DRV*%
X163071600Y-89826900D02*
X167237200Y-89826900D01*
X167237200Y-94983100D02*
X163071600Y-94983100D01*
X170099500Y-90500000D02*
G75*
G02*
X169947100Y-90500000I-76200J0D01*
G01*
X169947100Y-90500000D02*
G75*
G02*
X170099500Y-90500000I76200J0D01*
G01*
D16*
%TO.C,R_10k*%
X200190000Y-101872936D02*
X200190000Y-103327064D01*
X202010000Y-101872936D02*
X202010000Y-103327064D01*
%TO.C,R_18k*%
X174627336Y-93395000D02*
X176081464Y-93395000D01*
X174627336Y-95215000D02*
X176081464Y-95215000D01*
%TO.C,R_500*%
X129272936Y-100090000D02*
X130727064Y-100090000D01*
X129272936Y-101910000D02*
X130727064Y-101910000D01*
X156902066Y-99345000D02*
X155447938Y-99345000D01*
X156902066Y-101165000D02*
X155447938Y-101165000D01*
X129272936Y-91840000D02*
X130727064Y-91840000D01*
X129272936Y-93660000D02*
X130727064Y-93660000D01*
%TO.C,C_50uF*%
X156886254Y-93445000D02*
X155463750Y-93445000D01*
X156886254Y-95265000D02*
X155463750Y-95265000D01*
%TO.C,R_3.3k*%
X141272936Y-83090000D02*
X142727064Y-83090000D01*
X141272936Y-84910000D02*
X142727064Y-84910000D01*
%TO.C,C_0.1uF*%
X156886254Y-90795000D02*
X155463750Y-90795000D01*
X156886254Y-92615000D02*
X155463750Y-92615000D01*
%TO.C,R_500*%
X129272936Y-102890000D02*
X130727064Y-102890000D01*
X129272936Y-104710000D02*
X130727064Y-104710000D01*
D14*
%TO.C,Level_Shifter*%
X138500000Y-89400000D02*
X138500000Y-115600000D01*
X138500000Y-115600000D02*
X142230000Y-115600000D01*
X144770000Y-115600000D02*
X148500000Y-115600000D01*
X148500000Y-89400000D02*
X138500000Y-89400000D01*
X148500000Y-115600000D02*
X148500000Y-89400000D01*
X142230000Y-115600000D02*
G75*
G02*
X143450000Y-113930000I1445001J224999D01*
G01*
X143550000Y-113930000D02*
G75*
G02*
X144770000Y-115600000I-225001J-1445001D01*
G01*
D16*
%TO.C,C_50uF*%
X156811252Y-87640000D02*
X155388748Y-87640000D01*
X156811252Y-89460000D02*
X155388748Y-89460000D01*
%TO.C,R_500*%
X129272936Y-105690000D02*
X130727064Y-105690000D01*
X129272936Y-107510000D02*
X130727064Y-107510000D01*
X130727064Y-89090000D02*
X129272936Y-89090000D01*
X130727064Y-90910000D02*
X129272936Y-90910000D01*
%TO.C,R_18k*%
X174696735Y-87490000D02*
X176150863Y-87490000D01*
X174696735Y-89310000D02*
X176150863Y-89310000D01*
%TO.C,R_500*%
X129272936Y-94590000D02*
X130727064Y-94590000D01*
X129272936Y-96410000D02*
X130727064Y-96410000D01*
X130727064Y-80840000D02*
X129272936Y-80840000D01*
X130727064Y-82660000D02*
X129272936Y-82660000D01*
D17*
%TO.C,R_MTR_DRV*%
X163140999Y-83921900D02*
X167306599Y-83921900D01*
X167306599Y-89078100D02*
X163140999Y-89078100D01*
X170168899Y-84595000D02*
G75*
G02*
X170016499Y-84595000I-76200J0D01*
G01*
X170016499Y-84595000D02*
G75*
G02*
X170168899Y-84595000I76200J0D01*
G01*
D14*
%TO.C,Power_Bus*%
X179550000Y-89350000D02*
X179550000Y-93850000D01*
X179550000Y-93850000D02*
X197450000Y-93850000D01*
X197450000Y-89350000D02*
X179550000Y-89350000D01*
X197450000Y-93850000D02*
X197450000Y-89350000D01*
D15*
X195600000Y-88650000D02*
G75*
G02*
X195400000Y-88650000I-100000J0D01*
G01*
X195400000Y-88650000D02*
G75*
G02*
X195600000Y-88650000I100000J0D01*
G01*
D16*
%TO.C,R_500*%
X129272936Y-97340000D02*
X130727064Y-97340000D01*
X129272936Y-99160000D02*
X130727064Y-99160000D01*
X129272936Y-83590000D02*
X130727064Y-83590000D01*
X129272936Y-85410000D02*
X130727064Y-85410000D01*
X156902066Y-96695000D02*
X155447938Y-96695000D01*
X156902066Y-98515000D02*
X155447938Y-98515000D01*
%TD*%
M02*
