M48
; DRILL file {KiCad 9.0.3} date 2026-01-21T00:30:31-0500
; FORMAT={-:-/ absolute / metric / decimal}
; #@! TF.CreationDate,2026-01-21T00:30:31-05:00
; #@! TF.GenerationSoftware,Kicad,Pcbnew,9.0.3
; #@! TF.FileFunction,Plated,1,2,PTH
FMAT,2
METRIC
; #@! TA.AperFunction,Plated,PTH,ViaDrill
T1C0.300
; #@! TA.AperFunction,Plated,PTH,ComponentDrill
T2C0.800
; #@! TA.AperFunction,Plated,PTH,ComponentDrill
T3C0.900
; #@! TA.AperFunction,Plated,PTH,ComponentDrill
T4C1.000
; #@! TA.AperFunction,Plated,PTH,ComponentDrill
T5C1.020
; #@! TA.AperFunction,Plated,PTH,ComponentDrill
T6C1.100
; #@! TA.AperFunction,Plated,PTH,ComponentDrill
T7C2.000
; #@! TA.AperFunction,Plated,PTH,ComponentDrill
T8C2.286
; #@! TA.AperFunction,Plated,PTH,ComponentDrill
T9C2.700
%
G90
G05
T1
X131.487Y-81.75
X131.487Y-84.5
X131.487Y-87.25
X131.487Y-90.0
X131.487Y-92.75
X131.487Y-95.5
X131.487Y-98.25
X131.487Y-101.0
X131.487Y-106.6
X131.55Y-103.8
X133.2Y-84.2
X133.4Y-95.1
X140.45Y-86.6
X141.2Y-112.3
X142.0Y-86.6
X142.4Y-82.9
X143.0Y-95.1
X143.55Y-86.6
X151.274Y-82.376
X151.9Y-103.7
X153.3Y-101.602
X154.226Y-99.559
X154.537Y-85.9
X154.613Y-94.355
X154.625Y-97.605
X157.662Y-88.5
X157.725Y-100.255
X157.738Y-94.3
X159.1Y-96.98
X162.279Y-94.31
X162.349Y-85.865
X162.349Y-88.405
X162.7Y-104.5
X165.0Y-104.55
X165.3Y-88.2
X168.029Y-90.545
X168.029Y-91.77
X168.029Y-93.04
X168.099Y-85.865
X168.099Y-87.135
X170.25Y-98.154
X172.0Y-94.978
X172.55Y-104.55
X173.0Y-81.6
X173.0Y-97.4
X173.2Y-85.8
X176.904Y-94.305
X176.974Y-88.4
X180.1Y-87.5
X183.6Y-87.5
X191.5Y-89.345
X198.5Y-94.812
T2
X181.5Y-85.5
X181.5Y-91.05
X181.5Y-96.2
X181.5Y-98.2
X183.5Y-85.5
X183.5Y-91.05
X183.5Y-96.2
X183.5Y-98.2
X185.5Y-85.5
X185.5Y-91.05
X185.5Y-96.2
X185.5Y-98.2
X187.5Y-85.5
X187.5Y-91.05
X187.5Y-96.2
X187.5Y-98.2
X189.5Y-85.5
X189.5Y-91.05
X189.5Y-96.2
X189.5Y-98.2
X191.5Y-85.5
X191.5Y-91.05
X191.5Y-96.2
X191.5Y-98.2
X193.5Y-85.5
X193.5Y-91.05
X193.5Y-96.2
X193.5Y-98.2
X195.5Y-85.5
X195.5Y-91.05
X195.5Y-96.2
X195.5Y-98.2
X198.5Y-106.44
X198.5Y-114.06
X201.04Y-106.44
X201.04Y-114.06
T3
X139.69Y-91.07
X139.69Y-93.61
X139.69Y-96.15
X139.69Y-98.69
X139.69Y-101.23
X139.69Y-103.77
X139.69Y-106.31
X139.69Y-108.85
X139.69Y-111.39
X139.69Y-113.93
X147.31Y-91.07
X147.31Y-93.61
X147.31Y-96.15
X147.31Y-98.69
X147.31Y-101.23
X147.31Y-103.77
X147.31Y-106.31
X147.31Y-108.85
X147.31Y-111.39
X147.31Y-113.93
T4
X161.7Y-81.4
X164.24Y-81.4
X166.78Y-81.4
X169.32Y-81.4
X183.82Y-82.0
X186.36Y-82.0
X188.9Y-82.0
T5
X134.76Y-81.14
X134.76Y-83.68
X134.76Y-86.22
X134.76Y-88.76
X134.76Y-91.3
X134.76Y-93.84
X134.76Y-96.38
X134.76Y-98.92
X134.76Y-101.46
X134.76Y-104.0
X134.76Y-106.54
X134.76Y-109.08
X134.76Y-111.62
X134.76Y-114.16
X137.1Y-83.7
X137.1Y-86.24
X137.1Y-88.78
X137.1Y-91.32
X137.1Y-93.86
X137.1Y-96.4
X137.1Y-98.94
X137.1Y-101.48
X137.1Y-104.02
X137.1Y-106.56
X137.1Y-109.1
X137.1Y-111.64
X137.1Y-114.18
X137.3Y-81.14
X139.84Y-81.14
X142.38Y-81.14
X144.92Y-81.14
X147.46Y-81.14
X150.0Y-81.14
X150.0Y-83.68
X150.0Y-86.22
X150.0Y-88.76
X150.0Y-91.3
X150.0Y-93.84
X150.0Y-96.38
X150.0Y-98.92
X150.0Y-101.46
X150.0Y-104.0
X150.0Y-106.54
X150.0Y-109.08
X150.0Y-111.62
X150.0Y-114.16
T6
X153.75Y-109.65
X153.75Y-114.15
X160.25Y-109.65
X160.25Y-114.15
X171.5Y-109.65
X171.5Y-114.15
X178.0Y-109.65
X178.0Y-114.15
T7
X154.51Y-81.9
X154.51Y-103.9
X176.51Y-81.9
X176.51Y-103.9
T8
X184.31Y-104.111
X184.31Y-108.81
X184.31Y-113.509
X191.81Y-104.111
X191.81Y-108.81
X191.81Y-113.509
T9
X200.2Y-83.4
X200.2Y-88.4
M30
