%TF.GenerationSoftware,KiCad,Pcbnew,9.0.3*%
%TF.CreationDate,2026-01-21T00:26:02-05:00*%
%TF.ProjectId,Sp-ii-top-board,53702d69-692d-4746-9f70-2d626f617264,rev?*%
%TF.SameCoordinates,Original*%
%TF.FileFunction,Soldermask,Top*%
%TF.FilePolarity,Negative*%
%FSLAX46Y46*%
G04 Gerber Fmt 4.6, Leading zero omitted, Abs format (unit mm)*
G04 Created by KiCad (PCBNEW 9.0.3) date 2026-01-21 00:26:02*
%MOMM*%
%LPD*%
G01*
G04 APERTURE LIST*
G04 Aperture macros list*
%AMRoundRect*
0 Rectangle with rounded corners*
0 $1 Rounding radius*
0 $2 $3 $4 $5 $6 $7 $8 $9 X,Y pos of 4 corners*
0 Add a 4 corners polygon primitive as box body*
4,1,4,$2,$3,$4,$5,$6,$7,$8,$9,$2,$3,0*
0 Add four circle primitives for the rounded corners*
1,1,$1+$1,$2,$3*
1,1,$1+$1,$4,$5*
1,1,$1+$1,$6,$7*
1,1,$1+$1,$8,$9*
0 Add four rect primitives between the rounded corners*
20,1,$1+$1,$2,$3,$4,$5,0*
20,1,$1+$1,$4,$5,$6,$7,0*
20,1,$1+$1,$6,$7,$8,$9,0*
20,1,$1+$1,$8,$9,$2,$3,0*%
G04 Aperture macros list end*
%ADD10C,1.734000*%
%ADD11RoundRect,0.250001X0.462499X0.624999X-0.462499X0.624999X-0.462499X-0.624999X0.462499X-0.624999X0*%
%ADD12C,1.512000*%
%ADD13C,3.200000*%
%ADD14RoundRect,0.102000X-0.654000X-0.654000X0.654000X-0.654000X0.654000X0.654000X-0.654000X0.654000X0*%
%ADD15RoundRect,0.760000X-1.140000X1.140000X-1.140000X-1.140000X1.140000X-1.140000X1.140000X1.140000X0*%
%ADD16C,4.000000*%
%ADD17R,1.300000X1.300000*%
%ADD18C,1.300000*%
%ADD19C,2.000000*%
%ADD20R,2.794000X2.794000*%
%ADD21C,2.794000*%
%ADD22RoundRect,0.250001X0.624999X-0.462499X0.624999X0.462499X-0.624999X0.462499X-0.624999X-0.462499X0*%
%ADD23R,1.700000X1.700000*%
%ADD24C,1.700000*%
%ADD25RoundRect,0.102000X-0.754000X-0.754000X0.754000X-0.754000X0.754000X0.754000X-0.754000X0.754000X0*%
%ADD26C,1.712000*%
%ADD27C,3.204000*%
%ADD28RoundRect,0.102000X0.700000X-0.700000X0.700000X0.700000X-0.700000X0.700000X-0.700000X-0.700000X0*%
%ADD29C,1.604000*%
G04 APERTURE END LIST*
D10*
%TO.C,*%
X137100000Y-101480000D03*
%TD*%
D11*
%TO.C,D_RLN*%
X131487500Y-90000000D03*
X128512500Y-90000000D03*
%TD*%
D12*
%TO.C,*%
X191500000Y-98200000D03*
%TD*%
%TO.C,*%
X185500000Y-98200000D03*
%TD*%
%TO.C,*%
X181500000Y-98200000D03*
%TD*%
D10*
%TO.C,*%
X137100000Y-83700000D03*
%TD*%
D13*
%TO.C,H_2*%
X207500000Y-113000000D03*
%TD*%
D12*
%TO.C,*%
X189500000Y-96200000D03*
%TD*%
%TO.C,*%
X181500000Y-96200000D03*
%TD*%
D10*
%TO.C,Teensy 4.0*%
X150000000Y-111620000D03*
X150000000Y-109080000D03*
X150000000Y-106540000D03*
X150000000Y-104000000D03*
X144920000Y-81140000D03*
X134760000Y-109080000D03*
X150000000Y-101460000D03*
X150000000Y-98920000D03*
X150000000Y-96380000D03*
X150000000Y-93840000D03*
X150000000Y-91300000D03*
X150000000Y-88760000D03*
X150000000Y-86220000D03*
X150000000Y-83680000D03*
X150000000Y-81140000D03*
X134760000Y-81140000D03*
X134760000Y-83680000D03*
X134760000Y-86220000D03*
X134760000Y-88760000D03*
X134760000Y-91300000D03*
X134760000Y-93840000D03*
X134760000Y-96380000D03*
X134760000Y-98920000D03*
X134760000Y-101460000D03*
X134760000Y-104000000D03*
X134760000Y-106540000D03*
X150000000Y-114160000D03*
X142380000Y-81140000D03*
X134760000Y-111620000D03*
X137300000Y-81140000D03*
X139840000Y-81140000D03*
X147460000Y-81140000D03*
X134760000Y-114160000D03*
%TD*%
D11*
%TO.C,SRT_TMR*%
X131487500Y-84500000D03*
X128512500Y-84500000D03*
%TD*%
D10*
%TO.C,*%
X137100000Y-93860000D03*
%TD*%
D12*
%TO.C,*%
X187500000Y-96200000D03*
%TD*%
D10*
%TO.C,*%
X137100000Y-109100000D03*
%TD*%
%TO.C,*%
X137100000Y-88780000D03*
%TD*%
D12*
%TO.C,*%
X193500000Y-98200000D03*
%TD*%
D14*
%TO.C,*%
X195500000Y-98200000D03*
%TD*%
D15*
%TO.C,J7*%
X200200000Y-83400000D03*
D16*
X200200000Y-88400000D03*
%TD*%
D17*
%TO.C,SW_DIP*%
X198500000Y-114060000D03*
D18*
X201040000Y-114060000D03*
X201040000Y-106440000D03*
X198500000Y-106440000D03*
%TD*%
D11*
%TO.C,LOW_PWR*%
X131487500Y-81750000D03*
X128512500Y-81750000D03*
%TD*%
D19*
%TO.C,PUSH_1*%
X153750000Y-109650000D03*
X160250000Y-109650000D03*
X153750000Y-114150000D03*
X160250000Y-114150000D03*
%TD*%
D12*
%TO.C,*%
X185500000Y-96200000D03*
%TD*%
D11*
%TO.C,D_R90*%
X131487500Y-106600000D03*
X128512500Y-106600000D03*
%TD*%
D10*
%TO.C,*%
X137100000Y-104020000D03*
%TD*%
D11*
%TO.C,D_R50*%
X131487500Y-103800000D03*
X128512500Y-103800000D03*
%TD*%
D10*
%TO.C,*%
X137100000Y-114180000D03*
%TD*%
%TO.C,*%
X137100000Y-91320000D03*
%TD*%
D20*
%TO.C,IR_SW*%
X184310000Y-104111000D03*
D21*
X184310000Y-108810000D03*
X184310000Y-113509000D03*
%TD*%
D12*
%TO.C,*%
X191500000Y-96200000D03*
%TD*%
%TO.C,*%
X187500000Y-98200000D03*
%TD*%
D10*
%TO.C,*%
X137100000Y-111640000D03*
%TD*%
D12*
%TO.C,*%
X193500000Y-96200000D03*
%TD*%
D11*
%TO.C,D_BLN*%
X131487500Y-87250000D03*
X128512500Y-87250000D03*
%TD*%
D12*
%TO.C,*%
X183500000Y-96200000D03*
%TD*%
D10*
%TO.C,*%
X137100000Y-86240000D03*
%TD*%
D11*
%TO.C,D_L90*%
X131487500Y-95500000D03*
X128512500Y-95500000D03*
%TD*%
D12*
%TO.C,*%
X183500000Y-98200000D03*
%TD*%
D13*
%TO.C,H_1*%
X129500000Y-113000000D03*
%TD*%
D11*
%TO.C,D_L50*%
X131487500Y-98250000D03*
X128512500Y-98250000D03*
%TD*%
D10*
%TO.C,*%
X137100000Y-98940000D03*
%TD*%
D22*
%TO.C,Fuse*%
X207100000Y-97787500D03*
X207100000Y-94812500D03*
%TD*%
D11*
%TO.C,D_M*%
X131487500Y-101000000D03*
X128512500Y-101000000D03*
%TD*%
D23*
%TO.C,START_MOD_1*%
X183820000Y-82000000D03*
D24*
X186360000Y-82000000D03*
X188900000Y-82000000D03*
%TD*%
D14*
%TO.C,*%
X195500000Y-96200000D03*
%TD*%
D10*
%TO.C,*%
X137100000Y-96400000D03*
%TD*%
D12*
%TO.C,*%
X189500000Y-98200000D03*
%TD*%
D10*
%TO.C,*%
X137100000Y-106560000D03*
%TD*%
D11*
%TO.C,D_LLN*%
X131487500Y-92750000D03*
X128512500Y-92750000D03*
%TD*%
D20*
%TO.C,PWR_SW*%
X191810000Y-104111000D03*
D21*
X191810000Y-108810000D03*
X191810000Y-113509000D03*
%TD*%
D25*
%TO.C,U1*%
X161700000Y-81400000D03*
D26*
X164240000Y-81400000D03*
X166780000Y-81400000D03*
X169320000Y-81400000D03*
D27*
X154510000Y-81900000D03*
X176510000Y-81900000D03*
X176510000Y-103900000D03*
X154510000Y-103900000D03*
%TD*%
D19*
%TO.C,PUSH_2*%
X171500000Y-109650000D03*
X178000000Y-109650000D03*
X171500000Y-114150000D03*
X178000000Y-114150000D03*
%TD*%
D14*
%TO.C,Sensor_Bus*%
X195500000Y-85500000D03*
D12*
X193500000Y-85500000D03*
X191500000Y-85500000D03*
X189500000Y-85500000D03*
X187500000Y-85500000D03*
X185500000Y-85500000D03*
X183500000Y-85500000D03*
X181500000Y-85500000D03*
%TD*%
D28*
%TO.C,Level_Shifter*%
X139690000Y-113930000D03*
D29*
X139690000Y-111390000D03*
X139690000Y-108850000D03*
X139690000Y-106310000D03*
X139690000Y-103770000D03*
X139690000Y-101230000D03*
X139690000Y-98690000D03*
X139690000Y-96150000D03*
X139690000Y-93610000D03*
X139690000Y-91070000D03*
X147310000Y-91070000D03*
X147310000Y-93610000D03*
X147310000Y-96150000D03*
X147310000Y-98690000D03*
X147310000Y-101230000D03*
X147310000Y-103770000D03*
X147310000Y-106310000D03*
X147310000Y-108850000D03*
X147310000Y-111390000D03*
X147310000Y-113930000D03*
%TD*%
D14*
%TO.C,Power_Bus*%
X195500000Y-91050000D03*
D12*
X193500000Y-91050000D03*
X191500000Y-91050000D03*
X189500000Y-91050000D03*
X187500000Y-91050000D03*
X185500000Y-91050000D03*
X183500000Y-91050000D03*
X181500000Y-91050000D03*
%TD*%
M02*
