G04 #@! TF.GenerationSoftware,KiCad,Pcbnew,8.0.4*
G04 #@! TF.CreationDate,2025-03-28T18:04:35-04:00*
G04 #@! TF.ProjectId,ballsi,62616c6c-7369-42e6-9b69-6361645f7063,rev?*
G04 #@! TF.SameCoordinates,Original*
G04 #@! TF.FileFunction,Legend,Top*
G04 #@! TF.FilePolarity,Positive*
%FSLAX46Y46*%
G04 Gerber Fmt 4.6, Leading zero omitted, Abs format (unit mm)*
G04 Created by KiCad (PCBNEW 8.0.4) date 2025-03-28 18:04:35*
%MOMM*%
%LPD*%
G01*
G04 APERTURE LIST*
G04 Aperture macros list*
%AMRoundRect*
0 Rectangle with rounded corners*
0 $1 Rounding radius*
0 $2 $3 $4 $5 $6 $7 $8 $9 X,Y pos of 4 corners*
0 Add a 4 corners polygon primitive as box body*
4,1,4,$2,$3,$4,$5,$6,$7,$8,$9,$2,$3,0*
0 Add four circle primitives for the rounded corners*
1,1,$1+$1,$2,$3*
1,1,$1+$1,$4,$5*
1,1,$1+$1,$6,$7*
1,1,$1+$1,$8,$9*
0 Add four rect primitives between the rounded corners*
20,1,$1+$1,$2,$3,$4,$5,0*
20,1,$1+$1,$4,$5,$6,$7,0*
20,1,$1+$1,$6,$7,$8,$9,0*
20,1,$1+$1,$8,$9,$2,$3,0*%
G04 Aperture macros list end*
%ADD10C,0.300000*%
%ADD11C,0.100000*%
%ADD12C,0.150000*%
%ADD13C,0.254000*%
%ADD14C,0.000000*%
%ADD15C,0.120000*%
%ADD16C,0.200000*%
%ADD17C,0.050000*%
%ADD18C,0.152400*%
%ADD19C,3.200000*%
%ADD20R,1.700000X1.700000*%
%ADD21O,1.700000X1.700000*%
%ADD22RoundRect,0.102000X1.225000X-1.225000X1.225000X1.225000X-1.225000X1.225000X-1.225000X-1.225000X0*%
%ADD23C,2.654000*%
%ADD24R,2.209800X0.508000*%
%ADD25C,1.600200*%
%ADD26R,1.300000X1.300000*%
%ADD27C,1.300000*%
%ADD28RoundRect,0.250000X-0.400000X-0.625000X0.400000X-0.625000X0.400000X0.625000X-0.400000X0.625000X0*%
%ADD29RoundRect,0.250000X0.400000X0.625000X-0.400000X0.625000X-0.400000X-0.625000X0.400000X-0.625000X0*%
%ADD30R,3.800000X3.800000*%
%ADD31C,4.000000*%
%ADD32RoundRect,0.250001X-0.462499X-0.624999X0.462499X-0.624999X0.462499X0.624999X-0.462499X0.624999X0*%
%ADD33RoundRect,0.250000X0.650000X-0.412500X0.650000X0.412500X-0.650000X0.412500X-0.650000X-0.412500X0*%
%ADD34RoundRect,0.250000X-0.412500X-0.650000X0.412500X-0.650000X0.412500X0.650000X-0.412500X0.650000X0*%
%ADD35R,1.600000X1.600000*%
%ADD36O,1.600000X1.600000*%
G04 APERTURE END LIST*
D10*
X158411653Y-51470996D02*
X159411653Y-52970996D01*
X159411653Y-51470996D02*
X158411653Y-52970996D01*
X160625939Y-52970996D02*
X160625939Y-52185282D01*
X160625939Y-52185282D02*
X160554510Y-52042425D01*
X160554510Y-52042425D02*
X160411653Y-51970996D01*
X160411653Y-51970996D02*
X160125939Y-51970996D01*
X160125939Y-51970996D02*
X159983081Y-52042425D01*
X160625939Y-52899568D02*
X160483081Y-52970996D01*
X160483081Y-52970996D02*
X160125939Y-52970996D01*
X160125939Y-52970996D02*
X159983081Y-52899568D01*
X159983081Y-52899568D02*
X159911653Y-52756710D01*
X159911653Y-52756710D02*
X159911653Y-52613853D01*
X159911653Y-52613853D02*
X159983081Y-52470996D01*
X159983081Y-52470996D02*
X160125939Y-52399568D01*
X160125939Y-52399568D02*
X160483081Y-52399568D01*
X160483081Y-52399568D02*
X160625939Y-52328139D01*
X161340224Y-51970996D02*
X161340224Y-52970996D01*
X161340224Y-52113853D02*
X161411653Y-52042425D01*
X161411653Y-52042425D02*
X161554510Y-51970996D01*
X161554510Y-51970996D02*
X161768796Y-51970996D01*
X161768796Y-51970996D02*
X161911653Y-52042425D01*
X161911653Y-52042425D02*
X161983082Y-52185282D01*
X161983082Y-52185282D02*
X161983082Y-52970996D01*
X163340225Y-52970996D02*
X163340225Y-51470996D01*
X163340225Y-52899568D02*
X163197367Y-52970996D01*
X163197367Y-52970996D02*
X162911653Y-52970996D01*
X162911653Y-52970996D02*
X162768796Y-52899568D01*
X162768796Y-52899568D02*
X162697367Y-52828139D01*
X162697367Y-52828139D02*
X162625939Y-52685282D01*
X162625939Y-52685282D02*
X162625939Y-52256710D01*
X162625939Y-52256710D02*
X162697367Y-52113853D01*
X162697367Y-52113853D02*
X162768796Y-52042425D01*
X162768796Y-52042425D02*
X162911653Y-51970996D01*
X162911653Y-51970996D02*
X163197367Y-51970996D01*
X163197367Y-51970996D02*
X163340225Y-52042425D01*
X164625939Y-52899568D02*
X164483082Y-52970996D01*
X164483082Y-52970996D02*
X164197368Y-52970996D01*
X164197368Y-52970996D02*
X164054510Y-52899568D01*
X164054510Y-52899568D02*
X163983082Y-52756710D01*
X163983082Y-52756710D02*
X163983082Y-52185282D01*
X163983082Y-52185282D02*
X164054510Y-52042425D01*
X164054510Y-52042425D02*
X164197368Y-51970996D01*
X164197368Y-51970996D02*
X164483082Y-51970996D01*
X164483082Y-51970996D02*
X164625939Y-52042425D01*
X164625939Y-52042425D02*
X164697368Y-52185282D01*
X164697368Y-52185282D02*
X164697368Y-52328139D01*
X164697368Y-52328139D02*
X163983082Y-52470996D01*
X165340224Y-52970996D02*
X165340224Y-51970996D01*
X165340224Y-52256710D02*
X165411653Y-52113853D01*
X165411653Y-52113853D02*
X165483082Y-52042425D01*
X165483082Y-52042425D02*
X165625939Y-51970996D01*
X165625939Y-51970996D02*
X165768796Y-51970996D01*
X168268795Y-52970996D02*
X167768795Y-52256710D01*
X167411652Y-52970996D02*
X167411652Y-51470996D01*
X167411652Y-51470996D02*
X167983081Y-51470996D01*
X167983081Y-51470996D02*
X168125938Y-51542425D01*
X168125938Y-51542425D02*
X168197367Y-51613853D01*
X168197367Y-51613853D02*
X168268795Y-51756710D01*
X168268795Y-51756710D02*
X168268795Y-51970996D01*
X168268795Y-51970996D02*
X168197367Y-52113853D01*
X168197367Y-52113853D02*
X168125938Y-52185282D01*
X168125938Y-52185282D02*
X167983081Y-52256710D01*
X167983081Y-52256710D02*
X167411652Y-52256710D01*
X168911652Y-52970996D02*
X168911652Y-51970996D01*
X168911652Y-51470996D02*
X168840224Y-51542425D01*
X168840224Y-51542425D02*
X168911652Y-51613853D01*
X168911652Y-51613853D02*
X168983081Y-51542425D01*
X168983081Y-51542425D02*
X168911652Y-51470996D01*
X168911652Y-51470996D02*
X168911652Y-51613853D01*
X170268796Y-52970996D02*
X170268796Y-51470996D01*
X170268796Y-52899568D02*
X170125938Y-52970996D01*
X170125938Y-52970996D02*
X169840224Y-52970996D01*
X169840224Y-52970996D02*
X169697367Y-52899568D01*
X169697367Y-52899568D02*
X169625938Y-52828139D01*
X169625938Y-52828139D02*
X169554510Y-52685282D01*
X169554510Y-52685282D02*
X169554510Y-52256710D01*
X169554510Y-52256710D02*
X169625938Y-52113853D01*
X169625938Y-52113853D02*
X169697367Y-52042425D01*
X169697367Y-52042425D02*
X169840224Y-51970996D01*
X169840224Y-51970996D02*
X170125938Y-51970996D01*
X170125938Y-51970996D02*
X170268796Y-52042425D01*
X171625939Y-52970996D02*
X171625939Y-51470996D01*
X171625939Y-52899568D02*
X171483081Y-52970996D01*
X171483081Y-52970996D02*
X171197367Y-52970996D01*
X171197367Y-52970996D02*
X171054510Y-52899568D01*
X171054510Y-52899568D02*
X170983081Y-52828139D01*
X170983081Y-52828139D02*
X170911653Y-52685282D01*
X170911653Y-52685282D02*
X170911653Y-52256710D01*
X170911653Y-52256710D02*
X170983081Y-52113853D01*
X170983081Y-52113853D02*
X171054510Y-52042425D01*
X171054510Y-52042425D02*
X171197367Y-51970996D01*
X171197367Y-51970996D02*
X171483081Y-51970996D01*
X171483081Y-51970996D02*
X171625939Y-52042425D01*
X172554510Y-52970996D02*
X172411653Y-52899568D01*
X172411653Y-52899568D02*
X172340224Y-52756710D01*
X172340224Y-52756710D02*
X172340224Y-51470996D01*
X173697367Y-52899568D02*
X173554510Y-52970996D01*
X173554510Y-52970996D02*
X173268796Y-52970996D01*
X173268796Y-52970996D02*
X173125938Y-52899568D01*
X173125938Y-52899568D02*
X173054510Y-52756710D01*
X173054510Y-52756710D02*
X173054510Y-52185282D01*
X173054510Y-52185282D02*
X173125938Y-52042425D01*
X173125938Y-52042425D02*
X173268796Y-51970996D01*
X173268796Y-51970996D02*
X173554510Y-51970996D01*
X173554510Y-51970996D02*
X173697367Y-52042425D01*
X173697367Y-52042425D02*
X173768796Y-52185282D01*
X173768796Y-52185282D02*
X173768796Y-52328139D01*
X173768796Y-52328139D02*
X173054510Y-52470996D01*
X159054510Y-54600198D02*
X158554510Y-54600198D01*
X158554510Y-55385912D02*
X158554510Y-53885912D01*
X158554510Y-53885912D02*
X159268796Y-53885912D01*
X159840224Y-55385912D02*
X159840224Y-54385912D01*
X159840224Y-53885912D02*
X159768796Y-53957341D01*
X159768796Y-53957341D02*
X159840224Y-54028769D01*
X159840224Y-54028769D02*
X159911653Y-53957341D01*
X159911653Y-53957341D02*
X159840224Y-53885912D01*
X159840224Y-53885912D02*
X159840224Y-54028769D01*
X160483082Y-55314484D02*
X160625939Y-55385912D01*
X160625939Y-55385912D02*
X160911653Y-55385912D01*
X160911653Y-55385912D02*
X161054510Y-55314484D01*
X161054510Y-55314484D02*
X161125939Y-55171626D01*
X161125939Y-55171626D02*
X161125939Y-55100198D01*
X161125939Y-55100198D02*
X161054510Y-54957341D01*
X161054510Y-54957341D02*
X160911653Y-54885912D01*
X160911653Y-54885912D02*
X160697368Y-54885912D01*
X160697368Y-54885912D02*
X160554510Y-54814484D01*
X160554510Y-54814484D02*
X160483082Y-54671626D01*
X160483082Y-54671626D02*
X160483082Y-54600198D01*
X160483082Y-54600198D02*
X160554510Y-54457341D01*
X160554510Y-54457341D02*
X160697368Y-54385912D01*
X160697368Y-54385912D02*
X160911653Y-54385912D01*
X160911653Y-54385912D02*
X161054510Y-54457341D01*
X161768796Y-55385912D02*
X161768796Y-53885912D01*
X162411654Y-55385912D02*
X162411654Y-54600198D01*
X162411654Y-54600198D02*
X162340225Y-54457341D01*
X162340225Y-54457341D02*
X162197368Y-54385912D01*
X162197368Y-54385912D02*
X161983082Y-54385912D01*
X161983082Y-54385912D02*
X161840225Y-54457341D01*
X161840225Y-54457341D02*
X161768796Y-54528769D01*
X163125939Y-54814484D02*
X164268797Y-54814484D01*
X164983082Y-55385912D02*
X164983082Y-53885912D01*
X158411653Y-56300828D02*
X159340225Y-56300828D01*
X159340225Y-56300828D02*
X158840225Y-56872257D01*
X158840225Y-56872257D02*
X159054510Y-56872257D01*
X159054510Y-56872257D02*
X159197368Y-56943685D01*
X159197368Y-56943685D02*
X159268796Y-57015114D01*
X159268796Y-57015114D02*
X159340225Y-57157971D01*
X159340225Y-57157971D02*
X159340225Y-57515114D01*
X159340225Y-57515114D02*
X159268796Y-57657971D01*
X159268796Y-57657971D02*
X159197368Y-57729400D01*
X159197368Y-57729400D02*
X159054510Y-57800828D01*
X159054510Y-57800828D02*
X158625939Y-57800828D01*
X158625939Y-57800828D02*
X158483082Y-57729400D01*
X158483082Y-57729400D02*
X158411653Y-57657971D01*
X161054510Y-56229400D02*
X159768796Y-58157971D01*
X161483082Y-56443685D02*
X161554510Y-56372257D01*
X161554510Y-56372257D02*
X161697368Y-56300828D01*
X161697368Y-56300828D02*
X162054510Y-56300828D01*
X162054510Y-56300828D02*
X162197368Y-56372257D01*
X162197368Y-56372257D02*
X162268796Y-56443685D01*
X162268796Y-56443685D02*
X162340225Y-56586542D01*
X162340225Y-56586542D02*
X162340225Y-56729400D01*
X162340225Y-56729400D02*
X162268796Y-56943685D01*
X162268796Y-56943685D02*
X161411653Y-57800828D01*
X161411653Y-57800828D02*
X162340225Y-57800828D01*
X163197367Y-56943685D02*
X163054510Y-56872257D01*
X163054510Y-56872257D02*
X162983081Y-56800828D01*
X162983081Y-56800828D02*
X162911653Y-56657971D01*
X162911653Y-56657971D02*
X162911653Y-56586542D01*
X162911653Y-56586542D02*
X162983081Y-56443685D01*
X162983081Y-56443685D02*
X163054510Y-56372257D01*
X163054510Y-56372257D02*
X163197367Y-56300828D01*
X163197367Y-56300828D02*
X163483081Y-56300828D01*
X163483081Y-56300828D02*
X163625939Y-56372257D01*
X163625939Y-56372257D02*
X163697367Y-56443685D01*
X163697367Y-56443685D02*
X163768796Y-56586542D01*
X163768796Y-56586542D02*
X163768796Y-56657971D01*
X163768796Y-56657971D02*
X163697367Y-56800828D01*
X163697367Y-56800828D02*
X163625939Y-56872257D01*
X163625939Y-56872257D02*
X163483081Y-56943685D01*
X163483081Y-56943685D02*
X163197367Y-56943685D01*
X163197367Y-56943685D02*
X163054510Y-57015114D01*
X163054510Y-57015114D02*
X162983081Y-57086542D01*
X162983081Y-57086542D02*
X162911653Y-57229400D01*
X162911653Y-57229400D02*
X162911653Y-57515114D01*
X162911653Y-57515114D02*
X162983081Y-57657971D01*
X162983081Y-57657971D02*
X163054510Y-57729400D01*
X163054510Y-57729400D02*
X163197367Y-57800828D01*
X163197367Y-57800828D02*
X163483081Y-57800828D01*
X163483081Y-57800828D02*
X163625939Y-57729400D01*
X163625939Y-57729400D02*
X163697367Y-57657971D01*
X163697367Y-57657971D02*
X163768796Y-57515114D01*
X163768796Y-57515114D02*
X163768796Y-57229400D01*
X163768796Y-57229400D02*
X163697367Y-57086542D01*
X163697367Y-57086542D02*
X163625939Y-57015114D01*
X163625939Y-57015114D02*
X163483081Y-56943685D01*
X165483081Y-56229400D02*
X164197367Y-58157971D01*
X165911653Y-56443685D02*
X165983081Y-56372257D01*
X165983081Y-56372257D02*
X166125939Y-56300828D01*
X166125939Y-56300828D02*
X166483081Y-56300828D01*
X166483081Y-56300828D02*
X166625939Y-56372257D01*
X166625939Y-56372257D02*
X166697367Y-56443685D01*
X166697367Y-56443685D02*
X166768796Y-56586542D01*
X166768796Y-56586542D02*
X166768796Y-56729400D01*
X166768796Y-56729400D02*
X166697367Y-56943685D01*
X166697367Y-56943685D02*
X165840224Y-57800828D01*
X165840224Y-57800828D02*
X166768796Y-57800828D01*
X167697367Y-56300828D02*
X167840224Y-56300828D01*
X167840224Y-56300828D02*
X167983081Y-56372257D01*
X167983081Y-56372257D02*
X168054510Y-56443685D01*
X168054510Y-56443685D02*
X168125938Y-56586542D01*
X168125938Y-56586542D02*
X168197367Y-56872257D01*
X168197367Y-56872257D02*
X168197367Y-57229400D01*
X168197367Y-57229400D02*
X168125938Y-57515114D01*
X168125938Y-57515114D02*
X168054510Y-57657971D01*
X168054510Y-57657971D02*
X167983081Y-57729400D01*
X167983081Y-57729400D02*
X167840224Y-57800828D01*
X167840224Y-57800828D02*
X167697367Y-57800828D01*
X167697367Y-57800828D02*
X167554510Y-57729400D01*
X167554510Y-57729400D02*
X167483081Y-57657971D01*
X167483081Y-57657971D02*
X167411652Y-57515114D01*
X167411652Y-57515114D02*
X167340224Y-57229400D01*
X167340224Y-57229400D02*
X167340224Y-56872257D01*
X167340224Y-56872257D02*
X167411652Y-56586542D01*
X167411652Y-56586542D02*
X167483081Y-56443685D01*
X167483081Y-56443685D02*
X167554510Y-56372257D01*
X167554510Y-56372257D02*
X167697367Y-56300828D01*
X168768795Y-56443685D02*
X168840223Y-56372257D01*
X168840223Y-56372257D02*
X168983081Y-56300828D01*
X168983081Y-56300828D02*
X169340223Y-56300828D01*
X169340223Y-56300828D02*
X169483081Y-56372257D01*
X169483081Y-56372257D02*
X169554509Y-56443685D01*
X169554509Y-56443685D02*
X169625938Y-56586542D01*
X169625938Y-56586542D02*
X169625938Y-56729400D01*
X169625938Y-56729400D02*
X169554509Y-56943685D01*
X169554509Y-56943685D02*
X168697366Y-57800828D01*
X168697366Y-57800828D02*
X169625938Y-57800828D01*
X170983080Y-56300828D02*
X170268794Y-56300828D01*
X170268794Y-56300828D02*
X170197366Y-57015114D01*
X170197366Y-57015114D02*
X170268794Y-56943685D01*
X170268794Y-56943685D02*
X170411652Y-56872257D01*
X170411652Y-56872257D02*
X170768794Y-56872257D01*
X170768794Y-56872257D02*
X170911652Y-56943685D01*
X170911652Y-56943685D02*
X170983080Y-57015114D01*
X170983080Y-57015114D02*
X171054509Y-57157971D01*
X171054509Y-57157971D02*
X171054509Y-57515114D01*
X171054509Y-57515114D02*
X170983080Y-57657971D01*
X170983080Y-57657971D02*
X170911652Y-57729400D01*
X170911652Y-57729400D02*
X170768794Y-57800828D01*
X170768794Y-57800828D02*
X170411652Y-57800828D01*
X170411652Y-57800828D02*
X170268794Y-57729400D01*
X170268794Y-57729400D02*
X170197366Y-57657971D01*
D11*
X166500000Y-64500000D02*
X224500000Y-64500000D01*
X181000000Y-50000000D02*
X178000000Y-50000000D01*
X152000000Y-79000000D02*
X166500000Y-64500000D01*
X210000000Y-50000000D02*
X213000000Y-50000000D01*
X239000000Y-79000000D02*
X224500000Y-64500000D01*
X197500000Y-65960000D02*
X210000000Y-65960000D01*
X210000000Y-81460000D01*
X197500000Y-81460000D01*
X197500000Y-65960000D01*
X188000000Y-69040000D02*
X200330000Y-69040000D01*
X200330000Y-79370000D01*
X188000000Y-79370000D01*
X188000000Y-69040000D01*
D12*
X236166666Y-49254819D02*
X235833333Y-48778628D01*
X235595238Y-49254819D02*
X235595238Y-48254819D01*
X235595238Y-48254819D02*
X235976190Y-48254819D01*
X235976190Y-48254819D02*
X236071428Y-48302438D01*
X236071428Y-48302438D02*
X236119047Y-48350057D01*
X236119047Y-48350057D02*
X236166666Y-48445295D01*
X236166666Y-48445295D02*
X236166666Y-48588152D01*
X236166666Y-48588152D02*
X236119047Y-48683390D01*
X236119047Y-48683390D02*
X236071428Y-48731009D01*
X236071428Y-48731009D02*
X235976190Y-48778628D01*
X235976190Y-48778628D02*
X235595238Y-48778628D01*
X236595238Y-48731009D02*
X236928571Y-48731009D01*
X237071428Y-49254819D02*
X236595238Y-49254819D01*
X236595238Y-49254819D02*
X236595238Y-48254819D01*
X236595238Y-48254819D02*
X237071428Y-48254819D01*
X237833333Y-48731009D02*
X237500000Y-48731009D01*
X237500000Y-49254819D02*
X237500000Y-48254819D01*
X237500000Y-48254819D02*
X237976190Y-48254819D01*
X238500000Y-48254819D02*
X238500000Y-48492914D01*
X238261905Y-48397676D02*
X238500000Y-48492914D01*
X238500000Y-48492914D02*
X238738095Y-48397676D01*
X238357143Y-48683390D02*
X238500000Y-48492914D01*
X238500000Y-48492914D02*
X238642857Y-48683390D01*
X239261905Y-48254819D02*
X239261905Y-48492914D01*
X239023810Y-48397676D02*
X239261905Y-48492914D01*
X239261905Y-48492914D02*
X239500000Y-48397676D01*
X239119048Y-48683390D02*
X239261905Y-48492914D01*
X239261905Y-48492914D02*
X239404762Y-48683390D01*
X152166666Y-49254819D02*
X151833333Y-48778628D01*
X151595238Y-49254819D02*
X151595238Y-48254819D01*
X151595238Y-48254819D02*
X151976190Y-48254819D01*
X151976190Y-48254819D02*
X152071428Y-48302438D01*
X152071428Y-48302438D02*
X152119047Y-48350057D01*
X152119047Y-48350057D02*
X152166666Y-48445295D01*
X152166666Y-48445295D02*
X152166666Y-48588152D01*
X152166666Y-48588152D02*
X152119047Y-48683390D01*
X152119047Y-48683390D02*
X152071428Y-48731009D01*
X152071428Y-48731009D02*
X151976190Y-48778628D01*
X151976190Y-48778628D02*
X151595238Y-48778628D01*
X152595238Y-48731009D02*
X152928571Y-48731009D01*
X153071428Y-49254819D02*
X152595238Y-49254819D01*
X152595238Y-49254819D02*
X152595238Y-48254819D01*
X152595238Y-48254819D02*
X153071428Y-48254819D01*
X153833333Y-48731009D02*
X153500000Y-48731009D01*
X153500000Y-49254819D02*
X153500000Y-48254819D01*
X153500000Y-48254819D02*
X153976190Y-48254819D01*
X154500000Y-48254819D02*
X154500000Y-48492914D01*
X154261905Y-48397676D02*
X154500000Y-48492914D01*
X154500000Y-48492914D02*
X154738095Y-48397676D01*
X154357143Y-48683390D02*
X154500000Y-48492914D01*
X154500000Y-48492914D02*
X154642857Y-48683390D01*
X155261905Y-48254819D02*
X155261905Y-48492914D01*
X155023810Y-48397676D02*
X155261905Y-48492914D01*
X155261905Y-48492914D02*
X155500000Y-48397676D01*
X155119048Y-48683390D02*
X155261905Y-48492914D01*
X155261905Y-48492914D02*
X155404762Y-48683390D01*
D10*
X214249757Y-62821427D02*
X214178328Y-62964285D01*
X214178328Y-62964285D02*
X214178328Y-63178570D01*
X214178328Y-63178570D02*
X214249757Y-63392856D01*
X214249757Y-63392856D02*
X214392614Y-63535713D01*
X214392614Y-63535713D02*
X214535471Y-63607142D01*
X214535471Y-63607142D02*
X214821185Y-63678570D01*
X214821185Y-63678570D02*
X215035471Y-63678570D01*
X215035471Y-63678570D02*
X215321185Y-63607142D01*
X215321185Y-63607142D02*
X215464042Y-63535713D01*
X215464042Y-63535713D02*
X215606900Y-63392856D01*
X215606900Y-63392856D02*
X215678328Y-63178570D01*
X215678328Y-63178570D02*
X215678328Y-63035713D01*
X215678328Y-63035713D02*
X215606900Y-62821427D01*
X215606900Y-62821427D02*
X215535471Y-62749999D01*
X215535471Y-62749999D02*
X215035471Y-62749999D01*
X215035471Y-62749999D02*
X215035471Y-63035713D01*
X214178328Y-61892856D02*
X214535471Y-61892856D01*
X214392614Y-62249999D02*
X214535471Y-61892856D01*
X214535471Y-61892856D02*
X214392614Y-61535713D01*
X214821185Y-62107142D02*
X214535471Y-61892856D01*
X214535471Y-61892856D02*
X214821185Y-61678570D01*
X214178328Y-60749999D02*
X214535471Y-60749999D01*
X214392614Y-61107142D02*
X214535471Y-60749999D01*
X214535471Y-60749999D02*
X214392614Y-60392856D01*
X214821185Y-60964285D02*
X214535471Y-60749999D01*
X214535471Y-60749999D02*
X214821185Y-60535713D01*
X214178328Y-59607142D02*
X214535471Y-59607142D01*
X214392614Y-59964285D02*
X214535471Y-59607142D01*
X214535471Y-59607142D02*
X214392614Y-59249999D01*
X214821185Y-59821428D02*
X214535471Y-59607142D01*
X214535471Y-59607142D02*
X214821185Y-59392856D01*
D12*
X229333333Y-75454819D02*
X229000000Y-74978628D01*
X228761905Y-75454819D02*
X228761905Y-74454819D01*
X228761905Y-74454819D02*
X229142857Y-74454819D01*
X229142857Y-74454819D02*
X229238095Y-74502438D01*
X229238095Y-74502438D02*
X229285714Y-74550057D01*
X229285714Y-74550057D02*
X229333333Y-74645295D01*
X229333333Y-74645295D02*
X229333333Y-74788152D01*
X229333333Y-74788152D02*
X229285714Y-74883390D01*
X229285714Y-74883390D02*
X229238095Y-74931009D01*
X229238095Y-74931009D02*
X229142857Y-74978628D01*
X229142857Y-74978628D02*
X228761905Y-74978628D01*
X229523810Y-75550057D02*
X230285714Y-75550057D01*
X231000000Y-75454819D02*
X230523810Y-75454819D01*
X230523810Y-75454819D02*
X230523810Y-74454819D01*
X231333334Y-75454819D02*
X231333334Y-74454819D01*
X231809524Y-75454819D02*
X231809524Y-74454819D01*
X231809524Y-74454819D02*
X232380952Y-75454819D01*
X232380952Y-75454819D02*
X232380952Y-74454819D01*
X232857143Y-74931009D02*
X233190476Y-74931009D01*
X233333333Y-75454819D02*
X232857143Y-75454819D01*
X232857143Y-75454819D02*
X232857143Y-74454819D01*
X232857143Y-74454819D02*
X233333333Y-74454819D01*
X234285714Y-75454819D02*
X233714286Y-75454819D01*
X234000000Y-75454819D02*
X234000000Y-74454819D01*
X234000000Y-74454819D02*
X233904762Y-74597676D01*
X233904762Y-74597676D02*
X233809524Y-74692914D01*
X233809524Y-74692914D02*
X233714286Y-74740533D01*
X202104819Y-63285714D02*
X201628628Y-63619047D01*
X202104819Y-63857142D02*
X201104819Y-63857142D01*
X201104819Y-63857142D02*
X201104819Y-63476190D01*
X201104819Y-63476190D02*
X201152438Y-63380952D01*
X201152438Y-63380952D02*
X201200057Y-63333333D01*
X201200057Y-63333333D02*
X201295295Y-63285714D01*
X201295295Y-63285714D02*
X201438152Y-63285714D01*
X201438152Y-63285714D02*
X201533390Y-63333333D01*
X201533390Y-63333333D02*
X201581009Y-63380952D01*
X201581009Y-63380952D02*
X201628628Y-63476190D01*
X201628628Y-63476190D02*
X201628628Y-63857142D01*
X202200057Y-63095238D02*
X202200057Y-62333333D01*
X202104819Y-62095237D02*
X201104819Y-62095237D01*
X202104819Y-61047619D02*
X201628628Y-61380952D01*
X202104819Y-61619047D02*
X201104819Y-61619047D01*
X201104819Y-61619047D02*
X201104819Y-61238095D01*
X201104819Y-61238095D02*
X201152438Y-61142857D01*
X201152438Y-61142857D02*
X201200057Y-61095238D01*
X201200057Y-61095238D02*
X201295295Y-61047619D01*
X201295295Y-61047619D02*
X201438152Y-61047619D01*
X201438152Y-61047619D02*
X201533390Y-61095238D01*
X201533390Y-61095238D02*
X201581009Y-61142857D01*
X201581009Y-61142857D02*
X201628628Y-61238095D01*
X201628628Y-61238095D02*
X201628628Y-61619047D01*
X202104819Y-60095238D02*
X202104819Y-60666666D01*
X202104819Y-60380952D02*
X201104819Y-60380952D01*
X201104819Y-60380952D02*
X201247676Y-60476190D01*
X201247676Y-60476190D02*
X201342914Y-60571428D01*
X201342914Y-60571428D02*
X201390533Y-60666666D01*
X174258718Y-86061323D02*
X174306428Y-85918192D01*
X174306428Y-85918192D02*
X174306428Y-85679639D01*
X174306428Y-85679639D02*
X174258718Y-85584218D01*
X174258718Y-85584218D02*
X174211007Y-85536508D01*
X174211007Y-85536508D02*
X174115586Y-85488797D01*
X174115586Y-85488797D02*
X174020165Y-85488797D01*
X174020165Y-85488797D02*
X173924744Y-85536508D01*
X173924744Y-85536508D02*
X173877033Y-85584218D01*
X173877033Y-85584218D02*
X173829323Y-85679639D01*
X173829323Y-85679639D02*
X173781612Y-85870481D01*
X173781612Y-85870481D02*
X173733902Y-85965902D01*
X173733902Y-85965902D02*
X173686191Y-86013613D01*
X173686191Y-86013613D02*
X173590770Y-86061323D01*
X173590770Y-86061323D02*
X173495349Y-86061323D01*
X173495349Y-86061323D02*
X173399928Y-86013613D01*
X173399928Y-86013613D02*
X173352218Y-85965902D01*
X173352218Y-85965902D02*
X173304507Y-85870481D01*
X173304507Y-85870481D02*
X173304507Y-85631929D01*
X173304507Y-85631929D02*
X173352218Y-85488797D01*
X173304507Y-85154824D02*
X174306428Y-84916271D01*
X174306428Y-84916271D02*
X173590770Y-84725429D01*
X173590770Y-84725429D02*
X174306428Y-84534587D01*
X174306428Y-84534587D02*
X173304507Y-84296035D01*
X174306428Y-83389534D02*
X174306428Y-83962060D01*
X174306428Y-83675797D02*
X173304507Y-83675797D01*
X173304507Y-83675797D02*
X173447639Y-83771218D01*
X173447639Y-83771218D02*
X173543060Y-83866639D01*
X173543060Y-83866639D02*
X173590770Y-83962060D01*
X163452380Y-68954819D02*
X162976190Y-68954819D01*
X162976190Y-68954819D02*
X162976190Y-67954819D01*
X163547619Y-69050057D02*
X164309523Y-69050057D01*
X164547619Y-68954819D02*
X164547619Y-67954819D01*
X164547619Y-67954819D02*
X164880952Y-68669104D01*
X164880952Y-68669104D02*
X165214285Y-67954819D01*
X165214285Y-67954819D02*
X165214285Y-68954819D01*
X165880952Y-67954819D02*
X166071428Y-67954819D01*
X166071428Y-67954819D02*
X166166666Y-68002438D01*
X166166666Y-68002438D02*
X166261904Y-68097676D01*
X166261904Y-68097676D02*
X166309523Y-68288152D01*
X166309523Y-68288152D02*
X166309523Y-68621485D01*
X166309523Y-68621485D02*
X166261904Y-68811961D01*
X166261904Y-68811961D02*
X166166666Y-68907200D01*
X166166666Y-68907200D02*
X166071428Y-68954819D01*
X166071428Y-68954819D02*
X165880952Y-68954819D01*
X165880952Y-68954819D02*
X165785714Y-68907200D01*
X165785714Y-68907200D02*
X165690476Y-68811961D01*
X165690476Y-68811961D02*
X165642857Y-68621485D01*
X165642857Y-68621485D02*
X165642857Y-68288152D01*
X165642857Y-68288152D02*
X165690476Y-68097676D01*
X165690476Y-68097676D02*
X165785714Y-68002438D01*
X165785714Y-68002438D02*
X165880952Y-67954819D01*
X166595238Y-67954819D02*
X167166666Y-67954819D01*
X166880952Y-68954819D02*
X166880952Y-67954819D01*
X167690476Y-67954819D02*
X167880952Y-67954819D01*
X167880952Y-67954819D02*
X167976190Y-68002438D01*
X167976190Y-68002438D02*
X168071428Y-68097676D01*
X168071428Y-68097676D02*
X168119047Y-68288152D01*
X168119047Y-68288152D02*
X168119047Y-68621485D01*
X168119047Y-68621485D02*
X168071428Y-68811961D01*
X168071428Y-68811961D02*
X167976190Y-68907200D01*
X167976190Y-68907200D02*
X167880952Y-68954819D01*
X167880952Y-68954819D02*
X167690476Y-68954819D01*
X167690476Y-68954819D02*
X167595238Y-68907200D01*
X167595238Y-68907200D02*
X167500000Y-68811961D01*
X167500000Y-68811961D02*
X167452381Y-68621485D01*
X167452381Y-68621485D02*
X167452381Y-68288152D01*
X167452381Y-68288152D02*
X167500000Y-68097676D01*
X167500000Y-68097676D02*
X167595238Y-68002438D01*
X167595238Y-68002438D02*
X167690476Y-67954819D01*
X169119047Y-68954819D02*
X168785714Y-68478628D01*
X168547619Y-68954819D02*
X168547619Y-67954819D01*
X168547619Y-67954819D02*
X168928571Y-67954819D01*
X168928571Y-67954819D02*
X169023809Y-68002438D01*
X169023809Y-68002438D02*
X169071428Y-68050057D01*
X169071428Y-68050057D02*
X169119047Y-68145295D01*
X169119047Y-68145295D02*
X169119047Y-68288152D01*
X169119047Y-68288152D02*
X169071428Y-68383390D01*
X169071428Y-68383390D02*
X169023809Y-68431009D01*
X169023809Y-68431009D02*
X168928571Y-68478628D01*
X168928571Y-68478628D02*
X168547619Y-68478628D01*
X169309524Y-69050057D02*
X170071428Y-69050057D01*
X170309524Y-68954819D02*
X170309524Y-67954819D01*
X170309524Y-67954819D02*
X170547619Y-67954819D01*
X170547619Y-67954819D02*
X170690476Y-68002438D01*
X170690476Y-68002438D02*
X170785714Y-68097676D01*
X170785714Y-68097676D02*
X170833333Y-68192914D01*
X170833333Y-68192914D02*
X170880952Y-68383390D01*
X170880952Y-68383390D02*
X170880952Y-68526247D01*
X170880952Y-68526247D02*
X170833333Y-68716723D01*
X170833333Y-68716723D02*
X170785714Y-68811961D01*
X170785714Y-68811961D02*
X170690476Y-68907200D01*
X170690476Y-68907200D02*
X170547619Y-68954819D01*
X170547619Y-68954819D02*
X170309524Y-68954819D01*
X171880952Y-68954819D02*
X171547619Y-68478628D01*
X171309524Y-68954819D02*
X171309524Y-67954819D01*
X171309524Y-67954819D02*
X171690476Y-67954819D01*
X171690476Y-67954819D02*
X171785714Y-68002438D01*
X171785714Y-68002438D02*
X171833333Y-68050057D01*
X171833333Y-68050057D02*
X171880952Y-68145295D01*
X171880952Y-68145295D02*
X171880952Y-68288152D01*
X171880952Y-68288152D02*
X171833333Y-68383390D01*
X171833333Y-68383390D02*
X171785714Y-68431009D01*
X171785714Y-68431009D02*
X171690476Y-68478628D01*
X171690476Y-68478628D02*
X171309524Y-68478628D01*
X172309524Y-68954819D02*
X172309524Y-67954819D01*
X172642857Y-67954819D02*
X172976190Y-68954819D01*
X172976190Y-68954819D02*
X173309523Y-67954819D01*
X173642857Y-68431009D02*
X173976190Y-68431009D01*
X174119047Y-68954819D02*
X173642857Y-68954819D01*
X173642857Y-68954819D02*
X173642857Y-67954819D01*
X173642857Y-67954819D02*
X174119047Y-67954819D01*
X175119047Y-68954819D02*
X174785714Y-68478628D01*
X174547619Y-68954819D02*
X174547619Y-67954819D01*
X174547619Y-67954819D02*
X174928571Y-67954819D01*
X174928571Y-67954819D02*
X175023809Y-68002438D01*
X175023809Y-68002438D02*
X175071428Y-68050057D01*
X175071428Y-68050057D02*
X175119047Y-68145295D01*
X175119047Y-68145295D02*
X175119047Y-68288152D01*
X175119047Y-68288152D02*
X175071428Y-68383390D01*
X175071428Y-68383390D02*
X175023809Y-68431009D01*
X175023809Y-68431009D02*
X174928571Y-68478628D01*
X174928571Y-68478628D02*
X174547619Y-68478628D01*
X176071428Y-68954819D02*
X175500000Y-68954819D01*
X175785714Y-68954819D02*
X175785714Y-67954819D01*
X175785714Y-67954819D02*
X175690476Y-68097676D01*
X175690476Y-68097676D02*
X175595238Y-68192914D01*
X175595238Y-68192914D02*
X175500000Y-68240533D01*
X215452380Y-75954819D02*
X215119047Y-75478628D01*
X214880952Y-75954819D02*
X214880952Y-74954819D01*
X214880952Y-74954819D02*
X215261904Y-74954819D01*
X215261904Y-74954819D02*
X215357142Y-75002438D01*
X215357142Y-75002438D02*
X215404761Y-75050057D01*
X215404761Y-75050057D02*
X215452380Y-75145295D01*
X215452380Y-75145295D02*
X215452380Y-75288152D01*
X215452380Y-75288152D02*
X215404761Y-75383390D01*
X215404761Y-75383390D02*
X215357142Y-75431009D01*
X215357142Y-75431009D02*
X215261904Y-75478628D01*
X215261904Y-75478628D02*
X214880952Y-75478628D01*
X215642857Y-76050057D02*
X216404761Y-76050057D01*
X216642857Y-75954819D02*
X216642857Y-74954819D01*
X216642857Y-74954819D02*
X216976190Y-75669104D01*
X216976190Y-75669104D02*
X217309523Y-74954819D01*
X217309523Y-74954819D02*
X217309523Y-75954819D01*
X217976190Y-74954819D02*
X218166666Y-74954819D01*
X218166666Y-74954819D02*
X218261904Y-75002438D01*
X218261904Y-75002438D02*
X218357142Y-75097676D01*
X218357142Y-75097676D02*
X218404761Y-75288152D01*
X218404761Y-75288152D02*
X218404761Y-75621485D01*
X218404761Y-75621485D02*
X218357142Y-75811961D01*
X218357142Y-75811961D02*
X218261904Y-75907200D01*
X218261904Y-75907200D02*
X218166666Y-75954819D01*
X218166666Y-75954819D02*
X217976190Y-75954819D01*
X217976190Y-75954819D02*
X217880952Y-75907200D01*
X217880952Y-75907200D02*
X217785714Y-75811961D01*
X217785714Y-75811961D02*
X217738095Y-75621485D01*
X217738095Y-75621485D02*
X217738095Y-75288152D01*
X217738095Y-75288152D02*
X217785714Y-75097676D01*
X217785714Y-75097676D02*
X217880952Y-75002438D01*
X217880952Y-75002438D02*
X217976190Y-74954819D01*
X218690476Y-74954819D02*
X219261904Y-74954819D01*
X218976190Y-75954819D02*
X218976190Y-74954819D01*
X219785714Y-74954819D02*
X219976190Y-74954819D01*
X219976190Y-74954819D02*
X220071428Y-75002438D01*
X220071428Y-75002438D02*
X220166666Y-75097676D01*
X220166666Y-75097676D02*
X220214285Y-75288152D01*
X220214285Y-75288152D02*
X220214285Y-75621485D01*
X220214285Y-75621485D02*
X220166666Y-75811961D01*
X220166666Y-75811961D02*
X220071428Y-75907200D01*
X220071428Y-75907200D02*
X219976190Y-75954819D01*
X219976190Y-75954819D02*
X219785714Y-75954819D01*
X219785714Y-75954819D02*
X219690476Y-75907200D01*
X219690476Y-75907200D02*
X219595238Y-75811961D01*
X219595238Y-75811961D02*
X219547619Y-75621485D01*
X219547619Y-75621485D02*
X219547619Y-75288152D01*
X219547619Y-75288152D02*
X219595238Y-75097676D01*
X219595238Y-75097676D02*
X219690476Y-75002438D01*
X219690476Y-75002438D02*
X219785714Y-74954819D01*
X221214285Y-75954819D02*
X220880952Y-75478628D01*
X220642857Y-75954819D02*
X220642857Y-74954819D01*
X220642857Y-74954819D02*
X221023809Y-74954819D01*
X221023809Y-74954819D02*
X221119047Y-75002438D01*
X221119047Y-75002438D02*
X221166666Y-75050057D01*
X221166666Y-75050057D02*
X221214285Y-75145295D01*
X221214285Y-75145295D02*
X221214285Y-75288152D01*
X221214285Y-75288152D02*
X221166666Y-75383390D01*
X221166666Y-75383390D02*
X221119047Y-75431009D01*
X221119047Y-75431009D02*
X221023809Y-75478628D01*
X221023809Y-75478628D02*
X220642857Y-75478628D01*
X221404762Y-76050057D02*
X222166666Y-76050057D01*
X222404762Y-75954819D02*
X222404762Y-74954819D01*
X222404762Y-74954819D02*
X222642857Y-74954819D01*
X222642857Y-74954819D02*
X222785714Y-75002438D01*
X222785714Y-75002438D02*
X222880952Y-75097676D01*
X222880952Y-75097676D02*
X222928571Y-75192914D01*
X222928571Y-75192914D02*
X222976190Y-75383390D01*
X222976190Y-75383390D02*
X222976190Y-75526247D01*
X222976190Y-75526247D02*
X222928571Y-75716723D01*
X222928571Y-75716723D02*
X222880952Y-75811961D01*
X222880952Y-75811961D02*
X222785714Y-75907200D01*
X222785714Y-75907200D02*
X222642857Y-75954819D01*
X222642857Y-75954819D02*
X222404762Y-75954819D01*
X223976190Y-75954819D02*
X223642857Y-75478628D01*
X223404762Y-75954819D02*
X223404762Y-74954819D01*
X223404762Y-74954819D02*
X223785714Y-74954819D01*
X223785714Y-74954819D02*
X223880952Y-75002438D01*
X223880952Y-75002438D02*
X223928571Y-75050057D01*
X223928571Y-75050057D02*
X223976190Y-75145295D01*
X223976190Y-75145295D02*
X223976190Y-75288152D01*
X223976190Y-75288152D02*
X223928571Y-75383390D01*
X223928571Y-75383390D02*
X223880952Y-75431009D01*
X223880952Y-75431009D02*
X223785714Y-75478628D01*
X223785714Y-75478628D02*
X223404762Y-75478628D01*
X224404762Y-75954819D02*
X224404762Y-74954819D01*
X224738095Y-74954819D02*
X225071428Y-75954819D01*
X225071428Y-75954819D02*
X225404761Y-74954819D01*
X225738095Y-75431009D02*
X226071428Y-75431009D01*
X226214285Y-75954819D02*
X225738095Y-75954819D01*
X225738095Y-75954819D02*
X225738095Y-74954819D01*
X225738095Y-74954819D02*
X226214285Y-74954819D01*
X227214285Y-75954819D02*
X226880952Y-75478628D01*
X226642857Y-75954819D02*
X226642857Y-74954819D01*
X226642857Y-74954819D02*
X227023809Y-74954819D01*
X227023809Y-74954819D02*
X227119047Y-75002438D01*
X227119047Y-75002438D02*
X227166666Y-75050057D01*
X227166666Y-75050057D02*
X227214285Y-75145295D01*
X227214285Y-75145295D02*
X227214285Y-75288152D01*
X227214285Y-75288152D02*
X227166666Y-75383390D01*
X227166666Y-75383390D02*
X227119047Y-75431009D01*
X227119047Y-75431009D02*
X227023809Y-75478628D01*
X227023809Y-75478628D02*
X226642857Y-75478628D01*
X228166666Y-75954819D02*
X227595238Y-75954819D01*
X227880952Y-75954819D02*
X227880952Y-74954819D01*
X227880952Y-74954819D02*
X227785714Y-75097676D01*
X227785714Y-75097676D02*
X227690476Y-75192914D01*
X227690476Y-75192914D02*
X227595238Y-75240533D01*
X199289820Y-85983093D02*
X198289820Y-85983093D01*
X199289820Y-85411665D02*
X198718391Y-85840236D01*
X198289820Y-85411665D02*
X198861248Y-85983093D01*
X199289820Y-84459284D02*
X199289820Y-85030712D01*
X199289820Y-84744998D02*
X198289820Y-84744998D01*
X198289820Y-84744998D02*
X198432677Y-84840236D01*
X198432677Y-84840236D02*
X198527915Y-84935474D01*
X198527915Y-84935474D02*
X198575534Y-85030712D01*
X184856819Y-83999999D02*
X185094914Y-83999999D01*
X184999676Y-84238094D02*
X185094914Y-83999999D01*
X185094914Y-83999999D02*
X184999676Y-83761904D01*
X185285390Y-84142856D02*
X185094914Y-83999999D01*
X185094914Y-83999999D02*
X185285390Y-83857142D01*
X184856819Y-83999999D02*
X185094914Y-83999999D01*
X184999676Y-84238094D02*
X185094914Y-83999999D01*
X185094914Y-83999999D02*
X184999676Y-83761904D01*
X185285390Y-84142856D02*
X185094914Y-83999999D01*
X185094914Y-83999999D02*
X185285390Y-83857142D01*
D13*
X181703842Y-80019524D02*
X181764318Y-79838095D01*
X181764318Y-79838095D02*
X181764318Y-79535714D01*
X181764318Y-79535714D02*
X181703842Y-79414762D01*
X181703842Y-79414762D02*
X181643365Y-79354286D01*
X181643365Y-79354286D02*
X181522413Y-79293809D01*
X181522413Y-79293809D02*
X181401461Y-79293809D01*
X181401461Y-79293809D02*
X181280508Y-79354286D01*
X181280508Y-79354286D02*
X181220032Y-79414762D01*
X181220032Y-79414762D02*
X181159556Y-79535714D01*
X181159556Y-79535714D02*
X181099080Y-79777619D01*
X181099080Y-79777619D02*
X181038603Y-79898571D01*
X181038603Y-79898571D02*
X180978127Y-79959048D01*
X180978127Y-79959048D02*
X180857175Y-80019524D01*
X180857175Y-80019524D02*
X180736222Y-80019524D01*
X180736222Y-80019524D02*
X180615270Y-79959048D01*
X180615270Y-79959048D02*
X180554794Y-79898571D01*
X180554794Y-79898571D02*
X180494318Y-79777619D01*
X180494318Y-79777619D02*
X180494318Y-79475238D01*
X180494318Y-79475238D02*
X180554794Y-79293809D01*
X180494318Y-78870476D02*
X181764318Y-78568095D01*
X181764318Y-78568095D02*
X180857175Y-78326190D01*
X180857175Y-78326190D02*
X181764318Y-78084285D01*
X181764318Y-78084285D02*
X180494318Y-77781905D01*
X181885270Y-77600476D02*
X181885270Y-76632856D01*
X181764318Y-76330476D02*
X180494318Y-76330476D01*
X180494318Y-76330476D02*
X180494318Y-76028095D01*
X180494318Y-76028095D02*
X180554794Y-75846666D01*
X180554794Y-75846666D02*
X180675746Y-75725714D01*
X180675746Y-75725714D02*
X180796699Y-75665237D01*
X180796699Y-75665237D02*
X181038603Y-75604761D01*
X181038603Y-75604761D02*
X181220032Y-75604761D01*
X181220032Y-75604761D02*
X181461937Y-75665237D01*
X181461937Y-75665237D02*
X181582889Y-75725714D01*
X181582889Y-75725714D02*
X181703842Y-75846666D01*
X181703842Y-75846666D02*
X181764318Y-76028095D01*
X181764318Y-76028095D02*
X181764318Y-76330476D01*
X181764318Y-75060476D02*
X180494318Y-75060476D01*
X181764318Y-74455714D02*
X180494318Y-74455714D01*
X180494318Y-74455714D02*
X180494318Y-73971904D01*
X180494318Y-73971904D02*
X180554794Y-73850952D01*
X180554794Y-73850952D02*
X180615270Y-73790475D01*
X180615270Y-73790475D02*
X180736222Y-73729999D01*
X180736222Y-73729999D02*
X180917651Y-73729999D01*
X180917651Y-73729999D02*
X181038603Y-73790475D01*
X181038603Y-73790475D02*
X181099080Y-73850952D01*
X181099080Y-73850952D02*
X181159556Y-73971904D01*
X181159556Y-73971904D02*
X181159556Y-74455714D01*
X181764318Y-72520475D02*
X181764318Y-73246190D01*
X181764318Y-72883333D02*
X180494318Y-72883333D01*
X180494318Y-72883333D02*
X180675746Y-73004285D01*
X180675746Y-73004285D02*
X180796699Y-73125237D01*
X180796699Y-73125237D02*
X180857175Y-73246190D01*
D12*
X194571428Y-80777200D02*
X194714285Y-80824819D01*
X194714285Y-80824819D02*
X194952380Y-80824819D01*
X194952380Y-80824819D02*
X195047618Y-80777200D01*
X195047618Y-80777200D02*
X195095237Y-80729580D01*
X195095237Y-80729580D02*
X195142856Y-80634342D01*
X195142856Y-80634342D02*
X195142856Y-80539104D01*
X195142856Y-80539104D02*
X195095237Y-80443866D01*
X195095237Y-80443866D02*
X195047618Y-80396247D01*
X195047618Y-80396247D02*
X194952380Y-80348628D01*
X194952380Y-80348628D02*
X194761904Y-80301009D01*
X194761904Y-80301009D02*
X194666666Y-80253390D01*
X194666666Y-80253390D02*
X194619047Y-80205771D01*
X194619047Y-80205771D02*
X194571428Y-80110533D01*
X194571428Y-80110533D02*
X194571428Y-80015295D01*
X194571428Y-80015295D02*
X194619047Y-79920057D01*
X194619047Y-79920057D02*
X194666666Y-79872438D01*
X194666666Y-79872438D02*
X194761904Y-79824819D01*
X194761904Y-79824819D02*
X194999999Y-79824819D01*
X194999999Y-79824819D02*
X195142856Y-79872438D01*
X195428571Y-79824819D02*
X195999999Y-79824819D01*
X195714285Y-80824819D02*
X195714285Y-79824819D01*
X196285714Y-80539104D02*
X196761904Y-80539104D01*
X196190476Y-80824819D02*
X196523809Y-79824819D01*
X196523809Y-79824819D02*
X196857142Y-80824819D01*
X197761904Y-80824819D02*
X197428571Y-80348628D01*
X197190476Y-80824819D02*
X197190476Y-79824819D01*
X197190476Y-79824819D02*
X197571428Y-79824819D01*
X197571428Y-79824819D02*
X197666666Y-79872438D01*
X197666666Y-79872438D02*
X197714285Y-79920057D01*
X197714285Y-79920057D02*
X197761904Y-80015295D01*
X197761904Y-80015295D02*
X197761904Y-80158152D01*
X197761904Y-80158152D02*
X197714285Y-80253390D01*
X197714285Y-80253390D02*
X197666666Y-80301009D01*
X197666666Y-80301009D02*
X197571428Y-80348628D01*
X197571428Y-80348628D02*
X197190476Y-80348628D01*
X198047619Y-79824819D02*
X198619047Y-79824819D01*
X198333333Y-80824819D02*
X198333333Y-79824819D01*
X198714286Y-80920057D02*
X199476190Y-80920057D01*
X199714286Y-80824819D02*
X199714286Y-79824819D01*
X199714286Y-79824819D02*
X200047619Y-80539104D01*
X200047619Y-80539104D02*
X200380952Y-79824819D01*
X200380952Y-79824819D02*
X200380952Y-80824819D01*
X201047619Y-79824819D02*
X201238095Y-79824819D01*
X201238095Y-79824819D02*
X201333333Y-79872438D01*
X201333333Y-79872438D02*
X201428571Y-79967676D01*
X201428571Y-79967676D02*
X201476190Y-80158152D01*
X201476190Y-80158152D02*
X201476190Y-80491485D01*
X201476190Y-80491485D02*
X201428571Y-80681961D01*
X201428571Y-80681961D02*
X201333333Y-80777200D01*
X201333333Y-80777200D02*
X201238095Y-80824819D01*
X201238095Y-80824819D02*
X201047619Y-80824819D01*
X201047619Y-80824819D02*
X200952381Y-80777200D01*
X200952381Y-80777200D02*
X200857143Y-80681961D01*
X200857143Y-80681961D02*
X200809524Y-80491485D01*
X200809524Y-80491485D02*
X200809524Y-80158152D01*
X200809524Y-80158152D02*
X200857143Y-79967676D01*
X200857143Y-79967676D02*
X200952381Y-79872438D01*
X200952381Y-79872438D02*
X201047619Y-79824819D01*
X201904762Y-80824819D02*
X201904762Y-79824819D01*
X201904762Y-79824819D02*
X202142857Y-79824819D01*
X202142857Y-79824819D02*
X202285714Y-79872438D01*
X202285714Y-79872438D02*
X202380952Y-79967676D01*
X202380952Y-79967676D02*
X202428571Y-80062914D01*
X202428571Y-80062914D02*
X202476190Y-80253390D01*
X202476190Y-80253390D02*
X202476190Y-80396247D01*
X202476190Y-80396247D02*
X202428571Y-80586723D01*
X202428571Y-80586723D02*
X202380952Y-80681961D01*
X202380952Y-80681961D02*
X202285714Y-80777200D01*
X202285714Y-80777200D02*
X202142857Y-80824819D01*
X202142857Y-80824819D02*
X201904762Y-80824819D01*
X203428571Y-80824819D02*
X202857143Y-80824819D01*
X203142857Y-80824819D02*
X203142857Y-79824819D01*
X203142857Y-79824819D02*
X203047619Y-79967676D01*
X203047619Y-79967676D02*
X202952381Y-80062914D01*
X202952381Y-80062914D02*
X202857143Y-80110533D01*
X179523809Y-69454819D02*
X179190476Y-68978628D01*
X178952381Y-69454819D02*
X178952381Y-68454819D01*
X178952381Y-68454819D02*
X179333333Y-68454819D01*
X179333333Y-68454819D02*
X179428571Y-68502438D01*
X179428571Y-68502438D02*
X179476190Y-68550057D01*
X179476190Y-68550057D02*
X179523809Y-68645295D01*
X179523809Y-68645295D02*
X179523809Y-68788152D01*
X179523809Y-68788152D02*
X179476190Y-68883390D01*
X179476190Y-68883390D02*
X179428571Y-68931009D01*
X179428571Y-68931009D02*
X179333333Y-68978628D01*
X179333333Y-68978628D02*
X178952381Y-68978628D01*
X180428571Y-68454819D02*
X179952381Y-68454819D01*
X179952381Y-68454819D02*
X179904762Y-68931009D01*
X179904762Y-68931009D02*
X179952381Y-68883390D01*
X179952381Y-68883390D02*
X180047619Y-68835771D01*
X180047619Y-68835771D02*
X180285714Y-68835771D01*
X180285714Y-68835771D02*
X180380952Y-68883390D01*
X180380952Y-68883390D02*
X180428571Y-68931009D01*
X180428571Y-68931009D02*
X180476190Y-69026247D01*
X180476190Y-69026247D02*
X180476190Y-69264342D01*
X180476190Y-69264342D02*
X180428571Y-69359580D01*
X180428571Y-69359580D02*
X180380952Y-69407200D01*
X180380952Y-69407200D02*
X180285714Y-69454819D01*
X180285714Y-69454819D02*
X180047619Y-69454819D01*
X180047619Y-69454819D02*
X179952381Y-69407200D01*
X179952381Y-69407200D02*
X179904762Y-69359580D01*
X182190476Y-69454819D02*
X181619048Y-69454819D01*
X181904762Y-69454819D02*
X181904762Y-68454819D01*
X181904762Y-68454819D02*
X181809524Y-68597676D01*
X181809524Y-68597676D02*
X181714286Y-68692914D01*
X181714286Y-68692914D02*
X181619048Y-68740533D01*
X182809524Y-68454819D02*
X182904762Y-68454819D01*
X182904762Y-68454819D02*
X183000000Y-68502438D01*
X183000000Y-68502438D02*
X183047619Y-68550057D01*
X183047619Y-68550057D02*
X183095238Y-68645295D01*
X183095238Y-68645295D02*
X183142857Y-68835771D01*
X183142857Y-68835771D02*
X183142857Y-69073866D01*
X183142857Y-69073866D02*
X183095238Y-69264342D01*
X183095238Y-69264342D02*
X183047619Y-69359580D01*
X183047619Y-69359580D02*
X183000000Y-69407200D01*
X183000000Y-69407200D02*
X182904762Y-69454819D01*
X182904762Y-69454819D02*
X182809524Y-69454819D01*
X182809524Y-69454819D02*
X182714286Y-69407200D01*
X182714286Y-69407200D02*
X182666667Y-69359580D01*
X182666667Y-69359580D02*
X182619048Y-69264342D01*
X182619048Y-69264342D02*
X182571429Y-69073866D01*
X182571429Y-69073866D02*
X182571429Y-68835771D01*
X182571429Y-68835771D02*
X182619048Y-68645295D01*
X182619048Y-68645295D02*
X182666667Y-68550057D01*
X182666667Y-68550057D02*
X182714286Y-68502438D01*
X182714286Y-68502438D02*
X182809524Y-68454819D01*
X183571429Y-69454819D02*
X183571429Y-68454819D01*
X183666667Y-69073866D02*
X183952381Y-69454819D01*
X183952381Y-68788152D02*
X183571429Y-69169104D01*
X184333334Y-69454819D02*
X184571429Y-69454819D01*
X184571429Y-69454819D02*
X184571429Y-69264342D01*
X184571429Y-69264342D02*
X184476191Y-69216723D01*
X184476191Y-69216723D02*
X184380953Y-69121485D01*
X184380953Y-69121485D02*
X184333334Y-68978628D01*
X184333334Y-68978628D02*
X184333334Y-68740533D01*
X184333334Y-68740533D02*
X184380953Y-68597676D01*
X184380953Y-68597676D02*
X184476191Y-68502438D01*
X184476191Y-68502438D02*
X184619048Y-68454819D01*
X184619048Y-68454819D02*
X184809524Y-68454819D01*
X184809524Y-68454819D02*
X184952381Y-68502438D01*
X184952381Y-68502438D02*
X185047619Y-68597676D01*
X185047619Y-68597676D02*
X185095238Y-68740533D01*
X185095238Y-68740533D02*
X185095238Y-68978628D01*
X185095238Y-68978628D02*
X185047619Y-69121485D01*
X185047619Y-69121485D02*
X184952381Y-69216723D01*
X184952381Y-69216723D02*
X184857143Y-69264342D01*
X184857143Y-69264342D02*
X184857143Y-69454819D01*
X184857143Y-69454819D02*
X185095238Y-69454819D01*
X179523809Y-72954819D02*
X179190476Y-72478628D01*
X178952381Y-72954819D02*
X178952381Y-71954819D01*
X178952381Y-71954819D02*
X179333333Y-71954819D01*
X179333333Y-71954819D02*
X179428571Y-72002438D01*
X179428571Y-72002438D02*
X179476190Y-72050057D01*
X179476190Y-72050057D02*
X179523809Y-72145295D01*
X179523809Y-72145295D02*
X179523809Y-72288152D01*
X179523809Y-72288152D02*
X179476190Y-72383390D01*
X179476190Y-72383390D02*
X179428571Y-72431009D01*
X179428571Y-72431009D02*
X179333333Y-72478628D01*
X179333333Y-72478628D02*
X178952381Y-72478628D01*
X180380952Y-72288152D02*
X180380952Y-72954819D01*
X180142857Y-71907200D02*
X179904762Y-72621485D01*
X179904762Y-72621485D02*
X180523809Y-72621485D01*
X182190476Y-72954819D02*
X181619048Y-72954819D01*
X181904762Y-72954819D02*
X181904762Y-71954819D01*
X181904762Y-71954819D02*
X181809524Y-72097676D01*
X181809524Y-72097676D02*
X181714286Y-72192914D01*
X181714286Y-72192914D02*
X181619048Y-72240533D01*
X182809524Y-71954819D02*
X182904762Y-71954819D01*
X182904762Y-71954819D02*
X183000000Y-72002438D01*
X183000000Y-72002438D02*
X183047619Y-72050057D01*
X183047619Y-72050057D02*
X183095238Y-72145295D01*
X183095238Y-72145295D02*
X183142857Y-72335771D01*
X183142857Y-72335771D02*
X183142857Y-72573866D01*
X183142857Y-72573866D02*
X183095238Y-72764342D01*
X183095238Y-72764342D02*
X183047619Y-72859580D01*
X183047619Y-72859580D02*
X183000000Y-72907200D01*
X183000000Y-72907200D02*
X182904762Y-72954819D01*
X182904762Y-72954819D02*
X182809524Y-72954819D01*
X182809524Y-72954819D02*
X182714286Y-72907200D01*
X182714286Y-72907200D02*
X182666667Y-72859580D01*
X182666667Y-72859580D02*
X182619048Y-72764342D01*
X182619048Y-72764342D02*
X182571429Y-72573866D01*
X182571429Y-72573866D02*
X182571429Y-72335771D01*
X182571429Y-72335771D02*
X182619048Y-72145295D01*
X182619048Y-72145295D02*
X182666667Y-72050057D01*
X182666667Y-72050057D02*
X182714286Y-72002438D01*
X182714286Y-72002438D02*
X182809524Y-71954819D01*
X183571429Y-72954819D02*
X183571429Y-71954819D01*
X183666667Y-72573866D02*
X183952381Y-72954819D01*
X183952381Y-72288152D02*
X183571429Y-72669104D01*
X184333334Y-72954819D02*
X184571429Y-72954819D01*
X184571429Y-72954819D02*
X184571429Y-72764342D01*
X184571429Y-72764342D02*
X184476191Y-72716723D01*
X184476191Y-72716723D02*
X184380953Y-72621485D01*
X184380953Y-72621485D02*
X184333334Y-72478628D01*
X184333334Y-72478628D02*
X184333334Y-72240533D01*
X184333334Y-72240533D02*
X184380953Y-72097676D01*
X184380953Y-72097676D02*
X184476191Y-72002438D01*
X184476191Y-72002438D02*
X184619048Y-71954819D01*
X184619048Y-71954819D02*
X184809524Y-71954819D01*
X184809524Y-71954819D02*
X184952381Y-72002438D01*
X184952381Y-72002438D02*
X185047619Y-72097676D01*
X185047619Y-72097676D02*
X185095238Y-72240533D01*
X185095238Y-72240533D02*
X185095238Y-72478628D01*
X185095238Y-72478628D02*
X185047619Y-72621485D01*
X185047619Y-72621485D02*
X184952381Y-72716723D01*
X184952381Y-72716723D02*
X184857143Y-72764342D01*
X184857143Y-72764342D02*
X184857143Y-72954819D01*
X184857143Y-72954819D02*
X185095238Y-72954819D01*
X165523809Y-78454819D02*
X165190476Y-77978628D01*
X164952381Y-78454819D02*
X164952381Y-77454819D01*
X164952381Y-77454819D02*
X165333333Y-77454819D01*
X165333333Y-77454819D02*
X165428571Y-77502438D01*
X165428571Y-77502438D02*
X165476190Y-77550057D01*
X165476190Y-77550057D02*
X165523809Y-77645295D01*
X165523809Y-77645295D02*
X165523809Y-77788152D01*
X165523809Y-77788152D02*
X165476190Y-77883390D01*
X165476190Y-77883390D02*
X165428571Y-77931009D01*
X165428571Y-77931009D02*
X165333333Y-77978628D01*
X165333333Y-77978628D02*
X164952381Y-77978628D01*
X165857143Y-77454819D02*
X166476190Y-77454819D01*
X166476190Y-77454819D02*
X166142857Y-77835771D01*
X166142857Y-77835771D02*
X166285714Y-77835771D01*
X166285714Y-77835771D02*
X166380952Y-77883390D01*
X166380952Y-77883390D02*
X166428571Y-77931009D01*
X166428571Y-77931009D02*
X166476190Y-78026247D01*
X166476190Y-78026247D02*
X166476190Y-78264342D01*
X166476190Y-78264342D02*
X166428571Y-78359580D01*
X166428571Y-78359580D02*
X166380952Y-78407200D01*
X166380952Y-78407200D02*
X166285714Y-78454819D01*
X166285714Y-78454819D02*
X166000000Y-78454819D01*
X166000000Y-78454819D02*
X165904762Y-78407200D01*
X165904762Y-78407200D02*
X165857143Y-78359580D01*
X167571429Y-77454819D02*
X168190476Y-77454819D01*
X168190476Y-77454819D02*
X167857143Y-77835771D01*
X167857143Y-77835771D02*
X168000000Y-77835771D01*
X168000000Y-77835771D02*
X168095238Y-77883390D01*
X168095238Y-77883390D02*
X168142857Y-77931009D01*
X168142857Y-77931009D02*
X168190476Y-78026247D01*
X168190476Y-78026247D02*
X168190476Y-78264342D01*
X168190476Y-78264342D02*
X168142857Y-78359580D01*
X168142857Y-78359580D02*
X168095238Y-78407200D01*
X168095238Y-78407200D02*
X168000000Y-78454819D01*
X168000000Y-78454819D02*
X167714286Y-78454819D01*
X167714286Y-78454819D02*
X167619048Y-78407200D01*
X167619048Y-78407200D02*
X167571429Y-78359580D01*
X168571429Y-77550057D02*
X168619048Y-77502438D01*
X168619048Y-77502438D02*
X168714286Y-77454819D01*
X168714286Y-77454819D02*
X168952381Y-77454819D01*
X168952381Y-77454819D02*
X169047619Y-77502438D01*
X169047619Y-77502438D02*
X169095238Y-77550057D01*
X169095238Y-77550057D02*
X169142857Y-77645295D01*
X169142857Y-77645295D02*
X169142857Y-77740533D01*
X169142857Y-77740533D02*
X169095238Y-77883390D01*
X169095238Y-77883390D02*
X168523810Y-78454819D01*
X168523810Y-78454819D02*
X169142857Y-78454819D01*
X169571429Y-78454819D02*
X169571429Y-77454819D01*
X169666667Y-78073866D02*
X169952381Y-78454819D01*
X169952381Y-77788152D02*
X169571429Y-78169104D01*
X170333334Y-78454819D02*
X170571429Y-78454819D01*
X170571429Y-78454819D02*
X170571429Y-78264342D01*
X170571429Y-78264342D02*
X170476191Y-78216723D01*
X170476191Y-78216723D02*
X170380953Y-78121485D01*
X170380953Y-78121485D02*
X170333334Y-77978628D01*
X170333334Y-77978628D02*
X170333334Y-77740533D01*
X170333334Y-77740533D02*
X170380953Y-77597676D01*
X170380953Y-77597676D02*
X170476191Y-77502438D01*
X170476191Y-77502438D02*
X170619048Y-77454819D01*
X170619048Y-77454819D02*
X170809524Y-77454819D01*
X170809524Y-77454819D02*
X170952381Y-77502438D01*
X170952381Y-77502438D02*
X171047619Y-77597676D01*
X171047619Y-77597676D02*
X171095238Y-77740533D01*
X171095238Y-77740533D02*
X171095238Y-77978628D01*
X171095238Y-77978628D02*
X171047619Y-78121485D01*
X171047619Y-78121485D02*
X170952381Y-78216723D01*
X170952381Y-78216723D02*
X170857143Y-78264342D01*
X170857143Y-78264342D02*
X170857143Y-78454819D01*
X170857143Y-78454819D02*
X171095238Y-78454819D01*
X220523809Y-66454819D02*
X220190476Y-65978628D01*
X219952381Y-66454819D02*
X219952381Y-65454819D01*
X219952381Y-65454819D02*
X220333333Y-65454819D01*
X220333333Y-65454819D02*
X220428571Y-65502438D01*
X220428571Y-65502438D02*
X220476190Y-65550057D01*
X220476190Y-65550057D02*
X220523809Y-65645295D01*
X220523809Y-65645295D02*
X220523809Y-65788152D01*
X220523809Y-65788152D02*
X220476190Y-65883390D01*
X220476190Y-65883390D02*
X220428571Y-65931009D01*
X220428571Y-65931009D02*
X220333333Y-65978628D01*
X220333333Y-65978628D02*
X219952381Y-65978628D01*
X220904762Y-65550057D02*
X220952381Y-65502438D01*
X220952381Y-65502438D02*
X221047619Y-65454819D01*
X221047619Y-65454819D02*
X221285714Y-65454819D01*
X221285714Y-65454819D02*
X221380952Y-65502438D01*
X221380952Y-65502438D02*
X221428571Y-65550057D01*
X221428571Y-65550057D02*
X221476190Y-65645295D01*
X221476190Y-65645295D02*
X221476190Y-65740533D01*
X221476190Y-65740533D02*
X221428571Y-65883390D01*
X221428571Y-65883390D02*
X220857143Y-66454819D01*
X220857143Y-66454819D02*
X221476190Y-66454819D01*
X222571429Y-65454819D02*
X223190476Y-65454819D01*
X223190476Y-65454819D02*
X222857143Y-65835771D01*
X222857143Y-65835771D02*
X223000000Y-65835771D01*
X223000000Y-65835771D02*
X223095238Y-65883390D01*
X223095238Y-65883390D02*
X223142857Y-65931009D01*
X223142857Y-65931009D02*
X223190476Y-66026247D01*
X223190476Y-66026247D02*
X223190476Y-66264342D01*
X223190476Y-66264342D02*
X223142857Y-66359580D01*
X223142857Y-66359580D02*
X223095238Y-66407200D01*
X223095238Y-66407200D02*
X223000000Y-66454819D01*
X223000000Y-66454819D02*
X222714286Y-66454819D01*
X222714286Y-66454819D02*
X222619048Y-66407200D01*
X222619048Y-66407200D02*
X222571429Y-66359580D01*
X223571429Y-65550057D02*
X223619048Y-65502438D01*
X223619048Y-65502438D02*
X223714286Y-65454819D01*
X223714286Y-65454819D02*
X223952381Y-65454819D01*
X223952381Y-65454819D02*
X224047619Y-65502438D01*
X224047619Y-65502438D02*
X224095238Y-65550057D01*
X224095238Y-65550057D02*
X224142857Y-65645295D01*
X224142857Y-65645295D02*
X224142857Y-65740533D01*
X224142857Y-65740533D02*
X224095238Y-65883390D01*
X224095238Y-65883390D02*
X223523810Y-66454819D01*
X223523810Y-66454819D02*
X224142857Y-66454819D01*
X224571429Y-66454819D02*
X224571429Y-65454819D01*
X224666667Y-66073866D02*
X224952381Y-66454819D01*
X224952381Y-65788152D02*
X224571429Y-66169104D01*
X225333334Y-66454819D02*
X225571429Y-66454819D01*
X225571429Y-66454819D02*
X225571429Y-66264342D01*
X225571429Y-66264342D02*
X225476191Y-66216723D01*
X225476191Y-66216723D02*
X225380953Y-66121485D01*
X225380953Y-66121485D02*
X225333334Y-65978628D01*
X225333334Y-65978628D02*
X225333334Y-65740533D01*
X225333334Y-65740533D02*
X225380953Y-65597676D01*
X225380953Y-65597676D02*
X225476191Y-65502438D01*
X225476191Y-65502438D02*
X225619048Y-65454819D01*
X225619048Y-65454819D02*
X225809524Y-65454819D01*
X225809524Y-65454819D02*
X225952381Y-65502438D01*
X225952381Y-65502438D02*
X226047619Y-65597676D01*
X226047619Y-65597676D02*
X226095238Y-65740533D01*
X226095238Y-65740533D02*
X226095238Y-65978628D01*
X226095238Y-65978628D02*
X226047619Y-66121485D01*
X226047619Y-66121485D02*
X225952381Y-66216723D01*
X225952381Y-66216723D02*
X225857143Y-66264342D01*
X225857143Y-66264342D02*
X225857143Y-66454819D01*
X225857143Y-66454819D02*
X226095238Y-66454819D01*
X218454819Y-84952380D02*
X217454819Y-84952380D01*
X217454819Y-84952380D02*
X217454819Y-84571428D01*
X217454819Y-84571428D02*
X217502438Y-84476190D01*
X217502438Y-84476190D02*
X217550057Y-84428571D01*
X217550057Y-84428571D02*
X217645295Y-84380952D01*
X217645295Y-84380952D02*
X217788152Y-84380952D01*
X217788152Y-84380952D02*
X217883390Y-84428571D01*
X217883390Y-84428571D02*
X217931009Y-84476190D01*
X217931009Y-84476190D02*
X217978628Y-84571428D01*
X217978628Y-84571428D02*
X217978628Y-84952380D01*
X218454819Y-83809523D02*
X218407200Y-83904761D01*
X218407200Y-83904761D02*
X218359580Y-83952380D01*
X218359580Y-83952380D02*
X218264342Y-83999999D01*
X218264342Y-83999999D02*
X217978628Y-83999999D01*
X217978628Y-83999999D02*
X217883390Y-83952380D01*
X217883390Y-83952380D02*
X217835771Y-83904761D01*
X217835771Y-83904761D02*
X217788152Y-83809523D01*
X217788152Y-83809523D02*
X217788152Y-83666666D01*
X217788152Y-83666666D02*
X217835771Y-83571428D01*
X217835771Y-83571428D02*
X217883390Y-83523809D01*
X217883390Y-83523809D02*
X217978628Y-83476190D01*
X217978628Y-83476190D02*
X218264342Y-83476190D01*
X218264342Y-83476190D02*
X218359580Y-83523809D01*
X218359580Y-83523809D02*
X218407200Y-83571428D01*
X218407200Y-83571428D02*
X218454819Y-83666666D01*
X218454819Y-83666666D02*
X218454819Y-83809523D01*
X217788152Y-83142856D02*
X218454819Y-82952380D01*
X218454819Y-82952380D02*
X217978628Y-82761904D01*
X217978628Y-82761904D02*
X218454819Y-82571428D01*
X218454819Y-82571428D02*
X217788152Y-82380952D01*
X218407200Y-81619047D02*
X218454819Y-81714285D01*
X218454819Y-81714285D02*
X218454819Y-81904761D01*
X218454819Y-81904761D02*
X218407200Y-81999999D01*
X218407200Y-81999999D02*
X218311961Y-82047618D01*
X218311961Y-82047618D02*
X217931009Y-82047618D01*
X217931009Y-82047618D02*
X217835771Y-81999999D01*
X217835771Y-81999999D02*
X217788152Y-81904761D01*
X217788152Y-81904761D02*
X217788152Y-81714285D01*
X217788152Y-81714285D02*
X217835771Y-81619047D01*
X217835771Y-81619047D02*
X217931009Y-81571428D01*
X217931009Y-81571428D02*
X218026247Y-81571428D01*
X218026247Y-81571428D02*
X218121485Y-82047618D01*
X218454819Y-81142856D02*
X217788152Y-81142856D01*
X217978628Y-81142856D02*
X217883390Y-81095237D01*
X217883390Y-81095237D02*
X217835771Y-81047618D01*
X217835771Y-81047618D02*
X217788152Y-80952380D01*
X217788152Y-80952380D02*
X217788152Y-80857142D01*
X218454819Y-79999999D02*
X218454819Y-80571427D01*
X218454819Y-80285713D02*
X217454819Y-80285713D01*
X217454819Y-80285713D02*
X217597676Y-80380951D01*
X217597676Y-80380951D02*
X217692914Y-80476189D01*
X217692914Y-80476189D02*
X217740533Y-80571427D01*
X214114700Y-89571428D02*
X214114700Y-88428571D01*
X214686128Y-88999999D02*
X213543271Y-88999999D01*
X214114700Y-76571428D02*
X214114700Y-75428571D01*
X190104819Y-63928570D02*
X189104819Y-63928570D01*
X189104819Y-63928570D02*
X189819104Y-63595237D01*
X189819104Y-63595237D02*
X189104819Y-63261904D01*
X189104819Y-63261904D02*
X190104819Y-63261904D01*
X190200057Y-63023809D02*
X190200057Y-62261904D01*
X190104819Y-62023808D02*
X189104819Y-62023808D01*
X190104819Y-60976190D02*
X189628628Y-61309523D01*
X190104819Y-61547618D02*
X189104819Y-61547618D01*
X189104819Y-61547618D02*
X189104819Y-61166666D01*
X189104819Y-61166666D02*
X189152438Y-61071428D01*
X189152438Y-61071428D02*
X189200057Y-61023809D01*
X189200057Y-61023809D02*
X189295295Y-60976190D01*
X189295295Y-60976190D02*
X189438152Y-60976190D01*
X189438152Y-60976190D02*
X189533390Y-61023809D01*
X189533390Y-61023809D02*
X189581009Y-61071428D01*
X189581009Y-61071428D02*
X189628628Y-61166666D01*
X189628628Y-61166666D02*
X189628628Y-61547618D01*
X190104819Y-60023809D02*
X190104819Y-60595237D01*
X190104819Y-60309523D02*
X189104819Y-60309523D01*
X189104819Y-60309523D02*
X189247676Y-60404761D01*
X189247676Y-60404761D02*
X189342914Y-60499999D01*
X189342914Y-60499999D02*
X189390533Y-60595237D01*
X157833333Y-75454819D02*
X157357143Y-75454819D01*
X157357143Y-75454819D02*
X157357143Y-74454819D01*
X157928572Y-75550057D02*
X158690476Y-75550057D01*
X159404762Y-75454819D02*
X158928572Y-75454819D01*
X158928572Y-75454819D02*
X158928572Y-74454819D01*
X159738096Y-75454819D02*
X159738096Y-74454819D01*
X160214286Y-75454819D02*
X160214286Y-74454819D01*
X160214286Y-74454819D02*
X160785714Y-75454819D01*
X160785714Y-75454819D02*
X160785714Y-74454819D01*
X161261905Y-74931009D02*
X161595238Y-74931009D01*
X161738095Y-75454819D02*
X161261905Y-75454819D01*
X161261905Y-75454819D02*
X161261905Y-74454819D01*
X161261905Y-74454819D02*
X161738095Y-74454819D01*
X162690476Y-75454819D02*
X162119048Y-75454819D01*
X162404762Y-75454819D02*
X162404762Y-74454819D01*
X162404762Y-74454819D02*
X162309524Y-74597676D01*
X162309524Y-74597676D02*
X162214286Y-74692914D01*
X162214286Y-74692914D02*
X162119048Y-74740533D01*
X178104819Y-63285714D02*
X178104819Y-63761904D01*
X178104819Y-63761904D02*
X177104819Y-63761904D01*
X178200057Y-63190476D02*
X178200057Y-62428571D01*
X178104819Y-62190475D02*
X177104819Y-62190475D01*
X178104819Y-61142857D02*
X177628628Y-61476190D01*
X178104819Y-61714285D02*
X177104819Y-61714285D01*
X177104819Y-61714285D02*
X177104819Y-61333333D01*
X177104819Y-61333333D02*
X177152438Y-61238095D01*
X177152438Y-61238095D02*
X177200057Y-61190476D01*
X177200057Y-61190476D02*
X177295295Y-61142857D01*
X177295295Y-61142857D02*
X177438152Y-61142857D01*
X177438152Y-61142857D02*
X177533390Y-61190476D01*
X177533390Y-61190476D02*
X177581009Y-61238095D01*
X177581009Y-61238095D02*
X177628628Y-61333333D01*
X177628628Y-61333333D02*
X177628628Y-61714285D01*
X178104819Y-60190476D02*
X178104819Y-60761904D01*
X178104819Y-60476190D02*
X177104819Y-60476190D01*
X177104819Y-60476190D02*
X177247676Y-60571428D01*
X177247676Y-60571428D02*
X177342914Y-60666666D01*
X177342914Y-60666666D02*
X177390533Y-60761904D01*
X227619047Y-68954819D02*
X227285714Y-68478628D01*
X227047619Y-68954819D02*
X227047619Y-67954819D01*
X227047619Y-67954819D02*
X227428571Y-67954819D01*
X227428571Y-67954819D02*
X227523809Y-68002438D01*
X227523809Y-68002438D02*
X227571428Y-68050057D01*
X227571428Y-68050057D02*
X227619047Y-68145295D01*
X227619047Y-68145295D02*
X227619047Y-68288152D01*
X227619047Y-68288152D02*
X227571428Y-68383390D01*
X227571428Y-68383390D02*
X227523809Y-68431009D01*
X227523809Y-68431009D02*
X227428571Y-68478628D01*
X227428571Y-68478628D02*
X227047619Y-68478628D01*
X227809524Y-69050057D02*
X228571428Y-69050057D01*
X228809524Y-68954819D02*
X228809524Y-67954819D01*
X228809524Y-67954819D02*
X229142857Y-68669104D01*
X229142857Y-68669104D02*
X229476190Y-67954819D01*
X229476190Y-67954819D02*
X229476190Y-68954819D01*
X230142857Y-67954819D02*
X230333333Y-67954819D01*
X230333333Y-67954819D02*
X230428571Y-68002438D01*
X230428571Y-68002438D02*
X230523809Y-68097676D01*
X230523809Y-68097676D02*
X230571428Y-68288152D01*
X230571428Y-68288152D02*
X230571428Y-68621485D01*
X230571428Y-68621485D02*
X230523809Y-68811961D01*
X230523809Y-68811961D02*
X230428571Y-68907200D01*
X230428571Y-68907200D02*
X230333333Y-68954819D01*
X230333333Y-68954819D02*
X230142857Y-68954819D01*
X230142857Y-68954819D02*
X230047619Y-68907200D01*
X230047619Y-68907200D02*
X229952381Y-68811961D01*
X229952381Y-68811961D02*
X229904762Y-68621485D01*
X229904762Y-68621485D02*
X229904762Y-68288152D01*
X229904762Y-68288152D02*
X229952381Y-68097676D01*
X229952381Y-68097676D02*
X230047619Y-68002438D01*
X230047619Y-68002438D02*
X230142857Y-67954819D01*
X230857143Y-67954819D02*
X231428571Y-67954819D01*
X231142857Y-68954819D02*
X231142857Y-67954819D01*
X231952381Y-67954819D02*
X232142857Y-67954819D01*
X232142857Y-67954819D02*
X232238095Y-68002438D01*
X232238095Y-68002438D02*
X232333333Y-68097676D01*
X232333333Y-68097676D02*
X232380952Y-68288152D01*
X232380952Y-68288152D02*
X232380952Y-68621485D01*
X232380952Y-68621485D02*
X232333333Y-68811961D01*
X232333333Y-68811961D02*
X232238095Y-68907200D01*
X232238095Y-68907200D02*
X232142857Y-68954819D01*
X232142857Y-68954819D02*
X231952381Y-68954819D01*
X231952381Y-68954819D02*
X231857143Y-68907200D01*
X231857143Y-68907200D02*
X231761905Y-68811961D01*
X231761905Y-68811961D02*
X231714286Y-68621485D01*
X231714286Y-68621485D02*
X231714286Y-68288152D01*
X231714286Y-68288152D02*
X231761905Y-68097676D01*
X231761905Y-68097676D02*
X231857143Y-68002438D01*
X231857143Y-68002438D02*
X231952381Y-67954819D01*
X233380952Y-68954819D02*
X233047619Y-68478628D01*
X232809524Y-68954819D02*
X232809524Y-67954819D01*
X232809524Y-67954819D02*
X233190476Y-67954819D01*
X233190476Y-67954819D02*
X233285714Y-68002438D01*
X233285714Y-68002438D02*
X233333333Y-68050057D01*
X233333333Y-68050057D02*
X233380952Y-68145295D01*
X233380952Y-68145295D02*
X233380952Y-68288152D01*
X233380952Y-68288152D02*
X233333333Y-68383390D01*
X233333333Y-68383390D02*
X233285714Y-68431009D01*
X233285714Y-68431009D02*
X233190476Y-68478628D01*
X233190476Y-68478628D02*
X232809524Y-68478628D01*
X233571429Y-69050057D02*
X234333333Y-69050057D01*
X234761905Y-67954819D02*
X234952381Y-67954819D01*
X234952381Y-67954819D02*
X235047619Y-68002438D01*
X235047619Y-68002438D02*
X235142857Y-68097676D01*
X235142857Y-68097676D02*
X235190476Y-68288152D01*
X235190476Y-68288152D02*
X235190476Y-68621485D01*
X235190476Y-68621485D02*
X235142857Y-68811961D01*
X235142857Y-68811961D02*
X235047619Y-68907200D01*
X235047619Y-68907200D02*
X234952381Y-68954819D01*
X234952381Y-68954819D02*
X234761905Y-68954819D01*
X234761905Y-68954819D02*
X234666667Y-68907200D01*
X234666667Y-68907200D02*
X234571429Y-68811961D01*
X234571429Y-68811961D02*
X234523810Y-68621485D01*
X234523810Y-68621485D02*
X234523810Y-68288152D01*
X234523810Y-68288152D02*
X234571429Y-68097676D01*
X234571429Y-68097676D02*
X234666667Y-68002438D01*
X234666667Y-68002438D02*
X234761905Y-67954819D01*
X235619048Y-67954819D02*
X235619048Y-68764342D01*
X235619048Y-68764342D02*
X235666667Y-68859580D01*
X235666667Y-68859580D02*
X235714286Y-68907200D01*
X235714286Y-68907200D02*
X235809524Y-68954819D01*
X235809524Y-68954819D02*
X236000000Y-68954819D01*
X236000000Y-68954819D02*
X236095238Y-68907200D01*
X236095238Y-68907200D02*
X236142857Y-68859580D01*
X236142857Y-68859580D02*
X236190476Y-68764342D01*
X236190476Y-68764342D02*
X236190476Y-67954819D01*
X236523810Y-67954819D02*
X237095238Y-67954819D01*
X236809524Y-68954819D02*
X236809524Y-67954819D01*
X154619047Y-63954819D02*
X154142857Y-63954819D01*
X154142857Y-63954819D02*
X154142857Y-62954819D01*
X154714286Y-64050057D02*
X155476190Y-64050057D01*
X155714286Y-63954819D02*
X155714286Y-62954819D01*
X155714286Y-62954819D02*
X156047619Y-63669104D01*
X156047619Y-63669104D02*
X156380952Y-62954819D01*
X156380952Y-62954819D02*
X156380952Y-63954819D01*
X157047619Y-62954819D02*
X157238095Y-62954819D01*
X157238095Y-62954819D02*
X157333333Y-63002438D01*
X157333333Y-63002438D02*
X157428571Y-63097676D01*
X157428571Y-63097676D02*
X157476190Y-63288152D01*
X157476190Y-63288152D02*
X157476190Y-63621485D01*
X157476190Y-63621485D02*
X157428571Y-63811961D01*
X157428571Y-63811961D02*
X157333333Y-63907200D01*
X157333333Y-63907200D02*
X157238095Y-63954819D01*
X157238095Y-63954819D02*
X157047619Y-63954819D01*
X157047619Y-63954819D02*
X156952381Y-63907200D01*
X156952381Y-63907200D02*
X156857143Y-63811961D01*
X156857143Y-63811961D02*
X156809524Y-63621485D01*
X156809524Y-63621485D02*
X156809524Y-63288152D01*
X156809524Y-63288152D02*
X156857143Y-63097676D01*
X156857143Y-63097676D02*
X156952381Y-63002438D01*
X156952381Y-63002438D02*
X157047619Y-62954819D01*
X157761905Y-62954819D02*
X158333333Y-62954819D01*
X158047619Y-63954819D02*
X158047619Y-62954819D01*
X158857143Y-62954819D02*
X159047619Y-62954819D01*
X159047619Y-62954819D02*
X159142857Y-63002438D01*
X159142857Y-63002438D02*
X159238095Y-63097676D01*
X159238095Y-63097676D02*
X159285714Y-63288152D01*
X159285714Y-63288152D02*
X159285714Y-63621485D01*
X159285714Y-63621485D02*
X159238095Y-63811961D01*
X159238095Y-63811961D02*
X159142857Y-63907200D01*
X159142857Y-63907200D02*
X159047619Y-63954819D01*
X159047619Y-63954819D02*
X158857143Y-63954819D01*
X158857143Y-63954819D02*
X158761905Y-63907200D01*
X158761905Y-63907200D02*
X158666667Y-63811961D01*
X158666667Y-63811961D02*
X158619048Y-63621485D01*
X158619048Y-63621485D02*
X158619048Y-63288152D01*
X158619048Y-63288152D02*
X158666667Y-63097676D01*
X158666667Y-63097676D02*
X158761905Y-63002438D01*
X158761905Y-63002438D02*
X158857143Y-62954819D01*
X160285714Y-63954819D02*
X159952381Y-63478628D01*
X159714286Y-63954819D02*
X159714286Y-62954819D01*
X159714286Y-62954819D02*
X160095238Y-62954819D01*
X160095238Y-62954819D02*
X160190476Y-63002438D01*
X160190476Y-63002438D02*
X160238095Y-63050057D01*
X160238095Y-63050057D02*
X160285714Y-63145295D01*
X160285714Y-63145295D02*
X160285714Y-63288152D01*
X160285714Y-63288152D02*
X160238095Y-63383390D01*
X160238095Y-63383390D02*
X160190476Y-63431009D01*
X160190476Y-63431009D02*
X160095238Y-63478628D01*
X160095238Y-63478628D02*
X159714286Y-63478628D01*
X160476191Y-64050057D02*
X161238095Y-64050057D01*
X161666667Y-62954819D02*
X161857143Y-62954819D01*
X161857143Y-62954819D02*
X161952381Y-63002438D01*
X161952381Y-63002438D02*
X162047619Y-63097676D01*
X162047619Y-63097676D02*
X162095238Y-63288152D01*
X162095238Y-63288152D02*
X162095238Y-63621485D01*
X162095238Y-63621485D02*
X162047619Y-63811961D01*
X162047619Y-63811961D02*
X161952381Y-63907200D01*
X161952381Y-63907200D02*
X161857143Y-63954819D01*
X161857143Y-63954819D02*
X161666667Y-63954819D01*
X161666667Y-63954819D02*
X161571429Y-63907200D01*
X161571429Y-63907200D02*
X161476191Y-63811961D01*
X161476191Y-63811961D02*
X161428572Y-63621485D01*
X161428572Y-63621485D02*
X161428572Y-63288152D01*
X161428572Y-63288152D02*
X161476191Y-63097676D01*
X161476191Y-63097676D02*
X161571429Y-63002438D01*
X161571429Y-63002438D02*
X161666667Y-62954819D01*
X162523810Y-62954819D02*
X162523810Y-63764342D01*
X162523810Y-63764342D02*
X162571429Y-63859580D01*
X162571429Y-63859580D02*
X162619048Y-63907200D01*
X162619048Y-63907200D02*
X162714286Y-63954819D01*
X162714286Y-63954819D02*
X162904762Y-63954819D01*
X162904762Y-63954819D02*
X163000000Y-63907200D01*
X163000000Y-63907200D02*
X163047619Y-63859580D01*
X163047619Y-63859580D02*
X163095238Y-63764342D01*
X163095238Y-63764342D02*
X163095238Y-62954819D01*
X163428572Y-62954819D02*
X164000000Y-62954819D01*
X163714286Y-63954819D02*
X163714286Y-62954819D01*
X210166666Y-80931009D02*
X209833333Y-80931009D01*
X209833333Y-81454819D02*
X209833333Y-80454819D01*
X209833333Y-80454819D02*
X210309523Y-80454819D01*
X211214285Y-81454819D02*
X210642857Y-81454819D01*
X210928571Y-81454819D02*
X210928571Y-80454819D01*
X210928571Y-80454819D02*
X210833333Y-80597676D01*
X210833333Y-80597676D02*
X210738095Y-80692914D01*
X210738095Y-80692914D02*
X210642857Y-80740533D01*
X199859580Y-58666666D02*
X199907200Y-58714285D01*
X199907200Y-58714285D02*
X199954819Y-58857142D01*
X199954819Y-58857142D02*
X199954819Y-58952380D01*
X199954819Y-58952380D02*
X199907200Y-59095237D01*
X199907200Y-59095237D02*
X199811961Y-59190475D01*
X199811961Y-59190475D02*
X199716723Y-59238094D01*
X199716723Y-59238094D02*
X199526247Y-59285713D01*
X199526247Y-59285713D02*
X199383390Y-59285713D01*
X199383390Y-59285713D02*
X199192914Y-59238094D01*
X199192914Y-59238094D02*
X199097676Y-59190475D01*
X199097676Y-59190475D02*
X199002438Y-59095237D01*
X199002438Y-59095237D02*
X198954819Y-58952380D01*
X198954819Y-58952380D02*
X198954819Y-58857142D01*
X198954819Y-58857142D02*
X199002438Y-58714285D01*
X199002438Y-58714285D02*
X199050057Y-58666666D01*
X198954819Y-57761904D02*
X198954819Y-58238094D01*
X198954819Y-58238094D02*
X199431009Y-58285713D01*
X199431009Y-58285713D02*
X199383390Y-58238094D01*
X199383390Y-58238094D02*
X199335771Y-58142856D01*
X199335771Y-58142856D02*
X199335771Y-57904761D01*
X199335771Y-57904761D02*
X199383390Y-57809523D01*
X199383390Y-57809523D02*
X199431009Y-57761904D01*
X199431009Y-57761904D02*
X199526247Y-57714285D01*
X199526247Y-57714285D02*
X199764342Y-57714285D01*
X199764342Y-57714285D02*
X199859580Y-57761904D01*
X199859580Y-57761904D02*
X199907200Y-57809523D01*
X199907200Y-57809523D02*
X199954819Y-57904761D01*
X199954819Y-57904761D02*
X199954819Y-58142856D01*
X199954819Y-58142856D02*
X199907200Y-58238094D01*
X199907200Y-58238094D02*
X199859580Y-58285713D01*
X203359580Y-58729166D02*
X203407200Y-58776785D01*
X203407200Y-58776785D02*
X203454819Y-58919642D01*
X203454819Y-58919642D02*
X203454819Y-59014880D01*
X203454819Y-59014880D02*
X203407200Y-59157737D01*
X203407200Y-59157737D02*
X203311961Y-59252975D01*
X203311961Y-59252975D02*
X203216723Y-59300594D01*
X203216723Y-59300594D02*
X203026247Y-59348213D01*
X203026247Y-59348213D02*
X202883390Y-59348213D01*
X202883390Y-59348213D02*
X202692914Y-59300594D01*
X202692914Y-59300594D02*
X202597676Y-59252975D01*
X202597676Y-59252975D02*
X202502438Y-59157737D01*
X202502438Y-59157737D02*
X202454819Y-59014880D01*
X202454819Y-59014880D02*
X202454819Y-58919642D01*
X202454819Y-58919642D02*
X202502438Y-58776785D01*
X202502438Y-58776785D02*
X202550057Y-58729166D01*
X202788152Y-57872023D02*
X203454819Y-57872023D01*
X202407200Y-58110118D02*
X203121485Y-58348213D01*
X203121485Y-58348213D02*
X203121485Y-57729166D01*
X206859580Y-58729166D02*
X206907200Y-58776785D01*
X206907200Y-58776785D02*
X206954819Y-58919642D01*
X206954819Y-58919642D02*
X206954819Y-59014880D01*
X206954819Y-59014880D02*
X206907200Y-59157737D01*
X206907200Y-59157737D02*
X206811961Y-59252975D01*
X206811961Y-59252975D02*
X206716723Y-59300594D01*
X206716723Y-59300594D02*
X206526247Y-59348213D01*
X206526247Y-59348213D02*
X206383390Y-59348213D01*
X206383390Y-59348213D02*
X206192914Y-59300594D01*
X206192914Y-59300594D02*
X206097676Y-59252975D01*
X206097676Y-59252975D02*
X206002438Y-59157737D01*
X206002438Y-59157737D02*
X205954819Y-59014880D01*
X205954819Y-59014880D02*
X205954819Y-58919642D01*
X205954819Y-58919642D02*
X206002438Y-58776785D01*
X206002438Y-58776785D02*
X206050057Y-58729166D01*
X205954819Y-58395832D02*
X205954819Y-57776785D01*
X205954819Y-57776785D02*
X206335771Y-58110118D01*
X206335771Y-58110118D02*
X206335771Y-57967261D01*
X206335771Y-57967261D02*
X206383390Y-57872023D01*
X206383390Y-57872023D02*
X206431009Y-57824404D01*
X206431009Y-57824404D02*
X206526247Y-57776785D01*
X206526247Y-57776785D02*
X206764342Y-57776785D01*
X206764342Y-57776785D02*
X206859580Y-57824404D01*
X206859580Y-57824404D02*
X206907200Y-57872023D01*
X206907200Y-57872023D02*
X206954819Y-57967261D01*
X206954819Y-57967261D02*
X206954819Y-58252975D01*
X206954819Y-58252975D02*
X206907200Y-58348213D01*
X206907200Y-58348213D02*
X206859580Y-58395832D01*
X210359580Y-58791666D02*
X210407200Y-58839285D01*
X210407200Y-58839285D02*
X210454819Y-58982142D01*
X210454819Y-58982142D02*
X210454819Y-59077380D01*
X210454819Y-59077380D02*
X210407200Y-59220237D01*
X210407200Y-59220237D02*
X210311961Y-59315475D01*
X210311961Y-59315475D02*
X210216723Y-59363094D01*
X210216723Y-59363094D02*
X210026247Y-59410713D01*
X210026247Y-59410713D02*
X209883390Y-59410713D01*
X209883390Y-59410713D02*
X209692914Y-59363094D01*
X209692914Y-59363094D02*
X209597676Y-59315475D01*
X209597676Y-59315475D02*
X209502438Y-59220237D01*
X209502438Y-59220237D02*
X209454819Y-59077380D01*
X209454819Y-59077380D02*
X209454819Y-58982142D01*
X209454819Y-58982142D02*
X209502438Y-58839285D01*
X209502438Y-58839285D02*
X209550057Y-58791666D01*
X209550057Y-58410713D02*
X209502438Y-58363094D01*
X209502438Y-58363094D02*
X209454819Y-58267856D01*
X209454819Y-58267856D02*
X209454819Y-58029761D01*
X209454819Y-58029761D02*
X209502438Y-57934523D01*
X209502438Y-57934523D02*
X209550057Y-57886904D01*
X209550057Y-57886904D02*
X209645295Y-57839285D01*
X209645295Y-57839285D02*
X209740533Y-57839285D01*
X209740533Y-57839285D02*
X209883390Y-57886904D01*
X209883390Y-57886904D02*
X210454819Y-58458332D01*
X210454819Y-58458332D02*
X210454819Y-57839285D01*
X210333333Y-78859580D02*
X210285714Y-78907200D01*
X210285714Y-78907200D02*
X210142857Y-78954819D01*
X210142857Y-78954819D02*
X210047619Y-78954819D01*
X210047619Y-78954819D02*
X209904762Y-78907200D01*
X209904762Y-78907200D02*
X209809524Y-78811961D01*
X209809524Y-78811961D02*
X209761905Y-78716723D01*
X209761905Y-78716723D02*
X209714286Y-78526247D01*
X209714286Y-78526247D02*
X209714286Y-78383390D01*
X209714286Y-78383390D02*
X209761905Y-78192914D01*
X209761905Y-78192914D02*
X209809524Y-78097676D01*
X209809524Y-78097676D02*
X209904762Y-78002438D01*
X209904762Y-78002438D02*
X210047619Y-77954819D01*
X210047619Y-77954819D02*
X210142857Y-77954819D01*
X210142857Y-77954819D02*
X210285714Y-78002438D01*
X210285714Y-78002438D02*
X210333333Y-78050057D01*
X211285714Y-78954819D02*
X210714286Y-78954819D01*
X211000000Y-78954819D02*
X211000000Y-77954819D01*
X211000000Y-77954819D02*
X210904762Y-78097676D01*
X210904762Y-78097676D02*
X210809524Y-78192914D01*
X210809524Y-78192914D02*
X210714286Y-78240533D01*
X172589104Y-98834285D02*
X172589104Y-98358095D01*
X172874819Y-98929523D02*
X171874819Y-98596190D01*
X171874819Y-98596190D02*
X172874819Y-98262857D01*
X172874819Y-97405714D02*
X172874819Y-97977142D01*
X172874819Y-97691428D02*
X171874819Y-97691428D01*
X171874819Y-97691428D02*
X172017676Y-97786666D01*
X172017676Y-97786666D02*
X172112914Y-97881904D01*
X172112914Y-97881904D02*
X172160533Y-97977142D01*
X212514819Y-99381904D02*
X213324342Y-99381904D01*
X213324342Y-99381904D02*
X213419580Y-99334285D01*
X213419580Y-99334285D02*
X213467200Y-99286666D01*
X213467200Y-99286666D02*
X213514819Y-99191428D01*
X213514819Y-99191428D02*
X213514819Y-99000952D01*
X213514819Y-99000952D02*
X213467200Y-98905714D01*
X213467200Y-98905714D02*
X213419580Y-98858095D01*
X213419580Y-98858095D02*
X213324342Y-98810476D01*
X213324342Y-98810476D02*
X212514819Y-98810476D01*
X213467200Y-98381904D02*
X213514819Y-98239047D01*
X213514819Y-98239047D02*
X213514819Y-98000952D01*
X213514819Y-98000952D02*
X213467200Y-97905714D01*
X213467200Y-97905714D02*
X213419580Y-97858095D01*
X213419580Y-97858095D02*
X213324342Y-97810476D01*
X213324342Y-97810476D02*
X213229104Y-97810476D01*
X213229104Y-97810476D02*
X213133866Y-97858095D01*
X213133866Y-97858095D02*
X213086247Y-97905714D01*
X213086247Y-97905714D02*
X213038628Y-98000952D01*
X213038628Y-98000952D02*
X212991009Y-98191428D01*
X212991009Y-98191428D02*
X212943390Y-98286666D01*
X212943390Y-98286666D02*
X212895771Y-98334285D01*
X212895771Y-98334285D02*
X212800533Y-98381904D01*
X212800533Y-98381904D02*
X212705295Y-98381904D01*
X212705295Y-98381904D02*
X212610057Y-98334285D01*
X212610057Y-98334285D02*
X212562438Y-98286666D01*
X212562438Y-98286666D02*
X212514819Y-98191428D01*
X212514819Y-98191428D02*
X212514819Y-97953333D01*
X212514819Y-97953333D02*
X212562438Y-97810476D01*
X212991009Y-97048571D02*
X213038628Y-96905714D01*
X213038628Y-96905714D02*
X213086247Y-96858095D01*
X213086247Y-96858095D02*
X213181485Y-96810476D01*
X213181485Y-96810476D02*
X213324342Y-96810476D01*
X213324342Y-96810476D02*
X213419580Y-96858095D01*
X213419580Y-96858095D02*
X213467200Y-96905714D01*
X213467200Y-96905714D02*
X213514819Y-97000952D01*
X213514819Y-97000952D02*
X213514819Y-97381904D01*
X213514819Y-97381904D02*
X212514819Y-97381904D01*
X212514819Y-97381904D02*
X212514819Y-97048571D01*
X212514819Y-97048571D02*
X212562438Y-96953333D01*
X212562438Y-96953333D02*
X212610057Y-96905714D01*
X212610057Y-96905714D02*
X212705295Y-96858095D01*
X212705295Y-96858095D02*
X212800533Y-96858095D01*
X212800533Y-96858095D02*
X212895771Y-96905714D01*
X212895771Y-96905714D02*
X212943390Y-96953333D01*
X212943390Y-96953333D02*
X212991009Y-97048571D01*
X212991009Y-97048571D02*
X212991009Y-97381904D01*
D14*
G36*
X218222230Y-51813092D02*
G01*
X218356406Y-51832181D01*
X218502566Y-51852974D01*
X218828846Y-51920889D01*
X219185810Y-52013523D01*
X219558200Y-52127562D01*
X219930755Y-52259692D01*
X220288217Y-52406599D01*
X220399035Y-52457178D01*
X220803662Y-52655431D01*
X221149428Y-52847465D01*
X221455285Y-53049018D01*
X221740185Y-53275830D01*
X222023077Y-53543640D01*
X222322915Y-53868187D01*
X222658647Y-54265211D01*
X222830182Y-54476298D01*
X223061133Y-54758373D01*
X223289790Y-55029385D01*
X223497728Y-55268078D01*
X223666523Y-55453199D01*
X223753611Y-55541514D01*
X224019028Y-55775092D01*
X224319920Y-56010892D01*
X224626265Y-56227556D01*
X224908037Y-56403723D01*
X225113777Y-56509128D01*
X225313103Y-56587822D01*
X225433758Y-56621158D01*
X225467725Y-56608488D01*
X225406988Y-56549167D01*
X225381464Y-56530730D01*
X225290843Y-56460855D01*
X225290413Y-56423274D01*
X225357195Y-56393495D01*
X225464316Y-56369791D01*
X225651303Y-56343010D01*
X225883613Y-56317861D01*
X225964133Y-56310740D01*
X226218456Y-56284242D01*
X226370049Y-56254417D01*
X226430853Y-56218382D01*
X226431270Y-56197961D01*
X226463211Y-56143935D01*
X226587351Y-56098254D01*
X226781251Y-56066360D01*
X227022476Y-56053694D01*
X227026298Y-56053678D01*
X227169187Y-56031231D01*
X227212641Y-55967042D01*
X227260228Y-55900933D01*
X227398984Y-55880407D01*
X227589821Y-55869912D01*
X227792967Y-55845440D01*
X227798500Y-55844535D01*
X227934156Y-55813945D01*
X227977803Y-55771551D01*
X227956175Y-55705595D01*
X227910702Y-55609356D01*
X227900677Y-55575592D01*
X227952970Y-55525516D01*
X228105566Y-55517224D01*
X228352040Y-55550555D01*
X228546877Y-55591522D01*
X228845840Y-55659728D01*
X229176198Y-55733672D01*
X229466476Y-55797356D01*
X229466709Y-55797407D01*
X229701534Y-55854126D01*
X229836643Y-55903260D01*
X229886188Y-55950780D01*
X229884197Y-55973603D01*
X229890716Y-56015838D01*
X229962813Y-56040553D01*
X230119105Y-56051618D01*
X230267601Y-56053322D01*
X230508770Y-56060593D01*
X230830892Y-56080488D01*
X231209645Y-56110519D01*
X231620705Y-56148195D01*
X232039749Y-56191025D01*
X232442453Y-56236520D01*
X232804493Y-56282188D01*
X233101546Y-56325541D01*
X233309290Y-56364087D01*
X233314334Y-56365246D01*
X233722667Y-56478255D01*
X234187761Y-56637167D01*
X234679709Y-56829232D01*
X235168605Y-57041695D01*
X235624543Y-57261803D01*
X236017617Y-57476804D01*
X236220389Y-57604484D01*
X236704367Y-57975711D01*
X237131433Y-58390156D01*
X237485036Y-58828866D01*
X237748624Y-59272892D01*
X237820957Y-59437088D01*
X237880776Y-59608009D01*
X237915678Y-59773020D01*
X237929924Y-59968612D01*
X237927778Y-60231272D01*
X237924693Y-60325324D01*
X237909431Y-60616044D01*
X237883308Y-60829631D01*
X237838824Y-61003572D01*
X237768479Y-61175356D01*
X237744713Y-61224936D01*
X237576267Y-61502170D01*
X237340551Y-61775717D01*
X237029158Y-62052164D01*
X236633681Y-62338093D01*
X236145713Y-62640090D01*
X235556847Y-62964739D01*
X235455923Y-63017551D01*
X234705132Y-63392904D01*
X234037383Y-63695008D01*
X233453940Y-63923327D01*
X232956068Y-64077326D01*
X232946275Y-64079826D01*
X232339501Y-64238179D01*
X231829264Y-64381164D01*
X231399315Y-64514105D01*
X231033399Y-64642324D01*
X230715265Y-64771143D01*
X230437622Y-64901370D01*
X230177161Y-65029532D01*
X229996942Y-65109349D01*
X229876524Y-65147363D01*
X229795462Y-65150115D01*
X229736029Y-65125863D01*
X229642867Y-65077629D01*
X229548044Y-65062187D01*
X229424175Y-65083342D01*
X229243878Y-65144899D01*
X229052958Y-65220760D01*
X228855801Y-65293148D01*
X228701814Y-65335033D01*
X228618881Y-65339201D01*
X228613074Y-65334564D01*
X228542960Y-65280123D01*
X228410652Y-65211834D01*
X228377844Y-65197630D01*
X228281096Y-65161146D01*
X228196691Y-65149300D01*
X228098268Y-65168483D01*
X227959466Y-65225085D01*
X227753922Y-65325495D01*
X227664626Y-65370508D01*
X227387866Y-65505965D01*
X227195134Y-65588121D01*
X227071335Y-65621338D01*
X227001377Y-65609979D01*
X226973525Y-65570235D01*
X226917229Y-65557370D01*
X226792864Y-65607764D01*
X226618620Y-65709118D01*
X226412687Y-65849131D01*
X226193255Y-66015504D01*
X225978513Y-66195937D01*
X225802213Y-66362279D01*
X225540606Y-66642208D01*
X225295925Y-66939801D01*
X225054110Y-67275033D01*
X224801103Y-67667877D01*
X224522845Y-68138305D01*
X224401873Y-68351693D01*
X224056497Y-68950987D01*
X223737860Y-69465805D01*
X223429441Y-69917870D01*
X223114722Y-70328905D01*
X222777184Y-70720635D01*
X222400306Y-71114783D01*
X222020617Y-71483128D01*
X221794480Y-71683584D01*
X221568485Y-71861301D01*
X221364610Y-72000899D01*
X221204835Y-72086995D01*
X221128833Y-72107223D01*
X221098608Y-72084031D01*
X221086615Y-72005560D01*
X221093693Y-71858464D01*
X221120680Y-71629397D01*
X221168415Y-71305016D01*
X221186476Y-71189842D01*
X221212365Y-70908459D01*
X221215547Y-70530091D01*
X221196035Y-70047783D01*
X221188787Y-69928442D01*
X221163168Y-69592096D01*
X221126382Y-69197445D01*
X221081143Y-68766615D01*
X221030166Y-68321729D01*
X220976166Y-67884914D01*
X220921857Y-67478293D01*
X220869954Y-67123991D01*
X220823171Y-66844133D01*
X220791310Y-66688939D01*
X220749357Y-66494595D01*
X220745907Y-66382488D01*
X220788603Y-66324411D01*
X220885085Y-66292158D01*
X220899698Y-66288890D01*
X221057776Y-66224508D01*
X221164147Y-66143701D01*
X221227656Y-66062024D01*
X221200777Y-66025156D01*
X221127091Y-66007075D01*
X220973560Y-65982382D01*
X220726548Y-65950781D01*
X220406901Y-65914268D01*
X220035465Y-65874839D01*
X219633083Y-65834487D01*
X219220603Y-65795208D01*
X218818870Y-65758998D01*
X218448729Y-65727850D01*
X218131026Y-65703762D01*
X217886606Y-65688727D01*
X217757340Y-65684557D01*
X217481314Y-65670186D01*
X217178914Y-65634361D01*
X217006772Y-65603592D01*
X216790898Y-65544974D01*
X216488313Y-65445251D01*
X216116455Y-65311308D01*
X215692761Y-65150029D01*
X215234670Y-64968300D01*
X214759617Y-64773004D01*
X214285041Y-64571027D01*
X213828380Y-64369252D01*
X213509255Y-64222722D01*
X212966101Y-63971360D01*
X212509669Y-63767689D01*
X212124796Y-63606786D01*
X211796316Y-63483724D01*
X211509064Y-63393580D01*
X211247873Y-63331428D01*
X210997580Y-63292344D01*
X210743018Y-63271402D01*
X210560197Y-63265021D01*
X210331821Y-63266738D01*
X210152311Y-63290306D01*
X209973739Y-63346905D01*
X209748175Y-63447718D01*
X209720846Y-63460827D01*
X209509675Y-63560449D01*
X209367864Y-63615743D01*
X209261675Y-63632589D01*
X209157371Y-63616868D01*
X209037732Y-63579901D01*
X208709386Y-63483847D01*
X208299648Y-63382509D01*
X207841157Y-63282715D01*
X207366553Y-63191290D01*
X206908475Y-63115061D01*
X206628894Y-63076117D01*
X206342245Y-63038614D01*
X206097038Y-63003812D01*
X205915502Y-62975067D01*
X205819866Y-62955739D01*
X205811851Y-62952693D01*
X205768495Y-62880024D01*
X205827321Y-62773656D01*
X205990400Y-62630646D01*
X206087520Y-62560983D01*
X206266317Y-62422470D01*
X206413783Y-62280879D01*
X206489463Y-62180474D01*
X206539775Y-62063613D01*
X206521391Y-61994720D01*
X206443140Y-61935360D01*
X206243619Y-61833083D01*
X205951133Y-61719540D01*
X205586181Y-61600089D01*
X205169260Y-61480087D01*
X204720868Y-61364891D01*
X204261501Y-61259859D01*
X203811658Y-61170346D01*
X203391836Y-61101711D01*
X203128925Y-61069176D01*
X202906609Y-61054681D01*
X202716351Y-61068261D01*
X202507890Y-61116600D01*
X202316764Y-61177199D01*
X201924298Y-61325725D01*
X201458550Y-61530140D01*
X200939915Y-61780191D01*
X200388784Y-62065623D01*
X199825553Y-62376186D01*
X199270615Y-62701624D01*
X199203837Y-62742235D01*
X198867352Y-62947721D01*
X198538100Y-63148794D01*
X198238095Y-63332012D01*
X197989348Y-63483930D01*
X197813872Y-63591106D01*
X197799097Y-63600131D01*
X197240538Y-63906243D01*
X196592616Y-64195674D01*
X195847302Y-64471642D01*
X194996566Y-64737369D01*
X194879334Y-64770897D01*
X194442570Y-64877610D01*
X194081621Y-64930159D01*
X193802271Y-64928874D01*
X193610308Y-64874085D01*
X193511518Y-64766121D01*
X193498871Y-64692188D01*
X193547994Y-64520618D01*
X193690092Y-64302520D01*
X193917258Y-64045889D01*
X194221585Y-63758719D01*
X194595166Y-63449005D01*
X195030094Y-63124741D01*
X195093130Y-63080251D01*
X195376207Y-62868682D01*
X195569038Y-62692103D01*
X195685510Y-62537476D01*
X195699395Y-62511054D01*
X195807142Y-62291463D01*
X195670727Y-62156133D01*
X195571374Y-62088222D01*
X195377968Y-61983819D01*
X195103076Y-61848654D01*
X194759262Y-61688457D01*
X194359091Y-61508955D01*
X193915127Y-61315880D01*
X193439937Y-61114959D01*
X192946086Y-60911923D01*
X192909870Y-60897265D01*
X192513602Y-60745844D01*
X192170926Y-60637948D01*
X191835317Y-60561186D01*
X191460251Y-60503165D01*
X191403200Y-60495987D01*
X191107537Y-60431583D01*
X190869499Y-60324455D01*
X190708305Y-60186235D01*
X190643811Y-60036324D01*
X190646421Y-60002134D01*
X190861399Y-60002134D01*
X190904335Y-60056916D01*
X190984021Y-60115585D01*
X191105331Y-60164303D01*
X191295087Y-60212654D01*
X191468669Y-60243433D01*
X191691715Y-60286178D01*
X191973227Y-60355797D01*
X192263988Y-60439733D01*
X192363292Y-60471649D01*
X192728654Y-60599397D01*
X193133376Y-60751786D01*
X193561509Y-60921779D01*
X193997106Y-61102340D01*
X194424219Y-61286430D01*
X194826899Y-61467012D01*
X195189198Y-61637049D01*
X195495169Y-61789504D01*
X195728861Y-61917340D01*
X195874329Y-62013519D01*
X195891709Y-62028596D01*
X196006675Y-62189889D01*
X196022614Y-62368507D01*
X195937364Y-62568086D01*
X195748759Y-62792260D01*
X195454636Y-63044665D01*
X195160341Y-63256832D01*
X194891796Y-63451535D01*
X194621133Y-63668241D01*
X194364052Y-63892045D01*
X194136256Y-64108042D01*
X193953444Y-64301327D01*
X193831319Y-64456995D01*
X193785582Y-64560140D01*
X193785553Y-64561919D01*
X193808311Y-64615076D01*
X193892294Y-64643333D01*
X194061062Y-64653162D01*
X194118923Y-64653498D01*
X194296923Y-64640765D01*
X194525715Y-64600138D01*
X194820833Y-64527978D01*
X195197811Y-64420647D01*
X195480661Y-64334469D01*
X196014800Y-64162290D01*
X196466690Y-63999751D01*
X196866354Y-63833146D01*
X197243814Y-63648770D01*
X197629092Y-63432915D01*
X198052211Y-63171876D01*
X198114447Y-63132055D01*
X198715638Y-62756042D01*
X199320177Y-62396710D01*
X199915181Y-62060632D01*
X200487766Y-61754385D01*
X201025050Y-61484541D01*
X201514149Y-61257675D01*
X201942178Y-61080363D01*
X202296256Y-60959177D01*
X202449233Y-60920016D01*
X202838714Y-60877644D01*
X203322371Y-60896885D01*
X203897822Y-60977494D01*
X204562684Y-61119229D01*
X204679458Y-61148132D01*
X205224477Y-61293257D01*
X205708885Y-61437898D01*
X206123930Y-61578605D01*
X206460861Y-61711929D01*
X206710928Y-61834420D01*
X206865379Y-61942630D01*
X206915576Y-62029514D01*
X206876087Y-62099205D01*
X206770659Y-62223109D01*
X206618842Y-62379015D01*
X206549380Y-62445482D01*
X206183184Y-62788941D01*
X207280418Y-62970970D01*
X207658897Y-63037479D01*
X208032645Y-63109805D01*
X208373608Y-63182042D01*
X208653730Y-63248280D01*
X208826633Y-63296596D01*
X209275613Y-63440193D01*
X209625431Y-63274755D01*
X209944248Y-63145168D01*
X210244133Y-63076290D01*
X210565520Y-63063063D01*
X210948847Y-63100428D01*
X210981233Y-63105130D01*
X211308235Y-63167316D01*
X211665188Y-63258534D01*
X212032188Y-63371184D01*
X212389330Y-63497663D01*
X212716709Y-63630371D01*
X212994422Y-63761708D01*
X213202562Y-63884071D01*
X213321226Y-63989860D01*
X213328819Y-64001613D01*
X213377892Y-64071013D01*
X213392839Y-64071412D01*
X213443621Y-64062038D01*
X213581168Y-64094203D01*
X213787768Y-64162182D01*
X214045705Y-64260251D01*
X214283296Y-64359190D01*
X214628048Y-64505300D01*
X215005528Y-64660557D01*
X215397207Y-64817806D01*
X215784554Y-64969895D01*
X216149039Y-65109671D01*
X216472130Y-65229981D01*
X216735298Y-65323672D01*
X216920012Y-65383592D01*
X216974805Y-65398132D01*
X217130113Y-65423658D01*
X217371729Y-65452274D01*
X217671444Y-65481113D01*
X218001048Y-65507311D01*
X218146598Y-65517156D01*
X218510281Y-65543676D01*
X218946999Y-65580723D01*
X219416009Y-65624539D01*
X219876565Y-65671363D01*
X220177076Y-65704488D01*
X220577523Y-65749068D01*
X220878498Y-65778868D01*
X221094160Y-65794547D01*
X221238666Y-65796762D01*
X221326173Y-65786171D01*
X221370839Y-65763433D01*
X221373826Y-65760120D01*
X221472285Y-65690101D01*
X221551335Y-65729590D01*
X221573396Y-65772733D01*
X221563224Y-65885043D01*
X221484059Y-66034556D01*
X221358723Y-66189768D01*
X221210034Y-66319176D01*
X221151243Y-66355525D01*
X221021028Y-66449938D01*
X220986998Y-66550154D01*
X220990024Y-66571936D01*
X221013555Y-66685476D01*
X221053015Y-66871041D01*
X221099895Y-67088621D01*
X221100258Y-67090293D01*
X221191682Y-67555873D01*
X221273657Y-68058735D01*
X221344995Y-68582813D01*
X221404508Y-69112040D01*
X221451009Y-69630349D01*
X221483310Y-70121674D01*
X221500224Y-70569948D01*
X221500564Y-70959104D01*
X221483141Y-71273076D01*
X221446769Y-71495797D01*
X221429750Y-71548194D01*
X221397885Y-71658622D01*
X221408083Y-71705594D01*
X221408755Y-71705611D01*
X221486477Y-71664766D01*
X221625350Y-71552370D01*
X221810641Y-71382842D01*
X222027615Y-71170604D01*
X222261539Y-70930077D01*
X222497679Y-70675680D01*
X222721302Y-70421836D01*
X222725924Y-70416420D01*
X222997877Y-70091108D01*
X223228411Y-69797958D01*
X223433778Y-69512524D01*
X223630230Y-69210360D01*
X223834017Y-68867020D01*
X224061392Y-68458058D01*
X224204637Y-68192096D01*
X224373438Y-67884580D01*
X224542577Y-67591103D01*
X224697261Y-67336330D01*
X224822699Y-67144927D01*
X224875121Y-67074037D01*
X225151426Y-66733243D01*
X225373655Y-66467605D01*
X225557463Y-66261246D01*
X225718504Y-66098283D01*
X225872430Y-65962839D01*
X226034895Y-65839032D01*
X226213378Y-65716417D01*
X226591239Y-65476544D01*
X226891203Y-65312399D01*
X227119044Y-65221296D01*
X227280537Y-65200549D01*
X227310909Y-65205959D01*
X227457059Y-65190981D01*
X227608868Y-65106914D01*
X227794028Y-65015763D01*
X228031500Y-64959339D01*
X228279116Y-64941692D01*
X228494709Y-64966869D01*
X228602961Y-65011464D01*
X228672399Y-65047880D01*
X228748679Y-65055917D01*
X228857123Y-65030117D01*
X229023052Y-64965020D01*
X229219735Y-64878504D01*
X229481878Y-64763798D01*
X229662804Y-64694539D01*
X229784704Y-64666606D01*
X229869767Y-64675882D01*
X229940186Y-64718247D01*
X229965428Y-64740084D01*
X230020541Y-64776546D01*
X230091395Y-64782507D01*
X230201548Y-64752414D01*
X230374562Y-64680717D01*
X230543306Y-64603903D01*
X230916319Y-64449623D01*
X231396215Y-64282247D01*
X231985047Y-64101120D01*
X232684863Y-63905584D01*
X232917607Y-63843792D01*
X233142700Y-63770375D01*
X233448428Y-63650079D01*
X233815515Y-63492305D01*
X234224685Y-63306453D01*
X234656662Y-63101924D01*
X235092168Y-62888119D01*
X235511928Y-62674439D01*
X235896666Y-62470284D01*
X236227105Y-62285056D01*
X236483969Y-62128156D01*
X236598693Y-62048571D01*
X236874156Y-61810408D01*
X237131797Y-61531515D01*
X237348690Y-61240878D01*
X237501908Y-60967482D01*
X237546163Y-60850695D01*
X237580500Y-60677674D01*
X237605725Y-60436712D01*
X237617258Y-60174451D01*
X237617520Y-60123927D01*
X237602448Y-59821863D01*
X237550806Y-59562069D01*
X237450752Y-59319608D01*
X237290445Y-59069542D01*
X237058043Y-58786935D01*
X236900827Y-58614614D01*
X236414130Y-58161446D01*
X235837766Y-57750576D01*
X235162841Y-57376006D01*
X234840746Y-57224893D01*
X234383855Y-57028282D01*
X233963981Y-56866492D01*
X233558108Y-56733899D01*
X233143222Y-56624875D01*
X232696309Y-56533795D01*
X232194353Y-56455033D01*
X231614340Y-56382963D01*
X231226185Y-56341301D01*
X230506440Y-56252967D01*
X229866807Y-56142682D01*
X229363156Y-56027994D01*
X229011327Y-55939465D01*
X228754319Y-55878676D01*
X228576162Y-55843783D01*
X228460886Y-55832943D01*
X228392520Y-55844312D01*
X228355095Y-55876047D01*
X228338634Y-55909706D01*
X228262382Y-55973500D01*
X228146156Y-55996342D01*
X227910822Y-56010560D01*
X227717146Y-56046832D01*
X227591177Y-56098519D01*
X227556659Y-56146554D01*
X227540860Y-56202888D01*
X227476865Y-56230454D01*
X227339777Y-56235022D01*
X227202731Y-56228573D01*
X227039663Y-56238453D01*
X226948300Y-56301805D01*
X226932665Y-56327198D01*
X226872388Y-56392333D01*
X226758791Y-56434586D01*
X226565233Y-56462458D01*
X226487302Y-56469310D01*
X226270563Y-56497256D01*
X226109618Y-56538367D01*
X226040664Y-56577682D01*
X225890037Y-56698024D01*
X225676452Y-56787083D01*
X225450783Y-56827461D01*
X225329570Y-56820872D01*
X224985091Y-56712682D01*
X224599888Y-56510234D01*
X224184250Y-56221973D01*
X223748464Y-55856344D01*
X223302816Y-55421790D01*
X222857596Y-54926755D01*
X222534662Y-54526723D01*
X222317348Y-54253487D01*
X222092886Y-53985856D01*
X221884133Y-53750174D01*
X221713947Y-53572785D01*
X221675012Y-53535954D01*
X221471984Y-53358829D01*
X221262759Y-53190303D01*
X221069537Y-53046766D01*
X220914516Y-52944609D01*
X220819898Y-52900221D01*
X220813035Y-52899548D01*
X220744258Y-52875057D01*
X220602915Y-52810448D01*
X220417913Y-52719020D01*
X220393343Y-52706464D01*
X220171162Y-52604081D01*
X219888707Y-52490864D01*
X219570959Y-52374993D01*
X219242900Y-52264647D01*
X218929510Y-52168006D01*
X218655770Y-52093249D01*
X218446663Y-52048557D01*
X218356406Y-52039503D01*
X218158339Y-52039503D01*
X218538447Y-52598532D01*
X218828178Y-53063347D01*
X219101752Y-53575276D01*
X219348614Y-54108999D01*
X219558209Y-54639194D01*
X219719981Y-55140543D01*
X219744582Y-55246942D01*
X219823376Y-55587725D01*
X219844344Y-55731164D01*
X219870079Y-55924014D01*
X219905934Y-56163642D01*
X219929706Y-56311061D01*
X219953112Y-56506763D01*
X219973490Y-56779825D01*
X219988547Y-57092937D01*
X219995752Y-57386117D01*
X220002065Y-57660531D01*
X220013192Y-57887964D01*
X220027644Y-58046919D01*
X220043931Y-58115898D01*
X220046420Y-58117155D01*
X220121876Y-58099518D01*
X220262874Y-58055051D01*
X220332280Y-58031151D01*
X220521835Y-57968868D01*
X220627485Y-57949175D01*
X220670980Y-57970090D01*
X220676298Y-57999800D01*
X220622770Y-58062605D01*
X220472682Y-58143728D01*
X220241775Y-58238291D01*
X219945791Y-58341417D01*
X219600472Y-58448230D01*
X219221560Y-58553852D01*
X218824797Y-58653407D01*
X218425924Y-58742019D01*
X218051435Y-58812980D01*
X217431030Y-58895761D01*
X216807644Y-58929405D01*
X216151791Y-58913866D01*
X215433987Y-58849096D01*
X215114673Y-58808264D01*
X214767778Y-58760863D01*
X214423186Y-58714158D01*
X214114105Y-58672624D01*
X213873738Y-58640737D01*
X213811746Y-58632652D01*
X213401450Y-58569372D01*
X213005932Y-58484652D01*
X212588198Y-58369185D01*
X212111253Y-58213663D01*
X212018510Y-58181483D01*
X211735161Y-58080227D01*
X211532649Y-57998266D01*
X211382897Y-57919008D01*
X211257831Y-57825859D01*
X211129375Y-57702224D01*
X211030819Y-57597715D01*
X210840279Y-57380201D01*
X210649116Y-57141684D01*
X210496962Y-56931739D01*
X210489902Y-56921077D01*
X210372851Y-56749996D01*
X210273741Y-56617418D01*
X210216193Y-56554089D01*
X210141534Y-56540538D01*
X209971765Y-56529712D01*
X209726431Y-56522230D01*
X209425076Y-56518712D01*
X209123025Y-56519440D01*
X208679670Y-56519791D01*
X208325144Y-56511146D01*
X208033846Y-56491945D01*
X207780172Y-56460630D01*
X207587851Y-56425956D01*
X207361099Y-56384015D01*
X207179253Y-56358339D01*
X207069596Y-56352421D01*
X207050950Y-56357251D01*
X207057431Y-56430502D01*
X207140890Y-56586680D01*
X207301585Y-56826191D01*
X207539770Y-57149441D01*
X207605524Y-57235654D01*
X207751410Y-57430443D01*
X207866308Y-57592462D01*
X207934968Y-57699724D01*
X207947630Y-57728905D01*
X207901972Y-57786736D01*
X207760944Y-57834346D01*
X207518462Y-57873032D01*
X207168442Y-57904093D01*
X207108050Y-57908063D01*
X206526400Y-57965860D01*
X205873155Y-58067274D01*
X205180009Y-58206104D01*
X204478653Y-58376151D01*
X203945117Y-58526822D01*
X203455962Y-58677675D01*
X203042806Y-58813886D01*
X202670449Y-58948822D01*
X202303692Y-59095853D01*
X201907335Y-59268347D01*
X201490438Y-59459092D01*
X201222825Y-59579115D01*
X200983272Y-59678703D01*
X200795535Y-59748524D01*
X200683368Y-59779245D01*
X200673828Y-59779909D01*
X200563377Y-59756183D01*
X200385441Y-59693398D01*
X200174918Y-59604142D01*
X200133922Y-59585139D01*
X199930245Y-59492699D01*
X199734944Y-59413232D01*
X199528855Y-59341166D01*
X199292813Y-59270930D01*
X199007652Y-59196955D01*
X198654208Y-59113668D01*
X198213316Y-59015499D01*
X198057111Y-58981440D01*
X197232296Y-58810321D01*
X196503065Y-58677406D01*
X195857188Y-58581830D01*
X195282436Y-58522728D01*
X194766582Y-58499237D01*
X194297395Y-58510490D01*
X193862647Y-58555624D01*
X193450110Y-58633774D01*
X193379587Y-58650706D01*
X192854391Y-58800460D01*
X192360685Y-58979121D01*
X191926083Y-59175520D01*
X191578201Y-59378491D01*
X191575612Y-59380269D01*
X191385985Y-59518520D01*
X191197545Y-59668811D01*
X191032552Y-59811762D01*
X190913264Y-59927990D01*
X190861940Y-59998117D01*
X190861399Y-60002134D01*
X190646421Y-60002134D01*
X190653565Y-59908528D01*
X190723929Y-59785559D01*
X190844488Y-59658928D01*
X191180069Y-59384149D01*
X191594353Y-59113052D01*
X192052419Y-58864766D01*
X192519341Y-58658418D01*
X192913715Y-58525632D01*
X193356873Y-58418391D01*
X193821658Y-58333095D01*
X194274980Y-58274129D01*
X194683753Y-58245877D01*
X194989616Y-58250591D01*
X195765956Y-58325026D01*
X196456175Y-58423384D01*
X197053725Y-58541792D01*
X197675933Y-58684438D01*
X198198085Y-58806229D01*
X198632262Y-58910299D01*
X198990543Y-58999783D01*
X199285007Y-59077817D01*
X199527733Y-59147537D01*
X199730802Y-59212076D01*
X199906293Y-59274570D01*
X199966683Y-59297813D01*
X200269461Y-59413695D01*
X200495522Y-59486598D01*
X200674010Y-59517623D01*
X200834070Y-59507870D01*
X201004846Y-59458440D01*
X201215483Y-59370434D01*
X201267946Y-59346958D01*
X202323324Y-58896007D01*
X203309648Y-58523851D01*
X204237966Y-58227229D01*
X205119326Y-58002878D01*
X205964777Y-57847538D01*
X206600226Y-57772726D01*
X206975469Y-57737726D01*
X207249524Y-57707348D01*
X207435670Y-57679358D01*
X207547188Y-57651521D01*
X207597355Y-57621604D01*
X207603612Y-57603882D01*
X207571542Y-57542795D01*
X207483981Y-57408833D01*
X207353900Y-57221111D01*
X207194271Y-56998748D01*
X207176316Y-56974158D01*
X206944419Y-56649981D01*
X206787009Y-56406552D01*
X206705866Y-56235939D01*
X206702770Y-56130215D01*
X206779499Y-56081448D01*
X206937834Y-56081711D01*
X207179555Y-56123072D01*
X207358439Y-56162717D01*
X207604210Y-56213648D01*
X207858675Y-56252539D01*
X208146519Y-56281735D01*
X208492427Y-56303576D01*
X208921084Y-56320405D01*
X209065688Y-56324719D01*
X209477488Y-56338002D01*
X209789719Y-56352476D01*
X210017485Y-56369610D01*
X210175888Y-56390872D01*
X210280034Y-56417731D01*
X210341060Y-56448755D01*
X210426770Y-56529882D01*
X210561728Y-56680488D01*
X210726571Y-56878169D01*
X210881923Y-57074504D01*
X211098287Y-57338564D01*
X211301353Y-57556270D01*
X211471091Y-57706818D01*
X211527319Y-57744840D01*
X211811365Y-57882526D01*
X212178160Y-58018037D01*
X212596010Y-58141894D01*
X213033223Y-58244615D01*
X213423250Y-58312016D01*
X213733121Y-58357585D01*
X214050826Y-58408742D01*
X214329330Y-58457727D01*
X214455305Y-58482280D01*
X215337063Y-58636759D01*
X216143640Y-58720686D01*
X216868479Y-58733417D01*
X216972370Y-58729013D01*
X217450819Y-58687678D01*
X217983639Y-58613561D01*
X218526354Y-58514586D01*
X219034488Y-58398675D01*
X219386230Y-58299068D01*
X219573990Y-58236193D01*
X219680153Y-58180824D01*
X219732641Y-58106484D01*
X219759378Y-57986695D01*
X219766466Y-57938538D01*
X219777098Y-57760184D01*
X219772465Y-57515510D01*
X219753728Y-57251684D01*
X219748279Y-57199774D01*
X219719203Y-56909539D01*
X219693646Y-56602214D01*
X219676788Y-56340598D01*
X219675933Y-56322713D01*
X219662019Y-56121475D01*
X219642795Y-55968681D01*
X219622450Y-55897468D01*
X219611134Y-55872879D01*
X219704900Y-55872879D01*
X219754276Y-55990166D01*
X219789915Y-56020488D01*
X219797509Y-55945979D01*
X219796400Y-55923997D01*
X219775961Y-55824736D01*
X219744582Y-55803919D01*
X219704900Y-55872879D01*
X219611134Y-55872879D01*
X219588541Y-55823786D01*
X219596464Y-55752108D01*
X219639069Y-55734860D01*
X219644244Y-55737697D01*
X219696334Y-55747365D01*
X219686417Y-55689898D01*
X219624260Y-55598871D01*
X219577218Y-55510651D01*
X219506623Y-55337800D01*
X219422110Y-55105455D01*
X219335062Y-54844250D01*
X219099822Y-54205800D01*
X218803440Y-53557560D01*
X218467270Y-52942592D01*
X218151817Y-52458008D01*
X218008091Y-52249208D01*
X217894083Y-52068608D01*
X217824289Y-51940061D01*
X217809481Y-51894785D01*
X217860428Y-51830684D01*
X218003098Y-51804557D01*
X218222230Y-51813092D01*
G37*
G36*
X200203182Y-60014611D02*
G01*
X200084137Y-60096656D01*
X200035214Y-60122723D01*
X199682572Y-60322811D01*
X199423120Y-60514432D01*
X199264978Y-60691240D01*
X199235116Y-60748325D01*
X199192644Y-60900975D01*
X199216823Y-61008538D01*
X199316253Y-61073642D01*
X199499535Y-61098915D01*
X199775268Y-61086984D01*
X200152055Y-61040478D01*
X200178555Y-61036572D01*
X200555724Y-60982681D01*
X200831238Y-60948798D01*
X201016250Y-60934321D01*
X201121912Y-60938648D01*
X201159373Y-60961178D01*
X201153273Y-60983972D01*
X201077585Y-61021643D01*
X200936680Y-61040734D01*
X200906210Y-61041319D01*
X200745626Y-61052309D01*
X200518937Y-61081275D01*
X200272179Y-61122228D01*
X200245182Y-61127323D01*
X199814195Y-61193665D01*
X199483361Y-61207717D01*
X199250344Y-61168625D01*
X199112807Y-61075535D01*
X199068413Y-60927594D01*
X199114826Y-60723949D01*
X199118159Y-60715573D01*
X199197328Y-60604488D01*
X199346204Y-60458757D01*
X199535690Y-60301940D01*
X199736691Y-60157598D01*
X199920110Y-60049290D01*
X199968880Y-60026703D01*
X200138426Y-59969317D01*
X200218903Y-59968725D01*
X200203182Y-60014611D01*
G37*
G36*
X205126032Y-58945400D02*
G01*
X205553769Y-59167078D01*
X206078470Y-59367597D01*
X206683459Y-59541168D01*
X207124493Y-59639317D01*
X207394872Y-59692672D01*
X207622358Y-59736727D01*
X207784521Y-59767196D01*
X207858932Y-59779797D01*
X207860684Y-59779909D01*
X207889515Y-59824203D01*
X207890293Y-59837246D01*
X207848248Y-59879653D01*
X207718466Y-59889911D01*
X207495477Y-59867481D01*
X207173813Y-59811821D01*
X206764433Y-59726033D01*
X206301201Y-59615081D01*
X205921049Y-59502740D01*
X205592808Y-59377802D01*
X205285306Y-59229060D01*
X205111199Y-59131570D01*
X204826236Y-58965299D01*
X204003975Y-59100257D01*
X203181714Y-59235214D01*
X203359725Y-59394316D01*
X203463074Y-59503594D01*
X203508731Y-59586781D01*
X203506508Y-59603945D01*
X203429639Y-59635903D01*
X203307415Y-59598581D01*
X203166697Y-59511777D01*
X203034344Y-59395288D01*
X202937215Y-59268914D01*
X202902032Y-59158387D01*
X202924353Y-59079943D01*
X203010152Y-59035230D01*
X203145711Y-59012074D01*
X203340997Y-58990611D01*
X203585896Y-58966560D01*
X203752210Y-58951637D01*
X204020588Y-58918063D01*
X204309083Y-58866142D01*
X204456798Y-58832127D01*
X204798566Y-58743566D01*
X205126032Y-58945400D01*
G37*
G36*
X221438082Y-60076200D02*
G01*
X221708720Y-60102345D01*
X222063089Y-60143475D01*
X222486493Y-60197688D01*
X222964235Y-60263077D01*
X223481622Y-60337737D01*
X224023956Y-60419764D01*
X224202483Y-60447589D01*
X224493827Y-60488091D01*
X224826192Y-60525647D01*
X225183738Y-60559418D01*
X225550623Y-60588564D01*
X225911008Y-60612247D01*
X226249051Y-60629627D01*
X226548913Y-60639866D01*
X226794753Y-60642123D01*
X226970730Y-60635561D01*
X227061004Y-60619340D01*
X227061116Y-60599011D01*
X227089916Y-60583644D01*
X227205915Y-60570955D01*
X227381656Y-60561648D01*
X227589680Y-60556428D01*
X227802532Y-60555997D01*
X227992754Y-60561061D01*
X228127975Y-60571663D01*
X228182725Y-60590729D01*
X228147643Y-60642829D01*
X228127975Y-60661740D01*
X228022929Y-60710110D01*
X227825190Y-60756570D01*
X227556731Y-60798391D01*
X227239529Y-60832846D01*
X226895558Y-60857204D01*
X226546794Y-60868738D01*
X226456464Y-60869300D01*
X226046233Y-60857717D01*
X225552150Y-60824898D01*
X225002468Y-60773737D01*
X224425443Y-60707129D01*
X223849326Y-60627969D01*
X223399774Y-60556128D01*
X222801889Y-60457243D01*
X222293863Y-60383352D01*
X221853693Y-60334229D01*
X221459371Y-60309650D01*
X221088893Y-60309391D01*
X220720254Y-60333226D01*
X220331448Y-60380930D01*
X219900470Y-60452280D01*
X219558239Y-60516889D01*
X219128450Y-60601887D01*
X218799032Y-60670347D01*
X218557480Y-60725962D01*
X218391293Y-60772428D01*
X218287967Y-60813439D01*
X218234999Y-60852691D01*
X218219885Y-60893878D01*
X218221666Y-60911866D01*
X218274760Y-60982855D01*
X218404292Y-61100914D01*
X218590197Y-61251174D01*
X218812406Y-61418765D01*
X219050853Y-61588819D01*
X219285470Y-61746467D01*
X219496191Y-61876841D01*
X219605354Y-61937104D01*
X219847381Y-62071800D01*
X220065933Y-62211594D01*
X220246761Y-62344725D01*
X220375619Y-62459433D01*
X220438260Y-62543959D01*
X220420438Y-62586542D01*
X220395569Y-62589390D01*
X220300467Y-62562987D01*
X220128399Y-62491448D01*
X219902109Y-62386276D01*
X219644337Y-62258976D01*
X219377828Y-62121050D01*
X219125324Y-61984002D01*
X218909568Y-61859337D01*
X218753953Y-61759023D01*
X218526237Y-61581318D01*
X218306636Y-61383335D01*
X218113502Y-61184706D01*
X217965192Y-61005061D01*
X217880060Y-60864032D01*
X217866817Y-60810209D01*
X217921734Y-60712160D01*
X218053160Y-60647384D01*
X218297671Y-60579348D01*
X218620573Y-60502792D01*
X218999386Y-60421777D01*
X219411632Y-60340364D01*
X219834830Y-60262615D01*
X220246500Y-60192591D01*
X220624164Y-60134354D01*
X220945341Y-60091964D01*
X221187552Y-60069484D01*
X221265870Y-60066946D01*
X221438082Y-60076200D01*
G37*
D15*
X232255000Y-71195000D02*
X227115000Y-71195000D01*
X232255000Y-71195000D02*
X232255000Y-73855000D01*
X227115000Y-71195000D02*
X227115000Y-73855000D01*
X234855000Y-72525000D02*
X234855000Y-73855000D01*
X234855000Y-73855000D02*
X233525000Y-73855000D01*
X232255000Y-73855000D02*
X227115000Y-73855000D01*
X205690000Y-63330000D02*
X210830000Y-63330000D01*
X205690000Y-63330000D02*
X205690000Y-60670000D01*
X210830000Y-63330000D02*
X210830000Y-60670000D01*
X203090000Y-62000000D02*
X203090000Y-60670000D01*
X203090000Y-60670000D02*
X204420000Y-60670000D01*
X205690000Y-60670000D02*
X210830000Y-60670000D01*
D16*
X174950000Y-87800000D02*
X174950000Y-81200000D01*
X174950000Y-81200000D02*
X187650000Y-81200000D01*
X187650000Y-81200000D02*
X187650000Y-87800000D01*
X187650000Y-87800000D02*
X174950000Y-87800000D01*
D17*
X177260553Y-88800000D02*
G75*
G02*
X176539447Y-88800000I-360553J0D01*
G01*
X176539447Y-88800000D02*
G75*
G02*
X177260553Y-88800000I360553J0D01*
G01*
X177182841Y-88800000D02*
G75*
G02*
X176617159Y-88800000I-282841J0D01*
G01*
X176617159Y-88800000D02*
G75*
G02*
X177182841Y-88800000I282841J0D01*
G01*
X177123606Y-88800000D02*
G75*
G02*
X176676394Y-88800000I-223606J0D01*
G01*
X176676394Y-88800000D02*
G75*
G02*
X177123606Y-88800000I223606J0D01*
G01*
X177041419Y-88800000D02*
G75*
G02*
X176758581Y-88800000I-141419J0D01*
G01*
X176758581Y-88800000D02*
G75*
G02*
X177041419Y-88800000I141419J0D01*
G01*
X177123606Y-88800000D02*
G75*
G02*
X176676394Y-88800000I-223606J0D01*
G01*
X176676394Y-88800000D02*
G75*
G02*
X177123606Y-88800000I223606J0D01*
G01*
X177123606Y-88800000D02*
G75*
G02*
X176676394Y-88800000I-223606J0D01*
G01*
X176676394Y-88800000D02*
G75*
G02*
X177123606Y-88800000I223606J0D01*
G01*
D18*
X164707300Y-70095000D02*
G75*
G02*
X164554900Y-70095000I-76200J0D01*
G01*
X164554900Y-70095000D02*
G75*
G02*
X164707300Y-70095000I76200J0D01*
G01*
X167417200Y-74578100D02*
X171582800Y-74578100D01*
X171582800Y-69421900D02*
X167417200Y-69421900D01*
X226570099Y-74000000D02*
G75*
G02*
X226417699Y-74000000I-76200J0D01*
G01*
X226417699Y-74000000D02*
G75*
G02*
X226570099Y-74000000I76200J0D01*
G01*
X223707799Y-69516900D02*
X219542199Y-69516900D01*
X219542199Y-74673100D02*
X223707799Y-74673100D01*
X208947002Y-87896999D02*
X208947002Y-82592999D01*
X208947002Y-82592999D02*
X188722999Y-82592999D01*
X188722999Y-82592999D02*
X188722999Y-83462119D01*
X188722999Y-87896999D02*
X208947002Y-87896999D01*
X188722999Y-84537881D02*
X188722999Y-87896999D01*
D16*
X176240000Y-79310000D02*
X176240000Y-73230000D01*
X176240000Y-73230000D02*
X186140000Y-73230000D01*
X186140000Y-73230000D02*
X186140000Y-79310000D01*
X186140000Y-79310000D02*
X176240000Y-79310000D01*
D11*
X186600000Y-77540000D02*
X186600000Y-77540000D01*
X186700000Y-77540000D02*
X186700000Y-77540000D01*
X186700000Y-77540000D02*
G75*
G02*
X186600000Y-77540000I-50000J0D01*
G01*
X186600000Y-77540000D02*
G75*
G02*
X186700000Y-77540000I50000J0D01*
G01*
D15*
X197670000Y-76770000D02*
X197670000Y-69090000D01*
X200330000Y-69090000D02*
X197670000Y-69090000D01*
X200330000Y-76770000D02*
X197670000Y-76770000D01*
X200330000Y-76770000D02*
X200330000Y-69090000D01*
X200330000Y-78040000D02*
X200330000Y-79370000D01*
X200330000Y-79370000D02*
X199000000Y-79370000D01*
X181222936Y-66090000D02*
X182677064Y-66090000D01*
X181222936Y-67910000D02*
X182677064Y-67910000D01*
X181222936Y-69590000D02*
X182677064Y-69590000D01*
X181222936Y-71410000D02*
X182677064Y-71410000D01*
X167272936Y-75090000D02*
X168727064Y-75090000D01*
X167272936Y-76910000D02*
X168727064Y-76910000D01*
X223727064Y-68910000D02*
X222272936Y-68910000D01*
X223727064Y-67090000D02*
X222272936Y-67090000D01*
X215410000Y-77290000D02*
X212590000Y-77290000D01*
X215410000Y-77290000D02*
X216710000Y-78990000D01*
X212590000Y-77290000D02*
X211290000Y-78990000D01*
X216710000Y-78990000D02*
X216710000Y-87710000D01*
X211290000Y-78990000D02*
X211290000Y-87710000D01*
X216710000Y-87710000D02*
X211290000Y-87710000D01*
X193690000Y-63330000D02*
X198830000Y-63330000D01*
X193690000Y-63330000D02*
X193690000Y-60670000D01*
X198830000Y-63330000D02*
X198830000Y-60670000D01*
X191090000Y-62000000D02*
X191090000Y-60670000D01*
X191090000Y-60670000D02*
X192420000Y-60670000D01*
X193690000Y-60670000D02*
X198830000Y-60670000D01*
X161230000Y-71195000D02*
X156090000Y-71195000D01*
X161230000Y-71195000D02*
X161230000Y-73855000D01*
X156090000Y-71195000D02*
X156090000Y-73855000D01*
X163830000Y-72525000D02*
X163830000Y-73855000D01*
X163830000Y-73855000D02*
X162500000Y-73855000D01*
X161230000Y-73855000D02*
X156090000Y-73855000D01*
X181690000Y-63330000D02*
X186830000Y-63330000D01*
X181690000Y-63330000D02*
X181690000Y-60670000D01*
X186830000Y-63330000D02*
X186830000Y-60670000D01*
X179090000Y-62000000D02*
X179090000Y-60670000D01*
X179090000Y-60670000D02*
X180420000Y-60670000D01*
X181690000Y-60670000D02*
X186830000Y-60670000D01*
X232020000Y-64645000D02*
X234620000Y-64645000D01*
X229420000Y-64645000D02*
X230750000Y-64645000D01*
X229420000Y-65975000D02*
X229420000Y-64645000D01*
X234620000Y-67305000D02*
X234620000Y-64645000D01*
X232020000Y-67305000D02*
X232020000Y-64645000D01*
X232020000Y-67305000D02*
X234620000Y-67305000D01*
X158770000Y-67330000D02*
X161370000Y-67330000D01*
X158770000Y-67330000D02*
X158770000Y-64670000D01*
X161370000Y-67330000D02*
X161370000Y-64670000D01*
X156170000Y-66000000D02*
X156170000Y-64670000D01*
X156170000Y-64670000D02*
X157500000Y-64670000D01*
X158770000Y-64670000D02*
X161370000Y-64670000D01*
X206385436Y-80090000D02*
X207589564Y-80090000D01*
X206385436Y-81910000D02*
X207589564Y-81910000D01*
X198590000Y-55648752D02*
X198590000Y-54226248D01*
X200410000Y-55648752D02*
X200410000Y-54226248D01*
X202090000Y-55711252D02*
X202090000Y-54288748D01*
X203910000Y-55711252D02*
X203910000Y-54288748D01*
X205590000Y-55773752D02*
X205590000Y-54351248D01*
X207410000Y-55773752D02*
X207410000Y-54351248D01*
X209090000Y-55773752D02*
X209090000Y-54351248D01*
X210910000Y-55773752D02*
X210910000Y-54351248D01*
X206288748Y-77590000D02*
X207711252Y-77590000D01*
X206288748Y-79410000D02*
X207711252Y-79410000D01*
X173560000Y-107140000D02*
X176230000Y-107140000D01*
X178770000Y-107140000D02*
X217000000Y-107140000D01*
X217000000Y-107140000D02*
X217000000Y-102060000D01*
X176230000Y-104470000D02*
X176230000Y-107140000D01*
X178770000Y-104470000D02*
X178770000Y-107140000D01*
X178770000Y-104470000D02*
X176230000Y-104470000D01*
X178770000Y-104470000D02*
X214330000Y-104470000D01*
X214330000Y-104470000D02*
X214330000Y-107140000D01*
X209120000Y-102060000D02*
X209120000Y-94180000D01*
X219540000Y-102060000D02*
X209120000Y-102060000D01*
X209120000Y-94180000D02*
X219540000Y-94180000D01*
X219540000Y-94180000D02*
X219540000Y-102060000D01*
X176230000Y-91770000D02*
X214330000Y-91770000D01*
X176230000Y-91770000D02*
X176230000Y-89100000D01*
X214330000Y-91770000D02*
X214330000Y-89100000D01*
X173560000Y-89100000D02*
X173560000Y-107140000D01*
X217000000Y-89100000D02*
X217000000Y-94180000D01*
X217000000Y-89100000D02*
X173560000Y-89100000D01*
%LPC*%
D14*
G36*
X170757300Y-71012600D02*
G01*
X168242700Y-71012600D01*
X168242700Y-70387100D01*
X170757300Y-70387100D01*
X170757300Y-71012600D01*
G37*
G36*
X170757300Y-71800000D02*
G01*
X168242700Y-71800000D01*
X168242700Y-71412600D01*
X170757300Y-71412600D01*
X170757300Y-71800000D01*
G37*
G36*
X170757300Y-72587400D02*
G01*
X168242700Y-72587400D01*
X168242700Y-72200000D01*
X170757300Y-72200000D01*
X170757300Y-72587400D01*
G37*
G36*
X170757300Y-73612900D02*
G01*
X168242700Y-73612900D01*
X168242700Y-72987400D01*
X170757300Y-72987400D01*
X170757300Y-73612900D01*
G37*
G36*
X168512600Y-73612900D02*
G01*
X168242700Y-73612900D01*
X168242700Y-70387100D01*
X168512600Y-70387100D01*
X168512600Y-73612900D01*
G37*
G36*
X169300000Y-73612900D02*
G01*
X168912600Y-73612900D01*
X168912600Y-70387100D01*
X169300000Y-70387100D01*
X169300000Y-73612900D01*
G37*
G36*
X170087400Y-73612900D02*
G01*
X169700000Y-73612900D01*
X169700000Y-70387100D01*
X170087400Y-70387100D01*
X170087400Y-73612900D01*
G37*
G36*
X170757300Y-73612900D02*
G01*
X170487400Y-73612900D01*
X170487400Y-70387100D01*
X170757300Y-70387100D01*
X170757300Y-73612900D01*
G37*
G36*
X222882299Y-73707900D02*
G01*
X220367699Y-73707900D01*
X220367699Y-73082400D01*
X222882299Y-73082400D01*
X222882299Y-73707900D01*
G37*
G36*
X222882299Y-72682400D02*
G01*
X220367699Y-72682400D01*
X220367699Y-72295000D01*
X222882299Y-72295000D01*
X222882299Y-72682400D01*
G37*
G36*
X222882299Y-71895000D02*
G01*
X220367699Y-71895000D01*
X220367699Y-71507600D01*
X222882299Y-71507600D01*
X222882299Y-71895000D01*
G37*
G36*
X222882299Y-71107600D02*
G01*
X220367699Y-71107600D01*
X220367699Y-70482100D01*
X222882299Y-70482100D01*
X222882299Y-71107600D01*
G37*
G36*
X222882299Y-73707900D02*
G01*
X222612399Y-73707900D01*
X222612399Y-70482100D01*
X222882299Y-70482100D01*
X222882299Y-73707900D01*
G37*
G36*
X222212399Y-73707900D02*
G01*
X221824999Y-73707900D01*
X221824999Y-70482100D01*
X222212399Y-70482100D01*
X222212399Y-73707900D01*
G37*
G36*
X221424999Y-73707900D02*
G01*
X221037599Y-73707900D01*
X221037599Y-70482100D01*
X221424999Y-70482100D01*
X221424999Y-73707900D01*
G37*
G36*
X220637599Y-73707900D02*
G01*
X220367699Y-73707900D01*
X220367699Y-70482100D01*
X220637599Y-70482100D01*
X220637599Y-73707900D01*
G37*
D19*
X237500000Y-53000000D03*
X153500000Y-53000000D03*
D20*
X233525000Y-72525000D03*
D21*
X230985000Y-72525000D03*
X228445000Y-72525000D03*
D20*
X204420000Y-62000000D03*
D21*
X206960000Y-62000000D03*
X209500000Y-62000000D03*
D22*
X176600000Y-84500000D03*
D23*
X181300000Y-84500000D03*
X186000000Y-84500000D03*
D24*
X166624999Y-70095000D03*
X166624999Y-71365000D03*
X166624999Y-72635000D03*
X166624999Y-73905000D03*
X172375001Y-73905000D03*
X172375001Y-72635000D03*
X172375001Y-71365000D03*
X172375001Y-70095000D03*
X224500000Y-74000000D03*
X224500000Y-72730000D03*
X224500000Y-71460000D03*
X224500000Y-70190000D03*
X218749998Y-70190000D03*
X218749998Y-71460000D03*
X218749998Y-72730000D03*
X218749998Y-74000000D03*
D25*
X207500000Y-84000000D03*
X199880000Y-84000000D03*
X192260000Y-84000000D03*
X189720000Y-84000000D03*
D26*
X185000000Y-77540000D03*
D27*
X185000000Y-75000000D03*
X177380000Y-75000000D03*
X177380000Y-77540000D03*
D21*
X199000000Y-70420000D03*
X199000000Y-72960000D03*
X199000000Y-75500000D03*
D20*
X199000000Y-78040000D03*
D28*
X180400000Y-67000000D03*
X183500000Y-67000000D03*
X180400000Y-70500000D03*
X183500000Y-70500000D03*
X166450000Y-76000000D03*
X169550000Y-76000000D03*
D29*
X224550000Y-68000000D03*
X221450000Y-68000000D03*
D30*
X214000000Y-80000000D03*
D31*
X214000000Y-85000000D03*
D20*
X192420000Y-62000000D03*
D21*
X194960000Y-62000000D03*
X197500000Y-62000000D03*
D20*
X162500000Y-72525000D03*
D21*
X159960000Y-72525000D03*
X157420000Y-72525000D03*
D20*
X180420000Y-62000000D03*
D21*
X182960000Y-62000000D03*
X185500000Y-62000000D03*
X233290000Y-65975000D03*
D20*
X230750000Y-65975000D03*
X157500000Y-66000000D03*
D21*
X160040000Y-66000000D03*
D32*
X205500000Y-81000000D03*
X208475000Y-81000000D03*
D33*
X199500000Y-56500000D03*
X199500000Y-53375000D03*
X203000000Y-56562500D03*
X203000000Y-53437500D03*
X206500000Y-56625000D03*
X206500000Y-53500000D03*
X210000000Y-56625000D03*
X210000000Y-53500000D03*
D34*
X205437500Y-78500000D03*
X208562500Y-78500000D03*
D35*
X177500000Y-105740000D03*
D36*
X180040000Y-105740000D03*
X182580000Y-105740000D03*
X185120000Y-105740000D03*
X187660000Y-105740000D03*
X190200000Y-105740000D03*
X192740000Y-105740000D03*
X195280000Y-105740000D03*
X197820000Y-105740000D03*
X200360000Y-105740000D03*
X202900000Y-105740000D03*
X205440000Y-105740000D03*
X207980000Y-105740000D03*
X210520000Y-105740000D03*
X213060000Y-105740000D03*
X213060000Y-90500000D03*
X210520000Y-90500000D03*
X207980000Y-90500000D03*
X205440000Y-90500000D03*
X202900000Y-90500000D03*
X200360000Y-90500000D03*
X197820000Y-90500000D03*
X195280000Y-90500000D03*
X192740000Y-90500000D03*
X190200000Y-90500000D03*
X187660000Y-90500000D03*
X185120000Y-90500000D03*
X182580000Y-90500000D03*
X180040000Y-90500000D03*
X177500000Y-90500000D03*
%LPD*%
M02*
