G04 #@! TF.GenerationSoftware,KiCad,Pcbnew,8.0.4*
G04 #@! TF.CreationDate,2025-03-28T18:04:35-04:00*
G04 #@! TF.ProjectId,ballsi,62616c6c-7369-42e6-9b69-6361645f7063,rev?*
G04 #@! TF.SameCoordinates,Original*
G04 #@! TF.FileFunction,Legend,Bot*
G04 #@! TF.FilePolarity,Positive*
%FSLAX46Y46*%
G04 Gerber Fmt 4.6, Leading zero omitted, Abs format (unit mm)*
G04 Created by KiCad (PCBNEW 8.0.4) date 2025-03-28 18:04:35*
%MOMM*%
%LPD*%
G01*
G04 APERTURE LIST*
G04 Aperture macros list*
%AMRoundRect*
0 Rectangle with rounded corners*
0 $1 Rounding radius*
0 $2 $3 $4 $5 $6 $7 $8 $9 X,Y pos of 4 corners*
0 Add a 4 corners polygon primitive as box body*
4,1,4,$2,$3,$4,$5,$6,$7,$8,$9,$2,$3,0*
0 Add four circle primitives for the rounded corners*
1,1,$1+$1,$2,$3*
1,1,$1+$1,$4,$5*
1,1,$1+$1,$6,$7*
1,1,$1+$1,$8,$9*
0 Add four rect primitives between the rounded corners*
20,1,$1+$1,$2,$3,$4,$5,0*
20,1,$1+$1,$4,$5,$6,$7,0*
20,1,$1+$1,$6,$7,$8,$9,0*
20,1,$1+$1,$8,$9,$2,$3,0*%
G04 Aperture macros list end*
%ADD10C,0.100000*%
%ADD11C,3.200000*%
%ADD12R,1.700000X1.700000*%
%ADD13O,1.700000X1.700000*%
%ADD14RoundRect,0.102000X1.225000X-1.225000X1.225000X1.225000X-1.225000X1.225000X-1.225000X-1.225000X0*%
%ADD15C,2.654000*%
%ADD16C,1.600200*%
%ADD17R,1.300000X1.300000*%
%ADD18C,1.300000*%
%ADD19R,3.800000X3.800000*%
%ADD20C,4.000000*%
%ADD21R,1.600000X1.600000*%
%ADD22O,1.600000X1.600000*%
G04 APERTURE END LIST*
D10*
X217500000Y-76000000D02*
X236500000Y-76000000D01*
X173500000Y-76000000D02*
X154500000Y-76000000D01*
X217500000Y-76000000D02*
X217500000Y-79000000D01*
X173500000Y-76000000D02*
X173500000Y-79000000D01*
X166500000Y-50000000D02*
X154500000Y-62000000D01*
X224500000Y-50000000D02*
X236500000Y-62000000D01*
X236500000Y-62000000D02*
X236500000Y-76000000D01*
X154500000Y-62000000D02*
X154500000Y-76000000D01*
%LPC*%
D11*
X237500000Y-53000000D03*
X153500000Y-53000000D03*
D12*
X233525000Y-72525000D03*
D13*
X230985000Y-72525000D03*
X228445000Y-72525000D03*
D12*
X204420000Y-62000000D03*
D13*
X206960000Y-62000000D03*
X209500000Y-62000000D03*
D14*
X176600000Y-84500000D03*
D15*
X181300000Y-84500000D03*
X186000000Y-84500000D03*
D16*
X207500000Y-84000000D03*
X199880000Y-84000000D03*
X192260000Y-84000000D03*
X189720000Y-84000000D03*
D17*
X185000000Y-77540000D03*
D18*
X185000000Y-75000000D03*
X177380000Y-75000000D03*
X177380000Y-77540000D03*
D13*
X199000000Y-70420000D03*
X199000000Y-72960000D03*
X199000000Y-75500000D03*
D12*
X199000000Y-78040000D03*
D19*
X214000000Y-80000000D03*
D20*
X214000000Y-85000000D03*
D12*
X192420000Y-62000000D03*
D13*
X194960000Y-62000000D03*
X197500000Y-62000000D03*
D12*
X162500000Y-72525000D03*
D13*
X159960000Y-72525000D03*
X157420000Y-72525000D03*
D12*
X180420000Y-62000000D03*
D13*
X182960000Y-62000000D03*
X185500000Y-62000000D03*
X233290000Y-65975000D03*
D12*
X230750000Y-65975000D03*
X157500000Y-66000000D03*
D13*
X160040000Y-66000000D03*
D21*
X177500000Y-105740000D03*
D22*
X180040000Y-105740000D03*
X182580000Y-105740000D03*
X185120000Y-105740000D03*
X187660000Y-105740000D03*
X190200000Y-105740000D03*
X192740000Y-105740000D03*
X195280000Y-105740000D03*
X197820000Y-105740000D03*
X200360000Y-105740000D03*
X202900000Y-105740000D03*
X205440000Y-105740000D03*
X207980000Y-105740000D03*
X210520000Y-105740000D03*
X213060000Y-105740000D03*
X213060000Y-90500000D03*
X210520000Y-90500000D03*
X207980000Y-90500000D03*
X205440000Y-90500000D03*
X202900000Y-90500000D03*
X200360000Y-90500000D03*
X197820000Y-90500000D03*
X195280000Y-90500000D03*
X192740000Y-90500000D03*
X190200000Y-90500000D03*
X187660000Y-90500000D03*
X185120000Y-90500000D03*
X182580000Y-90500000D03*
X180040000Y-90500000D03*
X177500000Y-90500000D03*
%LPD*%
M02*
