%TF.GenerationSoftware,KiCad,Pcbnew,8.0.4*%
%TF.CreationDate,2025-03-28T18:08:09-04:00*%
%TF.ProjectId,ballsi,62616c6c-7369-42e6-9b69-6361645f7063,rev?*%
%TF.SameCoordinates,Original*%
%TF.FileFunction,Drillmap*%
%TF.FilePolarity,Positive*%
%FSLAX45Y45*%
G04 Gerber Fmt 4.5, Leading zero omitted, Abs format (unit mm)*
G04 Created by KiCad (PCBNEW 8.0.4) date 2025-03-28 18:08:09*
%MOMM*%
%LPD*%
G01*
G04 APERTURE LIST*
%ADD10C,0.050000*%
%ADD11C,0.200000*%
%ADD12C,0.320000*%
G04 APERTURE END LIST*
D10*
X15050000Y-7900000D02*
X15050000Y-5000000D01*
X17350000Y-7900000D02*
X15050000Y-7900000D01*
X17350000Y-10900000D02*
X17350000Y-7900000D01*
X21750000Y-10900000D02*
X17350000Y-10900000D01*
X21750000Y-7900000D02*
X21750000Y-10900000D01*
X24050000Y-7900000D02*
X21750000Y-7900000D01*
X24050000Y-5000000D02*
X24050000Y-7900000D01*
X15050000Y-5000000D02*
X24050000Y-5000000D01*
D11*
D12*
X15190000Y-5140000D02*
X15510000Y-5460000D01*
X15510000Y-5140000D02*
X15190000Y-5460000D01*
X23590000Y-5140000D02*
X23910000Y-5460000D01*
X23910000Y-5140000D02*
X23590000Y-5460000D01*
D11*
X15308277Y-11213984D02*
X15308277Y-11013984D01*
X15308277Y-11013984D02*
X15355896Y-11013984D01*
X15355896Y-11013984D02*
X15384467Y-11023508D01*
X15384467Y-11023508D02*
X15403515Y-11042555D01*
X15403515Y-11042555D02*
X15413039Y-11061603D01*
X15413039Y-11061603D02*
X15422562Y-11099698D01*
X15422562Y-11099698D02*
X15422562Y-11128270D01*
X15422562Y-11128270D02*
X15413039Y-11166365D01*
X15413039Y-11166365D02*
X15403515Y-11185412D01*
X15403515Y-11185412D02*
X15384467Y-11204460D01*
X15384467Y-11204460D02*
X15355896Y-11213984D01*
X15355896Y-11213984D02*
X15308277Y-11213984D01*
X15508277Y-11213984D02*
X15508277Y-11080650D01*
X15508277Y-11118746D02*
X15517801Y-11099698D01*
X15517801Y-11099698D02*
X15527324Y-11090174D01*
X15527324Y-11090174D02*
X15546372Y-11080650D01*
X15546372Y-11080650D02*
X15565420Y-11080650D01*
X15632086Y-11213984D02*
X15632086Y-11080650D01*
X15632086Y-11013984D02*
X15622562Y-11023508D01*
X15622562Y-11023508D02*
X15632086Y-11033031D01*
X15632086Y-11033031D02*
X15641610Y-11023508D01*
X15641610Y-11023508D02*
X15632086Y-11013984D01*
X15632086Y-11013984D02*
X15632086Y-11033031D01*
X15755896Y-11213984D02*
X15736848Y-11204460D01*
X15736848Y-11204460D02*
X15727324Y-11185412D01*
X15727324Y-11185412D02*
X15727324Y-11013984D01*
X15860658Y-11213984D02*
X15841610Y-11204460D01*
X15841610Y-11204460D02*
X15832086Y-11185412D01*
X15832086Y-11185412D02*
X15832086Y-11013984D01*
X16089229Y-11213984D02*
X16089229Y-11013984D01*
X16089229Y-11013984D02*
X16155896Y-11156841D01*
X16155896Y-11156841D02*
X16222562Y-11013984D01*
X16222562Y-11013984D02*
X16222562Y-11213984D01*
X16403515Y-11213984D02*
X16403515Y-11109222D01*
X16403515Y-11109222D02*
X16393991Y-11090174D01*
X16393991Y-11090174D02*
X16374943Y-11080650D01*
X16374943Y-11080650D02*
X16336848Y-11080650D01*
X16336848Y-11080650D02*
X16317801Y-11090174D01*
X16403515Y-11204460D02*
X16384467Y-11213984D01*
X16384467Y-11213984D02*
X16336848Y-11213984D01*
X16336848Y-11213984D02*
X16317801Y-11204460D01*
X16317801Y-11204460D02*
X16308277Y-11185412D01*
X16308277Y-11185412D02*
X16308277Y-11166365D01*
X16308277Y-11166365D02*
X16317801Y-11147317D01*
X16317801Y-11147317D02*
X16336848Y-11137793D01*
X16336848Y-11137793D02*
X16384467Y-11137793D01*
X16384467Y-11137793D02*
X16403515Y-11128270D01*
X16498753Y-11080650D02*
X16498753Y-11280650D01*
X16498753Y-11090174D02*
X16517801Y-11080650D01*
X16517801Y-11080650D02*
X16555896Y-11080650D01*
X16555896Y-11080650D02*
X16574943Y-11090174D01*
X16574943Y-11090174D02*
X16584467Y-11099698D01*
X16584467Y-11099698D02*
X16593991Y-11118746D01*
X16593991Y-11118746D02*
X16593991Y-11175889D01*
X16593991Y-11175889D02*
X16584467Y-11194936D01*
X16584467Y-11194936D02*
X16574943Y-11204460D01*
X16574943Y-11204460D02*
X16555896Y-11213984D01*
X16555896Y-11213984D02*
X16517801Y-11213984D01*
X16517801Y-11213984D02*
X16498753Y-11204460D01*
X16679705Y-11194936D02*
X16689229Y-11204460D01*
X16689229Y-11204460D02*
X16679705Y-11213984D01*
X16679705Y-11213984D02*
X16670182Y-11204460D01*
X16670182Y-11204460D02*
X16679705Y-11194936D01*
X16679705Y-11194936D02*
X16679705Y-11213984D01*
X16679705Y-11090174D02*
X16689229Y-11099698D01*
X16689229Y-11099698D02*
X16679705Y-11109222D01*
X16679705Y-11109222D02*
X16670182Y-11099698D01*
X16670182Y-11099698D02*
X16679705Y-11090174D01*
X16679705Y-11090174D02*
X16679705Y-11109222D01*
X14847500Y-11442500D02*
X15047500Y-11642500D01*
X15047500Y-11442500D02*
X14847500Y-11642500D01*
X15289229Y-11433984D02*
X15413039Y-11433984D01*
X15413039Y-11433984D02*
X15346372Y-11510174D01*
X15346372Y-11510174D02*
X15374943Y-11510174D01*
X15374943Y-11510174D02*
X15393991Y-11519698D01*
X15393991Y-11519698D02*
X15403515Y-11529222D01*
X15403515Y-11529222D02*
X15413039Y-11548269D01*
X15413039Y-11548269D02*
X15413039Y-11595888D01*
X15413039Y-11595888D02*
X15403515Y-11614936D01*
X15403515Y-11614936D02*
X15393991Y-11624460D01*
X15393991Y-11624460D02*
X15374943Y-11633984D01*
X15374943Y-11633984D02*
X15317801Y-11633984D01*
X15317801Y-11633984D02*
X15298753Y-11624460D01*
X15298753Y-11624460D02*
X15289229Y-11614936D01*
X15498753Y-11614936D02*
X15508277Y-11624460D01*
X15508277Y-11624460D02*
X15498753Y-11633984D01*
X15498753Y-11633984D02*
X15489229Y-11624460D01*
X15489229Y-11624460D02*
X15498753Y-11614936D01*
X15498753Y-11614936D02*
X15498753Y-11633984D01*
X15584467Y-11453031D02*
X15593991Y-11443508D01*
X15593991Y-11443508D02*
X15613039Y-11433984D01*
X15613039Y-11433984D02*
X15660658Y-11433984D01*
X15660658Y-11433984D02*
X15679705Y-11443508D01*
X15679705Y-11443508D02*
X15689229Y-11453031D01*
X15689229Y-11453031D02*
X15698753Y-11472079D01*
X15698753Y-11472079D02*
X15698753Y-11491127D01*
X15698753Y-11491127D02*
X15689229Y-11519698D01*
X15689229Y-11519698D02*
X15574943Y-11633984D01*
X15574943Y-11633984D02*
X15698753Y-11633984D01*
X15822562Y-11433984D02*
X15841610Y-11433984D01*
X15841610Y-11433984D02*
X15860658Y-11443508D01*
X15860658Y-11443508D02*
X15870182Y-11453031D01*
X15870182Y-11453031D02*
X15879705Y-11472079D01*
X15879705Y-11472079D02*
X15889229Y-11510174D01*
X15889229Y-11510174D02*
X15889229Y-11557793D01*
X15889229Y-11557793D02*
X15879705Y-11595888D01*
X15879705Y-11595888D02*
X15870182Y-11614936D01*
X15870182Y-11614936D02*
X15860658Y-11624460D01*
X15860658Y-11624460D02*
X15841610Y-11633984D01*
X15841610Y-11633984D02*
X15822562Y-11633984D01*
X15822562Y-11633984D02*
X15803515Y-11624460D01*
X15803515Y-11624460D02*
X15793991Y-11614936D01*
X15793991Y-11614936D02*
X15784467Y-11595888D01*
X15784467Y-11595888D02*
X15774943Y-11557793D01*
X15774943Y-11557793D02*
X15774943Y-11510174D01*
X15774943Y-11510174D02*
X15784467Y-11472079D01*
X15784467Y-11472079D02*
X15793991Y-11453031D01*
X15793991Y-11453031D02*
X15803515Y-11443508D01*
X15803515Y-11443508D02*
X15822562Y-11433984D01*
X16013039Y-11433984D02*
X16032086Y-11433984D01*
X16032086Y-11433984D02*
X16051134Y-11443508D01*
X16051134Y-11443508D02*
X16060658Y-11453031D01*
X16060658Y-11453031D02*
X16070182Y-11472079D01*
X16070182Y-11472079D02*
X16079705Y-11510174D01*
X16079705Y-11510174D02*
X16079705Y-11557793D01*
X16079705Y-11557793D02*
X16070182Y-11595888D01*
X16070182Y-11595888D02*
X16060658Y-11614936D01*
X16060658Y-11614936D02*
X16051134Y-11624460D01*
X16051134Y-11624460D02*
X16032086Y-11633984D01*
X16032086Y-11633984D02*
X16013039Y-11633984D01*
X16013039Y-11633984D02*
X15993991Y-11624460D01*
X15993991Y-11624460D02*
X15984467Y-11614936D01*
X15984467Y-11614936D02*
X15974943Y-11595888D01*
X15974943Y-11595888D02*
X15965420Y-11557793D01*
X15965420Y-11557793D02*
X15965420Y-11510174D01*
X15965420Y-11510174D02*
X15974943Y-11472079D01*
X15974943Y-11472079D02*
X15984467Y-11453031D01*
X15984467Y-11453031D02*
X15993991Y-11443508D01*
X15993991Y-11443508D02*
X16013039Y-11433984D01*
X16165420Y-11633984D02*
X16165420Y-11500650D01*
X16165420Y-11519698D02*
X16174943Y-11510174D01*
X16174943Y-11510174D02*
X16193991Y-11500650D01*
X16193991Y-11500650D02*
X16222563Y-11500650D01*
X16222563Y-11500650D02*
X16241610Y-11510174D01*
X16241610Y-11510174D02*
X16251134Y-11529222D01*
X16251134Y-11529222D02*
X16251134Y-11633984D01*
X16251134Y-11529222D02*
X16260658Y-11510174D01*
X16260658Y-11510174D02*
X16279705Y-11500650D01*
X16279705Y-11500650D02*
X16308277Y-11500650D01*
X16308277Y-11500650D02*
X16327324Y-11510174D01*
X16327324Y-11510174D02*
X16336848Y-11529222D01*
X16336848Y-11529222D02*
X16336848Y-11633984D01*
X16432086Y-11633984D02*
X16432086Y-11500650D01*
X16432086Y-11519698D02*
X16441610Y-11510174D01*
X16441610Y-11510174D02*
X16460658Y-11500650D01*
X16460658Y-11500650D02*
X16489229Y-11500650D01*
X16489229Y-11500650D02*
X16508277Y-11510174D01*
X16508277Y-11510174D02*
X16517801Y-11529222D01*
X16517801Y-11529222D02*
X16517801Y-11633984D01*
X16517801Y-11529222D02*
X16527324Y-11510174D01*
X16527324Y-11510174D02*
X16546372Y-11500650D01*
X16546372Y-11500650D02*
X16574943Y-11500650D01*
X16574943Y-11500650D02*
X16593991Y-11510174D01*
X16593991Y-11510174D02*
X16603515Y-11529222D01*
X16603515Y-11529222D02*
X16603515Y-11633984D01*
X16993991Y-11424460D02*
X16822563Y-11681603D01*
X17251134Y-11433984D02*
X17270182Y-11433984D01*
X17270182Y-11433984D02*
X17289229Y-11443508D01*
X17289229Y-11443508D02*
X17298753Y-11453031D01*
X17298753Y-11453031D02*
X17308277Y-11472079D01*
X17308277Y-11472079D02*
X17317801Y-11510174D01*
X17317801Y-11510174D02*
X17317801Y-11557793D01*
X17317801Y-11557793D02*
X17308277Y-11595888D01*
X17308277Y-11595888D02*
X17298753Y-11614936D01*
X17298753Y-11614936D02*
X17289229Y-11624460D01*
X17289229Y-11624460D02*
X17270182Y-11633984D01*
X17270182Y-11633984D02*
X17251134Y-11633984D01*
X17251134Y-11633984D02*
X17232087Y-11624460D01*
X17232087Y-11624460D02*
X17222563Y-11614936D01*
X17222563Y-11614936D02*
X17213039Y-11595888D01*
X17213039Y-11595888D02*
X17203515Y-11557793D01*
X17203515Y-11557793D02*
X17203515Y-11510174D01*
X17203515Y-11510174D02*
X17213039Y-11472079D01*
X17213039Y-11472079D02*
X17222563Y-11453031D01*
X17222563Y-11453031D02*
X17232087Y-11443508D01*
X17232087Y-11443508D02*
X17251134Y-11433984D01*
X17403515Y-11614936D02*
X17413039Y-11624460D01*
X17413039Y-11624460D02*
X17403515Y-11633984D01*
X17403515Y-11633984D02*
X17393991Y-11624460D01*
X17393991Y-11624460D02*
X17403515Y-11614936D01*
X17403515Y-11614936D02*
X17403515Y-11633984D01*
X17603515Y-11633984D02*
X17489229Y-11633984D01*
X17546372Y-11633984D02*
X17546372Y-11433984D01*
X17546372Y-11433984D02*
X17527325Y-11462555D01*
X17527325Y-11462555D02*
X17508277Y-11481603D01*
X17508277Y-11481603D02*
X17489229Y-11491127D01*
X17679706Y-11453031D02*
X17689229Y-11443508D01*
X17689229Y-11443508D02*
X17708277Y-11433984D01*
X17708277Y-11433984D02*
X17755896Y-11433984D01*
X17755896Y-11433984D02*
X17774944Y-11443508D01*
X17774944Y-11443508D02*
X17784468Y-11453031D01*
X17784468Y-11453031D02*
X17793991Y-11472079D01*
X17793991Y-11472079D02*
X17793991Y-11491127D01*
X17793991Y-11491127D02*
X17784468Y-11519698D01*
X17784468Y-11519698D02*
X17670182Y-11633984D01*
X17670182Y-11633984D02*
X17793991Y-11633984D01*
X17965420Y-11433984D02*
X17927325Y-11433984D01*
X17927325Y-11433984D02*
X17908277Y-11443508D01*
X17908277Y-11443508D02*
X17898753Y-11453031D01*
X17898753Y-11453031D02*
X17879706Y-11481603D01*
X17879706Y-11481603D02*
X17870182Y-11519698D01*
X17870182Y-11519698D02*
X17870182Y-11595888D01*
X17870182Y-11595888D02*
X17879706Y-11614936D01*
X17879706Y-11614936D02*
X17889229Y-11624460D01*
X17889229Y-11624460D02*
X17908277Y-11633984D01*
X17908277Y-11633984D02*
X17946372Y-11633984D01*
X17946372Y-11633984D02*
X17965420Y-11624460D01*
X17965420Y-11624460D02*
X17974944Y-11614936D01*
X17974944Y-11614936D02*
X17984468Y-11595888D01*
X17984468Y-11595888D02*
X17984468Y-11548269D01*
X17984468Y-11548269D02*
X17974944Y-11529222D01*
X17974944Y-11529222D02*
X17965420Y-11519698D01*
X17965420Y-11519698D02*
X17946372Y-11510174D01*
X17946372Y-11510174D02*
X17908277Y-11510174D01*
X17908277Y-11510174D02*
X17889229Y-11519698D01*
X17889229Y-11519698D02*
X17879706Y-11529222D01*
X17879706Y-11529222D02*
X17870182Y-11548269D01*
X18108277Y-11433984D02*
X18127325Y-11433984D01*
X18127325Y-11433984D02*
X18146372Y-11443508D01*
X18146372Y-11443508D02*
X18155896Y-11453031D01*
X18155896Y-11453031D02*
X18165420Y-11472079D01*
X18165420Y-11472079D02*
X18174944Y-11510174D01*
X18174944Y-11510174D02*
X18174944Y-11557793D01*
X18174944Y-11557793D02*
X18165420Y-11595888D01*
X18165420Y-11595888D02*
X18155896Y-11614936D01*
X18155896Y-11614936D02*
X18146372Y-11624460D01*
X18146372Y-11624460D02*
X18127325Y-11633984D01*
X18127325Y-11633984D02*
X18108277Y-11633984D01*
X18108277Y-11633984D02*
X18089229Y-11624460D01*
X18089229Y-11624460D02*
X18079706Y-11614936D01*
X18079706Y-11614936D02*
X18070182Y-11595888D01*
X18070182Y-11595888D02*
X18060658Y-11557793D01*
X18060658Y-11557793D02*
X18060658Y-11510174D01*
X18060658Y-11510174D02*
X18070182Y-11472079D01*
X18070182Y-11472079D02*
X18079706Y-11453031D01*
X18079706Y-11453031D02*
X18089229Y-11443508D01*
X18089229Y-11443508D02*
X18108277Y-11433984D01*
X18251134Y-11433984D02*
X18251134Y-11472079D01*
X18327325Y-11433984D02*
X18327325Y-11472079D01*
X18622563Y-11710174D02*
X18613039Y-11700650D01*
X18613039Y-11700650D02*
X18593991Y-11672079D01*
X18593991Y-11672079D02*
X18584468Y-11653031D01*
X18584468Y-11653031D02*
X18574944Y-11624460D01*
X18574944Y-11624460D02*
X18565420Y-11576841D01*
X18565420Y-11576841D02*
X18565420Y-11538746D01*
X18565420Y-11538746D02*
X18574944Y-11491127D01*
X18574944Y-11491127D02*
X18584468Y-11462555D01*
X18584468Y-11462555D02*
X18593991Y-11443508D01*
X18593991Y-11443508D02*
X18613039Y-11414936D01*
X18613039Y-11414936D02*
X18622563Y-11405412D01*
X18689230Y-11453031D02*
X18698753Y-11443508D01*
X18698753Y-11443508D02*
X18717801Y-11433984D01*
X18717801Y-11433984D02*
X18765420Y-11433984D01*
X18765420Y-11433984D02*
X18784468Y-11443508D01*
X18784468Y-11443508D02*
X18793991Y-11453031D01*
X18793991Y-11453031D02*
X18803515Y-11472079D01*
X18803515Y-11472079D02*
X18803515Y-11491127D01*
X18803515Y-11491127D02*
X18793991Y-11519698D01*
X18793991Y-11519698D02*
X18679706Y-11633984D01*
X18679706Y-11633984D02*
X18803515Y-11633984D01*
X19041611Y-11633984D02*
X19041611Y-11433984D01*
X19127325Y-11633984D02*
X19127325Y-11529222D01*
X19127325Y-11529222D02*
X19117801Y-11510174D01*
X19117801Y-11510174D02*
X19098753Y-11500650D01*
X19098753Y-11500650D02*
X19070182Y-11500650D01*
X19070182Y-11500650D02*
X19051134Y-11510174D01*
X19051134Y-11510174D02*
X19041611Y-11519698D01*
X19251134Y-11633984D02*
X19232087Y-11624460D01*
X19232087Y-11624460D02*
X19222563Y-11614936D01*
X19222563Y-11614936D02*
X19213039Y-11595888D01*
X19213039Y-11595888D02*
X19213039Y-11538746D01*
X19213039Y-11538746D02*
X19222563Y-11519698D01*
X19222563Y-11519698D02*
X19232087Y-11510174D01*
X19232087Y-11510174D02*
X19251134Y-11500650D01*
X19251134Y-11500650D02*
X19279706Y-11500650D01*
X19279706Y-11500650D02*
X19298753Y-11510174D01*
X19298753Y-11510174D02*
X19308277Y-11519698D01*
X19308277Y-11519698D02*
X19317801Y-11538746D01*
X19317801Y-11538746D02*
X19317801Y-11595888D01*
X19317801Y-11595888D02*
X19308277Y-11614936D01*
X19308277Y-11614936D02*
X19298753Y-11624460D01*
X19298753Y-11624460D02*
X19279706Y-11633984D01*
X19279706Y-11633984D02*
X19251134Y-11633984D01*
X19432087Y-11633984D02*
X19413039Y-11624460D01*
X19413039Y-11624460D02*
X19403515Y-11605412D01*
X19403515Y-11605412D02*
X19403515Y-11433984D01*
X19584468Y-11624460D02*
X19565420Y-11633984D01*
X19565420Y-11633984D02*
X19527325Y-11633984D01*
X19527325Y-11633984D02*
X19508277Y-11624460D01*
X19508277Y-11624460D02*
X19498753Y-11605412D01*
X19498753Y-11605412D02*
X19498753Y-11529222D01*
X19498753Y-11529222D02*
X19508277Y-11510174D01*
X19508277Y-11510174D02*
X19527325Y-11500650D01*
X19527325Y-11500650D02*
X19565420Y-11500650D01*
X19565420Y-11500650D02*
X19584468Y-11510174D01*
X19584468Y-11510174D02*
X19593992Y-11529222D01*
X19593992Y-11529222D02*
X19593992Y-11548269D01*
X19593992Y-11548269D02*
X19498753Y-11567317D01*
X19670182Y-11624460D02*
X19689230Y-11633984D01*
X19689230Y-11633984D02*
X19727325Y-11633984D01*
X19727325Y-11633984D02*
X19746373Y-11624460D01*
X19746373Y-11624460D02*
X19755896Y-11605412D01*
X19755896Y-11605412D02*
X19755896Y-11595888D01*
X19755896Y-11595888D02*
X19746373Y-11576841D01*
X19746373Y-11576841D02*
X19727325Y-11567317D01*
X19727325Y-11567317D02*
X19698753Y-11567317D01*
X19698753Y-11567317D02*
X19679706Y-11557793D01*
X19679706Y-11557793D02*
X19670182Y-11538746D01*
X19670182Y-11538746D02*
X19670182Y-11529222D01*
X19670182Y-11529222D02*
X19679706Y-11510174D01*
X19679706Y-11510174D02*
X19698753Y-11500650D01*
X19698753Y-11500650D02*
X19727325Y-11500650D01*
X19727325Y-11500650D02*
X19746373Y-11510174D01*
X19822563Y-11710174D02*
X19832087Y-11700650D01*
X19832087Y-11700650D02*
X19851134Y-11672079D01*
X19851134Y-11672079D02*
X19860658Y-11653031D01*
X19860658Y-11653031D02*
X19870182Y-11624460D01*
X19870182Y-11624460D02*
X19879706Y-11576841D01*
X19879706Y-11576841D02*
X19879706Y-11538746D01*
X19879706Y-11538746D02*
X19870182Y-11491127D01*
X19870182Y-11491127D02*
X19860658Y-11462555D01*
X19860658Y-11462555D02*
X19851134Y-11443508D01*
X19851134Y-11443508D02*
X19832087Y-11414936D01*
X19832087Y-11414936D02*
X19822563Y-11405412D01*
X20184468Y-11710174D02*
X20174944Y-11700650D01*
X20174944Y-11700650D02*
X20155896Y-11672079D01*
X20155896Y-11672079D02*
X20146373Y-11653031D01*
X20146373Y-11653031D02*
X20136849Y-11624460D01*
X20136849Y-11624460D02*
X20127325Y-11576841D01*
X20127325Y-11576841D02*
X20127325Y-11538746D01*
X20127325Y-11538746D02*
X20136849Y-11491127D01*
X20136849Y-11491127D02*
X20146373Y-11462555D01*
X20146373Y-11462555D02*
X20155896Y-11443508D01*
X20155896Y-11443508D02*
X20174944Y-11414936D01*
X20174944Y-11414936D02*
X20184468Y-11405412D01*
X20260658Y-11500650D02*
X20260658Y-11633984D01*
X20260658Y-11519698D02*
X20270182Y-11510174D01*
X20270182Y-11510174D02*
X20289230Y-11500650D01*
X20289230Y-11500650D02*
X20317801Y-11500650D01*
X20317801Y-11500650D02*
X20336849Y-11510174D01*
X20336849Y-11510174D02*
X20346373Y-11529222D01*
X20346373Y-11529222D02*
X20346373Y-11633984D01*
X20470182Y-11633984D02*
X20451134Y-11624460D01*
X20451134Y-11624460D02*
X20441611Y-11614936D01*
X20441611Y-11614936D02*
X20432087Y-11595888D01*
X20432087Y-11595888D02*
X20432087Y-11538746D01*
X20432087Y-11538746D02*
X20441611Y-11519698D01*
X20441611Y-11519698D02*
X20451134Y-11510174D01*
X20451134Y-11510174D02*
X20470182Y-11500650D01*
X20470182Y-11500650D02*
X20498754Y-11500650D01*
X20498754Y-11500650D02*
X20517801Y-11510174D01*
X20517801Y-11510174D02*
X20527325Y-11519698D01*
X20527325Y-11519698D02*
X20536849Y-11538746D01*
X20536849Y-11538746D02*
X20536849Y-11595888D01*
X20536849Y-11595888D02*
X20527325Y-11614936D01*
X20527325Y-11614936D02*
X20517801Y-11624460D01*
X20517801Y-11624460D02*
X20498754Y-11633984D01*
X20498754Y-11633984D02*
X20470182Y-11633984D01*
X20593992Y-11500650D02*
X20670182Y-11500650D01*
X20622563Y-11433984D02*
X20622563Y-11605412D01*
X20622563Y-11605412D02*
X20632087Y-11624460D01*
X20632087Y-11624460D02*
X20651134Y-11633984D01*
X20651134Y-11633984D02*
X20670182Y-11633984D01*
X20889230Y-11500650D02*
X20889230Y-11700650D01*
X20889230Y-11510174D02*
X20908277Y-11500650D01*
X20908277Y-11500650D02*
X20946373Y-11500650D01*
X20946373Y-11500650D02*
X20965420Y-11510174D01*
X20965420Y-11510174D02*
X20974944Y-11519698D01*
X20974944Y-11519698D02*
X20984468Y-11538746D01*
X20984468Y-11538746D02*
X20984468Y-11595888D01*
X20984468Y-11595888D02*
X20974944Y-11614936D01*
X20974944Y-11614936D02*
X20965420Y-11624460D01*
X20965420Y-11624460D02*
X20946373Y-11633984D01*
X20946373Y-11633984D02*
X20908277Y-11633984D01*
X20908277Y-11633984D02*
X20889230Y-11624460D01*
X21098754Y-11633984D02*
X21079706Y-11624460D01*
X21079706Y-11624460D02*
X21070182Y-11605412D01*
X21070182Y-11605412D02*
X21070182Y-11433984D01*
X21260658Y-11633984D02*
X21260658Y-11529222D01*
X21260658Y-11529222D02*
X21251135Y-11510174D01*
X21251135Y-11510174D02*
X21232087Y-11500650D01*
X21232087Y-11500650D02*
X21193992Y-11500650D01*
X21193992Y-11500650D02*
X21174944Y-11510174D01*
X21260658Y-11624460D02*
X21241611Y-11633984D01*
X21241611Y-11633984D02*
X21193992Y-11633984D01*
X21193992Y-11633984D02*
X21174944Y-11624460D01*
X21174944Y-11624460D02*
X21165420Y-11605412D01*
X21165420Y-11605412D02*
X21165420Y-11586365D01*
X21165420Y-11586365D02*
X21174944Y-11567317D01*
X21174944Y-11567317D02*
X21193992Y-11557793D01*
X21193992Y-11557793D02*
X21241611Y-11557793D01*
X21241611Y-11557793D02*
X21260658Y-11548269D01*
X21327325Y-11500650D02*
X21403515Y-11500650D01*
X21355896Y-11433984D02*
X21355896Y-11605412D01*
X21355896Y-11605412D02*
X21365420Y-11624460D01*
X21365420Y-11624460D02*
X21384468Y-11633984D01*
X21384468Y-11633984D02*
X21403515Y-11633984D01*
X21546373Y-11624460D02*
X21527325Y-11633984D01*
X21527325Y-11633984D02*
X21489230Y-11633984D01*
X21489230Y-11633984D02*
X21470182Y-11624460D01*
X21470182Y-11624460D02*
X21460658Y-11605412D01*
X21460658Y-11605412D02*
X21460658Y-11529222D01*
X21460658Y-11529222D02*
X21470182Y-11510174D01*
X21470182Y-11510174D02*
X21489230Y-11500650D01*
X21489230Y-11500650D02*
X21527325Y-11500650D01*
X21527325Y-11500650D02*
X21546373Y-11510174D01*
X21546373Y-11510174D02*
X21555896Y-11529222D01*
X21555896Y-11529222D02*
X21555896Y-11548269D01*
X21555896Y-11548269D02*
X21460658Y-11567317D01*
X21727325Y-11633984D02*
X21727325Y-11433984D01*
X21727325Y-11624460D02*
X21708277Y-11633984D01*
X21708277Y-11633984D02*
X21670182Y-11633984D01*
X21670182Y-11633984D02*
X21651135Y-11624460D01*
X21651135Y-11624460D02*
X21641611Y-11614936D01*
X21641611Y-11614936D02*
X21632087Y-11595888D01*
X21632087Y-11595888D02*
X21632087Y-11538746D01*
X21632087Y-11538746D02*
X21641611Y-11519698D01*
X21641611Y-11519698D02*
X21651135Y-11510174D01*
X21651135Y-11510174D02*
X21670182Y-11500650D01*
X21670182Y-11500650D02*
X21708277Y-11500650D01*
X21708277Y-11500650D02*
X21727325Y-11510174D01*
X21803516Y-11710174D02*
X21813039Y-11700650D01*
X21813039Y-11700650D02*
X21832087Y-11672079D01*
X21832087Y-11672079D02*
X21841611Y-11653031D01*
X21841611Y-11653031D02*
X21851135Y-11624460D01*
X21851135Y-11624460D02*
X21860658Y-11576841D01*
X21860658Y-11576841D02*
X21860658Y-11538746D01*
X21860658Y-11538746D02*
X21851135Y-11491127D01*
X21851135Y-11491127D02*
X21841611Y-11462555D01*
X21841611Y-11462555D02*
X21832087Y-11443508D01*
X21832087Y-11443508D02*
X21813039Y-11414936D01*
X21813039Y-11414936D02*
X21803516Y-11405412D01*
M02*
