G04 #@! TF.GenerationSoftware,KiCad,Pcbnew,8.0.4*
G04 #@! TF.CreationDate,2025-03-28T18:04:35-04:00*
G04 #@! TF.ProjectId,ballsi,62616c6c-7369-42e6-9b69-6361645f7063,rev?*
G04 #@! TF.SameCoordinates,Original*
G04 #@! TF.FileFunction,Paste,Top*
G04 #@! TF.FilePolarity,Positive*
%FSLAX46Y46*%
G04 Gerber Fmt 4.6, Leading zero omitted, Abs format (unit mm)*
G04 Created by KiCad (PCBNEW 8.0.4) date 2025-03-28 18:04:35*
%MOMM*%
%LPD*%
G01*
G04 APERTURE LIST*
G04 Aperture macros list*
%AMRoundRect*
0 Rectangle with rounded corners*
0 $1 Rounding radius*
0 $2 $3 $4 $5 $6 $7 $8 $9 X,Y pos of 4 corners*
0 Add a 4 corners polygon primitive as box body*
4,1,4,$2,$3,$4,$5,$6,$7,$8,$9,$2,$3,0*
0 Add four circle primitives for the rounded corners*
1,1,$1+$1,$2,$3*
1,1,$1+$1,$4,$5*
1,1,$1+$1,$6,$7*
1,1,$1+$1,$8,$9*
0 Add four rect primitives between the rounded corners*
20,1,$1+$1,$2,$3,$4,$5,0*
20,1,$1+$1,$4,$5,$6,$7,0*
20,1,$1+$1,$6,$7,$8,$9,0*
20,1,$1+$1,$8,$9,$2,$3,0*%
G04 Aperture macros list end*
%ADD10C,0.000000*%
%ADD11R,2.209800X0.508000*%
%ADD12RoundRect,0.250000X-0.400000X-0.625000X0.400000X-0.625000X0.400000X0.625000X-0.400000X0.625000X0*%
%ADD13RoundRect,0.250000X0.400000X0.625000X-0.400000X0.625000X-0.400000X-0.625000X0.400000X-0.625000X0*%
%ADD14RoundRect,0.250001X-0.462499X-0.624999X0.462499X-0.624999X0.462499X0.624999X-0.462499X0.624999X0*%
%ADD15RoundRect,0.250000X0.650000X-0.412500X0.650000X0.412500X-0.650000X0.412500X-0.650000X-0.412500X0*%
%ADD16RoundRect,0.250000X-0.412500X-0.650000X0.412500X-0.650000X0.412500X0.650000X-0.412500X0.650000X0*%
G04 APERTURE END LIST*
D10*
G36*
X168612600Y-70971179D02*
G01*
X168471179Y-71112600D01*
X168381130Y-71112600D01*
X168381130Y-70525530D01*
X168612600Y-70525530D01*
X168612600Y-70971179D01*
G37*
G36*
X168612600Y-71454021D02*
G01*
X168612600Y-71758579D01*
X168471179Y-71900000D01*
X168381130Y-71900000D01*
X168381130Y-71312600D01*
X168471179Y-71312600D01*
X168612600Y-71454021D01*
G37*
G36*
X168612600Y-72241421D02*
G01*
X168612600Y-72545979D01*
X168471179Y-72687400D01*
X168381130Y-72687400D01*
X168381130Y-72100000D01*
X168471179Y-72100000D01*
X168612600Y-72241421D01*
G37*
G36*
X168612600Y-73028821D02*
G01*
X168612600Y-73474470D01*
X168381130Y-73474470D01*
X168381130Y-72887400D01*
X168471179Y-72887400D01*
X168612600Y-73028821D01*
G37*
G36*
X169400000Y-70971179D02*
G01*
X169258579Y-71112600D01*
X168954021Y-71112600D01*
X168812600Y-70971179D01*
X168812600Y-70525530D01*
X169400000Y-70525530D01*
X169400000Y-70971179D01*
G37*
G36*
X169400000Y-71454021D02*
G01*
X169400000Y-71758579D01*
X169258579Y-71900000D01*
X168954021Y-71900000D01*
X168812600Y-71758579D01*
X168812600Y-71454021D01*
X168954021Y-71312600D01*
X169258579Y-71312600D01*
X169400000Y-71454021D01*
G37*
G36*
X169400000Y-72241421D02*
G01*
X169400000Y-72545979D01*
X169258579Y-72687400D01*
X168954021Y-72687400D01*
X168812600Y-72545979D01*
X168812600Y-72241421D01*
X168954021Y-72100000D01*
X169258579Y-72100000D01*
X169400000Y-72241421D01*
G37*
G36*
X169400000Y-73028821D02*
G01*
X169400000Y-73474470D01*
X168812600Y-73474470D01*
X168812600Y-73028821D01*
X168954021Y-72887400D01*
X169258579Y-72887400D01*
X169400000Y-73028821D01*
G37*
G36*
X170187400Y-70971179D02*
G01*
X170045979Y-71112600D01*
X169741421Y-71112600D01*
X169600000Y-70971179D01*
X169600000Y-70525530D01*
X170187400Y-70525530D01*
X170187400Y-70971179D01*
G37*
G36*
X170187400Y-71454021D02*
G01*
X170187400Y-71758579D01*
X170045979Y-71900000D01*
X169741421Y-71900000D01*
X169600000Y-71758579D01*
X169600000Y-71454021D01*
X169741421Y-71312600D01*
X170045979Y-71312600D01*
X170187400Y-71454021D01*
G37*
G36*
X170187400Y-72241421D02*
G01*
X170187400Y-72545979D01*
X170045979Y-72687400D01*
X169741421Y-72687400D01*
X169600000Y-72545979D01*
X169600000Y-72241421D01*
X169741421Y-72100000D01*
X170045979Y-72100000D01*
X170187400Y-72241421D01*
G37*
G36*
X170187400Y-73028821D02*
G01*
X170187400Y-73474470D01*
X169600000Y-73474470D01*
X169600000Y-73028821D01*
X169741421Y-72887400D01*
X170045979Y-72887400D01*
X170187400Y-73028821D01*
G37*
G36*
X170618870Y-71112600D02*
G01*
X170528821Y-71112600D01*
X170387400Y-70971179D01*
X170387400Y-70525530D01*
X170618870Y-70525530D01*
X170618870Y-71112600D01*
G37*
G36*
X170618870Y-71900000D02*
G01*
X170528821Y-71900000D01*
X170387400Y-71758579D01*
X170387400Y-71454021D01*
X170528821Y-71312600D01*
X170618870Y-71312600D01*
X170618870Y-71900000D01*
G37*
G36*
X170618870Y-72687400D02*
G01*
X170528821Y-72687400D01*
X170387400Y-72545979D01*
X170387400Y-72241421D01*
X170528821Y-72100000D01*
X170618870Y-72100000D01*
X170618870Y-72687400D01*
G37*
G36*
X170618870Y-73474470D02*
G01*
X170387400Y-73474470D01*
X170387400Y-73028821D01*
X170528821Y-72887400D01*
X170618870Y-72887400D01*
X170618870Y-73474470D01*
G37*
G36*
X222743869Y-73569470D02*
G01*
X222512399Y-73569470D01*
X222512399Y-73123821D01*
X222653820Y-72982400D01*
X222743869Y-72982400D01*
X222743869Y-73569470D01*
G37*
G36*
X222743869Y-72782400D02*
G01*
X222653820Y-72782400D01*
X222512399Y-72640979D01*
X222512399Y-72336421D01*
X222653820Y-72195000D01*
X222743869Y-72195000D01*
X222743869Y-72782400D01*
G37*
G36*
X222743869Y-71995000D02*
G01*
X222653820Y-71995000D01*
X222512399Y-71853579D01*
X222512399Y-71549021D01*
X222653820Y-71407600D01*
X222743869Y-71407600D01*
X222743869Y-71995000D01*
G37*
G36*
X222743869Y-71207600D02*
G01*
X222653820Y-71207600D01*
X222512399Y-71066179D01*
X222512399Y-70620530D01*
X222743869Y-70620530D01*
X222743869Y-71207600D01*
G37*
G36*
X222312399Y-73123821D02*
G01*
X222312399Y-73569470D01*
X221724999Y-73569470D01*
X221724999Y-73123821D01*
X221866420Y-72982400D01*
X222170978Y-72982400D01*
X222312399Y-73123821D01*
G37*
G36*
X222312399Y-72336421D02*
G01*
X222312399Y-72640979D01*
X222170978Y-72782400D01*
X221866420Y-72782400D01*
X221724999Y-72640979D01*
X221724999Y-72336421D01*
X221866420Y-72195000D01*
X222170978Y-72195000D01*
X222312399Y-72336421D01*
G37*
G36*
X222312399Y-71549021D02*
G01*
X222312399Y-71853579D01*
X222170978Y-71995000D01*
X221866420Y-71995000D01*
X221724999Y-71853579D01*
X221724999Y-71549021D01*
X221866420Y-71407600D01*
X222170978Y-71407600D01*
X222312399Y-71549021D01*
G37*
G36*
X222312399Y-71066179D02*
G01*
X222170978Y-71207600D01*
X221866420Y-71207600D01*
X221724999Y-71066179D01*
X221724999Y-70620530D01*
X222312399Y-70620530D01*
X222312399Y-71066179D01*
G37*
G36*
X221524999Y-73123821D02*
G01*
X221524999Y-73569470D01*
X220937599Y-73569470D01*
X220937599Y-73123821D01*
X221079020Y-72982400D01*
X221383578Y-72982400D01*
X221524999Y-73123821D01*
G37*
G36*
X221524999Y-72336421D02*
G01*
X221524999Y-72640979D01*
X221383578Y-72782400D01*
X221079020Y-72782400D01*
X220937599Y-72640979D01*
X220937599Y-72336421D01*
X221079020Y-72195000D01*
X221383578Y-72195000D01*
X221524999Y-72336421D01*
G37*
G36*
X221524999Y-71549021D02*
G01*
X221524999Y-71853579D01*
X221383578Y-71995000D01*
X221079020Y-71995000D01*
X220937599Y-71853579D01*
X220937599Y-71549021D01*
X221079020Y-71407600D01*
X221383578Y-71407600D01*
X221524999Y-71549021D01*
G37*
G36*
X221524999Y-71066179D02*
G01*
X221383578Y-71207600D01*
X221079020Y-71207600D01*
X220937599Y-71066179D01*
X220937599Y-70620530D01*
X221524999Y-70620530D01*
X221524999Y-71066179D01*
G37*
G36*
X220737599Y-73123821D02*
G01*
X220737599Y-73569470D01*
X220506129Y-73569470D01*
X220506129Y-72982400D01*
X220596178Y-72982400D01*
X220737599Y-73123821D01*
G37*
G36*
X220737599Y-72336421D02*
G01*
X220737599Y-72640979D01*
X220596178Y-72782400D01*
X220506129Y-72782400D01*
X220506129Y-72195000D01*
X220596178Y-72195000D01*
X220737599Y-72336421D01*
G37*
G36*
X220737599Y-71549021D02*
G01*
X220737599Y-71853579D01*
X220596178Y-71995000D01*
X220506129Y-71995000D01*
X220506129Y-71407600D01*
X220596178Y-71407600D01*
X220737599Y-71549021D01*
G37*
G36*
X220737599Y-71066179D02*
G01*
X220596178Y-71207600D01*
X220506129Y-71207600D01*
X220506129Y-70620530D01*
X220737599Y-70620530D01*
X220737599Y-71066179D01*
G37*
D11*
X166624999Y-70095000D03*
X166624999Y-71365000D03*
X166624999Y-72635000D03*
X166624999Y-73905000D03*
X172375001Y-73905000D03*
X172375001Y-72635000D03*
X172375001Y-71365000D03*
X172375001Y-70095000D03*
X224500000Y-74000000D03*
X224500000Y-72730000D03*
X224500000Y-71460000D03*
X224500000Y-70190000D03*
X218749998Y-70190000D03*
X218749998Y-71460000D03*
X218749998Y-72730000D03*
X218749998Y-74000000D03*
D12*
X180400000Y-67000000D03*
X183500000Y-67000000D03*
X180400000Y-70500000D03*
X183500000Y-70500000D03*
X166450000Y-76000000D03*
X169550000Y-76000000D03*
D13*
X224550000Y-68000000D03*
X221450000Y-68000000D03*
D14*
X205500000Y-81000000D03*
X208475000Y-81000000D03*
D15*
X199500000Y-56500000D03*
X199500000Y-53375000D03*
X203000000Y-56562500D03*
X203000000Y-53437500D03*
X206500000Y-56625000D03*
X206500000Y-53500000D03*
X210000000Y-56625000D03*
X210000000Y-53500000D03*
D16*
X205437500Y-78500000D03*
X208562500Y-78500000D03*
M02*
