%TF.GenerationSoftware,KiCad,Pcbnew,9.0.3*%
%TF.CreationDate,2026-01-21T00:45:34-05:00*%
%TF.ProjectId,Spii,53706969-2e6b-4696-9361-645f70636258,rev?*%
%TF.SameCoordinates,Original*%
%TF.FileFunction,Profile,NP*%
%FSLAX46Y46*%
G04 Gerber Fmt 4.6, Leading zero omitted, Abs format (unit mm)*
G04 Created by KiCad (PCBNEW 9.0.3) date 2026-01-21 00:45:34*
%MOMM*%
%LPD*%
G01*
G04 APERTURE LIST*
%TA.AperFunction,Profile*%
%ADD10C,0.050000*%
%TD*%
G04 APERTURE END LIST*
D10*
X164000000Y-120000000D02*
X164000000Y-126500000D01*
X193000000Y-149500000D02*
X185000000Y-149500000D01*
X185000000Y-149500000D02*
X185000000Y-126500000D01*
X207000000Y-84500000D02*
X207000000Y-94500000D01*
X214000000Y-126500000D02*
X193000000Y-126500000D01*
X140000000Y-120000000D02*
X164000000Y-120000000D01*
X185000000Y-126500000D02*
X164000000Y-126500000D01*
X199000000Y-84500000D02*
X199000000Y-94500000D01*
X207000000Y-94500000D02*
G75*
G02*
X199000000Y-94500000I-4000000J0D01*
G01*
X171000000Y-84500000D02*
G75*
G02*
X179000000Y-84500000I4000000J0D01*
G01*
X238000000Y-75500000D02*
X238000000Y-120000000D01*
X193000000Y-126500000D02*
X193000000Y-149500000D01*
X214000000Y-120000000D02*
X214000000Y-126500000D01*
X140000000Y-75500000D02*
X238000000Y-75500000D01*
X238000000Y-120000000D02*
X214000000Y-120000000D01*
X140000000Y-120000000D02*
X140000000Y-75500000D01*
X171000000Y-84500000D02*
X171000000Y-94500000D01*
X179000000Y-84500000D02*
X179000000Y-94500000D01*
X199000000Y-84500000D02*
G75*
G02*
X207000000Y-84500000I4000000J0D01*
G01*
X179000000Y-94500000D02*
G75*
G02*
X171000000Y-94500000I-4000000J0D01*
G01*
M02*
