%TF.GenerationSoftware,KiCad,Pcbnew,9.0.3*%
%TF.CreationDate,2026-01-21T00:45:34-05:00*%
%TF.ProjectId,Spii,53706969-2e6b-4696-9361-645f70636258,rev?*%
%TF.SameCoordinates,Original*%
%TF.FileFunction,Soldermask,Top*%
%TF.FilePolarity,Negative*%
%FSLAX46Y46*%
G04 Gerber Fmt 4.6, Leading zero omitted, Abs format (unit mm)*
G04 Created by KiCad (PCBNEW 9.0.3) date 2026-01-21 00:45:34*
%MOMM*%
%LPD*%
G01*
G04 APERTURE LIST*
G04 Aperture macros list*
%AMRoundRect*
0 Rectangle with rounded corners*
0 $1 Rounding radius*
0 $2 $3 $4 $5 $6 $7 $8 $9 X,Y pos of 4 corners*
0 Add a 4 corners polygon primitive as box body*
4,1,4,$2,$3,$4,$5,$6,$7,$8,$9,$2,$3,0*
0 Add four circle primitives for the rounded corners*
1,1,$1+$1,$2,$3*
1,1,$1+$1,$4,$5*
1,1,$1+$1,$6,$7*
1,1,$1+$1,$8,$9*
0 Add four rect primitives between the rounded corners*
20,1,$1+$1,$2,$3,$4,$5,0*
20,1,$1+$1,$4,$5,$6,$7,0*
20,1,$1+$1,$6,$7,$8,$9,0*
20,1,$1+$1,$8,$9,$2,$3,0*%
G04 Aperture macros list end*
%ADD10RoundRect,0.250000X0.400000X0.625000X-0.400000X0.625000X-0.400000X-0.625000X0.400000X-0.625000X0*%
%ADD11RoundRect,0.250000X-0.400000X-0.625000X0.400000X-0.625000X0.400000X0.625000X-0.400000X0.625000X0*%
%ADD12RoundRect,0.102000X-0.080610X-0.921376X0.921376X-0.080610X0.080610X0.921376X-0.921376X0.080610X0*%
%ADD13C,1.512000*%
%ADD14RoundRect,0.102000X0.654000X-0.654000X0.654000X0.654000X-0.654000X0.654000X-0.654000X-0.654000X0*%
%ADD15RoundRect,0.102000X-0.654000X-0.654000X0.654000X-0.654000X0.654000X0.654000X-0.654000X0.654000X0*%
%ADD16RoundRect,0.102000X-0.654000X0.654000X-0.654000X-0.654000X0.654000X-0.654000X0.654000X0.654000X0*%
%ADD17RoundRect,0.375000X0.625000X0.375000X-0.625000X0.375000X-0.625000X-0.375000X0.625000X-0.375000X0*%
%ADD18RoundRect,0.500000X0.500000X1.400000X-0.500000X1.400000X-0.500000X-1.400000X0.500000X-1.400000X0*%
%ADD19RoundRect,0.102000X-0.921376X-0.080610X0.080610X-0.921376X0.921376X0.080610X-0.080610X0.921376X0*%
G04 APERTURE END LIST*
D10*
%TO.C,220_R1*%
X232800000Y-83500000D03*
X229700000Y-83500000D03*
%TD*%
D11*
%TO.C,220_R3*%
X145200000Y-83750000D03*
X148300000Y-83750000D03*
%TD*%
D12*
%TO.C,L_90_IR_1*%
X175032087Y-115214425D03*
D13*
X173500000Y-116500000D03*
X171967910Y-117785576D03*
%TD*%
D10*
%TO.C,47k_R2*%
X232800000Y-87250000D03*
X229700000Y-87250000D03*
%TD*%
D14*
%TO.C,Right_Motor_1*%
X192300000Y-121750000D03*
D13*
X192300000Y-123750000D03*
%TD*%
D10*
%TO.C,220_R5*%
X190550000Y-142750000D03*
X187450000Y-142750000D03*
%TD*%
D11*
%TO.C,47k_R4*%
X145200000Y-87750000D03*
X148300000Y-87750000D03*
%TD*%
D15*
%TO.C,Power_Bus_1*%
X181000000Y-124000000D03*
D13*
X179000000Y-124000000D03*
X177000000Y-124000000D03*
X175000000Y-124000000D03*
X173000000Y-124000000D03*
X171000000Y-124000000D03*
X169000000Y-124000000D03*
X167000000Y-124000000D03*
%TD*%
D16*
%TO.C,Servo_1*%
X185650000Y-116750000D03*
D13*
X185650000Y-114750000D03*
X185650000Y-112750000D03*
%TD*%
D16*
%TO.C,L_50_IR_1*%
X180150000Y-118250000D03*
D13*
X180150000Y-116250000D03*
X180150000Y-114250000D03*
%TD*%
D17*
%TO.C,5V_VR_1*%
X226650000Y-88300000D03*
X226650000Y-86000000D03*
D18*
X220350000Y-86000000D03*
D17*
X226650000Y-83700000D03*
%TD*%
%TO.C,3V3_VR_1*%
X157650000Y-88050000D03*
X157650000Y-85750000D03*
D18*
X151350000Y-85750000D03*
D17*
X157650000Y-83450000D03*
%TD*%
D16*
%TO.C,R_90_IR_1*%
X191200000Y-116750000D03*
D13*
X191200000Y-114750000D03*
X191200000Y-112750000D03*
%TD*%
D14*
%TO.C,Left_Motor_1*%
X186750000Y-121750000D03*
D13*
X186750000Y-123750000D03*
%TD*%
D16*
%TO.C,M_IR_1*%
X196650000Y-118250000D03*
D13*
X196650000Y-116250000D03*
X196650000Y-114250000D03*
%TD*%
D10*
%TO.C,47k_R7*%
X190550000Y-146500000D03*
X187450000Y-146500000D03*
%TD*%
D19*
%TO.C,R_50_IR_1*%
X205928556Y-117706900D03*
D13*
X204396466Y-116421324D03*
X202864379Y-115135749D03*
%TD*%
D15*
%TO.C,Sensor_Bus_1*%
X211000000Y-124000000D03*
D13*
X209000000Y-124000000D03*
X207000000Y-124000000D03*
X205000000Y-124000000D03*
X203000000Y-124000000D03*
X201000000Y-124000000D03*
X199000000Y-124000000D03*
X197000000Y-124000000D03*
%TD*%
M02*
