%TF.GenerationSoftware,KiCad,Pcbnew,9.0.3*%
%TF.CreationDate,2026-01-21T00:45:33-05:00*%
%TF.ProjectId,Spii,53706969-2e6b-4696-9361-645f70636258,rev?*%
%TF.SameCoordinates,Original*%
%TF.FileFunction,Copper,L1,Top*%
%TF.FilePolarity,Positive*%
%FSLAX46Y46*%
G04 Gerber Fmt 4.6, Leading zero omitted, Abs format (unit mm)*
G04 Created by KiCad (PCBNEW 9.0.3) date 2026-01-21 00:45:33*
%MOMM*%
%LPD*%
G01*
G04 APERTURE LIST*
G04 Aperture macros list*
%AMRoundRect*
0 Rectangle with rounded corners*
0 $1 Rounding radius*
0 $2 $3 $4 $5 $6 $7 $8 $9 X,Y pos of 4 corners*
0 Add a 4 corners polygon primitive as box body*
4,1,4,$2,$3,$4,$5,$6,$7,$8,$9,$2,$3,0*
0 Add four circle primitives for the rounded corners*
1,1,$1+$1,$2,$3*
1,1,$1+$1,$4,$5*
1,1,$1+$1,$6,$7*
1,1,$1+$1,$8,$9*
0 Add four rect primitives between the rounded corners*
20,1,$1+$1,$2,$3,$4,$5,0*
20,1,$1+$1,$4,$5,$6,$7,0*
20,1,$1+$1,$6,$7,$8,$9,0*
20,1,$1+$1,$8,$9,$2,$3,0*%
%AMRotRect*
0 Rectangle, with rotation*
0 The origin of the aperture is its center*
0 $1 length*
0 $2 width*
0 $3 Rotation angle, in degrees counterclockwise*
0 Add horizontal line*
21,1,$1,$2,0,0,$3*%
G04 Aperture macros list end*
%TA.AperFunction,SMDPad,CuDef*%
%ADD10RoundRect,0.250000X0.400000X0.625000X-0.400000X0.625000X-0.400000X-0.625000X0.400000X-0.625000X0*%
%TD*%
%TA.AperFunction,SMDPad,CuDef*%
%ADD11RoundRect,0.250000X-0.400000X-0.625000X0.400000X-0.625000X0.400000X0.625000X-0.400000X0.625000X0*%
%TD*%
%TA.AperFunction,ComponentPad*%
%ADD12RotRect,1.308000X1.308000X40.000000*%
%TD*%
%TA.AperFunction,ComponentPad*%
%ADD13C,1.308000*%
%TD*%
%TA.AperFunction,ComponentPad*%
%ADD14R,1.308000X1.308000*%
%TD*%
%TA.AperFunction,SMDPad,CuDef*%
%ADD15RoundRect,0.375000X0.625000X0.375000X-0.625000X0.375000X-0.625000X-0.375000X0.625000X-0.375000X0*%
%TD*%
%TA.AperFunction,SMDPad,CuDef*%
%ADD16RoundRect,0.500000X0.500000X1.400000X-0.500000X1.400000X-0.500000X-1.400000X0.500000X-1.400000X0*%
%TD*%
%TA.AperFunction,ComponentPad*%
%ADD17RotRect,1.308000X1.308000X320.000000*%
%TD*%
%TA.AperFunction,ViaPad*%
%ADD18C,0.600000*%
%TD*%
%TA.AperFunction,Conductor*%
%ADD19C,0.200000*%
%TD*%
%TA.AperFunction,Conductor*%
%ADD20C,0.400000*%
%TD*%
G04 APERTURE END LIST*
D10*
%TO.P,220_R1,1*%
%TO.N,Net-(220_R1-Pad1)*%
X232800000Y-83500000D03*
%TO.P,220_R1,2*%
%TO.N,+3.3V*%
X229700000Y-83500000D03*
%TD*%
D11*
%TO.P,220_R3,1*%
%TO.N,Net-(220_R3-Pad1)*%
X145200000Y-83750000D03*
%TO.P,220_R3,2*%
%TO.N,+3.3V*%
X148300000Y-83750000D03*
%TD*%
D12*
%TO.P,L_90_IR_1,1,Pin_1*%
%TO.N,L_90_IR*%
X175032087Y-115214425D03*
D13*
%TO.P,L_90_IR_1,2,Pin_2*%
%TO.N,3V3_OR_5V*%
X173500000Y-116500000D03*
%TO.P,L_90_IR_1,3,Pin_3*%
%TO.N,GND*%
X171967910Y-117785576D03*
%TD*%
D10*
%TO.P,47k_R2,1*%
%TO.N,R_LN*%
X232800000Y-87250000D03*
%TO.P,47k_R2,2*%
%TO.N,+3.3V*%
X229700000Y-87250000D03*
%TD*%
D14*
%TO.P,Right_Motor_1,1,Pin_1*%
%TO.N,R_MTR_+*%
X192300000Y-121750000D03*
D13*
%TO.P,Right_Motor_1,2,Pin_2*%
%TO.N,R_MTR_-*%
X192300000Y-123750000D03*
%TD*%
D10*
%TO.P,220_R5,1*%
%TO.N,Net-(220_R5-Pad1)*%
X190550000Y-142750000D03*
%TO.P,220_R5,2*%
%TO.N,+3.3V*%
X187450000Y-142750000D03*
%TD*%
D11*
%TO.P,47k_R4,1*%
%TO.N,L_LN*%
X145200000Y-87750000D03*
%TO.P,47k_R4,2*%
%TO.N,+3.3V*%
X148300000Y-87750000D03*
%TD*%
D14*
%TO.P,Power_Bus_1,1,Pin_1*%
%TO.N,L_MTR_+*%
X181000000Y-124000000D03*
D13*
%TO.P,Power_Bus_1,2,Pin_2*%
%TO.N,L_MTR_-*%
X179000000Y-124000000D03*
%TO.P,Power_Bus_1,3,Pin_3*%
%TO.N,R_MTR_+*%
X177000000Y-124000000D03*
%TO.P,Power_Bus_1,4,Pin_4*%
%TO.N,R_MTR_-*%
X175000000Y-124000000D03*
%TO.P,Power_Bus_1,5,Pin_5*%
%TO.N,Servo*%
X173000000Y-124000000D03*
%TO.P,Power_Bus_1,6,Pin_6*%
%TO.N,3V3_OR_5V*%
X171000000Y-124000000D03*
%TO.P,Power_Bus_1,7,Pin_7*%
%TO.N,GND*%
X169000000Y-124000000D03*
%TO.P,Power_Bus_1,8,Pin_8*%
%TO.N,+12V*%
X167000000Y-124000000D03*
%TD*%
D14*
%TO.P,Servo_1,1,Pin_1*%
%TO.N,Servo*%
X185650000Y-116750000D03*
D13*
%TO.P,Servo_1,2,Pin_2*%
%TO.N,+5V*%
X185650000Y-114750000D03*
%TO.P,Servo_1,3,Pin_3*%
%TO.N,GND*%
X185650000Y-112750000D03*
%TD*%
D14*
%TO.P,L_50_IR_1,1,Pin_1*%
%TO.N,L_50_IR*%
X180150000Y-118250000D03*
D13*
%TO.P,L_50_IR_1,2,Pin_2*%
%TO.N,3V3_OR_5V*%
X180150000Y-116250000D03*
%TO.P,L_50_IR_1,3,Pin_3*%
%TO.N,GND*%
X180150000Y-114250000D03*
%TD*%
D15*
%TO.P,5V_VR_1,1,GND*%
%TO.N,GND*%
X226650000Y-88300000D03*
%TO.P,5V_VR_1,2,VO*%
%TO.N,+5V*%
X226650000Y-86000000D03*
D16*
X220350000Y-86000000D03*
D15*
%TO.P,5V_VR_1,3,VI*%
%TO.N,+12V*%
X226650000Y-83700000D03*
%TD*%
%TO.P,3V3_VR_1,1,GND*%
%TO.N,GND*%
X157650000Y-88050000D03*
%TO.P,3V3_VR_1,2,VO*%
%TO.N,+3.3V*%
X157650000Y-85750000D03*
D16*
X151350000Y-85750000D03*
D15*
%TO.P,3V3_VR_1,3,VI*%
%TO.N,+12V*%
X157650000Y-83450000D03*
%TD*%
D14*
%TO.P,R_90_IR_1,1,Pin_1*%
%TO.N,R_90_IR*%
X191200000Y-116750000D03*
D13*
%TO.P,R_90_IR_1,2,Pin_2*%
%TO.N,3V3_OR_5V*%
X191200000Y-114750000D03*
%TO.P,R_90_IR_1,3,Pin_3*%
%TO.N,GND*%
X191200000Y-112750000D03*
%TD*%
D14*
%TO.P,Left_Motor_1,1,Pin_1*%
%TO.N,L_MTR_+*%
X186750000Y-121750000D03*
D13*
%TO.P,Left_Motor_1,2,Pin_2*%
%TO.N,L_MTR_-*%
X186750000Y-123750000D03*
%TD*%
D14*
%TO.P,M_IR_1,1,Pin_1*%
%TO.N,M_IR*%
X196650000Y-118250000D03*
D13*
%TO.P,M_IR_1,2,Pin_2*%
%TO.N,3V3_OR_5V*%
X196650000Y-116250000D03*
%TO.P,M_IR_1,3,Pin_3*%
%TO.N,GND*%
X196650000Y-114250000D03*
%TD*%
D10*
%TO.P,47k_R7,1*%
%TO.N,B_LN*%
X190550000Y-146500000D03*
%TO.P,47k_R7,2*%
%TO.N,+3.3V*%
X187450000Y-146500000D03*
%TD*%
D17*
%TO.P,R_50_IR_1,1,Pin_1*%
%TO.N,R_50_IR*%
X205928556Y-117706900D03*
D13*
%TO.P,R_50_IR_1,2,Pin_2*%
%TO.N,3V3_OR_5V*%
X204396466Y-116421324D03*
%TO.P,R_50_IR_1,3,Pin_3*%
%TO.N,GND*%
X202864379Y-115135749D03*
%TD*%
D14*
%TO.P,Sensor_Bus_1,1,Pin_1*%
%TO.N,B_LN*%
X211000000Y-124000000D03*
D13*
%TO.P,Sensor_Bus_1,2,Pin_2*%
%TO.N,R_LN*%
X209000000Y-124000000D03*
%TO.P,Sensor_Bus_1,3,Pin_3*%
%TO.N,L_LN*%
X207000000Y-124000000D03*
%TO.P,Sensor_Bus_1,4,Pin_4*%
%TO.N,R_50_IR*%
X205000000Y-124000000D03*
%TO.P,Sensor_Bus_1,5,Pin_5*%
%TO.N,M_IR*%
X203000000Y-124000000D03*
%TO.P,Sensor_Bus_1,6,Pin_6*%
%TO.N,R_90_IR*%
X201000000Y-124000000D03*
%TO.P,Sensor_Bus_1,7,Pin_7*%
%TO.N,L_50_IR*%
X199000000Y-124000000D03*
%TO.P,Sensor_Bus_1,8,Pin_8*%
%TO.N,L_90_IR*%
X197000000Y-124000000D03*
%TD*%
D18*
%TO.N,+12V*%
X226050000Y-83700000D03*
X228225585Y-90141215D03*
%TO.N,GND*%
X226650000Y-88300000D03*
X157650000Y-88050000D03*
X226050000Y-82000000D03*
%TO.N,B_LN*%
X187025000Y-145100000D03*
%TO.N,R_LN*%
X232000000Y-77700000D03*
%TO.N,L_LN*%
X142025000Y-77600000D03*
%TO.N,Net-(220_R1-Pad1)*%
X235950000Y-79500000D03*
%TO.N,Net-(220_R3-Pad1)*%
X145975000Y-79400000D03*
%TO.N,Net-(220_R5-Pad1)*%
X190550000Y-142750000D03*
%TO.N,+5V*%
X188750000Y-111949000D03*
%TD*%
D19*
%TO.N,Servo*%
X185195000Y-117205000D02*
X185650000Y-116750000D01*
X176316906Y-113992049D02*
X179529857Y-117205000D01*
X174709251Y-113992049D02*
X176316906Y-113992049D01*
X173809711Y-114891589D02*
X174709251Y-113992049D01*
X174455000Y-118246300D02*
X174455000Y-116065004D01*
X174455000Y-116065004D02*
X173809711Y-115419715D01*
X172769910Y-121364290D02*
X172769910Y-119931390D01*
X172750000Y-121384200D02*
X172769910Y-121364290D01*
X173809711Y-115419715D02*
X173809711Y-114891589D01*
X172750000Y-123750000D02*
X172750000Y-121384200D01*
X172769910Y-119931390D02*
X174455000Y-118246300D01*
X173000000Y-124000000D02*
X172750000Y-123750000D01*
X179529857Y-117205000D02*
X185195000Y-117205000D01*
%TO.N,+5V*%
X223850000Y-89500000D02*
X220350000Y-86000000D01*
X228432900Y-89500000D02*
X223850000Y-89500000D01*
X231196000Y-92263100D02*
X228432900Y-89500000D01*
X231196000Y-99535600D02*
X231196000Y-92263100D01*
X215996851Y-114734749D02*
X231196000Y-99535600D01*
X198000000Y-114000000D02*
X203265251Y-114000000D01*
X197000000Y-113000000D02*
X198000000Y-114000000D01*
X191750000Y-111750000D02*
X193000000Y-113000000D01*
X188949000Y-111750000D02*
X191750000Y-111750000D01*
X193000000Y-113000000D02*
X197000000Y-113000000D01*
X203265251Y-114000000D02*
X204000000Y-114734749D01*
X188750000Y-111949000D02*
X188949000Y-111750000D01*
X204000000Y-114734749D02*
X215996851Y-114734749D01*
%TO.N,+12V*%
X228507015Y-90141215D02*
X228225585Y-90141215D01*
X230795000Y-92429200D02*
X228507015Y-90141215D01*
X226450000Y-83500000D02*
X226650000Y-83700000D01*
X215830751Y-114333749D02*
X230795000Y-99369500D01*
X204166100Y-114333749D02*
X215830751Y-114333749D01*
X203431351Y-113599000D02*
X204166100Y-114333749D01*
X198166100Y-113599000D02*
X203431351Y-113599000D01*
X193166100Y-112599000D02*
X197166100Y-112599000D01*
X184174623Y-111349000D02*
X191916100Y-111349000D01*
X197166100Y-112599000D02*
X198166100Y-113599000D01*
X191916100Y-111349000D02*
X193166100Y-112599000D01*
X182734574Y-112789049D02*
X184174623Y-111349000D01*
X170750000Y-120250000D02*
X170750000Y-116250000D01*
X170750000Y-116250000D02*
X174210951Y-112789049D01*
X167000000Y-124000000D02*
X170750000Y-120250000D01*
X230795000Y-99369500D02*
X230795000Y-92429200D01*
X174210951Y-112789049D02*
X182734574Y-112789049D01*
%TO.N,3V3_OR_5V*%
X196821324Y-116421324D02*
X196650000Y-116250000D01*
X204396466Y-116421324D02*
X196821324Y-116421324D01*
%TO.N,GND*%
X197198150Y-114250000D02*
X196650000Y-114250000D01*
X197474075Y-114525925D02*
X197198150Y-114250000D01*
X197474075Y-114525925D02*
X198083900Y-115135749D01*
X185650000Y-112750000D02*
X191200000Y-112750000D01*
X182900674Y-113190049D02*
X183340723Y-112750000D01*
X177507149Y-113190049D02*
X182900674Y-113190049D01*
X183340723Y-112750000D02*
X185650000Y-112750000D01*
X180059951Y-114250000D02*
X180150000Y-114250000D01*
X179000000Y-113190049D02*
X180059951Y-114250000D01*
X177507149Y-113190049D02*
X179000000Y-113190049D01*
%TO.N,3V3_OR_5V*%
X173500000Y-118634200D02*
X173500000Y-116500000D01*
X171000000Y-121134200D02*
X173500000Y-118634200D01*
X171000000Y-124000000D02*
X171000000Y-121134200D01*
X180000000Y-116250000D02*
X180150000Y-116250000D01*
X177341049Y-113591049D02*
X180000000Y-116250000D01*
X173408711Y-114725489D02*
X174543151Y-113591049D01*
X174543151Y-113591049D02*
X177341049Y-113591049D01*
X173500000Y-116500000D02*
X173408711Y-116408711D01*
X173408711Y-116408711D02*
X173408711Y-114725489D01*
%TO.N,GND*%
X174377051Y-113190049D02*
X177507149Y-113190049D01*
X171967910Y-115599190D02*
X174377051Y-113190049D01*
X171967910Y-117785576D02*
X171967910Y-115599190D01*
X171967910Y-119599190D02*
X171967910Y-117785576D01*
X169000000Y-122567100D02*
X171967910Y-119599190D01*
X169000000Y-124000000D02*
X169000000Y-122567100D01*
X231597000Y-92097000D02*
X227800000Y-88300000D01*
X202864379Y-115135749D02*
X216162951Y-115135749D01*
X197349000Y-114400849D02*
X197474075Y-114525925D01*
X223057900Y-77942100D02*
X226050000Y-80934200D01*
X160930200Y-77304000D02*
X170500000Y-77304000D01*
X170500000Y-77304000D02*
X199750000Y-77304000D01*
X216162951Y-115135749D02*
X231597000Y-99701700D01*
X227800000Y-88300000D02*
X226650000Y-88300000D01*
X191200000Y-112750000D02*
X192700000Y-114250000D01*
X157650000Y-88050000D02*
X159000000Y-86700000D01*
X159000000Y-86700000D02*
X159000000Y-84000000D01*
X160242100Y-77992100D02*
X160930200Y-77304000D01*
X231597000Y-99701700D02*
X231597000Y-92097000D01*
X192700000Y-114250000D02*
X196650000Y-114250000D01*
X159000000Y-79234200D02*
X160242100Y-77992100D01*
X198083900Y-115135749D02*
X202864379Y-115135749D01*
X222419800Y-77304000D02*
X223057900Y-77942100D01*
X159000000Y-84000000D02*
X159000000Y-79234200D01*
X226050000Y-80934200D02*
X226050000Y-82000000D01*
X199750000Y-77304000D02*
X222419800Y-77304000D01*
%TO.N,3V3_OR_5V*%
X180150000Y-116250000D02*
X180500000Y-116250000D01*
X180500000Y-116250000D02*
X183000000Y-113750000D01*
X191200000Y-114750000D02*
X191299000Y-114651000D01*
X190200000Y-113750000D02*
X191200000Y-114750000D01*
X191299000Y-114651000D02*
X195051000Y-114651000D01*
X195051000Y-114651000D02*
X196650000Y-116250000D01*
X183000000Y-113750000D02*
X190200000Y-113750000D01*
%TO.N,+3.3V*%
X206045000Y-123604426D02*
X207050426Y-122599000D01*
X192584958Y-125498000D02*
X204852574Y-125498000D01*
X206045000Y-124305574D02*
X206045000Y-123604426D01*
X222752000Y-76502000D02*
X229700000Y-83450000D01*
X191100000Y-126982958D02*
X192584958Y-125498000D01*
X207050426Y-122599000D02*
X209266800Y-122599000D01*
X187450000Y-142750000D02*
X188500000Y-142750000D01*
X209266800Y-122599000D02*
X231998000Y-99867800D01*
X229700000Y-83450000D02*
X229700000Y-83500000D01*
X191100000Y-140150000D02*
X191100000Y-126982958D01*
X231998000Y-99867800D02*
X231998000Y-89315100D01*
X148300000Y-83750000D02*
X149350000Y-83750000D01*
D20*
X151350000Y-85750000D02*
X157650000Y-85750000D01*
D19*
X149350000Y-83750000D02*
X151350000Y-85750000D01*
X188500000Y-142750000D02*
X191100000Y-140150000D01*
X229932900Y-87250000D02*
X229700000Y-87250000D01*
X186424000Y-145474000D02*
X186424000Y-143776000D01*
X186424000Y-143776000D02*
X187450000Y-142750000D01*
X148300000Y-83750000D02*
X148300000Y-87750000D01*
X229700000Y-83500000D02*
X229700000Y-87250000D01*
X151350000Y-85750000D02*
X160598000Y-76502000D01*
X187450000Y-146500000D02*
X186424000Y-145474000D01*
X204852574Y-125498000D02*
X206045000Y-124305574D01*
X160598000Y-76502000D02*
X222752000Y-76502000D01*
X231998000Y-89315100D02*
X229932900Y-87250000D01*
D20*
%TO.N,R_MTR_-*%
X176799000Y-125799000D02*
X189100942Y-125799000D01*
X189100942Y-125799000D02*
X191149942Y-123750000D01*
X175000000Y-124000000D02*
X176799000Y-125799000D01*
X191149942Y-123750000D02*
X192300000Y-123750000D01*
%TO.N,R_MTR_+*%
X177000000Y-124000000D02*
X178198000Y-125198000D01*
X178198000Y-125198000D02*
X188852000Y-125198000D01*
X188852000Y-125198000D02*
X192300000Y-121750000D01*
D19*
%TO.N,B_LN*%
X192751058Y-125899000D02*
X191501000Y-127149058D01*
X190550000Y-146500000D02*
X189150000Y-145100000D01*
X191501000Y-145549000D02*
X190550000Y-146500000D01*
X191501000Y-127149058D02*
X191501000Y-145549000D01*
X211000000Y-124000000D02*
X209101000Y-125899000D01*
X209101000Y-125899000D02*
X192751058Y-125899000D01*
X189150000Y-145100000D02*
X187025000Y-145100000D01*
%TO.N,L_50_IR*%
X199000000Y-124000000D02*
X194000000Y-119000000D01*
X194000000Y-119000000D02*
X180900000Y-119000000D01*
X180900000Y-119000000D02*
X180150000Y-118250000D01*
%TO.N,M_IR*%
X201599000Y-122599000D02*
X198733200Y-122599000D01*
X196650000Y-120515800D02*
X196650000Y-118250000D01*
X198733200Y-122599000D02*
X196650000Y-120515800D01*
X203000000Y-124000000D02*
X201599000Y-122599000D01*
%TO.N,R_90_IR*%
X198567100Y-123000000D02*
X194166100Y-118599000D01*
X201000000Y-124000000D02*
X200500000Y-124000000D01*
X193049000Y-118599000D02*
X191200000Y-116750000D01*
X194166100Y-118599000D02*
X193049000Y-118599000D01*
X200500000Y-124000000D02*
X199500000Y-123000000D01*
X199500000Y-123000000D02*
X198567100Y-123000000D01*
%TO.N,R_LN*%
X231750000Y-77950000D02*
X232000000Y-77700000D01*
X231750000Y-86200000D02*
X231750000Y-77950000D01*
X232800000Y-87250000D02*
X231750000Y-86200000D01*
X232800000Y-100200000D02*
X209000000Y-124000000D01*
X232800000Y-87250000D02*
X232800000Y-100200000D01*
%TO.N,L_90_IR*%
X193833900Y-119401000D02*
X179250000Y-119401000D01*
X179218662Y-119401000D02*
X175032087Y-115214425D01*
X197000000Y-124000000D02*
X197000000Y-122567100D01*
X179250000Y-119401000D02*
X179218662Y-119401000D01*
X197000000Y-122567100D02*
X193833900Y-119401000D01*
X179250000Y-119401000D02*
X179195000Y-119401000D01*
%TO.N,R_50_IR*%
X205000000Y-124000000D02*
X205000000Y-118635456D01*
X205000000Y-118635456D02*
X205928556Y-117706900D01*
%TO.N,L_LN*%
X231349000Y-83349000D02*
X231349000Y-86366100D01*
X154282900Y-82250000D02*
X156016450Y-80516450D01*
X147000000Y-83000000D02*
X147750000Y-82250000D01*
X229067100Y-82250000D02*
X230250000Y-82250000D01*
X231750000Y-86767100D02*
X231750000Y-88500000D01*
X142025000Y-84575000D02*
X142025000Y-77600000D01*
X209432900Y-123000000D02*
X208000000Y-123000000D01*
X230651000Y-82639840D02*
X230651000Y-82651000D01*
X222918100Y-76101000D02*
X229067100Y-82250000D01*
X230324000Y-82324000D02*
X230335160Y-82324000D01*
X230335160Y-82324000D02*
X230651000Y-82639840D01*
X232399000Y-89149000D02*
X232399000Y-100033900D01*
X145200000Y-87750000D02*
X142025000Y-84575000D01*
X231349000Y-86366100D02*
X231750000Y-86767100D01*
X156016450Y-80516450D02*
X160431900Y-76101000D01*
X156016450Y-80516450D02*
X156391450Y-80141450D01*
X160431900Y-76101000D02*
X222918100Y-76101000D01*
X145200000Y-87750000D02*
X147000000Y-85950000D01*
X230651000Y-82651000D02*
X231349000Y-83349000D01*
X231750000Y-88500000D02*
X232399000Y-89149000D01*
X208000000Y-123000000D02*
X207000000Y-124000000D01*
X232399000Y-100033900D02*
X209432900Y-123000000D01*
X147750000Y-82250000D02*
X154282900Y-82250000D01*
X230250000Y-82250000D02*
X230324000Y-82324000D01*
X147000000Y-85950000D02*
X147000000Y-83000000D01*
%TO.N,Net-(220_R1-Pad1)*%
X232800000Y-83500000D02*
X232800000Y-82650000D01*
X232800000Y-82650000D02*
X235950000Y-79500000D01*
%TO.N,Net-(220_R3-Pad1)*%
X145975000Y-82975000D02*
X145200000Y-83750000D01*
X145975000Y-79400000D02*
X145975000Y-82975000D01*
%TO.N,+12V*%
X226650000Y-83700000D02*
X226650000Y-82249943D01*
X160764100Y-76903000D02*
X158599000Y-79068100D01*
X226651000Y-82248943D02*
X226651000Y-81751057D01*
X226650000Y-81750057D02*
X226650000Y-80967100D01*
X222585900Y-76903000D02*
X160764100Y-76903000D01*
X158599000Y-79068100D02*
X158599000Y-82501000D01*
X158599000Y-82501000D02*
X157650000Y-83450000D01*
X226650000Y-82249943D02*
X226651000Y-82248943D01*
X226650000Y-80967100D02*
X222585900Y-76903000D01*
X226651000Y-81751057D02*
X226650000Y-81750057D01*
D20*
%TO.N,+5V*%
X226650000Y-86000000D02*
X220350000Y-86000000D01*
%TD*%
M02*
