%TF.GenerationSoftware,KiCad,Pcbnew,9.0.2+dfsg-1*%
%TF.CreationDate,2025-08-18T11:52:41-04:00*%
%TF.ProjectId,Basic_Controller,42617369-635f-4436-9f6e-74726f6c6c65,rev?*%
%TF.SameCoordinates,Original*%
%TF.FileFunction,Drillmap*%
%TF.FilePolarity,Positive*%
%FSLAX45Y45*%
G04 Gerber Fmt 4.5, Leading zero omitted, Abs format (unit mm)*
G04 Created by KiCad (PCBNEW 9.0.2+dfsg-1) date 2025-08-18 11:52:41*
%MOMM*%
%LPD*%
G01*
G04 APERTURE LIST*
%ADD10C,0.050000*%
%ADD11C,0.200000*%
%ADD12C,0.300000*%
G04 APERTURE END LIST*
D10*
X12050000Y-12150000D02*
X20050000Y-12150000D01*
X20050000Y-12150000D02*
X20050000Y-8150000D01*
X12050000Y-8150000D02*
X12050000Y-12150000D01*
X20050000Y-8150000D02*
X12050000Y-8150000D01*
D11*
D12*
X12400000Y-8450000D02*
X12700000Y-8750000D01*
X12700000Y-8450000D02*
X12400000Y-8750000D01*
X19400000Y-8450000D02*
X19700000Y-8750000D01*
X19700000Y-8450000D02*
X19400000Y-8750000D01*
X19400000Y-11450000D02*
X19700000Y-11750000D01*
X19700000Y-11450000D02*
X19400000Y-11750000D01*
D11*
X12308277Y-12463984D02*
X12308277Y-12263984D01*
X12308277Y-12263984D02*
X12355896Y-12263984D01*
X12355896Y-12263984D02*
X12384467Y-12273508D01*
X12384467Y-12273508D02*
X12403515Y-12292555D01*
X12403515Y-12292555D02*
X12413039Y-12311603D01*
X12413039Y-12311603D02*
X12422562Y-12349698D01*
X12422562Y-12349698D02*
X12422562Y-12378269D01*
X12422562Y-12378269D02*
X12413039Y-12416365D01*
X12413039Y-12416365D02*
X12403515Y-12435412D01*
X12403515Y-12435412D02*
X12384467Y-12454460D01*
X12384467Y-12454460D02*
X12355896Y-12463984D01*
X12355896Y-12463984D02*
X12308277Y-12463984D01*
X12508277Y-12463984D02*
X12508277Y-12330650D01*
X12508277Y-12368746D02*
X12517801Y-12349698D01*
X12517801Y-12349698D02*
X12527324Y-12340174D01*
X12527324Y-12340174D02*
X12546372Y-12330650D01*
X12546372Y-12330650D02*
X12565420Y-12330650D01*
X12632086Y-12463984D02*
X12632086Y-12330650D01*
X12632086Y-12263984D02*
X12622562Y-12273508D01*
X12622562Y-12273508D02*
X12632086Y-12283031D01*
X12632086Y-12283031D02*
X12641610Y-12273508D01*
X12641610Y-12273508D02*
X12632086Y-12263984D01*
X12632086Y-12263984D02*
X12632086Y-12283031D01*
X12755896Y-12463984D02*
X12736848Y-12454460D01*
X12736848Y-12454460D02*
X12727324Y-12435412D01*
X12727324Y-12435412D02*
X12727324Y-12263984D01*
X12860658Y-12463984D02*
X12841610Y-12454460D01*
X12841610Y-12454460D02*
X12832086Y-12435412D01*
X12832086Y-12435412D02*
X12832086Y-12263984D01*
X13089229Y-12463984D02*
X13089229Y-12263984D01*
X13089229Y-12263984D02*
X13155896Y-12406841D01*
X13155896Y-12406841D02*
X13222562Y-12263984D01*
X13222562Y-12263984D02*
X13222562Y-12463984D01*
X13403515Y-12463984D02*
X13403515Y-12359222D01*
X13403515Y-12359222D02*
X13393991Y-12340174D01*
X13393991Y-12340174D02*
X13374943Y-12330650D01*
X13374943Y-12330650D02*
X13336848Y-12330650D01*
X13336848Y-12330650D02*
X13317801Y-12340174D01*
X13403515Y-12454460D02*
X13384467Y-12463984D01*
X13384467Y-12463984D02*
X13336848Y-12463984D01*
X13336848Y-12463984D02*
X13317801Y-12454460D01*
X13317801Y-12454460D02*
X13308277Y-12435412D01*
X13308277Y-12435412D02*
X13308277Y-12416365D01*
X13308277Y-12416365D02*
X13317801Y-12397317D01*
X13317801Y-12397317D02*
X13336848Y-12387793D01*
X13336848Y-12387793D02*
X13384467Y-12387793D01*
X13384467Y-12387793D02*
X13403515Y-12378269D01*
X13498753Y-12330650D02*
X13498753Y-12530650D01*
X13498753Y-12340174D02*
X13517801Y-12330650D01*
X13517801Y-12330650D02*
X13555896Y-12330650D01*
X13555896Y-12330650D02*
X13574943Y-12340174D01*
X13574943Y-12340174D02*
X13584467Y-12349698D01*
X13584467Y-12349698D02*
X13593991Y-12368746D01*
X13593991Y-12368746D02*
X13593991Y-12425888D01*
X13593991Y-12425888D02*
X13584467Y-12444936D01*
X13584467Y-12444936D02*
X13574943Y-12454460D01*
X13574943Y-12454460D02*
X13555896Y-12463984D01*
X13555896Y-12463984D02*
X13517801Y-12463984D01*
X13517801Y-12463984D02*
X13498753Y-12454460D01*
X13679705Y-12444936D02*
X13689229Y-12454460D01*
X13689229Y-12454460D02*
X13679705Y-12463984D01*
X13679705Y-12463984D02*
X13670182Y-12454460D01*
X13670182Y-12454460D02*
X13679705Y-12444936D01*
X13679705Y-12444936D02*
X13679705Y-12463984D01*
X13679705Y-12340174D02*
X13689229Y-12349698D01*
X13689229Y-12349698D02*
X13679705Y-12359222D01*
X13679705Y-12359222D02*
X13670182Y-12349698D01*
X13670182Y-12349698D02*
X13679705Y-12340174D01*
X13679705Y-12340174D02*
X13679705Y-12359222D01*
X11847500Y-12692500D02*
X12047500Y-12892500D01*
X12047500Y-12692500D02*
X11847500Y-12892500D01*
X12289229Y-12683984D02*
X12413039Y-12683984D01*
X12413039Y-12683984D02*
X12346372Y-12760174D01*
X12346372Y-12760174D02*
X12374943Y-12760174D01*
X12374943Y-12760174D02*
X12393991Y-12769698D01*
X12393991Y-12769698D02*
X12403515Y-12779222D01*
X12403515Y-12779222D02*
X12413039Y-12798269D01*
X12413039Y-12798269D02*
X12413039Y-12845888D01*
X12413039Y-12845888D02*
X12403515Y-12864936D01*
X12403515Y-12864936D02*
X12393991Y-12874460D01*
X12393991Y-12874460D02*
X12374943Y-12883984D01*
X12374943Y-12883984D02*
X12317801Y-12883984D01*
X12317801Y-12883984D02*
X12298753Y-12874460D01*
X12298753Y-12874460D02*
X12289229Y-12864936D01*
X12498753Y-12864936D02*
X12508277Y-12874460D01*
X12508277Y-12874460D02*
X12498753Y-12883984D01*
X12498753Y-12883984D02*
X12489229Y-12874460D01*
X12489229Y-12874460D02*
X12498753Y-12864936D01*
X12498753Y-12864936D02*
X12498753Y-12883984D01*
X12632086Y-12683984D02*
X12651134Y-12683984D01*
X12651134Y-12683984D02*
X12670182Y-12693508D01*
X12670182Y-12693508D02*
X12679705Y-12703031D01*
X12679705Y-12703031D02*
X12689229Y-12722079D01*
X12689229Y-12722079D02*
X12698753Y-12760174D01*
X12698753Y-12760174D02*
X12698753Y-12807793D01*
X12698753Y-12807793D02*
X12689229Y-12845888D01*
X12689229Y-12845888D02*
X12679705Y-12864936D01*
X12679705Y-12864936D02*
X12670182Y-12874460D01*
X12670182Y-12874460D02*
X12651134Y-12883984D01*
X12651134Y-12883984D02*
X12632086Y-12883984D01*
X12632086Y-12883984D02*
X12613039Y-12874460D01*
X12613039Y-12874460D02*
X12603515Y-12864936D01*
X12603515Y-12864936D02*
X12593991Y-12845888D01*
X12593991Y-12845888D02*
X12584467Y-12807793D01*
X12584467Y-12807793D02*
X12584467Y-12760174D01*
X12584467Y-12760174D02*
X12593991Y-12722079D01*
X12593991Y-12722079D02*
X12603515Y-12703031D01*
X12603515Y-12703031D02*
X12613039Y-12693508D01*
X12613039Y-12693508D02*
X12632086Y-12683984D01*
X12822562Y-12683984D02*
X12841610Y-12683984D01*
X12841610Y-12683984D02*
X12860658Y-12693508D01*
X12860658Y-12693508D02*
X12870182Y-12703031D01*
X12870182Y-12703031D02*
X12879705Y-12722079D01*
X12879705Y-12722079D02*
X12889229Y-12760174D01*
X12889229Y-12760174D02*
X12889229Y-12807793D01*
X12889229Y-12807793D02*
X12879705Y-12845888D01*
X12879705Y-12845888D02*
X12870182Y-12864936D01*
X12870182Y-12864936D02*
X12860658Y-12874460D01*
X12860658Y-12874460D02*
X12841610Y-12883984D01*
X12841610Y-12883984D02*
X12822562Y-12883984D01*
X12822562Y-12883984D02*
X12803515Y-12874460D01*
X12803515Y-12874460D02*
X12793991Y-12864936D01*
X12793991Y-12864936D02*
X12784467Y-12845888D01*
X12784467Y-12845888D02*
X12774943Y-12807793D01*
X12774943Y-12807793D02*
X12774943Y-12760174D01*
X12774943Y-12760174D02*
X12784467Y-12722079D01*
X12784467Y-12722079D02*
X12793991Y-12703031D01*
X12793991Y-12703031D02*
X12803515Y-12693508D01*
X12803515Y-12693508D02*
X12822562Y-12683984D01*
X13013039Y-12683984D02*
X13032086Y-12683984D01*
X13032086Y-12683984D02*
X13051134Y-12693508D01*
X13051134Y-12693508D02*
X13060658Y-12703031D01*
X13060658Y-12703031D02*
X13070182Y-12722079D01*
X13070182Y-12722079D02*
X13079705Y-12760174D01*
X13079705Y-12760174D02*
X13079705Y-12807793D01*
X13079705Y-12807793D02*
X13070182Y-12845888D01*
X13070182Y-12845888D02*
X13060658Y-12864936D01*
X13060658Y-12864936D02*
X13051134Y-12874460D01*
X13051134Y-12874460D02*
X13032086Y-12883984D01*
X13032086Y-12883984D02*
X13013039Y-12883984D01*
X13013039Y-12883984D02*
X12993991Y-12874460D01*
X12993991Y-12874460D02*
X12984467Y-12864936D01*
X12984467Y-12864936D02*
X12974943Y-12845888D01*
X12974943Y-12845888D02*
X12965420Y-12807793D01*
X12965420Y-12807793D02*
X12965420Y-12760174D01*
X12965420Y-12760174D02*
X12974943Y-12722079D01*
X12974943Y-12722079D02*
X12984467Y-12703031D01*
X12984467Y-12703031D02*
X12993991Y-12693508D01*
X12993991Y-12693508D02*
X13013039Y-12683984D01*
X13165420Y-12883984D02*
X13165420Y-12750650D01*
X13165420Y-12769698D02*
X13174943Y-12760174D01*
X13174943Y-12760174D02*
X13193991Y-12750650D01*
X13193991Y-12750650D02*
X13222563Y-12750650D01*
X13222563Y-12750650D02*
X13241610Y-12760174D01*
X13241610Y-12760174D02*
X13251134Y-12779222D01*
X13251134Y-12779222D02*
X13251134Y-12883984D01*
X13251134Y-12779222D02*
X13260658Y-12760174D01*
X13260658Y-12760174D02*
X13279705Y-12750650D01*
X13279705Y-12750650D02*
X13308277Y-12750650D01*
X13308277Y-12750650D02*
X13327324Y-12760174D01*
X13327324Y-12760174D02*
X13336848Y-12779222D01*
X13336848Y-12779222D02*
X13336848Y-12883984D01*
X13432086Y-12883984D02*
X13432086Y-12750650D01*
X13432086Y-12769698D02*
X13441610Y-12760174D01*
X13441610Y-12760174D02*
X13460658Y-12750650D01*
X13460658Y-12750650D02*
X13489229Y-12750650D01*
X13489229Y-12750650D02*
X13508277Y-12760174D01*
X13508277Y-12760174D02*
X13517801Y-12779222D01*
X13517801Y-12779222D02*
X13517801Y-12883984D01*
X13517801Y-12779222D02*
X13527324Y-12760174D01*
X13527324Y-12760174D02*
X13546372Y-12750650D01*
X13546372Y-12750650D02*
X13574943Y-12750650D01*
X13574943Y-12750650D02*
X13593991Y-12760174D01*
X13593991Y-12760174D02*
X13603515Y-12779222D01*
X13603515Y-12779222D02*
X13603515Y-12883984D01*
X13993991Y-12674460D02*
X13822563Y-12931603D01*
X14251134Y-12683984D02*
X14270182Y-12683984D01*
X14270182Y-12683984D02*
X14289229Y-12693508D01*
X14289229Y-12693508D02*
X14298753Y-12703031D01*
X14298753Y-12703031D02*
X14308277Y-12722079D01*
X14308277Y-12722079D02*
X14317801Y-12760174D01*
X14317801Y-12760174D02*
X14317801Y-12807793D01*
X14317801Y-12807793D02*
X14308277Y-12845888D01*
X14308277Y-12845888D02*
X14298753Y-12864936D01*
X14298753Y-12864936D02*
X14289229Y-12874460D01*
X14289229Y-12874460D02*
X14270182Y-12883984D01*
X14270182Y-12883984D02*
X14251134Y-12883984D01*
X14251134Y-12883984D02*
X14232086Y-12874460D01*
X14232086Y-12874460D02*
X14222563Y-12864936D01*
X14222563Y-12864936D02*
X14213039Y-12845888D01*
X14213039Y-12845888D02*
X14203515Y-12807793D01*
X14203515Y-12807793D02*
X14203515Y-12760174D01*
X14203515Y-12760174D02*
X14213039Y-12722079D01*
X14213039Y-12722079D02*
X14222563Y-12703031D01*
X14222563Y-12703031D02*
X14232086Y-12693508D01*
X14232086Y-12693508D02*
X14251134Y-12683984D01*
X14403515Y-12864936D02*
X14413039Y-12874460D01*
X14413039Y-12874460D02*
X14403515Y-12883984D01*
X14403515Y-12883984D02*
X14393991Y-12874460D01*
X14393991Y-12874460D02*
X14403515Y-12864936D01*
X14403515Y-12864936D02*
X14403515Y-12883984D01*
X14603515Y-12883984D02*
X14489229Y-12883984D01*
X14546372Y-12883984D02*
X14546372Y-12683984D01*
X14546372Y-12683984D02*
X14527325Y-12712555D01*
X14527325Y-12712555D02*
X14508277Y-12731603D01*
X14508277Y-12731603D02*
X14489229Y-12741127D01*
X14793991Y-12883984D02*
X14679706Y-12883984D01*
X14736848Y-12883984D02*
X14736848Y-12683984D01*
X14736848Y-12683984D02*
X14717801Y-12712555D01*
X14717801Y-12712555D02*
X14698753Y-12731603D01*
X14698753Y-12731603D02*
X14679706Y-12741127D01*
X14908277Y-12769698D02*
X14889229Y-12760174D01*
X14889229Y-12760174D02*
X14879706Y-12750650D01*
X14879706Y-12750650D02*
X14870182Y-12731603D01*
X14870182Y-12731603D02*
X14870182Y-12722079D01*
X14870182Y-12722079D02*
X14879706Y-12703031D01*
X14879706Y-12703031D02*
X14889229Y-12693508D01*
X14889229Y-12693508D02*
X14908277Y-12683984D01*
X14908277Y-12683984D02*
X14946372Y-12683984D01*
X14946372Y-12683984D02*
X14965420Y-12693508D01*
X14965420Y-12693508D02*
X14974944Y-12703031D01*
X14974944Y-12703031D02*
X14984467Y-12722079D01*
X14984467Y-12722079D02*
X14984467Y-12731603D01*
X14984467Y-12731603D02*
X14974944Y-12750650D01*
X14974944Y-12750650D02*
X14965420Y-12760174D01*
X14965420Y-12760174D02*
X14946372Y-12769698D01*
X14946372Y-12769698D02*
X14908277Y-12769698D01*
X14908277Y-12769698D02*
X14889229Y-12779222D01*
X14889229Y-12779222D02*
X14879706Y-12788746D01*
X14879706Y-12788746D02*
X14870182Y-12807793D01*
X14870182Y-12807793D02*
X14870182Y-12845888D01*
X14870182Y-12845888D02*
X14879706Y-12864936D01*
X14879706Y-12864936D02*
X14889229Y-12874460D01*
X14889229Y-12874460D02*
X14908277Y-12883984D01*
X14908277Y-12883984D02*
X14946372Y-12883984D01*
X14946372Y-12883984D02*
X14965420Y-12874460D01*
X14965420Y-12874460D02*
X14974944Y-12864936D01*
X14974944Y-12864936D02*
X14984467Y-12845888D01*
X14984467Y-12845888D02*
X14984467Y-12807793D01*
X14984467Y-12807793D02*
X14974944Y-12788746D01*
X14974944Y-12788746D02*
X14965420Y-12779222D01*
X14965420Y-12779222D02*
X14946372Y-12769698D01*
X15174944Y-12883984D02*
X15060658Y-12883984D01*
X15117801Y-12883984D02*
X15117801Y-12683984D01*
X15117801Y-12683984D02*
X15098753Y-12712555D01*
X15098753Y-12712555D02*
X15079706Y-12731603D01*
X15079706Y-12731603D02*
X15060658Y-12741127D01*
X15251134Y-12683984D02*
X15251134Y-12722079D01*
X15327325Y-12683984D02*
X15327325Y-12722079D01*
X15622563Y-12960174D02*
X15613039Y-12950650D01*
X15613039Y-12950650D02*
X15593991Y-12922079D01*
X15593991Y-12922079D02*
X15584468Y-12903031D01*
X15584468Y-12903031D02*
X15574944Y-12874460D01*
X15574944Y-12874460D02*
X15565420Y-12826841D01*
X15565420Y-12826841D02*
X15565420Y-12788746D01*
X15565420Y-12788746D02*
X15574944Y-12741127D01*
X15574944Y-12741127D02*
X15584468Y-12712555D01*
X15584468Y-12712555D02*
X15593991Y-12693508D01*
X15593991Y-12693508D02*
X15613039Y-12664936D01*
X15613039Y-12664936D02*
X15622563Y-12655412D01*
X15679706Y-12683984D02*
X15803515Y-12683984D01*
X15803515Y-12683984D02*
X15736848Y-12760174D01*
X15736848Y-12760174D02*
X15765420Y-12760174D01*
X15765420Y-12760174D02*
X15784468Y-12769698D01*
X15784468Y-12769698D02*
X15793991Y-12779222D01*
X15793991Y-12779222D02*
X15803515Y-12798269D01*
X15803515Y-12798269D02*
X15803515Y-12845888D01*
X15803515Y-12845888D02*
X15793991Y-12864936D01*
X15793991Y-12864936D02*
X15784468Y-12874460D01*
X15784468Y-12874460D02*
X15765420Y-12883984D01*
X15765420Y-12883984D02*
X15708277Y-12883984D01*
X15708277Y-12883984D02*
X15689229Y-12874460D01*
X15689229Y-12874460D02*
X15679706Y-12864936D01*
X16041610Y-12883984D02*
X16041610Y-12683984D01*
X16127325Y-12883984D02*
X16127325Y-12779222D01*
X16127325Y-12779222D02*
X16117801Y-12760174D01*
X16117801Y-12760174D02*
X16098753Y-12750650D01*
X16098753Y-12750650D02*
X16070182Y-12750650D01*
X16070182Y-12750650D02*
X16051134Y-12760174D01*
X16051134Y-12760174D02*
X16041610Y-12769698D01*
X16251134Y-12883984D02*
X16232087Y-12874460D01*
X16232087Y-12874460D02*
X16222563Y-12864936D01*
X16222563Y-12864936D02*
X16213039Y-12845888D01*
X16213039Y-12845888D02*
X16213039Y-12788746D01*
X16213039Y-12788746D02*
X16222563Y-12769698D01*
X16222563Y-12769698D02*
X16232087Y-12760174D01*
X16232087Y-12760174D02*
X16251134Y-12750650D01*
X16251134Y-12750650D02*
X16279706Y-12750650D01*
X16279706Y-12750650D02*
X16298753Y-12760174D01*
X16298753Y-12760174D02*
X16308277Y-12769698D01*
X16308277Y-12769698D02*
X16317801Y-12788746D01*
X16317801Y-12788746D02*
X16317801Y-12845888D01*
X16317801Y-12845888D02*
X16308277Y-12864936D01*
X16308277Y-12864936D02*
X16298753Y-12874460D01*
X16298753Y-12874460D02*
X16279706Y-12883984D01*
X16279706Y-12883984D02*
X16251134Y-12883984D01*
X16432087Y-12883984D02*
X16413039Y-12874460D01*
X16413039Y-12874460D02*
X16403515Y-12855412D01*
X16403515Y-12855412D02*
X16403515Y-12683984D01*
X16584468Y-12874460D02*
X16565420Y-12883984D01*
X16565420Y-12883984D02*
X16527325Y-12883984D01*
X16527325Y-12883984D02*
X16508277Y-12874460D01*
X16508277Y-12874460D02*
X16498753Y-12855412D01*
X16498753Y-12855412D02*
X16498753Y-12779222D01*
X16498753Y-12779222D02*
X16508277Y-12760174D01*
X16508277Y-12760174D02*
X16527325Y-12750650D01*
X16527325Y-12750650D02*
X16565420Y-12750650D01*
X16565420Y-12750650D02*
X16584468Y-12760174D01*
X16584468Y-12760174D02*
X16593991Y-12779222D01*
X16593991Y-12779222D02*
X16593991Y-12798269D01*
X16593991Y-12798269D02*
X16498753Y-12817317D01*
X16670182Y-12874460D02*
X16689230Y-12883984D01*
X16689230Y-12883984D02*
X16727325Y-12883984D01*
X16727325Y-12883984D02*
X16746372Y-12874460D01*
X16746372Y-12874460D02*
X16755896Y-12855412D01*
X16755896Y-12855412D02*
X16755896Y-12845888D01*
X16755896Y-12845888D02*
X16746372Y-12826841D01*
X16746372Y-12826841D02*
X16727325Y-12817317D01*
X16727325Y-12817317D02*
X16698753Y-12817317D01*
X16698753Y-12817317D02*
X16679706Y-12807793D01*
X16679706Y-12807793D02*
X16670182Y-12788746D01*
X16670182Y-12788746D02*
X16670182Y-12779222D01*
X16670182Y-12779222D02*
X16679706Y-12760174D01*
X16679706Y-12760174D02*
X16698753Y-12750650D01*
X16698753Y-12750650D02*
X16727325Y-12750650D01*
X16727325Y-12750650D02*
X16746372Y-12760174D01*
X16822563Y-12960174D02*
X16832087Y-12950650D01*
X16832087Y-12950650D02*
X16851134Y-12922079D01*
X16851134Y-12922079D02*
X16860658Y-12903031D01*
X16860658Y-12903031D02*
X16870182Y-12874460D01*
X16870182Y-12874460D02*
X16879706Y-12826841D01*
X16879706Y-12826841D02*
X16879706Y-12788746D01*
X16879706Y-12788746D02*
X16870182Y-12741127D01*
X16870182Y-12741127D02*
X16860658Y-12712555D01*
X16860658Y-12712555D02*
X16851134Y-12693508D01*
X16851134Y-12693508D02*
X16832087Y-12664936D01*
X16832087Y-12664936D02*
X16822563Y-12655412D01*
X17184468Y-12960174D02*
X17174944Y-12950650D01*
X17174944Y-12950650D02*
X17155896Y-12922079D01*
X17155896Y-12922079D02*
X17146373Y-12903031D01*
X17146373Y-12903031D02*
X17136849Y-12874460D01*
X17136849Y-12874460D02*
X17127325Y-12826841D01*
X17127325Y-12826841D02*
X17127325Y-12788746D01*
X17127325Y-12788746D02*
X17136849Y-12741127D01*
X17136849Y-12741127D02*
X17146373Y-12712555D01*
X17146373Y-12712555D02*
X17155896Y-12693508D01*
X17155896Y-12693508D02*
X17174944Y-12664936D01*
X17174944Y-12664936D02*
X17184468Y-12655412D01*
X17260658Y-12750650D02*
X17260658Y-12883984D01*
X17260658Y-12769698D02*
X17270182Y-12760174D01*
X17270182Y-12760174D02*
X17289230Y-12750650D01*
X17289230Y-12750650D02*
X17317801Y-12750650D01*
X17317801Y-12750650D02*
X17336849Y-12760174D01*
X17336849Y-12760174D02*
X17346373Y-12779222D01*
X17346373Y-12779222D02*
X17346373Y-12883984D01*
X17470182Y-12883984D02*
X17451134Y-12874460D01*
X17451134Y-12874460D02*
X17441611Y-12864936D01*
X17441611Y-12864936D02*
X17432087Y-12845888D01*
X17432087Y-12845888D02*
X17432087Y-12788746D01*
X17432087Y-12788746D02*
X17441611Y-12769698D01*
X17441611Y-12769698D02*
X17451134Y-12760174D01*
X17451134Y-12760174D02*
X17470182Y-12750650D01*
X17470182Y-12750650D02*
X17498754Y-12750650D01*
X17498754Y-12750650D02*
X17517801Y-12760174D01*
X17517801Y-12760174D02*
X17527325Y-12769698D01*
X17527325Y-12769698D02*
X17536849Y-12788746D01*
X17536849Y-12788746D02*
X17536849Y-12845888D01*
X17536849Y-12845888D02*
X17527325Y-12864936D01*
X17527325Y-12864936D02*
X17517801Y-12874460D01*
X17517801Y-12874460D02*
X17498754Y-12883984D01*
X17498754Y-12883984D02*
X17470182Y-12883984D01*
X17593992Y-12750650D02*
X17670182Y-12750650D01*
X17622563Y-12683984D02*
X17622563Y-12855412D01*
X17622563Y-12855412D02*
X17632087Y-12874460D01*
X17632087Y-12874460D02*
X17651134Y-12883984D01*
X17651134Y-12883984D02*
X17670182Y-12883984D01*
X17889230Y-12750650D02*
X17889230Y-12950650D01*
X17889230Y-12760174D02*
X17908277Y-12750650D01*
X17908277Y-12750650D02*
X17946373Y-12750650D01*
X17946373Y-12750650D02*
X17965420Y-12760174D01*
X17965420Y-12760174D02*
X17974944Y-12769698D01*
X17974944Y-12769698D02*
X17984468Y-12788746D01*
X17984468Y-12788746D02*
X17984468Y-12845888D01*
X17984468Y-12845888D02*
X17974944Y-12864936D01*
X17974944Y-12864936D02*
X17965420Y-12874460D01*
X17965420Y-12874460D02*
X17946373Y-12883984D01*
X17946373Y-12883984D02*
X17908277Y-12883984D01*
X17908277Y-12883984D02*
X17889230Y-12874460D01*
X18098754Y-12883984D02*
X18079706Y-12874460D01*
X18079706Y-12874460D02*
X18070182Y-12855412D01*
X18070182Y-12855412D02*
X18070182Y-12683984D01*
X18260658Y-12883984D02*
X18260658Y-12779222D01*
X18260658Y-12779222D02*
X18251135Y-12760174D01*
X18251135Y-12760174D02*
X18232087Y-12750650D01*
X18232087Y-12750650D02*
X18193992Y-12750650D01*
X18193992Y-12750650D02*
X18174944Y-12760174D01*
X18260658Y-12874460D02*
X18241611Y-12883984D01*
X18241611Y-12883984D02*
X18193992Y-12883984D01*
X18193992Y-12883984D02*
X18174944Y-12874460D01*
X18174944Y-12874460D02*
X18165420Y-12855412D01*
X18165420Y-12855412D02*
X18165420Y-12836365D01*
X18165420Y-12836365D02*
X18174944Y-12817317D01*
X18174944Y-12817317D02*
X18193992Y-12807793D01*
X18193992Y-12807793D02*
X18241611Y-12807793D01*
X18241611Y-12807793D02*
X18260658Y-12798269D01*
X18327325Y-12750650D02*
X18403515Y-12750650D01*
X18355896Y-12683984D02*
X18355896Y-12855412D01*
X18355896Y-12855412D02*
X18365420Y-12874460D01*
X18365420Y-12874460D02*
X18384468Y-12883984D01*
X18384468Y-12883984D02*
X18403515Y-12883984D01*
X18546373Y-12874460D02*
X18527325Y-12883984D01*
X18527325Y-12883984D02*
X18489230Y-12883984D01*
X18489230Y-12883984D02*
X18470182Y-12874460D01*
X18470182Y-12874460D02*
X18460658Y-12855412D01*
X18460658Y-12855412D02*
X18460658Y-12779222D01*
X18460658Y-12779222D02*
X18470182Y-12760174D01*
X18470182Y-12760174D02*
X18489230Y-12750650D01*
X18489230Y-12750650D02*
X18527325Y-12750650D01*
X18527325Y-12750650D02*
X18546373Y-12760174D01*
X18546373Y-12760174D02*
X18555896Y-12779222D01*
X18555896Y-12779222D02*
X18555896Y-12798269D01*
X18555896Y-12798269D02*
X18460658Y-12817317D01*
X18727325Y-12883984D02*
X18727325Y-12683984D01*
X18727325Y-12874460D02*
X18708277Y-12883984D01*
X18708277Y-12883984D02*
X18670182Y-12883984D01*
X18670182Y-12883984D02*
X18651135Y-12874460D01*
X18651135Y-12874460D02*
X18641611Y-12864936D01*
X18641611Y-12864936D02*
X18632087Y-12845888D01*
X18632087Y-12845888D02*
X18632087Y-12788746D01*
X18632087Y-12788746D02*
X18641611Y-12769698D01*
X18641611Y-12769698D02*
X18651135Y-12760174D01*
X18651135Y-12760174D02*
X18670182Y-12750650D01*
X18670182Y-12750650D02*
X18708277Y-12750650D01*
X18708277Y-12750650D02*
X18727325Y-12760174D01*
X18803516Y-12960174D02*
X18813039Y-12950650D01*
X18813039Y-12950650D02*
X18832087Y-12922079D01*
X18832087Y-12922079D02*
X18841611Y-12903031D01*
X18841611Y-12903031D02*
X18851135Y-12874460D01*
X18851135Y-12874460D02*
X18860658Y-12826841D01*
X18860658Y-12826841D02*
X18860658Y-12788746D01*
X18860658Y-12788746D02*
X18851135Y-12741127D01*
X18851135Y-12741127D02*
X18841611Y-12712555D01*
X18841611Y-12712555D02*
X18832087Y-12693508D01*
X18832087Y-12693508D02*
X18813039Y-12664936D01*
X18813039Y-12664936D02*
X18803516Y-12655412D01*
M02*
