%TF.GenerationSoftware,KiCad,Pcbnew,9.0.3*%
%TF.CreationDate,2025-10-02T05:44:05-04:00*%
%TF.ProjectId,Spii_v3,53706969-5f76-4332-9e6b-696361645f70,rev?*%
%TF.SameCoordinates,Original*%
%TF.FileFunction,Copper,L1,Top*%
%TF.FilePolarity,Positive*%
%FSLAX46Y46*%
G04 Gerber Fmt 4.6, Leading zero omitted, Abs format (unit mm)*
G04 Created by KiCad (PCBNEW 9.0.3) date 2025-10-02 05:44:05*
%MOMM*%
%LPD*%
G01*
G04 APERTURE LIST*
G04 Aperture macros list*
%AMRoundRect*
0 Rectangle with rounded corners*
0 $1 Rounding radius*
0 $2 $3 $4 $5 $6 $7 $8 $9 X,Y pos of 4 corners*
0 Add a 4 corners polygon primitive as box body*
4,1,4,$2,$3,$4,$5,$6,$7,$8,$9,$2,$3,0*
0 Add four circle primitives for the rounded corners*
1,1,$1+$1,$2,$3*
1,1,$1+$1,$4,$5*
1,1,$1+$1,$6,$7*
1,1,$1+$1,$8,$9*
0 Add four rect primitives between the rounded corners*
20,1,$1+$1,$2,$3,$4,$5,0*
20,1,$1+$1,$4,$5,$6,$7,0*
20,1,$1+$1,$6,$7,$8,$9,0*
20,1,$1+$1,$8,$9,$2,$3,0*%
G04 Aperture macros list end*
%TA.AperFunction,ComponentPad*%
%ADD10R,1.700000X1.700000*%
%TD*%
%TA.AperFunction,ComponentPad*%
%ADD11C,1.700000*%
%TD*%
%TA.AperFunction,ComponentPad*%
%ADD12C,2.550000*%
%TD*%
%TA.AperFunction,SMDPad,CuDef*%
%ADD13RoundRect,0.250001X-0.462499X-0.624999X0.462499X-0.624999X0.462499X0.624999X-0.462499X0.624999X0*%
%TD*%
%TA.AperFunction,SMDPad,CuDef*%
%ADD14RoundRect,0.250001X0.624999X-0.462499X0.624999X0.462499X-0.624999X0.462499X-0.624999X-0.462499X0*%
%TD*%
%TA.AperFunction,ComponentPad*%
%ADD15R,1.300000X1.300000*%
%TD*%
%TA.AperFunction,ComponentPad*%
%ADD16C,1.300000*%
%TD*%
%TA.AperFunction,ComponentPad*%
%ADD17R,1.270000X1.270000*%
%TD*%
%TA.AperFunction,ComponentPad*%
%ADD18C,1.270000*%
%TD*%
%TA.AperFunction,ComponentPad*%
%ADD19R,2.794000X2.794000*%
%TD*%
%TA.AperFunction,ComponentPad*%
%ADD20C,2.794000*%
%TD*%
%TA.AperFunction,ComponentPad*%
%ADD21RoundRect,0.760000X-1.140000X-1.140000X1.140000X-1.140000X1.140000X1.140000X-1.140000X1.140000X0*%
%TD*%
%TA.AperFunction,ComponentPad*%
%ADD22C,4.000000*%
%TD*%
%TA.AperFunction,ComponentPad*%
%ADD23C,2.000000*%
%TD*%
%TA.AperFunction,ComponentPad*%
%ADD24C,1.530000*%
%TD*%
%TA.AperFunction,ViaPad*%
%ADD25C,0.600000*%
%TD*%
%TA.AperFunction,Conductor*%
%ADD26C,0.200000*%
%TD*%
%TA.AperFunction,Conductor*%
%ADD27C,0.600000*%
%TD*%
G04 APERTURE END LIST*
D10*
%TO.P,TV1,1,Pin_1*%
%TO.N,LCD_SDA*%
X185120000Y-127000000D03*
D11*
%TO.P,TV1,2,Pin_2*%
%TO.N,LCD_SCL*%
X182580000Y-127000000D03*
%TO.P,TV1,3,Pin_3*%
%TO.N,+3.3V*%
X180040000Y-127000000D03*
%TO.P,TV1,4,Pin_4*%
%TO.N,GND*%
X177500000Y-127000000D03*
%TD*%
D10*
%TO.P,J9,1,Pin_1*%
%TO.N,Net-(J9-Pin_1)*%
X196750000Y-123475000D03*
D11*
%TO.P,J9,2,Pin_2*%
%TO.N,Net-(J9-Pin_2)*%
X199290000Y-123475000D03*
%TD*%
D10*
%TO.P,-       +,1,Pin_1*%
%TO.N,Net-(J10-Pin_1)*%
X160460000Y-123475000D03*
D11*
%TO.P,-       +,2,Pin_2*%
%TO.N,Net-(J10-Pin_2)*%
X163000000Y-123475000D03*
%TD*%
D12*
%TO.P,F1,2_2*%
%TO.N,Net-(U2-+VIN)*%
X214500000Y-141500000D03*
%TO.P,F1,2_1*%
X210840000Y-141500000D03*
%TO.P,F1,1_2*%
%TO.N,+12V*%
X206370000Y-141500000D03*
%TO.P,F1,1_1*%
X202710000Y-141500000D03*
%TD*%
D13*
%TO.P,-       +,2,A*%
%TO.N,Button*%
X149500000Y-129750000D03*
%TO.P,-       +,1,K*%
%TO.N,Net-(D6-K)*%
X146525000Y-129750000D03*
%TD*%
D14*
%TO.P,-       +,1,K*%
%TO.N,GND*%
X203500000Y-123487500D03*
%TO.P,-       +,2,A*%
%TO.N,Net-(D5-A)*%
X203500000Y-120512500D03*
%TD*%
%TO.P,-       +,1,K*%
%TO.N,GND*%
X176500000Y-123487500D03*
%TO.P,-       +,2,A*%
%TO.N,Net-(D2-A)*%
X176500000Y-120512500D03*
%TD*%
%TO.P,-+,1,K*%
%TO.N,GND*%
X156500000Y-123500000D03*
%TO.P,-+,2,A*%
%TO.N,Net-(D1-A)*%
X156500000Y-120525000D03*
%TD*%
%TO.P,-       +,1,K*%
%TO.N,GND*%
X183500000Y-123487500D03*
%TO.P,-       +,2,A*%
%TO.N,Net-(D4-A)*%
X183500000Y-120512500D03*
%TD*%
%TO.P,-       +,1,K*%
%TO.N,GND*%
X180000000Y-123487500D03*
%TO.P,-       +,2,A*%
%TO.N,Net-(D3-A)*%
X180000000Y-120512500D03*
%TD*%
D10*
%TO.P,IR_PWR,1,Pin_1*%
%TO.N,+3.3|5*%
X164830000Y-143475000D03*
D11*
%TO.P,IR_PWR,2,Pin_2*%
%TO.N,GND*%
X167370000Y-143475000D03*
%TD*%
D10*
%TO.P,SIGNAL1,1,Pin_1*%
%TO.N,L_IR_RAW*%
X177420000Y-143500000D03*
D11*
%TO.P,SIGNAL1,2,Pin_2*%
%TO.N,M_IR_RAW*%
X179960000Y-143500000D03*
%TO.P,SIGNAL1,3,Pin_3*%
%TO.N,R_IR_RAW*%
X182500000Y-143500000D03*
%TO.P,SIGNAL1,4,Pin_4*%
%TO.N,L_LN*%
X185040000Y-143500000D03*
%TO.P,SIGNAL1,5,Pin_5*%
%TO.N,R_LN*%
X187580000Y-143500000D03*
%TD*%
D10*
%TO.P,LN_PWR,1,Pin_1*%
%TO.N,+3.3V*%
X171080000Y-143500000D03*
D11*
%TO.P,LN_PWR,2,Pin_2*%
%TO.N,GND*%
X173620000Y-143500000D03*
%TD*%
D10*
%TO.P,START_MOD1,1,Pin_1*%
%TO.N,+5V*%
X171080000Y-128920000D03*
D11*
%TO.P,START_MOD1,2,Pin_2*%
%TO.N,GND*%
X171080000Y-131460000D03*
%TO.P,START_MOD1,3,Pin_3*%
%TO.N,START_MOD_RAW*%
X171080000Y-134000000D03*
%TD*%
D15*
%TO.P,SW_DIP1,1*%
%TO.N,+3.3V*%
X153460000Y-144120000D03*
D16*
%TO.P,SW_DIP1,2*%
X156000000Y-144120000D03*
%TO.P,SW_DIP1,3*%
%TO.N,DIP2*%
X156000000Y-136500000D03*
%TO.P,SW_DIP1,4*%
%TO.N,DIP1*%
X153460000Y-136500000D03*
%TD*%
D17*
%TO.P,U2,1,+VIN*%
%TO.N,Net-(U2-+VIN)*%
X222540000Y-135460000D03*
D18*
%TO.P,U2,2,GND*%
%TO.N,GND*%
X222540000Y-138000000D03*
%TO.P,U2,3,+VOUT*%
%TO.N,+5V*%
X222540000Y-140540000D03*
%TD*%
D19*
%TO.P,SW3,1,1*%
%TO.N,Net-(J7-Pin_2)*%
X146250000Y-134852000D03*
D20*
%TO.P,SW3,2,2*%
%TO.N,+12V*%
X146250000Y-139551000D03*
%TO.P,SW3,3,3*%
%TO.N,unconnected-(SW3-Pad3)*%
X146250000Y-144250000D03*
%TD*%
D21*
%TO.P,J7,1,Pin_1*%
%TO.N,GND*%
X209500000Y-125000000D03*
D22*
%TO.P,J7,2,Pin_2*%
%TO.N,Net-(J7-Pin_2)*%
X214500000Y-125000000D03*
%TD*%
D23*
%TO.P,SW1,1,1*%
%TO.N,+3.3V*%
X144750000Y-122250000D03*
X151250000Y-122250000D03*
%TO.P,SW1,2,2*%
%TO.N,Button*%
X144750000Y-126750000D03*
X151250000Y-126750000D03*
%TD*%
D19*
%TO.P,SW2,1,1*%
%TO.N,+3.3V*%
X138250000Y-134852000D03*
D20*
%TO.P,SW2,2,2*%
%TO.N,+3.3|5*%
X138250000Y-139551000D03*
%TO.P,SW2,3,3*%
%TO.N,+5V*%
X138250000Y-144250000D03*
%TD*%
D24*
%TO.P,Teensy 4.0,0,0*%
%TO.N,L_IN1*%
X221700000Y-130000000D03*
%TO.P,Teensy 4.0,1,1*%
%TO.N,L_IN2*%
X219160000Y-130000000D03*
%TO.P,Teensy 4.0,2,2*%
%TO.N,R_IN1*%
X216620000Y-130000000D03*
%TO.P,Teensy 4.0,3,3*%
%TO.N,R_IN2*%
X214080000Y-130000000D03*
%TO.P,Teensy 4.0,3.3V_1,3.3V_1*%
%TO.N,unconnected-(Teensy 4.0-Pad3.3V_1)*%
X191220000Y-135080000D03*
%TO.P,Teensy 4.0,3.3V_2,3.3V_2*%
%TO.N,+3.3V*%
X219160000Y-145240000D03*
%TO.P,Teensy 4.0,4,4*%
%TO.N,L_IR*%
X211540000Y-130000000D03*
%TO.P,Teensy 4.0,5,5*%
%TO.N,M_IR*%
X209000000Y-130000000D03*
%TO.P,Teensy 4.0,6,6*%
%TO.N,R_IR*%
X206460000Y-130000000D03*
%TO.P,Teensy 4.0,7,7*%
%TO.N,unconnected-(Teensy 4.0-Pad7)*%
X203920000Y-130000000D03*
%TO.P,Teensy 4.0,8,8*%
%TO.N,unconnected-(Teensy 4.0-Pad8)*%
X201380000Y-130000000D03*
%TO.P,Teensy 4.0,9,9*%
%TO.N,START_MOD*%
X198840000Y-130000000D03*
%TO.P,Teensy 4.0,10,10*%
%TO.N,Button*%
X196300000Y-130000000D03*
%TO.P,Teensy 4.0,11,11*%
%TO.N,DIP1*%
X193760000Y-130000000D03*
%TO.P,Teensy 4.0,12,12*%
%TO.N,DIP2*%
X191220000Y-130000000D03*
%TO.P,Teensy 4.0,13,13*%
%TO.N,LED5*%
X191220000Y-145240000D03*
%TO.P,Teensy 4.0,14,14*%
%TO.N,LED4*%
X193760000Y-145240000D03*
%TO.P,Teensy 4.0,15,15*%
%TO.N,LED3*%
X196300000Y-145240000D03*
%TO.P,Teensy 4.0,16,16*%
%TO.N,LED2*%
X198840000Y-145240000D03*
%TO.P,Teensy 4.0,17,17*%
%TO.N,LED1*%
X201380000Y-145240000D03*
%TO.P,Teensy 4.0,18,18*%
%TO.N,LCD_SDA*%
X203920000Y-145240000D03*
%TO.P,Teensy 4.0,19,19*%
%TO.N,LCD_SCL*%
X206460000Y-145240000D03*
%TO.P,Teensy 4.0,20,20*%
%TO.N,unconnected-(Teensy 4.0-Pad20)*%
X209000000Y-145240000D03*
%TO.P,Teensy 4.0,21,21*%
%TO.N,unconnected-(Teensy 4.0-Pad21)*%
X211540000Y-145240000D03*
%TO.P,Teensy 4.0,22,22*%
%TO.N,R_LN*%
X214080000Y-145240000D03*
%TO.P,Teensy 4.0,23,23*%
%TO.N,L_LN*%
X216620000Y-145240000D03*
%TO.P,Teensy 4.0,G1,G1*%
%TO.N,GND*%
X224240000Y-130000000D03*
%TO.P,Teensy 4.0,G2,G2*%
X191220000Y-137620000D03*
%TO.P,Teensy 4.0,G3,G3*%
X221700000Y-145240000D03*
%TO.P,Teensy 4.0,ON-OFF,ON/OFF*%
%TO.N,unconnected-(Teensy 4.0-ON{slash}OFF-PadON-OFF)*%
X191220000Y-142700000D03*
%TO.P,Teensy 4.0,PGM,PROGRAM*%
%TO.N,unconnected-(Teensy 4.0-PROGRAM-PadPGM)*%
X191220000Y-140160000D03*
%TO.P,Teensy 4.0,VBAT,VBAT*%
%TO.N,unconnected-(Teensy 4.0-PadVBAT)*%
X191220000Y-132540000D03*
%TO.P,Teensy 4.0,VIN,VIN*%
%TO.N,+5V*%
X224240000Y-145240000D03*
%TD*%
D25*
%TO.N,GND*%
X183500000Y-123312500D03*
X180000000Y-123400000D03*
X180000000Y-123400000D03*
X160750000Y-120750000D03*
X158250000Y-123250000D03*
X164750000Y-146000000D03*
X195750000Y-121200000D03*
X185900000Y-121200000D03*
X177000000Y-135770000D03*
X181600000Y-135750000D03*
X189000000Y-136850000D03*
X215602122Y-134147878D03*
%TO.N,Net-(J9-Pin_2)*%
X194750000Y-122800000D03*
X180301473Y-130600000D03*
X182000000Y-122800000D03*
X188100735Y-122800000D03*
%TO.N,Net-(D5-A)*%
X203500000Y-121200000D03*
%TO.N,Net-(D4-A)*%
X183500000Y-121200000D03*
%TO.N,Net-(D3-A)*%
X180000000Y-121200000D03*
%TO.N,Net-(D2-A)*%
X176500000Y-121200000D03*
%TO.N,Net-(D1-A)*%
X156500000Y-121200000D03*
%TO.N,Net-(D6-K)*%
X145962500Y-129750000D03*
%TO.N,Button*%
X154000000Y-121350000D03*
%TO.N,+3.3|5*%
X176824774Y-140205596D03*
%TO.N,+3.3V*%
X174839265Y-136910735D03*
X190000000Y-134250000D03*
%TO.N,LCD_SCL*%
X192139952Y-124991422D03*
X210198528Y-128350000D03*
%TO.N,LCD_SDA*%
X187424265Y-128174265D03*
%TO.N,+3.3V*%
X219500000Y-147700000D03*
X220826000Y-144250000D03*
%TO.N,+5V*%
X166500000Y-128187500D03*
X162500000Y-132750000D03*
%TO.N,Net-(L_MOTOR_DRIVER1-ILIM)*%
X185655000Y-133850000D03*
X172863101Y-134934571D03*
X171312681Y-136437834D03*
X164000000Y-135750000D03*
%TO.N,Net-(R_MOTOR_DRIVER1-ILIM)*%
X178905000Y-133449000D03*
X166500000Y-135750000D03*
X170902818Y-135750800D03*
X172400200Y-134282094D03*
%TO.N,Net-(J9-Pin_1)*%
X192192235Y-126740765D03*
X181101955Y-131666000D03*
X189730920Y-129133000D03*
%TO.N,Net-(J10-Pin_2)*%
X179750000Y-131848000D03*
%TO.N,LED2*%
X176100000Y-141658645D03*
%TO.N,LED3*%
X175617417Y-141018888D03*
%TO.N,LED4*%
X183500000Y-124700000D03*
X191574265Y-124425735D03*
X206901473Y-119300000D03*
%TO.N,LED5*%
X207750000Y-119300000D03*
%TO.N,L_IN1*%
X184385000Y-133449000D03*
X187250000Y-133449000D03*
%TO.N,R_IN2*%
X176974212Y-131375683D03*
%TO.N,DIP1*%
X159000000Y-135700000D03*
%TO.N,DIP2*%
X161500000Y-135700000D03*
%TO.N,L_IR_RAW*%
X192500000Y-138094000D03*
%TO.N,START_MOD_RAW*%
X199210000Y-134450000D03*
%TO.N,START_MOD*%
X197290000Y-134450000D03*
%TO.N,L_IR_RAW*%
X203266152Y-136192378D03*
%TO.N,M_IR_RAW*%
X201880735Y-135880735D03*
X203854265Y-135604265D03*
%TO.N,L_IR*%
X212290000Y-134450000D03*
%TO.N,M_IR*%
X207290000Y-134450000D03*
%TO.N,R_IR*%
X202290000Y-134450000D03*
%TO.N,+12V*%
X154000000Y-128187500D03*
X185750000Y-138894000D03*
X179000000Y-138894000D03*
%TO.N,GND*%
X199500000Y-137251000D03*
X202875000Y-137375000D03*
%TD*%
D26*
%TO.N,GND*%
X180000000Y-123487500D02*
X180000000Y-123400000D01*
X176500000Y-123487500D02*
X180000000Y-123487500D01*
X176500000Y-126000000D02*
X176500000Y-123487500D01*
X177500000Y-127000000D02*
X176500000Y-126000000D01*
X158000000Y-123500000D02*
X158250000Y-123250000D01*
X156500000Y-123500000D02*
X158000000Y-123500000D01*
X185900000Y-121200000D02*
X195750000Y-121200000D01*
X177020000Y-135750000D02*
X177000000Y-135770000D01*
X181600000Y-135750000D02*
X177020000Y-135750000D01*
X190450000Y-136850000D02*
X189000000Y-136850000D01*
X191220000Y-137620000D02*
X190450000Y-136850000D01*
%TO.N,START_MOD_RAW*%
X174238265Y-137158265D02*
X171080000Y-134000000D01*
X174238265Y-137159678D02*
X174238265Y-137158265D01*
X175373000Y-138293000D02*
X174591735Y-137511735D01*
X186524100Y-138293000D02*
X175373000Y-138293000D01*
X174590322Y-137511735D02*
X174238265Y-137159678D01*
X197500000Y-136250000D02*
X188567100Y-136250000D01*
X199210000Y-134540000D02*
X197500000Y-136250000D01*
X188567100Y-136250000D02*
X186524100Y-138293000D01*
X174591735Y-137511735D02*
X174590322Y-137511735D01*
X199210000Y-134450000D02*
X199210000Y-134540000D01*
%TO.N,M_IR_RAW*%
X203750000Y-135500000D02*
X203854265Y-135604265D01*
X202261470Y-135500000D02*
X203750000Y-135500000D01*
X201880735Y-135880735D02*
X202261470Y-135500000D01*
%TO.N,Net-(J9-Pin_1)*%
X189531920Y-128934000D02*
X189730920Y-129133000D01*
X183383100Y-128934000D02*
X189531920Y-128934000D01*
X181101955Y-131215145D02*
X183383100Y-128934000D01*
X181101955Y-131666000D02*
X181101955Y-131215145D01*
%TO.N,Net-(J9-Pin_2)*%
X181429000Y-123371000D02*
X182000000Y-122800000D01*
X181429000Y-129753900D02*
X181429000Y-123371000D01*
X180582900Y-130600000D02*
X181429000Y-129753900D01*
X180301473Y-130600000D02*
X180582900Y-130600000D01*
X194551000Y-122601000D02*
X194750000Y-122800000D01*
X188299735Y-122601000D02*
X194551000Y-122601000D01*
X188100735Y-122800000D02*
X188299735Y-122601000D01*
%TO.N,Net-(D5-A)*%
X203500000Y-120512500D02*
X203500000Y-121200000D01*
%TO.N,Net-(D4-A)*%
X183500000Y-120512500D02*
X183500000Y-121200000D01*
%TO.N,Net-(D3-A)*%
X180000000Y-120512500D02*
X180000000Y-121200000D01*
%TO.N,Net-(D2-A)*%
X176500000Y-120512500D02*
X176500000Y-121200000D01*
%TO.N,Net-(D1-A)*%
X156500000Y-120525000D02*
X156500000Y-121200000D01*
%TO.N,Net-(D6-K)*%
X146525000Y-129750000D02*
X145962500Y-129750000D01*
%TO.N,Button*%
X151250000Y-124100000D02*
X154000000Y-121350000D01*
X151250000Y-126750000D02*
X151250000Y-124100000D01*
X149500000Y-128500000D02*
X151250000Y-126750000D01*
X149500000Y-129750000D02*
X149500000Y-128500000D01*
X146500000Y-126750000D02*
X149500000Y-129750000D01*
X144750000Y-126750000D02*
X146500000Y-126750000D01*
%TO.N,+3.3V*%
X144750000Y-122250000D02*
X151250000Y-122250000D01*
X138250000Y-128750000D02*
X144750000Y-122250000D01*
X138250000Y-134852000D02*
X138250000Y-128750000D01*
%TO.N,+3.3|5*%
X168810000Y-139495000D02*
X164830000Y-143475000D01*
X176114178Y-139495000D02*
X168810000Y-139495000D01*
X176824774Y-140205596D02*
X176114178Y-139495000D01*
%TO.N,LED3*%
X195234000Y-144174000D02*
X196300000Y-145240000D01*
X190576000Y-144174000D02*
X195234000Y-144174000D01*
X189250000Y-145500000D02*
X190576000Y-144174000D01*
X175500000Y-144500000D02*
X176500000Y-145500000D01*
X175617417Y-141076583D02*
X175500000Y-141194000D01*
X175617417Y-141018888D02*
X175617417Y-141076583D01*
X175500000Y-141194000D02*
X175500000Y-144500000D01*
X176500000Y-145500000D02*
X189250000Y-145500000D01*
%TO.N,+3.3V*%
X175750000Y-137821470D02*
X174839265Y-136910735D01*
X175750000Y-137892000D02*
X175750000Y-137821470D01*
X186358000Y-137892000D02*
X175750000Y-137892000D01*
X190000000Y-134250000D02*
X186358000Y-137892000D01*
%TO.N,LCD_SCL*%
X210467000Y-128618472D02*
X210198528Y-128350000D01*
X210467000Y-138880000D02*
X210467000Y-128618472D01*
X208347000Y-141000000D02*
X210467000Y-138880000D01*
X208347000Y-142318901D02*
X208347000Y-141000000D01*
X206460000Y-144205901D02*
X208347000Y-142318901D01*
X206460000Y-145240000D02*
X206460000Y-144205901D01*
X184479000Y-125101000D02*
X182580000Y-127000000D01*
X192139952Y-124991422D02*
X192030374Y-125101000D01*
X192030374Y-125101000D02*
X184479000Y-125101000D01*
%TO.N,LCD_SDA*%
X209151000Y-128151000D02*
X187447530Y-128151000D01*
X207924401Y-140825599D02*
X210066000Y-138684000D01*
X210066000Y-129066000D02*
X209151000Y-128151000D01*
X207946000Y-140847199D02*
X207924401Y-140825599D01*
X204858801Y-145240000D02*
X207946000Y-142152801D01*
X210066000Y-138684000D02*
X210066000Y-129066000D01*
X203920000Y-145240000D02*
X204858801Y-145240000D01*
X207946000Y-142152801D02*
X207946000Y-140847199D01*
X187447530Y-128151000D02*
X187424265Y-128174265D01*
%TO.N,R_IN2*%
X177099895Y-131250000D02*
X176974212Y-131375683D01*
X179498057Y-131250000D02*
X177099895Y-131250000D01*
X180503000Y-131247000D02*
X179501057Y-131247000D01*
X179501057Y-131247000D02*
X179498057Y-131250000D01*
X186217000Y-128533000D02*
X183217000Y-128533000D01*
X186783500Y-127966500D02*
X186217000Y-128533000D01*
X186823265Y-127925322D02*
X186823265Y-127966500D01*
X187175322Y-127573265D02*
X186823265Y-127925322D01*
X187849943Y-127750000D02*
X187673208Y-127573265D01*
X187673208Y-127573265D02*
X187175322Y-127573265D01*
X211830000Y-127750000D02*
X187849943Y-127750000D01*
X214080000Y-130000000D02*
X211830000Y-127750000D01*
X183217000Y-128533000D02*
X180503000Y-131247000D01*
X186823265Y-127966500D02*
X186783500Y-127966500D01*
%TO.N,Net-(J9-Pin_1)*%
X195458000Y-123475000D02*
X196750000Y-123475000D01*
X192192235Y-126740765D02*
X195458000Y-123475000D01*
%TO.N,+3.3V*%
X220826000Y-144250000D02*
X220150000Y-144250000D01*
X220150000Y-144250000D02*
X219160000Y-145240000D01*
X190916100Y-147401000D02*
X219201000Y-147401000D01*
X219201000Y-147401000D02*
X219500000Y-147700000D01*
X189416100Y-145901000D02*
X190916100Y-147401000D01*
X173481000Y-145901000D02*
X189416100Y-145901000D01*
X171080000Y-143500000D02*
X173481000Y-145901000D01*
%TO.N,LED5*%
X225750000Y-147000000D02*
X192980000Y-147000000D01*
X226899000Y-122649000D02*
X226899000Y-145851000D01*
X192980000Y-147000000D02*
X191220000Y-145240000D01*
X223351000Y-119101000D02*
X226899000Y-122649000D01*
X226899000Y-145851000D02*
X225750000Y-147000000D01*
X208750000Y-119101000D02*
X223351000Y-119101000D01*
%TO.N,LED4*%
X207502473Y-119901000D02*
X206901473Y-119300000D01*
X208532900Y-119502000D02*
X208133900Y-119901000D01*
X226498000Y-122815100D02*
X223184900Y-119502000D01*
X223184900Y-119502000D02*
X208532900Y-119502000D01*
X225682900Y-146500000D02*
X226498000Y-145684900D01*
X195020000Y-146500000D02*
X225682900Y-146500000D01*
X226498000Y-145684900D02*
X226498000Y-122815100D01*
X208133900Y-119901000D02*
X207502473Y-119901000D01*
X193760000Y-145240000D02*
X195020000Y-146500000D01*
%TO.N,+3.3V*%
X151241000Y-141901000D02*
X153460000Y-144120000D01*
X138198665Y-141901000D02*
X151241000Y-141901000D01*
X136552000Y-140254335D02*
X138198665Y-141901000D01*
X136552000Y-136550000D02*
X136552000Y-140254335D01*
X138250000Y-134852000D02*
X136552000Y-136550000D01*
%TO.N,+3.3|5*%
X140199000Y-141500000D02*
X162855000Y-141500000D01*
X162855000Y-141500000D02*
X164830000Y-143475000D01*
X138250000Y-139551000D02*
X140199000Y-141500000D01*
%TO.N,+3.3V*%
X169810001Y-144769999D02*
X171080000Y-143500000D01*
X156649999Y-144769999D02*
X169810001Y-144769999D01*
X156000000Y-144120000D02*
X156649999Y-144769999D01*
X153460000Y-144120000D02*
X156000000Y-144120000D01*
%TO.N,+5V*%
X162500000Y-132750000D02*
X166500000Y-128750000D01*
X166500000Y-128750000D02*
X166500000Y-128187500D01*
%TO.N,Net-(L_MOTOR_DRIVER1-ILIM)*%
X185255000Y-134250000D02*
X185655000Y-133850000D01*
X173805541Y-134250000D02*
X185255000Y-134250000D01*
X172863101Y-134934571D02*
X173120970Y-134934571D01*
X173120970Y-134934571D02*
X173805541Y-134250000D01*
%TO.N,Net-(R_MOTOR_DRIVER1-ILIM)*%
X178706000Y-133250000D02*
X178905000Y-133449000D01*
X173432294Y-133250000D02*
X178706000Y-133250000D01*
X172400200Y-134282094D02*
X173432294Y-133250000D01*
%TO.N,Net-(L_MOTOR_DRIVER1-ILIM)*%
X164600800Y-136350800D02*
X164000000Y-135750000D01*
X171260759Y-136350800D02*
X164600800Y-136350800D01*
X171312681Y-136402722D02*
X171260759Y-136350800D01*
X171312681Y-136437834D02*
X171312681Y-136402722D01*
%TO.N,Net-(R_MOTOR_DRIVER1-ILIM)*%
X170782431Y-135750000D02*
X166500000Y-135750000D01*
X170902818Y-135750800D02*
X170783231Y-135750800D01*
X170783231Y-135750800D02*
X170782431Y-135750000D01*
%TO.N,R_IN2*%
X176875683Y-131375683D02*
X176974212Y-131375683D01*
%TO.N,Net-(J10-Pin_2)*%
X176797000Y-132047000D02*
X168225000Y-123475000D01*
X179551000Y-132047000D02*
X176797000Y-132047000D01*
X168225000Y-123475000D02*
X163000000Y-123475000D01*
X179750000Y-131848000D02*
X179551000Y-132047000D01*
%TO.N,LED2*%
X175901000Y-141857645D02*
X176100000Y-141658645D01*
X175901000Y-142500000D02*
X175901000Y-141857645D01*
X189083900Y-145099000D02*
X182000000Y-145099000D01*
X176158550Y-144591450D02*
X175901000Y-144333900D01*
X189966450Y-144216450D02*
X189083900Y-145099000D01*
X182000000Y-145099000D02*
X176666100Y-145099000D01*
X176666100Y-145099000D02*
X176158550Y-144591450D01*
X175901000Y-144333900D02*
X175901000Y-142500000D01*
X190409900Y-143773000D02*
X189966450Y-144216450D01*
X197373000Y-143773000D02*
X190409900Y-143773000D01*
X198840000Y-145240000D02*
X197373000Y-143773000D01*
%TO.N,LED4*%
X191300000Y-124700000D02*
X183500000Y-124700000D01*
X191574265Y-124425735D02*
X191300000Y-124700000D01*
%TO.N,LED5*%
X207949000Y-119101000D02*
X208750000Y-119101000D01*
X207750000Y-119300000D02*
X207949000Y-119101000D01*
X208699000Y-119101000D02*
X208750000Y-119101000D01*
%TO.N,L_IN1*%
X184584000Y-133250000D02*
X184385000Y-133449000D01*
X187051000Y-133250000D02*
X184584000Y-133250000D01*
X187250000Y-133449000D02*
X187051000Y-133250000D01*
%TO.N,DIP1*%
X159700000Y-135000000D02*
X159000000Y-135700000D01*
X161632900Y-135000000D02*
X159700000Y-135000000D01*
X164184900Y-132448000D02*
X161632900Y-135000000D01*
X172059000Y-130309000D02*
X169941000Y-130309000D01*
X169941000Y-130309000D02*
X167802000Y-132448000D01*
X174198000Y-132448000D02*
X172059000Y-130309000D01*
X187264448Y-132448000D02*
X174198000Y-132448000D01*
X190778448Y-128934000D02*
X187264448Y-132448000D01*
X167802000Y-132448000D02*
X164184900Y-132448000D01*
X192694000Y-128934000D02*
X190778448Y-128934000D01*
X193760000Y-130000000D02*
X192694000Y-128934000D01*
%TO.N,Net-(U2-+VIN)*%
X210840000Y-141500000D02*
X214500000Y-141500000D01*
X220540000Y-135460000D02*
X214500000Y-141500000D01*
X222540000Y-135460000D02*
X220540000Y-135460000D01*
%TO.N,+5V*%
X224240000Y-142240000D02*
X222540000Y-140540000D01*
X224240000Y-145240000D02*
X224240000Y-142240000D01*
%TO.N,L_IR_RAW*%
X202807530Y-136651000D02*
X203266152Y-136192378D01*
X194099000Y-136651000D02*
X202807530Y-136651000D01*
X192656000Y-138094000D02*
X194099000Y-136651000D01*
X192500000Y-138094000D02*
X192656000Y-138094000D01*
%TO.N,START_MOD*%
X198840000Y-132900000D02*
X197290000Y-134450000D01*
X198840000Y-130000000D02*
X198840000Y-132900000D01*
%TO.N,L_IR*%
X211540000Y-133700000D02*
X212290000Y-134450000D01*
X211540000Y-130000000D02*
X211540000Y-133700000D01*
%TO.N,M_IR*%
X209000000Y-132740000D02*
X207290000Y-134450000D01*
X209000000Y-130000000D02*
X209000000Y-132740000D01*
%TO.N,R_IR*%
X202290000Y-134170000D02*
X202290000Y-134450000D01*
X206460000Y-130000000D02*
X202290000Y-134170000D01*
D27*
%TO.N,+12V*%
X148500000Y-138894000D02*
X179000000Y-138894000D01*
X185750000Y-138894000D02*
X200104000Y-138894000D01*
X179000000Y-138894000D02*
X185750000Y-138894000D01*
X202710000Y-141500000D02*
X206370000Y-141500000D01*
X200104000Y-138894000D02*
X202710000Y-141500000D01*
X146907000Y-138894000D02*
X148500000Y-138894000D01*
X146250000Y-139551000D02*
X146907000Y-138894000D01*
%TO.N,Net-(J7-Pin_2)*%
X148247000Y-134852000D02*
X146250000Y-134852000D01*
X152751000Y-130348000D02*
X148247000Y-134852000D01*
X155843498Y-122000000D02*
X152751000Y-125092498D01*
X211500000Y-122000000D02*
X155843498Y-122000000D01*
X152751000Y-125092498D02*
X152751000Y-130348000D01*
X214500000Y-125000000D02*
X211500000Y-122000000D01*
%TO.N,+12V*%
X153552000Y-130679785D02*
X153552000Y-128635500D01*
X153500000Y-130731786D02*
X153552000Y-130679785D01*
X153500000Y-130750000D02*
X153500000Y-130731786D01*
X148500000Y-135750000D02*
X153500000Y-130750000D01*
X153552000Y-128635500D02*
X154000000Y-128187500D01*
X148500000Y-138894000D02*
X148500000Y-135750000D01*
D26*
%TO.N,DIP2*%
X164351000Y-132849000D02*
X161500000Y-135700000D01*
X187430548Y-132849000D02*
X164351000Y-132849000D01*
X190279548Y-130000000D02*
X187430548Y-132849000D01*
X191220000Y-130000000D02*
X190279548Y-130000000D01*
%TO.N,GND*%
X199699000Y-137052000D02*
X199500000Y-137251000D01*
X202875000Y-137375000D02*
X202552000Y-137052000D01*
X202552000Y-137052000D02*
X199699000Y-137052000D01*
%TD*%
%TA.AperFunction,Conductor*%
%TO.N,GND*%
G36*
X206060809Y-119020185D02*
G01*
X206106564Y-119072989D01*
X206116508Y-119142147D01*
X206115387Y-119148691D01*
X206100973Y-119221153D01*
X206100973Y-119378846D01*
X206131734Y-119533489D01*
X206131737Y-119533501D01*
X206192075Y-119679172D01*
X206192082Y-119679185D01*
X206279683Y-119810288D01*
X206279686Y-119810292D01*
X206391180Y-119921786D01*
X206391184Y-119921789D01*
X206522287Y-120009390D01*
X206522300Y-120009397D01*
X206667971Y-120069735D01*
X206667976Y-120069737D01*
X206732620Y-120082595D01*
X206823322Y-120100638D01*
X206840078Y-120109402D01*
X206858558Y-120113423D01*
X206883596Y-120132167D01*
X206885233Y-120133023D01*
X206886812Y-120134574D01*
X207017612Y-120265374D01*
X207017622Y-120265385D01*
X207021952Y-120269715D01*
X207021953Y-120269716D01*
X207133757Y-120381520D01*
X207133759Y-120381521D01*
X207133763Y-120381524D01*
X207270682Y-120460573D01*
X207270689Y-120460577D01*
X207382492Y-120490534D01*
X207423415Y-120501500D01*
X207423416Y-120501500D01*
X208047231Y-120501500D01*
X208047247Y-120501501D01*
X208054843Y-120501501D01*
X208212954Y-120501501D01*
X208212957Y-120501501D01*
X208365685Y-120460577D01*
X208365687Y-120460575D01*
X208365689Y-120460575D01*
X208365690Y-120460574D01*
X208418189Y-120430264D01*
X208418190Y-120430263D01*
X208502616Y-120381520D01*
X208614420Y-120269716D01*
X208614420Y-120269714D01*
X208624621Y-120259514D01*
X208624625Y-120259508D01*
X208745317Y-120138818D01*
X208806641Y-120105334D01*
X208832998Y-120102500D01*
X222884803Y-120102500D01*
X222951842Y-120122185D01*
X222972484Y-120138819D01*
X225861181Y-123027516D01*
X225894666Y-123088839D01*
X225897500Y-123115197D01*
X225897500Y-145384803D01*
X225877815Y-145451842D01*
X225861181Y-145472484D01*
X225683192Y-145650472D01*
X225621869Y-145683957D01*
X225552177Y-145678973D01*
X225496244Y-145637101D01*
X225471827Y-145571637D01*
X225474330Y-145541270D01*
X225473577Y-145541151D01*
X225500605Y-145370500D01*
X225505500Y-145339597D01*
X225505500Y-145140403D01*
X225474339Y-144943661D01*
X225474338Y-144943657D01*
X225474338Y-144943656D01*
X225412786Y-144754219D01*
X225344895Y-144620976D01*
X225322353Y-144576734D01*
X225205269Y-144415582D01*
X225064418Y-144274731D01*
X224903266Y-144157647D01*
X224899707Y-144155466D01*
X224852833Y-144103652D01*
X224840500Y-144049740D01*
X224840500Y-142160945D01*
X224840500Y-142160943D01*
X224812339Y-142055844D01*
X224799577Y-142008215D01*
X224758289Y-141936702D01*
X224758289Y-141936701D01*
X224720524Y-141871290D01*
X224720521Y-141871286D01*
X224720520Y-141871284D01*
X224608716Y-141759480D01*
X224608715Y-141759479D01*
X224604385Y-141755149D01*
X224604374Y-141755139D01*
X223693253Y-140844018D01*
X223659768Y-140782695D01*
X223658461Y-140736943D01*
X223675500Y-140629366D01*
X223675500Y-140450634D01*
X223647540Y-140274103D01*
X223647539Y-140274099D01*
X223647539Y-140274098D01*
X223592310Y-140104121D01*
X223592308Y-140104118D01*
X223570035Y-140060403D01*
X223511167Y-139944868D01*
X223406111Y-139800272D01*
X223279728Y-139673889D01*
X223135132Y-139568833D01*
X222975881Y-139487691D01*
X222975878Y-139487689D01*
X222805899Y-139432460D01*
X222688209Y-139413820D01*
X222629366Y-139404500D01*
X222450634Y-139404500D01*
X222391790Y-139413820D01*
X222274101Y-139432460D01*
X222274098Y-139432460D01*
X222104121Y-139487689D01*
X222104118Y-139487691D01*
X221944867Y-139568833D01*
X221800270Y-139673890D01*
X221673890Y-139800270D01*
X221568833Y-139944867D01*
X221487691Y-140104118D01*
X221487689Y-140104121D01*
X221432460Y-140274098D01*
X221432460Y-140274101D01*
X221404500Y-140450634D01*
X221404500Y-140629365D01*
X221432460Y-140805898D01*
X221432460Y-140805901D01*
X221487689Y-140975878D01*
X221487691Y-140975881D01*
X221568833Y-141135132D01*
X221673889Y-141279728D01*
X221800272Y-141406111D01*
X221944868Y-141511167D01*
X222104119Y-141592309D01*
X222104121Y-141592310D01*
X222262670Y-141643825D01*
X222274103Y-141647540D01*
X222450634Y-141675500D01*
X222450635Y-141675500D01*
X222629364Y-141675500D01*
X222629366Y-141675500D01*
X222736941Y-141658461D01*
X222806232Y-141667415D01*
X222844018Y-141693253D01*
X223603181Y-142452416D01*
X223636666Y-142513739D01*
X223639500Y-142540097D01*
X223639500Y-144049740D01*
X223619815Y-144116779D01*
X223580293Y-144155466D01*
X223576733Y-144157647D01*
X223507682Y-144207816D01*
X223415582Y-144274731D01*
X223415580Y-144274733D01*
X223415579Y-144274733D01*
X223274733Y-144415579D01*
X223274733Y-144415580D01*
X223274731Y-144415582D01*
X223267154Y-144426011D01*
X223157647Y-144576733D01*
X223067213Y-144754219D01*
X223005661Y-144943656D01*
X223005661Y-144943659D01*
X222993040Y-145023347D01*
X222974500Y-145140403D01*
X222974500Y-145339597D01*
X222979395Y-145370500D01*
X223005661Y-145536340D01*
X223005661Y-145536343D01*
X223067213Y-145725781D01*
X223068153Y-145728049D01*
X223068253Y-145728979D01*
X223068720Y-145730417D01*
X223068418Y-145730515D01*
X223075620Y-145797519D01*
X223044344Y-145859998D01*
X222984255Y-145895649D01*
X222953591Y-145899500D01*
X220446409Y-145899500D01*
X220379370Y-145879815D01*
X220333615Y-145827011D01*
X220323671Y-145757853D01*
X220331847Y-145728049D01*
X220332786Y-145725781D01*
X220394338Y-145536343D01*
X220394338Y-145536342D01*
X220394339Y-145536339D01*
X220425500Y-145339597D01*
X220425500Y-145140403D01*
X220425500Y-145136141D01*
X220445185Y-145069102D01*
X220497989Y-145023347D01*
X220567147Y-145013403D01*
X220586454Y-145018700D01*
X220586676Y-145017969D01*
X220592492Y-145019732D01*
X220592503Y-145019737D01*
X220747153Y-145050499D01*
X220747156Y-145050500D01*
X220747158Y-145050500D01*
X220904844Y-145050500D01*
X220904845Y-145050499D01*
X221059497Y-145019737D01*
X221205179Y-144959394D01*
X221336289Y-144871789D01*
X221447789Y-144760289D01*
X221535394Y-144629179D01*
X221595737Y-144483497D01*
X221626500Y-144328842D01*
X221626500Y-144171158D01*
X221626500Y-144171155D01*
X221626499Y-144171153D01*
X221602348Y-144049740D01*
X221595737Y-144016503D01*
X221589425Y-144001264D01*
X221535397Y-143870827D01*
X221535390Y-143870814D01*
X221447789Y-143739711D01*
X221447786Y-143739707D01*
X221336292Y-143628213D01*
X221336288Y-143628210D01*
X221205185Y-143540609D01*
X221205172Y-143540602D01*
X221059501Y-143480264D01*
X221059489Y-143480261D01*
X220904845Y-143449500D01*
X220904842Y-143449500D01*
X220747158Y-143449500D01*
X220747155Y-143449500D01*
X220592510Y-143480261D01*
X220592498Y-143480264D01*
X220446827Y-143540602D01*
X220446814Y-143540609D01*
X220315125Y-143628602D01*
X220248447Y-143649480D01*
X220246234Y-143649500D01*
X220070940Y-143649500D01*
X220030019Y-143660464D01*
X220030019Y-143660465D01*
X219992751Y-143670451D01*
X219918214Y-143690423D01*
X219918209Y-143690426D01*
X219781290Y-143769475D01*
X219781282Y-143769481D01*
X219669480Y-143881283D01*
X219669480Y-143881284D01*
X219669478Y-143881286D01*
X219600863Y-143949901D01*
X219577022Y-143973742D01*
X219515698Y-144007226D01*
X219460404Y-144006636D01*
X219456344Y-144005661D01*
X219290136Y-143979337D01*
X219259597Y-143974500D01*
X219060403Y-143974500D01*
X219029864Y-143979337D01*
X218863659Y-144005661D01*
X218863656Y-144005661D01*
X218674219Y-144067213D01*
X218496733Y-144157647D01*
X218427682Y-144207816D01*
X218335582Y-144274731D01*
X218335580Y-144274733D01*
X218335579Y-144274733D01*
X218194733Y-144415579D01*
X218194733Y-144415580D01*
X218194731Y-144415582D01*
X218187154Y-144426011D01*
X218077647Y-144576733D01*
X218000485Y-144728172D01*
X217952510Y-144778968D01*
X217884689Y-144795763D01*
X217818554Y-144773225D01*
X217779515Y-144728172D01*
X217724895Y-144620976D01*
X217702353Y-144576734D01*
X217585269Y-144415582D01*
X217444418Y-144274731D01*
X217283266Y-144157647D01*
X217220431Y-144125631D01*
X217105780Y-144067213D01*
X216916342Y-144005661D01*
X216750136Y-143979337D01*
X216719597Y-143974500D01*
X216520403Y-143974500D01*
X216489864Y-143979337D01*
X216323659Y-144005661D01*
X216323656Y-144005661D01*
X216134219Y-144067213D01*
X215956733Y-144157647D01*
X215887682Y-144207816D01*
X215795582Y-144274731D01*
X215795580Y-144274733D01*
X215795579Y-144274733D01*
X215654733Y-144415579D01*
X215654733Y-144415580D01*
X215654731Y-144415582D01*
X215647154Y-144426011D01*
X215537647Y-144576733D01*
X215460485Y-144728172D01*
X215412510Y-144778968D01*
X215344689Y-144795763D01*
X215278554Y-144773225D01*
X215239515Y-144728172D01*
X215184895Y-144620976D01*
X215162353Y-144576734D01*
X215045269Y-144415582D01*
X214904418Y-144274731D01*
X214743266Y-144157647D01*
X214680431Y-144125631D01*
X214565780Y-144067213D01*
X214376342Y-144005661D01*
X214210136Y-143979337D01*
X214179597Y-143974500D01*
X213980403Y-143974500D01*
X213949864Y-143979337D01*
X213783659Y-144005661D01*
X213783656Y-144005661D01*
X213594219Y-144067213D01*
X213416733Y-144157647D01*
X213347682Y-144207816D01*
X213255582Y-144274731D01*
X213255580Y-144274733D01*
X213255579Y-144274733D01*
X213114733Y-144415579D01*
X213114733Y-144415580D01*
X213114731Y-144415582D01*
X213107154Y-144426011D01*
X212997647Y-144576733D01*
X212920485Y-144728172D01*
X212872510Y-144778968D01*
X212804689Y-144795763D01*
X212738554Y-144773225D01*
X212699515Y-144728172D01*
X212644895Y-144620976D01*
X212622353Y-144576734D01*
X212505269Y-144415582D01*
X212364418Y-144274731D01*
X212203266Y-144157647D01*
X212140431Y-144125631D01*
X212025780Y-144067213D01*
X211836342Y-144005661D01*
X211670136Y-143979337D01*
X211639597Y-143974500D01*
X211440403Y-143974500D01*
X211409864Y-143979337D01*
X211243659Y-144005661D01*
X211243656Y-144005661D01*
X211054219Y-144067213D01*
X210876733Y-144157647D01*
X210807682Y-144207816D01*
X210715582Y-144274731D01*
X210715580Y-144274733D01*
X210715579Y-144274733D01*
X210574733Y-144415579D01*
X210574733Y-144415580D01*
X210574731Y-144415582D01*
X210567154Y-144426011D01*
X210457647Y-144576733D01*
X210380485Y-144728172D01*
X210332510Y-144778968D01*
X210264689Y-144795763D01*
X210198554Y-144773225D01*
X210159515Y-144728172D01*
X210104895Y-144620976D01*
X210082353Y-144576734D01*
X209965269Y-144415582D01*
X209824418Y-144274731D01*
X209663266Y-144157647D01*
X209600431Y-144125631D01*
X209485780Y-144067213D01*
X209296342Y-144005661D01*
X209130136Y-143979337D01*
X209099597Y-143974500D01*
X208900403Y-143974500D01*
X208869864Y-143979337D01*
X208703659Y-144005661D01*
X208703656Y-144005661D01*
X208514219Y-144067213D01*
X208336733Y-144157647D01*
X208267682Y-144207816D01*
X208175582Y-144274731D01*
X208175580Y-144274733D01*
X208175579Y-144274733D01*
X208034733Y-144415579D01*
X208034733Y-144415580D01*
X208034731Y-144415582D01*
X208027154Y-144426011D01*
X207917647Y-144576733D01*
X207840485Y-144728172D01*
X207792510Y-144778968D01*
X207724689Y-144795763D01*
X207658554Y-144773225D01*
X207619515Y-144728172D01*
X207564895Y-144620976D01*
X207542353Y-144576734D01*
X207425269Y-144415582D01*
X207350091Y-144340404D01*
X207316607Y-144279080D01*
X207321592Y-144209389D01*
X207350090Y-144165044D01*
X208705506Y-142809629D01*
X208705511Y-142809625D01*
X208715714Y-142799421D01*
X208715716Y-142799421D01*
X208827520Y-142687617D01*
X208890197Y-142579057D01*
X208906577Y-142550686D01*
X208947501Y-142397958D01*
X208947501Y-142239844D01*
X208947501Y-142232249D01*
X208947500Y-142232231D01*
X208947500Y-142194097D01*
X208967185Y-142127058D01*
X209019989Y-142081303D01*
X209089147Y-142071359D01*
X209152703Y-142100384D01*
X209186061Y-142146645D01*
X209244180Y-142286960D01*
X209244188Y-142286976D01*
X209360553Y-142488524D01*
X209360564Y-142488540D01*
X209502242Y-142673179D01*
X209502248Y-142673186D01*
X209666813Y-142837751D01*
X209666819Y-142837756D01*
X209851468Y-142979442D01*
X209851475Y-142979446D01*
X210053023Y-143095811D01*
X210053039Y-143095819D01*
X210268052Y-143184879D01*
X210268054Y-143184879D01*
X210268060Y-143184882D01*
X210492874Y-143245121D01*
X210723628Y-143275500D01*
X210723635Y-143275500D01*
X210956365Y-143275500D01*
X210956372Y-143275500D01*
X211187126Y-143245121D01*
X211411940Y-143184882D01*
X211489357Y-143152815D01*
X211626960Y-143095819D01*
X211626963Y-143095817D01*
X211626969Y-143095815D01*
X211828532Y-142979442D01*
X212013181Y-142837756D01*
X212177756Y-142673181D01*
X212319442Y-142488532D01*
X212435815Y-142286969D01*
X212481345Y-142177047D01*
X212493887Y-142161482D01*
X212502193Y-142143297D01*
X212515363Y-142134832D01*
X212525185Y-142122645D01*
X212544151Y-142116331D01*
X212560971Y-142105523D01*
X212588530Y-142101560D01*
X212591479Y-142100579D01*
X212595906Y-142100500D01*
X212744094Y-142100500D01*
X212811133Y-142120185D01*
X212856888Y-142172989D01*
X212858640Y-142177012D01*
X212885865Y-142242740D01*
X212904184Y-142286967D01*
X212904188Y-142286976D01*
X213020553Y-142488524D01*
X213020564Y-142488540D01*
X213162242Y-142673179D01*
X213162248Y-142673186D01*
X213326813Y-142837751D01*
X213326819Y-142837756D01*
X213511468Y-142979442D01*
X213511475Y-142979446D01*
X213713023Y-143095811D01*
X213713039Y-143095819D01*
X213928052Y-143184879D01*
X213928054Y-143184879D01*
X213928060Y-143184882D01*
X214152874Y-143245121D01*
X214383628Y-143275500D01*
X214383635Y-143275500D01*
X214616365Y-143275500D01*
X214616372Y-143275500D01*
X214847126Y-143245121D01*
X215071940Y-143184882D01*
X215149357Y-143152815D01*
X215286960Y-143095819D01*
X215286963Y-143095817D01*
X215286969Y-143095815D01*
X215488532Y-142979442D01*
X215673181Y-142837756D01*
X215837756Y-142673181D01*
X215979442Y-142488532D01*
X216095815Y-142286969D01*
X216102962Y-142269716D01*
X216181004Y-142081303D01*
X216184882Y-142071940D01*
X216245121Y-141847126D01*
X216275500Y-141616372D01*
X216275500Y-141383628D01*
X216245121Y-141152874D01*
X216184882Y-140928060D01*
X216139349Y-140818134D01*
X216131881Y-140748668D01*
X216163156Y-140686189D01*
X216166202Y-140683031D01*
X220752416Y-136096819D01*
X220813739Y-136063334D01*
X220840097Y-136060500D01*
X221284261Y-136060500D01*
X221351300Y-136080185D01*
X221397055Y-136132989D01*
X221407551Y-136171246D01*
X221410909Y-136202483D01*
X221461202Y-136337328D01*
X221461206Y-136337335D01*
X221547452Y-136452544D01*
X221547455Y-136452547D01*
X221662664Y-136538793D01*
X221662671Y-136538797D01*
X221797517Y-136589091D01*
X221797516Y-136589091D01*
X221804444Y-136589835D01*
X221857127Y-136595500D01*
X223222872Y-136595499D01*
X223282483Y-136589091D01*
X223417331Y-136538796D01*
X223532546Y-136452546D01*
X223618796Y-136337331D01*
X223669091Y-136202483D01*
X223675500Y-136142873D01*
X223675499Y-134777128D01*
X223669091Y-134717517D01*
X223665474Y-134707820D01*
X223618797Y-134582671D01*
X223618793Y-134582664D01*
X223532547Y-134467455D01*
X223532544Y-134467452D01*
X223417335Y-134381206D01*
X223417328Y-134381202D01*
X223282482Y-134330908D01*
X223282483Y-134330908D01*
X223222883Y-134324501D01*
X223222881Y-134324500D01*
X223222873Y-134324500D01*
X223222864Y-134324500D01*
X221857129Y-134324500D01*
X221857123Y-134324501D01*
X221797516Y-134330908D01*
X221662671Y-134381202D01*
X221662664Y-134381206D01*
X221547455Y-134467452D01*
X221547452Y-134467455D01*
X221461206Y-134582664D01*
X221461202Y-134582671D01*
X221410908Y-134717516D01*
X221407550Y-134748756D01*
X221380812Y-134813307D01*
X221323419Y-134853155D01*
X221284261Y-134859500D01*
X220626669Y-134859500D01*
X220626653Y-134859499D01*
X220619057Y-134859499D01*
X220460943Y-134859499D01*
X220385232Y-134879786D01*
X220308216Y-134900422D01*
X220272672Y-134920944D01*
X220272671Y-134920943D01*
X220171287Y-134979477D01*
X220171282Y-134979481D01*
X220059478Y-135091286D01*
X215316995Y-139833768D01*
X215255672Y-139867253D01*
X215185980Y-139862269D01*
X215181862Y-139860648D01*
X215071947Y-139815120D01*
X215056847Y-139811074D01*
X214847126Y-139754879D01*
X214847125Y-139754878D01*
X214847122Y-139754878D01*
X214616382Y-139724501D01*
X214616377Y-139724500D01*
X214616372Y-139724500D01*
X214383628Y-139724500D01*
X214383622Y-139724500D01*
X214383617Y-139724501D01*
X214152877Y-139754878D01*
X213928052Y-139815120D01*
X213713039Y-139904180D01*
X213713023Y-139904188D01*
X213511475Y-140020553D01*
X213511459Y-140020564D01*
X213326820Y-140162242D01*
X213326813Y-140162248D01*
X213162248Y-140326813D01*
X213162242Y-140326820D01*
X213020564Y-140511459D01*
X213020553Y-140511475D01*
X212904188Y-140713023D01*
X212904184Y-140713032D01*
X212892219Y-140741920D01*
X212858654Y-140822952D01*
X212846112Y-140838517D01*
X212837807Y-140856703D01*
X212824636Y-140865167D01*
X212814815Y-140877355D01*
X212795848Y-140883668D01*
X212779029Y-140894477D01*
X212751469Y-140898439D01*
X212748521Y-140899421D01*
X212744094Y-140899500D01*
X212595906Y-140899500D01*
X212528867Y-140879815D01*
X212483112Y-140827011D01*
X212481359Y-140822987D01*
X212435815Y-140713031D01*
X212435813Y-140713027D01*
X212435811Y-140713023D01*
X212319446Y-140511475D01*
X212319442Y-140511468D01*
X212182800Y-140333392D01*
X212177757Y-140326820D01*
X212177751Y-140326813D01*
X212013186Y-140162248D01*
X212013179Y-140162242D01*
X211828540Y-140020564D01*
X211828538Y-140020562D01*
X211828532Y-140020558D01*
X211828527Y-140020555D01*
X211828524Y-140020553D01*
X211626976Y-139904188D01*
X211626960Y-139904180D01*
X211411947Y-139815120D01*
X211396847Y-139811074D01*
X211187126Y-139754879D01*
X211187125Y-139754878D01*
X211187122Y-139754878D01*
X210956382Y-139724501D01*
X210956377Y-139724500D01*
X210956372Y-139724500D01*
X210771097Y-139724500D01*
X210704058Y-139704815D01*
X210658303Y-139652011D01*
X210648359Y-139582853D01*
X210677384Y-139519297D01*
X210683416Y-139512819D01*
X210947520Y-139248716D01*
X211026577Y-139111784D01*
X211067501Y-138959057D01*
X211067501Y-138800942D01*
X211067501Y-138793347D01*
X211067500Y-138793329D01*
X211067500Y-134376097D01*
X211073738Y-134354851D01*
X211075318Y-134332763D01*
X211083390Y-134321979D01*
X211087185Y-134309058D01*
X211103918Y-134294558D01*
X211117190Y-134276830D01*
X211129810Y-134272122D01*
X211139989Y-134263303D01*
X211161906Y-134260151D01*
X211182654Y-134252413D01*
X211195814Y-134255275D01*
X211209147Y-134253359D01*
X211229290Y-134262558D01*
X211250927Y-134267265D01*
X211268652Y-134280533D01*
X211272703Y-134282384D01*
X211279181Y-134288416D01*
X211455425Y-134464660D01*
X211488910Y-134525983D01*
X211489361Y-134528149D01*
X211520261Y-134683491D01*
X211520264Y-134683501D01*
X211580602Y-134829172D01*
X211580609Y-134829185D01*
X211668210Y-134960288D01*
X211668213Y-134960292D01*
X211779707Y-135071786D01*
X211779711Y-135071789D01*
X211910814Y-135159390D01*
X211910827Y-135159397D01*
X211984013Y-135189711D01*
X212056503Y-135219737D01*
X212211153Y-135250499D01*
X212211156Y-135250500D01*
X212211158Y-135250500D01*
X212368844Y-135250500D01*
X212368845Y-135250499D01*
X212523497Y-135219737D01*
X212669179Y-135159394D01*
X212800289Y-135071789D01*
X212911789Y-134960289D01*
X212999394Y-134829179D01*
X213059737Y-134683497D01*
X213090500Y-134528842D01*
X213090500Y-134371158D01*
X213090500Y-134371157D01*
X213090500Y-134371155D01*
X213090499Y-134371153D01*
X213081219Y-134324500D01*
X213059737Y-134216503D01*
X213044833Y-134180521D01*
X212999397Y-134070827D01*
X212999390Y-134070814D01*
X212911789Y-133939711D01*
X212911786Y-133939707D01*
X212800292Y-133828213D01*
X212800288Y-133828210D01*
X212669185Y-133740609D01*
X212669172Y-133740602D01*
X212523501Y-133680264D01*
X212523491Y-133680261D01*
X212368149Y-133649361D01*
X212351392Y-133640595D01*
X212332914Y-133636576D01*
X212307877Y-133617833D01*
X212306238Y-133616976D01*
X212304660Y-133615425D01*
X212176819Y-133487584D01*
X212143334Y-133426261D01*
X212140500Y-133399903D01*
X212140500Y-131190258D01*
X212160185Y-131123219D01*
X212199727Y-131084520D01*
X212203249Y-131082361D01*
X212203266Y-131082353D01*
X212364418Y-130965269D01*
X212505269Y-130824418D01*
X212622353Y-130663266D01*
X212699515Y-130511827D01*
X212747490Y-130461031D01*
X212815311Y-130444236D01*
X212881446Y-130466773D01*
X212920485Y-130511827D01*
X212961610Y-130592539D01*
X212997647Y-130663266D01*
X213114731Y-130824418D01*
X213255582Y-130965269D01*
X213416734Y-131082353D01*
X213568173Y-131159515D01*
X213594219Y-131172786D01*
X213783657Y-131234338D01*
X213783658Y-131234338D01*
X213783661Y-131234339D01*
X213980403Y-131265500D01*
X213980404Y-131265500D01*
X214179596Y-131265500D01*
X214179597Y-131265500D01*
X214376339Y-131234339D01*
X214376342Y-131234338D01*
X214376343Y-131234338D01*
X214565780Y-131172786D01*
X214565780Y-131172785D01*
X214565783Y-131172785D01*
X214743266Y-131082353D01*
X214904418Y-130965269D01*
X215045269Y-130824418D01*
X215162353Y-130663266D01*
X215239515Y-130511827D01*
X215287490Y-130461031D01*
X215355311Y-130444236D01*
X215421446Y-130466773D01*
X215460485Y-130511827D01*
X215501610Y-130592539D01*
X215537647Y-130663266D01*
X215654731Y-130824418D01*
X215795582Y-130965269D01*
X215956734Y-131082353D01*
X216108173Y-131159515D01*
X216134219Y-131172786D01*
X216323657Y-131234338D01*
X216323658Y-131234338D01*
X216323661Y-131234339D01*
X216520403Y-131265500D01*
X216520404Y-131265500D01*
X216719596Y-131265500D01*
X216719597Y-131265500D01*
X216916339Y-131234339D01*
X216916342Y-131234338D01*
X216916343Y-131234338D01*
X217105780Y-131172786D01*
X217105780Y-131172785D01*
X217105783Y-131172785D01*
X217283266Y-131082353D01*
X217444418Y-130965269D01*
X217585269Y-130824418D01*
X217702353Y-130663266D01*
X217779515Y-130511827D01*
X217827490Y-130461031D01*
X217895311Y-130444236D01*
X217961446Y-130466773D01*
X218000485Y-130511827D01*
X218041610Y-130592539D01*
X218077647Y-130663266D01*
X218194731Y-130824418D01*
X218335582Y-130965269D01*
X218496734Y-131082353D01*
X218648173Y-131159515D01*
X218674219Y-131172786D01*
X218863657Y-131234338D01*
X218863658Y-131234338D01*
X218863661Y-131234339D01*
X219060403Y-131265500D01*
X219060404Y-131265500D01*
X219259596Y-131265500D01*
X219259597Y-131265500D01*
X219456339Y-131234339D01*
X219456342Y-131234338D01*
X219456343Y-131234338D01*
X219645780Y-131172786D01*
X219645780Y-131172785D01*
X219645783Y-131172785D01*
X219823266Y-131082353D01*
X219984418Y-130965269D01*
X220125269Y-130824418D01*
X220242353Y-130663266D01*
X220319515Y-130511827D01*
X220367490Y-130461031D01*
X220435311Y-130444236D01*
X220501446Y-130466773D01*
X220540485Y-130511827D01*
X220581610Y-130592539D01*
X220617647Y-130663266D01*
X220734731Y-130824418D01*
X220875582Y-130965269D01*
X221036734Y-131082353D01*
X221188173Y-131159515D01*
X221214219Y-131172786D01*
X221403657Y-131234338D01*
X221403658Y-131234338D01*
X221403661Y-131234339D01*
X221600403Y-131265500D01*
X221600404Y-131265500D01*
X221799596Y-131265500D01*
X221799597Y-131265500D01*
X221996339Y-131234339D01*
X221996342Y-131234338D01*
X221996343Y-131234338D01*
X222185780Y-131172786D01*
X222185780Y-131172785D01*
X222185783Y-131172785D01*
X222363266Y-131082353D01*
X222524418Y-130965269D01*
X222665269Y-130824418D01*
X222782353Y-130663266D01*
X222872785Y-130485783D01*
X222885140Y-130447758D01*
X222934338Y-130296343D01*
X222934338Y-130296342D01*
X222934339Y-130296339D01*
X222965500Y-130099597D01*
X222965500Y-129900403D01*
X222934339Y-129703661D01*
X222934338Y-129703657D01*
X222934338Y-129703656D01*
X222872786Y-129514219D01*
X222807575Y-129386235D01*
X222782353Y-129336734D01*
X222665269Y-129175582D01*
X222524418Y-129034731D01*
X222363266Y-128917647D01*
X222301373Y-128886111D01*
X222185780Y-128827213D01*
X221996342Y-128765661D01*
X221843256Y-128741415D01*
X221799597Y-128734500D01*
X221600403Y-128734500D01*
X221556744Y-128741415D01*
X221403659Y-128765661D01*
X221403656Y-128765661D01*
X221214219Y-128827213D01*
X221036733Y-128917647D01*
X220985765Y-128954678D01*
X220875582Y-129034731D01*
X220875580Y-129034733D01*
X220875579Y-129034733D01*
X220734733Y-129175579D01*
X220734733Y-129175580D01*
X220734731Y-129175582D01*
X220687397Y-129240732D01*
X220617647Y-129336733D01*
X220540485Y-129488172D01*
X220492510Y-129538968D01*
X220424689Y-129555763D01*
X220358554Y-129533225D01*
X220319515Y-129488172D01*
X220267575Y-129386235D01*
X220242353Y-129336734D01*
X220125269Y-129175582D01*
X219984418Y-129034731D01*
X219823266Y-128917647D01*
X219761373Y-128886111D01*
X219645780Y-128827213D01*
X219456342Y-128765661D01*
X219303256Y-128741415D01*
X219259597Y-128734500D01*
X219060403Y-128734500D01*
X219016744Y-128741415D01*
X218863659Y-128765661D01*
X218863656Y-128765661D01*
X218674219Y-128827213D01*
X218496733Y-128917647D01*
X218445765Y-128954678D01*
X218335582Y-129034731D01*
X218335580Y-129034733D01*
X218335579Y-129034733D01*
X218194733Y-129175579D01*
X218194733Y-129175580D01*
X218194731Y-129175582D01*
X218147397Y-129240732D01*
X218077647Y-129336733D01*
X218000485Y-129488172D01*
X217952510Y-129538968D01*
X217884689Y-129555763D01*
X217818554Y-129533225D01*
X217779515Y-129488172D01*
X217727575Y-129386235D01*
X217702353Y-129336734D01*
X217585269Y-129175582D01*
X217444418Y-129034731D01*
X217283266Y-128917647D01*
X217221373Y-128886111D01*
X217105780Y-128827213D01*
X216916342Y-128765661D01*
X216763256Y-128741415D01*
X216719597Y-128734500D01*
X216520403Y-128734500D01*
X216476744Y-128741415D01*
X216323659Y-128765661D01*
X216323656Y-128765661D01*
X216134219Y-128827213D01*
X215956733Y-128917647D01*
X215905765Y-128954678D01*
X215795582Y-129034731D01*
X215795580Y-129034733D01*
X215795579Y-129034733D01*
X215654733Y-129175579D01*
X215654733Y-129175580D01*
X215654731Y-129175582D01*
X215607397Y-129240732D01*
X215537647Y-129336733D01*
X215460485Y-129488172D01*
X215412510Y-129538968D01*
X215344689Y-129555763D01*
X215278554Y-129533225D01*
X215239515Y-129488172D01*
X215187575Y-129386235D01*
X215162353Y-129336734D01*
X215045269Y-129175582D01*
X214904418Y-129034731D01*
X214743266Y-128917647D01*
X214681373Y-128886111D01*
X214565780Y-128827213D01*
X214376342Y-128765661D01*
X214223256Y-128741415D01*
X214179597Y-128734500D01*
X213980403Y-128734500D01*
X213936744Y-128741415D01*
X213783659Y-128765661D01*
X213779588Y-128766638D01*
X213709806Y-128763138D01*
X213662976Y-128733741D01*
X212317590Y-127388355D01*
X212317588Y-127388352D01*
X212198717Y-127269481D01*
X212198716Y-127269480D01*
X212111904Y-127219360D01*
X212111904Y-127219359D01*
X212111900Y-127219358D01*
X212061785Y-127190423D01*
X211909057Y-127149499D01*
X211750943Y-127149499D01*
X211743347Y-127149499D01*
X211743331Y-127149500D01*
X193074965Y-127149500D01*
X193007926Y-127129815D01*
X192962171Y-127077011D01*
X192952227Y-127007853D01*
X192953778Y-126999239D01*
X192956138Y-126988344D01*
X192961972Y-126974262D01*
X192992735Y-126819607D01*
X192992735Y-126819466D01*
X192993303Y-126816845D01*
X193009537Y-126787056D01*
X193025258Y-126757004D01*
X193026684Y-126755550D01*
X195254219Y-124528014D01*
X195315540Y-124494531D01*
X195385232Y-124499515D01*
X195441165Y-124541387D01*
X195451282Y-124559911D01*
X195451953Y-124559546D01*
X195456206Y-124567335D01*
X195542452Y-124682544D01*
X195542455Y-124682547D01*
X195657664Y-124768793D01*
X195657671Y-124768797D01*
X195792517Y-124819091D01*
X195792516Y-124819091D01*
X195799444Y-124819835D01*
X195852127Y-124825500D01*
X197647872Y-124825499D01*
X197707483Y-124819091D01*
X197842331Y-124768796D01*
X197957546Y-124682546D01*
X198043796Y-124567331D01*
X198092810Y-124435916D01*
X198134681Y-124379984D01*
X198200145Y-124355566D01*
X198268418Y-124370417D01*
X198296673Y-124391569D01*
X198410213Y-124505109D01*
X198582179Y-124630048D01*
X198582181Y-124630049D01*
X198582184Y-124630051D01*
X198771588Y-124726557D01*
X198973757Y-124792246D01*
X199183713Y-124825500D01*
X199183714Y-124825500D01*
X199396286Y-124825500D01*
X199396287Y-124825500D01*
X199606243Y-124792246D01*
X199808412Y-124726557D01*
X199997816Y-124630051D01*
X200063664Y-124582210D01*
X200169786Y-124505109D01*
X200169788Y-124505106D01*
X200169792Y-124505104D01*
X200320104Y-124354792D01*
X200320106Y-124354788D01*
X200320109Y-124354786D01*
X200438206Y-124192238D01*
X200445051Y-124182816D01*
X200541557Y-123993412D01*
X200607246Y-123791243D01*
X200640500Y-123581287D01*
X200640500Y-123368713D01*
X200607246Y-123158757D01*
X200543580Y-122962817D01*
X200541586Y-122892977D01*
X200577666Y-122833144D01*
X200640367Y-122802316D01*
X200661512Y-122800500D01*
X211117060Y-122800500D01*
X211184099Y-122820185D01*
X211204741Y-122836819D01*
X212196572Y-123828650D01*
X212230057Y-123889973D01*
X212225073Y-123959665D01*
X212220612Y-123970131D01*
X212186199Y-124041591D01*
X212093439Y-124306684D01*
X212030945Y-124580487D01*
X212030942Y-124580505D01*
X211999500Y-124859568D01*
X211999500Y-125140431D01*
X212030942Y-125419494D01*
X212030945Y-125419512D01*
X212093439Y-125693317D01*
X212093443Y-125693329D01*
X212186200Y-125958411D01*
X212308053Y-126211442D01*
X212308055Y-126211445D01*
X212457477Y-126449248D01*
X212632584Y-126668825D01*
X212831175Y-126867416D01*
X213050752Y-127042523D01*
X213288555Y-127191945D01*
X213541592Y-127313801D01*
X213734447Y-127381284D01*
X213806670Y-127406556D01*
X213806682Y-127406560D01*
X214080491Y-127469055D01*
X214080497Y-127469055D01*
X214080505Y-127469057D01*
X214266547Y-127490018D01*
X214359569Y-127500499D01*
X214359572Y-127500500D01*
X214359575Y-127500500D01*
X214640428Y-127500500D01*
X214640429Y-127500499D01*
X214783055Y-127484429D01*
X214919494Y-127469057D01*
X214919499Y-127469056D01*
X214919509Y-127469055D01*
X215193318Y-127406560D01*
X215458408Y-127313801D01*
X215711445Y-127191945D01*
X215949248Y-127042523D01*
X216168825Y-126867416D01*
X216367416Y-126668825D01*
X216542523Y-126449248D01*
X216691945Y-126211445D01*
X216813801Y-125958408D01*
X216906560Y-125693318D01*
X216969055Y-125419509D01*
X216970531Y-125406415D01*
X217000499Y-125140431D01*
X217000500Y-125140427D01*
X217000500Y-124859572D01*
X217000499Y-124859568D01*
X216996660Y-124825499D01*
X216985294Y-124724617D01*
X216969057Y-124580505D01*
X216969054Y-124580487D01*
X216956589Y-124525876D01*
X216906560Y-124306682D01*
X216897932Y-124282026D01*
X216838374Y-124111819D01*
X216813801Y-124041592D01*
X216699356Y-123803945D01*
X216691946Y-123788557D01*
X216655959Y-123731284D01*
X216595622Y-123635258D01*
X220499500Y-123635258D01*
X220499500Y-123864741D01*
X220524446Y-124054215D01*
X220529452Y-124092238D01*
X220555570Y-124189711D01*
X220588842Y-124313887D01*
X220676650Y-124525876D01*
X220676657Y-124525890D01*
X220791392Y-124724617D01*
X220931081Y-124906661D01*
X220931089Y-124906670D01*
X221093330Y-125068911D01*
X221093338Y-125068918D01*
X221275382Y-125208607D01*
X221275385Y-125208608D01*
X221275388Y-125208611D01*
X221474112Y-125323344D01*
X221474117Y-125323346D01*
X221474123Y-125323349D01*
X221561236Y-125359432D01*
X221686113Y-125411158D01*
X221907762Y-125470548D01*
X222135266Y-125500500D01*
X222135273Y-125500500D01*
X222364727Y-125500500D01*
X222364734Y-125500500D01*
X222592238Y-125470548D01*
X222813887Y-125411158D01*
X223025888Y-125323344D01*
X223224612Y-125208611D01*
X223406661Y-125068919D01*
X223406665Y-125068914D01*
X223406670Y-125068911D01*
X223568911Y-124906670D01*
X223568914Y-124906665D01*
X223568919Y-124906661D01*
X223708611Y-124724612D01*
X223823344Y-124525888D01*
X223911158Y-124313887D01*
X223970548Y-124092238D01*
X224000500Y-123864734D01*
X224000500Y-123635266D01*
X223970548Y-123407762D01*
X223911158Y-123186113D01*
X223839113Y-123012181D01*
X223823349Y-122974123D01*
X223823346Y-122974117D01*
X223823344Y-122974112D01*
X223708611Y-122775388D01*
X223708608Y-122775385D01*
X223708607Y-122775382D01*
X223575083Y-122601372D01*
X223568919Y-122593339D01*
X223568918Y-122593338D01*
X223568911Y-122593330D01*
X223406670Y-122431089D01*
X223406661Y-122431081D01*
X223224617Y-122291392D01*
X223025890Y-122176657D01*
X223025876Y-122176650D01*
X222813887Y-122088842D01*
X222592238Y-122029452D01*
X222554215Y-122024446D01*
X222364741Y-121999500D01*
X222364734Y-121999500D01*
X222135266Y-121999500D01*
X222135258Y-121999500D01*
X221918715Y-122028009D01*
X221907762Y-122029452D01*
X221814076Y-122054554D01*
X221686112Y-122088842D01*
X221474123Y-122176650D01*
X221474109Y-122176657D01*
X221275382Y-122291392D01*
X221093338Y-122431081D01*
X220931081Y-122593338D01*
X220791392Y-122775382D01*
X220676657Y-122974109D01*
X220676650Y-122974123D01*
X220588842Y-123186112D01*
X220529453Y-123407759D01*
X220529451Y-123407770D01*
X220499500Y-123635258D01*
X216595622Y-123635258D01*
X216542523Y-123550752D01*
X216367416Y-123331175D01*
X216168825Y-123132584D01*
X216147022Y-123115197D01*
X216113060Y-123088113D01*
X215949248Y-122957477D01*
X215759734Y-122838397D01*
X215711442Y-122808053D01*
X215458411Y-122686200D01*
X215193329Y-122593443D01*
X215193317Y-122593439D01*
X214919512Y-122530945D01*
X214919494Y-122530942D01*
X214640431Y-122499500D01*
X214640425Y-122499500D01*
X214359575Y-122499500D01*
X214359568Y-122499500D01*
X214080505Y-122530942D01*
X214080487Y-122530945D01*
X213806684Y-122593439D01*
X213541591Y-122686199D01*
X213470131Y-122720612D01*
X213401190Y-122731963D01*
X213337056Y-122704240D01*
X213328650Y-122696572D01*
X212010292Y-121378213D01*
X212010288Y-121378210D01*
X211879185Y-121290609D01*
X211879172Y-121290602D01*
X211733501Y-121230264D01*
X211733489Y-121230261D01*
X211578845Y-121199500D01*
X211578842Y-121199500D01*
X204994987Y-121199500D01*
X204927948Y-121179815D01*
X204882193Y-121127011D01*
X204871629Y-121062897D01*
X204874222Y-121037515D01*
X204875500Y-121025008D01*
X204875500Y-119999992D01*
X204864999Y-119897203D01*
X204809814Y-119730666D01*
X204778056Y-119679179D01*
X204717713Y-119581348D01*
X204717710Y-119581344D01*
X204593655Y-119457289D01*
X204593651Y-119457286D01*
X204444337Y-119365187D01*
X204444335Y-119365186D01*
X204315516Y-119322500D01*
X204277797Y-119310001D01*
X204277795Y-119310000D01*
X204175015Y-119299500D01*
X204175008Y-119299500D01*
X202824992Y-119299500D01*
X202824984Y-119299500D01*
X202722204Y-119310000D01*
X202722203Y-119310001D01*
X202555664Y-119365186D01*
X202555662Y-119365187D01*
X202406348Y-119457286D01*
X202406344Y-119457289D01*
X202282289Y-119581344D01*
X202282286Y-119581348D01*
X202190187Y-119730662D01*
X202190186Y-119730664D01*
X202135001Y-119897203D01*
X202135000Y-119897204D01*
X202124500Y-119999984D01*
X202124500Y-121025014D01*
X202128371Y-121062897D01*
X202115602Y-121131590D01*
X202067722Y-121182475D01*
X202005013Y-121199500D01*
X184994987Y-121199500D01*
X184927948Y-121179815D01*
X184882193Y-121127011D01*
X184871629Y-121062897D01*
X184874222Y-121037515D01*
X184875500Y-121025008D01*
X184875500Y-119999992D01*
X184864999Y-119897203D01*
X184809814Y-119730666D01*
X184778056Y-119679179D01*
X184717713Y-119581348D01*
X184717710Y-119581344D01*
X184593655Y-119457289D01*
X184593651Y-119457286D01*
X184444337Y-119365187D01*
X184444335Y-119365186D01*
X184315516Y-119322500D01*
X184277797Y-119310001D01*
X184277795Y-119310000D01*
X184175015Y-119299500D01*
X184175008Y-119299500D01*
X182824992Y-119299500D01*
X182824984Y-119299500D01*
X182722204Y-119310000D01*
X182722203Y-119310001D01*
X182555664Y-119365186D01*
X182555662Y-119365187D01*
X182406348Y-119457286D01*
X182406344Y-119457289D01*
X182282289Y-119581344D01*
X182282286Y-119581348D01*
X182190187Y-119730662D01*
X182190186Y-119730664D01*
X182135001Y-119897203D01*
X182135000Y-119897204D01*
X182124500Y-119999984D01*
X182124500Y-121025014D01*
X182128371Y-121062897D01*
X182115602Y-121131590D01*
X182067722Y-121182475D01*
X182005013Y-121199500D01*
X181494987Y-121199500D01*
X181427948Y-121179815D01*
X181382193Y-121127011D01*
X181371629Y-121062897D01*
X181374222Y-121037515D01*
X181375500Y-121025008D01*
X181375500Y-119999992D01*
X181364999Y-119897203D01*
X181309814Y-119730666D01*
X181278056Y-119679179D01*
X181217713Y-119581348D01*
X181217710Y-119581344D01*
X181093655Y-119457289D01*
X181093651Y-119457286D01*
X180944337Y-119365187D01*
X180944335Y-119365186D01*
X180815516Y-119322500D01*
X180777797Y-119310001D01*
X180777795Y-119310000D01*
X180675015Y-119299500D01*
X180675008Y-119299500D01*
X179324992Y-119299500D01*
X179324984Y-119299500D01*
X179222204Y-119310000D01*
X179222203Y-119310001D01*
X179055664Y-119365186D01*
X179055662Y-119365187D01*
X178906348Y-119457286D01*
X178906344Y-119457289D01*
X178782289Y-119581344D01*
X178782286Y-119581348D01*
X178690187Y-119730662D01*
X178690186Y-119730664D01*
X178635001Y-119897203D01*
X178635000Y-119897204D01*
X178624500Y-119999984D01*
X178624500Y-121025014D01*
X178628371Y-121062897D01*
X178615602Y-121131590D01*
X178567722Y-121182475D01*
X178505013Y-121199500D01*
X177994987Y-121199500D01*
X177927948Y-121179815D01*
X177882193Y-121127011D01*
X177871629Y-121062897D01*
X177874222Y-121037515D01*
X177875500Y-121025008D01*
X177875500Y-119999992D01*
X177864999Y-119897203D01*
X177809814Y-119730666D01*
X177778056Y-119679179D01*
X177717713Y-119581348D01*
X177717710Y-119581344D01*
X177593655Y-119457289D01*
X177593651Y-119457286D01*
X177444337Y-119365187D01*
X177444335Y-119365186D01*
X177315516Y-119322500D01*
X177277797Y-119310001D01*
X177277795Y-119310000D01*
X177175015Y-119299500D01*
X177175008Y-119299500D01*
X175824992Y-119299500D01*
X175824984Y-119299500D01*
X175722204Y-119310000D01*
X175722203Y-119310001D01*
X175555664Y-119365186D01*
X175555662Y-119365187D01*
X175406348Y-119457286D01*
X175406344Y-119457289D01*
X175282289Y-119581344D01*
X175282286Y-119581348D01*
X175190187Y-119730662D01*
X175190186Y-119730664D01*
X175135001Y-119897203D01*
X175135000Y-119897204D01*
X175124500Y-119999984D01*
X175124500Y-121025014D01*
X175128371Y-121062897D01*
X175115602Y-121131590D01*
X175067722Y-121182475D01*
X175005013Y-121199500D01*
X157996264Y-121199500D01*
X157929225Y-121179815D01*
X157883470Y-121127011D01*
X157872906Y-121062896D01*
X157875499Y-121037515D01*
X157875500Y-121037508D01*
X157875500Y-120012492D01*
X157864999Y-119909703D01*
X157809814Y-119743166D01*
X157802101Y-119730662D01*
X157717713Y-119593848D01*
X157717710Y-119593844D01*
X157593655Y-119469789D01*
X157593651Y-119469786D01*
X157444337Y-119377687D01*
X157444335Y-119377686D01*
X157361065Y-119350093D01*
X157277797Y-119322501D01*
X157277795Y-119322500D01*
X157175015Y-119312000D01*
X157175008Y-119312000D01*
X155824992Y-119312000D01*
X155824984Y-119312000D01*
X155722204Y-119322500D01*
X155722203Y-119322501D01*
X155555664Y-119377686D01*
X155555662Y-119377687D01*
X155406348Y-119469786D01*
X155406344Y-119469789D01*
X155282289Y-119593844D01*
X155282286Y-119593848D01*
X155190187Y-119743162D01*
X155190186Y-119743164D01*
X155135001Y-119909703D01*
X155135000Y-119909704D01*
X155124500Y-120012484D01*
X155124500Y-121037515D01*
X155135000Y-121140295D01*
X155135001Y-121140297D01*
X155154619Y-121199500D01*
X155190186Y-121306835D01*
X155190187Y-121306837D01*
X155220506Y-121355991D01*
X155238947Y-121423383D01*
X155218025Y-121490047D01*
X155202649Y-121508769D01*
X154957264Y-121754154D01*
X154895941Y-121787639D01*
X154826249Y-121782655D01*
X154770316Y-121740783D01*
X154745899Y-121675319D01*
X154755023Y-121619019D01*
X154762528Y-121600902D01*
X154769737Y-121583497D01*
X154800500Y-121428842D01*
X154800500Y-121271158D01*
X154800500Y-121271155D01*
X154800499Y-121271153D01*
X154782860Y-121182475D01*
X154769737Y-121116503D01*
X154765173Y-121105485D01*
X154709397Y-120970827D01*
X154709390Y-120970814D01*
X154621789Y-120839711D01*
X154621786Y-120839707D01*
X154510292Y-120728213D01*
X154510288Y-120728210D01*
X154379185Y-120640609D01*
X154379172Y-120640602D01*
X154233501Y-120580264D01*
X154233489Y-120580261D01*
X154078845Y-120549500D01*
X154078842Y-120549500D01*
X153921158Y-120549500D01*
X153921155Y-120549500D01*
X153766510Y-120580261D01*
X153766498Y-120580264D01*
X153620827Y-120640602D01*
X153620814Y-120640609D01*
X153489711Y-120728210D01*
X153489707Y-120728213D01*
X153378213Y-120839707D01*
X153378210Y-120839711D01*
X153290609Y-120970814D01*
X153290602Y-120970827D01*
X153230264Y-121116498D01*
X153230261Y-121116508D01*
X153199361Y-121271850D01*
X153166976Y-121333761D01*
X153165425Y-121335339D01*
X152824097Y-121676667D01*
X152762774Y-121710152D01*
X152693082Y-121705168D01*
X152637149Y-121663296D01*
X152625931Y-121645281D01*
X152593583Y-121581795D01*
X152533343Y-121463567D01*
X152394517Y-121272490D01*
X152227510Y-121105483D01*
X152036433Y-120966657D01*
X151825996Y-120859433D01*
X151601368Y-120786446D01*
X151368097Y-120749500D01*
X151368092Y-120749500D01*
X151131908Y-120749500D01*
X151131903Y-120749500D01*
X150898631Y-120786446D01*
X150674003Y-120859433D01*
X150463566Y-120966657D01*
X150366049Y-121037508D01*
X150272490Y-121105483D01*
X150272488Y-121105485D01*
X150272487Y-121105485D01*
X150105485Y-121272487D01*
X150105485Y-121272488D01*
X150105483Y-121272490D01*
X150045862Y-121354550D01*
X149966657Y-121463566D01*
X149906417Y-121581795D01*
X149858442Y-121632591D01*
X149795932Y-121649500D01*
X146204068Y-121649500D01*
X146137029Y-121629815D01*
X146093583Y-121581795D01*
X146033343Y-121463567D01*
X145894517Y-121272490D01*
X145727510Y-121105483D01*
X145536433Y-120966657D01*
X145325996Y-120859433D01*
X145101368Y-120786446D01*
X144868097Y-120749500D01*
X144868092Y-120749500D01*
X144631908Y-120749500D01*
X144631903Y-120749500D01*
X144398631Y-120786446D01*
X144174003Y-120859433D01*
X143963566Y-120966657D01*
X143866049Y-121037508D01*
X143772490Y-121105483D01*
X143772488Y-121105485D01*
X143772487Y-121105485D01*
X143605485Y-121272487D01*
X143605485Y-121272488D01*
X143605483Y-121272490D01*
X143545862Y-121354550D01*
X143466657Y-121463566D01*
X143359433Y-121674003D01*
X143286446Y-121898631D01*
X143249500Y-122131902D01*
X143249500Y-122368097D01*
X143286447Y-122601369D01*
X143286447Y-122601372D01*
X143327450Y-122727564D01*
X143329445Y-122797405D01*
X143297200Y-122853563D01*
X137881286Y-128269478D01*
X137769481Y-128381282D01*
X137769475Y-128381290D01*
X137727531Y-128453941D01*
X137727531Y-128453942D01*
X137690423Y-128518215D01*
X137649499Y-128670943D01*
X137649499Y-128670945D01*
X137649499Y-128839046D01*
X137649500Y-128839059D01*
X137649500Y-132830500D01*
X137629815Y-132897539D01*
X137577011Y-132943294D01*
X137525500Y-132954500D01*
X136805129Y-132954500D01*
X136805123Y-132954501D01*
X136745516Y-132960908D01*
X136610671Y-133011202D01*
X136610664Y-133011206D01*
X136495455Y-133097452D01*
X136495452Y-133097455D01*
X136409206Y-133212664D01*
X136409202Y-133212671D01*
X136358908Y-133347517D01*
X136352501Y-133407116D01*
X136352501Y-133407123D01*
X136352500Y-133407135D01*
X136352500Y-135848901D01*
X136343854Y-135878344D01*
X136337332Y-135908327D01*
X136333577Y-135913342D01*
X136332815Y-135915940D01*
X136316185Y-135936577D01*
X136183286Y-136069478D01*
X136183285Y-136069478D01*
X136183284Y-136069479D01*
X136071479Y-136181284D01*
X136054734Y-136210289D01*
X136032910Y-136248090D01*
X136004745Y-136296873D01*
X135995055Y-136313657D01*
X135992423Y-136318215D01*
X135951499Y-136470943D01*
X135951499Y-136470945D01*
X135951499Y-136639046D01*
X135951500Y-136639059D01*
X135951500Y-140167665D01*
X135951499Y-140167683D01*
X135951499Y-140333389D01*
X135951498Y-140333389D01*
X135967213Y-140392036D01*
X135992423Y-140486120D01*
X135992424Y-140486121D01*
X136007057Y-140511468D01*
X136007058Y-140511469D01*
X136071475Y-140623044D01*
X136071481Y-140623052D01*
X136190349Y-140741920D01*
X136190355Y-140741925D01*
X137691170Y-142242740D01*
X137724655Y-142304063D01*
X137719671Y-142373755D01*
X137677799Y-142429688D01*
X137642246Y-142446976D01*
X137642607Y-142448039D01*
X137638763Y-142449343D01*
X137408963Y-142544530D01*
X137408953Y-142544534D01*
X137193544Y-142668900D01*
X136996208Y-142820321D01*
X136996201Y-142820327D01*
X136820327Y-142996201D01*
X136820321Y-142996208D01*
X136668900Y-143193544D01*
X136544534Y-143408953D01*
X136544530Y-143408963D01*
X136449344Y-143638761D01*
X136414318Y-143769481D01*
X136387165Y-143870821D01*
X136384967Y-143879023D01*
X136352500Y-144125623D01*
X136352500Y-144374376D01*
X136368181Y-144493477D01*
X136384967Y-144620978D01*
X136403079Y-144688572D01*
X136449344Y-144861238D01*
X136544530Y-145091036D01*
X136544534Y-145091046D01*
X136668900Y-145306455D01*
X136820321Y-145503791D01*
X136820327Y-145503798D01*
X136996201Y-145679672D01*
X136996208Y-145679678D01*
X137193544Y-145831099D01*
X137408953Y-145955465D01*
X137408954Y-145955465D01*
X137408957Y-145955467D01*
X137638760Y-146050655D01*
X137879022Y-146115033D01*
X138125631Y-146147500D01*
X138125638Y-146147500D01*
X138374362Y-146147500D01*
X138374369Y-146147500D01*
X138620978Y-146115033D01*
X138861240Y-146050655D01*
X139091043Y-145955467D01*
X139306456Y-145831099D01*
X139503793Y-145679677D01*
X139679677Y-145503793D01*
X139831099Y-145306456D01*
X139955467Y-145091043D01*
X140050655Y-144861240D01*
X140115033Y-144620978D01*
X140147500Y-144374369D01*
X140147500Y-144125631D01*
X140115033Y-143879022D01*
X140050655Y-143638760D01*
X139955467Y-143408957D01*
X139952770Y-143404286D01*
X139831099Y-143193544D01*
X139679678Y-142996208D01*
X139679672Y-142996201D01*
X139503798Y-142820327D01*
X139503791Y-142820321D01*
X139378101Y-142723876D01*
X139336898Y-142667448D01*
X139332743Y-142597702D01*
X139366955Y-142536782D01*
X139428672Y-142504029D01*
X139453587Y-142501500D01*
X145046413Y-142501500D01*
X145113452Y-142521185D01*
X145159207Y-142573989D01*
X145169151Y-142643147D01*
X145140126Y-142706703D01*
X145121899Y-142723876D01*
X144996208Y-142820321D01*
X144996201Y-142820327D01*
X144820327Y-142996201D01*
X144820321Y-142996208D01*
X144668900Y-143193544D01*
X144544534Y-143408953D01*
X144544530Y-143408963D01*
X144449344Y-143638761D01*
X144414318Y-143769481D01*
X144387165Y-143870821D01*
X144384967Y-143879023D01*
X144352500Y-144125623D01*
X144352500Y-144374376D01*
X144368181Y-144493477D01*
X144384967Y-144620978D01*
X144403079Y-144688572D01*
X144449344Y-144861238D01*
X144544530Y-145091036D01*
X144544534Y-145091046D01*
X144668900Y-145306455D01*
X144820321Y-145503791D01*
X144820327Y-145503798D01*
X144996201Y-145679672D01*
X144996208Y-145679678D01*
X145193544Y-145831099D01*
X145408953Y-145955465D01*
X145408954Y-145955465D01*
X145408957Y-145955467D01*
X145638760Y-146050655D01*
X145879022Y-146115033D01*
X146125631Y-146147500D01*
X146125638Y-146147500D01*
X146374362Y-146147500D01*
X146374369Y-146147500D01*
X146620978Y-146115033D01*
X146861240Y-146050655D01*
X147091043Y-145955467D01*
X147306456Y-145831099D01*
X147503793Y-145679677D01*
X147679677Y-145503793D01*
X147831099Y-145306456D01*
X147955467Y-145091043D01*
X148050655Y-144861240D01*
X148115033Y-144620978D01*
X148147500Y-144374369D01*
X148147500Y-144125631D01*
X148115033Y-143879022D01*
X148050655Y-143638760D01*
X147955467Y-143408957D01*
X147952770Y-143404286D01*
X147831099Y-143193544D01*
X147679678Y-142996208D01*
X147679672Y-142996201D01*
X147503798Y-142820327D01*
X147503791Y-142820321D01*
X147378101Y-142723876D01*
X147336898Y-142667448D01*
X147332743Y-142597702D01*
X147366955Y-142536782D01*
X147428672Y-142504029D01*
X147453587Y-142501500D01*
X150940903Y-142501500D01*
X151007942Y-142521185D01*
X151028584Y-142537819D01*
X152273181Y-143782416D01*
X152306666Y-143843739D01*
X152309500Y-143870097D01*
X152309500Y-144817870D01*
X152309501Y-144817876D01*
X152315908Y-144877483D01*
X152366202Y-145012328D01*
X152366206Y-145012335D01*
X152452452Y-145127544D01*
X152452455Y-145127547D01*
X152567664Y-145213793D01*
X152567671Y-145213797D01*
X152702517Y-145264091D01*
X152702516Y-145264091D01*
X152705828Y-145264447D01*
X152762127Y-145270500D01*
X154157872Y-145270499D01*
X154217483Y-145264091D01*
X154352331Y-145213796D01*
X154467546Y-145127546D01*
X154553796Y-145012331D01*
X154604091Y-144877483D01*
X154609062Y-144831242D01*
X154609939Y-144829124D01*
X154609613Y-144826853D01*
X154623242Y-144797009D01*
X154635799Y-144766694D01*
X154637684Y-144765384D01*
X154638638Y-144763297D01*
X154666239Y-144745558D01*
X154693191Y-144726846D01*
X154696087Y-144726376D01*
X154697416Y-144725523D01*
X154732351Y-144720500D01*
X154951011Y-144720500D01*
X155018050Y-144740185D01*
X155051330Y-144771616D01*
X155122443Y-144869497D01*
X155250500Y-144997554D01*
X155250505Y-144997558D01*
X155348978Y-145069102D01*
X155397006Y-145103996D01*
X155487572Y-145150142D01*
X155558360Y-145186211D01*
X155558363Y-145186212D01*
X155643251Y-145213793D01*
X155730591Y-145242171D01*
X155813429Y-145255291D01*
X155909449Y-145270500D01*
X155909454Y-145270500D01*
X156090551Y-145270500D01*
X156224010Y-145249362D01*
X156293303Y-145258316D01*
X156305408Y-145264447D01*
X156418215Y-145329576D01*
X156530018Y-145359533D01*
X156570941Y-145370499D01*
X156570942Y-145370499D01*
X169723332Y-145370499D01*
X169723348Y-145370500D01*
X169730944Y-145370500D01*
X169889055Y-145370500D01*
X169889058Y-145370500D01*
X170041786Y-145329576D01*
X170092148Y-145300499D01*
X170178717Y-145250519D01*
X170290521Y-145138715D01*
X170290521Y-145138713D01*
X170300725Y-145128510D01*
X170300729Y-145128505D01*
X170542416Y-144886818D01*
X170603739Y-144853333D01*
X170630097Y-144850499D01*
X171529901Y-144850499D01*
X171596940Y-144870184D01*
X171617582Y-144886818D01*
X173112284Y-146381520D01*
X173112286Y-146381521D01*
X173112290Y-146381524D01*
X173235347Y-146452570D01*
X173249216Y-146460577D01*
X173401943Y-146501501D01*
X173401945Y-146501501D01*
X173567654Y-146501501D01*
X173567670Y-146501500D01*
X189116003Y-146501500D01*
X189183042Y-146521185D01*
X189203684Y-146537819D01*
X190435578Y-147769713D01*
X190435580Y-147769716D01*
X190442464Y-147776600D01*
X190453686Y-147787823D01*
X190465639Y-147809716D01*
X190487167Y-147849142D01*
X190487166Y-147849144D01*
X190487168Y-147849147D01*
X190485282Y-147875500D01*
X190482183Y-147918834D01*
X190482181Y-147918836D01*
X190482181Y-147918839D01*
X190465790Y-147940732D01*
X190440311Y-147974767D01*
X190440308Y-147974767D01*
X190440307Y-147974770D01*
X190414672Y-147984330D01*
X190374847Y-147999184D01*
X190366001Y-147999500D01*
X133124500Y-147999500D01*
X133057461Y-147979815D01*
X133011706Y-147927011D01*
X133000500Y-147875500D01*
X133000500Y-123635258D01*
X135999500Y-123635258D01*
X135999500Y-123864741D01*
X136024446Y-124054215D01*
X136029452Y-124092238D01*
X136055570Y-124189711D01*
X136088842Y-124313887D01*
X136176650Y-124525876D01*
X136176657Y-124525890D01*
X136291392Y-124724617D01*
X136431081Y-124906661D01*
X136431089Y-124906670D01*
X136593330Y-125068911D01*
X136593338Y-125068918D01*
X136775382Y-125208607D01*
X136775385Y-125208608D01*
X136775388Y-125208611D01*
X136974112Y-125323344D01*
X136974117Y-125323346D01*
X136974123Y-125323349D01*
X137061236Y-125359432D01*
X137186113Y-125411158D01*
X137407762Y-125470548D01*
X137635266Y-125500500D01*
X137635273Y-125500500D01*
X137864727Y-125500500D01*
X137864734Y-125500500D01*
X138092238Y-125470548D01*
X138313887Y-125411158D01*
X138525888Y-125323344D01*
X138724612Y-125208611D01*
X138906661Y-125068919D01*
X138906665Y-125068914D01*
X138906670Y-125068911D01*
X139068911Y-124906670D01*
X139068914Y-124906665D01*
X139068919Y-124906661D01*
X139208611Y-124724612D01*
X139323344Y-124525888D01*
X139411158Y-124313887D01*
X139470548Y-124092238D01*
X139500500Y-123864734D01*
X139500500Y-123635266D01*
X139470548Y-123407762D01*
X139411158Y-123186113D01*
X139339113Y-123012181D01*
X139323349Y-122974123D01*
X139323346Y-122974117D01*
X139323344Y-122974112D01*
X139208611Y-122775388D01*
X139208608Y-122775385D01*
X139208607Y-122775382D01*
X139075083Y-122601372D01*
X139068919Y-122593339D01*
X139068918Y-122593338D01*
X139068911Y-122593330D01*
X138906670Y-122431089D01*
X138906661Y-122431081D01*
X138724617Y-122291392D01*
X138525890Y-122176657D01*
X138525876Y-122176650D01*
X138313887Y-122088842D01*
X138092238Y-122029452D01*
X138054215Y-122024446D01*
X137864741Y-121999500D01*
X137864734Y-121999500D01*
X137635266Y-121999500D01*
X137635258Y-121999500D01*
X137418715Y-122028009D01*
X137407762Y-122029452D01*
X137314076Y-122054554D01*
X137186112Y-122088842D01*
X136974123Y-122176650D01*
X136974109Y-122176657D01*
X136775382Y-122291392D01*
X136593338Y-122431081D01*
X136431081Y-122593338D01*
X136291392Y-122775382D01*
X136176657Y-122974109D01*
X136176650Y-122974123D01*
X136088842Y-123186112D01*
X136029453Y-123407759D01*
X136029451Y-123407770D01*
X135999500Y-123635258D01*
X133000500Y-123635258D01*
X133000500Y-119124500D01*
X133020185Y-119057461D01*
X133072989Y-119011706D01*
X133124500Y-119000500D01*
X205993770Y-119000500D01*
X206060809Y-119020185D01*
G37*
%TD.AperFunction*%
%TA.AperFunction,Conductor*%
G36*
X175216768Y-140115185D02*
G01*
X175262523Y-140167989D01*
X175272467Y-140237147D01*
X175243442Y-140300703D01*
X175218620Y-140322602D01*
X175107128Y-140397098D01*
X175107124Y-140397101D01*
X174995630Y-140508595D01*
X174995627Y-140508599D01*
X174908026Y-140639702D01*
X174908019Y-140639715D01*
X174847681Y-140785386D01*
X174847678Y-140785398D01*
X174816917Y-140940041D01*
X174816917Y-141097734D01*
X174847678Y-141252377D01*
X174847681Y-141252389D01*
X174890061Y-141354703D01*
X174899500Y-141402155D01*
X174899500Y-144413330D01*
X174899499Y-144413348D01*
X174899499Y-144579054D01*
X174899498Y-144579054D01*
X174940423Y-144731785D01*
X174956880Y-144760289D01*
X174956879Y-144760289D01*
X174956880Y-144760290D01*
X175019475Y-144868709D01*
X175019481Y-144868717D01*
X175138349Y-144987585D01*
X175138355Y-144987590D01*
X175239584Y-145088819D01*
X175273069Y-145150142D01*
X175268085Y-145219834D01*
X175226213Y-145275767D01*
X175160749Y-145300184D01*
X175151903Y-145300500D01*
X173781098Y-145300500D01*
X173714059Y-145280815D01*
X173693417Y-145264181D01*
X172466818Y-144037582D01*
X172433333Y-143976259D01*
X172430499Y-143949901D01*
X172430499Y-142602129D01*
X172430498Y-142602123D01*
X172430497Y-142602116D01*
X172424091Y-142542517D01*
X172423188Y-142540097D01*
X172373797Y-142407671D01*
X172373793Y-142407664D01*
X172287547Y-142292455D01*
X172287544Y-142292452D01*
X172172335Y-142206206D01*
X172172328Y-142206202D01*
X172037482Y-142155908D01*
X172037483Y-142155908D01*
X171977883Y-142149501D01*
X171977881Y-142149500D01*
X171977873Y-142149500D01*
X171977864Y-142149500D01*
X170182129Y-142149500D01*
X170182123Y-142149501D01*
X170122516Y-142155908D01*
X169987671Y-142206202D01*
X169987664Y-142206206D01*
X169872455Y-142292452D01*
X169872452Y-142292455D01*
X169786206Y-142407664D01*
X169786202Y-142407671D01*
X169735908Y-142542517D01*
X169732525Y-142573989D01*
X169729501Y-142602123D01*
X169729500Y-142602135D01*
X169729500Y-143949901D01*
X169720856Y-143979337D01*
X169714333Y-144009327D01*
X169710577Y-144014344D01*
X169709815Y-144016940D01*
X169693182Y-144037582D01*
X169597585Y-144133180D01*
X169536262Y-144166665D01*
X169509903Y-144169499D01*
X166304500Y-144169499D01*
X166237461Y-144149814D01*
X166191706Y-144097010D01*
X166180500Y-144045499D01*
X166180499Y-143025096D01*
X166200183Y-142958057D01*
X166216813Y-142937420D01*
X169022416Y-140131819D01*
X169083739Y-140098334D01*
X169110097Y-140095500D01*
X175149729Y-140095500D01*
X175216768Y-140115185D01*
G37*
%TD.AperFunction*%
%TA.AperFunction,Conductor*%
G36*
X207747228Y-130448297D02*
G01*
X207759807Y-130447758D01*
X207779670Y-130459352D01*
X207801446Y-130466773D01*
X207810720Y-130477476D01*
X207820149Y-130482980D01*
X207840485Y-130511827D01*
X207881610Y-130592539D01*
X207917647Y-130663266D01*
X208034731Y-130824418D01*
X208175582Y-130965269D01*
X208336734Y-131082353D01*
X208336744Y-131082358D01*
X208340273Y-131084520D01*
X208387157Y-131136325D01*
X208399500Y-131190258D01*
X208399500Y-132439903D01*
X208379815Y-132506942D01*
X208363181Y-132527584D01*
X207275339Y-133615425D01*
X207214016Y-133648910D01*
X207211850Y-133649361D01*
X207056508Y-133680261D01*
X207056498Y-133680264D01*
X206910827Y-133740602D01*
X206910814Y-133740609D01*
X206779711Y-133828210D01*
X206779707Y-133828213D01*
X206668213Y-133939707D01*
X206668210Y-133939711D01*
X206580609Y-134070814D01*
X206580602Y-134070827D01*
X206520264Y-134216498D01*
X206520261Y-134216510D01*
X206489500Y-134371153D01*
X206489500Y-134528846D01*
X206520261Y-134683489D01*
X206520264Y-134683501D01*
X206580602Y-134829172D01*
X206580609Y-134829185D01*
X206668210Y-134960288D01*
X206668213Y-134960292D01*
X206779707Y-135071786D01*
X206779711Y-135071789D01*
X206910814Y-135159390D01*
X206910827Y-135159397D01*
X206984013Y-135189711D01*
X207056503Y-135219737D01*
X207211153Y-135250499D01*
X207211156Y-135250500D01*
X207211158Y-135250500D01*
X207368844Y-135250500D01*
X207368845Y-135250499D01*
X207523497Y-135219737D01*
X207669179Y-135159394D01*
X207800289Y-135071789D01*
X207911789Y-134960289D01*
X207999394Y-134829179D01*
X208059737Y-134683497D01*
X208084424Y-134559390D01*
X208090638Y-134528150D01*
X208123023Y-134466239D01*
X208124520Y-134464714D01*
X209253819Y-133335414D01*
X209315142Y-133301930D01*
X209384834Y-133306914D01*
X209440767Y-133348786D01*
X209465184Y-133414250D01*
X209465500Y-133423096D01*
X209465500Y-138383903D01*
X209445815Y-138450942D01*
X209429181Y-138471584D01*
X207728532Y-140172232D01*
X207667209Y-140205717D01*
X207597517Y-140200733D01*
X207553170Y-140172232D01*
X207543186Y-140162248D01*
X207543179Y-140162242D01*
X207358540Y-140020564D01*
X207358538Y-140020562D01*
X207358532Y-140020558D01*
X207358527Y-140020555D01*
X207358524Y-140020553D01*
X207156976Y-139904188D01*
X207156960Y-139904180D01*
X206941947Y-139815120D01*
X206926847Y-139811074D01*
X206717126Y-139754879D01*
X206717125Y-139754878D01*
X206717122Y-139754878D01*
X206486382Y-139724501D01*
X206486377Y-139724500D01*
X206486372Y-139724500D01*
X206253628Y-139724500D01*
X206253622Y-139724500D01*
X206253617Y-139724501D01*
X206022877Y-139754878D01*
X205798052Y-139815120D01*
X205583039Y-139904180D01*
X205583023Y-139904188D01*
X205381475Y-140020553D01*
X205381459Y-140020564D01*
X205196820Y-140162242D01*
X205196813Y-140162248D01*
X205032248Y-140326813D01*
X205032242Y-140326820D01*
X204890564Y-140511459D01*
X204890553Y-140511475D01*
X204817793Y-140637500D01*
X204767226Y-140685716D01*
X204710406Y-140699500D01*
X204369594Y-140699500D01*
X204302555Y-140679815D01*
X204262207Y-140637500D01*
X204231769Y-140584781D01*
X204189442Y-140511468D01*
X204052800Y-140333392D01*
X204047757Y-140326820D01*
X204047751Y-140326813D01*
X203883186Y-140162248D01*
X203883179Y-140162242D01*
X203698540Y-140020564D01*
X203698538Y-140020562D01*
X203698532Y-140020558D01*
X203698527Y-140020555D01*
X203698524Y-140020553D01*
X203496976Y-139904188D01*
X203496960Y-139904180D01*
X203281947Y-139815120D01*
X203266847Y-139811074D01*
X203057126Y-139754879D01*
X203057125Y-139754878D01*
X203057122Y-139754878D01*
X202826382Y-139724501D01*
X202826377Y-139724500D01*
X202826372Y-139724500D01*
X202593628Y-139724500D01*
X202593622Y-139724500D01*
X202593617Y-139724501D01*
X202362874Y-139754879D01*
X202362873Y-139754879D01*
X202222301Y-139792544D01*
X202152452Y-139790881D01*
X202102528Y-139760450D01*
X200614292Y-138272213D01*
X200614288Y-138272210D01*
X200483185Y-138184609D01*
X200483172Y-138184602D01*
X200337501Y-138124264D01*
X200337489Y-138124261D01*
X200182845Y-138093500D01*
X200182842Y-138093500D01*
X193805097Y-138093500D01*
X193738058Y-138073815D01*
X193692303Y-138021011D01*
X193682359Y-137951853D01*
X193711384Y-137888297D01*
X193717416Y-137881819D01*
X194311416Y-137287819D01*
X194372739Y-137254334D01*
X194399097Y-137251500D01*
X202720861Y-137251500D01*
X202720877Y-137251501D01*
X202728473Y-137251501D01*
X202886584Y-137251501D01*
X202886587Y-137251501D01*
X203039315Y-137210577D01*
X203089434Y-137181639D01*
X203176246Y-137131520D01*
X203280815Y-137026950D01*
X203342136Y-136993466D01*
X203344304Y-136993015D01*
X203344993Y-136992878D01*
X203344994Y-136992878D01*
X203499649Y-136962115D01*
X203645331Y-136901772D01*
X203776441Y-136814167D01*
X203887941Y-136702667D01*
X203975546Y-136571557D01*
X204031428Y-136436643D01*
X204075266Y-136382245D01*
X204098522Y-136369545D01*
X204233444Y-136313659D01*
X204364554Y-136226054D01*
X204476054Y-136114554D01*
X204563659Y-135983444D01*
X204624002Y-135837762D01*
X204654765Y-135683107D01*
X204654765Y-135525423D01*
X204654765Y-135525420D01*
X204654764Y-135525418D01*
X204650019Y-135501562D01*
X204624002Y-135370768D01*
X204613290Y-135344906D01*
X204563662Y-135225092D01*
X204563655Y-135225079D01*
X204476054Y-135093976D01*
X204476051Y-135093972D01*
X204364557Y-134982478D01*
X204364553Y-134982475D01*
X204233450Y-134894874D01*
X204233437Y-134894867D01*
X204087766Y-134834529D01*
X204087754Y-134834526D01*
X203933110Y-134803765D01*
X203933107Y-134803765D01*
X203775423Y-134803765D01*
X203775420Y-134803765D01*
X203620775Y-134834526D01*
X203620763Y-134834529D01*
X203486698Y-134890061D01*
X203439246Y-134899500D01*
X203155845Y-134899500D01*
X203088806Y-134879815D01*
X203043051Y-134827011D01*
X203033107Y-134757853D01*
X203041284Y-134728048D01*
X203059735Y-134683501D01*
X203059737Y-134683497D01*
X203090500Y-134528842D01*
X203090500Y-134371158D01*
X203090499Y-134371155D01*
X203087256Y-134354851D01*
X203078141Y-134309027D01*
X203084367Y-134239439D01*
X203112075Y-134197158D01*
X206042979Y-131266255D01*
X206104300Y-131232772D01*
X206159618Y-131233367D01*
X206163650Y-131234335D01*
X206163661Y-131234339D01*
X206163671Y-131234340D01*
X206163673Y-131234341D01*
X206239521Y-131246354D01*
X206360403Y-131265500D01*
X206360404Y-131265500D01*
X206559596Y-131265500D01*
X206559597Y-131265500D01*
X206756339Y-131234339D01*
X206756342Y-131234338D01*
X206756343Y-131234338D01*
X206945780Y-131172786D01*
X206945780Y-131172785D01*
X206945783Y-131172785D01*
X207123266Y-131082353D01*
X207284418Y-130965269D01*
X207425269Y-130824418D01*
X207542353Y-130663266D01*
X207619515Y-130511827D01*
X207628159Y-130502673D01*
X207632895Y-130491007D01*
X207651696Y-130477752D01*
X207667490Y-130461031D01*
X207679710Y-130458004D01*
X207690002Y-130450750D01*
X207712984Y-130449764D01*
X207735311Y-130444236D01*
X207747228Y-130448297D01*
G37*
%TD.AperFunction*%
%TA.AperFunction,Conductor*%
G36*
X159052539Y-122820185D02*
G01*
X159098294Y-122872989D01*
X159109500Y-122924500D01*
X159109500Y-124372870D01*
X159109501Y-124372876D01*
X159115908Y-124432483D01*
X159166202Y-124567328D01*
X159166206Y-124567335D01*
X159252452Y-124682544D01*
X159252455Y-124682547D01*
X159367664Y-124768793D01*
X159367671Y-124768797D01*
X159502517Y-124819091D01*
X159502516Y-124819091D01*
X159509444Y-124819835D01*
X159562127Y-124825500D01*
X161357872Y-124825499D01*
X161417483Y-124819091D01*
X161552331Y-124768796D01*
X161667546Y-124682546D01*
X161753796Y-124567331D01*
X161802810Y-124435916D01*
X161844681Y-124379984D01*
X161910145Y-124355566D01*
X161978418Y-124370417D01*
X162006673Y-124391569D01*
X162120213Y-124505109D01*
X162292179Y-124630048D01*
X162292181Y-124630049D01*
X162292184Y-124630051D01*
X162481588Y-124726557D01*
X162683757Y-124792246D01*
X162893713Y-124825500D01*
X162893714Y-124825500D01*
X163106286Y-124825500D01*
X163106287Y-124825500D01*
X163316243Y-124792246D01*
X163518412Y-124726557D01*
X163707816Y-124630051D01*
X163773664Y-124582210D01*
X163879786Y-124505109D01*
X163879788Y-124505106D01*
X163879792Y-124505104D01*
X164030104Y-124354792D01*
X164030106Y-124354788D01*
X164030109Y-124354786D01*
X164088661Y-124274193D01*
X164155051Y-124182816D01*
X164163820Y-124165606D01*
X164175235Y-124143205D01*
X164223209Y-124092409D01*
X164285719Y-124075500D01*
X167924903Y-124075500D01*
X167991942Y-124095185D01*
X168012584Y-124111819D01*
X171258583Y-127357819D01*
X171292068Y-127419142D01*
X171287084Y-127488834D01*
X171245212Y-127544767D01*
X171179748Y-127569184D01*
X171170902Y-127569500D01*
X170182129Y-127569500D01*
X170182123Y-127569501D01*
X170122516Y-127575908D01*
X169987671Y-127626202D01*
X169987664Y-127626206D01*
X169872455Y-127712452D01*
X169872452Y-127712455D01*
X169786206Y-127827664D01*
X169786202Y-127827671D01*
X169735908Y-127962517D01*
X169729501Y-128022116D01*
X169729500Y-128022135D01*
X169729500Y-129666120D01*
X169709815Y-129733159D01*
X169667500Y-129773507D01*
X169572287Y-129828477D01*
X169572282Y-129828481D01*
X169460478Y-129940286D01*
X167589584Y-131811181D01*
X167528261Y-131844666D01*
X167501903Y-131847500D01*
X164551097Y-131847500D01*
X164484058Y-131827815D01*
X164438303Y-131775011D01*
X164428359Y-131705853D01*
X164457384Y-131642297D01*
X164463416Y-131635819D01*
X165040273Y-131058962D01*
X166858506Y-129240727D01*
X166858511Y-129240724D01*
X166868714Y-129230520D01*
X166868716Y-129230520D01*
X166980520Y-129118716D01*
X167005764Y-129074992D01*
X167040576Y-129014696D01*
X167040579Y-129014687D01*
X167040585Y-129014679D01*
X167059577Y-128981785D01*
X167100500Y-128829058D01*
X167100500Y-128767265D01*
X167120185Y-128700226D01*
X167121398Y-128698374D01*
X167146180Y-128661286D01*
X167209394Y-128566679D01*
X167269737Y-128420997D01*
X167300500Y-128266342D01*
X167300500Y-128108658D01*
X167300500Y-128108656D01*
X167300500Y-128108655D01*
X167300499Y-128108653D01*
X167285519Y-128033343D01*
X167269737Y-127954003D01*
X167246487Y-127897872D01*
X167209397Y-127808327D01*
X167209390Y-127808314D01*
X167121789Y-127677211D01*
X167121786Y-127677207D01*
X167010292Y-127565713D01*
X167010288Y-127565710D01*
X166879185Y-127478109D01*
X166879172Y-127478102D01*
X166733501Y-127417764D01*
X166733489Y-127417761D01*
X166578845Y-127387000D01*
X166578842Y-127387000D01*
X166421158Y-127387000D01*
X166421155Y-127387000D01*
X166266510Y-127417761D01*
X166266498Y-127417764D01*
X166120827Y-127478102D01*
X166120814Y-127478109D01*
X165989711Y-127565710D01*
X165989707Y-127565713D01*
X165878213Y-127677207D01*
X165878210Y-127677211D01*
X165790609Y-127808314D01*
X165790602Y-127808327D01*
X165730264Y-127953998D01*
X165730261Y-127954010D01*
X165699500Y-128108653D01*
X165699500Y-128266346D01*
X165729122Y-128415261D01*
X165730263Y-128420997D01*
X165756177Y-128483560D01*
X165771634Y-128520875D01*
X165779103Y-128590345D01*
X165747828Y-128652824D01*
X165744754Y-128656009D01*
X162485339Y-131915425D01*
X162424016Y-131948910D01*
X162421850Y-131949361D01*
X162266508Y-131980261D01*
X162266498Y-131980264D01*
X162120827Y-132040602D01*
X162120814Y-132040609D01*
X161989711Y-132128210D01*
X161989707Y-132128213D01*
X161878213Y-132239707D01*
X161878210Y-132239711D01*
X161790609Y-132370814D01*
X161790602Y-132370827D01*
X161730264Y-132516498D01*
X161730261Y-132516510D01*
X161699500Y-132671153D01*
X161699500Y-132828846D01*
X161730261Y-132983489D01*
X161730264Y-132983501D01*
X161790602Y-133129172D01*
X161790609Y-133129185D01*
X161878210Y-133260288D01*
X161878213Y-133260292D01*
X161989710Y-133371789D01*
X162117150Y-133456941D01*
X162161955Y-133510553D01*
X162170662Y-133579878D01*
X162140508Y-133642905D01*
X162135940Y-133647724D01*
X161420484Y-134363181D01*
X161359161Y-134396666D01*
X161332803Y-134399500D01*
X159620940Y-134399500D01*
X159580019Y-134410464D01*
X159580019Y-134410465D01*
X159542751Y-134420451D01*
X159468214Y-134440423D01*
X159468209Y-134440426D01*
X159331290Y-134519475D01*
X159331282Y-134519481D01*
X158985339Y-134865425D01*
X158924016Y-134898910D01*
X158921850Y-134899361D01*
X158766508Y-134930261D01*
X158766498Y-134930264D01*
X158620827Y-134990602D01*
X158620814Y-134990609D01*
X158489711Y-135078210D01*
X158489707Y-135078213D01*
X158378213Y-135189707D01*
X158378210Y-135189711D01*
X158290609Y-135320814D01*
X158290602Y-135320827D01*
X158230264Y-135466498D01*
X158230261Y-135466510D01*
X158199500Y-135621153D01*
X158199500Y-135778846D01*
X158230261Y-135933489D01*
X158230264Y-135933501D01*
X158290602Y-136079172D01*
X158290609Y-136079185D01*
X158378210Y-136210288D01*
X158378213Y-136210292D01*
X158489707Y-136321786D01*
X158489711Y-136321789D01*
X158620814Y-136409390D01*
X158620827Y-136409397D01*
X158766498Y-136469735D01*
X158766503Y-136469737D01*
X158872112Y-136490744D01*
X158921153Y-136500499D01*
X158921156Y-136500500D01*
X158921158Y-136500500D01*
X159078844Y-136500500D01*
X159078845Y-136500499D01*
X159233497Y-136469737D01*
X159379179Y-136409394D01*
X159510289Y-136321789D01*
X159621789Y-136210289D01*
X159709394Y-136079179D01*
X159769737Y-135933497D01*
X159795916Y-135801888D01*
X159800638Y-135778150D01*
X159809402Y-135761394D01*
X159813423Y-135742913D01*
X159832168Y-135717871D01*
X159833023Y-135716239D01*
X159834467Y-135714767D01*
X159912418Y-135636816D01*
X159973740Y-135603334D01*
X160000097Y-135600500D01*
X160575500Y-135600500D01*
X160642539Y-135620185D01*
X160688294Y-135672989D01*
X160699500Y-135724500D01*
X160699500Y-135778846D01*
X160730261Y-135933489D01*
X160730264Y-135933501D01*
X160790602Y-136079172D01*
X160790609Y-136079185D01*
X160878210Y-136210288D01*
X160878213Y-136210292D01*
X160989707Y-136321786D01*
X160989711Y-136321789D01*
X161120814Y-136409390D01*
X161120827Y-136409397D01*
X161266498Y-136469735D01*
X161266503Y-136469737D01*
X161372112Y-136490744D01*
X161421153Y-136500499D01*
X161421156Y-136500500D01*
X161421158Y-136500500D01*
X161578844Y-136500500D01*
X161578845Y-136500499D01*
X161733497Y-136469737D01*
X161879179Y-136409394D01*
X162010289Y-136321789D01*
X162121789Y-136210289D01*
X162209394Y-136079179D01*
X162269737Y-135933497D01*
X162295916Y-135801888D01*
X162300638Y-135778150D01*
X162333023Y-135716239D01*
X162334518Y-135714716D01*
X164563416Y-133485819D01*
X164624739Y-133452334D01*
X164651097Y-133449500D01*
X169668198Y-133449500D01*
X169735237Y-133469185D01*
X169780992Y-133521989D01*
X169790936Y-133591147D01*
X169786130Y-133611812D01*
X169776425Y-133641682D01*
X169762753Y-133683760D01*
X169739874Y-133828213D01*
X169729500Y-133893713D01*
X169729500Y-134106287D01*
X169730838Y-134114733D01*
X169761611Y-134309030D01*
X169762754Y-134316243D01*
X169819622Y-134491265D01*
X169828444Y-134518414D01*
X169924951Y-134707820D01*
X170049890Y-134879786D01*
X170107923Y-134937819D01*
X170141408Y-134999142D01*
X170136424Y-135068834D01*
X170094552Y-135124767D01*
X170029088Y-135149184D01*
X170020242Y-135149500D01*
X167079766Y-135149500D01*
X167012727Y-135129815D01*
X167010875Y-135128602D01*
X166879185Y-135040609D01*
X166879172Y-135040602D01*
X166733501Y-134980264D01*
X166733489Y-134980261D01*
X166578845Y-134949500D01*
X166578842Y-134949500D01*
X166421158Y-134949500D01*
X166421155Y-134949500D01*
X166266510Y-134980261D01*
X166266498Y-134980264D01*
X166120827Y-135040602D01*
X166120814Y-135040609D01*
X165989711Y-135128210D01*
X165989707Y-135128213D01*
X165878213Y-135239707D01*
X165878210Y-135239711D01*
X165790609Y-135370814D01*
X165790602Y-135370827D01*
X165730264Y-135516498D01*
X165730261Y-135516508D01*
X165703610Y-135650492D01*
X165671225Y-135712403D01*
X165610509Y-135746977D01*
X165581993Y-135750300D01*
X164918007Y-135750300D01*
X164850968Y-135730615D01*
X164805213Y-135677811D01*
X164796390Y-135650492D01*
X164769738Y-135516508D01*
X164769737Y-135516507D01*
X164769737Y-135516503D01*
X164757592Y-135487181D01*
X164709397Y-135370827D01*
X164709390Y-135370814D01*
X164621789Y-135239711D01*
X164621786Y-135239707D01*
X164510292Y-135128213D01*
X164510288Y-135128210D01*
X164379185Y-135040609D01*
X164379172Y-135040602D01*
X164233501Y-134980264D01*
X164233489Y-134980261D01*
X164078845Y-134949500D01*
X164078842Y-134949500D01*
X163921158Y-134949500D01*
X163921155Y-134949500D01*
X163766510Y-134980261D01*
X163766498Y-134980264D01*
X163620827Y-135040602D01*
X163620814Y-135040609D01*
X163489711Y-135128210D01*
X163489707Y-135128213D01*
X163378213Y-135239707D01*
X163378210Y-135239711D01*
X163290609Y-135370814D01*
X163290602Y-135370827D01*
X163230264Y-135516498D01*
X163230261Y-135516510D01*
X163199500Y-135671153D01*
X163199500Y-135828846D01*
X163230261Y-135983489D01*
X163230264Y-135983501D01*
X163290602Y-136129172D01*
X163290609Y-136129185D01*
X163378210Y-136260288D01*
X163378213Y-136260292D01*
X163489707Y-136371786D01*
X163489711Y-136371789D01*
X163620814Y-136459390D01*
X163620827Y-136459397D01*
X163766498Y-136519735D01*
X163766503Y-136519737D01*
X163921158Y-136550500D01*
X163921847Y-136550637D01*
X163983758Y-136583022D01*
X163985337Y-136584573D01*
X164232084Y-136831320D01*
X164232086Y-136831321D01*
X164232090Y-136831324D01*
X164354117Y-136901775D01*
X164369016Y-136910377D01*
X164521743Y-136951301D01*
X164521745Y-136951301D01*
X164687454Y-136951301D01*
X164687470Y-136951300D01*
X170642707Y-136951300D01*
X170709746Y-136970985D01*
X170730383Y-136987614D01*
X170769721Y-137026952D01*
X170802393Y-137059624D01*
X170933495Y-137147224D01*
X170933508Y-137147231D01*
X171016578Y-137181639D01*
X171079184Y-137207571D01*
X171233834Y-137238333D01*
X171233837Y-137238334D01*
X171233839Y-137238334D01*
X171391525Y-137238334D01*
X171391526Y-137238333D01*
X171546178Y-137207571D01*
X171691860Y-137147228D01*
X171822970Y-137059623D01*
X171934470Y-136948123D01*
X172022075Y-136817013D01*
X172082418Y-136671331D01*
X172113181Y-136516676D01*
X172113181Y-136358992D01*
X172113181Y-136358989D01*
X172113180Y-136358987D01*
X172096829Y-136276787D01*
X172082418Y-136204337D01*
X172071592Y-136178202D01*
X172064124Y-136108735D01*
X172095399Y-136046256D01*
X172155487Y-136010603D01*
X172225313Y-136013096D01*
X172273835Y-136043070D01*
X173747334Y-137516569D01*
X173757426Y-137528075D01*
X174111170Y-137881819D01*
X174144655Y-137943142D01*
X174139671Y-138012834D01*
X174097799Y-138068767D01*
X174032335Y-138093184D01*
X174023489Y-138093500D01*
X149424500Y-138093500D01*
X149357461Y-138073815D01*
X149311706Y-138021011D01*
X149300500Y-137969500D01*
X149300500Y-136409448D01*
X152309500Y-136409448D01*
X152309500Y-136590551D01*
X152337829Y-136769410D01*
X152393787Y-136941636D01*
X152393788Y-136941639D01*
X152476006Y-137102997D01*
X152582441Y-137249494D01*
X152582445Y-137249499D01*
X152710500Y-137377554D01*
X152710505Y-137377558D01*
X152838287Y-137470396D01*
X152857006Y-137483996D01*
X152962484Y-137537740D01*
X153018360Y-137566211D01*
X153018363Y-137566212D01*
X153072209Y-137583707D01*
X153190591Y-137622171D01*
X153273429Y-137635291D01*
X153369449Y-137650500D01*
X153369454Y-137650500D01*
X153550551Y-137650500D01*
X153637259Y-137636765D01*
X153729409Y-137622171D01*
X153901639Y-137566211D01*
X154062994Y-137483996D01*
X154209501Y-137377553D01*
X154337553Y-137249501D01*
X154443996Y-137102994D01*
X154526211Y-136941639D01*
X154582171Y-136769409D01*
X154597706Y-136671323D01*
X154607527Y-136609321D01*
X154637456Y-136546186D01*
X154696768Y-136509255D01*
X154766630Y-136510253D01*
X154824863Y-136548863D01*
X154852473Y-136609321D01*
X154877829Y-136769410D01*
X154933787Y-136941636D01*
X154933788Y-136941639D01*
X155016006Y-137102997D01*
X155122441Y-137249494D01*
X155122445Y-137249499D01*
X155250500Y-137377554D01*
X155250505Y-137377558D01*
X155378287Y-137470396D01*
X155397006Y-137483996D01*
X155502484Y-137537740D01*
X155558360Y-137566211D01*
X155558363Y-137566212D01*
X155612209Y-137583707D01*
X155730591Y-137622171D01*
X155813429Y-137635291D01*
X155909449Y-137650500D01*
X155909454Y-137650500D01*
X156090551Y-137650500D01*
X156177259Y-137636765D01*
X156269409Y-137622171D01*
X156441639Y-137566211D01*
X156602994Y-137483996D01*
X156749501Y-137377553D01*
X156877553Y-137249501D01*
X156983996Y-137102994D01*
X157066211Y-136941639D01*
X157122171Y-136769409D01*
X157137706Y-136671323D01*
X157150500Y-136590551D01*
X157150500Y-136409448D01*
X157132669Y-136296872D01*
X157122171Y-136230591D01*
X157069824Y-136069480D01*
X157066212Y-136058363D01*
X157066211Y-136058360D01*
X157028068Y-135983501D01*
X156983996Y-135897006D01*
X156949046Y-135848901D01*
X156877558Y-135750505D01*
X156877554Y-135750500D01*
X156749499Y-135622445D01*
X156749494Y-135622441D01*
X156602997Y-135516006D01*
X156602996Y-135516005D01*
X156602994Y-135516004D01*
X156546426Y-135487181D01*
X156441639Y-135433788D01*
X156441636Y-135433787D01*
X156269410Y-135377829D01*
X156090551Y-135349500D01*
X156090546Y-135349500D01*
X155909454Y-135349500D01*
X155909449Y-135349500D01*
X155730589Y-135377829D01*
X155558363Y-135433787D01*
X155558360Y-135433788D01*
X155397002Y-135516006D01*
X155250505Y-135622441D01*
X155250500Y-135622445D01*
X155122445Y-135750500D01*
X155122441Y-135750505D01*
X155016006Y-135897002D01*
X154933788Y-136058360D01*
X154933787Y-136058363D01*
X154877829Y-136230589D01*
X154852473Y-136390678D01*
X154822544Y-136453813D01*
X154763232Y-136490744D01*
X154693369Y-136489746D01*
X154635137Y-136451136D01*
X154607527Y-136390678D01*
X154592669Y-136296872D01*
X154582171Y-136230591D01*
X154529824Y-136069480D01*
X154526212Y-136058363D01*
X154526211Y-136058360D01*
X154488068Y-135983501D01*
X154443996Y-135897006D01*
X154409046Y-135848901D01*
X154337558Y-135750505D01*
X154337554Y-135750500D01*
X154209499Y-135622445D01*
X154209494Y-135622441D01*
X154062997Y-135516006D01*
X154062996Y-135516005D01*
X154062994Y-135516004D01*
X154006426Y-135487181D01*
X153901639Y-135433788D01*
X153901636Y-135433787D01*
X153729410Y-135377829D01*
X153550551Y-135349500D01*
X153550546Y-135349500D01*
X153369454Y-135349500D01*
X153369449Y-135349500D01*
X153190589Y-135377829D01*
X153018363Y-135433787D01*
X153018360Y-135433788D01*
X152857002Y-135516006D01*
X152710505Y-135622441D01*
X152710500Y-135622445D01*
X152582445Y-135750500D01*
X152582441Y-135750505D01*
X152476006Y-135897002D01*
X152393788Y-136058360D01*
X152393787Y-136058363D01*
X152337829Y-136230589D01*
X152309500Y-136409448D01*
X149300500Y-136409448D01*
X149300500Y-136132940D01*
X149320185Y-136065901D01*
X149336819Y-136045259D01*
X154121785Y-131260293D01*
X154121789Y-131260289D01*
X154151685Y-131215545D01*
X154167102Y-131196760D01*
X154173789Y-131190074D01*
X154173790Y-131190072D01*
X154173922Y-131189940D01*
X154173947Y-131189913D01*
X154175111Y-131188238D01*
X154176703Y-131186029D01*
X154178108Y-131183611D01*
X154185341Y-131172786D01*
X154222123Y-131117737D01*
X154261394Y-131058964D01*
X154279742Y-131014669D01*
X154321736Y-130913285D01*
X154321736Y-130913284D01*
X154321740Y-130913275D01*
X154352501Y-130758620D01*
X154352500Y-130644156D01*
X154352500Y-129018440D01*
X154372185Y-128951401D01*
X154388819Y-128930759D01*
X154621786Y-128697792D01*
X154621789Y-128697789D01*
X154709394Y-128566679D01*
X154769738Y-128420997D01*
X154800500Y-128266342D01*
X154800500Y-128108657D01*
X154769738Y-127954003D01*
X154709394Y-127808321D01*
X154709392Y-127808318D01*
X154709390Y-127808314D01*
X154621789Y-127677211D01*
X154621786Y-127677207D01*
X154510292Y-127565713D01*
X154510288Y-127565710D01*
X154379185Y-127478109D01*
X154379175Y-127478104D01*
X154233497Y-127417762D01*
X154233489Y-127417760D01*
X154078847Y-127387000D01*
X154078843Y-127387000D01*
X153921158Y-127387000D01*
X153921153Y-127387000D01*
X153766510Y-127417760D01*
X153766498Y-127417763D01*
X153722952Y-127435801D01*
X153653483Y-127443270D01*
X153591004Y-127411995D01*
X153555352Y-127351906D01*
X153551500Y-127321240D01*
X153551500Y-125475438D01*
X153571185Y-125408399D01*
X153587819Y-125387757D01*
X156138757Y-122836819D01*
X156200080Y-122803334D01*
X156226438Y-122800500D01*
X158985500Y-122800500D01*
X159052539Y-122820185D01*
G37*
%TD.AperFunction*%
%TA.AperFunction,Conductor*%
G36*
X192817942Y-136870185D02*
G01*
X192863697Y-136922989D01*
X192873641Y-136992147D01*
X192844616Y-137055703D01*
X192838590Y-137062174D01*
X192719125Y-137181639D01*
X192643583Y-137257181D01*
X192582260Y-137290666D01*
X192555902Y-137293500D01*
X192421155Y-137293500D01*
X192266510Y-137324261D01*
X192266498Y-137324264D01*
X192120827Y-137384602D01*
X192120814Y-137384609D01*
X191989711Y-137472210D01*
X191989707Y-137472213D01*
X191878213Y-137583707D01*
X191878210Y-137583711D01*
X191790609Y-137714814D01*
X191790602Y-137714827D01*
X191730264Y-137860498D01*
X191730261Y-137860508D01*
X191703769Y-137993692D01*
X191671384Y-138055603D01*
X191610668Y-138090177D01*
X191582152Y-138093500D01*
X187872197Y-138093500D01*
X187805158Y-138073815D01*
X187759403Y-138021011D01*
X187749459Y-137951853D01*
X187778484Y-137888297D01*
X187784516Y-137881819D01*
X188779516Y-136886819D01*
X188840839Y-136853334D01*
X188867197Y-136850500D01*
X192750903Y-136850500D01*
X192817942Y-136870185D01*
G37*
%TD.AperFunction*%
%TA.AperFunction,Conductor*%
G36*
X190296521Y-130906528D02*
G01*
X190322881Y-130908414D01*
X190331934Y-130914232D01*
X190338974Y-130915764D01*
X190367228Y-130936915D01*
X190395582Y-130965269D01*
X190556734Y-131082353D01*
X190626173Y-131117734D01*
X190708172Y-131159515D01*
X190758968Y-131207490D01*
X190775763Y-131275311D01*
X190753225Y-131341446D01*
X190708172Y-131380485D01*
X190556733Y-131457647D01*
X190464790Y-131524447D01*
X190395582Y-131574731D01*
X190395580Y-131574733D01*
X190395579Y-131574733D01*
X190254733Y-131715579D01*
X190254733Y-131715580D01*
X190254731Y-131715582D01*
X190217494Y-131766834D01*
X190137647Y-131876733D01*
X190047213Y-132054219D01*
X189985661Y-132243656D01*
X189985661Y-132243659D01*
X189965522Y-132370814D01*
X189954500Y-132440403D01*
X189954500Y-132639597D01*
X189970080Y-132737968D01*
X189985661Y-132836340D01*
X189985661Y-132836343D01*
X190047213Y-133025780D01*
X190105720Y-133140606D01*
X190137647Y-133203266D01*
X190173501Y-133252615D01*
X190196981Y-133318420D01*
X190181156Y-133386474D01*
X190131050Y-133435169D01*
X190073183Y-133449500D01*
X189921155Y-133449500D01*
X189766510Y-133480261D01*
X189766498Y-133480264D01*
X189620827Y-133540602D01*
X189620814Y-133540609D01*
X189489711Y-133628210D01*
X189489707Y-133628213D01*
X189378213Y-133739707D01*
X189378210Y-133739711D01*
X189290609Y-133870814D01*
X189290602Y-133870827D01*
X189230264Y-134016498D01*
X189230261Y-134016508D01*
X189199362Y-134171848D01*
X189166977Y-134233759D01*
X189165426Y-134235337D01*
X186145584Y-137255181D01*
X186084261Y-137288666D01*
X186057903Y-137291500D01*
X176120628Y-137291500D01*
X176053589Y-137271815D01*
X176032947Y-137255181D01*
X175673838Y-136896072D01*
X175640353Y-136834749D01*
X175639902Y-136832582D01*
X175639651Y-136831318D01*
X175609002Y-136677238D01*
X175593188Y-136639059D01*
X175548662Y-136531562D01*
X175548655Y-136531549D01*
X175461054Y-136400446D01*
X175461051Y-136400442D01*
X175349557Y-136288948D01*
X175349553Y-136288945D01*
X175218450Y-136201344D01*
X175218437Y-136201337D01*
X175072766Y-136140999D01*
X175072754Y-136140996D01*
X174918110Y-136110235D01*
X174918107Y-136110235D01*
X174760423Y-136110235D01*
X174760420Y-136110235D01*
X174605775Y-136140996D01*
X174605763Y-136140999D01*
X174460092Y-136201337D01*
X174460081Y-136201343D01*
X174347171Y-136276787D01*
X174280494Y-136297664D01*
X174213113Y-136279179D01*
X174190600Y-136261365D01*
X173512469Y-135583234D01*
X173497260Y-135555382D01*
X173480568Y-135528359D01*
X173480629Y-135524924D01*
X173478984Y-135521911D01*
X173481248Y-135490249D01*
X173481815Y-135458500D01*
X173483818Y-135454313D01*
X173483968Y-135452219D01*
X173497043Y-135426670D01*
X173528395Y-135379749D01*
X173543807Y-135360968D01*
X173601490Y-135303287D01*
X173601490Y-135303285D01*
X173611692Y-135293084D01*
X173611695Y-135293079D01*
X174017959Y-134886816D01*
X174079281Y-134853334D01*
X174105639Y-134850500D01*
X185168331Y-134850500D01*
X185168347Y-134850501D01*
X185175943Y-134850501D01*
X185334054Y-134850501D01*
X185334057Y-134850501D01*
X185486785Y-134809577D01*
X185542988Y-134777128D01*
X185623716Y-134730520D01*
X185676270Y-134677965D01*
X185683787Y-134672427D01*
X185708190Y-134663534D01*
X185730984Y-134651088D01*
X185733152Y-134650637D01*
X185733841Y-134650500D01*
X185733842Y-134650500D01*
X185888497Y-134619737D01*
X186034179Y-134559394D01*
X186165289Y-134471789D01*
X186276789Y-134360289D01*
X186364394Y-134229179D01*
X186424737Y-134083497D01*
X186433844Y-134037709D01*
X186466227Y-133975801D01*
X186526942Y-133941226D01*
X186596712Y-133944965D01*
X186643142Y-133974221D01*
X186739707Y-134070786D01*
X186739711Y-134070789D01*
X186870814Y-134158390D01*
X186870827Y-134158397D01*
X187016498Y-134218735D01*
X187016503Y-134218737D01*
X187171153Y-134249499D01*
X187171156Y-134249500D01*
X187171158Y-134249500D01*
X187328844Y-134249500D01*
X187328845Y-134249499D01*
X187483497Y-134218737D01*
X187629179Y-134158394D01*
X187760289Y-134070789D01*
X187871789Y-133959289D01*
X187959394Y-133828179D01*
X187960703Y-133825020D01*
X187995666Y-133740609D01*
X188019737Y-133682497D01*
X188050500Y-133527842D01*
X188050500Y-133370158D01*
X188050500Y-133370155D01*
X188050499Y-133370153D01*
X188043589Y-133335415D01*
X188019737Y-133215503D01*
X188019732Y-133215492D01*
X188017969Y-133209676D01*
X188019455Y-133209225D01*
X188012790Y-133147324D01*
X188044054Y-133084839D01*
X188047113Y-133081668D01*
X190191870Y-130936912D01*
X190199811Y-130932576D01*
X190205237Y-130925329D01*
X190229996Y-130916094D01*
X190253189Y-130903430D01*
X190262218Y-130904075D01*
X190270701Y-130900912D01*
X190296521Y-130906528D01*
G37*
%TD.AperFunction*%
%TA.AperFunction,Conductor*%
G36*
X171825942Y-130929185D02*
G01*
X171846584Y-130945819D01*
X172937584Y-132036819D01*
X172971069Y-132098142D01*
X172966085Y-132167834D01*
X172924213Y-132223767D01*
X172858749Y-132248184D01*
X172849903Y-132248500D01*
X169150097Y-132248500D01*
X169083058Y-132228815D01*
X169037303Y-132176011D01*
X169027359Y-132106853D01*
X169056384Y-132043297D01*
X169062416Y-132036819D01*
X170153416Y-130945819D01*
X170214739Y-130912334D01*
X170241097Y-130909500D01*
X171758903Y-130909500D01*
X171825942Y-130929185D01*
G37*
%TD.AperFunction*%
%TA.AperFunction,Conductor*%
G36*
X180858420Y-122802424D02*
G01*
X180865141Y-122801213D01*
X180891513Y-122812141D01*
X180918906Y-122820185D01*
X180923378Y-122825346D01*
X180929688Y-122827961D01*
X180945969Y-122851417D01*
X180964661Y-122872989D01*
X180965632Y-122879747D01*
X180969528Y-122885359D01*
X180970542Y-122913891D01*
X180974605Y-122942147D01*
X180971784Y-122948843D01*
X180972010Y-122955185D01*
X180958499Y-122987790D01*
X180951964Y-122998799D01*
X180948480Y-123002284D01*
X180898360Y-123089095D01*
X180898018Y-123089686D01*
X180897963Y-123089780D01*
X180869425Y-123139209D01*
X180869424Y-123139210D01*
X180853544Y-123198472D01*
X180828499Y-123291943D01*
X180828499Y-123291945D01*
X180828499Y-123460046D01*
X180828500Y-123460059D01*
X180828500Y-125683709D01*
X180808815Y-125750748D01*
X180756011Y-125796503D01*
X180686853Y-125806447D01*
X180648206Y-125794194D01*
X180558417Y-125748445D01*
X180558414Y-125748444D01*
X180558412Y-125748443D01*
X180356243Y-125682754D01*
X180356241Y-125682753D01*
X180356240Y-125682753D01*
X180194957Y-125657208D01*
X180146287Y-125649500D01*
X179933713Y-125649500D01*
X179885042Y-125657208D01*
X179723760Y-125682753D01*
X179521585Y-125748444D01*
X179332179Y-125844951D01*
X179160213Y-125969890D01*
X179009890Y-126120213D01*
X178884951Y-126292179D01*
X178788444Y-126481585D01*
X178722753Y-126683760D01*
X178706393Y-126787056D01*
X178689500Y-126893713D01*
X178689500Y-127106287D01*
X178694576Y-127138335D01*
X178720154Y-127299832D01*
X178722754Y-127316243D01*
X178778832Y-127488834D01*
X178788444Y-127518414D01*
X178884951Y-127707820D01*
X179009890Y-127879786D01*
X179160213Y-128030109D01*
X179332179Y-128155048D01*
X179332181Y-128155049D01*
X179332184Y-128155051D01*
X179521588Y-128251557D01*
X179723757Y-128317246D01*
X179933713Y-128350500D01*
X179933714Y-128350500D01*
X180146286Y-128350500D01*
X180146287Y-128350500D01*
X180356243Y-128317246D01*
X180558412Y-128251557D01*
X180648205Y-128205804D01*
X180716874Y-128192909D01*
X180781615Y-128219185D01*
X180821872Y-128276291D01*
X180828500Y-128316290D01*
X180828500Y-129453802D01*
X180808815Y-129520841D01*
X180792181Y-129541483D01*
X180555505Y-129778158D01*
X180494182Y-129811643D01*
X180443633Y-129812094D01*
X180380319Y-129799500D01*
X180380315Y-129799500D01*
X180222631Y-129799500D01*
X180222628Y-129799500D01*
X180067983Y-129830261D01*
X180067971Y-129830264D01*
X179922300Y-129890602D01*
X179922287Y-129890609D01*
X179791184Y-129978210D01*
X179791180Y-129978213D01*
X179679686Y-130089707D01*
X179679683Y-130089711D01*
X179592082Y-130220814D01*
X179592075Y-130220827D01*
X179531737Y-130366498D01*
X179531734Y-130366510D01*
X179500973Y-130521153D01*
X179500973Y-130525500D01*
X179481288Y-130592539D01*
X179428484Y-130638294D01*
X179376973Y-130649500D01*
X177337523Y-130649500D01*
X177290071Y-130640061D01*
X177207713Y-130605947D01*
X177207701Y-130605944D01*
X177053057Y-130575183D01*
X177053054Y-130575183D01*
X176895370Y-130575183D01*
X176895367Y-130575183D01*
X176740722Y-130605944D01*
X176740710Y-130605947D01*
X176595039Y-130666285D01*
X176595026Y-130666292D01*
X176482121Y-130741734D01*
X176415443Y-130762612D01*
X176348063Y-130744128D01*
X176325549Y-130726313D01*
X168712590Y-123113355D01*
X168712588Y-123113352D01*
X168611417Y-123012181D01*
X168577932Y-122950858D01*
X168582916Y-122881166D01*
X168624788Y-122825233D01*
X168690252Y-122800816D01*
X168699098Y-122800500D01*
X180851867Y-122800500D01*
X180858420Y-122802424D01*
G37*
%TD.AperFunction*%
%TA.AperFunction,Conductor*%
G36*
X187249926Y-122820185D02*
G01*
X187295681Y-122872989D01*
X187304504Y-122900308D01*
X187330996Y-123033491D01*
X187330999Y-123033501D01*
X187391337Y-123179172D01*
X187391344Y-123179185D01*
X187478945Y-123310288D01*
X187478948Y-123310292D01*
X187590442Y-123421786D01*
X187590446Y-123421789D01*
X187721549Y-123509390D01*
X187721562Y-123509397D01*
X187867233Y-123569735D01*
X187867238Y-123569737D01*
X188015785Y-123599285D01*
X188021888Y-123600499D01*
X188021891Y-123600500D01*
X188021893Y-123600500D01*
X188179579Y-123600500D01*
X188179580Y-123600499D01*
X188334232Y-123569737D01*
X188479914Y-123509394D01*
X188611024Y-123421789D01*
X188722524Y-123310289D01*
X188758392Y-123256608D01*
X188812004Y-123211804D01*
X188861494Y-123201500D01*
X193989241Y-123201500D01*
X194056280Y-123221185D01*
X194092343Y-123256609D01*
X194128210Y-123310289D01*
X194239707Y-123421786D01*
X194239711Y-123421789D01*
X194367209Y-123506981D01*
X194412014Y-123560593D01*
X194420721Y-123629918D01*
X194390567Y-123692946D01*
X194385999Y-123697764D01*
X193142772Y-124940991D01*
X193081449Y-124974476D01*
X193011757Y-124969492D01*
X192955824Y-124927620D01*
X192933474Y-124877501D01*
X192929908Y-124859575D01*
X192909689Y-124757925D01*
X192896695Y-124726555D01*
X192849349Y-124612249D01*
X192849342Y-124612236D01*
X192761741Y-124481133D01*
X192761738Y-124481129D01*
X192650244Y-124369635D01*
X192650240Y-124369632D01*
X192519137Y-124282031D01*
X192519128Y-124282026D01*
X192400079Y-124232715D01*
X192345676Y-124188874D01*
X192332971Y-124165606D01*
X192283662Y-124046562D01*
X192283655Y-124046549D01*
X192196054Y-123915446D01*
X192196051Y-123915442D01*
X192084557Y-123803948D01*
X192084553Y-123803945D01*
X191953450Y-123716344D01*
X191953437Y-123716337D01*
X191807766Y-123655999D01*
X191807754Y-123655996D01*
X191653110Y-123625235D01*
X191653107Y-123625235D01*
X191495423Y-123625235D01*
X191495420Y-123625235D01*
X191340775Y-123655996D01*
X191340763Y-123655999D01*
X191195092Y-123716337D01*
X191195079Y-123716344D01*
X191063976Y-123803945D01*
X191063972Y-123803948D01*
X190952478Y-123915442D01*
X190952475Y-123915446D01*
X190866317Y-124044391D01*
X190812705Y-124089196D01*
X190763215Y-124099500D01*
X184079766Y-124099500D01*
X184012727Y-124079815D01*
X184010875Y-124078602D01*
X183879185Y-123990609D01*
X183879172Y-123990602D01*
X183733501Y-123930264D01*
X183733489Y-123930261D01*
X183578845Y-123899500D01*
X183578842Y-123899500D01*
X183421158Y-123899500D01*
X183421155Y-123899500D01*
X183266510Y-123930261D01*
X183266498Y-123930264D01*
X183120827Y-123990602D01*
X183120814Y-123990609D01*
X182989711Y-124078210D01*
X182989707Y-124078213D01*
X182878213Y-124189707D01*
X182878210Y-124189711D01*
X182790609Y-124320814D01*
X182790602Y-124320827D01*
X182730264Y-124466498D01*
X182730261Y-124466510D01*
X182699500Y-124621153D01*
X182699500Y-124778846D01*
X182730261Y-124933489D01*
X182730264Y-124933501D01*
X182790602Y-125079172D01*
X182790609Y-125079185D01*
X182878210Y-125210288D01*
X182878213Y-125210292D01*
X182989710Y-125321789D01*
X183115411Y-125405779D01*
X183128921Y-125421945D01*
X183145787Y-125434571D01*
X183150876Y-125448215D01*
X183160216Y-125459391D01*
X183162841Y-125480295D01*
X183170204Y-125500035D01*
X183167108Y-125514266D01*
X183168923Y-125528716D01*
X183159830Y-125547720D01*
X183155352Y-125568308D01*
X183140469Y-125588187D01*
X183138769Y-125591743D01*
X183134201Y-125596562D01*
X183064522Y-125666241D01*
X183003199Y-125699726D01*
X182938523Y-125696491D01*
X182896245Y-125682754D01*
X182756272Y-125660584D01*
X182686287Y-125649500D01*
X182473713Y-125649500D01*
X182434202Y-125655757D01*
X182263759Y-125682753D01*
X182263755Y-125682754D01*
X182191817Y-125706128D01*
X182121976Y-125708123D01*
X182062143Y-125672042D01*
X182031316Y-125609341D01*
X182029500Y-125588197D01*
X182029500Y-123712079D01*
X182049185Y-123645040D01*
X182101989Y-123599285D01*
X182129309Y-123590462D01*
X182180817Y-123580215D01*
X182233497Y-123569737D01*
X182379179Y-123509394D01*
X182510289Y-123421789D01*
X182621789Y-123310289D01*
X182709394Y-123179179D01*
X182769737Y-123033497D01*
X182778829Y-122987790D01*
X182796231Y-122900308D01*
X182828616Y-122838397D01*
X182889332Y-122803823D01*
X182917848Y-122800500D01*
X187182887Y-122800500D01*
X187249926Y-122820185D01*
G37*
%TD.AperFunction*%
%TD*%
M02*
