%TF.GenerationSoftware,KiCad,Pcbnew,7.0.7*%
%TF.CreationDate,2024-02-01T19:36:20-05:00*%
%TF.ProjectId,500g Bot Design-2024-01-21,35303067-2042-46f7-9420-44657369676e,rev?*%
%TF.SameCoordinates,Original*%
%TF.FileFunction,Soldermask,Top*%
%TF.FilePolarity,Negative*%
%FSLAX46Y46*%
G04 Gerber Fmt 4.6, Leading zero omitted, Abs format (unit mm)*
G04 Created by KiCad (PCBNEW 7.0.7) date 2024-02-01 19:36:20*
%MOMM*%
%LPD*%
G01*
G04 APERTURE LIST*
G04 Aperture macros list*
%AMRoundRect*
0 Rectangle with rounded corners*
0 $1 Rounding radius*
0 $2 $3 $4 $5 $6 $7 $8 $9 X,Y pos of 4 corners*
0 Add a 4 corners polygon primitive as box body*
4,1,4,$2,$3,$4,$5,$6,$7,$8,$9,$2,$3,0*
0 Add four circle primitives for the rounded corners*
1,1,$1+$1,$2,$3*
1,1,$1+$1,$4,$5*
1,1,$1+$1,$6,$7*
1,1,$1+$1,$8,$9*
0 Add four rect primitives between the rounded corners*
20,1,$1+$1,$2,$3,$4,$5,0*
20,1,$1+$1,$4,$5,$6,$7,0*
20,1,$1+$1,$6,$7,$8,$9,0*
20,1,$1+$1,$8,$9,$2,$3,0*%
G04 Aperture macros list end*
%ADD10C,1.300000*%
%ADD11R,1.300000X1.300000*%
%ADD12C,1.600000*%
%ADD13R,1.600000X1.600000*%
%ADD14RoundRect,0.250000X-0.375000X-0.625000X0.375000X-0.625000X0.375000X0.625000X-0.375000X0.625000X0*%
%ADD15RoundRect,0.100000X0.100000X-0.130000X0.100000X0.130000X-0.100000X0.130000X-0.100000X-0.130000X0*%
%ADD16RoundRect,0.102000X-0.600000X-0.735000X0.600000X-0.735000X0.600000X0.735000X-0.600000X0.735000X0*%
%ADD17RoundRect,0.100000X-0.100000X0.130000X-0.100000X-0.130000X0.100000X-0.130000X0.100000X0.130000X0*%
%ADD18RoundRect,0.100000X-0.130000X-0.100000X0.130000X-0.100000X0.130000X0.100000X-0.130000X0.100000X0*%
%ADD19RoundRect,0.102000X-0.754000X-0.754000X0.754000X-0.754000X0.754000X0.754000X-0.754000X0.754000X0*%
%ADD20C,1.712000*%
%ADD21R,0.858799X0.550799*%
%ADD22RoundRect,0.100000X0.130000X0.100000X-0.130000X0.100000X-0.130000X-0.100000X0.130000X-0.100000X0*%
%ADD23R,1.950000X0.500000*%
%ADD24RoundRect,0.102000X-0.754000X0.754000X-0.754000X-0.754000X0.754000X-0.754000X0.754000X0.754000X0*%
%ADD25RoundRect,0.102000X-0.694000X-0.694000X0.694000X-0.694000X0.694000X0.694000X-0.694000X0.694000X0*%
%ADD26C,1.592000*%
%ADD27R,1.778000X0.355600*%
%ADD28RoundRect,0.102000X-0.699000X-0.699000X0.699000X-0.699000X0.699000X0.699000X-0.699000X0.699000X0*%
%ADD29C,1.602000*%
%ADD30RoundRect,0.102000X-0.470000X-0.510000X0.470000X-0.510000X0.470000X0.510000X-0.470000X0.510000X0*%
%ADD31RoundRect,0.150000X-0.512500X-0.150000X0.512500X-0.150000X0.512500X0.150000X-0.512500X0.150000X0*%
G04 APERTURE END LIST*
D10*
%TO.C,IC1*%
X70000000Y-103800000D03*
X70000000Y-101260000D03*
X84240000Y-97348400D03*
X84240000Y-99348400D03*
X84240000Y-101348400D03*
X82240000Y-101348400D03*
X82240000Y-99348400D03*
D11*
X82240000Y-97348400D03*
D12*
X85729200Y-107099200D03*
X83189200Y-107099200D03*
X80649200Y-107099200D03*
X78109200Y-107099200D03*
D13*
X75569200Y-107099200D03*
D12*
X114990000Y-97450000D03*
X114990000Y-99990000D03*
X114990000Y-102530000D03*
X114990000Y-105070000D03*
X114990000Y-107610000D03*
X71810000Y-97450000D03*
X69270000Y-94910000D03*
X71810000Y-94910000D03*
X74350000Y-94910000D03*
X76890000Y-94910000D03*
X79430000Y-94910000D03*
X81970000Y-94910000D03*
X84510000Y-94910000D03*
X87050000Y-94910000D03*
X89590000Y-94910000D03*
X92130000Y-94910000D03*
X94670000Y-94910000D03*
X97210000Y-94910000D03*
X99750000Y-94910000D03*
X102290000Y-94910000D03*
X104830000Y-94910000D03*
X107370000Y-94910000D03*
X109910000Y-94910000D03*
X112450000Y-94910000D03*
X114990000Y-94910000D03*
X117530000Y-94910000D03*
X120070000Y-94910000D03*
X122610000Y-94910000D03*
X125150000Y-94910000D03*
X127690000Y-94910000D03*
X127690000Y-110150000D03*
X125150000Y-110150000D03*
X122610000Y-110150000D03*
X120070000Y-110150000D03*
X117530000Y-110150000D03*
X114990000Y-110150000D03*
X112450000Y-110150000D03*
X109910000Y-110150000D03*
X107370000Y-110150000D03*
X104830000Y-110150000D03*
X102290000Y-110150000D03*
X99750000Y-110150000D03*
X97210000Y-110150000D03*
X94670000Y-110150000D03*
X92130000Y-110150000D03*
X89590000Y-110150000D03*
X87050000Y-110150000D03*
X84510000Y-110150000D03*
X81970000Y-110150000D03*
X79430000Y-110150000D03*
X76890000Y-110150000D03*
X74350000Y-110150000D03*
X71810000Y-110150000D03*
D13*
X69270000Y-110150000D03*
%TD*%
D14*
%TO.C,F1*%
X66799000Y-85344000D03*
X69599000Y-85344000D03*
%TD*%
D15*
%TO.C,C11*%
X54229000Y-120462000D03*
X54229000Y-119822000D03*
%TD*%
D16*
%TO.C,L2*%
X95279000Y-90424000D03*
X96999000Y-90424000D03*
%TD*%
D17*
%TO.C,C12*%
X54864000Y-84516000D03*
X54864000Y-85156000D03*
%TD*%
D18*
%TO.C,C4*%
X73086000Y-128905000D03*
X73726000Y-128905000D03*
%TD*%
D19*
%TO.C,J4*%
X103946000Y-123842000D03*
D20*
X106446000Y-123842000D03*
X108946000Y-123842000D03*
X111446000Y-123842000D03*
%TD*%
D18*
%TO.C,C8*%
X78166000Y-89050000D03*
X78806000Y-89050000D03*
%TD*%
D19*
%TO.C,J1*%
X69402000Y-123969000D03*
D20*
X71902000Y-123969000D03*
X74402000Y-123969000D03*
X76902000Y-123969000D03*
%TD*%
D18*
%TO.C,C6*%
X107376000Y-128905000D03*
X108016000Y-128905000D03*
%TD*%
D21*
%TO.C,R2*%
X87864601Y-85090000D03*
X89173399Y-85090000D03*
%TD*%
D22*
%TO.C,C2*%
X89347000Y-89662000D03*
X88707000Y-89662000D03*
%TD*%
D18*
%TO.C,C13*%
X78166000Y-91440000D03*
X78806000Y-91440000D03*
%TD*%
D19*
%TO.C,J2*%
X86801000Y-123842000D03*
D20*
X89301000Y-123842000D03*
X91801000Y-123842000D03*
X94301000Y-123842000D03*
%TD*%
D23*
%TO.C,J10*%
X67351000Y-89416000D03*
X69301000Y-90416000D03*
%TD*%
D22*
%TO.C,C14*%
X123002000Y-128651000D03*
X122362000Y-128651000D03*
%TD*%
D24*
%TO.C,J6*%
X58928000Y-116474200D03*
D20*
X58928000Y-118974200D03*
X58928000Y-121474200D03*
X58928000Y-123974200D03*
%TD*%
D24*
%TO.C,J5*%
X58928000Y-99131100D03*
D20*
X58928000Y-101631100D03*
X58928000Y-104131100D03*
X58928000Y-106631100D03*
%TD*%
D18*
%TO.C,C3*%
X90358000Y-128905000D03*
X90998000Y-128905000D03*
%TD*%
D25*
%TO.C,U1*%
X102000000Y-86600000D03*
D26*
X103000000Y-82600000D03*
X104000000Y-86600000D03*
X105000000Y-82600000D03*
X106000000Y-86600000D03*
X107000000Y-82600000D03*
X108000000Y-86600000D03*
X109000000Y-82600000D03*
X110000000Y-86600000D03*
X111000000Y-82600000D03*
X112000000Y-86600000D03*
X113000000Y-82600000D03*
X114000000Y-86600000D03*
X115000000Y-82600000D03*
X116000000Y-86600000D03*
X117000000Y-82600000D03*
X118000000Y-86600000D03*
X119000000Y-82600000D03*
X120000000Y-86600000D03*
X121000000Y-82600000D03*
X122000000Y-86600000D03*
X123000000Y-82600000D03*
X124000000Y-86600000D03*
X125000000Y-82600000D03*
X126000000Y-86600000D03*
%TD*%
D27*
%TO.C,U3*%
X119557800Y-120223999D03*
X119557800Y-120874000D03*
X119557800Y-121524001D03*
X119557800Y-122174000D03*
X119557800Y-122823999D03*
X119557800Y-123474000D03*
X119557800Y-124123999D03*
X125298200Y-124124001D03*
X125298200Y-123474000D03*
X125298200Y-122824001D03*
X125298200Y-122174000D03*
X125298200Y-121524001D03*
X125298200Y-120874000D03*
X125298200Y-120224001D03*
%TD*%
D22*
%TO.C,C1*%
X89347000Y-92202000D03*
X88707000Y-92202000D03*
%TD*%
D15*
%TO.C,C9*%
X93599000Y-86360000D03*
X93599000Y-85720000D03*
%TD*%
D24*
%TO.C,J7*%
X59038000Y-81781000D03*
D20*
X59038000Y-84281000D03*
X59038000Y-86781000D03*
X59038000Y-89281000D03*
%TD*%
D28*
%TO.C,J11*%
X69850000Y-80518000D03*
D29*
X72390000Y-80518000D03*
X74930000Y-80518000D03*
%TD*%
D30*
%TO.C,R1*%
X90777000Y-88900000D03*
X92357000Y-88900000D03*
%TD*%
D17*
%TO.C,C10*%
X54610000Y-102550000D03*
X54610000Y-103190000D03*
%TD*%
D18*
%TO.C,C7*%
X129220000Y-89027000D03*
X129860000Y-89027000D03*
%TD*%
D31*
%TO.C,U2*%
X82457500Y-83550000D03*
X82457500Y-84500000D03*
X82457500Y-85450000D03*
X84732500Y-85450000D03*
X84732500Y-84500000D03*
X84732500Y-83550000D03*
%TD*%
M02*
