%TF.GenerationSoftware,KiCad,Pcbnew,9.0.2*%
%TF.CreationDate,2025-10-02T13:21:22-04:00*%
%TF.ProjectId,Slippi,536c6970-7069-42e6-9b69-6361645f7063,rev?*%
%TF.SameCoordinates,Original*%
%TF.FileFunction,Copper,L2,Bot*%
%TF.FilePolarity,Positive*%
%FSLAX46Y46*%
G04 Gerber Fmt 4.6, Leading zero omitted, Abs format (unit mm)*
G04 Created by KiCad (PCBNEW 9.0.2) date 2025-10-02 13:21:22*
%MOMM*%
%LPD*%
G01*
G04 APERTURE LIST*
G04 Aperture macros list*
%AMRoundRect*
0 Rectangle with rounded corners*
0 $1 Rounding radius*
0 $2 $3 $4 $5 $6 $7 $8 $9 X,Y pos of 4 corners*
0 Add a 4 corners polygon primitive as box body*
4,1,4,$2,$3,$4,$5,$6,$7,$8,$9,$2,$3,0*
0 Add four circle primitives for the rounded corners*
1,1,$1+$1,$2,$3*
1,1,$1+$1,$4,$5*
1,1,$1+$1,$6,$7*
1,1,$1+$1,$8,$9*
0 Add four rect primitives between the rounded corners*
20,1,$1+$1,$2,$3,$4,$5,0*
20,1,$1+$1,$4,$5,$6,$7,0*
20,1,$1+$1,$6,$7,$8,$9,0*
20,1,$1+$1,$8,$9,$2,$3,0*%
G04 Aperture macros list end*
%TA.AperFunction,ComponentPad*%
%ADD10RoundRect,0.250000X0.750000X-0.750000X0.750000X0.750000X-0.750000X0.750000X-0.750000X-0.750000X0*%
%TD*%
%TA.AperFunction,ComponentPad*%
%ADD11C,2.000000*%
%TD*%
%TA.AperFunction,ComponentPad*%
%ADD12RoundRect,0.250000X0.750000X0.750000X-0.750000X0.750000X-0.750000X-0.750000X0.750000X-0.750000X0*%
%TD*%
%TA.AperFunction,ComponentPad*%
%ADD13RoundRect,0.250000X-0.750000X-0.750000X0.750000X-0.750000X0.750000X0.750000X-0.750000X0.750000X0*%
%TD*%
%TA.AperFunction,ComponentPad*%
%ADD14R,1.600000X1.600000*%
%TD*%
%TA.AperFunction,ComponentPad*%
%ADD15O,1.600000X1.600000*%
%TD*%
%TA.AperFunction,ComponentPad*%
%ADD16RoundRect,0.250000X-0.550000X0.550000X-0.550000X-0.550000X0.550000X-0.550000X0.550000X0.550000X0*%
%TD*%
%TA.AperFunction,ComponentPad*%
%ADD17C,1.600000*%
%TD*%
%TA.AperFunction,ComponentPad*%
%ADD18RoundRect,0.250000X-0.750000X0.750000X-0.750000X-0.750000X0.750000X-0.750000X0.750000X0.750000X0*%
%TD*%
%TA.AperFunction,ComponentPad*%
%ADD19R,1.700000X1.700000*%
%TD*%
%TA.AperFunction,ComponentPad*%
%ADD20C,1.700000*%
%TD*%
%TA.AperFunction,ComponentPad*%
%ADD21RoundRect,0.750000X0.750000X-0.750000X0.750000X0.750000X-0.750000X0.750000X-0.750000X-0.750000X0*%
%TD*%
%TA.AperFunction,ComponentPad*%
%ADD22C,3.000000*%
%TD*%
%TA.AperFunction,ComponentPad*%
%ADD23R,2.450000X2.450000*%
%TD*%
%TA.AperFunction,ComponentPad*%
%ADD24C,2.450000*%
%TD*%
%TA.AperFunction,ComponentPad*%
%ADD25R,1.910000X1.910000*%
%TD*%
%TA.AperFunction,ComponentPad*%
%ADD26C,1.910000*%
%TD*%
%TA.AperFunction,SMDPad,CuDef*%
%ADD27RoundRect,0.225000X0.225000X0.250000X-0.225000X0.250000X-0.225000X-0.250000X0.225000X-0.250000X0*%
%TD*%
%TA.AperFunction,ViaPad*%
%ADD28C,0.600000*%
%TD*%
%TA.AperFunction,Conductor*%
%ADD29C,0.500000*%
%TD*%
%TA.AperFunction,Conductor*%
%ADD30C,0.200000*%
%TD*%
G04 APERTURE END LIST*
D10*
%TO.P,J5,1,Pin_1*%
%TO.N,+5V*%
X134717500Y-70145000D03*
D11*
%TO.P,J5,2,Pin_2*%
%TO.N,GND*%
X134717500Y-67605000D03*
%TO.P,J5,3,Pin_3*%
%TO.N,IR5*%
X134717500Y-65065000D03*
%TD*%
D12*
%TO.P,J6,1,Pin_1*%
%TO.N,L1*%
X90500000Y-67500000D03*
D11*
%TO.P,J6,2,Pin_2*%
%TO.N,GND*%
X87960000Y-67500000D03*
%TO.P,J6,3,Pin_3*%
%TO.N,+5V*%
X85420000Y-67500000D03*
%TD*%
%TO.P,SW3,1,1*%
%TO.N,Push*%
X84350000Y-74450000D03*
X84350000Y-80950000D03*
%TO.P,SW3,2,2*%
%TO.N,GND*%
X79850000Y-74450000D03*
X79850000Y-80950000D03*
%TD*%
D13*
%TO.P,J13,1,Pin_1*%
%TO.N,O3*%
X132500000Y-87417500D03*
D11*
%TO.P,J13,2,Pin_2*%
%TO.N,O4*%
X135040000Y-87417500D03*
%TD*%
D13*
%TO.P,J9,1,Pin_1*%
%TO.N,SV2*%
X139300000Y-86600000D03*
D11*
%TO.P,J9,2,Pin_2*%
%TO.N,GND*%
X141840000Y-86600000D03*
%TO.P,J9,3,Pin_3*%
%TO.N,+5V*%
X144380000Y-86600000D03*
%TD*%
D14*
%TO.P,A1,1,D1/TX*%
%TO.N,IR5*%
X125850000Y-73500000D03*
D15*
%TO.P,A1,2,D0/RX*%
%TO.N,Start*%
X123310000Y-73500000D03*
%TO.P,A1,3,~{RESET}*%
%TO.N,unconnected-(A1-~{RESET}-Pad3)*%
X120770000Y-73500000D03*
%TO.P,A1,4,GND*%
%TO.N,GND*%
X118230000Y-73500000D03*
%TO.P,A1,5,D2*%
%TO.N,IR4*%
X115690000Y-73500000D03*
%TO.P,A1,6,D3*%
%TO.N,SV2*%
X113150000Y-73500000D03*
%TO.P,A1,7,D4*%
%TO.N,IR3*%
X110610000Y-73500000D03*
%TO.P,A1,8,D5*%
%TO.N,S4*%
X108070000Y-73500000D03*
%TO.P,A1,9,D6*%
%TO.N,S3*%
X105530000Y-73500000D03*
%TO.P,A1,10,D7*%
%TO.N,IR2*%
X102990000Y-73500000D03*
%TO.P,A1,11,D8*%
%TO.N,Push*%
X100450000Y-73500000D03*
%TO.P,A1,12,D9*%
%TO.N,S2*%
X97910000Y-73500000D03*
%TO.P,A1,13,D10*%
%TO.N,S1*%
X95370000Y-73500000D03*
%TO.P,A1,14,D11*%
%TO.N,SV1*%
X92830000Y-73500000D03*
%TO.P,A1,15,D12*%
%TO.N,IR1*%
X90290000Y-73500000D03*
%TO.P,A1,16,D13*%
%TO.N,unconnected-(A1-D13-Pad16)*%
X90290000Y-88740000D03*
%TO.P,A1,17,3V3*%
%TO.N,unconnected-(A1-3V3-Pad17)*%
X92830000Y-88740000D03*
%TO.P,A1,18,AREF*%
%TO.N,unconnected-(A1-AREF-Pad18)*%
X95370000Y-88740000D03*
%TO.P,A1,19,A0*%
%TO.N,unconnected-(A1-A0-Pad19)*%
X97910000Y-88740000D03*
%TO.P,A1,20,A1*%
%TO.N,L1*%
X100450000Y-88740000D03*
%TO.P,A1,21,A2*%
%TO.N,SW2*%
X102990000Y-88740000D03*
%TO.P,A1,22,A3*%
%TO.N,SW1*%
X105530000Y-88740000D03*
%TO.P,A1,23,A4*%
%TO.N,L2*%
X108070000Y-88740000D03*
%TO.P,A1,24,A5*%
%TO.N,unconnected-(A1-A5-Pad24)*%
X110610000Y-88740000D03*
%TO.P,A1,25,A6*%
%TO.N,unconnected-(A1-A6-Pad25)*%
X113150000Y-88740000D03*
%TO.P,A1,26,A7*%
%TO.N,unconnected-(A1-A7-Pad26)*%
X115690000Y-88740000D03*
%TO.P,A1,27,+5V*%
%TO.N,+5V*%
X118230000Y-88740000D03*
%TO.P,A1,28,~{RESET}*%
%TO.N,unconnected-(A1-~{RESET}-Pad28)*%
X120770000Y-88740000D03*
%TO.P,A1,29,GND*%
%TO.N,GND*%
X123310000Y-88740000D03*
%TO.P,A1,30,VIN*%
%TO.N,unconnected-(A1-VIN-Pad30)*%
X125850000Y-88740000D03*
%TD*%
D12*
%TO.P,J3,1,Pin_1*%
%TO.N,IR3*%
X109500000Y-67500000D03*
D11*
%TO.P,J3,2,Pin_2*%
%TO.N,GND*%
X106960000Y-67500000D03*
%TO.P,J3,3,Pin_3*%
%TO.N,+5V*%
X104420000Y-67500000D03*
%TD*%
D13*
%TO.P,J8,1,Pin_1*%
%TO.N,SV1*%
X71720000Y-86717500D03*
D11*
%TO.P,J8,2,Pin_2*%
%TO.N,GND*%
X74260000Y-86717500D03*
%TO.P,J8,3,Pin_3*%
%TO.N,+5V*%
X76800000Y-86717500D03*
%TD*%
D16*
%TO.P,SW2,1*%
%TO.N,SW1*%
X75100000Y-73800000D03*
D17*
%TO.P,SW2,2*%
%TO.N,SW2*%
X72560000Y-73800000D03*
%TO.P,SW2,3*%
%TO.N,GND*%
X72560000Y-81420000D03*
%TO.P,SW2,4*%
X75100000Y-81420000D03*
%TD*%
D18*
%TO.P,J1,1,Pin_1*%
%TO.N,+5V*%
X79200000Y-65000000D03*
D11*
%TO.P,J1,2,Pin_2*%
%TO.N,GND*%
X79200000Y-67540000D03*
%TO.P,J1,3,Pin_3*%
%TO.N,IR1*%
X79200000Y-70080000D03*
%TD*%
D12*
%TO.P,J2,1,Pin_1*%
%TO.N,IR2*%
X100000000Y-67500000D03*
D11*
%TO.P,J2,2,Pin_2*%
%TO.N,GND*%
X97460000Y-67500000D03*
%TO.P,J2,3,Pin_3*%
%TO.N,+5V*%
X94920000Y-67500000D03*
%TD*%
D19*
%TO.P,J10,1,Pin_1*%
%TO.N,Start*%
X137700000Y-59900000D03*
D20*
%TO.P,J10,2,Pin_2*%
%TO.N,GND*%
X135160000Y-59900000D03*
%TO.P,J10,3,Pin_3*%
%TO.N,+5V*%
X132620000Y-59900000D03*
%TD*%
D12*
%TO.P,J7,1,Pin_1*%
%TO.N,L2*%
X128500000Y-67500000D03*
D11*
%TO.P,J7,2,Pin_2*%
%TO.N,GND*%
X125960000Y-67500000D03*
%TO.P,J7,3,Pin_3*%
%TO.N,+5V*%
X123420000Y-67500000D03*
%TD*%
D21*
%TO.P,J11,1,Pin_1*%
%TO.N,GND*%
X133900000Y-80300000D03*
D22*
%TO.P,J11,2,Pin_2*%
%TO.N,Net-(J11-Pin_2)*%
X133900000Y-75300000D03*
%TD*%
D23*
%TO.P,SW1,1,A*%
%TO.N,+12V*%
X142544724Y-80900000D03*
D24*
%TO.P,SW1,2,B*%
%TO.N,Net-(J11-Pin_2)*%
X142544724Y-76200000D03*
%TO.P,SW1,3,C*%
%TO.N,unconnected-(SW1-C-Pad3)*%
X142544724Y-71500000D03*
%TD*%
D13*
%TO.P,J12,1,Pin_1*%
%TO.N,O1*%
X81060000Y-87400000D03*
D11*
%TO.P,J12,2,Pin_2*%
%TO.N,O2*%
X83600000Y-87400000D03*
%TD*%
D12*
%TO.P,J4,1,Pin_1*%
%TO.N,IR4*%
X119000000Y-67500000D03*
D11*
%TO.P,J4,2,Pin_2*%
%TO.N,GND*%
X116460000Y-67500000D03*
%TO.P,J4,3,Pin_3*%
%TO.N,+5V*%
X113920000Y-67500000D03*
%TD*%
D25*
%TO.P,U3,1,INPUT*%
%TO.N,+12V*%
X123700000Y-78500000D03*
D26*
%TO.P,U3,2,GROUND*%
%TO.N,GND*%
X123700000Y-81050000D03*
%TO.P,U3,3,OUTPUT*%
%TO.N,+5V*%
X123700000Y-83600000D03*
%TD*%
D27*
%TO.P,C6,1*%
%TO.N,+5V*%
X119575000Y-85900000D03*
%TO.P,C6,2*%
%TO.N,GND*%
X118025000Y-85900000D03*
%TD*%
%TO.P,C5,1*%
%TO.N,+12V*%
X119575000Y-76300000D03*
%TO.P,C5,2*%
%TO.N,GND*%
X118025000Y-76300000D03*
%TD*%
D28*
%TO.N,+12V*%
X113700000Y-85000000D03*
X93700000Y-85000000D03*
%TO.N,L2*%
X108000000Y-80300000D03*
%TO.N,SW2*%
X103000000Y-80300000D03*
X83700000Y-76700000D03*
%TO.N,SW1*%
X83700000Y-75900000D03*
X105500000Y-80300000D03*
%TD*%
D29*
%TO.N,+12V*%
X113700000Y-82400000D02*
X113700000Y-85000000D01*
X113700000Y-82400000D02*
X119800000Y-82400000D01*
X113400000Y-82400000D02*
X113700000Y-82400000D01*
X119800000Y-82400000D02*
X123700000Y-78500000D01*
X93700000Y-85000000D02*
X93700000Y-83300000D01*
X93700000Y-83300000D02*
X94600000Y-82400000D01*
X94600000Y-82400000D02*
X113400000Y-82400000D01*
D30*
%TO.N,L2*%
X118000000Y-69200000D02*
X126800000Y-69200000D01*
X126800000Y-69200000D02*
X128500000Y-67500000D01*
X108000000Y-80300000D02*
X114416475Y-73883525D01*
X114416475Y-72783525D02*
X118000000Y-69200000D01*
X114416475Y-73883525D02*
X114416475Y-72783525D01*
%TO.N,+5V*%
X123700000Y-83600000D02*
X141380000Y-83600000D01*
X94920000Y-67500000D02*
X96420000Y-66000000D01*
X121400000Y-85900000D02*
X119575000Y-85900000D01*
X121920000Y-66000000D02*
X123420000Y-67500000D01*
X86920000Y-66000000D02*
X93420000Y-66000000D01*
X123420000Y-67500000D02*
X124920000Y-66000000D01*
X76800000Y-80500000D02*
X82300000Y-75000000D01*
X85420000Y-67500000D02*
X82920000Y-65000000D01*
X132620000Y-68047500D02*
X134717500Y-70145000D01*
X124920000Y-66000000D02*
X130572500Y-66000000D01*
X112420000Y-66000000D02*
X113920000Y-67500000D01*
X82300000Y-70620000D02*
X85420000Y-67500000D01*
X132620000Y-59900000D02*
X132620000Y-68047500D01*
X76800000Y-86717500D02*
X76800000Y-80500000D01*
X102920000Y-66000000D02*
X104420000Y-67500000D01*
X96420000Y-66000000D02*
X102920000Y-66000000D01*
X82300000Y-75000000D02*
X82300000Y-74800000D01*
X93420000Y-66000000D02*
X94920000Y-67500000D01*
X141380000Y-83600000D02*
X144380000Y-86600000D01*
X82300000Y-74800000D02*
X82300000Y-70620000D01*
X82920000Y-65000000D02*
X79200000Y-65000000D01*
X105920000Y-66000000D02*
X112420000Y-66000000D01*
X130572500Y-66000000D02*
X134717500Y-70145000D01*
X113920000Y-67500000D02*
X115420000Y-66000000D01*
X119575000Y-85900000D02*
X119575000Y-87395000D01*
X115420000Y-66000000D02*
X121920000Y-66000000D01*
X85420000Y-67500000D02*
X86920000Y-66000000D01*
X123700000Y-83600000D02*
X121400000Y-85900000D01*
X104420000Y-67500000D02*
X105920000Y-66000000D01*
X119575000Y-87395000D02*
X118230000Y-88740000D01*
D29*
%TO.N,GND*%
X118025000Y-76300000D02*
X118025000Y-73705000D01*
X118025000Y-85900000D02*
X121425000Y-82500000D01*
X121425000Y-82500000D02*
X122250000Y-82500000D01*
X118025000Y-73705000D02*
X118230000Y-73500000D01*
X122250000Y-82500000D02*
X123700000Y-81050000D01*
D30*
X117900000Y-85775000D02*
X118025000Y-85900000D01*
D29*
%TO.N,+12V*%
X124200000Y-78000000D02*
X123700000Y-78500000D01*
X121775000Y-78500000D02*
X119575000Y-76300000D01*
X123700000Y-78500000D02*
X121775000Y-78500000D01*
X139644724Y-78000000D02*
X124200000Y-78000000D01*
X142544724Y-80900000D02*
X139644724Y-78000000D01*
D30*
%TO.N,SW2*%
X103000000Y-79400000D02*
X100300000Y-76700000D01*
X103000000Y-80300000D02*
X103000000Y-79400000D01*
X100300000Y-76700000D02*
X83700000Y-76700000D01*
%TO.N,SW1*%
X105500000Y-80300000D02*
X105500000Y-79400000D01*
X102000000Y-75900000D02*
X83700000Y-75900000D01*
X105500000Y-79400000D02*
X102000000Y-75900000D01*
%TO.N,Push*%
X85050000Y-74450000D02*
X85800000Y-75200000D01*
X98750000Y-75200000D02*
X100450000Y-73500000D01*
X84350000Y-74450000D02*
X85050000Y-74450000D01*
X85800000Y-75200000D02*
X98750000Y-75200000D01*
D29*
%TO.N,Net-(J11-Pin_2)*%
X133900000Y-75300000D02*
X141300000Y-75300000D01*
X142200000Y-76200000D02*
X142544724Y-76200000D01*
X141300000Y-75300000D02*
X142200000Y-76200000D01*
%TD*%
M02*
