%TF.GenerationSoftware,KiCad,Pcbnew,9.0.2*%
%TF.CreationDate,2025-10-02T13:21:22-04:00*%
%TF.ProjectId,Slippi,536c6970-7069-42e6-9b69-6361645f7063,rev?*%
%TF.SameCoordinates,Original*%
%TF.FileFunction,Legend,Top*%
%TF.FilePolarity,Positive*%
%FSLAX46Y46*%
G04 Gerber Fmt 4.6, Leading zero omitted, Abs format (unit mm)*
G04 Created by KiCad (PCBNEW 9.0.2) date 2025-10-02 13:21:22*
%MOMM*%
%LPD*%
G01*
G04 APERTURE LIST*
%ADD10C,0.100000*%
%ADD11C,0.200000*%
%ADD12C,0.150000*%
%ADD13C,0.120000*%
%ADD14C,0.127000*%
%ADD15C,0.050000*%
G04 APERTURE END LIST*
D10*
X139391466Y-71196115D02*
X139391466Y-70434211D01*
X139772419Y-70815163D02*
X139010514Y-70815163D01*
X139391466Y-68434210D02*
X139391466Y-67672306D01*
D11*
X143044838Y-68311279D02*
X143044838Y-67930326D01*
X143044838Y-67930326D02*
X143140076Y-67739850D01*
X143140076Y-67739850D02*
X143330552Y-67549374D01*
X143330552Y-67549374D02*
X143711504Y-67454136D01*
X143711504Y-67454136D02*
X144378171Y-67454136D01*
X144378171Y-67454136D02*
X144759123Y-67549374D01*
X144759123Y-67549374D02*
X144949600Y-67739850D01*
X144949600Y-67739850D02*
X145044838Y-67930326D01*
X145044838Y-67930326D02*
X145044838Y-68311279D01*
X145044838Y-68311279D02*
X144949600Y-68501755D01*
X144949600Y-68501755D02*
X144759123Y-68692231D01*
X144759123Y-68692231D02*
X144378171Y-68787469D01*
X144378171Y-68787469D02*
X143711504Y-68787469D01*
X143711504Y-68787469D02*
X143330552Y-68692231D01*
X143330552Y-68692231D02*
X143140076Y-68501755D01*
X143140076Y-68501755D02*
X143044838Y-68311279D01*
X143997219Y-65930326D02*
X143997219Y-66596993D01*
X145044838Y-66596993D02*
X143044838Y-66596993D01*
X143044838Y-66596993D02*
X143044838Y-65644612D01*
X143997219Y-64216040D02*
X143997219Y-64882707D01*
X145044838Y-64882707D02*
X143044838Y-64882707D01*
X143044838Y-64882707D02*
X143044838Y-63930326D01*
X76212530Y-60249600D02*
X76498244Y-60344838D01*
X76498244Y-60344838D02*
X76974435Y-60344838D01*
X76974435Y-60344838D02*
X77164911Y-60249600D01*
X77164911Y-60249600D02*
X77260149Y-60154361D01*
X77260149Y-60154361D02*
X77355387Y-59963885D01*
X77355387Y-59963885D02*
X77355387Y-59773409D01*
X77355387Y-59773409D02*
X77260149Y-59582933D01*
X77260149Y-59582933D02*
X77164911Y-59487695D01*
X77164911Y-59487695D02*
X76974435Y-59392457D01*
X76974435Y-59392457D02*
X76593482Y-59297219D01*
X76593482Y-59297219D02*
X76403006Y-59201980D01*
X76403006Y-59201980D02*
X76307768Y-59106742D01*
X76307768Y-59106742D02*
X76212530Y-58916266D01*
X76212530Y-58916266D02*
X76212530Y-58725790D01*
X76212530Y-58725790D02*
X76307768Y-58535314D01*
X76307768Y-58535314D02*
X76403006Y-58440076D01*
X76403006Y-58440076D02*
X76593482Y-58344838D01*
X76593482Y-58344838D02*
X77069673Y-58344838D01*
X77069673Y-58344838D02*
X77355387Y-58440076D01*
X78498244Y-60344838D02*
X78307768Y-60249600D01*
X78307768Y-60249600D02*
X78212530Y-60059123D01*
X78212530Y-60059123D02*
X78212530Y-58344838D01*
X79260149Y-60344838D02*
X79260149Y-59011504D01*
X79260149Y-58344838D02*
X79164911Y-58440076D01*
X79164911Y-58440076D02*
X79260149Y-58535314D01*
X79260149Y-58535314D02*
X79355387Y-58440076D01*
X79355387Y-58440076D02*
X79260149Y-58344838D01*
X79260149Y-58344838D02*
X79260149Y-58535314D01*
X80212530Y-59011504D02*
X80212530Y-61011504D01*
X80212530Y-59106742D02*
X80403006Y-59011504D01*
X80403006Y-59011504D02*
X80783959Y-59011504D01*
X80783959Y-59011504D02*
X80974435Y-59106742D01*
X80974435Y-59106742D02*
X81069673Y-59201980D01*
X81069673Y-59201980D02*
X81164911Y-59392457D01*
X81164911Y-59392457D02*
X81164911Y-59963885D01*
X81164911Y-59963885D02*
X81069673Y-60154361D01*
X81069673Y-60154361D02*
X80974435Y-60249600D01*
X80974435Y-60249600D02*
X80783959Y-60344838D01*
X80783959Y-60344838D02*
X80403006Y-60344838D01*
X80403006Y-60344838D02*
X80212530Y-60249600D01*
X82022054Y-59011504D02*
X82022054Y-61011504D01*
X82022054Y-59106742D02*
X82212530Y-59011504D01*
X82212530Y-59011504D02*
X82593483Y-59011504D01*
X82593483Y-59011504D02*
X82783959Y-59106742D01*
X82783959Y-59106742D02*
X82879197Y-59201980D01*
X82879197Y-59201980D02*
X82974435Y-59392457D01*
X82974435Y-59392457D02*
X82974435Y-59963885D01*
X82974435Y-59963885D02*
X82879197Y-60154361D01*
X82879197Y-60154361D02*
X82783959Y-60249600D01*
X82783959Y-60249600D02*
X82593483Y-60344838D01*
X82593483Y-60344838D02*
X82212530Y-60344838D01*
X82212530Y-60344838D02*
X82022054Y-60249600D01*
X83831578Y-60344838D02*
X83831578Y-59011504D01*
X83831578Y-58344838D02*
X83736340Y-58440076D01*
X83736340Y-58440076D02*
X83831578Y-58535314D01*
X83831578Y-58535314D02*
X83926816Y-58440076D01*
X83926816Y-58440076D02*
X83831578Y-58344838D01*
X83831578Y-58344838D02*
X83831578Y-58535314D01*
D10*
X74408533Y-64403884D02*
X74408533Y-65165789D01*
X74027580Y-64784836D02*
X74789485Y-64784836D01*
X74408533Y-67165789D02*
X74408533Y-67927694D01*
X76775312Y-62277180D02*
X76727693Y-62324800D01*
X76727693Y-62324800D02*
X76584836Y-62372419D01*
X76584836Y-62372419D02*
X76489598Y-62372419D01*
X76489598Y-62372419D02*
X76346741Y-62324800D01*
X76346741Y-62324800D02*
X76251503Y-62229561D01*
X76251503Y-62229561D02*
X76203884Y-62134323D01*
X76203884Y-62134323D02*
X76156265Y-61943847D01*
X76156265Y-61943847D02*
X76156265Y-61800990D01*
X76156265Y-61800990D02*
X76203884Y-61610514D01*
X76203884Y-61610514D02*
X76251503Y-61515276D01*
X76251503Y-61515276D02*
X76346741Y-61420038D01*
X76346741Y-61420038D02*
X76489598Y-61372419D01*
X76489598Y-61372419D02*
X76584836Y-61372419D01*
X76584836Y-61372419D02*
X76727693Y-61420038D01*
X76727693Y-61420038D02*
X76775312Y-61467657D01*
X77346741Y-62372419D02*
X77251503Y-62324800D01*
X77251503Y-62324800D02*
X77203884Y-62277180D01*
X77203884Y-62277180D02*
X77156265Y-62181942D01*
X77156265Y-62181942D02*
X77156265Y-61896228D01*
X77156265Y-61896228D02*
X77203884Y-61800990D01*
X77203884Y-61800990D02*
X77251503Y-61753371D01*
X77251503Y-61753371D02*
X77346741Y-61705752D01*
X77346741Y-61705752D02*
X77489598Y-61705752D01*
X77489598Y-61705752D02*
X77584836Y-61753371D01*
X77584836Y-61753371D02*
X77632455Y-61800990D01*
X77632455Y-61800990D02*
X77680074Y-61896228D01*
X77680074Y-61896228D02*
X77680074Y-62181942D01*
X77680074Y-62181942D02*
X77632455Y-62277180D01*
X77632455Y-62277180D02*
X77584836Y-62324800D01*
X77584836Y-62324800D02*
X77489598Y-62372419D01*
X77489598Y-62372419D02*
X77346741Y-62372419D01*
X78537217Y-62372419D02*
X78537217Y-61372419D01*
X78537217Y-62324800D02*
X78441979Y-62372419D01*
X78441979Y-62372419D02*
X78251503Y-62372419D01*
X78251503Y-62372419D02*
X78156265Y-62324800D01*
X78156265Y-62324800D02*
X78108646Y-62277180D01*
X78108646Y-62277180D02*
X78061027Y-62181942D01*
X78061027Y-62181942D02*
X78061027Y-61896228D01*
X78061027Y-61896228D02*
X78108646Y-61800990D01*
X78108646Y-61800990D02*
X78156265Y-61753371D01*
X78156265Y-61753371D02*
X78251503Y-61705752D01*
X78251503Y-61705752D02*
X78441979Y-61705752D01*
X78441979Y-61705752D02*
X78537217Y-61753371D01*
X78918170Y-61705752D02*
X79156265Y-62372419D01*
X79394360Y-61705752D02*
X79156265Y-62372419D01*
X79156265Y-62372419D02*
X79061027Y-62610514D01*
X79061027Y-62610514D02*
X79013408Y-62658133D01*
X79013408Y-62658133D02*
X78918170Y-62705752D01*
X81061027Y-61420038D02*
X80965789Y-61372419D01*
X80965789Y-61372419D02*
X80822932Y-61372419D01*
X80822932Y-61372419D02*
X80680075Y-61420038D01*
X80680075Y-61420038D02*
X80584837Y-61515276D01*
X80584837Y-61515276D02*
X80537218Y-61610514D01*
X80537218Y-61610514D02*
X80489599Y-61800990D01*
X80489599Y-61800990D02*
X80489599Y-61943847D01*
X80489599Y-61943847D02*
X80537218Y-62134323D01*
X80537218Y-62134323D02*
X80584837Y-62229561D01*
X80584837Y-62229561D02*
X80680075Y-62324800D01*
X80680075Y-62324800D02*
X80822932Y-62372419D01*
X80822932Y-62372419D02*
X80918170Y-62372419D01*
X80918170Y-62372419D02*
X81061027Y-62324800D01*
X81061027Y-62324800D02*
X81108646Y-62277180D01*
X81108646Y-62277180D02*
X81108646Y-61943847D01*
X81108646Y-61943847D02*
X80918170Y-61943847D01*
X81918170Y-62324800D02*
X81822932Y-62372419D01*
X81822932Y-62372419D02*
X81632456Y-62372419D01*
X81632456Y-62372419D02*
X81537218Y-62324800D01*
X81537218Y-62324800D02*
X81489599Y-62229561D01*
X81489599Y-62229561D02*
X81489599Y-61848609D01*
X81489599Y-61848609D02*
X81537218Y-61753371D01*
X81537218Y-61753371D02*
X81632456Y-61705752D01*
X81632456Y-61705752D02*
X81822932Y-61705752D01*
X81822932Y-61705752D02*
X81918170Y-61753371D01*
X81918170Y-61753371D02*
X81965789Y-61848609D01*
X81965789Y-61848609D02*
X81965789Y-61943847D01*
X81965789Y-61943847D02*
X81489599Y-62039085D01*
X82775313Y-62324800D02*
X82680075Y-62372419D01*
X82680075Y-62372419D02*
X82489599Y-62372419D01*
X82489599Y-62372419D02*
X82394361Y-62324800D01*
X82394361Y-62324800D02*
X82346742Y-62229561D01*
X82346742Y-62229561D02*
X82346742Y-61848609D01*
X82346742Y-61848609D02*
X82394361Y-61753371D01*
X82394361Y-61753371D02*
X82489599Y-61705752D01*
X82489599Y-61705752D02*
X82680075Y-61705752D01*
X82680075Y-61705752D02*
X82775313Y-61753371D01*
X82775313Y-61753371D02*
X82822932Y-61848609D01*
X82822932Y-61848609D02*
X82822932Y-61943847D01*
X82822932Y-61943847D02*
X82346742Y-62039085D01*
X113303884Y-62991466D02*
X114065789Y-62991466D01*
X113684836Y-63372419D02*
X113684836Y-62610514D01*
X116065789Y-62991466D02*
X116827694Y-62991466D01*
X94303884Y-62991466D02*
X95065789Y-62991466D01*
X94684836Y-63372419D02*
X94684836Y-62610514D01*
X97065789Y-62991466D02*
X97827694Y-62991466D01*
X145096115Y-91108533D02*
X144334211Y-91108533D01*
X144715163Y-90727580D02*
X144715163Y-91489485D01*
X142334210Y-91108533D02*
X141572306Y-91108533D01*
X77396115Y-91208533D02*
X76634211Y-91208533D01*
X77015163Y-90827580D02*
X77015163Y-91589485D01*
X74634210Y-91208533D02*
X73872306Y-91208533D01*
X122803884Y-62991466D02*
X123565789Y-62991466D01*
X123184836Y-63372419D02*
X123184836Y-62610514D01*
X125565789Y-62991466D02*
X126327694Y-62991466D01*
X84803884Y-62991466D02*
X85565789Y-62991466D01*
X85184836Y-63372419D02*
X85184836Y-62610514D01*
X87565789Y-62991466D02*
X88327694Y-62991466D01*
X103803884Y-62991466D02*
X104565789Y-62991466D01*
X104184836Y-63372419D02*
X104184836Y-62610514D01*
X106565789Y-62991466D02*
X107327694Y-62991466D01*
D12*
X102954819Y-61666666D02*
X102478628Y-61999999D01*
X102954819Y-62238094D02*
X101954819Y-62238094D01*
X101954819Y-62238094D02*
X101954819Y-61857142D01*
X101954819Y-61857142D02*
X102002438Y-61761904D01*
X102002438Y-61761904D02*
X102050057Y-61714285D01*
X102050057Y-61714285D02*
X102145295Y-61666666D01*
X102145295Y-61666666D02*
X102288152Y-61666666D01*
X102288152Y-61666666D02*
X102383390Y-61714285D01*
X102383390Y-61714285D02*
X102431009Y-61761904D01*
X102431009Y-61761904D02*
X102478628Y-61857142D01*
X102478628Y-61857142D02*
X102478628Y-62238094D01*
X101954819Y-61333332D02*
X101954819Y-60666666D01*
X101954819Y-60666666D02*
X102954819Y-61095237D01*
X131672319Y-67938333D02*
X132386604Y-67938333D01*
X132386604Y-67938333D02*
X132529461Y-67985952D01*
X132529461Y-67985952D02*
X132624700Y-68081190D01*
X132624700Y-68081190D02*
X132672319Y-68224047D01*
X132672319Y-68224047D02*
X132672319Y-68319285D01*
X131672319Y-66985952D02*
X131672319Y-67462142D01*
X131672319Y-67462142D02*
X132148509Y-67509761D01*
X132148509Y-67509761D02*
X132100890Y-67462142D01*
X132100890Y-67462142D02*
X132053271Y-67366904D01*
X132053271Y-67366904D02*
X132053271Y-67128809D01*
X132053271Y-67128809D02*
X132100890Y-67033571D01*
X132100890Y-67033571D02*
X132148509Y-66985952D01*
X132148509Y-66985952D02*
X132243747Y-66938333D01*
X132243747Y-66938333D02*
X132481842Y-66938333D01*
X132481842Y-66938333D02*
X132577080Y-66985952D01*
X132577080Y-66985952D02*
X132624700Y-67033571D01*
X132624700Y-67033571D02*
X132672319Y-67128809D01*
X132672319Y-67128809D02*
X132672319Y-67366904D01*
X132672319Y-67366904D02*
X132624700Y-67462142D01*
X132624700Y-67462142D02*
X132577080Y-67509761D01*
X110983333Y-77554819D02*
X110650000Y-77078628D01*
X110411905Y-77554819D02*
X110411905Y-76554819D01*
X110411905Y-76554819D02*
X110792857Y-76554819D01*
X110792857Y-76554819D02*
X110888095Y-76602438D01*
X110888095Y-76602438D02*
X110935714Y-76650057D01*
X110935714Y-76650057D02*
X110983333Y-76745295D01*
X110983333Y-76745295D02*
X110983333Y-76888152D01*
X110983333Y-76888152D02*
X110935714Y-76983390D01*
X110935714Y-76983390D02*
X110888095Y-77031009D01*
X110888095Y-77031009D02*
X110792857Y-77078628D01*
X110792857Y-77078628D02*
X110411905Y-77078628D01*
X111364286Y-76650057D02*
X111411905Y-76602438D01*
X111411905Y-76602438D02*
X111507143Y-76554819D01*
X111507143Y-76554819D02*
X111745238Y-76554819D01*
X111745238Y-76554819D02*
X111840476Y-76602438D01*
X111840476Y-76602438D02*
X111888095Y-76650057D01*
X111888095Y-76650057D02*
X111935714Y-76745295D01*
X111935714Y-76745295D02*
X111935714Y-76840533D01*
X111935714Y-76840533D02*
X111888095Y-76983390D01*
X111888095Y-76983390D02*
X111316667Y-77554819D01*
X111316667Y-77554819D02*
X111935714Y-77554819D01*
X87666666Y-69454819D02*
X87666666Y-70169104D01*
X87666666Y-70169104D02*
X87619047Y-70311961D01*
X87619047Y-70311961D02*
X87523809Y-70407200D01*
X87523809Y-70407200D02*
X87380952Y-70454819D01*
X87380952Y-70454819D02*
X87285714Y-70454819D01*
X88571428Y-69454819D02*
X88380952Y-69454819D01*
X88380952Y-69454819D02*
X88285714Y-69502438D01*
X88285714Y-69502438D02*
X88238095Y-69550057D01*
X88238095Y-69550057D02*
X88142857Y-69692914D01*
X88142857Y-69692914D02*
X88095238Y-69883390D01*
X88095238Y-69883390D02*
X88095238Y-70264342D01*
X88095238Y-70264342D02*
X88142857Y-70359580D01*
X88142857Y-70359580D02*
X88190476Y-70407200D01*
X88190476Y-70407200D02*
X88285714Y-70454819D01*
X88285714Y-70454819D02*
X88476190Y-70454819D01*
X88476190Y-70454819D02*
X88571428Y-70407200D01*
X88571428Y-70407200D02*
X88619047Y-70359580D01*
X88619047Y-70359580D02*
X88666666Y-70264342D01*
X88666666Y-70264342D02*
X88666666Y-70026247D01*
X88666666Y-70026247D02*
X88619047Y-69931009D01*
X88619047Y-69931009D02*
X88571428Y-69883390D01*
X88571428Y-69883390D02*
X88476190Y-69835771D01*
X88476190Y-69835771D02*
X88285714Y-69835771D01*
X88285714Y-69835771D02*
X88190476Y-69883390D01*
X88190476Y-69883390D02*
X88142857Y-69931009D01*
X88142857Y-69931009D02*
X88095238Y-70026247D01*
X82507200Y-79233332D02*
X82554819Y-79090475D01*
X82554819Y-79090475D02*
X82554819Y-78852380D01*
X82554819Y-78852380D02*
X82507200Y-78757142D01*
X82507200Y-78757142D02*
X82459580Y-78709523D01*
X82459580Y-78709523D02*
X82364342Y-78661904D01*
X82364342Y-78661904D02*
X82269104Y-78661904D01*
X82269104Y-78661904D02*
X82173866Y-78709523D01*
X82173866Y-78709523D02*
X82126247Y-78757142D01*
X82126247Y-78757142D02*
X82078628Y-78852380D01*
X82078628Y-78852380D02*
X82031009Y-79042856D01*
X82031009Y-79042856D02*
X81983390Y-79138094D01*
X81983390Y-79138094D02*
X81935771Y-79185713D01*
X81935771Y-79185713D02*
X81840533Y-79233332D01*
X81840533Y-79233332D02*
X81745295Y-79233332D01*
X81745295Y-79233332D02*
X81650057Y-79185713D01*
X81650057Y-79185713D02*
X81602438Y-79138094D01*
X81602438Y-79138094D02*
X81554819Y-79042856D01*
X81554819Y-79042856D02*
X81554819Y-78804761D01*
X81554819Y-78804761D02*
X81602438Y-78661904D01*
X81554819Y-78328570D02*
X82554819Y-78090475D01*
X82554819Y-78090475D02*
X81840533Y-77899999D01*
X81840533Y-77899999D02*
X82554819Y-77709523D01*
X82554819Y-77709523D02*
X81554819Y-77471428D01*
X81554819Y-77185713D02*
X81554819Y-76566666D01*
X81554819Y-76566666D02*
X81935771Y-76899999D01*
X81935771Y-76899999D02*
X81935771Y-76757142D01*
X81935771Y-76757142D02*
X81983390Y-76661904D01*
X81983390Y-76661904D02*
X82031009Y-76614285D01*
X82031009Y-76614285D02*
X82126247Y-76566666D01*
X82126247Y-76566666D02*
X82364342Y-76566666D01*
X82364342Y-76566666D02*
X82459580Y-76614285D01*
X82459580Y-76614285D02*
X82507200Y-76661904D01*
X82507200Y-76661904D02*
X82554819Y-76757142D01*
X82554819Y-76757142D02*
X82554819Y-77042856D01*
X82554819Y-77042856D02*
X82507200Y-77138094D01*
X82507200Y-77138094D02*
X82459580Y-77185713D01*
X132960476Y-84372319D02*
X132960476Y-85086604D01*
X132960476Y-85086604D02*
X132912857Y-85229461D01*
X132912857Y-85229461D02*
X132817619Y-85324700D01*
X132817619Y-85324700D02*
X132674762Y-85372319D01*
X132674762Y-85372319D02*
X132579524Y-85372319D01*
X133960476Y-85372319D02*
X133389048Y-85372319D01*
X133674762Y-85372319D02*
X133674762Y-84372319D01*
X133674762Y-84372319D02*
X133579524Y-84515176D01*
X133579524Y-84515176D02*
X133484286Y-84610414D01*
X133484286Y-84610414D02*
X133389048Y-84658033D01*
X134293810Y-84372319D02*
X134912857Y-84372319D01*
X134912857Y-84372319D02*
X134579524Y-84753271D01*
X134579524Y-84753271D02*
X134722381Y-84753271D01*
X134722381Y-84753271D02*
X134817619Y-84800890D01*
X134817619Y-84800890D02*
X134865238Y-84848509D01*
X134865238Y-84848509D02*
X134912857Y-84943747D01*
X134912857Y-84943747D02*
X134912857Y-85181842D01*
X134912857Y-85181842D02*
X134865238Y-85277080D01*
X134865238Y-85277080D02*
X134817619Y-85324700D01*
X134817619Y-85324700D02*
X134722381Y-85372319D01*
X134722381Y-85372319D02*
X134436667Y-85372319D01*
X134436667Y-85372319D02*
X134341429Y-85324700D01*
X134341429Y-85324700D02*
X134293810Y-85277080D01*
X87461905Y-59954819D02*
X87461905Y-58954819D01*
X87461905Y-58954819D02*
X87700000Y-58954819D01*
X87700000Y-58954819D02*
X87842857Y-59002438D01*
X87842857Y-59002438D02*
X87938095Y-59097676D01*
X87938095Y-59097676D02*
X87985714Y-59192914D01*
X87985714Y-59192914D02*
X88033333Y-59383390D01*
X88033333Y-59383390D02*
X88033333Y-59526247D01*
X88033333Y-59526247D02*
X87985714Y-59716723D01*
X87985714Y-59716723D02*
X87938095Y-59811961D01*
X87938095Y-59811961D02*
X87842857Y-59907200D01*
X87842857Y-59907200D02*
X87700000Y-59954819D01*
X87700000Y-59954819D02*
X87461905Y-59954819D01*
X88414286Y-59050057D02*
X88461905Y-59002438D01*
X88461905Y-59002438D02*
X88557143Y-58954819D01*
X88557143Y-58954819D02*
X88795238Y-58954819D01*
X88795238Y-58954819D02*
X88890476Y-59002438D01*
X88890476Y-59002438D02*
X88938095Y-59050057D01*
X88938095Y-59050057D02*
X88985714Y-59145295D01*
X88985714Y-59145295D02*
X88985714Y-59240533D01*
X88985714Y-59240533D02*
X88938095Y-59383390D01*
X88938095Y-59383390D02*
X88366667Y-59954819D01*
X88366667Y-59954819D02*
X88985714Y-59954819D01*
X141506666Y-83554819D02*
X141506666Y-84269104D01*
X141506666Y-84269104D02*
X141459047Y-84411961D01*
X141459047Y-84411961D02*
X141363809Y-84507200D01*
X141363809Y-84507200D02*
X141220952Y-84554819D01*
X141220952Y-84554819D02*
X141125714Y-84554819D01*
X142030476Y-84554819D02*
X142220952Y-84554819D01*
X142220952Y-84554819D02*
X142316190Y-84507200D01*
X142316190Y-84507200D02*
X142363809Y-84459580D01*
X142363809Y-84459580D02*
X142459047Y-84316723D01*
X142459047Y-84316723D02*
X142506666Y-84126247D01*
X142506666Y-84126247D02*
X142506666Y-83745295D01*
X142506666Y-83745295D02*
X142459047Y-83650057D01*
X142459047Y-83650057D02*
X142411428Y-83602438D01*
X142411428Y-83602438D02*
X142316190Y-83554819D01*
X142316190Y-83554819D02*
X142125714Y-83554819D01*
X142125714Y-83554819D02*
X142030476Y-83602438D01*
X142030476Y-83602438D02*
X141982857Y-83650057D01*
X141982857Y-83650057D02*
X141935238Y-83745295D01*
X141935238Y-83745295D02*
X141935238Y-83983390D01*
X141935238Y-83983390D02*
X141982857Y-84078628D01*
X141982857Y-84078628D02*
X142030476Y-84126247D01*
X142030476Y-84126247D02*
X142125714Y-84173866D01*
X142125714Y-84173866D02*
X142316190Y-84173866D01*
X142316190Y-84173866D02*
X142411428Y-84126247D01*
X142411428Y-84126247D02*
X142459047Y-84078628D01*
X142459047Y-84078628D02*
X142506666Y-83983390D01*
X132269104Y-78814285D02*
X132269104Y-78338095D01*
X132554819Y-78909523D02*
X131554819Y-78576190D01*
X131554819Y-78576190D02*
X132554819Y-78242857D01*
X132554819Y-77385714D02*
X132554819Y-77957142D01*
X132554819Y-77671428D02*
X131554819Y-77671428D01*
X131554819Y-77671428D02*
X131697676Y-77766666D01*
X131697676Y-77766666D02*
X131792914Y-77861904D01*
X131792914Y-77861904D02*
X131840533Y-77957142D01*
X90835180Y-79858095D02*
X90025657Y-79858095D01*
X90025657Y-79858095D02*
X89930419Y-79905714D01*
X89930419Y-79905714D02*
X89882800Y-79953333D01*
X89882800Y-79953333D02*
X89835180Y-80048571D01*
X89835180Y-80048571D02*
X89835180Y-80239047D01*
X89835180Y-80239047D02*
X89882800Y-80334285D01*
X89882800Y-80334285D02*
X89930419Y-80381904D01*
X89930419Y-80381904D02*
X90025657Y-80429523D01*
X90025657Y-80429523D02*
X90835180Y-80429523D01*
X89882800Y-80858095D02*
X89835180Y-81000952D01*
X89835180Y-81000952D02*
X89835180Y-81239047D01*
X89835180Y-81239047D02*
X89882800Y-81334285D01*
X89882800Y-81334285D02*
X89930419Y-81381904D01*
X89930419Y-81381904D02*
X90025657Y-81429523D01*
X90025657Y-81429523D02*
X90120895Y-81429523D01*
X90120895Y-81429523D02*
X90216133Y-81381904D01*
X90216133Y-81381904D02*
X90263752Y-81334285D01*
X90263752Y-81334285D02*
X90311371Y-81239047D01*
X90311371Y-81239047D02*
X90358990Y-81048571D01*
X90358990Y-81048571D02*
X90406609Y-80953333D01*
X90406609Y-80953333D02*
X90454228Y-80905714D01*
X90454228Y-80905714D02*
X90549466Y-80858095D01*
X90549466Y-80858095D02*
X90644704Y-80858095D01*
X90644704Y-80858095D02*
X90739942Y-80905714D01*
X90739942Y-80905714D02*
X90787561Y-80953333D01*
X90787561Y-80953333D02*
X90835180Y-81048571D01*
X90835180Y-81048571D02*
X90835180Y-81286666D01*
X90835180Y-81286666D02*
X90787561Y-81429523D01*
X90358990Y-82191428D02*
X90311371Y-82334285D01*
X90311371Y-82334285D02*
X90263752Y-82381904D01*
X90263752Y-82381904D02*
X90168514Y-82429523D01*
X90168514Y-82429523D02*
X90025657Y-82429523D01*
X90025657Y-82429523D02*
X89930419Y-82381904D01*
X89930419Y-82381904D02*
X89882800Y-82334285D01*
X89882800Y-82334285D02*
X89835180Y-82239047D01*
X89835180Y-82239047D02*
X89835180Y-81858095D01*
X89835180Y-81858095D02*
X90835180Y-81858095D01*
X90835180Y-81858095D02*
X90835180Y-82191428D01*
X90835180Y-82191428D02*
X90787561Y-82286666D01*
X90787561Y-82286666D02*
X90739942Y-82334285D01*
X90739942Y-82334285D02*
X90644704Y-82381904D01*
X90644704Y-82381904D02*
X90549466Y-82381904D01*
X90549466Y-82381904D02*
X90454228Y-82334285D01*
X90454228Y-82334285D02*
X90406609Y-82286666D01*
X90406609Y-82286666D02*
X90358990Y-82191428D01*
X90358990Y-82191428D02*
X90358990Y-81858095D01*
X106626666Y-69454819D02*
X106626666Y-70169104D01*
X106626666Y-70169104D02*
X106579047Y-70311961D01*
X106579047Y-70311961D02*
X106483809Y-70407200D01*
X106483809Y-70407200D02*
X106340952Y-70454819D01*
X106340952Y-70454819D02*
X106245714Y-70454819D01*
X107007619Y-69454819D02*
X107626666Y-69454819D01*
X107626666Y-69454819D02*
X107293333Y-69835771D01*
X107293333Y-69835771D02*
X107436190Y-69835771D01*
X107436190Y-69835771D02*
X107531428Y-69883390D01*
X107531428Y-69883390D02*
X107579047Y-69931009D01*
X107579047Y-69931009D02*
X107626666Y-70026247D01*
X107626666Y-70026247D02*
X107626666Y-70264342D01*
X107626666Y-70264342D02*
X107579047Y-70359580D01*
X107579047Y-70359580D02*
X107531428Y-70407200D01*
X107531428Y-70407200D02*
X107436190Y-70454819D01*
X107436190Y-70454819D02*
X107150476Y-70454819D01*
X107150476Y-70454819D02*
X107055238Y-70407200D01*
X107055238Y-70407200D02*
X107007619Y-70359580D01*
X129333333Y-59854819D02*
X129000000Y-59378628D01*
X128761905Y-59854819D02*
X128761905Y-58854819D01*
X128761905Y-58854819D02*
X129142857Y-58854819D01*
X129142857Y-58854819D02*
X129238095Y-58902438D01*
X129238095Y-58902438D02*
X129285714Y-58950057D01*
X129285714Y-58950057D02*
X129333333Y-59045295D01*
X129333333Y-59045295D02*
X129333333Y-59188152D01*
X129333333Y-59188152D02*
X129285714Y-59283390D01*
X129285714Y-59283390D02*
X129238095Y-59331009D01*
X129238095Y-59331009D02*
X129142857Y-59378628D01*
X129142857Y-59378628D02*
X128761905Y-59378628D01*
X130238095Y-58854819D02*
X129761905Y-58854819D01*
X129761905Y-58854819D02*
X129714286Y-59331009D01*
X129714286Y-59331009D02*
X129761905Y-59283390D01*
X129761905Y-59283390D02*
X129857143Y-59235771D01*
X129857143Y-59235771D02*
X130095238Y-59235771D01*
X130095238Y-59235771D02*
X130190476Y-59283390D01*
X130190476Y-59283390D02*
X130238095Y-59331009D01*
X130238095Y-59331009D02*
X130285714Y-59426247D01*
X130285714Y-59426247D02*
X130285714Y-59664342D01*
X130285714Y-59664342D02*
X130238095Y-59759580D01*
X130238095Y-59759580D02*
X130190476Y-59807200D01*
X130190476Y-59807200D02*
X130095238Y-59854819D01*
X130095238Y-59854819D02*
X129857143Y-59854819D01*
X129857143Y-59854819D02*
X129761905Y-59807200D01*
X129761905Y-59807200D02*
X129714286Y-59759580D01*
X110908333Y-85789580D02*
X110860714Y-85837200D01*
X110860714Y-85837200D02*
X110717857Y-85884819D01*
X110717857Y-85884819D02*
X110622619Y-85884819D01*
X110622619Y-85884819D02*
X110479762Y-85837200D01*
X110479762Y-85837200D02*
X110384524Y-85741961D01*
X110384524Y-85741961D02*
X110336905Y-85646723D01*
X110336905Y-85646723D02*
X110289286Y-85456247D01*
X110289286Y-85456247D02*
X110289286Y-85313390D01*
X110289286Y-85313390D02*
X110336905Y-85122914D01*
X110336905Y-85122914D02*
X110384524Y-85027676D01*
X110384524Y-85027676D02*
X110479762Y-84932438D01*
X110479762Y-84932438D02*
X110622619Y-84884819D01*
X110622619Y-84884819D02*
X110717857Y-84884819D01*
X110717857Y-84884819D02*
X110860714Y-84932438D01*
X110860714Y-84932438D02*
X110908333Y-84980057D01*
X111241667Y-84884819D02*
X111860714Y-84884819D01*
X111860714Y-84884819D02*
X111527381Y-85265771D01*
X111527381Y-85265771D02*
X111670238Y-85265771D01*
X111670238Y-85265771D02*
X111765476Y-85313390D01*
X111765476Y-85313390D02*
X111813095Y-85361009D01*
X111813095Y-85361009D02*
X111860714Y-85456247D01*
X111860714Y-85456247D02*
X111860714Y-85694342D01*
X111860714Y-85694342D02*
X111813095Y-85789580D01*
X111813095Y-85789580D02*
X111765476Y-85837200D01*
X111765476Y-85837200D02*
X111670238Y-85884819D01*
X111670238Y-85884819D02*
X111384524Y-85884819D01*
X111384524Y-85884819D02*
X111289286Y-85837200D01*
X111289286Y-85837200D02*
X111241667Y-85789580D01*
X91383333Y-77654819D02*
X91050000Y-77178628D01*
X90811905Y-77654819D02*
X90811905Y-76654819D01*
X90811905Y-76654819D02*
X91192857Y-76654819D01*
X91192857Y-76654819D02*
X91288095Y-76702438D01*
X91288095Y-76702438D02*
X91335714Y-76750057D01*
X91335714Y-76750057D02*
X91383333Y-76845295D01*
X91383333Y-76845295D02*
X91383333Y-76988152D01*
X91383333Y-76988152D02*
X91335714Y-77083390D01*
X91335714Y-77083390D02*
X91288095Y-77131009D01*
X91288095Y-77131009D02*
X91192857Y-77178628D01*
X91192857Y-77178628D02*
X90811905Y-77178628D01*
X92335714Y-77654819D02*
X91764286Y-77654819D01*
X92050000Y-77654819D02*
X92050000Y-76654819D01*
X92050000Y-76654819D02*
X91954762Y-76797676D01*
X91954762Y-76797676D02*
X91859524Y-76892914D01*
X91859524Y-76892914D02*
X91764286Y-76940533D01*
X73926666Y-83672319D02*
X73926666Y-84386604D01*
X73926666Y-84386604D02*
X73879047Y-84529461D01*
X73879047Y-84529461D02*
X73783809Y-84624700D01*
X73783809Y-84624700D02*
X73640952Y-84672319D01*
X73640952Y-84672319D02*
X73545714Y-84672319D01*
X74545714Y-84100890D02*
X74450476Y-84053271D01*
X74450476Y-84053271D02*
X74402857Y-84005652D01*
X74402857Y-84005652D02*
X74355238Y-83910414D01*
X74355238Y-83910414D02*
X74355238Y-83862795D01*
X74355238Y-83862795D02*
X74402857Y-83767557D01*
X74402857Y-83767557D02*
X74450476Y-83719938D01*
X74450476Y-83719938D02*
X74545714Y-83672319D01*
X74545714Y-83672319D02*
X74736190Y-83672319D01*
X74736190Y-83672319D02*
X74831428Y-83719938D01*
X74831428Y-83719938D02*
X74879047Y-83767557D01*
X74879047Y-83767557D02*
X74926666Y-83862795D01*
X74926666Y-83862795D02*
X74926666Y-83910414D01*
X74926666Y-83910414D02*
X74879047Y-84005652D01*
X74879047Y-84005652D02*
X74831428Y-84053271D01*
X74831428Y-84053271D02*
X74736190Y-84100890D01*
X74736190Y-84100890D02*
X74545714Y-84100890D01*
X74545714Y-84100890D02*
X74450476Y-84148509D01*
X74450476Y-84148509D02*
X74402857Y-84196128D01*
X74402857Y-84196128D02*
X74355238Y-84291366D01*
X74355238Y-84291366D02*
X74355238Y-84481842D01*
X74355238Y-84481842D02*
X74402857Y-84577080D01*
X74402857Y-84577080D02*
X74450476Y-84624700D01*
X74450476Y-84624700D02*
X74545714Y-84672319D01*
X74545714Y-84672319D02*
X74736190Y-84672319D01*
X74736190Y-84672319D02*
X74831428Y-84624700D01*
X74831428Y-84624700D02*
X74879047Y-84577080D01*
X74879047Y-84577080D02*
X74926666Y-84481842D01*
X74926666Y-84481842D02*
X74926666Y-84291366D01*
X74926666Y-84291366D02*
X74879047Y-84196128D01*
X74879047Y-84196128D02*
X74831428Y-84148509D01*
X74831428Y-84148509D02*
X74736190Y-84100890D01*
X96961905Y-59954819D02*
X96961905Y-58954819D01*
X96961905Y-58954819D02*
X97200000Y-58954819D01*
X97200000Y-58954819D02*
X97342857Y-59002438D01*
X97342857Y-59002438D02*
X97438095Y-59097676D01*
X97438095Y-59097676D02*
X97485714Y-59192914D01*
X97485714Y-59192914D02*
X97533333Y-59383390D01*
X97533333Y-59383390D02*
X97533333Y-59526247D01*
X97533333Y-59526247D02*
X97485714Y-59716723D01*
X97485714Y-59716723D02*
X97438095Y-59811961D01*
X97438095Y-59811961D02*
X97342857Y-59907200D01*
X97342857Y-59907200D02*
X97200000Y-59954819D01*
X97200000Y-59954819D02*
X96961905Y-59954819D01*
X98438095Y-58954819D02*
X97961905Y-58954819D01*
X97961905Y-58954819D02*
X97914286Y-59431009D01*
X97914286Y-59431009D02*
X97961905Y-59383390D01*
X97961905Y-59383390D02*
X98057143Y-59335771D01*
X98057143Y-59335771D02*
X98295238Y-59335771D01*
X98295238Y-59335771D02*
X98390476Y-59383390D01*
X98390476Y-59383390D02*
X98438095Y-59431009D01*
X98438095Y-59431009D02*
X98485714Y-59526247D01*
X98485714Y-59526247D02*
X98485714Y-59764342D01*
X98485714Y-59764342D02*
X98438095Y-59859580D01*
X98438095Y-59859580D02*
X98390476Y-59907200D01*
X98390476Y-59907200D02*
X98295238Y-59954819D01*
X98295238Y-59954819D02*
X98057143Y-59954819D01*
X98057143Y-59954819D02*
X97961905Y-59907200D01*
X97961905Y-59907200D02*
X97914286Y-59859580D01*
X77067200Y-79033332D02*
X77114819Y-78890475D01*
X77114819Y-78890475D02*
X77114819Y-78652380D01*
X77114819Y-78652380D02*
X77067200Y-78557142D01*
X77067200Y-78557142D02*
X77019580Y-78509523D01*
X77019580Y-78509523D02*
X76924342Y-78461904D01*
X76924342Y-78461904D02*
X76829104Y-78461904D01*
X76829104Y-78461904D02*
X76733866Y-78509523D01*
X76733866Y-78509523D02*
X76686247Y-78557142D01*
X76686247Y-78557142D02*
X76638628Y-78652380D01*
X76638628Y-78652380D02*
X76591009Y-78842856D01*
X76591009Y-78842856D02*
X76543390Y-78938094D01*
X76543390Y-78938094D02*
X76495771Y-78985713D01*
X76495771Y-78985713D02*
X76400533Y-79033332D01*
X76400533Y-79033332D02*
X76305295Y-79033332D01*
X76305295Y-79033332D02*
X76210057Y-78985713D01*
X76210057Y-78985713D02*
X76162438Y-78938094D01*
X76162438Y-78938094D02*
X76114819Y-78842856D01*
X76114819Y-78842856D02*
X76114819Y-78604761D01*
X76114819Y-78604761D02*
X76162438Y-78461904D01*
X76114819Y-78128570D02*
X77114819Y-77890475D01*
X77114819Y-77890475D02*
X76400533Y-77699999D01*
X76400533Y-77699999D02*
X77114819Y-77509523D01*
X77114819Y-77509523D02*
X76114819Y-77271428D01*
X76210057Y-76938094D02*
X76162438Y-76890475D01*
X76162438Y-76890475D02*
X76114819Y-76795237D01*
X76114819Y-76795237D02*
X76114819Y-76557142D01*
X76114819Y-76557142D02*
X76162438Y-76461904D01*
X76162438Y-76461904D02*
X76210057Y-76414285D01*
X76210057Y-76414285D02*
X76305295Y-76366666D01*
X76305295Y-76366666D02*
X76400533Y-76366666D01*
X76400533Y-76366666D02*
X76543390Y-76414285D01*
X76543390Y-76414285D02*
X77114819Y-76985713D01*
X77114819Y-76985713D02*
X77114819Y-76366666D01*
X141654819Y-68538094D02*
X140654819Y-68538094D01*
X140654819Y-68538094D02*
X140654819Y-68299999D01*
X140654819Y-68299999D02*
X140702438Y-68157142D01*
X140702438Y-68157142D02*
X140797676Y-68061904D01*
X140797676Y-68061904D02*
X140892914Y-68014285D01*
X140892914Y-68014285D02*
X141083390Y-67966666D01*
X141083390Y-67966666D02*
X141226247Y-67966666D01*
X141226247Y-67966666D02*
X141416723Y-68014285D01*
X141416723Y-68014285D02*
X141511961Y-68061904D01*
X141511961Y-68061904D02*
X141607200Y-68157142D01*
X141607200Y-68157142D02*
X141654819Y-68299999D01*
X141654819Y-68299999D02*
X141654819Y-68538094D01*
X141083390Y-67395237D02*
X141035771Y-67490475D01*
X141035771Y-67490475D02*
X140988152Y-67538094D01*
X140988152Y-67538094D02*
X140892914Y-67585713D01*
X140892914Y-67585713D02*
X140845295Y-67585713D01*
X140845295Y-67585713D02*
X140750057Y-67538094D01*
X140750057Y-67538094D02*
X140702438Y-67490475D01*
X140702438Y-67490475D02*
X140654819Y-67395237D01*
X140654819Y-67395237D02*
X140654819Y-67204761D01*
X140654819Y-67204761D02*
X140702438Y-67109523D01*
X140702438Y-67109523D02*
X140750057Y-67061904D01*
X140750057Y-67061904D02*
X140845295Y-67014285D01*
X140845295Y-67014285D02*
X140892914Y-67014285D01*
X140892914Y-67014285D02*
X140988152Y-67061904D01*
X140988152Y-67061904D02*
X141035771Y-67109523D01*
X141035771Y-67109523D02*
X141083390Y-67204761D01*
X141083390Y-67204761D02*
X141083390Y-67395237D01*
X141083390Y-67395237D02*
X141131009Y-67490475D01*
X141131009Y-67490475D02*
X141178628Y-67538094D01*
X141178628Y-67538094D02*
X141273866Y-67585713D01*
X141273866Y-67585713D02*
X141464342Y-67585713D01*
X141464342Y-67585713D02*
X141559580Y-67538094D01*
X141559580Y-67538094D02*
X141607200Y-67490475D01*
X141607200Y-67490475D02*
X141654819Y-67395237D01*
X141654819Y-67395237D02*
X141654819Y-67204761D01*
X141654819Y-67204761D02*
X141607200Y-67109523D01*
X141607200Y-67109523D02*
X141559580Y-67061904D01*
X141559580Y-67061904D02*
X141464342Y-67014285D01*
X141464342Y-67014285D02*
X141273866Y-67014285D01*
X141273866Y-67014285D02*
X141178628Y-67061904D01*
X141178628Y-67061904D02*
X141131009Y-67109523D01*
X141131009Y-67109523D02*
X141083390Y-67204761D01*
X100034819Y-81886904D02*
X100844342Y-81886904D01*
X100844342Y-81886904D02*
X100939580Y-81839285D01*
X100939580Y-81839285D02*
X100987200Y-81791666D01*
X100987200Y-81791666D02*
X101034819Y-81696428D01*
X101034819Y-81696428D02*
X101034819Y-81505952D01*
X101034819Y-81505952D02*
X100987200Y-81410714D01*
X100987200Y-81410714D02*
X100939580Y-81363095D01*
X100939580Y-81363095D02*
X100844342Y-81315476D01*
X100844342Y-81315476D02*
X100034819Y-81315476D01*
X101034819Y-80315476D02*
X101034819Y-80886904D01*
X101034819Y-80601190D02*
X100034819Y-80601190D01*
X100034819Y-80601190D02*
X100177676Y-80696428D01*
X100177676Y-80696428D02*
X100272914Y-80791666D01*
X100272914Y-80791666D02*
X100320533Y-80886904D01*
X81154819Y-67873333D02*
X81869104Y-67873333D01*
X81869104Y-67873333D02*
X82011961Y-67920952D01*
X82011961Y-67920952D02*
X82107200Y-68016190D01*
X82107200Y-68016190D02*
X82154819Y-68159047D01*
X82154819Y-68159047D02*
X82154819Y-68254285D01*
X82154819Y-66873333D02*
X82154819Y-67444761D01*
X82154819Y-67159047D02*
X81154819Y-67159047D01*
X81154819Y-67159047D02*
X81297676Y-67254285D01*
X81297676Y-67254285D02*
X81392914Y-67349523D01*
X81392914Y-67349523D02*
X81440533Y-67444761D01*
X110908333Y-83289580D02*
X110860714Y-83337200D01*
X110860714Y-83337200D02*
X110717857Y-83384819D01*
X110717857Y-83384819D02*
X110622619Y-83384819D01*
X110622619Y-83384819D02*
X110479762Y-83337200D01*
X110479762Y-83337200D02*
X110384524Y-83241961D01*
X110384524Y-83241961D02*
X110336905Y-83146723D01*
X110336905Y-83146723D02*
X110289286Y-82956247D01*
X110289286Y-82956247D02*
X110289286Y-82813390D01*
X110289286Y-82813390D02*
X110336905Y-82622914D01*
X110336905Y-82622914D02*
X110384524Y-82527676D01*
X110384524Y-82527676D02*
X110479762Y-82432438D01*
X110479762Y-82432438D02*
X110622619Y-82384819D01*
X110622619Y-82384819D02*
X110717857Y-82384819D01*
X110717857Y-82384819D02*
X110860714Y-82432438D01*
X110860714Y-82432438D02*
X110908333Y-82480057D01*
X111765476Y-82718152D02*
X111765476Y-83384819D01*
X111527381Y-82337200D02*
X111289286Y-83051485D01*
X111289286Y-83051485D02*
X111908333Y-83051485D01*
X97126666Y-69454819D02*
X97126666Y-70169104D01*
X97126666Y-70169104D02*
X97079047Y-70311961D01*
X97079047Y-70311961D02*
X96983809Y-70407200D01*
X96983809Y-70407200D02*
X96840952Y-70454819D01*
X96840952Y-70454819D02*
X96745714Y-70454819D01*
X97555238Y-69550057D02*
X97602857Y-69502438D01*
X97602857Y-69502438D02*
X97698095Y-69454819D01*
X97698095Y-69454819D02*
X97936190Y-69454819D01*
X97936190Y-69454819D02*
X98031428Y-69502438D01*
X98031428Y-69502438D02*
X98079047Y-69550057D01*
X98079047Y-69550057D02*
X98126666Y-69645295D01*
X98126666Y-69645295D02*
X98126666Y-69740533D01*
X98126666Y-69740533D02*
X98079047Y-69883390D01*
X98079047Y-69883390D02*
X97507619Y-70454819D01*
X97507619Y-70454819D02*
X98126666Y-70454819D01*
X139534819Y-60709523D02*
X140249104Y-60709523D01*
X140249104Y-60709523D02*
X140391961Y-60757142D01*
X140391961Y-60757142D02*
X140487200Y-60852380D01*
X140487200Y-60852380D02*
X140534819Y-60995237D01*
X140534819Y-60995237D02*
X140534819Y-61090475D01*
X140534819Y-59709523D02*
X140534819Y-60280951D01*
X140534819Y-59995237D02*
X139534819Y-59995237D01*
X139534819Y-59995237D02*
X139677676Y-60090475D01*
X139677676Y-60090475D02*
X139772914Y-60185713D01*
X139772914Y-60185713D02*
X139820533Y-60280951D01*
X139534819Y-59090475D02*
X139534819Y-58995237D01*
X139534819Y-58995237D02*
X139582438Y-58899999D01*
X139582438Y-58899999D02*
X139630057Y-58852380D01*
X139630057Y-58852380D02*
X139725295Y-58804761D01*
X139725295Y-58804761D02*
X139915771Y-58757142D01*
X139915771Y-58757142D02*
X140153866Y-58757142D01*
X140153866Y-58757142D02*
X140344342Y-58804761D01*
X140344342Y-58804761D02*
X140439580Y-58852380D01*
X140439580Y-58852380D02*
X140487200Y-58899999D01*
X140487200Y-58899999D02*
X140534819Y-58995237D01*
X140534819Y-58995237D02*
X140534819Y-59090475D01*
X140534819Y-59090475D02*
X140487200Y-59185713D01*
X140487200Y-59185713D02*
X140439580Y-59233332D01*
X140439580Y-59233332D02*
X140344342Y-59280951D01*
X140344342Y-59280951D02*
X140153866Y-59328570D01*
X140153866Y-59328570D02*
X139915771Y-59328570D01*
X139915771Y-59328570D02*
X139725295Y-59280951D01*
X139725295Y-59280951D02*
X139630057Y-59233332D01*
X139630057Y-59233332D02*
X139582438Y-59185713D01*
X139582438Y-59185713D02*
X139534819Y-59090475D01*
X125626666Y-69454819D02*
X125626666Y-70169104D01*
X125626666Y-70169104D02*
X125579047Y-70311961D01*
X125579047Y-70311961D02*
X125483809Y-70407200D01*
X125483809Y-70407200D02*
X125340952Y-70454819D01*
X125340952Y-70454819D02*
X125245714Y-70454819D01*
X126007619Y-69454819D02*
X126674285Y-69454819D01*
X126674285Y-69454819D02*
X126245714Y-70454819D01*
X115961905Y-59954819D02*
X115961905Y-58954819D01*
X115961905Y-58954819D02*
X116200000Y-58954819D01*
X116200000Y-58954819D02*
X116342857Y-59002438D01*
X116342857Y-59002438D02*
X116438095Y-59097676D01*
X116438095Y-59097676D02*
X116485714Y-59192914D01*
X116485714Y-59192914D02*
X116533333Y-59383390D01*
X116533333Y-59383390D02*
X116533333Y-59526247D01*
X116533333Y-59526247D02*
X116485714Y-59716723D01*
X116485714Y-59716723D02*
X116438095Y-59811961D01*
X116438095Y-59811961D02*
X116342857Y-59907200D01*
X116342857Y-59907200D02*
X116200000Y-59954819D01*
X116200000Y-59954819D02*
X115961905Y-59954819D01*
X116866667Y-58954819D02*
X117533333Y-58954819D01*
X117533333Y-58954819D02*
X117104762Y-59954819D01*
X93279819Y-61691666D02*
X92803628Y-62024999D01*
X93279819Y-62263094D02*
X92279819Y-62263094D01*
X92279819Y-62263094D02*
X92279819Y-61882142D01*
X92279819Y-61882142D02*
X92327438Y-61786904D01*
X92327438Y-61786904D02*
X92375057Y-61739285D01*
X92375057Y-61739285D02*
X92470295Y-61691666D01*
X92470295Y-61691666D02*
X92613152Y-61691666D01*
X92613152Y-61691666D02*
X92708390Y-61739285D01*
X92708390Y-61739285D02*
X92756009Y-61786904D01*
X92756009Y-61786904D02*
X92803628Y-61882142D01*
X92803628Y-61882142D02*
X92803628Y-62263094D01*
X92613152Y-60834523D02*
X93279819Y-60834523D01*
X92232200Y-61072618D02*
X92946485Y-61310713D01*
X92946485Y-61310713D02*
X92946485Y-60691666D01*
X91408333Y-85689580D02*
X91360714Y-85737200D01*
X91360714Y-85737200D02*
X91217857Y-85784819D01*
X91217857Y-85784819D02*
X91122619Y-85784819D01*
X91122619Y-85784819D02*
X90979762Y-85737200D01*
X90979762Y-85737200D02*
X90884524Y-85641961D01*
X90884524Y-85641961D02*
X90836905Y-85546723D01*
X90836905Y-85546723D02*
X90789286Y-85356247D01*
X90789286Y-85356247D02*
X90789286Y-85213390D01*
X90789286Y-85213390D02*
X90836905Y-85022914D01*
X90836905Y-85022914D02*
X90884524Y-84927676D01*
X90884524Y-84927676D02*
X90979762Y-84832438D01*
X90979762Y-84832438D02*
X91122619Y-84784819D01*
X91122619Y-84784819D02*
X91217857Y-84784819D01*
X91217857Y-84784819D02*
X91360714Y-84832438D01*
X91360714Y-84832438D02*
X91408333Y-84880057D01*
X92360714Y-85784819D02*
X91789286Y-85784819D01*
X92075000Y-85784819D02*
X92075000Y-84784819D01*
X92075000Y-84784819D02*
X91979762Y-84927676D01*
X91979762Y-84927676D02*
X91884524Y-85022914D01*
X91884524Y-85022914D02*
X91789286Y-85070533D01*
X122254819Y-80509523D02*
X122969104Y-80509523D01*
X122969104Y-80509523D02*
X123111961Y-80557142D01*
X123111961Y-80557142D02*
X123207200Y-80652380D01*
X123207200Y-80652380D02*
X123254819Y-80795237D01*
X123254819Y-80795237D02*
X123254819Y-80890475D01*
X123254819Y-79509523D02*
X123254819Y-80080951D01*
X123254819Y-79795237D02*
X122254819Y-79795237D01*
X122254819Y-79795237D02*
X122397676Y-79890475D01*
X122397676Y-79890475D02*
X122492914Y-79985713D01*
X122492914Y-79985713D02*
X122540533Y-80080951D01*
X123254819Y-78557142D02*
X123254819Y-79128570D01*
X123254819Y-78842856D02*
X122254819Y-78842856D01*
X122254819Y-78842856D02*
X122397676Y-78938094D01*
X122397676Y-78938094D02*
X122492914Y-79033332D01*
X122492914Y-79033332D02*
X122540533Y-79128570D01*
X137714700Y-75871428D02*
X137714700Y-74728571D01*
X138286128Y-75299999D02*
X137143271Y-75299999D01*
X137714700Y-80871428D02*
X137714700Y-79728571D01*
X120034819Y-81886904D02*
X120844342Y-81886904D01*
X120844342Y-81886904D02*
X120939580Y-81839285D01*
X120939580Y-81839285D02*
X120987200Y-81791666D01*
X120987200Y-81791666D02*
X121034819Y-81696428D01*
X121034819Y-81696428D02*
X121034819Y-81505952D01*
X121034819Y-81505952D02*
X120987200Y-81410714D01*
X120987200Y-81410714D02*
X120939580Y-81363095D01*
X120939580Y-81363095D02*
X120844342Y-81315476D01*
X120844342Y-81315476D02*
X120034819Y-81315476D01*
X120130057Y-80886904D02*
X120082438Y-80839285D01*
X120082438Y-80839285D02*
X120034819Y-80744047D01*
X120034819Y-80744047D02*
X120034819Y-80505952D01*
X120034819Y-80505952D02*
X120082438Y-80410714D01*
X120082438Y-80410714D02*
X120130057Y-80363095D01*
X120130057Y-80363095D02*
X120225295Y-80315476D01*
X120225295Y-80315476D02*
X120320533Y-80315476D01*
X120320533Y-80315476D02*
X120463390Y-80363095D01*
X120463390Y-80363095D02*
X121034819Y-80934523D01*
X121034819Y-80934523D02*
X121034819Y-80315476D01*
X121954819Y-61666666D02*
X121478628Y-61999999D01*
X121954819Y-62238094D02*
X120954819Y-62238094D01*
X120954819Y-62238094D02*
X120954819Y-61857142D01*
X120954819Y-61857142D02*
X121002438Y-61761904D01*
X121002438Y-61761904D02*
X121050057Y-61714285D01*
X121050057Y-61714285D02*
X121145295Y-61666666D01*
X121145295Y-61666666D02*
X121288152Y-61666666D01*
X121288152Y-61666666D02*
X121383390Y-61714285D01*
X121383390Y-61714285D02*
X121431009Y-61761904D01*
X121431009Y-61761904D02*
X121478628Y-61857142D01*
X121478628Y-61857142D02*
X121478628Y-62238094D01*
X121954819Y-61190475D02*
X121954819Y-60999999D01*
X121954819Y-60999999D02*
X121907200Y-60904761D01*
X121907200Y-60904761D02*
X121859580Y-60857142D01*
X121859580Y-60857142D02*
X121716723Y-60761904D01*
X121716723Y-60761904D02*
X121526247Y-60714285D01*
X121526247Y-60714285D02*
X121145295Y-60714285D01*
X121145295Y-60714285D02*
X121050057Y-60761904D01*
X121050057Y-60761904D02*
X121002438Y-60809523D01*
X121002438Y-60809523D02*
X120954819Y-60904761D01*
X120954819Y-60904761D02*
X120954819Y-61095237D01*
X120954819Y-61095237D02*
X121002438Y-61190475D01*
X121002438Y-61190475D02*
X121050057Y-61238094D01*
X121050057Y-61238094D02*
X121145295Y-61285713D01*
X121145295Y-61285713D02*
X121383390Y-61285713D01*
X121383390Y-61285713D02*
X121478628Y-61238094D01*
X121478628Y-61238094D02*
X121526247Y-61190475D01*
X121526247Y-61190475D02*
X121573866Y-61095237D01*
X121573866Y-61095237D02*
X121573866Y-60904761D01*
X121573866Y-60904761D02*
X121526247Y-60809523D01*
X121526247Y-60809523D02*
X121478628Y-60761904D01*
X121478628Y-60761904D02*
X121383390Y-60714285D01*
X142938095Y-61154819D02*
X142938095Y-60154819D01*
X142938095Y-60631009D02*
X143509523Y-60631009D01*
X143509523Y-61154819D02*
X143509523Y-60154819D01*
X143938095Y-60250057D02*
X143985714Y-60202438D01*
X143985714Y-60202438D02*
X144080952Y-60154819D01*
X144080952Y-60154819D02*
X144319047Y-60154819D01*
X144319047Y-60154819D02*
X144414285Y-60202438D01*
X144414285Y-60202438D02*
X144461904Y-60250057D01*
X144461904Y-60250057D02*
X144509523Y-60345295D01*
X144509523Y-60345295D02*
X144509523Y-60440533D01*
X144509523Y-60440533D02*
X144461904Y-60583390D01*
X144461904Y-60583390D02*
X143890476Y-61154819D01*
X143890476Y-61154819D02*
X144509523Y-61154819D01*
X71254819Y-71166666D02*
X70778628Y-71499999D01*
X71254819Y-71738094D02*
X70254819Y-71738094D01*
X70254819Y-71738094D02*
X70254819Y-71357142D01*
X70254819Y-71357142D02*
X70302438Y-71261904D01*
X70302438Y-71261904D02*
X70350057Y-71214285D01*
X70350057Y-71214285D02*
X70445295Y-71166666D01*
X70445295Y-71166666D02*
X70588152Y-71166666D01*
X70588152Y-71166666D02*
X70683390Y-71214285D01*
X70683390Y-71214285D02*
X70731009Y-71261904D01*
X70731009Y-71261904D02*
X70778628Y-71357142D01*
X70778628Y-71357142D02*
X70778628Y-71738094D01*
X70254819Y-70309523D02*
X70254819Y-70499999D01*
X70254819Y-70499999D02*
X70302438Y-70595237D01*
X70302438Y-70595237D02*
X70350057Y-70642856D01*
X70350057Y-70642856D02*
X70492914Y-70738094D01*
X70492914Y-70738094D02*
X70683390Y-70785713D01*
X70683390Y-70785713D02*
X71064342Y-70785713D01*
X71064342Y-70785713D02*
X71159580Y-70738094D01*
X71159580Y-70738094D02*
X71207200Y-70690475D01*
X71207200Y-70690475D02*
X71254819Y-70595237D01*
X71254819Y-70595237D02*
X71254819Y-70404761D01*
X71254819Y-70404761D02*
X71207200Y-70309523D01*
X71207200Y-70309523D02*
X71159580Y-70261904D01*
X71159580Y-70261904D02*
X71064342Y-70214285D01*
X71064342Y-70214285D02*
X70826247Y-70214285D01*
X70826247Y-70214285D02*
X70731009Y-70261904D01*
X70731009Y-70261904D02*
X70683390Y-70309523D01*
X70683390Y-70309523D02*
X70635771Y-70404761D01*
X70635771Y-70404761D02*
X70635771Y-70595237D01*
X70635771Y-70595237D02*
X70683390Y-70690475D01*
X70683390Y-70690475D02*
X70731009Y-70738094D01*
X70731009Y-70738094D02*
X70826247Y-70785713D01*
X106461905Y-59954819D02*
X106461905Y-58954819D01*
X106461905Y-58954819D02*
X106700000Y-58954819D01*
X106700000Y-58954819D02*
X106842857Y-59002438D01*
X106842857Y-59002438D02*
X106938095Y-59097676D01*
X106938095Y-59097676D02*
X106985714Y-59192914D01*
X106985714Y-59192914D02*
X107033333Y-59383390D01*
X107033333Y-59383390D02*
X107033333Y-59526247D01*
X107033333Y-59526247D02*
X106985714Y-59716723D01*
X106985714Y-59716723D02*
X106938095Y-59811961D01*
X106938095Y-59811961D02*
X106842857Y-59907200D01*
X106842857Y-59907200D02*
X106700000Y-59954819D01*
X106700000Y-59954819D02*
X106461905Y-59954819D01*
X107890476Y-58954819D02*
X107700000Y-58954819D01*
X107700000Y-58954819D02*
X107604762Y-59002438D01*
X107604762Y-59002438D02*
X107557143Y-59050057D01*
X107557143Y-59050057D02*
X107461905Y-59192914D01*
X107461905Y-59192914D02*
X107414286Y-59383390D01*
X107414286Y-59383390D02*
X107414286Y-59764342D01*
X107414286Y-59764342D02*
X107461905Y-59859580D01*
X107461905Y-59859580D02*
X107509524Y-59907200D01*
X107509524Y-59907200D02*
X107604762Y-59954819D01*
X107604762Y-59954819D02*
X107795238Y-59954819D01*
X107795238Y-59954819D02*
X107890476Y-59907200D01*
X107890476Y-59907200D02*
X107938095Y-59859580D01*
X107938095Y-59859580D02*
X107985714Y-59764342D01*
X107985714Y-59764342D02*
X107985714Y-59526247D01*
X107985714Y-59526247D02*
X107938095Y-59431009D01*
X107938095Y-59431009D02*
X107890476Y-59383390D01*
X107890476Y-59383390D02*
X107795238Y-59335771D01*
X107795238Y-59335771D02*
X107604762Y-59335771D01*
X107604762Y-59335771D02*
X107509524Y-59383390D01*
X107509524Y-59383390D02*
X107461905Y-59431009D01*
X107461905Y-59431009D02*
X107414286Y-59526247D01*
X91408333Y-83179580D02*
X91360714Y-83227200D01*
X91360714Y-83227200D02*
X91217857Y-83274819D01*
X91217857Y-83274819D02*
X91122619Y-83274819D01*
X91122619Y-83274819D02*
X90979762Y-83227200D01*
X90979762Y-83227200D02*
X90884524Y-83131961D01*
X90884524Y-83131961D02*
X90836905Y-83036723D01*
X90836905Y-83036723D02*
X90789286Y-82846247D01*
X90789286Y-82846247D02*
X90789286Y-82703390D01*
X90789286Y-82703390D02*
X90836905Y-82512914D01*
X90836905Y-82512914D02*
X90884524Y-82417676D01*
X90884524Y-82417676D02*
X90979762Y-82322438D01*
X90979762Y-82322438D02*
X91122619Y-82274819D01*
X91122619Y-82274819D02*
X91217857Y-82274819D01*
X91217857Y-82274819D02*
X91360714Y-82322438D01*
X91360714Y-82322438D02*
X91408333Y-82370057D01*
X91789286Y-82370057D02*
X91836905Y-82322438D01*
X91836905Y-82322438D02*
X91932143Y-82274819D01*
X91932143Y-82274819D02*
X92170238Y-82274819D01*
X92170238Y-82274819D02*
X92265476Y-82322438D01*
X92265476Y-82322438D02*
X92313095Y-82370057D01*
X92313095Y-82370057D02*
X92360714Y-82465295D01*
X92360714Y-82465295D02*
X92360714Y-82560533D01*
X92360714Y-82560533D02*
X92313095Y-82703390D01*
X92313095Y-82703390D02*
X91741667Y-83274819D01*
X91741667Y-83274819D02*
X92360714Y-83274819D01*
X71654819Y-67838094D02*
X70654819Y-67838094D01*
X70654819Y-67838094D02*
X70654819Y-67599999D01*
X70654819Y-67599999D02*
X70702438Y-67457142D01*
X70702438Y-67457142D02*
X70797676Y-67361904D01*
X70797676Y-67361904D02*
X70892914Y-67314285D01*
X70892914Y-67314285D02*
X71083390Y-67266666D01*
X71083390Y-67266666D02*
X71226247Y-67266666D01*
X71226247Y-67266666D02*
X71416723Y-67314285D01*
X71416723Y-67314285D02*
X71511961Y-67361904D01*
X71511961Y-67361904D02*
X71607200Y-67457142D01*
X71607200Y-67457142D02*
X71654819Y-67599999D01*
X71654819Y-67599999D02*
X71654819Y-67838094D01*
X70988152Y-66409523D02*
X71654819Y-66409523D01*
X70607200Y-66647618D02*
X71321485Y-66885713D01*
X71321485Y-66885713D02*
X71321485Y-66266666D01*
X141434260Y-84057278D02*
X141577391Y-84104988D01*
X141577391Y-84104988D02*
X141815944Y-84104988D01*
X141815944Y-84104988D02*
X141911365Y-84057278D01*
X141911365Y-84057278D02*
X141959075Y-84009567D01*
X141959075Y-84009567D02*
X142006786Y-83914146D01*
X142006786Y-83914146D02*
X142006786Y-83818725D01*
X142006786Y-83818725D02*
X141959075Y-83723304D01*
X141959075Y-83723304D02*
X141911365Y-83675593D01*
X141911365Y-83675593D02*
X141815944Y-83627883D01*
X141815944Y-83627883D02*
X141625102Y-83580172D01*
X141625102Y-83580172D02*
X141529681Y-83532462D01*
X141529681Y-83532462D02*
X141481970Y-83484751D01*
X141481970Y-83484751D02*
X141434260Y-83389330D01*
X141434260Y-83389330D02*
X141434260Y-83293909D01*
X141434260Y-83293909D02*
X141481970Y-83198488D01*
X141481970Y-83198488D02*
X141529681Y-83150778D01*
X141529681Y-83150778D02*
X141625102Y-83103067D01*
X141625102Y-83103067D02*
X141863654Y-83103067D01*
X141863654Y-83103067D02*
X142006786Y-83150778D01*
X142340759Y-83103067D02*
X142579312Y-84104988D01*
X142579312Y-84104988D02*
X142770154Y-83389330D01*
X142770154Y-83389330D02*
X142960996Y-84104988D01*
X142960996Y-84104988D02*
X143199549Y-83103067D01*
X144106049Y-84104988D02*
X143533523Y-84104988D01*
X143819786Y-84104988D02*
X143819786Y-83103067D01*
X143819786Y-83103067D02*
X143724365Y-83246199D01*
X143724365Y-83246199D02*
X143628944Y-83341620D01*
X143628944Y-83341620D02*
X143533523Y-83389330D01*
X81520476Y-84354819D02*
X81520476Y-85069104D01*
X81520476Y-85069104D02*
X81472857Y-85211961D01*
X81472857Y-85211961D02*
X81377619Y-85307200D01*
X81377619Y-85307200D02*
X81234762Y-85354819D01*
X81234762Y-85354819D02*
X81139524Y-85354819D01*
X82520476Y-85354819D02*
X81949048Y-85354819D01*
X82234762Y-85354819D02*
X82234762Y-84354819D01*
X82234762Y-84354819D02*
X82139524Y-84497676D01*
X82139524Y-84497676D02*
X82044286Y-84592914D01*
X82044286Y-84592914D02*
X81949048Y-84640533D01*
X82901429Y-84450057D02*
X82949048Y-84402438D01*
X82949048Y-84402438D02*
X83044286Y-84354819D01*
X83044286Y-84354819D02*
X83282381Y-84354819D01*
X83282381Y-84354819D02*
X83377619Y-84402438D01*
X83377619Y-84402438D02*
X83425238Y-84450057D01*
X83425238Y-84450057D02*
X83472857Y-84545295D01*
X83472857Y-84545295D02*
X83472857Y-84640533D01*
X83472857Y-84640533D02*
X83425238Y-84783390D01*
X83425238Y-84783390D02*
X82853810Y-85354819D01*
X82853810Y-85354819D02*
X83472857Y-85354819D01*
X112454819Y-61666666D02*
X111978628Y-61999999D01*
X112454819Y-62238094D02*
X111454819Y-62238094D01*
X111454819Y-62238094D02*
X111454819Y-61857142D01*
X111454819Y-61857142D02*
X111502438Y-61761904D01*
X111502438Y-61761904D02*
X111550057Y-61714285D01*
X111550057Y-61714285D02*
X111645295Y-61666666D01*
X111645295Y-61666666D02*
X111788152Y-61666666D01*
X111788152Y-61666666D02*
X111883390Y-61714285D01*
X111883390Y-61714285D02*
X111931009Y-61761904D01*
X111931009Y-61761904D02*
X111978628Y-61857142D01*
X111978628Y-61857142D02*
X111978628Y-62238094D01*
X111883390Y-61095237D02*
X111835771Y-61190475D01*
X111835771Y-61190475D02*
X111788152Y-61238094D01*
X111788152Y-61238094D02*
X111692914Y-61285713D01*
X111692914Y-61285713D02*
X111645295Y-61285713D01*
X111645295Y-61285713D02*
X111550057Y-61238094D01*
X111550057Y-61238094D02*
X111502438Y-61190475D01*
X111502438Y-61190475D02*
X111454819Y-61095237D01*
X111454819Y-61095237D02*
X111454819Y-60904761D01*
X111454819Y-60904761D02*
X111502438Y-60809523D01*
X111502438Y-60809523D02*
X111550057Y-60761904D01*
X111550057Y-60761904D02*
X111645295Y-60714285D01*
X111645295Y-60714285D02*
X111692914Y-60714285D01*
X111692914Y-60714285D02*
X111788152Y-60761904D01*
X111788152Y-60761904D02*
X111835771Y-60809523D01*
X111835771Y-60809523D02*
X111883390Y-60904761D01*
X111883390Y-60904761D02*
X111883390Y-61095237D01*
X111883390Y-61095237D02*
X111931009Y-61190475D01*
X111931009Y-61190475D02*
X111978628Y-61238094D01*
X111978628Y-61238094D02*
X112073866Y-61285713D01*
X112073866Y-61285713D02*
X112264342Y-61285713D01*
X112264342Y-61285713D02*
X112359580Y-61238094D01*
X112359580Y-61238094D02*
X112407200Y-61190475D01*
X112407200Y-61190475D02*
X112454819Y-61095237D01*
X112454819Y-61095237D02*
X112454819Y-60904761D01*
X112454819Y-60904761D02*
X112407200Y-60809523D01*
X112407200Y-60809523D02*
X112359580Y-60761904D01*
X112359580Y-60761904D02*
X112264342Y-60714285D01*
X112264342Y-60714285D02*
X112073866Y-60714285D01*
X112073866Y-60714285D02*
X111978628Y-60761904D01*
X111978628Y-60761904D02*
X111931009Y-60809523D01*
X111931009Y-60809523D02*
X111883390Y-60904761D01*
X140057142Y-66142319D02*
X139723809Y-65666128D01*
X139485714Y-66142319D02*
X139485714Y-65142319D01*
X139485714Y-65142319D02*
X139866666Y-65142319D01*
X139866666Y-65142319D02*
X139961904Y-65189938D01*
X139961904Y-65189938D02*
X140009523Y-65237557D01*
X140009523Y-65237557D02*
X140057142Y-65332795D01*
X140057142Y-65332795D02*
X140057142Y-65475652D01*
X140057142Y-65475652D02*
X140009523Y-65570890D01*
X140009523Y-65570890D02*
X139961904Y-65618509D01*
X139961904Y-65618509D02*
X139866666Y-65666128D01*
X139866666Y-65666128D02*
X139485714Y-65666128D01*
X141009523Y-66142319D02*
X140438095Y-66142319D01*
X140723809Y-66142319D02*
X140723809Y-65142319D01*
X140723809Y-65142319D02*
X140628571Y-65285176D01*
X140628571Y-65285176D02*
X140533333Y-65380414D01*
X140533333Y-65380414D02*
X140438095Y-65428033D01*
X141628571Y-65142319D02*
X141723809Y-65142319D01*
X141723809Y-65142319D02*
X141819047Y-65189938D01*
X141819047Y-65189938D02*
X141866666Y-65237557D01*
X141866666Y-65237557D02*
X141914285Y-65332795D01*
X141914285Y-65332795D02*
X141961904Y-65523271D01*
X141961904Y-65523271D02*
X141961904Y-65761366D01*
X141961904Y-65761366D02*
X141914285Y-65951842D01*
X141914285Y-65951842D02*
X141866666Y-66047080D01*
X141866666Y-66047080D02*
X141819047Y-66094700D01*
X141819047Y-66094700D02*
X141723809Y-66142319D01*
X141723809Y-66142319D02*
X141628571Y-66142319D01*
X141628571Y-66142319D02*
X141533333Y-66094700D01*
X141533333Y-66094700D02*
X141485714Y-66047080D01*
X141485714Y-66047080D02*
X141438095Y-65951842D01*
X141438095Y-65951842D02*
X141390476Y-65761366D01*
X141390476Y-65761366D02*
X141390476Y-65523271D01*
X141390476Y-65523271D02*
X141438095Y-65332795D01*
X141438095Y-65332795D02*
X141485714Y-65237557D01*
X141485714Y-65237557D02*
X141533333Y-65189938D01*
X141533333Y-65189938D02*
X141628571Y-65142319D01*
X71638095Y-61154819D02*
X71638095Y-60154819D01*
X71638095Y-60631009D02*
X72209523Y-60631009D01*
X72209523Y-61154819D02*
X72209523Y-60154819D01*
X73209523Y-61154819D02*
X72638095Y-61154819D01*
X72923809Y-61154819D02*
X72923809Y-60154819D01*
X72923809Y-60154819D02*
X72828571Y-60297676D01*
X72828571Y-60297676D02*
X72733333Y-60392914D01*
X72733333Y-60392914D02*
X72638095Y-60440533D01*
X125461905Y-59954819D02*
X125461905Y-58954819D01*
X125461905Y-58954819D02*
X125700000Y-58954819D01*
X125700000Y-58954819D02*
X125842857Y-59002438D01*
X125842857Y-59002438D02*
X125938095Y-59097676D01*
X125938095Y-59097676D02*
X125985714Y-59192914D01*
X125985714Y-59192914D02*
X126033333Y-59383390D01*
X126033333Y-59383390D02*
X126033333Y-59526247D01*
X126033333Y-59526247D02*
X125985714Y-59716723D01*
X125985714Y-59716723D02*
X125938095Y-59811961D01*
X125938095Y-59811961D02*
X125842857Y-59907200D01*
X125842857Y-59907200D02*
X125700000Y-59954819D01*
X125700000Y-59954819D02*
X125461905Y-59954819D01*
X126366667Y-58954819D02*
X126985714Y-58954819D01*
X126985714Y-58954819D02*
X126652381Y-59335771D01*
X126652381Y-59335771D02*
X126795238Y-59335771D01*
X126795238Y-59335771D02*
X126890476Y-59383390D01*
X126890476Y-59383390D02*
X126938095Y-59431009D01*
X126938095Y-59431009D02*
X126985714Y-59526247D01*
X126985714Y-59526247D02*
X126985714Y-59764342D01*
X126985714Y-59764342D02*
X126938095Y-59859580D01*
X126938095Y-59859580D02*
X126890476Y-59907200D01*
X126890476Y-59907200D02*
X126795238Y-59954819D01*
X126795238Y-59954819D02*
X126509524Y-59954819D01*
X126509524Y-59954819D02*
X126414286Y-59907200D01*
X126414286Y-59907200D02*
X126366667Y-59859580D01*
X116126666Y-69454819D02*
X116126666Y-70169104D01*
X116126666Y-70169104D02*
X116079047Y-70311961D01*
X116079047Y-70311961D02*
X115983809Y-70407200D01*
X115983809Y-70407200D02*
X115840952Y-70454819D01*
X115840952Y-70454819D02*
X115745714Y-70454819D01*
X117031428Y-69788152D02*
X117031428Y-70454819D01*
X116793333Y-69407200D02*
X116555238Y-70121485D01*
X116555238Y-70121485D02*
X117174285Y-70121485D01*
D13*
%TO.C,R7*%
X100477500Y-61737258D02*
X100477500Y-61262742D01*
X101522500Y-61737258D02*
X101522500Y-61262742D01*
%TO.C,J5*%
X131497500Y-63425000D02*
X138237500Y-63425000D01*
X131497500Y-71785000D02*
X131497500Y-63425000D01*
X131497500Y-71785000D02*
X138237500Y-71785000D01*
X133217500Y-71785000D02*
X133217500Y-63425000D01*
X136317500Y-71785000D02*
X136317500Y-63425000D01*
X137317500Y-71785000D02*
X137317500Y-63425000D01*
X138237500Y-69845000D02*
X138237500Y-63425000D01*
X138237500Y-71785000D02*
X138237500Y-70445000D01*
X138847500Y-70585000D02*
X138237500Y-70145000D01*
X138847500Y-69705000D01*
X138847500Y-70585000D01*
G36*
X138847500Y-70585000D02*
G01*
X138237500Y-70145000D01*
X138847500Y-69705000D01*
X138847500Y-70585000D01*
G37*
%TO.C,R2*%
X110837742Y-77977500D02*
X111312258Y-77977500D01*
X110837742Y-79022500D02*
X111312258Y-79022500D01*
%TO.C,J6*%
X83780000Y-70720000D02*
X83780000Y-63980000D01*
X90200000Y-63980000D02*
X83780000Y-63980000D01*
X92140000Y-63980000D02*
X90800000Y-63980000D01*
X92140000Y-64900000D02*
X83780000Y-64900000D01*
X92140000Y-65900000D02*
X83780000Y-65900000D01*
X92140000Y-69000000D02*
X83780000Y-69000000D01*
X92140000Y-70720000D02*
X83780000Y-70720000D01*
X92140000Y-70720000D02*
X92140000Y-63980000D01*
X90500000Y-63980000D02*
X90060000Y-63370000D01*
X90940000Y-63370000D01*
X90500000Y-63980000D01*
G36*
X90500000Y-63980000D02*
G01*
X90060000Y-63370000D01*
X90940000Y-63370000D01*
X90500000Y-63980000D01*
G37*
%TO.C,SW3*%
X78850000Y-75450000D02*
X78850000Y-79950000D01*
X81350000Y-81200000D02*
X82850000Y-81200000D01*
X82850000Y-74200000D02*
X81350000Y-74200000D01*
X85350000Y-79950000D02*
X85350000Y-75450000D01*
%TO.C,J13*%
X130860000Y-84197500D02*
X130860000Y-90937500D01*
X130860000Y-84197500D02*
X136680000Y-84197500D01*
X130860000Y-85917500D02*
X136680000Y-85917500D01*
X130860000Y-89017500D02*
X136680000Y-89017500D01*
X130860000Y-90017500D02*
X136680000Y-90017500D01*
X130860000Y-90937500D02*
X132200000Y-90937500D01*
X132800000Y-90937500D02*
X136680000Y-90937500D01*
X136680000Y-84197500D02*
X136680000Y-90937500D01*
X132940000Y-91547500D02*
X132060000Y-91547500D01*
X132500000Y-90937500D01*
X132940000Y-91547500D01*
G36*
X132940000Y-91547500D02*
G01*
X132060000Y-91547500D01*
X132500000Y-90937500D01*
X132940000Y-91547500D01*
G37*
%TO.C,D2*%
X86727500Y-60265000D02*
X86727500Y-61735000D01*
X86727500Y-61735000D02*
X89012500Y-61735000D01*
X89012500Y-60265000D02*
X86727500Y-60265000D01*
%TO.C,J9*%
X137660000Y-83380000D02*
X137660000Y-90120000D01*
X137660000Y-83380000D02*
X146020000Y-83380000D01*
X137660000Y-85100000D02*
X146020000Y-85100000D01*
X137660000Y-88200000D02*
X146020000Y-88200000D01*
X137660000Y-89200000D02*
X146020000Y-89200000D01*
X137660000Y-90120000D02*
X139000000Y-90120000D01*
X139600000Y-90120000D02*
X146020000Y-90120000D01*
X146020000Y-83380000D02*
X146020000Y-90120000D01*
X139740000Y-90730000D02*
X138860000Y-90730000D01*
X139300000Y-90120000D01*
X139740000Y-90730000D01*
G36*
X139740000Y-90730000D02*
G01*
X138860000Y-90730000D01*
X139300000Y-90120000D01*
X139740000Y-90730000D01*
G37*
%TO.C,A1*%
X83810000Y-77180000D02*
X94230000Y-77180000D01*
X83810000Y-85060000D02*
X83810000Y-77180000D01*
X86350000Y-72100000D02*
X86350000Y-77180000D01*
X86350000Y-90140000D02*
X86350000Y-85060000D01*
X86350000Y-90140000D02*
X129790000Y-90140000D01*
X89020000Y-74770000D02*
X89020000Y-72100000D01*
X89020000Y-87470000D02*
X89020000Y-90140000D01*
X94230000Y-77180000D02*
X94230000Y-85060000D01*
X94230000Y-85060000D02*
X83810000Y-85060000D01*
X124580000Y-72100000D02*
X86350000Y-72100000D01*
X124580000Y-74770000D02*
X89020000Y-74770000D01*
X124580000Y-74770000D02*
X124580000Y-72100000D01*
X124580000Y-74770000D02*
X127120000Y-74770000D01*
X127120000Y-74770000D02*
X127120000Y-72100000D01*
X127120000Y-87470000D02*
X89020000Y-87470000D01*
X127120000Y-87470000D02*
X127120000Y-90140000D01*
X129790000Y-72100000D02*
X127120000Y-72100000D01*
X129790000Y-90140000D02*
X129790000Y-72100000D01*
%TO.C,J3*%
X102780000Y-70720000D02*
X102780000Y-63980000D01*
X109200000Y-63980000D02*
X102780000Y-63980000D01*
X111140000Y-63980000D02*
X109800000Y-63980000D01*
X111140000Y-64900000D02*
X102780000Y-64900000D01*
X111140000Y-65900000D02*
X102780000Y-65900000D01*
X111140000Y-69000000D02*
X102780000Y-69000000D01*
X111140000Y-70720000D02*
X102780000Y-70720000D01*
X111140000Y-70720000D02*
X111140000Y-63980000D01*
X109500000Y-63980000D02*
X109060000Y-63370000D01*
X109940000Y-63370000D01*
X109500000Y-63980000D01*
G36*
X109500000Y-63980000D02*
G01*
X109060000Y-63370000D01*
X109940000Y-63370000D01*
X109500000Y-63980000D01*
G37*
%TO.C,R5*%
X128977500Y-61762258D02*
X128977500Y-61287742D01*
X130022500Y-61762258D02*
X130022500Y-61287742D01*
%TO.C,C3*%
X111215580Y-83490000D02*
X110934420Y-83490000D01*
X111215580Y-84510000D02*
X110934420Y-84510000D01*
%TO.C,R1*%
X91337742Y-77977500D02*
X91812258Y-77977500D01*
X91337742Y-79022500D02*
X91812258Y-79022500D01*
%TO.C,J8*%
X70080000Y-83497500D02*
X70080000Y-90237500D01*
X70080000Y-83497500D02*
X78440000Y-83497500D01*
X70080000Y-85217500D02*
X78440000Y-85217500D01*
X70080000Y-88317500D02*
X78440000Y-88317500D01*
X70080000Y-89317500D02*
X78440000Y-89317500D01*
X70080000Y-90237500D02*
X71420000Y-90237500D01*
X72020000Y-90237500D02*
X78440000Y-90237500D01*
X78440000Y-83497500D02*
X78440000Y-90237500D01*
X72160000Y-90847500D02*
X71280000Y-90847500D01*
X71720000Y-90237500D01*
X72160000Y-90847500D01*
G36*
X72160000Y-90847500D02*
G01*
X71280000Y-90847500D01*
X71720000Y-90237500D01*
X72160000Y-90847500D01*
G37*
%TO.C,D5*%
X96227500Y-60265000D02*
X96227500Y-61735000D01*
X96227500Y-61735000D02*
X98512500Y-61735000D01*
X98512500Y-60265000D02*
X96227500Y-60265000D01*
%TO.C,SW2*%
X70140000Y-72660000D02*
X70140000Y-82560000D01*
X73195000Y-76933333D02*
X71925000Y-76933333D01*
X75735000Y-76933333D02*
X74465000Y-76933333D01*
X77520000Y-72660000D02*
X70140000Y-72660000D01*
X77520000Y-72660000D02*
X77520000Y-82560000D01*
X77520000Y-82560000D02*
X70140000Y-82560000D01*
X77760000Y-72420000D02*
X76377000Y-72420000D01*
X77760000Y-72420000D02*
X77760000Y-73803000D01*
X73195000Y-75580000D02*
X71925000Y-75580000D01*
X71925000Y-76933333D01*
X73195000Y-76933333D01*
X73195000Y-75580000D01*
G36*
X73195000Y-75580000D02*
G01*
X71925000Y-75580000D01*
X71925000Y-76933333D01*
X73195000Y-76933333D01*
X73195000Y-75580000D01*
G37*
X73195000Y-75580000D02*
X71925000Y-75580000D01*
X71925000Y-79640000D01*
X73195000Y-79640000D01*
X73195000Y-75580000D01*
X75735000Y-75580000D02*
X74465000Y-75580000D01*
X74465000Y-76933333D01*
X75735000Y-76933333D01*
X75735000Y-75580000D01*
G36*
X75735000Y-75580000D02*
G01*
X74465000Y-75580000D01*
X74465000Y-76933333D01*
X75735000Y-76933333D01*
X75735000Y-75580000D01*
G37*
X75735000Y-75580000D02*
X74465000Y-75580000D01*
X74465000Y-79640000D01*
X75735000Y-79640000D01*
X75735000Y-75580000D01*
%TO.C,D8*%
X140465000Y-67000000D02*
X140465000Y-69285000D01*
X140465000Y-69285000D02*
X141935000Y-69285000D01*
X141935000Y-69285000D02*
X141935000Y-67000000D01*
D14*
%TO.C,U1*%
X94420000Y-79250000D02*
X94420000Y-83150000D01*
X99470000Y-79250000D02*
X99470000Y-83150000D01*
D11*
X98950000Y-77130000D02*
G75*
G02*
X98750000Y-77130000I-100000J0D01*
G01*
X98750000Y-77130000D02*
G75*
G02*
X98950000Y-77130000I100000J0D01*
G01*
D13*
%TO.C,J1*%
X75680000Y-63360000D02*
X75680000Y-64700000D01*
X75680000Y-65300000D02*
X75680000Y-71720000D01*
X76600000Y-63360000D02*
X76600000Y-71720000D01*
X77600000Y-63360000D02*
X77600000Y-71720000D01*
X80700000Y-63360000D02*
X80700000Y-71720000D01*
X82420000Y-63360000D02*
X75680000Y-63360000D01*
X82420000Y-63360000D02*
X82420000Y-71720000D01*
X82420000Y-71720000D02*
X75680000Y-71720000D01*
X75680000Y-65000000D02*
X75070000Y-65440000D01*
X75070000Y-64560000D01*
X75680000Y-65000000D01*
G36*
X75680000Y-65000000D02*
G01*
X75070000Y-65440000D01*
X75070000Y-64560000D01*
X75680000Y-65000000D01*
G37*
%TO.C,C4*%
X111215580Y-80990000D02*
X110934420Y-80990000D01*
X111215580Y-82010000D02*
X110934420Y-82010000D01*
%TO.C,J2*%
X93280000Y-70720000D02*
X93280000Y-63980000D01*
X99700000Y-63980000D02*
X93280000Y-63980000D01*
X101640000Y-63980000D02*
X100300000Y-63980000D01*
X101640000Y-64900000D02*
X93280000Y-64900000D01*
X101640000Y-65900000D02*
X93280000Y-65900000D01*
X101640000Y-69000000D02*
X93280000Y-69000000D01*
X101640000Y-70720000D02*
X93280000Y-70720000D01*
X101640000Y-70720000D02*
X101640000Y-63980000D01*
X100000000Y-63980000D02*
X99560000Y-63370000D01*
X100440000Y-63370000D01*
X100000000Y-63980000D01*
G36*
X100000000Y-63980000D02*
G01*
X99560000Y-63370000D01*
X100440000Y-63370000D01*
X100000000Y-63980000D01*
G37*
%TO.C,J10*%
X131240000Y-58520000D02*
X131240000Y-61280000D01*
X136430000Y-58520000D02*
X131240000Y-58520000D01*
X136430000Y-58520000D02*
X136430000Y-61280000D01*
X136430000Y-61280000D02*
X131240000Y-61280000D01*
X137700000Y-58520000D02*
X139080000Y-58520000D01*
X139080000Y-58520000D02*
X139080000Y-59900000D01*
%TO.C,J7*%
X121780000Y-70720000D02*
X121780000Y-63980000D01*
X128200000Y-63980000D02*
X121780000Y-63980000D01*
X130140000Y-63980000D02*
X128800000Y-63980000D01*
X130140000Y-64900000D02*
X121780000Y-64900000D01*
X130140000Y-65900000D02*
X121780000Y-65900000D01*
X130140000Y-69000000D02*
X121780000Y-69000000D01*
X130140000Y-70720000D02*
X121780000Y-70720000D01*
X130140000Y-70720000D02*
X130140000Y-63980000D01*
X128500000Y-63980000D02*
X128060000Y-63370000D01*
X128940000Y-63370000D01*
X128500000Y-63980000D01*
G36*
X128500000Y-63980000D02*
G01*
X128060000Y-63370000D01*
X128940000Y-63370000D01*
X128500000Y-63980000D01*
G37*
%TO.C,D7*%
X115227500Y-60265000D02*
X115227500Y-61735000D01*
X115227500Y-61735000D02*
X117512500Y-61735000D01*
X117512500Y-60265000D02*
X115227500Y-60265000D01*
%TO.C,R4*%
X90977500Y-61762258D02*
X90977500Y-61287742D01*
X92022500Y-61762258D02*
X92022500Y-61287742D01*
%TO.C,C1*%
X91715580Y-83390000D02*
X91434420Y-83390000D01*
X91715580Y-84410000D02*
X91434420Y-84410000D01*
%TO.C,J11*%
X131190000Y-72590000D02*
X136610000Y-72590000D01*
X131190000Y-81310000D02*
X131190000Y-72590000D01*
X132490000Y-83010000D02*
X131190000Y-81310000D01*
X132490000Y-83010000D02*
X135310000Y-83010000D01*
X135310000Y-83010000D02*
X136610000Y-81310000D01*
X136610000Y-81310000D02*
X136610000Y-72590000D01*
D14*
%TO.C,U2*%
X114420000Y-79250000D02*
X114420000Y-83150000D01*
X119470000Y-79250000D02*
X119470000Y-83150000D01*
D11*
X118950000Y-77130000D02*
G75*
G02*
X118750000Y-77130000I-100000J0D01*
G01*
X118750000Y-77130000D02*
G75*
G02*
X118950000Y-77130000I100000J0D01*
G01*
D13*
%TO.C,R9*%
X119477500Y-61762258D02*
X119477500Y-61287742D01*
X120522500Y-61762258D02*
X120522500Y-61287742D01*
%TO.C,R6*%
X73412258Y-70477500D02*
X72937742Y-70477500D01*
X73412258Y-71522500D02*
X72937742Y-71522500D01*
%TO.C,D6*%
X105727500Y-60265000D02*
X105727500Y-61735000D01*
X105727500Y-61735000D02*
X108012500Y-61735000D01*
X108012500Y-60265000D02*
X105727500Y-60265000D01*
%TO.C,C2*%
X91715580Y-80880000D02*
X91434420Y-80880000D01*
X91715580Y-81900000D02*
X91434420Y-81900000D01*
%TO.C,D4*%
X71965000Y-65902500D02*
X71965000Y-68187500D01*
X73435000Y-65902500D02*
X71965000Y-65902500D01*
X73435000Y-68187500D02*
X73435000Y-65902500D01*
D11*
%TO.C,SW1*%
X139244724Y-69850000D02*
X145844724Y-69850000D01*
X139244724Y-82550000D02*
X139244724Y-69850000D01*
X145844724Y-69850000D02*
X145844724Y-82550000D01*
X145844724Y-82550000D02*
X139244724Y-82550000D01*
D15*
X147205277Y-80600000D02*
G75*
G02*
X146484171Y-80600000I-360553J0D01*
G01*
X146484171Y-80600000D02*
G75*
G02*
X147205277Y-80600000I360553J0D01*
G01*
X147127565Y-80600000D02*
G75*
G02*
X146561883Y-80600000I-282841J0D01*
G01*
X146561883Y-80600000D02*
G75*
G02*
X147127565Y-80600000I282841J0D01*
G01*
X147068330Y-80600000D02*
G75*
G02*
X146621118Y-80600000I-223606J0D01*
G01*
X146621118Y-80600000D02*
G75*
G02*
X147068330Y-80600000I223606J0D01*
G01*
X147068330Y-80600000D02*
G75*
G02*
X146621118Y-80600000I-223606J0D01*
G01*
X146621118Y-80600000D02*
G75*
G02*
X147068330Y-80600000I223606J0D01*
G01*
X147068330Y-80600000D02*
G75*
G02*
X146621118Y-80600000I-223606J0D01*
G01*
X146621118Y-80600000D02*
G75*
G02*
X147068330Y-80600000I223606J0D01*
G01*
X146986143Y-80600000D02*
G75*
G02*
X146703305Y-80600000I-141419J0D01*
G01*
X146703305Y-80600000D02*
G75*
G02*
X146986143Y-80600000I141419J0D01*
G01*
D13*
%TO.C,J12*%
X79420000Y-84180000D02*
X79420000Y-90920000D01*
X79420000Y-84180000D02*
X85240000Y-84180000D01*
X79420000Y-85900000D02*
X85240000Y-85900000D01*
X79420000Y-89000000D02*
X85240000Y-89000000D01*
X79420000Y-90000000D02*
X85240000Y-90000000D01*
X79420000Y-90920000D02*
X80760000Y-90920000D01*
X81360000Y-90920000D02*
X85240000Y-90920000D01*
X85240000Y-84180000D02*
X85240000Y-90920000D01*
X81500000Y-91530000D02*
X80620000Y-91530000D01*
X81060000Y-90920000D01*
X81500000Y-91530000D01*
G36*
X81500000Y-91530000D02*
G01*
X80620000Y-91530000D01*
X81060000Y-90920000D01*
X81500000Y-91530000D01*
G37*
%TO.C,R8*%
X109977500Y-61737258D02*
X109977500Y-61262742D01*
X111022500Y-61737258D02*
X111022500Y-61262742D01*
%TO.C,R10*%
X140462742Y-63665000D02*
X140937258Y-63665000D01*
X140462742Y-64710000D02*
X140937258Y-64710000D01*
%TO.C,D3*%
X124727500Y-60265000D02*
X124727500Y-61735000D01*
X124727500Y-61735000D02*
X127012500Y-61735000D01*
X127012500Y-60265000D02*
X124727500Y-60265000D01*
%TO.C,J4*%
X112280000Y-70720000D02*
X112280000Y-63980000D01*
X118700000Y-63980000D02*
X112280000Y-63980000D01*
X120640000Y-63980000D02*
X119300000Y-63980000D01*
X120640000Y-64900000D02*
X112280000Y-64900000D01*
X120640000Y-65900000D02*
X112280000Y-65900000D01*
X120640000Y-69000000D02*
X112280000Y-69000000D01*
X120640000Y-70720000D02*
X112280000Y-70720000D01*
X120640000Y-70720000D02*
X120640000Y-63980000D01*
X119000000Y-63980000D02*
X118560000Y-63370000D01*
X119440000Y-63370000D01*
X119000000Y-63980000D01*
G36*
X119000000Y-63980000D02*
G01*
X118560000Y-63370000D01*
X119440000Y-63370000D01*
X119000000Y-63980000D01*
G37*
%TD*%
M02*
