%TF.GenerationSoftware,KiCad,Pcbnew,9.0.2*%
%TF.CreationDate,2025-10-02T19:22:39-04:00*%
%TF.ProjectId,Slippi,536c6970-7069-42e6-9b69-6361645f7063,rev?*%
%TF.SameCoordinates,Original*%
%TF.FileFunction,Copper,L1,Top*%
%TF.FilePolarity,Positive*%
%FSLAX46Y46*%
G04 Gerber Fmt 4.6, Leading zero omitted, Abs format (unit mm)*
G04 Created by KiCad (PCBNEW 9.0.2) date 2025-10-02 19:22:39*
%MOMM*%
%LPD*%
G01*
G04 APERTURE LIST*
G04 Aperture macros list*
%AMRoundRect*
0 Rectangle with rounded corners*
0 $1 Rounding radius*
0 $2 $3 $4 $5 $6 $7 $8 $9 X,Y pos of 4 corners*
0 Add a 4 corners polygon primitive as box body*
4,1,4,$2,$3,$4,$5,$6,$7,$8,$9,$2,$3,0*
0 Add four circle primitives for the rounded corners*
1,1,$1+$1,$2,$3*
1,1,$1+$1,$4,$5*
1,1,$1+$1,$6,$7*
1,1,$1+$1,$8,$9*
0 Add four rect primitives between the rounded corners*
20,1,$1+$1,$2,$3,$4,$5,0*
20,1,$1+$1,$4,$5,$6,$7,0*
20,1,$1+$1,$6,$7,$8,$9,0*
20,1,$1+$1,$8,$9,$2,$3,0*%
G04 Aperture macros list end*
%TA.AperFunction,SMDPad,CuDef*%
%ADD10RoundRect,0.200000X0.275000X-0.200000X0.275000X0.200000X-0.275000X0.200000X-0.275000X-0.200000X0*%
%TD*%
%TA.AperFunction,ComponentPad*%
%ADD11RoundRect,0.250000X0.750000X-0.750000X0.750000X0.750000X-0.750000X0.750000X-0.750000X-0.750000X0*%
%TD*%
%TA.AperFunction,ComponentPad*%
%ADD12C,2.000000*%
%TD*%
%TA.AperFunction,SMDPad,CuDef*%
%ADD13RoundRect,0.200000X-0.200000X-0.275000X0.200000X-0.275000X0.200000X0.275000X-0.200000X0.275000X0*%
%TD*%
%TA.AperFunction,ComponentPad*%
%ADD14RoundRect,0.250000X0.750000X0.750000X-0.750000X0.750000X-0.750000X-0.750000X0.750000X-0.750000X0*%
%TD*%
%TA.AperFunction,ComponentPad*%
%ADD15RoundRect,0.250000X-0.750000X-0.750000X0.750000X-0.750000X0.750000X0.750000X-0.750000X0.750000X0*%
%TD*%
%TA.AperFunction,SMDPad,CuDef*%
%ADD16RoundRect,0.218750X-0.218750X-0.256250X0.218750X-0.256250X0.218750X0.256250X-0.218750X0.256250X0*%
%TD*%
%TA.AperFunction,ComponentPad*%
%ADD17R,1.600000X1.600000*%
%TD*%
%TA.AperFunction,ComponentPad*%
%ADD18O,1.600000X1.600000*%
%TD*%
%TA.AperFunction,SMDPad,CuDef*%
%ADD19RoundRect,0.225000X0.225000X0.250000X-0.225000X0.250000X-0.225000X-0.250000X0.225000X-0.250000X0*%
%TD*%
%TA.AperFunction,ComponentPad*%
%ADD20RoundRect,0.250000X-0.550000X0.550000X-0.550000X-0.550000X0.550000X-0.550000X0.550000X0.550000X0*%
%TD*%
%TA.AperFunction,ComponentPad*%
%ADD21C,1.600000*%
%TD*%
%TA.AperFunction,SMDPad,CuDef*%
%ADD22RoundRect,0.218750X0.256250X-0.218750X0.256250X0.218750X-0.256250X0.218750X-0.256250X-0.218750X0*%
%TD*%
%TA.AperFunction,SMDPad,CuDef*%
%ADD23RoundRect,0.015000X-0.285000X0.760000X-0.285000X-0.760000X0.285000X-0.760000X0.285000X0.760000X0*%
%TD*%
%TA.AperFunction,SMDPad,CuDef*%
%ADD24R,4.900000X2.950000*%
%TD*%
%TA.AperFunction,ComponentPad*%
%ADD25RoundRect,0.250000X-0.750000X0.750000X-0.750000X-0.750000X0.750000X-0.750000X0.750000X0.750000X0*%
%TD*%
%TA.AperFunction,ComponentPad*%
%ADD26R,1.700000X1.700000*%
%TD*%
%TA.AperFunction,ComponentPad*%
%ADD27C,1.700000*%
%TD*%
%TA.AperFunction,ComponentPad*%
%ADD28RoundRect,0.750000X0.750000X-0.750000X0.750000X0.750000X-0.750000X0.750000X-0.750000X-0.750000X0*%
%TD*%
%TA.AperFunction,ComponentPad*%
%ADD29C,3.000000*%
%TD*%
%TA.AperFunction,SMDPad,CuDef*%
%ADD30RoundRect,0.200000X0.200000X0.275000X-0.200000X0.275000X-0.200000X-0.275000X0.200000X-0.275000X0*%
%TD*%
%TA.AperFunction,SMDPad,CuDef*%
%ADD31RoundRect,0.218750X-0.256250X0.218750X-0.256250X-0.218750X0.256250X-0.218750X0.256250X0.218750X0*%
%TD*%
%TA.AperFunction,ComponentPad*%
%ADD32R,2.450000X2.450000*%
%TD*%
%TA.AperFunction,ComponentPad*%
%ADD33C,2.450000*%
%TD*%
%TA.AperFunction,ComponentPad*%
%ADD34R,1.910000X1.910000*%
%TD*%
%TA.AperFunction,ComponentPad*%
%ADD35C,1.910000*%
%TD*%
%TA.AperFunction,ViaPad*%
%ADD36C,0.600000*%
%TD*%
%TA.AperFunction,Conductor*%
%ADD37C,0.200000*%
%TD*%
%TA.AperFunction,Conductor*%
%ADD38C,0.500000*%
%TD*%
G04 APERTURE END LIST*
D10*
%TO.P,R7,1*%
%TO.N,IR2*%
X101000000Y-62325000D03*
%TO.P,R7,2*%
%TO.N,Net-(D5-A)*%
X101000000Y-60675000D03*
%TD*%
D11*
%TO.P,J5,1,Pin_1*%
%TO.N,+5V*%
X134717500Y-70145000D03*
D12*
%TO.P,J5,2,Pin_2*%
%TO.N,GND*%
X134717500Y-67605000D03*
%TO.P,J5,3,Pin_3*%
%TO.N,IR5*%
X134717500Y-65065000D03*
%TD*%
D13*
%TO.P,R2,1*%
%TO.N,GND*%
X110250000Y-78500000D03*
%TO.P,R2,2*%
%TO.N,Net-(U2-ILIM)*%
X111900000Y-78500000D03*
%TD*%
D14*
%TO.P,J6,1,Pin_1*%
%TO.N,L1*%
X90500000Y-67500000D03*
D12*
%TO.P,J6,2,Pin_2*%
%TO.N,GND*%
X87960000Y-67500000D03*
%TO.P,J6,3,Pin_3*%
%TO.N,+5V*%
X85420000Y-67500000D03*
%TD*%
%TO.P,SW3,1,1*%
%TO.N,Push*%
X84350000Y-74450000D03*
X84350000Y-80950000D03*
%TO.P,SW3,2,2*%
%TO.N,GND*%
X79850000Y-74450000D03*
X79850000Y-80950000D03*
%TD*%
D15*
%TO.P,J13,1,Pin_1*%
%TO.N,O3*%
X132500000Y-87417500D03*
D12*
%TO.P,J13,2,Pin_2*%
%TO.N,O4*%
X135040000Y-87417500D03*
%TD*%
D16*
%TO.P,D2,1,K*%
%TO.N,GND*%
X87425000Y-61000000D03*
%TO.P,D2,2,A*%
%TO.N,Net-(D2-A)*%
X89000000Y-61000000D03*
%TD*%
D15*
%TO.P,J9,1,Pin_1*%
%TO.N,SV2*%
X139300000Y-86600000D03*
D12*
%TO.P,J9,2,Pin_2*%
%TO.N,GND*%
X141840000Y-86600000D03*
%TO.P,J9,3,Pin_3*%
%TO.N,+5V*%
X144380000Y-86600000D03*
%TD*%
D17*
%TO.P,A1,1,D1/TX*%
%TO.N,IR5*%
X125850000Y-73500000D03*
D18*
%TO.P,A1,2,D0/RX*%
%TO.N,Start*%
X123310000Y-73500000D03*
%TO.P,A1,3,~{RESET}*%
%TO.N,unconnected-(A1-~{RESET}-Pad3)*%
X120770000Y-73500000D03*
%TO.P,A1,4,GND*%
%TO.N,GND*%
X118230000Y-73500000D03*
%TO.P,A1,5,D2*%
%TO.N,IR4*%
X115690000Y-73500000D03*
%TO.P,A1,6,D3*%
%TO.N,SV2*%
X113150000Y-73500000D03*
%TO.P,A1,7,D4*%
%TO.N,IR3*%
X110610000Y-73500000D03*
%TO.P,A1,8,D5*%
%TO.N,S4*%
X108070000Y-73500000D03*
%TO.P,A1,9,D6*%
%TO.N,S3*%
X105530000Y-73500000D03*
%TO.P,A1,10,D7*%
%TO.N,IR2*%
X102990000Y-73500000D03*
%TO.P,A1,11,D8*%
%TO.N,Push*%
X100450000Y-73500000D03*
%TO.P,A1,12,D9*%
%TO.N,S2*%
X97910000Y-73500000D03*
%TO.P,A1,13,D10*%
%TO.N,S1*%
X95370000Y-73500000D03*
%TO.P,A1,14,D11*%
%TO.N,SV1*%
X92830000Y-73500000D03*
%TO.P,A1,15,D12*%
%TO.N,IR1*%
X90290000Y-73500000D03*
%TO.P,A1,16,D13*%
%TO.N,unconnected-(A1-D13-Pad16)*%
X90290000Y-88740000D03*
%TO.P,A1,17,3V3*%
%TO.N,unconnected-(A1-3V3-Pad17)*%
X92830000Y-88740000D03*
%TO.P,A1,18,AREF*%
%TO.N,unconnected-(A1-AREF-Pad18)*%
X95370000Y-88740000D03*
%TO.P,A1,19,A0*%
%TO.N,unconnected-(A1-A0-Pad19)*%
X97910000Y-88740000D03*
%TO.P,A1,20,A1*%
%TO.N,L1*%
X100450000Y-88740000D03*
%TO.P,A1,21,A2*%
%TO.N,SW2*%
X102990000Y-88740000D03*
%TO.P,A1,22,A3*%
%TO.N,SW1*%
X105530000Y-88740000D03*
%TO.P,A1,23,A4*%
%TO.N,L2*%
X108070000Y-88740000D03*
%TO.P,A1,24,A5*%
%TO.N,unconnected-(A1-A5-Pad24)*%
X110610000Y-88740000D03*
%TO.P,A1,25,A6*%
%TO.N,unconnected-(A1-A6-Pad25)*%
X113150000Y-88740000D03*
%TO.P,A1,26,A7*%
%TO.N,unconnected-(A1-A7-Pad26)*%
X115690000Y-88740000D03*
%TO.P,A1,27,+5V*%
%TO.N,+5V*%
X118230000Y-88740000D03*
%TO.P,A1,28,~{RESET}*%
%TO.N,unconnected-(A1-~{RESET}-Pad28)*%
X120770000Y-88740000D03*
%TO.P,A1,29,GND*%
%TO.N,GND*%
X123310000Y-88740000D03*
%TO.P,A1,30,VIN*%
%TO.N,unconnected-(A1-VIN-Pad30)*%
X125850000Y-88740000D03*
%TD*%
D14*
%TO.P,J3,1,Pin_1*%
%TO.N,IR3*%
X109500000Y-67500000D03*
D12*
%TO.P,J3,2,Pin_2*%
%TO.N,GND*%
X106960000Y-67500000D03*
%TO.P,J3,3,Pin_3*%
%TO.N,+5V*%
X104420000Y-67500000D03*
%TD*%
D10*
%TO.P,R5,1*%
%TO.N,L2*%
X129500000Y-62350000D03*
%TO.P,R5,2*%
%TO.N,Net-(D3-A)*%
X129500000Y-60700000D03*
%TD*%
D19*
%TO.P,C3,1*%
%TO.N,+12V*%
X111850000Y-84000000D03*
%TO.P,C3,2*%
%TO.N,GND*%
X110300000Y-84000000D03*
%TD*%
D13*
%TO.P,R1,1*%
%TO.N,GND*%
X90750000Y-78500000D03*
%TO.P,R1,2*%
%TO.N,Net-(U1-ILIM)*%
X92400000Y-78500000D03*
%TD*%
D15*
%TO.P,J8,1,Pin_1*%
%TO.N,SV1*%
X71720000Y-86717500D03*
D12*
%TO.P,J8,2,Pin_2*%
%TO.N,GND*%
X74260000Y-86717500D03*
%TO.P,J8,3,Pin_3*%
%TO.N,+5V*%
X76800000Y-86717500D03*
%TD*%
D16*
%TO.P,D5,1,K*%
%TO.N,GND*%
X96925000Y-61000000D03*
%TO.P,D5,2,A*%
%TO.N,Net-(D5-A)*%
X98500000Y-61000000D03*
%TD*%
D20*
%TO.P,SW2,1*%
%TO.N,SW1*%
X75100000Y-73800000D03*
D21*
%TO.P,SW2,2*%
%TO.N,SW2*%
X72560000Y-73800000D03*
%TO.P,SW2,3*%
%TO.N,GND*%
X72560000Y-81420000D03*
%TO.P,SW2,4*%
X75100000Y-81420000D03*
%TD*%
D22*
%TO.P,D8,1,K*%
%TO.N,GND*%
X141200000Y-68587500D03*
%TO.P,D8,2,A*%
%TO.N,Net-(D8-A)*%
X141200000Y-67012500D03*
%TD*%
D23*
%TO.P,U1,1,GND*%
%TO.N,GND*%
X98850000Y-78500000D03*
%TO.P,U1,2,IN2*%
%TO.N,S2*%
X97580000Y-78500000D03*
%TO.P,U1,3,IN1*%
%TO.N,S1*%
X96310000Y-78500000D03*
%TO.P,U1,4,ILIM*%
%TO.N,Net-(U1-ILIM)*%
X95040000Y-78500000D03*
%TO.P,U1,5,VM*%
%TO.N,+12V*%
X95040000Y-83900000D03*
%TO.P,U1,6,OUT1*%
%TO.N,O1*%
X96310000Y-83900000D03*
%TO.P,U1,7,PGND*%
%TO.N,GND*%
X97580000Y-83900000D03*
%TO.P,U1,8,OUT2*%
%TO.N,O2*%
X98850000Y-83900000D03*
D24*
%TO.P,U1,9,PAD*%
%TO.N,GND*%
X96945000Y-81200000D03*
%TD*%
D25*
%TO.P,J1,1,Pin_1*%
%TO.N,+5V*%
X79200000Y-65000000D03*
D12*
%TO.P,J1,2,Pin_2*%
%TO.N,GND*%
X79200000Y-67540000D03*
%TO.P,J1,3,Pin_3*%
%TO.N,IR1*%
X79200000Y-70080000D03*
%TD*%
D19*
%TO.P,C4,1*%
%TO.N,+12V*%
X111850000Y-81500000D03*
%TO.P,C4,2*%
%TO.N,GND*%
X110300000Y-81500000D03*
%TD*%
D14*
%TO.P,J2,1,Pin_1*%
%TO.N,IR2*%
X100000000Y-67500000D03*
D12*
%TO.P,J2,2,Pin_2*%
%TO.N,GND*%
X97460000Y-67500000D03*
%TO.P,J2,3,Pin_3*%
%TO.N,+5V*%
X94920000Y-67500000D03*
%TD*%
D26*
%TO.P,J10,1,Pin_1*%
%TO.N,Start*%
X137700000Y-59900000D03*
D27*
%TO.P,J10,2,Pin_2*%
%TO.N,GND*%
X135160000Y-59900000D03*
%TO.P,J10,3,Pin_3*%
%TO.N,+5V*%
X132620000Y-59900000D03*
%TD*%
D14*
%TO.P,J7,1,Pin_1*%
%TO.N,L2*%
X128500000Y-67500000D03*
D12*
%TO.P,J7,2,Pin_2*%
%TO.N,GND*%
X125960000Y-67500000D03*
%TO.P,J7,3,Pin_3*%
%TO.N,+5V*%
X123420000Y-67500000D03*
%TD*%
D16*
%TO.P,D7,1,K*%
%TO.N,GND*%
X115925000Y-61000000D03*
%TO.P,D7,2,A*%
%TO.N,Net-(D7-A)*%
X117500000Y-61000000D03*
%TD*%
D10*
%TO.P,R4,1*%
%TO.N,L1*%
X91500000Y-62350000D03*
%TO.P,R4,2*%
%TO.N,Net-(D2-A)*%
X91500000Y-60700000D03*
%TD*%
D19*
%TO.P,C1,1*%
%TO.N,+12V*%
X92350000Y-83900000D03*
%TO.P,C1,2*%
%TO.N,GND*%
X90800000Y-83900000D03*
%TD*%
D28*
%TO.P,J11,1,Pin_1*%
%TO.N,GND*%
X133900000Y-80300000D03*
D29*
%TO.P,J11,2,Pin_2*%
%TO.N,Net-(J11-Pin_2)*%
X133900000Y-75300000D03*
%TD*%
D23*
%TO.P,U2,1,GND*%
%TO.N,GND*%
X118850000Y-78500000D03*
%TO.P,U2,2,IN2*%
%TO.N,S4*%
X117580000Y-78500000D03*
%TO.P,U2,3,IN1*%
%TO.N,S3*%
X116310000Y-78500000D03*
%TO.P,U2,4,ILIM*%
%TO.N,Net-(U2-ILIM)*%
X115040000Y-78500000D03*
%TO.P,U2,5,VM*%
%TO.N,+12V*%
X115040000Y-83900000D03*
%TO.P,U2,6,OUT1*%
%TO.N,O3*%
X116310000Y-83900000D03*
%TO.P,U2,7,PGND*%
%TO.N,GND*%
X117580000Y-83900000D03*
%TO.P,U2,8,OUT2*%
%TO.N,O4*%
X118850000Y-83900000D03*
D24*
%TO.P,U2,9,PAD*%
%TO.N,GND*%
X116945000Y-81200000D03*
%TD*%
D10*
%TO.P,R9,1*%
%TO.N,IR4*%
X120000000Y-62350000D03*
%TO.P,R9,2*%
%TO.N,Net-(D7-A)*%
X120000000Y-60700000D03*
%TD*%
D30*
%TO.P,R6,1*%
%TO.N,IR1*%
X74000000Y-71000000D03*
%TO.P,R6,2*%
%TO.N,Net-(D4-A)*%
X72350000Y-71000000D03*
%TD*%
D16*
%TO.P,D6,1,K*%
%TO.N,GND*%
X106425000Y-61000000D03*
%TO.P,D6,2,A*%
%TO.N,Net-(D6-A)*%
X108000000Y-61000000D03*
%TD*%
D19*
%TO.P,C2,1*%
%TO.N,+12V*%
X92350000Y-81390000D03*
%TO.P,C2,2*%
%TO.N,GND*%
X90800000Y-81390000D03*
%TD*%
D31*
%TO.P,D4,1,K*%
%TO.N,GND*%
X72700000Y-66600000D03*
%TO.P,D4,2,A*%
%TO.N,Net-(D4-A)*%
X72700000Y-68175000D03*
%TD*%
D32*
%TO.P,SW1,1,A*%
%TO.N,+12V*%
X142544724Y-80900000D03*
D33*
%TO.P,SW1,2,B*%
%TO.N,Net-(J11-Pin_2)*%
X142544724Y-76200000D03*
%TO.P,SW1,3,C*%
%TO.N,unconnected-(SW1-C-Pad3)*%
X142544724Y-71500000D03*
%TD*%
D15*
%TO.P,J12,1,Pin_1*%
%TO.N,O1*%
X81060000Y-87400000D03*
D12*
%TO.P,J12,2,Pin_2*%
%TO.N,O2*%
X83600000Y-87400000D03*
%TD*%
D10*
%TO.P,R8,1*%
%TO.N,IR3*%
X110500000Y-62325000D03*
%TO.P,R8,2*%
%TO.N,Net-(D6-A)*%
X110500000Y-60675000D03*
%TD*%
D13*
%TO.P,R10,1*%
%TO.N,IR5*%
X139875000Y-64187500D03*
%TO.P,R10,2*%
%TO.N,Net-(D8-A)*%
X141525000Y-64187500D03*
%TD*%
D16*
%TO.P,D3,1,K*%
%TO.N,GND*%
X125425000Y-61000000D03*
%TO.P,D3,2,A*%
%TO.N,Net-(D3-A)*%
X127000000Y-61000000D03*
%TD*%
D14*
%TO.P,J4,1,Pin_1*%
%TO.N,IR4*%
X119000000Y-67500000D03*
D12*
%TO.P,J4,2,Pin_2*%
%TO.N,GND*%
X116460000Y-67500000D03*
%TO.P,J4,3,Pin_3*%
%TO.N,+5V*%
X113920000Y-67500000D03*
%TD*%
D34*
%TO.P,U3,1,INPUT*%
%TO.N,+12V*%
X123700000Y-78500000D03*
D35*
%TO.P,U3,2,GROUND*%
%TO.N,GND*%
X123700000Y-81050000D03*
%TO.P,U3,3,OUTPUT*%
%TO.N,+5V*%
X123700000Y-83600000D03*
%TD*%
D36*
%TO.N,L2*%
X108000000Y-80300000D03*
%TO.N,+12V*%
X113700000Y-85000000D03*
X93700000Y-85000000D03*
%TO.N,SW2*%
X103000000Y-80300000D03*
X83700000Y-76700000D03*
%TO.N,SW1*%
X83700000Y-75900000D03*
X105500000Y-80300000D03*
%TD*%
D37*
%TO.N,SV2*%
X125100000Y-76300000D02*
X132200000Y-83400000D01*
X119800000Y-76300000D02*
X125100000Y-76300000D01*
X132200000Y-83400000D02*
X136100000Y-83400000D01*
X119198000Y-75698000D02*
X119800000Y-76300000D01*
X113150000Y-73500000D02*
X115348000Y-75698000D01*
X115348000Y-75698000D02*
X119198000Y-75698000D01*
X136100000Y-83400000D02*
X139300000Y-86600000D01*
%TO.N,IR3*%
X109500000Y-67500000D02*
X109500000Y-63325000D01*
X110260000Y-67720000D02*
X109540000Y-67000000D01*
X109500000Y-63325000D02*
X110500000Y-62325000D01*
X110610000Y-68610000D02*
X109500000Y-67500000D01*
X110610000Y-73500000D02*
X110610000Y-68610000D01*
%TO.N,L2*%
X128500000Y-63350000D02*
X129500000Y-62350000D01*
X129500000Y-62350000D02*
X129500000Y-62400000D01*
X108070000Y-88740000D02*
X108000000Y-88670000D01*
X128500000Y-67500000D02*
X128500000Y-63350000D01*
X108000000Y-88670000D02*
X108000000Y-80300000D01*
%TO.N,S1*%
X96310000Y-74440000D02*
X95370000Y-73500000D01*
X96310000Y-78500000D02*
X96310000Y-74440000D01*
%TO.N,SV1*%
X92830000Y-74370000D02*
X83900000Y-83300000D01*
X75137500Y-83300000D02*
X71720000Y-86717500D01*
X83900000Y-83300000D02*
X75137500Y-83300000D01*
X92830000Y-73500000D02*
X92830000Y-74370000D01*
%TO.N,IR4*%
X115690000Y-73500000D02*
X115690000Y-70810000D01*
X115690000Y-70810000D02*
X119000000Y-67500000D01*
X119000000Y-67500000D02*
X119000000Y-63350000D01*
X119000000Y-63350000D02*
X120000000Y-62350000D01*
%TO.N,IR2*%
X102990000Y-70490000D02*
X100000000Y-67500000D01*
X100000000Y-63325000D02*
X101000000Y-62325000D01*
X102990000Y-73500000D02*
X102990000Y-70490000D01*
X100000000Y-67500000D02*
X100000000Y-63325000D01*
%TO.N,S4*%
X108070000Y-73500000D02*
X110669000Y-76099000D01*
X110669000Y-76099000D02*
X115954000Y-76099000D01*
X115954000Y-76099000D02*
X117580000Y-77725000D01*
X117580000Y-77725000D02*
X117580000Y-78500000D01*
%TO.N,S3*%
X115085000Y-76500000D02*
X116310000Y-77725000D01*
X105530000Y-73680000D02*
X108350000Y-76500000D01*
X108350000Y-76500000D02*
X115085000Y-76500000D01*
X105530000Y-73500000D02*
X105530000Y-73680000D01*
X116310000Y-77725000D02*
X116310000Y-78500000D01*
D38*
%TO.N,GND*%
X118850000Y-79295000D02*
X116945000Y-81200000D01*
X119655000Y-81050000D02*
X123700000Y-81050000D01*
X97580000Y-83900000D02*
X97580000Y-81835000D01*
X97580000Y-81835000D02*
X96945000Y-81200000D01*
X117580000Y-83900000D02*
X117580000Y-83125000D01*
X117580000Y-83900000D02*
X117580000Y-81835000D01*
X117580000Y-81835000D02*
X116945000Y-81200000D01*
X98850000Y-79295000D02*
X96945000Y-81200000D01*
X118850000Y-78500000D02*
X118850000Y-79295000D01*
X117580000Y-83125000D02*
X119655000Y-81050000D01*
D37*
X141525000Y-68912500D02*
X141200000Y-68587500D01*
D38*
X98850000Y-78500000D02*
X98850000Y-79295000D01*
D37*
%TO.N,IR5*%
X138997500Y-65065000D02*
X139875000Y-64187500D01*
X126282500Y-73500000D02*
X134717500Y-65065000D01*
X125850000Y-73500000D02*
X126282500Y-73500000D01*
X134717500Y-65065000D02*
X138997500Y-65065000D01*
%TO.N,L1*%
X99200000Y-72700000D02*
X96500000Y-70000000D01*
X90500000Y-63350000D02*
X91500000Y-62350000D01*
X93000000Y-70000000D02*
X90500000Y-67500000D01*
X100450000Y-88740000D02*
X101900000Y-87290000D01*
X101900000Y-76900000D02*
X99200000Y-74200000D01*
X101900000Y-87290000D02*
X101900000Y-76900000D01*
X90500000Y-67500000D02*
X90500000Y-63350000D01*
X99200000Y-74200000D02*
X99200000Y-72700000D01*
X96500000Y-70000000D02*
X93000000Y-70000000D01*
%TO.N,Start*%
X124910000Y-71900000D02*
X126700000Y-71900000D01*
X126700000Y-71900000D02*
X131100000Y-67500000D01*
X131100000Y-67500000D02*
X131100000Y-66500000D01*
X123310000Y-73500000D02*
X124910000Y-71900000D01*
X131100000Y-66500000D02*
X137700000Y-59900000D01*
%TO.N,IR1*%
X79020000Y-70080000D02*
X78100000Y-71000000D01*
X79200000Y-70080000D02*
X86870000Y-70080000D01*
X79200000Y-70080000D02*
X79020000Y-70080000D01*
X78100000Y-71000000D02*
X74000000Y-71000000D01*
X86870000Y-70080000D02*
X90290000Y-73500000D01*
%TO.N,S2*%
X97580000Y-73830000D02*
X97910000Y-73500000D01*
X97580000Y-78500000D02*
X97580000Y-73830000D01*
D38*
%TO.N,+12V*%
X113700000Y-85000000D02*
X113940000Y-85000000D01*
X111850000Y-84000000D02*
X114940000Y-84000000D01*
X93700000Y-85000000D02*
X93940000Y-85000000D01*
X93940000Y-85000000D02*
X95040000Y-83900000D01*
X92350000Y-83900000D02*
X95040000Y-83900000D01*
X114940000Y-84000000D02*
X115040000Y-83900000D01*
X113940000Y-85000000D02*
X115040000Y-83900000D01*
X92350000Y-81390000D02*
X92350000Y-83900000D01*
X111850000Y-81500000D02*
X111850000Y-84000000D01*
D37*
%TO.N,Net-(D2-A)*%
X91500000Y-60700000D02*
X89300000Y-60700000D01*
X89300000Y-60700000D02*
X89000000Y-61000000D01*
%TO.N,Net-(D3-A)*%
X127300000Y-60700000D02*
X127000000Y-61000000D01*
X129500000Y-60700000D02*
X127300000Y-60700000D01*
%TO.N,Net-(D4-A)*%
X72350000Y-68525000D02*
X72700000Y-68175000D01*
X72350000Y-71000000D02*
X72350000Y-68525000D01*
%TO.N,Net-(D5-A)*%
X101000000Y-60675000D02*
X98825000Y-60675000D01*
X98825000Y-60675000D02*
X98500000Y-61000000D01*
%TO.N,Net-(D6-A)*%
X108325000Y-60675000D02*
X108000000Y-61000000D01*
X110500000Y-60675000D02*
X108325000Y-60675000D01*
%TO.N,Net-(D7-A)*%
X117800000Y-60700000D02*
X117500000Y-61000000D01*
X120000000Y-60700000D02*
X117800000Y-60700000D01*
%TO.N,Net-(D8-A)*%
X141525000Y-66687500D02*
X141200000Y-67012500D01*
X141525000Y-64187500D02*
X141525000Y-66687500D01*
%TO.N,Net-(U1-ILIM)*%
X92400000Y-78500000D02*
X95040000Y-78500000D01*
%TO.N,Net-(U2-ILIM)*%
X111900000Y-78500000D02*
X115040000Y-78500000D01*
%TO.N,SW2*%
X72560000Y-73800000D02*
X75460000Y-76700000D01*
X102990000Y-80310000D02*
X102990000Y-88740000D01*
X103000000Y-80300000D02*
X102990000Y-80310000D01*
X75460000Y-76700000D02*
X83700000Y-76700000D01*
%TO.N,SW1*%
X77200000Y-75900000D02*
X83700000Y-75900000D01*
X105500000Y-80300000D02*
X105530000Y-80330000D01*
X75100000Y-73800000D02*
X77200000Y-75900000D01*
X105530000Y-80330000D02*
X105530000Y-88740000D01*
D38*
%TO.N,O2*%
X84000000Y-87000000D02*
X83600000Y-87400000D01*
X98850000Y-84675000D02*
X96525000Y-87000000D01*
X98850000Y-83900000D02*
X98850000Y-84675000D01*
X96525000Y-87000000D02*
X84000000Y-87000000D01*
%TO.N,O1*%
X95085000Y-85900000D02*
X82560000Y-85900000D01*
X82560000Y-85900000D02*
X81060000Y-87400000D01*
X96310000Y-84675000D02*
X95085000Y-85900000D01*
X96310000Y-83900000D02*
X96310000Y-84675000D01*
%TO.N,O4*%
X118850000Y-83900000D02*
X120250000Y-85300000D01*
X132922500Y-85300000D02*
X135040000Y-87417500D01*
X120250000Y-85300000D02*
X132922500Y-85300000D01*
%TO.N,O3*%
X131482500Y-86400000D02*
X132500000Y-87417500D01*
X118035000Y-86400000D02*
X131482500Y-86400000D01*
X116310000Y-83900000D02*
X116310000Y-84675000D01*
X116310000Y-84675000D02*
X118035000Y-86400000D01*
D37*
%TO.N,Push*%
X84350000Y-74450000D02*
X84350000Y-80950000D01*
%TD*%
%TA.AperFunction,Conductor*%
%TO.N,GND*%
G36*
X146842539Y-57520185D02*
G01*
X146888294Y-57572989D01*
X146899500Y-57624500D01*
X146899500Y-91275500D01*
X146879815Y-91342539D01*
X146827011Y-91388294D01*
X146775500Y-91399500D01*
X69324500Y-91399500D01*
X69257461Y-91379815D01*
X69211706Y-91327011D01*
X69200500Y-91275500D01*
X69200500Y-85917483D01*
X70219500Y-85917483D01*
X70219500Y-87517501D01*
X70219501Y-87517518D01*
X70230000Y-87620296D01*
X70230001Y-87620299D01*
X70279233Y-87768868D01*
X70285186Y-87786834D01*
X70377288Y-87936156D01*
X70501344Y-88060212D01*
X70650666Y-88152314D01*
X70817203Y-88207499D01*
X70919991Y-88218000D01*
X72520008Y-88217999D01*
X72622797Y-88207499D01*
X72789334Y-88152314D01*
X72938656Y-88060212D01*
X73062712Y-87936156D01*
X73154814Y-87786834D01*
X73209999Y-87620297D01*
X73220500Y-87517509D01*
X73220499Y-87454805D01*
X73240183Y-87387769D01*
X73256818Y-87367126D01*
X73695387Y-86928557D01*
X73700889Y-86949091D01*
X73779881Y-87085908D01*
X73891592Y-87197619D01*
X74028409Y-87276611D01*
X74048940Y-87282112D01*
X73390893Y-87940158D01*
X73473828Y-88000414D01*
X73684197Y-88107602D01*
X73908752Y-88180565D01*
X73908751Y-88180565D01*
X74141948Y-88217500D01*
X74378052Y-88217500D01*
X74611247Y-88180565D01*
X74835802Y-88107602D01*
X75046163Y-88000418D01*
X75046169Y-88000414D01*
X75129104Y-87940158D01*
X75129105Y-87940158D01*
X74471058Y-87282112D01*
X74491591Y-87276611D01*
X74628408Y-87197619D01*
X74740119Y-87085908D01*
X74819111Y-86949091D01*
X74824612Y-86928558D01*
X75482657Y-87586604D01*
X75502404Y-87585050D01*
X75570781Y-87599414D01*
X75612451Y-87635782D01*
X75655483Y-87695010D01*
X75822490Y-87862017D01*
X76013567Y-88000843D01*
X76080235Y-88034812D01*
X76224003Y-88108066D01*
X76224005Y-88108066D01*
X76224008Y-88108068D01*
X76344412Y-88147189D01*
X76448631Y-88181053D01*
X76681903Y-88218000D01*
X76681908Y-88218000D01*
X76918097Y-88218000D01*
X77151368Y-88181053D01*
X77152870Y-88180565D01*
X77375992Y-88108068D01*
X77586433Y-88000843D01*
X77777510Y-87862017D01*
X77944517Y-87695010D01*
X78083343Y-87503933D01*
X78190568Y-87293492D01*
X78263553Y-87068868D01*
X78263986Y-87066132D01*
X78300500Y-86835597D01*
X78300500Y-86599402D01*
X78263553Y-86366131D01*
X78224736Y-86246666D01*
X78190568Y-86141508D01*
X78190566Y-86141505D01*
X78190566Y-86141503D01*
X78130696Y-86024003D01*
X78083343Y-85931067D01*
X77944517Y-85739990D01*
X77777510Y-85572983D01*
X77586433Y-85434157D01*
X77375996Y-85326933D01*
X77151368Y-85253946D01*
X76918097Y-85217000D01*
X76918092Y-85217000D01*
X76681908Y-85217000D01*
X76681903Y-85217000D01*
X76448631Y-85253946D01*
X76224003Y-85326933D01*
X76013566Y-85434157D01*
X75937127Y-85489694D01*
X75822490Y-85572983D01*
X75822488Y-85572985D01*
X75822487Y-85572985D01*
X75655482Y-85739990D01*
X75612451Y-85799217D01*
X75557120Y-85841882D01*
X75502405Y-85849948D01*
X75482658Y-85848393D01*
X74824612Y-86506440D01*
X74819111Y-86485909D01*
X74740119Y-86349092D01*
X74628408Y-86237381D01*
X74491591Y-86158389D01*
X74471058Y-86152887D01*
X75129105Y-85494840D01*
X75129104Y-85494838D01*
X75046174Y-85434587D01*
X74835802Y-85327397D01*
X74611247Y-85254434D01*
X74611248Y-85254434D01*
X74378052Y-85217500D01*
X74368595Y-85217500D01*
X74301556Y-85197815D01*
X74255801Y-85145011D01*
X74245857Y-85075853D01*
X74274882Y-85012297D01*
X74280893Y-85005840D01*
X75088413Y-84198322D01*
X89850001Y-84198322D01*
X89860144Y-84297607D01*
X89913452Y-84458481D01*
X89913457Y-84458492D01*
X90002424Y-84602728D01*
X90002427Y-84602732D01*
X90122267Y-84722572D01*
X90122271Y-84722575D01*
X90266507Y-84811542D01*
X90266518Y-84811547D01*
X90427393Y-84864855D01*
X90526683Y-84874999D01*
X90550000Y-84874998D01*
X90550000Y-84150000D01*
X89850001Y-84150000D01*
X89850001Y-84198322D01*
X75088413Y-84198322D01*
X75349916Y-83936819D01*
X75411239Y-83903334D01*
X75437597Y-83900500D01*
X83813331Y-83900500D01*
X83813347Y-83900501D01*
X83820943Y-83900501D01*
X83979054Y-83900501D01*
X83979057Y-83900501D01*
X84131785Y-83859577D01*
X84189798Y-83826083D01*
X84268716Y-83780520D01*
X84380520Y-83668716D01*
X84380520Y-83668714D01*
X84390723Y-83658512D01*
X84390727Y-83658506D01*
X84447556Y-83601677D01*
X89850000Y-83601677D01*
X89850000Y-83650000D01*
X90550000Y-83650000D01*
X90550000Y-82924999D01*
X90526693Y-82925000D01*
X90526674Y-82925001D01*
X90427392Y-82935144D01*
X90266518Y-82988452D01*
X90266507Y-82988457D01*
X90122271Y-83077424D01*
X90122267Y-83077427D01*
X90002427Y-83197267D01*
X90002424Y-83197271D01*
X89913457Y-83341507D01*
X89913452Y-83341518D01*
X89860144Y-83502393D01*
X89850000Y-83601677D01*
X84447556Y-83601677D01*
X86360911Y-81688322D01*
X89850001Y-81688322D01*
X89860144Y-81787607D01*
X89913452Y-81948481D01*
X89913457Y-81948492D01*
X90002424Y-82092728D01*
X90002427Y-82092732D01*
X90122267Y-82212572D01*
X90122271Y-82212575D01*
X90266507Y-82301542D01*
X90266518Y-82301547D01*
X90427393Y-82354855D01*
X90526683Y-82364999D01*
X90550000Y-82364998D01*
X90550000Y-81640000D01*
X89850001Y-81640000D01*
X89850001Y-81688322D01*
X86360911Y-81688322D01*
X86957556Y-81091677D01*
X89850000Y-81091677D01*
X89850000Y-81140000D01*
X90550000Y-81140000D01*
X90550000Y-80414999D01*
X90526693Y-80415000D01*
X90526674Y-80415001D01*
X90427392Y-80425144D01*
X90266518Y-80478452D01*
X90266507Y-80478457D01*
X90122271Y-80567424D01*
X90122267Y-80567427D01*
X90002427Y-80687267D01*
X90002424Y-80687271D01*
X89913457Y-80831507D01*
X89913452Y-80831518D01*
X89860144Y-80992393D01*
X89850000Y-81091677D01*
X86957556Y-81091677D01*
X89217651Y-78831582D01*
X89850001Y-78831582D01*
X89856408Y-78902102D01*
X89856409Y-78902107D01*
X89906981Y-79064396D01*
X89994927Y-79209877D01*
X90115122Y-79330072D01*
X90260604Y-79418019D01*
X90260603Y-79418019D01*
X90422894Y-79468590D01*
X90422893Y-79468590D01*
X90493408Y-79474998D01*
X90493426Y-79474999D01*
X90499999Y-79474998D01*
X90500000Y-79474998D01*
X90500000Y-78750000D01*
X89850001Y-78750000D01*
X89850001Y-78831582D01*
X89217651Y-78831582D01*
X89762916Y-78286317D01*
X89824237Y-78252834D01*
X89850595Y-78250000D01*
X90500000Y-78250000D01*
X90500000Y-77600596D01*
X90519685Y-77533557D01*
X90536319Y-77512915D01*
X91189661Y-76859573D01*
X93198713Y-74850521D01*
X93198716Y-74850520D01*
X93310520Y-74738716D01*
X93319185Y-74723706D01*
X93329429Y-74712970D01*
X93347345Y-74702633D01*
X93362312Y-74688359D01*
X93362618Y-74688201D01*
X93511610Y-74612287D01*
X93580044Y-74562567D01*
X93677213Y-74491971D01*
X93677215Y-74491968D01*
X93677219Y-74491966D01*
X93821966Y-74347219D01*
X93821968Y-74347215D01*
X93821971Y-74347213D01*
X93942284Y-74181614D01*
X93942286Y-74181611D01*
X93942287Y-74181610D01*
X93989516Y-74088917D01*
X94037489Y-74038123D01*
X94105310Y-74021328D01*
X94171445Y-74043865D01*
X94210485Y-74088919D01*
X94257715Y-74181614D01*
X94378028Y-74347213D01*
X94522786Y-74491971D01*
X94659011Y-74590942D01*
X94688390Y-74612287D01*
X94777212Y-74657544D01*
X94870776Y-74705218D01*
X94870778Y-74705218D01*
X94870781Y-74705220D01*
X94973871Y-74738716D01*
X95065465Y-74768477D01*
X95121828Y-74777404D01*
X95267648Y-74800500D01*
X95267649Y-74800500D01*
X95472351Y-74800500D01*
X95472352Y-74800500D01*
X95566102Y-74785651D01*
X95635395Y-74794605D01*
X95688847Y-74839601D01*
X95709487Y-74906353D01*
X95709500Y-74908124D01*
X95709500Y-77155298D01*
X95689815Y-77222337D01*
X95637011Y-77268092D01*
X95567853Y-77278036D01*
X95540011Y-77270653D01*
X95448200Y-77234448D01*
X95448199Y-77234447D01*
X95365363Y-77224500D01*
X95365362Y-77224500D01*
X94714638Y-77224500D01*
X94714637Y-77224500D01*
X94631800Y-77234447D01*
X94631795Y-77234449D01*
X94499976Y-77286432D01*
X94499973Y-77286434D01*
X94387058Y-77372058D01*
X94301435Y-77484970D01*
X94301432Y-77484976D01*
X94249449Y-77616795D01*
X94249447Y-77616800D01*
X94239500Y-77699637D01*
X94239500Y-77775500D01*
X94219815Y-77842539D01*
X94167011Y-77888294D01*
X94115500Y-77899500D01*
X93291715Y-77899500D01*
X93224676Y-77879815D01*
X93185598Y-77839650D01*
X93184258Y-77837433D01*
X93155472Y-77789815D01*
X93155470Y-77789813D01*
X93155469Y-77789811D01*
X93035188Y-77669530D01*
X92889606Y-77581522D01*
X92862222Y-77572989D01*
X92727196Y-77530914D01*
X92727194Y-77530913D01*
X92727192Y-77530913D01*
X92677778Y-77526423D01*
X92656616Y-77524500D01*
X92143384Y-77524500D01*
X92124145Y-77526248D01*
X92072807Y-77530913D01*
X91910393Y-77581522D01*
X91764811Y-77669530D01*
X91764810Y-77669531D01*
X91662327Y-77772015D01*
X91601004Y-77805500D01*
X91531312Y-77800516D01*
X91486965Y-77772015D01*
X91384877Y-77669927D01*
X91239395Y-77581980D01*
X91239396Y-77581980D01*
X91077105Y-77531409D01*
X91077106Y-77531409D01*
X91006572Y-77525000D01*
X91000000Y-77525000D01*
X91000000Y-79474999D01*
X91006581Y-79474999D01*
X91077102Y-79468591D01*
X91077107Y-79468590D01*
X91239396Y-79418018D01*
X91384877Y-79330072D01*
X91384878Y-79330071D01*
X91486963Y-79227985D01*
X91548286Y-79194499D01*
X91617977Y-79199483D01*
X91662326Y-79227984D01*
X91764811Y-79330469D01*
X91764813Y-79330470D01*
X91764815Y-79330472D01*
X91910394Y-79418478D01*
X92072804Y-79469086D01*
X92143384Y-79475500D01*
X92143387Y-79475500D01*
X92656613Y-79475500D01*
X92656616Y-79475500D01*
X92727196Y-79469086D01*
X92889606Y-79418478D01*
X93035185Y-79330472D01*
X93155472Y-79210185D01*
X93185598Y-79160349D01*
X93237126Y-79113162D01*
X93291715Y-79100500D01*
X94115500Y-79100500D01*
X94124185Y-79103050D01*
X94133147Y-79101762D01*
X94157187Y-79112740D01*
X94182539Y-79120185D01*
X94188466Y-79127025D01*
X94196703Y-79130787D01*
X94210992Y-79153021D01*
X94228294Y-79172989D01*
X94230581Y-79183503D01*
X94234477Y-79189565D01*
X94239500Y-79224500D01*
X94239500Y-79229616D01*
X94219815Y-79296655D01*
X94189812Y-79328882D01*
X94137814Y-79367807D01*
X94137808Y-79367814D01*
X94051649Y-79482906D01*
X94051645Y-79482913D01*
X94001403Y-79617620D01*
X94001401Y-79617627D01*
X93995000Y-79677155D01*
X93995000Y-80950000D01*
X99895000Y-80950000D01*
X99895000Y-79677172D01*
X99894999Y-79677155D01*
X99888598Y-79617627D01*
X99888596Y-79617620D01*
X99838354Y-79482913D01*
X99838352Y-79482911D01*
X99752190Y-79367813D01*
X99752185Y-79367808D01*
X99699688Y-79328508D01*
X99657817Y-79272574D01*
X99649999Y-79229242D01*
X99649999Y-78750000D01*
X98974000Y-78750000D01*
X98906961Y-78730315D01*
X98861206Y-78677511D01*
X98850000Y-78626000D01*
X98850000Y-78500000D01*
X98724000Y-78500000D01*
X98656961Y-78480315D01*
X98611206Y-78427511D01*
X98600000Y-78376000D01*
X98600000Y-78250000D01*
X99100000Y-78250000D01*
X99649999Y-78250000D01*
X99649999Y-77699688D01*
X99640061Y-77616921D01*
X99588125Y-77485219D01*
X99588124Y-77485217D01*
X99502584Y-77372415D01*
X99389782Y-77286875D01*
X99389780Y-77286874D01*
X99258081Y-77234939D01*
X99258077Y-77234938D01*
X99175319Y-77225000D01*
X99100000Y-77225000D01*
X99100000Y-78250000D01*
X98600000Y-78250000D01*
X98600000Y-77225000D01*
X98599999Y-77224999D01*
X98524687Y-77225000D01*
X98441919Y-77234939D01*
X98349988Y-77271191D01*
X98280402Y-77277472D01*
X98218466Y-77245134D01*
X98183845Y-77184445D01*
X98180500Y-77155836D01*
X98180500Y-74869626D01*
X98200185Y-74802587D01*
X98252989Y-74756832D01*
X98266173Y-74751698D01*
X98409219Y-74705220D01*
X98591610Y-74612287D01*
X98605225Y-74602394D01*
X98637320Y-74590942D01*
X98669266Y-74579027D01*
X98670164Y-74579222D01*
X98671031Y-74578913D01*
X98704231Y-74586632D01*
X98737539Y-74593878D01*
X98738506Y-74594602D01*
X98739085Y-74594737D01*
X98765789Y-74615025D01*
X98831284Y-74680520D01*
X98831286Y-74680521D01*
X98838356Y-74687591D01*
X101263181Y-77112416D01*
X101296666Y-77173739D01*
X101299500Y-77200097D01*
X101299500Y-86989901D01*
X101279815Y-87056940D01*
X101263181Y-87077582D01*
X100894841Y-87445921D01*
X100833518Y-87479406D01*
X100768845Y-87476172D01*
X100754535Y-87471523D01*
X100649008Y-87454809D01*
X100552352Y-87439500D01*
X100347648Y-87439500D01*
X100323329Y-87443351D01*
X100145465Y-87471522D01*
X99950776Y-87534781D01*
X99768386Y-87627715D01*
X99602786Y-87748028D01*
X99458028Y-87892786D01*
X99337715Y-88058386D01*
X99290485Y-88151080D01*
X99242510Y-88201876D01*
X99174689Y-88218671D01*
X99108554Y-88196134D01*
X99069515Y-88151080D01*
X99047598Y-88108066D01*
X99022287Y-88058390D01*
X98980477Y-88000843D01*
X98901971Y-87892786D01*
X98757213Y-87748028D01*
X98591613Y-87627715D01*
X98591612Y-87627714D01*
X98591610Y-87627713D01*
X98534653Y-87598691D01*
X98409223Y-87534781D01*
X98214534Y-87471522D01*
X98039995Y-87443878D01*
X98012352Y-87439500D01*
X97807648Y-87439500D01*
X97783329Y-87443351D01*
X97605465Y-87471522D01*
X97410773Y-87534782D01*
X97376017Y-87552492D01*
X97307347Y-87565388D01*
X97242607Y-87539111D01*
X97202351Y-87482004D01*
X97199359Y-87412198D01*
X97232042Y-87354326D01*
X99432949Y-85153418D01*
X99432951Y-85153416D01*
X99432952Y-85153415D01*
X99481279Y-85081088D01*
X99515084Y-85030495D01*
X99528925Y-84997077D01*
X99532815Y-84990270D01*
X99535427Y-84987756D01*
X99541679Y-84976856D01*
X99542708Y-84975500D01*
X99588566Y-84915027D01*
X99640552Y-84783200D01*
X99650500Y-84700362D01*
X99650500Y-83170382D01*
X99670185Y-83103343D01*
X99700190Y-83071115D01*
X99752187Y-83032190D01*
X99752190Y-83032186D01*
X99838352Y-82917088D01*
X99838354Y-82917086D01*
X99888596Y-82782379D01*
X99888598Y-82782372D01*
X99894999Y-82722844D01*
X99895000Y-82722827D01*
X99895000Y-81450000D01*
X93995000Y-81450000D01*
X93995000Y-82722844D01*
X94001401Y-82782372D01*
X94001403Y-82782379D01*
X94051645Y-82917086D01*
X94051647Y-82917089D01*
X94077174Y-82951189D01*
X94101591Y-83016654D01*
X94086739Y-83084927D01*
X94037334Y-83134332D01*
X93977907Y-83149500D01*
X93224500Y-83149500D01*
X93157461Y-83129815D01*
X93111706Y-83077011D01*
X93100500Y-83025500D01*
X93100500Y-82191874D01*
X93120185Y-82124835D01*
X93136819Y-82104193D01*
X93139666Y-82101346D01*
X93147968Y-82093044D01*
X93237003Y-81948697D01*
X93290349Y-81787708D01*
X93300500Y-81688345D01*
X93300499Y-81091656D01*
X93298092Y-81068097D01*
X93290349Y-80992292D01*
X93290348Y-80992289D01*
X93276335Y-80950000D01*
X93237003Y-80831303D01*
X93236999Y-80831297D01*
X93236998Y-80831294D01*
X93147970Y-80686959D01*
X93147967Y-80686955D01*
X93028044Y-80567032D01*
X93028040Y-80567029D01*
X92883705Y-80478001D01*
X92883699Y-80477998D01*
X92883697Y-80477997D01*
X92883694Y-80477996D01*
X92722709Y-80424651D01*
X92623346Y-80414500D01*
X92076662Y-80414500D01*
X92076644Y-80414501D01*
X91977292Y-80424650D01*
X91977289Y-80424651D01*
X91816305Y-80477996D01*
X91816294Y-80478001D01*
X91671959Y-80567029D01*
X91671953Y-80567033D01*
X91662324Y-80576663D01*
X91601000Y-80610146D01*
X91531308Y-80605159D01*
X91486965Y-80576660D01*
X91477732Y-80567427D01*
X91477728Y-80567424D01*
X91333492Y-80478457D01*
X91333481Y-80478452D01*
X91172606Y-80425144D01*
X91073322Y-80415000D01*
X91050000Y-80415000D01*
X91050000Y-82364999D01*
X91073308Y-82364999D01*
X91073322Y-82364998D01*
X91172607Y-82354855D01*
X91333481Y-82301547D01*
X91333488Y-82301544D01*
X91410402Y-82254102D01*
X91477794Y-82235661D01*
X91544458Y-82256583D01*
X91589228Y-82310224D01*
X91599500Y-82359640D01*
X91599500Y-82930359D01*
X91579815Y-82997398D01*
X91527011Y-83043153D01*
X91457853Y-83053097D01*
X91410403Y-83035897D01*
X91333492Y-82988457D01*
X91333481Y-82988452D01*
X91172606Y-82935144D01*
X91073322Y-82925000D01*
X91050000Y-82925000D01*
X91050000Y-84874999D01*
X91073308Y-84874999D01*
X91073322Y-84874998D01*
X91172607Y-84864855D01*
X91333481Y-84811547D01*
X91333492Y-84811542D01*
X91477731Y-84722573D01*
X91486959Y-84713345D01*
X91548279Y-84679856D01*
X91617971Y-84684835D01*
X91662327Y-84713339D01*
X91671955Y-84722967D01*
X91671959Y-84722970D01*
X91816294Y-84811998D01*
X91816297Y-84811999D01*
X91816303Y-84812003D01*
X91977292Y-84865349D01*
X92076655Y-84875500D01*
X92623344Y-84875499D01*
X92623352Y-84875498D01*
X92623355Y-84875498D01*
X92677760Y-84869940D01*
X92722708Y-84865349D01*
X92733494Y-84861774D01*
X92736494Y-84860781D01*
X92806322Y-84858378D01*
X92866365Y-84894108D01*
X92897558Y-84956628D01*
X92899500Y-84978486D01*
X92899500Y-85025500D01*
X92879815Y-85092539D01*
X92827011Y-85138294D01*
X92775500Y-85149500D01*
X82486080Y-85149500D01*
X82341092Y-85178340D01*
X82341082Y-85178343D01*
X82204511Y-85234912D01*
X82204498Y-85234919D01*
X82081584Y-85317048D01*
X82081580Y-85317051D01*
X81535450Y-85863181D01*
X81474127Y-85896666D01*
X81447769Y-85899500D01*
X80259998Y-85899500D01*
X80259981Y-85899501D01*
X80157203Y-85910000D01*
X80157200Y-85910001D01*
X79990668Y-85965185D01*
X79990663Y-85965187D01*
X79841342Y-86057289D01*
X79717289Y-86181342D01*
X79625187Y-86330663D01*
X79625186Y-86330666D01*
X79570001Y-86497203D01*
X79570001Y-86497204D01*
X79570000Y-86497204D01*
X79559500Y-86599983D01*
X79559500Y-88200001D01*
X79559501Y-88200018D01*
X79570000Y-88302796D01*
X79570001Y-88302799D01*
X79600558Y-88395012D01*
X79625186Y-88469334D01*
X79717288Y-88618656D01*
X79841344Y-88742712D01*
X79990666Y-88834814D01*
X80157203Y-88889999D01*
X80259991Y-88900500D01*
X81860008Y-88900499D01*
X81962797Y-88889999D01*
X82129334Y-88834814D01*
X82278656Y-88742712D01*
X82402712Y-88618656D01*
X82432512Y-88570341D01*
X82484458Y-88523618D01*
X82553420Y-88512395D01*
X82617503Y-88540238D01*
X82618758Y-88541385D01*
X82618786Y-88541353D01*
X82622481Y-88544508D01*
X82622490Y-88544517D01*
X82813567Y-88683343D01*
X82847911Y-88700842D01*
X83024003Y-88790566D01*
X83024005Y-88790566D01*
X83024008Y-88790568D01*
X83144412Y-88829689D01*
X83248631Y-88863553D01*
X83481903Y-88900500D01*
X83481908Y-88900500D01*
X83718097Y-88900500D01*
X83951368Y-88863553D01*
X83985964Y-88852312D01*
X84175992Y-88790568D01*
X84386433Y-88683343D01*
X84577510Y-88544517D01*
X84744517Y-88377510D01*
X84883343Y-88186433D01*
X84990568Y-87975992D01*
X85035995Y-87836181D01*
X85075433Y-87778506D01*
X85139791Y-87751308D01*
X85153926Y-87750500D01*
X89158043Y-87750500D01*
X89225082Y-87770185D01*
X89270837Y-87822989D01*
X89280781Y-87892147D01*
X89258362Y-87947385D01*
X89177712Y-88058390D01*
X89084781Y-88240776D01*
X89021522Y-88435465D01*
X88989500Y-88637648D01*
X88989500Y-88842351D01*
X89021522Y-89044534D01*
X89084781Y-89239223D01*
X89177715Y-89421613D01*
X89298028Y-89587213D01*
X89442786Y-89731971D01*
X89597749Y-89844556D01*
X89608390Y-89852287D01*
X89724607Y-89911503D01*
X89790776Y-89945218D01*
X89790778Y-89945218D01*
X89790781Y-89945220D01*
X89895137Y-89979127D01*
X89985465Y-90008477D01*
X90086557Y-90024488D01*
X90187648Y-90040500D01*
X90187649Y-90040500D01*
X90392351Y-90040500D01*
X90392352Y-90040500D01*
X90594534Y-90008477D01*
X90789219Y-89945220D01*
X90971610Y-89852287D01*
X91064590Y-89784732D01*
X91137213Y-89731971D01*
X91137215Y-89731968D01*
X91137219Y-89731966D01*
X91281966Y-89587219D01*
X91281968Y-89587215D01*
X91281971Y-89587213D01*
X91402284Y-89421614D01*
X91402286Y-89421611D01*
X91402287Y-89421610D01*
X91449516Y-89328917D01*
X91497489Y-89278123D01*
X91565310Y-89261328D01*
X91631445Y-89283865D01*
X91670485Y-89328919D01*
X91717715Y-89421614D01*
X91838028Y-89587213D01*
X91982786Y-89731971D01*
X92137749Y-89844556D01*
X92148390Y-89852287D01*
X92264607Y-89911503D01*
X92330776Y-89945218D01*
X92330778Y-89945218D01*
X92330781Y-89945220D01*
X92435137Y-89979127D01*
X92525465Y-90008477D01*
X92626557Y-90024488D01*
X92727648Y-90040500D01*
X92727649Y-90040500D01*
X92932351Y-90040500D01*
X92932352Y-90040500D01*
X93134534Y-90008477D01*
X93329219Y-89945220D01*
X93511610Y-89852287D01*
X93604590Y-89784732D01*
X93677213Y-89731971D01*
X93677215Y-89731968D01*
X93677219Y-89731966D01*
X93821966Y-89587219D01*
X93821968Y-89587215D01*
X93821971Y-89587213D01*
X93942284Y-89421614D01*
X93942286Y-89421611D01*
X93942287Y-89421610D01*
X93989516Y-89328917D01*
X94037489Y-89278123D01*
X94105310Y-89261328D01*
X94171445Y-89283865D01*
X94210485Y-89328919D01*
X94257715Y-89421614D01*
X94378028Y-89587213D01*
X94522786Y-89731971D01*
X94677749Y-89844556D01*
X94688390Y-89852287D01*
X94804607Y-89911503D01*
X94870776Y-89945218D01*
X94870778Y-89945218D01*
X94870781Y-89945220D01*
X94975137Y-89979127D01*
X95065465Y-90008477D01*
X95166557Y-90024488D01*
X95267648Y-90040500D01*
X95267649Y-90040500D01*
X95472351Y-90040500D01*
X95472352Y-90040500D01*
X95674534Y-90008477D01*
X95869219Y-89945220D01*
X96051610Y-89852287D01*
X96144590Y-89784732D01*
X96217213Y-89731971D01*
X96217215Y-89731968D01*
X96217219Y-89731966D01*
X96361966Y-89587219D01*
X96361968Y-89587215D01*
X96361971Y-89587213D01*
X96482284Y-89421614D01*
X96482286Y-89421611D01*
X96482287Y-89421610D01*
X96529516Y-89328917D01*
X96577489Y-89278123D01*
X96645310Y-89261328D01*
X96711445Y-89283865D01*
X96750485Y-89328919D01*
X96797715Y-89421614D01*
X96918028Y-89587213D01*
X97062786Y-89731971D01*
X97217749Y-89844556D01*
X97228390Y-89852287D01*
X97344607Y-89911503D01*
X97410776Y-89945218D01*
X97410778Y-89945218D01*
X97410781Y-89945220D01*
X97515137Y-89979127D01*
X97605465Y-90008477D01*
X97706557Y-90024488D01*
X97807648Y-90040500D01*
X97807649Y-90040500D01*
X98012351Y-90040500D01*
X98012352Y-90040500D01*
X98214534Y-90008477D01*
X98409219Y-89945220D01*
X98591610Y-89852287D01*
X98684590Y-89784732D01*
X98757213Y-89731971D01*
X98757215Y-89731968D01*
X98757219Y-89731966D01*
X98901966Y-89587219D01*
X98901968Y-89587215D01*
X98901971Y-89587213D01*
X99022284Y-89421614D01*
X99022286Y-89421611D01*
X99022287Y-89421610D01*
X99069516Y-89328917D01*
X99117489Y-89278123D01*
X99185310Y-89261328D01*
X99251445Y-89283865D01*
X99290485Y-89328919D01*
X99337715Y-89421614D01*
X99458028Y-89587213D01*
X99602786Y-89731971D01*
X99757749Y-89844556D01*
X99768390Y-89852287D01*
X99884607Y-89911503D01*
X99950776Y-89945218D01*
X99950778Y-89945218D01*
X99950781Y-89945220D01*
X100055137Y-89979127D01*
X100145465Y-90008477D01*
X100246557Y-90024488D01*
X100347648Y-90040500D01*
X100347649Y-90040500D01*
X100552351Y-90040500D01*
X100552352Y-90040500D01*
X100754534Y-90008477D01*
X100949219Y-89945220D01*
X101131610Y-89852287D01*
X101224590Y-89784732D01*
X101297213Y-89731971D01*
X101297215Y-89731968D01*
X101297219Y-89731966D01*
X101441966Y-89587219D01*
X101441968Y-89587215D01*
X101441971Y-89587213D01*
X101562284Y-89421614D01*
X101562286Y-89421611D01*
X101562287Y-89421610D01*
X101609516Y-89328917D01*
X101657489Y-89278123D01*
X101725310Y-89261328D01*
X101791445Y-89283865D01*
X101830485Y-89328919D01*
X101877715Y-89421614D01*
X101998028Y-89587213D01*
X102142786Y-89731971D01*
X102297749Y-89844556D01*
X102308390Y-89852287D01*
X102424607Y-89911503D01*
X102490776Y-89945218D01*
X102490778Y-89945218D01*
X102490781Y-89945220D01*
X102595137Y-89979127D01*
X102685465Y-90008477D01*
X102786557Y-90024488D01*
X102887648Y-90040500D01*
X102887649Y-90040500D01*
X103092351Y-90040500D01*
X103092352Y-90040500D01*
X103294534Y-90008477D01*
X103489219Y-89945220D01*
X103671610Y-89852287D01*
X103764590Y-89784732D01*
X103837213Y-89731971D01*
X103837215Y-89731968D01*
X103837219Y-89731966D01*
X103981966Y-89587219D01*
X103981968Y-89587215D01*
X103981971Y-89587213D01*
X104102284Y-89421614D01*
X104102286Y-89421611D01*
X104102287Y-89421610D01*
X104149516Y-89328917D01*
X104197489Y-89278123D01*
X104265310Y-89261328D01*
X104331445Y-89283865D01*
X104370485Y-89328919D01*
X104417715Y-89421614D01*
X104538028Y-89587213D01*
X104682786Y-89731971D01*
X104837749Y-89844556D01*
X104848390Y-89852287D01*
X104964607Y-89911503D01*
X105030776Y-89945218D01*
X105030778Y-89945218D01*
X105030781Y-89945220D01*
X105135137Y-89979127D01*
X105225465Y-90008477D01*
X105326557Y-90024488D01*
X105427648Y-90040500D01*
X105427649Y-90040500D01*
X105632351Y-90040500D01*
X105632352Y-90040500D01*
X105834534Y-90008477D01*
X106029219Y-89945220D01*
X106211610Y-89852287D01*
X106304590Y-89784732D01*
X106377213Y-89731971D01*
X106377215Y-89731968D01*
X106377219Y-89731966D01*
X106521966Y-89587219D01*
X106521968Y-89587215D01*
X106521971Y-89587213D01*
X106642284Y-89421614D01*
X106642286Y-89421611D01*
X106642287Y-89421610D01*
X106689516Y-89328917D01*
X106737489Y-89278123D01*
X106805310Y-89261328D01*
X106871445Y-89283865D01*
X106910485Y-89328919D01*
X106957715Y-89421614D01*
X107078028Y-89587213D01*
X107222786Y-89731971D01*
X107377749Y-89844556D01*
X107388390Y-89852287D01*
X107504607Y-89911503D01*
X107570776Y-89945218D01*
X107570778Y-89945218D01*
X107570781Y-89945220D01*
X107675137Y-89979127D01*
X107765465Y-90008477D01*
X107866557Y-90024488D01*
X107967648Y-90040500D01*
X107967649Y-90040500D01*
X108172351Y-90040500D01*
X108172352Y-90040500D01*
X108374534Y-90008477D01*
X108569219Y-89945220D01*
X108751610Y-89852287D01*
X108844590Y-89784732D01*
X108917213Y-89731971D01*
X108917215Y-89731968D01*
X108917219Y-89731966D01*
X109061966Y-89587219D01*
X109061968Y-89587215D01*
X109061971Y-89587213D01*
X109182284Y-89421614D01*
X109182286Y-89421611D01*
X109182287Y-89421610D01*
X109229516Y-89328917D01*
X109277489Y-89278123D01*
X109345310Y-89261328D01*
X109411445Y-89283865D01*
X109450485Y-89328919D01*
X109497715Y-89421614D01*
X109618028Y-89587213D01*
X109762786Y-89731971D01*
X109917749Y-89844556D01*
X109928390Y-89852287D01*
X110044607Y-89911503D01*
X110110776Y-89945218D01*
X110110778Y-89945218D01*
X110110781Y-89945220D01*
X110215137Y-89979127D01*
X110305465Y-90008477D01*
X110406557Y-90024488D01*
X110507648Y-90040500D01*
X110507649Y-90040500D01*
X110712351Y-90040500D01*
X110712352Y-90040500D01*
X110914534Y-90008477D01*
X111109219Y-89945220D01*
X111291610Y-89852287D01*
X111384590Y-89784732D01*
X111457213Y-89731971D01*
X111457215Y-89731968D01*
X111457219Y-89731966D01*
X111601966Y-89587219D01*
X111601968Y-89587215D01*
X111601971Y-89587213D01*
X111722284Y-89421614D01*
X111722286Y-89421611D01*
X111722287Y-89421610D01*
X111769516Y-89328917D01*
X111817489Y-89278123D01*
X111885310Y-89261328D01*
X111951445Y-89283865D01*
X111990485Y-89328919D01*
X112037715Y-89421614D01*
X112158028Y-89587213D01*
X112302786Y-89731971D01*
X112457749Y-89844556D01*
X112468390Y-89852287D01*
X112584607Y-89911503D01*
X112650776Y-89945218D01*
X112650778Y-89945218D01*
X112650781Y-89945220D01*
X112755137Y-89979127D01*
X112845465Y-90008477D01*
X112946557Y-90024488D01*
X113047648Y-90040500D01*
X113047649Y-90040500D01*
X113252351Y-90040500D01*
X113252352Y-90040500D01*
X113454534Y-90008477D01*
X113649219Y-89945220D01*
X113831610Y-89852287D01*
X113924590Y-89784732D01*
X113997213Y-89731971D01*
X113997215Y-89731968D01*
X113997219Y-89731966D01*
X114141966Y-89587219D01*
X114141968Y-89587215D01*
X114141971Y-89587213D01*
X114262284Y-89421614D01*
X114262286Y-89421611D01*
X114262287Y-89421610D01*
X114309516Y-89328917D01*
X114357489Y-89278123D01*
X114425310Y-89261328D01*
X114491445Y-89283865D01*
X114530485Y-89328919D01*
X114577715Y-89421614D01*
X114698028Y-89587213D01*
X114842786Y-89731971D01*
X114997749Y-89844556D01*
X115008390Y-89852287D01*
X115124607Y-89911503D01*
X115190776Y-89945218D01*
X115190778Y-89945218D01*
X115190781Y-89945220D01*
X115295137Y-89979127D01*
X115385465Y-90008477D01*
X115486557Y-90024488D01*
X115587648Y-90040500D01*
X115587649Y-90040500D01*
X115792351Y-90040500D01*
X115792352Y-90040500D01*
X115994534Y-90008477D01*
X116189219Y-89945220D01*
X116371610Y-89852287D01*
X116464590Y-89784732D01*
X116537213Y-89731971D01*
X116537215Y-89731968D01*
X116537219Y-89731966D01*
X116681966Y-89587219D01*
X116681968Y-89587215D01*
X116681971Y-89587213D01*
X116802284Y-89421614D01*
X116802286Y-89421611D01*
X116802287Y-89421610D01*
X116849516Y-89328917D01*
X116897489Y-89278123D01*
X116965310Y-89261328D01*
X117031445Y-89283865D01*
X117070485Y-89328919D01*
X117117715Y-89421614D01*
X117238028Y-89587213D01*
X117382786Y-89731971D01*
X117537749Y-89844556D01*
X117548390Y-89852287D01*
X117664607Y-89911503D01*
X117730776Y-89945218D01*
X117730778Y-89945218D01*
X117730781Y-89945220D01*
X117835137Y-89979127D01*
X117925465Y-90008477D01*
X118026557Y-90024488D01*
X118127648Y-90040500D01*
X118127649Y-90040500D01*
X118332351Y-90040500D01*
X118332352Y-90040500D01*
X118534534Y-90008477D01*
X118729219Y-89945220D01*
X118911610Y-89852287D01*
X119004590Y-89784732D01*
X119077213Y-89731971D01*
X119077215Y-89731968D01*
X119077219Y-89731966D01*
X119221966Y-89587219D01*
X119221968Y-89587215D01*
X119221971Y-89587213D01*
X119342284Y-89421614D01*
X119342286Y-89421611D01*
X119342287Y-89421610D01*
X119389516Y-89328917D01*
X119437489Y-89278123D01*
X119505310Y-89261328D01*
X119571445Y-89283865D01*
X119610485Y-89328919D01*
X119657715Y-89421614D01*
X119778028Y-89587213D01*
X119922786Y-89731971D01*
X120077749Y-89844556D01*
X120088390Y-89852287D01*
X120204607Y-89911503D01*
X120270776Y-89945218D01*
X120270778Y-89945218D01*
X120270781Y-89945220D01*
X120375137Y-89979127D01*
X120465465Y-90008477D01*
X120566557Y-90024488D01*
X120667648Y-90040500D01*
X120667649Y-90040500D01*
X120872351Y-90040500D01*
X120872352Y-90040500D01*
X121074534Y-90008477D01*
X121269219Y-89945220D01*
X121451610Y-89852287D01*
X121544590Y-89784732D01*
X121617213Y-89731971D01*
X121617215Y-89731968D01*
X121617219Y-89731966D01*
X121761966Y-89587219D01*
X121761968Y-89587215D01*
X121761971Y-89587213D01*
X121882284Y-89421614D01*
X121882286Y-89421611D01*
X121882287Y-89421610D01*
X121929795Y-89328369D01*
X121977770Y-89277574D01*
X122045591Y-89260779D01*
X122111725Y-89283316D01*
X122150765Y-89328370D01*
X122198140Y-89421349D01*
X122318417Y-89586894D01*
X122318417Y-89586895D01*
X122463104Y-89731582D01*
X122628650Y-89851859D01*
X122810968Y-89944754D01*
X123005578Y-90007988D01*
X123060000Y-90016607D01*
X123060000Y-89173012D01*
X123117007Y-89205925D01*
X123244174Y-89240000D01*
X123375826Y-89240000D01*
X123502993Y-89205925D01*
X123560000Y-89173012D01*
X123560000Y-90016606D01*
X123614421Y-90007988D01*
X123809031Y-89944754D01*
X123991349Y-89851859D01*
X124156894Y-89731582D01*
X124156895Y-89731582D01*
X124301582Y-89586895D01*
X124301582Y-89586894D01*
X124421861Y-89421347D01*
X124469234Y-89328371D01*
X124517208Y-89277575D01*
X124585028Y-89260779D01*
X124651164Y-89283316D01*
X124690203Y-89328369D01*
X124737713Y-89421611D01*
X124858028Y-89587213D01*
X125002786Y-89731971D01*
X125157749Y-89844556D01*
X125168390Y-89852287D01*
X125284607Y-89911503D01*
X125350776Y-89945218D01*
X125350778Y-89945218D01*
X125350781Y-89945220D01*
X125455137Y-89979127D01*
X125545465Y-90008477D01*
X125646557Y-90024488D01*
X125747648Y-90040500D01*
X125747649Y-90040500D01*
X125952351Y-90040500D01*
X125952352Y-90040500D01*
X126154534Y-90008477D01*
X126349219Y-89945220D01*
X126531610Y-89852287D01*
X126624590Y-89784732D01*
X126697213Y-89731971D01*
X126697215Y-89731968D01*
X126697219Y-89731966D01*
X126841966Y-89587219D01*
X126841968Y-89587215D01*
X126841971Y-89587213D01*
X126894732Y-89514590D01*
X126962287Y-89421610D01*
X127055220Y-89239219D01*
X127118477Y-89044534D01*
X127150500Y-88842352D01*
X127150500Y-88637648D01*
X127118477Y-88435466D01*
X127117673Y-88432993D01*
X127066038Y-88274075D01*
X127055220Y-88240781D01*
X127055218Y-88240778D01*
X127055218Y-88240776D01*
X126987598Y-88108066D01*
X126962287Y-88058390D01*
X126920477Y-88000843D01*
X126841971Y-87892786D01*
X126697213Y-87748028D01*
X126531613Y-87627715D01*
X126531612Y-87627714D01*
X126531610Y-87627713D01*
X126474653Y-87598691D01*
X126349223Y-87534781D01*
X126154534Y-87471522D01*
X125979995Y-87443878D01*
X125952352Y-87439500D01*
X125747648Y-87439500D01*
X125723329Y-87443351D01*
X125545465Y-87471522D01*
X125350776Y-87534781D01*
X125168386Y-87627715D01*
X125002786Y-87748028D01*
X124858028Y-87892786D01*
X124737713Y-88058388D01*
X124690203Y-88151630D01*
X124642228Y-88202426D01*
X124574407Y-88219220D01*
X124508272Y-88196682D01*
X124469234Y-88151628D01*
X124421861Y-88058652D01*
X124301582Y-87893105D01*
X124301582Y-87893104D01*
X124156895Y-87748417D01*
X123991349Y-87628140D01*
X123809029Y-87535244D01*
X123614413Y-87472009D01*
X123560000Y-87463390D01*
X123560000Y-88306988D01*
X123502993Y-88274075D01*
X123375826Y-88240000D01*
X123244174Y-88240000D01*
X123117007Y-88274075D01*
X123060000Y-88306988D01*
X123060000Y-87463390D01*
X123005586Y-87472009D01*
X122810970Y-87535244D01*
X122628650Y-87628140D01*
X122463105Y-87748417D01*
X122463104Y-87748417D01*
X122318417Y-87893104D01*
X122318417Y-87893105D01*
X122198140Y-88058650D01*
X122150765Y-88151629D01*
X122102790Y-88202425D01*
X122034969Y-88219220D01*
X121968834Y-88196682D01*
X121929795Y-88151629D01*
X121903743Y-88100500D01*
X121882287Y-88058390D01*
X121840477Y-88000843D01*
X121761971Y-87892786D01*
X121617213Y-87748028D01*
X121451613Y-87627715D01*
X121451612Y-87627714D01*
X121451610Y-87627713D01*
X121394653Y-87598691D01*
X121269223Y-87534781D01*
X121074534Y-87471522D01*
X120899995Y-87443878D01*
X120872352Y-87439500D01*
X120667648Y-87439500D01*
X120643329Y-87443351D01*
X120465465Y-87471522D01*
X120270776Y-87534781D01*
X120088386Y-87627715D01*
X119922786Y-87748028D01*
X119778028Y-87892786D01*
X119657715Y-88058386D01*
X119610485Y-88151080D01*
X119562510Y-88201876D01*
X119494689Y-88218671D01*
X119428554Y-88196134D01*
X119389515Y-88151080D01*
X119367598Y-88108066D01*
X119342287Y-88058390D01*
X119300477Y-88000843D01*
X119221971Y-87892786D01*
X119077213Y-87748028D01*
X118911613Y-87627715D01*
X118911612Y-87627714D01*
X118911610Y-87627713D01*
X118854653Y-87598691D01*
X118729223Y-87534781D01*
X118534534Y-87471522D01*
X118359995Y-87443878D01*
X118332352Y-87439500D01*
X118127648Y-87439500D01*
X118103329Y-87443351D01*
X117925465Y-87471522D01*
X117730776Y-87534781D01*
X117548386Y-87627715D01*
X117382786Y-87748028D01*
X117238028Y-87892786D01*
X117117715Y-88058386D01*
X117070485Y-88151080D01*
X117022510Y-88201876D01*
X116954689Y-88218671D01*
X116888554Y-88196134D01*
X116849515Y-88151080D01*
X116827598Y-88108066D01*
X116802287Y-88058390D01*
X116760477Y-88000843D01*
X116681971Y-87892786D01*
X116537213Y-87748028D01*
X116371613Y-87627715D01*
X116371612Y-87627714D01*
X116371610Y-87627713D01*
X116314653Y-87598691D01*
X116189223Y-87534781D01*
X115994534Y-87471522D01*
X115819995Y-87443878D01*
X115792352Y-87439500D01*
X115587648Y-87439500D01*
X115563329Y-87443351D01*
X115385465Y-87471522D01*
X115190776Y-87534781D01*
X115008386Y-87627715D01*
X114842786Y-87748028D01*
X114698028Y-87892786D01*
X114577715Y-88058386D01*
X114530485Y-88151080D01*
X114482510Y-88201876D01*
X114414689Y-88218671D01*
X114348554Y-88196134D01*
X114309515Y-88151080D01*
X114287598Y-88108066D01*
X114262287Y-88058390D01*
X114220477Y-88000843D01*
X114141971Y-87892786D01*
X113997213Y-87748028D01*
X113831613Y-87627715D01*
X113831612Y-87627714D01*
X113831610Y-87627713D01*
X113774653Y-87598691D01*
X113649223Y-87534781D01*
X113454534Y-87471522D01*
X113279995Y-87443878D01*
X113252352Y-87439500D01*
X113047648Y-87439500D01*
X113023329Y-87443351D01*
X112845465Y-87471522D01*
X112650776Y-87534781D01*
X112468386Y-87627715D01*
X112302786Y-87748028D01*
X112158028Y-87892786D01*
X112037715Y-88058386D01*
X111990485Y-88151080D01*
X111942510Y-88201876D01*
X111874689Y-88218671D01*
X111808554Y-88196134D01*
X111769515Y-88151080D01*
X111747598Y-88108066D01*
X111722287Y-88058390D01*
X111680477Y-88000843D01*
X111601971Y-87892786D01*
X111457213Y-87748028D01*
X111291613Y-87627715D01*
X111291612Y-87627714D01*
X111291610Y-87627713D01*
X111234653Y-87598691D01*
X111109223Y-87534781D01*
X110914534Y-87471522D01*
X110739995Y-87443878D01*
X110712352Y-87439500D01*
X110507648Y-87439500D01*
X110483329Y-87443351D01*
X110305465Y-87471522D01*
X110110776Y-87534781D01*
X109928386Y-87627715D01*
X109762786Y-87748028D01*
X109618028Y-87892786D01*
X109497715Y-88058386D01*
X109450485Y-88151080D01*
X109402510Y-88201876D01*
X109334689Y-88218671D01*
X109268554Y-88196134D01*
X109229515Y-88151080D01*
X109207598Y-88108066D01*
X109182287Y-88058390D01*
X109140477Y-88000843D01*
X109061971Y-87892786D01*
X108917213Y-87748028D01*
X108751611Y-87627713D01*
X108668204Y-87585214D01*
X108617409Y-87537239D01*
X108600500Y-87474730D01*
X108600500Y-84298322D01*
X109350001Y-84298322D01*
X109360144Y-84397607D01*
X109413452Y-84558481D01*
X109413457Y-84558492D01*
X109502424Y-84702728D01*
X109502427Y-84702732D01*
X109622267Y-84822572D01*
X109622271Y-84822575D01*
X109766507Y-84911542D01*
X109766518Y-84911547D01*
X109927393Y-84964855D01*
X110026683Y-84974999D01*
X110050000Y-84974998D01*
X110050000Y-84250000D01*
X109350001Y-84250000D01*
X109350001Y-84298322D01*
X108600500Y-84298322D01*
X108600500Y-83701677D01*
X109350000Y-83701677D01*
X109350000Y-83750000D01*
X110050000Y-83750000D01*
X110050000Y-83024999D01*
X110026693Y-83025000D01*
X110026674Y-83025001D01*
X109927392Y-83035144D01*
X109766518Y-83088452D01*
X109766507Y-83088457D01*
X109622271Y-83177424D01*
X109622267Y-83177427D01*
X109502427Y-83297267D01*
X109502424Y-83297271D01*
X109413457Y-83441507D01*
X109413452Y-83441518D01*
X109360144Y-83602393D01*
X109350000Y-83701677D01*
X108600500Y-83701677D01*
X108600500Y-81798322D01*
X109350001Y-81798322D01*
X109360144Y-81897607D01*
X109413452Y-82058481D01*
X109413457Y-82058492D01*
X109502424Y-82202728D01*
X109502427Y-82202732D01*
X109622267Y-82322572D01*
X109622271Y-82322575D01*
X109766507Y-82411542D01*
X109766518Y-82411547D01*
X109927393Y-82464855D01*
X110026683Y-82474999D01*
X110050000Y-82474998D01*
X110050000Y-81750000D01*
X109350001Y-81750000D01*
X109350001Y-81798322D01*
X108600500Y-81798322D01*
X108600500Y-81201677D01*
X109350000Y-81201677D01*
X109350000Y-81250000D01*
X110050000Y-81250000D01*
X110050000Y-80524999D01*
X110026693Y-80525000D01*
X110026674Y-80525001D01*
X109927392Y-80535144D01*
X109766518Y-80588452D01*
X109766507Y-80588457D01*
X109622271Y-80677424D01*
X109622267Y-80677427D01*
X109502427Y-80797267D01*
X109502424Y-80797271D01*
X109413457Y-80941507D01*
X109413452Y-80941518D01*
X109360144Y-81102393D01*
X109350000Y-81201677D01*
X108600500Y-81201677D01*
X108600500Y-80879765D01*
X108620185Y-80812726D01*
X108621398Y-80810874D01*
X108630699Y-80796955D01*
X108709394Y-80679179D01*
X108769737Y-80533497D01*
X108800500Y-80378842D01*
X108800500Y-80221158D01*
X108800500Y-80221155D01*
X108800499Y-80221153D01*
X108780378Y-80120000D01*
X108769737Y-80066503D01*
X108762901Y-80050000D01*
X108709397Y-79920827D01*
X108709390Y-79920814D01*
X108621789Y-79789711D01*
X108621786Y-79789707D01*
X108510292Y-79678213D01*
X108510288Y-79678210D01*
X108379185Y-79590609D01*
X108379172Y-79590602D01*
X108233501Y-79530264D01*
X108233489Y-79530261D01*
X108078845Y-79499500D01*
X108078842Y-79499500D01*
X107921158Y-79499500D01*
X107921155Y-79499500D01*
X107766510Y-79530261D01*
X107766498Y-79530264D01*
X107620827Y-79590602D01*
X107620814Y-79590609D01*
X107489711Y-79678210D01*
X107489707Y-79678213D01*
X107378213Y-79789707D01*
X107378210Y-79789711D01*
X107290609Y-79920814D01*
X107290602Y-79920827D01*
X107230264Y-80066498D01*
X107230261Y-80066510D01*
X107199500Y-80221153D01*
X107199500Y-80378846D01*
X107230261Y-80533489D01*
X107230264Y-80533501D01*
X107290602Y-80679172D01*
X107290609Y-80679185D01*
X107378602Y-80810874D01*
X107399480Y-80877551D01*
X107399500Y-80879765D01*
X107399500Y-87556459D01*
X107379815Y-87623498D01*
X107348385Y-87656777D01*
X107222787Y-87748028D01*
X107222782Y-87748032D01*
X107078028Y-87892786D01*
X106957715Y-88058386D01*
X106910485Y-88151080D01*
X106862510Y-88201876D01*
X106794689Y-88218671D01*
X106728554Y-88196134D01*
X106689515Y-88151080D01*
X106667598Y-88108066D01*
X106642287Y-88058390D01*
X106600477Y-88000843D01*
X106521971Y-87892786D01*
X106377213Y-87748028D01*
X106211610Y-87627712D01*
X106198200Y-87620879D01*
X106147406Y-87572903D01*
X106130500Y-87510397D01*
X106130500Y-80834867D01*
X106150185Y-80767828D01*
X106151398Y-80765976D01*
X106162597Y-80749215D01*
X106209394Y-80679179D01*
X106269737Y-80533497D01*
X106300500Y-80378842D01*
X106300500Y-80221158D01*
X106300500Y-80221155D01*
X106300499Y-80221153D01*
X106280378Y-80120000D01*
X106269737Y-80066503D01*
X106262901Y-80050000D01*
X106209397Y-79920827D01*
X106209390Y-79920814D01*
X106121789Y-79789711D01*
X106121786Y-79789707D01*
X106010292Y-79678213D01*
X106010288Y-79678210D01*
X105879185Y-79590609D01*
X105879172Y-79590602D01*
X105733501Y-79530264D01*
X105733489Y-79530261D01*
X105578845Y-79499500D01*
X105578842Y-79499500D01*
X105421158Y-79499500D01*
X105421155Y-79499500D01*
X105266510Y-79530261D01*
X105266498Y-79530264D01*
X105120827Y-79590602D01*
X105120814Y-79590609D01*
X104989711Y-79678210D01*
X104989707Y-79678213D01*
X104878213Y-79789707D01*
X104878210Y-79789711D01*
X104790609Y-79920814D01*
X104790602Y-79920827D01*
X104730264Y-80066498D01*
X104730261Y-80066510D01*
X104699500Y-80221153D01*
X104699500Y-80378846D01*
X104730261Y-80533489D01*
X104730264Y-80533501D01*
X104790602Y-80679172D01*
X104790609Y-80679185D01*
X104878209Y-80810287D01*
X104878210Y-80810288D01*
X104878211Y-80810289D01*
X104893180Y-80825258D01*
X104926666Y-80886579D01*
X104929500Y-80912940D01*
X104929500Y-87510397D01*
X104909815Y-87577436D01*
X104861800Y-87620879D01*
X104848389Y-87627712D01*
X104682786Y-87748028D01*
X104538028Y-87892786D01*
X104417715Y-88058386D01*
X104370485Y-88151080D01*
X104322510Y-88201876D01*
X104254689Y-88218671D01*
X104188554Y-88196134D01*
X104149515Y-88151080D01*
X104127598Y-88108066D01*
X104102287Y-88058390D01*
X104060477Y-88000843D01*
X103981971Y-87892786D01*
X103837213Y-87748028D01*
X103671610Y-87627712D01*
X103658200Y-87620879D01*
X103607406Y-87572903D01*
X103590500Y-87510397D01*
X103590500Y-80892783D01*
X103610185Y-80825744D01*
X103618647Y-80814118D01*
X103621789Y-80810289D01*
X103709390Y-80679185D01*
X103709390Y-80679184D01*
X103709394Y-80679179D01*
X103769737Y-80533497D01*
X103800500Y-80378842D01*
X103800500Y-80221158D01*
X103800500Y-80221155D01*
X103800499Y-80221153D01*
X103780378Y-80120000D01*
X103769737Y-80066503D01*
X103762901Y-80050000D01*
X103709397Y-79920827D01*
X103709390Y-79920814D01*
X103621789Y-79789711D01*
X103621786Y-79789707D01*
X103510292Y-79678213D01*
X103510288Y-79678210D01*
X103379185Y-79590609D01*
X103379172Y-79590602D01*
X103233501Y-79530264D01*
X103233489Y-79530261D01*
X103078845Y-79499500D01*
X103078842Y-79499500D01*
X102921158Y-79499500D01*
X102921155Y-79499500D01*
X102766510Y-79530261D01*
X102766507Y-79530261D01*
X102671952Y-79569427D01*
X102602482Y-79576895D01*
X102540003Y-79545619D01*
X102504351Y-79485530D01*
X102500500Y-79454865D01*
X102500500Y-78831582D01*
X109350001Y-78831582D01*
X109356408Y-78902102D01*
X109356409Y-78902107D01*
X109406981Y-79064396D01*
X109494927Y-79209877D01*
X109615122Y-79330072D01*
X109760604Y-79418019D01*
X109760603Y-79418019D01*
X109922894Y-79468590D01*
X109922893Y-79468590D01*
X109993408Y-79474998D01*
X109993426Y-79474999D01*
X109999999Y-79474998D01*
X110000000Y-79474998D01*
X110000000Y-78750000D01*
X109350001Y-78750000D01*
X109350001Y-78831582D01*
X102500500Y-78831582D01*
X102500500Y-78168427D01*
X109350000Y-78168427D01*
X109350000Y-78250000D01*
X110000000Y-78250000D01*
X110000000Y-77525000D01*
X109999999Y-77524999D01*
X109993436Y-77525000D01*
X109993417Y-77525001D01*
X109922897Y-77531408D01*
X109922892Y-77531409D01*
X109760603Y-77581981D01*
X109615122Y-77669927D01*
X109494927Y-77790122D01*
X109406980Y-77935604D01*
X109356409Y-78097893D01*
X109350000Y-78168427D01*
X102500500Y-78168427D01*
X102500500Y-76989060D01*
X102500501Y-76989047D01*
X102500501Y-76820944D01*
X102496838Y-76807274D01*
X102459577Y-76668216D01*
X102432814Y-76621860D01*
X102380524Y-76531290D01*
X102380518Y-76531282D01*
X100794349Y-74945113D01*
X100760864Y-74883790D01*
X100765848Y-74814098D01*
X100807720Y-74758165D01*
X100843710Y-74739501D01*
X100949219Y-74705220D01*
X101131610Y-74612287D01*
X101239416Y-74533962D01*
X101297213Y-74491971D01*
X101297215Y-74491968D01*
X101297219Y-74491966D01*
X101441966Y-74347219D01*
X101441968Y-74347215D01*
X101441971Y-74347213D01*
X101562284Y-74181614D01*
X101562286Y-74181611D01*
X101562287Y-74181610D01*
X101609516Y-74088917D01*
X101657489Y-74038123D01*
X101725310Y-74021328D01*
X101791445Y-74043865D01*
X101830485Y-74088919D01*
X101877715Y-74181614D01*
X101998028Y-74347213D01*
X102142786Y-74491971D01*
X102279011Y-74590942D01*
X102308390Y-74612287D01*
X102397212Y-74657544D01*
X102490776Y-74705218D01*
X102490778Y-74705218D01*
X102490781Y-74705220D01*
X102593871Y-74738716D01*
X102685465Y-74768477D01*
X102741828Y-74777404D01*
X102887648Y-74800500D01*
X102887649Y-74800500D01*
X103092351Y-74800500D01*
X103092352Y-74800500D01*
X103294534Y-74768477D01*
X103489219Y-74705220D01*
X103671610Y-74612287D01*
X103779416Y-74533962D01*
X103837213Y-74491971D01*
X103837215Y-74491968D01*
X103837219Y-74491966D01*
X103981966Y-74347219D01*
X103981968Y-74347215D01*
X103981971Y-74347213D01*
X104102284Y-74181614D01*
X104102286Y-74181611D01*
X104102287Y-74181610D01*
X104149516Y-74088917D01*
X104197489Y-74038123D01*
X104265310Y-74021328D01*
X104331445Y-74043865D01*
X104370485Y-74088919D01*
X104417715Y-74181614D01*
X104538028Y-74347213D01*
X104682786Y-74491971D01*
X104819011Y-74590942D01*
X104848390Y-74612287D01*
X104937212Y-74657544D01*
X105030776Y-74705218D01*
X105030778Y-74705218D01*
X105030781Y-74705220D01*
X105133871Y-74738716D01*
X105225465Y-74768477D01*
X105281828Y-74777404D01*
X105427648Y-74800500D01*
X105427649Y-74800500D01*
X105632351Y-74800500D01*
X105632352Y-74800500D01*
X105715766Y-74787288D01*
X105785059Y-74796242D01*
X105822845Y-74822080D01*
X107865139Y-76864374D01*
X107865149Y-76864385D01*
X107869479Y-76868715D01*
X107869480Y-76868716D01*
X107981284Y-76980520D01*
X108068095Y-77030639D01*
X108068097Y-77030641D01*
X108103202Y-77050909D01*
X108118215Y-77059577D01*
X108270942Y-77100500D01*
X108270943Y-77100500D01*
X114376427Y-77100500D01*
X114443466Y-77120185D01*
X114489221Y-77172989D01*
X114499165Y-77242147D01*
X114470140Y-77305703D01*
X114451352Y-77323304D01*
X114387058Y-77372058D01*
X114301435Y-77484970D01*
X114301432Y-77484976D01*
X114249449Y-77616795D01*
X114249447Y-77616800D01*
X114239500Y-77699637D01*
X114239500Y-77775500D01*
X114219815Y-77842539D01*
X114167011Y-77888294D01*
X114115500Y-77899500D01*
X112791715Y-77899500D01*
X112724676Y-77879815D01*
X112685598Y-77839650D01*
X112684258Y-77837433D01*
X112655472Y-77789815D01*
X112655470Y-77789813D01*
X112655469Y-77789811D01*
X112535188Y-77669530D01*
X112389606Y-77581522D01*
X112362222Y-77572989D01*
X112227196Y-77530914D01*
X112227194Y-77530913D01*
X112227192Y-77530913D01*
X112177778Y-77526423D01*
X112156616Y-77524500D01*
X111643384Y-77524500D01*
X111624145Y-77526248D01*
X111572807Y-77530913D01*
X111410393Y-77581522D01*
X111264811Y-77669530D01*
X111264810Y-77669531D01*
X111162327Y-77772015D01*
X111101004Y-77805500D01*
X111031312Y-77800516D01*
X110986965Y-77772015D01*
X110884877Y-77669927D01*
X110739395Y-77581980D01*
X110739396Y-77581980D01*
X110577105Y-77531409D01*
X110577106Y-77531409D01*
X110506572Y-77525000D01*
X110500000Y-77525000D01*
X110500000Y-79474999D01*
X110506581Y-79474999D01*
X110577102Y-79468591D01*
X110577107Y-79468590D01*
X110739396Y-79418018D01*
X110884877Y-79330072D01*
X110884878Y-79330071D01*
X110986963Y-79227985D01*
X111048286Y-79194499D01*
X111117977Y-79199483D01*
X111162326Y-79227984D01*
X111264811Y-79330469D01*
X111264813Y-79330470D01*
X111264815Y-79330472D01*
X111410394Y-79418478D01*
X111572804Y-79469086D01*
X111643384Y-79475500D01*
X111643387Y-79475500D01*
X112156613Y-79475500D01*
X112156616Y-79475500D01*
X112227196Y-79469086D01*
X112389606Y-79418478D01*
X112535185Y-79330472D01*
X112655472Y-79210185D01*
X112685598Y-79160349D01*
X112737126Y-79113162D01*
X112791715Y-79100500D01*
X114115500Y-79100500D01*
X114124185Y-79103050D01*
X114133147Y-79101762D01*
X114157187Y-79112740D01*
X114182539Y-79120185D01*
X114188466Y-79127025D01*
X114196703Y-79130787D01*
X114210992Y-79153021D01*
X114228294Y-79172989D01*
X114230581Y-79183503D01*
X114234477Y-79189565D01*
X114239500Y-79224500D01*
X114239500Y-79229616D01*
X114219815Y-79296655D01*
X114189812Y-79328882D01*
X114137814Y-79367807D01*
X114137808Y-79367814D01*
X114051649Y-79482906D01*
X114051645Y-79482913D01*
X114001403Y-79617620D01*
X114001401Y-79617627D01*
X113995000Y-79677155D01*
X113995000Y-80950000D01*
X119895000Y-80950000D01*
X119895000Y-79677172D01*
X119894999Y-79677155D01*
X119888598Y-79617627D01*
X119888596Y-79617620D01*
X119838354Y-79482913D01*
X119838352Y-79482911D01*
X119752190Y-79367813D01*
X119752185Y-79367808D01*
X119699688Y-79328508D01*
X119657817Y-79272574D01*
X119649999Y-79229242D01*
X119649999Y-78750000D01*
X118974000Y-78750000D01*
X118906961Y-78730315D01*
X118861206Y-78677511D01*
X118850000Y-78626000D01*
X118850000Y-78500000D01*
X118724000Y-78500000D01*
X118656961Y-78480315D01*
X118611206Y-78427511D01*
X118600000Y-78376000D01*
X118600000Y-78250000D01*
X119100000Y-78250000D01*
X119649999Y-78250000D01*
X119649999Y-77699688D01*
X119640061Y-77616921D01*
X119588125Y-77485219D01*
X119588124Y-77485217D01*
X119502584Y-77372415D01*
X119389782Y-77286875D01*
X119389780Y-77286874D01*
X119258081Y-77234939D01*
X119258077Y-77234938D01*
X119175319Y-77225000D01*
X119100000Y-77225000D01*
X119100000Y-78250000D01*
X118600000Y-78250000D01*
X118600000Y-77225000D01*
X118599999Y-77224999D01*
X118524687Y-77225000D01*
X118441921Y-77234938D01*
X118310221Y-77286873D01*
X118290335Y-77301953D01*
X118225022Y-77326773D01*
X118168050Y-77317744D01*
X118153248Y-77311626D01*
X118120027Y-77286434D01*
X117988200Y-77234448D01*
X117957626Y-77230775D01*
X117941921Y-77224285D01*
X117927405Y-77212606D01*
X117910283Y-77205263D01*
X117901603Y-77197368D01*
X117214416Y-76510181D01*
X117180931Y-76448858D01*
X117185915Y-76379166D01*
X117227787Y-76323233D01*
X117293251Y-76298816D01*
X117302097Y-76298500D01*
X118897903Y-76298500D01*
X118964942Y-76318185D01*
X118985583Y-76334818D01*
X119431284Y-76780520D01*
X119431286Y-76780521D01*
X119431290Y-76780524D01*
X119501299Y-76820943D01*
X119568216Y-76859577D01*
X119720943Y-76900501D01*
X119720945Y-76900501D01*
X119886654Y-76900501D01*
X119886670Y-76900500D01*
X122398218Y-76900500D01*
X122465257Y-76920185D01*
X122511012Y-76972989D01*
X122520956Y-77042147D01*
X122491931Y-77105703D01*
X122472529Y-77123766D01*
X122387455Y-77187452D01*
X122387452Y-77187455D01*
X122301206Y-77302664D01*
X122301202Y-77302671D01*
X122250908Y-77437517D01*
X122244501Y-77497116D01*
X122244500Y-77497135D01*
X122244500Y-79502870D01*
X122244501Y-79502876D01*
X122250908Y-79562483D01*
X122301202Y-79697328D01*
X122301206Y-79697335D01*
X122387452Y-79812544D01*
X122387455Y-79812547D01*
X122502664Y-79898793D01*
X122502671Y-79898797D01*
X122547618Y-79915561D01*
X122637517Y-79949091D01*
X122697127Y-79955500D01*
X122907693Y-79955499D01*
X122974730Y-79975183D01*
X122995372Y-79991818D01*
X123463992Y-80460438D01*
X123399215Y-80487271D01*
X123295211Y-80556764D01*
X123206764Y-80645211D01*
X123137271Y-80749215D01*
X123110439Y-80813992D01*
X122509557Y-80213110D01*
X122455571Y-80287417D01*
X122351600Y-80491471D01*
X122280826Y-80709290D01*
X122245000Y-80935489D01*
X122245000Y-81164510D01*
X122280826Y-81390709D01*
X122351600Y-81608528D01*
X122455575Y-81812589D01*
X122509556Y-81886888D01*
X122509557Y-81886889D01*
X123110439Y-81286007D01*
X123137271Y-81350785D01*
X123206764Y-81454789D01*
X123295211Y-81543236D01*
X123399215Y-81612729D01*
X123463991Y-81639560D01*
X122863109Y-82240441D01*
X122864215Y-82254490D01*
X122883657Y-82279703D01*
X122889636Y-82349316D01*
X122857030Y-82411111D01*
X122840992Y-82425008D01*
X122751806Y-82489805D01*
X122589805Y-82651806D01*
X122589801Y-82651811D01*
X122455147Y-82837148D01*
X122351136Y-83041277D01*
X122280338Y-83259169D01*
X122244500Y-83485444D01*
X122244500Y-83714555D01*
X122280338Y-83940830D01*
X122351136Y-84158722D01*
X122457357Y-84367189D01*
X122455804Y-84367979D01*
X122472078Y-84428174D01*
X122450952Y-84494773D01*
X122397174Y-84539379D01*
X122348107Y-84549500D01*
X120612230Y-84549500D01*
X120545191Y-84529815D01*
X120524549Y-84513181D01*
X119686819Y-83675451D01*
X119653334Y-83614128D01*
X119650500Y-83587770D01*
X119650500Y-83170382D01*
X119670185Y-83103343D01*
X119700190Y-83071115D01*
X119752187Y-83032190D01*
X119752190Y-83032186D01*
X119838352Y-82917088D01*
X119838354Y-82917086D01*
X119888596Y-82782379D01*
X119888598Y-82782372D01*
X119894999Y-82722844D01*
X119895000Y-82722827D01*
X119895000Y-81450000D01*
X113995000Y-81450000D01*
X113995000Y-82722844D01*
X114001401Y-82782372D01*
X114001403Y-82782379D01*
X114051645Y-82917086D01*
X114051647Y-82917088D01*
X114137809Y-83032186D01*
X114143438Y-83037815D01*
X114176925Y-83099137D01*
X114171944Y-83168829D01*
X114130075Y-83224764D01*
X114064611Y-83249184D01*
X114055760Y-83249500D01*
X112724500Y-83249500D01*
X112657461Y-83229815D01*
X112611706Y-83177011D01*
X112600500Y-83125500D01*
X112600500Y-82301874D01*
X112620185Y-82234835D01*
X112636819Y-82214193D01*
X112638440Y-82212572D01*
X112647968Y-82203044D01*
X112737003Y-82058697D01*
X112790349Y-81897708D01*
X112800500Y-81798345D01*
X112800499Y-81201656D01*
X112790349Y-81102292D01*
X112737003Y-80941303D01*
X112736999Y-80941297D01*
X112736998Y-80941294D01*
X112647970Y-80796959D01*
X112647967Y-80796955D01*
X112528044Y-80677032D01*
X112528040Y-80677029D01*
X112383705Y-80588001D01*
X112383699Y-80587998D01*
X112383697Y-80587997D01*
X112349484Y-80576660D01*
X112222709Y-80534651D01*
X112123346Y-80524500D01*
X111576662Y-80524500D01*
X111576644Y-80524501D01*
X111477292Y-80534650D01*
X111477289Y-80534651D01*
X111316305Y-80587996D01*
X111316294Y-80588001D01*
X111171959Y-80677029D01*
X111171953Y-80677033D01*
X111162324Y-80686663D01*
X111101000Y-80720146D01*
X111031308Y-80715159D01*
X110986965Y-80686660D01*
X110977732Y-80677427D01*
X110977728Y-80677424D01*
X110833492Y-80588457D01*
X110833481Y-80588452D01*
X110672606Y-80535144D01*
X110573322Y-80525000D01*
X110550000Y-80525000D01*
X110550000Y-82474999D01*
X110573308Y-82474999D01*
X110573322Y-82474998D01*
X110672607Y-82464855D01*
X110833481Y-82411547D01*
X110833488Y-82411544D01*
X110910402Y-82364102D01*
X110977794Y-82345661D01*
X111044458Y-82366583D01*
X111089228Y-82420224D01*
X111099500Y-82469640D01*
X111099500Y-83030359D01*
X111079815Y-83097398D01*
X111027011Y-83143153D01*
X110957853Y-83153097D01*
X110910403Y-83135897D01*
X110833492Y-83088457D01*
X110833481Y-83088452D01*
X110672606Y-83035144D01*
X110573322Y-83025000D01*
X110550000Y-83025000D01*
X110550000Y-84974999D01*
X110573308Y-84974999D01*
X110573322Y-84974998D01*
X110672607Y-84964855D01*
X110833481Y-84911547D01*
X110833492Y-84911542D01*
X110977731Y-84822573D01*
X110986959Y-84813345D01*
X111048279Y-84779856D01*
X111117971Y-84784835D01*
X111162327Y-84813339D01*
X111171955Y-84822967D01*
X111171959Y-84822970D01*
X111316294Y-84911998D01*
X111316297Y-84911999D01*
X111316303Y-84912003D01*
X111477292Y-84965349D01*
X111576655Y-84975500D01*
X112123344Y-84975499D01*
X112123352Y-84975498D01*
X112123355Y-84975498D01*
X112177760Y-84969940D01*
X112222708Y-84965349D01*
X112383697Y-84912003D01*
X112528044Y-84822968D01*
X112564193Y-84786819D01*
X112591120Y-84772115D01*
X112616939Y-84755523D01*
X112623139Y-84754631D01*
X112625516Y-84753334D01*
X112651874Y-84750500D01*
X112782351Y-84750500D01*
X112849390Y-84770185D01*
X112895145Y-84822989D01*
X112905089Y-84892147D01*
X112903969Y-84898690D01*
X112899500Y-84921158D01*
X112899500Y-85078846D01*
X112930261Y-85233489D01*
X112930264Y-85233501D01*
X112990602Y-85379172D01*
X112990609Y-85379185D01*
X113078210Y-85510288D01*
X113078213Y-85510292D01*
X113189707Y-85621786D01*
X113189711Y-85621789D01*
X113320814Y-85709390D01*
X113320827Y-85709397D01*
X113420060Y-85750500D01*
X113466503Y-85769737D01*
X113614708Y-85799217D01*
X113621153Y-85800499D01*
X113621156Y-85800500D01*
X113621158Y-85800500D01*
X113778844Y-85800500D01*
X113778845Y-85800499D01*
X113855152Y-85785320D01*
X113933488Y-85769739D01*
X113933489Y-85769738D01*
X113933497Y-85769737D01*
X113957155Y-85759937D01*
X114004604Y-85750500D01*
X114013920Y-85750500D01*
X114112487Y-85730893D01*
X114158913Y-85721658D01*
X114295495Y-85665084D01*
X114367458Y-85617000D01*
X114418416Y-85582952D01*
X114789549Y-85211819D01*
X114850872Y-85178334D01*
X114877230Y-85175500D01*
X115365363Y-85175500D01*
X115406781Y-85170526D01*
X115448200Y-85165552D01*
X115522005Y-85136447D01*
X115582356Y-85112648D01*
X115651943Y-85106366D01*
X115713879Y-85138703D01*
X115723690Y-85149326D01*
X115727044Y-85153412D01*
X117556580Y-86982948D01*
X117556584Y-86982951D01*
X117679498Y-87065080D01*
X117679511Y-87065087D01*
X117816082Y-87121656D01*
X117816087Y-87121658D01*
X117816091Y-87121658D01*
X117816092Y-87121659D01*
X117961079Y-87150500D01*
X117961082Y-87150500D01*
X118108917Y-87150500D01*
X130875500Y-87150500D01*
X130942539Y-87170185D01*
X130988294Y-87222989D01*
X130999500Y-87274500D01*
X130999501Y-88217500D01*
X130999501Y-88217519D01*
X131010000Y-88320296D01*
X131010001Y-88320299D01*
X131034759Y-88395012D01*
X131065186Y-88486834D01*
X131157288Y-88636156D01*
X131281344Y-88760212D01*
X131430666Y-88852314D01*
X131597203Y-88907499D01*
X131699991Y-88918000D01*
X133300008Y-88917999D01*
X133402797Y-88907499D01*
X133569334Y-88852314D01*
X133718656Y-88760212D01*
X133842712Y-88636156D01*
X133872512Y-88587841D01*
X133924458Y-88541118D01*
X133993420Y-88529895D01*
X134057503Y-88557738D01*
X134058758Y-88558885D01*
X134058786Y-88558853D01*
X134062481Y-88562008D01*
X134062490Y-88562017D01*
X134253567Y-88700843D01*
X134335736Y-88742710D01*
X134464003Y-88808066D01*
X134464005Y-88808066D01*
X134464008Y-88808068D01*
X134569520Y-88842351D01*
X134688631Y-88881053D01*
X134921903Y-88918000D01*
X134921908Y-88918000D01*
X135158097Y-88918000D01*
X135391368Y-88881053D01*
X135445227Y-88863553D01*
X135615992Y-88808068D01*
X135826433Y-88700843D01*
X136017510Y-88562017D01*
X136184517Y-88395010D01*
X136323343Y-88203933D01*
X136430568Y-87993492D01*
X136503553Y-87768868D01*
X136515252Y-87695006D01*
X136540500Y-87535597D01*
X136540500Y-87299402D01*
X136503553Y-87066131D01*
X136430566Y-86841503D01*
X136347761Y-86678991D01*
X136323343Y-86631067D01*
X136184517Y-86439990D01*
X136017510Y-86272983D01*
X135826433Y-86134157D01*
X135793742Y-86117500D01*
X135615996Y-86026933D01*
X135391368Y-85953946D01*
X135158097Y-85917000D01*
X135158092Y-85917000D01*
X134921908Y-85917000D01*
X134921903Y-85917000D01*
X134707165Y-85951011D01*
X134637871Y-85942056D01*
X134600086Y-85916219D01*
X133400921Y-84717052D01*
X133400914Y-84717046D01*
X133323145Y-84665083D01*
X133323145Y-84665084D01*
X133277995Y-84634916D01*
X133277992Y-84634914D01*
X133277991Y-84634914D01*
X133141417Y-84578343D01*
X133141407Y-84578340D01*
X132996420Y-84549500D01*
X132996418Y-84549500D01*
X125051893Y-84549500D01*
X124984854Y-84529815D01*
X124939099Y-84477011D01*
X124929155Y-84407853D01*
X124943641Y-84367697D01*
X124942643Y-84367189D01*
X125048863Y-84158722D01*
X125048863Y-84158721D01*
X125048865Y-84158718D01*
X125119661Y-83940830D01*
X125125600Y-83903334D01*
X125155500Y-83714555D01*
X125155500Y-83485444D01*
X125119661Y-83259169D01*
X125048863Y-83041277D01*
X125002960Y-82951189D01*
X124944855Y-82837152D01*
X124905055Y-82782372D01*
X124810198Y-82651811D01*
X124810194Y-82651806D01*
X124648195Y-82489807D01*
X124593405Y-82450000D01*
X124559005Y-82425007D01*
X124516341Y-82369679D01*
X124510362Y-82300066D01*
X124536024Y-82251428D01*
X124536889Y-82240441D01*
X123936008Y-81639560D01*
X124000785Y-81612729D01*
X124104789Y-81543236D01*
X124193236Y-81454789D01*
X124262729Y-81350785D01*
X124289560Y-81286008D01*
X124890441Y-81886889D01*
X124890441Y-81886888D01*
X124944426Y-81812584D01*
X124944430Y-81812578D01*
X125048399Y-81608528D01*
X125119173Y-81390709D01*
X125155000Y-81164510D01*
X125155000Y-80935489D01*
X125119173Y-80709290D01*
X125048399Y-80491471D01*
X124944426Y-80287413D01*
X124890441Y-80213110D01*
X124890441Y-80213109D01*
X124289560Y-80813990D01*
X124262729Y-80749215D01*
X124193236Y-80645211D01*
X124104789Y-80556764D01*
X124000785Y-80487271D01*
X123936007Y-80460438D01*
X124404628Y-79991818D01*
X124465951Y-79958333D01*
X124492308Y-79955499D01*
X124702872Y-79955499D01*
X124762483Y-79949091D01*
X124897331Y-79898796D01*
X125012546Y-79812546D01*
X125098796Y-79697331D01*
X125149091Y-79562483D01*
X125155500Y-79502873D01*
X125155499Y-77504095D01*
X125175184Y-77437057D01*
X125227987Y-77391302D01*
X125297146Y-77381358D01*
X125360702Y-77410383D01*
X125367180Y-77416415D01*
X131715139Y-83764374D01*
X131715149Y-83764385D01*
X131719479Y-83768715D01*
X131719480Y-83768716D01*
X131831284Y-83880520D01*
X131910202Y-83926083D01*
X131968215Y-83959577D01*
X132120942Y-84000500D01*
X132120943Y-84000500D01*
X135799903Y-84000500D01*
X135866942Y-84020185D01*
X135887584Y-84036819D01*
X137763181Y-85912416D01*
X137796666Y-85973739D01*
X137799500Y-86000097D01*
X137799500Y-87400001D01*
X137799501Y-87400018D01*
X137810000Y-87502796D01*
X137810001Y-87502799D01*
X137865185Y-87669331D01*
X137865187Y-87669336D01*
X137897460Y-87721659D01*
X137957288Y-87818656D01*
X138081344Y-87942712D01*
X138230666Y-88034814D01*
X138397203Y-88089999D01*
X138499991Y-88100500D01*
X140100008Y-88100499D01*
X140202797Y-88089999D01*
X140369334Y-88034814D01*
X140518656Y-87942712D01*
X140642712Y-87818656D01*
X140734814Y-87669334D01*
X140789999Y-87502797D01*
X140800500Y-87400009D01*
X140800499Y-87337305D01*
X140820183Y-87270269D01*
X140836818Y-87249626D01*
X141275387Y-86811058D01*
X141280889Y-86831591D01*
X141359881Y-86968408D01*
X141471592Y-87080119D01*
X141608409Y-87159111D01*
X141628940Y-87164612D01*
X140970893Y-87822658D01*
X141053828Y-87882914D01*
X141264197Y-87990102D01*
X141488752Y-88063065D01*
X141488751Y-88063065D01*
X141721948Y-88100000D01*
X141958052Y-88100000D01*
X142191247Y-88063065D01*
X142415802Y-87990102D01*
X142626163Y-87882918D01*
X142626169Y-87882914D01*
X142709104Y-87822658D01*
X142709105Y-87822658D01*
X142051058Y-87164612D01*
X142071591Y-87159111D01*
X142208408Y-87080119D01*
X142320119Y-86968408D01*
X142399111Y-86831591D01*
X142404612Y-86811059D01*
X143062657Y-87469104D01*
X143082404Y-87467550D01*
X143150781Y-87481914D01*
X143192452Y-87518283D01*
X143220188Y-87556459D01*
X143235483Y-87577510D01*
X143402490Y-87744517D01*
X143593567Y-87883343D01*
X143627275Y-87900518D01*
X143804003Y-87990566D01*
X143804005Y-87990566D01*
X143804008Y-87990568D01*
X143924412Y-88029689D01*
X144028631Y-88063553D01*
X144261903Y-88100500D01*
X144261908Y-88100500D01*
X144498097Y-88100500D01*
X144731368Y-88063553D01*
X144732870Y-88063065D01*
X144955992Y-87990568D01*
X145166433Y-87883343D01*
X145357510Y-87744517D01*
X145524517Y-87577510D01*
X145663343Y-87386433D01*
X145770568Y-87175992D01*
X145843553Y-86951368D01*
X145860954Y-86841503D01*
X145880500Y-86718097D01*
X145880500Y-86481902D01*
X145843553Y-86248631D01*
X145784288Y-86066235D01*
X145770568Y-86024008D01*
X145770566Y-86024005D01*
X145770566Y-86024003D01*
X145712478Y-85910000D01*
X145663343Y-85813567D01*
X145524517Y-85622490D01*
X145357510Y-85455483D01*
X145166433Y-85316657D01*
X144955996Y-85209433D01*
X144731368Y-85136446D01*
X144498097Y-85099500D01*
X144498092Y-85099500D01*
X144261908Y-85099500D01*
X144261903Y-85099500D01*
X144028631Y-85136446D01*
X143804003Y-85209433D01*
X143593566Y-85316657D01*
X143568924Y-85334561D01*
X143402490Y-85455483D01*
X143402488Y-85455485D01*
X143402487Y-85455485D01*
X143235482Y-85622490D01*
X143192451Y-85681717D01*
X143137120Y-85724382D01*
X143082405Y-85732448D01*
X143062658Y-85730893D01*
X142404612Y-86388940D01*
X142399111Y-86368409D01*
X142320119Y-86231592D01*
X142208408Y-86119881D01*
X142071591Y-86040889D01*
X142051059Y-86035387D01*
X142709105Y-85377340D01*
X142709104Y-85377338D01*
X142626174Y-85317087D01*
X142415802Y-85209897D01*
X142191247Y-85136934D01*
X142191248Y-85136934D01*
X141958052Y-85100000D01*
X141721948Y-85100000D01*
X141488752Y-85136934D01*
X141264197Y-85209897D01*
X141053830Y-85317084D01*
X140970894Y-85377340D01*
X141628941Y-86035387D01*
X141608409Y-86040889D01*
X141471592Y-86119881D01*
X141359881Y-86231592D01*
X141280889Y-86368409D01*
X141275387Y-86388941D01*
X140836818Y-85950372D01*
X140803333Y-85889049D01*
X140800499Y-85862691D01*
X140800499Y-85799998D01*
X140800498Y-85799981D01*
X140789999Y-85697203D01*
X140789998Y-85697200D01*
X140765996Y-85624767D01*
X140734814Y-85530666D01*
X140642712Y-85381344D01*
X140518656Y-85257288D01*
X140390665Y-85178343D01*
X140369336Y-85165187D01*
X140369331Y-85165185D01*
X140367862Y-85164698D01*
X140202797Y-85110001D01*
X140202795Y-85110000D01*
X140100016Y-85099500D01*
X140100009Y-85099500D01*
X138700097Y-85099500D01*
X138633058Y-85079815D01*
X138612416Y-85063181D01*
X136587590Y-83038355D01*
X136587588Y-83038352D01*
X136468717Y-82919481D01*
X136468709Y-82919475D01*
X136366165Y-82860272D01*
X136366164Y-82860271D01*
X136366164Y-82860272D01*
X136331785Y-82840423D01*
X136179057Y-82799499D01*
X136020943Y-82799499D01*
X136013347Y-82799499D01*
X136013331Y-82799500D01*
X132500097Y-82799500D01*
X132433058Y-82779815D01*
X132412416Y-82763181D01*
X129135050Y-79485815D01*
X131900000Y-79485815D01*
X131900000Y-80050000D01*
X133032096Y-80050000D01*
X133000000Y-80211358D01*
X133000000Y-80388642D01*
X133032096Y-80550000D01*
X131900001Y-80550000D01*
X131900001Y-81114197D01*
X131910400Y-81246332D01*
X131965377Y-81464519D01*
X132058428Y-81669374D01*
X132058431Y-81669380D01*
X132186559Y-81854323D01*
X132186569Y-81854335D01*
X132345664Y-82013430D01*
X132345676Y-82013440D01*
X132530619Y-82141568D01*
X132530625Y-82141571D01*
X132735480Y-82234622D01*
X132953667Y-82289599D01*
X133085810Y-82299999D01*
X133649999Y-82299999D01*
X133650000Y-82299998D01*
X133650000Y-81167904D01*
X133811358Y-81200000D01*
X133988642Y-81200000D01*
X134150000Y-81167904D01*
X134150000Y-82299999D01*
X134714182Y-82299999D01*
X134714197Y-82299998D01*
X134846332Y-82289599D01*
X135064519Y-82234622D01*
X135269374Y-82141571D01*
X135269380Y-82141568D01*
X135454323Y-82013440D01*
X135454335Y-82013430D01*
X135613430Y-81854335D01*
X135613440Y-81854323D01*
X135741568Y-81669380D01*
X135741571Y-81669374D01*
X135834622Y-81464519D01*
X135889599Y-81246332D01*
X135899999Y-81114196D01*
X135900000Y-81114184D01*
X135900000Y-80550000D01*
X134767904Y-80550000D01*
X134800000Y-80388642D01*
X134800000Y-80211358D01*
X134767904Y-80050000D01*
X135899999Y-80050000D01*
X135899999Y-79627135D01*
X140819224Y-79627135D01*
X140819224Y-82172870D01*
X140819225Y-82172876D01*
X140825632Y-82232483D01*
X140875926Y-82367328D01*
X140875930Y-82367335D01*
X140962176Y-82482544D01*
X140962179Y-82482547D01*
X141077388Y-82568793D01*
X141077395Y-82568797D01*
X141212241Y-82619091D01*
X141212240Y-82619091D01*
X141219168Y-82619835D01*
X141271851Y-82625500D01*
X143817596Y-82625499D01*
X143877207Y-82619091D01*
X144012055Y-82568796D01*
X144127270Y-82482546D01*
X144213520Y-82367331D01*
X144263815Y-82232483D01*
X144270224Y-82172873D01*
X144270223Y-79627128D01*
X144263815Y-79567517D01*
X144261937Y-79562483D01*
X144213521Y-79432671D01*
X144213517Y-79432664D01*
X144127271Y-79317455D01*
X144127268Y-79317452D01*
X144012059Y-79231206D01*
X144012052Y-79231202D01*
X143877206Y-79180908D01*
X143877207Y-79180908D01*
X143817607Y-79174501D01*
X143817605Y-79174500D01*
X143817597Y-79174500D01*
X143817588Y-79174500D01*
X141271853Y-79174500D01*
X141271847Y-79174501D01*
X141212240Y-79180908D01*
X141077395Y-79231202D01*
X141077388Y-79231206D01*
X140962179Y-79317452D01*
X140962176Y-79317455D01*
X140875930Y-79432664D01*
X140875926Y-79432671D01*
X140825632Y-79567517D01*
X140820246Y-79617620D01*
X140819225Y-79627123D01*
X140819224Y-79627135D01*
X135899999Y-79627135D01*
X135899999Y-79485817D01*
X135899998Y-79485797D01*
X135889599Y-79353667D01*
X135834622Y-79135480D01*
X135741571Y-78930625D01*
X135741568Y-78930619D01*
X135613440Y-78745676D01*
X135613430Y-78745664D01*
X135454335Y-78586569D01*
X135454323Y-78586559D01*
X135269380Y-78458431D01*
X135269374Y-78458428D01*
X135064519Y-78365377D01*
X134846332Y-78310400D01*
X134714196Y-78300000D01*
X134150000Y-78300000D01*
X134150000Y-79432095D01*
X133988642Y-79400000D01*
X133811358Y-79400000D01*
X133650000Y-79432095D01*
X133650000Y-78300000D01*
X133085817Y-78300000D01*
X133085802Y-78300001D01*
X132953667Y-78310400D01*
X132735480Y-78365377D01*
X132530625Y-78458428D01*
X132530619Y-78458431D01*
X132345676Y-78586559D01*
X132345664Y-78586569D01*
X132186569Y-78745664D01*
X132186559Y-78745676D01*
X132058431Y-78930619D01*
X132058428Y-78930625D01*
X131965377Y-79135480D01*
X131910400Y-79353667D01*
X131900001Y-79485797D01*
X131900000Y-79485815D01*
X129135050Y-79485815D01*
X125587590Y-75938355D01*
X125587588Y-75938352D01*
X125468717Y-75819481D01*
X125468716Y-75819480D01*
X125381904Y-75769360D01*
X125381904Y-75769359D01*
X125381900Y-75769358D01*
X125331785Y-75740423D01*
X125179057Y-75699499D01*
X125020943Y-75699499D01*
X125013347Y-75699499D01*
X125013331Y-75699500D01*
X120100098Y-75699500D01*
X120033059Y-75679815D01*
X120012417Y-75663181D01*
X119609097Y-75259861D01*
X119566716Y-75217480D01*
X119482523Y-75168872D01*
X131899500Y-75168872D01*
X131899500Y-75431127D01*
X131921012Y-75594514D01*
X131933730Y-75691116D01*
X131999977Y-75938355D01*
X132001602Y-75944418D01*
X132001605Y-75944428D01*
X132101953Y-76186690D01*
X132101958Y-76186700D01*
X132233075Y-76413803D01*
X132392718Y-76621851D01*
X132392726Y-76621860D01*
X132578140Y-76807274D01*
X132578148Y-76807281D01*
X132786196Y-76966924D01*
X133013299Y-77098041D01*
X133013309Y-77098046D01*
X133229162Y-77187455D01*
X133255581Y-77198398D01*
X133508884Y-77266270D01*
X133768880Y-77300500D01*
X133768887Y-77300500D01*
X134031113Y-77300500D01*
X134031120Y-77300500D01*
X134291116Y-77266270D01*
X134544419Y-77198398D01*
X134779066Y-77101204D01*
X134786690Y-77098046D01*
X134786691Y-77098045D01*
X134786697Y-77098043D01*
X135013803Y-76966924D01*
X135221851Y-76807282D01*
X135221855Y-76807277D01*
X135221860Y-76807274D01*
X135407274Y-76621860D01*
X135407277Y-76621855D01*
X135407282Y-76621851D01*
X135566924Y-76413803D01*
X135698043Y-76186697D01*
X135698046Y-76186690D01*
X135739376Y-76086911D01*
X140819224Y-76086911D01*
X140819224Y-76313088D01*
X140819225Y-76313104D01*
X140848747Y-76537347D01*
X140907291Y-76755834D01*
X140993844Y-76964794D01*
X140993851Y-76964809D01*
X141106944Y-77160692D01*
X141244639Y-77340140D01*
X141244645Y-77340147D01*
X141404576Y-77500078D01*
X141404583Y-77500084D01*
X141584031Y-77637779D01*
X141779914Y-77750872D01*
X141779929Y-77750879D01*
X141839370Y-77775500D01*
X141988890Y-77837433D01*
X142207373Y-77895976D01*
X142431629Y-77925500D01*
X142431636Y-77925500D01*
X142657812Y-77925500D01*
X142657819Y-77925500D01*
X142882075Y-77895976D01*
X143100558Y-77837433D01*
X143309530Y-77750874D01*
X143505417Y-77637779D01*
X143684866Y-77500083D01*
X143844807Y-77340142D01*
X143982503Y-77160693D01*
X144095598Y-76964806D01*
X144182157Y-76755834D01*
X144240700Y-76537351D01*
X144270224Y-76313095D01*
X144270224Y-76086905D01*
X144240700Y-75862649D01*
X144182157Y-75644166D01*
X144121689Y-75498184D01*
X144095603Y-75435205D01*
X144095596Y-75435190D01*
X143982503Y-75239307D01*
X143844808Y-75059859D01*
X143844802Y-75059852D01*
X143684871Y-74899921D01*
X143684864Y-74899915D01*
X143505416Y-74762220D01*
X143309533Y-74649127D01*
X143309518Y-74649120D01*
X143100558Y-74562567D01*
X142882071Y-74504023D01*
X142657828Y-74474501D01*
X142657825Y-74474500D01*
X142657819Y-74474500D01*
X142431629Y-74474500D01*
X142431623Y-74474500D01*
X142431619Y-74474501D01*
X142207376Y-74504023D01*
X141988889Y-74562567D01*
X141779929Y-74649120D01*
X141779914Y-74649127D01*
X141584031Y-74762220D01*
X141404583Y-74899915D01*
X141404576Y-74899921D01*
X141244645Y-75059852D01*
X141244639Y-75059859D01*
X141106944Y-75239307D01*
X140993851Y-75435190D01*
X140993844Y-75435205D01*
X140907291Y-75644165D01*
X140848747Y-75862652D01*
X140819225Y-76086895D01*
X140819224Y-76086911D01*
X135739376Y-76086911D01*
X135760716Y-76035393D01*
X135760716Y-76035391D01*
X135798392Y-75944434D01*
X135798394Y-75944428D01*
X135798398Y-75944419D01*
X135866270Y-75691116D01*
X135900500Y-75431120D01*
X135900500Y-75168880D01*
X135866270Y-74908884D01*
X135798398Y-74655581D01*
X135771624Y-74590942D01*
X135698046Y-74413309D01*
X135698041Y-74413299D01*
X135566924Y-74186196D01*
X135423450Y-73999219D01*
X135407282Y-73978149D01*
X135407281Y-73978148D01*
X135407274Y-73978140D01*
X135221860Y-73792726D01*
X135221851Y-73792718D01*
X135013803Y-73633075D01*
X134786700Y-73501958D01*
X134786690Y-73501953D01*
X134544428Y-73401605D01*
X134544421Y-73401603D01*
X134544419Y-73401602D01*
X134291116Y-73333730D01*
X134233339Y-73326123D01*
X134031127Y-73299500D01*
X134031120Y-73299500D01*
X133768880Y-73299500D01*
X133768872Y-73299500D01*
X133537772Y-73329926D01*
X133508884Y-73333730D01*
X133270338Y-73397648D01*
X133255581Y-73401602D01*
X133255571Y-73401605D01*
X133013309Y-73501953D01*
X133013299Y-73501958D01*
X132786196Y-73633075D01*
X132578148Y-73792718D01*
X132392718Y-73978148D01*
X132233075Y-74186196D01*
X132101958Y-74413299D01*
X132101953Y-74413309D01*
X132001605Y-74655571D01*
X132001602Y-74655581D01*
X131938761Y-74890110D01*
X131933730Y-74908885D01*
X131899500Y-75168872D01*
X119482523Y-75168872D01*
X119479904Y-75167360D01*
X119474840Y-75164436D01*
X119474837Y-75164434D01*
X119429785Y-75138423D01*
X119423795Y-75136818D01*
X119277057Y-75097499D01*
X119118943Y-75097499D01*
X119111347Y-75097499D01*
X119111331Y-75097500D01*
X115648097Y-75097500D01*
X115618656Y-75088855D01*
X115588670Y-75082332D01*
X115583654Y-75078577D01*
X115581058Y-75077815D01*
X115560416Y-75061181D01*
X115511416Y-75012181D01*
X115477931Y-74950858D01*
X115482915Y-74881166D01*
X115524787Y-74825233D01*
X115590251Y-74800816D01*
X115599097Y-74800500D01*
X115792351Y-74800500D01*
X115792352Y-74800500D01*
X115994534Y-74768477D01*
X116189219Y-74705220D01*
X116371610Y-74612287D01*
X116479416Y-74533962D01*
X116537213Y-74491971D01*
X116537215Y-74491968D01*
X116537219Y-74491966D01*
X116681966Y-74347219D01*
X116681968Y-74347215D01*
X116681971Y-74347213D01*
X116802284Y-74181614D01*
X116802286Y-74181611D01*
X116802287Y-74181610D01*
X116849795Y-74088369D01*
X116897770Y-74037574D01*
X116965591Y-74020779D01*
X117031725Y-74043316D01*
X117070765Y-74088370D01*
X117118140Y-74181349D01*
X117238417Y-74346894D01*
X117238417Y-74346895D01*
X117383104Y-74491582D01*
X117548650Y-74611859D01*
X117730968Y-74704754D01*
X117925578Y-74767988D01*
X117980000Y-74776607D01*
X117980000Y-73933012D01*
X118037007Y-73965925D01*
X118164174Y-74000000D01*
X118295826Y-74000000D01*
X118422993Y-73965925D01*
X118480000Y-73933012D01*
X118480000Y-74776606D01*
X118534421Y-74767988D01*
X118729031Y-74704754D01*
X118911349Y-74611859D01*
X119076894Y-74491582D01*
X119076895Y-74491582D01*
X119221582Y-74346895D01*
X119221582Y-74346894D01*
X119341861Y-74181347D01*
X119389234Y-74088371D01*
X119437208Y-74037575D01*
X119505028Y-74020779D01*
X119571164Y-74043316D01*
X119610203Y-74088369D01*
X119657713Y-74181611D01*
X119778028Y-74347213D01*
X119922786Y-74491971D01*
X120059011Y-74590942D01*
X120088390Y-74612287D01*
X120177212Y-74657544D01*
X120270776Y-74705218D01*
X120270778Y-74705218D01*
X120270781Y-74705220D01*
X120373871Y-74738716D01*
X120465465Y-74768477D01*
X120521828Y-74777404D01*
X120667648Y-74800500D01*
X120667649Y-74800500D01*
X120872351Y-74800500D01*
X120872352Y-74800500D01*
X121074534Y-74768477D01*
X121269219Y-74705220D01*
X121451610Y-74612287D01*
X121559416Y-74533962D01*
X121617213Y-74491971D01*
X121617215Y-74491968D01*
X121617219Y-74491966D01*
X121761966Y-74347219D01*
X121761968Y-74347215D01*
X121761971Y-74347213D01*
X121882284Y-74181614D01*
X121882286Y-74181611D01*
X121882287Y-74181610D01*
X121929516Y-74088917D01*
X121977489Y-74038123D01*
X122045310Y-74021328D01*
X122111445Y-74043865D01*
X122150485Y-74088919D01*
X122197715Y-74181614D01*
X122318028Y-74347213D01*
X122462786Y-74491971D01*
X122599011Y-74590942D01*
X122628390Y-74612287D01*
X122717212Y-74657544D01*
X122810776Y-74705218D01*
X122810778Y-74705218D01*
X122810781Y-74705220D01*
X122913871Y-74738716D01*
X123005465Y-74768477D01*
X123061828Y-74777404D01*
X123207648Y-74800500D01*
X123207649Y-74800500D01*
X123412351Y-74800500D01*
X123412352Y-74800500D01*
X123614534Y-74768477D01*
X123809219Y-74705220D01*
X123991610Y-74612287D01*
X124099416Y-74533962D01*
X124157213Y-74491971D01*
X124157215Y-74491968D01*
X124157219Y-74491966D01*
X124301966Y-74347219D01*
X124328330Y-74310930D01*
X124383658Y-74268265D01*
X124453271Y-74262284D01*
X124515067Y-74294889D01*
X124549426Y-74355726D01*
X124551938Y-74370559D01*
X124555907Y-74407480D01*
X124606202Y-74542328D01*
X124606206Y-74542335D01*
X124692452Y-74657544D01*
X124692455Y-74657547D01*
X124807664Y-74743793D01*
X124807671Y-74743797D01*
X124942517Y-74794091D01*
X124942516Y-74794091D01*
X124949444Y-74794835D01*
X125002127Y-74800500D01*
X126697872Y-74800499D01*
X126757483Y-74794091D01*
X126892331Y-74743796D01*
X127007546Y-74657546D01*
X127093796Y-74542331D01*
X127144091Y-74407483D01*
X127150500Y-74347873D01*
X127150499Y-73532595D01*
X127170183Y-73465557D01*
X127186813Y-73444920D01*
X133005821Y-67625912D01*
X133067142Y-67592429D01*
X133136834Y-67597413D01*
X133192767Y-67639285D01*
X133217184Y-67704749D01*
X133217500Y-67713595D01*
X133217500Y-67723052D01*
X133254434Y-67956247D01*
X133327397Y-68180802D01*
X133434587Y-68391174D01*
X133494838Y-68474104D01*
X133494840Y-68474105D01*
X134152887Y-67816058D01*
X134158389Y-67836591D01*
X134237381Y-67973408D01*
X134349092Y-68085119D01*
X134485909Y-68164111D01*
X134506440Y-68169612D01*
X134067871Y-68608181D01*
X134006548Y-68641666D01*
X133980192Y-68644500D01*
X133917499Y-68644500D01*
X133917480Y-68644501D01*
X133814703Y-68655000D01*
X133814700Y-68655001D01*
X133648168Y-68710185D01*
X133648163Y-68710187D01*
X133498842Y-68802289D01*
X133374789Y-68926342D01*
X133282687Y-69075663D01*
X133282685Y-69075668D01*
X133266504Y-69124499D01*
X133227501Y-69242203D01*
X133227501Y-69242204D01*
X133227500Y-69242204D01*
X133217000Y-69344983D01*
X133217000Y-70945001D01*
X133217001Y-70945018D01*
X133227500Y-71047796D01*
X133227501Y-71047799D01*
X133265559Y-71162649D01*
X133282686Y-71214334D01*
X133374788Y-71363656D01*
X133498844Y-71487712D01*
X133648166Y-71579814D01*
X133814703Y-71634999D01*
X133917491Y-71645500D01*
X135517508Y-71645499D01*
X135620297Y-71634999D01*
X135786834Y-71579814D01*
X135936156Y-71487712D01*
X136036957Y-71386911D01*
X140819224Y-71386911D01*
X140819224Y-71613088D01*
X140819225Y-71613104D01*
X140848747Y-71837347D01*
X140907291Y-72055834D01*
X140993844Y-72264794D01*
X140993851Y-72264809D01*
X141106944Y-72460692D01*
X141244639Y-72640140D01*
X141244645Y-72640147D01*
X141404576Y-72800078D01*
X141404583Y-72800084D01*
X141584031Y-72937779D01*
X141779914Y-73050872D01*
X141779929Y-73050879D01*
X141861151Y-73084522D01*
X141988890Y-73137433D01*
X142207373Y-73195976D01*
X142431629Y-73225500D01*
X142431636Y-73225500D01*
X142657812Y-73225500D01*
X142657819Y-73225500D01*
X142882075Y-73195976D01*
X143100558Y-73137433D01*
X143309530Y-73050874D01*
X143505417Y-72937779D01*
X143684866Y-72800083D01*
X143844807Y-72640142D01*
X143982503Y-72460693D01*
X144095598Y-72264806D01*
X144182157Y-72055834D01*
X144240700Y-71837351D01*
X144270224Y-71613095D01*
X144270224Y-71386905D01*
X144240700Y-71162649D01*
X144182157Y-70944166D01*
X144107422Y-70763739D01*
X144095603Y-70735205D01*
X144095596Y-70735190D01*
X143982503Y-70539307D01*
X143844808Y-70359859D01*
X143844802Y-70359852D01*
X143684871Y-70199921D01*
X143684864Y-70199915D01*
X143505416Y-70062220D01*
X143309533Y-69949127D01*
X143309518Y-69949120D01*
X143100558Y-69862567D01*
X142882071Y-69804023D01*
X142657828Y-69774501D01*
X142657825Y-69774500D01*
X142657819Y-69774500D01*
X142431629Y-69774500D01*
X142431623Y-69774500D01*
X142431619Y-69774501D01*
X142207376Y-69804023D01*
X141988889Y-69862567D01*
X141779929Y-69949120D01*
X141779914Y-69949127D01*
X141584031Y-70062220D01*
X141404583Y-70199915D01*
X141404576Y-70199921D01*
X141244645Y-70359852D01*
X141244639Y-70359859D01*
X141106944Y-70539307D01*
X140993851Y-70735190D01*
X140993844Y-70735205D01*
X140907291Y-70944165D01*
X140848747Y-71162652D01*
X140819225Y-71386895D01*
X140819224Y-71386911D01*
X136036957Y-71386911D01*
X136060212Y-71363656D01*
X136152314Y-71214334D01*
X136207499Y-71047797D01*
X136218000Y-70945009D01*
X136217999Y-69344992D01*
X136207499Y-69242203D01*
X136152314Y-69075666D01*
X136060212Y-68926344D01*
X135988020Y-68854152D01*
X140225001Y-68854152D01*
X140235056Y-68952583D01*
X140287906Y-69112072D01*
X140287908Y-69112077D01*
X140376114Y-69255080D01*
X140494919Y-69373885D01*
X140637922Y-69462091D01*
X140637927Y-69462093D01*
X140797416Y-69514942D01*
X140895855Y-69524999D01*
X141450000Y-69524999D01*
X141504136Y-69524999D01*
X141504152Y-69524998D01*
X141602583Y-69514943D01*
X141762072Y-69462093D01*
X141762077Y-69462091D01*
X141905080Y-69373885D01*
X142023885Y-69255080D01*
X142112091Y-69112077D01*
X142112093Y-69112072D01*
X142164942Y-68952583D01*
X142174999Y-68854150D01*
X142175000Y-68854137D01*
X142175000Y-68837500D01*
X141450000Y-68837500D01*
X141450000Y-69524999D01*
X140895855Y-69524999D01*
X140949999Y-69524998D01*
X140950000Y-69524998D01*
X140950000Y-68837500D01*
X140225001Y-68837500D01*
X140225001Y-68854152D01*
X135988020Y-68854152D01*
X135936156Y-68802288D01*
X135843388Y-68745069D01*
X135786836Y-68710187D01*
X135786831Y-68710185D01*
X135755443Y-68699784D01*
X135620297Y-68655001D01*
X135620295Y-68655000D01*
X135517516Y-68644500D01*
X135454808Y-68644500D01*
X135387769Y-68624815D01*
X135367127Y-68608181D01*
X134928559Y-68169612D01*
X134949091Y-68164111D01*
X135085908Y-68085119D01*
X135197619Y-67973408D01*
X135276611Y-67836591D01*
X135282112Y-67816059D01*
X135940158Y-68474105D01*
X135940158Y-68474104D01*
X136000414Y-68391169D01*
X136000418Y-68391163D01*
X136107602Y-68180802D01*
X136180565Y-67956247D01*
X136217500Y-67723052D01*
X136217500Y-67486947D01*
X136180565Y-67253752D01*
X136107602Y-67029197D01*
X136000414Y-66818828D01*
X135940158Y-66735894D01*
X135940158Y-66735893D01*
X135282112Y-67393940D01*
X135276611Y-67373409D01*
X135197619Y-67236592D01*
X135085908Y-67124881D01*
X134949091Y-67045889D01*
X134928558Y-67040387D01*
X135586605Y-66382340D01*
X135585051Y-66362594D01*
X135599415Y-66294216D01*
X135635784Y-66252547D01*
X135660051Y-66234916D01*
X135695010Y-66209517D01*
X135862017Y-66042510D01*
X136000843Y-65851433D01*
X136061083Y-65733204D01*
X136109058Y-65682409D01*
X136171568Y-65665500D01*
X138910831Y-65665500D01*
X138910847Y-65665501D01*
X138918443Y-65665501D01*
X139076554Y-65665501D01*
X139076557Y-65665501D01*
X139229285Y-65624577D01*
X139279404Y-65595639D01*
X139366216Y-65545520D01*
X139478020Y-65433716D01*
X139478021Y-65433713D01*
X139712417Y-65199316D01*
X139773739Y-65165834D01*
X139800097Y-65163000D01*
X140131613Y-65163000D01*
X140131616Y-65163000D01*
X140202196Y-65156586D01*
X140364606Y-65105978D01*
X140510185Y-65017972D01*
X140612320Y-64915836D01*
X140620265Y-64911498D01*
X140625690Y-64904252D01*
X140650446Y-64895018D01*
X140673641Y-64882353D01*
X140682671Y-64882998D01*
X140691154Y-64879835D01*
X140716974Y-64885451D01*
X140743333Y-64887337D01*
X140752386Y-64893155D01*
X140759427Y-64894687D01*
X140787681Y-64915838D01*
X140888181Y-65016338D01*
X140921666Y-65077661D01*
X140924500Y-65104019D01*
X140924500Y-65959593D01*
X140904815Y-66026632D01*
X140852011Y-66072387D01*
X140813103Y-66082951D01*
X140797317Y-66084563D01*
X140797316Y-66084563D01*
X140797315Y-66084564D01*
X140722269Y-66109432D01*
X140637715Y-66137450D01*
X140637704Y-66137455D01*
X140494612Y-66225716D01*
X140494608Y-66225719D01*
X140375719Y-66344608D01*
X140375716Y-66344612D01*
X140287455Y-66487704D01*
X140287450Y-66487715D01*
X140275927Y-66522490D01*
X140234564Y-66647315D01*
X140234564Y-66647316D01*
X140234563Y-66647316D01*
X140224500Y-66745818D01*
X140224500Y-67279181D01*
X140234563Y-67377683D01*
X140287450Y-67537284D01*
X140287455Y-67537295D01*
X140375716Y-67680387D01*
X140375719Y-67680392D01*
X140408000Y-67712673D01*
X140441485Y-67773997D01*
X140436499Y-67843688D01*
X140408000Y-67888033D01*
X140376114Y-67919919D01*
X140287908Y-68062922D01*
X140287906Y-68062927D01*
X140235057Y-68222416D01*
X140225000Y-68320849D01*
X140225000Y-68337500D01*
X142174999Y-68337500D01*
X142174999Y-68320864D01*
X142174998Y-68320847D01*
X142164943Y-68222416D01*
X142112093Y-68062927D01*
X142112091Y-68062922D01*
X142023885Y-67919919D01*
X141992000Y-67888034D01*
X141958515Y-67826711D01*
X141963499Y-67757019D01*
X141992000Y-67712672D01*
X141999923Y-67704749D01*
X142024281Y-67680391D01*
X142112549Y-67537287D01*
X142165436Y-67377685D01*
X142175500Y-67279174D01*
X142175500Y-66745826D01*
X142165436Y-66647315D01*
X142131794Y-66545789D01*
X142125500Y-66506786D01*
X142125500Y-65104019D01*
X142145185Y-65036980D01*
X142161814Y-65016342D01*
X142280472Y-64897685D01*
X142368478Y-64752106D01*
X142419086Y-64589696D01*
X142425500Y-64519116D01*
X142425500Y-63855884D01*
X142419086Y-63785304D01*
X142368478Y-63622894D01*
X142280472Y-63477315D01*
X142280470Y-63477313D01*
X142280469Y-63477311D01*
X142160188Y-63357030D01*
X142014606Y-63269022D01*
X141964260Y-63253334D01*
X141852196Y-63218414D01*
X141852194Y-63218413D01*
X141852192Y-63218413D01*
X141802778Y-63213923D01*
X141781616Y-63212000D01*
X141268384Y-63212000D01*
X141249145Y-63213748D01*
X141197807Y-63218413D01*
X141035393Y-63269022D01*
X140889811Y-63357030D01*
X140889810Y-63357031D01*
X140787681Y-63459161D01*
X140726358Y-63492646D01*
X140656666Y-63487662D01*
X140612319Y-63459161D01*
X140510188Y-63357030D01*
X140364606Y-63269022D01*
X140314260Y-63253334D01*
X140202196Y-63218414D01*
X140202194Y-63218413D01*
X140202192Y-63218413D01*
X140152778Y-63213923D01*
X140131616Y-63212000D01*
X139618384Y-63212000D01*
X139599145Y-63213748D01*
X139547807Y-63218413D01*
X139385393Y-63269022D01*
X139239811Y-63357030D01*
X139119530Y-63477311D01*
X139031522Y-63622893D01*
X138980913Y-63785307D01*
X138974500Y-63855886D01*
X138974500Y-64187403D01*
X138965855Y-64216843D01*
X138959332Y-64246830D01*
X138955577Y-64251845D01*
X138954815Y-64254442D01*
X138938181Y-64275084D01*
X138785084Y-64428181D01*
X138723761Y-64461666D01*
X138697403Y-64464500D01*
X136171568Y-64464500D01*
X136104529Y-64444815D01*
X136061083Y-64396795D01*
X136000842Y-64278566D01*
X135981428Y-64251845D01*
X135862017Y-64087490D01*
X135695010Y-63920483D01*
X135503933Y-63781657D01*
X135503315Y-63781342D01*
X135293496Y-63674433D01*
X135094450Y-63609758D01*
X135036775Y-63570320D01*
X135009577Y-63505961D01*
X135021492Y-63437115D01*
X135045085Y-63404149D01*
X137162417Y-61286818D01*
X137223740Y-61253333D01*
X137250098Y-61250499D01*
X138597871Y-61250499D01*
X138597872Y-61250499D01*
X138657483Y-61244091D01*
X138792331Y-61193796D01*
X138907546Y-61107546D01*
X138993796Y-60992331D01*
X139044091Y-60857483D01*
X139050500Y-60797873D01*
X139050500Y-60574038D01*
X142099500Y-60574038D01*
X142099500Y-60825962D01*
X142125851Y-60992335D01*
X142138910Y-61074785D01*
X142216760Y-61314383D01*
X142331132Y-61538848D01*
X142479201Y-61742649D01*
X142479205Y-61742654D01*
X142657345Y-61920794D01*
X142657350Y-61920798D01*
X142835117Y-62049952D01*
X142861155Y-62068870D01*
X143004184Y-62141747D01*
X143085616Y-62183239D01*
X143085618Y-62183239D01*
X143085621Y-62183241D01*
X143325215Y-62261090D01*
X143574038Y-62300500D01*
X143574039Y-62300500D01*
X143825961Y-62300500D01*
X143825962Y-62300500D01*
X144074785Y-62261090D01*
X144314379Y-62183241D01*
X144538845Y-62068870D01*
X144742656Y-61920793D01*
X144920793Y-61742656D01*
X145068870Y-61538845D01*
X145183241Y-61314379D01*
X145261090Y-61074785D01*
X145300500Y-60825962D01*
X145300500Y-60574038D01*
X145261090Y-60325215D01*
X145183241Y-60085621D01*
X145183239Y-60085618D01*
X145183239Y-60085616D01*
X145111352Y-59944531D01*
X145068870Y-59861155D01*
X145028735Y-59805914D01*
X144920798Y-59657350D01*
X144920794Y-59657345D01*
X144742654Y-59479205D01*
X144742649Y-59479201D01*
X144538848Y-59331132D01*
X144538847Y-59331131D01*
X144538845Y-59331130D01*
X144417079Y-59269087D01*
X144314383Y-59216760D01*
X144074785Y-59138910D01*
X144070820Y-59138282D01*
X143825962Y-59099500D01*
X143574038Y-59099500D01*
X143449626Y-59119205D01*
X143325214Y-59138910D01*
X143085616Y-59216760D01*
X142861151Y-59331132D01*
X142657350Y-59479201D01*
X142657345Y-59479205D01*
X142479205Y-59657345D01*
X142479201Y-59657350D01*
X142331132Y-59861151D01*
X142216760Y-60085616D01*
X142138910Y-60325214D01*
X142131372Y-60372807D01*
X142099500Y-60574038D01*
X139050500Y-60574038D01*
X139050499Y-59900000D01*
X139050499Y-59002129D01*
X139050498Y-59002123D01*
X139050497Y-59002116D01*
X139044091Y-58942517D01*
X138993796Y-58807669D01*
X138993795Y-58807668D01*
X138993793Y-58807664D01*
X138907547Y-58692455D01*
X138907544Y-58692452D01*
X138792335Y-58606206D01*
X138792328Y-58606202D01*
X138657482Y-58555908D01*
X138657483Y-58555908D01*
X138597883Y-58549501D01*
X138597881Y-58549500D01*
X138597873Y-58549500D01*
X138597864Y-58549500D01*
X136802129Y-58549500D01*
X136802123Y-58549501D01*
X136742516Y-58555908D01*
X136607671Y-58606202D01*
X136607664Y-58606206D01*
X136492455Y-58692452D01*
X136492452Y-58692455D01*
X136406206Y-58807664D01*
X136406202Y-58807671D01*
X136355908Y-58942517D01*
X136349501Y-59002116D01*
X136349501Y-59002123D01*
X136349500Y-59002135D01*
X136349500Y-59012690D01*
X136329815Y-59079729D01*
X136313181Y-59100371D01*
X135642962Y-59770590D01*
X135625925Y-59707007D01*
X135560099Y-59592993D01*
X135467007Y-59499901D01*
X135352993Y-59434075D01*
X135289409Y-59417037D01*
X135921716Y-58784728D01*
X135867550Y-58745375D01*
X135678217Y-58648904D01*
X135476129Y-58583242D01*
X135266246Y-58550000D01*
X135053754Y-58550000D01*
X134843872Y-58583242D01*
X134843869Y-58583242D01*
X134641782Y-58648904D01*
X134452439Y-58745380D01*
X134398282Y-58784727D01*
X134398282Y-58784728D01*
X135030591Y-59417037D01*
X134967007Y-59434075D01*
X134852993Y-59499901D01*
X134759901Y-59592993D01*
X134694075Y-59707007D01*
X134677037Y-59770591D01*
X134044728Y-59138282D01*
X134044727Y-59138282D01*
X134005380Y-59192440D01*
X134005376Y-59192446D01*
X134000760Y-59201505D01*
X133952781Y-59252297D01*
X133884959Y-59269087D01*
X133818826Y-59246543D01*
X133779794Y-59201493D01*
X133775051Y-59192184D01*
X133775049Y-59192181D01*
X133775048Y-59192179D01*
X133650109Y-59020213D01*
X133499786Y-58869890D01*
X133327820Y-58744951D01*
X133138414Y-58648444D01*
X133138413Y-58648443D01*
X133138412Y-58648443D01*
X132936243Y-58582754D01*
X132936241Y-58582753D01*
X132936240Y-58582753D01*
X132774957Y-58557208D01*
X132726287Y-58549500D01*
X132513713Y-58549500D01*
X132465042Y-58557208D01*
X132303760Y-58582753D01*
X132101585Y-58648444D01*
X131912179Y-58744951D01*
X131740213Y-58869890D01*
X131589890Y-59020213D01*
X131464951Y-59192179D01*
X131368444Y-59381585D01*
X131302753Y-59583760D01*
X131269500Y-59793713D01*
X131269500Y-60006286D01*
X131301827Y-60210394D01*
X131302754Y-60216243D01*
X131338161Y-60325215D01*
X131368444Y-60418414D01*
X131464951Y-60607820D01*
X131589890Y-60779786D01*
X131740213Y-60930109D01*
X131912179Y-61055048D01*
X131912181Y-61055049D01*
X131912184Y-61055051D01*
X132101588Y-61151557D01*
X132303757Y-61217246D01*
X132513713Y-61250500D01*
X132513714Y-61250500D01*
X132726286Y-61250500D01*
X132726287Y-61250500D01*
X132936243Y-61217246D01*
X133138412Y-61151557D01*
X133327816Y-61055051D01*
X133414138Y-60992335D01*
X133499786Y-60930109D01*
X133499788Y-60930106D01*
X133499792Y-60930104D01*
X133650104Y-60779792D01*
X133650106Y-60779788D01*
X133650109Y-60779786D01*
X133717515Y-60687007D01*
X133775051Y-60607816D01*
X133779793Y-60598508D01*
X133827763Y-60547711D01*
X133895583Y-60530911D01*
X133961719Y-60553445D01*
X134000763Y-60598500D01*
X134005373Y-60607547D01*
X134044728Y-60661716D01*
X134677037Y-60029408D01*
X134694075Y-60092993D01*
X134759901Y-60207007D01*
X134852993Y-60300099D01*
X134967007Y-60365925D01*
X135030590Y-60382962D01*
X134398282Y-61015269D01*
X134398282Y-61015270D01*
X134452449Y-61054624D01*
X134641782Y-61151095D01*
X134843870Y-61216757D01*
X135053754Y-61250000D01*
X135201400Y-61250000D01*
X135268439Y-61269685D01*
X135314194Y-61322489D01*
X135324138Y-61391647D01*
X135295113Y-61455203D01*
X135289081Y-61461681D01*
X130733692Y-66017071D01*
X130733683Y-66017080D01*
X130731286Y-66019478D01*
X130731284Y-66019480D01*
X130619480Y-66131284D01*
X130604467Y-66157288D01*
X130598023Y-66168448D01*
X130598023Y-66168449D01*
X130569942Y-66217087D01*
X130540423Y-66268215D01*
X130499499Y-66420943D01*
X130499499Y-66420945D01*
X130499499Y-66589046D01*
X130499500Y-66589059D01*
X130499500Y-67199901D01*
X130479815Y-67266940D01*
X130463181Y-67287582D01*
X130212180Y-67538583D01*
X130150857Y-67572068D01*
X130081165Y-67567084D01*
X130025232Y-67525212D01*
X130000815Y-67459748D01*
X130000499Y-67450902D01*
X130000499Y-66699998D01*
X130000498Y-66699981D01*
X129989999Y-66597203D01*
X129989998Y-66597200D01*
X129969989Y-66536818D01*
X129934814Y-66430666D01*
X129842712Y-66281344D01*
X129718656Y-66157288D01*
X129598136Y-66082951D01*
X129569336Y-66065187D01*
X129569331Y-66065185D01*
X129567862Y-66064698D01*
X129402797Y-66010001D01*
X129402795Y-66010000D01*
X129300016Y-65999500D01*
X129300009Y-65999500D01*
X129224500Y-65999500D01*
X129157461Y-65979815D01*
X129111706Y-65927011D01*
X129100500Y-65875500D01*
X129100500Y-63650097D01*
X129120185Y-63583058D01*
X129136819Y-63562416D01*
X129412417Y-63286819D01*
X129473740Y-63253334D01*
X129500098Y-63250500D01*
X129831613Y-63250500D01*
X129831616Y-63250500D01*
X129902196Y-63244086D01*
X130064606Y-63193478D01*
X130210185Y-63105472D01*
X130330472Y-62985185D01*
X130418478Y-62839606D01*
X130469086Y-62677196D01*
X130475500Y-62606616D01*
X130475500Y-62093384D01*
X130469086Y-62022804D01*
X130418478Y-61860394D01*
X130330472Y-61714815D01*
X130330470Y-61714813D01*
X130330469Y-61714811D01*
X130228339Y-61612681D01*
X130194854Y-61551358D01*
X130199838Y-61481666D01*
X130228339Y-61437319D01*
X130330468Y-61335189D01*
X130330469Y-61335188D01*
X130330472Y-61335185D01*
X130418478Y-61189606D01*
X130469086Y-61027196D01*
X130475500Y-60956616D01*
X130475500Y-60443384D01*
X130469086Y-60372804D01*
X130418478Y-60210394D01*
X130330472Y-60064815D01*
X130330470Y-60064813D01*
X130330469Y-60064811D01*
X130210188Y-59944530D01*
X130168830Y-59919528D01*
X130064606Y-59856522D01*
X129902196Y-59805914D01*
X129902194Y-59805913D01*
X129902192Y-59805913D01*
X129852778Y-59801423D01*
X129831616Y-59799500D01*
X129168384Y-59799500D01*
X129149145Y-59801248D01*
X129097807Y-59805913D01*
X128935393Y-59856522D01*
X128789811Y-59944530D01*
X128789810Y-59944531D01*
X128671161Y-60063181D01*
X128609838Y-60096666D01*
X128583480Y-60099500D01*
X127578116Y-60099500D01*
X127531805Y-60089232D01*
X127531643Y-60089723D01*
X127526840Y-60088131D01*
X127525710Y-60087881D01*
X127524791Y-60087452D01*
X127381019Y-60039811D01*
X127365185Y-60034564D01*
X127365183Y-60034563D01*
X127266681Y-60024500D01*
X127266674Y-60024500D01*
X126733326Y-60024500D01*
X126733318Y-60024500D01*
X126634816Y-60034563D01*
X126634815Y-60034564D01*
X126618981Y-60039811D01*
X126475215Y-60087450D01*
X126475204Y-60087455D01*
X126332112Y-60175716D01*
X126332107Y-60175719D01*
X126299827Y-60208000D01*
X126238503Y-60241485D01*
X126168812Y-60236499D01*
X126124467Y-60208000D01*
X126092580Y-60176114D01*
X125949577Y-60087908D01*
X125949572Y-60087906D01*
X125790083Y-60035057D01*
X125691650Y-60025000D01*
X125675000Y-60025000D01*
X125675000Y-61974999D01*
X125691636Y-61974999D01*
X125691652Y-61974998D01*
X125790083Y-61964943D01*
X125949572Y-61912093D01*
X125949577Y-61912091D01*
X126092580Y-61823885D01*
X126124466Y-61792000D01*
X126185789Y-61758515D01*
X126255481Y-61763499D01*
X126299828Y-61792000D01*
X126332108Y-61824280D01*
X126332112Y-61824283D01*
X126475204Y-61912544D01*
X126475207Y-61912545D01*
X126475213Y-61912549D01*
X126634815Y-61965436D01*
X126733326Y-61975500D01*
X126733331Y-61975500D01*
X127266669Y-61975500D01*
X127266674Y-61975500D01*
X127365185Y-61965436D01*
X127524787Y-61912549D01*
X127667891Y-61824281D01*
X127786781Y-61705391D01*
X127875049Y-61562287D01*
X127927936Y-61402685D01*
X127927936Y-61402676D01*
X127928822Y-61398544D01*
X127962104Y-61337110D01*
X128023315Y-61303422D01*
X128050075Y-61300500D01*
X128583480Y-61300500D01*
X128612920Y-61309144D01*
X128642907Y-61315668D01*
X128647922Y-61319422D01*
X128650519Y-61320185D01*
X128671161Y-61336819D01*
X128771661Y-61437319D01*
X128805146Y-61498642D01*
X128800162Y-61568334D01*
X128771661Y-61612681D01*
X128669531Y-61714810D01*
X128669530Y-61714811D01*
X128581522Y-61860393D01*
X128530913Y-62022807D01*
X128524500Y-62093386D01*
X128524500Y-62424902D01*
X128504815Y-62491941D01*
X128488181Y-62512583D01*
X128019481Y-62981282D01*
X128019479Y-62981285D01*
X127969361Y-63068094D01*
X127969359Y-63068096D01*
X127940425Y-63118209D01*
X127940424Y-63118210D01*
X127940423Y-63118215D01*
X127899499Y-63270943D01*
X127899499Y-63270945D01*
X127899499Y-63439046D01*
X127899500Y-63439059D01*
X127899500Y-65875500D01*
X127879815Y-65942539D01*
X127827011Y-65988294D01*
X127775502Y-65999500D01*
X127699999Y-65999500D01*
X127699980Y-65999501D01*
X127597203Y-66010000D01*
X127597200Y-66010001D01*
X127430668Y-66065185D01*
X127430663Y-66065187D01*
X127281342Y-66157289D01*
X127157289Y-66281342D01*
X127065187Y-66430663D01*
X127065186Y-66430666D01*
X127010001Y-66597203D01*
X127010001Y-66597204D01*
X127010000Y-66597204D01*
X126999500Y-66699983D01*
X126999500Y-66762691D01*
X126979815Y-66829730D01*
X126963181Y-66850372D01*
X126524612Y-67288940D01*
X126519111Y-67268409D01*
X126440119Y-67131592D01*
X126328408Y-67019881D01*
X126191591Y-66940889D01*
X126171059Y-66935387D01*
X126829105Y-66277340D01*
X126829104Y-66277338D01*
X126746174Y-66217087D01*
X126535802Y-66109897D01*
X126311247Y-66036934D01*
X126311248Y-66036934D01*
X126078052Y-66000000D01*
X125841948Y-66000000D01*
X125608752Y-66036934D01*
X125384197Y-66109897D01*
X125173830Y-66217084D01*
X125090894Y-66277340D01*
X125748941Y-66935387D01*
X125728409Y-66940889D01*
X125591592Y-67019881D01*
X125479881Y-67131592D01*
X125400889Y-67268409D01*
X125395387Y-67288940D01*
X124737340Y-66630893D01*
X124717593Y-66632448D01*
X124713860Y-66631663D01*
X124710222Y-66632808D01*
X124679936Y-66624537D01*
X124649215Y-66618084D01*
X124645429Y-66615114D01*
X124642821Y-66614402D01*
X124633431Y-66605701D01*
X124615712Y-66591800D01*
X124611370Y-66586978D01*
X124564517Y-66522490D01*
X124397510Y-66355483D01*
X124206433Y-66216657D01*
X124192414Y-66209514D01*
X123995996Y-66109433D01*
X123771368Y-66036446D01*
X123538097Y-65999500D01*
X123538092Y-65999500D01*
X123301908Y-65999500D01*
X123301903Y-65999500D01*
X123068631Y-66036446D01*
X122844003Y-66109433D01*
X122633566Y-66216657D01*
X122550047Y-66277338D01*
X122442490Y-66355483D01*
X122442488Y-66355485D01*
X122442487Y-66355485D01*
X122275485Y-66522487D01*
X122275485Y-66522488D01*
X122275483Y-66522490D01*
X122227127Y-66589046D01*
X122136657Y-66713566D01*
X122029433Y-66924003D01*
X121956446Y-67148631D01*
X121919500Y-67381902D01*
X121919500Y-67618097D01*
X121956446Y-67851368D01*
X122029433Y-68075996D01*
X122113652Y-68241284D01*
X122136657Y-68286433D01*
X122275483Y-68477510D01*
X122442490Y-68644517D01*
X122633567Y-68783343D01*
X122670749Y-68802288D01*
X122844003Y-68890566D01*
X122844005Y-68890566D01*
X122844008Y-68890568D01*
X122954109Y-68926342D01*
X123068631Y-68963553D01*
X123301903Y-69000500D01*
X123301908Y-69000500D01*
X123538097Y-69000500D01*
X123771368Y-68963553D01*
X123805130Y-68952583D01*
X123995992Y-68890568D01*
X124206433Y-68783343D01*
X124397510Y-68644517D01*
X124564517Y-68477510D01*
X124611370Y-68413022D01*
X124615713Y-68408199D01*
X124640150Y-68393142D01*
X124662877Y-68375618D01*
X124670393Y-68374509D01*
X124675199Y-68371549D01*
X124688730Y-68371806D01*
X124717594Y-68367551D01*
X124737340Y-68369105D01*
X125395387Y-67711058D01*
X125400889Y-67731591D01*
X125479881Y-67868408D01*
X125591592Y-67980119D01*
X125728409Y-68059111D01*
X125748940Y-68064612D01*
X125090893Y-68722658D01*
X125173828Y-68782914D01*
X125384197Y-68890102D01*
X125608752Y-68963065D01*
X125608751Y-68963065D01*
X125841948Y-69000000D01*
X126078052Y-69000000D01*
X126311247Y-68963065D01*
X126535802Y-68890102D01*
X126746163Y-68782918D01*
X126746169Y-68782914D01*
X126829104Y-68722658D01*
X126829105Y-68722658D01*
X126171058Y-68064612D01*
X126191591Y-68059111D01*
X126328408Y-67980119D01*
X126440119Y-67868408D01*
X126519111Y-67731591D01*
X126524612Y-67711058D01*
X126963181Y-68149627D01*
X126996666Y-68210950D01*
X126999500Y-68237306D01*
X126999500Y-68300000D01*
X126999501Y-68300019D01*
X127010000Y-68402796D01*
X127010001Y-68402799D01*
X127052464Y-68530941D01*
X127065186Y-68569334D01*
X127157288Y-68718656D01*
X127281344Y-68842712D01*
X127430666Y-68934814D01*
X127597203Y-68989999D01*
X127699991Y-69000500D01*
X128450902Y-69000499D01*
X128517941Y-69020183D01*
X128563696Y-69072987D01*
X128573640Y-69142146D01*
X128544615Y-69205702D01*
X128538583Y-69212180D01*
X126487584Y-71263181D01*
X126426261Y-71296666D01*
X126399903Y-71299500D01*
X124996670Y-71299500D01*
X124996654Y-71299499D01*
X124989058Y-71299499D01*
X124830943Y-71299499D01*
X124762835Y-71317749D01*
X124678214Y-71340423D01*
X124678209Y-71340426D01*
X124541290Y-71419475D01*
X124541282Y-71419481D01*
X123754841Y-72205921D01*
X123693518Y-72239406D01*
X123628845Y-72236172D01*
X123614535Y-72231523D01*
X123452898Y-72205922D01*
X123412352Y-72199500D01*
X123207648Y-72199500D01*
X123183329Y-72203351D01*
X123005465Y-72231522D01*
X122810776Y-72294781D01*
X122628386Y-72387715D01*
X122462786Y-72508028D01*
X122318028Y-72652786D01*
X122197715Y-72818386D01*
X122150485Y-72911080D01*
X122102510Y-72961876D01*
X122034689Y-72978671D01*
X121968554Y-72956134D01*
X121929515Y-72911080D01*
X121882419Y-72818650D01*
X121882287Y-72818390D01*
X121855372Y-72781344D01*
X121761971Y-72652786D01*
X121617213Y-72508028D01*
X121451613Y-72387715D01*
X121451612Y-72387714D01*
X121451610Y-72387713D01*
X121392167Y-72357425D01*
X121269223Y-72294781D01*
X121074534Y-72231522D01*
X120899995Y-72203878D01*
X120872352Y-72199500D01*
X120667648Y-72199500D01*
X120643329Y-72203351D01*
X120465465Y-72231522D01*
X120270776Y-72294781D01*
X120088386Y-72387715D01*
X119922786Y-72508028D01*
X119778028Y-72652786D01*
X119657713Y-72818388D01*
X119610203Y-72911630D01*
X119562228Y-72962426D01*
X119494407Y-72979220D01*
X119428272Y-72956682D01*
X119389234Y-72911628D01*
X119341861Y-72818652D01*
X119221582Y-72653105D01*
X119221582Y-72653104D01*
X119076895Y-72508417D01*
X118911349Y-72388140D01*
X118729029Y-72295244D01*
X118534413Y-72232009D01*
X118480000Y-72223390D01*
X118480000Y-73066988D01*
X118422993Y-73034075D01*
X118295826Y-73000000D01*
X118164174Y-73000000D01*
X118037007Y-73034075D01*
X117980000Y-73066988D01*
X117980000Y-72223390D01*
X117925586Y-72232009D01*
X117730970Y-72295244D01*
X117548650Y-72388140D01*
X117383105Y-72508417D01*
X117383104Y-72508417D01*
X117238417Y-72653104D01*
X117238417Y-72653105D01*
X117118140Y-72818650D01*
X117070765Y-72911629D01*
X117022790Y-72962425D01*
X116954969Y-72979220D01*
X116888834Y-72956682D01*
X116849795Y-72911629D01*
X116802419Y-72818650D01*
X116802287Y-72818390D01*
X116775372Y-72781344D01*
X116681971Y-72652786D01*
X116537213Y-72508028D01*
X116371610Y-72387712D01*
X116358200Y-72380879D01*
X116307406Y-72332903D01*
X116290500Y-72270397D01*
X116290500Y-71110096D01*
X116310185Y-71043057D01*
X116326814Y-71022420D01*
X118312416Y-69036817D01*
X118373739Y-69003333D01*
X118400097Y-69000499D01*
X119800002Y-69000499D01*
X119800008Y-69000499D01*
X119902797Y-68989999D01*
X120069334Y-68934814D01*
X120218656Y-68842712D01*
X120342712Y-68718656D01*
X120434814Y-68569334D01*
X120489999Y-68402797D01*
X120500500Y-68300009D01*
X120500499Y-66699992D01*
X120493440Y-66630893D01*
X120489999Y-66597203D01*
X120489998Y-66597200D01*
X120469989Y-66536818D01*
X120434814Y-66430666D01*
X120342712Y-66281344D01*
X120218656Y-66157288D01*
X120098136Y-66082951D01*
X120069336Y-66065187D01*
X120069331Y-66065185D01*
X120067862Y-66064698D01*
X119902797Y-66010001D01*
X119902795Y-66010000D01*
X119800016Y-65999500D01*
X119800009Y-65999500D01*
X119724500Y-65999500D01*
X119657461Y-65979815D01*
X119611706Y-65927011D01*
X119600500Y-65875500D01*
X119600500Y-63650097D01*
X119620185Y-63583058D01*
X119636819Y-63562416D01*
X119912417Y-63286819D01*
X119973740Y-63253334D01*
X120000098Y-63250500D01*
X120331613Y-63250500D01*
X120331616Y-63250500D01*
X120402196Y-63244086D01*
X120564606Y-63193478D01*
X120710185Y-63105472D01*
X120830472Y-62985185D01*
X120918478Y-62839606D01*
X120969086Y-62677196D01*
X120975500Y-62606616D01*
X120975500Y-62093384D01*
X120969086Y-62022804D01*
X120918478Y-61860394D01*
X120830472Y-61714815D01*
X120830470Y-61714813D01*
X120830469Y-61714811D01*
X120728339Y-61612681D01*
X120694854Y-61551358D01*
X120699838Y-61481666D01*
X120728339Y-61437319D01*
X120830468Y-61335189D01*
X120830469Y-61335188D01*
X120830472Y-61335185D01*
X120849232Y-61304152D01*
X124487501Y-61304152D01*
X124497556Y-61402583D01*
X124550406Y-61562072D01*
X124550408Y-61562077D01*
X124638614Y-61705080D01*
X124757419Y-61823885D01*
X124900422Y-61912091D01*
X124900427Y-61912093D01*
X125059916Y-61964942D01*
X125158356Y-61974999D01*
X125175000Y-61974998D01*
X125175000Y-61250000D01*
X124487501Y-61250000D01*
X124487501Y-61304152D01*
X120849232Y-61304152D01*
X120918478Y-61189606D01*
X120969086Y-61027196D01*
X120975500Y-60956616D01*
X120975500Y-60695849D01*
X124487500Y-60695849D01*
X124487500Y-60750000D01*
X125175000Y-60750000D01*
X125175000Y-60024999D01*
X125158356Y-60025000D01*
X125059915Y-60035057D01*
X124900427Y-60087906D01*
X124900422Y-60087908D01*
X124757419Y-60176114D01*
X124638614Y-60294919D01*
X124550408Y-60437922D01*
X124550406Y-60437927D01*
X124497557Y-60597416D01*
X124487500Y-60695849D01*
X120975500Y-60695849D01*
X120975500Y-60443384D01*
X120969086Y-60372804D01*
X120918478Y-60210394D01*
X120830472Y-60064815D01*
X120830470Y-60064813D01*
X120830469Y-60064811D01*
X120710188Y-59944530D01*
X120628186Y-59894958D01*
X120564606Y-59856522D01*
X120402196Y-59805914D01*
X120402194Y-59805913D01*
X120402192Y-59805913D01*
X120352778Y-59801423D01*
X120331616Y-59799500D01*
X119668384Y-59799500D01*
X119649145Y-59801248D01*
X119597807Y-59805913D01*
X119435393Y-59856522D01*
X119289811Y-59944530D01*
X119289810Y-59944531D01*
X119171161Y-60063181D01*
X119109838Y-60096666D01*
X119083480Y-60099500D01*
X118078116Y-60099500D01*
X118031805Y-60089232D01*
X118031643Y-60089723D01*
X118026840Y-60088131D01*
X118025710Y-60087881D01*
X118024791Y-60087452D01*
X117881019Y-60039811D01*
X117865185Y-60034564D01*
X117865183Y-60034563D01*
X117766681Y-60024500D01*
X117766674Y-60024500D01*
X117233326Y-60024500D01*
X117233318Y-60024500D01*
X117134816Y-60034563D01*
X117134815Y-60034564D01*
X117118981Y-60039811D01*
X116975215Y-60087450D01*
X116975204Y-60087455D01*
X116832112Y-60175716D01*
X116832107Y-60175719D01*
X116799827Y-60208000D01*
X116738503Y-60241485D01*
X116668812Y-60236499D01*
X116624467Y-60208000D01*
X116592580Y-60176114D01*
X116449577Y-60087908D01*
X116449572Y-60087906D01*
X116290083Y-60035057D01*
X116191650Y-60025000D01*
X116175000Y-60025000D01*
X116175000Y-61974999D01*
X116191636Y-61974999D01*
X116191652Y-61974998D01*
X116290083Y-61964943D01*
X116449572Y-61912093D01*
X116449577Y-61912091D01*
X116592580Y-61823885D01*
X116624466Y-61792000D01*
X116685789Y-61758515D01*
X116755481Y-61763499D01*
X116799828Y-61792000D01*
X116832108Y-61824280D01*
X116832112Y-61824283D01*
X116975204Y-61912544D01*
X116975207Y-61912545D01*
X116975213Y-61912549D01*
X117134815Y-61965436D01*
X117233326Y-61975500D01*
X117233331Y-61975500D01*
X117766669Y-61975500D01*
X117766674Y-61975500D01*
X117865185Y-61965436D01*
X118024787Y-61912549D01*
X118167891Y-61824281D01*
X118286781Y-61705391D01*
X118375049Y-61562287D01*
X118427936Y-61402685D01*
X118427936Y-61402676D01*
X118428822Y-61398544D01*
X118462104Y-61337110D01*
X118523315Y-61303422D01*
X118550075Y-61300500D01*
X119083480Y-61300500D01*
X119112920Y-61309144D01*
X119142907Y-61315668D01*
X119147922Y-61319422D01*
X119150519Y-61320185D01*
X119171161Y-61336819D01*
X119271661Y-61437319D01*
X119305146Y-61498642D01*
X119300162Y-61568334D01*
X119271661Y-61612681D01*
X119169531Y-61714810D01*
X119169530Y-61714811D01*
X119081522Y-61860393D01*
X119030913Y-62022807D01*
X119024500Y-62093386D01*
X119024500Y-62424902D01*
X119004815Y-62491941D01*
X118988181Y-62512583D01*
X118519481Y-62981282D01*
X118519479Y-62981285D01*
X118469361Y-63068094D01*
X118469359Y-63068096D01*
X118440425Y-63118209D01*
X118440424Y-63118210D01*
X118440423Y-63118215D01*
X118399499Y-63270943D01*
X118399499Y-63270945D01*
X118399499Y-63439046D01*
X118399500Y-63439059D01*
X118399500Y-65875500D01*
X118379815Y-65942539D01*
X118327011Y-65988294D01*
X118275502Y-65999500D01*
X118199999Y-65999500D01*
X118199980Y-65999501D01*
X118097203Y-66010000D01*
X118097200Y-66010001D01*
X117930668Y-66065185D01*
X117930663Y-66065187D01*
X117781342Y-66157289D01*
X117657289Y-66281342D01*
X117565187Y-66430663D01*
X117565186Y-66430666D01*
X117510001Y-66597203D01*
X117510001Y-66597204D01*
X117510000Y-66597204D01*
X117499500Y-66699983D01*
X117499500Y-66762692D01*
X117479815Y-66829731D01*
X117463181Y-66850373D01*
X117024612Y-67288941D01*
X117019111Y-67268409D01*
X116940119Y-67131592D01*
X116828408Y-67019881D01*
X116691591Y-66940889D01*
X116671059Y-66935387D01*
X117329105Y-66277340D01*
X117329104Y-66277338D01*
X117246174Y-66217087D01*
X117035802Y-66109897D01*
X116811247Y-66036934D01*
X116811248Y-66036934D01*
X116578052Y-66000000D01*
X116341948Y-66000000D01*
X116108752Y-66036934D01*
X115884197Y-66109897D01*
X115673830Y-66217084D01*
X115590894Y-66277340D01*
X116248941Y-66935387D01*
X116228409Y-66940889D01*
X116091592Y-67019881D01*
X115979881Y-67131592D01*
X115900889Y-67268409D01*
X115895387Y-67288940D01*
X115237340Y-66630893D01*
X115217593Y-66632448D01*
X115213860Y-66631663D01*
X115210222Y-66632808D01*
X115179936Y-66624537D01*
X115149215Y-66618084D01*
X115145429Y-66615114D01*
X115142821Y-66614402D01*
X115133431Y-66605701D01*
X115115712Y-66591800D01*
X115111370Y-66586978D01*
X115064517Y-66522490D01*
X114897510Y-66355483D01*
X114706433Y-66216657D01*
X114692414Y-66209514D01*
X114495996Y-66109433D01*
X114271368Y-66036446D01*
X114038097Y-65999500D01*
X114038092Y-65999500D01*
X113801908Y-65999500D01*
X113801903Y-65999500D01*
X113568631Y-66036446D01*
X113344003Y-66109433D01*
X113133566Y-66216657D01*
X113050047Y-66277338D01*
X112942490Y-66355483D01*
X112942488Y-66355485D01*
X112942487Y-66355485D01*
X112775485Y-66522487D01*
X112775485Y-66522488D01*
X112775483Y-66522490D01*
X112727127Y-66589046D01*
X112636657Y-66713566D01*
X112529433Y-66924003D01*
X112456446Y-67148631D01*
X112419500Y-67381902D01*
X112419500Y-67618097D01*
X112456446Y-67851368D01*
X112529433Y-68075996D01*
X112613652Y-68241284D01*
X112636657Y-68286433D01*
X112775483Y-68477510D01*
X112942490Y-68644517D01*
X113133567Y-68783343D01*
X113170749Y-68802288D01*
X113344003Y-68890566D01*
X113344005Y-68890566D01*
X113344008Y-68890568D01*
X113454109Y-68926342D01*
X113568631Y-68963553D01*
X113801903Y-69000500D01*
X113801908Y-69000500D01*
X114038097Y-69000500D01*
X114271368Y-68963553D01*
X114305130Y-68952583D01*
X114495992Y-68890568D01*
X114706433Y-68783343D01*
X114897510Y-68644517D01*
X115064517Y-68477510D01*
X115107547Y-68418283D01*
X115162877Y-68375618D01*
X115217594Y-68367551D01*
X115237340Y-68369105D01*
X115895387Y-67711058D01*
X115900889Y-67731591D01*
X115979881Y-67868408D01*
X116091592Y-67980119D01*
X116228409Y-68059111D01*
X116248940Y-68064612D01*
X115590893Y-68722658D01*
X115673828Y-68782914D01*
X115884197Y-68890102D01*
X116108752Y-68963065D01*
X116108751Y-68963065D01*
X116341948Y-69000000D01*
X116351401Y-69000000D01*
X116418440Y-69019685D01*
X116464195Y-69072489D01*
X116474139Y-69141647D01*
X116445114Y-69205203D01*
X116439082Y-69211681D01*
X115321286Y-70329478D01*
X115209481Y-70441282D01*
X115209480Y-70441284D01*
X115174169Y-70502445D01*
X115130423Y-70578215D01*
X115089499Y-70730943D01*
X115089499Y-70730945D01*
X115089499Y-70899046D01*
X115089500Y-70899059D01*
X115089500Y-72270397D01*
X115069815Y-72337436D01*
X115021800Y-72380879D01*
X115008389Y-72387712D01*
X114842786Y-72508028D01*
X114698028Y-72652786D01*
X114577715Y-72818386D01*
X114530485Y-72911080D01*
X114482510Y-72961876D01*
X114414689Y-72978671D01*
X114348554Y-72956134D01*
X114309515Y-72911080D01*
X114262419Y-72818650D01*
X114262287Y-72818390D01*
X114235372Y-72781344D01*
X114141971Y-72652786D01*
X113997213Y-72508028D01*
X113831613Y-72387715D01*
X113831612Y-72387714D01*
X113831610Y-72387713D01*
X113772167Y-72357425D01*
X113649223Y-72294781D01*
X113454534Y-72231522D01*
X113279995Y-72203878D01*
X113252352Y-72199500D01*
X113047648Y-72199500D01*
X113023329Y-72203351D01*
X112845465Y-72231522D01*
X112650776Y-72294781D01*
X112468386Y-72387715D01*
X112302786Y-72508028D01*
X112158028Y-72652786D01*
X112037715Y-72818386D01*
X111990485Y-72911080D01*
X111942510Y-72961876D01*
X111874689Y-72978671D01*
X111808554Y-72956134D01*
X111769515Y-72911080D01*
X111722419Y-72818650D01*
X111722287Y-72818390D01*
X111695372Y-72781344D01*
X111601971Y-72652786D01*
X111457213Y-72508028D01*
X111291610Y-72387712D01*
X111278200Y-72380879D01*
X111227406Y-72332903D01*
X111210500Y-72270397D01*
X111210500Y-68530945D01*
X111210499Y-68530941D01*
X111196183Y-68477510D01*
X111169577Y-68378215D01*
X111140639Y-68328095D01*
X111090520Y-68241284D01*
X111030395Y-68181159D01*
X111024979Y-68173872D01*
X111015898Y-68149271D01*
X111003333Y-68126259D01*
X111001659Y-68110692D01*
X111000785Y-68108324D01*
X111001201Y-68106438D01*
X111000499Y-68099901D01*
X111000499Y-66699998D01*
X111000498Y-66699981D01*
X110989999Y-66597203D01*
X110989998Y-66597200D01*
X110969989Y-66536818D01*
X110934814Y-66430666D01*
X110842712Y-66281344D01*
X110718656Y-66157288D01*
X110598136Y-66082951D01*
X110569336Y-66065187D01*
X110569331Y-66065185D01*
X110567862Y-66064698D01*
X110402797Y-66010001D01*
X110402795Y-66010000D01*
X110300016Y-65999500D01*
X110300009Y-65999500D01*
X110224500Y-65999500D01*
X110157461Y-65979815D01*
X110111706Y-65927011D01*
X110100500Y-65875500D01*
X110100500Y-63625097D01*
X110120185Y-63558058D01*
X110136819Y-63537416D01*
X110412417Y-63261819D01*
X110473740Y-63228334D01*
X110500098Y-63225500D01*
X110831613Y-63225500D01*
X110831616Y-63225500D01*
X110902196Y-63219086D01*
X111064606Y-63168478D01*
X111210185Y-63080472D01*
X111330472Y-62960185D01*
X111418478Y-62814606D01*
X111469086Y-62652196D01*
X111475500Y-62581616D01*
X111475500Y-62068384D01*
X111469086Y-61997804D01*
X111418478Y-61835394D01*
X111330472Y-61689815D01*
X111330470Y-61689813D01*
X111330469Y-61689811D01*
X111228339Y-61587681D01*
X111194854Y-61526358D01*
X111199838Y-61456666D01*
X111228339Y-61412319D01*
X111330468Y-61310189D01*
X111330469Y-61310188D01*
X111330472Y-61310185D01*
X111334119Y-61304152D01*
X114987501Y-61304152D01*
X114997556Y-61402583D01*
X115050406Y-61562072D01*
X115050408Y-61562077D01*
X115138614Y-61705080D01*
X115257419Y-61823885D01*
X115400422Y-61912091D01*
X115400427Y-61912093D01*
X115559916Y-61964942D01*
X115658356Y-61974999D01*
X115675000Y-61974998D01*
X115675000Y-61250000D01*
X114987501Y-61250000D01*
X114987501Y-61304152D01*
X111334119Y-61304152D01*
X111418478Y-61164606D01*
X111469086Y-61002196D01*
X111475500Y-60931616D01*
X111475500Y-60695849D01*
X114987500Y-60695849D01*
X114987500Y-60750000D01*
X115675000Y-60750000D01*
X115675000Y-60024999D01*
X115658356Y-60025000D01*
X115559915Y-60035057D01*
X115400427Y-60087906D01*
X115400422Y-60087908D01*
X115257419Y-60176114D01*
X115138614Y-60294919D01*
X115050408Y-60437922D01*
X115050406Y-60437927D01*
X114997557Y-60597416D01*
X114987500Y-60695849D01*
X111475500Y-60695849D01*
X111475500Y-60418384D01*
X111469086Y-60347804D01*
X111418478Y-60185394D01*
X111330472Y-60039815D01*
X111330470Y-60039813D01*
X111330469Y-60039811D01*
X111210188Y-59919530D01*
X111064606Y-59831522D01*
X110982422Y-59805913D01*
X110902196Y-59780914D01*
X110902194Y-59780913D01*
X110902192Y-59780913D01*
X110852778Y-59776423D01*
X110831616Y-59774500D01*
X110168384Y-59774500D01*
X110149145Y-59776248D01*
X110097807Y-59780913D01*
X109935393Y-59831522D01*
X109789811Y-59919530D01*
X109789810Y-59919531D01*
X109671161Y-60038181D01*
X109609838Y-60071666D01*
X109583480Y-60074500D01*
X108505714Y-60074500D01*
X108466711Y-60068206D01*
X108365188Y-60034565D01*
X108365185Y-60034564D01*
X108365180Y-60034563D01*
X108365178Y-60034563D01*
X108266681Y-60024500D01*
X108266674Y-60024500D01*
X107733326Y-60024500D01*
X107733318Y-60024500D01*
X107634816Y-60034563D01*
X107634815Y-60034564D01*
X107618981Y-60039811D01*
X107475215Y-60087450D01*
X107475204Y-60087455D01*
X107332112Y-60175716D01*
X107332107Y-60175719D01*
X107299827Y-60208000D01*
X107238503Y-60241485D01*
X107168812Y-60236499D01*
X107124467Y-60208000D01*
X107092580Y-60176114D01*
X106949577Y-60087908D01*
X106949572Y-60087906D01*
X106790083Y-60035057D01*
X106691650Y-60025000D01*
X106675000Y-60025000D01*
X106675000Y-61974999D01*
X106691636Y-61974999D01*
X106691652Y-61974998D01*
X106790083Y-61964943D01*
X106949572Y-61912093D01*
X106949577Y-61912091D01*
X107092580Y-61823885D01*
X107124466Y-61792000D01*
X107185789Y-61758515D01*
X107255481Y-61763499D01*
X107299828Y-61792000D01*
X107332108Y-61824280D01*
X107332112Y-61824283D01*
X107475204Y-61912544D01*
X107475207Y-61912545D01*
X107475213Y-61912549D01*
X107634815Y-61965436D01*
X107733326Y-61975500D01*
X107733331Y-61975500D01*
X108266669Y-61975500D01*
X108266674Y-61975500D01*
X108365185Y-61965436D01*
X108524787Y-61912549D01*
X108667891Y-61824281D01*
X108786781Y-61705391D01*
X108875049Y-61562287D01*
X108927936Y-61402685D01*
X108929549Y-61386897D01*
X108955945Y-61322205D01*
X109013126Y-61282054D01*
X109052907Y-61275500D01*
X109583480Y-61275500D01*
X109612920Y-61284144D01*
X109642907Y-61290668D01*
X109647922Y-61294422D01*
X109650519Y-61295185D01*
X109671161Y-61311819D01*
X109771661Y-61412319D01*
X109805146Y-61473642D01*
X109800162Y-61543334D01*
X109771661Y-61587681D01*
X109669531Y-61689810D01*
X109669530Y-61689811D01*
X109581522Y-61835393D01*
X109530913Y-61997807D01*
X109524500Y-62068386D01*
X109524500Y-62399902D01*
X109504815Y-62466941D01*
X109488181Y-62487583D01*
X109019481Y-62956282D01*
X109019479Y-62956285D01*
X108969361Y-63043094D01*
X108969359Y-63043096D01*
X108940425Y-63093209D01*
X108940424Y-63093210D01*
X108933724Y-63118215D01*
X108899499Y-63245943D01*
X108899499Y-63245945D01*
X108899499Y-63414046D01*
X108899500Y-63414059D01*
X108899500Y-65875500D01*
X108879815Y-65942539D01*
X108827011Y-65988294D01*
X108775502Y-65999500D01*
X108699999Y-65999500D01*
X108699980Y-65999501D01*
X108597203Y-66010000D01*
X108597200Y-66010001D01*
X108430668Y-66065185D01*
X108430663Y-66065187D01*
X108281342Y-66157289D01*
X108157289Y-66281342D01*
X108065187Y-66430663D01*
X108065186Y-66430666D01*
X108010001Y-66597203D01*
X108010001Y-66597204D01*
X108010000Y-66597204D01*
X107999500Y-66699983D01*
X107999500Y-66762691D01*
X107979815Y-66829730D01*
X107963181Y-66850372D01*
X107524612Y-67288940D01*
X107519111Y-67268409D01*
X107440119Y-67131592D01*
X107328408Y-67019881D01*
X107191591Y-66940889D01*
X107171059Y-66935387D01*
X107829105Y-66277340D01*
X107829104Y-66277338D01*
X107746174Y-66217087D01*
X107535802Y-66109897D01*
X107311247Y-66036934D01*
X107311248Y-66036934D01*
X107078052Y-66000000D01*
X106841948Y-66000000D01*
X106608752Y-66036934D01*
X106384197Y-66109897D01*
X106173830Y-66217084D01*
X106090894Y-66277340D01*
X106748941Y-66935387D01*
X106728409Y-66940889D01*
X106591592Y-67019881D01*
X106479881Y-67131592D01*
X106400889Y-67268409D01*
X106395387Y-67288940D01*
X105737340Y-66630893D01*
X105717593Y-66632448D01*
X105713860Y-66631663D01*
X105710222Y-66632808D01*
X105679936Y-66624537D01*
X105649215Y-66618084D01*
X105645429Y-66615114D01*
X105642821Y-66614402D01*
X105633431Y-66605701D01*
X105615712Y-66591800D01*
X105611370Y-66586978D01*
X105564517Y-66522490D01*
X105397510Y-66355483D01*
X105206433Y-66216657D01*
X105192414Y-66209514D01*
X104995996Y-66109433D01*
X104771368Y-66036446D01*
X104538097Y-65999500D01*
X104538092Y-65999500D01*
X104301908Y-65999500D01*
X104301903Y-65999500D01*
X104068631Y-66036446D01*
X103844003Y-66109433D01*
X103633566Y-66216657D01*
X103550047Y-66277338D01*
X103442490Y-66355483D01*
X103442488Y-66355485D01*
X103442487Y-66355485D01*
X103275485Y-66522487D01*
X103275485Y-66522488D01*
X103275483Y-66522490D01*
X103227127Y-66589046D01*
X103136657Y-66713566D01*
X103029433Y-66924003D01*
X102956446Y-67148631D01*
X102919500Y-67381902D01*
X102919500Y-67618097D01*
X102956446Y-67851368D01*
X103029433Y-68075996D01*
X103113652Y-68241284D01*
X103136657Y-68286433D01*
X103275483Y-68477510D01*
X103442490Y-68644517D01*
X103633567Y-68783343D01*
X103670749Y-68802288D01*
X103844003Y-68890566D01*
X103844005Y-68890566D01*
X103844008Y-68890568D01*
X103954109Y-68926342D01*
X104068631Y-68963553D01*
X104301903Y-69000500D01*
X104301908Y-69000500D01*
X104538097Y-69000500D01*
X104771368Y-68963553D01*
X104805130Y-68952583D01*
X104995992Y-68890568D01*
X105206433Y-68783343D01*
X105397510Y-68644517D01*
X105564517Y-68477510D01*
X105611370Y-68413022D01*
X105615713Y-68408199D01*
X105640150Y-68393142D01*
X105662877Y-68375618D01*
X105670393Y-68374509D01*
X105675199Y-68371549D01*
X105688730Y-68371806D01*
X105717594Y-68367551D01*
X105737340Y-68369105D01*
X106395387Y-67711058D01*
X106400889Y-67731591D01*
X106479881Y-67868408D01*
X106591592Y-67980119D01*
X106728409Y-68059111D01*
X106748940Y-68064612D01*
X106090893Y-68722658D01*
X106173828Y-68782914D01*
X106384197Y-68890102D01*
X106608752Y-68963065D01*
X106608751Y-68963065D01*
X106841948Y-69000000D01*
X107078052Y-69000000D01*
X107311247Y-68963065D01*
X107535802Y-68890102D01*
X107746163Y-68782918D01*
X107746169Y-68782914D01*
X107829104Y-68722658D01*
X107829105Y-68722658D01*
X107171058Y-68064612D01*
X107191591Y-68059111D01*
X107328408Y-67980119D01*
X107440119Y-67868408D01*
X107519111Y-67731591D01*
X107524612Y-67711058D01*
X107963181Y-68149627D01*
X107996666Y-68210950D01*
X107999500Y-68237306D01*
X107999500Y-68300000D01*
X107999501Y-68300019D01*
X108010000Y-68402796D01*
X108010001Y-68402799D01*
X108052464Y-68530941D01*
X108065186Y-68569334D01*
X108157288Y-68718656D01*
X108281344Y-68842712D01*
X108430666Y-68934814D01*
X108597203Y-68989999D01*
X108699991Y-69000500D01*
X109885500Y-69000499D01*
X109952539Y-69020184D01*
X109998294Y-69072987D01*
X110009500Y-69124499D01*
X110009500Y-72270397D01*
X109989815Y-72337436D01*
X109941800Y-72380879D01*
X109928389Y-72387712D01*
X109762786Y-72508028D01*
X109618028Y-72652786D01*
X109497715Y-72818386D01*
X109450485Y-72911080D01*
X109402510Y-72961876D01*
X109334689Y-72978671D01*
X109268554Y-72956134D01*
X109229515Y-72911080D01*
X109182419Y-72818650D01*
X109182287Y-72818390D01*
X109155372Y-72781344D01*
X109061971Y-72652786D01*
X108917213Y-72508028D01*
X108751613Y-72387715D01*
X108751612Y-72387714D01*
X108751610Y-72387713D01*
X108692167Y-72357425D01*
X108569223Y-72294781D01*
X108374534Y-72231522D01*
X108199995Y-72203878D01*
X108172352Y-72199500D01*
X107967648Y-72199500D01*
X107943329Y-72203351D01*
X107765465Y-72231522D01*
X107570776Y-72294781D01*
X107388386Y-72387715D01*
X107222786Y-72508028D01*
X107078028Y-72652786D01*
X106957715Y-72818386D01*
X106910485Y-72911080D01*
X106862510Y-72961876D01*
X106794689Y-72978671D01*
X106728554Y-72956134D01*
X106689515Y-72911080D01*
X106642419Y-72818650D01*
X106642287Y-72818390D01*
X106615372Y-72781344D01*
X106521971Y-72652786D01*
X106377213Y-72508028D01*
X106211613Y-72387715D01*
X106211612Y-72387714D01*
X106211610Y-72387713D01*
X106152167Y-72357425D01*
X106029223Y-72294781D01*
X105834534Y-72231522D01*
X105659995Y-72203878D01*
X105632352Y-72199500D01*
X105427648Y-72199500D01*
X105403329Y-72203351D01*
X105225465Y-72231522D01*
X105030776Y-72294781D01*
X104848386Y-72387715D01*
X104682786Y-72508028D01*
X104538028Y-72652786D01*
X104417715Y-72818386D01*
X104370485Y-72911080D01*
X104322510Y-72961876D01*
X104254689Y-72978671D01*
X104188554Y-72956134D01*
X104149515Y-72911080D01*
X104102419Y-72818650D01*
X104102287Y-72818390D01*
X104075372Y-72781344D01*
X103981971Y-72652786D01*
X103837213Y-72508028D01*
X103671610Y-72387712D01*
X103658200Y-72380879D01*
X103607406Y-72332903D01*
X103590500Y-72270397D01*
X103590500Y-70579060D01*
X103590501Y-70579047D01*
X103590501Y-70410944D01*
X103579185Y-70368713D01*
X103549577Y-70258216D01*
X103549573Y-70258209D01*
X103470524Y-70121290D01*
X103470518Y-70121282D01*
X101536818Y-68187582D01*
X101503333Y-68126259D01*
X101500499Y-68099901D01*
X101500499Y-66699998D01*
X101500498Y-66699981D01*
X101489999Y-66597203D01*
X101489998Y-66597200D01*
X101469989Y-66536818D01*
X101434814Y-66430666D01*
X101342712Y-66281344D01*
X101218656Y-66157288D01*
X101098136Y-66082951D01*
X101069336Y-66065187D01*
X101069331Y-66065185D01*
X101067862Y-66064698D01*
X100902797Y-66010001D01*
X100902795Y-66010000D01*
X100800016Y-65999500D01*
X100800009Y-65999500D01*
X100724500Y-65999500D01*
X100657461Y-65979815D01*
X100611706Y-65927011D01*
X100600500Y-65875500D01*
X100600500Y-63625097D01*
X100620185Y-63558058D01*
X100636819Y-63537416D01*
X100912417Y-63261819D01*
X100973740Y-63228334D01*
X101000098Y-63225500D01*
X101331613Y-63225500D01*
X101331616Y-63225500D01*
X101402196Y-63219086D01*
X101564606Y-63168478D01*
X101710185Y-63080472D01*
X101830472Y-62960185D01*
X101918478Y-62814606D01*
X101969086Y-62652196D01*
X101975500Y-62581616D01*
X101975500Y-62068384D01*
X101969086Y-61997804D01*
X101918478Y-61835394D01*
X101830472Y-61689815D01*
X101830470Y-61689813D01*
X101830469Y-61689811D01*
X101728339Y-61587681D01*
X101694854Y-61526358D01*
X101699838Y-61456666D01*
X101728339Y-61412319D01*
X101830468Y-61310189D01*
X101830469Y-61310188D01*
X101830472Y-61310185D01*
X101834119Y-61304152D01*
X105487501Y-61304152D01*
X105497556Y-61402583D01*
X105550406Y-61562072D01*
X105550408Y-61562077D01*
X105638614Y-61705080D01*
X105757419Y-61823885D01*
X105900422Y-61912091D01*
X105900427Y-61912093D01*
X106059916Y-61964942D01*
X106158356Y-61974999D01*
X106175000Y-61974998D01*
X106175000Y-61250000D01*
X105487501Y-61250000D01*
X105487501Y-61304152D01*
X101834119Y-61304152D01*
X101918478Y-61164606D01*
X101969086Y-61002196D01*
X101975500Y-60931616D01*
X101975500Y-60695849D01*
X105487500Y-60695849D01*
X105487500Y-60750000D01*
X106175000Y-60750000D01*
X106175000Y-60024999D01*
X106158356Y-60025000D01*
X106059915Y-60035057D01*
X105900427Y-60087906D01*
X105900422Y-60087908D01*
X105757419Y-60176114D01*
X105638614Y-60294919D01*
X105550408Y-60437922D01*
X105550406Y-60437927D01*
X105497557Y-60597416D01*
X105487500Y-60695849D01*
X101975500Y-60695849D01*
X101975500Y-60418384D01*
X101969086Y-60347804D01*
X101918478Y-60185394D01*
X101830472Y-60039815D01*
X101830470Y-60039813D01*
X101830469Y-60039811D01*
X101710188Y-59919530D01*
X101564606Y-59831522D01*
X101482422Y-59805913D01*
X101402196Y-59780914D01*
X101402194Y-59780913D01*
X101402192Y-59780913D01*
X101352778Y-59776423D01*
X101331616Y-59774500D01*
X100668384Y-59774500D01*
X100649145Y-59776248D01*
X100597807Y-59780913D01*
X100435393Y-59831522D01*
X100289811Y-59919530D01*
X100289810Y-59919531D01*
X100171161Y-60038181D01*
X100109838Y-60071666D01*
X100083480Y-60074500D01*
X99005714Y-60074500D01*
X98966711Y-60068206D01*
X98865188Y-60034565D01*
X98865185Y-60034564D01*
X98865180Y-60034563D01*
X98865178Y-60034563D01*
X98766681Y-60024500D01*
X98766674Y-60024500D01*
X98233326Y-60024500D01*
X98233318Y-60024500D01*
X98134816Y-60034563D01*
X98134815Y-60034564D01*
X98118981Y-60039811D01*
X97975215Y-60087450D01*
X97975204Y-60087455D01*
X97832112Y-60175716D01*
X97832107Y-60175719D01*
X97799827Y-60208000D01*
X97738503Y-60241485D01*
X97668812Y-60236499D01*
X97624467Y-60208000D01*
X97592580Y-60176114D01*
X97449577Y-60087908D01*
X97449572Y-60087906D01*
X97290083Y-60035057D01*
X97191650Y-60025000D01*
X97175000Y-60025000D01*
X97175000Y-61974999D01*
X97191636Y-61974999D01*
X97191652Y-61974998D01*
X97290083Y-61964943D01*
X97449572Y-61912093D01*
X97449577Y-61912091D01*
X97592580Y-61823885D01*
X97624466Y-61792000D01*
X97685789Y-61758515D01*
X97755481Y-61763499D01*
X97799828Y-61792000D01*
X97832108Y-61824280D01*
X97832112Y-61824283D01*
X97975204Y-61912544D01*
X97975207Y-61912545D01*
X97975213Y-61912549D01*
X98134815Y-61965436D01*
X98233326Y-61975500D01*
X98233331Y-61975500D01*
X98766669Y-61975500D01*
X98766674Y-61975500D01*
X98865185Y-61965436D01*
X99024787Y-61912549D01*
X99167891Y-61824281D01*
X99286781Y-61705391D01*
X99375049Y-61562287D01*
X99427936Y-61402685D01*
X99429549Y-61386897D01*
X99455945Y-61322205D01*
X99513126Y-61282054D01*
X99552907Y-61275500D01*
X100083480Y-61275500D01*
X100112920Y-61284144D01*
X100142907Y-61290668D01*
X100147922Y-61294422D01*
X100150519Y-61295185D01*
X100171161Y-61311819D01*
X100271661Y-61412319D01*
X100305146Y-61473642D01*
X100300162Y-61543334D01*
X100271661Y-61587681D01*
X100169531Y-61689810D01*
X100169530Y-61689811D01*
X100081522Y-61835393D01*
X100030913Y-61997807D01*
X100024500Y-62068386D01*
X100024500Y-62399902D01*
X100004815Y-62466941D01*
X99988181Y-62487583D01*
X99519481Y-62956282D01*
X99519479Y-62956285D01*
X99469361Y-63043094D01*
X99469359Y-63043096D01*
X99440425Y-63093209D01*
X99440424Y-63093210D01*
X99433724Y-63118215D01*
X99399499Y-63245943D01*
X99399499Y-63245945D01*
X99399499Y-63414046D01*
X99399500Y-63414059D01*
X99399500Y-65875500D01*
X99379815Y-65942539D01*
X99327011Y-65988294D01*
X99275502Y-65999500D01*
X99199999Y-65999500D01*
X99199980Y-65999501D01*
X99097203Y-66010000D01*
X99097200Y-66010001D01*
X98930668Y-66065185D01*
X98930663Y-66065187D01*
X98781342Y-66157289D01*
X98657289Y-66281342D01*
X98565187Y-66430663D01*
X98565186Y-66430666D01*
X98510001Y-66597203D01*
X98510001Y-66597204D01*
X98510000Y-66597204D01*
X98499500Y-66699983D01*
X98499500Y-66762691D01*
X98479815Y-66829730D01*
X98463181Y-66850372D01*
X98024612Y-67288940D01*
X98019111Y-67268409D01*
X97940119Y-67131592D01*
X97828408Y-67019881D01*
X97691591Y-66940889D01*
X97671059Y-66935387D01*
X98329105Y-66277340D01*
X98329104Y-66277338D01*
X98246174Y-66217087D01*
X98035802Y-66109897D01*
X97811247Y-66036934D01*
X97811248Y-66036934D01*
X97578052Y-66000000D01*
X97341948Y-66000000D01*
X97108752Y-66036934D01*
X96884197Y-66109897D01*
X96673830Y-66217084D01*
X96590894Y-66277340D01*
X97248941Y-66935387D01*
X97228409Y-66940889D01*
X97091592Y-67019881D01*
X96979881Y-67131592D01*
X96900889Y-67268409D01*
X96895387Y-67288940D01*
X96237340Y-66630893D01*
X96217593Y-66632448D01*
X96213860Y-66631663D01*
X96210222Y-66632808D01*
X96179936Y-66624537D01*
X96149215Y-66618084D01*
X96145429Y-66615114D01*
X96142821Y-66614402D01*
X96133431Y-66605701D01*
X96115712Y-66591800D01*
X96111370Y-66586978D01*
X96064517Y-66522490D01*
X95897510Y-66355483D01*
X95706433Y-66216657D01*
X95692414Y-66209514D01*
X95495996Y-66109433D01*
X95271368Y-66036446D01*
X95038097Y-65999500D01*
X95038092Y-65999500D01*
X94801908Y-65999500D01*
X94801903Y-65999500D01*
X94568631Y-66036446D01*
X94344003Y-66109433D01*
X94133566Y-66216657D01*
X94050047Y-66277338D01*
X93942490Y-66355483D01*
X93942488Y-66355485D01*
X93942487Y-66355485D01*
X93775485Y-66522487D01*
X93775485Y-66522488D01*
X93775483Y-66522490D01*
X93727127Y-66589046D01*
X93636657Y-66713566D01*
X93529433Y-66924003D01*
X93456446Y-67148631D01*
X93419500Y-67381902D01*
X93419500Y-67618097D01*
X93456446Y-67851368D01*
X93529433Y-68075996D01*
X93613652Y-68241284D01*
X93636657Y-68286433D01*
X93775483Y-68477510D01*
X93942490Y-68644517D01*
X94133567Y-68783343D01*
X94170749Y-68802288D01*
X94344003Y-68890566D01*
X94344005Y-68890566D01*
X94344008Y-68890568D01*
X94454109Y-68926342D01*
X94568631Y-68963553D01*
X94801903Y-69000500D01*
X94801908Y-69000500D01*
X95038097Y-69000500D01*
X95271368Y-68963553D01*
X95305130Y-68952583D01*
X95495992Y-68890568D01*
X95706433Y-68783343D01*
X95897510Y-68644517D01*
X96064517Y-68477510D01*
X96111370Y-68413022D01*
X96115713Y-68408199D01*
X96140150Y-68393142D01*
X96162877Y-68375618D01*
X96170393Y-68374509D01*
X96175199Y-68371549D01*
X96188730Y-68371806D01*
X96217594Y-68367551D01*
X96237340Y-68369105D01*
X96895387Y-67711058D01*
X96900889Y-67731591D01*
X96979881Y-67868408D01*
X97091592Y-67980119D01*
X97228409Y-68059111D01*
X97248940Y-68064612D01*
X96590893Y-68722658D01*
X96673828Y-68782914D01*
X96884197Y-68890102D01*
X97108752Y-68963065D01*
X97108751Y-68963065D01*
X97341948Y-69000000D01*
X97578052Y-69000000D01*
X97811247Y-68963065D01*
X98035802Y-68890102D01*
X98246163Y-68782918D01*
X98246169Y-68782914D01*
X98329104Y-68722658D01*
X98329105Y-68722658D01*
X97671058Y-68064612D01*
X97691591Y-68059111D01*
X97828408Y-67980119D01*
X97940119Y-67868408D01*
X98019111Y-67731591D01*
X98024612Y-67711058D01*
X98463181Y-68149627D01*
X98496666Y-68210950D01*
X98499500Y-68237306D01*
X98499500Y-68300000D01*
X98499501Y-68300019D01*
X98510000Y-68402796D01*
X98510001Y-68402799D01*
X98552464Y-68530941D01*
X98565186Y-68569334D01*
X98657288Y-68718656D01*
X98781344Y-68842712D01*
X98930666Y-68934814D01*
X99097203Y-68989999D01*
X99199991Y-69000500D01*
X100599901Y-69000499D01*
X100666940Y-69020184D01*
X100687582Y-69036818D01*
X102353181Y-70702416D01*
X102386666Y-70763739D01*
X102389500Y-70790097D01*
X102389500Y-72270397D01*
X102369815Y-72337436D01*
X102321800Y-72380879D01*
X102308389Y-72387712D01*
X102142786Y-72508028D01*
X101998028Y-72652786D01*
X101877715Y-72818386D01*
X101830485Y-72911080D01*
X101782510Y-72961876D01*
X101714689Y-72978671D01*
X101648554Y-72956134D01*
X101609515Y-72911080D01*
X101562419Y-72818650D01*
X101562287Y-72818390D01*
X101535372Y-72781344D01*
X101441971Y-72652786D01*
X101297213Y-72508028D01*
X101131613Y-72387715D01*
X101131612Y-72387714D01*
X101131610Y-72387713D01*
X101072167Y-72357425D01*
X100949223Y-72294781D01*
X100754534Y-72231522D01*
X100579995Y-72203878D01*
X100552352Y-72199500D01*
X100347648Y-72199500D01*
X100323329Y-72203351D01*
X100145465Y-72231522D01*
X99950776Y-72294781D01*
X99827833Y-72357425D01*
X99759164Y-72370321D01*
X99694423Y-72344045D01*
X99683857Y-72334621D01*
X96987590Y-69638355D01*
X96987588Y-69638352D01*
X96868717Y-69519481D01*
X96868716Y-69519480D01*
X96781904Y-69469360D01*
X96781904Y-69469359D01*
X96781900Y-69469358D01*
X96731785Y-69440423D01*
X96579057Y-69399499D01*
X96420943Y-69399499D01*
X96413347Y-69399499D01*
X96413331Y-69399500D01*
X93300097Y-69399500D01*
X93233058Y-69379815D01*
X93212416Y-69363181D01*
X92036818Y-68187583D01*
X92003333Y-68126260D01*
X92000499Y-68099902D01*
X92000499Y-66699998D01*
X92000498Y-66699981D01*
X91989999Y-66597203D01*
X91989998Y-66597200D01*
X91969989Y-66536818D01*
X91934814Y-66430666D01*
X91842712Y-66281344D01*
X91718656Y-66157288D01*
X91598136Y-66082951D01*
X91569336Y-66065187D01*
X91569331Y-66065185D01*
X91567862Y-66064698D01*
X91402797Y-66010001D01*
X91402795Y-66010000D01*
X91300016Y-65999500D01*
X91300009Y-65999500D01*
X91224500Y-65999500D01*
X91157461Y-65979815D01*
X91111706Y-65927011D01*
X91100500Y-65875500D01*
X91100500Y-63650097D01*
X91120185Y-63583058D01*
X91136819Y-63562416D01*
X91412417Y-63286819D01*
X91473740Y-63253334D01*
X91500098Y-63250500D01*
X91831613Y-63250500D01*
X91831616Y-63250500D01*
X91902196Y-63244086D01*
X92064606Y-63193478D01*
X92210185Y-63105472D01*
X92330472Y-62985185D01*
X92418478Y-62839606D01*
X92469086Y-62677196D01*
X92475500Y-62606616D01*
X92475500Y-62093384D01*
X92469086Y-62022804D01*
X92418478Y-61860394D01*
X92330472Y-61714815D01*
X92330470Y-61714813D01*
X92330469Y-61714811D01*
X92228339Y-61612681D01*
X92194854Y-61551358D01*
X92199838Y-61481666D01*
X92228339Y-61437319D01*
X92330468Y-61335189D01*
X92330469Y-61335188D01*
X92330472Y-61335185D01*
X92349232Y-61304152D01*
X95987501Y-61304152D01*
X95997556Y-61402583D01*
X96050406Y-61562072D01*
X96050408Y-61562077D01*
X96138614Y-61705080D01*
X96257419Y-61823885D01*
X96400422Y-61912091D01*
X96400427Y-61912093D01*
X96559916Y-61964942D01*
X96658356Y-61974999D01*
X96675000Y-61974998D01*
X96675000Y-61250000D01*
X95987501Y-61250000D01*
X95987501Y-61304152D01*
X92349232Y-61304152D01*
X92418478Y-61189606D01*
X92469086Y-61027196D01*
X92475500Y-60956616D01*
X92475500Y-60695849D01*
X95987500Y-60695849D01*
X95987500Y-60750000D01*
X96675000Y-60750000D01*
X96675000Y-60024999D01*
X96658356Y-60025000D01*
X96559915Y-60035057D01*
X96400427Y-60087906D01*
X96400422Y-60087908D01*
X96257419Y-60176114D01*
X96138614Y-60294919D01*
X96050408Y-60437922D01*
X96050406Y-60437927D01*
X95997557Y-60597416D01*
X95987500Y-60695849D01*
X92475500Y-60695849D01*
X92475500Y-60443384D01*
X92469086Y-60372804D01*
X92418478Y-60210394D01*
X92330472Y-60064815D01*
X92330470Y-60064813D01*
X92330469Y-60064811D01*
X92210188Y-59944530D01*
X92128186Y-59894958D01*
X92064606Y-59856522D01*
X91902196Y-59805914D01*
X91902194Y-59805913D01*
X91902192Y-59805913D01*
X91852778Y-59801423D01*
X91831616Y-59799500D01*
X91168384Y-59799500D01*
X91149145Y-59801248D01*
X91097807Y-59805913D01*
X90935393Y-59856522D01*
X90789811Y-59944530D01*
X90789810Y-59944531D01*
X90671161Y-60063181D01*
X90609838Y-60096666D01*
X90583480Y-60099500D01*
X89578116Y-60099500D01*
X89531805Y-60089232D01*
X89531643Y-60089723D01*
X89526840Y-60088131D01*
X89525710Y-60087881D01*
X89524791Y-60087452D01*
X89381019Y-60039811D01*
X89365185Y-60034564D01*
X89365183Y-60034563D01*
X89266681Y-60024500D01*
X89266674Y-60024500D01*
X88733326Y-60024500D01*
X88733318Y-60024500D01*
X88634816Y-60034563D01*
X88634815Y-60034564D01*
X88618981Y-60039811D01*
X88475215Y-60087450D01*
X88475204Y-60087455D01*
X88332112Y-60175716D01*
X88332107Y-60175719D01*
X88299827Y-60208000D01*
X88238503Y-60241485D01*
X88168812Y-60236499D01*
X88124467Y-60208000D01*
X88092580Y-60176114D01*
X87949577Y-60087908D01*
X87949572Y-60087906D01*
X87790083Y-60035057D01*
X87691650Y-60025000D01*
X87675000Y-60025000D01*
X87675000Y-61974999D01*
X87691636Y-61974999D01*
X87691652Y-61974998D01*
X87790083Y-61964943D01*
X87949572Y-61912093D01*
X87949577Y-61912091D01*
X88092580Y-61823885D01*
X88124466Y-61792000D01*
X88185789Y-61758515D01*
X88255481Y-61763499D01*
X88299828Y-61792000D01*
X88332108Y-61824280D01*
X88332112Y-61824283D01*
X88475204Y-61912544D01*
X88475207Y-61912545D01*
X88475213Y-61912549D01*
X88634815Y-61965436D01*
X88733326Y-61975500D01*
X88733331Y-61975500D01*
X89266669Y-61975500D01*
X89266674Y-61975500D01*
X89365185Y-61965436D01*
X89524787Y-61912549D01*
X89667891Y-61824281D01*
X89786781Y-61705391D01*
X89875049Y-61562287D01*
X89927936Y-61402685D01*
X89927936Y-61402676D01*
X89928822Y-61398544D01*
X89962104Y-61337110D01*
X90023315Y-61303422D01*
X90050075Y-61300500D01*
X90583480Y-61300500D01*
X90612920Y-61309144D01*
X90642907Y-61315668D01*
X90647922Y-61319422D01*
X90650519Y-61320185D01*
X90671161Y-61336819D01*
X90771661Y-61437319D01*
X90805146Y-61498642D01*
X90800162Y-61568334D01*
X90771661Y-61612681D01*
X90669531Y-61714810D01*
X90669530Y-61714811D01*
X90581522Y-61860393D01*
X90530913Y-62022807D01*
X90524500Y-62093386D01*
X90524500Y-62424902D01*
X90504815Y-62491941D01*
X90488181Y-62512583D01*
X90019481Y-62981282D01*
X90019479Y-62981285D01*
X89969361Y-63068094D01*
X89969359Y-63068096D01*
X89940425Y-63118209D01*
X89940424Y-63118210D01*
X89940423Y-63118215D01*
X89899499Y-63270943D01*
X89899499Y-63270945D01*
X89899499Y-63439046D01*
X89899500Y-63439059D01*
X89899500Y-65875500D01*
X89879815Y-65942539D01*
X89827011Y-65988294D01*
X89775502Y-65999500D01*
X89699999Y-65999500D01*
X89699980Y-65999501D01*
X89597203Y-66010000D01*
X89597200Y-66010001D01*
X89430668Y-66065185D01*
X89430663Y-66065187D01*
X89281342Y-66157289D01*
X89157289Y-66281342D01*
X89065187Y-66430663D01*
X89065186Y-66430666D01*
X89010001Y-66597203D01*
X89010001Y-66597204D01*
X89010000Y-66597204D01*
X88999500Y-66699983D01*
X88999500Y-66762691D01*
X88979815Y-66829730D01*
X88963181Y-66850372D01*
X88524612Y-67288940D01*
X88519111Y-67268409D01*
X88440119Y-67131592D01*
X88328408Y-67019881D01*
X88191591Y-66940889D01*
X88171059Y-66935387D01*
X88829105Y-66277340D01*
X88829104Y-66277338D01*
X88746174Y-66217087D01*
X88535802Y-66109897D01*
X88311247Y-66036934D01*
X88311248Y-66036934D01*
X88078052Y-66000000D01*
X87841948Y-66000000D01*
X87608752Y-66036934D01*
X87384197Y-66109897D01*
X87173830Y-66217084D01*
X87090894Y-66277340D01*
X87748941Y-66935387D01*
X87728409Y-66940889D01*
X87591592Y-67019881D01*
X87479881Y-67131592D01*
X87400889Y-67268409D01*
X87395387Y-67288940D01*
X86737340Y-66630893D01*
X86717593Y-66632448D01*
X86713860Y-66631663D01*
X86710222Y-66632808D01*
X86679936Y-66624537D01*
X86649215Y-66618084D01*
X86645429Y-66615114D01*
X86642821Y-66614402D01*
X86633431Y-66605701D01*
X86615712Y-66591800D01*
X86611370Y-66586978D01*
X86564517Y-66522490D01*
X86397510Y-66355483D01*
X86206433Y-66216657D01*
X86192414Y-66209514D01*
X85995996Y-66109433D01*
X85771368Y-66036446D01*
X85538097Y-65999500D01*
X85538092Y-65999500D01*
X85301908Y-65999500D01*
X85301903Y-65999500D01*
X85068631Y-66036446D01*
X84844003Y-66109433D01*
X84633566Y-66216657D01*
X84550047Y-66277338D01*
X84442490Y-66355483D01*
X84442488Y-66355485D01*
X84442487Y-66355485D01*
X84275485Y-66522487D01*
X84275485Y-66522488D01*
X84275483Y-66522490D01*
X84227127Y-66589046D01*
X84136657Y-66713566D01*
X84029433Y-66924003D01*
X83956446Y-67148631D01*
X83919500Y-67381902D01*
X83919500Y-67618097D01*
X83956446Y-67851368D01*
X84029433Y-68075996D01*
X84113652Y-68241284D01*
X84136657Y-68286433D01*
X84275483Y-68477510D01*
X84442490Y-68644517D01*
X84633567Y-68783343D01*
X84670749Y-68802288D01*
X84844003Y-68890566D01*
X84844005Y-68890566D01*
X84844008Y-68890568D01*
X84954109Y-68926342D01*
X85068631Y-68963553D01*
X85301903Y-69000500D01*
X85301908Y-69000500D01*
X85538097Y-69000500D01*
X85771368Y-68963553D01*
X85805130Y-68952583D01*
X85995992Y-68890568D01*
X86206433Y-68783343D01*
X86397510Y-68644517D01*
X86564517Y-68477510D01*
X86611370Y-68413022D01*
X86615713Y-68408199D01*
X86640150Y-68393142D01*
X86662877Y-68375618D01*
X86670393Y-68374509D01*
X86675199Y-68371549D01*
X86688730Y-68371806D01*
X86717594Y-68367551D01*
X86737340Y-68369105D01*
X87395387Y-67711058D01*
X87400889Y-67731591D01*
X87479881Y-67868408D01*
X87591592Y-67980119D01*
X87728409Y-68059111D01*
X87748940Y-68064612D01*
X87090893Y-68722658D01*
X87173828Y-68782914D01*
X87384197Y-68890102D01*
X87608752Y-68963065D01*
X87608751Y-68963065D01*
X87841948Y-69000000D01*
X88078052Y-69000000D01*
X88311247Y-68963065D01*
X88535802Y-68890102D01*
X88746163Y-68782918D01*
X88746169Y-68782914D01*
X88829104Y-68722658D01*
X88829105Y-68722658D01*
X88171058Y-68064612D01*
X88191591Y-68059111D01*
X88328408Y-67980119D01*
X88440119Y-67868408D01*
X88519111Y-67731591D01*
X88524612Y-67711058D01*
X88963181Y-68149627D01*
X88996666Y-68210950D01*
X88999500Y-68237306D01*
X88999500Y-68300000D01*
X88999501Y-68300019D01*
X89010000Y-68402796D01*
X89010001Y-68402799D01*
X89052464Y-68530941D01*
X89065186Y-68569334D01*
X89157288Y-68718656D01*
X89281344Y-68842712D01*
X89430666Y-68934814D01*
X89597203Y-68989999D01*
X89699991Y-69000500D01*
X91099902Y-69000499D01*
X91166941Y-69020184D01*
X91187583Y-69036818D01*
X92515139Y-70364374D01*
X92515149Y-70364385D01*
X92519479Y-70368715D01*
X92519480Y-70368716D01*
X92631284Y-70480520D01*
X92718095Y-70530639D01*
X92718097Y-70530641D01*
X92756151Y-70552611D01*
X92768215Y-70559577D01*
X92920943Y-70600501D01*
X92920946Y-70600501D01*
X93086653Y-70600501D01*
X93086669Y-70600500D01*
X96199903Y-70600500D01*
X96266942Y-70620185D01*
X96287584Y-70636819D01*
X97672353Y-72021589D01*
X97705838Y-72082912D01*
X97700854Y-72152604D01*
X97658982Y-72208537D01*
X97609927Y-72229275D01*
X97610194Y-72230388D01*
X97605465Y-72231522D01*
X97410776Y-72294781D01*
X97228386Y-72387715D01*
X97062786Y-72508028D01*
X96918028Y-72652786D01*
X96797715Y-72818386D01*
X96750485Y-72911080D01*
X96702510Y-72961876D01*
X96634689Y-72978671D01*
X96568554Y-72956134D01*
X96529515Y-72911080D01*
X96482419Y-72818650D01*
X96482287Y-72818390D01*
X96455372Y-72781344D01*
X96361971Y-72652786D01*
X96217213Y-72508028D01*
X96051613Y-72387715D01*
X96051612Y-72387714D01*
X96051610Y-72387713D01*
X95992167Y-72357425D01*
X95869223Y-72294781D01*
X95674534Y-72231522D01*
X95499995Y-72203878D01*
X95472352Y-72199500D01*
X95267648Y-72199500D01*
X95243329Y-72203351D01*
X95065465Y-72231522D01*
X94870776Y-72294781D01*
X94688386Y-72387715D01*
X94522786Y-72508028D01*
X94378028Y-72652786D01*
X94257715Y-72818386D01*
X94210485Y-72911080D01*
X94162510Y-72961876D01*
X94094689Y-72978671D01*
X94028554Y-72956134D01*
X93989515Y-72911080D01*
X93942419Y-72818650D01*
X93942287Y-72818390D01*
X93915372Y-72781344D01*
X93821971Y-72652786D01*
X93677213Y-72508028D01*
X93511613Y-72387715D01*
X93511612Y-72387714D01*
X93511610Y-72387713D01*
X93452167Y-72357425D01*
X93329223Y-72294781D01*
X93134534Y-72231522D01*
X92959995Y-72203878D01*
X92932352Y-72199500D01*
X92727648Y-72199500D01*
X92703329Y-72203351D01*
X92525465Y-72231522D01*
X92330776Y-72294781D01*
X92148386Y-72387715D01*
X91982786Y-72508028D01*
X91838028Y-72652786D01*
X91717715Y-72818386D01*
X91670485Y-72911080D01*
X91622510Y-72961876D01*
X91554689Y-72978671D01*
X91488554Y-72956134D01*
X91449515Y-72911080D01*
X91402419Y-72818650D01*
X91402287Y-72818390D01*
X91375372Y-72781344D01*
X91281971Y-72652786D01*
X91137213Y-72508028D01*
X90971613Y-72387715D01*
X90971612Y-72387714D01*
X90971610Y-72387713D01*
X90912167Y-72357425D01*
X90789223Y-72294781D01*
X90594534Y-72231522D01*
X90419995Y-72203878D01*
X90392352Y-72199500D01*
X90187648Y-72199500D01*
X90149599Y-72205526D01*
X89985468Y-72231522D01*
X89976717Y-72234365D01*
X89971154Y-72236173D01*
X89901313Y-72238167D01*
X89845157Y-72205922D01*
X87357590Y-69718355D01*
X87357588Y-69718352D01*
X87238717Y-69599481D01*
X87238716Y-69599480D01*
X87151904Y-69549360D01*
X87151904Y-69549359D01*
X87151900Y-69549358D01*
X87101785Y-69520423D01*
X86949057Y-69479499D01*
X86790943Y-69479499D01*
X86783347Y-69479499D01*
X86783331Y-69479500D01*
X80654068Y-69479500D01*
X80587029Y-69459815D01*
X80543583Y-69411795D01*
X80483343Y-69293567D01*
X80344517Y-69102490D01*
X80177510Y-68935483D01*
X80176586Y-68934812D01*
X80118283Y-68892452D01*
X80075617Y-68837122D01*
X80067550Y-68782404D01*
X80069104Y-68762657D01*
X79411058Y-68104612D01*
X79431591Y-68099111D01*
X79568408Y-68020119D01*
X79680119Y-67908408D01*
X79759111Y-67771591D01*
X79764612Y-67751059D01*
X80422658Y-68409105D01*
X80422658Y-68409104D01*
X80482914Y-68326169D01*
X80482918Y-68326163D01*
X80590102Y-68115802D01*
X80663065Y-67891247D01*
X80700000Y-67658052D01*
X80700000Y-67421947D01*
X80695959Y-67396434D01*
X80663065Y-67188752D01*
X80590102Y-66964197D01*
X80482914Y-66753828D01*
X80422658Y-66670894D01*
X80422658Y-66670893D01*
X79764612Y-67328940D01*
X79759111Y-67308409D01*
X79680119Y-67171592D01*
X79568408Y-67059881D01*
X79431591Y-66980889D01*
X79411058Y-66975387D01*
X79849627Y-66536818D01*
X79910950Y-66503333D01*
X79937307Y-66500499D01*
X80000008Y-66500499D01*
X80102797Y-66489999D01*
X80269334Y-66434814D01*
X80418656Y-66342712D01*
X80542712Y-66218656D01*
X80634814Y-66069334D01*
X80689999Y-65902797D01*
X80700500Y-65800009D01*
X80700499Y-64199992D01*
X80689999Y-64097203D01*
X80634814Y-63930666D01*
X80542712Y-63781344D01*
X80418656Y-63657288D01*
X80298309Y-63583058D01*
X80269336Y-63565187D01*
X80269331Y-63565185D01*
X80247823Y-63558058D01*
X80102797Y-63510001D01*
X80102795Y-63510000D01*
X80000010Y-63499500D01*
X78399998Y-63499500D01*
X78399981Y-63499501D01*
X78297203Y-63510000D01*
X78297200Y-63510001D01*
X78130668Y-63565185D01*
X78130663Y-63565187D01*
X77981342Y-63657289D01*
X77857289Y-63781342D01*
X77765187Y-63930663D01*
X77765186Y-63930666D01*
X77710001Y-64097203D01*
X77710001Y-64097204D01*
X77710000Y-64097204D01*
X77699500Y-64199983D01*
X77699500Y-65800001D01*
X77699501Y-65800018D01*
X77710000Y-65902796D01*
X77710001Y-65902799D01*
X77745525Y-66010001D01*
X77765186Y-66069334D01*
X77857288Y-66218656D01*
X77981344Y-66342712D01*
X78130666Y-66434814D01*
X78297203Y-66489999D01*
X78399991Y-66500500D01*
X78462692Y-66500499D01*
X78529729Y-66520183D01*
X78550372Y-66536818D01*
X78988941Y-66975387D01*
X78968409Y-66980889D01*
X78831592Y-67059881D01*
X78719881Y-67171592D01*
X78640889Y-67308409D01*
X78635387Y-67328941D01*
X77977340Y-66670894D01*
X77917084Y-66753830D01*
X77809897Y-66964197D01*
X77736934Y-67188752D01*
X77700000Y-67421947D01*
X77700000Y-67658052D01*
X77736934Y-67891247D01*
X77809897Y-68115802D01*
X77917087Y-68326174D01*
X77977338Y-68409104D01*
X77977340Y-68409105D01*
X78635387Y-67751058D01*
X78640889Y-67771591D01*
X78719881Y-67908408D01*
X78831592Y-68020119D01*
X78968409Y-68099111D01*
X78988940Y-68104612D01*
X78330893Y-68762658D01*
X78332448Y-68782405D01*
X78318084Y-68850783D01*
X78281717Y-68892451D01*
X78222490Y-68935482D01*
X78055485Y-69102487D01*
X78055485Y-69102488D01*
X78055483Y-69102490D01*
X78027034Y-69141647D01*
X77916657Y-69293566D01*
X77809433Y-69504003D01*
X77736446Y-69728631D01*
X77699500Y-69961902D01*
X77699500Y-70198091D01*
X77708688Y-70256102D01*
X77699733Y-70325396D01*
X77654737Y-70378848D01*
X77587986Y-70399487D01*
X77586215Y-70399500D01*
X74891715Y-70399500D01*
X74824676Y-70379815D01*
X74785598Y-70339650D01*
X74766262Y-70307664D01*
X74755472Y-70289815D01*
X74755470Y-70289813D01*
X74755469Y-70289811D01*
X74635188Y-70169530D01*
X74489606Y-70081522D01*
X74327196Y-70030914D01*
X74327194Y-70030913D01*
X74327192Y-70030913D01*
X74277778Y-70026423D01*
X74256616Y-70024500D01*
X73743384Y-70024500D01*
X73724145Y-70026248D01*
X73672807Y-70030913D01*
X73510393Y-70081522D01*
X73364811Y-70169530D01*
X73364810Y-70169531D01*
X73262681Y-70271661D01*
X73254735Y-70275999D01*
X73249310Y-70283247D01*
X73224550Y-70292481D01*
X73201358Y-70305146D01*
X73192328Y-70304500D01*
X73183846Y-70307664D01*
X73158025Y-70302047D01*
X73131666Y-70300162D01*
X73122612Y-70294343D01*
X73115573Y-70292812D01*
X73087319Y-70271661D01*
X72986819Y-70171161D01*
X72953334Y-70109838D01*
X72950500Y-70083480D01*
X72950500Y-69230460D01*
X72970185Y-69163421D01*
X73022989Y-69117666D01*
X73061896Y-69107103D01*
X73102685Y-69102936D01*
X73262287Y-69050049D01*
X73405391Y-68961781D01*
X73524281Y-68842891D01*
X73612549Y-68699787D01*
X73665436Y-68540185D01*
X73675500Y-68441674D01*
X73675500Y-67908326D01*
X73665436Y-67809815D01*
X73612549Y-67650213D01*
X73612545Y-67650207D01*
X73612544Y-67650204D01*
X73524283Y-67507112D01*
X73524280Y-67507108D01*
X73492000Y-67474828D01*
X73458515Y-67413505D01*
X73463499Y-67343813D01*
X73492000Y-67299466D01*
X73523885Y-67267580D01*
X73612091Y-67124577D01*
X73612093Y-67124572D01*
X73664942Y-66965083D01*
X73674999Y-66866650D01*
X73675000Y-66866637D01*
X73675000Y-66850000D01*
X71725001Y-66850000D01*
X71725001Y-66866652D01*
X71735056Y-66965083D01*
X71787906Y-67124572D01*
X71787908Y-67124577D01*
X71876114Y-67267580D01*
X71908000Y-67299467D01*
X71941485Y-67360791D01*
X71936499Y-67430482D01*
X71908000Y-67474827D01*
X71875719Y-67507107D01*
X71875716Y-67507112D01*
X71787455Y-67650204D01*
X71787450Y-67650215D01*
X71766754Y-67712672D01*
X71734564Y-67809815D01*
X71734564Y-67809816D01*
X71734563Y-67809816D01*
X71724500Y-67908318D01*
X71724500Y-68441683D01*
X71734563Y-68540178D01*
X71734564Y-68540186D01*
X71743205Y-68566261D01*
X71743654Y-68569045D01*
X71744472Y-68570317D01*
X71749480Y-68605136D01*
X71749499Y-68605251D01*
X71749500Y-68614045D01*
X71749499Y-68614048D01*
X71749500Y-68614059D01*
X71749500Y-70083480D01*
X71729815Y-70150519D01*
X71713181Y-70171161D01*
X71594531Y-70289810D01*
X71594530Y-70289811D01*
X71506522Y-70435393D01*
X71455913Y-70597807D01*
X71453880Y-70620185D01*
X71449500Y-70668384D01*
X71449500Y-71331616D01*
X71450301Y-71340426D01*
X71455913Y-71402192D01*
X71455913Y-71402194D01*
X71455914Y-71402196D01*
X71474677Y-71462409D01*
X71506522Y-71564606D01*
X71594530Y-71710188D01*
X71714811Y-71830469D01*
X71714813Y-71830470D01*
X71714815Y-71830472D01*
X71860394Y-71918478D01*
X72022804Y-71969086D01*
X72093384Y-71975500D01*
X72093387Y-71975500D01*
X72606613Y-71975500D01*
X72606616Y-71975500D01*
X72677196Y-71969086D01*
X72839606Y-71918478D01*
X72985185Y-71830472D01*
X72985189Y-71830468D01*
X73087319Y-71728339D01*
X73148642Y-71694854D01*
X73218334Y-71699838D01*
X73262681Y-71728339D01*
X73364811Y-71830469D01*
X73364813Y-71830470D01*
X73364815Y-71830472D01*
X73510394Y-71918478D01*
X73672804Y-71969086D01*
X73743384Y-71975500D01*
X73743387Y-71975500D01*
X74256613Y-71975500D01*
X74256616Y-71975500D01*
X74327196Y-71969086D01*
X74489606Y-71918478D01*
X74635185Y-71830472D01*
X74755472Y-71710185D01*
X74785598Y-71660349D01*
X74837126Y-71613162D01*
X74891715Y-71600500D01*
X78013331Y-71600500D01*
X78013347Y-71600501D01*
X78020943Y-71600501D01*
X78179054Y-71600501D01*
X78179057Y-71600501D01*
X78331785Y-71559577D01*
X78381904Y-71530639D01*
X78468716Y-71480520D01*
X78474681Y-71474554D01*
X78487579Y-71466762D01*
X78507346Y-71461548D01*
X78525287Y-71451741D01*
X78540445Y-71452818D01*
X78555138Y-71448943D01*
X78574587Y-71455243D01*
X78594981Y-71456693D01*
X78607991Y-71462406D01*
X78624008Y-71470568D01*
X78793544Y-71525654D01*
X78848631Y-71543553D01*
X79081903Y-71580500D01*
X79081908Y-71580500D01*
X79318097Y-71580500D01*
X79551368Y-71543553D01*
X79775992Y-71470568D01*
X79986433Y-71363343D01*
X80177510Y-71224517D01*
X80344517Y-71057510D01*
X80483343Y-70866433D01*
X80543583Y-70748204D01*
X80591558Y-70697409D01*
X80654068Y-70680500D01*
X86569903Y-70680500D01*
X86636942Y-70700185D01*
X86657584Y-70716819D01*
X88995922Y-73055157D01*
X89029407Y-73116480D01*
X89026173Y-73181155D01*
X89021522Y-73195468D01*
X88989500Y-73397648D01*
X88989500Y-73602351D01*
X89021522Y-73804534D01*
X89084781Y-73999223D01*
X89177715Y-74181613D01*
X89298028Y-74347213D01*
X89442786Y-74491971D01*
X89579011Y-74590942D01*
X89608390Y-74612287D01*
X89697212Y-74657544D01*
X89790776Y-74705218D01*
X89790778Y-74705218D01*
X89790781Y-74705220D01*
X89893871Y-74738716D01*
X89985465Y-74768477D01*
X90041828Y-74777404D01*
X90187648Y-74800500D01*
X90187649Y-74800500D01*
X90392351Y-74800500D01*
X90392352Y-74800500D01*
X90594534Y-74768477D01*
X90789219Y-74705220D01*
X90971610Y-74612287D01*
X91079416Y-74533962D01*
X91137213Y-74491971D01*
X91137215Y-74491968D01*
X91137219Y-74491966D01*
X91281966Y-74347219D01*
X91281968Y-74347215D01*
X91281971Y-74347213D01*
X91402284Y-74181614D01*
X91402286Y-74181611D01*
X91402287Y-74181610D01*
X91449516Y-74088917D01*
X91497489Y-74038123D01*
X91565310Y-74021328D01*
X91631445Y-74043865D01*
X91670485Y-74088919D01*
X91717715Y-74181614D01*
X91838023Y-74347206D01*
X91839826Y-74349316D01*
X91840259Y-74350284D01*
X91840897Y-74351161D01*
X91840712Y-74351294D01*
X91868403Y-74413075D01*
X91857973Y-74482161D01*
X91833225Y-74517539D01*
X85940970Y-80409793D01*
X85879647Y-80443278D01*
X85809955Y-80438294D01*
X85754022Y-80396422D01*
X85743519Y-80377972D01*
X85742780Y-80378349D01*
X85662687Y-80221158D01*
X85633343Y-80163567D01*
X85494517Y-79972490D01*
X85327510Y-79805483D01*
X85218501Y-79726283D01*
X85136431Y-79666655D01*
X85018204Y-79606415D01*
X84967409Y-79558441D01*
X84950500Y-79495931D01*
X84950500Y-75904067D01*
X84970185Y-75837028D01*
X85018205Y-75793582D01*
X85136433Y-75733343D01*
X85327510Y-75594517D01*
X85494517Y-75427510D01*
X85633343Y-75236433D01*
X85740568Y-75025992D01*
X85813553Y-74801368D01*
X85816042Y-74785651D01*
X85850500Y-74568097D01*
X85850500Y-74331902D01*
X85813553Y-74098631D01*
X85761192Y-73937482D01*
X85740568Y-73874008D01*
X85740566Y-73874005D01*
X85740566Y-73874003D01*
X85633477Y-73663830D01*
X85633343Y-73663567D01*
X85494517Y-73472490D01*
X85327510Y-73305483D01*
X85136433Y-73166657D01*
X85079076Y-73137432D01*
X84925996Y-73059433D01*
X84701368Y-72986446D01*
X84468097Y-72949500D01*
X84468092Y-72949500D01*
X84231908Y-72949500D01*
X84231903Y-72949500D01*
X83998631Y-72986446D01*
X83774003Y-73059433D01*
X83563566Y-73166657D01*
X83482577Y-73225500D01*
X83372490Y-73305483D01*
X83372488Y-73305485D01*
X83372487Y-73305485D01*
X83205485Y-73472487D01*
X83205485Y-73472488D01*
X83205483Y-73472490D01*
X83161813Y-73532596D01*
X83066657Y-73663566D01*
X82959433Y-73874003D01*
X82886446Y-74098631D01*
X82849500Y-74331902D01*
X82849500Y-74568097D01*
X82886446Y-74801368D01*
X82922486Y-74912284D01*
X82959432Y-75025992D01*
X82959433Y-75025995D01*
X82959434Y-75025996D01*
X83006926Y-75119205D01*
X83019822Y-75187875D01*
X82993545Y-75252615D01*
X82936439Y-75292872D01*
X82896441Y-75299500D01*
X81302997Y-75299500D01*
X81235958Y-75279815D01*
X81190203Y-75227011D01*
X81180259Y-75157853D01*
X81192512Y-75119205D01*
X81240102Y-75025802D01*
X81313065Y-74801247D01*
X81350000Y-74568052D01*
X81350000Y-74331947D01*
X81313065Y-74098752D01*
X81240102Y-73874197D01*
X81132914Y-73663828D01*
X81072658Y-73580894D01*
X81072658Y-73580893D01*
X80373787Y-74279764D01*
X80362518Y-74237708D01*
X80290110Y-74112292D01*
X80187708Y-74009890D01*
X80062292Y-73937482D01*
X80020234Y-73926212D01*
X80719105Y-73227340D01*
X80719104Y-73227338D01*
X80636174Y-73167087D01*
X80425802Y-73059897D01*
X80201247Y-72986934D01*
X80201248Y-72986934D01*
X79968052Y-72950000D01*
X79731948Y-72950000D01*
X79498752Y-72986934D01*
X79274197Y-73059897D01*
X79063830Y-73167084D01*
X78980894Y-73227340D01*
X79679766Y-73926212D01*
X79637708Y-73937482D01*
X79512292Y-74009890D01*
X79409890Y-74112292D01*
X79337482Y-74237708D01*
X79326212Y-74279766D01*
X78627340Y-73580894D01*
X78567084Y-73663830D01*
X78459897Y-73874197D01*
X78386934Y-74098752D01*
X78350000Y-74331947D01*
X78350000Y-74568052D01*
X78386934Y-74801247D01*
X78459897Y-75025802D01*
X78507488Y-75119205D01*
X78520384Y-75187874D01*
X78494108Y-75252615D01*
X78437001Y-75292872D01*
X78397003Y-75299500D01*
X77500097Y-75299500D01*
X77433058Y-75279815D01*
X77412416Y-75263181D01*
X76436818Y-74287583D01*
X76403333Y-74226260D01*
X76400499Y-74199902D01*
X76400499Y-73199998D01*
X76400498Y-73199981D01*
X76389999Y-73097203D01*
X76389998Y-73097200D01*
X76369080Y-73034075D01*
X76334814Y-72930666D01*
X76242712Y-72781344D01*
X76118656Y-72657288D01*
X75969334Y-72565186D01*
X75802797Y-72510001D01*
X75802795Y-72510000D01*
X75700010Y-72499500D01*
X74499998Y-72499500D01*
X74499981Y-72499501D01*
X74397203Y-72510000D01*
X74397200Y-72510001D01*
X74230668Y-72565185D01*
X74230663Y-72565187D01*
X74081342Y-72657289D01*
X73957289Y-72781342D01*
X73865187Y-72930663D01*
X73865186Y-72930666D01*
X73838045Y-73012571D01*
X73798271Y-73070016D01*
X73733755Y-73096838D01*
X73664979Y-73084522D01*
X73620021Y-73046452D01*
X73551966Y-72952781D01*
X73407219Y-72808034D01*
X73407213Y-72808028D01*
X73241613Y-72687715D01*
X73241612Y-72687714D01*
X73241610Y-72687713D01*
X73148243Y-72640140D01*
X73059223Y-72594781D01*
X72864534Y-72531522D01*
X72689995Y-72503878D01*
X72662352Y-72499500D01*
X72457648Y-72499500D01*
X72433329Y-72503351D01*
X72255465Y-72531522D01*
X72060776Y-72594781D01*
X71878386Y-72687715D01*
X71712786Y-72808028D01*
X71568028Y-72952786D01*
X71447715Y-73118386D01*
X71354781Y-73300776D01*
X71291522Y-73495465D01*
X71259500Y-73697648D01*
X71259500Y-73902351D01*
X71291522Y-74104534D01*
X71354781Y-74299223D01*
X71409942Y-74407480D01*
X71444090Y-74474500D01*
X71447715Y-74481613D01*
X71568028Y-74647213D01*
X71712786Y-74791971D01*
X71867749Y-74904556D01*
X71878390Y-74912287D01*
X71942815Y-74945113D01*
X72060776Y-75005218D01*
X72060778Y-75005218D01*
X72060781Y-75005220D01*
X72124126Y-75025802D01*
X72255465Y-75068477D01*
X72356557Y-75084488D01*
X72457648Y-75100500D01*
X72457649Y-75100500D01*
X72662351Y-75100500D01*
X72662352Y-75100500D01*
X72864534Y-75068477D01*
X72878842Y-75063827D01*
X72948682Y-75061831D01*
X73004842Y-75094077D01*
X74975139Y-77064374D01*
X74975149Y-77064385D01*
X74979479Y-77068715D01*
X74979480Y-77068716D01*
X75091284Y-77180520D01*
X75091286Y-77180521D01*
X75091290Y-77180524D01*
X75185541Y-77234939D01*
X75228216Y-77259577D01*
X75328448Y-77286434D01*
X75380942Y-77300500D01*
X75380943Y-77300500D01*
X83120234Y-77300500D01*
X83187273Y-77320185D01*
X83189125Y-77321398D01*
X83320814Y-77409390D01*
X83320827Y-77409397D01*
X83388716Y-77437517D01*
X83466503Y-77469737D01*
X83619062Y-77500083D01*
X83621153Y-77500499D01*
X83621156Y-77500500D01*
X83621158Y-77500500D01*
X83625500Y-77500500D01*
X83692539Y-77520185D01*
X83738294Y-77572989D01*
X83749500Y-77624500D01*
X83749500Y-79495931D01*
X83729815Y-79562970D01*
X83681796Y-79606415D01*
X83563568Y-79666655D01*
X83480044Y-79727340D01*
X83372490Y-79805483D01*
X83372488Y-79805485D01*
X83372487Y-79805485D01*
X83205485Y-79972487D01*
X83205485Y-79972488D01*
X83205483Y-79972490D01*
X83158265Y-80037480D01*
X83066657Y-80163566D01*
X82959433Y-80374003D01*
X82886446Y-80598631D01*
X82849500Y-80831902D01*
X82849500Y-81068097D01*
X82886446Y-81301368D01*
X82959433Y-81525996D01*
X83066519Y-81736163D01*
X83066657Y-81736433D01*
X83205483Y-81927510D01*
X83372490Y-82094517D01*
X83563567Y-82233343D01*
X83697415Y-82301542D01*
X83778349Y-82342780D01*
X83777183Y-82345067D01*
X83823517Y-82381922D01*
X83846003Y-82448075D01*
X83829155Y-82515883D01*
X83809796Y-82540967D01*
X83687582Y-82663182D01*
X83626262Y-82696666D01*
X83599903Y-82699500D01*
X75932243Y-82699500D01*
X75865204Y-82679815D01*
X75819449Y-82627011D01*
X75809505Y-82557853D01*
X75823789Y-82526575D01*
X75825921Y-82499474D01*
X75146447Y-81820000D01*
X75152661Y-81820000D01*
X75254394Y-81792741D01*
X75345606Y-81740080D01*
X75420080Y-81665606D01*
X75472741Y-81574394D01*
X75500000Y-81472661D01*
X75500000Y-81466447D01*
X76179474Y-82145921D01*
X76211861Y-82101347D01*
X76211861Y-82101346D01*
X76228289Y-82069105D01*
X76228289Y-82069104D01*
X76304755Y-81919031D01*
X76367990Y-81724417D01*
X76400000Y-81522317D01*
X76400000Y-81317682D01*
X76367990Y-81115582D01*
X76304754Y-80920965D01*
X76285599Y-80883371D01*
X76285598Y-80883370D01*
X76259397Y-80831947D01*
X78350000Y-80831947D01*
X78350000Y-81068052D01*
X78386934Y-81301247D01*
X78459897Y-81525802D01*
X78567087Y-81736174D01*
X78627338Y-81819104D01*
X78627340Y-81819105D01*
X79326212Y-81120233D01*
X79337482Y-81162292D01*
X79409890Y-81287708D01*
X79512292Y-81390110D01*
X79637708Y-81462518D01*
X79679765Y-81473787D01*
X78980893Y-82172658D01*
X79063828Y-82232914D01*
X79274197Y-82340102D01*
X79498752Y-82413065D01*
X79498751Y-82413065D01*
X79731948Y-82450000D01*
X79968052Y-82450000D01*
X80201247Y-82413065D01*
X80425802Y-82340102D01*
X80636163Y-82232918D01*
X80636169Y-82232914D01*
X80719104Y-82172658D01*
X80719105Y-82172658D01*
X80020233Y-81473787D01*
X80062292Y-81462518D01*
X80187708Y-81390110D01*
X80290110Y-81287708D01*
X80362518Y-81162292D01*
X80373787Y-81120234D01*
X81072658Y-81819105D01*
X81072658Y-81819104D01*
X81132914Y-81736169D01*
X81132918Y-81736163D01*
X81240102Y-81525802D01*
X81313065Y-81301247D01*
X81350000Y-81068052D01*
X81350000Y-80831947D01*
X81313065Y-80598752D01*
X81240102Y-80374197D01*
X81132914Y-80163828D01*
X81072658Y-80080894D01*
X81072658Y-80080893D01*
X80373787Y-80779765D01*
X80362518Y-80737708D01*
X80290110Y-80612292D01*
X80187708Y-80509890D01*
X80062292Y-80437482D01*
X80020234Y-80426212D01*
X80719105Y-79727340D01*
X80719104Y-79727338D01*
X80636174Y-79667087D01*
X80425802Y-79559897D01*
X80201247Y-79486934D01*
X80201248Y-79486934D01*
X79968052Y-79450000D01*
X79731948Y-79450000D01*
X79498752Y-79486934D01*
X79274197Y-79559897D01*
X79063830Y-79667084D01*
X78980894Y-79727340D01*
X79679766Y-80426212D01*
X79637708Y-80437482D01*
X79512292Y-80509890D01*
X79409890Y-80612292D01*
X79337482Y-80737708D01*
X79326212Y-80779766D01*
X78627340Y-80080894D01*
X78567084Y-80163830D01*
X78459897Y-80374197D01*
X78386934Y-80598752D01*
X78350000Y-80831947D01*
X76259397Y-80831947D01*
X76211859Y-80738650D01*
X76179474Y-80694077D01*
X76179474Y-80694076D01*
X75500000Y-81373551D01*
X75500000Y-81367339D01*
X75472741Y-81265606D01*
X75420080Y-81174394D01*
X75345606Y-81099920D01*
X75254394Y-81047259D01*
X75152661Y-81020000D01*
X75146446Y-81020000D01*
X75825922Y-80340524D01*
X75825921Y-80340523D01*
X75781359Y-80308147D01*
X75781350Y-80308141D01*
X75599031Y-80215244D01*
X75404417Y-80152009D01*
X75202317Y-80120000D01*
X74997683Y-80120000D01*
X74795582Y-80152009D01*
X74600968Y-80215244D01*
X74418644Y-80308143D01*
X74374077Y-80340523D01*
X74374077Y-80340524D01*
X75053554Y-81020000D01*
X75047339Y-81020000D01*
X74945606Y-81047259D01*
X74854394Y-81099920D01*
X74779920Y-81174394D01*
X74727259Y-81265606D01*
X74700000Y-81367339D01*
X74700000Y-81373553D01*
X74020524Y-80694077D01*
X74020523Y-80694077D01*
X73988143Y-80738644D01*
X73940485Y-80832180D01*
X73892510Y-80882976D01*
X73824689Y-80899771D01*
X73758554Y-80877233D01*
X73719515Y-80832180D01*
X73671859Y-80738650D01*
X73639474Y-80694077D01*
X73639474Y-80694076D01*
X72960000Y-81373551D01*
X72960000Y-81367339D01*
X72932741Y-81265606D01*
X72880080Y-81174394D01*
X72805606Y-81099920D01*
X72714394Y-81047259D01*
X72612661Y-81020000D01*
X72606446Y-81020000D01*
X73285922Y-80340524D01*
X73285921Y-80340523D01*
X73241359Y-80308147D01*
X73241350Y-80308141D01*
X73059031Y-80215244D01*
X72864417Y-80152009D01*
X72662317Y-80120000D01*
X72457683Y-80120000D01*
X72255582Y-80152009D01*
X72060968Y-80215244D01*
X71878644Y-80308143D01*
X71834077Y-80340523D01*
X71834077Y-80340524D01*
X72513554Y-81020000D01*
X72507339Y-81020000D01*
X72405606Y-81047259D01*
X72314394Y-81099920D01*
X72239920Y-81174394D01*
X72187259Y-81265606D01*
X72160000Y-81367339D01*
X72160000Y-81373553D01*
X71480524Y-80694077D01*
X71480523Y-80694077D01*
X71448143Y-80738644D01*
X71355244Y-80920968D01*
X71292009Y-81115582D01*
X71260000Y-81317682D01*
X71260000Y-81522317D01*
X71292009Y-81724417D01*
X71355244Y-81919031D01*
X71448141Y-82101350D01*
X71448147Y-82101359D01*
X71480523Y-82145921D01*
X71480524Y-82145922D01*
X72160000Y-81466446D01*
X72160000Y-81472661D01*
X72187259Y-81574394D01*
X72239920Y-81665606D01*
X72314394Y-81740080D01*
X72405606Y-81792741D01*
X72507339Y-81820000D01*
X72513553Y-81820000D01*
X71834076Y-82499474D01*
X71878650Y-82531859D01*
X72060968Y-82624755D01*
X72255582Y-82687990D01*
X72457683Y-82720000D01*
X72662317Y-82720000D01*
X72864417Y-82687990D01*
X73059031Y-82624755D01*
X73241349Y-82531859D01*
X73285921Y-82499474D01*
X72606447Y-81820000D01*
X72612661Y-81820000D01*
X72714394Y-81792741D01*
X72805606Y-81740080D01*
X72880080Y-81665606D01*
X72932741Y-81574394D01*
X72960000Y-81472661D01*
X72960000Y-81466447D01*
X73639474Y-82145921D01*
X73671861Y-82101347D01*
X73671861Y-82101346D01*
X73719515Y-82007820D01*
X73767489Y-81957024D01*
X73835310Y-81940228D01*
X73901445Y-81962765D01*
X73940485Y-82007819D01*
X73988141Y-82101350D01*
X73988147Y-82101359D01*
X74020523Y-82145921D01*
X74020524Y-82145922D01*
X74700000Y-81466446D01*
X74700000Y-81472661D01*
X74727259Y-81574394D01*
X74779920Y-81665606D01*
X74854394Y-81740080D01*
X74945606Y-81792741D01*
X75047339Y-81820000D01*
X75053553Y-81820000D01*
X74374076Y-82499474D01*
X74418650Y-82531859D01*
X74600970Y-82624755D01*
X74682154Y-82651134D01*
X74684424Y-82652686D01*
X74687169Y-82652883D01*
X74713092Y-82672288D01*
X74739830Y-82690571D01*
X74740901Y-82693105D01*
X74743103Y-82694754D01*
X74754419Y-82725093D01*
X74767028Y-82754930D01*
X74766558Y-82757640D01*
X74767520Y-82760218D01*
X74760634Y-82791871D01*
X74755113Y-82823776D01*
X74753075Y-82826623D01*
X74752669Y-82828491D01*
X74731518Y-82856746D01*
X74656980Y-82931284D01*
X74656979Y-82931284D01*
X74656978Y-82931285D01*
X74656978Y-82931286D01*
X72407582Y-85180681D01*
X72346259Y-85214166D01*
X72319901Y-85217000D01*
X70919998Y-85217000D01*
X70919981Y-85217001D01*
X70817203Y-85227500D01*
X70817200Y-85227501D01*
X70650668Y-85282685D01*
X70650663Y-85282687D01*
X70501342Y-85374789D01*
X70377289Y-85498842D01*
X70285187Y-85648163D01*
X70285185Y-85648168D01*
X70274068Y-85681717D01*
X70230001Y-85814703D01*
X70230001Y-85814704D01*
X70230000Y-85814704D01*
X70219500Y-85917483D01*
X69200500Y-85917483D01*
X69200500Y-66333349D01*
X71725000Y-66333349D01*
X71725000Y-66350000D01*
X72450000Y-66350000D01*
X72950000Y-66350000D01*
X73674999Y-66350000D01*
X73674999Y-66333364D01*
X73674998Y-66333347D01*
X73664943Y-66234916D01*
X73612093Y-66075427D01*
X73612091Y-66075422D01*
X73523885Y-65932419D01*
X73405080Y-65813614D01*
X73262077Y-65725408D01*
X73262072Y-65725406D01*
X73102583Y-65672557D01*
X73004150Y-65662500D01*
X72950000Y-65662500D01*
X72950000Y-66350000D01*
X72450000Y-66350000D01*
X72450000Y-65662500D01*
X72449999Y-65662499D01*
X72395864Y-65662500D01*
X72395847Y-65662501D01*
X72297415Y-65672557D01*
X72137927Y-65725406D01*
X72137922Y-65725408D01*
X71994919Y-65813614D01*
X71876114Y-65932419D01*
X71787908Y-66075422D01*
X71787906Y-66075427D01*
X71735057Y-66234916D01*
X71725000Y-66333349D01*
X69200500Y-66333349D01*
X69200500Y-60574038D01*
X70799500Y-60574038D01*
X70799500Y-60825962D01*
X70825851Y-60992335D01*
X70838910Y-61074785D01*
X70916760Y-61314383D01*
X71031132Y-61538848D01*
X71179201Y-61742649D01*
X71179205Y-61742654D01*
X71357345Y-61920794D01*
X71357350Y-61920798D01*
X71535117Y-62049952D01*
X71561155Y-62068870D01*
X71704184Y-62141747D01*
X71785616Y-62183239D01*
X71785618Y-62183239D01*
X71785621Y-62183241D01*
X72025215Y-62261090D01*
X72274038Y-62300500D01*
X72274039Y-62300500D01*
X72525961Y-62300500D01*
X72525962Y-62300500D01*
X72774785Y-62261090D01*
X73014379Y-62183241D01*
X73238845Y-62068870D01*
X73442656Y-61920793D01*
X73620793Y-61742656D01*
X73768870Y-61538845D01*
X73883241Y-61314379D01*
X73886564Y-61304152D01*
X86487501Y-61304152D01*
X86497556Y-61402583D01*
X86550406Y-61562072D01*
X86550408Y-61562077D01*
X86638614Y-61705080D01*
X86757419Y-61823885D01*
X86900422Y-61912091D01*
X86900427Y-61912093D01*
X87059916Y-61964942D01*
X87158356Y-61974999D01*
X87175000Y-61974998D01*
X87175000Y-61250000D01*
X86487501Y-61250000D01*
X86487501Y-61304152D01*
X73886564Y-61304152D01*
X73961090Y-61074785D01*
X74000500Y-60825962D01*
X74000500Y-60695849D01*
X86487500Y-60695849D01*
X86487500Y-60750000D01*
X87175000Y-60750000D01*
X87175000Y-60024999D01*
X87158356Y-60025000D01*
X87059915Y-60035057D01*
X86900427Y-60087906D01*
X86900422Y-60087908D01*
X86757419Y-60176114D01*
X86638614Y-60294919D01*
X86550408Y-60437922D01*
X86550406Y-60437927D01*
X86497557Y-60597416D01*
X86487500Y-60695849D01*
X74000500Y-60695849D01*
X74000500Y-60574038D01*
X73961090Y-60325215D01*
X73883241Y-60085621D01*
X73883239Y-60085618D01*
X73883239Y-60085616D01*
X73811352Y-59944531D01*
X73768870Y-59861155D01*
X73728735Y-59805914D01*
X73620798Y-59657350D01*
X73620794Y-59657345D01*
X73442654Y-59479205D01*
X73442649Y-59479201D01*
X73238848Y-59331132D01*
X73238847Y-59331131D01*
X73238845Y-59331130D01*
X73117079Y-59269087D01*
X73014383Y-59216760D01*
X72774785Y-59138910D01*
X72770820Y-59138282D01*
X72525962Y-59099500D01*
X72274038Y-59099500D01*
X72149626Y-59119205D01*
X72025214Y-59138910D01*
X71785616Y-59216760D01*
X71561151Y-59331132D01*
X71357350Y-59479201D01*
X71357345Y-59479205D01*
X71179205Y-59657345D01*
X71179201Y-59657350D01*
X71031132Y-59861151D01*
X70916760Y-60085616D01*
X70838910Y-60325214D01*
X70831372Y-60372807D01*
X70799500Y-60574038D01*
X69200500Y-60574038D01*
X69200500Y-57624500D01*
X69220185Y-57557461D01*
X69272989Y-57511706D01*
X69324500Y-57500500D01*
X146775500Y-57500500D01*
X146842539Y-57520185D01*
G37*
%TD.AperFunction*%
%TD*%
M02*
