%TF.GenerationSoftware,KiCad,Pcbnew,9.0.2*%
%TF.CreationDate,2025-10-02T19:22:41-04:00*%
%TF.ProjectId,Slippi,536c6970-7069-42e6-9b69-6361645f7063,rev?*%
%TF.SameCoordinates,Original*%
%TF.FileFunction,Soldermask,Top*%
%TF.FilePolarity,Negative*%
%FSLAX46Y46*%
G04 Gerber Fmt 4.6, Leading zero omitted, Abs format (unit mm)*
G04 Created by KiCad (PCBNEW 9.0.2) date 2025-10-02 19:22:41*
%MOMM*%
%LPD*%
G01*
G04 APERTURE LIST*
G04 Aperture macros list*
%AMRoundRect*
0 Rectangle with rounded corners*
0 $1 Rounding radius*
0 $2 $3 $4 $5 $6 $7 $8 $9 X,Y pos of 4 corners*
0 Add a 4 corners polygon primitive as box body*
4,1,4,$2,$3,$4,$5,$6,$7,$8,$9,$2,$3,0*
0 Add four circle primitives for the rounded corners*
1,1,$1+$1,$2,$3*
1,1,$1+$1,$4,$5*
1,1,$1+$1,$6,$7*
1,1,$1+$1,$8,$9*
0 Add four rect primitives between the rounded corners*
20,1,$1+$1,$2,$3,$4,$5,0*
20,1,$1+$1,$4,$5,$6,$7,0*
20,1,$1+$1,$6,$7,$8,$9,0*
20,1,$1+$1,$8,$9,$2,$3,0*%
G04 Aperture macros list end*
%ADD10C,0.010000*%
%ADD11RoundRect,0.200000X0.275000X-0.200000X0.275000X0.200000X-0.275000X0.200000X-0.275000X-0.200000X0*%
%ADD12RoundRect,0.250000X0.750000X-0.750000X0.750000X0.750000X-0.750000X0.750000X-0.750000X-0.750000X0*%
%ADD13C,2.000000*%
%ADD14RoundRect,0.200000X-0.200000X-0.275000X0.200000X-0.275000X0.200000X0.275000X-0.200000X0.275000X0*%
%ADD15RoundRect,0.250000X0.750000X0.750000X-0.750000X0.750000X-0.750000X-0.750000X0.750000X-0.750000X0*%
%ADD16RoundRect,0.250000X-0.750000X-0.750000X0.750000X-0.750000X0.750000X0.750000X-0.750000X0.750000X0*%
%ADD17RoundRect,0.218750X-0.218750X-0.256250X0.218750X-0.256250X0.218750X0.256250X-0.218750X0.256250X0*%
%ADD18R,1.600000X1.600000*%
%ADD19O,1.600000X1.600000*%
%ADD20RoundRect,0.225000X0.225000X0.250000X-0.225000X0.250000X-0.225000X-0.250000X0.225000X-0.250000X0*%
%ADD21RoundRect,0.250000X-0.550000X0.550000X-0.550000X-0.550000X0.550000X-0.550000X0.550000X0.550000X0*%
%ADD22C,1.600000*%
%ADD23RoundRect,0.218750X0.256250X-0.218750X0.256250X0.218750X-0.256250X0.218750X-0.256250X-0.218750X0*%
%ADD24RoundRect,0.250000X-0.750000X0.750000X-0.750000X-0.750000X0.750000X-0.750000X0.750000X0.750000X0*%
%ADD25R,1.700000X1.700000*%
%ADD26C,1.700000*%
%ADD27RoundRect,0.750000X0.750000X-0.750000X0.750000X0.750000X-0.750000X0.750000X-0.750000X-0.750000X0*%
%ADD28C,3.000000*%
%ADD29C,2.700000*%
%ADD30RoundRect,0.200000X0.200000X0.275000X-0.200000X0.275000X-0.200000X-0.275000X0.200000X-0.275000X0*%
%ADD31RoundRect,0.218750X-0.256250X0.218750X-0.256250X-0.218750X0.256250X-0.218750X0.256250X0.218750X0*%
%ADD32RoundRect,0.102000X1.225000X1.225000X-1.225000X1.225000X-1.225000X-1.225000X1.225000X-1.225000X0*%
%ADD33C,2.654000*%
%ADD34RoundRect,0.102000X-0.955000X0.955000X-0.955000X-0.955000X0.955000X-0.955000X0.955000X0.955000X0*%
%ADD35C,2.114000*%
G04 APERTURE END LIST*
D10*
%TO.C,U1*%
X98645000Y-82555000D02*
X95245000Y-82555000D01*
X95245000Y-79845000D01*
X98645000Y-79845000D01*
X98645000Y-82555000D01*
G36*
X98645000Y-82555000D02*
G01*
X95245000Y-82555000D01*
X95245000Y-79845000D01*
X98645000Y-79845000D01*
X98645000Y-82555000D01*
G37*
X95368000Y-77656000D02*
X95370000Y-77656000D01*
X95373000Y-77657000D01*
X95375000Y-77657000D01*
X95378000Y-77658000D01*
X95380000Y-77659000D01*
X95383000Y-77660000D01*
X95385000Y-77662000D01*
X95387000Y-77663000D01*
X95389000Y-77665000D01*
X95391000Y-77666000D01*
X95393000Y-77668000D01*
X95395000Y-77670000D01*
X95397000Y-77672000D01*
X95399000Y-77674000D01*
X95400000Y-77676000D01*
X95402000Y-77678000D01*
X95403000Y-77680000D01*
X95405000Y-77682000D01*
X95406000Y-77685000D01*
X95407000Y-77687000D01*
X95408000Y-77690000D01*
X95408000Y-77692000D01*
X95409000Y-77695000D01*
X95409000Y-77697000D01*
X95410000Y-77700000D01*
X95410000Y-77702000D01*
X95410000Y-77705000D01*
X95410000Y-79295000D01*
X95410000Y-79298000D01*
X95410000Y-79300000D01*
X95409000Y-79303000D01*
X95409000Y-79305000D01*
X95408000Y-79308000D01*
X95408000Y-79310000D01*
X95407000Y-79313000D01*
X95406000Y-79315000D01*
X95405000Y-79318000D01*
X95403000Y-79320000D01*
X95402000Y-79322000D01*
X95400000Y-79324000D01*
X95399000Y-79326000D01*
X95397000Y-79328000D01*
X95395000Y-79330000D01*
X95393000Y-79332000D01*
X95391000Y-79334000D01*
X95389000Y-79335000D01*
X95387000Y-79337000D01*
X95385000Y-79338000D01*
X95383000Y-79340000D01*
X95380000Y-79341000D01*
X95378000Y-79342000D01*
X95375000Y-79343000D01*
X95373000Y-79343000D01*
X95370000Y-79344000D01*
X95368000Y-79344000D01*
X95365000Y-79345000D01*
X95363000Y-79345000D01*
X95360000Y-79345000D01*
X94720000Y-79345000D01*
X94717000Y-79345000D01*
X94715000Y-79345000D01*
X94712000Y-79344000D01*
X94710000Y-79344000D01*
X94707000Y-79343000D01*
X94705000Y-79343000D01*
X94702000Y-79342000D01*
X94700000Y-79341000D01*
X94697000Y-79340000D01*
X94695000Y-79338000D01*
X94693000Y-79337000D01*
X94691000Y-79335000D01*
X94689000Y-79334000D01*
X94687000Y-79332000D01*
X94685000Y-79330000D01*
X94683000Y-79328000D01*
X94681000Y-79326000D01*
X94680000Y-79324000D01*
X94678000Y-79322000D01*
X94677000Y-79320000D01*
X94675000Y-79318000D01*
X94674000Y-79315000D01*
X94673000Y-79313000D01*
X94672000Y-79310000D01*
X94672000Y-79308000D01*
X94671000Y-79305000D01*
X94671000Y-79303000D01*
X94670000Y-79300000D01*
X94670000Y-79298000D01*
X94670000Y-79295000D01*
X94670000Y-77705000D01*
X94670000Y-77702000D01*
X94670000Y-77700000D01*
X94671000Y-77697000D01*
X94671000Y-77695000D01*
X94672000Y-77692000D01*
X94672000Y-77690000D01*
X94673000Y-77687000D01*
X94674000Y-77685000D01*
X94675000Y-77682000D01*
X94677000Y-77680000D01*
X94678000Y-77678000D01*
X94680000Y-77676000D01*
X94681000Y-77674000D01*
X94683000Y-77672000D01*
X94685000Y-77670000D01*
X94687000Y-77668000D01*
X94689000Y-77666000D01*
X94691000Y-77665000D01*
X94693000Y-77663000D01*
X94695000Y-77662000D01*
X94697000Y-77660000D01*
X94700000Y-77659000D01*
X94702000Y-77658000D01*
X94705000Y-77657000D01*
X94707000Y-77657000D01*
X94710000Y-77656000D01*
X94712000Y-77656000D01*
X94715000Y-77655000D01*
X94717000Y-77655000D01*
X94720000Y-77655000D01*
X95360000Y-77655000D01*
X95363000Y-77655000D01*
X95365000Y-77655000D01*
X95368000Y-77656000D01*
G36*
X95368000Y-77656000D02*
G01*
X95370000Y-77656000D01*
X95373000Y-77657000D01*
X95375000Y-77657000D01*
X95378000Y-77658000D01*
X95380000Y-77659000D01*
X95383000Y-77660000D01*
X95385000Y-77662000D01*
X95387000Y-77663000D01*
X95389000Y-77665000D01*
X95391000Y-77666000D01*
X95393000Y-77668000D01*
X95395000Y-77670000D01*
X95397000Y-77672000D01*
X95399000Y-77674000D01*
X95400000Y-77676000D01*
X95402000Y-77678000D01*
X95403000Y-77680000D01*
X95405000Y-77682000D01*
X95406000Y-77685000D01*
X95407000Y-77687000D01*
X95408000Y-77690000D01*
X95408000Y-77692000D01*
X95409000Y-77695000D01*
X95409000Y-77697000D01*
X95410000Y-77700000D01*
X95410000Y-77702000D01*
X95410000Y-77705000D01*
X95410000Y-79295000D01*
X95410000Y-79298000D01*
X95410000Y-79300000D01*
X95409000Y-79303000D01*
X95409000Y-79305000D01*
X95408000Y-79308000D01*
X95408000Y-79310000D01*
X95407000Y-79313000D01*
X95406000Y-79315000D01*
X95405000Y-79318000D01*
X95403000Y-79320000D01*
X95402000Y-79322000D01*
X95400000Y-79324000D01*
X95399000Y-79326000D01*
X95397000Y-79328000D01*
X95395000Y-79330000D01*
X95393000Y-79332000D01*
X95391000Y-79334000D01*
X95389000Y-79335000D01*
X95387000Y-79337000D01*
X95385000Y-79338000D01*
X95383000Y-79340000D01*
X95380000Y-79341000D01*
X95378000Y-79342000D01*
X95375000Y-79343000D01*
X95373000Y-79343000D01*
X95370000Y-79344000D01*
X95368000Y-79344000D01*
X95365000Y-79345000D01*
X95363000Y-79345000D01*
X95360000Y-79345000D01*
X94720000Y-79345000D01*
X94717000Y-79345000D01*
X94715000Y-79345000D01*
X94712000Y-79344000D01*
X94710000Y-79344000D01*
X94707000Y-79343000D01*
X94705000Y-79343000D01*
X94702000Y-79342000D01*
X94700000Y-79341000D01*
X94697000Y-79340000D01*
X94695000Y-79338000D01*
X94693000Y-79337000D01*
X94691000Y-79335000D01*
X94689000Y-79334000D01*
X94687000Y-79332000D01*
X94685000Y-79330000D01*
X94683000Y-79328000D01*
X94681000Y-79326000D01*
X94680000Y-79324000D01*
X94678000Y-79322000D01*
X94677000Y-79320000D01*
X94675000Y-79318000D01*
X94674000Y-79315000D01*
X94673000Y-79313000D01*
X94672000Y-79310000D01*
X94672000Y-79308000D01*
X94671000Y-79305000D01*
X94671000Y-79303000D01*
X94670000Y-79300000D01*
X94670000Y-79298000D01*
X94670000Y-79295000D01*
X94670000Y-77705000D01*
X94670000Y-77702000D01*
X94670000Y-77700000D01*
X94671000Y-77697000D01*
X94671000Y-77695000D01*
X94672000Y-77692000D01*
X94672000Y-77690000D01*
X94673000Y-77687000D01*
X94674000Y-77685000D01*
X94675000Y-77682000D01*
X94677000Y-77680000D01*
X94678000Y-77678000D01*
X94680000Y-77676000D01*
X94681000Y-77674000D01*
X94683000Y-77672000D01*
X94685000Y-77670000D01*
X94687000Y-77668000D01*
X94689000Y-77666000D01*
X94691000Y-77665000D01*
X94693000Y-77663000D01*
X94695000Y-77662000D01*
X94697000Y-77660000D01*
X94700000Y-77659000D01*
X94702000Y-77658000D01*
X94705000Y-77657000D01*
X94707000Y-77657000D01*
X94710000Y-77656000D01*
X94712000Y-77656000D01*
X94715000Y-77655000D01*
X94717000Y-77655000D01*
X94720000Y-77655000D01*
X95360000Y-77655000D01*
X95363000Y-77655000D01*
X95365000Y-77655000D01*
X95368000Y-77656000D01*
G37*
X95368000Y-83056000D02*
X95370000Y-83056000D01*
X95373000Y-83057000D01*
X95375000Y-83057000D01*
X95378000Y-83058000D01*
X95380000Y-83059000D01*
X95383000Y-83060000D01*
X95385000Y-83062000D01*
X95387000Y-83063000D01*
X95389000Y-83065000D01*
X95391000Y-83066000D01*
X95393000Y-83068000D01*
X95395000Y-83070000D01*
X95397000Y-83072000D01*
X95399000Y-83074000D01*
X95400000Y-83076000D01*
X95402000Y-83078000D01*
X95403000Y-83080000D01*
X95405000Y-83082000D01*
X95406000Y-83085000D01*
X95407000Y-83087000D01*
X95408000Y-83090000D01*
X95408000Y-83092000D01*
X95409000Y-83095000D01*
X95409000Y-83097000D01*
X95410000Y-83100000D01*
X95410000Y-83102000D01*
X95410000Y-83105000D01*
X95410000Y-84695000D01*
X95410000Y-84698000D01*
X95410000Y-84700000D01*
X95409000Y-84703000D01*
X95409000Y-84705000D01*
X95408000Y-84708000D01*
X95408000Y-84710000D01*
X95407000Y-84713000D01*
X95406000Y-84715000D01*
X95405000Y-84718000D01*
X95403000Y-84720000D01*
X95402000Y-84722000D01*
X95400000Y-84724000D01*
X95399000Y-84726000D01*
X95397000Y-84728000D01*
X95395000Y-84730000D01*
X95393000Y-84732000D01*
X95391000Y-84734000D01*
X95389000Y-84735000D01*
X95387000Y-84737000D01*
X95385000Y-84738000D01*
X95383000Y-84740000D01*
X95380000Y-84741000D01*
X95378000Y-84742000D01*
X95375000Y-84743000D01*
X95373000Y-84743000D01*
X95370000Y-84744000D01*
X95368000Y-84744000D01*
X95365000Y-84745000D01*
X95363000Y-84745000D01*
X95360000Y-84745000D01*
X94720000Y-84745000D01*
X94717000Y-84745000D01*
X94715000Y-84745000D01*
X94712000Y-84744000D01*
X94710000Y-84744000D01*
X94707000Y-84743000D01*
X94705000Y-84743000D01*
X94702000Y-84742000D01*
X94700000Y-84741000D01*
X94697000Y-84740000D01*
X94695000Y-84738000D01*
X94693000Y-84737000D01*
X94691000Y-84735000D01*
X94689000Y-84734000D01*
X94687000Y-84732000D01*
X94685000Y-84730000D01*
X94683000Y-84728000D01*
X94681000Y-84726000D01*
X94680000Y-84724000D01*
X94678000Y-84722000D01*
X94677000Y-84720000D01*
X94675000Y-84718000D01*
X94674000Y-84715000D01*
X94673000Y-84713000D01*
X94672000Y-84710000D01*
X94672000Y-84708000D01*
X94671000Y-84705000D01*
X94671000Y-84703000D01*
X94670000Y-84700000D01*
X94670000Y-84698000D01*
X94670000Y-84695000D01*
X94670000Y-83105000D01*
X94670000Y-83102000D01*
X94670000Y-83100000D01*
X94671000Y-83097000D01*
X94671000Y-83095000D01*
X94672000Y-83092000D01*
X94672000Y-83090000D01*
X94673000Y-83087000D01*
X94674000Y-83085000D01*
X94675000Y-83082000D01*
X94677000Y-83080000D01*
X94678000Y-83078000D01*
X94680000Y-83076000D01*
X94681000Y-83074000D01*
X94683000Y-83072000D01*
X94685000Y-83070000D01*
X94687000Y-83068000D01*
X94689000Y-83066000D01*
X94691000Y-83065000D01*
X94693000Y-83063000D01*
X94695000Y-83062000D01*
X94697000Y-83060000D01*
X94700000Y-83059000D01*
X94702000Y-83058000D01*
X94705000Y-83057000D01*
X94707000Y-83057000D01*
X94710000Y-83056000D01*
X94712000Y-83056000D01*
X94715000Y-83055000D01*
X94717000Y-83055000D01*
X94720000Y-83055000D01*
X95360000Y-83055000D01*
X95363000Y-83055000D01*
X95365000Y-83055000D01*
X95368000Y-83056000D01*
G36*
X95368000Y-83056000D02*
G01*
X95370000Y-83056000D01*
X95373000Y-83057000D01*
X95375000Y-83057000D01*
X95378000Y-83058000D01*
X95380000Y-83059000D01*
X95383000Y-83060000D01*
X95385000Y-83062000D01*
X95387000Y-83063000D01*
X95389000Y-83065000D01*
X95391000Y-83066000D01*
X95393000Y-83068000D01*
X95395000Y-83070000D01*
X95397000Y-83072000D01*
X95399000Y-83074000D01*
X95400000Y-83076000D01*
X95402000Y-83078000D01*
X95403000Y-83080000D01*
X95405000Y-83082000D01*
X95406000Y-83085000D01*
X95407000Y-83087000D01*
X95408000Y-83090000D01*
X95408000Y-83092000D01*
X95409000Y-83095000D01*
X95409000Y-83097000D01*
X95410000Y-83100000D01*
X95410000Y-83102000D01*
X95410000Y-83105000D01*
X95410000Y-84695000D01*
X95410000Y-84698000D01*
X95410000Y-84700000D01*
X95409000Y-84703000D01*
X95409000Y-84705000D01*
X95408000Y-84708000D01*
X95408000Y-84710000D01*
X95407000Y-84713000D01*
X95406000Y-84715000D01*
X95405000Y-84718000D01*
X95403000Y-84720000D01*
X95402000Y-84722000D01*
X95400000Y-84724000D01*
X95399000Y-84726000D01*
X95397000Y-84728000D01*
X95395000Y-84730000D01*
X95393000Y-84732000D01*
X95391000Y-84734000D01*
X95389000Y-84735000D01*
X95387000Y-84737000D01*
X95385000Y-84738000D01*
X95383000Y-84740000D01*
X95380000Y-84741000D01*
X95378000Y-84742000D01*
X95375000Y-84743000D01*
X95373000Y-84743000D01*
X95370000Y-84744000D01*
X95368000Y-84744000D01*
X95365000Y-84745000D01*
X95363000Y-84745000D01*
X95360000Y-84745000D01*
X94720000Y-84745000D01*
X94717000Y-84745000D01*
X94715000Y-84745000D01*
X94712000Y-84744000D01*
X94710000Y-84744000D01*
X94707000Y-84743000D01*
X94705000Y-84743000D01*
X94702000Y-84742000D01*
X94700000Y-84741000D01*
X94697000Y-84740000D01*
X94695000Y-84738000D01*
X94693000Y-84737000D01*
X94691000Y-84735000D01*
X94689000Y-84734000D01*
X94687000Y-84732000D01*
X94685000Y-84730000D01*
X94683000Y-84728000D01*
X94681000Y-84726000D01*
X94680000Y-84724000D01*
X94678000Y-84722000D01*
X94677000Y-84720000D01*
X94675000Y-84718000D01*
X94674000Y-84715000D01*
X94673000Y-84713000D01*
X94672000Y-84710000D01*
X94672000Y-84708000D01*
X94671000Y-84705000D01*
X94671000Y-84703000D01*
X94670000Y-84700000D01*
X94670000Y-84698000D01*
X94670000Y-84695000D01*
X94670000Y-83105000D01*
X94670000Y-83102000D01*
X94670000Y-83100000D01*
X94671000Y-83097000D01*
X94671000Y-83095000D01*
X94672000Y-83092000D01*
X94672000Y-83090000D01*
X94673000Y-83087000D01*
X94674000Y-83085000D01*
X94675000Y-83082000D01*
X94677000Y-83080000D01*
X94678000Y-83078000D01*
X94680000Y-83076000D01*
X94681000Y-83074000D01*
X94683000Y-83072000D01*
X94685000Y-83070000D01*
X94687000Y-83068000D01*
X94689000Y-83066000D01*
X94691000Y-83065000D01*
X94693000Y-83063000D01*
X94695000Y-83062000D01*
X94697000Y-83060000D01*
X94700000Y-83059000D01*
X94702000Y-83058000D01*
X94705000Y-83057000D01*
X94707000Y-83057000D01*
X94710000Y-83056000D01*
X94712000Y-83056000D01*
X94715000Y-83055000D01*
X94717000Y-83055000D01*
X94720000Y-83055000D01*
X95360000Y-83055000D01*
X95363000Y-83055000D01*
X95365000Y-83055000D01*
X95368000Y-83056000D01*
G37*
X96638000Y-77656000D02*
X96640000Y-77656000D01*
X96643000Y-77657000D01*
X96645000Y-77657000D01*
X96648000Y-77658000D01*
X96650000Y-77659000D01*
X96653000Y-77660000D01*
X96655000Y-77662000D01*
X96657000Y-77663000D01*
X96659000Y-77665000D01*
X96661000Y-77666000D01*
X96663000Y-77668000D01*
X96665000Y-77670000D01*
X96667000Y-77672000D01*
X96669000Y-77674000D01*
X96670000Y-77676000D01*
X96672000Y-77678000D01*
X96673000Y-77680000D01*
X96675000Y-77682000D01*
X96676000Y-77685000D01*
X96677000Y-77687000D01*
X96678000Y-77690000D01*
X96678000Y-77692000D01*
X96679000Y-77695000D01*
X96679000Y-77697000D01*
X96680000Y-77700000D01*
X96680000Y-77702000D01*
X96680000Y-77705000D01*
X96680000Y-79295000D01*
X96680000Y-79298000D01*
X96680000Y-79300000D01*
X96679000Y-79303000D01*
X96679000Y-79305000D01*
X96678000Y-79308000D01*
X96678000Y-79310000D01*
X96677000Y-79313000D01*
X96676000Y-79315000D01*
X96675000Y-79318000D01*
X96673000Y-79320000D01*
X96672000Y-79322000D01*
X96670000Y-79324000D01*
X96669000Y-79326000D01*
X96667000Y-79328000D01*
X96665000Y-79330000D01*
X96663000Y-79332000D01*
X96661000Y-79334000D01*
X96659000Y-79335000D01*
X96657000Y-79337000D01*
X96655000Y-79338000D01*
X96653000Y-79340000D01*
X96650000Y-79341000D01*
X96648000Y-79342000D01*
X96645000Y-79343000D01*
X96643000Y-79343000D01*
X96640000Y-79344000D01*
X96638000Y-79344000D01*
X96635000Y-79345000D01*
X96633000Y-79345000D01*
X96630000Y-79345000D01*
X95990000Y-79345000D01*
X95987000Y-79345000D01*
X95985000Y-79345000D01*
X95982000Y-79344000D01*
X95980000Y-79344000D01*
X95977000Y-79343000D01*
X95975000Y-79343000D01*
X95972000Y-79342000D01*
X95970000Y-79341000D01*
X95967000Y-79340000D01*
X95965000Y-79338000D01*
X95963000Y-79337000D01*
X95961000Y-79335000D01*
X95959000Y-79334000D01*
X95957000Y-79332000D01*
X95955000Y-79330000D01*
X95953000Y-79328000D01*
X95951000Y-79326000D01*
X95950000Y-79324000D01*
X95948000Y-79322000D01*
X95947000Y-79320000D01*
X95945000Y-79318000D01*
X95944000Y-79315000D01*
X95943000Y-79313000D01*
X95942000Y-79310000D01*
X95942000Y-79308000D01*
X95941000Y-79305000D01*
X95941000Y-79303000D01*
X95940000Y-79300000D01*
X95940000Y-79298000D01*
X95940000Y-79295000D01*
X95940000Y-77705000D01*
X95940000Y-77702000D01*
X95940000Y-77700000D01*
X95941000Y-77697000D01*
X95941000Y-77695000D01*
X95942000Y-77692000D01*
X95942000Y-77690000D01*
X95943000Y-77687000D01*
X95944000Y-77685000D01*
X95945000Y-77682000D01*
X95947000Y-77680000D01*
X95948000Y-77678000D01*
X95950000Y-77676000D01*
X95951000Y-77674000D01*
X95953000Y-77672000D01*
X95955000Y-77670000D01*
X95957000Y-77668000D01*
X95959000Y-77666000D01*
X95961000Y-77665000D01*
X95963000Y-77663000D01*
X95965000Y-77662000D01*
X95967000Y-77660000D01*
X95970000Y-77659000D01*
X95972000Y-77658000D01*
X95975000Y-77657000D01*
X95977000Y-77657000D01*
X95980000Y-77656000D01*
X95982000Y-77656000D01*
X95985000Y-77655000D01*
X95987000Y-77655000D01*
X95990000Y-77655000D01*
X96630000Y-77655000D01*
X96633000Y-77655000D01*
X96635000Y-77655000D01*
X96638000Y-77656000D01*
G36*
X96638000Y-77656000D02*
G01*
X96640000Y-77656000D01*
X96643000Y-77657000D01*
X96645000Y-77657000D01*
X96648000Y-77658000D01*
X96650000Y-77659000D01*
X96653000Y-77660000D01*
X96655000Y-77662000D01*
X96657000Y-77663000D01*
X96659000Y-77665000D01*
X96661000Y-77666000D01*
X96663000Y-77668000D01*
X96665000Y-77670000D01*
X96667000Y-77672000D01*
X96669000Y-77674000D01*
X96670000Y-77676000D01*
X96672000Y-77678000D01*
X96673000Y-77680000D01*
X96675000Y-77682000D01*
X96676000Y-77685000D01*
X96677000Y-77687000D01*
X96678000Y-77690000D01*
X96678000Y-77692000D01*
X96679000Y-77695000D01*
X96679000Y-77697000D01*
X96680000Y-77700000D01*
X96680000Y-77702000D01*
X96680000Y-77705000D01*
X96680000Y-79295000D01*
X96680000Y-79298000D01*
X96680000Y-79300000D01*
X96679000Y-79303000D01*
X96679000Y-79305000D01*
X96678000Y-79308000D01*
X96678000Y-79310000D01*
X96677000Y-79313000D01*
X96676000Y-79315000D01*
X96675000Y-79318000D01*
X96673000Y-79320000D01*
X96672000Y-79322000D01*
X96670000Y-79324000D01*
X96669000Y-79326000D01*
X96667000Y-79328000D01*
X96665000Y-79330000D01*
X96663000Y-79332000D01*
X96661000Y-79334000D01*
X96659000Y-79335000D01*
X96657000Y-79337000D01*
X96655000Y-79338000D01*
X96653000Y-79340000D01*
X96650000Y-79341000D01*
X96648000Y-79342000D01*
X96645000Y-79343000D01*
X96643000Y-79343000D01*
X96640000Y-79344000D01*
X96638000Y-79344000D01*
X96635000Y-79345000D01*
X96633000Y-79345000D01*
X96630000Y-79345000D01*
X95990000Y-79345000D01*
X95987000Y-79345000D01*
X95985000Y-79345000D01*
X95982000Y-79344000D01*
X95980000Y-79344000D01*
X95977000Y-79343000D01*
X95975000Y-79343000D01*
X95972000Y-79342000D01*
X95970000Y-79341000D01*
X95967000Y-79340000D01*
X95965000Y-79338000D01*
X95963000Y-79337000D01*
X95961000Y-79335000D01*
X95959000Y-79334000D01*
X95957000Y-79332000D01*
X95955000Y-79330000D01*
X95953000Y-79328000D01*
X95951000Y-79326000D01*
X95950000Y-79324000D01*
X95948000Y-79322000D01*
X95947000Y-79320000D01*
X95945000Y-79318000D01*
X95944000Y-79315000D01*
X95943000Y-79313000D01*
X95942000Y-79310000D01*
X95942000Y-79308000D01*
X95941000Y-79305000D01*
X95941000Y-79303000D01*
X95940000Y-79300000D01*
X95940000Y-79298000D01*
X95940000Y-79295000D01*
X95940000Y-77705000D01*
X95940000Y-77702000D01*
X95940000Y-77700000D01*
X95941000Y-77697000D01*
X95941000Y-77695000D01*
X95942000Y-77692000D01*
X95942000Y-77690000D01*
X95943000Y-77687000D01*
X95944000Y-77685000D01*
X95945000Y-77682000D01*
X95947000Y-77680000D01*
X95948000Y-77678000D01*
X95950000Y-77676000D01*
X95951000Y-77674000D01*
X95953000Y-77672000D01*
X95955000Y-77670000D01*
X95957000Y-77668000D01*
X95959000Y-77666000D01*
X95961000Y-77665000D01*
X95963000Y-77663000D01*
X95965000Y-77662000D01*
X95967000Y-77660000D01*
X95970000Y-77659000D01*
X95972000Y-77658000D01*
X95975000Y-77657000D01*
X95977000Y-77657000D01*
X95980000Y-77656000D01*
X95982000Y-77656000D01*
X95985000Y-77655000D01*
X95987000Y-77655000D01*
X95990000Y-77655000D01*
X96630000Y-77655000D01*
X96633000Y-77655000D01*
X96635000Y-77655000D01*
X96638000Y-77656000D01*
G37*
X96638000Y-83056000D02*
X96640000Y-83056000D01*
X96643000Y-83057000D01*
X96645000Y-83057000D01*
X96648000Y-83058000D01*
X96650000Y-83059000D01*
X96653000Y-83060000D01*
X96655000Y-83062000D01*
X96657000Y-83063000D01*
X96659000Y-83065000D01*
X96661000Y-83066000D01*
X96663000Y-83068000D01*
X96665000Y-83070000D01*
X96667000Y-83072000D01*
X96669000Y-83074000D01*
X96670000Y-83076000D01*
X96672000Y-83078000D01*
X96673000Y-83080000D01*
X96675000Y-83082000D01*
X96676000Y-83085000D01*
X96677000Y-83087000D01*
X96678000Y-83090000D01*
X96678000Y-83092000D01*
X96679000Y-83095000D01*
X96679000Y-83097000D01*
X96680000Y-83100000D01*
X96680000Y-83102000D01*
X96680000Y-83105000D01*
X96680000Y-84695000D01*
X96680000Y-84698000D01*
X96680000Y-84700000D01*
X96679000Y-84703000D01*
X96679000Y-84705000D01*
X96678000Y-84708000D01*
X96678000Y-84710000D01*
X96677000Y-84713000D01*
X96676000Y-84715000D01*
X96675000Y-84718000D01*
X96673000Y-84720000D01*
X96672000Y-84722000D01*
X96670000Y-84724000D01*
X96669000Y-84726000D01*
X96667000Y-84728000D01*
X96665000Y-84730000D01*
X96663000Y-84732000D01*
X96661000Y-84734000D01*
X96659000Y-84735000D01*
X96657000Y-84737000D01*
X96655000Y-84738000D01*
X96653000Y-84740000D01*
X96650000Y-84741000D01*
X96648000Y-84742000D01*
X96645000Y-84743000D01*
X96643000Y-84743000D01*
X96640000Y-84744000D01*
X96638000Y-84744000D01*
X96635000Y-84745000D01*
X96633000Y-84745000D01*
X96630000Y-84745000D01*
X95990000Y-84745000D01*
X95987000Y-84745000D01*
X95985000Y-84745000D01*
X95982000Y-84744000D01*
X95980000Y-84744000D01*
X95977000Y-84743000D01*
X95975000Y-84743000D01*
X95972000Y-84742000D01*
X95970000Y-84741000D01*
X95967000Y-84740000D01*
X95965000Y-84738000D01*
X95963000Y-84737000D01*
X95961000Y-84735000D01*
X95959000Y-84734000D01*
X95957000Y-84732000D01*
X95955000Y-84730000D01*
X95953000Y-84728000D01*
X95951000Y-84726000D01*
X95950000Y-84724000D01*
X95948000Y-84722000D01*
X95947000Y-84720000D01*
X95945000Y-84718000D01*
X95944000Y-84715000D01*
X95943000Y-84713000D01*
X95942000Y-84710000D01*
X95942000Y-84708000D01*
X95941000Y-84705000D01*
X95941000Y-84703000D01*
X95940000Y-84700000D01*
X95940000Y-84698000D01*
X95940000Y-84695000D01*
X95940000Y-83105000D01*
X95940000Y-83102000D01*
X95940000Y-83100000D01*
X95941000Y-83097000D01*
X95941000Y-83095000D01*
X95942000Y-83092000D01*
X95942000Y-83090000D01*
X95943000Y-83087000D01*
X95944000Y-83085000D01*
X95945000Y-83082000D01*
X95947000Y-83080000D01*
X95948000Y-83078000D01*
X95950000Y-83076000D01*
X95951000Y-83074000D01*
X95953000Y-83072000D01*
X95955000Y-83070000D01*
X95957000Y-83068000D01*
X95959000Y-83066000D01*
X95961000Y-83065000D01*
X95963000Y-83063000D01*
X95965000Y-83062000D01*
X95967000Y-83060000D01*
X95970000Y-83059000D01*
X95972000Y-83058000D01*
X95975000Y-83057000D01*
X95977000Y-83057000D01*
X95980000Y-83056000D01*
X95982000Y-83056000D01*
X95985000Y-83055000D01*
X95987000Y-83055000D01*
X95990000Y-83055000D01*
X96630000Y-83055000D01*
X96633000Y-83055000D01*
X96635000Y-83055000D01*
X96638000Y-83056000D01*
G36*
X96638000Y-83056000D02*
G01*
X96640000Y-83056000D01*
X96643000Y-83057000D01*
X96645000Y-83057000D01*
X96648000Y-83058000D01*
X96650000Y-83059000D01*
X96653000Y-83060000D01*
X96655000Y-83062000D01*
X96657000Y-83063000D01*
X96659000Y-83065000D01*
X96661000Y-83066000D01*
X96663000Y-83068000D01*
X96665000Y-83070000D01*
X96667000Y-83072000D01*
X96669000Y-83074000D01*
X96670000Y-83076000D01*
X96672000Y-83078000D01*
X96673000Y-83080000D01*
X96675000Y-83082000D01*
X96676000Y-83085000D01*
X96677000Y-83087000D01*
X96678000Y-83090000D01*
X96678000Y-83092000D01*
X96679000Y-83095000D01*
X96679000Y-83097000D01*
X96680000Y-83100000D01*
X96680000Y-83102000D01*
X96680000Y-83105000D01*
X96680000Y-84695000D01*
X96680000Y-84698000D01*
X96680000Y-84700000D01*
X96679000Y-84703000D01*
X96679000Y-84705000D01*
X96678000Y-84708000D01*
X96678000Y-84710000D01*
X96677000Y-84713000D01*
X96676000Y-84715000D01*
X96675000Y-84718000D01*
X96673000Y-84720000D01*
X96672000Y-84722000D01*
X96670000Y-84724000D01*
X96669000Y-84726000D01*
X96667000Y-84728000D01*
X96665000Y-84730000D01*
X96663000Y-84732000D01*
X96661000Y-84734000D01*
X96659000Y-84735000D01*
X96657000Y-84737000D01*
X96655000Y-84738000D01*
X96653000Y-84740000D01*
X96650000Y-84741000D01*
X96648000Y-84742000D01*
X96645000Y-84743000D01*
X96643000Y-84743000D01*
X96640000Y-84744000D01*
X96638000Y-84744000D01*
X96635000Y-84745000D01*
X96633000Y-84745000D01*
X96630000Y-84745000D01*
X95990000Y-84745000D01*
X95987000Y-84745000D01*
X95985000Y-84745000D01*
X95982000Y-84744000D01*
X95980000Y-84744000D01*
X95977000Y-84743000D01*
X95975000Y-84743000D01*
X95972000Y-84742000D01*
X95970000Y-84741000D01*
X95967000Y-84740000D01*
X95965000Y-84738000D01*
X95963000Y-84737000D01*
X95961000Y-84735000D01*
X95959000Y-84734000D01*
X95957000Y-84732000D01*
X95955000Y-84730000D01*
X95953000Y-84728000D01*
X95951000Y-84726000D01*
X95950000Y-84724000D01*
X95948000Y-84722000D01*
X95947000Y-84720000D01*
X95945000Y-84718000D01*
X95944000Y-84715000D01*
X95943000Y-84713000D01*
X95942000Y-84710000D01*
X95942000Y-84708000D01*
X95941000Y-84705000D01*
X95941000Y-84703000D01*
X95940000Y-84700000D01*
X95940000Y-84698000D01*
X95940000Y-84695000D01*
X95940000Y-83105000D01*
X95940000Y-83102000D01*
X95940000Y-83100000D01*
X95941000Y-83097000D01*
X95941000Y-83095000D01*
X95942000Y-83092000D01*
X95942000Y-83090000D01*
X95943000Y-83087000D01*
X95944000Y-83085000D01*
X95945000Y-83082000D01*
X95947000Y-83080000D01*
X95948000Y-83078000D01*
X95950000Y-83076000D01*
X95951000Y-83074000D01*
X95953000Y-83072000D01*
X95955000Y-83070000D01*
X95957000Y-83068000D01*
X95959000Y-83066000D01*
X95961000Y-83065000D01*
X95963000Y-83063000D01*
X95965000Y-83062000D01*
X95967000Y-83060000D01*
X95970000Y-83059000D01*
X95972000Y-83058000D01*
X95975000Y-83057000D01*
X95977000Y-83057000D01*
X95980000Y-83056000D01*
X95982000Y-83056000D01*
X95985000Y-83055000D01*
X95987000Y-83055000D01*
X95990000Y-83055000D01*
X96630000Y-83055000D01*
X96633000Y-83055000D01*
X96635000Y-83055000D01*
X96638000Y-83056000D01*
G37*
X97908000Y-77656000D02*
X97910000Y-77656000D01*
X97913000Y-77657000D01*
X97915000Y-77657000D01*
X97918000Y-77658000D01*
X97920000Y-77659000D01*
X97923000Y-77660000D01*
X97925000Y-77662000D01*
X97927000Y-77663000D01*
X97929000Y-77665000D01*
X97931000Y-77666000D01*
X97933000Y-77668000D01*
X97935000Y-77670000D01*
X97937000Y-77672000D01*
X97939000Y-77674000D01*
X97940000Y-77676000D01*
X97942000Y-77678000D01*
X97943000Y-77680000D01*
X97945000Y-77682000D01*
X97946000Y-77685000D01*
X97947000Y-77687000D01*
X97948000Y-77690000D01*
X97948000Y-77692000D01*
X97949000Y-77695000D01*
X97949000Y-77697000D01*
X97950000Y-77700000D01*
X97950000Y-77702000D01*
X97950000Y-77705000D01*
X97950000Y-79295000D01*
X97950000Y-79298000D01*
X97950000Y-79300000D01*
X97949000Y-79303000D01*
X97949000Y-79305000D01*
X97948000Y-79308000D01*
X97948000Y-79310000D01*
X97947000Y-79313000D01*
X97946000Y-79315000D01*
X97945000Y-79318000D01*
X97943000Y-79320000D01*
X97942000Y-79322000D01*
X97940000Y-79324000D01*
X97939000Y-79326000D01*
X97937000Y-79328000D01*
X97935000Y-79330000D01*
X97933000Y-79332000D01*
X97931000Y-79334000D01*
X97929000Y-79335000D01*
X97927000Y-79337000D01*
X97925000Y-79338000D01*
X97923000Y-79340000D01*
X97920000Y-79341000D01*
X97918000Y-79342000D01*
X97915000Y-79343000D01*
X97913000Y-79343000D01*
X97910000Y-79344000D01*
X97908000Y-79344000D01*
X97905000Y-79345000D01*
X97903000Y-79345000D01*
X97900000Y-79345000D01*
X97260000Y-79345000D01*
X97257000Y-79345000D01*
X97255000Y-79345000D01*
X97252000Y-79344000D01*
X97250000Y-79344000D01*
X97247000Y-79343000D01*
X97245000Y-79343000D01*
X97242000Y-79342000D01*
X97240000Y-79341000D01*
X97237000Y-79340000D01*
X97235000Y-79338000D01*
X97233000Y-79337000D01*
X97231000Y-79335000D01*
X97229000Y-79334000D01*
X97227000Y-79332000D01*
X97225000Y-79330000D01*
X97223000Y-79328000D01*
X97221000Y-79326000D01*
X97220000Y-79324000D01*
X97218000Y-79322000D01*
X97217000Y-79320000D01*
X97215000Y-79318000D01*
X97214000Y-79315000D01*
X97213000Y-79313000D01*
X97212000Y-79310000D01*
X97212000Y-79308000D01*
X97211000Y-79305000D01*
X97211000Y-79303000D01*
X97210000Y-79300000D01*
X97210000Y-79298000D01*
X97210000Y-79295000D01*
X97210000Y-77705000D01*
X97210000Y-77702000D01*
X97210000Y-77700000D01*
X97211000Y-77697000D01*
X97211000Y-77695000D01*
X97212000Y-77692000D01*
X97212000Y-77690000D01*
X97213000Y-77687000D01*
X97214000Y-77685000D01*
X97215000Y-77682000D01*
X97217000Y-77680000D01*
X97218000Y-77678000D01*
X97220000Y-77676000D01*
X97221000Y-77674000D01*
X97223000Y-77672000D01*
X97225000Y-77670000D01*
X97227000Y-77668000D01*
X97229000Y-77666000D01*
X97231000Y-77665000D01*
X97233000Y-77663000D01*
X97235000Y-77662000D01*
X97237000Y-77660000D01*
X97240000Y-77659000D01*
X97242000Y-77658000D01*
X97245000Y-77657000D01*
X97247000Y-77657000D01*
X97250000Y-77656000D01*
X97252000Y-77656000D01*
X97255000Y-77655000D01*
X97257000Y-77655000D01*
X97260000Y-77655000D01*
X97900000Y-77655000D01*
X97903000Y-77655000D01*
X97905000Y-77655000D01*
X97908000Y-77656000D01*
G36*
X97908000Y-77656000D02*
G01*
X97910000Y-77656000D01*
X97913000Y-77657000D01*
X97915000Y-77657000D01*
X97918000Y-77658000D01*
X97920000Y-77659000D01*
X97923000Y-77660000D01*
X97925000Y-77662000D01*
X97927000Y-77663000D01*
X97929000Y-77665000D01*
X97931000Y-77666000D01*
X97933000Y-77668000D01*
X97935000Y-77670000D01*
X97937000Y-77672000D01*
X97939000Y-77674000D01*
X97940000Y-77676000D01*
X97942000Y-77678000D01*
X97943000Y-77680000D01*
X97945000Y-77682000D01*
X97946000Y-77685000D01*
X97947000Y-77687000D01*
X97948000Y-77690000D01*
X97948000Y-77692000D01*
X97949000Y-77695000D01*
X97949000Y-77697000D01*
X97950000Y-77700000D01*
X97950000Y-77702000D01*
X97950000Y-77705000D01*
X97950000Y-79295000D01*
X97950000Y-79298000D01*
X97950000Y-79300000D01*
X97949000Y-79303000D01*
X97949000Y-79305000D01*
X97948000Y-79308000D01*
X97948000Y-79310000D01*
X97947000Y-79313000D01*
X97946000Y-79315000D01*
X97945000Y-79318000D01*
X97943000Y-79320000D01*
X97942000Y-79322000D01*
X97940000Y-79324000D01*
X97939000Y-79326000D01*
X97937000Y-79328000D01*
X97935000Y-79330000D01*
X97933000Y-79332000D01*
X97931000Y-79334000D01*
X97929000Y-79335000D01*
X97927000Y-79337000D01*
X97925000Y-79338000D01*
X97923000Y-79340000D01*
X97920000Y-79341000D01*
X97918000Y-79342000D01*
X97915000Y-79343000D01*
X97913000Y-79343000D01*
X97910000Y-79344000D01*
X97908000Y-79344000D01*
X97905000Y-79345000D01*
X97903000Y-79345000D01*
X97900000Y-79345000D01*
X97260000Y-79345000D01*
X97257000Y-79345000D01*
X97255000Y-79345000D01*
X97252000Y-79344000D01*
X97250000Y-79344000D01*
X97247000Y-79343000D01*
X97245000Y-79343000D01*
X97242000Y-79342000D01*
X97240000Y-79341000D01*
X97237000Y-79340000D01*
X97235000Y-79338000D01*
X97233000Y-79337000D01*
X97231000Y-79335000D01*
X97229000Y-79334000D01*
X97227000Y-79332000D01*
X97225000Y-79330000D01*
X97223000Y-79328000D01*
X97221000Y-79326000D01*
X97220000Y-79324000D01*
X97218000Y-79322000D01*
X97217000Y-79320000D01*
X97215000Y-79318000D01*
X97214000Y-79315000D01*
X97213000Y-79313000D01*
X97212000Y-79310000D01*
X97212000Y-79308000D01*
X97211000Y-79305000D01*
X97211000Y-79303000D01*
X97210000Y-79300000D01*
X97210000Y-79298000D01*
X97210000Y-79295000D01*
X97210000Y-77705000D01*
X97210000Y-77702000D01*
X97210000Y-77700000D01*
X97211000Y-77697000D01*
X97211000Y-77695000D01*
X97212000Y-77692000D01*
X97212000Y-77690000D01*
X97213000Y-77687000D01*
X97214000Y-77685000D01*
X97215000Y-77682000D01*
X97217000Y-77680000D01*
X97218000Y-77678000D01*
X97220000Y-77676000D01*
X97221000Y-77674000D01*
X97223000Y-77672000D01*
X97225000Y-77670000D01*
X97227000Y-77668000D01*
X97229000Y-77666000D01*
X97231000Y-77665000D01*
X97233000Y-77663000D01*
X97235000Y-77662000D01*
X97237000Y-77660000D01*
X97240000Y-77659000D01*
X97242000Y-77658000D01*
X97245000Y-77657000D01*
X97247000Y-77657000D01*
X97250000Y-77656000D01*
X97252000Y-77656000D01*
X97255000Y-77655000D01*
X97257000Y-77655000D01*
X97260000Y-77655000D01*
X97900000Y-77655000D01*
X97903000Y-77655000D01*
X97905000Y-77655000D01*
X97908000Y-77656000D01*
G37*
X97908000Y-83056000D02*
X97910000Y-83056000D01*
X97913000Y-83057000D01*
X97915000Y-83057000D01*
X97918000Y-83058000D01*
X97920000Y-83059000D01*
X97923000Y-83060000D01*
X97925000Y-83062000D01*
X97927000Y-83063000D01*
X97929000Y-83065000D01*
X97931000Y-83066000D01*
X97933000Y-83068000D01*
X97935000Y-83070000D01*
X97937000Y-83072000D01*
X97939000Y-83074000D01*
X97940000Y-83076000D01*
X97942000Y-83078000D01*
X97943000Y-83080000D01*
X97945000Y-83082000D01*
X97946000Y-83085000D01*
X97947000Y-83087000D01*
X97948000Y-83090000D01*
X97948000Y-83092000D01*
X97949000Y-83095000D01*
X97949000Y-83097000D01*
X97950000Y-83100000D01*
X97950000Y-83102000D01*
X97950000Y-83105000D01*
X97950000Y-84695000D01*
X97950000Y-84698000D01*
X97950000Y-84700000D01*
X97949000Y-84703000D01*
X97949000Y-84705000D01*
X97948000Y-84708000D01*
X97948000Y-84710000D01*
X97947000Y-84713000D01*
X97946000Y-84715000D01*
X97945000Y-84718000D01*
X97943000Y-84720000D01*
X97942000Y-84722000D01*
X97940000Y-84724000D01*
X97939000Y-84726000D01*
X97937000Y-84728000D01*
X97935000Y-84730000D01*
X97933000Y-84732000D01*
X97931000Y-84734000D01*
X97929000Y-84735000D01*
X97927000Y-84737000D01*
X97925000Y-84738000D01*
X97923000Y-84740000D01*
X97920000Y-84741000D01*
X97918000Y-84742000D01*
X97915000Y-84743000D01*
X97913000Y-84743000D01*
X97910000Y-84744000D01*
X97908000Y-84744000D01*
X97905000Y-84745000D01*
X97903000Y-84745000D01*
X97900000Y-84745000D01*
X97260000Y-84745000D01*
X97257000Y-84745000D01*
X97255000Y-84745000D01*
X97252000Y-84744000D01*
X97250000Y-84744000D01*
X97247000Y-84743000D01*
X97245000Y-84743000D01*
X97242000Y-84742000D01*
X97240000Y-84741000D01*
X97237000Y-84740000D01*
X97235000Y-84738000D01*
X97233000Y-84737000D01*
X97231000Y-84735000D01*
X97229000Y-84734000D01*
X97227000Y-84732000D01*
X97225000Y-84730000D01*
X97223000Y-84728000D01*
X97221000Y-84726000D01*
X97220000Y-84724000D01*
X97218000Y-84722000D01*
X97217000Y-84720000D01*
X97215000Y-84718000D01*
X97214000Y-84715000D01*
X97213000Y-84713000D01*
X97212000Y-84710000D01*
X97212000Y-84708000D01*
X97211000Y-84705000D01*
X97211000Y-84703000D01*
X97210000Y-84700000D01*
X97210000Y-84698000D01*
X97210000Y-84695000D01*
X97210000Y-83105000D01*
X97210000Y-83102000D01*
X97210000Y-83100000D01*
X97211000Y-83097000D01*
X97211000Y-83095000D01*
X97212000Y-83092000D01*
X97212000Y-83090000D01*
X97213000Y-83087000D01*
X97214000Y-83085000D01*
X97215000Y-83082000D01*
X97217000Y-83080000D01*
X97218000Y-83078000D01*
X97220000Y-83076000D01*
X97221000Y-83074000D01*
X97223000Y-83072000D01*
X97225000Y-83070000D01*
X97227000Y-83068000D01*
X97229000Y-83066000D01*
X97231000Y-83065000D01*
X97233000Y-83063000D01*
X97235000Y-83062000D01*
X97237000Y-83060000D01*
X97240000Y-83059000D01*
X97242000Y-83058000D01*
X97245000Y-83057000D01*
X97247000Y-83057000D01*
X97250000Y-83056000D01*
X97252000Y-83056000D01*
X97255000Y-83055000D01*
X97257000Y-83055000D01*
X97260000Y-83055000D01*
X97900000Y-83055000D01*
X97903000Y-83055000D01*
X97905000Y-83055000D01*
X97908000Y-83056000D01*
G36*
X97908000Y-83056000D02*
G01*
X97910000Y-83056000D01*
X97913000Y-83057000D01*
X97915000Y-83057000D01*
X97918000Y-83058000D01*
X97920000Y-83059000D01*
X97923000Y-83060000D01*
X97925000Y-83062000D01*
X97927000Y-83063000D01*
X97929000Y-83065000D01*
X97931000Y-83066000D01*
X97933000Y-83068000D01*
X97935000Y-83070000D01*
X97937000Y-83072000D01*
X97939000Y-83074000D01*
X97940000Y-83076000D01*
X97942000Y-83078000D01*
X97943000Y-83080000D01*
X97945000Y-83082000D01*
X97946000Y-83085000D01*
X97947000Y-83087000D01*
X97948000Y-83090000D01*
X97948000Y-83092000D01*
X97949000Y-83095000D01*
X97949000Y-83097000D01*
X97950000Y-83100000D01*
X97950000Y-83102000D01*
X97950000Y-83105000D01*
X97950000Y-84695000D01*
X97950000Y-84698000D01*
X97950000Y-84700000D01*
X97949000Y-84703000D01*
X97949000Y-84705000D01*
X97948000Y-84708000D01*
X97948000Y-84710000D01*
X97947000Y-84713000D01*
X97946000Y-84715000D01*
X97945000Y-84718000D01*
X97943000Y-84720000D01*
X97942000Y-84722000D01*
X97940000Y-84724000D01*
X97939000Y-84726000D01*
X97937000Y-84728000D01*
X97935000Y-84730000D01*
X97933000Y-84732000D01*
X97931000Y-84734000D01*
X97929000Y-84735000D01*
X97927000Y-84737000D01*
X97925000Y-84738000D01*
X97923000Y-84740000D01*
X97920000Y-84741000D01*
X97918000Y-84742000D01*
X97915000Y-84743000D01*
X97913000Y-84743000D01*
X97910000Y-84744000D01*
X97908000Y-84744000D01*
X97905000Y-84745000D01*
X97903000Y-84745000D01*
X97900000Y-84745000D01*
X97260000Y-84745000D01*
X97257000Y-84745000D01*
X97255000Y-84745000D01*
X97252000Y-84744000D01*
X97250000Y-84744000D01*
X97247000Y-84743000D01*
X97245000Y-84743000D01*
X97242000Y-84742000D01*
X97240000Y-84741000D01*
X97237000Y-84740000D01*
X97235000Y-84738000D01*
X97233000Y-84737000D01*
X97231000Y-84735000D01*
X97229000Y-84734000D01*
X97227000Y-84732000D01*
X97225000Y-84730000D01*
X97223000Y-84728000D01*
X97221000Y-84726000D01*
X97220000Y-84724000D01*
X97218000Y-84722000D01*
X97217000Y-84720000D01*
X97215000Y-84718000D01*
X97214000Y-84715000D01*
X97213000Y-84713000D01*
X97212000Y-84710000D01*
X97212000Y-84708000D01*
X97211000Y-84705000D01*
X97211000Y-84703000D01*
X97210000Y-84700000D01*
X97210000Y-84698000D01*
X97210000Y-84695000D01*
X97210000Y-83105000D01*
X97210000Y-83102000D01*
X97210000Y-83100000D01*
X97211000Y-83097000D01*
X97211000Y-83095000D01*
X97212000Y-83092000D01*
X97212000Y-83090000D01*
X97213000Y-83087000D01*
X97214000Y-83085000D01*
X97215000Y-83082000D01*
X97217000Y-83080000D01*
X97218000Y-83078000D01*
X97220000Y-83076000D01*
X97221000Y-83074000D01*
X97223000Y-83072000D01*
X97225000Y-83070000D01*
X97227000Y-83068000D01*
X97229000Y-83066000D01*
X97231000Y-83065000D01*
X97233000Y-83063000D01*
X97235000Y-83062000D01*
X97237000Y-83060000D01*
X97240000Y-83059000D01*
X97242000Y-83058000D01*
X97245000Y-83057000D01*
X97247000Y-83057000D01*
X97250000Y-83056000D01*
X97252000Y-83056000D01*
X97255000Y-83055000D01*
X97257000Y-83055000D01*
X97260000Y-83055000D01*
X97900000Y-83055000D01*
X97903000Y-83055000D01*
X97905000Y-83055000D01*
X97908000Y-83056000D01*
G37*
X99178000Y-77656000D02*
X99180000Y-77656000D01*
X99183000Y-77657000D01*
X99185000Y-77657000D01*
X99188000Y-77658000D01*
X99190000Y-77659000D01*
X99193000Y-77660000D01*
X99195000Y-77662000D01*
X99197000Y-77663000D01*
X99199000Y-77665000D01*
X99201000Y-77666000D01*
X99203000Y-77668000D01*
X99205000Y-77670000D01*
X99207000Y-77672000D01*
X99209000Y-77674000D01*
X99210000Y-77676000D01*
X99212000Y-77678000D01*
X99213000Y-77680000D01*
X99215000Y-77682000D01*
X99216000Y-77685000D01*
X99217000Y-77687000D01*
X99218000Y-77690000D01*
X99218000Y-77692000D01*
X99219000Y-77695000D01*
X99219000Y-77697000D01*
X99220000Y-77700000D01*
X99220000Y-77702000D01*
X99220000Y-77705000D01*
X99220000Y-79295000D01*
X99220000Y-79298000D01*
X99220000Y-79300000D01*
X99219000Y-79303000D01*
X99219000Y-79305000D01*
X99218000Y-79308000D01*
X99218000Y-79310000D01*
X99217000Y-79313000D01*
X99216000Y-79315000D01*
X99215000Y-79318000D01*
X99213000Y-79320000D01*
X99212000Y-79322000D01*
X99210000Y-79324000D01*
X99209000Y-79326000D01*
X99207000Y-79328000D01*
X99205000Y-79330000D01*
X99203000Y-79332000D01*
X99201000Y-79334000D01*
X99199000Y-79335000D01*
X99197000Y-79337000D01*
X99195000Y-79338000D01*
X99193000Y-79340000D01*
X99190000Y-79341000D01*
X99188000Y-79342000D01*
X99185000Y-79343000D01*
X99183000Y-79343000D01*
X99180000Y-79344000D01*
X99178000Y-79344000D01*
X99175000Y-79345000D01*
X99173000Y-79345000D01*
X99170000Y-79345000D01*
X98530000Y-79345000D01*
X98527000Y-79345000D01*
X98525000Y-79345000D01*
X98522000Y-79344000D01*
X98520000Y-79344000D01*
X98517000Y-79343000D01*
X98515000Y-79343000D01*
X98512000Y-79342000D01*
X98510000Y-79341000D01*
X98507000Y-79340000D01*
X98505000Y-79338000D01*
X98503000Y-79337000D01*
X98501000Y-79335000D01*
X98499000Y-79334000D01*
X98497000Y-79332000D01*
X98495000Y-79330000D01*
X98493000Y-79328000D01*
X98491000Y-79326000D01*
X98490000Y-79324000D01*
X98488000Y-79322000D01*
X98487000Y-79320000D01*
X98485000Y-79318000D01*
X98484000Y-79315000D01*
X98483000Y-79313000D01*
X98482000Y-79310000D01*
X98482000Y-79308000D01*
X98481000Y-79305000D01*
X98481000Y-79303000D01*
X98480000Y-79300000D01*
X98480000Y-79298000D01*
X98480000Y-79295000D01*
X98480000Y-77705000D01*
X98480000Y-77702000D01*
X98480000Y-77700000D01*
X98481000Y-77697000D01*
X98481000Y-77695000D01*
X98482000Y-77692000D01*
X98482000Y-77690000D01*
X98483000Y-77687000D01*
X98484000Y-77685000D01*
X98485000Y-77682000D01*
X98487000Y-77680000D01*
X98488000Y-77678000D01*
X98490000Y-77676000D01*
X98491000Y-77674000D01*
X98493000Y-77672000D01*
X98495000Y-77670000D01*
X98497000Y-77668000D01*
X98499000Y-77666000D01*
X98501000Y-77665000D01*
X98503000Y-77663000D01*
X98505000Y-77662000D01*
X98507000Y-77660000D01*
X98510000Y-77659000D01*
X98512000Y-77658000D01*
X98515000Y-77657000D01*
X98517000Y-77657000D01*
X98520000Y-77656000D01*
X98522000Y-77656000D01*
X98525000Y-77655000D01*
X98527000Y-77655000D01*
X98530000Y-77655000D01*
X99170000Y-77655000D01*
X99173000Y-77655000D01*
X99175000Y-77655000D01*
X99178000Y-77656000D01*
G36*
X99178000Y-77656000D02*
G01*
X99180000Y-77656000D01*
X99183000Y-77657000D01*
X99185000Y-77657000D01*
X99188000Y-77658000D01*
X99190000Y-77659000D01*
X99193000Y-77660000D01*
X99195000Y-77662000D01*
X99197000Y-77663000D01*
X99199000Y-77665000D01*
X99201000Y-77666000D01*
X99203000Y-77668000D01*
X99205000Y-77670000D01*
X99207000Y-77672000D01*
X99209000Y-77674000D01*
X99210000Y-77676000D01*
X99212000Y-77678000D01*
X99213000Y-77680000D01*
X99215000Y-77682000D01*
X99216000Y-77685000D01*
X99217000Y-77687000D01*
X99218000Y-77690000D01*
X99218000Y-77692000D01*
X99219000Y-77695000D01*
X99219000Y-77697000D01*
X99220000Y-77700000D01*
X99220000Y-77702000D01*
X99220000Y-77705000D01*
X99220000Y-79295000D01*
X99220000Y-79298000D01*
X99220000Y-79300000D01*
X99219000Y-79303000D01*
X99219000Y-79305000D01*
X99218000Y-79308000D01*
X99218000Y-79310000D01*
X99217000Y-79313000D01*
X99216000Y-79315000D01*
X99215000Y-79318000D01*
X99213000Y-79320000D01*
X99212000Y-79322000D01*
X99210000Y-79324000D01*
X99209000Y-79326000D01*
X99207000Y-79328000D01*
X99205000Y-79330000D01*
X99203000Y-79332000D01*
X99201000Y-79334000D01*
X99199000Y-79335000D01*
X99197000Y-79337000D01*
X99195000Y-79338000D01*
X99193000Y-79340000D01*
X99190000Y-79341000D01*
X99188000Y-79342000D01*
X99185000Y-79343000D01*
X99183000Y-79343000D01*
X99180000Y-79344000D01*
X99178000Y-79344000D01*
X99175000Y-79345000D01*
X99173000Y-79345000D01*
X99170000Y-79345000D01*
X98530000Y-79345000D01*
X98527000Y-79345000D01*
X98525000Y-79345000D01*
X98522000Y-79344000D01*
X98520000Y-79344000D01*
X98517000Y-79343000D01*
X98515000Y-79343000D01*
X98512000Y-79342000D01*
X98510000Y-79341000D01*
X98507000Y-79340000D01*
X98505000Y-79338000D01*
X98503000Y-79337000D01*
X98501000Y-79335000D01*
X98499000Y-79334000D01*
X98497000Y-79332000D01*
X98495000Y-79330000D01*
X98493000Y-79328000D01*
X98491000Y-79326000D01*
X98490000Y-79324000D01*
X98488000Y-79322000D01*
X98487000Y-79320000D01*
X98485000Y-79318000D01*
X98484000Y-79315000D01*
X98483000Y-79313000D01*
X98482000Y-79310000D01*
X98482000Y-79308000D01*
X98481000Y-79305000D01*
X98481000Y-79303000D01*
X98480000Y-79300000D01*
X98480000Y-79298000D01*
X98480000Y-79295000D01*
X98480000Y-77705000D01*
X98480000Y-77702000D01*
X98480000Y-77700000D01*
X98481000Y-77697000D01*
X98481000Y-77695000D01*
X98482000Y-77692000D01*
X98482000Y-77690000D01*
X98483000Y-77687000D01*
X98484000Y-77685000D01*
X98485000Y-77682000D01*
X98487000Y-77680000D01*
X98488000Y-77678000D01*
X98490000Y-77676000D01*
X98491000Y-77674000D01*
X98493000Y-77672000D01*
X98495000Y-77670000D01*
X98497000Y-77668000D01*
X98499000Y-77666000D01*
X98501000Y-77665000D01*
X98503000Y-77663000D01*
X98505000Y-77662000D01*
X98507000Y-77660000D01*
X98510000Y-77659000D01*
X98512000Y-77658000D01*
X98515000Y-77657000D01*
X98517000Y-77657000D01*
X98520000Y-77656000D01*
X98522000Y-77656000D01*
X98525000Y-77655000D01*
X98527000Y-77655000D01*
X98530000Y-77655000D01*
X99170000Y-77655000D01*
X99173000Y-77655000D01*
X99175000Y-77655000D01*
X99178000Y-77656000D01*
G37*
X99178000Y-83056000D02*
X99180000Y-83056000D01*
X99183000Y-83057000D01*
X99185000Y-83057000D01*
X99188000Y-83058000D01*
X99190000Y-83059000D01*
X99193000Y-83060000D01*
X99195000Y-83062000D01*
X99197000Y-83063000D01*
X99199000Y-83065000D01*
X99201000Y-83066000D01*
X99203000Y-83068000D01*
X99205000Y-83070000D01*
X99207000Y-83072000D01*
X99209000Y-83074000D01*
X99210000Y-83076000D01*
X99212000Y-83078000D01*
X99213000Y-83080000D01*
X99215000Y-83082000D01*
X99216000Y-83085000D01*
X99217000Y-83087000D01*
X99218000Y-83090000D01*
X99218000Y-83092000D01*
X99219000Y-83095000D01*
X99219000Y-83097000D01*
X99220000Y-83100000D01*
X99220000Y-83102000D01*
X99220000Y-83105000D01*
X99220000Y-84695000D01*
X99220000Y-84698000D01*
X99220000Y-84700000D01*
X99219000Y-84703000D01*
X99219000Y-84705000D01*
X99218000Y-84708000D01*
X99218000Y-84710000D01*
X99217000Y-84713000D01*
X99216000Y-84715000D01*
X99215000Y-84718000D01*
X99213000Y-84720000D01*
X99212000Y-84722000D01*
X99210000Y-84724000D01*
X99209000Y-84726000D01*
X99207000Y-84728000D01*
X99205000Y-84730000D01*
X99203000Y-84732000D01*
X99201000Y-84734000D01*
X99199000Y-84735000D01*
X99197000Y-84737000D01*
X99195000Y-84738000D01*
X99193000Y-84740000D01*
X99190000Y-84741000D01*
X99188000Y-84742000D01*
X99185000Y-84743000D01*
X99183000Y-84743000D01*
X99180000Y-84744000D01*
X99178000Y-84744000D01*
X99175000Y-84745000D01*
X99173000Y-84745000D01*
X99170000Y-84745000D01*
X98530000Y-84745000D01*
X98527000Y-84745000D01*
X98525000Y-84745000D01*
X98522000Y-84744000D01*
X98520000Y-84744000D01*
X98517000Y-84743000D01*
X98515000Y-84743000D01*
X98512000Y-84742000D01*
X98510000Y-84741000D01*
X98507000Y-84740000D01*
X98505000Y-84738000D01*
X98503000Y-84737000D01*
X98501000Y-84735000D01*
X98499000Y-84734000D01*
X98497000Y-84732000D01*
X98495000Y-84730000D01*
X98493000Y-84728000D01*
X98491000Y-84726000D01*
X98490000Y-84724000D01*
X98488000Y-84722000D01*
X98487000Y-84720000D01*
X98485000Y-84718000D01*
X98484000Y-84715000D01*
X98483000Y-84713000D01*
X98482000Y-84710000D01*
X98482000Y-84708000D01*
X98481000Y-84705000D01*
X98481000Y-84703000D01*
X98480000Y-84700000D01*
X98480000Y-84698000D01*
X98480000Y-84695000D01*
X98480000Y-83105000D01*
X98480000Y-83102000D01*
X98480000Y-83100000D01*
X98481000Y-83097000D01*
X98481000Y-83095000D01*
X98482000Y-83092000D01*
X98482000Y-83090000D01*
X98483000Y-83087000D01*
X98484000Y-83085000D01*
X98485000Y-83082000D01*
X98487000Y-83080000D01*
X98488000Y-83078000D01*
X98490000Y-83076000D01*
X98491000Y-83074000D01*
X98493000Y-83072000D01*
X98495000Y-83070000D01*
X98497000Y-83068000D01*
X98499000Y-83066000D01*
X98501000Y-83065000D01*
X98503000Y-83063000D01*
X98505000Y-83062000D01*
X98507000Y-83060000D01*
X98510000Y-83059000D01*
X98512000Y-83058000D01*
X98515000Y-83057000D01*
X98517000Y-83057000D01*
X98520000Y-83056000D01*
X98522000Y-83056000D01*
X98525000Y-83055000D01*
X98527000Y-83055000D01*
X98530000Y-83055000D01*
X99170000Y-83055000D01*
X99173000Y-83055000D01*
X99175000Y-83055000D01*
X99178000Y-83056000D01*
G36*
X99178000Y-83056000D02*
G01*
X99180000Y-83056000D01*
X99183000Y-83057000D01*
X99185000Y-83057000D01*
X99188000Y-83058000D01*
X99190000Y-83059000D01*
X99193000Y-83060000D01*
X99195000Y-83062000D01*
X99197000Y-83063000D01*
X99199000Y-83065000D01*
X99201000Y-83066000D01*
X99203000Y-83068000D01*
X99205000Y-83070000D01*
X99207000Y-83072000D01*
X99209000Y-83074000D01*
X99210000Y-83076000D01*
X99212000Y-83078000D01*
X99213000Y-83080000D01*
X99215000Y-83082000D01*
X99216000Y-83085000D01*
X99217000Y-83087000D01*
X99218000Y-83090000D01*
X99218000Y-83092000D01*
X99219000Y-83095000D01*
X99219000Y-83097000D01*
X99220000Y-83100000D01*
X99220000Y-83102000D01*
X99220000Y-83105000D01*
X99220000Y-84695000D01*
X99220000Y-84698000D01*
X99220000Y-84700000D01*
X99219000Y-84703000D01*
X99219000Y-84705000D01*
X99218000Y-84708000D01*
X99218000Y-84710000D01*
X99217000Y-84713000D01*
X99216000Y-84715000D01*
X99215000Y-84718000D01*
X99213000Y-84720000D01*
X99212000Y-84722000D01*
X99210000Y-84724000D01*
X99209000Y-84726000D01*
X99207000Y-84728000D01*
X99205000Y-84730000D01*
X99203000Y-84732000D01*
X99201000Y-84734000D01*
X99199000Y-84735000D01*
X99197000Y-84737000D01*
X99195000Y-84738000D01*
X99193000Y-84740000D01*
X99190000Y-84741000D01*
X99188000Y-84742000D01*
X99185000Y-84743000D01*
X99183000Y-84743000D01*
X99180000Y-84744000D01*
X99178000Y-84744000D01*
X99175000Y-84745000D01*
X99173000Y-84745000D01*
X99170000Y-84745000D01*
X98530000Y-84745000D01*
X98527000Y-84745000D01*
X98525000Y-84745000D01*
X98522000Y-84744000D01*
X98520000Y-84744000D01*
X98517000Y-84743000D01*
X98515000Y-84743000D01*
X98512000Y-84742000D01*
X98510000Y-84741000D01*
X98507000Y-84740000D01*
X98505000Y-84738000D01*
X98503000Y-84737000D01*
X98501000Y-84735000D01*
X98499000Y-84734000D01*
X98497000Y-84732000D01*
X98495000Y-84730000D01*
X98493000Y-84728000D01*
X98491000Y-84726000D01*
X98490000Y-84724000D01*
X98488000Y-84722000D01*
X98487000Y-84720000D01*
X98485000Y-84718000D01*
X98484000Y-84715000D01*
X98483000Y-84713000D01*
X98482000Y-84710000D01*
X98482000Y-84708000D01*
X98481000Y-84705000D01*
X98481000Y-84703000D01*
X98480000Y-84700000D01*
X98480000Y-84698000D01*
X98480000Y-84695000D01*
X98480000Y-83105000D01*
X98480000Y-83102000D01*
X98480000Y-83100000D01*
X98481000Y-83097000D01*
X98481000Y-83095000D01*
X98482000Y-83092000D01*
X98482000Y-83090000D01*
X98483000Y-83087000D01*
X98484000Y-83085000D01*
X98485000Y-83082000D01*
X98487000Y-83080000D01*
X98488000Y-83078000D01*
X98490000Y-83076000D01*
X98491000Y-83074000D01*
X98493000Y-83072000D01*
X98495000Y-83070000D01*
X98497000Y-83068000D01*
X98499000Y-83066000D01*
X98501000Y-83065000D01*
X98503000Y-83063000D01*
X98505000Y-83062000D01*
X98507000Y-83060000D01*
X98510000Y-83059000D01*
X98512000Y-83058000D01*
X98515000Y-83057000D01*
X98517000Y-83057000D01*
X98520000Y-83056000D01*
X98522000Y-83056000D01*
X98525000Y-83055000D01*
X98527000Y-83055000D01*
X98530000Y-83055000D01*
X99170000Y-83055000D01*
X99173000Y-83055000D01*
X99175000Y-83055000D01*
X99178000Y-83056000D01*
G37*
%TO.C,U2*%
X118645000Y-82555000D02*
X115245000Y-82555000D01*
X115245000Y-79845000D01*
X118645000Y-79845000D01*
X118645000Y-82555000D01*
G36*
X118645000Y-82555000D02*
G01*
X115245000Y-82555000D01*
X115245000Y-79845000D01*
X118645000Y-79845000D01*
X118645000Y-82555000D01*
G37*
X115368000Y-77656000D02*
X115370000Y-77656000D01*
X115373000Y-77657000D01*
X115375000Y-77657000D01*
X115378000Y-77658000D01*
X115380000Y-77659000D01*
X115383000Y-77660000D01*
X115385000Y-77662000D01*
X115387000Y-77663000D01*
X115389000Y-77665000D01*
X115391000Y-77666000D01*
X115393000Y-77668000D01*
X115395000Y-77670000D01*
X115397000Y-77672000D01*
X115399000Y-77674000D01*
X115400000Y-77676000D01*
X115402000Y-77678000D01*
X115403000Y-77680000D01*
X115405000Y-77682000D01*
X115406000Y-77685000D01*
X115407000Y-77687000D01*
X115408000Y-77690000D01*
X115408000Y-77692000D01*
X115409000Y-77695000D01*
X115409000Y-77697000D01*
X115410000Y-77700000D01*
X115410000Y-77702000D01*
X115410000Y-77705000D01*
X115410000Y-79295000D01*
X115410000Y-79298000D01*
X115410000Y-79300000D01*
X115409000Y-79303000D01*
X115409000Y-79305000D01*
X115408000Y-79308000D01*
X115408000Y-79310000D01*
X115407000Y-79313000D01*
X115406000Y-79315000D01*
X115405000Y-79318000D01*
X115403000Y-79320000D01*
X115402000Y-79322000D01*
X115400000Y-79324000D01*
X115399000Y-79326000D01*
X115397000Y-79328000D01*
X115395000Y-79330000D01*
X115393000Y-79332000D01*
X115391000Y-79334000D01*
X115389000Y-79335000D01*
X115387000Y-79337000D01*
X115385000Y-79338000D01*
X115383000Y-79340000D01*
X115380000Y-79341000D01*
X115378000Y-79342000D01*
X115375000Y-79343000D01*
X115373000Y-79343000D01*
X115370000Y-79344000D01*
X115368000Y-79344000D01*
X115365000Y-79345000D01*
X115363000Y-79345000D01*
X115360000Y-79345000D01*
X114720000Y-79345000D01*
X114717000Y-79345000D01*
X114715000Y-79345000D01*
X114712000Y-79344000D01*
X114710000Y-79344000D01*
X114707000Y-79343000D01*
X114705000Y-79343000D01*
X114702000Y-79342000D01*
X114700000Y-79341000D01*
X114697000Y-79340000D01*
X114695000Y-79338000D01*
X114693000Y-79337000D01*
X114691000Y-79335000D01*
X114689000Y-79334000D01*
X114687000Y-79332000D01*
X114685000Y-79330000D01*
X114683000Y-79328000D01*
X114681000Y-79326000D01*
X114680000Y-79324000D01*
X114678000Y-79322000D01*
X114677000Y-79320000D01*
X114675000Y-79318000D01*
X114674000Y-79315000D01*
X114673000Y-79313000D01*
X114672000Y-79310000D01*
X114672000Y-79308000D01*
X114671000Y-79305000D01*
X114671000Y-79303000D01*
X114670000Y-79300000D01*
X114670000Y-79298000D01*
X114670000Y-79295000D01*
X114670000Y-77705000D01*
X114670000Y-77702000D01*
X114670000Y-77700000D01*
X114671000Y-77697000D01*
X114671000Y-77695000D01*
X114672000Y-77692000D01*
X114672000Y-77690000D01*
X114673000Y-77687000D01*
X114674000Y-77685000D01*
X114675000Y-77682000D01*
X114677000Y-77680000D01*
X114678000Y-77678000D01*
X114680000Y-77676000D01*
X114681000Y-77674000D01*
X114683000Y-77672000D01*
X114685000Y-77670000D01*
X114687000Y-77668000D01*
X114689000Y-77666000D01*
X114691000Y-77665000D01*
X114693000Y-77663000D01*
X114695000Y-77662000D01*
X114697000Y-77660000D01*
X114700000Y-77659000D01*
X114702000Y-77658000D01*
X114705000Y-77657000D01*
X114707000Y-77657000D01*
X114710000Y-77656000D01*
X114712000Y-77656000D01*
X114715000Y-77655000D01*
X114717000Y-77655000D01*
X114720000Y-77655000D01*
X115360000Y-77655000D01*
X115363000Y-77655000D01*
X115365000Y-77655000D01*
X115368000Y-77656000D01*
G36*
X115368000Y-77656000D02*
G01*
X115370000Y-77656000D01*
X115373000Y-77657000D01*
X115375000Y-77657000D01*
X115378000Y-77658000D01*
X115380000Y-77659000D01*
X115383000Y-77660000D01*
X115385000Y-77662000D01*
X115387000Y-77663000D01*
X115389000Y-77665000D01*
X115391000Y-77666000D01*
X115393000Y-77668000D01*
X115395000Y-77670000D01*
X115397000Y-77672000D01*
X115399000Y-77674000D01*
X115400000Y-77676000D01*
X115402000Y-77678000D01*
X115403000Y-77680000D01*
X115405000Y-77682000D01*
X115406000Y-77685000D01*
X115407000Y-77687000D01*
X115408000Y-77690000D01*
X115408000Y-77692000D01*
X115409000Y-77695000D01*
X115409000Y-77697000D01*
X115410000Y-77700000D01*
X115410000Y-77702000D01*
X115410000Y-77705000D01*
X115410000Y-79295000D01*
X115410000Y-79298000D01*
X115410000Y-79300000D01*
X115409000Y-79303000D01*
X115409000Y-79305000D01*
X115408000Y-79308000D01*
X115408000Y-79310000D01*
X115407000Y-79313000D01*
X115406000Y-79315000D01*
X115405000Y-79318000D01*
X115403000Y-79320000D01*
X115402000Y-79322000D01*
X115400000Y-79324000D01*
X115399000Y-79326000D01*
X115397000Y-79328000D01*
X115395000Y-79330000D01*
X115393000Y-79332000D01*
X115391000Y-79334000D01*
X115389000Y-79335000D01*
X115387000Y-79337000D01*
X115385000Y-79338000D01*
X115383000Y-79340000D01*
X115380000Y-79341000D01*
X115378000Y-79342000D01*
X115375000Y-79343000D01*
X115373000Y-79343000D01*
X115370000Y-79344000D01*
X115368000Y-79344000D01*
X115365000Y-79345000D01*
X115363000Y-79345000D01*
X115360000Y-79345000D01*
X114720000Y-79345000D01*
X114717000Y-79345000D01*
X114715000Y-79345000D01*
X114712000Y-79344000D01*
X114710000Y-79344000D01*
X114707000Y-79343000D01*
X114705000Y-79343000D01*
X114702000Y-79342000D01*
X114700000Y-79341000D01*
X114697000Y-79340000D01*
X114695000Y-79338000D01*
X114693000Y-79337000D01*
X114691000Y-79335000D01*
X114689000Y-79334000D01*
X114687000Y-79332000D01*
X114685000Y-79330000D01*
X114683000Y-79328000D01*
X114681000Y-79326000D01*
X114680000Y-79324000D01*
X114678000Y-79322000D01*
X114677000Y-79320000D01*
X114675000Y-79318000D01*
X114674000Y-79315000D01*
X114673000Y-79313000D01*
X114672000Y-79310000D01*
X114672000Y-79308000D01*
X114671000Y-79305000D01*
X114671000Y-79303000D01*
X114670000Y-79300000D01*
X114670000Y-79298000D01*
X114670000Y-79295000D01*
X114670000Y-77705000D01*
X114670000Y-77702000D01*
X114670000Y-77700000D01*
X114671000Y-77697000D01*
X114671000Y-77695000D01*
X114672000Y-77692000D01*
X114672000Y-77690000D01*
X114673000Y-77687000D01*
X114674000Y-77685000D01*
X114675000Y-77682000D01*
X114677000Y-77680000D01*
X114678000Y-77678000D01*
X114680000Y-77676000D01*
X114681000Y-77674000D01*
X114683000Y-77672000D01*
X114685000Y-77670000D01*
X114687000Y-77668000D01*
X114689000Y-77666000D01*
X114691000Y-77665000D01*
X114693000Y-77663000D01*
X114695000Y-77662000D01*
X114697000Y-77660000D01*
X114700000Y-77659000D01*
X114702000Y-77658000D01*
X114705000Y-77657000D01*
X114707000Y-77657000D01*
X114710000Y-77656000D01*
X114712000Y-77656000D01*
X114715000Y-77655000D01*
X114717000Y-77655000D01*
X114720000Y-77655000D01*
X115360000Y-77655000D01*
X115363000Y-77655000D01*
X115365000Y-77655000D01*
X115368000Y-77656000D01*
G37*
X115368000Y-83056000D02*
X115370000Y-83056000D01*
X115373000Y-83057000D01*
X115375000Y-83057000D01*
X115378000Y-83058000D01*
X115380000Y-83059000D01*
X115383000Y-83060000D01*
X115385000Y-83062000D01*
X115387000Y-83063000D01*
X115389000Y-83065000D01*
X115391000Y-83066000D01*
X115393000Y-83068000D01*
X115395000Y-83070000D01*
X115397000Y-83072000D01*
X115399000Y-83074000D01*
X115400000Y-83076000D01*
X115402000Y-83078000D01*
X115403000Y-83080000D01*
X115405000Y-83082000D01*
X115406000Y-83085000D01*
X115407000Y-83087000D01*
X115408000Y-83090000D01*
X115408000Y-83092000D01*
X115409000Y-83095000D01*
X115409000Y-83097000D01*
X115410000Y-83100000D01*
X115410000Y-83102000D01*
X115410000Y-83105000D01*
X115410000Y-84695000D01*
X115410000Y-84698000D01*
X115410000Y-84700000D01*
X115409000Y-84703000D01*
X115409000Y-84705000D01*
X115408000Y-84708000D01*
X115408000Y-84710000D01*
X115407000Y-84713000D01*
X115406000Y-84715000D01*
X115405000Y-84718000D01*
X115403000Y-84720000D01*
X115402000Y-84722000D01*
X115400000Y-84724000D01*
X115399000Y-84726000D01*
X115397000Y-84728000D01*
X115395000Y-84730000D01*
X115393000Y-84732000D01*
X115391000Y-84734000D01*
X115389000Y-84735000D01*
X115387000Y-84737000D01*
X115385000Y-84738000D01*
X115383000Y-84740000D01*
X115380000Y-84741000D01*
X115378000Y-84742000D01*
X115375000Y-84743000D01*
X115373000Y-84743000D01*
X115370000Y-84744000D01*
X115368000Y-84744000D01*
X115365000Y-84745000D01*
X115363000Y-84745000D01*
X115360000Y-84745000D01*
X114720000Y-84745000D01*
X114717000Y-84745000D01*
X114715000Y-84745000D01*
X114712000Y-84744000D01*
X114710000Y-84744000D01*
X114707000Y-84743000D01*
X114705000Y-84743000D01*
X114702000Y-84742000D01*
X114700000Y-84741000D01*
X114697000Y-84740000D01*
X114695000Y-84738000D01*
X114693000Y-84737000D01*
X114691000Y-84735000D01*
X114689000Y-84734000D01*
X114687000Y-84732000D01*
X114685000Y-84730000D01*
X114683000Y-84728000D01*
X114681000Y-84726000D01*
X114680000Y-84724000D01*
X114678000Y-84722000D01*
X114677000Y-84720000D01*
X114675000Y-84718000D01*
X114674000Y-84715000D01*
X114673000Y-84713000D01*
X114672000Y-84710000D01*
X114672000Y-84708000D01*
X114671000Y-84705000D01*
X114671000Y-84703000D01*
X114670000Y-84700000D01*
X114670000Y-84698000D01*
X114670000Y-84695000D01*
X114670000Y-83105000D01*
X114670000Y-83102000D01*
X114670000Y-83100000D01*
X114671000Y-83097000D01*
X114671000Y-83095000D01*
X114672000Y-83092000D01*
X114672000Y-83090000D01*
X114673000Y-83087000D01*
X114674000Y-83085000D01*
X114675000Y-83082000D01*
X114677000Y-83080000D01*
X114678000Y-83078000D01*
X114680000Y-83076000D01*
X114681000Y-83074000D01*
X114683000Y-83072000D01*
X114685000Y-83070000D01*
X114687000Y-83068000D01*
X114689000Y-83066000D01*
X114691000Y-83065000D01*
X114693000Y-83063000D01*
X114695000Y-83062000D01*
X114697000Y-83060000D01*
X114700000Y-83059000D01*
X114702000Y-83058000D01*
X114705000Y-83057000D01*
X114707000Y-83057000D01*
X114710000Y-83056000D01*
X114712000Y-83056000D01*
X114715000Y-83055000D01*
X114717000Y-83055000D01*
X114720000Y-83055000D01*
X115360000Y-83055000D01*
X115363000Y-83055000D01*
X115365000Y-83055000D01*
X115368000Y-83056000D01*
G36*
X115368000Y-83056000D02*
G01*
X115370000Y-83056000D01*
X115373000Y-83057000D01*
X115375000Y-83057000D01*
X115378000Y-83058000D01*
X115380000Y-83059000D01*
X115383000Y-83060000D01*
X115385000Y-83062000D01*
X115387000Y-83063000D01*
X115389000Y-83065000D01*
X115391000Y-83066000D01*
X115393000Y-83068000D01*
X115395000Y-83070000D01*
X115397000Y-83072000D01*
X115399000Y-83074000D01*
X115400000Y-83076000D01*
X115402000Y-83078000D01*
X115403000Y-83080000D01*
X115405000Y-83082000D01*
X115406000Y-83085000D01*
X115407000Y-83087000D01*
X115408000Y-83090000D01*
X115408000Y-83092000D01*
X115409000Y-83095000D01*
X115409000Y-83097000D01*
X115410000Y-83100000D01*
X115410000Y-83102000D01*
X115410000Y-83105000D01*
X115410000Y-84695000D01*
X115410000Y-84698000D01*
X115410000Y-84700000D01*
X115409000Y-84703000D01*
X115409000Y-84705000D01*
X115408000Y-84708000D01*
X115408000Y-84710000D01*
X115407000Y-84713000D01*
X115406000Y-84715000D01*
X115405000Y-84718000D01*
X115403000Y-84720000D01*
X115402000Y-84722000D01*
X115400000Y-84724000D01*
X115399000Y-84726000D01*
X115397000Y-84728000D01*
X115395000Y-84730000D01*
X115393000Y-84732000D01*
X115391000Y-84734000D01*
X115389000Y-84735000D01*
X115387000Y-84737000D01*
X115385000Y-84738000D01*
X115383000Y-84740000D01*
X115380000Y-84741000D01*
X115378000Y-84742000D01*
X115375000Y-84743000D01*
X115373000Y-84743000D01*
X115370000Y-84744000D01*
X115368000Y-84744000D01*
X115365000Y-84745000D01*
X115363000Y-84745000D01*
X115360000Y-84745000D01*
X114720000Y-84745000D01*
X114717000Y-84745000D01*
X114715000Y-84745000D01*
X114712000Y-84744000D01*
X114710000Y-84744000D01*
X114707000Y-84743000D01*
X114705000Y-84743000D01*
X114702000Y-84742000D01*
X114700000Y-84741000D01*
X114697000Y-84740000D01*
X114695000Y-84738000D01*
X114693000Y-84737000D01*
X114691000Y-84735000D01*
X114689000Y-84734000D01*
X114687000Y-84732000D01*
X114685000Y-84730000D01*
X114683000Y-84728000D01*
X114681000Y-84726000D01*
X114680000Y-84724000D01*
X114678000Y-84722000D01*
X114677000Y-84720000D01*
X114675000Y-84718000D01*
X114674000Y-84715000D01*
X114673000Y-84713000D01*
X114672000Y-84710000D01*
X114672000Y-84708000D01*
X114671000Y-84705000D01*
X114671000Y-84703000D01*
X114670000Y-84700000D01*
X114670000Y-84698000D01*
X114670000Y-84695000D01*
X114670000Y-83105000D01*
X114670000Y-83102000D01*
X114670000Y-83100000D01*
X114671000Y-83097000D01*
X114671000Y-83095000D01*
X114672000Y-83092000D01*
X114672000Y-83090000D01*
X114673000Y-83087000D01*
X114674000Y-83085000D01*
X114675000Y-83082000D01*
X114677000Y-83080000D01*
X114678000Y-83078000D01*
X114680000Y-83076000D01*
X114681000Y-83074000D01*
X114683000Y-83072000D01*
X114685000Y-83070000D01*
X114687000Y-83068000D01*
X114689000Y-83066000D01*
X114691000Y-83065000D01*
X114693000Y-83063000D01*
X114695000Y-83062000D01*
X114697000Y-83060000D01*
X114700000Y-83059000D01*
X114702000Y-83058000D01*
X114705000Y-83057000D01*
X114707000Y-83057000D01*
X114710000Y-83056000D01*
X114712000Y-83056000D01*
X114715000Y-83055000D01*
X114717000Y-83055000D01*
X114720000Y-83055000D01*
X115360000Y-83055000D01*
X115363000Y-83055000D01*
X115365000Y-83055000D01*
X115368000Y-83056000D01*
G37*
X116638000Y-77656000D02*
X116640000Y-77656000D01*
X116643000Y-77657000D01*
X116645000Y-77657000D01*
X116648000Y-77658000D01*
X116650000Y-77659000D01*
X116653000Y-77660000D01*
X116655000Y-77662000D01*
X116657000Y-77663000D01*
X116659000Y-77665000D01*
X116661000Y-77666000D01*
X116663000Y-77668000D01*
X116665000Y-77670000D01*
X116667000Y-77672000D01*
X116669000Y-77674000D01*
X116670000Y-77676000D01*
X116672000Y-77678000D01*
X116673000Y-77680000D01*
X116675000Y-77682000D01*
X116676000Y-77685000D01*
X116677000Y-77687000D01*
X116678000Y-77690000D01*
X116678000Y-77692000D01*
X116679000Y-77695000D01*
X116679000Y-77697000D01*
X116680000Y-77700000D01*
X116680000Y-77702000D01*
X116680000Y-77705000D01*
X116680000Y-79295000D01*
X116680000Y-79298000D01*
X116680000Y-79300000D01*
X116679000Y-79303000D01*
X116679000Y-79305000D01*
X116678000Y-79308000D01*
X116678000Y-79310000D01*
X116677000Y-79313000D01*
X116676000Y-79315000D01*
X116675000Y-79318000D01*
X116673000Y-79320000D01*
X116672000Y-79322000D01*
X116670000Y-79324000D01*
X116669000Y-79326000D01*
X116667000Y-79328000D01*
X116665000Y-79330000D01*
X116663000Y-79332000D01*
X116661000Y-79334000D01*
X116659000Y-79335000D01*
X116657000Y-79337000D01*
X116655000Y-79338000D01*
X116653000Y-79340000D01*
X116650000Y-79341000D01*
X116648000Y-79342000D01*
X116645000Y-79343000D01*
X116643000Y-79343000D01*
X116640000Y-79344000D01*
X116638000Y-79344000D01*
X116635000Y-79345000D01*
X116633000Y-79345000D01*
X116630000Y-79345000D01*
X115990000Y-79345000D01*
X115987000Y-79345000D01*
X115985000Y-79345000D01*
X115982000Y-79344000D01*
X115980000Y-79344000D01*
X115977000Y-79343000D01*
X115975000Y-79343000D01*
X115972000Y-79342000D01*
X115970000Y-79341000D01*
X115967000Y-79340000D01*
X115965000Y-79338000D01*
X115963000Y-79337000D01*
X115961000Y-79335000D01*
X115959000Y-79334000D01*
X115957000Y-79332000D01*
X115955000Y-79330000D01*
X115953000Y-79328000D01*
X115951000Y-79326000D01*
X115950000Y-79324000D01*
X115948000Y-79322000D01*
X115947000Y-79320000D01*
X115945000Y-79318000D01*
X115944000Y-79315000D01*
X115943000Y-79313000D01*
X115942000Y-79310000D01*
X115942000Y-79308000D01*
X115941000Y-79305000D01*
X115941000Y-79303000D01*
X115940000Y-79300000D01*
X115940000Y-79298000D01*
X115940000Y-79295000D01*
X115940000Y-77705000D01*
X115940000Y-77702000D01*
X115940000Y-77700000D01*
X115941000Y-77697000D01*
X115941000Y-77695000D01*
X115942000Y-77692000D01*
X115942000Y-77690000D01*
X115943000Y-77687000D01*
X115944000Y-77685000D01*
X115945000Y-77682000D01*
X115947000Y-77680000D01*
X115948000Y-77678000D01*
X115950000Y-77676000D01*
X115951000Y-77674000D01*
X115953000Y-77672000D01*
X115955000Y-77670000D01*
X115957000Y-77668000D01*
X115959000Y-77666000D01*
X115961000Y-77665000D01*
X115963000Y-77663000D01*
X115965000Y-77662000D01*
X115967000Y-77660000D01*
X115970000Y-77659000D01*
X115972000Y-77658000D01*
X115975000Y-77657000D01*
X115977000Y-77657000D01*
X115980000Y-77656000D01*
X115982000Y-77656000D01*
X115985000Y-77655000D01*
X115987000Y-77655000D01*
X115990000Y-77655000D01*
X116630000Y-77655000D01*
X116633000Y-77655000D01*
X116635000Y-77655000D01*
X116638000Y-77656000D01*
G36*
X116638000Y-77656000D02*
G01*
X116640000Y-77656000D01*
X116643000Y-77657000D01*
X116645000Y-77657000D01*
X116648000Y-77658000D01*
X116650000Y-77659000D01*
X116653000Y-77660000D01*
X116655000Y-77662000D01*
X116657000Y-77663000D01*
X116659000Y-77665000D01*
X116661000Y-77666000D01*
X116663000Y-77668000D01*
X116665000Y-77670000D01*
X116667000Y-77672000D01*
X116669000Y-77674000D01*
X116670000Y-77676000D01*
X116672000Y-77678000D01*
X116673000Y-77680000D01*
X116675000Y-77682000D01*
X116676000Y-77685000D01*
X116677000Y-77687000D01*
X116678000Y-77690000D01*
X116678000Y-77692000D01*
X116679000Y-77695000D01*
X116679000Y-77697000D01*
X116680000Y-77700000D01*
X116680000Y-77702000D01*
X116680000Y-77705000D01*
X116680000Y-79295000D01*
X116680000Y-79298000D01*
X116680000Y-79300000D01*
X116679000Y-79303000D01*
X116679000Y-79305000D01*
X116678000Y-79308000D01*
X116678000Y-79310000D01*
X116677000Y-79313000D01*
X116676000Y-79315000D01*
X116675000Y-79318000D01*
X116673000Y-79320000D01*
X116672000Y-79322000D01*
X116670000Y-79324000D01*
X116669000Y-79326000D01*
X116667000Y-79328000D01*
X116665000Y-79330000D01*
X116663000Y-79332000D01*
X116661000Y-79334000D01*
X116659000Y-79335000D01*
X116657000Y-79337000D01*
X116655000Y-79338000D01*
X116653000Y-79340000D01*
X116650000Y-79341000D01*
X116648000Y-79342000D01*
X116645000Y-79343000D01*
X116643000Y-79343000D01*
X116640000Y-79344000D01*
X116638000Y-79344000D01*
X116635000Y-79345000D01*
X116633000Y-79345000D01*
X116630000Y-79345000D01*
X115990000Y-79345000D01*
X115987000Y-79345000D01*
X115985000Y-79345000D01*
X115982000Y-79344000D01*
X115980000Y-79344000D01*
X115977000Y-79343000D01*
X115975000Y-79343000D01*
X115972000Y-79342000D01*
X115970000Y-79341000D01*
X115967000Y-79340000D01*
X115965000Y-79338000D01*
X115963000Y-79337000D01*
X115961000Y-79335000D01*
X115959000Y-79334000D01*
X115957000Y-79332000D01*
X115955000Y-79330000D01*
X115953000Y-79328000D01*
X115951000Y-79326000D01*
X115950000Y-79324000D01*
X115948000Y-79322000D01*
X115947000Y-79320000D01*
X115945000Y-79318000D01*
X115944000Y-79315000D01*
X115943000Y-79313000D01*
X115942000Y-79310000D01*
X115942000Y-79308000D01*
X115941000Y-79305000D01*
X115941000Y-79303000D01*
X115940000Y-79300000D01*
X115940000Y-79298000D01*
X115940000Y-79295000D01*
X115940000Y-77705000D01*
X115940000Y-77702000D01*
X115940000Y-77700000D01*
X115941000Y-77697000D01*
X115941000Y-77695000D01*
X115942000Y-77692000D01*
X115942000Y-77690000D01*
X115943000Y-77687000D01*
X115944000Y-77685000D01*
X115945000Y-77682000D01*
X115947000Y-77680000D01*
X115948000Y-77678000D01*
X115950000Y-77676000D01*
X115951000Y-77674000D01*
X115953000Y-77672000D01*
X115955000Y-77670000D01*
X115957000Y-77668000D01*
X115959000Y-77666000D01*
X115961000Y-77665000D01*
X115963000Y-77663000D01*
X115965000Y-77662000D01*
X115967000Y-77660000D01*
X115970000Y-77659000D01*
X115972000Y-77658000D01*
X115975000Y-77657000D01*
X115977000Y-77657000D01*
X115980000Y-77656000D01*
X115982000Y-77656000D01*
X115985000Y-77655000D01*
X115987000Y-77655000D01*
X115990000Y-77655000D01*
X116630000Y-77655000D01*
X116633000Y-77655000D01*
X116635000Y-77655000D01*
X116638000Y-77656000D01*
G37*
X116638000Y-83056000D02*
X116640000Y-83056000D01*
X116643000Y-83057000D01*
X116645000Y-83057000D01*
X116648000Y-83058000D01*
X116650000Y-83059000D01*
X116653000Y-83060000D01*
X116655000Y-83062000D01*
X116657000Y-83063000D01*
X116659000Y-83065000D01*
X116661000Y-83066000D01*
X116663000Y-83068000D01*
X116665000Y-83070000D01*
X116667000Y-83072000D01*
X116669000Y-83074000D01*
X116670000Y-83076000D01*
X116672000Y-83078000D01*
X116673000Y-83080000D01*
X116675000Y-83082000D01*
X116676000Y-83085000D01*
X116677000Y-83087000D01*
X116678000Y-83090000D01*
X116678000Y-83092000D01*
X116679000Y-83095000D01*
X116679000Y-83097000D01*
X116680000Y-83100000D01*
X116680000Y-83102000D01*
X116680000Y-83105000D01*
X116680000Y-84695000D01*
X116680000Y-84698000D01*
X116680000Y-84700000D01*
X116679000Y-84703000D01*
X116679000Y-84705000D01*
X116678000Y-84708000D01*
X116678000Y-84710000D01*
X116677000Y-84713000D01*
X116676000Y-84715000D01*
X116675000Y-84718000D01*
X116673000Y-84720000D01*
X116672000Y-84722000D01*
X116670000Y-84724000D01*
X116669000Y-84726000D01*
X116667000Y-84728000D01*
X116665000Y-84730000D01*
X116663000Y-84732000D01*
X116661000Y-84734000D01*
X116659000Y-84735000D01*
X116657000Y-84737000D01*
X116655000Y-84738000D01*
X116653000Y-84740000D01*
X116650000Y-84741000D01*
X116648000Y-84742000D01*
X116645000Y-84743000D01*
X116643000Y-84743000D01*
X116640000Y-84744000D01*
X116638000Y-84744000D01*
X116635000Y-84745000D01*
X116633000Y-84745000D01*
X116630000Y-84745000D01*
X115990000Y-84745000D01*
X115987000Y-84745000D01*
X115985000Y-84745000D01*
X115982000Y-84744000D01*
X115980000Y-84744000D01*
X115977000Y-84743000D01*
X115975000Y-84743000D01*
X115972000Y-84742000D01*
X115970000Y-84741000D01*
X115967000Y-84740000D01*
X115965000Y-84738000D01*
X115963000Y-84737000D01*
X115961000Y-84735000D01*
X115959000Y-84734000D01*
X115957000Y-84732000D01*
X115955000Y-84730000D01*
X115953000Y-84728000D01*
X115951000Y-84726000D01*
X115950000Y-84724000D01*
X115948000Y-84722000D01*
X115947000Y-84720000D01*
X115945000Y-84718000D01*
X115944000Y-84715000D01*
X115943000Y-84713000D01*
X115942000Y-84710000D01*
X115942000Y-84708000D01*
X115941000Y-84705000D01*
X115941000Y-84703000D01*
X115940000Y-84700000D01*
X115940000Y-84698000D01*
X115940000Y-84695000D01*
X115940000Y-83105000D01*
X115940000Y-83102000D01*
X115940000Y-83100000D01*
X115941000Y-83097000D01*
X115941000Y-83095000D01*
X115942000Y-83092000D01*
X115942000Y-83090000D01*
X115943000Y-83087000D01*
X115944000Y-83085000D01*
X115945000Y-83082000D01*
X115947000Y-83080000D01*
X115948000Y-83078000D01*
X115950000Y-83076000D01*
X115951000Y-83074000D01*
X115953000Y-83072000D01*
X115955000Y-83070000D01*
X115957000Y-83068000D01*
X115959000Y-83066000D01*
X115961000Y-83065000D01*
X115963000Y-83063000D01*
X115965000Y-83062000D01*
X115967000Y-83060000D01*
X115970000Y-83059000D01*
X115972000Y-83058000D01*
X115975000Y-83057000D01*
X115977000Y-83057000D01*
X115980000Y-83056000D01*
X115982000Y-83056000D01*
X115985000Y-83055000D01*
X115987000Y-83055000D01*
X115990000Y-83055000D01*
X116630000Y-83055000D01*
X116633000Y-83055000D01*
X116635000Y-83055000D01*
X116638000Y-83056000D01*
G36*
X116638000Y-83056000D02*
G01*
X116640000Y-83056000D01*
X116643000Y-83057000D01*
X116645000Y-83057000D01*
X116648000Y-83058000D01*
X116650000Y-83059000D01*
X116653000Y-83060000D01*
X116655000Y-83062000D01*
X116657000Y-83063000D01*
X116659000Y-83065000D01*
X116661000Y-83066000D01*
X116663000Y-83068000D01*
X116665000Y-83070000D01*
X116667000Y-83072000D01*
X116669000Y-83074000D01*
X116670000Y-83076000D01*
X116672000Y-83078000D01*
X116673000Y-83080000D01*
X116675000Y-83082000D01*
X116676000Y-83085000D01*
X116677000Y-83087000D01*
X116678000Y-83090000D01*
X116678000Y-83092000D01*
X116679000Y-83095000D01*
X116679000Y-83097000D01*
X116680000Y-83100000D01*
X116680000Y-83102000D01*
X116680000Y-83105000D01*
X116680000Y-84695000D01*
X116680000Y-84698000D01*
X116680000Y-84700000D01*
X116679000Y-84703000D01*
X116679000Y-84705000D01*
X116678000Y-84708000D01*
X116678000Y-84710000D01*
X116677000Y-84713000D01*
X116676000Y-84715000D01*
X116675000Y-84718000D01*
X116673000Y-84720000D01*
X116672000Y-84722000D01*
X116670000Y-84724000D01*
X116669000Y-84726000D01*
X116667000Y-84728000D01*
X116665000Y-84730000D01*
X116663000Y-84732000D01*
X116661000Y-84734000D01*
X116659000Y-84735000D01*
X116657000Y-84737000D01*
X116655000Y-84738000D01*
X116653000Y-84740000D01*
X116650000Y-84741000D01*
X116648000Y-84742000D01*
X116645000Y-84743000D01*
X116643000Y-84743000D01*
X116640000Y-84744000D01*
X116638000Y-84744000D01*
X116635000Y-84745000D01*
X116633000Y-84745000D01*
X116630000Y-84745000D01*
X115990000Y-84745000D01*
X115987000Y-84745000D01*
X115985000Y-84745000D01*
X115982000Y-84744000D01*
X115980000Y-84744000D01*
X115977000Y-84743000D01*
X115975000Y-84743000D01*
X115972000Y-84742000D01*
X115970000Y-84741000D01*
X115967000Y-84740000D01*
X115965000Y-84738000D01*
X115963000Y-84737000D01*
X115961000Y-84735000D01*
X115959000Y-84734000D01*
X115957000Y-84732000D01*
X115955000Y-84730000D01*
X115953000Y-84728000D01*
X115951000Y-84726000D01*
X115950000Y-84724000D01*
X115948000Y-84722000D01*
X115947000Y-84720000D01*
X115945000Y-84718000D01*
X115944000Y-84715000D01*
X115943000Y-84713000D01*
X115942000Y-84710000D01*
X115942000Y-84708000D01*
X115941000Y-84705000D01*
X115941000Y-84703000D01*
X115940000Y-84700000D01*
X115940000Y-84698000D01*
X115940000Y-84695000D01*
X115940000Y-83105000D01*
X115940000Y-83102000D01*
X115940000Y-83100000D01*
X115941000Y-83097000D01*
X115941000Y-83095000D01*
X115942000Y-83092000D01*
X115942000Y-83090000D01*
X115943000Y-83087000D01*
X115944000Y-83085000D01*
X115945000Y-83082000D01*
X115947000Y-83080000D01*
X115948000Y-83078000D01*
X115950000Y-83076000D01*
X115951000Y-83074000D01*
X115953000Y-83072000D01*
X115955000Y-83070000D01*
X115957000Y-83068000D01*
X115959000Y-83066000D01*
X115961000Y-83065000D01*
X115963000Y-83063000D01*
X115965000Y-83062000D01*
X115967000Y-83060000D01*
X115970000Y-83059000D01*
X115972000Y-83058000D01*
X115975000Y-83057000D01*
X115977000Y-83057000D01*
X115980000Y-83056000D01*
X115982000Y-83056000D01*
X115985000Y-83055000D01*
X115987000Y-83055000D01*
X115990000Y-83055000D01*
X116630000Y-83055000D01*
X116633000Y-83055000D01*
X116635000Y-83055000D01*
X116638000Y-83056000D01*
G37*
X117908000Y-77656000D02*
X117910000Y-77656000D01*
X117913000Y-77657000D01*
X117915000Y-77657000D01*
X117918000Y-77658000D01*
X117920000Y-77659000D01*
X117923000Y-77660000D01*
X117925000Y-77662000D01*
X117927000Y-77663000D01*
X117929000Y-77665000D01*
X117931000Y-77666000D01*
X117933000Y-77668000D01*
X117935000Y-77670000D01*
X117937000Y-77672000D01*
X117939000Y-77674000D01*
X117940000Y-77676000D01*
X117942000Y-77678000D01*
X117943000Y-77680000D01*
X117945000Y-77682000D01*
X117946000Y-77685000D01*
X117947000Y-77687000D01*
X117948000Y-77690000D01*
X117948000Y-77692000D01*
X117949000Y-77695000D01*
X117949000Y-77697000D01*
X117950000Y-77700000D01*
X117950000Y-77702000D01*
X117950000Y-77705000D01*
X117950000Y-79295000D01*
X117950000Y-79298000D01*
X117950000Y-79300000D01*
X117949000Y-79303000D01*
X117949000Y-79305000D01*
X117948000Y-79308000D01*
X117948000Y-79310000D01*
X117947000Y-79313000D01*
X117946000Y-79315000D01*
X117945000Y-79318000D01*
X117943000Y-79320000D01*
X117942000Y-79322000D01*
X117940000Y-79324000D01*
X117939000Y-79326000D01*
X117937000Y-79328000D01*
X117935000Y-79330000D01*
X117933000Y-79332000D01*
X117931000Y-79334000D01*
X117929000Y-79335000D01*
X117927000Y-79337000D01*
X117925000Y-79338000D01*
X117923000Y-79340000D01*
X117920000Y-79341000D01*
X117918000Y-79342000D01*
X117915000Y-79343000D01*
X117913000Y-79343000D01*
X117910000Y-79344000D01*
X117908000Y-79344000D01*
X117905000Y-79345000D01*
X117903000Y-79345000D01*
X117900000Y-79345000D01*
X117260000Y-79345000D01*
X117257000Y-79345000D01*
X117255000Y-79345000D01*
X117252000Y-79344000D01*
X117250000Y-79344000D01*
X117247000Y-79343000D01*
X117245000Y-79343000D01*
X117242000Y-79342000D01*
X117240000Y-79341000D01*
X117237000Y-79340000D01*
X117235000Y-79338000D01*
X117233000Y-79337000D01*
X117231000Y-79335000D01*
X117229000Y-79334000D01*
X117227000Y-79332000D01*
X117225000Y-79330000D01*
X117223000Y-79328000D01*
X117221000Y-79326000D01*
X117220000Y-79324000D01*
X117218000Y-79322000D01*
X117217000Y-79320000D01*
X117215000Y-79318000D01*
X117214000Y-79315000D01*
X117213000Y-79313000D01*
X117212000Y-79310000D01*
X117212000Y-79308000D01*
X117211000Y-79305000D01*
X117211000Y-79303000D01*
X117210000Y-79300000D01*
X117210000Y-79298000D01*
X117210000Y-79295000D01*
X117210000Y-77705000D01*
X117210000Y-77702000D01*
X117210000Y-77700000D01*
X117211000Y-77697000D01*
X117211000Y-77695000D01*
X117212000Y-77692000D01*
X117212000Y-77690000D01*
X117213000Y-77687000D01*
X117214000Y-77685000D01*
X117215000Y-77682000D01*
X117217000Y-77680000D01*
X117218000Y-77678000D01*
X117220000Y-77676000D01*
X117221000Y-77674000D01*
X117223000Y-77672000D01*
X117225000Y-77670000D01*
X117227000Y-77668000D01*
X117229000Y-77666000D01*
X117231000Y-77665000D01*
X117233000Y-77663000D01*
X117235000Y-77662000D01*
X117237000Y-77660000D01*
X117240000Y-77659000D01*
X117242000Y-77658000D01*
X117245000Y-77657000D01*
X117247000Y-77657000D01*
X117250000Y-77656000D01*
X117252000Y-77656000D01*
X117255000Y-77655000D01*
X117257000Y-77655000D01*
X117260000Y-77655000D01*
X117900000Y-77655000D01*
X117903000Y-77655000D01*
X117905000Y-77655000D01*
X117908000Y-77656000D01*
G36*
X117908000Y-77656000D02*
G01*
X117910000Y-77656000D01*
X117913000Y-77657000D01*
X117915000Y-77657000D01*
X117918000Y-77658000D01*
X117920000Y-77659000D01*
X117923000Y-77660000D01*
X117925000Y-77662000D01*
X117927000Y-77663000D01*
X117929000Y-77665000D01*
X117931000Y-77666000D01*
X117933000Y-77668000D01*
X117935000Y-77670000D01*
X117937000Y-77672000D01*
X117939000Y-77674000D01*
X117940000Y-77676000D01*
X117942000Y-77678000D01*
X117943000Y-77680000D01*
X117945000Y-77682000D01*
X117946000Y-77685000D01*
X117947000Y-77687000D01*
X117948000Y-77690000D01*
X117948000Y-77692000D01*
X117949000Y-77695000D01*
X117949000Y-77697000D01*
X117950000Y-77700000D01*
X117950000Y-77702000D01*
X117950000Y-77705000D01*
X117950000Y-79295000D01*
X117950000Y-79298000D01*
X117950000Y-79300000D01*
X117949000Y-79303000D01*
X117949000Y-79305000D01*
X117948000Y-79308000D01*
X117948000Y-79310000D01*
X117947000Y-79313000D01*
X117946000Y-79315000D01*
X117945000Y-79318000D01*
X117943000Y-79320000D01*
X117942000Y-79322000D01*
X117940000Y-79324000D01*
X117939000Y-79326000D01*
X117937000Y-79328000D01*
X117935000Y-79330000D01*
X117933000Y-79332000D01*
X117931000Y-79334000D01*
X117929000Y-79335000D01*
X117927000Y-79337000D01*
X117925000Y-79338000D01*
X117923000Y-79340000D01*
X117920000Y-79341000D01*
X117918000Y-79342000D01*
X117915000Y-79343000D01*
X117913000Y-79343000D01*
X117910000Y-79344000D01*
X117908000Y-79344000D01*
X117905000Y-79345000D01*
X117903000Y-79345000D01*
X117900000Y-79345000D01*
X117260000Y-79345000D01*
X117257000Y-79345000D01*
X117255000Y-79345000D01*
X117252000Y-79344000D01*
X117250000Y-79344000D01*
X117247000Y-79343000D01*
X117245000Y-79343000D01*
X117242000Y-79342000D01*
X117240000Y-79341000D01*
X117237000Y-79340000D01*
X117235000Y-79338000D01*
X117233000Y-79337000D01*
X117231000Y-79335000D01*
X117229000Y-79334000D01*
X117227000Y-79332000D01*
X117225000Y-79330000D01*
X117223000Y-79328000D01*
X117221000Y-79326000D01*
X117220000Y-79324000D01*
X117218000Y-79322000D01*
X117217000Y-79320000D01*
X117215000Y-79318000D01*
X117214000Y-79315000D01*
X117213000Y-79313000D01*
X117212000Y-79310000D01*
X117212000Y-79308000D01*
X117211000Y-79305000D01*
X117211000Y-79303000D01*
X117210000Y-79300000D01*
X117210000Y-79298000D01*
X117210000Y-79295000D01*
X117210000Y-77705000D01*
X117210000Y-77702000D01*
X117210000Y-77700000D01*
X117211000Y-77697000D01*
X117211000Y-77695000D01*
X117212000Y-77692000D01*
X117212000Y-77690000D01*
X117213000Y-77687000D01*
X117214000Y-77685000D01*
X117215000Y-77682000D01*
X117217000Y-77680000D01*
X117218000Y-77678000D01*
X117220000Y-77676000D01*
X117221000Y-77674000D01*
X117223000Y-77672000D01*
X117225000Y-77670000D01*
X117227000Y-77668000D01*
X117229000Y-77666000D01*
X117231000Y-77665000D01*
X117233000Y-77663000D01*
X117235000Y-77662000D01*
X117237000Y-77660000D01*
X117240000Y-77659000D01*
X117242000Y-77658000D01*
X117245000Y-77657000D01*
X117247000Y-77657000D01*
X117250000Y-77656000D01*
X117252000Y-77656000D01*
X117255000Y-77655000D01*
X117257000Y-77655000D01*
X117260000Y-77655000D01*
X117900000Y-77655000D01*
X117903000Y-77655000D01*
X117905000Y-77655000D01*
X117908000Y-77656000D01*
G37*
X117908000Y-83056000D02*
X117910000Y-83056000D01*
X117913000Y-83057000D01*
X117915000Y-83057000D01*
X117918000Y-83058000D01*
X117920000Y-83059000D01*
X117923000Y-83060000D01*
X117925000Y-83062000D01*
X117927000Y-83063000D01*
X117929000Y-83065000D01*
X117931000Y-83066000D01*
X117933000Y-83068000D01*
X117935000Y-83070000D01*
X117937000Y-83072000D01*
X117939000Y-83074000D01*
X117940000Y-83076000D01*
X117942000Y-83078000D01*
X117943000Y-83080000D01*
X117945000Y-83082000D01*
X117946000Y-83085000D01*
X117947000Y-83087000D01*
X117948000Y-83090000D01*
X117948000Y-83092000D01*
X117949000Y-83095000D01*
X117949000Y-83097000D01*
X117950000Y-83100000D01*
X117950000Y-83102000D01*
X117950000Y-83105000D01*
X117950000Y-84695000D01*
X117950000Y-84698000D01*
X117950000Y-84700000D01*
X117949000Y-84703000D01*
X117949000Y-84705000D01*
X117948000Y-84708000D01*
X117948000Y-84710000D01*
X117947000Y-84713000D01*
X117946000Y-84715000D01*
X117945000Y-84718000D01*
X117943000Y-84720000D01*
X117942000Y-84722000D01*
X117940000Y-84724000D01*
X117939000Y-84726000D01*
X117937000Y-84728000D01*
X117935000Y-84730000D01*
X117933000Y-84732000D01*
X117931000Y-84734000D01*
X117929000Y-84735000D01*
X117927000Y-84737000D01*
X117925000Y-84738000D01*
X117923000Y-84740000D01*
X117920000Y-84741000D01*
X117918000Y-84742000D01*
X117915000Y-84743000D01*
X117913000Y-84743000D01*
X117910000Y-84744000D01*
X117908000Y-84744000D01*
X117905000Y-84745000D01*
X117903000Y-84745000D01*
X117900000Y-84745000D01*
X117260000Y-84745000D01*
X117257000Y-84745000D01*
X117255000Y-84745000D01*
X117252000Y-84744000D01*
X117250000Y-84744000D01*
X117247000Y-84743000D01*
X117245000Y-84743000D01*
X117242000Y-84742000D01*
X117240000Y-84741000D01*
X117237000Y-84740000D01*
X117235000Y-84738000D01*
X117233000Y-84737000D01*
X117231000Y-84735000D01*
X117229000Y-84734000D01*
X117227000Y-84732000D01*
X117225000Y-84730000D01*
X117223000Y-84728000D01*
X117221000Y-84726000D01*
X117220000Y-84724000D01*
X117218000Y-84722000D01*
X117217000Y-84720000D01*
X117215000Y-84718000D01*
X117214000Y-84715000D01*
X117213000Y-84713000D01*
X117212000Y-84710000D01*
X117212000Y-84708000D01*
X117211000Y-84705000D01*
X117211000Y-84703000D01*
X117210000Y-84700000D01*
X117210000Y-84698000D01*
X117210000Y-84695000D01*
X117210000Y-83105000D01*
X117210000Y-83102000D01*
X117210000Y-83100000D01*
X117211000Y-83097000D01*
X117211000Y-83095000D01*
X117212000Y-83092000D01*
X117212000Y-83090000D01*
X117213000Y-83087000D01*
X117214000Y-83085000D01*
X117215000Y-83082000D01*
X117217000Y-83080000D01*
X117218000Y-83078000D01*
X117220000Y-83076000D01*
X117221000Y-83074000D01*
X117223000Y-83072000D01*
X117225000Y-83070000D01*
X117227000Y-83068000D01*
X117229000Y-83066000D01*
X117231000Y-83065000D01*
X117233000Y-83063000D01*
X117235000Y-83062000D01*
X117237000Y-83060000D01*
X117240000Y-83059000D01*
X117242000Y-83058000D01*
X117245000Y-83057000D01*
X117247000Y-83057000D01*
X117250000Y-83056000D01*
X117252000Y-83056000D01*
X117255000Y-83055000D01*
X117257000Y-83055000D01*
X117260000Y-83055000D01*
X117900000Y-83055000D01*
X117903000Y-83055000D01*
X117905000Y-83055000D01*
X117908000Y-83056000D01*
G36*
X117908000Y-83056000D02*
G01*
X117910000Y-83056000D01*
X117913000Y-83057000D01*
X117915000Y-83057000D01*
X117918000Y-83058000D01*
X117920000Y-83059000D01*
X117923000Y-83060000D01*
X117925000Y-83062000D01*
X117927000Y-83063000D01*
X117929000Y-83065000D01*
X117931000Y-83066000D01*
X117933000Y-83068000D01*
X117935000Y-83070000D01*
X117937000Y-83072000D01*
X117939000Y-83074000D01*
X117940000Y-83076000D01*
X117942000Y-83078000D01*
X117943000Y-83080000D01*
X117945000Y-83082000D01*
X117946000Y-83085000D01*
X117947000Y-83087000D01*
X117948000Y-83090000D01*
X117948000Y-83092000D01*
X117949000Y-83095000D01*
X117949000Y-83097000D01*
X117950000Y-83100000D01*
X117950000Y-83102000D01*
X117950000Y-83105000D01*
X117950000Y-84695000D01*
X117950000Y-84698000D01*
X117950000Y-84700000D01*
X117949000Y-84703000D01*
X117949000Y-84705000D01*
X117948000Y-84708000D01*
X117948000Y-84710000D01*
X117947000Y-84713000D01*
X117946000Y-84715000D01*
X117945000Y-84718000D01*
X117943000Y-84720000D01*
X117942000Y-84722000D01*
X117940000Y-84724000D01*
X117939000Y-84726000D01*
X117937000Y-84728000D01*
X117935000Y-84730000D01*
X117933000Y-84732000D01*
X117931000Y-84734000D01*
X117929000Y-84735000D01*
X117927000Y-84737000D01*
X117925000Y-84738000D01*
X117923000Y-84740000D01*
X117920000Y-84741000D01*
X117918000Y-84742000D01*
X117915000Y-84743000D01*
X117913000Y-84743000D01*
X117910000Y-84744000D01*
X117908000Y-84744000D01*
X117905000Y-84745000D01*
X117903000Y-84745000D01*
X117900000Y-84745000D01*
X117260000Y-84745000D01*
X117257000Y-84745000D01*
X117255000Y-84745000D01*
X117252000Y-84744000D01*
X117250000Y-84744000D01*
X117247000Y-84743000D01*
X117245000Y-84743000D01*
X117242000Y-84742000D01*
X117240000Y-84741000D01*
X117237000Y-84740000D01*
X117235000Y-84738000D01*
X117233000Y-84737000D01*
X117231000Y-84735000D01*
X117229000Y-84734000D01*
X117227000Y-84732000D01*
X117225000Y-84730000D01*
X117223000Y-84728000D01*
X117221000Y-84726000D01*
X117220000Y-84724000D01*
X117218000Y-84722000D01*
X117217000Y-84720000D01*
X117215000Y-84718000D01*
X117214000Y-84715000D01*
X117213000Y-84713000D01*
X117212000Y-84710000D01*
X117212000Y-84708000D01*
X117211000Y-84705000D01*
X117211000Y-84703000D01*
X117210000Y-84700000D01*
X117210000Y-84698000D01*
X117210000Y-84695000D01*
X117210000Y-83105000D01*
X117210000Y-83102000D01*
X117210000Y-83100000D01*
X117211000Y-83097000D01*
X117211000Y-83095000D01*
X117212000Y-83092000D01*
X117212000Y-83090000D01*
X117213000Y-83087000D01*
X117214000Y-83085000D01*
X117215000Y-83082000D01*
X117217000Y-83080000D01*
X117218000Y-83078000D01*
X117220000Y-83076000D01*
X117221000Y-83074000D01*
X117223000Y-83072000D01*
X117225000Y-83070000D01*
X117227000Y-83068000D01*
X117229000Y-83066000D01*
X117231000Y-83065000D01*
X117233000Y-83063000D01*
X117235000Y-83062000D01*
X117237000Y-83060000D01*
X117240000Y-83059000D01*
X117242000Y-83058000D01*
X117245000Y-83057000D01*
X117247000Y-83057000D01*
X117250000Y-83056000D01*
X117252000Y-83056000D01*
X117255000Y-83055000D01*
X117257000Y-83055000D01*
X117260000Y-83055000D01*
X117900000Y-83055000D01*
X117903000Y-83055000D01*
X117905000Y-83055000D01*
X117908000Y-83056000D01*
G37*
X119178000Y-77656000D02*
X119180000Y-77656000D01*
X119183000Y-77657000D01*
X119185000Y-77657000D01*
X119188000Y-77658000D01*
X119190000Y-77659000D01*
X119193000Y-77660000D01*
X119195000Y-77662000D01*
X119197000Y-77663000D01*
X119199000Y-77665000D01*
X119201000Y-77666000D01*
X119203000Y-77668000D01*
X119205000Y-77670000D01*
X119207000Y-77672000D01*
X119209000Y-77674000D01*
X119210000Y-77676000D01*
X119212000Y-77678000D01*
X119213000Y-77680000D01*
X119215000Y-77682000D01*
X119216000Y-77685000D01*
X119217000Y-77687000D01*
X119218000Y-77690000D01*
X119218000Y-77692000D01*
X119219000Y-77695000D01*
X119219000Y-77697000D01*
X119220000Y-77700000D01*
X119220000Y-77702000D01*
X119220000Y-77705000D01*
X119220000Y-79295000D01*
X119220000Y-79298000D01*
X119220000Y-79300000D01*
X119219000Y-79303000D01*
X119219000Y-79305000D01*
X119218000Y-79308000D01*
X119218000Y-79310000D01*
X119217000Y-79313000D01*
X119216000Y-79315000D01*
X119215000Y-79318000D01*
X119213000Y-79320000D01*
X119212000Y-79322000D01*
X119210000Y-79324000D01*
X119209000Y-79326000D01*
X119207000Y-79328000D01*
X119205000Y-79330000D01*
X119203000Y-79332000D01*
X119201000Y-79334000D01*
X119199000Y-79335000D01*
X119197000Y-79337000D01*
X119195000Y-79338000D01*
X119193000Y-79340000D01*
X119190000Y-79341000D01*
X119188000Y-79342000D01*
X119185000Y-79343000D01*
X119183000Y-79343000D01*
X119180000Y-79344000D01*
X119178000Y-79344000D01*
X119175000Y-79345000D01*
X119173000Y-79345000D01*
X119170000Y-79345000D01*
X118530000Y-79345000D01*
X118527000Y-79345000D01*
X118525000Y-79345000D01*
X118522000Y-79344000D01*
X118520000Y-79344000D01*
X118517000Y-79343000D01*
X118515000Y-79343000D01*
X118512000Y-79342000D01*
X118510000Y-79341000D01*
X118507000Y-79340000D01*
X118505000Y-79338000D01*
X118503000Y-79337000D01*
X118501000Y-79335000D01*
X118499000Y-79334000D01*
X118497000Y-79332000D01*
X118495000Y-79330000D01*
X118493000Y-79328000D01*
X118491000Y-79326000D01*
X118490000Y-79324000D01*
X118488000Y-79322000D01*
X118487000Y-79320000D01*
X118485000Y-79318000D01*
X118484000Y-79315000D01*
X118483000Y-79313000D01*
X118482000Y-79310000D01*
X118482000Y-79308000D01*
X118481000Y-79305000D01*
X118481000Y-79303000D01*
X118480000Y-79300000D01*
X118480000Y-79298000D01*
X118480000Y-79295000D01*
X118480000Y-77705000D01*
X118480000Y-77702000D01*
X118480000Y-77700000D01*
X118481000Y-77697000D01*
X118481000Y-77695000D01*
X118482000Y-77692000D01*
X118482000Y-77690000D01*
X118483000Y-77687000D01*
X118484000Y-77685000D01*
X118485000Y-77682000D01*
X118487000Y-77680000D01*
X118488000Y-77678000D01*
X118490000Y-77676000D01*
X118491000Y-77674000D01*
X118493000Y-77672000D01*
X118495000Y-77670000D01*
X118497000Y-77668000D01*
X118499000Y-77666000D01*
X118501000Y-77665000D01*
X118503000Y-77663000D01*
X118505000Y-77662000D01*
X118507000Y-77660000D01*
X118510000Y-77659000D01*
X118512000Y-77658000D01*
X118515000Y-77657000D01*
X118517000Y-77657000D01*
X118520000Y-77656000D01*
X118522000Y-77656000D01*
X118525000Y-77655000D01*
X118527000Y-77655000D01*
X118530000Y-77655000D01*
X119170000Y-77655000D01*
X119173000Y-77655000D01*
X119175000Y-77655000D01*
X119178000Y-77656000D01*
G36*
X119178000Y-77656000D02*
G01*
X119180000Y-77656000D01*
X119183000Y-77657000D01*
X119185000Y-77657000D01*
X119188000Y-77658000D01*
X119190000Y-77659000D01*
X119193000Y-77660000D01*
X119195000Y-77662000D01*
X119197000Y-77663000D01*
X119199000Y-77665000D01*
X119201000Y-77666000D01*
X119203000Y-77668000D01*
X119205000Y-77670000D01*
X119207000Y-77672000D01*
X119209000Y-77674000D01*
X119210000Y-77676000D01*
X119212000Y-77678000D01*
X119213000Y-77680000D01*
X119215000Y-77682000D01*
X119216000Y-77685000D01*
X119217000Y-77687000D01*
X119218000Y-77690000D01*
X119218000Y-77692000D01*
X119219000Y-77695000D01*
X119219000Y-77697000D01*
X119220000Y-77700000D01*
X119220000Y-77702000D01*
X119220000Y-77705000D01*
X119220000Y-79295000D01*
X119220000Y-79298000D01*
X119220000Y-79300000D01*
X119219000Y-79303000D01*
X119219000Y-79305000D01*
X119218000Y-79308000D01*
X119218000Y-79310000D01*
X119217000Y-79313000D01*
X119216000Y-79315000D01*
X119215000Y-79318000D01*
X119213000Y-79320000D01*
X119212000Y-79322000D01*
X119210000Y-79324000D01*
X119209000Y-79326000D01*
X119207000Y-79328000D01*
X119205000Y-79330000D01*
X119203000Y-79332000D01*
X119201000Y-79334000D01*
X119199000Y-79335000D01*
X119197000Y-79337000D01*
X119195000Y-79338000D01*
X119193000Y-79340000D01*
X119190000Y-79341000D01*
X119188000Y-79342000D01*
X119185000Y-79343000D01*
X119183000Y-79343000D01*
X119180000Y-79344000D01*
X119178000Y-79344000D01*
X119175000Y-79345000D01*
X119173000Y-79345000D01*
X119170000Y-79345000D01*
X118530000Y-79345000D01*
X118527000Y-79345000D01*
X118525000Y-79345000D01*
X118522000Y-79344000D01*
X118520000Y-79344000D01*
X118517000Y-79343000D01*
X118515000Y-79343000D01*
X118512000Y-79342000D01*
X118510000Y-79341000D01*
X118507000Y-79340000D01*
X118505000Y-79338000D01*
X118503000Y-79337000D01*
X118501000Y-79335000D01*
X118499000Y-79334000D01*
X118497000Y-79332000D01*
X118495000Y-79330000D01*
X118493000Y-79328000D01*
X118491000Y-79326000D01*
X118490000Y-79324000D01*
X118488000Y-79322000D01*
X118487000Y-79320000D01*
X118485000Y-79318000D01*
X118484000Y-79315000D01*
X118483000Y-79313000D01*
X118482000Y-79310000D01*
X118482000Y-79308000D01*
X118481000Y-79305000D01*
X118481000Y-79303000D01*
X118480000Y-79300000D01*
X118480000Y-79298000D01*
X118480000Y-79295000D01*
X118480000Y-77705000D01*
X118480000Y-77702000D01*
X118480000Y-77700000D01*
X118481000Y-77697000D01*
X118481000Y-77695000D01*
X118482000Y-77692000D01*
X118482000Y-77690000D01*
X118483000Y-77687000D01*
X118484000Y-77685000D01*
X118485000Y-77682000D01*
X118487000Y-77680000D01*
X118488000Y-77678000D01*
X118490000Y-77676000D01*
X118491000Y-77674000D01*
X118493000Y-77672000D01*
X118495000Y-77670000D01*
X118497000Y-77668000D01*
X118499000Y-77666000D01*
X118501000Y-77665000D01*
X118503000Y-77663000D01*
X118505000Y-77662000D01*
X118507000Y-77660000D01*
X118510000Y-77659000D01*
X118512000Y-77658000D01*
X118515000Y-77657000D01*
X118517000Y-77657000D01*
X118520000Y-77656000D01*
X118522000Y-77656000D01*
X118525000Y-77655000D01*
X118527000Y-77655000D01*
X118530000Y-77655000D01*
X119170000Y-77655000D01*
X119173000Y-77655000D01*
X119175000Y-77655000D01*
X119178000Y-77656000D01*
G37*
X119178000Y-83056000D02*
X119180000Y-83056000D01*
X119183000Y-83057000D01*
X119185000Y-83057000D01*
X119188000Y-83058000D01*
X119190000Y-83059000D01*
X119193000Y-83060000D01*
X119195000Y-83062000D01*
X119197000Y-83063000D01*
X119199000Y-83065000D01*
X119201000Y-83066000D01*
X119203000Y-83068000D01*
X119205000Y-83070000D01*
X119207000Y-83072000D01*
X119209000Y-83074000D01*
X119210000Y-83076000D01*
X119212000Y-83078000D01*
X119213000Y-83080000D01*
X119215000Y-83082000D01*
X119216000Y-83085000D01*
X119217000Y-83087000D01*
X119218000Y-83090000D01*
X119218000Y-83092000D01*
X119219000Y-83095000D01*
X119219000Y-83097000D01*
X119220000Y-83100000D01*
X119220000Y-83102000D01*
X119220000Y-83105000D01*
X119220000Y-84695000D01*
X119220000Y-84698000D01*
X119220000Y-84700000D01*
X119219000Y-84703000D01*
X119219000Y-84705000D01*
X119218000Y-84708000D01*
X119218000Y-84710000D01*
X119217000Y-84713000D01*
X119216000Y-84715000D01*
X119215000Y-84718000D01*
X119213000Y-84720000D01*
X119212000Y-84722000D01*
X119210000Y-84724000D01*
X119209000Y-84726000D01*
X119207000Y-84728000D01*
X119205000Y-84730000D01*
X119203000Y-84732000D01*
X119201000Y-84734000D01*
X119199000Y-84735000D01*
X119197000Y-84737000D01*
X119195000Y-84738000D01*
X119193000Y-84740000D01*
X119190000Y-84741000D01*
X119188000Y-84742000D01*
X119185000Y-84743000D01*
X119183000Y-84743000D01*
X119180000Y-84744000D01*
X119178000Y-84744000D01*
X119175000Y-84745000D01*
X119173000Y-84745000D01*
X119170000Y-84745000D01*
X118530000Y-84745000D01*
X118527000Y-84745000D01*
X118525000Y-84745000D01*
X118522000Y-84744000D01*
X118520000Y-84744000D01*
X118517000Y-84743000D01*
X118515000Y-84743000D01*
X118512000Y-84742000D01*
X118510000Y-84741000D01*
X118507000Y-84740000D01*
X118505000Y-84738000D01*
X118503000Y-84737000D01*
X118501000Y-84735000D01*
X118499000Y-84734000D01*
X118497000Y-84732000D01*
X118495000Y-84730000D01*
X118493000Y-84728000D01*
X118491000Y-84726000D01*
X118490000Y-84724000D01*
X118488000Y-84722000D01*
X118487000Y-84720000D01*
X118485000Y-84718000D01*
X118484000Y-84715000D01*
X118483000Y-84713000D01*
X118482000Y-84710000D01*
X118482000Y-84708000D01*
X118481000Y-84705000D01*
X118481000Y-84703000D01*
X118480000Y-84700000D01*
X118480000Y-84698000D01*
X118480000Y-84695000D01*
X118480000Y-83105000D01*
X118480000Y-83102000D01*
X118480000Y-83100000D01*
X118481000Y-83097000D01*
X118481000Y-83095000D01*
X118482000Y-83092000D01*
X118482000Y-83090000D01*
X118483000Y-83087000D01*
X118484000Y-83085000D01*
X118485000Y-83082000D01*
X118487000Y-83080000D01*
X118488000Y-83078000D01*
X118490000Y-83076000D01*
X118491000Y-83074000D01*
X118493000Y-83072000D01*
X118495000Y-83070000D01*
X118497000Y-83068000D01*
X118499000Y-83066000D01*
X118501000Y-83065000D01*
X118503000Y-83063000D01*
X118505000Y-83062000D01*
X118507000Y-83060000D01*
X118510000Y-83059000D01*
X118512000Y-83058000D01*
X118515000Y-83057000D01*
X118517000Y-83057000D01*
X118520000Y-83056000D01*
X118522000Y-83056000D01*
X118525000Y-83055000D01*
X118527000Y-83055000D01*
X118530000Y-83055000D01*
X119170000Y-83055000D01*
X119173000Y-83055000D01*
X119175000Y-83055000D01*
X119178000Y-83056000D01*
G36*
X119178000Y-83056000D02*
G01*
X119180000Y-83056000D01*
X119183000Y-83057000D01*
X119185000Y-83057000D01*
X119188000Y-83058000D01*
X119190000Y-83059000D01*
X119193000Y-83060000D01*
X119195000Y-83062000D01*
X119197000Y-83063000D01*
X119199000Y-83065000D01*
X119201000Y-83066000D01*
X119203000Y-83068000D01*
X119205000Y-83070000D01*
X119207000Y-83072000D01*
X119209000Y-83074000D01*
X119210000Y-83076000D01*
X119212000Y-83078000D01*
X119213000Y-83080000D01*
X119215000Y-83082000D01*
X119216000Y-83085000D01*
X119217000Y-83087000D01*
X119218000Y-83090000D01*
X119218000Y-83092000D01*
X119219000Y-83095000D01*
X119219000Y-83097000D01*
X119220000Y-83100000D01*
X119220000Y-83102000D01*
X119220000Y-83105000D01*
X119220000Y-84695000D01*
X119220000Y-84698000D01*
X119220000Y-84700000D01*
X119219000Y-84703000D01*
X119219000Y-84705000D01*
X119218000Y-84708000D01*
X119218000Y-84710000D01*
X119217000Y-84713000D01*
X119216000Y-84715000D01*
X119215000Y-84718000D01*
X119213000Y-84720000D01*
X119212000Y-84722000D01*
X119210000Y-84724000D01*
X119209000Y-84726000D01*
X119207000Y-84728000D01*
X119205000Y-84730000D01*
X119203000Y-84732000D01*
X119201000Y-84734000D01*
X119199000Y-84735000D01*
X119197000Y-84737000D01*
X119195000Y-84738000D01*
X119193000Y-84740000D01*
X119190000Y-84741000D01*
X119188000Y-84742000D01*
X119185000Y-84743000D01*
X119183000Y-84743000D01*
X119180000Y-84744000D01*
X119178000Y-84744000D01*
X119175000Y-84745000D01*
X119173000Y-84745000D01*
X119170000Y-84745000D01*
X118530000Y-84745000D01*
X118527000Y-84745000D01*
X118525000Y-84745000D01*
X118522000Y-84744000D01*
X118520000Y-84744000D01*
X118517000Y-84743000D01*
X118515000Y-84743000D01*
X118512000Y-84742000D01*
X118510000Y-84741000D01*
X118507000Y-84740000D01*
X118505000Y-84738000D01*
X118503000Y-84737000D01*
X118501000Y-84735000D01*
X118499000Y-84734000D01*
X118497000Y-84732000D01*
X118495000Y-84730000D01*
X118493000Y-84728000D01*
X118491000Y-84726000D01*
X118490000Y-84724000D01*
X118488000Y-84722000D01*
X118487000Y-84720000D01*
X118485000Y-84718000D01*
X118484000Y-84715000D01*
X118483000Y-84713000D01*
X118482000Y-84710000D01*
X118482000Y-84708000D01*
X118481000Y-84705000D01*
X118481000Y-84703000D01*
X118480000Y-84700000D01*
X118480000Y-84698000D01*
X118480000Y-84695000D01*
X118480000Y-83105000D01*
X118480000Y-83102000D01*
X118480000Y-83100000D01*
X118481000Y-83097000D01*
X118481000Y-83095000D01*
X118482000Y-83092000D01*
X118482000Y-83090000D01*
X118483000Y-83087000D01*
X118484000Y-83085000D01*
X118485000Y-83082000D01*
X118487000Y-83080000D01*
X118488000Y-83078000D01*
X118490000Y-83076000D01*
X118491000Y-83074000D01*
X118493000Y-83072000D01*
X118495000Y-83070000D01*
X118497000Y-83068000D01*
X118499000Y-83066000D01*
X118501000Y-83065000D01*
X118503000Y-83063000D01*
X118505000Y-83062000D01*
X118507000Y-83060000D01*
X118510000Y-83059000D01*
X118512000Y-83058000D01*
X118515000Y-83057000D01*
X118517000Y-83057000D01*
X118520000Y-83056000D01*
X118522000Y-83056000D01*
X118525000Y-83055000D01*
X118527000Y-83055000D01*
X118530000Y-83055000D01*
X119170000Y-83055000D01*
X119173000Y-83055000D01*
X119175000Y-83055000D01*
X119178000Y-83056000D01*
G37*
%TD*%
D11*
%TO.C,R7*%
X101000000Y-62325000D03*
X101000000Y-60675000D03*
%TD*%
D12*
%TO.C,J5*%
X134717500Y-70145000D03*
D13*
X134717500Y-67605000D03*
X134717500Y-65065000D03*
%TD*%
D14*
%TO.C,R2*%
X110250000Y-78500000D03*
X111900000Y-78500000D03*
%TD*%
D15*
%TO.C,J6*%
X90500000Y-67500000D03*
D13*
X87960000Y-67500000D03*
X85420000Y-67500000D03*
%TD*%
%TO.C,SW3*%
X84350000Y-74450000D03*
X84350000Y-80950000D03*
X79850000Y-74450000D03*
X79850000Y-80950000D03*
%TD*%
D16*
%TO.C,J13*%
X132500000Y-87417500D03*
D13*
X135040000Y-87417500D03*
%TD*%
D17*
%TO.C,D2*%
X87425000Y-61000000D03*
X89000000Y-61000000D03*
%TD*%
D16*
%TO.C,J9*%
X139300000Y-86600000D03*
D13*
X141840000Y-86600000D03*
X144380000Y-86600000D03*
%TD*%
D18*
%TO.C,A1*%
X125850000Y-73500000D03*
D19*
X123310000Y-73500000D03*
X120770000Y-73500000D03*
X118230000Y-73500000D03*
X115690000Y-73500000D03*
X113150000Y-73500000D03*
X110610000Y-73500000D03*
X108070000Y-73500000D03*
X105530000Y-73500000D03*
X102990000Y-73500000D03*
X100450000Y-73500000D03*
X97910000Y-73500000D03*
X95370000Y-73500000D03*
X92830000Y-73500000D03*
X90290000Y-73500000D03*
X90290000Y-88740000D03*
X92830000Y-88740000D03*
X95370000Y-88740000D03*
X97910000Y-88740000D03*
X100450000Y-88740000D03*
X102990000Y-88740000D03*
X105530000Y-88740000D03*
X108070000Y-88740000D03*
X110610000Y-88740000D03*
X113150000Y-88740000D03*
X115690000Y-88740000D03*
X118230000Y-88740000D03*
X120770000Y-88740000D03*
X123310000Y-88740000D03*
X125850000Y-88740000D03*
%TD*%
D15*
%TO.C,J3*%
X109500000Y-67500000D03*
D13*
X106960000Y-67500000D03*
X104420000Y-67500000D03*
%TD*%
D11*
%TO.C,R5*%
X129500000Y-62350000D03*
X129500000Y-60700000D03*
%TD*%
D20*
%TO.C,C3*%
X111850000Y-84000000D03*
X110300000Y-84000000D03*
%TD*%
D14*
%TO.C,R1*%
X90750000Y-78500000D03*
X92400000Y-78500000D03*
%TD*%
D16*
%TO.C,J8*%
X71720000Y-86717500D03*
D13*
X74260000Y-86717500D03*
X76800000Y-86717500D03*
%TD*%
D17*
%TO.C,D5*%
X96925000Y-61000000D03*
X98500000Y-61000000D03*
%TD*%
D21*
%TO.C,SW2*%
X75100000Y-73800000D03*
D22*
X72560000Y-73800000D03*
X72560000Y-81420000D03*
X75100000Y-81420000D03*
%TD*%
D23*
%TO.C,D8*%
X141200000Y-68587500D03*
X141200000Y-67012500D03*
%TD*%
D24*
%TO.C,J1*%
X79200000Y-65000000D03*
D13*
X79200000Y-67540000D03*
X79200000Y-70080000D03*
%TD*%
D20*
%TO.C,C4*%
X111850000Y-81500000D03*
X110300000Y-81500000D03*
%TD*%
D15*
%TO.C,J2*%
X100000000Y-67500000D03*
D13*
X97460000Y-67500000D03*
X94920000Y-67500000D03*
%TD*%
D25*
%TO.C,J10*%
X137700000Y-59900000D03*
D26*
X135160000Y-59900000D03*
X132620000Y-59900000D03*
%TD*%
D15*
%TO.C,J7*%
X128500000Y-67500000D03*
D13*
X125960000Y-67500000D03*
X123420000Y-67500000D03*
%TD*%
D17*
%TO.C,D7*%
X115925000Y-61000000D03*
X117500000Y-61000000D03*
%TD*%
D11*
%TO.C,R4*%
X91500000Y-62350000D03*
X91500000Y-60700000D03*
%TD*%
D20*
%TO.C,C1*%
X92350000Y-83900000D03*
X90800000Y-83900000D03*
%TD*%
D27*
%TO.C,J11*%
X133900000Y-80300000D03*
D28*
X133900000Y-75300000D03*
%TD*%
D11*
%TO.C,R9*%
X120000000Y-62350000D03*
X120000000Y-60700000D03*
%TD*%
D29*
%TO.C,H2*%
X143700000Y-60700000D03*
%TD*%
D30*
%TO.C,R6*%
X74000000Y-71000000D03*
X72350000Y-71000000D03*
%TD*%
D17*
%TO.C,D6*%
X106425000Y-61000000D03*
X108000000Y-61000000D03*
%TD*%
D20*
%TO.C,C2*%
X92350000Y-81390000D03*
X90800000Y-81390000D03*
%TD*%
D31*
%TO.C,D4*%
X72700000Y-66600000D03*
X72700000Y-68175000D03*
%TD*%
D32*
%TO.C,SW1*%
X142544724Y-80900000D03*
D33*
X142544724Y-76200000D03*
X142544724Y-71500000D03*
%TD*%
D16*
%TO.C,J12*%
X81060000Y-87400000D03*
D13*
X83600000Y-87400000D03*
%TD*%
D11*
%TO.C,R8*%
X110500000Y-62325000D03*
X110500000Y-60675000D03*
%TD*%
D14*
%TO.C,R10*%
X139875000Y-64187500D03*
X141525000Y-64187500D03*
%TD*%
D29*
%TO.C,H1*%
X72400000Y-60700000D03*
%TD*%
D17*
%TO.C,D3*%
X125425000Y-61000000D03*
X127000000Y-61000000D03*
%TD*%
D15*
%TO.C,J4*%
X119000000Y-67500000D03*
D13*
X116460000Y-67500000D03*
X113920000Y-67500000D03*
%TD*%
D34*
%TO.C,U3*%
X123700000Y-78500000D03*
D35*
X123700000Y-81050000D03*
X123700000Y-83600000D03*
%TD*%
M02*
