%TF.GenerationSoftware,KiCad,Pcbnew,9.0.2*%
%TF.CreationDate,2025-10-02T13:21:22-04:00*%
%TF.ProjectId,Slippi,536c6970-7069-42e6-9b69-6361645f7063,rev?*%
%TF.SameCoordinates,Original*%
%TF.FileFunction,Paste,Top*%
%TF.FilePolarity,Positive*%
%FSLAX46Y46*%
G04 Gerber Fmt 4.6, Leading zero omitted, Abs format (unit mm)*
G04 Created by KiCad (PCBNEW 9.0.2) date 2025-10-02 13:21:22*
%MOMM*%
%LPD*%
G01*
G04 APERTURE LIST*
G04 Aperture macros list*
%AMRoundRect*
0 Rectangle with rounded corners*
0 $1 Rounding radius*
0 $2 $3 $4 $5 $6 $7 $8 $9 X,Y pos of 4 corners*
0 Add a 4 corners polygon primitive as box body*
4,1,4,$2,$3,$4,$5,$6,$7,$8,$9,$2,$3,0*
0 Add four circle primitives for the rounded corners*
1,1,$1+$1,$2,$3*
1,1,$1+$1,$4,$5*
1,1,$1+$1,$6,$7*
1,1,$1+$1,$8,$9*
0 Add four rect primitives between the rounded corners*
20,1,$1+$1,$2,$3,$4,$5,0*
20,1,$1+$1,$4,$5,$6,$7,0*
20,1,$1+$1,$6,$7,$8,$9,0*
20,1,$1+$1,$8,$9,$2,$3,0*%
G04 Aperture macros list end*
%ADD10C,0.010000*%
%ADD11RoundRect,0.200000X0.275000X-0.200000X0.275000X0.200000X-0.275000X0.200000X-0.275000X-0.200000X0*%
%ADD12RoundRect,0.200000X-0.200000X-0.275000X0.200000X-0.275000X0.200000X0.275000X-0.200000X0.275000X0*%
%ADD13RoundRect,0.218750X-0.218750X-0.256250X0.218750X-0.256250X0.218750X0.256250X-0.218750X0.256250X0*%
%ADD14RoundRect,0.225000X0.225000X0.250000X-0.225000X0.250000X-0.225000X-0.250000X0.225000X-0.250000X0*%
%ADD15RoundRect,0.218750X0.256250X-0.218750X0.256250X0.218750X-0.256250X0.218750X-0.256250X-0.218750X0*%
%ADD16RoundRect,0.015000X-0.285000X0.760000X-0.285000X-0.760000X0.285000X-0.760000X0.285000X0.760000X0*%
%ADD17RoundRect,0.200000X0.200000X0.275000X-0.200000X0.275000X-0.200000X-0.275000X0.200000X-0.275000X0*%
%ADD18RoundRect,0.218750X-0.256250X0.218750X-0.256250X-0.218750X0.256250X-0.218750X0.256250X0.218750X0*%
G04 APERTURE END LIST*
D10*
%TO.C,U1*%
X98645000Y-82555000D02*
X95245000Y-82555000D01*
X95245000Y-79845000D01*
X98645000Y-79845000D01*
X98645000Y-82555000D01*
G36*
X98645000Y-82555000D02*
G01*
X95245000Y-82555000D01*
X95245000Y-79845000D01*
X98645000Y-79845000D01*
X98645000Y-82555000D01*
G37*
%TO.C,U2*%
X118645000Y-82555000D02*
X115245000Y-82555000D01*
X115245000Y-79845000D01*
X118645000Y-79845000D01*
X118645000Y-82555000D01*
G36*
X118645000Y-82555000D02*
G01*
X115245000Y-82555000D01*
X115245000Y-79845000D01*
X118645000Y-79845000D01*
X118645000Y-82555000D01*
G37*
%TD*%
D11*
%TO.C,R7*%
X101000000Y-62325000D03*
X101000000Y-60675000D03*
%TD*%
D12*
%TO.C,R2*%
X110250000Y-78500000D03*
X111900000Y-78500000D03*
%TD*%
D13*
%TO.C,D2*%
X87425000Y-61000000D03*
X89000000Y-61000000D03*
%TD*%
D11*
%TO.C,R5*%
X129500000Y-62350000D03*
X129500000Y-60700000D03*
%TD*%
D14*
%TO.C,C3*%
X111850000Y-84000000D03*
X110300000Y-84000000D03*
%TD*%
D12*
%TO.C,R1*%
X90750000Y-78500000D03*
X92400000Y-78500000D03*
%TD*%
D13*
%TO.C,D5*%
X96925000Y-61000000D03*
X98500000Y-61000000D03*
%TD*%
D15*
%TO.C,D8*%
X141200000Y-68587500D03*
X141200000Y-67012500D03*
%TD*%
D16*
%TO.C,U1*%
X98850000Y-78500000D03*
X97580000Y-78500000D03*
X96310000Y-78500000D03*
X95040000Y-78500000D03*
X95040000Y-83900000D03*
X96310000Y-83900000D03*
X97580000Y-83900000D03*
X98850000Y-83900000D03*
%TD*%
D14*
%TO.C,C4*%
X111850000Y-81500000D03*
X110300000Y-81500000D03*
%TD*%
D13*
%TO.C,D7*%
X115925000Y-61000000D03*
X117500000Y-61000000D03*
%TD*%
D11*
%TO.C,R4*%
X91500000Y-62350000D03*
X91500000Y-60700000D03*
%TD*%
D14*
%TO.C,C1*%
X92350000Y-83900000D03*
X90800000Y-83900000D03*
%TD*%
D16*
%TO.C,U2*%
X118850000Y-78500000D03*
X117580000Y-78500000D03*
X116310000Y-78500000D03*
X115040000Y-78500000D03*
X115040000Y-83900000D03*
X116310000Y-83900000D03*
X117580000Y-83900000D03*
X118850000Y-83900000D03*
%TD*%
D11*
%TO.C,R9*%
X120000000Y-62350000D03*
X120000000Y-60700000D03*
%TD*%
D17*
%TO.C,R6*%
X74000000Y-71000000D03*
X72350000Y-71000000D03*
%TD*%
D13*
%TO.C,D6*%
X106425000Y-61000000D03*
X108000000Y-61000000D03*
%TD*%
D14*
%TO.C,C2*%
X92350000Y-81390000D03*
X90800000Y-81390000D03*
%TD*%
D18*
%TO.C,D4*%
X72700000Y-66600000D03*
X72700000Y-68175000D03*
%TD*%
D11*
%TO.C,R8*%
X110500000Y-62325000D03*
X110500000Y-60675000D03*
%TD*%
D12*
%TO.C,R10*%
X139875000Y-64187500D03*
X141525000Y-64187500D03*
%TD*%
D13*
%TO.C,D3*%
X125425000Y-61000000D03*
X127000000Y-61000000D03*
%TD*%
M02*
