%TF.GenerationSoftware,KiCad,Pcbnew,9.0.2*%
%TF.CreationDate,2025-10-02T19:34:41-04:00*%
%TF.ProjectId,Slippi,536c6970-7069-42e6-9b69-6361645f7063,rev?*%
%TF.SameCoordinates,Original*%
%TF.FileFunction,Soldermask,Bot*%
%TF.FilePolarity,Negative*%
%FSLAX46Y46*%
G04 Gerber Fmt 4.6, Leading zero omitted, Abs format (unit mm)*
G04 Created by KiCad (PCBNEW 9.0.2) date 2025-10-02 19:34:41*
%MOMM*%
%LPD*%
G01*
G04 APERTURE LIST*
G04 Aperture macros list*
%AMRoundRect*
0 Rectangle with rounded corners*
0 $1 Rounding radius*
0 $2 $3 $4 $5 $6 $7 $8 $9 X,Y pos of 4 corners*
0 Add a 4 corners polygon primitive as box body*
4,1,4,$2,$3,$4,$5,$6,$7,$8,$9,$2,$3,0*
0 Add four circle primitives for the rounded corners*
1,1,$1+$1,$2,$3*
1,1,$1+$1,$4,$5*
1,1,$1+$1,$6,$7*
1,1,$1+$1,$8,$9*
0 Add four rect primitives between the rounded corners*
20,1,$1+$1,$2,$3,$4,$5,0*
20,1,$1+$1,$4,$5,$6,$7,0*
20,1,$1+$1,$6,$7,$8,$9,0*
20,1,$1+$1,$8,$9,$2,$3,0*%
G04 Aperture macros list end*
%ADD10RoundRect,0.250000X0.750000X-0.750000X0.750000X0.750000X-0.750000X0.750000X-0.750000X-0.750000X0*%
%ADD11C,2.000000*%
%ADD12RoundRect,0.250000X0.750000X0.750000X-0.750000X0.750000X-0.750000X-0.750000X0.750000X-0.750000X0*%
%ADD13RoundRect,0.250000X-0.750000X-0.750000X0.750000X-0.750000X0.750000X0.750000X-0.750000X0.750000X0*%
%ADD14R,1.600000X1.600000*%
%ADD15O,1.600000X1.600000*%
%ADD16RoundRect,0.250000X-0.550000X0.550000X-0.550000X-0.550000X0.550000X-0.550000X0.550000X0.550000X0*%
%ADD17C,1.600000*%
%ADD18RoundRect,0.250000X-0.750000X0.750000X-0.750000X-0.750000X0.750000X-0.750000X0.750000X0.750000X0*%
%ADD19R,1.700000X1.700000*%
%ADD20C,1.700000*%
%ADD21RoundRect,0.750000X0.750000X-0.750000X0.750000X0.750000X-0.750000X0.750000X-0.750000X-0.750000X0*%
%ADD22C,3.000000*%
%ADD23C,2.700000*%
%ADD24RoundRect,0.102000X1.225000X1.225000X-1.225000X1.225000X-1.225000X-1.225000X1.225000X-1.225000X0*%
%ADD25C,2.654000*%
%ADD26RoundRect,0.102000X-0.955000X0.955000X-0.955000X-0.955000X0.955000X-0.955000X0.955000X0.955000X0*%
%ADD27C,2.114000*%
%ADD28RoundRect,0.225000X-0.250000X0.225000X-0.250000X-0.225000X0.250000X-0.225000X0.250000X0.225000X0*%
%ADD29RoundRect,0.225000X0.250000X-0.225000X0.250000X0.225000X-0.250000X0.225000X-0.250000X-0.225000X0*%
G04 APERTURE END LIST*
D10*
%TO.C,J5*%
X134717500Y-70145000D03*
D11*
X134717500Y-67605000D03*
X134717500Y-65065000D03*
%TD*%
D12*
%TO.C,J6*%
X90500000Y-67500000D03*
D11*
X87960000Y-67500000D03*
X85420000Y-67500000D03*
%TD*%
%TO.C,SW3*%
X84350000Y-74450000D03*
X84350000Y-80950000D03*
X79850000Y-74450000D03*
X79850000Y-80950000D03*
%TD*%
D13*
%TO.C,J13*%
X132500000Y-87417500D03*
D11*
X135040000Y-87417500D03*
%TD*%
D13*
%TO.C,J9*%
X139300000Y-86600000D03*
D11*
X141840000Y-86600000D03*
X144380000Y-86600000D03*
%TD*%
D14*
%TO.C,A1*%
X125850000Y-73500000D03*
D15*
X123310000Y-73500000D03*
X120770000Y-73500000D03*
X118230000Y-73500000D03*
X115690000Y-73500000D03*
X113150000Y-73500000D03*
X110610000Y-73500000D03*
X108070000Y-73500000D03*
X105530000Y-73500000D03*
X102990000Y-73500000D03*
X100450000Y-73500000D03*
X97910000Y-73500000D03*
X95370000Y-73500000D03*
X92830000Y-73500000D03*
X90290000Y-73500000D03*
X90290000Y-88740000D03*
X92830000Y-88740000D03*
X95370000Y-88740000D03*
X97910000Y-88740000D03*
X100450000Y-88740000D03*
X102990000Y-88740000D03*
X105530000Y-88740000D03*
X108070000Y-88740000D03*
X110610000Y-88740000D03*
X113150000Y-88740000D03*
X115690000Y-88740000D03*
X118230000Y-88740000D03*
X120770000Y-88740000D03*
X123310000Y-88740000D03*
X125850000Y-88740000D03*
%TD*%
D12*
%TO.C,J3*%
X109500000Y-67500000D03*
D11*
X106960000Y-67500000D03*
X104420000Y-67500000D03*
%TD*%
D13*
%TO.C,J8*%
X71720000Y-86717500D03*
D11*
X74260000Y-86717500D03*
X76800000Y-86717500D03*
%TD*%
D16*
%TO.C,SW2*%
X75100000Y-73800000D03*
D17*
X72560000Y-73800000D03*
X72560000Y-81420000D03*
X75100000Y-81420000D03*
%TD*%
D18*
%TO.C,J1*%
X79200000Y-65000000D03*
D11*
X79200000Y-67540000D03*
X79200000Y-70080000D03*
%TD*%
D12*
%TO.C,J2*%
X100000000Y-67500000D03*
D11*
X97460000Y-67500000D03*
X94920000Y-67500000D03*
%TD*%
D19*
%TO.C,J10*%
X137700000Y-59900000D03*
D20*
X135160000Y-59900000D03*
X132620000Y-59900000D03*
%TD*%
D12*
%TO.C,J7*%
X128500000Y-67500000D03*
D11*
X125960000Y-67500000D03*
X123420000Y-67500000D03*
%TD*%
D21*
%TO.C,J11*%
X133900000Y-80300000D03*
D22*
X133900000Y-75300000D03*
%TD*%
D23*
%TO.C,H2*%
X143700000Y-60700000D03*
%TD*%
D24*
%TO.C,SW1*%
X142544724Y-80900000D03*
D25*
X142544724Y-76200000D03*
X142544724Y-71500000D03*
%TD*%
D13*
%TO.C,J12*%
X81060000Y-87400000D03*
D11*
X83600000Y-87400000D03*
%TD*%
D23*
%TO.C,H1*%
X72400000Y-60700000D03*
%TD*%
D12*
%TO.C,J4*%
X119000000Y-67500000D03*
D11*
X116460000Y-67500000D03*
X113920000Y-67500000D03*
%TD*%
D26*
%TO.C,U3*%
X123700000Y-78500000D03*
D27*
X123700000Y-81050000D03*
X123700000Y-83600000D03*
%TD*%
D28*
%TO.C,C6*%
X127400000Y-85000000D03*
X127400000Y-86550000D03*
%TD*%
D29*
%TO.C,C5*%
X127400000Y-77175000D03*
X127400000Y-75625000D03*
%TD*%
M02*
