M48
; DRILL file {KiCad 9.0.2} date 2025-10-02T19:34:35-0400
; FORMAT={-:-/ absolute / metric / decimal}
; #@! TF.CreationDate,2025-10-02T19:34:35-04:00
; #@! TF.GenerationSoftware,Kicad,Pcbnew,9.0.2
; #@! TF.FileFunction,Plated,1,2,PTH
FMAT,2
METRIC
; #@! TA.AperFunction,Plated,PTH,ViaDrill
T1C0.300
; #@! TA.AperFunction,Plated,PTH,ComponentDrill
T2C0.800
; #@! TA.AperFunction,Plated,PTH,ComponentDrill
T3C1.000
; #@! TA.AperFunction,Plated,PTH,ComponentDrill
T4C1.100
; #@! TA.AperFunction,Plated,PTH,ComponentDrill
T5C1.200
; #@! TA.AperFunction,Plated,PTH,ComponentDrill
T6C1.270
; #@! TA.AperFunction,Plated,PTH,ComponentDrill
T7C1.800
; #@! TA.AperFunction,Plated,PTH,ComponentDrill
T8C1.850
%
G90
G05
T1
X83.7Y-75.9
X83.7Y-76.7
X93.7Y-85.0
X103.0Y-80.3
X105.5Y-80.3
X108.0Y-80.3
X113.7Y-85.0
T2
X72.56Y-73.8
X72.56Y-81.42
X75.1Y-73.8
X75.1Y-81.42
T3
X90.29Y-73.5
X90.29Y-88.74
X92.83Y-73.5
X92.83Y-88.74
X95.37Y-73.5
X95.37Y-88.74
X97.91Y-73.5
X97.91Y-88.74
X100.45Y-73.5
X100.45Y-88.74
X102.99Y-73.5
X102.99Y-88.74
X105.53Y-73.5
X105.53Y-88.74
X108.07Y-73.5
X108.07Y-88.74
X110.61Y-73.5
X110.61Y-88.74
X113.15Y-73.5
X113.15Y-88.74
X115.69Y-73.5
X115.69Y-88.74
X118.23Y-73.5
X118.23Y-88.74
X120.77Y-73.5
X120.77Y-88.74
X123.31Y-73.5
X123.31Y-88.74
X125.85Y-73.5
X125.85Y-88.74
X132.62Y-59.9
X135.16Y-59.9
X137.7Y-59.9
T4
X79.85Y-74.45
X79.85Y-80.95
X84.35Y-74.45
X84.35Y-80.95
T5
X71.72Y-86.718
X74.26Y-86.718
X76.8Y-86.718
X79.2Y-65.0
X79.2Y-67.54
X79.2Y-70.08
X81.06Y-87.4
X83.6Y-87.4
X85.42Y-67.5
X87.96Y-67.5
X90.5Y-67.5
X94.92Y-67.5
X97.46Y-67.5
X100.0Y-67.5
X104.42Y-67.5
X106.96Y-67.5
X109.5Y-67.5
X113.92Y-67.5
X116.46Y-67.5
X119.0Y-67.5
X123.42Y-67.5
X125.96Y-67.5
X128.5Y-67.5
X132.5Y-87.417
X134.718Y-65.065
X134.718Y-67.605
X134.718Y-70.145
X135.04Y-87.417
X139.3Y-86.6
X141.84Y-86.6
X144.38Y-86.6
T6
X123.7Y-78.5
X123.7Y-81.05
X123.7Y-83.6
T7
X133.9Y-75.3
X133.9Y-80.3
T8
X142.545Y-71.5
X142.545Y-76.2
X142.545Y-80.9
M30
