%TF.GenerationSoftware,KiCad,Pcbnew,9.0.2*%
%TF.CreationDate,2025-08-21T12:35:34-04:00*%
%TF.ProjectId,CustomML2,43757374-6f6d-44d4-9c32-2e6b69636164,rev?*%
%TF.SameCoordinates,Original*%
%TF.FileFunction,Legend,Top*%
%TF.FilePolarity,Positive*%
%FSLAX46Y46*%
G04 Gerber Fmt 4.6, Leading zero omitted, Abs format (unit mm)*
G04 Created by KiCad (PCBNEW 9.0.2) date 2025-08-21 12:35:34*
%MOMM*%
%LPD*%
G01*
G04 APERTURE LIST*
G04 Aperture macros list*
%AMRoundRect*
0 Rectangle with rounded corners*
0 $1 Rounding radius*
0 $2 $3 $4 $5 $6 $7 $8 $9 X,Y pos of 4 corners*
0 Add a 4 corners polygon primitive as box body*
4,1,4,$2,$3,$4,$5,$6,$7,$8,$9,$2,$3,0*
0 Add four circle primitives for the rounded corners*
1,1,$1+$1,$2,$3*
1,1,$1+$1,$4,$5*
1,1,$1+$1,$6,$7*
1,1,$1+$1,$8,$9*
0 Add four rect primitives between the rounded corners*
20,1,$1+$1,$2,$3,$4,$5,0*
20,1,$1+$1,$4,$5,$6,$7,0*
20,1,$1+$1,$6,$7,$8,$9,0*
20,1,$1+$1,$8,$9,$2,$3,0*%
G04 Aperture macros list end*
%ADD10C,0.100000*%
%ADD11C,0.127000*%
%ADD12C,0.200000*%
%ADD13C,0.120000*%
%ADD14RoundRect,0.100000X0.100000X-0.217500X0.100000X0.217500X-0.100000X0.217500X-0.100000X-0.217500X0*%
%ADD15RoundRect,0.102000X-0.785000X0.345000X-0.785000X-0.345000X0.785000X-0.345000X0.785000X0.345000X0*%
%ADD16RoundRect,0.100000X-0.100000X0.217500X-0.100000X-0.217500X0.100000X-0.217500X0.100000X0.217500X0*%
%ADD17R,1.700000X1.700000*%
%ADD18C,1.700000*%
G04 APERTURE END LIST*
D10*
X44100276Y-40100877D02*
X44433609Y-40100877D01*
X43909800Y-40219925D02*
X44266942Y-40338972D01*
X44266942Y-40338972D02*
X44266942Y-40029449D01*
X43933609Y-39886592D02*
X43933609Y-39553259D01*
X43933609Y-39553259D02*
X44433609Y-39767544D01*
X44433609Y-39362783D02*
X43933609Y-39362783D01*
X44243133Y-39315164D02*
X44433609Y-39172307D01*
X44100276Y-39172307D02*
X44290752Y-39362783D01*
X47481228Y-40338972D02*
X47457419Y-40315163D01*
X47457419Y-40315163D02*
X47433609Y-40267544D01*
X47433609Y-40267544D02*
X47433609Y-40148496D01*
X47433609Y-40148496D02*
X47457419Y-40100877D01*
X47457419Y-40100877D02*
X47481228Y-40077068D01*
X47481228Y-40077068D02*
X47528847Y-40053258D01*
X47528847Y-40053258D02*
X47576466Y-40053258D01*
X47576466Y-40053258D02*
X47647895Y-40077068D01*
X47647895Y-40077068D02*
X47933609Y-40362782D01*
X47933609Y-40362782D02*
X47933609Y-40053258D01*
X47481228Y-39862782D02*
X47457419Y-39838973D01*
X47457419Y-39838973D02*
X47433609Y-39791354D01*
X47433609Y-39791354D02*
X47433609Y-39672306D01*
X47433609Y-39672306D02*
X47457419Y-39624687D01*
X47457419Y-39624687D02*
X47481228Y-39600878D01*
X47481228Y-39600878D02*
X47528847Y-39577068D01*
X47528847Y-39577068D02*
X47576466Y-39577068D01*
X47576466Y-39577068D02*
X47647895Y-39600878D01*
X47647895Y-39600878D02*
X47933609Y-39886592D01*
X47933609Y-39886592D02*
X47933609Y-39577068D01*
X47433609Y-39267545D02*
X47433609Y-39219926D01*
X47433609Y-39219926D02*
X47457419Y-39172307D01*
X47457419Y-39172307D02*
X47481228Y-39148497D01*
X47481228Y-39148497D02*
X47528847Y-39124688D01*
X47528847Y-39124688D02*
X47624085Y-39100878D01*
X47624085Y-39100878D02*
X47743133Y-39100878D01*
X47743133Y-39100878D02*
X47838371Y-39124688D01*
X47838371Y-39124688D02*
X47885990Y-39148497D01*
X47885990Y-39148497D02*
X47909800Y-39172307D01*
X47909800Y-39172307D02*
X47933609Y-39219926D01*
X47933609Y-39219926D02*
X47933609Y-39267545D01*
X47933609Y-39267545D02*
X47909800Y-39315164D01*
X47909800Y-39315164D02*
X47885990Y-39338973D01*
X47885990Y-39338973D02*
X47838371Y-39362783D01*
X47838371Y-39362783D02*
X47743133Y-39386592D01*
X47743133Y-39386592D02*
X47624085Y-39386592D01*
X47624085Y-39386592D02*
X47528847Y-39362783D01*
X47528847Y-39362783D02*
X47481228Y-39338973D01*
X47481228Y-39338973D02*
X47457419Y-39315164D01*
X47457419Y-39315164D02*
X47433609Y-39267545D01*
D11*
%TO.C,U1*%
X44550000Y-34700000D02*
X44550000Y-34900000D01*
X44550000Y-38300000D02*
X44550000Y-38100000D01*
X47450000Y-34700000D02*
X44550000Y-34700000D01*
X47450000Y-34700000D02*
X47450000Y-34900000D01*
X47450000Y-38300000D02*
X44550000Y-38300000D01*
X47450000Y-38300000D02*
X47450000Y-38100000D01*
D12*
X48300000Y-34600000D02*
G75*
G02*
X48100000Y-34600000I-100000J0D01*
G01*
X48100000Y-34600000D02*
G75*
G02*
X48300000Y-34600000I100000J0D01*
G01*
D11*
%TO.C,U2*%
X44550000Y-41200000D02*
X44550000Y-41400000D01*
X44550000Y-44800000D02*
X44550000Y-44600000D01*
X47450000Y-41200000D02*
X44550000Y-41200000D01*
X47450000Y-41200000D02*
X47450000Y-41400000D01*
X47450000Y-44800000D02*
X44550000Y-44800000D01*
X47450000Y-44800000D02*
X47450000Y-44600000D01*
D12*
X48300000Y-41100000D02*
G75*
G02*
X48100000Y-41100000I-100000J0D01*
G01*
X48100000Y-41100000D02*
G75*
G02*
X48300000Y-41100000I100000J0D01*
G01*
D13*
%TO.C,J1*%
X39620000Y-34540000D02*
X41000000Y-34540000D01*
X39620000Y-35920000D02*
X39620000Y-34540000D01*
X39620000Y-37190000D02*
X39620000Y-44920000D01*
X39620000Y-37190000D02*
X42380000Y-37190000D01*
X39620000Y-44920000D02*
X42380000Y-44920000D01*
X42380000Y-37190000D02*
X42380000Y-44920000D01*
%TD*%
%LPC*%
D14*
%TO.C,R2*%
X43380876Y-40152260D03*
X43380876Y-39337260D03*
%TD*%
%TO.C,R1*%
X48500000Y-40157500D03*
X48500000Y-39342500D03*
%TD*%
D15*
%TO.C,U1*%
X47975000Y-35600000D03*
X44025000Y-35600000D03*
X44025000Y-37400000D03*
X47975000Y-37400000D03*
%TD*%
%TO.C,U2*%
X47975000Y-42100000D03*
X44025000Y-42100000D03*
X44025000Y-43900000D03*
X47975000Y-43900000D03*
%TD*%
D16*
%TO.C,R4*%
X45000000Y-39342500D03*
X45000000Y-40157500D03*
%TD*%
%TO.C,R3*%
X46750000Y-39342500D03*
X46750000Y-40157500D03*
%TD*%
D17*
%TO.C,J1*%
X41000000Y-35920000D03*
D18*
X41000000Y-38460000D03*
X41000000Y-41000000D03*
X41000000Y-43540000D03*
%TD*%
%LPD*%
M02*
