%TF.GenerationSoftware,KiCad,Pcbnew,9.0.2*%
%TF.CreationDate,2025-06-30T19:44:14-04:00*%
%TF.ProjectId,CustomML2,43757374-6f6d-44d4-9c32-2e6b69636164,rev?*%
%TF.SameCoordinates,Original*%
%TF.FileFunction,Legend,Bot*%
%TF.FilePolarity,Positive*%
%FSLAX46Y46*%
G04 Gerber Fmt 4.6, Leading zero omitted, Abs format (unit mm)*
G04 Created by KiCad (PCBNEW 9.0.2) date 2025-06-30 19:44:14*
%MOMM*%
%LPD*%
G01*
G04 APERTURE LIST*
%ADD10C,0.125000*%
%ADD11C,0.150000*%
%ADD12C,0.120000*%
G04 APERTURE END LIST*
D10*
X70132309Y-36201283D02*
X69632309Y-36201283D01*
X69822785Y-36201283D02*
X69798976Y-36248902D01*
X69798976Y-36248902D02*
X69798976Y-36344140D01*
X69798976Y-36344140D02*
X69822785Y-36391759D01*
X69822785Y-36391759D02*
X69846595Y-36415569D01*
X69846595Y-36415569D02*
X69894214Y-36439378D01*
X69894214Y-36439378D02*
X70037071Y-36439378D01*
X70037071Y-36439378D02*
X70084690Y-36415569D01*
X70084690Y-36415569D02*
X70108500Y-36391759D01*
X70108500Y-36391759D02*
X70132309Y-36344140D01*
X70132309Y-36344140D02*
X70132309Y-36248902D01*
X70132309Y-36248902D02*
X70108500Y-36201283D01*
X70132309Y-36653664D02*
X69798976Y-36653664D01*
X69894214Y-36653664D02*
X69846595Y-36677474D01*
X69846595Y-36677474D02*
X69822785Y-36701283D01*
X69822785Y-36701283D02*
X69798976Y-36748902D01*
X69798976Y-36748902D02*
X69798976Y-36796521D01*
X69798976Y-37177474D02*
X70132309Y-37177474D01*
X69798976Y-36963188D02*
X70060880Y-36963188D01*
X70060880Y-36963188D02*
X70108500Y-36986998D01*
X70108500Y-36986998D02*
X70132309Y-37034617D01*
X70132309Y-37034617D02*
X70132309Y-37106045D01*
X70132309Y-37106045D02*
X70108500Y-37153664D01*
X70108500Y-37153664D02*
X70084690Y-37177474D01*
X70132309Y-37415569D02*
X69632309Y-37415569D01*
X70132309Y-37629855D02*
X69870404Y-37629855D01*
X69870404Y-37629855D02*
X69822785Y-37606045D01*
X69822785Y-37606045D02*
X69798976Y-37558426D01*
X69798976Y-37558426D02*
X69798976Y-37486998D01*
X69798976Y-37486998D02*
X69822785Y-37439379D01*
X69822785Y-37439379D02*
X69846595Y-37415569D01*
X70132309Y-38248902D02*
X69798976Y-38248902D01*
X69846595Y-38248902D02*
X69822785Y-38272712D01*
X69822785Y-38272712D02*
X69798976Y-38320331D01*
X69798976Y-38320331D02*
X69798976Y-38391759D01*
X69798976Y-38391759D02*
X69822785Y-38439378D01*
X69822785Y-38439378D02*
X69870404Y-38463188D01*
X69870404Y-38463188D02*
X70132309Y-38463188D01*
X69870404Y-38463188D02*
X69822785Y-38486997D01*
X69822785Y-38486997D02*
X69798976Y-38534616D01*
X69798976Y-38534616D02*
X69798976Y-38606045D01*
X69798976Y-38606045D02*
X69822785Y-38653664D01*
X69822785Y-38653664D02*
X69870404Y-38677474D01*
X69870404Y-38677474D02*
X70132309Y-38677474D01*
X70132309Y-38986998D02*
X70108500Y-38939379D01*
X70108500Y-38939379D02*
X70084690Y-38915569D01*
X70084690Y-38915569D02*
X70037071Y-38891760D01*
X70037071Y-38891760D02*
X69894214Y-38891760D01*
X69894214Y-38891760D02*
X69846595Y-38915569D01*
X69846595Y-38915569D02*
X69822785Y-38939379D01*
X69822785Y-38939379D02*
X69798976Y-38986998D01*
X69798976Y-38986998D02*
X69798976Y-39058426D01*
X69798976Y-39058426D02*
X69822785Y-39106045D01*
X69822785Y-39106045D02*
X69846595Y-39129855D01*
X69846595Y-39129855D02*
X69894214Y-39153664D01*
X69894214Y-39153664D02*
X70037071Y-39153664D01*
X70037071Y-39153664D02*
X70084690Y-39129855D01*
X70084690Y-39129855D02*
X70108500Y-39106045D01*
X70108500Y-39106045D02*
X70132309Y-39058426D01*
X70132309Y-39058426D02*
X70132309Y-38986998D01*
X70132309Y-39367950D02*
X69798976Y-39367950D01*
X69846595Y-39367950D02*
X69822785Y-39391760D01*
X69822785Y-39391760D02*
X69798976Y-39439379D01*
X69798976Y-39439379D02*
X69798976Y-39510807D01*
X69798976Y-39510807D02*
X69822785Y-39558426D01*
X69822785Y-39558426D02*
X69870404Y-39582236D01*
X69870404Y-39582236D02*
X70132309Y-39582236D01*
X69870404Y-39582236D02*
X69822785Y-39606045D01*
X69822785Y-39606045D02*
X69798976Y-39653664D01*
X69798976Y-39653664D02*
X69798976Y-39725093D01*
X69798976Y-39725093D02*
X69822785Y-39772712D01*
X69822785Y-39772712D02*
X69870404Y-39796522D01*
X69870404Y-39796522D02*
X70132309Y-39796522D01*
X70108500Y-40225093D02*
X70132309Y-40177474D01*
X70132309Y-40177474D02*
X70132309Y-40082236D01*
X70132309Y-40082236D02*
X70108500Y-40034617D01*
X70108500Y-40034617D02*
X70060880Y-40010808D01*
X70060880Y-40010808D02*
X69870404Y-40010808D01*
X69870404Y-40010808D02*
X69822785Y-40034617D01*
X69822785Y-40034617D02*
X69798976Y-40082236D01*
X69798976Y-40082236D02*
X69798976Y-40177474D01*
X69798976Y-40177474D02*
X69822785Y-40225093D01*
X69822785Y-40225093D02*
X69870404Y-40248903D01*
X69870404Y-40248903D02*
X69918023Y-40248903D01*
X69918023Y-40248903D02*
X69965642Y-40010808D01*
X69798976Y-40463188D02*
X70132309Y-40463188D01*
X69846595Y-40463188D02*
X69822785Y-40486998D01*
X69822785Y-40486998D02*
X69798976Y-40534617D01*
X69798976Y-40534617D02*
X69798976Y-40606045D01*
X69798976Y-40606045D02*
X69822785Y-40653664D01*
X69822785Y-40653664D02*
X69870404Y-40677474D01*
X69870404Y-40677474D02*
X70132309Y-40677474D01*
X69798976Y-40844141D02*
X69798976Y-41034617D01*
X69632309Y-40915569D02*
X70060880Y-40915569D01*
X70060880Y-40915569D02*
X70108500Y-40939379D01*
X70108500Y-40939379D02*
X70132309Y-40986998D01*
X70132309Y-40986998D02*
X70132309Y-41034617D01*
D11*
X67604819Y-35333333D02*
X67128628Y-35000000D01*
X67604819Y-34761905D02*
X66604819Y-34761905D01*
X66604819Y-34761905D02*
X66604819Y-35142857D01*
X66604819Y-35142857D02*
X66652438Y-35238095D01*
X66652438Y-35238095D02*
X66700057Y-35285714D01*
X66700057Y-35285714D02*
X66795295Y-35333333D01*
X66795295Y-35333333D02*
X66938152Y-35333333D01*
X66938152Y-35333333D02*
X67033390Y-35285714D01*
X67033390Y-35285714D02*
X67081009Y-35238095D01*
X67081009Y-35238095D02*
X67128628Y-35142857D01*
X67128628Y-35142857D02*
X67128628Y-34761905D01*
X67604819Y-36285714D02*
X67604819Y-35714286D01*
X67604819Y-36000000D02*
X66604819Y-36000000D01*
X66604819Y-36000000D02*
X66747676Y-35904762D01*
X66747676Y-35904762D02*
X66842914Y-35809524D01*
X66842914Y-35809524D02*
X66890533Y-35714286D01*
X65166666Y-43304819D02*
X65499999Y-42828628D01*
X65738094Y-43304819D02*
X65738094Y-42304819D01*
X65738094Y-42304819D02*
X65357142Y-42304819D01*
X65357142Y-42304819D02*
X65261904Y-42352438D01*
X65261904Y-42352438D02*
X65214285Y-42400057D01*
X65214285Y-42400057D02*
X65166666Y-42495295D01*
X65166666Y-42495295D02*
X65166666Y-42638152D01*
X65166666Y-42638152D02*
X65214285Y-42733390D01*
X65214285Y-42733390D02*
X65261904Y-42781009D01*
X65261904Y-42781009D02*
X65357142Y-42828628D01*
X65357142Y-42828628D02*
X65738094Y-42828628D01*
X64833332Y-42304819D02*
X64214285Y-42304819D01*
X64214285Y-42304819D02*
X64547618Y-42685771D01*
X64547618Y-42685771D02*
X64404761Y-42685771D01*
X64404761Y-42685771D02*
X64309523Y-42733390D01*
X64309523Y-42733390D02*
X64261904Y-42781009D01*
X64261904Y-42781009D02*
X64214285Y-42876247D01*
X64214285Y-42876247D02*
X64214285Y-43114342D01*
X64214285Y-43114342D02*
X64261904Y-43209580D01*
X64261904Y-43209580D02*
X64309523Y-43257200D01*
X64309523Y-43257200D02*
X64404761Y-43304819D01*
X64404761Y-43304819D02*
X64690475Y-43304819D01*
X64690475Y-43304819D02*
X64785713Y-43257200D01*
X64785713Y-43257200D02*
X64833332Y-43209580D01*
X64304819Y-41333333D02*
X63828628Y-41000000D01*
X64304819Y-40761905D02*
X63304819Y-40761905D01*
X63304819Y-40761905D02*
X63304819Y-41142857D01*
X63304819Y-41142857D02*
X63352438Y-41238095D01*
X63352438Y-41238095D02*
X63400057Y-41285714D01*
X63400057Y-41285714D02*
X63495295Y-41333333D01*
X63495295Y-41333333D02*
X63638152Y-41333333D01*
X63638152Y-41333333D02*
X63733390Y-41285714D01*
X63733390Y-41285714D02*
X63781009Y-41238095D01*
X63781009Y-41238095D02*
X63828628Y-41142857D01*
X63828628Y-41142857D02*
X63828628Y-40761905D01*
X63638152Y-42190476D02*
X64304819Y-42190476D01*
X63257200Y-41952381D02*
X63971485Y-41714286D01*
X63971485Y-41714286D02*
X63971485Y-42333333D01*
X64666666Y-31304819D02*
X64999999Y-30828628D01*
X65238094Y-31304819D02*
X65238094Y-30304819D01*
X65238094Y-30304819D02*
X64857142Y-30304819D01*
X64857142Y-30304819D02*
X64761904Y-30352438D01*
X64761904Y-30352438D02*
X64714285Y-30400057D01*
X64714285Y-30400057D02*
X64666666Y-30495295D01*
X64666666Y-30495295D02*
X64666666Y-30638152D01*
X64666666Y-30638152D02*
X64714285Y-30733390D01*
X64714285Y-30733390D02*
X64761904Y-30781009D01*
X64761904Y-30781009D02*
X64857142Y-30828628D01*
X64857142Y-30828628D02*
X65238094Y-30828628D01*
X64285713Y-30400057D02*
X64238094Y-30352438D01*
X64238094Y-30352438D02*
X64142856Y-30304819D01*
X64142856Y-30304819D02*
X63904761Y-30304819D01*
X63904761Y-30304819D02*
X63809523Y-30352438D01*
X63809523Y-30352438D02*
X63761904Y-30400057D01*
X63761904Y-30400057D02*
X63714285Y-30495295D01*
X63714285Y-30495295D02*
X63714285Y-30590533D01*
X63714285Y-30590533D02*
X63761904Y-30733390D01*
X63761904Y-30733390D02*
X64333332Y-31304819D01*
X64333332Y-31304819D02*
X63714285Y-31304819D01*
D12*
%TO.C,R1*%
X64765000Y-35727064D02*
X64765000Y-35272936D01*
X66235000Y-35727064D02*
X66235000Y-35272936D01*
%TO.C,R3*%
X65227064Y-43765000D02*
X64772936Y-43765000D01*
X65227064Y-45235000D02*
X64772936Y-45235000D01*
%TO.C,R4*%
X64765000Y-41272936D02*
X64765000Y-41727064D01*
X66235000Y-41272936D02*
X66235000Y-41727064D01*
%TO.C,R2*%
X64727064Y-31765000D02*
X64272936Y-31765000D01*
X64727064Y-33235000D02*
X64272936Y-33235000D01*
%TD*%
M02*
