%TF.GenerationSoftware,KiCad,Pcbnew,9.0.2*%
%TF.CreationDate,2025-06-30T19:44:14-04:00*%
%TF.ProjectId,CustomML2,43757374-6f6d-44d4-9c32-2e6b69636164,rev?*%
%TF.SameCoordinates,Original*%
%TF.FileFunction,Copper,L1,Top*%
%TF.FilePolarity,Positive*%
%FSLAX46Y46*%
G04 Gerber Fmt 4.6, Leading zero omitted, Abs format (unit mm)*
G04 Created by KiCad (PCBNEW 9.0.2) date 2025-06-30 19:44:14*
%MOMM*%
%LPD*%
G01*
G04 APERTURE LIST*
%TA.AperFunction,ComponentPad*%
%ADD10R,2.030000X1.730000*%
%TD*%
%TA.AperFunction,ComponentPad*%
%ADD11O,2.030000X1.730000*%
%TD*%
%TA.AperFunction,SMDPad,CuDef*%
%ADD12R,0.690000X1.570000*%
%TD*%
%TA.AperFunction,ViaPad*%
%ADD13C,0.600000*%
%TD*%
%TA.AperFunction,Conductor*%
%ADD14C,0.200000*%
%TD*%
G04 APERTURE END LIST*
D10*
%TO.P,J1,1,Pin_1*%
%TO.N,3.3V*%
X63000000Y-42540000D03*
D11*
%TO.P,J1,2,Pin_2*%
%TO.N,Signal1*%
X63000000Y-40000000D03*
%TO.P,J1,3,Pin_3*%
%TO.N,Signal2*%
X63000000Y-37460000D03*
%TO.P,J1,4,Pin_4*%
%TO.N,GND*%
X63000000Y-34920000D03*
%TD*%
D12*
%TO.P,U2,1*%
%TO.N,Net-(R1-Pad1)*%
X69400000Y-36975000D03*
%TO.P,U2,2*%
%TO.N,GND*%
X69400000Y-33025000D03*
%TO.P,U2,3*%
%TO.N,Signal2*%
X67600000Y-33025000D03*
%TO.P,U2,4*%
%TO.N,GND*%
X67600000Y-36975000D03*
%TD*%
%TO.P,U1,1*%
%TO.N,Net-(R3-Pad1)*%
X69400000Y-43975000D03*
%TO.P,U1,2*%
%TO.N,GND*%
X69400000Y-40025000D03*
%TO.P,U1,3*%
%TO.N,Signal1*%
X67600000Y-40025000D03*
%TO.P,U1,4*%
%TO.N,GND*%
X67600000Y-43975000D03*
%TD*%
D13*
%TO.N,3.3V*%
X65500000Y-38500000D03*
%TO.N,Net-(R3-Pad1)*%
X67500000Y-45500000D03*
%TO.N,Signal1*%
X66500000Y-39500000D03*
%TO.N,Net-(R1-Pad1)*%
X67500000Y-35500000D03*
%TO.N,Signal2*%
X66500000Y-32500000D03*
%TD*%
D14*
%TO.N,3.3V*%
X65500000Y-38500000D02*
X65500000Y-40040000D01*
X65500000Y-40040000D02*
X63000000Y-42540000D01*
%TO.N,Net-(R3-Pad1)*%
X67875000Y-45500000D02*
X67500000Y-45500000D01*
X69400000Y-43975000D02*
X67875000Y-45500000D01*
%TO.N,Signal2*%
X63165000Y-37460000D02*
X67600000Y-33025000D01*
X63000000Y-37460000D02*
X63165000Y-37460000D01*
%TO.N,Signal1*%
X67075000Y-39500000D02*
X67600000Y-40025000D01*
X66500000Y-39500000D02*
X67075000Y-39500000D01*
%TO.N,Net-(R1-Pad1)*%
X67925000Y-35500000D02*
X69400000Y-36975000D01*
X67500000Y-35500000D02*
X67925000Y-35500000D01*
%TO.N,Signal2*%
X67075000Y-32500000D02*
X67600000Y-33025000D01*
X66500000Y-32500000D02*
X67075000Y-32500000D01*
%TD*%
%TA.AperFunction,Conductor*%
%TO.N,GND*%
G36*
X64190221Y-28020185D02*
G01*
X64235976Y-28072989D01*
X64242955Y-28092402D01*
X64243946Y-28096100D01*
X64243948Y-28096106D01*
X64336773Y-28320205D01*
X64336776Y-28320212D01*
X64458064Y-28530289D01*
X64458066Y-28530292D01*
X64458067Y-28530293D01*
X64605733Y-28722736D01*
X64605739Y-28722743D01*
X64777256Y-28894260D01*
X64777262Y-28894265D01*
X64969711Y-29041936D01*
X65179788Y-29163224D01*
X65403900Y-29256054D01*
X65638211Y-29318838D01*
X65818586Y-29342584D01*
X65878711Y-29350500D01*
X65878712Y-29350500D01*
X66121289Y-29350500D01*
X66169388Y-29344167D01*
X66361789Y-29318838D01*
X66596100Y-29256054D01*
X66820212Y-29163224D01*
X67030289Y-29041936D01*
X67222738Y-28894265D01*
X67394265Y-28722738D01*
X67541936Y-28530289D01*
X67663224Y-28320212D01*
X67756054Y-28096100D01*
X67757042Y-28092410D01*
X67793403Y-28032750D01*
X67856249Y-28002218D01*
X67876818Y-28000500D01*
X70375500Y-28000500D01*
X70442539Y-28020185D01*
X70488294Y-28072989D01*
X70499500Y-28124500D01*
X70499500Y-48875500D01*
X70479815Y-48942539D01*
X70427011Y-48988294D01*
X70375500Y-48999500D01*
X67876818Y-48999500D01*
X67809779Y-48979815D01*
X67764024Y-48927011D01*
X67757044Y-48907597D01*
X67756054Y-48903900D01*
X67663224Y-48679788D01*
X67541936Y-48469711D01*
X67394265Y-48277262D01*
X67394260Y-48277256D01*
X67222743Y-48105739D01*
X67222736Y-48105733D01*
X67030293Y-47958067D01*
X67030292Y-47958066D01*
X67030289Y-47958064D01*
X66820212Y-47836776D01*
X66820205Y-47836773D01*
X66596104Y-47743947D01*
X66361785Y-47681161D01*
X66121289Y-47649500D01*
X66121288Y-47649500D01*
X65878712Y-47649500D01*
X65878711Y-47649500D01*
X65638214Y-47681161D01*
X65403895Y-47743947D01*
X65179794Y-47836773D01*
X65179785Y-47836777D01*
X64969706Y-47958067D01*
X64777263Y-48105733D01*
X64777256Y-48105739D01*
X64605739Y-48277256D01*
X64605733Y-48277263D01*
X64458067Y-48469706D01*
X64336777Y-48679785D01*
X64336773Y-48679794D01*
X64243948Y-48903893D01*
X64243946Y-48903899D01*
X64243946Y-48903900D01*
X64242957Y-48907589D01*
X64206597Y-48967250D01*
X64143751Y-48997782D01*
X64123182Y-48999500D01*
X61624500Y-48999500D01*
X61557461Y-48979815D01*
X61511706Y-48927011D01*
X61500500Y-48875500D01*
X61500500Y-45421153D01*
X66699500Y-45421153D01*
X66699500Y-45578846D01*
X66730261Y-45733489D01*
X66730264Y-45733501D01*
X66790602Y-45879172D01*
X66790609Y-45879185D01*
X66878210Y-46010288D01*
X66878213Y-46010292D01*
X66989707Y-46121786D01*
X66989711Y-46121789D01*
X67120814Y-46209390D01*
X67120827Y-46209397D01*
X67266498Y-46269735D01*
X67266503Y-46269737D01*
X67421153Y-46300499D01*
X67421156Y-46300500D01*
X67421158Y-46300500D01*
X67578844Y-46300500D01*
X67578845Y-46300499D01*
X67733497Y-46269737D01*
X67879179Y-46209394D01*
X68010289Y-46121789D01*
X68036458Y-46095619D01*
X68070683Y-46071414D01*
X68080994Y-46066487D01*
X68106785Y-46059577D01*
X68156904Y-46030639D01*
X68243716Y-45980520D01*
X68355520Y-45868716D01*
X68355520Y-45868714D01*
X68365728Y-45858507D01*
X68365730Y-45858504D01*
X68927417Y-45296816D01*
X68988738Y-45263333D01*
X69015086Y-45260499D01*
X69792872Y-45260499D01*
X69852483Y-45254091D01*
X69987331Y-45203796D01*
X70102546Y-45117546D01*
X70188796Y-45002331D01*
X70239091Y-44867483D01*
X70245500Y-44807873D01*
X70245499Y-43142128D01*
X70239091Y-43082517D01*
X70214578Y-43016795D01*
X70188797Y-42947671D01*
X70188793Y-42947664D01*
X70102547Y-42832455D01*
X70102544Y-42832452D01*
X69987335Y-42746206D01*
X69987328Y-42746202D01*
X69852482Y-42695908D01*
X69852483Y-42695908D01*
X69792883Y-42689501D01*
X69792881Y-42689500D01*
X69792873Y-42689500D01*
X69792864Y-42689500D01*
X69007129Y-42689500D01*
X69007123Y-42689501D01*
X68947516Y-42695908D01*
X68812671Y-42746202D01*
X68812664Y-42746206D01*
X68697455Y-42832452D01*
X68697452Y-42832455D01*
X68611203Y-42947667D01*
X68608541Y-42952544D01*
X68559133Y-43001947D01*
X68490859Y-43016795D01*
X68425396Y-42992374D01*
X68390880Y-42952538D01*
X68388352Y-42947908D01*
X68302190Y-42832812D01*
X68302187Y-42832809D01*
X68187093Y-42746649D01*
X68187086Y-42746645D01*
X68052379Y-42696403D01*
X68052372Y-42696401D01*
X67992844Y-42690000D01*
X67850000Y-42690000D01*
X67850000Y-43851000D01*
X67830315Y-43918039D01*
X67777511Y-43963794D01*
X67726000Y-43975000D01*
X67600000Y-43975000D01*
X67600000Y-44101000D01*
X67580315Y-44168039D01*
X67527511Y-44213794D01*
X67476000Y-44225000D01*
X66755000Y-44225000D01*
X66755000Y-44807844D01*
X66761401Y-44867372D01*
X66761402Y-44867376D01*
X66810353Y-44998617D01*
X66815337Y-45068309D01*
X66797276Y-45110838D01*
X66790609Y-45120816D01*
X66790602Y-45120828D01*
X66730264Y-45266498D01*
X66730261Y-45266510D01*
X66699500Y-45421153D01*
X61500500Y-45421153D01*
X61500500Y-43915230D01*
X61520185Y-43848191D01*
X61572989Y-43802436D01*
X61642147Y-43792492D01*
X61698810Y-43815963D01*
X61741861Y-43848191D01*
X61742668Y-43848795D01*
X61742671Y-43848797D01*
X61877517Y-43899091D01*
X61877516Y-43899091D01*
X61884444Y-43899835D01*
X61937127Y-43905500D01*
X64062872Y-43905499D01*
X64122483Y-43899091D01*
X64257331Y-43848796D01*
X64372546Y-43762546D01*
X64458796Y-43647331D01*
X64509091Y-43512483D01*
X64515500Y-43452873D01*
X64515500Y-43142155D01*
X66755000Y-43142155D01*
X66755000Y-43725000D01*
X67350000Y-43725000D01*
X67350000Y-42690000D01*
X67207155Y-42690000D01*
X67147627Y-42696401D01*
X67147620Y-42696403D01*
X67012913Y-42746645D01*
X67012906Y-42746649D01*
X66897812Y-42832809D01*
X66897809Y-42832812D01*
X66811649Y-42947906D01*
X66811645Y-42947913D01*
X66761403Y-43082620D01*
X66761401Y-43082627D01*
X66755000Y-43142155D01*
X64515500Y-43142155D01*
X64515499Y-41925095D01*
X64535184Y-41858057D01*
X64551813Y-41837420D01*
X65858506Y-40530728D01*
X65858511Y-40530724D01*
X65868714Y-40520520D01*
X65868716Y-40520520D01*
X65980520Y-40408716D01*
X66046095Y-40295135D01*
X66096659Y-40246923D01*
X66165266Y-40233699D01*
X66200931Y-40242576D01*
X66266503Y-40269737D01*
X66392261Y-40294752D01*
X66421153Y-40300499D01*
X66421156Y-40300500D01*
X66421158Y-40300500D01*
X66578844Y-40300500D01*
X66606308Y-40295037D01*
X66675900Y-40301264D01*
X66731077Y-40344127D01*
X66754322Y-40410016D01*
X66754500Y-40416654D01*
X66754500Y-40857870D01*
X66754501Y-40857876D01*
X66760908Y-40917483D01*
X66811202Y-41052328D01*
X66811206Y-41052335D01*
X66897452Y-41167544D01*
X66897455Y-41167547D01*
X67012664Y-41253793D01*
X67012671Y-41253797D01*
X67147517Y-41304091D01*
X67147516Y-41304091D01*
X67154444Y-41304835D01*
X67207127Y-41310500D01*
X67992872Y-41310499D01*
X68052483Y-41304091D01*
X68187331Y-41253796D01*
X68302546Y-41167546D01*
X68388796Y-41052331D01*
X68388796Y-41052328D01*
X68391453Y-41047465D01*
X68440856Y-40998058D01*
X68509128Y-40983204D01*
X68574594Y-41007618D01*
X68609117Y-41047458D01*
X68611645Y-41052088D01*
X68697809Y-41167187D01*
X68697812Y-41167190D01*
X68812906Y-41253350D01*
X68812913Y-41253354D01*
X68947620Y-41303596D01*
X68947627Y-41303598D01*
X69007155Y-41309999D01*
X69007172Y-41310000D01*
X69150000Y-41310000D01*
X69650000Y-41310000D01*
X69792828Y-41310000D01*
X69792844Y-41309999D01*
X69852372Y-41303598D01*
X69852379Y-41303596D01*
X69987086Y-41253354D01*
X69987093Y-41253350D01*
X70102187Y-41167190D01*
X70102190Y-41167187D01*
X70188350Y-41052093D01*
X70188354Y-41052086D01*
X70238596Y-40917379D01*
X70238598Y-40917372D01*
X70244999Y-40857844D01*
X70245000Y-40857827D01*
X70245000Y-40275000D01*
X69650000Y-40275000D01*
X69650000Y-41310000D01*
X69150000Y-41310000D01*
X69150000Y-39775000D01*
X69650000Y-39775000D01*
X70245000Y-39775000D01*
X70245000Y-39192172D01*
X70244999Y-39192155D01*
X70238598Y-39132627D01*
X70238596Y-39132620D01*
X70188354Y-38997913D01*
X70188350Y-38997906D01*
X70102190Y-38882812D01*
X70102187Y-38882809D01*
X69987093Y-38796649D01*
X69987086Y-38796645D01*
X69852379Y-38746403D01*
X69852372Y-38746401D01*
X69792844Y-38740000D01*
X69650000Y-38740000D01*
X69650000Y-39775000D01*
X69150000Y-39775000D01*
X69150000Y-38740000D01*
X69007155Y-38740000D01*
X68947627Y-38746401D01*
X68947620Y-38746403D01*
X68812913Y-38796645D01*
X68812906Y-38796649D01*
X68697812Y-38882809D01*
X68697809Y-38882812D01*
X68611644Y-38997912D01*
X68609115Y-39002545D01*
X68559707Y-39051947D01*
X68491433Y-39066794D01*
X68425970Y-39042373D01*
X68391455Y-39002537D01*
X68388796Y-38997668D01*
X68302547Y-38882455D01*
X68302544Y-38882452D01*
X68187335Y-38796206D01*
X68187328Y-38796202D01*
X68052482Y-38745908D01*
X68052483Y-38745908D01*
X67992883Y-38739501D01*
X67992881Y-38739500D01*
X67992873Y-38739500D01*
X67992864Y-38739500D01*
X67207129Y-38739500D01*
X67207123Y-38739501D01*
X67147516Y-38745908D01*
X67012664Y-38796205D01*
X67009709Y-38797819D01*
X67006419Y-38798534D01*
X67004359Y-38799303D01*
X67004248Y-38799006D01*
X66941436Y-38812669D01*
X66884685Y-38793214D01*
X66884546Y-38793475D01*
X66882940Y-38792616D01*
X66881395Y-38792087D01*
X66879176Y-38790604D01*
X66879174Y-38790603D01*
X66733501Y-38730264D01*
X66733489Y-38730261D01*
X66578845Y-38699500D01*
X66578842Y-38699500D01*
X66424500Y-38699500D01*
X66357461Y-38679815D01*
X66311706Y-38627011D01*
X66300500Y-38575500D01*
X66300500Y-38421155D01*
X66300499Y-38421153D01*
X66269738Y-38266510D01*
X66269737Y-38266503D01*
X66269735Y-38266498D01*
X66209397Y-38120827D01*
X66209390Y-38120814D01*
X66121789Y-37989711D01*
X66121786Y-37989707D01*
X66010292Y-37878213D01*
X66010288Y-37878210D01*
X65904979Y-37807844D01*
X66755000Y-37807844D01*
X66761401Y-37867372D01*
X66761403Y-37867379D01*
X66811645Y-38002086D01*
X66811649Y-38002093D01*
X66897809Y-38117187D01*
X66897812Y-38117190D01*
X67012906Y-38203350D01*
X67012913Y-38203354D01*
X67147620Y-38253596D01*
X67147627Y-38253598D01*
X67207155Y-38259999D01*
X67207172Y-38260000D01*
X67350000Y-38260000D01*
X67350000Y-37225000D01*
X66755000Y-37225000D01*
X66755000Y-37807844D01*
X65904979Y-37807844D01*
X65879185Y-37790609D01*
X65879172Y-37790602D01*
X65733501Y-37730264D01*
X65733489Y-37730261D01*
X65578845Y-37699500D01*
X65578842Y-37699500D01*
X65421158Y-37699500D01*
X65421155Y-37699500D01*
X65266510Y-37730261D01*
X65266498Y-37730264D01*
X65120827Y-37790602D01*
X65120814Y-37790609D01*
X64989711Y-37878210D01*
X64989707Y-37878213D01*
X64878213Y-37989707D01*
X64878210Y-37989711D01*
X64790609Y-38120814D01*
X64790602Y-38120827D01*
X64730264Y-38266498D01*
X64730261Y-38266510D01*
X64699500Y-38421153D01*
X64699500Y-38578846D01*
X64730261Y-38733489D01*
X64730264Y-38733501D01*
X64790602Y-38879172D01*
X64790609Y-38879185D01*
X64878602Y-39010874D01*
X64899480Y-39077551D01*
X64899500Y-39079765D01*
X64899500Y-39739902D01*
X64890855Y-39769342D01*
X64884332Y-39799329D01*
X64880577Y-39804344D01*
X64879815Y-39806941D01*
X64863181Y-39827583D01*
X64726241Y-39964523D01*
X64664918Y-39998008D01*
X64595226Y-39993024D01*
X64539293Y-39951152D01*
X64516087Y-39896240D01*
X64515500Y-39892533D01*
X64481876Y-39680245D01*
X64481875Y-39680241D01*
X64481875Y-39680240D01*
X64415459Y-39475832D01*
X64415458Y-39475829D01*
X64317879Y-39284321D01*
X64191545Y-39110437D01*
X64039563Y-38958455D01*
X64039559Y-38958452D01*
X63863198Y-38830318D01*
X63820532Y-38774988D01*
X63814553Y-38705375D01*
X63847159Y-38643580D01*
X63863198Y-38629682D01*
X63933173Y-38578842D01*
X64039563Y-38501545D01*
X64191545Y-38349563D01*
X64317880Y-38175678D01*
X64415458Y-37984170D01*
X64453372Y-37867482D01*
X64481875Y-37779759D01*
X64481875Y-37779758D01*
X64481876Y-37779755D01*
X64515500Y-37567467D01*
X64515500Y-37352533D01*
X64481876Y-37140245D01*
X64467426Y-37095774D01*
X64466211Y-37090518D01*
X64467944Y-37060803D01*
X64467095Y-37031050D01*
X64469973Y-37026036D01*
X64470281Y-37020767D01*
X64483124Y-37003132D01*
X64499338Y-36974895D01*
X66053080Y-35421153D01*
X66699500Y-35421153D01*
X66699500Y-35578846D01*
X66730261Y-35733489D01*
X66730264Y-35733501D01*
X66790604Y-35879176D01*
X66791720Y-35881263D01*
X66791973Y-35882481D01*
X66792937Y-35884807D01*
X66792495Y-35884989D01*
X66805960Y-35949666D01*
X66798542Y-35983046D01*
X66761403Y-36082620D01*
X66761401Y-36082627D01*
X66755000Y-36142155D01*
X66755000Y-36725000D01*
X67476000Y-36725000D01*
X67543039Y-36744685D01*
X67588794Y-36797489D01*
X67600000Y-36849000D01*
X67600000Y-36975000D01*
X67726000Y-36975000D01*
X67793039Y-36994685D01*
X67838794Y-37047489D01*
X67850000Y-37099000D01*
X67850000Y-38260000D01*
X67992828Y-38260000D01*
X67992844Y-38259999D01*
X68052372Y-38253598D01*
X68052379Y-38253596D01*
X68187086Y-38203354D01*
X68187093Y-38203350D01*
X68302187Y-38117190D01*
X68302190Y-38117187D01*
X68388349Y-38002094D01*
X68390878Y-37997464D01*
X68440282Y-37948058D01*
X68508554Y-37933204D01*
X68574020Y-37957619D01*
X68608543Y-37997459D01*
X68611204Y-38002332D01*
X68697452Y-38117544D01*
X68697455Y-38117547D01*
X68812664Y-38203793D01*
X68812671Y-38203797D01*
X68947517Y-38254091D01*
X68947516Y-38254091D01*
X68954444Y-38254835D01*
X69007127Y-38260500D01*
X69792872Y-38260499D01*
X69852483Y-38254091D01*
X69987331Y-38203796D01*
X70102546Y-38117546D01*
X70188796Y-38002331D01*
X70239091Y-37867483D01*
X70245500Y-37807873D01*
X70245499Y-36142128D01*
X70239091Y-36082517D01*
X70188796Y-35947669D01*
X70188795Y-35947668D01*
X70188793Y-35947664D01*
X70102547Y-35832455D01*
X70102544Y-35832452D01*
X69987335Y-35746206D01*
X69987328Y-35746202D01*
X69852482Y-35695908D01*
X69852483Y-35695908D01*
X69792883Y-35689501D01*
X69792881Y-35689500D01*
X69792873Y-35689500D01*
X69792865Y-35689500D01*
X69015097Y-35689500D01*
X68948058Y-35669815D01*
X68927416Y-35653181D01*
X68412590Y-35138355D01*
X68412588Y-35138352D01*
X68293717Y-35019481D01*
X68293716Y-35019480D01*
X68281773Y-35012585D01*
X68215074Y-34974076D01*
X68215069Y-34974074D01*
X68206904Y-34969360D01*
X68156785Y-34940423D01*
X68067156Y-34916406D01*
X68060794Y-34913926D01*
X68044179Y-34901102D01*
X68018156Y-34886077D01*
X68010292Y-34878213D01*
X68010288Y-34878210D01*
X67879185Y-34790609D01*
X67879172Y-34790602D01*
X67733501Y-34730264D01*
X67733489Y-34730261D01*
X67578845Y-34699500D01*
X67578842Y-34699500D01*
X67421158Y-34699500D01*
X67421155Y-34699500D01*
X67266510Y-34730261D01*
X67266498Y-34730264D01*
X67120827Y-34790602D01*
X67120814Y-34790609D01*
X66989711Y-34878210D01*
X66989707Y-34878213D01*
X66878213Y-34989707D01*
X66878210Y-34989711D01*
X66790609Y-35120814D01*
X66790602Y-35120827D01*
X66730264Y-35266498D01*
X66730261Y-35266510D01*
X66699500Y-35421153D01*
X66053080Y-35421153D01*
X67127417Y-34346816D01*
X67188738Y-34313333D01*
X67215086Y-34310499D01*
X67992872Y-34310499D01*
X68052483Y-34304091D01*
X68187331Y-34253796D01*
X68302546Y-34167546D01*
X68388796Y-34052331D01*
X68388796Y-34052328D01*
X68391453Y-34047465D01*
X68440856Y-33998058D01*
X68509128Y-33983204D01*
X68574594Y-34007618D01*
X68609117Y-34047458D01*
X68611645Y-34052088D01*
X68697809Y-34167187D01*
X68697812Y-34167190D01*
X68812906Y-34253350D01*
X68812913Y-34253354D01*
X68947620Y-34303596D01*
X68947627Y-34303598D01*
X69007155Y-34309999D01*
X69007172Y-34310000D01*
X69150000Y-34310000D01*
X69650000Y-34310000D01*
X69792828Y-34310000D01*
X69792844Y-34309999D01*
X69852372Y-34303598D01*
X69852379Y-34303596D01*
X69987086Y-34253354D01*
X69987093Y-34253350D01*
X70102187Y-34167190D01*
X70102190Y-34167187D01*
X70188350Y-34052093D01*
X70188354Y-34052086D01*
X70238596Y-33917379D01*
X70238598Y-33917372D01*
X70244999Y-33857844D01*
X70245000Y-33857827D01*
X70245000Y-33275000D01*
X69650000Y-33275000D01*
X69650000Y-34310000D01*
X69150000Y-34310000D01*
X69150000Y-32775000D01*
X69650000Y-32775000D01*
X70245000Y-32775000D01*
X70245000Y-32192172D01*
X70244999Y-32192155D01*
X70238598Y-32132627D01*
X70238596Y-32132620D01*
X70188354Y-31997913D01*
X70188350Y-31997906D01*
X70102190Y-31882812D01*
X70102187Y-31882809D01*
X69987093Y-31796649D01*
X69987086Y-31796645D01*
X69852379Y-31746403D01*
X69852372Y-31746401D01*
X69792844Y-31740000D01*
X69650000Y-31740000D01*
X69650000Y-32775000D01*
X69150000Y-32775000D01*
X69150000Y-31740000D01*
X69007155Y-31740000D01*
X68947627Y-31746401D01*
X68947620Y-31746403D01*
X68812913Y-31796645D01*
X68812906Y-31796649D01*
X68697812Y-31882809D01*
X68697809Y-31882812D01*
X68611644Y-31997912D01*
X68609115Y-32002545D01*
X68559707Y-32051947D01*
X68491433Y-32066794D01*
X68425970Y-32042373D01*
X68391455Y-32002537D01*
X68388796Y-31997668D01*
X68302547Y-31882455D01*
X68302544Y-31882452D01*
X68187335Y-31796206D01*
X68187328Y-31796202D01*
X68052482Y-31745908D01*
X68052483Y-31745908D01*
X67992883Y-31739501D01*
X67992881Y-31739500D01*
X67992873Y-31739500D01*
X67992864Y-31739500D01*
X67207129Y-31739500D01*
X67207123Y-31739501D01*
X67147516Y-31745908D01*
X67012664Y-31796205D01*
X67009709Y-31797819D01*
X67006419Y-31798534D01*
X67004359Y-31799303D01*
X67004248Y-31799006D01*
X66941436Y-31812669D01*
X66884685Y-31793214D01*
X66884546Y-31793475D01*
X66882940Y-31792616D01*
X66881395Y-31792087D01*
X66879176Y-31790604D01*
X66879174Y-31790603D01*
X66733501Y-31730264D01*
X66733489Y-31730261D01*
X66578845Y-31699500D01*
X66578842Y-31699500D01*
X66421158Y-31699500D01*
X66421155Y-31699500D01*
X66266510Y-31730261D01*
X66266498Y-31730264D01*
X66120827Y-31790602D01*
X66120814Y-31790609D01*
X65989711Y-31878210D01*
X65989707Y-31878213D01*
X65878213Y-31989707D01*
X65878210Y-31989711D01*
X65790609Y-32120814D01*
X65790602Y-32120827D01*
X65730264Y-32266498D01*
X65730261Y-32266510D01*
X65699500Y-32421153D01*
X65699500Y-32578846D01*
X65730261Y-32733489D01*
X65730264Y-32733501D01*
X65790602Y-32879172D01*
X65790609Y-32879185D01*
X65878210Y-33010288D01*
X65878213Y-33010292D01*
X65989707Y-33121786D01*
X65989711Y-33121789D01*
X66120814Y-33209390D01*
X66120827Y-33209397D01*
X66264419Y-33268874D01*
X66318823Y-33312714D01*
X66340888Y-33379009D01*
X66323609Y-33446708D01*
X66304648Y-33471116D01*
X64639484Y-35136279D01*
X64578161Y-35169764D01*
X64549584Y-35167720D01*
X64549584Y-35170000D01*
X63444560Y-35170000D01*
X63475245Y-35116853D01*
X63510000Y-34987143D01*
X63510000Y-34852857D01*
X63475245Y-34723147D01*
X63444560Y-34670000D01*
X64492419Y-34670000D01*
X64481389Y-34600364D01*
X64414996Y-34396024D01*
X64317452Y-34204583D01*
X64191161Y-34030759D01*
X64039240Y-33878838D01*
X63865416Y-33752547D01*
X63673975Y-33655003D01*
X63469641Y-33588611D01*
X63257427Y-33555000D01*
X63250000Y-33555000D01*
X63250000Y-34475439D01*
X63196853Y-34444755D01*
X63067143Y-34410000D01*
X62932857Y-34410000D01*
X62803147Y-34444755D01*
X62750000Y-34475439D01*
X62750000Y-33555000D01*
X62742573Y-33555000D01*
X62530360Y-33588611D01*
X62530357Y-33588611D01*
X62326024Y-33655003D01*
X62134583Y-33752547D01*
X61960759Y-33878838D01*
X61808838Y-34030759D01*
X61808838Y-34030760D01*
X61724818Y-34146403D01*
X61669488Y-34189068D01*
X61599874Y-34195047D01*
X61538079Y-34162441D01*
X61503722Y-34101602D01*
X61500500Y-34073517D01*
X61500500Y-28124500D01*
X61520185Y-28057461D01*
X61572989Y-28011706D01*
X61624500Y-28000500D01*
X64123182Y-28000500D01*
X64190221Y-28020185D01*
G37*
%TD.AperFunction*%
%TD*%
M02*
