%TF.GenerationSoftware,KiCad,Pcbnew,9.0.2*%
%TF.CreationDate,2025-06-30T19:44:14-04:00*%
%TF.ProjectId,CustomML2,43757374-6f6d-44d4-9c32-2e6b69636164,rev?*%
%TF.SameCoordinates,Original*%
%TF.FileFunction,Legend,Top*%
%TF.FilePolarity,Positive*%
%FSLAX46Y46*%
G04 Gerber Fmt 4.6, Leading zero omitted, Abs format (unit mm)*
G04 Created by KiCad (PCBNEW 9.0.2) date 2025-06-30 19:44:14*
%MOMM*%
%LPD*%
G01*
G04 APERTURE LIST*
%ADD10C,0.150000*%
%ADD11C,0.127000*%
%ADD12C,0.200000*%
G04 APERTURE END LIST*
D10*
X58904819Y-38873333D02*
X59619104Y-38873333D01*
X59619104Y-38873333D02*
X59761961Y-38920952D01*
X59761961Y-38920952D02*
X59857200Y-39016190D01*
X59857200Y-39016190D02*
X59904819Y-39159047D01*
X59904819Y-39159047D02*
X59904819Y-39254285D01*
X59904819Y-37873333D02*
X59904819Y-38444761D01*
X59904819Y-38159047D02*
X58904819Y-38159047D01*
X58904819Y-38159047D02*
X59047676Y-38254285D01*
X59047676Y-38254285D02*
X59142914Y-38349523D01*
X59142914Y-38349523D02*
X59190533Y-38444761D01*
X64666666Y-45804819D02*
X64333333Y-45328628D01*
X64095238Y-45804819D02*
X64095238Y-44804819D01*
X64095238Y-44804819D02*
X64476190Y-44804819D01*
X64476190Y-44804819D02*
X64571428Y-44852438D01*
X64571428Y-44852438D02*
X64619047Y-44900057D01*
X64619047Y-44900057D02*
X64666666Y-44995295D01*
X64666666Y-44995295D02*
X64666666Y-45138152D01*
X64666666Y-45138152D02*
X64619047Y-45233390D01*
X64619047Y-45233390D02*
X64571428Y-45281009D01*
X64571428Y-45281009D02*
X64476190Y-45328628D01*
X64476190Y-45328628D02*
X64095238Y-45328628D01*
X65095238Y-45281009D02*
X65428571Y-45281009D01*
X65571428Y-45804819D02*
X65095238Y-45804819D01*
X65095238Y-45804819D02*
X65095238Y-44804819D01*
X65095238Y-44804819D02*
X65571428Y-44804819D01*
X66333333Y-45281009D02*
X66000000Y-45281009D01*
X66000000Y-45804819D02*
X66000000Y-44804819D01*
X66000000Y-44804819D02*
X66476190Y-44804819D01*
X67000000Y-44804819D02*
X67000000Y-45042914D01*
X66761905Y-44947676D02*
X67000000Y-45042914D01*
X67000000Y-45042914D02*
X67238095Y-44947676D01*
X66857143Y-45233390D02*
X67000000Y-45042914D01*
X67000000Y-45042914D02*
X67142857Y-45233390D01*
X67761905Y-44804819D02*
X67761905Y-45042914D01*
X67523810Y-44947676D02*
X67761905Y-45042914D01*
X67761905Y-45042914D02*
X68000000Y-44947676D01*
X67619048Y-45233390D02*
X67761905Y-45042914D01*
X67761905Y-45042914D02*
X67904762Y-45233390D01*
X64666666Y-23804819D02*
X64333333Y-23328628D01*
X64095238Y-23804819D02*
X64095238Y-22804819D01*
X64095238Y-22804819D02*
X64476190Y-22804819D01*
X64476190Y-22804819D02*
X64571428Y-22852438D01*
X64571428Y-22852438D02*
X64619047Y-22900057D01*
X64619047Y-22900057D02*
X64666666Y-22995295D01*
X64666666Y-22995295D02*
X64666666Y-23138152D01*
X64666666Y-23138152D02*
X64619047Y-23233390D01*
X64619047Y-23233390D02*
X64571428Y-23281009D01*
X64571428Y-23281009D02*
X64476190Y-23328628D01*
X64476190Y-23328628D02*
X64095238Y-23328628D01*
X65095238Y-23281009D02*
X65428571Y-23281009D01*
X65571428Y-23804819D02*
X65095238Y-23804819D01*
X65095238Y-23804819D02*
X65095238Y-22804819D01*
X65095238Y-22804819D02*
X65571428Y-22804819D01*
X66333333Y-23281009D02*
X66000000Y-23281009D01*
X66000000Y-23804819D02*
X66000000Y-22804819D01*
X66000000Y-22804819D02*
X66476190Y-22804819D01*
X67000000Y-22804819D02*
X67000000Y-23042914D01*
X66761905Y-22947676D02*
X67000000Y-23042914D01*
X67000000Y-23042914D02*
X67238095Y-22947676D01*
X66857143Y-23233390D02*
X67000000Y-23042914D01*
X67000000Y-23042914D02*
X67142857Y-23233390D01*
X67761905Y-22804819D02*
X67761905Y-23042914D01*
X67523810Y-22947676D02*
X67761905Y-23042914D01*
X67761905Y-23042914D02*
X68000000Y-22947676D01*
X67619048Y-23233390D02*
X67761905Y-23042914D01*
X67761905Y-23042914D02*
X67904762Y-23233390D01*
X66363095Y-38229819D02*
X66363095Y-39039342D01*
X66363095Y-39039342D02*
X66410714Y-39134580D01*
X66410714Y-39134580D02*
X66458333Y-39182200D01*
X66458333Y-39182200D02*
X66553571Y-39229819D01*
X66553571Y-39229819D02*
X66744047Y-39229819D01*
X66744047Y-39229819D02*
X66839285Y-39182200D01*
X66839285Y-39182200D02*
X66886904Y-39134580D01*
X66886904Y-39134580D02*
X66934523Y-39039342D01*
X66934523Y-39039342D02*
X66934523Y-38229819D01*
X67363095Y-38325057D02*
X67410714Y-38277438D01*
X67410714Y-38277438D02*
X67505952Y-38229819D01*
X67505952Y-38229819D02*
X67744047Y-38229819D01*
X67744047Y-38229819D02*
X67839285Y-38277438D01*
X67839285Y-38277438D02*
X67886904Y-38325057D01*
X67886904Y-38325057D02*
X67934523Y-38420295D01*
X67934523Y-38420295D02*
X67934523Y-38515533D01*
X67934523Y-38515533D02*
X67886904Y-38658390D01*
X67886904Y-38658390D02*
X67315476Y-39229819D01*
X67315476Y-39229819D02*
X67934523Y-39229819D01*
X66363095Y-45229819D02*
X66363095Y-46039342D01*
X66363095Y-46039342D02*
X66410714Y-46134580D01*
X66410714Y-46134580D02*
X66458333Y-46182200D01*
X66458333Y-46182200D02*
X66553571Y-46229819D01*
X66553571Y-46229819D02*
X66744047Y-46229819D01*
X66744047Y-46229819D02*
X66839285Y-46182200D01*
X66839285Y-46182200D02*
X66886904Y-46134580D01*
X66886904Y-46134580D02*
X66934523Y-46039342D01*
X66934523Y-46039342D02*
X66934523Y-45229819D01*
X67934523Y-46229819D02*
X67363095Y-46229819D01*
X67648809Y-46229819D02*
X67648809Y-45229819D01*
X67648809Y-45229819D02*
X67553571Y-45372676D01*
X67553571Y-45372676D02*
X67458333Y-45467914D01*
X67458333Y-45467914D02*
X67363095Y-45515533D01*
D11*
%TO.C,U2*%
X66700000Y-33550000D02*
X66900000Y-33550000D01*
X66700000Y-36450000D02*
X66700000Y-33550000D01*
X66700000Y-36450000D02*
X66900000Y-36450000D01*
X70300000Y-33550000D02*
X70100000Y-33550000D01*
X70300000Y-36450000D02*
X70100000Y-36450000D01*
X70300000Y-36450000D02*
X70300000Y-33550000D01*
D12*
X70500000Y-37200000D02*
G75*
G02*
X70300000Y-37200000I-100000J0D01*
G01*
X70300000Y-37200000D02*
G75*
G02*
X70500000Y-37200000I100000J0D01*
G01*
D11*
%TO.C,U1*%
X66700000Y-40550000D02*
X66900000Y-40550000D01*
X66700000Y-43450000D02*
X66700000Y-40550000D01*
X66700000Y-43450000D02*
X66900000Y-43450000D01*
X70300000Y-40550000D02*
X70100000Y-40550000D01*
X70300000Y-43450000D02*
X70100000Y-43450000D01*
X70300000Y-43450000D02*
X70300000Y-40550000D01*
D12*
X70500000Y-44200000D02*
G75*
G02*
X70300000Y-44200000I-100000J0D01*
G01*
X70300000Y-44200000D02*
G75*
G02*
X70500000Y-44200000I100000J0D01*
G01*
%TD*%
M02*
