%TF.GenerationSoftware,KiCad,Pcbnew,9.0.2*%
%TF.CreationDate,2025-08-21T12:35:34-04:00*%
%TF.ProjectId,CustomML2,43757374-6f6d-44d4-9c32-2e6b69636164,rev?*%
%TF.SameCoordinates,Original*%
%TF.FileFunction,Copper,L2,Bot*%
%TF.FilePolarity,Positive*%
%FSLAX46Y46*%
G04 Gerber Fmt 4.6, Leading zero omitted, Abs format (unit mm)*
G04 Created by KiCad (PCBNEW 9.0.2) date 2025-08-21 12:35:34*
%MOMM*%
%LPD*%
G01*
G04 APERTURE LIST*
%TA.AperFunction,ComponentPad*%
%ADD10R,1.700000X1.700000*%
%TD*%
%TA.AperFunction,ComponentPad*%
%ADD11C,1.700000*%
%TD*%
%TA.AperFunction,ViaPad*%
%ADD12C,0.600000*%
%TD*%
%TA.AperFunction,Conductor*%
%ADD13C,0.200000*%
%TD*%
G04 APERTURE END LIST*
D10*
%TO.P,J1,1,Pin_1*%
%TO.N,3.3V*%
X41000000Y-35920000D03*
D11*
%TO.P,J1,2,Pin_2*%
%TO.N,Signal1*%
X41000000Y-38460000D03*
%TO.P,J1,3,Pin_3*%
%TO.N,Signal2*%
X41000000Y-41000000D03*
%TO.P,J1,4,Pin_4*%
%TO.N,GND*%
X41000000Y-43540000D03*
%TD*%
D12*
%TO.N,3.3V*%
X42750000Y-38250000D03*
%TO.N,GND*%
X48000000Y-38250000D03*
X46000000Y-41750000D03*
X46000000Y-34250000D03*
%TD*%
D13*
%TO.N,3.3V*%
X42750000Y-38250000D02*
X41000000Y-36500000D01*
X41000000Y-36500000D02*
X41000000Y-35920000D01*
%TD*%
%TA.AperFunction,Conductor*%
%TO.N,GND*%
G36*
X48598941Y-33269685D02*
G01*
X48644696Y-33322489D01*
X48655902Y-33374000D01*
X48655902Y-45626000D01*
X48636217Y-45693039D01*
X48583413Y-45738794D01*
X48531902Y-45750000D01*
X39780902Y-45750000D01*
X39713863Y-45730315D01*
X39668108Y-45677511D01*
X39656902Y-45626000D01*
X39656902Y-44369773D01*
X39676587Y-44302734D01*
X39729391Y-44256979D01*
X39798549Y-44247035D01*
X39862105Y-44276060D01*
X39881221Y-44296889D01*
X39884728Y-44301716D01*
X40517037Y-43669408D01*
X40534075Y-43732993D01*
X40599901Y-43847007D01*
X40692993Y-43940099D01*
X40807007Y-44005925D01*
X40870590Y-44022962D01*
X40238282Y-44655269D01*
X40238282Y-44655270D01*
X40292449Y-44694624D01*
X40481782Y-44791095D01*
X40683870Y-44856757D01*
X40893754Y-44890000D01*
X41106246Y-44890000D01*
X41316127Y-44856757D01*
X41316130Y-44856757D01*
X41518217Y-44791095D01*
X41707554Y-44694622D01*
X41761716Y-44655270D01*
X41761717Y-44655270D01*
X41129408Y-44022962D01*
X41192993Y-44005925D01*
X41307007Y-43940099D01*
X41400099Y-43847007D01*
X41465925Y-43732993D01*
X41482962Y-43669409D01*
X42115270Y-44301717D01*
X42115270Y-44301716D01*
X42154622Y-44247554D01*
X42251095Y-44058217D01*
X42316757Y-43856130D01*
X42316757Y-43856127D01*
X42350000Y-43646246D01*
X42350000Y-43433753D01*
X42316757Y-43223872D01*
X42316757Y-43223869D01*
X42251095Y-43021782D01*
X42154624Y-42832449D01*
X42115270Y-42778282D01*
X42115269Y-42778282D01*
X41482962Y-43410590D01*
X41465925Y-43347007D01*
X41400099Y-43232993D01*
X41307007Y-43139901D01*
X41192993Y-43074075D01*
X41129409Y-43057037D01*
X41761716Y-42424728D01*
X41707547Y-42385373D01*
X41707547Y-42385372D01*
X41698500Y-42380763D01*
X41647706Y-42332788D01*
X41630912Y-42264966D01*
X41653451Y-42198832D01*
X41698508Y-42159793D01*
X41707816Y-42155051D01*
X41787007Y-42097515D01*
X41879786Y-42030109D01*
X41879788Y-42030106D01*
X41879792Y-42030104D01*
X42030104Y-41879792D01*
X42030106Y-41879788D01*
X42030109Y-41879786D01*
X42155048Y-41707820D01*
X42155047Y-41707820D01*
X42155051Y-41707816D01*
X42251557Y-41518412D01*
X42317246Y-41316243D01*
X42350500Y-41106287D01*
X42350500Y-40893713D01*
X42317246Y-40683757D01*
X42251557Y-40481588D01*
X42155051Y-40292184D01*
X42155049Y-40292181D01*
X42155048Y-40292179D01*
X42030109Y-40120213D01*
X41879786Y-39969890D01*
X41707820Y-39844951D01*
X41707115Y-39844591D01*
X41699054Y-39840485D01*
X41648259Y-39792512D01*
X41631463Y-39724692D01*
X41653999Y-39658556D01*
X41699054Y-39619515D01*
X41707816Y-39615051D01*
X41729789Y-39599086D01*
X41879786Y-39490109D01*
X41879788Y-39490106D01*
X41879792Y-39490104D01*
X42030104Y-39339792D01*
X42030106Y-39339788D01*
X42030109Y-39339786D01*
X42155050Y-39167817D01*
X42228304Y-39024048D01*
X42276278Y-38973251D01*
X42344099Y-38956456D01*
X42386239Y-38965780D01*
X42516503Y-39019737D01*
X42671153Y-39050499D01*
X42671156Y-39050500D01*
X42671158Y-39050500D01*
X42828844Y-39050500D01*
X42828845Y-39050499D01*
X42983497Y-39019737D01*
X43129179Y-38959394D01*
X43260289Y-38871789D01*
X43371789Y-38760289D01*
X43459394Y-38629179D01*
X43519737Y-38483497D01*
X43550500Y-38328842D01*
X43550500Y-38171158D01*
X43550500Y-38171155D01*
X43550499Y-38171153D01*
X43519737Y-38016503D01*
X43519735Y-38016498D01*
X43459397Y-37870827D01*
X43459390Y-37870814D01*
X43371789Y-37739711D01*
X43371786Y-37739707D01*
X43260292Y-37628213D01*
X43260288Y-37628210D01*
X43129185Y-37540609D01*
X43129172Y-37540602D01*
X42983501Y-37480264D01*
X42983491Y-37480261D01*
X42828151Y-37449362D01*
X42766241Y-37416977D01*
X42764662Y-37415426D01*
X42368555Y-37019319D01*
X42335070Y-36957996D01*
X42340053Y-36888307D01*
X42344091Y-36877483D01*
X42350500Y-36817873D01*
X42350499Y-35022128D01*
X42344091Y-34962517D01*
X42293796Y-34827669D01*
X42293795Y-34827668D01*
X42293793Y-34827664D01*
X42207547Y-34712455D01*
X42207544Y-34712452D01*
X42092335Y-34626206D01*
X42092328Y-34626202D01*
X41957482Y-34575908D01*
X41957483Y-34575908D01*
X41897883Y-34569501D01*
X41897881Y-34569500D01*
X41897873Y-34569500D01*
X41897864Y-34569500D01*
X40102129Y-34569500D01*
X40102123Y-34569501D01*
X40042516Y-34575908D01*
X39907671Y-34626202D01*
X39907665Y-34626206D01*
X39855212Y-34665472D01*
X39789748Y-34689889D01*
X39721475Y-34675037D01*
X39672070Y-34625632D01*
X39656902Y-34566205D01*
X39656902Y-33374000D01*
X39676587Y-33306961D01*
X39729391Y-33261206D01*
X39780902Y-33250000D01*
X48531902Y-33250000D01*
X48598941Y-33269685D01*
G37*
%TD.AperFunction*%
%TA.AperFunction,Conductor*%
G36*
X39862105Y-41736912D02*
G01*
X39881220Y-41757740D01*
X39969890Y-41879786D01*
X40120213Y-42030109D01*
X40292179Y-42155048D01*
X40292181Y-42155049D01*
X40292184Y-42155051D01*
X40301493Y-42159794D01*
X40352290Y-42207766D01*
X40369087Y-42275587D01*
X40346552Y-42341722D01*
X40301505Y-42380760D01*
X40292446Y-42385376D01*
X40292440Y-42385380D01*
X40238282Y-42424727D01*
X40238282Y-42424728D01*
X40870591Y-43057037D01*
X40807007Y-43074075D01*
X40692993Y-43139901D01*
X40599901Y-43232993D01*
X40534075Y-43347007D01*
X40517037Y-43410591D01*
X39884728Y-42778282D01*
X39884727Y-42778282D01*
X39881221Y-42783109D01*
X39825891Y-42825775D01*
X39756277Y-42831754D01*
X39694482Y-42799149D01*
X39660125Y-42738310D01*
X39656902Y-42710224D01*
X39656902Y-41830625D01*
X39676587Y-41763586D01*
X39729391Y-41717831D01*
X39798549Y-41707887D01*
X39862105Y-41736912D01*
G37*
%TD.AperFunction*%
%TD*%
M02*
