%TF.GenerationSoftware,KiCad,Pcbnew,9.0.2*%
%TF.CreationDate,2025-08-21T12:35:34-04:00*%
%TF.ProjectId,CustomML2,43757374-6f6d-44d4-9c32-2e6b69636164,rev?*%
%TF.SameCoordinates,Original*%
%TF.FileFunction,Copper,L1,Top*%
%TF.FilePolarity,Positive*%
%FSLAX46Y46*%
G04 Gerber Fmt 4.6, Leading zero omitted, Abs format (unit mm)*
G04 Created by KiCad (PCBNEW 9.0.2) date 2025-08-21 12:35:34*
%MOMM*%
%LPD*%
G01*
G04 APERTURE LIST*
G04 Aperture macros list*
%AMRoundRect*
0 Rectangle with rounded corners*
0 $1 Rounding radius*
0 $2 $3 $4 $5 $6 $7 $8 $9 X,Y pos of 4 corners*
0 Add a 4 corners polygon primitive as box body*
4,1,4,$2,$3,$4,$5,$6,$7,$8,$9,$2,$3,0*
0 Add four circle primitives for the rounded corners*
1,1,$1+$1,$2,$3*
1,1,$1+$1,$4,$5*
1,1,$1+$1,$6,$7*
1,1,$1+$1,$8,$9*
0 Add four rect primitives between the rounded corners*
20,1,$1+$1,$2,$3,$4,$5,0*
20,1,$1+$1,$4,$5,$6,$7,0*
20,1,$1+$1,$6,$7,$8,$9,0*
20,1,$1+$1,$8,$9,$2,$3,0*%
G04 Aperture macros list end*
%TA.AperFunction,SMDPad,CuDef*%
%ADD10RoundRect,0.100000X0.100000X-0.217500X0.100000X0.217500X-0.100000X0.217500X-0.100000X-0.217500X0*%
%TD*%
%TA.AperFunction,SMDPad,CuDef*%
%ADD11R,1.570000X0.690000*%
%TD*%
%TA.AperFunction,SMDPad,CuDef*%
%ADD12RoundRect,0.100000X-0.100000X0.217500X-0.100000X-0.217500X0.100000X-0.217500X0.100000X0.217500X0*%
%TD*%
%TA.AperFunction,ComponentPad*%
%ADD13R,1.700000X1.700000*%
%TD*%
%TA.AperFunction,ComponentPad*%
%ADD14C,1.700000*%
%TD*%
%TA.AperFunction,ViaPad*%
%ADD15C,0.600000*%
%TD*%
%TA.AperFunction,Conductor*%
%ADD16C,0.200000*%
%TD*%
G04 APERTURE END LIST*
D10*
%TO.P,R2,1*%
%TO.N,Signal2*%
X43380876Y-40152260D03*
%TO.P,R2,2*%
%TO.N,3.3V*%
X43380876Y-39337260D03*
%TD*%
%TO.P,R1,1*%
%TO.N,Net-(R1-Pad1)*%
X48500000Y-40157500D03*
%TO.P,R1,2*%
%TO.N,3.3V*%
X48500000Y-39342500D03*
%TD*%
D11*
%TO.P,U1,1*%
%TO.N,Net-(R3-Pad1)*%
X47975000Y-35600000D03*
%TO.P,U1,2*%
%TO.N,GND*%
X44025000Y-35600000D03*
%TO.P,U1,3*%
%TO.N,Signal1*%
X44025000Y-37400000D03*
%TO.P,U1,4*%
%TO.N,GND*%
X47975000Y-37400000D03*
%TD*%
%TO.P,U2,1*%
%TO.N,Net-(R1-Pad1)*%
X47975000Y-42100000D03*
%TO.P,U2,2*%
%TO.N,GND*%
X44025000Y-42100000D03*
%TO.P,U2,3*%
%TO.N,Signal2*%
X44025000Y-43900000D03*
%TO.P,U2,4*%
%TO.N,GND*%
X47975000Y-43900000D03*
%TD*%
D12*
%TO.P,R4,1*%
%TO.N,Signal1*%
X45000000Y-39342500D03*
%TO.P,R4,2*%
%TO.N,3.3V*%
X45000000Y-40157500D03*
%TD*%
%TO.P,R3,1*%
%TO.N,Net-(R3-Pad1)*%
X46750000Y-39342500D03*
%TO.P,R3,2*%
%TO.N,3.3V*%
X46750000Y-40157500D03*
%TD*%
D13*
%TO.P,J1,1,Pin_1*%
%TO.N,3.3V*%
X41000000Y-35920000D03*
D14*
%TO.P,J1,2,Pin_2*%
%TO.N,Signal1*%
X41000000Y-38460000D03*
%TO.P,J1,3,Pin_3*%
%TO.N,Signal2*%
X41000000Y-41000000D03*
%TO.P,J1,4,Pin_4*%
%TO.N,GND*%
X41000000Y-43540000D03*
%TD*%
D15*
%TO.N,3.3V*%
X42750000Y-38250000D03*
%TO.N,GND*%
X48000000Y-38250000D03*
X46000000Y-41750000D03*
X46000000Y-34250000D03*
%TD*%
D16*
%TO.N,3.3V*%
X43380876Y-39337260D02*
X43380876Y-38880876D01*
X47637370Y-39342500D02*
X46822370Y-40157500D01*
X45000000Y-40157500D02*
X44273486Y-40157500D01*
X43380876Y-38880876D02*
X42750000Y-38250000D01*
X46822370Y-40157500D02*
X46750000Y-40157500D01*
X45000000Y-40157500D02*
X46750000Y-40157500D01*
X44273486Y-40157500D02*
X43453246Y-39337260D01*
X43453246Y-39337260D02*
X43380876Y-39337260D01*
X48500000Y-39342500D02*
X47637370Y-39342500D01*
%TO.N,Signal2*%
X43380876Y-40152260D02*
X42533136Y-41000000D01*
X44025000Y-43900000D02*
X43900000Y-43900000D01*
X42533136Y-41000000D02*
X41000000Y-41000000D01*
X43900000Y-43900000D02*
X41000000Y-41000000D01*
%TO.N,Signal1*%
X45000000Y-38375000D02*
X44025000Y-37400000D01*
X42060000Y-37400000D02*
X41000000Y-38460000D01*
X45000000Y-39342500D02*
X45000000Y-38375000D01*
X44025000Y-37400000D02*
X42060000Y-37400000D01*
%TO.N,Net-(R1-Pad1)*%
X47975000Y-42100000D02*
X47975000Y-40682500D01*
X47975000Y-40682500D02*
X48500000Y-40157500D01*
%TO.N,Net-(R3-Pad1)*%
X45250000Y-36000000D02*
X45650000Y-35600000D01*
X46750000Y-39342500D02*
X45250000Y-37842500D01*
X45650000Y-35600000D02*
X47975000Y-35600000D01*
X45250000Y-37842500D02*
X45250000Y-36000000D01*
%TD*%
%TA.AperFunction,Conductor*%
%TO.N,GND*%
G36*
X44063260Y-40722853D02*
G01*
X44194429Y-40758001D01*
X44194432Y-40758001D01*
X44360140Y-40758001D01*
X44360156Y-40758000D01*
X44375822Y-40758000D01*
X44442861Y-40777685D01*
X44465237Y-40798268D01*
X44465971Y-40797535D01*
X44471713Y-40803277D01*
X44471715Y-40803279D01*
X44471718Y-40803282D01*
X44597159Y-40899536D01*
X44743238Y-40960044D01*
X44860639Y-40975500D01*
X45139360Y-40975499D01*
X45139363Y-40975499D01*
X45256753Y-40960046D01*
X45256757Y-40960044D01*
X45256762Y-40960044D01*
X45402841Y-40899536D01*
X45528282Y-40803282D01*
X45528286Y-40803277D01*
X45534029Y-40797535D01*
X45535745Y-40799251D01*
X45582236Y-40765309D01*
X45624178Y-40758000D01*
X46125822Y-40758000D01*
X46192861Y-40777685D01*
X46215237Y-40798268D01*
X46215971Y-40797535D01*
X46221713Y-40803277D01*
X46221715Y-40803279D01*
X46221718Y-40803282D01*
X46347159Y-40899536D01*
X46493238Y-40960044D01*
X46610639Y-40975500D01*
X46889360Y-40975499D01*
X46889363Y-40975499D01*
X47006753Y-40960046D01*
X47006757Y-40960044D01*
X47006762Y-40960044D01*
X47152841Y-40899536D01*
X47175013Y-40882523D01*
X47188258Y-40877402D01*
X47198989Y-40868104D01*
X47220196Y-40865054D01*
X47240182Y-40857328D01*
X47254091Y-40860180D01*
X47268147Y-40858160D01*
X47287637Y-40867061D01*
X47308627Y-40871366D01*
X47318786Y-40881286D01*
X47331703Y-40887185D01*
X47343286Y-40905209D01*
X47358617Y-40920179D01*
X47362536Y-40935163D01*
X47369477Y-40945963D01*
X47374500Y-40980898D01*
X47374500Y-41130500D01*
X47354815Y-41197539D01*
X47302011Y-41243294D01*
X47250501Y-41254500D01*
X47142130Y-41254500D01*
X47142123Y-41254501D01*
X47082516Y-41260908D01*
X46947671Y-41311202D01*
X46947664Y-41311206D01*
X46832455Y-41397452D01*
X46832452Y-41397455D01*
X46746206Y-41512664D01*
X46746202Y-41512671D01*
X46695908Y-41647517D01*
X46689501Y-41707116D01*
X46689500Y-41707135D01*
X46689500Y-42492870D01*
X46689501Y-42492876D01*
X46695908Y-42552483D01*
X46746202Y-42687328D01*
X46746206Y-42687335D01*
X46832452Y-42802544D01*
X46832455Y-42802547D01*
X46947668Y-42888796D01*
X46952537Y-42891455D01*
X47001943Y-42940860D01*
X47016795Y-43009133D01*
X46992378Y-43074597D01*
X46952545Y-43109115D01*
X46947912Y-43111644D01*
X46832812Y-43197809D01*
X46832809Y-43197812D01*
X46746649Y-43312906D01*
X46746645Y-43312913D01*
X46696403Y-43447620D01*
X46696401Y-43447627D01*
X46690000Y-43507155D01*
X46690000Y-43650000D01*
X47851000Y-43650000D01*
X47918039Y-43669685D01*
X47963794Y-43722489D01*
X47975000Y-43774000D01*
X47975000Y-43900000D01*
X48101000Y-43900000D01*
X48168039Y-43919685D01*
X48213794Y-43972489D01*
X48225000Y-44024000D01*
X48225000Y-44745000D01*
X48531902Y-44745000D01*
X48598941Y-44764685D01*
X48644696Y-44817489D01*
X48655902Y-44869000D01*
X48655902Y-45626000D01*
X48636217Y-45693039D01*
X48583413Y-45738794D01*
X48531902Y-45750000D01*
X39780902Y-45750000D01*
X39713863Y-45730315D01*
X39668108Y-45677511D01*
X39656902Y-45626000D01*
X39656902Y-44369773D01*
X39676587Y-44302734D01*
X39729391Y-44256979D01*
X39798549Y-44247035D01*
X39862105Y-44276060D01*
X39881221Y-44296889D01*
X39884728Y-44301716D01*
X40517037Y-43669408D01*
X40534075Y-43732993D01*
X40599901Y-43847007D01*
X40692993Y-43940099D01*
X40807007Y-44005925D01*
X40870590Y-44022962D01*
X40238282Y-44655269D01*
X40238282Y-44655270D01*
X40292449Y-44694624D01*
X40481782Y-44791095D01*
X40683870Y-44856757D01*
X40893754Y-44890000D01*
X41106246Y-44890000D01*
X41316127Y-44856757D01*
X41316130Y-44856757D01*
X41518217Y-44791095D01*
X41707554Y-44694622D01*
X41761716Y-44655270D01*
X41761717Y-44655270D01*
X41129408Y-44022962D01*
X41192993Y-44005925D01*
X41307007Y-43940099D01*
X41400099Y-43847007D01*
X41465925Y-43732993D01*
X41482962Y-43669408D01*
X42115270Y-44301717D01*
X42115270Y-44301716D01*
X42154622Y-44247554D01*
X42251095Y-44058217D01*
X42316757Y-43856130D01*
X42316757Y-43856127D01*
X42350000Y-43646246D01*
X42350000Y-43498597D01*
X42356238Y-43477351D01*
X42357818Y-43455263D01*
X42365890Y-43444479D01*
X42369685Y-43431558D01*
X42386418Y-43417058D01*
X42399690Y-43399330D01*
X42412310Y-43394622D01*
X42422489Y-43385803D01*
X42444406Y-43382651D01*
X42465154Y-43374913D01*
X42478314Y-43377775D01*
X42491647Y-43375859D01*
X42511790Y-43385058D01*
X42533427Y-43389765D01*
X42551152Y-43403033D01*
X42555203Y-43404884D01*
X42561681Y-43410916D01*
X42703181Y-43552416D01*
X42736666Y-43613739D01*
X42739500Y-43640097D01*
X42739500Y-44292870D01*
X42739501Y-44292876D01*
X42745908Y-44352483D01*
X42796202Y-44487328D01*
X42796206Y-44487335D01*
X42882452Y-44602544D01*
X42882455Y-44602547D01*
X42997664Y-44688793D01*
X42997671Y-44688797D01*
X43132517Y-44739091D01*
X43132516Y-44739091D01*
X43139444Y-44739835D01*
X43192127Y-44745500D01*
X44857872Y-44745499D01*
X44917483Y-44739091D01*
X45052331Y-44688796D01*
X45167546Y-44602546D01*
X45253796Y-44487331D01*
X45304091Y-44352483D01*
X45310500Y-44292873D01*
X45310500Y-44292844D01*
X46690000Y-44292844D01*
X46696401Y-44352372D01*
X46696403Y-44352379D01*
X46746645Y-44487086D01*
X46746649Y-44487093D01*
X46832809Y-44602187D01*
X46832812Y-44602190D01*
X46947906Y-44688350D01*
X46947913Y-44688354D01*
X47082620Y-44738596D01*
X47082627Y-44738598D01*
X47142155Y-44744999D01*
X47142172Y-44745000D01*
X47725000Y-44745000D01*
X47725000Y-44150000D01*
X46690000Y-44150000D01*
X46690000Y-44292844D01*
X45310500Y-44292844D01*
X45310499Y-43900000D01*
X45310499Y-43507129D01*
X45310498Y-43507123D01*
X45306956Y-43474174D01*
X45304091Y-43447517D01*
X45286118Y-43399330D01*
X45253797Y-43312671D01*
X45253793Y-43312664D01*
X45167547Y-43197455D01*
X45167544Y-43197452D01*
X45052332Y-43111204D01*
X45047459Y-43108543D01*
X44998054Y-43059136D01*
X44983204Y-42990863D01*
X45007623Y-42925399D01*
X45047464Y-42890878D01*
X45052094Y-42888349D01*
X45167187Y-42802190D01*
X45167190Y-42802187D01*
X45253350Y-42687093D01*
X45253354Y-42687086D01*
X45303596Y-42552379D01*
X45303598Y-42552372D01*
X45309999Y-42492844D01*
X45310000Y-42492827D01*
X45310000Y-42350000D01*
X44149000Y-42350000D01*
X44081961Y-42330315D01*
X44036206Y-42277511D01*
X44025000Y-42226000D01*
X44025000Y-42100000D01*
X43899000Y-42100000D01*
X43831961Y-42080315D01*
X43786206Y-42027511D01*
X43775000Y-41976000D01*
X43775000Y-41850000D01*
X44275000Y-41850000D01*
X45310000Y-41850000D01*
X45310000Y-41707172D01*
X45309999Y-41707155D01*
X45303598Y-41647627D01*
X45303596Y-41647620D01*
X45253354Y-41512913D01*
X45253350Y-41512906D01*
X45167190Y-41397812D01*
X45167187Y-41397809D01*
X45052093Y-41311649D01*
X45052086Y-41311645D01*
X44917379Y-41261403D01*
X44917372Y-41261401D01*
X44857844Y-41255000D01*
X44275000Y-41255000D01*
X44275000Y-41850000D01*
X43775000Y-41850000D01*
X43775000Y-41255000D01*
X43426732Y-41255000D01*
X43405486Y-41248761D01*
X43383398Y-41247182D01*
X43372614Y-41239109D01*
X43359693Y-41235315D01*
X43345193Y-41218581D01*
X43327465Y-41205310D01*
X43322757Y-41192689D01*
X43313938Y-41182511D01*
X43310786Y-41160593D01*
X43303048Y-41139846D01*
X43305910Y-41126685D01*
X43303994Y-41113353D01*
X43313193Y-41093209D01*
X43317900Y-41071573D01*
X43331168Y-41053847D01*
X43333019Y-41049797D01*
X43339051Y-41043319D01*
X43375792Y-41006578D01*
X43437115Y-40973093D01*
X43463473Y-40970259D01*
X43520239Y-40970259D01*
X43637629Y-40954806D01*
X43637633Y-40954804D01*
X43637638Y-40954804D01*
X43783717Y-40894296D01*
X43909158Y-40798042D01*
X43932854Y-40767159D01*
X43989281Y-40725957D01*
X44059027Y-40721801D01*
X44063260Y-40722853D01*
G37*
%TD.AperFunction*%
%TA.AperFunction,Conductor*%
G36*
X39862105Y-41736912D02*
G01*
X39881220Y-41757740D01*
X39969890Y-41879786D01*
X40120213Y-42030109D01*
X40292179Y-42155048D01*
X40292181Y-42155049D01*
X40292184Y-42155051D01*
X40301493Y-42159794D01*
X40352290Y-42207766D01*
X40369087Y-42275587D01*
X40346552Y-42341722D01*
X40301505Y-42380760D01*
X40292446Y-42385376D01*
X40292440Y-42385380D01*
X40238282Y-42424727D01*
X40238282Y-42424728D01*
X40870591Y-43057037D01*
X40807007Y-43074075D01*
X40692993Y-43139901D01*
X40599901Y-43232993D01*
X40534075Y-43347007D01*
X40517037Y-43410591D01*
X39884728Y-42778282D01*
X39884727Y-42778282D01*
X39881221Y-42783109D01*
X39825891Y-42825775D01*
X39756277Y-42831754D01*
X39694482Y-42799149D01*
X39660125Y-42738310D01*
X39656902Y-42710224D01*
X39656902Y-41830625D01*
X39676587Y-41763586D01*
X39729391Y-41717831D01*
X39798549Y-41707887D01*
X39862105Y-41736912D01*
G37*
%TD.AperFunction*%
%TA.AperFunction,Conductor*%
G36*
X46761032Y-36220185D02*
G01*
X46793260Y-36250190D01*
X46832449Y-36302541D01*
X46832452Y-36302544D01*
X46832454Y-36302546D01*
X46832457Y-36302548D01*
X46947668Y-36388796D01*
X46952537Y-36391455D01*
X47001943Y-36440860D01*
X47016795Y-36509133D01*
X46992378Y-36574597D01*
X46952545Y-36609115D01*
X46947912Y-36611644D01*
X46832812Y-36697809D01*
X46832809Y-36697812D01*
X46746649Y-36812906D01*
X46746645Y-36812913D01*
X46696403Y-36947620D01*
X46696401Y-36947627D01*
X46690000Y-37007155D01*
X46690000Y-37150000D01*
X47851000Y-37150000D01*
X47918039Y-37169685D01*
X47963794Y-37222489D01*
X47975000Y-37274000D01*
X47975000Y-37400000D01*
X48101000Y-37400000D01*
X48168039Y-37419685D01*
X48213794Y-37472489D01*
X48225000Y-37524000D01*
X48225000Y-38245000D01*
X48531902Y-38245000D01*
X48540587Y-38247550D01*
X48549549Y-38246262D01*
X48573589Y-38257240D01*
X48598941Y-38264685D01*
X48604868Y-38271525D01*
X48613105Y-38275287D01*
X48627394Y-38297521D01*
X48644696Y-38317489D01*
X48646983Y-38328003D01*
X48650879Y-38334065D01*
X48655902Y-38369000D01*
X48655902Y-38400500D01*
X48636217Y-38467539D01*
X48583413Y-38513294D01*
X48531903Y-38524500D01*
X48360636Y-38524500D01*
X48243246Y-38539953D01*
X48243237Y-38539956D01*
X48097160Y-38600463D01*
X47971713Y-38696722D01*
X47965971Y-38702465D01*
X47964254Y-38700748D01*
X47917764Y-38734691D01*
X47875822Y-38742000D01*
X47558313Y-38742000D01*
X47434889Y-38775071D01*
X47365039Y-38773408D01*
X47307177Y-38734245D01*
X47304420Y-38730782D01*
X47278282Y-38696718D01*
X47152841Y-38600464D01*
X47121340Y-38587416D01*
X47006762Y-38539956D01*
X47006760Y-38539955D01*
X46889370Y-38524501D01*
X46889367Y-38524500D01*
X46889361Y-38524500D01*
X46889354Y-38524500D01*
X46832597Y-38524500D01*
X46765558Y-38504815D01*
X46744916Y-38488181D01*
X46049579Y-37792844D01*
X46690000Y-37792844D01*
X46696401Y-37852372D01*
X46696403Y-37852379D01*
X46746645Y-37987086D01*
X46746649Y-37987093D01*
X46832809Y-38102187D01*
X46832812Y-38102190D01*
X46947906Y-38188350D01*
X46947913Y-38188354D01*
X47082620Y-38238596D01*
X47082627Y-38238598D01*
X47142155Y-38244999D01*
X47142172Y-38245000D01*
X47725000Y-38245000D01*
X47725000Y-37650000D01*
X46690000Y-37650000D01*
X46690000Y-37792844D01*
X46049579Y-37792844D01*
X45886819Y-37630084D01*
X45853334Y-37568761D01*
X45850500Y-37542403D01*
X45850500Y-36324500D01*
X45870185Y-36257461D01*
X45922989Y-36211706D01*
X45974500Y-36200500D01*
X46693993Y-36200500D01*
X46761032Y-36220185D01*
G37*
%TD.AperFunction*%
%TA.AperFunction,Conductor*%
G36*
X48598941Y-33269685D02*
G01*
X48644696Y-33322489D01*
X48655902Y-33374000D01*
X48655902Y-34630500D01*
X48636217Y-34697539D01*
X48583413Y-34743294D01*
X48531902Y-34754500D01*
X47142129Y-34754500D01*
X47142123Y-34754501D01*
X47082516Y-34760908D01*
X46947671Y-34811202D01*
X46947664Y-34811206D01*
X46832457Y-34897451D01*
X46832449Y-34897458D01*
X46793260Y-34949810D01*
X46737326Y-34991682D01*
X46693993Y-34999500D01*
X45570940Y-34999500D01*
X45530019Y-35010464D01*
X45530019Y-35010465D01*
X45492751Y-35020451D01*
X45418214Y-35040423D01*
X45418211Y-35040425D01*
X45412788Y-35043556D01*
X45344887Y-35060023D01*
X45278862Y-35037166D01*
X45251529Y-35010475D01*
X45167186Y-34897809D01*
X45052093Y-34811649D01*
X45052086Y-34811645D01*
X44917379Y-34761403D01*
X44917372Y-34761401D01*
X44857844Y-34755000D01*
X44275000Y-34755000D01*
X44275000Y-35476000D01*
X44255315Y-35543039D01*
X44202511Y-35588794D01*
X44151000Y-35600000D01*
X44025000Y-35600000D01*
X44025000Y-35726000D01*
X44005315Y-35793039D01*
X43952511Y-35838794D01*
X43901000Y-35850000D01*
X42740000Y-35850000D01*
X42740000Y-35992844D01*
X42746401Y-36052372D01*
X42746403Y-36052379D01*
X42796645Y-36187086D01*
X42796649Y-36187093D01*
X42882809Y-36302187D01*
X42882812Y-36302190D01*
X42997908Y-36388352D01*
X43002538Y-36390880D01*
X43051943Y-36440286D01*
X43066795Y-36508559D01*
X43042378Y-36574023D01*
X43002544Y-36608541D01*
X42997667Y-36611203D01*
X42882457Y-36697451D01*
X42882449Y-36697458D01*
X42843260Y-36749810D01*
X42787326Y-36791682D01*
X42743993Y-36799500D01*
X42474500Y-36799500D01*
X42407461Y-36779815D01*
X42361706Y-36727011D01*
X42350500Y-36675500D01*
X42350500Y-35992844D01*
X42350499Y-35207155D01*
X42740000Y-35207155D01*
X42740000Y-35350000D01*
X43775000Y-35350000D01*
X43775000Y-34755000D01*
X43192155Y-34755000D01*
X43132627Y-34761401D01*
X43132620Y-34761403D01*
X42997913Y-34811645D01*
X42997906Y-34811649D01*
X42882812Y-34897809D01*
X42882809Y-34897812D01*
X42796649Y-35012906D01*
X42796645Y-35012913D01*
X42746403Y-35147620D01*
X42746401Y-35147627D01*
X42740000Y-35207155D01*
X42350499Y-35207155D01*
X42350499Y-35022128D01*
X42344091Y-34962517D01*
X42293796Y-34827669D01*
X42293795Y-34827668D01*
X42293793Y-34827664D01*
X42207547Y-34712455D01*
X42207544Y-34712452D01*
X42092335Y-34626206D01*
X42092328Y-34626202D01*
X41957482Y-34575908D01*
X41957483Y-34575908D01*
X41897883Y-34569501D01*
X41897881Y-34569500D01*
X41897873Y-34569500D01*
X41897864Y-34569500D01*
X40102129Y-34569500D01*
X40102123Y-34569501D01*
X40042516Y-34575908D01*
X39907671Y-34626202D01*
X39907665Y-34626206D01*
X39855212Y-34665472D01*
X39789748Y-34689889D01*
X39721475Y-34675037D01*
X39672070Y-34625632D01*
X39656902Y-34566205D01*
X39656902Y-33374000D01*
X39676587Y-33306961D01*
X39729391Y-33261206D01*
X39780902Y-33250000D01*
X48531902Y-33250000D01*
X48598941Y-33269685D01*
G37*
%TD.AperFunction*%
%TD*%
M02*
