%TF.GenerationSoftware,KiCad,Pcbnew,9.0.2*%
%TF.CreationDate,2025-08-18T15:30:26-04:00*%
%TF.ProjectId,Controller_Simple,436f6e74-726f-46c6-9c65-725f53696d70,rev?*%
%TF.SameCoordinates,Original*%
%TF.FileFunction,Copper,L1,Top*%
%TF.FilePolarity,Positive*%
%FSLAX46Y46*%
G04 Gerber Fmt 4.6, Leading zero omitted, Abs format (unit mm)*
G04 Created by KiCad (PCBNEW 9.0.2) date 2025-08-18 15:30:26*
%MOMM*%
%LPD*%
G01*
G04 APERTURE LIST*
G04 Aperture macros list*
%AMRoundRect*
0 Rectangle with rounded corners*
0 $1 Rounding radius*
0 $2 $3 $4 $5 $6 $7 $8 $9 X,Y pos of 4 corners*
0 Add a 4 corners polygon primitive as box body*
4,1,4,$2,$3,$4,$5,$6,$7,$8,$9,$2,$3,0*
0 Add four circle primitives for the rounded corners*
1,1,$1+$1,$2,$3*
1,1,$1+$1,$4,$5*
1,1,$1+$1,$6,$7*
1,1,$1+$1,$8,$9*
0 Add four rect primitives between the rounded corners*
20,1,$1+$1,$2,$3,$4,$5,0*
20,1,$1+$1,$4,$5,$6,$7,0*
20,1,$1+$1,$6,$7,$8,$9,0*
20,1,$1+$1,$8,$9,$2,$3,0*%
G04 Aperture macros list end*
%TA.AperFunction,SMDPad,CuDef*%
%ADD10RoundRect,0.250000X-0.450000X0.262500X-0.450000X-0.262500X0.450000X-0.262500X0.450000X0.262500X0*%
%TD*%
%TA.AperFunction,ComponentPad*%
%ADD11O,1.900000X3.200000*%
%TD*%
%TA.AperFunction,SMDPad,CuDef*%
%ADD12RoundRect,0.250000X0.262500X0.450000X-0.262500X0.450000X-0.262500X-0.450000X0.262500X-0.450000X0*%
%TD*%
%TA.AperFunction,ComponentPad*%
%ADD13O,3.200000X1.900000*%
%TD*%
%TA.AperFunction,SMDPad,CuDef*%
%ADD14RoundRect,0.250000X-0.337500X-0.475000X0.337500X-0.475000X0.337500X0.475000X-0.337500X0.475000X0*%
%TD*%
%TA.AperFunction,SMDPad,CuDef*%
%ADD15RoundRect,0.250000X0.475000X-0.337500X0.475000X0.337500X-0.475000X0.337500X-0.475000X-0.337500X0*%
%TD*%
%TA.AperFunction,ComponentPad*%
%ADD16C,1.400000*%
%TD*%
%TA.AperFunction,ComponentPad*%
%ADD17RoundRect,0.770000X0.980000X-0.980000X0.980000X0.980000X-0.980000X0.980000X-0.980000X-0.980000X0*%
%TD*%
%TA.AperFunction,ComponentPad*%
%ADD18C,3.500000*%
%TD*%
%TA.AperFunction,SMDPad,CuDef*%
%ADD19RoundRect,0.243750X-0.456250X0.243750X-0.456250X-0.243750X0.456250X-0.243750X0.456250X0.243750X0*%
%TD*%
%TA.AperFunction,ComponentPad*%
%ADD20R,1.700000X1.700000*%
%TD*%
%TA.AperFunction,ComponentPad*%
%ADD21C,1.700000*%
%TD*%
%TA.AperFunction,SMDPad,CuDef*%
%ADD22RoundRect,0.250000X-0.262500X-0.450000X0.262500X-0.450000X0.262500X0.450000X-0.262500X0.450000X0*%
%TD*%
%TA.AperFunction,SMDPad,CuDef*%
%ADD23RoundRect,0.250000X0.325000X0.450000X-0.325000X0.450000X-0.325000X-0.450000X0.325000X-0.450000X0*%
%TD*%
%TA.AperFunction,ComponentPad*%
%ADD24R,2.794000X2.794000*%
%TD*%
%TA.AperFunction,ComponentPad*%
%ADD25C,2.794000*%
%TD*%
%TA.AperFunction,ComponentPad*%
%ADD26R,1.358000X1.358000*%
%TD*%
%TA.AperFunction,ComponentPad*%
%ADD27C,1.358000*%
%TD*%
%TA.AperFunction,Conductor*%
%ADD28C,0.200000*%
%TD*%
G04 APERTURE END LIST*
D10*
%TO.P,R8,1*%
%TO.N,SW6*%
X60500000Y-87587500D03*
%TO.P,R8,2*%
%TO.N,GND*%
X60500000Y-89412500D03*
%TD*%
D11*
%TO.P,SW5,1,1*%
%TO.N,+5V*%
X82500000Y-58750000D03*
X82500000Y-71250000D03*
%TO.P,SW5,2,2*%
%TO.N,SW8*%
X77500000Y-58750000D03*
X77500000Y-71250000D03*
%TD*%
D12*
%TO.P,R4,1*%
%TO.N,SW4*%
X130000000Y-97500000D03*
%TO.P,R4,2*%
%TO.N,GND*%
X128175000Y-97500000D03*
%TD*%
D11*
%TO.P,SW4,1,1*%
%TO.N,+5V*%
X142250000Y-84750000D03*
X142250000Y-97250000D03*
%TO.P,SW4,2,2*%
%TO.N,SW4*%
X137250000Y-84750000D03*
X137250000Y-97250000D03*
%TD*%
D13*
%TO.P,SW8,1,1*%
%TO.N,+5V*%
X60750000Y-75500000D03*
X73250000Y-75500000D03*
%TO.P,SW8,2,2*%
%TO.N,SW6*%
X60750000Y-80500000D03*
X73250000Y-80500000D03*
%TD*%
D14*
%TO.P,C2,1*%
%TO.N,+12V*%
X103962500Y-66500000D03*
%TO.P,C2,2*%
%TO.N,GND*%
X106037500Y-66500000D03*
%TD*%
%TO.P,C3,1*%
%TO.N,+5V*%
X100462500Y-61500000D03*
%TO.P,C3,2*%
%TO.N,GND*%
X102537500Y-61500000D03*
%TD*%
D13*
%TO.P,SW6,1,1*%
%TO.N,+5V*%
X86750000Y-75500000D03*
X99250000Y-75500000D03*
%TO.P,SW6,2,2*%
%TO.N,SW5*%
X86750000Y-80500000D03*
X99250000Y-80500000D03*
%TD*%
D11*
%TO.P,SW2,1,1*%
%TO.N,+5V*%
X137250000Y-71250000D03*
X137250000Y-58750000D03*
%TO.P,SW2,2,2*%
%TO.N,SW2*%
X142250000Y-71250000D03*
X142250000Y-58750000D03*
%TD*%
D15*
%TO.P,C1,1*%
%TO.N,+3.3V*%
X119500000Y-27537500D03*
%TO.P,C1,2*%
%TO.N,GND*%
X119500000Y-25462500D03*
%TD*%
D10*
%TO.P,R1,1*%
%TO.N,SW1*%
X120500000Y-87675000D03*
%TO.P,R1,2*%
%TO.N,GND*%
X120500000Y-89500000D03*
%TD*%
%TO.P,R3,1*%
%TO.N,SW3*%
X159000000Y-87587500D03*
%TO.P,R3,2*%
%TO.N,GND*%
X159000000Y-89412500D03*
%TD*%
D16*
%TO.P,J4,*%
%TO.N,*%
X120175000Y-69000000D03*
X120175000Y-58000000D03*
D17*
%TO.P,J4,1,Pin_1*%
%TO.N,GND*%
X130175000Y-61000000D03*
D18*
%TO.P,J4,2,Pin_2*%
%TO.N,Net-(J4-Pin_2)*%
X130175000Y-66000000D03*
%TD*%
D19*
%TO.P,D1,1,K*%
%TO.N,GND*%
X110000000Y-71500000D03*
%TO.P,D1,2,A*%
%TO.N,Net-(D1-A)*%
X110000000Y-73375000D03*
%TD*%
D12*
%TO.P,R5,1*%
%TO.N,SW8*%
X70000000Y-58500000D03*
%TO.P,R5,2*%
%TO.N,GND*%
X68175000Y-58500000D03*
%TD*%
D20*
%TO.P,J3,1,Pin_1*%
%TO.N,+5V*%
X145000000Y-34450000D03*
D21*
%TO.P,J3,2,Pin_2*%
%TO.N,GND*%
X145000000Y-36990000D03*
%TO.P,J3,3,Pin_3*%
%TO.N,VRX2*%
X145000000Y-39530000D03*
%TO.P,J3,4,Pin_4*%
%TO.N,VRY2*%
X145000000Y-42070000D03*
%TO.P,J3,5,Pin_5*%
%TO.N,SWJ2*%
X145000000Y-44610000D03*
%TD*%
D20*
%TO.P,J2,1,Pin_1*%
%TO.N,+5V*%
X75000000Y-44580000D03*
D21*
%TO.P,J2,2,Pin_2*%
%TO.N,GND*%
X75000000Y-42040000D03*
%TO.P,J2,3,Pin_3*%
%TO.N,VRX1*%
X75000000Y-39500000D03*
%TO.P,J2,4,Pin_4*%
%TO.N,VRY1*%
X75000000Y-36960000D03*
%TO.P,J2,5,Pin_5*%
%TO.N,SWJ1*%
X75000000Y-34420000D03*
%TD*%
D20*
%TO.P,J1,1,Pin_1*%
%TO.N,+3.3V*%
X113800000Y-27790000D03*
D21*
%TO.P,J1,2,Pin_2*%
%TO.N,GND*%
X113800000Y-25250000D03*
%TO.P,J1,3,Pin_3*%
%TO.N,CE1*%
X111260000Y-27790000D03*
%TO.P,J1,4,Pin_4*%
%TO.N,CSN1*%
X111260000Y-25250000D03*
%TO.P,J1,5,Pin_5*%
%TO.N,SCK1*%
X108720000Y-27790000D03*
%TO.P,J1,6,Pin_6*%
%TO.N,MOSI1*%
X108720000Y-25250000D03*
%TO.P,J1,7,Pin_7*%
%TO.N,MISO1*%
X106180000Y-27790000D03*
%TO.P,J1,8,Pin_8*%
%TO.N,unconnected-(J1-Pin_8-Pad8)*%
X106180000Y-25250000D03*
%TD*%
D22*
%TO.P,R7,1*%
%TO.N,SW7*%
X89587500Y-97500000D03*
%TO.P,R7,2*%
%TO.N,GND*%
X91412500Y-97500000D03*
%TD*%
D23*
%TO.P,F1,1*%
%TO.N,+12V*%
X106000000Y-81000000D03*
%TO.P,F1,2*%
%TO.N,Net-(SW9-A)*%
X103950000Y-81000000D03*
%TD*%
D11*
%TO.P,SW7,1,1*%
%TO.N,+5V*%
X77500000Y-97250000D03*
X77500000Y-84750000D03*
%TO.P,SW7,2,2*%
%TO.N,SW7*%
X82500000Y-97250000D03*
X82500000Y-84750000D03*
%TD*%
D10*
%TO.P,R6,1*%
%TO.N,SW5*%
X99500000Y-87500000D03*
%TO.P,R6,2*%
%TO.N,GND*%
X99500000Y-89325000D03*
%TD*%
D22*
%TO.P,R2,1*%
%TO.N,SW2*%
X149175000Y-58500000D03*
%TO.P,R2,2*%
%TO.N,GND*%
X151000000Y-58500000D03*
%TD*%
D13*
%TO.P,SW3,1,1*%
%TO.N,+5V*%
X146500000Y-75500000D03*
X159000000Y-75500000D03*
%TO.P,SW3,2,2*%
%TO.N,SW3*%
X146500000Y-80500000D03*
X159000000Y-80500000D03*
%TD*%
D10*
%TO.P,R9,1*%
%TO.N,Net-(D1-A)*%
X110000000Y-77500000D03*
%TO.P,R9,2*%
%TO.N,+12V*%
X110000000Y-79325000D03*
%TD*%
D24*
%TO.P,SW9,1,C*%
%TO.N,unconnected-(SW9-C-Pad1)*%
X114699000Y-87500000D03*
D25*
%TO.P,SW9,2,B*%
%TO.N,Net-(J4-Pin_2)*%
X110000000Y-87500000D03*
%TO.P,SW9,3,A*%
%TO.N,Net-(SW9-A)*%
X105301000Y-87500000D03*
%TD*%
D13*
%TO.P,SW1,1,1*%
%TO.N,+5V*%
X120500000Y-75500000D03*
X133000000Y-75500000D03*
%TO.P,SW1,2,2*%
%TO.N,SW1*%
X120500000Y-80500000D03*
X133000000Y-80500000D03*
%TD*%
D20*
%TO.P,U2,1,PB12*%
%TO.N,SW2*%
X133280000Y-51740000D03*
D21*
%TO.P,U2,2,PB13*%
%TO.N,SW3*%
X130740000Y-51740000D03*
%TO.P,U2,3,PB14*%
%TO.N,SW4*%
X128200000Y-51740000D03*
%TO.P,U2,4,PB15*%
%TO.N,SW1*%
X125660000Y-51740000D03*
%TO.P,U2,5,PA8*%
%TO.N,SWJ2*%
X123120000Y-51740000D03*
%TO.P,U2,6,PA9*%
%TO.N,VRY2*%
X120580000Y-51740000D03*
%TO.P,U2,7,PA10*%
%TO.N,VRX2*%
X118040000Y-51740000D03*
%TO.P,U2,8,PA11*%
%TO.N,unconnected-(U2-PA11-Pad8)*%
X115500000Y-51740000D03*
%TO.P,U2,9,PA12*%
%TO.N,SW5*%
X112960000Y-51740000D03*
%TO.P,U2,10,PA15*%
%TO.N,SW7*%
X110420000Y-51740000D03*
%TO.P,U2,11,PB3*%
%TO.N,SW6*%
X107880000Y-51740000D03*
%TO.P,U2,12,PB4*%
%TO.N,SW8*%
X105340000Y-51740000D03*
%TO.P,U2,13,PB5*%
%TO.N,unconnected-(U2-PB5-Pad13)*%
X102800000Y-51740000D03*
%TO.P,U2,14,PB6*%
%TO.N,SWJ1*%
X100260000Y-51740000D03*
%TO.P,U2,15,PB7*%
%TO.N,VRY1*%
X97720000Y-51740000D03*
%TO.P,U2,16,PB8*%
%TO.N,VRX1*%
X95180000Y-51740000D03*
%TO.P,U2,17,PB9*%
%TO.N,unconnected-(U2-PB9-Pad17)*%
X92640000Y-51740000D03*
%TO.P,U2,18,5V*%
%TO.N,+5V*%
X90100000Y-51740000D03*
%TO.P,U2,19,GND*%
%TO.N,GND*%
X87560000Y-51740000D03*
%TO.P,U2,20,3V3*%
%TO.N,+3.3V*%
X85020000Y-51740000D03*
%TO.P,U2,21,VBat*%
%TO.N,unconnected-(U2-VBat-Pad21)*%
X85020000Y-36500000D03*
%TO.P,U2,22,PC13*%
%TO.N,unconnected-(U2-PC13-Pad22)*%
X87560000Y-36500000D03*
%TO.P,U2,23,PC14*%
%TO.N,unconnected-(U2-PC14-Pad23)*%
X90100000Y-36500000D03*
%TO.P,U2,24,PC15*%
%TO.N,unconnected-(U2-PC15-Pad24)*%
X92640000Y-36500000D03*
%TO.P,U2,25,PA0*%
%TO.N,unconnected-(U2-PA0-Pad25)*%
X95180000Y-36500000D03*
%TO.P,U2,26,PA1*%
%TO.N,unconnected-(U2-PA1-Pad26)*%
X97720000Y-36500000D03*
%TO.P,U2,27,PA2*%
%TO.N,unconnected-(U2-PA2-Pad27)*%
X100260000Y-36500000D03*
%TO.P,U2,28,PA3*%
%TO.N,unconnected-(U2-PA3-Pad28)*%
X102800000Y-36500000D03*
%TO.P,U2,29,PA4*%
%TO.N,CSN1*%
X105340000Y-36500000D03*
%TO.P,U2,30,PA5*%
%TO.N,SCK1*%
X107880000Y-36500000D03*
%TO.P,U2,31,PA6*%
%TO.N,MISO1*%
X110420000Y-36500000D03*
%TO.P,U2,32,PA7*%
%TO.N,MOSI1*%
X112960000Y-36500000D03*
%TO.P,U2,33,PB0*%
%TO.N,CE1*%
X115500000Y-36500000D03*
%TO.P,U2,34,PB1*%
%TO.N,unconnected-(U2-PB1-Pad34)*%
X118040000Y-36500000D03*
%TO.P,U2,35,PB10*%
%TO.N,unconnected-(U2-PB10-Pad35)*%
X120580000Y-36500000D03*
%TO.P,U2,36,PB11*%
%TO.N,unconnected-(U2-PB11-Pad36)*%
X123120000Y-36500000D03*
%TO.P,U2,37,RST*%
%TO.N,unconnected-(U2-RST-Pad37)*%
X125660000Y-36500000D03*
%TO.P,U2,38,3V3*%
%TO.N,+3.3V*%
X128200000Y-36500000D03*
%TO.P,U2,39,GND*%
%TO.N,GND*%
X130740000Y-36500000D03*
%TO.P,U2,40,GND*%
X133280000Y-36500000D03*
%TD*%
D26*
%TO.P,PS1,1,+VIN*%
%TO.N,+12V*%
X90000000Y-66540000D03*
D27*
%TO.P,PS1,2,GND*%
%TO.N,GND*%
X90000000Y-64000000D03*
%TO.P,PS1,3,+VOUT*%
%TO.N,+5V*%
X90000000Y-61460000D03*
%TD*%
D28*
%TO.N,+12V*%
X106000000Y-68537500D02*
X103962500Y-66500000D01*
X106000000Y-81000000D02*
X106000000Y-68537500D01*
X103922500Y-66540000D02*
X103962500Y-66500000D01*
X90000000Y-66540000D02*
X103922500Y-66540000D01*
%TO.N,GND*%
X114012500Y-25462500D02*
X113800000Y-25250000D01*
X119500000Y-25462500D02*
X114012500Y-25462500D01*
%TO.N,+3.3V*%
X119500000Y-27537500D02*
X119500000Y-27800000D01*
X119500000Y-27800000D02*
X128200000Y-36500000D01*
X119500000Y-27537500D02*
X114052500Y-27537500D01*
X119247500Y-27790000D02*
X119500000Y-27537500D01*
X114052500Y-27537500D02*
X113800000Y-27790000D01*
%TO.N,+12V*%
X90077500Y-66462500D02*
X90000000Y-66540000D01*
%TO.N,+5V*%
X75000000Y-44580000D02*
X82940000Y-44580000D01*
X100462500Y-61500000D02*
X90040000Y-61500000D01*
X82500000Y-58750000D02*
X83090000Y-58750000D01*
X82940000Y-44580000D02*
X90100000Y-51740000D01*
X90040000Y-61500000D02*
X90000000Y-61460000D01*
X83090000Y-58750000D02*
X90100000Y-51740000D01*
X90000000Y-61460000D02*
X90000000Y-51840000D01*
%TO.N,Net-(SW9-A)*%
X103950000Y-85950000D02*
X103950000Y-81000000D01*
X105301000Y-87500000D02*
X105500000Y-87500000D01*
X105500000Y-87500000D02*
X103950000Y-85950000D01*
%TO.N,CSN1*%
X108243240Y-26639000D02*
X107331000Y-27551240D01*
X109871000Y-26639000D02*
X108243240Y-26639000D01*
X111260000Y-25250000D02*
X109871000Y-26639000D01*
X107331000Y-27551240D02*
X107331000Y-34509000D01*
X107331000Y-34509000D02*
X105340000Y-36500000D01*
%TO.N,CE1*%
X111260000Y-27790000D02*
X115500000Y-32030000D01*
X115500000Y-32030000D02*
X115500000Y-36500000D01*
%TO.N,SCK1*%
X108720000Y-27790000D02*
X108720000Y-35660000D01*
X108720000Y-35660000D02*
X107880000Y-36500000D01*
%TO.N,VRX1*%
X86940000Y-43500000D02*
X95180000Y-51740000D01*
X75000000Y-39500000D02*
X79000000Y-43500000D01*
X79000000Y-43500000D02*
X86940000Y-43500000D01*
%TO.N,VRY1*%
X79000000Y-41000000D02*
X86980000Y-41000000D01*
X86980000Y-41000000D02*
X97720000Y-51740000D01*
X75000000Y-36960000D02*
X79000000Y-40960000D01*
X79000000Y-40960000D02*
X79000000Y-41000000D01*
%TO.N,SWJ1*%
X87020000Y-38500000D02*
X100260000Y-51740000D01*
X75000000Y-34500000D02*
X79000000Y-38500000D01*
X75000000Y-34420000D02*
X75000000Y-34500000D01*
X79000000Y-38500000D02*
X87020000Y-38500000D01*
%TO.N,SWJ2*%
X130250000Y-44610000D02*
X123120000Y-51740000D01*
X145000000Y-44610000D02*
X130250000Y-44610000D01*
%TO.N,VRY2*%
X130250000Y-42070000D02*
X120580000Y-51740000D01*
X145000000Y-42070000D02*
X130250000Y-42070000D01*
%TO.N,VRX2*%
X145000000Y-39530000D02*
X130250000Y-39530000D01*
X130250000Y-39530000D02*
X118040000Y-51740000D01*
%TO.N,SW1*%
X120500000Y-87675000D02*
X120500000Y-80500000D01*
%TO.N,SW2*%
X137740000Y-51740000D02*
X133280000Y-51740000D01*
X149175000Y-58500000D02*
X142500000Y-58500000D01*
X142500000Y-58500000D02*
X142250000Y-58750000D01*
X142250000Y-56250000D02*
X137740000Y-51740000D01*
X142250000Y-58750000D02*
X142250000Y-56250000D01*
X148750000Y-58750000D02*
X149000000Y-58500000D01*
%TO.N,SW3*%
X143000000Y-80500000D02*
X140000000Y-77500000D01*
X159000000Y-87587500D02*
X159000000Y-80500000D01*
X134500000Y-64000000D02*
X140000000Y-69500000D01*
X146500000Y-80500000D02*
X143000000Y-80500000D01*
X130740000Y-51740000D02*
X134500000Y-55500000D01*
X140000000Y-77500000D02*
X140000000Y-70500000D01*
X140000000Y-69500000D02*
X140000000Y-70500000D01*
X134500000Y-55500000D02*
X134500000Y-64000000D01*
%TO.N,SW4*%
X137000000Y-97500000D02*
X137250000Y-97250000D01*
X133000000Y-56540000D02*
X128200000Y-51740000D01*
X137250000Y-75750000D02*
X133000000Y-71500000D01*
X137250000Y-84750000D02*
X137250000Y-75750000D01*
X133000000Y-71500000D02*
X133000000Y-56540000D01*
X130000000Y-97500000D02*
X137000000Y-97500000D01*
%TO.N,SW8*%
X77250000Y-58500000D02*
X77500000Y-58750000D01*
X70000000Y-58500000D02*
X77250000Y-58500000D01*
%TO.N,SW5*%
X99500000Y-87500000D02*
X99500000Y-80750000D01*
X99500000Y-80750000D02*
X99250000Y-80500000D01*
%TO.N,SW7*%
X89587500Y-97500000D02*
X82750000Y-97500000D01*
X82750000Y-97500000D02*
X82500000Y-97250000D01*
%TO.N,SW6*%
X60500000Y-80750000D02*
X60750000Y-80500000D01*
X60500000Y-87587500D02*
X60500000Y-80750000D01*
%TO.N,Net-(D1-A)*%
X110000000Y-77500000D02*
X110000000Y-73375000D01*
%TO.N,+12V*%
X108325000Y-81000000D02*
X110000000Y-79325000D01*
X106000000Y-81000000D02*
X108325000Y-81000000D01*
%TO.N,Net-(J4-Pin_2)*%
X110000000Y-87500000D02*
X119500000Y-78000000D01*
X130175000Y-69825000D02*
X122000000Y-78000000D01*
X122000000Y-78000000D02*
X119500000Y-78000000D01*
X130175000Y-66000000D02*
X130175000Y-69825000D01*
%TD*%
%TA.AperFunction,Conductor*%
%TO.N,GND*%
G36*
X76555203Y-41904884D02*
G01*
X76561681Y-41910916D01*
X78418584Y-43767819D01*
X78452069Y-43829142D01*
X78447085Y-43898834D01*
X78405213Y-43954767D01*
X78339749Y-43979184D01*
X78330903Y-43979500D01*
X76474499Y-43979500D01*
X76407460Y-43959815D01*
X76361705Y-43907011D01*
X76350499Y-43855500D01*
X76350499Y-43682129D01*
X76350498Y-43682123D01*
X76350497Y-43682116D01*
X76344091Y-43622517D01*
X76328194Y-43579896D01*
X76293797Y-43487671D01*
X76293793Y-43487664D01*
X76207547Y-43372455D01*
X76207544Y-43372452D01*
X76092335Y-43286206D01*
X76092328Y-43286202D01*
X75957482Y-43235908D01*
X75957483Y-43235908D01*
X75897883Y-43229501D01*
X75897881Y-43229500D01*
X75897873Y-43229500D01*
X75897865Y-43229500D01*
X75887309Y-43229500D01*
X75820270Y-43209815D01*
X75799628Y-43193181D01*
X75129408Y-42522962D01*
X75192993Y-42505925D01*
X75307007Y-42440099D01*
X75400099Y-42347007D01*
X75465925Y-42232993D01*
X75482962Y-42169408D01*
X76115270Y-42801717D01*
X76115270Y-42801716D01*
X76154622Y-42747554D01*
X76251095Y-42558217D01*
X76316757Y-42356130D01*
X76316757Y-42356127D01*
X76350000Y-42146246D01*
X76350000Y-41998597D01*
X76369685Y-41931558D01*
X76422489Y-41885803D01*
X76491647Y-41875859D01*
X76555203Y-41904884D01*
G37*
%TD.AperFunction*%
%TA.AperFunction,Conductor*%
G36*
X113334075Y-25442993D02*
G01*
X113399901Y-25557007D01*
X113492993Y-25650099D01*
X113607007Y-25715925D01*
X113670590Y-25732962D01*
X113000370Y-26403181D01*
X112939047Y-26436666D01*
X112912698Y-26439500D01*
X112902134Y-26439500D01*
X112902123Y-26439501D01*
X112842516Y-26445908D01*
X112707671Y-26496202D01*
X112707664Y-26496206D01*
X112592455Y-26582452D01*
X112592452Y-26582455D01*
X112506206Y-26697664D01*
X112506203Y-26697669D01*
X112457189Y-26829083D01*
X112415317Y-26885016D01*
X112349853Y-26909433D01*
X112281580Y-26894581D01*
X112253326Y-26873430D01*
X112139786Y-26759890D01*
X111967820Y-26634951D01*
X111967115Y-26634591D01*
X111959054Y-26630485D01*
X111908259Y-26582512D01*
X111891463Y-26514692D01*
X111913999Y-26448556D01*
X111959054Y-26409515D01*
X111967816Y-26405051D01*
X112079194Y-26324131D01*
X112139786Y-26280109D01*
X112139788Y-26280106D01*
X112139792Y-26280104D01*
X112290104Y-26129792D01*
X112290106Y-26129788D01*
X112290109Y-26129786D01*
X112375890Y-26011717D01*
X112415051Y-25957816D01*
X112419793Y-25948508D01*
X112467763Y-25897711D01*
X112535583Y-25880911D01*
X112601719Y-25903445D01*
X112640763Y-25948500D01*
X112645373Y-25957547D01*
X112684728Y-26011716D01*
X113317037Y-25379408D01*
X113334075Y-25442993D01*
G37*
%TD.AperFunction*%
%TA.AperFunction,Conductor*%
G36*
X179442539Y-20520185D02*
G01*
X179488294Y-20572989D01*
X179499500Y-20624500D01*
X179499500Y-99375500D01*
X179479815Y-99442539D01*
X179427011Y-99488294D01*
X179375500Y-99499500D01*
X142804067Y-99499500D01*
X142737028Y-99479815D01*
X142691273Y-99427011D01*
X142681329Y-99357853D01*
X142710354Y-99294297D01*
X142765747Y-99257569D01*
X142806799Y-99244231D01*
X143010228Y-99140579D01*
X143194937Y-99006379D01*
X143356379Y-98844937D01*
X143490579Y-98660228D01*
X143594231Y-98456799D01*
X143664784Y-98239660D01*
X143683707Y-98120185D01*
X143700500Y-98014162D01*
X143700500Y-96485837D01*
X143664784Y-96260339D01*
X143594229Y-96043196D01*
X143490578Y-95839771D01*
X143356379Y-95655063D01*
X143194937Y-95493621D01*
X143010228Y-95359421D01*
X142806803Y-95255770D01*
X142589660Y-95185215D01*
X142364162Y-95149500D01*
X142364157Y-95149500D01*
X142135843Y-95149500D01*
X142135838Y-95149500D01*
X141910339Y-95185215D01*
X141693196Y-95255770D01*
X141489771Y-95359421D01*
X141305061Y-95493622D01*
X141143622Y-95655061D01*
X141009421Y-95839771D01*
X140905770Y-96043196D01*
X140835215Y-96260339D01*
X140799500Y-96485837D01*
X140799500Y-98014162D01*
X140835215Y-98239660D01*
X140905770Y-98456803D01*
X140996471Y-98634812D01*
X141009421Y-98660228D01*
X141143621Y-98844937D01*
X141305063Y-99006379D01*
X141489772Y-99140579D01*
X141585884Y-99189550D01*
X141693196Y-99244229D01*
X141693198Y-99244229D01*
X141693201Y-99244231D01*
X141734252Y-99257569D01*
X141791927Y-99297007D01*
X141819125Y-99361366D01*
X141807210Y-99430212D01*
X141759966Y-99481688D01*
X141695933Y-99499500D01*
X137804067Y-99499500D01*
X137737028Y-99479815D01*
X137691273Y-99427011D01*
X137681329Y-99357853D01*
X137710354Y-99294297D01*
X137765747Y-99257569D01*
X137806799Y-99244231D01*
X138010228Y-99140579D01*
X138194937Y-99006379D01*
X138356379Y-98844937D01*
X138490579Y-98660228D01*
X138594231Y-98456799D01*
X138664784Y-98239660D01*
X138683707Y-98120185D01*
X138700500Y-98014162D01*
X138700500Y-96485837D01*
X138664784Y-96260339D01*
X138594229Y-96043196D01*
X138490578Y-95839771D01*
X138356379Y-95655063D01*
X138194937Y-95493621D01*
X138010228Y-95359421D01*
X137806803Y-95255770D01*
X137589660Y-95185215D01*
X137364162Y-95149500D01*
X137364157Y-95149500D01*
X137135843Y-95149500D01*
X137135838Y-95149500D01*
X136910339Y-95185215D01*
X136693196Y-95255770D01*
X136489771Y-95359421D01*
X136305061Y-95493622D01*
X136143622Y-95655061D01*
X136009421Y-95839771D01*
X135905770Y-96043196D01*
X135835215Y-96260339D01*
X135799500Y-96485837D01*
X135799500Y-96775500D01*
X135779815Y-96842539D01*
X135727011Y-96888294D01*
X135675500Y-96899500D01*
X131092801Y-96899500D01*
X131025762Y-96879815D01*
X130980007Y-96827011D01*
X130975095Y-96814504D01*
X130947314Y-96730666D01*
X130855212Y-96581344D01*
X130731156Y-96457288D01*
X130581834Y-96365186D01*
X130415297Y-96310001D01*
X130415295Y-96310000D01*
X130312510Y-96299500D01*
X129687498Y-96299500D01*
X129687480Y-96299501D01*
X129584703Y-96310000D01*
X129584700Y-96310001D01*
X129418168Y-96365185D01*
X129418163Y-96365187D01*
X129268845Y-96457287D01*
X129174827Y-96551305D01*
X129113503Y-96584789D01*
X129043812Y-96579805D01*
X128999465Y-96551304D01*
X128905845Y-96457684D01*
X128756624Y-96365643D01*
X128756619Y-96365641D01*
X128590197Y-96310494D01*
X128590190Y-96310493D01*
X128487486Y-96300000D01*
X128425000Y-96300000D01*
X128425000Y-98699999D01*
X128487472Y-98699999D01*
X128487486Y-98699998D01*
X128590197Y-98689505D01*
X128756619Y-98634358D01*
X128756624Y-98634356D01*
X128905842Y-98542317D01*
X128999464Y-98448695D01*
X129060787Y-98415210D01*
X129130479Y-98420194D01*
X129174827Y-98448695D01*
X129268844Y-98542712D01*
X129418166Y-98634814D01*
X129584703Y-98689999D01*
X129687491Y-98700500D01*
X130312508Y-98700499D01*
X130312516Y-98700498D01*
X130312519Y-98700498D01*
X130368802Y-98694748D01*
X130415297Y-98689999D01*
X130581834Y-98634814D01*
X130731156Y-98542712D01*
X130855212Y-98418656D01*
X130947314Y-98269334D01*
X130975095Y-98185495D01*
X131014868Y-98128051D01*
X131079384Y-98101228D01*
X131092801Y-98100500D01*
X135707269Y-98100500D01*
X135774308Y-98120185D01*
X135820063Y-98172989D01*
X135829742Y-98205101D01*
X135835215Y-98239657D01*
X135835216Y-98239660D01*
X135905769Y-98456799D01*
X136009421Y-98660228D01*
X136143621Y-98844937D01*
X136305063Y-99006379D01*
X136489772Y-99140579D01*
X136585884Y-99189550D01*
X136693196Y-99244229D01*
X136693198Y-99244229D01*
X136693201Y-99244231D01*
X136734252Y-99257569D01*
X136791927Y-99297007D01*
X136819125Y-99361366D01*
X136807210Y-99430212D01*
X136759966Y-99481688D01*
X136695933Y-99499500D01*
X83054067Y-99499500D01*
X82987028Y-99479815D01*
X82941273Y-99427011D01*
X82931329Y-99357853D01*
X82960354Y-99294297D01*
X83015747Y-99257569D01*
X83056799Y-99244231D01*
X83260228Y-99140579D01*
X83444937Y-99006379D01*
X83606379Y-98844937D01*
X83740579Y-98660228D01*
X83844231Y-98456799D01*
X83914784Y-98239660D01*
X83920258Y-98205101D01*
X83950188Y-98141966D01*
X84009500Y-98105036D01*
X84042731Y-98100500D01*
X88494699Y-98100500D01*
X88561738Y-98120185D01*
X88607493Y-98172989D01*
X88612403Y-98185492D01*
X88640186Y-98269334D01*
X88732288Y-98418656D01*
X88856344Y-98542712D01*
X89005666Y-98634814D01*
X89172203Y-98689999D01*
X89274991Y-98700500D01*
X89900008Y-98700499D01*
X89900016Y-98700498D01*
X89900019Y-98700498D01*
X89956302Y-98694748D01*
X90002797Y-98689999D01*
X90169334Y-98634814D01*
X90318656Y-98542712D01*
X90412675Y-98448692D01*
X90473994Y-98415210D01*
X90543686Y-98420194D01*
X90588034Y-98448695D01*
X90681654Y-98542315D01*
X90830875Y-98634356D01*
X90830880Y-98634358D01*
X90997302Y-98689505D01*
X90997309Y-98689506D01*
X91100019Y-98699999D01*
X91662500Y-98699999D01*
X91724972Y-98699999D01*
X91724986Y-98699998D01*
X91827697Y-98689505D01*
X91994119Y-98634358D01*
X91994124Y-98634356D01*
X92143345Y-98542315D01*
X92267315Y-98418345D01*
X92359356Y-98269124D01*
X92359358Y-98269119D01*
X92414505Y-98102697D01*
X92414506Y-98102690D01*
X92424999Y-97999986D01*
X127162501Y-97999986D01*
X127172994Y-98102697D01*
X127228141Y-98269119D01*
X127228143Y-98269124D01*
X127320184Y-98418345D01*
X127444154Y-98542315D01*
X127593375Y-98634356D01*
X127593380Y-98634358D01*
X127759802Y-98689505D01*
X127759809Y-98689506D01*
X127862519Y-98699999D01*
X127924999Y-98699998D01*
X127925000Y-98699998D01*
X127925000Y-97750000D01*
X127162501Y-97750000D01*
X127162501Y-97999986D01*
X92424999Y-97999986D01*
X92425000Y-97999973D01*
X92425000Y-97750000D01*
X91662500Y-97750000D01*
X91662500Y-98699999D01*
X91100019Y-98699999D01*
X91162499Y-98699998D01*
X91162500Y-98699998D01*
X91162500Y-97250000D01*
X91662500Y-97250000D01*
X92424999Y-97250000D01*
X92424999Y-97000029D01*
X92424998Y-97000013D01*
X127162500Y-97000013D01*
X127162500Y-97250000D01*
X127925000Y-97250000D01*
X127925000Y-96300000D01*
X127924999Y-96299999D01*
X127862528Y-96300000D01*
X127862511Y-96300001D01*
X127759802Y-96310494D01*
X127593380Y-96365641D01*
X127593375Y-96365643D01*
X127444154Y-96457684D01*
X127320184Y-96581654D01*
X127228143Y-96730875D01*
X127228141Y-96730880D01*
X127172994Y-96897302D01*
X127172993Y-96897309D01*
X127162500Y-97000013D01*
X92424998Y-97000013D01*
X92424998Y-97000012D01*
X92414505Y-96897302D01*
X92359358Y-96730880D01*
X92359356Y-96730875D01*
X92267315Y-96581654D01*
X92143345Y-96457684D01*
X91994124Y-96365643D01*
X91994119Y-96365641D01*
X91827697Y-96310494D01*
X91827690Y-96310493D01*
X91724986Y-96300000D01*
X91662500Y-96300000D01*
X91662500Y-97250000D01*
X91162500Y-97250000D01*
X91162500Y-96300000D01*
X91162499Y-96299999D01*
X91100028Y-96300000D01*
X91100011Y-96300001D01*
X90997302Y-96310494D01*
X90830880Y-96365641D01*
X90830875Y-96365643D01*
X90681657Y-96457682D01*
X90588034Y-96551305D01*
X90526710Y-96584789D01*
X90457019Y-96579805D01*
X90412672Y-96551304D01*
X90318657Y-96457289D01*
X90318656Y-96457288D01*
X90169334Y-96365186D01*
X90002797Y-96310001D01*
X90002795Y-96310000D01*
X89900010Y-96299500D01*
X89274998Y-96299500D01*
X89274980Y-96299501D01*
X89172203Y-96310000D01*
X89172200Y-96310001D01*
X89005668Y-96365185D01*
X89005663Y-96365187D01*
X88856342Y-96457289D01*
X88732289Y-96581342D01*
X88640187Y-96730663D01*
X88640185Y-96730668D01*
X88612405Y-96814504D01*
X88572632Y-96871949D01*
X88508116Y-96898772D01*
X88494699Y-96899500D01*
X84074500Y-96899500D01*
X84007461Y-96879815D01*
X83961706Y-96827011D01*
X83950500Y-96775500D01*
X83950500Y-96485837D01*
X83914784Y-96260339D01*
X83844229Y-96043196D01*
X83740578Y-95839771D01*
X83606379Y-95655063D01*
X83444937Y-95493621D01*
X83260228Y-95359421D01*
X83056803Y-95255770D01*
X82839660Y-95185215D01*
X82614162Y-95149500D01*
X82614157Y-95149500D01*
X82385843Y-95149500D01*
X82385838Y-95149500D01*
X82160339Y-95185215D01*
X81943196Y-95255770D01*
X81739771Y-95359421D01*
X81555061Y-95493622D01*
X81393622Y-95655061D01*
X81259421Y-95839771D01*
X81155770Y-96043196D01*
X81085215Y-96260339D01*
X81049500Y-96485837D01*
X81049500Y-98014162D01*
X81085215Y-98239660D01*
X81155770Y-98456803D01*
X81246471Y-98634812D01*
X81259421Y-98660228D01*
X81393621Y-98844937D01*
X81555063Y-99006379D01*
X81739772Y-99140579D01*
X81835884Y-99189550D01*
X81943196Y-99244229D01*
X81943198Y-99244229D01*
X81943201Y-99244231D01*
X81984252Y-99257569D01*
X82041927Y-99297007D01*
X82069125Y-99361366D01*
X82057210Y-99430212D01*
X82009966Y-99481688D01*
X81945933Y-99499500D01*
X78054067Y-99499500D01*
X77987028Y-99479815D01*
X77941273Y-99427011D01*
X77931329Y-99357853D01*
X77960354Y-99294297D01*
X78015747Y-99257569D01*
X78056799Y-99244231D01*
X78260228Y-99140579D01*
X78444937Y-99006379D01*
X78606379Y-98844937D01*
X78740579Y-98660228D01*
X78844231Y-98456799D01*
X78914784Y-98239660D01*
X78933707Y-98120185D01*
X78950500Y-98014162D01*
X78950500Y-96485837D01*
X78914784Y-96260339D01*
X78844229Y-96043196D01*
X78740578Y-95839771D01*
X78606379Y-95655063D01*
X78444937Y-95493621D01*
X78260228Y-95359421D01*
X78056803Y-95255770D01*
X77839660Y-95185215D01*
X77614162Y-95149500D01*
X77614157Y-95149500D01*
X77385843Y-95149500D01*
X77385838Y-95149500D01*
X77160339Y-95185215D01*
X76943196Y-95255770D01*
X76739771Y-95359421D01*
X76555061Y-95493622D01*
X76393622Y-95655061D01*
X76259421Y-95839771D01*
X76155770Y-96043196D01*
X76085215Y-96260339D01*
X76049500Y-96485837D01*
X76049500Y-98014162D01*
X76085215Y-98239660D01*
X76155770Y-98456803D01*
X76246471Y-98634812D01*
X76259421Y-98660228D01*
X76393621Y-98844937D01*
X76555063Y-99006379D01*
X76739772Y-99140579D01*
X76835884Y-99189550D01*
X76943196Y-99244229D01*
X76943198Y-99244229D01*
X76943201Y-99244231D01*
X76984252Y-99257569D01*
X77041927Y-99297007D01*
X77069125Y-99361366D01*
X77057210Y-99430212D01*
X77009966Y-99481688D01*
X76945933Y-99499500D01*
X40624500Y-99499500D01*
X40557461Y-99479815D01*
X40511706Y-99427011D01*
X40500500Y-99375500D01*
X40500500Y-89724986D01*
X59300001Y-89724986D01*
X59310494Y-89827697D01*
X59365641Y-89994119D01*
X59365643Y-89994124D01*
X59457684Y-90143345D01*
X59581654Y-90267315D01*
X59730875Y-90359356D01*
X59730880Y-90359358D01*
X59897302Y-90414505D01*
X59897309Y-90414506D01*
X60000019Y-90424999D01*
X60249999Y-90424999D01*
X60750000Y-90424999D01*
X60999972Y-90424999D01*
X60999986Y-90424998D01*
X61102697Y-90414505D01*
X61269119Y-90359358D01*
X61269124Y-90359356D01*
X61418345Y-90267315D01*
X61542315Y-90143345D01*
X61634356Y-89994124D01*
X61634358Y-89994119D01*
X61689505Y-89827697D01*
X61689506Y-89827690D01*
X61699999Y-89724986D01*
X61700000Y-89724973D01*
X61700000Y-89662500D01*
X60750000Y-89662500D01*
X60750000Y-90424999D01*
X60249999Y-90424999D01*
X60250000Y-90424998D01*
X60250000Y-89662500D01*
X59300001Y-89662500D01*
X59300001Y-89724986D01*
X40500500Y-89724986D01*
X40500500Y-89637486D01*
X98300001Y-89637486D01*
X98310494Y-89740197D01*
X98365641Y-89906619D01*
X98365643Y-89906624D01*
X98457684Y-90055845D01*
X98581654Y-90179815D01*
X98730875Y-90271856D01*
X98730880Y-90271858D01*
X98897302Y-90327005D01*
X98897309Y-90327006D01*
X99000019Y-90337499D01*
X99249999Y-90337499D01*
X99750000Y-90337499D01*
X99999972Y-90337499D01*
X99999986Y-90337498D01*
X100102697Y-90327005D01*
X100269119Y-90271858D01*
X100269124Y-90271856D01*
X100418345Y-90179815D01*
X100542315Y-90055845D01*
X100634356Y-89906624D01*
X100634358Y-89906619D01*
X100665551Y-89812486D01*
X119300001Y-89812486D01*
X119310494Y-89915197D01*
X119365641Y-90081619D01*
X119365643Y-90081624D01*
X119457684Y-90230845D01*
X119581654Y-90354815D01*
X119730875Y-90446856D01*
X119730880Y-90446858D01*
X119897302Y-90502005D01*
X119897309Y-90502006D01*
X120000019Y-90512499D01*
X120249999Y-90512499D01*
X120750000Y-90512499D01*
X120999972Y-90512499D01*
X120999986Y-90512498D01*
X121102697Y-90502005D01*
X121269119Y-90446858D01*
X121269124Y-90446856D01*
X121418345Y-90354815D01*
X121542315Y-90230845D01*
X121634356Y-90081624D01*
X121634358Y-90081619D01*
X121689505Y-89915197D01*
X121689506Y-89915190D01*
X121699999Y-89812486D01*
X121700000Y-89812473D01*
X121700000Y-89750000D01*
X120750000Y-89750000D01*
X120750000Y-90512499D01*
X120249999Y-90512499D01*
X120250000Y-90512498D01*
X120250000Y-89750000D01*
X119300001Y-89750000D01*
X119300001Y-89812486D01*
X100665551Y-89812486D01*
X100689505Y-89740197D01*
X100689506Y-89740189D01*
X100691059Y-89724986D01*
X157800001Y-89724986D01*
X157810494Y-89827697D01*
X157865641Y-89994119D01*
X157865643Y-89994124D01*
X157957684Y-90143345D01*
X158081654Y-90267315D01*
X158230875Y-90359356D01*
X158230880Y-90359358D01*
X158397302Y-90414505D01*
X158397309Y-90414506D01*
X158500019Y-90424999D01*
X158749999Y-90424999D01*
X159250000Y-90424999D01*
X159499972Y-90424999D01*
X159499986Y-90424998D01*
X159602697Y-90414505D01*
X159769119Y-90359358D01*
X159769124Y-90359356D01*
X159918345Y-90267315D01*
X160042315Y-90143345D01*
X160134356Y-89994124D01*
X160134358Y-89994119D01*
X160189505Y-89827697D01*
X160189506Y-89827690D01*
X160199999Y-89724986D01*
X160200000Y-89724973D01*
X160200000Y-89662500D01*
X159250000Y-89662500D01*
X159250000Y-90424999D01*
X158749999Y-90424999D01*
X158750000Y-90424998D01*
X158750000Y-89662500D01*
X157800001Y-89662500D01*
X157800001Y-89724986D01*
X100691059Y-89724986D01*
X100694799Y-89688382D01*
X100700000Y-89607165D01*
X100700000Y-89575000D01*
X99750000Y-89575000D01*
X99750000Y-90337499D01*
X99249999Y-90337499D01*
X99250000Y-90337498D01*
X99250000Y-89575000D01*
X98300001Y-89575000D01*
X98300001Y-89637486D01*
X40500500Y-89637486D01*
X40500500Y-80385837D01*
X58649500Y-80385837D01*
X58649500Y-80614162D01*
X58685215Y-80839660D01*
X58755770Y-81056803D01*
X58812533Y-81168205D01*
X58859421Y-81260228D01*
X58993621Y-81444937D01*
X59155063Y-81606379D01*
X59339772Y-81740579D01*
X59396207Y-81769334D01*
X59543196Y-81844229D01*
X59543198Y-81844229D01*
X59543201Y-81844231D01*
X59760340Y-81914784D01*
X59794900Y-81920257D01*
X59858032Y-81950185D01*
X59894963Y-82009496D01*
X59899500Y-82042730D01*
X59899500Y-86494699D01*
X59879815Y-86561738D01*
X59827011Y-86607493D01*
X59814507Y-86612403D01*
X59781962Y-86623188D01*
X59730668Y-86640185D01*
X59730663Y-86640187D01*
X59581342Y-86732289D01*
X59457289Y-86856342D01*
X59365187Y-87005663D01*
X59365186Y-87005666D01*
X59310001Y-87172203D01*
X59310001Y-87172204D01*
X59310000Y-87172204D01*
X59299500Y-87274983D01*
X59299500Y-87900001D01*
X59299501Y-87900019D01*
X59310000Y-88002796D01*
X59310001Y-88002799D01*
X59365185Y-88169331D01*
X59365187Y-88169336D01*
X59457289Y-88318657D01*
X59551304Y-88412672D01*
X59584789Y-88473995D01*
X59579805Y-88543687D01*
X59551305Y-88588034D01*
X59457682Y-88681657D01*
X59365643Y-88830875D01*
X59365641Y-88830880D01*
X59310494Y-88997302D01*
X59310493Y-88997309D01*
X59300000Y-89100013D01*
X59300000Y-89162500D01*
X61699999Y-89162500D01*
X61699999Y-89100028D01*
X61699998Y-89100013D01*
X61689505Y-88997302D01*
X61634358Y-88830880D01*
X61634356Y-88830875D01*
X61542315Y-88681654D01*
X61448695Y-88588034D01*
X61415210Y-88526711D01*
X61420194Y-88457019D01*
X61448691Y-88412676D01*
X61542712Y-88318656D01*
X61634814Y-88169334D01*
X61689999Y-88002797D01*
X61700500Y-87900009D01*
X61700499Y-87274992D01*
X61698937Y-87259704D01*
X61689999Y-87172203D01*
X61689998Y-87172200D01*
X61634814Y-87005666D01*
X61542712Y-86856344D01*
X61418656Y-86732288D01*
X61299777Y-86658963D01*
X61269336Y-86640187D01*
X61269331Y-86640185D01*
X61267082Y-86639439D01*
X61185495Y-86612404D01*
X61128051Y-86572632D01*
X61101228Y-86508116D01*
X61100500Y-86494699D01*
X61100500Y-83985837D01*
X76049500Y-83985837D01*
X76049500Y-85514162D01*
X76085215Y-85739660D01*
X76155770Y-85956803D01*
X76213611Y-86070321D01*
X76259421Y-86160228D01*
X76393621Y-86344937D01*
X76555063Y-86506379D01*
X76739772Y-86640579D01*
X76802423Y-86672501D01*
X76943196Y-86744229D01*
X76943198Y-86744229D01*
X76943201Y-86744231D01*
X77018946Y-86768842D01*
X77160339Y-86814784D01*
X77385838Y-86850500D01*
X77385843Y-86850500D01*
X77614162Y-86850500D01*
X77839660Y-86814784D01*
X78056799Y-86744231D01*
X78260228Y-86640579D01*
X78444937Y-86506379D01*
X78606379Y-86344937D01*
X78740579Y-86160228D01*
X78844231Y-85956799D01*
X78914784Y-85739660D01*
X78921169Y-85699345D01*
X78950500Y-85514162D01*
X78950500Y-83985837D01*
X81049500Y-83985837D01*
X81049500Y-85514162D01*
X81085215Y-85739660D01*
X81155770Y-85956803D01*
X81213611Y-86070321D01*
X81259421Y-86160228D01*
X81393621Y-86344937D01*
X81555063Y-86506379D01*
X81739772Y-86640579D01*
X81802423Y-86672501D01*
X81943196Y-86744229D01*
X81943198Y-86744229D01*
X81943201Y-86744231D01*
X82018946Y-86768842D01*
X82160339Y-86814784D01*
X82385838Y-86850500D01*
X82385843Y-86850500D01*
X82614162Y-86850500D01*
X82839660Y-86814784D01*
X83056799Y-86744231D01*
X83260228Y-86640579D01*
X83444937Y-86506379D01*
X83606379Y-86344937D01*
X83740579Y-86160228D01*
X83844231Y-85956799D01*
X83914784Y-85739660D01*
X83921169Y-85699345D01*
X83950500Y-85514162D01*
X83950500Y-83985837D01*
X83914784Y-83760339D01*
X83844229Y-83543196D01*
X83740578Y-83339771D01*
X83606379Y-83155063D01*
X83444937Y-82993621D01*
X83260228Y-82859421D01*
X83260224Y-82859419D01*
X83056803Y-82755770D01*
X82839660Y-82685215D01*
X82614162Y-82649500D01*
X82614157Y-82649500D01*
X82385843Y-82649500D01*
X82385838Y-82649500D01*
X82160339Y-82685215D01*
X81943196Y-82755770D01*
X81739771Y-82859421D01*
X81555061Y-82993622D01*
X81393622Y-83155061D01*
X81259421Y-83339771D01*
X81155770Y-83543196D01*
X81085215Y-83760339D01*
X81049500Y-83985837D01*
X78950500Y-83985837D01*
X78914784Y-83760339D01*
X78844229Y-83543196D01*
X78740578Y-83339771D01*
X78606379Y-83155063D01*
X78444937Y-82993621D01*
X78260228Y-82859421D01*
X78260224Y-82859419D01*
X78056803Y-82755770D01*
X77839660Y-82685215D01*
X77614162Y-82649500D01*
X77614157Y-82649500D01*
X77385843Y-82649500D01*
X77385838Y-82649500D01*
X77160339Y-82685215D01*
X76943196Y-82755770D01*
X76739771Y-82859421D01*
X76555061Y-82993622D01*
X76393622Y-83155061D01*
X76259421Y-83339771D01*
X76155770Y-83543196D01*
X76085215Y-83760339D01*
X76049500Y-83985837D01*
X61100500Y-83985837D01*
X61100500Y-82074500D01*
X61120185Y-82007461D01*
X61172989Y-81961706D01*
X61224500Y-81950500D01*
X61514162Y-81950500D01*
X61739660Y-81914784D01*
X61745184Y-81912989D01*
X61956799Y-81844231D01*
X62160228Y-81740579D01*
X62344937Y-81606379D01*
X62506379Y-81444937D01*
X62640579Y-81260228D01*
X62744231Y-81056799D01*
X62814784Y-80839660D01*
X62850500Y-80614162D01*
X62850500Y-80385837D01*
X71149500Y-80385837D01*
X71149500Y-80614162D01*
X71185215Y-80839660D01*
X71255770Y-81056803D01*
X71312533Y-81168205D01*
X71359421Y-81260228D01*
X71493621Y-81444937D01*
X71655063Y-81606379D01*
X71839772Y-81740579D01*
X71896207Y-81769334D01*
X72043196Y-81844229D01*
X72043198Y-81844229D01*
X72043201Y-81844231D01*
X72159592Y-81882049D01*
X72260339Y-81914784D01*
X72485838Y-81950500D01*
X72485843Y-81950500D01*
X74014162Y-81950500D01*
X74239660Y-81914784D01*
X74245184Y-81912989D01*
X74456799Y-81844231D01*
X74660228Y-81740579D01*
X74844937Y-81606379D01*
X75006379Y-81444937D01*
X75140579Y-81260228D01*
X75244231Y-81056799D01*
X75314784Y-80839660D01*
X75350500Y-80614162D01*
X75350500Y-80385837D01*
X84649500Y-80385837D01*
X84649500Y-80614162D01*
X84685215Y-80839660D01*
X84755770Y-81056803D01*
X84812533Y-81168205D01*
X84859421Y-81260228D01*
X84993621Y-81444937D01*
X85155063Y-81606379D01*
X85339772Y-81740579D01*
X85396207Y-81769334D01*
X85543196Y-81844229D01*
X85543198Y-81844229D01*
X85543201Y-81844231D01*
X85659592Y-81882049D01*
X85760339Y-81914784D01*
X85985838Y-81950500D01*
X85985843Y-81950500D01*
X87514162Y-81950500D01*
X87739660Y-81914784D01*
X87745184Y-81912989D01*
X87956799Y-81844231D01*
X88160228Y-81740579D01*
X88344937Y-81606379D01*
X88506379Y-81444937D01*
X88640579Y-81260228D01*
X88744231Y-81056799D01*
X88814784Y-80839660D01*
X88850500Y-80614162D01*
X88850500Y-80385837D01*
X97149500Y-80385837D01*
X97149500Y-80614162D01*
X97185215Y-80839660D01*
X97255770Y-81056803D01*
X97312533Y-81168205D01*
X97359421Y-81260228D01*
X97493621Y-81444937D01*
X97655063Y-81606379D01*
X97839772Y-81740579D01*
X97896207Y-81769334D01*
X98043196Y-81844229D01*
X98043198Y-81844229D01*
X98043201Y-81844231D01*
X98159592Y-81882049D01*
X98260339Y-81914784D01*
X98485838Y-81950500D01*
X98485843Y-81950500D01*
X98775500Y-81950500D01*
X98842539Y-81970185D01*
X98888294Y-82022989D01*
X98899500Y-82074500D01*
X98899500Y-86407199D01*
X98879815Y-86474238D01*
X98827011Y-86519993D01*
X98814507Y-86524903D01*
X98781962Y-86535688D01*
X98730668Y-86552685D01*
X98730663Y-86552687D01*
X98581342Y-86644789D01*
X98457289Y-86768842D01*
X98365187Y-86918163D01*
X98365186Y-86918166D01*
X98310001Y-87084703D01*
X98310001Y-87084704D01*
X98310000Y-87084704D01*
X98299500Y-87187483D01*
X98299500Y-87812501D01*
X98299501Y-87812519D01*
X98310000Y-87915296D01*
X98310001Y-87915299D01*
X98365185Y-88081831D01*
X98365187Y-88081836D01*
X98457289Y-88231157D01*
X98551304Y-88325172D01*
X98584789Y-88386495D01*
X98579805Y-88456187D01*
X98551305Y-88500534D01*
X98457682Y-88594157D01*
X98365643Y-88743375D01*
X98365641Y-88743380D01*
X98310494Y-88909802D01*
X98310493Y-88909809D01*
X98300000Y-89012513D01*
X98300000Y-89075000D01*
X100699999Y-89075000D01*
X100699999Y-89012528D01*
X100699998Y-89012513D01*
X100689505Y-88909802D01*
X100634358Y-88743380D01*
X100634356Y-88743375D01*
X100542315Y-88594154D01*
X100448695Y-88500534D01*
X100415210Y-88439211D01*
X100420194Y-88369519D01*
X100448691Y-88325176D01*
X100542712Y-88231156D01*
X100634814Y-88081834D01*
X100689999Y-87915297D01*
X100700500Y-87812509D01*
X100700499Y-87187492D01*
X100698937Y-87172204D01*
X100689999Y-87084703D01*
X100689998Y-87084700D01*
X100663809Y-87005668D01*
X100634814Y-86918166D01*
X100542712Y-86768844D01*
X100418656Y-86644788D01*
X100321344Y-86584766D01*
X100269336Y-86552687D01*
X100269331Y-86552685D01*
X100267082Y-86551939D01*
X100185495Y-86524904D01*
X100128051Y-86485132D01*
X100101228Y-86420616D01*
X100100500Y-86407199D01*
X100100500Y-82042730D01*
X100120185Y-81975691D01*
X100172989Y-81929936D01*
X100205095Y-81920258D01*
X100239660Y-81914784D01*
X100456799Y-81844231D01*
X100660228Y-81740579D01*
X100844937Y-81606379D01*
X101006379Y-81444937D01*
X101140579Y-81260228D01*
X101244231Y-81056799D01*
X101314784Y-80839660D01*
X101350500Y-80614162D01*
X101350500Y-80385837D01*
X101314784Y-80160339D01*
X101244229Y-79943196D01*
X101171012Y-79799500D01*
X101140579Y-79739772D01*
X101006379Y-79555063D01*
X100844937Y-79393621D01*
X100660228Y-79259421D01*
X100660142Y-79259377D01*
X100456803Y-79155770D01*
X100239660Y-79085215D01*
X100014162Y-79049500D01*
X100014157Y-79049500D01*
X98485843Y-79049500D01*
X98485838Y-79049500D01*
X98260339Y-79085215D01*
X98043196Y-79155770D01*
X97839771Y-79259421D01*
X97655061Y-79393622D01*
X97493622Y-79555061D01*
X97359421Y-79739771D01*
X97255770Y-79943196D01*
X97185215Y-80160339D01*
X97149500Y-80385837D01*
X88850500Y-80385837D01*
X88814784Y-80160339D01*
X88744229Y-79943196D01*
X88671012Y-79799500D01*
X88640579Y-79739772D01*
X88506379Y-79555063D01*
X88344937Y-79393621D01*
X88160228Y-79259421D01*
X88160142Y-79259377D01*
X87956803Y-79155770D01*
X87739660Y-79085215D01*
X87514162Y-79049500D01*
X87514157Y-79049500D01*
X85985843Y-79049500D01*
X85985838Y-79049500D01*
X85760339Y-79085215D01*
X85543196Y-79155770D01*
X85339771Y-79259421D01*
X85155061Y-79393622D01*
X84993622Y-79555061D01*
X84859421Y-79739771D01*
X84755770Y-79943196D01*
X84685215Y-80160339D01*
X84649500Y-80385837D01*
X75350500Y-80385837D01*
X75314784Y-80160339D01*
X75244229Y-79943196D01*
X75171012Y-79799500D01*
X75140579Y-79739772D01*
X75006379Y-79555063D01*
X74844937Y-79393621D01*
X74660228Y-79259421D01*
X74660142Y-79259377D01*
X74456803Y-79155770D01*
X74239660Y-79085215D01*
X74014162Y-79049500D01*
X74014157Y-79049500D01*
X72485843Y-79049500D01*
X72485838Y-79049500D01*
X72260339Y-79085215D01*
X72043196Y-79155770D01*
X71839771Y-79259421D01*
X71655061Y-79393622D01*
X71493622Y-79555061D01*
X71359421Y-79739771D01*
X71255770Y-79943196D01*
X71185215Y-80160339D01*
X71149500Y-80385837D01*
X62850500Y-80385837D01*
X62814784Y-80160339D01*
X62744229Y-79943196D01*
X62671012Y-79799500D01*
X62640579Y-79739772D01*
X62506379Y-79555063D01*
X62344937Y-79393621D01*
X62160228Y-79259421D01*
X62160142Y-79259377D01*
X61956803Y-79155770D01*
X61739660Y-79085215D01*
X61514162Y-79049500D01*
X61514157Y-79049500D01*
X59985843Y-79049500D01*
X59985838Y-79049500D01*
X59760339Y-79085215D01*
X59543196Y-79155770D01*
X59339771Y-79259421D01*
X59155061Y-79393622D01*
X58993622Y-79555061D01*
X58859421Y-79739771D01*
X58755770Y-79943196D01*
X58685215Y-80160339D01*
X58649500Y-80385837D01*
X40500500Y-80385837D01*
X40500500Y-75385837D01*
X58649500Y-75385837D01*
X58649500Y-75614162D01*
X58685215Y-75839660D01*
X58755770Y-76056803D01*
X58859421Y-76260228D01*
X58993621Y-76444937D01*
X59155063Y-76606379D01*
X59339772Y-76740579D01*
X59435884Y-76789550D01*
X59543196Y-76844229D01*
X59543198Y-76844229D01*
X59543201Y-76844231D01*
X59659592Y-76882049D01*
X59760339Y-76914784D01*
X59985838Y-76950500D01*
X59985843Y-76950500D01*
X61514162Y-76950500D01*
X61739660Y-76914784D01*
X61956799Y-76844231D01*
X62160228Y-76740579D01*
X62344937Y-76606379D01*
X62506379Y-76444937D01*
X62640579Y-76260228D01*
X62744231Y-76056799D01*
X62814784Y-75839660D01*
X62841506Y-75670944D01*
X62850500Y-75614162D01*
X62850500Y-75385837D01*
X71149500Y-75385837D01*
X71149500Y-75614162D01*
X71185215Y-75839660D01*
X71255770Y-76056803D01*
X71359421Y-76260228D01*
X71493621Y-76444937D01*
X71655063Y-76606379D01*
X71839772Y-76740579D01*
X71935884Y-76789550D01*
X72043196Y-76844229D01*
X72043198Y-76844229D01*
X72043201Y-76844231D01*
X72159592Y-76882049D01*
X72260339Y-76914784D01*
X72485838Y-76950500D01*
X72485843Y-76950500D01*
X74014162Y-76950500D01*
X74239660Y-76914784D01*
X74456799Y-76844231D01*
X74660228Y-76740579D01*
X74844937Y-76606379D01*
X75006379Y-76444937D01*
X75140579Y-76260228D01*
X75244231Y-76056799D01*
X75314784Y-75839660D01*
X75341506Y-75670944D01*
X75350500Y-75614162D01*
X75350500Y-75385837D01*
X84649500Y-75385837D01*
X84649500Y-75614162D01*
X84685215Y-75839660D01*
X84755770Y-76056803D01*
X84859421Y-76260228D01*
X84993621Y-76444937D01*
X85155063Y-76606379D01*
X85339772Y-76740579D01*
X85435884Y-76789550D01*
X85543196Y-76844229D01*
X85543198Y-76844229D01*
X85543201Y-76844231D01*
X85659592Y-76882049D01*
X85760339Y-76914784D01*
X85985838Y-76950500D01*
X85985843Y-76950500D01*
X87514162Y-76950500D01*
X87739660Y-76914784D01*
X87956799Y-76844231D01*
X88160228Y-76740579D01*
X88344937Y-76606379D01*
X88506379Y-76444937D01*
X88640579Y-76260228D01*
X88744231Y-76056799D01*
X88814784Y-75839660D01*
X88841506Y-75670944D01*
X88850500Y-75614162D01*
X88850500Y-75385837D01*
X97149500Y-75385837D01*
X97149500Y-75614162D01*
X97185215Y-75839660D01*
X97255770Y-76056803D01*
X97359421Y-76260228D01*
X97493621Y-76444937D01*
X97655063Y-76606379D01*
X97839772Y-76740579D01*
X97935884Y-76789550D01*
X98043196Y-76844229D01*
X98043198Y-76844229D01*
X98043201Y-76844231D01*
X98159592Y-76882049D01*
X98260339Y-76914784D01*
X98485838Y-76950500D01*
X98485843Y-76950500D01*
X100014162Y-76950500D01*
X100239660Y-76914784D01*
X100456799Y-76844231D01*
X100660228Y-76740579D01*
X100844937Y-76606379D01*
X101006379Y-76444937D01*
X101140579Y-76260228D01*
X101244231Y-76056799D01*
X101314784Y-75839660D01*
X101341506Y-75670944D01*
X101350500Y-75614162D01*
X101350500Y-75385837D01*
X101314784Y-75160339D01*
X101244229Y-74943196D01*
X101140578Y-74739771D01*
X101006379Y-74555063D01*
X100844937Y-74393621D01*
X100660228Y-74259421D01*
X100456803Y-74155770D01*
X100239660Y-74085215D01*
X100014162Y-74049500D01*
X100014157Y-74049500D01*
X98485843Y-74049500D01*
X98485838Y-74049500D01*
X98260339Y-74085215D01*
X98043196Y-74155770D01*
X97839771Y-74259421D01*
X97655061Y-74393622D01*
X97493622Y-74555061D01*
X97359421Y-74739771D01*
X97255770Y-74943196D01*
X97185215Y-75160339D01*
X97149500Y-75385837D01*
X88850500Y-75385837D01*
X88814784Y-75160339D01*
X88744229Y-74943196D01*
X88640578Y-74739771D01*
X88506379Y-74555063D01*
X88344937Y-74393621D01*
X88160228Y-74259421D01*
X87956803Y-74155770D01*
X87739660Y-74085215D01*
X87514162Y-74049500D01*
X87514157Y-74049500D01*
X85985843Y-74049500D01*
X85985838Y-74049500D01*
X85760339Y-74085215D01*
X85543196Y-74155770D01*
X85339771Y-74259421D01*
X85155061Y-74393622D01*
X84993622Y-74555061D01*
X84859421Y-74739771D01*
X84755770Y-74943196D01*
X84685215Y-75160339D01*
X84649500Y-75385837D01*
X75350500Y-75385837D01*
X75314784Y-75160339D01*
X75244229Y-74943196D01*
X75140578Y-74739771D01*
X75006379Y-74555063D01*
X74844937Y-74393621D01*
X74660228Y-74259421D01*
X74456803Y-74155770D01*
X74239660Y-74085215D01*
X74014162Y-74049500D01*
X74014157Y-74049500D01*
X72485843Y-74049500D01*
X72485838Y-74049500D01*
X72260339Y-74085215D01*
X72043196Y-74155770D01*
X71839771Y-74259421D01*
X71655061Y-74393622D01*
X71493622Y-74555061D01*
X71359421Y-74739771D01*
X71255770Y-74943196D01*
X71185215Y-75160339D01*
X71149500Y-75385837D01*
X62850500Y-75385837D01*
X62814784Y-75160339D01*
X62744229Y-74943196D01*
X62640578Y-74739771D01*
X62506379Y-74555063D01*
X62344937Y-74393621D01*
X62160228Y-74259421D01*
X61956803Y-74155770D01*
X61739660Y-74085215D01*
X61514162Y-74049500D01*
X61514157Y-74049500D01*
X59985843Y-74049500D01*
X59985838Y-74049500D01*
X59760339Y-74085215D01*
X59543196Y-74155770D01*
X59339771Y-74259421D01*
X59155061Y-74393622D01*
X58993622Y-74555061D01*
X58859421Y-74739771D01*
X58755770Y-74943196D01*
X58685215Y-75160339D01*
X58649500Y-75385837D01*
X40500500Y-75385837D01*
X40500500Y-70485837D01*
X76049500Y-70485837D01*
X76049500Y-72014162D01*
X76085215Y-72239660D01*
X76155770Y-72456803D01*
X76259421Y-72660228D01*
X76393621Y-72844937D01*
X76555063Y-73006379D01*
X76739772Y-73140579D01*
X76835884Y-73189550D01*
X76943196Y-73244229D01*
X76943198Y-73244229D01*
X76943201Y-73244231D01*
X77059592Y-73282049D01*
X77160339Y-73314784D01*
X77385838Y-73350500D01*
X77385843Y-73350500D01*
X77614162Y-73350500D01*
X77839660Y-73314784D01*
X78056799Y-73244231D01*
X78260228Y-73140579D01*
X78444937Y-73006379D01*
X78606379Y-72844937D01*
X78740579Y-72660228D01*
X78844231Y-72456799D01*
X78914784Y-72239660D01*
X78919768Y-72208191D01*
X78950500Y-72014162D01*
X78950500Y-70485837D01*
X81049500Y-70485837D01*
X81049500Y-72014162D01*
X81085215Y-72239660D01*
X81155770Y-72456803D01*
X81259421Y-72660228D01*
X81393621Y-72844937D01*
X81555063Y-73006379D01*
X81739772Y-73140579D01*
X81835884Y-73189550D01*
X81943196Y-73244229D01*
X81943198Y-73244229D01*
X81943201Y-73244231D01*
X82059592Y-73282049D01*
X82160339Y-73314784D01*
X82385838Y-73350500D01*
X82385843Y-73350500D01*
X82614162Y-73350500D01*
X82839660Y-73314784D01*
X83056799Y-73244231D01*
X83260228Y-73140579D01*
X83444937Y-73006379D01*
X83606379Y-72844937D01*
X83740579Y-72660228D01*
X83844231Y-72456799D01*
X83914784Y-72239660D01*
X83919768Y-72208191D01*
X83950500Y-72014162D01*
X83950500Y-70485837D01*
X83914784Y-70260339D01*
X83862523Y-70099499D01*
X83844231Y-70043201D01*
X83844229Y-70043198D01*
X83844229Y-70043196D01*
X83779261Y-69915690D01*
X83740579Y-69839772D01*
X83606379Y-69655063D01*
X83444937Y-69493621D01*
X83260228Y-69359421D01*
X83056803Y-69255770D01*
X82839660Y-69185215D01*
X82614162Y-69149500D01*
X82614157Y-69149500D01*
X82385843Y-69149500D01*
X82385838Y-69149500D01*
X82160339Y-69185215D01*
X81943196Y-69255770D01*
X81739771Y-69359421D01*
X81555061Y-69493622D01*
X81393622Y-69655061D01*
X81259421Y-69839771D01*
X81155770Y-70043196D01*
X81085215Y-70260339D01*
X81049500Y-70485837D01*
X78950500Y-70485837D01*
X78914784Y-70260339D01*
X78862523Y-70099499D01*
X78844231Y-70043201D01*
X78844229Y-70043198D01*
X78844229Y-70043196D01*
X78779261Y-69915690D01*
X78740579Y-69839772D01*
X78606379Y-69655063D01*
X78444937Y-69493621D01*
X78260228Y-69359421D01*
X78056803Y-69255770D01*
X77839660Y-69185215D01*
X77614162Y-69149500D01*
X77614157Y-69149500D01*
X77385843Y-69149500D01*
X77385838Y-69149500D01*
X77160339Y-69185215D01*
X76943196Y-69255770D01*
X76739771Y-69359421D01*
X76555061Y-69493622D01*
X76393622Y-69655061D01*
X76259421Y-69839771D01*
X76155770Y-70043196D01*
X76085215Y-70260339D01*
X76049500Y-70485837D01*
X40500500Y-70485837D01*
X40500500Y-58999986D01*
X67162501Y-58999986D01*
X67172994Y-59102697D01*
X67228141Y-59269119D01*
X67228143Y-59269124D01*
X67320184Y-59418345D01*
X67444154Y-59542315D01*
X67593375Y-59634356D01*
X67593380Y-59634358D01*
X67759802Y-59689505D01*
X67759809Y-59689506D01*
X67862519Y-59699999D01*
X67924999Y-59699998D01*
X67925000Y-59699998D01*
X67925000Y-58750000D01*
X67162501Y-58750000D01*
X67162501Y-58999986D01*
X40500500Y-58999986D01*
X40500500Y-58000013D01*
X67162500Y-58000013D01*
X67162500Y-58250000D01*
X67925000Y-58250000D01*
X67925000Y-57300000D01*
X68425000Y-57300000D01*
X68425000Y-59699999D01*
X68487472Y-59699999D01*
X68487486Y-59699998D01*
X68590197Y-59689505D01*
X68756619Y-59634358D01*
X68756624Y-59634356D01*
X68905842Y-59542317D01*
X68999464Y-59448695D01*
X69060787Y-59415210D01*
X69130479Y-59420194D01*
X69174827Y-59448695D01*
X69268844Y-59542712D01*
X69418166Y-59634814D01*
X69584703Y-59689999D01*
X69687491Y-59700500D01*
X70312508Y-59700499D01*
X70312516Y-59700498D01*
X70312519Y-59700498D01*
X70368802Y-59694748D01*
X70415297Y-59689999D01*
X70581834Y-59634814D01*
X70731156Y-59542712D01*
X70855212Y-59418656D01*
X70947314Y-59269334D01*
X70975095Y-59185495D01*
X71014868Y-59128051D01*
X71079384Y-59101228D01*
X71092801Y-59100500D01*
X75925500Y-59100500D01*
X75992539Y-59120185D01*
X76038294Y-59172989D01*
X76049500Y-59224500D01*
X76049500Y-59514162D01*
X76085215Y-59739660D01*
X76155770Y-59956803D01*
X76258347Y-60158121D01*
X76259421Y-60160228D01*
X76393621Y-60344937D01*
X76555063Y-60506379D01*
X76739772Y-60640579D01*
X76835884Y-60689550D01*
X76943196Y-60744229D01*
X76943198Y-60744229D01*
X76943201Y-60744231D01*
X77059592Y-60782049D01*
X77160339Y-60814784D01*
X77385838Y-60850500D01*
X77385843Y-60850500D01*
X77614162Y-60850500D01*
X77839660Y-60814784D01*
X77840522Y-60814504D01*
X78056799Y-60744231D01*
X78260228Y-60640579D01*
X78444937Y-60506379D01*
X78606379Y-60344937D01*
X78740579Y-60160228D01*
X78844231Y-59956799D01*
X78914784Y-59739660D01*
X78920986Y-59700500D01*
X78950500Y-59514162D01*
X78950500Y-57985837D01*
X78914784Y-57760339D01*
X78846864Y-57551305D01*
X78844231Y-57543201D01*
X78844229Y-57543198D01*
X78844229Y-57543196D01*
X78756389Y-57370801D01*
X78740579Y-57339772D01*
X78606379Y-57155063D01*
X78444937Y-56993621D01*
X78260228Y-56859421D01*
X78260224Y-56859419D01*
X78056803Y-56755770D01*
X77839660Y-56685215D01*
X77614162Y-56649500D01*
X77614157Y-56649500D01*
X77385843Y-56649500D01*
X77385838Y-56649500D01*
X77160339Y-56685215D01*
X76943196Y-56755770D01*
X76739771Y-56859421D01*
X76555061Y-56993622D01*
X76393622Y-57155061D01*
X76259421Y-57339771D01*
X76155770Y-57543198D01*
X76085215Y-57760342D01*
X76079742Y-57794899D01*
X76049812Y-57858034D01*
X75990500Y-57894964D01*
X75957269Y-57899500D01*
X71092801Y-57899500D01*
X71025762Y-57879815D01*
X70980007Y-57827011D01*
X70975095Y-57814504D01*
X70947314Y-57730666D01*
X70855212Y-57581344D01*
X70731156Y-57457288D01*
X70638388Y-57400069D01*
X70581836Y-57365187D01*
X70581831Y-57365185D01*
X70580362Y-57364698D01*
X70415297Y-57310001D01*
X70415295Y-57310000D01*
X70312510Y-57299500D01*
X69687498Y-57299500D01*
X69687480Y-57299501D01*
X69584703Y-57310000D01*
X69584700Y-57310001D01*
X69418168Y-57365185D01*
X69418163Y-57365187D01*
X69268845Y-57457287D01*
X69174827Y-57551305D01*
X69113503Y-57584789D01*
X69043812Y-57579805D01*
X68999465Y-57551304D01*
X68905845Y-57457684D01*
X68756624Y-57365643D01*
X68756619Y-57365641D01*
X68590197Y-57310494D01*
X68590190Y-57310493D01*
X68487486Y-57300000D01*
X68425000Y-57300000D01*
X67925000Y-57300000D01*
X67924999Y-57299999D01*
X67862528Y-57300000D01*
X67862511Y-57300001D01*
X67759802Y-57310494D01*
X67593380Y-57365641D01*
X67593375Y-57365643D01*
X67444154Y-57457684D01*
X67320184Y-57581654D01*
X67228143Y-57730875D01*
X67228141Y-57730880D01*
X67172994Y-57897302D01*
X67172993Y-57897309D01*
X67162500Y-58000013D01*
X40500500Y-58000013D01*
X40500500Y-34313713D01*
X73649500Y-34313713D01*
X73649500Y-34526287D01*
X73682754Y-34736243D01*
X73748250Y-34937819D01*
X73748444Y-34938414D01*
X73844951Y-35127820D01*
X73969890Y-35299786D01*
X74120213Y-35450109D01*
X74292182Y-35575050D01*
X74300946Y-35579516D01*
X74351742Y-35627491D01*
X74368536Y-35695312D01*
X74345998Y-35761447D01*
X74300946Y-35800484D01*
X74292182Y-35804949D01*
X74120213Y-35929890D01*
X73969890Y-36080213D01*
X73844951Y-36252179D01*
X73748444Y-36441585D01*
X73682753Y-36643760D01*
X73649500Y-36853713D01*
X73649500Y-37066286D01*
X73682753Y-37276239D01*
X73682753Y-37276241D01*
X73682754Y-37276243D01*
X73741136Y-37455925D01*
X73748444Y-37478414D01*
X73844951Y-37667820D01*
X73969890Y-37839786D01*
X74120213Y-37990109D01*
X74292182Y-38115050D01*
X74300946Y-38119516D01*
X74351742Y-38167491D01*
X74368536Y-38235312D01*
X74345998Y-38301447D01*
X74300946Y-38340484D01*
X74292182Y-38344949D01*
X74120213Y-38469890D01*
X73969890Y-38620213D01*
X73844951Y-38792179D01*
X73748444Y-38981585D01*
X73682753Y-39183760D01*
X73649500Y-39393713D01*
X73649500Y-39606286D01*
X73682753Y-39816239D01*
X73682753Y-39816241D01*
X73682754Y-39816243D01*
X73737431Y-39984522D01*
X73748444Y-40018414D01*
X73844951Y-40207820D01*
X73969890Y-40379786D01*
X74120213Y-40530109D01*
X74292179Y-40655048D01*
X74292181Y-40655049D01*
X74292184Y-40655051D01*
X74301493Y-40659794D01*
X74352290Y-40707766D01*
X74369087Y-40775587D01*
X74346552Y-40841722D01*
X74301505Y-40880760D01*
X74292446Y-40885376D01*
X74292440Y-40885380D01*
X74238282Y-40924727D01*
X74238282Y-40924728D01*
X74870591Y-41557037D01*
X74807007Y-41574075D01*
X74692993Y-41639901D01*
X74599901Y-41732993D01*
X74534075Y-41847007D01*
X74517037Y-41910591D01*
X73884728Y-41278282D01*
X73884727Y-41278282D01*
X73845380Y-41332439D01*
X73748904Y-41521782D01*
X73683242Y-41723869D01*
X73683242Y-41723872D01*
X73650000Y-41933753D01*
X73650000Y-42146246D01*
X73683242Y-42356127D01*
X73683242Y-42356130D01*
X73748904Y-42558217D01*
X73845375Y-42747550D01*
X73884728Y-42801716D01*
X74517037Y-42169408D01*
X74534075Y-42232993D01*
X74599901Y-42347007D01*
X74692993Y-42440099D01*
X74807007Y-42505925D01*
X74870590Y-42522962D01*
X74200370Y-43193181D01*
X74139047Y-43226666D01*
X74112698Y-43229500D01*
X74102134Y-43229500D01*
X74102123Y-43229501D01*
X74042516Y-43235908D01*
X73907671Y-43286202D01*
X73907664Y-43286206D01*
X73792455Y-43372452D01*
X73792452Y-43372455D01*
X73706206Y-43487664D01*
X73706202Y-43487671D01*
X73655908Y-43622517D01*
X73649501Y-43682116D01*
X73649501Y-43682123D01*
X73649500Y-43682135D01*
X73649500Y-45477870D01*
X73649501Y-45477876D01*
X73655908Y-45537483D01*
X73706202Y-45672328D01*
X73706206Y-45672335D01*
X73792452Y-45787544D01*
X73792455Y-45787547D01*
X73907664Y-45873793D01*
X73907671Y-45873797D01*
X74042517Y-45924091D01*
X74042516Y-45924091D01*
X74049444Y-45924835D01*
X74102127Y-45930500D01*
X75897872Y-45930499D01*
X75957483Y-45924091D01*
X76092331Y-45873796D01*
X76207546Y-45787546D01*
X76293796Y-45672331D01*
X76344091Y-45537483D01*
X76350500Y-45477873D01*
X76350500Y-45304500D01*
X76370185Y-45237461D01*
X76422989Y-45191706D01*
X76474500Y-45180500D01*
X82639903Y-45180500D01*
X82706942Y-45200185D01*
X82727584Y-45216819D01*
X87689084Y-50178319D01*
X87722569Y-50239642D01*
X87717585Y-50309334D01*
X87675713Y-50365267D01*
X87610249Y-50389684D01*
X87601403Y-50390000D01*
X87453754Y-50390000D01*
X87243872Y-50423242D01*
X87243869Y-50423242D01*
X87041782Y-50488904D01*
X86852439Y-50585380D01*
X86798282Y-50624727D01*
X86798282Y-50624728D01*
X87430591Y-51257037D01*
X87367007Y-51274075D01*
X87252993Y-51339901D01*
X87159901Y-51432993D01*
X87094075Y-51547007D01*
X87077037Y-51610591D01*
X86444728Y-50978282D01*
X86444727Y-50978282D01*
X86405380Y-51032440D01*
X86405376Y-51032446D01*
X86400760Y-51041505D01*
X86352781Y-51092297D01*
X86284959Y-51109087D01*
X86218826Y-51086543D01*
X86179794Y-51041493D01*
X86175051Y-51032184D01*
X86175049Y-51032181D01*
X86175048Y-51032179D01*
X86050109Y-50860213D01*
X85899786Y-50709890D01*
X85727820Y-50584951D01*
X85538414Y-50488444D01*
X85538413Y-50488443D01*
X85538412Y-50488443D01*
X85336243Y-50422754D01*
X85336241Y-50422753D01*
X85336240Y-50422753D01*
X85174957Y-50397208D01*
X85126287Y-50389500D01*
X84913713Y-50389500D01*
X84865042Y-50397208D01*
X84703760Y-50422753D01*
X84501585Y-50488444D01*
X84312179Y-50584951D01*
X84140213Y-50709890D01*
X83989890Y-50860213D01*
X83864951Y-51032179D01*
X83768444Y-51221585D01*
X83702753Y-51423760D01*
X83669500Y-51633713D01*
X83669500Y-51846286D01*
X83702753Y-52056239D01*
X83768444Y-52258414D01*
X83864951Y-52447820D01*
X83989890Y-52619786D01*
X84140213Y-52770109D01*
X84312179Y-52895048D01*
X84312181Y-52895049D01*
X84312184Y-52895051D01*
X84501588Y-52991557D01*
X84703757Y-53057246D01*
X84913713Y-53090500D01*
X84913714Y-53090500D01*
X85126286Y-53090500D01*
X85126287Y-53090500D01*
X85336243Y-53057246D01*
X85538412Y-52991557D01*
X85727816Y-52895051D01*
X85814138Y-52832335D01*
X85899786Y-52770109D01*
X85899788Y-52770106D01*
X85899792Y-52770104D01*
X86050104Y-52619792D01*
X86050106Y-52619788D01*
X86050109Y-52619786D01*
X86117515Y-52527007D01*
X86175051Y-52447816D01*
X86179793Y-52438508D01*
X86227763Y-52387711D01*
X86295583Y-52370911D01*
X86361719Y-52393445D01*
X86400763Y-52438500D01*
X86405373Y-52447547D01*
X86444728Y-52501716D01*
X87077037Y-51869408D01*
X87094075Y-51932993D01*
X87159901Y-52047007D01*
X87252993Y-52140099D01*
X87367007Y-52205925D01*
X87430589Y-52222962D01*
X86798282Y-52855269D01*
X86798282Y-52855270D01*
X86852449Y-52894624D01*
X87041782Y-52991095D01*
X87243870Y-53056757D01*
X87453754Y-53090000D01*
X87601401Y-53090000D01*
X87668440Y-53109685D01*
X87714195Y-53162489D01*
X87724139Y-53231647D01*
X87695114Y-53295203D01*
X87689082Y-53301681D01*
X83805540Y-57185223D01*
X83744217Y-57218708D01*
X83674525Y-57213724D01*
X83618592Y-57171852D01*
X83617620Y-57170534D01*
X83606379Y-57155063D01*
X83444937Y-56993621D01*
X83260228Y-56859421D01*
X83260224Y-56859419D01*
X83056803Y-56755770D01*
X82839660Y-56685215D01*
X82614162Y-56649500D01*
X82614157Y-56649500D01*
X82385843Y-56649500D01*
X82385838Y-56649500D01*
X82160339Y-56685215D01*
X81943196Y-56755770D01*
X81739771Y-56859421D01*
X81555061Y-56993622D01*
X81393622Y-57155061D01*
X81259421Y-57339771D01*
X81155770Y-57543196D01*
X81085215Y-57760339D01*
X81049500Y-57985837D01*
X81049500Y-59514162D01*
X81085215Y-59739660D01*
X81155770Y-59956803D01*
X81258347Y-60158121D01*
X81259421Y-60160228D01*
X81393621Y-60344937D01*
X81555063Y-60506379D01*
X81739772Y-60640579D01*
X81835884Y-60689550D01*
X81943196Y-60744229D01*
X81943198Y-60744229D01*
X81943201Y-60744231D01*
X82059592Y-60782049D01*
X82160339Y-60814784D01*
X82385838Y-60850500D01*
X82385843Y-60850500D01*
X82614162Y-60850500D01*
X82839660Y-60814784D01*
X82840522Y-60814504D01*
X83056799Y-60744231D01*
X83260228Y-60640579D01*
X83444937Y-60506379D01*
X83606379Y-60344937D01*
X83740579Y-60160228D01*
X83844231Y-59956799D01*
X83914784Y-59739660D01*
X83920986Y-59700500D01*
X83950500Y-59514162D01*
X83950500Y-58790097D01*
X83970185Y-58723058D01*
X83986819Y-58702416D01*
X89187819Y-53501416D01*
X89249142Y-53467931D01*
X89318834Y-53472915D01*
X89374767Y-53514787D01*
X89399184Y-53580251D01*
X89399500Y-53589097D01*
X89399500Y-60375165D01*
X89379815Y-60442204D01*
X89348386Y-60475482D01*
X89231607Y-60560328D01*
X89231605Y-60560330D01*
X89231604Y-60560330D01*
X89100330Y-60691604D01*
X89100330Y-60691605D01*
X89100328Y-60691607D01*
X89090116Y-60705663D01*
X88991201Y-60841806D01*
X88906916Y-61007226D01*
X88849542Y-61183803D01*
X88820500Y-61367165D01*
X88820500Y-61552834D01*
X88828856Y-61605590D01*
X88849543Y-61736200D01*
X88906915Y-61912771D01*
X88991201Y-62078193D01*
X89100328Y-62228393D01*
X89231607Y-62359672D01*
X89381807Y-62468799D01*
X89547229Y-62553085D01*
X89723800Y-62610457D01*
X89723802Y-62610457D01*
X89728433Y-62611962D01*
X89727820Y-62613848D01*
X89781149Y-62644449D01*
X89813329Y-62706467D01*
X89806873Y-62776037D01*
X89763828Y-62831073D01*
X89728175Y-62847370D01*
X89728551Y-62848525D01*
X89547416Y-62907379D01*
X89382065Y-62991631D01*
X89360704Y-63007150D01*
X89360704Y-63007151D01*
X89931828Y-63578274D01*
X89835956Y-63603963D01*
X89739044Y-63659916D01*
X89659916Y-63739044D01*
X89603963Y-63835956D01*
X89578274Y-63931827D01*
X89007151Y-63360704D01*
X89007150Y-63360704D01*
X88991631Y-63382065D01*
X88907379Y-63547416D01*
X88850031Y-63723916D01*
X88821000Y-63907211D01*
X88821000Y-64092788D01*
X88850031Y-64276083D01*
X88907379Y-64452583D01*
X88991629Y-64617931D01*
X89007151Y-64639294D01*
X89007151Y-64639295D01*
X89578274Y-64068172D01*
X89603963Y-64164044D01*
X89659916Y-64260956D01*
X89739044Y-64340084D01*
X89835956Y-64396037D01*
X89931827Y-64421725D01*
X89360704Y-64992847D01*
X89360704Y-64992848D01*
X89382068Y-65008370D01*
X89547418Y-65092620D01*
X89627279Y-65118569D01*
X89684954Y-65158006D01*
X89712153Y-65222365D01*
X89700238Y-65291211D01*
X89652994Y-65342687D01*
X89588961Y-65360500D01*
X89273130Y-65360500D01*
X89273123Y-65360501D01*
X89213516Y-65366908D01*
X89078671Y-65417202D01*
X89078664Y-65417206D01*
X88963455Y-65503452D01*
X88963452Y-65503455D01*
X88877206Y-65618664D01*
X88877202Y-65618671D01*
X88826908Y-65753517D01*
X88820501Y-65813116D01*
X88820501Y-65813123D01*
X88820500Y-65813135D01*
X88820500Y-67266870D01*
X88820501Y-67266876D01*
X88826908Y-67326483D01*
X88877202Y-67461328D01*
X88877206Y-67461335D01*
X88963452Y-67576544D01*
X88963455Y-67576547D01*
X89078664Y-67662793D01*
X89078671Y-67662797D01*
X89213517Y-67713091D01*
X89213516Y-67713091D01*
X89220444Y-67713835D01*
X89273127Y-67719500D01*
X90726872Y-67719499D01*
X90786483Y-67713091D01*
X90921331Y-67662796D01*
X91036546Y-67576546D01*
X91122796Y-67461331D01*
X91173091Y-67326483D01*
X91179500Y-67266873D01*
X91179500Y-67264500D01*
X91179655Y-67263971D01*
X91179678Y-67263548D01*
X91179777Y-67263553D01*
X91199185Y-67197461D01*
X91251989Y-67151706D01*
X91303500Y-67140500D01*
X102799669Y-67140500D01*
X102866708Y-67160185D01*
X102912463Y-67212989D01*
X102917373Y-67225491D01*
X102940116Y-67294124D01*
X102940186Y-67294333D01*
X102940187Y-67294336D01*
X102975069Y-67350888D01*
X103032288Y-67443656D01*
X103156344Y-67567712D01*
X103305666Y-67659814D01*
X103472203Y-67714999D01*
X103574991Y-67725500D01*
X104287402Y-67725499D01*
X104354441Y-67745183D01*
X104375083Y-67761818D01*
X105363181Y-68749916D01*
X105396666Y-68811239D01*
X105399500Y-68837597D01*
X105399500Y-79768942D01*
X105379815Y-79835981D01*
X105340598Y-79874479D01*
X105288140Y-79906836D01*
X105206342Y-79957289D01*
X105082285Y-80081346D01*
X105080537Y-80084182D01*
X105078829Y-80085717D01*
X105077807Y-80087011D01*
X105077585Y-80086836D01*
X105028589Y-80130905D01*
X104959626Y-80142126D01*
X104895544Y-80114282D01*
X104869463Y-80084182D01*
X104867714Y-80081346D01*
X104743657Y-79957289D01*
X104743656Y-79957288D01*
X104594334Y-79865186D01*
X104427797Y-79810001D01*
X104427795Y-79810000D01*
X104325010Y-79799500D01*
X103574998Y-79799500D01*
X103574980Y-79799501D01*
X103472203Y-79810000D01*
X103472200Y-79810001D01*
X103305668Y-79865185D01*
X103305663Y-79865187D01*
X103156342Y-79957289D01*
X103032289Y-80081342D01*
X102940187Y-80230663D01*
X102940186Y-80230666D01*
X102885001Y-80397203D01*
X102885001Y-80397204D01*
X102885000Y-80397204D01*
X102874500Y-80499983D01*
X102874500Y-81500001D01*
X102874501Y-81500019D01*
X102885000Y-81602796D01*
X102885001Y-81602799D01*
X102940185Y-81769331D01*
X102940186Y-81769334D01*
X103032288Y-81918656D01*
X103156344Y-82042712D01*
X103290597Y-82125519D01*
X103337321Y-82177465D01*
X103349500Y-82231057D01*
X103349500Y-85863330D01*
X103349499Y-85863348D01*
X103349499Y-86029054D01*
X103349498Y-86029054D01*
X103390423Y-86181785D01*
X103419358Y-86231900D01*
X103419359Y-86231904D01*
X103419360Y-86231904D01*
X103469479Y-86318714D01*
X103469481Y-86318717D01*
X103588349Y-86437585D01*
X103588355Y-86437590D01*
X103606651Y-86455886D01*
X103640136Y-86517209D01*
X103635152Y-86586901D01*
X103626358Y-86605566D01*
X103595532Y-86658958D01*
X103595530Y-86658963D01*
X103500344Y-86888761D01*
X103453216Y-87064645D01*
X103445576Y-87093163D01*
X103435967Y-87129023D01*
X103403500Y-87375623D01*
X103403500Y-87624376D01*
X103428268Y-87812501D01*
X103435967Y-87870978D01*
X103447843Y-87915299D01*
X103500344Y-88111238D01*
X103595530Y-88341036D01*
X103595534Y-88341046D01*
X103719900Y-88556455D01*
X103871321Y-88753791D01*
X103871327Y-88753798D01*
X104047201Y-88929672D01*
X104047208Y-88929678D01*
X104244544Y-89081099D01*
X104459953Y-89205465D01*
X104459954Y-89205465D01*
X104459957Y-89205467D01*
X104689760Y-89300655D01*
X104930022Y-89365033D01*
X105165544Y-89396040D01*
X105176615Y-89397498D01*
X105176631Y-89397500D01*
X105176638Y-89397500D01*
X105425362Y-89397500D01*
X105425369Y-89397500D01*
X105671978Y-89365033D01*
X105912240Y-89300655D01*
X106142043Y-89205467D01*
X106357456Y-89081099D01*
X106554793Y-88929677D01*
X106730677Y-88753793D01*
X106882099Y-88556456D01*
X107006467Y-88341043D01*
X107101655Y-88111240D01*
X107166033Y-87870978D01*
X107198500Y-87624369D01*
X107198500Y-87375631D01*
X107166033Y-87129022D01*
X107101655Y-86888760D01*
X107006467Y-86658957D01*
X106979590Y-86612405D01*
X106882099Y-86443544D01*
X106730678Y-86246208D01*
X106730672Y-86246201D01*
X106554798Y-86070327D01*
X106554791Y-86070321D01*
X106357455Y-85918900D01*
X106142046Y-85794534D01*
X106142036Y-85794530D01*
X105912238Y-85699344D01*
X105762439Y-85659206D01*
X105671978Y-85634967D01*
X105617176Y-85627752D01*
X105425376Y-85602500D01*
X105425369Y-85602500D01*
X105176631Y-85602500D01*
X105176623Y-85602500D01*
X104930022Y-85634967D01*
X104706593Y-85694834D01*
X104636743Y-85693171D01*
X104578881Y-85654008D01*
X104551377Y-85589780D01*
X104550500Y-85575059D01*
X104550500Y-82231057D01*
X104570185Y-82164018D01*
X104609401Y-82125520D01*
X104743656Y-82042712D01*
X104867712Y-81918656D01*
X104869461Y-81915819D01*
X104871169Y-81914283D01*
X104872193Y-81912989D01*
X104872414Y-81913163D01*
X104921406Y-81869096D01*
X104990368Y-81857872D01*
X105054451Y-81885713D01*
X105080537Y-81915817D01*
X105082288Y-81918656D01*
X105206344Y-82042712D01*
X105355666Y-82134814D01*
X105522203Y-82189999D01*
X105624991Y-82200500D01*
X106375008Y-82200499D01*
X106375016Y-82200498D01*
X106375019Y-82200498D01*
X106431302Y-82194748D01*
X106477797Y-82189999D01*
X106644334Y-82134814D01*
X106793656Y-82042712D01*
X106917712Y-81918656D01*
X107009814Y-81769334D01*
X107037595Y-81685495D01*
X107077368Y-81628051D01*
X107141884Y-81601228D01*
X107155301Y-81600500D01*
X108238331Y-81600500D01*
X108238347Y-81600501D01*
X108245943Y-81600501D01*
X108404054Y-81600501D01*
X108404057Y-81600501D01*
X108556785Y-81559577D01*
X108606904Y-81530639D01*
X108693716Y-81480520D01*
X108805520Y-81368716D01*
X108805520Y-81368714D01*
X108815728Y-81358507D01*
X108815730Y-81358504D01*
X109799916Y-80374318D01*
X109861239Y-80340833D01*
X109887597Y-80337999D01*
X110500002Y-80337999D01*
X110500008Y-80337999D01*
X110602797Y-80327499D01*
X110769334Y-80272314D01*
X110918656Y-80180212D01*
X111042712Y-80056156D01*
X111134814Y-79906834D01*
X111189999Y-79740297D01*
X111200500Y-79637509D01*
X111200499Y-79012492D01*
X111189999Y-78909703D01*
X111134814Y-78743166D01*
X111042712Y-78593844D01*
X110949049Y-78500181D01*
X110915564Y-78438858D01*
X110920548Y-78369166D01*
X110949049Y-78324819D01*
X111042712Y-78231156D01*
X111134814Y-78081834D01*
X111189999Y-77915297D01*
X111200500Y-77812509D01*
X111200499Y-77187492D01*
X111189999Y-77084703D01*
X111134814Y-76918166D01*
X111042712Y-76768844D01*
X110918656Y-76644788D01*
X110769334Y-76552686D01*
X110685495Y-76524904D01*
X110628051Y-76485132D01*
X110601228Y-76420616D01*
X110600500Y-76407199D01*
X110600500Y-75385837D01*
X118399500Y-75385837D01*
X118399500Y-75614162D01*
X118435215Y-75839660D01*
X118505770Y-76056803D01*
X118609421Y-76260228D01*
X118743621Y-76444937D01*
X118905063Y-76606379D01*
X119089772Y-76740579D01*
X119185884Y-76789550D01*
X119293196Y-76844229D01*
X119293198Y-76844229D01*
X119293201Y-76844231D01*
X119409592Y-76882049D01*
X119510339Y-76914784D01*
X119735838Y-76950500D01*
X119735843Y-76950500D01*
X121264162Y-76950500D01*
X121489660Y-76914784D01*
X121706799Y-76844231D01*
X121910228Y-76740579D01*
X122094937Y-76606379D01*
X122256379Y-76444937D01*
X122390579Y-76260228D01*
X122494231Y-76056799D01*
X122564784Y-75839660D01*
X122591506Y-75670944D01*
X122600500Y-75614162D01*
X122600500Y-75385837D01*
X122564784Y-75160339D01*
X122494229Y-74943196D01*
X122390578Y-74739771D01*
X122256379Y-74555063D01*
X122094937Y-74393621D01*
X121910228Y-74259421D01*
X121706803Y-74155770D01*
X121489660Y-74085215D01*
X121264162Y-74049500D01*
X121264157Y-74049500D01*
X119735843Y-74049500D01*
X119735838Y-74049500D01*
X119510339Y-74085215D01*
X119293196Y-74155770D01*
X119089771Y-74259421D01*
X118905061Y-74393622D01*
X118743622Y-74555061D01*
X118609421Y-74739771D01*
X118505770Y-74943196D01*
X118435215Y-75160339D01*
X118399500Y-75385837D01*
X110600500Y-75385837D01*
X110600500Y-74444538D01*
X110620185Y-74377499D01*
X110672989Y-74331744D01*
X110685486Y-74326835D01*
X110772925Y-74297862D01*
X110921003Y-74206526D01*
X111044026Y-74083503D01*
X111135362Y-73935425D01*
X111190087Y-73770275D01*
X111200500Y-73668348D01*
X111200500Y-73081652D01*
X111190087Y-72979725D01*
X111135362Y-72814575D01*
X111135358Y-72814569D01*
X111135357Y-72814566D01*
X111044028Y-72666500D01*
X111044025Y-72666496D01*
X110921003Y-72543474D01*
X110920995Y-72543468D01*
X110919812Y-72542738D01*
X110919171Y-72542025D01*
X110915336Y-72538993D01*
X110915854Y-72538337D01*
X110873091Y-72490787D01*
X110861875Y-72421823D01*
X110889723Y-72357743D01*
X110915123Y-72335738D01*
X110915023Y-72335612D01*
X110917842Y-72333382D01*
X110919832Y-72331659D01*
X110920692Y-72331128D01*
X111043629Y-72208191D01*
X111134903Y-72060214D01*
X111134905Y-72060209D01*
X111189592Y-71895173D01*
X111199999Y-71793315D01*
X111200000Y-71793302D01*
X111200000Y-71750000D01*
X108800000Y-71750000D01*
X108800000Y-71793315D01*
X108810407Y-71895173D01*
X108865094Y-72060209D01*
X108865096Y-72060214D01*
X108956370Y-72208191D01*
X109079309Y-72331130D01*
X109080173Y-72331663D01*
X109080641Y-72332183D01*
X109084977Y-72335612D01*
X109084391Y-72336352D01*
X109126901Y-72383608D01*
X109138126Y-72452570D01*
X109110286Y-72516654D01*
X109084601Y-72538914D01*
X109084664Y-72538993D01*
X109082912Y-72540378D01*
X109080194Y-72542734D01*
X109079005Y-72543467D01*
X109078996Y-72543474D01*
X108955974Y-72666496D01*
X108955971Y-72666500D01*
X108864642Y-72814566D01*
X108864637Y-72814577D01*
X108809913Y-72979723D01*
X108799500Y-73081644D01*
X108799500Y-73668355D01*
X108809913Y-73770276D01*
X108864637Y-73935422D01*
X108864642Y-73935433D01*
X108955971Y-74083499D01*
X108955974Y-74083503D01*
X109078996Y-74206525D01*
X109079000Y-74206528D01*
X109227066Y-74297857D01*
X109227069Y-74297858D01*
X109227075Y-74297862D01*
X109314504Y-74326833D01*
X109371948Y-74366604D01*
X109398772Y-74431120D01*
X109399500Y-74444538D01*
X109399500Y-76407199D01*
X109379815Y-76474238D01*
X109327011Y-76519993D01*
X109314507Y-76524903D01*
X109281962Y-76535688D01*
X109230668Y-76552685D01*
X109230663Y-76552687D01*
X109081342Y-76644789D01*
X108957289Y-76768842D01*
X108865187Y-76918163D01*
X108865185Y-76918168D01*
X108837349Y-77002170D01*
X108810001Y-77084703D01*
X108810001Y-77084704D01*
X108810000Y-77084704D01*
X108799500Y-77187483D01*
X108799500Y-77812501D01*
X108799501Y-77812519D01*
X108810000Y-77915296D01*
X108810001Y-77915299D01*
X108865185Y-78081831D01*
X108865187Y-78081836D01*
X108957289Y-78231157D01*
X109050951Y-78324819D01*
X109084436Y-78386142D01*
X109079452Y-78455834D01*
X109050951Y-78500181D01*
X108957289Y-78593842D01*
X108865187Y-78743163D01*
X108865186Y-78743166D01*
X108810001Y-78909703D01*
X108810001Y-78909704D01*
X108810000Y-78909704D01*
X108799500Y-79012483D01*
X108799500Y-79624900D01*
X108779815Y-79691939D01*
X108763181Y-79712581D01*
X108112584Y-80363181D01*
X108051261Y-80396666D01*
X108024903Y-80399500D01*
X107155301Y-80399500D01*
X107088262Y-80379815D01*
X107042507Y-80327011D01*
X107037595Y-80314504D01*
X107025000Y-80276494D01*
X107009814Y-80230666D01*
X106917712Y-80081344D01*
X106793656Y-79957288D01*
X106659402Y-79874480D01*
X106612679Y-79822533D01*
X106600500Y-79768942D01*
X106600500Y-71206684D01*
X108800000Y-71206684D01*
X108800000Y-71250000D01*
X109750000Y-71250000D01*
X110250000Y-71250000D01*
X111200000Y-71250000D01*
X111200000Y-71206697D01*
X111199999Y-71206684D01*
X111189592Y-71104826D01*
X111134905Y-70939790D01*
X111134903Y-70939785D01*
X111043629Y-70791808D01*
X110920691Y-70668870D01*
X110772714Y-70577596D01*
X110772709Y-70577594D01*
X110607673Y-70522907D01*
X110505815Y-70512500D01*
X110250000Y-70512500D01*
X110250000Y-71250000D01*
X109750000Y-71250000D01*
X109750000Y-70512500D01*
X109494184Y-70512500D01*
X109392326Y-70522907D01*
X109227290Y-70577594D01*
X109227285Y-70577596D01*
X109079308Y-70668870D01*
X108956370Y-70791808D01*
X108865096Y-70939785D01*
X108865094Y-70939790D01*
X108810407Y-71104826D01*
X108800000Y-71206684D01*
X106600500Y-71206684D01*
X106600500Y-68905513D01*
X118974500Y-68905513D01*
X118974500Y-69094486D01*
X119004059Y-69281118D01*
X119062454Y-69460836D01*
X119139774Y-69612584D01*
X119148240Y-69629199D01*
X119259310Y-69782073D01*
X119392927Y-69915690D01*
X119545801Y-70026760D01*
X119604725Y-70056783D01*
X119714163Y-70112545D01*
X119714165Y-70112545D01*
X119714168Y-70112547D01*
X119810497Y-70143846D01*
X119893881Y-70170940D01*
X120080514Y-70200500D01*
X120080519Y-70200500D01*
X120269486Y-70200500D01*
X120456118Y-70170940D01*
X120635832Y-70112547D01*
X120804199Y-70026760D01*
X120957073Y-69915690D01*
X121090690Y-69782073D01*
X121201760Y-69629199D01*
X121287547Y-69460832D01*
X121345940Y-69281118D01*
X121375500Y-69094486D01*
X121375500Y-68905513D01*
X121345940Y-68718881D01*
X121287545Y-68539163D01*
X121201759Y-68370800D01*
X121090690Y-68217927D01*
X120957073Y-68084310D01*
X120804199Y-67973240D01*
X120635836Y-67887454D01*
X120456118Y-67829059D01*
X120269486Y-67799500D01*
X120269481Y-67799500D01*
X120080519Y-67799500D01*
X120080514Y-67799500D01*
X119893881Y-67829059D01*
X119714163Y-67887454D01*
X119545800Y-67973240D01*
X119458579Y-68036610D01*
X119392927Y-68084310D01*
X119392925Y-68084312D01*
X119392924Y-68084312D01*
X119259312Y-68217924D01*
X119259312Y-68217925D01*
X119259310Y-68217927D01*
X119225739Y-68264133D01*
X119148240Y-68370800D01*
X119062454Y-68539163D01*
X119004059Y-68718881D01*
X118974500Y-68905513D01*
X106600500Y-68905513D01*
X106600500Y-68458445D01*
X106600500Y-68458443D01*
X106559577Y-68305715D01*
X106505466Y-68211993D01*
X106480520Y-68168784D01*
X106368716Y-68056980D01*
X106368713Y-68056978D01*
X106248415Y-67936680D01*
X106214930Y-67875357D01*
X106219914Y-67805665D01*
X106261786Y-67749732D01*
X106327250Y-67725315D01*
X106336096Y-67724999D01*
X106424972Y-67724999D01*
X106424986Y-67724998D01*
X106527697Y-67714505D01*
X106694119Y-67659358D01*
X106694124Y-67659356D01*
X106843345Y-67567315D01*
X106967315Y-67443345D01*
X107059356Y-67294124D01*
X107059358Y-67294119D01*
X107114505Y-67127697D01*
X107114506Y-67127690D01*
X107124999Y-67024986D01*
X107125000Y-67024973D01*
X107125000Y-66750000D01*
X106161500Y-66750000D01*
X106094461Y-66730315D01*
X106048706Y-66677511D01*
X106037500Y-66626000D01*
X106037500Y-66500000D01*
X105911500Y-66500000D01*
X105844461Y-66480315D01*
X105798706Y-66427511D01*
X105787500Y-66376000D01*
X105787500Y-66250000D01*
X106287500Y-66250000D01*
X107124999Y-66250000D01*
X107124999Y-65975028D01*
X107124998Y-65975013D01*
X107114505Y-65872302D01*
X107059358Y-65705880D01*
X107059356Y-65705875D01*
X106967315Y-65556654D01*
X106843345Y-65432684D01*
X106694124Y-65340643D01*
X106694119Y-65340641D01*
X106527697Y-65285494D01*
X106527690Y-65285493D01*
X106424986Y-65275000D01*
X106287500Y-65275000D01*
X106287500Y-66250000D01*
X105787500Y-66250000D01*
X105787500Y-65275000D01*
X105650027Y-65275000D01*
X105650012Y-65275001D01*
X105547302Y-65285494D01*
X105380880Y-65340641D01*
X105380875Y-65340643D01*
X105231654Y-65432684D01*
X105107683Y-65556655D01*
X105107679Y-65556660D01*
X105105826Y-65559665D01*
X105104018Y-65561290D01*
X105103202Y-65562323D01*
X105103025Y-65562183D01*
X105053874Y-65606385D01*
X104984911Y-65617601D01*
X104920831Y-65589752D01*
X104894753Y-65559653D01*
X104894737Y-65559628D01*
X104892712Y-65556344D01*
X104768656Y-65432288D01*
X104652270Y-65360501D01*
X104619336Y-65340187D01*
X104619331Y-65340185D01*
X104617862Y-65339698D01*
X104452797Y-65285001D01*
X104452795Y-65285000D01*
X104350010Y-65274500D01*
X103574998Y-65274500D01*
X103574980Y-65274501D01*
X103472203Y-65285000D01*
X103472200Y-65285001D01*
X103305668Y-65340185D01*
X103305663Y-65340187D01*
X103156342Y-65432289D01*
X103032289Y-65556342D01*
X102940187Y-65705663D01*
X102940185Y-65705668D01*
X102940115Y-65705880D01*
X102890864Y-65854507D01*
X102851095Y-65911949D01*
X102786579Y-65938772D01*
X102773161Y-65939500D01*
X91303499Y-65939500D01*
X91236460Y-65919815D01*
X91190705Y-65867011D01*
X91179702Y-65816434D01*
X91179676Y-65816436D01*
X91179667Y-65816273D01*
X91179499Y-65815500D01*
X91179499Y-65813129D01*
X91179498Y-65813123D01*
X91179497Y-65813116D01*
X91173091Y-65753517D01*
X91155244Y-65705668D01*
X91122797Y-65618671D01*
X91122793Y-65618664D01*
X91036547Y-65503455D01*
X91036544Y-65503452D01*
X90921335Y-65417206D01*
X90921328Y-65417202D01*
X90786482Y-65366908D01*
X90786483Y-65366908D01*
X90726883Y-65360501D01*
X90726881Y-65360500D01*
X90726873Y-65360500D01*
X90726865Y-65360500D01*
X90411040Y-65360500D01*
X90344001Y-65340815D01*
X90298246Y-65288011D01*
X90288302Y-65218853D01*
X90317327Y-65155297D01*
X90372722Y-65118569D01*
X90452581Y-65092620D01*
X90617933Y-65008368D01*
X90617940Y-65008364D01*
X90639294Y-64992848D01*
X90639295Y-64992847D01*
X90068173Y-64421725D01*
X90164044Y-64396037D01*
X90260956Y-64340084D01*
X90340084Y-64260956D01*
X90396037Y-64164044D01*
X90421725Y-64068173D01*
X90992847Y-64639295D01*
X90992848Y-64639294D01*
X91008364Y-64617940D01*
X91008368Y-64617933D01*
X91092620Y-64452583D01*
X91149968Y-64276083D01*
X91179000Y-64092788D01*
X91179000Y-63907211D01*
X91149968Y-63723916D01*
X91092620Y-63547416D01*
X91008370Y-63382068D01*
X90992847Y-63360704D01*
X90421725Y-63931826D01*
X90396037Y-63835956D01*
X90340084Y-63739044D01*
X90260956Y-63659916D01*
X90164044Y-63603963D01*
X90068172Y-63578274D01*
X90639295Y-63007151D01*
X90617931Y-62991629D01*
X90452583Y-62907379D01*
X90271449Y-62848525D01*
X90272068Y-62846619D01*
X90218803Y-62816015D01*
X90186656Y-62753980D01*
X90193152Y-62684413D01*
X90236227Y-62629401D01*
X90271939Y-62613107D01*
X90271567Y-62611962D01*
X90276197Y-62610457D01*
X90276200Y-62610457D01*
X90452771Y-62553085D01*
X90618193Y-62468799D01*
X90768393Y-62359672D01*
X90899672Y-62228393D01*
X90955455Y-62151613D01*
X91010785Y-62108949D01*
X91055773Y-62100500D01*
X99286415Y-62100500D01*
X99353454Y-62120185D01*
X99399209Y-62172989D01*
X99404118Y-62185489D01*
X99440186Y-62294334D01*
X99532288Y-62443656D01*
X99656344Y-62567712D01*
X99805666Y-62659814D01*
X99972203Y-62714999D01*
X100074991Y-62725500D01*
X100850008Y-62725499D01*
X100850016Y-62725498D01*
X100850019Y-62725498D01*
X100907354Y-62719641D01*
X100952797Y-62714999D01*
X101119334Y-62659814D01*
X101268656Y-62567712D01*
X101392712Y-62443656D01*
X101394752Y-62440347D01*
X101396745Y-62438555D01*
X101397193Y-62437989D01*
X101397289Y-62438065D01*
X101446694Y-62393623D01*
X101515656Y-62382395D01*
X101579740Y-62410234D01*
X101605829Y-62440339D01*
X101607681Y-62443341D01*
X101607683Y-62443344D01*
X101731654Y-62567315D01*
X101880875Y-62659356D01*
X101880880Y-62659358D01*
X102047302Y-62714505D01*
X102047309Y-62714506D01*
X102150019Y-62724999D01*
X102287499Y-62724999D01*
X102787500Y-62724999D01*
X102924972Y-62724999D01*
X102924986Y-62724998D01*
X103027697Y-62714505D01*
X103194119Y-62659358D01*
X103194124Y-62659356D01*
X103343345Y-62567315D01*
X103467315Y-62443345D01*
X103559356Y-62294124D01*
X103559358Y-62294119D01*
X103614505Y-62127697D01*
X103614506Y-62127690D01*
X103624999Y-62024986D01*
X103625000Y-62024973D01*
X103625000Y-61750000D01*
X102787500Y-61750000D01*
X102787500Y-62724999D01*
X102287499Y-62724999D01*
X102287500Y-62724998D01*
X102287500Y-61250000D01*
X102787500Y-61250000D01*
X103624999Y-61250000D01*
X103624999Y-60975028D01*
X103624998Y-60975013D01*
X103614505Y-60872302D01*
X103559358Y-60705880D01*
X103559356Y-60705875D01*
X103467315Y-60556654D01*
X103343345Y-60432684D01*
X103194124Y-60340643D01*
X103194119Y-60340641D01*
X103027697Y-60285494D01*
X103027690Y-60285493D01*
X102924986Y-60275000D01*
X102787500Y-60275000D01*
X102787500Y-61250000D01*
X102287500Y-61250000D01*
X102287500Y-60275000D01*
X102150027Y-60275000D01*
X102150012Y-60275001D01*
X102047302Y-60285494D01*
X101880880Y-60340641D01*
X101880875Y-60340643D01*
X101731654Y-60432684D01*
X101607683Y-60556655D01*
X101607679Y-60556660D01*
X101605826Y-60559665D01*
X101604018Y-60561290D01*
X101603202Y-60562323D01*
X101603025Y-60562183D01*
X101553874Y-60606385D01*
X101484911Y-60617601D01*
X101420831Y-60589752D01*
X101394753Y-60559653D01*
X101394737Y-60559628D01*
X101392712Y-60556344D01*
X101268656Y-60432288D01*
X101175888Y-60375069D01*
X101119336Y-60340187D01*
X101119331Y-60340185D01*
X101117862Y-60339698D01*
X100952797Y-60285001D01*
X100952795Y-60285000D01*
X100850010Y-60274500D01*
X100074998Y-60274500D01*
X100074980Y-60274501D01*
X99972203Y-60285000D01*
X99972200Y-60285001D01*
X99805668Y-60340185D01*
X99805663Y-60340187D01*
X99656342Y-60432289D01*
X99532289Y-60556342D01*
X99440187Y-60705663D01*
X99440185Y-60705668D01*
X99404121Y-60814504D01*
X99364348Y-60871949D01*
X99299833Y-60898772D01*
X99286415Y-60899500D01*
X91113597Y-60899500D01*
X91046558Y-60879815D01*
X91012568Y-60845091D01*
X91011663Y-60845749D01*
X91008798Y-60841806D01*
X90899672Y-60691607D01*
X90768393Y-60560328D01*
X90651613Y-60475482D01*
X90608949Y-60420153D01*
X90600500Y-60375165D01*
X90600500Y-57905513D01*
X118974500Y-57905513D01*
X118974500Y-58094486D01*
X119004059Y-58281118D01*
X119062454Y-58460836D01*
X119148240Y-58629199D01*
X119259310Y-58782073D01*
X119392927Y-58915690D01*
X119545801Y-59026760D01*
X119625347Y-59067290D01*
X119714163Y-59112545D01*
X119714165Y-59112545D01*
X119714168Y-59112547D01*
X119810497Y-59143846D01*
X119893881Y-59170940D01*
X120080514Y-59200500D01*
X120080519Y-59200500D01*
X120269486Y-59200500D01*
X120456118Y-59170940D01*
X120635832Y-59112547D01*
X120804199Y-59026760D01*
X120957073Y-58915690D01*
X121090690Y-58782073D01*
X121201760Y-58629199D01*
X121287547Y-58460832D01*
X121345940Y-58281118D01*
X121350869Y-58250000D01*
X121375500Y-58094486D01*
X121375500Y-57905513D01*
X121345940Y-57718881D01*
X121302370Y-57584789D01*
X121287547Y-57539168D01*
X121287545Y-57539165D01*
X121287545Y-57539163D01*
X121201759Y-57370800D01*
X121197680Y-57365186D01*
X121090690Y-57217927D01*
X120957073Y-57084310D01*
X120804199Y-56973240D01*
X120635836Y-56887454D01*
X120456118Y-56829059D01*
X120269486Y-56799500D01*
X120269481Y-56799500D01*
X120080519Y-56799500D01*
X120080514Y-56799500D01*
X119893881Y-56829059D01*
X119714163Y-56887454D01*
X119545800Y-56973240D01*
X119458579Y-57036610D01*
X119392927Y-57084310D01*
X119392925Y-57084312D01*
X119392924Y-57084312D01*
X119259312Y-57217924D01*
X119259312Y-57217925D01*
X119259310Y-57217927D01*
X119258743Y-57218708D01*
X119148240Y-57370800D01*
X119062454Y-57539163D01*
X119004059Y-57718881D01*
X118974500Y-57905513D01*
X90600500Y-57905513D01*
X90600500Y-53076670D01*
X90620185Y-53009631D01*
X90668204Y-52966186D01*
X90807816Y-52895051D01*
X90894138Y-52832335D01*
X90979786Y-52770109D01*
X90979788Y-52770106D01*
X90979792Y-52770104D01*
X91130104Y-52619792D01*
X91130106Y-52619788D01*
X91130109Y-52619786D01*
X91255048Y-52447820D01*
X91255047Y-52447820D01*
X91255051Y-52447816D01*
X91259514Y-52439054D01*
X91307488Y-52388259D01*
X91375308Y-52371463D01*
X91441444Y-52393999D01*
X91480486Y-52439056D01*
X91484951Y-52447820D01*
X91609890Y-52619786D01*
X91760213Y-52770109D01*
X91932179Y-52895048D01*
X91932181Y-52895049D01*
X91932184Y-52895051D01*
X92121588Y-52991557D01*
X92323757Y-53057246D01*
X92533713Y-53090500D01*
X92533714Y-53090500D01*
X92746286Y-53090500D01*
X92746287Y-53090500D01*
X92956243Y-53057246D01*
X93158412Y-52991557D01*
X93347816Y-52895051D01*
X93434138Y-52832335D01*
X93519786Y-52770109D01*
X93519788Y-52770106D01*
X93519792Y-52770104D01*
X93670104Y-52619792D01*
X93670106Y-52619788D01*
X93670109Y-52619786D01*
X93795048Y-52447820D01*
X93795047Y-52447820D01*
X93795051Y-52447816D01*
X93799514Y-52439054D01*
X93847488Y-52388259D01*
X93915308Y-52371463D01*
X93981444Y-52393999D01*
X94020486Y-52439056D01*
X94024951Y-52447820D01*
X94149890Y-52619786D01*
X94300213Y-52770109D01*
X94472179Y-52895048D01*
X94472181Y-52895049D01*
X94472184Y-52895051D01*
X94661588Y-52991557D01*
X94863757Y-53057246D01*
X95073713Y-53090500D01*
X95073714Y-53090500D01*
X95286286Y-53090500D01*
X95286287Y-53090500D01*
X95496243Y-53057246D01*
X95698412Y-52991557D01*
X95887816Y-52895051D01*
X95974138Y-52832335D01*
X96059786Y-52770109D01*
X96059788Y-52770106D01*
X96059792Y-52770104D01*
X96210104Y-52619792D01*
X96210106Y-52619788D01*
X96210109Y-52619786D01*
X96335048Y-52447820D01*
X96335047Y-52447820D01*
X96335051Y-52447816D01*
X96339514Y-52439054D01*
X96387488Y-52388259D01*
X96455308Y-52371463D01*
X96521444Y-52393999D01*
X96560486Y-52439056D01*
X96564951Y-52447820D01*
X96689890Y-52619786D01*
X96840213Y-52770109D01*
X97012179Y-52895048D01*
X97012181Y-52895049D01*
X97012184Y-52895051D01*
X97201588Y-52991557D01*
X97403757Y-53057246D01*
X97613713Y-53090500D01*
X97613714Y-53090500D01*
X97826286Y-53090500D01*
X97826287Y-53090500D01*
X98036243Y-53057246D01*
X98238412Y-52991557D01*
X98427816Y-52895051D01*
X98514138Y-52832335D01*
X98599786Y-52770109D01*
X98599788Y-52770106D01*
X98599792Y-52770104D01*
X98750104Y-52619792D01*
X98750106Y-52619788D01*
X98750109Y-52619786D01*
X98875048Y-52447820D01*
X98875047Y-52447820D01*
X98875051Y-52447816D01*
X98879514Y-52439054D01*
X98927488Y-52388259D01*
X98995308Y-52371463D01*
X99061444Y-52393999D01*
X99100486Y-52439056D01*
X99104951Y-52447820D01*
X99229890Y-52619786D01*
X99380213Y-52770109D01*
X99552179Y-52895048D01*
X99552181Y-52895049D01*
X99552184Y-52895051D01*
X99741588Y-52991557D01*
X99943757Y-53057246D01*
X100153713Y-53090500D01*
X100153714Y-53090500D01*
X100366286Y-53090500D01*
X100366287Y-53090500D01*
X100576243Y-53057246D01*
X100778412Y-52991557D01*
X100967816Y-52895051D01*
X101054138Y-52832335D01*
X101139786Y-52770109D01*
X101139788Y-52770106D01*
X101139792Y-52770104D01*
X101290104Y-52619792D01*
X101290106Y-52619788D01*
X101290109Y-52619786D01*
X101415048Y-52447820D01*
X101415047Y-52447820D01*
X101415051Y-52447816D01*
X101419514Y-52439054D01*
X101467488Y-52388259D01*
X101535308Y-52371463D01*
X101601444Y-52393999D01*
X101640486Y-52439056D01*
X101644951Y-52447820D01*
X101769890Y-52619786D01*
X101920213Y-52770109D01*
X102092179Y-52895048D01*
X102092181Y-52895049D01*
X102092184Y-52895051D01*
X102281588Y-52991557D01*
X102483757Y-53057246D01*
X102693713Y-53090500D01*
X102693714Y-53090500D01*
X102906286Y-53090500D01*
X102906287Y-53090500D01*
X103116243Y-53057246D01*
X103318412Y-52991557D01*
X103507816Y-52895051D01*
X103594138Y-52832335D01*
X103679786Y-52770109D01*
X103679788Y-52770106D01*
X103679792Y-52770104D01*
X103830104Y-52619792D01*
X103830106Y-52619788D01*
X103830109Y-52619786D01*
X103955048Y-52447820D01*
X103955047Y-52447820D01*
X103955051Y-52447816D01*
X103959514Y-52439054D01*
X104007488Y-52388259D01*
X104075308Y-52371463D01*
X104141444Y-52393999D01*
X104180486Y-52439056D01*
X104184951Y-52447820D01*
X104309890Y-52619786D01*
X104460213Y-52770109D01*
X104632179Y-52895048D01*
X104632181Y-52895049D01*
X104632184Y-52895051D01*
X104821588Y-52991557D01*
X105023757Y-53057246D01*
X105233713Y-53090500D01*
X105233714Y-53090500D01*
X105446286Y-53090500D01*
X105446287Y-53090500D01*
X105656243Y-53057246D01*
X105858412Y-52991557D01*
X106047816Y-52895051D01*
X106134138Y-52832335D01*
X106219786Y-52770109D01*
X106219788Y-52770106D01*
X106219792Y-52770104D01*
X106370104Y-52619792D01*
X106370106Y-52619788D01*
X106370109Y-52619786D01*
X106495048Y-52447820D01*
X106495047Y-52447820D01*
X106495051Y-52447816D01*
X106499514Y-52439054D01*
X106547488Y-52388259D01*
X106615308Y-52371463D01*
X106681444Y-52393999D01*
X106720486Y-52439056D01*
X106724951Y-52447820D01*
X106849890Y-52619786D01*
X107000213Y-52770109D01*
X107172179Y-52895048D01*
X107172181Y-52895049D01*
X107172184Y-52895051D01*
X107361588Y-52991557D01*
X107563757Y-53057246D01*
X107773713Y-53090500D01*
X107773714Y-53090500D01*
X107986286Y-53090500D01*
X107986287Y-53090500D01*
X108196243Y-53057246D01*
X108398412Y-52991557D01*
X108587816Y-52895051D01*
X108674138Y-52832335D01*
X108759786Y-52770109D01*
X108759788Y-52770106D01*
X108759792Y-52770104D01*
X108910104Y-52619792D01*
X108910106Y-52619788D01*
X108910109Y-52619786D01*
X109035048Y-52447820D01*
X109035047Y-52447820D01*
X109035051Y-52447816D01*
X109039514Y-52439054D01*
X109087488Y-52388259D01*
X109155308Y-52371463D01*
X109221444Y-52393999D01*
X109260486Y-52439056D01*
X109264951Y-52447820D01*
X109389890Y-52619786D01*
X109540213Y-52770109D01*
X109712179Y-52895048D01*
X109712181Y-52895049D01*
X109712184Y-52895051D01*
X109901588Y-52991557D01*
X110103757Y-53057246D01*
X110313713Y-53090500D01*
X110313714Y-53090500D01*
X110526286Y-53090500D01*
X110526287Y-53090500D01*
X110736243Y-53057246D01*
X110938412Y-52991557D01*
X111127816Y-52895051D01*
X111214138Y-52832335D01*
X111299786Y-52770109D01*
X111299788Y-52770106D01*
X111299792Y-52770104D01*
X111450104Y-52619792D01*
X111450106Y-52619788D01*
X111450109Y-52619786D01*
X111575048Y-52447820D01*
X111575047Y-52447820D01*
X111575051Y-52447816D01*
X111579514Y-52439054D01*
X111627488Y-52388259D01*
X111695308Y-52371463D01*
X111761444Y-52393999D01*
X111800486Y-52439056D01*
X111804951Y-52447820D01*
X111929890Y-52619786D01*
X112080213Y-52770109D01*
X112252179Y-52895048D01*
X112252181Y-52895049D01*
X112252184Y-52895051D01*
X112441588Y-52991557D01*
X112643757Y-53057246D01*
X112853713Y-53090500D01*
X112853714Y-53090500D01*
X113066286Y-53090500D01*
X113066287Y-53090500D01*
X113276243Y-53057246D01*
X113478412Y-52991557D01*
X113667816Y-52895051D01*
X113754138Y-52832335D01*
X113839786Y-52770109D01*
X113839788Y-52770106D01*
X113839792Y-52770104D01*
X113990104Y-52619792D01*
X113990106Y-52619788D01*
X113990109Y-52619786D01*
X114115048Y-52447820D01*
X114115047Y-52447820D01*
X114115051Y-52447816D01*
X114119514Y-52439054D01*
X114167488Y-52388259D01*
X114235308Y-52371463D01*
X114301444Y-52393999D01*
X114340486Y-52439056D01*
X114344951Y-52447820D01*
X114469890Y-52619786D01*
X114620213Y-52770109D01*
X114792179Y-52895048D01*
X114792181Y-52895049D01*
X114792184Y-52895051D01*
X114981588Y-52991557D01*
X115183757Y-53057246D01*
X115393713Y-53090500D01*
X115393714Y-53090500D01*
X115606286Y-53090500D01*
X115606287Y-53090500D01*
X115816243Y-53057246D01*
X116018412Y-52991557D01*
X116207816Y-52895051D01*
X116294138Y-52832335D01*
X116379786Y-52770109D01*
X116379788Y-52770106D01*
X116379792Y-52770104D01*
X116530104Y-52619792D01*
X116530106Y-52619788D01*
X116530109Y-52619786D01*
X116655048Y-52447820D01*
X116655047Y-52447820D01*
X116655051Y-52447816D01*
X116659514Y-52439054D01*
X116707488Y-52388259D01*
X116775308Y-52371463D01*
X116841444Y-52393999D01*
X116880486Y-52439056D01*
X116884951Y-52447820D01*
X117009890Y-52619786D01*
X117160213Y-52770109D01*
X117332179Y-52895048D01*
X117332181Y-52895049D01*
X117332184Y-52895051D01*
X117521588Y-52991557D01*
X117723757Y-53057246D01*
X117933713Y-53090500D01*
X117933714Y-53090500D01*
X118146286Y-53090500D01*
X118146287Y-53090500D01*
X118356243Y-53057246D01*
X118558412Y-52991557D01*
X118747816Y-52895051D01*
X118834138Y-52832335D01*
X118919786Y-52770109D01*
X118919788Y-52770106D01*
X118919792Y-52770104D01*
X119070104Y-52619792D01*
X119070106Y-52619788D01*
X119070109Y-52619786D01*
X119195048Y-52447820D01*
X119195047Y-52447820D01*
X119195051Y-52447816D01*
X119199514Y-52439054D01*
X119247488Y-52388259D01*
X119315308Y-52371463D01*
X119381444Y-52393999D01*
X119420486Y-52439056D01*
X119424951Y-52447820D01*
X119549890Y-52619786D01*
X119700213Y-52770109D01*
X119872179Y-52895048D01*
X119872181Y-52895049D01*
X119872184Y-52895051D01*
X120061588Y-52991557D01*
X120263757Y-53057246D01*
X120473713Y-53090500D01*
X120473714Y-53090500D01*
X120686286Y-53090500D01*
X120686287Y-53090500D01*
X120896243Y-53057246D01*
X121098412Y-52991557D01*
X121287816Y-52895051D01*
X121374138Y-52832335D01*
X121459786Y-52770109D01*
X121459788Y-52770106D01*
X121459792Y-52770104D01*
X121610104Y-52619792D01*
X121610106Y-52619788D01*
X121610109Y-52619786D01*
X121735048Y-52447820D01*
X121735047Y-52447820D01*
X121735051Y-52447816D01*
X121739514Y-52439054D01*
X121787488Y-52388259D01*
X121855308Y-52371463D01*
X121921444Y-52393999D01*
X121960486Y-52439056D01*
X121964951Y-52447820D01*
X122089890Y-52619786D01*
X122240213Y-52770109D01*
X122412179Y-52895048D01*
X122412181Y-52895049D01*
X122412184Y-52895051D01*
X122601588Y-52991557D01*
X122803757Y-53057246D01*
X123013713Y-53090500D01*
X123013714Y-53090500D01*
X123226286Y-53090500D01*
X123226287Y-53090500D01*
X123436243Y-53057246D01*
X123638412Y-52991557D01*
X123827816Y-52895051D01*
X123914138Y-52832335D01*
X123999786Y-52770109D01*
X123999788Y-52770106D01*
X123999792Y-52770104D01*
X124150104Y-52619792D01*
X124150106Y-52619788D01*
X124150109Y-52619786D01*
X124275048Y-52447820D01*
X124275047Y-52447820D01*
X124275051Y-52447816D01*
X124279514Y-52439054D01*
X124327488Y-52388259D01*
X124395308Y-52371463D01*
X124461444Y-52393999D01*
X124500486Y-52439056D01*
X124504951Y-52447820D01*
X124629890Y-52619786D01*
X124780213Y-52770109D01*
X124952179Y-52895048D01*
X124952181Y-52895049D01*
X124952184Y-52895051D01*
X125141588Y-52991557D01*
X125343757Y-53057246D01*
X125553713Y-53090500D01*
X125553714Y-53090500D01*
X125766286Y-53090500D01*
X125766287Y-53090500D01*
X125976243Y-53057246D01*
X126178412Y-52991557D01*
X126367816Y-52895051D01*
X126454138Y-52832335D01*
X126539786Y-52770109D01*
X126539788Y-52770106D01*
X126539792Y-52770104D01*
X126690104Y-52619792D01*
X126690106Y-52619788D01*
X126690109Y-52619786D01*
X126815048Y-52447820D01*
X126815047Y-52447820D01*
X126815051Y-52447816D01*
X126819514Y-52439054D01*
X126867488Y-52388259D01*
X126935308Y-52371463D01*
X127001444Y-52393999D01*
X127040486Y-52439056D01*
X127044951Y-52447820D01*
X127169890Y-52619786D01*
X127320213Y-52770109D01*
X127492179Y-52895048D01*
X127492181Y-52895049D01*
X127492184Y-52895051D01*
X127681588Y-52991557D01*
X127883757Y-53057246D01*
X128093713Y-53090500D01*
X128093714Y-53090500D01*
X128306286Y-53090500D01*
X128306287Y-53090500D01*
X128516243Y-53057246D01*
X128558523Y-53043507D01*
X128628362Y-53041511D01*
X128684522Y-53073757D01*
X132363181Y-56752416D01*
X132396666Y-56813739D01*
X132399500Y-56840097D01*
X132399500Y-59189517D01*
X132379815Y-59256556D01*
X132327011Y-59302311D01*
X132257853Y-59312255D01*
X132194297Y-59283230D01*
X132173572Y-59260134D01*
X132133846Y-59202794D01*
X131972203Y-59041151D01*
X131784296Y-58910967D01*
X131784287Y-58910962D01*
X131576152Y-58816423D01*
X131354474Y-58760566D01*
X131220226Y-58750000D01*
X130425000Y-58750000D01*
X130425000Y-60081116D01*
X130268567Y-60050000D01*
X130081433Y-60050000D01*
X129925000Y-60081116D01*
X129925000Y-58750000D01*
X129129787Y-58750000D01*
X129129772Y-58750001D01*
X128995525Y-58760566D01*
X128773847Y-58816423D01*
X128565712Y-58910962D01*
X128565703Y-58910967D01*
X128377796Y-59041151D01*
X128216151Y-59202796D01*
X128085967Y-59390703D01*
X128085962Y-59390712D01*
X127991423Y-59598847D01*
X127935566Y-59820525D01*
X127925000Y-59954773D01*
X127925000Y-60750000D01*
X129256116Y-60750000D01*
X129225000Y-60906433D01*
X129225000Y-61093567D01*
X129256116Y-61250000D01*
X127925001Y-61250000D01*
X127925001Y-62045227D01*
X127935566Y-62179474D01*
X127991423Y-62401152D01*
X128085962Y-62609287D01*
X128085967Y-62609296D01*
X128216151Y-62797203D01*
X128377796Y-62958848D01*
X128565703Y-63089032D01*
X128565712Y-63089037D01*
X128773847Y-63183576D01*
X128995525Y-63239433D01*
X129129780Y-63249999D01*
X129924999Y-63249999D01*
X129925000Y-63249998D01*
X129925000Y-61918883D01*
X130081433Y-61950000D01*
X130268567Y-61950000D01*
X130425000Y-61918883D01*
X130425000Y-63249999D01*
X131220212Y-63249999D01*
X131220227Y-63249998D01*
X131354474Y-63239433D01*
X131576152Y-63183576D01*
X131784287Y-63089037D01*
X131784296Y-63089032D01*
X131972203Y-62958848D01*
X132133848Y-62797203D01*
X132173572Y-62739866D01*
X132227930Y-62695969D01*
X132297392Y-62688430D01*
X132359903Y-62719641D01*
X132395617Y-62779693D01*
X132399500Y-62810482D01*
X132399500Y-64889171D01*
X132379815Y-64956210D01*
X132327011Y-65001965D01*
X132257853Y-65011909D01*
X132194297Y-64982884D01*
X132168113Y-64951171D01*
X132050238Y-64747006D01*
X131870647Y-64512959D01*
X131870641Y-64512952D01*
X131662047Y-64304358D01*
X131662040Y-64304352D01*
X131427993Y-64124761D01*
X131172510Y-63977258D01*
X131172500Y-63977254D01*
X130899961Y-63864364D01*
X130899954Y-63864362D01*
X130899952Y-63864361D01*
X130614993Y-63788007D01*
X130566113Y-63781571D01*
X130322513Y-63749500D01*
X130322506Y-63749500D01*
X130027494Y-63749500D01*
X130027486Y-63749500D01*
X129749085Y-63786153D01*
X129735007Y-63788007D01*
X129556058Y-63835956D01*
X129450048Y-63864361D01*
X129450038Y-63864364D01*
X129177499Y-63977254D01*
X129177489Y-63977258D01*
X128922006Y-64124761D01*
X128687959Y-64304352D01*
X128687952Y-64304358D01*
X128479358Y-64512952D01*
X128479352Y-64512959D01*
X128299761Y-64747006D01*
X128152258Y-65002489D01*
X128152254Y-65002499D01*
X128039364Y-65275038D01*
X128039361Y-65275048D01*
X127963906Y-65556654D01*
X127963008Y-65560004D01*
X127963006Y-65560015D01*
X127924500Y-65852486D01*
X127924500Y-66147513D01*
X127950500Y-66344993D01*
X127963007Y-66439993D01*
X128039361Y-66724951D01*
X128039364Y-66724961D01*
X128152254Y-66997500D01*
X128152258Y-66997510D01*
X128299761Y-67252993D01*
X128479352Y-67487040D01*
X128479358Y-67487047D01*
X128687952Y-67695641D01*
X128687959Y-67695647D01*
X128922006Y-67875238D01*
X129177489Y-68022741D01*
X129177490Y-68022741D01*
X129177493Y-68022743D01*
X129450048Y-68135639D01*
X129482594Y-68144359D01*
X129542252Y-68180721D01*
X129572783Y-68243567D01*
X129574500Y-68264133D01*
X129574500Y-69524903D01*
X129554815Y-69591942D01*
X129538181Y-69612584D01*
X121787584Y-77363181D01*
X121726261Y-77396666D01*
X121699903Y-77399500D01*
X119586669Y-77399500D01*
X119586653Y-77399499D01*
X119579057Y-77399499D01*
X119420943Y-77399499D01*
X119313587Y-77428265D01*
X119268210Y-77440424D01*
X119268209Y-77440425D01*
X119218096Y-77469359D01*
X119218095Y-77469360D01*
X119174689Y-77494420D01*
X119131285Y-77519479D01*
X119131282Y-77519481D01*
X119019478Y-77631286D01*
X110910369Y-85740394D01*
X110849046Y-85773879D01*
X110779354Y-85768895D01*
X110775235Y-85767274D01*
X110611238Y-85699344D01*
X110461439Y-85659206D01*
X110370978Y-85634967D01*
X110316176Y-85627752D01*
X110124376Y-85602500D01*
X110124369Y-85602500D01*
X109875631Y-85602500D01*
X109875623Y-85602500D01*
X109656423Y-85631359D01*
X109629022Y-85634967D01*
X109564645Y-85652216D01*
X109388761Y-85699344D01*
X109158963Y-85794530D01*
X109158953Y-85794534D01*
X108943544Y-85918900D01*
X108746208Y-86070321D01*
X108746201Y-86070327D01*
X108570327Y-86246201D01*
X108570321Y-86246208D01*
X108418900Y-86443544D01*
X108294534Y-86658953D01*
X108294530Y-86658963D01*
X108199344Y-86888761D01*
X108152216Y-87064645D01*
X108144576Y-87093163D01*
X108134967Y-87129023D01*
X108102500Y-87375623D01*
X108102500Y-87624376D01*
X108127268Y-87812501D01*
X108134967Y-87870978D01*
X108146843Y-87915299D01*
X108199344Y-88111238D01*
X108294530Y-88341036D01*
X108294534Y-88341046D01*
X108418900Y-88556455D01*
X108570321Y-88753791D01*
X108570327Y-88753798D01*
X108746201Y-88929672D01*
X108746208Y-88929678D01*
X108943544Y-89081099D01*
X109158953Y-89205465D01*
X109158954Y-89205465D01*
X109158957Y-89205467D01*
X109388760Y-89300655D01*
X109629022Y-89365033D01*
X109864544Y-89396040D01*
X109875615Y-89397498D01*
X109875631Y-89397500D01*
X109875638Y-89397500D01*
X110124362Y-89397500D01*
X110124369Y-89397500D01*
X110370978Y-89365033D01*
X110611240Y-89300655D01*
X110841043Y-89205467D01*
X111056456Y-89081099D01*
X111253793Y-88929677D01*
X111429677Y-88753793D01*
X111581099Y-88556456D01*
X111705467Y-88341043D01*
X111800655Y-88111240D01*
X111865033Y-87870978D01*
X111897500Y-87624369D01*
X111897500Y-87375631D01*
X111865033Y-87129022D01*
X111800655Y-86888760D01*
X111732723Y-86724760D01*
X111725255Y-86655294D01*
X111756530Y-86592815D01*
X111759576Y-86589657D01*
X112294098Y-86055135D01*
X112801500Y-86055135D01*
X112801500Y-88944870D01*
X112801501Y-88944876D01*
X112807908Y-89004483D01*
X112858202Y-89139328D01*
X112858206Y-89139335D01*
X112944452Y-89254544D01*
X112944455Y-89254547D01*
X113059664Y-89340793D01*
X113059671Y-89340797D01*
X113194517Y-89391091D01*
X113194516Y-89391091D01*
X113201444Y-89391835D01*
X113254127Y-89397500D01*
X116143872Y-89397499D01*
X116203483Y-89391091D01*
X116338331Y-89340796D01*
X116453546Y-89254546D01*
X116539796Y-89139331D01*
X116590091Y-89004483D01*
X116596500Y-88944873D01*
X116596499Y-86055128D01*
X116590091Y-85995517D01*
X116543626Y-85870939D01*
X116539797Y-85860671D01*
X116539793Y-85860664D01*
X116453547Y-85745455D01*
X116453544Y-85745452D01*
X116338335Y-85659206D01*
X116338328Y-85659202D01*
X116203482Y-85608908D01*
X116203483Y-85608908D01*
X116143883Y-85602501D01*
X116143881Y-85602500D01*
X116143873Y-85602500D01*
X116143864Y-85602500D01*
X113254129Y-85602500D01*
X113254123Y-85602501D01*
X113194516Y-85608908D01*
X113059671Y-85659202D01*
X113059668Y-85659204D01*
X112984427Y-85715529D01*
X112984422Y-85715533D01*
X112944454Y-85745454D01*
X112914533Y-85785422D01*
X112914529Y-85785427D01*
X112858204Y-85860668D01*
X112858202Y-85860671D01*
X112807908Y-85995517D01*
X112801501Y-86055116D01*
X112801501Y-86055123D01*
X112801500Y-86055135D01*
X112294098Y-86055135D01*
X118211718Y-80137515D01*
X118273039Y-80104032D01*
X118342731Y-80109016D01*
X118398664Y-80150888D01*
X118423081Y-80216352D01*
X118421870Y-80244595D01*
X118399500Y-80385836D01*
X118399500Y-80614162D01*
X118435215Y-80839660D01*
X118505770Y-81056803D01*
X118562533Y-81168205D01*
X118609421Y-81260228D01*
X118743621Y-81444937D01*
X118905063Y-81606379D01*
X119089772Y-81740579D01*
X119146207Y-81769334D01*
X119293196Y-81844229D01*
X119293198Y-81844229D01*
X119293201Y-81844231D01*
X119409592Y-81882049D01*
X119510339Y-81914784D01*
X119735838Y-81950500D01*
X119735843Y-81950500D01*
X119775500Y-81950500D01*
X119842539Y-81970185D01*
X119888294Y-82022989D01*
X119899500Y-82074500D01*
X119899500Y-86582199D01*
X119879815Y-86649238D01*
X119827011Y-86694993D01*
X119814507Y-86699903D01*
X119781962Y-86710688D01*
X119730668Y-86727685D01*
X119730663Y-86727687D01*
X119581342Y-86819789D01*
X119457289Y-86943842D01*
X119365187Y-87093163D01*
X119365186Y-87093166D01*
X119310001Y-87259703D01*
X119310001Y-87259704D01*
X119310000Y-87259704D01*
X119299500Y-87362483D01*
X119299500Y-87987501D01*
X119299501Y-87987519D01*
X119310000Y-88090296D01*
X119310001Y-88090299D01*
X119365185Y-88256831D01*
X119365187Y-88256836D01*
X119457289Y-88406157D01*
X119551304Y-88500172D01*
X119584789Y-88561495D01*
X119579805Y-88631187D01*
X119551305Y-88675534D01*
X119457682Y-88769157D01*
X119365643Y-88918375D01*
X119365641Y-88918380D01*
X119310494Y-89084802D01*
X119310493Y-89084809D01*
X119300000Y-89187513D01*
X119300000Y-89250000D01*
X121699999Y-89250000D01*
X121699999Y-89187528D01*
X121699998Y-89187513D01*
X121689505Y-89084802D01*
X121634358Y-88918380D01*
X121634356Y-88918375D01*
X121542315Y-88769154D01*
X121448695Y-88675534D01*
X121415210Y-88614211D01*
X121420194Y-88544519D01*
X121448691Y-88500176D01*
X121542712Y-88406156D01*
X121634814Y-88256834D01*
X121689999Y-88090297D01*
X121700500Y-87987509D01*
X121700499Y-87362492D01*
X121689999Y-87259703D01*
X121634814Y-87093166D01*
X121542712Y-86943844D01*
X121418656Y-86819788D01*
X121269334Y-86727686D01*
X121185495Y-86699904D01*
X121128051Y-86660132D01*
X121101228Y-86595616D01*
X121100500Y-86582199D01*
X121100500Y-82074500D01*
X121120185Y-82007461D01*
X121172989Y-81961706D01*
X121224500Y-81950500D01*
X121264162Y-81950500D01*
X121489660Y-81914784D01*
X121495184Y-81912989D01*
X121706799Y-81844231D01*
X121910228Y-81740579D01*
X122094937Y-81606379D01*
X122256379Y-81444937D01*
X122390579Y-81260228D01*
X122494231Y-81056799D01*
X122564784Y-80839660D01*
X122600500Y-80614162D01*
X122600500Y-80385837D01*
X130899500Y-80385837D01*
X130899500Y-80614162D01*
X130935215Y-80839660D01*
X131005770Y-81056803D01*
X131062533Y-81168205D01*
X131109421Y-81260228D01*
X131243621Y-81444937D01*
X131405063Y-81606379D01*
X131589772Y-81740579D01*
X131646207Y-81769334D01*
X131793196Y-81844229D01*
X131793198Y-81844229D01*
X131793201Y-81844231D01*
X131909592Y-81882049D01*
X132010339Y-81914784D01*
X132235838Y-81950500D01*
X132235843Y-81950500D01*
X133764162Y-81950500D01*
X133989660Y-81914784D01*
X133995184Y-81912989D01*
X134206799Y-81844231D01*
X134410228Y-81740579D01*
X134594937Y-81606379D01*
X134756379Y-81444937D01*
X134890579Y-81260228D01*
X134994231Y-81056799D01*
X135064784Y-80839660D01*
X135100500Y-80614162D01*
X135100500Y-80385837D01*
X135064784Y-80160339D01*
X134994229Y-79943196D01*
X134921012Y-79799500D01*
X134890579Y-79739772D01*
X134756379Y-79555063D01*
X134594937Y-79393621D01*
X134410228Y-79259421D01*
X134410142Y-79259377D01*
X134206803Y-79155770D01*
X133989660Y-79085215D01*
X133764162Y-79049500D01*
X133764157Y-79049500D01*
X132235843Y-79049500D01*
X132235838Y-79049500D01*
X132010339Y-79085215D01*
X131793196Y-79155770D01*
X131589771Y-79259421D01*
X131405061Y-79393622D01*
X131243622Y-79555061D01*
X131109421Y-79739771D01*
X131005770Y-79943196D01*
X130935215Y-80160339D01*
X130899500Y-80385837D01*
X122600500Y-80385837D01*
X122564784Y-80160339D01*
X122494229Y-79943196D01*
X122421012Y-79799500D01*
X122390579Y-79739772D01*
X122256379Y-79555063D01*
X122094937Y-79393621D01*
X121910228Y-79259421D01*
X121910142Y-79259377D01*
X121706803Y-79155770D01*
X121489660Y-79085215D01*
X121264162Y-79049500D01*
X121264157Y-79049500D01*
X119735843Y-79049500D01*
X119735837Y-79049500D01*
X119594595Y-79071870D01*
X119525302Y-79062915D01*
X119471850Y-79017919D01*
X119451211Y-78951167D01*
X119469936Y-78883854D01*
X119487506Y-78861727D01*
X119712418Y-78636816D01*
X119773739Y-78603334D01*
X119800097Y-78600500D01*
X121913331Y-78600500D01*
X121913347Y-78600501D01*
X121920943Y-78600501D01*
X122079054Y-78600501D01*
X122079057Y-78600501D01*
X122231785Y-78559577D01*
X122312460Y-78512999D01*
X122368716Y-78480520D01*
X122480520Y-78368716D01*
X122480520Y-78368714D01*
X122490724Y-78358511D01*
X122490728Y-78358506D01*
X125463397Y-75385837D01*
X130899500Y-75385837D01*
X130899500Y-75614162D01*
X130935215Y-75839660D01*
X131005770Y-76056803D01*
X131109421Y-76260228D01*
X131243621Y-76444937D01*
X131405063Y-76606379D01*
X131589772Y-76740579D01*
X131685884Y-76789550D01*
X131793196Y-76844229D01*
X131793198Y-76844229D01*
X131793201Y-76844231D01*
X131909592Y-76882049D01*
X132010339Y-76914784D01*
X132235838Y-76950500D01*
X132235843Y-76950500D01*
X133764162Y-76950500D01*
X133989660Y-76914784D01*
X134206799Y-76844231D01*
X134410228Y-76740579D01*
X134594937Y-76606379D01*
X134756379Y-76444937D01*
X134890579Y-76260228D01*
X134994231Y-76056799D01*
X135064784Y-75839660D01*
X135091506Y-75670944D01*
X135100500Y-75614162D01*
X135100500Y-75385837D01*
X135064784Y-75160339D01*
X134994229Y-74943196D01*
X134890578Y-74739771D01*
X134756379Y-74555063D01*
X134594937Y-74393621D01*
X134410228Y-74259421D01*
X134206803Y-74155770D01*
X133989660Y-74085215D01*
X133764162Y-74049500D01*
X133764157Y-74049500D01*
X132235843Y-74049500D01*
X132235838Y-74049500D01*
X132010339Y-74085215D01*
X131793196Y-74155770D01*
X131589771Y-74259421D01*
X131405061Y-74393622D01*
X131243622Y-74555061D01*
X131109421Y-74739771D01*
X131005770Y-74943196D01*
X130935215Y-75160339D01*
X130899500Y-75385837D01*
X125463397Y-75385837D01*
X130533506Y-70315728D01*
X130533511Y-70315724D01*
X130543714Y-70305520D01*
X130543716Y-70305520D01*
X130655520Y-70193716D01*
X130709915Y-70099500D01*
X130734577Y-70056785D01*
X130775501Y-69904057D01*
X130775501Y-69745943D01*
X130775501Y-69738348D01*
X130775500Y-69738330D01*
X130775500Y-68264133D01*
X130795185Y-68197094D01*
X130847989Y-68151339D01*
X130867394Y-68144362D01*
X130899952Y-68135639D01*
X131172507Y-68022743D01*
X131427994Y-67875238D01*
X131662042Y-67695646D01*
X131870646Y-67487042D01*
X132050238Y-67252994D01*
X132168113Y-67048828D01*
X132218680Y-67000613D01*
X132287287Y-66987389D01*
X132352151Y-67013357D01*
X132392680Y-67070271D01*
X132399500Y-67110828D01*
X132399500Y-71413330D01*
X132399499Y-71413348D01*
X132399499Y-71579054D01*
X132399498Y-71579054D01*
X132440423Y-71731785D01*
X132469358Y-71781900D01*
X132469359Y-71781904D01*
X132469360Y-71781904D01*
X132519479Y-71868714D01*
X132519481Y-71868717D01*
X132638349Y-71987585D01*
X132638355Y-71987590D01*
X136613181Y-75962416D01*
X136646666Y-76023739D01*
X136649500Y-76050097D01*
X136649500Y-82702047D01*
X136629815Y-82769086D01*
X136581796Y-82812531D01*
X136489774Y-82859419D01*
X136305061Y-82993622D01*
X136143622Y-83155061D01*
X136009421Y-83339771D01*
X135905770Y-83543196D01*
X135835215Y-83760339D01*
X135799500Y-83985837D01*
X135799500Y-85514162D01*
X135835215Y-85739660D01*
X135905770Y-85956803D01*
X135963611Y-86070321D01*
X136009421Y-86160228D01*
X136143621Y-86344937D01*
X136305063Y-86506379D01*
X136489772Y-86640579D01*
X136552423Y-86672501D01*
X136693196Y-86744229D01*
X136693198Y-86744229D01*
X136693201Y-86744231D01*
X136768946Y-86768842D01*
X136910339Y-86814784D01*
X137135838Y-86850500D01*
X137135843Y-86850500D01*
X137364162Y-86850500D01*
X137589660Y-86814784D01*
X137806799Y-86744231D01*
X138010228Y-86640579D01*
X138194937Y-86506379D01*
X138356379Y-86344937D01*
X138490579Y-86160228D01*
X138594231Y-85956799D01*
X138664784Y-85739660D01*
X138671169Y-85699345D01*
X138700500Y-85514162D01*
X138700500Y-83985837D01*
X140799500Y-83985837D01*
X140799500Y-85514162D01*
X140835215Y-85739660D01*
X140905770Y-85956803D01*
X140963611Y-86070321D01*
X141009421Y-86160228D01*
X141143621Y-86344937D01*
X141305063Y-86506379D01*
X141489772Y-86640579D01*
X141552423Y-86672501D01*
X141693196Y-86744229D01*
X141693198Y-86744229D01*
X141693201Y-86744231D01*
X141768946Y-86768842D01*
X141910339Y-86814784D01*
X142135838Y-86850500D01*
X142135843Y-86850500D01*
X142364162Y-86850500D01*
X142589660Y-86814784D01*
X142806799Y-86744231D01*
X143010228Y-86640579D01*
X143194937Y-86506379D01*
X143356379Y-86344937D01*
X143490579Y-86160228D01*
X143594231Y-85956799D01*
X143664784Y-85739660D01*
X143671169Y-85699345D01*
X143700500Y-85514162D01*
X143700500Y-83985837D01*
X143664784Y-83760339D01*
X143594229Y-83543196D01*
X143490578Y-83339771D01*
X143356379Y-83155063D01*
X143194937Y-82993621D01*
X143010228Y-82859421D01*
X143010224Y-82859419D01*
X142806803Y-82755770D01*
X142589660Y-82685215D01*
X142364162Y-82649500D01*
X142364157Y-82649500D01*
X142135843Y-82649500D01*
X142135838Y-82649500D01*
X141910339Y-82685215D01*
X141693196Y-82755770D01*
X141489771Y-82859421D01*
X141305061Y-82993622D01*
X141143622Y-83155061D01*
X141009421Y-83339771D01*
X140905770Y-83543196D01*
X140835215Y-83760339D01*
X140799500Y-83985837D01*
X138700500Y-83985837D01*
X138664784Y-83760339D01*
X138594229Y-83543196D01*
X138490578Y-83339771D01*
X138356379Y-83155063D01*
X138194937Y-82993621D01*
X138010228Y-82859421D01*
X138010227Y-82859420D01*
X138010225Y-82859419D01*
X137918204Y-82812531D01*
X137867409Y-82764556D01*
X137850500Y-82702047D01*
X137850500Y-75839060D01*
X137850501Y-75839047D01*
X137850501Y-75670944D01*
X137809576Y-75518214D01*
X137809573Y-75518209D01*
X137730524Y-75381290D01*
X137730518Y-75381282D01*
X133636819Y-71287583D01*
X133603334Y-71226260D01*
X133600500Y-71199902D01*
X133600500Y-70485837D01*
X135799500Y-70485837D01*
X135799500Y-72014162D01*
X135835215Y-72239660D01*
X135905770Y-72456803D01*
X136009421Y-72660228D01*
X136143621Y-72844937D01*
X136305063Y-73006379D01*
X136489772Y-73140579D01*
X136585884Y-73189550D01*
X136693196Y-73244229D01*
X136693198Y-73244229D01*
X136693201Y-73244231D01*
X136809592Y-73282049D01*
X136910339Y-73314784D01*
X137135838Y-73350500D01*
X137135843Y-73350500D01*
X137364162Y-73350500D01*
X137589660Y-73314784D01*
X137806799Y-73244231D01*
X138010228Y-73140579D01*
X138194937Y-73006379D01*
X138356379Y-72844937D01*
X138490579Y-72660228D01*
X138594231Y-72456799D01*
X138664784Y-72239660D01*
X138669768Y-72208191D01*
X138700500Y-72014162D01*
X138700500Y-70485837D01*
X138664784Y-70260339D01*
X138612523Y-70099499D01*
X138594231Y-70043201D01*
X138594229Y-70043198D01*
X138594229Y-70043196D01*
X138529261Y-69915690D01*
X138490579Y-69839772D01*
X138356379Y-69655063D01*
X138194937Y-69493621D01*
X138010228Y-69359421D01*
X137806803Y-69255770D01*
X137589660Y-69185215D01*
X137364162Y-69149500D01*
X137364157Y-69149500D01*
X137135843Y-69149500D01*
X137135838Y-69149500D01*
X136910339Y-69185215D01*
X136693196Y-69255770D01*
X136489771Y-69359421D01*
X136305061Y-69493622D01*
X136143622Y-69655061D01*
X136009421Y-69839771D01*
X135905770Y-70043196D01*
X135835215Y-70260339D01*
X135799500Y-70485837D01*
X133600500Y-70485837D01*
X133600500Y-56460945D01*
X133600500Y-56460943D01*
X133559577Y-56308215D01*
X133530639Y-56258095D01*
X133480520Y-56171284D01*
X133368716Y-56059480D01*
X133368715Y-56059479D01*
X133364385Y-56055149D01*
X133364374Y-56055139D01*
X130611416Y-53302181D01*
X130577931Y-53240858D01*
X130582915Y-53171166D01*
X130624787Y-53115233D01*
X130690251Y-53090816D01*
X130699097Y-53090500D01*
X130846286Y-53090500D01*
X130846287Y-53090500D01*
X131056243Y-53057246D01*
X131098523Y-53043507D01*
X131168362Y-53041511D01*
X131224522Y-53073757D01*
X133863181Y-55712416D01*
X133896666Y-55773739D01*
X133899500Y-55800097D01*
X133899500Y-63913330D01*
X133899499Y-63913348D01*
X133899499Y-64079054D01*
X133899498Y-64079054D01*
X133940423Y-64231785D01*
X133957265Y-64260956D01*
X133969358Y-64281900D01*
X133969359Y-64281904D01*
X133969360Y-64281904D01*
X134019479Y-64368714D01*
X134019481Y-64368717D01*
X134138349Y-64487585D01*
X134138355Y-64487590D01*
X139363181Y-69712416D01*
X139396666Y-69773739D01*
X139399500Y-69800097D01*
X139399500Y-77413330D01*
X139399499Y-77413348D01*
X139399499Y-77579054D01*
X139399498Y-77579054D01*
X139440424Y-77731789D01*
X139440425Y-77731790D01*
X139461455Y-77768214D01*
X139461456Y-77768216D01*
X139519475Y-77868709D01*
X139519481Y-77868717D01*
X139638349Y-77987585D01*
X139638354Y-77987589D01*
X142631284Y-80980520D01*
X142631286Y-80980521D01*
X142631290Y-80980524D01*
X142763404Y-81056799D01*
X142768216Y-81059577D01*
X142920943Y-81100501D01*
X142920945Y-81100501D01*
X143086654Y-81100501D01*
X143086670Y-81100500D01*
X144452048Y-81100500D01*
X144519087Y-81120185D01*
X144562533Y-81168205D01*
X144609421Y-81260228D01*
X144743621Y-81444937D01*
X144905063Y-81606379D01*
X145089772Y-81740579D01*
X145146207Y-81769334D01*
X145293196Y-81844229D01*
X145293198Y-81844229D01*
X145293201Y-81844231D01*
X145409592Y-81882049D01*
X145510339Y-81914784D01*
X145735838Y-81950500D01*
X145735843Y-81950500D01*
X147264162Y-81950500D01*
X147489660Y-81914784D01*
X147495184Y-81912989D01*
X147706799Y-81844231D01*
X147910228Y-81740579D01*
X148094937Y-81606379D01*
X148256379Y-81444937D01*
X148390579Y-81260228D01*
X148494231Y-81056799D01*
X148564784Y-80839660D01*
X148600500Y-80614162D01*
X148600500Y-80385837D01*
X156899500Y-80385837D01*
X156899500Y-80614162D01*
X156935215Y-80839660D01*
X157005770Y-81056803D01*
X157062533Y-81168205D01*
X157109421Y-81260228D01*
X157243621Y-81444937D01*
X157405063Y-81606379D01*
X157589772Y-81740579D01*
X157646207Y-81769334D01*
X157793196Y-81844229D01*
X157793198Y-81844229D01*
X157793201Y-81844231D01*
X157909592Y-81882049D01*
X158010339Y-81914784D01*
X158235838Y-81950500D01*
X158235843Y-81950500D01*
X158275500Y-81950500D01*
X158342539Y-81970185D01*
X158388294Y-82022989D01*
X158399500Y-82074500D01*
X158399500Y-86494699D01*
X158379815Y-86561738D01*
X158327011Y-86607493D01*
X158314507Y-86612403D01*
X158281962Y-86623188D01*
X158230668Y-86640185D01*
X158230663Y-86640187D01*
X158081342Y-86732289D01*
X157957289Y-86856342D01*
X157865187Y-87005663D01*
X157865186Y-87005666D01*
X157810001Y-87172203D01*
X157810001Y-87172204D01*
X157810000Y-87172204D01*
X157799500Y-87274983D01*
X157799500Y-87900001D01*
X157799501Y-87900019D01*
X157810000Y-88002796D01*
X157810001Y-88002799D01*
X157865185Y-88169331D01*
X157865187Y-88169336D01*
X157957289Y-88318657D01*
X158051304Y-88412672D01*
X158084789Y-88473995D01*
X158079805Y-88543687D01*
X158051305Y-88588034D01*
X157957682Y-88681657D01*
X157865643Y-88830875D01*
X157865641Y-88830880D01*
X157810494Y-88997302D01*
X157810493Y-88997309D01*
X157800000Y-89100013D01*
X157800000Y-89162500D01*
X160199999Y-89162500D01*
X160199999Y-89100028D01*
X160199998Y-89100013D01*
X160189505Y-88997302D01*
X160134358Y-88830880D01*
X160134356Y-88830875D01*
X160042315Y-88681654D01*
X159948695Y-88588034D01*
X159915210Y-88526711D01*
X159920194Y-88457019D01*
X159948691Y-88412676D01*
X160042712Y-88318656D01*
X160134814Y-88169334D01*
X160189999Y-88002797D01*
X160200500Y-87900009D01*
X160200499Y-87274992D01*
X160198937Y-87259704D01*
X160189999Y-87172203D01*
X160189998Y-87172200D01*
X160134814Y-87005666D01*
X160042712Y-86856344D01*
X159918656Y-86732288D01*
X159799777Y-86658963D01*
X159769336Y-86640187D01*
X159769331Y-86640185D01*
X159767082Y-86639439D01*
X159685495Y-86612404D01*
X159628051Y-86572632D01*
X159601228Y-86508116D01*
X159600500Y-86494699D01*
X159600500Y-82074500D01*
X159620185Y-82007461D01*
X159672989Y-81961706D01*
X159724500Y-81950500D01*
X159764162Y-81950500D01*
X159989660Y-81914784D01*
X159995184Y-81912989D01*
X160206799Y-81844231D01*
X160410228Y-81740579D01*
X160594937Y-81606379D01*
X160756379Y-81444937D01*
X160890579Y-81260228D01*
X160994231Y-81056799D01*
X161064784Y-80839660D01*
X161100500Y-80614162D01*
X161100500Y-80385837D01*
X161064784Y-80160339D01*
X160994229Y-79943196D01*
X160921012Y-79799500D01*
X160890579Y-79739772D01*
X160756379Y-79555063D01*
X160594937Y-79393621D01*
X160410228Y-79259421D01*
X160410142Y-79259377D01*
X160206803Y-79155770D01*
X159989660Y-79085215D01*
X159764162Y-79049500D01*
X159764157Y-79049500D01*
X158235843Y-79049500D01*
X158235838Y-79049500D01*
X158010339Y-79085215D01*
X157793196Y-79155770D01*
X157589771Y-79259421D01*
X157405061Y-79393622D01*
X157243622Y-79555061D01*
X157109421Y-79739771D01*
X157005770Y-79943196D01*
X156935215Y-80160339D01*
X156899500Y-80385837D01*
X148600500Y-80385837D01*
X148564784Y-80160339D01*
X148494229Y-79943196D01*
X148421012Y-79799500D01*
X148390579Y-79739772D01*
X148256379Y-79555063D01*
X148094937Y-79393621D01*
X147910228Y-79259421D01*
X147910142Y-79259377D01*
X147706803Y-79155770D01*
X147489660Y-79085215D01*
X147264162Y-79049500D01*
X147264157Y-79049500D01*
X145735843Y-79049500D01*
X145735838Y-79049500D01*
X145510339Y-79085215D01*
X145293196Y-79155770D01*
X145089771Y-79259421D01*
X144905061Y-79393622D01*
X144743622Y-79555061D01*
X144609421Y-79739771D01*
X144562533Y-79831795D01*
X144514558Y-79882591D01*
X144452048Y-79899500D01*
X143300098Y-79899500D01*
X143233059Y-79879815D01*
X143212417Y-79863181D01*
X140636819Y-77287583D01*
X140603334Y-77226260D01*
X140600500Y-77199902D01*
X140600500Y-75385837D01*
X144399500Y-75385837D01*
X144399500Y-75614162D01*
X144435215Y-75839660D01*
X144505770Y-76056803D01*
X144609421Y-76260228D01*
X144743621Y-76444937D01*
X144905063Y-76606379D01*
X145089772Y-76740579D01*
X145185884Y-76789550D01*
X145293196Y-76844229D01*
X145293198Y-76844229D01*
X145293201Y-76844231D01*
X145409592Y-76882049D01*
X145510339Y-76914784D01*
X145735838Y-76950500D01*
X145735843Y-76950500D01*
X147264162Y-76950500D01*
X147489660Y-76914784D01*
X147706799Y-76844231D01*
X147910228Y-76740579D01*
X148094937Y-76606379D01*
X148256379Y-76444937D01*
X148390579Y-76260228D01*
X148494231Y-76056799D01*
X148564784Y-75839660D01*
X148591506Y-75670944D01*
X148600500Y-75614162D01*
X148600500Y-75385837D01*
X156899500Y-75385837D01*
X156899500Y-75614162D01*
X156935215Y-75839660D01*
X157005770Y-76056803D01*
X157109421Y-76260228D01*
X157243621Y-76444937D01*
X157405063Y-76606379D01*
X157589772Y-76740579D01*
X157685884Y-76789550D01*
X157793196Y-76844229D01*
X157793198Y-76844229D01*
X157793201Y-76844231D01*
X157909592Y-76882049D01*
X158010339Y-76914784D01*
X158235838Y-76950500D01*
X158235843Y-76950500D01*
X159764162Y-76950500D01*
X159989660Y-76914784D01*
X160206799Y-76844231D01*
X160410228Y-76740579D01*
X160594937Y-76606379D01*
X160756379Y-76444937D01*
X160890579Y-76260228D01*
X160994231Y-76056799D01*
X161064784Y-75839660D01*
X161091506Y-75670944D01*
X161100500Y-75614162D01*
X161100500Y-75385837D01*
X161064784Y-75160339D01*
X160994229Y-74943196D01*
X160890578Y-74739771D01*
X160756379Y-74555063D01*
X160594937Y-74393621D01*
X160410228Y-74259421D01*
X160206803Y-74155770D01*
X159989660Y-74085215D01*
X159764162Y-74049500D01*
X159764157Y-74049500D01*
X158235843Y-74049500D01*
X158235838Y-74049500D01*
X158010339Y-74085215D01*
X157793196Y-74155770D01*
X157589771Y-74259421D01*
X157405061Y-74393622D01*
X157243622Y-74555061D01*
X157109421Y-74739771D01*
X157005770Y-74943196D01*
X156935215Y-75160339D01*
X156899500Y-75385837D01*
X148600500Y-75385837D01*
X148564784Y-75160339D01*
X148494229Y-74943196D01*
X148390578Y-74739771D01*
X148256379Y-74555063D01*
X148094937Y-74393621D01*
X147910228Y-74259421D01*
X147706803Y-74155770D01*
X147489660Y-74085215D01*
X147264162Y-74049500D01*
X147264157Y-74049500D01*
X145735843Y-74049500D01*
X145735838Y-74049500D01*
X145510339Y-74085215D01*
X145293196Y-74155770D01*
X145089771Y-74259421D01*
X144905061Y-74393622D01*
X144743622Y-74555061D01*
X144609421Y-74739771D01*
X144505770Y-74943196D01*
X144435215Y-75160339D01*
X144399500Y-75385837D01*
X140600500Y-75385837D01*
X140600500Y-72300185D01*
X140620185Y-72233146D01*
X140672989Y-72187391D01*
X140742147Y-72177447D01*
X140805703Y-72206472D01*
X140842431Y-72261866D01*
X140905770Y-72456803D01*
X141009421Y-72660228D01*
X141143621Y-72844937D01*
X141305063Y-73006379D01*
X141489772Y-73140579D01*
X141585884Y-73189550D01*
X141693196Y-73244229D01*
X141693198Y-73244229D01*
X141693201Y-73244231D01*
X141809592Y-73282049D01*
X141910339Y-73314784D01*
X142135838Y-73350500D01*
X142135843Y-73350500D01*
X142364162Y-73350500D01*
X142589660Y-73314784D01*
X142806799Y-73244231D01*
X143010228Y-73140579D01*
X143194937Y-73006379D01*
X143356379Y-72844937D01*
X143490579Y-72660228D01*
X143594231Y-72456799D01*
X143664784Y-72239660D01*
X143669768Y-72208191D01*
X143700500Y-72014162D01*
X143700500Y-70485837D01*
X143664784Y-70260339D01*
X143612523Y-70099499D01*
X143594231Y-70043201D01*
X143594229Y-70043198D01*
X143594229Y-70043196D01*
X143529261Y-69915690D01*
X143490579Y-69839772D01*
X143356379Y-69655063D01*
X143194937Y-69493621D01*
X143010228Y-69359421D01*
X142806803Y-69255770D01*
X142589660Y-69185215D01*
X142364162Y-69149500D01*
X142364157Y-69149500D01*
X142135843Y-69149500D01*
X142135838Y-69149500D01*
X141910339Y-69185215D01*
X141693196Y-69255770D01*
X141489771Y-69359421D01*
X141305061Y-69493622D01*
X141143622Y-69655061D01*
X141009421Y-69839771D01*
X140905770Y-70043196D01*
X140842431Y-70238133D01*
X140802993Y-70295808D01*
X140738634Y-70323006D01*
X140669788Y-70311091D01*
X140618312Y-70263847D01*
X140600500Y-70199814D01*
X140600500Y-69589060D01*
X140600501Y-69589047D01*
X140600501Y-69420944D01*
X140559576Y-69268214D01*
X140559573Y-69268209D01*
X140480524Y-69131290D01*
X140480518Y-69131282D01*
X135136819Y-63787583D01*
X135103334Y-63726260D01*
X135100500Y-63699902D01*
X135100500Y-57985837D01*
X135799500Y-57985837D01*
X135799500Y-59514162D01*
X135835215Y-59739660D01*
X135905770Y-59956803D01*
X136008347Y-60158121D01*
X136009421Y-60160228D01*
X136143621Y-60344937D01*
X136305063Y-60506379D01*
X136489772Y-60640579D01*
X136585884Y-60689550D01*
X136693196Y-60744229D01*
X136693198Y-60744229D01*
X136693201Y-60744231D01*
X136809592Y-60782049D01*
X136910339Y-60814784D01*
X137135838Y-60850500D01*
X137135843Y-60850500D01*
X137364162Y-60850500D01*
X137589660Y-60814784D01*
X137590522Y-60814504D01*
X137806799Y-60744231D01*
X138010228Y-60640579D01*
X138194937Y-60506379D01*
X138356379Y-60344937D01*
X138490579Y-60160228D01*
X138594231Y-59956799D01*
X138664784Y-59739660D01*
X138670986Y-59700500D01*
X138700500Y-59514162D01*
X138700500Y-57985837D01*
X138664784Y-57760339D01*
X138596864Y-57551305D01*
X138594231Y-57543201D01*
X138594229Y-57543198D01*
X138594229Y-57543196D01*
X138506389Y-57370801D01*
X138490579Y-57339772D01*
X138356379Y-57155063D01*
X138194937Y-56993621D01*
X138010228Y-56859421D01*
X138010224Y-56859419D01*
X137806803Y-56755770D01*
X137589660Y-56685215D01*
X137364162Y-56649500D01*
X137364157Y-56649500D01*
X137135843Y-56649500D01*
X137135838Y-56649500D01*
X136910339Y-56685215D01*
X136693196Y-56755770D01*
X136489771Y-56859421D01*
X136305061Y-56993622D01*
X136143622Y-57155061D01*
X136009421Y-57339771D01*
X135905770Y-57543196D01*
X135835215Y-57760339D01*
X135799500Y-57985837D01*
X135100500Y-57985837D01*
X135100500Y-55589059D01*
X135100501Y-55589046D01*
X135100501Y-55420945D01*
X135100501Y-55420943D01*
X135059577Y-55268215D01*
X135030639Y-55218095D01*
X134980520Y-55131284D01*
X134868716Y-55019480D01*
X134868715Y-55019479D01*
X134864385Y-55015149D01*
X134864374Y-55015139D01*
X133151415Y-53302180D01*
X133117930Y-53240857D01*
X133122914Y-53171165D01*
X133164786Y-53115232D01*
X133230250Y-53090815D01*
X133239096Y-53090499D01*
X134177871Y-53090499D01*
X134177872Y-53090499D01*
X134237483Y-53084091D01*
X134372331Y-53033796D01*
X134487546Y-52947546D01*
X134573796Y-52832331D01*
X134624091Y-52697483D01*
X134630500Y-52637873D01*
X134630500Y-52464500D01*
X134650185Y-52397461D01*
X134702989Y-52351706D01*
X134754500Y-52340500D01*
X137439903Y-52340500D01*
X137506942Y-52360185D01*
X137527584Y-52376819D01*
X141613181Y-56462416D01*
X141627884Y-56489343D01*
X141644477Y-56515162D01*
X141645368Y-56521362D01*
X141646666Y-56523739D01*
X141649500Y-56550097D01*
X141649500Y-56702047D01*
X141629815Y-56769086D01*
X141581796Y-56812531D01*
X141489774Y-56859419D01*
X141305061Y-56993622D01*
X141143622Y-57155061D01*
X141009421Y-57339771D01*
X140905770Y-57543196D01*
X140835215Y-57760339D01*
X140799500Y-57985837D01*
X140799500Y-59514162D01*
X140835215Y-59739660D01*
X140905770Y-59956803D01*
X141008347Y-60158121D01*
X141009421Y-60160228D01*
X141143621Y-60344937D01*
X141305063Y-60506379D01*
X141489772Y-60640579D01*
X141585884Y-60689550D01*
X141693196Y-60744229D01*
X141693198Y-60744229D01*
X141693201Y-60744231D01*
X141809592Y-60782049D01*
X141910339Y-60814784D01*
X142135838Y-60850500D01*
X142135843Y-60850500D01*
X142364162Y-60850500D01*
X142589660Y-60814784D01*
X142590522Y-60814504D01*
X142806799Y-60744231D01*
X143010228Y-60640579D01*
X143194937Y-60506379D01*
X143356379Y-60344937D01*
X143490579Y-60160228D01*
X143594231Y-59956799D01*
X143664784Y-59739660D01*
X143670986Y-59700500D01*
X143700500Y-59514162D01*
X143700500Y-59224500D01*
X143720185Y-59157461D01*
X143772989Y-59111706D01*
X143824500Y-59100500D01*
X148082199Y-59100500D01*
X148149238Y-59120185D01*
X148194993Y-59172989D01*
X148199903Y-59185492D01*
X148227686Y-59269334D01*
X148319788Y-59418656D01*
X148443844Y-59542712D01*
X148593166Y-59634814D01*
X148759703Y-59689999D01*
X148862491Y-59700500D01*
X149487508Y-59700499D01*
X149487516Y-59700498D01*
X149487519Y-59700498D01*
X149543802Y-59694748D01*
X149590297Y-59689999D01*
X149756834Y-59634814D01*
X149906156Y-59542712D01*
X150000175Y-59448692D01*
X150061494Y-59415210D01*
X150131186Y-59420194D01*
X150175534Y-59448695D01*
X150269154Y-59542315D01*
X150418375Y-59634356D01*
X150418380Y-59634358D01*
X150584802Y-59689505D01*
X150584809Y-59689506D01*
X150687519Y-59699999D01*
X151250000Y-59699999D01*
X151312472Y-59699999D01*
X151312486Y-59699998D01*
X151415197Y-59689505D01*
X151581619Y-59634358D01*
X151581624Y-59634356D01*
X151730845Y-59542315D01*
X151854815Y-59418345D01*
X151946856Y-59269124D01*
X151946858Y-59269119D01*
X152002005Y-59102697D01*
X152002006Y-59102690D01*
X152012499Y-58999986D01*
X152012500Y-58999973D01*
X152012500Y-58750000D01*
X151250000Y-58750000D01*
X151250000Y-59699999D01*
X150687519Y-59699999D01*
X150749999Y-59699998D01*
X150750000Y-59699998D01*
X150750000Y-58250000D01*
X151250000Y-58250000D01*
X152012499Y-58250000D01*
X152012499Y-58000028D01*
X152012498Y-58000013D01*
X152002005Y-57897302D01*
X151946858Y-57730880D01*
X151946856Y-57730875D01*
X151854815Y-57581654D01*
X151730845Y-57457684D01*
X151581624Y-57365643D01*
X151581619Y-57365641D01*
X151415197Y-57310494D01*
X151415190Y-57310493D01*
X151312486Y-57300000D01*
X151250000Y-57300000D01*
X151250000Y-58250000D01*
X150750000Y-58250000D01*
X150750000Y-57300000D01*
X150749999Y-57299999D01*
X150687528Y-57300000D01*
X150687511Y-57300001D01*
X150584802Y-57310494D01*
X150418380Y-57365641D01*
X150418375Y-57365643D01*
X150269157Y-57457682D01*
X150175534Y-57551305D01*
X150114210Y-57584789D01*
X150044519Y-57579805D01*
X150000172Y-57551304D01*
X149906157Y-57457289D01*
X149906156Y-57457288D01*
X149813388Y-57400069D01*
X149756836Y-57365187D01*
X149756831Y-57365185D01*
X149755362Y-57364698D01*
X149590297Y-57310001D01*
X149590295Y-57310000D01*
X149487510Y-57299500D01*
X148862498Y-57299500D01*
X148862480Y-57299501D01*
X148759703Y-57310000D01*
X148759700Y-57310001D01*
X148593168Y-57365185D01*
X148593163Y-57365187D01*
X148443842Y-57457289D01*
X148319789Y-57581342D01*
X148227687Y-57730663D01*
X148227685Y-57730668D01*
X148199905Y-57814504D01*
X148160132Y-57871949D01*
X148095616Y-57898772D01*
X148082199Y-57899500D01*
X143792731Y-57899500D01*
X143725692Y-57879815D01*
X143679937Y-57827011D01*
X143670258Y-57794899D01*
X143664784Y-57760342D01*
X143664784Y-57760340D01*
X143594231Y-57543201D01*
X143490579Y-57339772D01*
X143356379Y-57155063D01*
X143194937Y-56993621D01*
X143010228Y-56859421D01*
X143010227Y-56859420D01*
X143010225Y-56859419D01*
X142918204Y-56812531D01*
X142867409Y-56764556D01*
X142850500Y-56702047D01*
X142850500Y-56170945D01*
X142850500Y-56170943D01*
X142809577Y-56018216D01*
X142809577Y-56018215D01*
X142809577Y-56018214D01*
X142780639Y-55968095D01*
X142780637Y-55968092D01*
X142730520Y-55881284D01*
X142618716Y-55769480D01*
X142618715Y-55769479D01*
X142614385Y-55765149D01*
X142614374Y-55765139D01*
X138227590Y-51378355D01*
X138227588Y-51378352D01*
X138108717Y-51259481D01*
X138108716Y-51259480D01*
X138021904Y-51209360D01*
X138021904Y-51209359D01*
X138021900Y-51209358D01*
X137971785Y-51180423D01*
X137819057Y-51139499D01*
X137660943Y-51139499D01*
X137653347Y-51139499D01*
X137653331Y-51139500D01*
X134754499Y-51139500D01*
X134687460Y-51119815D01*
X134641705Y-51067011D01*
X134630499Y-51015500D01*
X134630499Y-50842129D01*
X134630498Y-50842123D01*
X134624091Y-50782516D01*
X134573797Y-50647671D01*
X134573793Y-50647664D01*
X134487547Y-50532455D01*
X134487544Y-50532452D01*
X134372335Y-50446206D01*
X134372328Y-50446202D01*
X134237482Y-50395908D01*
X134237483Y-50395908D01*
X134177883Y-50389501D01*
X134177881Y-50389500D01*
X134177873Y-50389500D01*
X134177864Y-50389500D01*
X132382129Y-50389500D01*
X132382123Y-50389501D01*
X132322516Y-50395908D01*
X132187671Y-50446202D01*
X132187664Y-50446206D01*
X132072455Y-50532452D01*
X132072452Y-50532455D01*
X131986206Y-50647664D01*
X131986203Y-50647669D01*
X131937189Y-50779083D01*
X131895317Y-50835016D01*
X131829853Y-50859433D01*
X131761580Y-50844581D01*
X131733326Y-50823430D01*
X131619786Y-50709890D01*
X131447820Y-50584951D01*
X131258414Y-50488444D01*
X131258413Y-50488443D01*
X131258412Y-50488443D01*
X131056243Y-50422754D01*
X131056241Y-50422753D01*
X131056240Y-50422753D01*
X130894957Y-50397208D01*
X130846287Y-50389500D01*
X130633713Y-50389500D01*
X130585042Y-50397208D01*
X130423760Y-50422753D01*
X130221585Y-50488444D01*
X130032179Y-50584951D01*
X129860213Y-50709890D01*
X129709890Y-50860213D01*
X129584949Y-51032182D01*
X129580484Y-51040946D01*
X129532509Y-51091742D01*
X129464688Y-51108536D01*
X129398553Y-51085998D01*
X129359516Y-51040946D01*
X129355050Y-51032182D01*
X129230109Y-50860213D01*
X129079786Y-50709890D01*
X128907820Y-50584951D01*
X128718414Y-50488444D01*
X128718413Y-50488443D01*
X128718412Y-50488443D01*
X128516243Y-50422754D01*
X128516241Y-50422753D01*
X128516240Y-50422753D01*
X128354957Y-50397208D01*
X128306287Y-50389500D01*
X128093713Y-50389500D01*
X128045042Y-50397208D01*
X127883760Y-50422753D01*
X127681585Y-50488444D01*
X127492179Y-50584951D01*
X127320213Y-50709890D01*
X127169890Y-50860213D01*
X127044949Y-51032182D01*
X127040484Y-51040946D01*
X126992509Y-51091742D01*
X126924688Y-51108536D01*
X126858553Y-51085998D01*
X126819516Y-51040946D01*
X126815050Y-51032182D01*
X126690109Y-50860213D01*
X126539786Y-50709890D01*
X126367820Y-50584951D01*
X126178414Y-50488444D01*
X126178413Y-50488443D01*
X126178412Y-50488443D01*
X125976243Y-50422754D01*
X125976241Y-50422753D01*
X125976240Y-50422753D01*
X125814957Y-50397208D01*
X125766287Y-50389500D01*
X125619096Y-50389500D01*
X125552057Y-50369815D01*
X125506302Y-50317011D01*
X125496358Y-50247853D01*
X125525383Y-50184297D01*
X125531415Y-50177819D01*
X130462417Y-45246819D01*
X130523740Y-45213334D01*
X130550098Y-45210500D01*
X143714281Y-45210500D01*
X143781320Y-45230185D01*
X143824765Y-45278205D01*
X143844947Y-45317814D01*
X143844948Y-45317815D01*
X143969890Y-45489786D01*
X144120213Y-45640109D01*
X144292179Y-45765048D01*
X144292181Y-45765049D01*
X144292184Y-45765051D01*
X144481588Y-45861557D01*
X144683757Y-45927246D01*
X144893713Y-45960500D01*
X144893714Y-45960500D01*
X145106286Y-45960500D01*
X145106287Y-45960500D01*
X145316243Y-45927246D01*
X145518412Y-45861557D01*
X145707816Y-45765051D01*
X145835430Y-45672335D01*
X145879786Y-45640109D01*
X145879788Y-45640106D01*
X145879792Y-45640104D01*
X146030104Y-45489792D01*
X146030106Y-45489788D01*
X146030109Y-45489786D01*
X146155048Y-45317820D01*
X146155047Y-45317820D01*
X146155051Y-45317816D01*
X146251557Y-45128412D01*
X146317246Y-44926243D01*
X146350500Y-44716287D01*
X146350500Y-44503713D01*
X146317246Y-44293757D01*
X146251557Y-44091588D01*
X146155051Y-43902184D01*
X146155049Y-43902181D01*
X146155048Y-43902179D01*
X146030109Y-43730213D01*
X145879786Y-43579890D01*
X145707820Y-43454951D01*
X145707115Y-43454591D01*
X145699054Y-43450485D01*
X145648259Y-43402512D01*
X145631463Y-43334692D01*
X145653999Y-43268556D01*
X145699054Y-43229515D01*
X145707816Y-43225051D01*
X145827148Y-43138352D01*
X145879786Y-43100109D01*
X145879788Y-43100106D01*
X145879792Y-43100104D01*
X146030104Y-42949792D01*
X146030106Y-42949788D01*
X146030109Y-42949786D01*
X146155048Y-42777820D01*
X146155047Y-42777820D01*
X146155051Y-42777816D01*
X146251557Y-42588412D01*
X146317246Y-42386243D01*
X146350500Y-42176287D01*
X146350500Y-41963713D01*
X146317246Y-41753757D01*
X146251557Y-41551588D01*
X146155051Y-41362184D01*
X146155049Y-41362181D01*
X146155048Y-41362179D01*
X146030109Y-41190213D01*
X145879786Y-41039890D01*
X145707820Y-40914951D01*
X145707115Y-40914591D01*
X145699054Y-40910485D01*
X145648259Y-40862512D01*
X145631463Y-40794692D01*
X145653999Y-40728556D01*
X145699054Y-40689515D01*
X145707816Y-40685051D01*
X145781818Y-40631286D01*
X145879786Y-40560109D01*
X145879788Y-40560106D01*
X145879792Y-40560104D01*
X146030104Y-40409792D01*
X146030106Y-40409788D01*
X146030109Y-40409786D01*
X146155048Y-40237820D01*
X146155047Y-40237820D01*
X146155051Y-40237816D01*
X146251557Y-40048412D01*
X146317246Y-39846243D01*
X146350500Y-39636287D01*
X146350500Y-39423713D01*
X146317246Y-39213757D01*
X146251557Y-39011588D01*
X146155051Y-38822184D01*
X146155049Y-38822181D01*
X146155048Y-38822179D01*
X146030109Y-38650213D01*
X145879786Y-38499890D01*
X145707817Y-38374949D01*
X145698504Y-38370204D01*
X145647707Y-38322230D01*
X145630912Y-38254409D01*
X145653449Y-38188274D01*
X145698507Y-38149232D01*
X145707555Y-38144622D01*
X145761716Y-38105270D01*
X145761717Y-38105270D01*
X145129408Y-37472962D01*
X145192993Y-37455925D01*
X145307007Y-37390099D01*
X145400099Y-37297007D01*
X145465925Y-37182993D01*
X145482962Y-37119408D01*
X146115270Y-37751717D01*
X146115270Y-37751716D01*
X146154622Y-37697554D01*
X146251095Y-37508217D01*
X146316757Y-37306130D01*
X146316757Y-37306127D01*
X146350000Y-37096246D01*
X146350000Y-36883753D01*
X146316757Y-36673872D01*
X146316757Y-36673869D01*
X146251095Y-36471782D01*
X146154624Y-36282449D01*
X146115270Y-36228282D01*
X146115269Y-36228282D01*
X145482962Y-36860590D01*
X145465925Y-36797007D01*
X145400099Y-36682993D01*
X145307007Y-36589901D01*
X145192993Y-36524075D01*
X145129409Y-36507037D01*
X145799627Y-35836818D01*
X145860950Y-35803333D01*
X145887307Y-35800499D01*
X145897872Y-35800499D01*
X145957483Y-35794091D01*
X146092331Y-35743796D01*
X146207546Y-35657546D01*
X146293796Y-35542331D01*
X146344091Y-35407483D01*
X146350500Y-35347873D01*
X146350499Y-33552128D01*
X146344091Y-33492517D01*
X146293796Y-33357669D01*
X146293795Y-33357668D01*
X146293793Y-33357664D01*
X146207547Y-33242455D01*
X146207544Y-33242452D01*
X146092335Y-33156206D01*
X146092328Y-33156202D01*
X145957482Y-33105908D01*
X145957483Y-33105908D01*
X145897883Y-33099501D01*
X145897881Y-33099500D01*
X145897873Y-33099500D01*
X145897864Y-33099500D01*
X144102129Y-33099500D01*
X144102123Y-33099501D01*
X144042516Y-33105908D01*
X143907671Y-33156202D01*
X143907664Y-33156206D01*
X143792455Y-33242452D01*
X143792452Y-33242455D01*
X143706206Y-33357664D01*
X143706202Y-33357671D01*
X143655908Y-33492517D01*
X143650781Y-33540208D01*
X143649501Y-33552123D01*
X143649500Y-33552135D01*
X143649500Y-35347870D01*
X143649501Y-35347876D01*
X143655908Y-35407483D01*
X143706202Y-35542328D01*
X143706206Y-35542335D01*
X143792452Y-35657544D01*
X143792455Y-35657547D01*
X143907664Y-35743793D01*
X143907671Y-35743797D01*
X143952618Y-35760561D01*
X144042517Y-35794091D01*
X144102127Y-35800500D01*
X144112685Y-35800499D01*
X144179723Y-35820179D01*
X144200372Y-35836818D01*
X144870591Y-36507037D01*
X144807007Y-36524075D01*
X144692993Y-36589901D01*
X144599901Y-36682993D01*
X144534075Y-36797007D01*
X144517037Y-36860590D01*
X143884728Y-36228282D01*
X143884727Y-36228282D01*
X143845380Y-36282439D01*
X143748904Y-36471782D01*
X143683242Y-36673869D01*
X143683242Y-36673872D01*
X143650000Y-36883753D01*
X143650000Y-37096246D01*
X143683242Y-37306127D01*
X143683242Y-37306130D01*
X143748904Y-37508217D01*
X143845375Y-37697550D01*
X143884728Y-37751716D01*
X144517037Y-37119408D01*
X144534075Y-37182993D01*
X144599901Y-37297007D01*
X144692993Y-37390099D01*
X144807007Y-37455925D01*
X144870590Y-37472962D01*
X144238282Y-38105269D01*
X144238282Y-38105270D01*
X144292452Y-38144626D01*
X144292451Y-38144626D01*
X144301495Y-38149234D01*
X144352292Y-38197208D01*
X144369087Y-38265029D01*
X144346550Y-38331164D01*
X144301499Y-38370202D01*
X144292182Y-38374949D01*
X144120213Y-38499890D01*
X143969890Y-38650213D01*
X143844948Y-38822184D01*
X143844947Y-38822185D01*
X143824765Y-38861795D01*
X143776791Y-38912591D01*
X143714281Y-38929500D01*
X130336670Y-38929500D01*
X130336654Y-38929499D01*
X130329058Y-38929499D01*
X130170943Y-38929499D01*
X130094579Y-38949961D01*
X130018214Y-38970423D01*
X130018209Y-38970426D01*
X129881290Y-39049475D01*
X129881282Y-39049481D01*
X118524522Y-50406241D01*
X118463199Y-50439726D01*
X118398523Y-50436491D01*
X118356245Y-50422754D01*
X118216272Y-50400584D01*
X118146287Y-50389500D01*
X117933713Y-50389500D01*
X117885042Y-50397208D01*
X117723760Y-50422753D01*
X117521585Y-50488444D01*
X117332179Y-50584951D01*
X117160213Y-50709890D01*
X117009890Y-50860213D01*
X116884949Y-51032182D01*
X116880484Y-51040946D01*
X116832509Y-51091742D01*
X116764688Y-51108536D01*
X116698553Y-51085998D01*
X116659516Y-51040946D01*
X116655050Y-51032182D01*
X116530109Y-50860213D01*
X116379786Y-50709890D01*
X116207820Y-50584951D01*
X116018414Y-50488444D01*
X116018413Y-50488443D01*
X116018412Y-50488443D01*
X115816243Y-50422754D01*
X115816241Y-50422753D01*
X115816240Y-50422753D01*
X115654957Y-50397208D01*
X115606287Y-50389500D01*
X115393713Y-50389500D01*
X115345042Y-50397208D01*
X115183760Y-50422753D01*
X114981585Y-50488444D01*
X114792179Y-50584951D01*
X114620213Y-50709890D01*
X114469890Y-50860213D01*
X114344949Y-51032182D01*
X114340484Y-51040946D01*
X114292509Y-51091742D01*
X114224688Y-51108536D01*
X114158553Y-51085998D01*
X114119516Y-51040946D01*
X114115050Y-51032182D01*
X113990109Y-50860213D01*
X113839786Y-50709890D01*
X113667820Y-50584951D01*
X113478414Y-50488444D01*
X113478413Y-50488443D01*
X113478412Y-50488443D01*
X113276243Y-50422754D01*
X113276241Y-50422753D01*
X113276240Y-50422753D01*
X113114957Y-50397208D01*
X113066287Y-50389500D01*
X112853713Y-50389500D01*
X112805042Y-50397208D01*
X112643760Y-50422753D01*
X112441585Y-50488444D01*
X112252179Y-50584951D01*
X112080213Y-50709890D01*
X111929890Y-50860213D01*
X111804949Y-51032182D01*
X111800484Y-51040946D01*
X111752509Y-51091742D01*
X111684688Y-51108536D01*
X111618553Y-51085998D01*
X111579516Y-51040946D01*
X111575050Y-51032182D01*
X111450109Y-50860213D01*
X111299786Y-50709890D01*
X111127820Y-50584951D01*
X110938414Y-50488444D01*
X110938413Y-50488443D01*
X110938412Y-50488443D01*
X110736243Y-50422754D01*
X110736241Y-50422753D01*
X110736240Y-50422753D01*
X110574957Y-50397208D01*
X110526287Y-50389500D01*
X110313713Y-50389500D01*
X110265042Y-50397208D01*
X110103760Y-50422753D01*
X109901585Y-50488444D01*
X109712179Y-50584951D01*
X109540213Y-50709890D01*
X109389890Y-50860213D01*
X109264949Y-51032182D01*
X109260484Y-51040946D01*
X109212509Y-51091742D01*
X109144688Y-51108536D01*
X109078553Y-51085998D01*
X109039516Y-51040946D01*
X109035050Y-51032182D01*
X108910109Y-50860213D01*
X108759786Y-50709890D01*
X108587820Y-50584951D01*
X108398414Y-50488444D01*
X108398413Y-50488443D01*
X108398412Y-50488443D01*
X108196243Y-50422754D01*
X108196241Y-50422753D01*
X108196240Y-50422753D01*
X108034957Y-50397208D01*
X107986287Y-50389500D01*
X107773713Y-50389500D01*
X107725042Y-50397208D01*
X107563760Y-50422753D01*
X107361585Y-50488444D01*
X107172179Y-50584951D01*
X107000213Y-50709890D01*
X106849890Y-50860213D01*
X106724949Y-51032182D01*
X106720484Y-51040946D01*
X106672509Y-51091742D01*
X106604688Y-51108536D01*
X106538553Y-51085998D01*
X106499516Y-51040946D01*
X106495050Y-51032182D01*
X106370109Y-50860213D01*
X106219786Y-50709890D01*
X106047820Y-50584951D01*
X105858414Y-50488444D01*
X105858413Y-50488443D01*
X105858412Y-50488443D01*
X105656243Y-50422754D01*
X105656241Y-50422753D01*
X105656240Y-50422753D01*
X105494957Y-50397208D01*
X105446287Y-50389500D01*
X105233713Y-50389500D01*
X105185042Y-50397208D01*
X105023760Y-50422753D01*
X104821585Y-50488444D01*
X104632179Y-50584951D01*
X104460213Y-50709890D01*
X104309890Y-50860213D01*
X104184949Y-51032182D01*
X104180484Y-51040946D01*
X104132509Y-51091742D01*
X104064688Y-51108536D01*
X103998553Y-51085998D01*
X103959516Y-51040946D01*
X103955050Y-51032182D01*
X103830109Y-50860213D01*
X103679786Y-50709890D01*
X103507820Y-50584951D01*
X103318414Y-50488444D01*
X103318413Y-50488443D01*
X103318412Y-50488443D01*
X103116243Y-50422754D01*
X103116241Y-50422753D01*
X103116240Y-50422753D01*
X102954957Y-50397208D01*
X102906287Y-50389500D01*
X102693713Y-50389500D01*
X102645042Y-50397208D01*
X102483760Y-50422753D01*
X102281585Y-50488444D01*
X102092179Y-50584951D01*
X101920213Y-50709890D01*
X101769890Y-50860213D01*
X101644949Y-51032182D01*
X101640484Y-51040946D01*
X101592509Y-51091742D01*
X101524688Y-51108536D01*
X101458553Y-51085998D01*
X101419516Y-51040946D01*
X101415050Y-51032182D01*
X101290109Y-50860213D01*
X101139786Y-50709890D01*
X100967820Y-50584951D01*
X100778414Y-50488444D01*
X100778413Y-50488443D01*
X100778412Y-50488443D01*
X100576243Y-50422754D01*
X100576241Y-50422753D01*
X100576240Y-50422753D01*
X100414957Y-50397208D01*
X100366287Y-50389500D01*
X100153713Y-50389500D01*
X100083727Y-50400584D01*
X99943755Y-50422754D01*
X99943748Y-50422755D01*
X99901475Y-50436491D01*
X99831634Y-50438486D01*
X99775477Y-50406241D01*
X87507590Y-38138355D01*
X87500521Y-38131286D01*
X87500520Y-38131284D01*
X87431414Y-38062178D01*
X87409758Y-38022515D01*
X87397932Y-38000858D01*
X87402916Y-37931166D01*
X87433436Y-37890397D01*
X87444788Y-37875232D01*
X87492468Y-37857448D01*
X87510252Y-37850816D01*
X87519098Y-37850500D01*
X87666286Y-37850500D01*
X87666287Y-37850500D01*
X87876243Y-37817246D01*
X88078412Y-37751557D01*
X88267816Y-37655051D01*
X88322572Y-37615269D01*
X88439786Y-37530109D01*
X88439788Y-37530106D01*
X88439792Y-37530104D01*
X88590104Y-37379792D01*
X88590106Y-37379788D01*
X88590109Y-37379786D01*
X88715048Y-37207820D01*
X88715047Y-37207820D01*
X88715051Y-37207816D01*
X88719514Y-37199054D01*
X88767488Y-37148259D01*
X88835308Y-37131463D01*
X88901444Y-37153999D01*
X88940486Y-37199056D01*
X88944951Y-37207820D01*
X89069890Y-37379786D01*
X89220213Y-37530109D01*
X89392179Y-37655048D01*
X89392181Y-37655049D01*
X89392184Y-37655051D01*
X89581588Y-37751557D01*
X89783757Y-37817246D01*
X89993713Y-37850500D01*
X89993714Y-37850500D01*
X90206286Y-37850500D01*
X90206287Y-37850500D01*
X90416243Y-37817246D01*
X90618412Y-37751557D01*
X90807816Y-37655051D01*
X90862572Y-37615269D01*
X90979786Y-37530109D01*
X90979788Y-37530106D01*
X90979792Y-37530104D01*
X91130104Y-37379792D01*
X91130106Y-37379788D01*
X91130109Y-37379786D01*
X91255048Y-37207820D01*
X91255047Y-37207820D01*
X91255051Y-37207816D01*
X91259514Y-37199054D01*
X91307488Y-37148259D01*
X91375308Y-37131463D01*
X91441444Y-37153999D01*
X91480486Y-37199056D01*
X91484951Y-37207820D01*
X91609890Y-37379786D01*
X91760213Y-37530109D01*
X91932179Y-37655048D01*
X91932181Y-37655049D01*
X91932184Y-37655051D01*
X92121588Y-37751557D01*
X92323757Y-37817246D01*
X92533713Y-37850500D01*
X92533714Y-37850500D01*
X92746286Y-37850500D01*
X92746287Y-37850500D01*
X92956243Y-37817246D01*
X93158412Y-37751557D01*
X93347816Y-37655051D01*
X93402572Y-37615269D01*
X93519786Y-37530109D01*
X93519788Y-37530106D01*
X93519792Y-37530104D01*
X93670104Y-37379792D01*
X93670106Y-37379788D01*
X93670109Y-37379786D01*
X93795048Y-37207820D01*
X93795047Y-37207820D01*
X93795051Y-37207816D01*
X93799514Y-37199054D01*
X93847488Y-37148259D01*
X93915308Y-37131463D01*
X93981444Y-37153999D01*
X94020486Y-37199056D01*
X94024951Y-37207820D01*
X94149890Y-37379786D01*
X94300213Y-37530109D01*
X94472179Y-37655048D01*
X94472181Y-37655049D01*
X94472184Y-37655051D01*
X94661588Y-37751557D01*
X94863757Y-37817246D01*
X95073713Y-37850500D01*
X95073714Y-37850500D01*
X95286286Y-37850500D01*
X95286287Y-37850500D01*
X95496243Y-37817246D01*
X95698412Y-37751557D01*
X95887816Y-37655051D01*
X95942572Y-37615269D01*
X96059786Y-37530109D01*
X96059788Y-37530106D01*
X96059792Y-37530104D01*
X96210104Y-37379792D01*
X96210106Y-37379788D01*
X96210109Y-37379786D01*
X96335048Y-37207820D01*
X96335047Y-37207820D01*
X96335051Y-37207816D01*
X96339514Y-37199054D01*
X96387488Y-37148259D01*
X96455308Y-37131463D01*
X96521444Y-37153999D01*
X96560486Y-37199056D01*
X96564951Y-37207820D01*
X96689890Y-37379786D01*
X96840213Y-37530109D01*
X97012179Y-37655048D01*
X97012181Y-37655049D01*
X97012184Y-37655051D01*
X97201588Y-37751557D01*
X97403757Y-37817246D01*
X97613713Y-37850500D01*
X97613714Y-37850500D01*
X97826286Y-37850500D01*
X97826287Y-37850500D01*
X98036243Y-37817246D01*
X98238412Y-37751557D01*
X98427816Y-37655051D01*
X98482572Y-37615269D01*
X98599786Y-37530109D01*
X98599788Y-37530106D01*
X98599792Y-37530104D01*
X98750104Y-37379792D01*
X98750106Y-37379788D01*
X98750109Y-37379786D01*
X98875048Y-37207820D01*
X98875047Y-37207820D01*
X98875051Y-37207816D01*
X98879514Y-37199054D01*
X98927488Y-37148259D01*
X98995308Y-37131463D01*
X99061444Y-37153999D01*
X99100486Y-37199056D01*
X99104951Y-37207820D01*
X99229890Y-37379786D01*
X99380213Y-37530109D01*
X99552179Y-37655048D01*
X99552181Y-37655049D01*
X99552184Y-37655051D01*
X99741588Y-37751557D01*
X99943757Y-37817246D01*
X100153713Y-37850500D01*
X100153714Y-37850500D01*
X100366286Y-37850500D01*
X100366287Y-37850500D01*
X100576243Y-37817246D01*
X100778412Y-37751557D01*
X100967816Y-37655051D01*
X101022572Y-37615269D01*
X101139786Y-37530109D01*
X101139788Y-37530106D01*
X101139792Y-37530104D01*
X101290104Y-37379792D01*
X101290106Y-37379788D01*
X101290109Y-37379786D01*
X101415048Y-37207820D01*
X101415047Y-37207820D01*
X101415051Y-37207816D01*
X101419514Y-37199054D01*
X101467488Y-37148259D01*
X101535308Y-37131463D01*
X101601444Y-37153999D01*
X101640486Y-37199056D01*
X101644951Y-37207820D01*
X101769890Y-37379786D01*
X101920213Y-37530109D01*
X102092179Y-37655048D01*
X102092181Y-37655049D01*
X102092184Y-37655051D01*
X102281588Y-37751557D01*
X102483757Y-37817246D01*
X102693713Y-37850500D01*
X102693714Y-37850500D01*
X102906286Y-37850500D01*
X102906287Y-37850500D01*
X103116243Y-37817246D01*
X103318412Y-37751557D01*
X103507816Y-37655051D01*
X103562572Y-37615269D01*
X103679786Y-37530109D01*
X103679788Y-37530106D01*
X103679792Y-37530104D01*
X103830104Y-37379792D01*
X103830106Y-37379788D01*
X103830109Y-37379786D01*
X103955048Y-37207820D01*
X103955047Y-37207820D01*
X103955051Y-37207816D01*
X103959514Y-37199054D01*
X104007488Y-37148259D01*
X104075308Y-37131463D01*
X104141444Y-37153999D01*
X104180486Y-37199056D01*
X104184951Y-37207820D01*
X104309890Y-37379786D01*
X104460213Y-37530109D01*
X104632179Y-37655048D01*
X104632181Y-37655049D01*
X104632184Y-37655051D01*
X104821588Y-37751557D01*
X105023757Y-37817246D01*
X105233713Y-37850500D01*
X105233714Y-37850500D01*
X105446286Y-37850500D01*
X105446287Y-37850500D01*
X105656243Y-37817246D01*
X105858412Y-37751557D01*
X106047816Y-37655051D01*
X106102572Y-37615269D01*
X106219786Y-37530109D01*
X106219788Y-37530106D01*
X106219792Y-37530104D01*
X106370104Y-37379792D01*
X106370106Y-37379788D01*
X106370109Y-37379786D01*
X106495048Y-37207820D01*
X106495047Y-37207820D01*
X106495051Y-37207816D01*
X106499514Y-37199054D01*
X106547488Y-37148259D01*
X106615308Y-37131463D01*
X106681444Y-37153999D01*
X106720486Y-37199056D01*
X106724951Y-37207820D01*
X106849890Y-37379786D01*
X107000213Y-37530109D01*
X107172179Y-37655048D01*
X107172181Y-37655049D01*
X107172184Y-37655051D01*
X107361588Y-37751557D01*
X107563757Y-37817246D01*
X107773713Y-37850500D01*
X107773714Y-37850500D01*
X107986286Y-37850500D01*
X107986287Y-37850500D01*
X108196243Y-37817246D01*
X108398412Y-37751557D01*
X108587816Y-37655051D01*
X108642572Y-37615269D01*
X108759786Y-37530109D01*
X108759788Y-37530106D01*
X108759792Y-37530104D01*
X108910104Y-37379792D01*
X108910106Y-37379788D01*
X108910109Y-37379786D01*
X109035048Y-37207820D01*
X109035047Y-37207820D01*
X109035051Y-37207816D01*
X109039514Y-37199054D01*
X109087488Y-37148259D01*
X109155308Y-37131463D01*
X109221444Y-37153999D01*
X109260486Y-37199056D01*
X109264951Y-37207820D01*
X109389890Y-37379786D01*
X109540213Y-37530109D01*
X109712179Y-37655048D01*
X109712181Y-37655049D01*
X109712184Y-37655051D01*
X109901588Y-37751557D01*
X110103757Y-37817246D01*
X110313713Y-37850500D01*
X110313714Y-37850500D01*
X110526286Y-37850500D01*
X110526287Y-37850500D01*
X110736243Y-37817246D01*
X110938412Y-37751557D01*
X111127816Y-37655051D01*
X111182572Y-37615269D01*
X111299786Y-37530109D01*
X111299788Y-37530106D01*
X111299792Y-37530104D01*
X111450104Y-37379792D01*
X111450106Y-37379788D01*
X111450109Y-37379786D01*
X111575048Y-37207820D01*
X111575047Y-37207820D01*
X111575051Y-37207816D01*
X111579514Y-37199054D01*
X111627488Y-37148259D01*
X111695308Y-37131463D01*
X111761444Y-37153999D01*
X111800486Y-37199056D01*
X111804951Y-37207820D01*
X111929890Y-37379786D01*
X112080213Y-37530109D01*
X112252179Y-37655048D01*
X112252181Y-37655049D01*
X112252184Y-37655051D01*
X112441588Y-37751557D01*
X112643757Y-37817246D01*
X112853713Y-37850500D01*
X112853714Y-37850500D01*
X113066286Y-37850500D01*
X113066287Y-37850500D01*
X113276243Y-37817246D01*
X113478412Y-37751557D01*
X113667816Y-37655051D01*
X113722572Y-37615269D01*
X113839786Y-37530109D01*
X113839788Y-37530106D01*
X113839792Y-37530104D01*
X113990104Y-37379792D01*
X113990106Y-37379788D01*
X113990109Y-37379786D01*
X114115048Y-37207820D01*
X114115047Y-37207820D01*
X114115051Y-37207816D01*
X114119514Y-37199054D01*
X114167488Y-37148259D01*
X114235308Y-37131463D01*
X114301444Y-37153999D01*
X114340486Y-37199056D01*
X114344951Y-37207820D01*
X114469890Y-37379786D01*
X114620213Y-37530109D01*
X114792179Y-37655048D01*
X114792181Y-37655049D01*
X114792184Y-37655051D01*
X114981588Y-37751557D01*
X115183757Y-37817246D01*
X115393713Y-37850500D01*
X115393714Y-37850500D01*
X115606286Y-37850500D01*
X115606287Y-37850500D01*
X115816243Y-37817246D01*
X116018412Y-37751557D01*
X116207816Y-37655051D01*
X116262572Y-37615269D01*
X116379786Y-37530109D01*
X116379788Y-37530106D01*
X116379792Y-37530104D01*
X116530104Y-37379792D01*
X116530106Y-37379788D01*
X116530109Y-37379786D01*
X116655048Y-37207820D01*
X116655047Y-37207820D01*
X116655051Y-37207816D01*
X116659514Y-37199054D01*
X116707488Y-37148259D01*
X116775308Y-37131463D01*
X116841444Y-37153999D01*
X116880486Y-37199056D01*
X116884951Y-37207820D01*
X117009890Y-37379786D01*
X117160213Y-37530109D01*
X117332179Y-37655048D01*
X117332181Y-37655049D01*
X117332184Y-37655051D01*
X117521588Y-37751557D01*
X117723757Y-37817246D01*
X117933713Y-37850500D01*
X117933714Y-37850500D01*
X118146286Y-37850500D01*
X118146287Y-37850500D01*
X118356243Y-37817246D01*
X118558412Y-37751557D01*
X118747816Y-37655051D01*
X118802572Y-37615269D01*
X118919786Y-37530109D01*
X118919788Y-37530106D01*
X118919792Y-37530104D01*
X119070104Y-37379792D01*
X119070106Y-37379788D01*
X119070109Y-37379786D01*
X119195048Y-37207820D01*
X119195047Y-37207820D01*
X119195051Y-37207816D01*
X119199514Y-37199054D01*
X119247488Y-37148259D01*
X119315308Y-37131463D01*
X119381444Y-37153999D01*
X119420486Y-37199056D01*
X119424951Y-37207820D01*
X119549890Y-37379786D01*
X119700213Y-37530109D01*
X119872179Y-37655048D01*
X119872181Y-37655049D01*
X119872184Y-37655051D01*
X120061588Y-37751557D01*
X120263757Y-37817246D01*
X120473713Y-37850500D01*
X120473714Y-37850500D01*
X120686286Y-37850500D01*
X120686287Y-37850500D01*
X120896243Y-37817246D01*
X121098412Y-37751557D01*
X121287816Y-37655051D01*
X121342572Y-37615269D01*
X121459786Y-37530109D01*
X121459788Y-37530106D01*
X121459792Y-37530104D01*
X121610104Y-37379792D01*
X121610106Y-37379788D01*
X121610109Y-37379786D01*
X121735048Y-37207820D01*
X121735047Y-37207820D01*
X121735051Y-37207816D01*
X121739514Y-37199054D01*
X121787488Y-37148259D01*
X121855308Y-37131463D01*
X121921444Y-37153999D01*
X121960486Y-37199056D01*
X121964951Y-37207820D01*
X122089890Y-37379786D01*
X122240213Y-37530109D01*
X122412179Y-37655048D01*
X122412181Y-37655049D01*
X122412184Y-37655051D01*
X122601588Y-37751557D01*
X122803757Y-37817246D01*
X123013713Y-37850500D01*
X123013714Y-37850500D01*
X123226286Y-37850500D01*
X123226287Y-37850500D01*
X123436243Y-37817246D01*
X123638412Y-37751557D01*
X123827816Y-37655051D01*
X123882572Y-37615269D01*
X123999786Y-37530109D01*
X123999788Y-37530106D01*
X123999792Y-37530104D01*
X124150104Y-37379792D01*
X124150106Y-37379788D01*
X124150109Y-37379786D01*
X124275048Y-37207820D01*
X124275047Y-37207820D01*
X124275051Y-37207816D01*
X124279514Y-37199054D01*
X124327488Y-37148259D01*
X124395308Y-37131463D01*
X124461444Y-37153999D01*
X124500486Y-37199056D01*
X124504951Y-37207820D01*
X124629890Y-37379786D01*
X124780213Y-37530109D01*
X124952179Y-37655048D01*
X124952181Y-37655049D01*
X124952184Y-37655051D01*
X125141588Y-37751557D01*
X125343757Y-37817246D01*
X125553713Y-37850500D01*
X125553714Y-37850500D01*
X125766286Y-37850500D01*
X125766287Y-37850500D01*
X125976243Y-37817246D01*
X126178412Y-37751557D01*
X126367816Y-37655051D01*
X126422572Y-37615269D01*
X126539786Y-37530109D01*
X126539788Y-37530106D01*
X126539792Y-37530104D01*
X126690104Y-37379792D01*
X126690106Y-37379788D01*
X126690109Y-37379786D01*
X126815048Y-37207820D01*
X126815047Y-37207820D01*
X126815051Y-37207816D01*
X126819514Y-37199054D01*
X126867488Y-37148259D01*
X126935308Y-37131463D01*
X127001444Y-37153999D01*
X127040486Y-37199056D01*
X127044951Y-37207820D01*
X127169890Y-37379786D01*
X127320213Y-37530109D01*
X127492179Y-37655048D01*
X127492181Y-37655049D01*
X127492184Y-37655051D01*
X127681588Y-37751557D01*
X127883757Y-37817246D01*
X128093713Y-37850500D01*
X128093714Y-37850500D01*
X128306286Y-37850500D01*
X128306287Y-37850500D01*
X128516243Y-37817246D01*
X128718412Y-37751557D01*
X128907816Y-37655051D01*
X128962572Y-37615269D01*
X129079786Y-37530109D01*
X129079788Y-37530106D01*
X129079792Y-37530104D01*
X129230104Y-37379792D01*
X129230106Y-37379788D01*
X129230109Y-37379786D01*
X129315890Y-37261717D01*
X129355051Y-37207816D01*
X129359793Y-37198508D01*
X129407763Y-37147711D01*
X129475583Y-37130911D01*
X129541719Y-37153445D01*
X129580763Y-37198500D01*
X129585373Y-37207547D01*
X129624728Y-37261716D01*
X130257037Y-36629408D01*
X130274075Y-36692993D01*
X130339901Y-36807007D01*
X130432993Y-36900099D01*
X130547007Y-36965925D01*
X130610590Y-36982962D01*
X129978282Y-37615269D01*
X129978282Y-37615270D01*
X130032449Y-37654624D01*
X130221782Y-37751095D01*
X130423870Y-37816757D01*
X130633754Y-37850000D01*
X130846246Y-37850000D01*
X131056127Y-37816757D01*
X131056130Y-37816757D01*
X131258217Y-37751095D01*
X131447554Y-37654622D01*
X131501716Y-37615270D01*
X131501717Y-37615270D01*
X130869408Y-36982962D01*
X130932993Y-36965925D01*
X131047007Y-36900099D01*
X131140099Y-36807007D01*
X131205925Y-36692993D01*
X131222962Y-36629409D01*
X131855270Y-37261717D01*
X131855270Y-37261716D01*
X131894622Y-37207554D01*
X131899514Y-37197954D01*
X131947488Y-37147157D01*
X132015308Y-37130361D01*
X132081444Y-37152897D01*
X132120486Y-37197954D01*
X132125375Y-37207550D01*
X132164728Y-37261716D01*
X132797037Y-36629408D01*
X132814075Y-36692993D01*
X132879901Y-36807007D01*
X132972993Y-36900099D01*
X133087007Y-36965925D01*
X133150590Y-36982962D01*
X132518282Y-37615269D01*
X132518282Y-37615270D01*
X132572449Y-37654624D01*
X132761782Y-37751095D01*
X132963870Y-37816757D01*
X133173754Y-37850000D01*
X133386246Y-37850000D01*
X133596127Y-37816757D01*
X133596130Y-37816757D01*
X133798217Y-37751095D01*
X133987554Y-37654622D01*
X134041716Y-37615270D01*
X134041717Y-37615270D01*
X133409408Y-36982962D01*
X133472993Y-36965925D01*
X133587007Y-36900099D01*
X133680099Y-36807007D01*
X133745925Y-36692993D01*
X133762962Y-36629409D01*
X134395270Y-37261717D01*
X134395270Y-37261716D01*
X134434622Y-37207554D01*
X134531095Y-37018217D01*
X134588816Y-36840571D01*
X134588818Y-36840564D01*
X134596758Y-36816125D01*
X134630000Y-36606246D01*
X134630000Y-36393753D01*
X134596757Y-36183872D01*
X134596757Y-36183869D01*
X134531095Y-35981782D01*
X134434624Y-35792449D01*
X134395270Y-35738282D01*
X134395269Y-35738282D01*
X133762962Y-36370590D01*
X133745925Y-36307007D01*
X133680099Y-36192993D01*
X133587007Y-36099901D01*
X133472993Y-36034075D01*
X133409409Y-36017037D01*
X134041716Y-35384728D01*
X133987550Y-35345375D01*
X133798217Y-35248904D01*
X133596129Y-35183242D01*
X133386246Y-35150000D01*
X133173754Y-35150000D01*
X132963872Y-35183242D01*
X132963869Y-35183242D01*
X132761782Y-35248904D01*
X132572439Y-35345380D01*
X132518282Y-35384727D01*
X132518282Y-35384728D01*
X133150591Y-36017037D01*
X133087007Y-36034075D01*
X132972993Y-36099901D01*
X132879901Y-36192993D01*
X132814075Y-36307007D01*
X132797037Y-36370591D01*
X132164728Y-35738282D01*
X132164727Y-35738282D01*
X132125380Y-35792440D01*
X132120483Y-35802051D01*
X132072506Y-35852845D01*
X132004684Y-35869638D01*
X131938550Y-35847098D01*
X131899516Y-35802048D01*
X131894626Y-35792452D01*
X131855270Y-35738282D01*
X131855269Y-35738282D01*
X131222962Y-36370590D01*
X131205925Y-36307007D01*
X131140099Y-36192993D01*
X131047007Y-36099901D01*
X130932993Y-36034075D01*
X130869409Y-36017037D01*
X131501716Y-35384728D01*
X131447550Y-35345375D01*
X131258217Y-35248904D01*
X131056129Y-35183242D01*
X130846246Y-35150000D01*
X130633754Y-35150000D01*
X130423872Y-35183242D01*
X130423869Y-35183242D01*
X130221782Y-35248904D01*
X130032439Y-35345380D01*
X129978282Y-35384727D01*
X129978282Y-35384728D01*
X130610591Y-36017037D01*
X130547007Y-36034075D01*
X130432993Y-36099901D01*
X130339901Y-36192993D01*
X130274075Y-36307007D01*
X130257037Y-36370591D01*
X129624728Y-35738282D01*
X129624727Y-35738282D01*
X129585380Y-35792440D01*
X129585376Y-35792446D01*
X129580760Y-35801505D01*
X129532781Y-35852297D01*
X129464959Y-35869087D01*
X129398826Y-35846543D01*
X129359794Y-35801493D01*
X129355051Y-35792184D01*
X129355049Y-35792181D01*
X129355048Y-35792179D01*
X129230109Y-35620213D01*
X129079786Y-35469890D01*
X128907820Y-35344951D01*
X128718414Y-35248444D01*
X128718413Y-35248443D01*
X128718412Y-35248443D01*
X128516243Y-35182754D01*
X128516241Y-35182753D01*
X128516240Y-35182753D01*
X128354957Y-35157208D01*
X128306287Y-35149500D01*
X128093713Y-35149500D01*
X128065006Y-35154046D01*
X127883757Y-35182753D01*
X127841473Y-35196492D01*
X127771632Y-35198486D01*
X127715476Y-35166241D01*
X120734742Y-28185507D01*
X120701257Y-28124184D01*
X120704717Y-28058823D01*
X120714999Y-28027797D01*
X120725500Y-27925009D01*
X120725499Y-27149992D01*
X120714999Y-27047203D01*
X120659814Y-26880666D01*
X120567712Y-26731344D01*
X120443656Y-26607288D01*
X120440342Y-26605243D01*
X120438546Y-26603248D01*
X120437989Y-26602807D01*
X120438064Y-26602711D01*
X120393618Y-26553297D01*
X120382397Y-26484334D01*
X120410240Y-26420252D01*
X120440348Y-26394165D01*
X120443342Y-26392318D01*
X120567315Y-26268345D01*
X120659356Y-26119124D01*
X120659358Y-26119119D01*
X120714505Y-25952697D01*
X120714506Y-25952690D01*
X120724999Y-25849986D01*
X120725000Y-25849973D01*
X120725000Y-25712500D01*
X118275001Y-25712500D01*
X118275001Y-25849986D01*
X118285494Y-25952697D01*
X118340641Y-26119119D01*
X118340643Y-26119124D01*
X118432684Y-26268345D01*
X118556655Y-26392316D01*
X118556659Y-26392319D01*
X118559656Y-26394168D01*
X118561279Y-26395972D01*
X118562323Y-26396798D01*
X118562181Y-26396976D01*
X118606381Y-26446116D01*
X118617602Y-26515079D01*
X118589759Y-26579161D01*
X118559661Y-26605241D01*
X118556349Y-26607283D01*
X118556343Y-26607288D01*
X118432289Y-26731342D01*
X118432288Y-26731344D01*
X118344650Y-26873430D01*
X118341771Y-26878097D01*
X118289823Y-26924821D01*
X118236232Y-26937000D01*
X115266708Y-26937000D01*
X115199669Y-26917315D01*
X115153914Y-26864511D01*
X115147124Y-26839772D01*
X115145876Y-26840068D01*
X115144092Y-26832520D01*
X115093797Y-26697671D01*
X115093793Y-26697664D01*
X115007547Y-26582455D01*
X115007544Y-26582452D01*
X114892335Y-26496206D01*
X114892328Y-26496202D01*
X114757482Y-26445908D01*
X114757483Y-26445908D01*
X114697883Y-26439501D01*
X114697881Y-26439500D01*
X114697873Y-26439500D01*
X114697865Y-26439500D01*
X114687309Y-26439500D01*
X114620270Y-26419815D01*
X114599628Y-26403181D01*
X113929408Y-25732962D01*
X113992993Y-25715925D01*
X114107007Y-25650099D01*
X114200099Y-25557007D01*
X114265925Y-25442993D01*
X114282962Y-25379409D01*
X114915270Y-26011717D01*
X114915270Y-26011716D01*
X114954622Y-25957554D01*
X115051095Y-25768217D01*
X115116757Y-25566130D01*
X115116757Y-25566127D01*
X115150000Y-25356246D01*
X115150000Y-25143753D01*
X115141686Y-25091262D01*
X115139112Y-25075013D01*
X118275000Y-25075013D01*
X118275000Y-25212500D01*
X119250000Y-25212500D01*
X119750000Y-25212500D01*
X120724999Y-25212500D01*
X120724999Y-25075028D01*
X120724998Y-25075013D01*
X120714505Y-24972302D01*
X120659358Y-24805880D01*
X120659356Y-24805875D01*
X120567315Y-24656654D01*
X120443345Y-24532684D01*
X120294124Y-24440643D01*
X120294119Y-24440641D01*
X120127697Y-24385494D01*
X120127690Y-24385493D01*
X120024986Y-24375000D01*
X119750000Y-24375000D01*
X119750000Y-25212500D01*
X119250000Y-25212500D01*
X119250000Y-24375000D01*
X118975029Y-24375000D01*
X118975012Y-24375001D01*
X118872302Y-24385494D01*
X118705880Y-24440641D01*
X118705875Y-24440643D01*
X118556654Y-24532684D01*
X118432684Y-24656654D01*
X118340643Y-24805875D01*
X118340641Y-24805880D01*
X118285494Y-24972302D01*
X118285493Y-24972309D01*
X118275000Y-25075013D01*
X115139112Y-25075013D01*
X115116757Y-24933872D01*
X115116757Y-24933869D01*
X115051095Y-24731782D01*
X114954624Y-24542449D01*
X114915270Y-24488282D01*
X114915269Y-24488282D01*
X114282962Y-25120590D01*
X114265925Y-25057007D01*
X114200099Y-24942993D01*
X114107007Y-24849901D01*
X113992993Y-24784075D01*
X113929409Y-24767037D01*
X114561716Y-24134728D01*
X114507550Y-24095375D01*
X114318217Y-23998904D01*
X114116129Y-23933242D01*
X113906246Y-23900000D01*
X113693754Y-23900000D01*
X113483872Y-23933242D01*
X113483869Y-23933242D01*
X113281782Y-23998904D01*
X113092439Y-24095380D01*
X113038282Y-24134727D01*
X113038282Y-24134728D01*
X113670591Y-24767037D01*
X113607007Y-24784075D01*
X113492993Y-24849901D01*
X113399901Y-24942993D01*
X113334075Y-25057007D01*
X113317037Y-25120591D01*
X112684728Y-24488282D01*
X112684727Y-24488282D01*
X112645380Y-24542440D01*
X112645376Y-24542446D01*
X112640760Y-24551505D01*
X112592781Y-24602297D01*
X112524959Y-24619087D01*
X112458826Y-24596543D01*
X112419794Y-24551493D01*
X112415051Y-24542184D01*
X112415049Y-24542181D01*
X112415048Y-24542179D01*
X112290109Y-24370213D01*
X112139786Y-24219890D01*
X111967820Y-24094951D01*
X111778414Y-23998444D01*
X111778413Y-23998443D01*
X111778412Y-23998443D01*
X111576243Y-23932754D01*
X111576241Y-23932753D01*
X111576240Y-23932753D01*
X111414957Y-23907208D01*
X111366287Y-23899500D01*
X111153713Y-23899500D01*
X111105042Y-23907208D01*
X110943760Y-23932753D01*
X110741585Y-23998444D01*
X110552179Y-24094951D01*
X110380213Y-24219890D01*
X110229890Y-24370213D01*
X110104949Y-24542182D01*
X110100484Y-24550946D01*
X110052509Y-24601742D01*
X109984688Y-24618536D01*
X109918553Y-24595998D01*
X109879516Y-24550946D01*
X109875050Y-24542182D01*
X109750109Y-24370213D01*
X109599786Y-24219890D01*
X109427820Y-24094951D01*
X109238414Y-23998444D01*
X109238413Y-23998443D01*
X109238412Y-23998443D01*
X109036243Y-23932754D01*
X109036241Y-23932753D01*
X109036240Y-23932753D01*
X108874957Y-23907208D01*
X108826287Y-23899500D01*
X108613713Y-23899500D01*
X108565042Y-23907208D01*
X108403760Y-23932753D01*
X108201585Y-23998444D01*
X108012179Y-24094951D01*
X107840213Y-24219890D01*
X107689890Y-24370213D01*
X107564949Y-24542182D01*
X107560484Y-24550946D01*
X107512509Y-24601742D01*
X107444688Y-24618536D01*
X107378553Y-24595998D01*
X107339516Y-24550946D01*
X107335050Y-24542182D01*
X107210109Y-24370213D01*
X107059786Y-24219890D01*
X106887820Y-24094951D01*
X106698414Y-23998444D01*
X106698413Y-23998443D01*
X106698412Y-23998443D01*
X106496243Y-23932754D01*
X106496241Y-23932753D01*
X106496240Y-23932753D01*
X106334957Y-23907208D01*
X106286287Y-23899500D01*
X106073713Y-23899500D01*
X106025042Y-23907208D01*
X105863760Y-23932753D01*
X105661585Y-23998444D01*
X105472179Y-24094951D01*
X105300213Y-24219890D01*
X105149890Y-24370213D01*
X105024951Y-24542179D01*
X104928444Y-24731585D01*
X104862753Y-24933760D01*
X104829500Y-25143713D01*
X104829500Y-25356286D01*
X104862753Y-25566239D01*
X104928444Y-25768414D01*
X105024951Y-25957820D01*
X105149890Y-26129786D01*
X105300213Y-26280109D01*
X105472182Y-26405050D01*
X105480946Y-26409516D01*
X105531742Y-26457491D01*
X105548536Y-26525312D01*
X105525998Y-26591447D01*
X105480946Y-26630484D01*
X105472182Y-26634949D01*
X105300213Y-26759890D01*
X105149890Y-26910213D01*
X105024951Y-27082179D01*
X104928444Y-27271585D01*
X104862753Y-27473760D01*
X104829500Y-27683713D01*
X104829500Y-27896286D01*
X104855242Y-28058819D01*
X104862754Y-28106243D01*
X104892211Y-28196903D01*
X104928444Y-28308414D01*
X105024951Y-28497820D01*
X105149890Y-28669786D01*
X105300213Y-28820109D01*
X105472179Y-28945048D01*
X105472181Y-28945049D01*
X105472184Y-28945051D01*
X105661588Y-29041557D01*
X105863757Y-29107246D01*
X106073713Y-29140500D01*
X106073714Y-29140500D01*
X106286286Y-29140500D01*
X106286287Y-29140500D01*
X106496243Y-29107246D01*
X106568183Y-29083870D01*
X106638023Y-29081876D01*
X106697856Y-29117956D01*
X106728684Y-29180657D01*
X106730500Y-29201802D01*
X106730500Y-34208902D01*
X106710815Y-34275941D01*
X106694181Y-34296583D01*
X105824522Y-35166241D01*
X105763199Y-35199726D01*
X105698523Y-35196491D01*
X105656245Y-35182754D01*
X105516272Y-35160584D01*
X105446287Y-35149500D01*
X105233713Y-35149500D01*
X105185042Y-35157208D01*
X105023760Y-35182753D01*
X104821585Y-35248444D01*
X104632179Y-35344951D01*
X104460213Y-35469890D01*
X104309890Y-35620213D01*
X104184949Y-35792182D01*
X104180484Y-35800946D01*
X104132509Y-35851742D01*
X104064688Y-35868536D01*
X103998553Y-35845998D01*
X103959516Y-35800946D01*
X103955050Y-35792182D01*
X103830109Y-35620213D01*
X103679786Y-35469890D01*
X103507820Y-35344951D01*
X103318414Y-35248444D01*
X103318413Y-35248443D01*
X103318412Y-35248443D01*
X103116243Y-35182754D01*
X103116241Y-35182753D01*
X103116240Y-35182753D01*
X102954957Y-35157208D01*
X102906287Y-35149500D01*
X102693713Y-35149500D01*
X102645042Y-35157208D01*
X102483760Y-35182753D01*
X102281585Y-35248444D01*
X102092179Y-35344951D01*
X101920213Y-35469890D01*
X101769890Y-35620213D01*
X101644949Y-35792182D01*
X101640484Y-35800946D01*
X101592509Y-35851742D01*
X101524688Y-35868536D01*
X101458553Y-35845998D01*
X101419516Y-35800946D01*
X101415050Y-35792182D01*
X101290109Y-35620213D01*
X101139786Y-35469890D01*
X100967820Y-35344951D01*
X100778414Y-35248444D01*
X100778413Y-35248443D01*
X100778412Y-35248443D01*
X100576243Y-35182754D01*
X100576241Y-35182753D01*
X100576240Y-35182753D01*
X100414957Y-35157208D01*
X100366287Y-35149500D01*
X100153713Y-35149500D01*
X100105042Y-35157208D01*
X99943760Y-35182753D01*
X99741585Y-35248444D01*
X99552179Y-35344951D01*
X99380213Y-35469890D01*
X99229890Y-35620213D01*
X99104949Y-35792182D01*
X99100484Y-35800946D01*
X99052509Y-35851742D01*
X98984688Y-35868536D01*
X98918553Y-35845998D01*
X98879516Y-35800946D01*
X98875050Y-35792182D01*
X98750109Y-35620213D01*
X98599786Y-35469890D01*
X98427820Y-35344951D01*
X98238414Y-35248444D01*
X98238413Y-35248443D01*
X98238412Y-35248443D01*
X98036243Y-35182754D01*
X98036241Y-35182753D01*
X98036240Y-35182753D01*
X97874957Y-35157208D01*
X97826287Y-35149500D01*
X97613713Y-35149500D01*
X97565042Y-35157208D01*
X97403760Y-35182753D01*
X97201585Y-35248444D01*
X97012179Y-35344951D01*
X96840213Y-35469890D01*
X96689890Y-35620213D01*
X96564949Y-35792182D01*
X96560484Y-35800946D01*
X96512509Y-35851742D01*
X96444688Y-35868536D01*
X96378553Y-35845998D01*
X96339516Y-35800946D01*
X96335050Y-35792182D01*
X96210109Y-35620213D01*
X96059786Y-35469890D01*
X95887820Y-35344951D01*
X95698414Y-35248444D01*
X95698413Y-35248443D01*
X95698412Y-35248443D01*
X95496243Y-35182754D01*
X95496241Y-35182753D01*
X95496240Y-35182753D01*
X95334957Y-35157208D01*
X95286287Y-35149500D01*
X95073713Y-35149500D01*
X95025042Y-35157208D01*
X94863760Y-35182753D01*
X94661585Y-35248444D01*
X94472179Y-35344951D01*
X94300213Y-35469890D01*
X94149890Y-35620213D01*
X94024949Y-35792182D01*
X94020484Y-35800946D01*
X93972509Y-35851742D01*
X93904688Y-35868536D01*
X93838553Y-35845998D01*
X93799516Y-35800946D01*
X93795050Y-35792182D01*
X93670109Y-35620213D01*
X93519786Y-35469890D01*
X93347820Y-35344951D01*
X93158414Y-35248444D01*
X93158413Y-35248443D01*
X93158412Y-35248443D01*
X92956243Y-35182754D01*
X92956241Y-35182753D01*
X92956240Y-35182753D01*
X92794957Y-35157208D01*
X92746287Y-35149500D01*
X92533713Y-35149500D01*
X92485042Y-35157208D01*
X92323760Y-35182753D01*
X92121585Y-35248444D01*
X91932179Y-35344951D01*
X91760213Y-35469890D01*
X91609890Y-35620213D01*
X91484949Y-35792182D01*
X91480484Y-35800946D01*
X91432509Y-35851742D01*
X91364688Y-35868536D01*
X91298553Y-35845998D01*
X91259516Y-35800946D01*
X91255050Y-35792182D01*
X91130109Y-35620213D01*
X90979786Y-35469890D01*
X90807820Y-35344951D01*
X90618414Y-35248444D01*
X90618413Y-35248443D01*
X90618412Y-35248443D01*
X90416243Y-35182754D01*
X90416241Y-35182753D01*
X90416240Y-35182753D01*
X90254957Y-35157208D01*
X90206287Y-35149500D01*
X89993713Y-35149500D01*
X89945042Y-35157208D01*
X89783760Y-35182753D01*
X89581585Y-35248444D01*
X89392179Y-35344951D01*
X89220213Y-35469890D01*
X89069890Y-35620213D01*
X88944949Y-35792182D01*
X88940484Y-35800946D01*
X88892509Y-35851742D01*
X88824688Y-35868536D01*
X88758553Y-35845998D01*
X88719516Y-35800946D01*
X88715050Y-35792182D01*
X88590109Y-35620213D01*
X88439786Y-35469890D01*
X88267820Y-35344951D01*
X88078414Y-35248444D01*
X88078413Y-35248443D01*
X88078412Y-35248443D01*
X87876243Y-35182754D01*
X87876241Y-35182753D01*
X87876240Y-35182753D01*
X87714957Y-35157208D01*
X87666287Y-35149500D01*
X87453713Y-35149500D01*
X87405042Y-35157208D01*
X87243760Y-35182753D01*
X87041585Y-35248444D01*
X86852179Y-35344951D01*
X86680213Y-35469890D01*
X86529890Y-35620213D01*
X86404949Y-35792182D01*
X86400484Y-35800946D01*
X86352509Y-35851742D01*
X86284688Y-35868536D01*
X86218553Y-35845998D01*
X86179516Y-35800946D01*
X86175050Y-35792182D01*
X86050109Y-35620213D01*
X85899786Y-35469890D01*
X85727820Y-35344951D01*
X85538414Y-35248444D01*
X85538413Y-35248443D01*
X85538412Y-35248443D01*
X85336243Y-35182754D01*
X85336241Y-35182753D01*
X85336240Y-35182753D01*
X85174957Y-35157208D01*
X85126287Y-35149500D01*
X84913713Y-35149500D01*
X84865042Y-35157208D01*
X84703760Y-35182753D01*
X84501585Y-35248444D01*
X84312179Y-35344951D01*
X84140213Y-35469890D01*
X83989890Y-35620213D01*
X83864951Y-35792179D01*
X83768444Y-35981585D01*
X83702753Y-36183760D01*
X83683233Y-36307007D01*
X83669500Y-36393713D01*
X83669500Y-36606287D01*
X83702754Y-36816243D01*
X83759211Y-36990000D01*
X83768444Y-37018414D01*
X83864951Y-37207820D01*
X83989890Y-37379786D01*
X84140213Y-37530109D01*
X84312182Y-37655050D01*
X84331739Y-37665015D01*
X84382536Y-37712989D01*
X84399331Y-37780810D01*
X84376794Y-37846945D01*
X84322079Y-37890397D01*
X84275445Y-37899500D01*
X79300097Y-37899500D01*
X79233058Y-37879815D01*
X79212416Y-37863181D01*
X76314138Y-34964903D01*
X76280653Y-34903580D01*
X76283887Y-34838906D01*
X76317246Y-34736243D01*
X76350500Y-34526287D01*
X76350500Y-34313713D01*
X76317246Y-34103757D01*
X76251557Y-33901588D01*
X76155051Y-33712184D01*
X76155049Y-33712181D01*
X76155048Y-33712179D01*
X76030109Y-33540213D01*
X75879786Y-33389890D01*
X75707820Y-33264951D01*
X75518414Y-33168444D01*
X75518413Y-33168443D01*
X75518412Y-33168443D01*
X75316243Y-33102754D01*
X75316241Y-33102753D01*
X75316240Y-33102753D01*
X75154957Y-33077208D01*
X75106287Y-33069500D01*
X74893713Y-33069500D01*
X74845042Y-33077208D01*
X74683760Y-33102753D01*
X74481585Y-33168444D01*
X74292179Y-33264951D01*
X74120213Y-33389890D01*
X73969890Y-33540213D01*
X73844951Y-33712179D01*
X73748444Y-33901585D01*
X73682753Y-34103760D01*
X73652213Y-34296583D01*
X73649500Y-34313713D01*
X40500500Y-34313713D01*
X40500500Y-20624500D01*
X40520185Y-20557461D01*
X40572989Y-20511706D01*
X40624500Y-20500500D01*
X179375500Y-20500500D01*
X179442539Y-20520185D01*
G37*
%TD.AperFunction*%
%TD*%
M02*
