%TF.GenerationSoftware,KiCad,Pcbnew,7.0.7*%
%TF.CreationDate,2024-02-01T19:36:20-05:00*%
%TF.ProjectId,500g Bot Design-2024-01-21,35303067-2042-46f7-9420-44657369676e,rev?*%
%TF.SameCoordinates,Original*%
%TF.FileFunction,Legend,Top*%
%TF.FilePolarity,Positive*%
%FSLAX46Y46*%
G04 Gerber Fmt 4.6, Leading zero omitted, Abs format (unit mm)*
G04 Created by KiCad (PCBNEW 7.0.7) date 2024-02-01 19:36:20*
%MOMM*%
%LPD*%
G01*
G04 APERTURE LIST*
%ADD10C,0.150000*%
%ADD11C,0.200000*%
%ADD12C,0.080000*%
%ADD13C,0.125000*%
%ADD14C,0.100000*%
%ADD15C,0.120000*%
%ADD16C,0.127000*%
%ADD17C,0.152400*%
G04 APERTURE END LIST*
D10*
X97503810Y-92824819D02*
X97503810Y-91824819D01*
X98551428Y-92729580D02*
X98503809Y-92777200D01*
X98503809Y-92777200D02*
X98360952Y-92824819D01*
X98360952Y-92824819D02*
X98265714Y-92824819D01*
X98265714Y-92824819D02*
X98122857Y-92777200D01*
X98122857Y-92777200D02*
X98027619Y-92681961D01*
X98027619Y-92681961D02*
X97980000Y-92586723D01*
X97980000Y-92586723D02*
X97932381Y-92396247D01*
X97932381Y-92396247D02*
X97932381Y-92253390D01*
X97932381Y-92253390D02*
X97980000Y-92062914D01*
X97980000Y-92062914D02*
X98027619Y-91967676D01*
X98027619Y-91967676D02*
X98122857Y-91872438D01*
X98122857Y-91872438D02*
X98265714Y-91824819D01*
X98265714Y-91824819D02*
X98360952Y-91824819D01*
X98360952Y-91824819D02*
X98503809Y-91872438D01*
X98503809Y-91872438D02*
X98551428Y-91920057D01*
X99503809Y-92824819D02*
X98932381Y-92824819D01*
X99218095Y-92824819D02*
X99218095Y-91824819D01*
X99218095Y-91824819D02*
X99122857Y-91967676D01*
X99122857Y-91967676D02*
X99027619Y-92062914D01*
X99027619Y-92062914D02*
X98932381Y-92110533D01*
X71264819Y-103791904D02*
X72074342Y-103791904D01*
X72074342Y-103791904D02*
X72169580Y-103744285D01*
X72169580Y-103744285D02*
X72217200Y-103696666D01*
X72217200Y-103696666D02*
X72264819Y-103601428D01*
X72264819Y-103601428D02*
X72264819Y-103410952D01*
X72264819Y-103410952D02*
X72217200Y-103315714D01*
X72217200Y-103315714D02*
X72169580Y-103268095D01*
X72169580Y-103268095D02*
X72074342Y-103220476D01*
X72074342Y-103220476D02*
X71264819Y-103220476D01*
X72217200Y-102791904D02*
X72264819Y-102649047D01*
X72264819Y-102649047D02*
X72264819Y-102410952D01*
X72264819Y-102410952D02*
X72217200Y-102315714D01*
X72217200Y-102315714D02*
X72169580Y-102268095D01*
X72169580Y-102268095D02*
X72074342Y-102220476D01*
X72074342Y-102220476D02*
X71979104Y-102220476D01*
X71979104Y-102220476D02*
X71883866Y-102268095D01*
X71883866Y-102268095D02*
X71836247Y-102315714D01*
X71836247Y-102315714D02*
X71788628Y-102410952D01*
X71788628Y-102410952D02*
X71741009Y-102601428D01*
X71741009Y-102601428D02*
X71693390Y-102696666D01*
X71693390Y-102696666D02*
X71645771Y-102744285D01*
X71645771Y-102744285D02*
X71550533Y-102791904D01*
X71550533Y-102791904D02*
X71455295Y-102791904D01*
X71455295Y-102791904D02*
X71360057Y-102744285D01*
X71360057Y-102744285D02*
X71312438Y-102696666D01*
X71312438Y-102696666D02*
X71264819Y-102601428D01*
X71264819Y-102601428D02*
X71264819Y-102363333D01*
X71264819Y-102363333D02*
X71312438Y-102220476D01*
X71741009Y-101458571D02*
X71788628Y-101315714D01*
X71788628Y-101315714D02*
X71836247Y-101268095D01*
X71836247Y-101268095D02*
X71931485Y-101220476D01*
X71931485Y-101220476D02*
X72074342Y-101220476D01*
X72074342Y-101220476D02*
X72169580Y-101268095D01*
X72169580Y-101268095D02*
X72217200Y-101315714D01*
X72217200Y-101315714D02*
X72264819Y-101410952D01*
X72264819Y-101410952D02*
X72264819Y-101791904D01*
X72264819Y-101791904D02*
X71264819Y-101791904D01*
X71264819Y-101791904D02*
X71264819Y-101458571D01*
X71264819Y-101458571D02*
X71312438Y-101363333D01*
X71312438Y-101363333D02*
X71360057Y-101315714D01*
X71360057Y-101315714D02*
X71455295Y-101268095D01*
X71455295Y-101268095D02*
X71550533Y-101268095D01*
X71550533Y-101268095D02*
X71645771Y-101315714D01*
X71645771Y-101315714D02*
X71693390Y-101363333D01*
X71693390Y-101363333D02*
X71741009Y-101458571D01*
X71741009Y-101458571D02*
X71741009Y-101791904D01*
X86346009Y-102110543D02*
X86346009Y-101777210D01*
X86869819Y-101634353D02*
X86869819Y-102110543D01*
X86869819Y-102110543D02*
X85869819Y-102110543D01*
X85869819Y-102110543D02*
X85869819Y-101634353D01*
X86203152Y-101348638D02*
X86203152Y-100967686D01*
X85869819Y-101205781D02*
X86726961Y-101205781D01*
X86726961Y-101205781D02*
X86822200Y-101158162D01*
X86822200Y-101158162D02*
X86869819Y-101062924D01*
X86869819Y-101062924D02*
X86869819Y-100967686D01*
X86869819Y-100634352D02*
X85869819Y-100634352D01*
X86869819Y-100205781D02*
X86346009Y-100205781D01*
X86346009Y-100205781D02*
X86250771Y-100253400D01*
X86250771Y-100253400D02*
X86203152Y-100348638D01*
X86203152Y-100348638D02*
X86203152Y-100491495D01*
X86203152Y-100491495D02*
X86250771Y-100586733D01*
X86250771Y-100586733D02*
X86298390Y-100634352D01*
X86822200Y-99348638D02*
X86869819Y-99443876D01*
X86869819Y-99443876D02*
X86869819Y-99634352D01*
X86869819Y-99634352D02*
X86822200Y-99729590D01*
X86822200Y-99729590D02*
X86726961Y-99777209D01*
X86726961Y-99777209D02*
X86346009Y-99777209D01*
X86346009Y-99777209D02*
X86250771Y-99729590D01*
X86250771Y-99729590D02*
X86203152Y-99634352D01*
X86203152Y-99634352D02*
X86203152Y-99443876D01*
X86203152Y-99443876D02*
X86250771Y-99348638D01*
X86250771Y-99348638D02*
X86346009Y-99301019D01*
X86346009Y-99301019D02*
X86441247Y-99301019D01*
X86441247Y-99301019D02*
X86536485Y-99777209D01*
X86869819Y-98872447D02*
X86203152Y-98872447D01*
X86393628Y-98872447D02*
X86298390Y-98824828D01*
X86298390Y-98824828D02*
X86250771Y-98777209D01*
X86250771Y-98777209D02*
X86203152Y-98681971D01*
X86203152Y-98681971D02*
X86203152Y-98586733D01*
X86203152Y-98253399D02*
X86869819Y-98253399D01*
X86298390Y-98253399D02*
X86250771Y-98205780D01*
X86250771Y-98205780D02*
X86203152Y-98110542D01*
X86203152Y-98110542D02*
X86203152Y-97967685D01*
X86203152Y-97967685D02*
X86250771Y-97872447D01*
X86250771Y-97872447D02*
X86346009Y-97824828D01*
X86346009Y-97824828D02*
X86869819Y-97824828D01*
X86822200Y-96967685D02*
X86869819Y-97062923D01*
X86869819Y-97062923D02*
X86869819Y-97253399D01*
X86869819Y-97253399D02*
X86822200Y-97348637D01*
X86822200Y-97348637D02*
X86726961Y-97396256D01*
X86726961Y-97396256D02*
X86346009Y-97396256D01*
X86346009Y-97396256D02*
X86250771Y-97348637D01*
X86250771Y-97348637D02*
X86203152Y-97253399D01*
X86203152Y-97253399D02*
X86203152Y-97062923D01*
X86203152Y-97062923D02*
X86250771Y-96967685D01*
X86250771Y-96967685D02*
X86346009Y-96920066D01*
X86346009Y-96920066D02*
X86441247Y-96920066D01*
X86441247Y-96920066D02*
X86536485Y-97396256D01*
X86203152Y-96634351D02*
X86203152Y-96253399D01*
X85869819Y-96491494D02*
X86726961Y-96491494D01*
X86726961Y-96491494D02*
X86822200Y-96443875D01*
X86822200Y-96443875D02*
X86869819Y-96348637D01*
X86869819Y-96348637D02*
X86869819Y-96253399D01*
X76704676Y-104474019D02*
X76704676Y-105283542D01*
X76704676Y-105283542D02*
X76752295Y-105378780D01*
X76752295Y-105378780D02*
X76799914Y-105426400D01*
X76799914Y-105426400D02*
X76895152Y-105474019D01*
X76895152Y-105474019D02*
X77085628Y-105474019D01*
X77085628Y-105474019D02*
X77180866Y-105426400D01*
X77180866Y-105426400D02*
X77228485Y-105378780D01*
X77228485Y-105378780D02*
X77276104Y-105283542D01*
X77276104Y-105283542D02*
X77276104Y-104474019D01*
X77704676Y-105426400D02*
X77847533Y-105474019D01*
X77847533Y-105474019D02*
X78085628Y-105474019D01*
X78085628Y-105474019D02*
X78180866Y-105426400D01*
X78180866Y-105426400D02*
X78228485Y-105378780D01*
X78228485Y-105378780D02*
X78276104Y-105283542D01*
X78276104Y-105283542D02*
X78276104Y-105188304D01*
X78276104Y-105188304D02*
X78228485Y-105093066D01*
X78228485Y-105093066D02*
X78180866Y-105045447D01*
X78180866Y-105045447D02*
X78085628Y-104997828D01*
X78085628Y-104997828D02*
X77895152Y-104950209D01*
X77895152Y-104950209D02*
X77799914Y-104902590D01*
X77799914Y-104902590D02*
X77752295Y-104854971D01*
X77752295Y-104854971D02*
X77704676Y-104759733D01*
X77704676Y-104759733D02*
X77704676Y-104664495D01*
X77704676Y-104664495D02*
X77752295Y-104569257D01*
X77752295Y-104569257D02*
X77799914Y-104521638D01*
X77799914Y-104521638D02*
X77895152Y-104474019D01*
X77895152Y-104474019D02*
X78133247Y-104474019D01*
X78133247Y-104474019D02*
X78276104Y-104521638D01*
X79038009Y-104950209D02*
X79180866Y-104997828D01*
X79180866Y-104997828D02*
X79228485Y-105045447D01*
X79228485Y-105045447D02*
X79276104Y-105140685D01*
X79276104Y-105140685D02*
X79276104Y-105283542D01*
X79276104Y-105283542D02*
X79228485Y-105378780D01*
X79228485Y-105378780D02*
X79180866Y-105426400D01*
X79180866Y-105426400D02*
X79085628Y-105474019D01*
X79085628Y-105474019D02*
X78704676Y-105474019D01*
X78704676Y-105474019D02*
X78704676Y-104474019D01*
X78704676Y-104474019D02*
X79038009Y-104474019D01*
X79038009Y-104474019D02*
X79133247Y-104521638D01*
X79133247Y-104521638D02*
X79180866Y-104569257D01*
X79180866Y-104569257D02*
X79228485Y-104664495D01*
X79228485Y-104664495D02*
X79228485Y-104759733D01*
X79228485Y-104759733D02*
X79180866Y-104854971D01*
X79180866Y-104854971D02*
X79133247Y-104902590D01*
X79133247Y-104902590D02*
X79038009Y-104950209D01*
X79038009Y-104950209D02*
X78704676Y-104950209D01*
X80466581Y-105474019D02*
X80466581Y-104474019D01*
X80466581Y-104950209D02*
X81038009Y-104950209D01*
X81038009Y-105474019D02*
X81038009Y-104474019D01*
X81657057Y-105474019D02*
X81561819Y-105426400D01*
X81561819Y-105426400D02*
X81514200Y-105378780D01*
X81514200Y-105378780D02*
X81466581Y-105283542D01*
X81466581Y-105283542D02*
X81466581Y-104997828D01*
X81466581Y-104997828D02*
X81514200Y-104902590D01*
X81514200Y-104902590D02*
X81561819Y-104854971D01*
X81561819Y-104854971D02*
X81657057Y-104807352D01*
X81657057Y-104807352D02*
X81799914Y-104807352D01*
X81799914Y-104807352D02*
X81895152Y-104854971D01*
X81895152Y-104854971D02*
X81942771Y-104902590D01*
X81942771Y-104902590D02*
X81990390Y-104997828D01*
X81990390Y-104997828D02*
X81990390Y-105283542D01*
X81990390Y-105283542D02*
X81942771Y-105378780D01*
X81942771Y-105378780D02*
X81895152Y-105426400D01*
X81895152Y-105426400D02*
X81799914Y-105474019D01*
X81799914Y-105474019D02*
X81657057Y-105474019D01*
X82371343Y-105426400D02*
X82466581Y-105474019D01*
X82466581Y-105474019D02*
X82657057Y-105474019D01*
X82657057Y-105474019D02*
X82752295Y-105426400D01*
X82752295Y-105426400D02*
X82799914Y-105331161D01*
X82799914Y-105331161D02*
X82799914Y-105283542D01*
X82799914Y-105283542D02*
X82752295Y-105188304D01*
X82752295Y-105188304D02*
X82657057Y-105140685D01*
X82657057Y-105140685D02*
X82514200Y-105140685D01*
X82514200Y-105140685D02*
X82418962Y-105093066D01*
X82418962Y-105093066D02*
X82371343Y-104997828D01*
X82371343Y-104997828D02*
X82371343Y-104950209D01*
X82371343Y-104950209D02*
X82418962Y-104854971D01*
X82418962Y-104854971D02*
X82514200Y-104807352D01*
X82514200Y-104807352D02*
X82657057Y-104807352D01*
X82657057Y-104807352D02*
X82752295Y-104854971D01*
X83085629Y-104807352D02*
X83466581Y-104807352D01*
X83228486Y-104474019D02*
X83228486Y-105331161D01*
X83228486Y-105331161D02*
X83276105Y-105426400D01*
X83276105Y-105426400D02*
X83371343Y-105474019D01*
X83371343Y-105474019D02*
X83466581Y-105474019D01*
X96302295Y-103930951D02*
X95502295Y-103930951D01*
X95502295Y-103930951D02*
X95502295Y-103740475D01*
X95502295Y-103740475D02*
X95540390Y-103626189D01*
X95540390Y-103626189D02*
X95616580Y-103549999D01*
X95616580Y-103549999D02*
X95692771Y-103511904D01*
X95692771Y-103511904D02*
X95845152Y-103473808D01*
X95845152Y-103473808D02*
X95959438Y-103473808D01*
X95959438Y-103473808D02*
X96111819Y-103511904D01*
X96111819Y-103511904D02*
X96188009Y-103549999D01*
X96188009Y-103549999D02*
X96264200Y-103626189D01*
X96264200Y-103626189D02*
X96302295Y-103740475D01*
X96302295Y-103740475D02*
X96302295Y-103930951D01*
X95502295Y-103245237D02*
X96302295Y-102978570D01*
X96302295Y-102978570D02*
X95502295Y-102711904D01*
X95502295Y-102216666D02*
X96073723Y-102216666D01*
X96073723Y-102216666D02*
X96188009Y-102254761D01*
X96188009Y-102254761D02*
X96264200Y-102330952D01*
X96264200Y-102330952D02*
X96302295Y-102445237D01*
X96302295Y-102445237D02*
X96302295Y-102521428D01*
X95502295Y-101492856D02*
X95502295Y-101645237D01*
X95502295Y-101645237D02*
X95540390Y-101721428D01*
X95540390Y-101721428D02*
X95578485Y-101759523D01*
X95578485Y-101759523D02*
X95692771Y-101835713D01*
X95692771Y-101835713D02*
X95845152Y-101873809D01*
X95845152Y-101873809D02*
X96149914Y-101873809D01*
X96149914Y-101873809D02*
X96226104Y-101835713D01*
X96226104Y-101835713D02*
X96264200Y-101797618D01*
X96264200Y-101797618D02*
X96302295Y-101721428D01*
X96302295Y-101721428D02*
X96302295Y-101569047D01*
X96302295Y-101569047D02*
X96264200Y-101492856D01*
X96264200Y-101492856D02*
X96226104Y-101454761D01*
X96226104Y-101454761D02*
X96149914Y-101416666D01*
X96149914Y-101416666D02*
X95959438Y-101416666D01*
X95959438Y-101416666D02*
X95883247Y-101454761D01*
X95883247Y-101454761D02*
X95845152Y-101492856D01*
X95845152Y-101492856D02*
X95807057Y-101569047D01*
X95807057Y-101569047D02*
X95807057Y-101721428D01*
X95807057Y-101721428D02*
X95845152Y-101797618D01*
X95845152Y-101797618D02*
X95883247Y-101835713D01*
X95883247Y-101835713D02*
X95959438Y-101873809D01*
X96073723Y-101111904D02*
X96073723Y-100730951D01*
X96302295Y-101188094D02*
X95502295Y-100921427D01*
X95502295Y-100921427D02*
X96302295Y-100654761D01*
X119490952Y-102984819D02*
X119490952Y-101984819D01*
X119490952Y-101984819D02*
X119824285Y-102699104D01*
X119824285Y-102699104D02*
X120157618Y-101984819D01*
X120157618Y-101984819D02*
X120157618Y-102984819D01*
X120633809Y-102984819D02*
X120633809Y-102318152D01*
X120633809Y-101984819D02*
X120586190Y-102032438D01*
X120586190Y-102032438D02*
X120633809Y-102080057D01*
X120633809Y-102080057D02*
X120681428Y-102032438D01*
X120681428Y-102032438D02*
X120633809Y-101984819D01*
X120633809Y-101984819D02*
X120633809Y-102080057D01*
X121538570Y-102937200D02*
X121443332Y-102984819D01*
X121443332Y-102984819D02*
X121252856Y-102984819D01*
X121252856Y-102984819D02*
X121157618Y-102937200D01*
X121157618Y-102937200D02*
X121109999Y-102889580D01*
X121109999Y-102889580D02*
X121062380Y-102794342D01*
X121062380Y-102794342D02*
X121062380Y-102508628D01*
X121062380Y-102508628D02*
X121109999Y-102413390D01*
X121109999Y-102413390D02*
X121157618Y-102365771D01*
X121157618Y-102365771D02*
X121252856Y-102318152D01*
X121252856Y-102318152D02*
X121443332Y-102318152D01*
X121443332Y-102318152D02*
X121538570Y-102365771D01*
X121967142Y-102984819D02*
X121967142Y-102318152D01*
X121967142Y-102508628D02*
X122014761Y-102413390D01*
X122014761Y-102413390D02*
X122062380Y-102365771D01*
X122062380Y-102365771D02*
X122157618Y-102318152D01*
X122157618Y-102318152D02*
X122252856Y-102318152D01*
X122729047Y-102984819D02*
X122633809Y-102937200D01*
X122633809Y-102937200D02*
X122586190Y-102889580D01*
X122586190Y-102889580D02*
X122538571Y-102794342D01*
X122538571Y-102794342D02*
X122538571Y-102508628D01*
X122538571Y-102508628D02*
X122586190Y-102413390D01*
X122586190Y-102413390D02*
X122633809Y-102365771D01*
X122633809Y-102365771D02*
X122729047Y-102318152D01*
X122729047Y-102318152D02*
X122871904Y-102318152D01*
X122871904Y-102318152D02*
X122967142Y-102365771D01*
X122967142Y-102365771D02*
X123014761Y-102413390D01*
X123014761Y-102413390D02*
X123062380Y-102508628D01*
X123062380Y-102508628D02*
X123062380Y-102794342D01*
X123062380Y-102794342D02*
X123014761Y-102889580D01*
X123014761Y-102889580D02*
X122967142Y-102937200D01*
X122967142Y-102937200D02*
X122871904Y-102984819D01*
X122871904Y-102984819D02*
X122729047Y-102984819D01*
X124205238Y-102937200D02*
X124348095Y-102984819D01*
X124348095Y-102984819D02*
X124586190Y-102984819D01*
X124586190Y-102984819D02*
X124681428Y-102937200D01*
X124681428Y-102937200D02*
X124729047Y-102889580D01*
X124729047Y-102889580D02*
X124776666Y-102794342D01*
X124776666Y-102794342D02*
X124776666Y-102699104D01*
X124776666Y-102699104D02*
X124729047Y-102603866D01*
X124729047Y-102603866D02*
X124681428Y-102556247D01*
X124681428Y-102556247D02*
X124586190Y-102508628D01*
X124586190Y-102508628D02*
X124395714Y-102461009D01*
X124395714Y-102461009D02*
X124300476Y-102413390D01*
X124300476Y-102413390D02*
X124252857Y-102365771D01*
X124252857Y-102365771D02*
X124205238Y-102270533D01*
X124205238Y-102270533D02*
X124205238Y-102175295D01*
X124205238Y-102175295D02*
X124252857Y-102080057D01*
X124252857Y-102080057D02*
X124300476Y-102032438D01*
X124300476Y-102032438D02*
X124395714Y-101984819D01*
X124395714Y-101984819D02*
X124633809Y-101984819D01*
X124633809Y-101984819D02*
X124776666Y-102032438D01*
X125205238Y-102984819D02*
X125205238Y-101984819D01*
X125205238Y-101984819D02*
X125443333Y-101984819D01*
X125443333Y-101984819D02*
X125586190Y-102032438D01*
X125586190Y-102032438D02*
X125681428Y-102127676D01*
X125681428Y-102127676D02*
X125729047Y-102222914D01*
X125729047Y-102222914D02*
X125776666Y-102413390D01*
X125776666Y-102413390D02*
X125776666Y-102556247D01*
X125776666Y-102556247D02*
X125729047Y-102746723D01*
X125729047Y-102746723D02*
X125681428Y-102841961D01*
X125681428Y-102841961D02*
X125586190Y-102937200D01*
X125586190Y-102937200D02*
X125443333Y-102984819D01*
X125443333Y-102984819D02*
X125205238Y-102984819D01*
D11*
G36*
X97579515Y-105686203D02*
G01*
X97011113Y-105686203D01*
X97554505Y-105882965D01*
X97554505Y-105952330D01*
X97011113Y-106149483D01*
X97554505Y-106149483D01*
X97554505Y-106241904D01*
X96704149Y-106241904D01*
X96704149Y-106161011D01*
X97378454Y-105917550D01*
X96704149Y-105674675D01*
X96704149Y-105593977D01*
X97519138Y-105593977D01*
X97579515Y-105686203D01*
G37*
G36*
X97554505Y-105319448D02*
G01*
X96704149Y-105319448D01*
X96704149Y-105224877D01*
X97554505Y-105224877D01*
X97554505Y-105319448D01*
G37*
G36*
X97579515Y-104396601D02*
G01*
X97011113Y-104396601D01*
X97554505Y-104593363D01*
X97554505Y-104662728D01*
X97011113Y-104859881D01*
X97554505Y-104859881D01*
X97554505Y-104952302D01*
X96704149Y-104952302D01*
X96704149Y-104871409D01*
X97378454Y-104627948D01*
X96704149Y-104385072D01*
X96704149Y-104304375D01*
X97519138Y-104304375D01*
X97579515Y-104396601D01*
G37*
G36*
X97554114Y-103527487D02*
G01*
X97211588Y-103748869D01*
X97554505Y-103969273D01*
X97512886Y-104048408D01*
X97130304Y-103803970D01*
X96744205Y-104048408D01*
X96704149Y-103969273D01*
X97046675Y-103748869D01*
X96704149Y-103527487D01*
X96745182Y-103449915D01*
X97127568Y-103693377D01*
X97511127Y-103449525D01*
X97554114Y-103527487D01*
G37*
G36*
X97557826Y-102688464D02*
G01*
X97166842Y-102932902D01*
X97166842Y-103102309D01*
X97554505Y-103102309D01*
X97554505Y-103192972D01*
X96704149Y-103192972D01*
X96704149Y-103102309D01*
X96804191Y-103102309D01*
X97066801Y-103102309D01*
X97066801Y-102847320D01*
X97023032Y-102762128D01*
X97027917Y-102741220D01*
X96958357Y-102714842D01*
X96906968Y-102714842D01*
X96849913Y-102741220D01*
X96834281Y-102762128D01*
X96804191Y-102847320D01*
X96804191Y-103102309D01*
X96704149Y-103102309D01*
X96704149Y-102833056D01*
X96747331Y-102713084D01*
X96795593Y-102665407D01*
X96884693Y-102623007D01*
X96978678Y-102623007D01*
X97067191Y-102665407D01*
X97076766Y-102713084D01*
X97154728Y-102826412D01*
X97512300Y-102609329D01*
X97557826Y-102688464D01*
G37*
G36*
X96804191Y-102140383D02*
G01*
X97554505Y-102140383D01*
X97554505Y-102231046D01*
X96804191Y-102231046D01*
X96804191Y-102461220D01*
X96704149Y-102461220D01*
X96704149Y-101909622D01*
X96804191Y-101909622D01*
X96804191Y-102140383D01*
G37*
G36*
X97554505Y-101490111D02*
G01*
X96865545Y-101490111D01*
X96895049Y-101511604D01*
X96953081Y-101598945D01*
X96873165Y-101637438D01*
X96820995Y-101557717D01*
X96704149Y-101468031D01*
X96704149Y-101413712D01*
X97554505Y-101413712D01*
X97554505Y-101490111D01*
G37*
G36*
X97378845Y-100411925D02*
G01*
X97507415Y-100494968D01*
X97554505Y-100619825D01*
X97554505Y-100702086D01*
X97510736Y-100826943D01*
X97380799Y-100909399D01*
X97186968Y-100945547D01*
X97068950Y-100945547D01*
X96876682Y-100909204D01*
X96747722Y-100826747D01*
X96704149Y-100702086D01*
X96704149Y-100634089D01*
X96793249Y-100634089D01*
X96804191Y-100687822D01*
X96830960Y-100768129D01*
X96912244Y-100822449D01*
X97070709Y-100854298D01*
X97162935Y-100854298D01*
X97331951Y-100822449D01*
X97424177Y-100768129D01*
X97454463Y-100687822D01*
X97454463Y-100633893D01*
X97421637Y-100553195D01*
X97366535Y-100499462D01*
X97195956Y-100467026D01*
X97100213Y-100467026D01*
X96909117Y-100499462D01*
X96819822Y-100553195D01*
X96793249Y-100634089D01*
X96704149Y-100634089D01*
X96704149Y-100619629D01*
X96749090Y-100494968D01*
X96877659Y-100411925D01*
X97069341Y-100376363D01*
X97186968Y-100376363D01*
X97378845Y-100411925D01*
G37*
G36*
X97421637Y-99614130D02*
G01*
X97508978Y-99697759D01*
X97554505Y-99815777D01*
X97554505Y-99864235D01*
X97512495Y-99982449D01*
X97423591Y-100067054D01*
X97261413Y-100104961D01*
X97070904Y-100104961D01*
X96880981Y-100069790D01*
X96795984Y-100029734D01*
X96747331Y-99982449D01*
X96704149Y-99864235D01*
X96704149Y-99782365D01*
X96748308Y-99655359D01*
X96871211Y-99598303D01*
X96919864Y-99676266D01*
X96830374Y-99720230D01*
X96804191Y-99796629D01*
X96794226Y-99849971D01*
X96823730Y-99933991D01*
X96846787Y-99954312D01*
X96907750Y-99982253D01*
X97063870Y-100011953D01*
X97033193Y-99982253D01*
X96991769Y-99864040D01*
X96991769Y-99830236D01*
X97080674Y-99830236D01*
X97091811Y-99849971D01*
X97120925Y-99934577D01*
X97174854Y-99986747D01*
X97257505Y-100013126D01*
X97372397Y-99985575D01*
X97425935Y-99933991D01*
X97454463Y-99849971D01*
X97476542Y-99830236D01*
X97447233Y-99746022D01*
X97382753Y-99693851D01*
X97282321Y-99665324D01*
X97262195Y-99665324D01*
X97175440Y-99693265D01*
X97106270Y-99746022D01*
X97080674Y-99830236D01*
X96991769Y-99830236D01*
X96991769Y-99815777D01*
X97033193Y-99697759D01*
X97121120Y-99614130D01*
X97245782Y-99575247D01*
X97296389Y-99575247D01*
X97421637Y-99614130D01*
G37*
G36*
X97554505Y-99409943D02*
G01*
X97117408Y-98993167D01*
X97016193Y-98928883D01*
X96956598Y-98900355D01*
X96907359Y-98900355D01*
X96867108Y-98927320D01*
X96832523Y-98950962D01*
X96804191Y-99003133D01*
X96804191Y-99118024D01*
X96827052Y-99169804D01*
X96834477Y-99193837D01*
X96897198Y-99220802D01*
X96971057Y-99220802D01*
X96971057Y-99311465D01*
X96884693Y-99311465D01*
X96796180Y-99270236D01*
X96749480Y-99224710D01*
X96704149Y-99140104D01*
X96704149Y-98981248D01*
X96749480Y-98896056D01*
X96795789Y-98850920D01*
X96884693Y-98809301D01*
X96978482Y-98809301D01*
X97062307Y-98849357D01*
X97175244Y-98922435D01*
X97454463Y-99190516D01*
X97454463Y-98782923D01*
X97554505Y-98782923D01*
X97554505Y-99409943D01*
G37*
D10*
X67865666Y-83455009D02*
X67532333Y-83455009D01*
X67532333Y-83978819D02*
X67532333Y-82978819D01*
X67532333Y-82978819D02*
X68008523Y-82978819D01*
X68913285Y-83978819D02*
X68341857Y-83978819D01*
X68627571Y-83978819D02*
X68627571Y-82978819D01*
X68627571Y-82978819D02*
X68532333Y-83121676D01*
X68532333Y-83121676D02*
X68437095Y-83216914D01*
X68437095Y-83216914D02*
X68341857Y-83264533D01*
X54334580Y-117990857D02*
X54382200Y-118038476D01*
X54382200Y-118038476D02*
X54429819Y-118181333D01*
X54429819Y-118181333D02*
X54429819Y-118276571D01*
X54429819Y-118276571D02*
X54382200Y-118419428D01*
X54382200Y-118419428D02*
X54286961Y-118514666D01*
X54286961Y-118514666D02*
X54191723Y-118562285D01*
X54191723Y-118562285D02*
X54001247Y-118609904D01*
X54001247Y-118609904D02*
X53858390Y-118609904D01*
X53858390Y-118609904D02*
X53667914Y-118562285D01*
X53667914Y-118562285D02*
X53572676Y-118514666D01*
X53572676Y-118514666D02*
X53477438Y-118419428D01*
X53477438Y-118419428D02*
X53429819Y-118276571D01*
X53429819Y-118276571D02*
X53429819Y-118181333D01*
X53429819Y-118181333D02*
X53477438Y-118038476D01*
X53477438Y-118038476D02*
X53525057Y-117990857D01*
X54429819Y-117038476D02*
X54429819Y-117609904D01*
X54429819Y-117324190D02*
X53429819Y-117324190D01*
X53429819Y-117324190D02*
X53572676Y-117419428D01*
X53572676Y-117419428D02*
X53667914Y-117514666D01*
X53667914Y-117514666D02*
X53715533Y-117609904D01*
X54429819Y-116086095D02*
X54429819Y-116657523D01*
X54429819Y-116371809D02*
X53429819Y-116371809D01*
X53429819Y-116371809D02*
X53572676Y-116467047D01*
X53572676Y-116467047D02*
X53667914Y-116562285D01*
X53667914Y-116562285D02*
X53715533Y-116657523D01*
D12*
X96005666Y-89265935D02*
X95624714Y-89265935D01*
X95624714Y-89265935D02*
X95624714Y-88465935D01*
X96234237Y-88542125D02*
X96272333Y-88504030D01*
X96272333Y-88504030D02*
X96348523Y-88465935D01*
X96348523Y-88465935D02*
X96538999Y-88465935D01*
X96538999Y-88465935D02*
X96615190Y-88504030D01*
X96615190Y-88504030D02*
X96653285Y-88542125D01*
X96653285Y-88542125D02*
X96691380Y-88618316D01*
X96691380Y-88618316D02*
X96691380Y-88694506D01*
X96691380Y-88694506D02*
X96653285Y-88808792D01*
X96653285Y-88808792D02*
X96196142Y-89265935D01*
X96196142Y-89265935D02*
X96691380Y-89265935D01*
D10*
X55350580Y-82557857D02*
X55398200Y-82605476D01*
X55398200Y-82605476D02*
X55445819Y-82748333D01*
X55445819Y-82748333D02*
X55445819Y-82843571D01*
X55445819Y-82843571D02*
X55398200Y-82986428D01*
X55398200Y-82986428D02*
X55302961Y-83081666D01*
X55302961Y-83081666D02*
X55207723Y-83129285D01*
X55207723Y-83129285D02*
X55017247Y-83176904D01*
X55017247Y-83176904D02*
X54874390Y-83176904D01*
X54874390Y-83176904D02*
X54683914Y-83129285D01*
X54683914Y-83129285D02*
X54588676Y-83081666D01*
X54588676Y-83081666D02*
X54493438Y-82986428D01*
X54493438Y-82986428D02*
X54445819Y-82843571D01*
X54445819Y-82843571D02*
X54445819Y-82748333D01*
X54445819Y-82748333D02*
X54493438Y-82605476D01*
X54493438Y-82605476D02*
X54541057Y-82557857D01*
X55445819Y-81605476D02*
X55445819Y-82176904D01*
X55445819Y-81891190D02*
X54445819Y-81891190D01*
X54445819Y-81891190D02*
X54588676Y-81986428D01*
X54588676Y-81986428D02*
X54683914Y-82081666D01*
X54683914Y-82081666D02*
X54731533Y-82176904D01*
X54541057Y-81224523D02*
X54493438Y-81176904D01*
X54493438Y-81176904D02*
X54445819Y-81081666D01*
X54445819Y-81081666D02*
X54445819Y-80843571D01*
X54445819Y-80843571D02*
X54493438Y-80748333D01*
X54493438Y-80748333D02*
X54541057Y-80700714D01*
X54541057Y-80700714D02*
X54636295Y-80653095D01*
X54636295Y-80653095D02*
X54731533Y-80653095D01*
X54731533Y-80653095D02*
X54874390Y-80700714D01*
X54874390Y-80700714D02*
X55445819Y-81272142D01*
X55445819Y-81272142D02*
X55445819Y-80653095D01*
X73239333Y-128214580D02*
X73191714Y-128262200D01*
X73191714Y-128262200D02*
X73048857Y-128309819D01*
X73048857Y-128309819D02*
X72953619Y-128309819D01*
X72953619Y-128309819D02*
X72810762Y-128262200D01*
X72810762Y-128262200D02*
X72715524Y-128166961D01*
X72715524Y-128166961D02*
X72667905Y-128071723D01*
X72667905Y-128071723D02*
X72620286Y-127881247D01*
X72620286Y-127881247D02*
X72620286Y-127738390D01*
X72620286Y-127738390D02*
X72667905Y-127547914D01*
X72667905Y-127547914D02*
X72715524Y-127452676D01*
X72715524Y-127452676D02*
X72810762Y-127357438D01*
X72810762Y-127357438D02*
X72953619Y-127309819D01*
X72953619Y-127309819D02*
X73048857Y-127309819D01*
X73048857Y-127309819D02*
X73191714Y-127357438D01*
X73191714Y-127357438D02*
X73239333Y-127405057D01*
X74096476Y-127643152D02*
X74096476Y-128309819D01*
X73858381Y-127262200D02*
X73620286Y-127976485D01*
X73620286Y-127976485D02*
X74239333Y-127976485D01*
X104087666Y-118011819D02*
X104087666Y-118726104D01*
X104087666Y-118726104D02*
X104040047Y-118868961D01*
X104040047Y-118868961D02*
X103944809Y-118964200D01*
X103944809Y-118964200D02*
X103801952Y-119011819D01*
X103801952Y-119011819D02*
X103706714Y-119011819D01*
X104992428Y-118345152D02*
X104992428Y-119011819D01*
X104754333Y-117964200D02*
X104516238Y-118678485D01*
X104516238Y-118678485D02*
X105135285Y-118678485D01*
X78319333Y-88359580D02*
X78271714Y-88407200D01*
X78271714Y-88407200D02*
X78128857Y-88454819D01*
X78128857Y-88454819D02*
X78033619Y-88454819D01*
X78033619Y-88454819D02*
X77890762Y-88407200D01*
X77890762Y-88407200D02*
X77795524Y-88311961D01*
X77795524Y-88311961D02*
X77747905Y-88216723D01*
X77747905Y-88216723D02*
X77700286Y-88026247D01*
X77700286Y-88026247D02*
X77700286Y-87883390D01*
X77700286Y-87883390D02*
X77747905Y-87692914D01*
X77747905Y-87692914D02*
X77795524Y-87597676D01*
X77795524Y-87597676D02*
X77890762Y-87502438D01*
X77890762Y-87502438D02*
X78033619Y-87454819D01*
X78033619Y-87454819D02*
X78128857Y-87454819D01*
X78128857Y-87454819D02*
X78271714Y-87502438D01*
X78271714Y-87502438D02*
X78319333Y-87550057D01*
X78890762Y-87883390D02*
X78795524Y-87835771D01*
X78795524Y-87835771D02*
X78747905Y-87788152D01*
X78747905Y-87788152D02*
X78700286Y-87692914D01*
X78700286Y-87692914D02*
X78700286Y-87645295D01*
X78700286Y-87645295D02*
X78747905Y-87550057D01*
X78747905Y-87550057D02*
X78795524Y-87502438D01*
X78795524Y-87502438D02*
X78890762Y-87454819D01*
X78890762Y-87454819D02*
X79081238Y-87454819D01*
X79081238Y-87454819D02*
X79176476Y-87502438D01*
X79176476Y-87502438D02*
X79224095Y-87550057D01*
X79224095Y-87550057D02*
X79271714Y-87645295D01*
X79271714Y-87645295D02*
X79271714Y-87692914D01*
X79271714Y-87692914D02*
X79224095Y-87788152D01*
X79224095Y-87788152D02*
X79176476Y-87835771D01*
X79176476Y-87835771D02*
X79081238Y-87883390D01*
X79081238Y-87883390D02*
X78890762Y-87883390D01*
X78890762Y-87883390D02*
X78795524Y-87931009D01*
X78795524Y-87931009D02*
X78747905Y-87978628D01*
X78747905Y-87978628D02*
X78700286Y-88073866D01*
X78700286Y-88073866D02*
X78700286Y-88264342D01*
X78700286Y-88264342D02*
X78747905Y-88359580D01*
X78747905Y-88359580D02*
X78795524Y-88407200D01*
X78795524Y-88407200D02*
X78890762Y-88454819D01*
X78890762Y-88454819D02*
X79081238Y-88454819D01*
X79081238Y-88454819D02*
X79176476Y-88407200D01*
X79176476Y-88407200D02*
X79224095Y-88359580D01*
X79224095Y-88359580D02*
X79271714Y-88264342D01*
X79271714Y-88264342D02*
X79271714Y-88073866D01*
X79271714Y-88073866D02*
X79224095Y-87978628D01*
X79224095Y-87978628D02*
X79176476Y-87931009D01*
X79176476Y-87931009D02*
X79081238Y-87883390D01*
X69543666Y-118138819D02*
X69543666Y-118853104D01*
X69543666Y-118853104D02*
X69496047Y-118995961D01*
X69496047Y-118995961D02*
X69400809Y-119091200D01*
X69400809Y-119091200D02*
X69257952Y-119138819D01*
X69257952Y-119138819D02*
X69162714Y-119138819D01*
X70543666Y-119138819D02*
X69972238Y-119138819D01*
X70257952Y-119138819D02*
X70257952Y-118138819D01*
X70257952Y-118138819D02*
X70162714Y-118281676D01*
X70162714Y-118281676D02*
X70067476Y-118376914D01*
X70067476Y-118376914D02*
X69972238Y-118424533D01*
X107529333Y-128214580D02*
X107481714Y-128262200D01*
X107481714Y-128262200D02*
X107338857Y-128309819D01*
X107338857Y-128309819D02*
X107243619Y-128309819D01*
X107243619Y-128309819D02*
X107100762Y-128262200D01*
X107100762Y-128262200D02*
X107005524Y-128166961D01*
X107005524Y-128166961D02*
X106957905Y-128071723D01*
X106957905Y-128071723D02*
X106910286Y-127881247D01*
X106910286Y-127881247D02*
X106910286Y-127738390D01*
X106910286Y-127738390D02*
X106957905Y-127547914D01*
X106957905Y-127547914D02*
X107005524Y-127452676D01*
X107005524Y-127452676D02*
X107100762Y-127357438D01*
X107100762Y-127357438D02*
X107243619Y-127309819D01*
X107243619Y-127309819D02*
X107338857Y-127309819D01*
X107338857Y-127309819D02*
X107481714Y-127357438D01*
X107481714Y-127357438D02*
X107529333Y-127405057D01*
X108386476Y-127309819D02*
X108196000Y-127309819D01*
X108196000Y-127309819D02*
X108100762Y-127357438D01*
X108100762Y-127357438D02*
X108053143Y-127405057D01*
X108053143Y-127405057D02*
X107957905Y-127547914D01*
X107957905Y-127547914D02*
X107910286Y-127738390D01*
X107910286Y-127738390D02*
X107910286Y-128119342D01*
X107910286Y-128119342D02*
X107957905Y-128214580D01*
X107957905Y-128214580D02*
X108005524Y-128262200D01*
X108005524Y-128262200D02*
X108100762Y-128309819D01*
X108100762Y-128309819D02*
X108291238Y-128309819D01*
X108291238Y-128309819D02*
X108386476Y-128262200D01*
X108386476Y-128262200D02*
X108434095Y-128214580D01*
X108434095Y-128214580D02*
X108481714Y-128119342D01*
X108481714Y-128119342D02*
X108481714Y-127881247D01*
X108481714Y-127881247D02*
X108434095Y-127786009D01*
X108434095Y-127786009D02*
X108386476Y-127738390D01*
X108386476Y-127738390D02*
X108291238Y-127690771D01*
X108291238Y-127690771D02*
X108100762Y-127690771D01*
X108100762Y-127690771D02*
X108005524Y-127738390D01*
X108005524Y-127738390D02*
X107957905Y-127786009D01*
X107957905Y-127786009D02*
X107910286Y-127881247D01*
X90925667Y-85198295D02*
X90659000Y-84817342D01*
X90468524Y-85198295D02*
X90468524Y-84398295D01*
X90468524Y-84398295D02*
X90773286Y-84398295D01*
X90773286Y-84398295D02*
X90849476Y-84436390D01*
X90849476Y-84436390D02*
X90887571Y-84474485D01*
X90887571Y-84474485D02*
X90925667Y-84550676D01*
X90925667Y-84550676D02*
X90925667Y-84664961D01*
X90925667Y-84664961D02*
X90887571Y-84741152D01*
X90887571Y-84741152D02*
X90849476Y-84779247D01*
X90849476Y-84779247D02*
X90773286Y-84817342D01*
X90773286Y-84817342D02*
X90468524Y-84817342D01*
X91230428Y-84474485D02*
X91268524Y-84436390D01*
X91268524Y-84436390D02*
X91344714Y-84398295D01*
X91344714Y-84398295D02*
X91535190Y-84398295D01*
X91535190Y-84398295D02*
X91611381Y-84436390D01*
X91611381Y-84436390D02*
X91649476Y-84474485D01*
X91649476Y-84474485D02*
X91687571Y-84550676D01*
X91687571Y-84550676D02*
X91687571Y-84626866D01*
X91687571Y-84626866D02*
X91649476Y-84741152D01*
X91649476Y-84741152D02*
X91192333Y-85198295D01*
X91192333Y-85198295D02*
X91687571Y-85198295D01*
X87717333Y-91291580D02*
X87669714Y-91339200D01*
X87669714Y-91339200D02*
X87526857Y-91386819D01*
X87526857Y-91386819D02*
X87431619Y-91386819D01*
X87431619Y-91386819D02*
X87288762Y-91339200D01*
X87288762Y-91339200D02*
X87193524Y-91243961D01*
X87193524Y-91243961D02*
X87145905Y-91148723D01*
X87145905Y-91148723D02*
X87098286Y-90958247D01*
X87098286Y-90958247D02*
X87098286Y-90815390D01*
X87098286Y-90815390D02*
X87145905Y-90624914D01*
X87145905Y-90624914D02*
X87193524Y-90529676D01*
X87193524Y-90529676D02*
X87288762Y-90434438D01*
X87288762Y-90434438D02*
X87431619Y-90386819D01*
X87431619Y-90386819D02*
X87526857Y-90386819D01*
X87526857Y-90386819D02*
X87669714Y-90434438D01*
X87669714Y-90434438D02*
X87717333Y-90482057D01*
X88098286Y-90482057D02*
X88145905Y-90434438D01*
X88145905Y-90434438D02*
X88241143Y-90386819D01*
X88241143Y-90386819D02*
X88479238Y-90386819D01*
X88479238Y-90386819D02*
X88574476Y-90434438D01*
X88574476Y-90434438D02*
X88622095Y-90482057D01*
X88622095Y-90482057D02*
X88669714Y-90577295D01*
X88669714Y-90577295D02*
X88669714Y-90672533D01*
X88669714Y-90672533D02*
X88622095Y-90815390D01*
X88622095Y-90815390D02*
X88050667Y-91386819D01*
X88050667Y-91386819D02*
X88669714Y-91386819D01*
X77843142Y-90749580D02*
X77795523Y-90797200D01*
X77795523Y-90797200D02*
X77652666Y-90844819D01*
X77652666Y-90844819D02*
X77557428Y-90844819D01*
X77557428Y-90844819D02*
X77414571Y-90797200D01*
X77414571Y-90797200D02*
X77319333Y-90701961D01*
X77319333Y-90701961D02*
X77271714Y-90606723D01*
X77271714Y-90606723D02*
X77224095Y-90416247D01*
X77224095Y-90416247D02*
X77224095Y-90273390D01*
X77224095Y-90273390D02*
X77271714Y-90082914D01*
X77271714Y-90082914D02*
X77319333Y-89987676D01*
X77319333Y-89987676D02*
X77414571Y-89892438D01*
X77414571Y-89892438D02*
X77557428Y-89844819D01*
X77557428Y-89844819D02*
X77652666Y-89844819D01*
X77652666Y-89844819D02*
X77795523Y-89892438D01*
X77795523Y-89892438D02*
X77843142Y-89940057D01*
X78795523Y-90844819D02*
X78224095Y-90844819D01*
X78509809Y-90844819D02*
X78509809Y-89844819D01*
X78509809Y-89844819D02*
X78414571Y-89987676D01*
X78414571Y-89987676D02*
X78319333Y-90082914D01*
X78319333Y-90082914D02*
X78224095Y-90130533D01*
X79128857Y-89844819D02*
X79747904Y-89844819D01*
X79747904Y-89844819D02*
X79414571Y-90225771D01*
X79414571Y-90225771D02*
X79557428Y-90225771D01*
X79557428Y-90225771D02*
X79652666Y-90273390D01*
X79652666Y-90273390D02*
X79700285Y-90321009D01*
X79700285Y-90321009D02*
X79747904Y-90416247D01*
X79747904Y-90416247D02*
X79747904Y-90654342D01*
X79747904Y-90654342D02*
X79700285Y-90749580D01*
X79700285Y-90749580D02*
X79652666Y-90797200D01*
X79652666Y-90797200D02*
X79557428Y-90844819D01*
X79557428Y-90844819D02*
X79271714Y-90844819D01*
X79271714Y-90844819D02*
X79176476Y-90797200D01*
X79176476Y-90797200D02*
X79128857Y-90749580D01*
X86942666Y-118011819D02*
X86942666Y-118726104D01*
X86942666Y-118726104D02*
X86895047Y-118868961D01*
X86895047Y-118868961D02*
X86799809Y-118964200D01*
X86799809Y-118964200D02*
X86656952Y-119011819D01*
X86656952Y-119011819D02*
X86561714Y-119011819D01*
X87371238Y-118107057D02*
X87418857Y-118059438D01*
X87418857Y-118059438D02*
X87514095Y-118011819D01*
X87514095Y-118011819D02*
X87752190Y-118011819D01*
X87752190Y-118011819D02*
X87847428Y-118059438D01*
X87847428Y-118059438D02*
X87895047Y-118107057D01*
X87895047Y-118107057D02*
X87942666Y-118202295D01*
X87942666Y-118202295D02*
X87942666Y-118297533D01*
X87942666Y-118297533D02*
X87895047Y-118440390D01*
X87895047Y-118440390D02*
X87323619Y-119011819D01*
X87323619Y-119011819D02*
X87942666Y-119011819D01*
X67516476Y-86620819D02*
X67516476Y-87335104D01*
X67516476Y-87335104D02*
X67468857Y-87477961D01*
X67468857Y-87477961D02*
X67373619Y-87573200D01*
X67373619Y-87573200D02*
X67230762Y-87620819D01*
X67230762Y-87620819D02*
X67135524Y-87620819D01*
X68516476Y-87620819D02*
X67945048Y-87620819D01*
X68230762Y-87620819D02*
X68230762Y-86620819D01*
X68230762Y-86620819D02*
X68135524Y-86763676D01*
X68135524Y-86763676D02*
X68040286Y-86858914D01*
X68040286Y-86858914D02*
X67945048Y-86906533D01*
X69135524Y-86620819D02*
X69230762Y-86620819D01*
X69230762Y-86620819D02*
X69326000Y-86668438D01*
X69326000Y-86668438D02*
X69373619Y-86716057D01*
X69373619Y-86716057D02*
X69421238Y-86811295D01*
X69421238Y-86811295D02*
X69468857Y-87001771D01*
X69468857Y-87001771D02*
X69468857Y-87239866D01*
X69468857Y-87239866D02*
X69421238Y-87430342D01*
X69421238Y-87430342D02*
X69373619Y-87525580D01*
X69373619Y-87525580D02*
X69326000Y-87573200D01*
X69326000Y-87573200D02*
X69230762Y-87620819D01*
X69230762Y-87620819D02*
X69135524Y-87620819D01*
X69135524Y-87620819D02*
X69040286Y-87573200D01*
X69040286Y-87573200D02*
X68992667Y-87525580D01*
X68992667Y-87525580D02*
X68945048Y-87430342D01*
X68945048Y-87430342D02*
X68897429Y-87239866D01*
X68897429Y-87239866D02*
X68897429Y-87001771D01*
X68897429Y-87001771D02*
X68945048Y-86811295D01*
X68945048Y-86811295D02*
X68992667Y-86716057D01*
X68992667Y-86716057D02*
X69040286Y-86668438D01*
X69040286Y-86668438D02*
X69135524Y-86620819D01*
X124325142Y-129518580D02*
X124277523Y-129566200D01*
X124277523Y-129566200D02*
X124134666Y-129613819D01*
X124134666Y-129613819D02*
X124039428Y-129613819D01*
X124039428Y-129613819D02*
X123896571Y-129566200D01*
X123896571Y-129566200D02*
X123801333Y-129470961D01*
X123801333Y-129470961D02*
X123753714Y-129375723D01*
X123753714Y-129375723D02*
X123706095Y-129185247D01*
X123706095Y-129185247D02*
X123706095Y-129042390D01*
X123706095Y-129042390D02*
X123753714Y-128851914D01*
X123753714Y-128851914D02*
X123801333Y-128756676D01*
X123801333Y-128756676D02*
X123896571Y-128661438D01*
X123896571Y-128661438D02*
X124039428Y-128613819D01*
X124039428Y-128613819D02*
X124134666Y-128613819D01*
X124134666Y-128613819D02*
X124277523Y-128661438D01*
X124277523Y-128661438D02*
X124325142Y-128709057D01*
X125277523Y-129613819D02*
X124706095Y-129613819D01*
X124991809Y-129613819D02*
X124991809Y-128613819D01*
X124991809Y-128613819D02*
X124896571Y-128756676D01*
X124896571Y-128756676D02*
X124801333Y-128851914D01*
X124801333Y-128851914D02*
X124706095Y-128899533D01*
X126134666Y-128947152D02*
X126134666Y-129613819D01*
X125896571Y-128566200D02*
X125658476Y-129280485D01*
X125658476Y-129280485D02*
X126277523Y-129280485D01*
X63157819Y-119807533D02*
X63872104Y-119807533D01*
X63872104Y-119807533D02*
X64014961Y-119855152D01*
X64014961Y-119855152D02*
X64110200Y-119950390D01*
X64110200Y-119950390D02*
X64157819Y-120093247D01*
X64157819Y-120093247D02*
X64157819Y-120188485D01*
X63157819Y-118902771D02*
X63157819Y-119093247D01*
X63157819Y-119093247D02*
X63205438Y-119188485D01*
X63205438Y-119188485D02*
X63253057Y-119236104D01*
X63253057Y-119236104D02*
X63395914Y-119331342D01*
X63395914Y-119331342D02*
X63586390Y-119378961D01*
X63586390Y-119378961D02*
X63967342Y-119378961D01*
X63967342Y-119378961D02*
X64062580Y-119331342D01*
X64062580Y-119331342D02*
X64110200Y-119283723D01*
X64110200Y-119283723D02*
X64157819Y-119188485D01*
X64157819Y-119188485D02*
X64157819Y-118998009D01*
X64157819Y-118998009D02*
X64110200Y-118902771D01*
X64110200Y-118902771D02*
X64062580Y-118855152D01*
X64062580Y-118855152D02*
X63967342Y-118807533D01*
X63967342Y-118807533D02*
X63729247Y-118807533D01*
X63729247Y-118807533D02*
X63634009Y-118855152D01*
X63634009Y-118855152D02*
X63586390Y-118902771D01*
X63586390Y-118902771D02*
X63538771Y-118998009D01*
X63538771Y-118998009D02*
X63538771Y-119188485D01*
X63538771Y-119188485D02*
X63586390Y-119283723D01*
X63586390Y-119283723D02*
X63634009Y-119331342D01*
X63634009Y-119331342D02*
X63729247Y-119378961D01*
X63667819Y-99939433D02*
X64382104Y-99939433D01*
X64382104Y-99939433D02*
X64524961Y-99987052D01*
X64524961Y-99987052D02*
X64620200Y-100082290D01*
X64620200Y-100082290D02*
X64667819Y-100225147D01*
X64667819Y-100225147D02*
X64667819Y-100320385D01*
X63667819Y-98987052D02*
X63667819Y-99463242D01*
X63667819Y-99463242D02*
X64144009Y-99510861D01*
X64144009Y-99510861D02*
X64096390Y-99463242D01*
X64096390Y-99463242D02*
X64048771Y-99368004D01*
X64048771Y-99368004D02*
X64048771Y-99129909D01*
X64048771Y-99129909D02*
X64096390Y-99034671D01*
X64096390Y-99034671D02*
X64144009Y-98987052D01*
X64144009Y-98987052D02*
X64239247Y-98939433D01*
X64239247Y-98939433D02*
X64477342Y-98939433D01*
X64477342Y-98939433D02*
X64572580Y-98987052D01*
X64572580Y-98987052D02*
X64620200Y-99034671D01*
X64620200Y-99034671D02*
X64667819Y-99129909D01*
X64667819Y-99129909D02*
X64667819Y-99368004D01*
X64667819Y-99368004D02*
X64620200Y-99463242D01*
X64620200Y-99463242D02*
X64572580Y-99510861D01*
X90511333Y-128214580D02*
X90463714Y-128262200D01*
X90463714Y-128262200D02*
X90320857Y-128309819D01*
X90320857Y-128309819D02*
X90225619Y-128309819D01*
X90225619Y-128309819D02*
X90082762Y-128262200D01*
X90082762Y-128262200D02*
X89987524Y-128166961D01*
X89987524Y-128166961D02*
X89939905Y-128071723D01*
X89939905Y-128071723D02*
X89892286Y-127881247D01*
X89892286Y-127881247D02*
X89892286Y-127738390D01*
X89892286Y-127738390D02*
X89939905Y-127547914D01*
X89939905Y-127547914D02*
X89987524Y-127452676D01*
X89987524Y-127452676D02*
X90082762Y-127357438D01*
X90082762Y-127357438D02*
X90225619Y-127309819D01*
X90225619Y-127309819D02*
X90320857Y-127309819D01*
X90320857Y-127309819D02*
X90463714Y-127357438D01*
X90463714Y-127357438D02*
X90511333Y-127405057D01*
X90844667Y-127309819D02*
X91463714Y-127309819D01*
X91463714Y-127309819D02*
X91130381Y-127690771D01*
X91130381Y-127690771D02*
X91273238Y-127690771D01*
X91273238Y-127690771D02*
X91368476Y-127738390D01*
X91368476Y-127738390D02*
X91416095Y-127786009D01*
X91416095Y-127786009D02*
X91463714Y-127881247D01*
X91463714Y-127881247D02*
X91463714Y-128119342D01*
X91463714Y-128119342D02*
X91416095Y-128214580D01*
X91416095Y-128214580D02*
X91368476Y-128262200D01*
X91368476Y-128262200D02*
X91273238Y-128309819D01*
X91273238Y-128309819D02*
X90987524Y-128309819D01*
X90987524Y-128309819D02*
X90892286Y-128262200D01*
X90892286Y-128262200D02*
X90844667Y-128214580D01*
X104775095Y-79083819D02*
X104775095Y-79893342D01*
X104775095Y-79893342D02*
X104822714Y-79988580D01*
X104822714Y-79988580D02*
X104870333Y-80036200D01*
X104870333Y-80036200D02*
X104965571Y-80083819D01*
X104965571Y-80083819D02*
X105156047Y-80083819D01*
X105156047Y-80083819D02*
X105251285Y-80036200D01*
X105251285Y-80036200D02*
X105298904Y-79988580D01*
X105298904Y-79988580D02*
X105346523Y-79893342D01*
X105346523Y-79893342D02*
X105346523Y-79083819D01*
X106346523Y-80083819D02*
X105775095Y-80083819D01*
X106060809Y-80083819D02*
X106060809Y-79083819D01*
X106060809Y-79083819D02*
X105965571Y-79226676D01*
X105965571Y-79226676D02*
X105870333Y-79321914D01*
X105870333Y-79321914D02*
X105775095Y-79369533D01*
X121666095Y-121628819D02*
X121666095Y-122438342D01*
X121666095Y-122438342D02*
X121713714Y-122533580D01*
X121713714Y-122533580D02*
X121761333Y-122581200D01*
X121761333Y-122581200D02*
X121856571Y-122628819D01*
X121856571Y-122628819D02*
X122047047Y-122628819D01*
X122047047Y-122628819D02*
X122142285Y-122581200D01*
X122142285Y-122581200D02*
X122189904Y-122533580D01*
X122189904Y-122533580D02*
X122237523Y-122438342D01*
X122237523Y-122438342D02*
X122237523Y-121628819D01*
X122618476Y-121628819D02*
X123237523Y-121628819D01*
X123237523Y-121628819D02*
X122904190Y-122009771D01*
X122904190Y-122009771D02*
X123047047Y-122009771D01*
X123047047Y-122009771D02*
X123142285Y-122057390D01*
X123142285Y-122057390D02*
X123189904Y-122105009D01*
X123189904Y-122105009D02*
X123237523Y-122200247D01*
X123237523Y-122200247D02*
X123237523Y-122438342D01*
X123237523Y-122438342D02*
X123189904Y-122533580D01*
X123189904Y-122533580D02*
X123142285Y-122581200D01*
X123142285Y-122581200D02*
X123047047Y-122628819D01*
X123047047Y-122628819D02*
X122761333Y-122628819D01*
X122761333Y-122628819D02*
X122666095Y-122581200D01*
X122666095Y-122581200D02*
X122618476Y-122533580D01*
X121920000Y-120104819D02*
X121920000Y-120342914D01*
X121681905Y-120247676D02*
X121920000Y-120342914D01*
X121920000Y-120342914D02*
X122158095Y-120247676D01*
X121777143Y-120533390D02*
X121920000Y-120342914D01*
X121920000Y-120342914D02*
X122062857Y-120533390D01*
X90765333Y-92942580D02*
X90717714Y-92990200D01*
X90717714Y-92990200D02*
X90574857Y-93037819D01*
X90574857Y-93037819D02*
X90479619Y-93037819D01*
X90479619Y-93037819D02*
X90336762Y-92990200D01*
X90336762Y-92990200D02*
X90241524Y-92894961D01*
X90241524Y-92894961D02*
X90193905Y-92799723D01*
X90193905Y-92799723D02*
X90146286Y-92609247D01*
X90146286Y-92609247D02*
X90146286Y-92466390D01*
X90146286Y-92466390D02*
X90193905Y-92275914D01*
X90193905Y-92275914D02*
X90241524Y-92180676D01*
X90241524Y-92180676D02*
X90336762Y-92085438D01*
X90336762Y-92085438D02*
X90479619Y-92037819D01*
X90479619Y-92037819D02*
X90574857Y-92037819D01*
X90574857Y-92037819D02*
X90717714Y-92085438D01*
X90717714Y-92085438D02*
X90765333Y-92133057D01*
X91717714Y-93037819D02*
X91146286Y-93037819D01*
X91432000Y-93037819D02*
X91432000Y-92037819D01*
X91432000Y-92037819D02*
X91336762Y-92180676D01*
X91336762Y-92180676D02*
X91241524Y-92275914D01*
X91241524Y-92275914D02*
X91146286Y-92323533D01*
X92908580Y-86206666D02*
X92956200Y-86254285D01*
X92956200Y-86254285D02*
X93003819Y-86397142D01*
X93003819Y-86397142D02*
X93003819Y-86492380D01*
X93003819Y-86492380D02*
X92956200Y-86635237D01*
X92956200Y-86635237D02*
X92860961Y-86730475D01*
X92860961Y-86730475D02*
X92765723Y-86778094D01*
X92765723Y-86778094D02*
X92575247Y-86825713D01*
X92575247Y-86825713D02*
X92432390Y-86825713D01*
X92432390Y-86825713D02*
X92241914Y-86778094D01*
X92241914Y-86778094D02*
X92146676Y-86730475D01*
X92146676Y-86730475D02*
X92051438Y-86635237D01*
X92051438Y-86635237D02*
X92003819Y-86492380D01*
X92003819Y-86492380D02*
X92003819Y-86397142D01*
X92003819Y-86397142D02*
X92051438Y-86254285D01*
X92051438Y-86254285D02*
X92099057Y-86206666D01*
X93003819Y-85730475D02*
X93003819Y-85539999D01*
X93003819Y-85539999D02*
X92956200Y-85444761D01*
X92956200Y-85444761D02*
X92908580Y-85397142D01*
X92908580Y-85397142D02*
X92765723Y-85301904D01*
X92765723Y-85301904D02*
X92575247Y-85254285D01*
X92575247Y-85254285D02*
X92194295Y-85254285D01*
X92194295Y-85254285D02*
X92099057Y-85301904D01*
X92099057Y-85301904D02*
X92051438Y-85349523D01*
X92051438Y-85349523D02*
X92003819Y-85444761D01*
X92003819Y-85444761D02*
X92003819Y-85635237D01*
X92003819Y-85635237D02*
X92051438Y-85730475D01*
X92051438Y-85730475D02*
X92099057Y-85778094D01*
X92099057Y-85778094D02*
X92194295Y-85825713D01*
X92194295Y-85825713D02*
X92432390Y-85825713D01*
X92432390Y-85825713D02*
X92527628Y-85778094D01*
X92527628Y-85778094D02*
X92575247Y-85730475D01*
X92575247Y-85730475D02*
X92622866Y-85635237D01*
X92622866Y-85635237D02*
X92622866Y-85444761D01*
X92622866Y-85444761D02*
X92575247Y-85349523D01*
X92575247Y-85349523D02*
X92527628Y-85301904D01*
X92527628Y-85301904D02*
X92432390Y-85254285D01*
X63208819Y-83240833D02*
X63923104Y-83240833D01*
X63923104Y-83240833D02*
X64065961Y-83288452D01*
X64065961Y-83288452D02*
X64161200Y-83383690D01*
X64161200Y-83383690D02*
X64208819Y-83526547D01*
X64208819Y-83526547D02*
X64208819Y-83621785D01*
X63208819Y-82859880D02*
X63208819Y-82193214D01*
X63208819Y-82193214D02*
X64208819Y-82621785D01*
X76969627Y-78232512D02*
X76969627Y-79234312D01*
X76969627Y-79234312D02*
X76902840Y-79434672D01*
X76902840Y-79434672D02*
X76769267Y-79568246D01*
X76769267Y-79568246D02*
X76568907Y-79635032D01*
X76568907Y-79635032D02*
X76435334Y-79635032D01*
X78372147Y-79635032D02*
X77570707Y-79635032D01*
X77971427Y-79635032D02*
X77971427Y-78232512D01*
X77971427Y-78232512D02*
X77837854Y-78432872D01*
X77837854Y-78432872D02*
X77704281Y-78566446D01*
X77704281Y-78566446D02*
X77570707Y-78633232D01*
X79707880Y-79635032D02*
X78906440Y-79635032D01*
X79307160Y-79635032D02*
X79307160Y-78232512D01*
X79307160Y-78232512D02*
X79173587Y-78432872D01*
X79173587Y-78432872D02*
X79040014Y-78566446D01*
X79040014Y-78566446D02*
X78906440Y-78633232D01*
D12*
X91433667Y-87995935D02*
X91167000Y-87614982D01*
X90976524Y-87995935D02*
X90976524Y-87195935D01*
X90976524Y-87195935D02*
X91281286Y-87195935D01*
X91281286Y-87195935D02*
X91357476Y-87234030D01*
X91357476Y-87234030D02*
X91395571Y-87272125D01*
X91395571Y-87272125D02*
X91433667Y-87348316D01*
X91433667Y-87348316D02*
X91433667Y-87462601D01*
X91433667Y-87462601D02*
X91395571Y-87538792D01*
X91395571Y-87538792D02*
X91357476Y-87576887D01*
X91357476Y-87576887D02*
X91281286Y-87614982D01*
X91281286Y-87614982D02*
X90976524Y-87614982D01*
X92195571Y-87995935D02*
X91738428Y-87995935D01*
X91967000Y-87995935D02*
X91967000Y-87195935D01*
X91967000Y-87195935D02*
X91890809Y-87310220D01*
X91890809Y-87310220D02*
X91814619Y-87386411D01*
X91814619Y-87386411D02*
X91738428Y-87424506D01*
D13*
X54389404Y-101225285D02*
X54427500Y-101263381D01*
X54427500Y-101263381D02*
X54465595Y-101377666D01*
X54465595Y-101377666D02*
X54465595Y-101453857D01*
X54465595Y-101453857D02*
X54427500Y-101568143D01*
X54427500Y-101568143D02*
X54351309Y-101644333D01*
X54351309Y-101644333D02*
X54275119Y-101682428D01*
X54275119Y-101682428D02*
X54122738Y-101720524D01*
X54122738Y-101720524D02*
X54008452Y-101720524D01*
X54008452Y-101720524D02*
X53856071Y-101682428D01*
X53856071Y-101682428D02*
X53779880Y-101644333D01*
X53779880Y-101644333D02*
X53703690Y-101568143D01*
X53703690Y-101568143D02*
X53665595Y-101453857D01*
X53665595Y-101453857D02*
X53665595Y-101377666D01*
X53665595Y-101377666D02*
X53703690Y-101263381D01*
X53703690Y-101263381D02*
X53741785Y-101225285D01*
X54465595Y-100463381D02*
X54465595Y-100920524D01*
X54465595Y-100691952D02*
X53665595Y-100691952D01*
X53665595Y-100691952D02*
X53779880Y-100768143D01*
X53779880Y-100768143D02*
X53856071Y-100844333D01*
X53856071Y-100844333D02*
X53894166Y-100920524D01*
X53665595Y-99968142D02*
X53665595Y-99891952D01*
X53665595Y-99891952D02*
X53703690Y-99815761D01*
X53703690Y-99815761D02*
X53741785Y-99777666D01*
X53741785Y-99777666D02*
X53817976Y-99739571D01*
X53817976Y-99739571D02*
X53970357Y-99701476D01*
X53970357Y-99701476D02*
X54160833Y-99701476D01*
X54160833Y-99701476D02*
X54313214Y-99739571D01*
X54313214Y-99739571D02*
X54389404Y-99777666D01*
X54389404Y-99777666D02*
X54427500Y-99815761D01*
X54427500Y-99815761D02*
X54465595Y-99891952D01*
X54465595Y-99891952D02*
X54465595Y-99968142D01*
X54465595Y-99968142D02*
X54427500Y-100044333D01*
X54427500Y-100044333D02*
X54389404Y-100082428D01*
X54389404Y-100082428D02*
X54313214Y-100120523D01*
X54313214Y-100120523D02*
X54160833Y-100158619D01*
X54160833Y-100158619D02*
X53970357Y-100158619D01*
X53970357Y-100158619D02*
X53817976Y-100120523D01*
X53817976Y-100120523D02*
X53741785Y-100082428D01*
X53741785Y-100082428D02*
X53703690Y-100044333D01*
X53703690Y-100044333D02*
X53665595Y-99968142D01*
D10*
X129373333Y-88336580D02*
X129325714Y-88384200D01*
X129325714Y-88384200D02*
X129182857Y-88431819D01*
X129182857Y-88431819D02*
X129087619Y-88431819D01*
X129087619Y-88431819D02*
X128944762Y-88384200D01*
X128944762Y-88384200D02*
X128849524Y-88288961D01*
X128849524Y-88288961D02*
X128801905Y-88193723D01*
X128801905Y-88193723D02*
X128754286Y-88003247D01*
X128754286Y-88003247D02*
X128754286Y-87860390D01*
X128754286Y-87860390D02*
X128801905Y-87669914D01*
X128801905Y-87669914D02*
X128849524Y-87574676D01*
X128849524Y-87574676D02*
X128944762Y-87479438D01*
X128944762Y-87479438D02*
X129087619Y-87431819D01*
X129087619Y-87431819D02*
X129182857Y-87431819D01*
X129182857Y-87431819D02*
X129325714Y-87479438D01*
X129325714Y-87479438D02*
X129373333Y-87527057D01*
X129706667Y-87431819D02*
X130373333Y-87431819D01*
X130373333Y-87431819D02*
X129944762Y-88431819D01*
X82833095Y-81554819D02*
X82833095Y-82364342D01*
X82833095Y-82364342D02*
X82880714Y-82459580D01*
X82880714Y-82459580D02*
X82928333Y-82507200D01*
X82928333Y-82507200D02*
X83023571Y-82554819D01*
X83023571Y-82554819D02*
X83214047Y-82554819D01*
X83214047Y-82554819D02*
X83309285Y-82507200D01*
X83309285Y-82507200D02*
X83356904Y-82459580D01*
X83356904Y-82459580D02*
X83404523Y-82364342D01*
X83404523Y-82364342D02*
X83404523Y-81554819D01*
X83833095Y-81650057D02*
X83880714Y-81602438D01*
X83880714Y-81602438D02*
X83975952Y-81554819D01*
X83975952Y-81554819D02*
X84214047Y-81554819D01*
X84214047Y-81554819D02*
X84309285Y-81602438D01*
X84309285Y-81602438D02*
X84356904Y-81650057D01*
X84356904Y-81650057D02*
X84404523Y-81745295D01*
X84404523Y-81745295D02*
X84404523Y-81840533D01*
X84404523Y-81840533D02*
X84356904Y-81983390D01*
X84356904Y-81983390D02*
X83785476Y-82554819D01*
X83785476Y-82554819D02*
X84404523Y-82554819D01*
%TO.C,IC1*%
D14*
X101677000Y-102223000D02*
X101423000Y-102477000D01*
X101169000Y-102096000D01*
X101423000Y-101842000D01*
X101677000Y-102223000D01*
G36*
X101677000Y-102223000D02*
G01*
X101423000Y-102477000D01*
X101169000Y-102096000D01*
X101423000Y-101842000D01*
X101677000Y-102223000D01*
G37*
X101296000Y-102604000D02*
X101042000Y-102858000D01*
X100788000Y-102477000D01*
X101042000Y-102223000D01*
X101296000Y-102604000D01*
G36*
X101296000Y-102604000D02*
G01*
X101042000Y-102858000D01*
X100788000Y-102477000D01*
X101042000Y-102223000D01*
X101296000Y-102604000D01*
G37*
X100915000Y-102985000D02*
X100661000Y-103239000D01*
X100407000Y-102858000D01*
X100661000Y-102604000D01*
X100915000Y-102985000D01*
G36*
X100915000Y-102985000D02*
G01*
X100661000Y-103239000D01*
X100407000Y-102858000D01*
X100661000Y-102604000D01*
X100915000Y-102985000D01*
G37*
X100534000Y-102477000D02*
X100280000Y-102731000D01*
X100026000Y-102350000D01*
X100280000Y-102096000D01*
X100534000Y-102477000D01*
G36*
X100534000Y-102477000D02*
G01*
X100280000Y-102731000D01*
X100026000Y-102350000D01*
X100280000Y-102096000D01*
X100534000Y-102477000D01*
G37*
X100153000Y-102858000D02*
X99899000Y-103112000D01*
X99645000Y-102731000D01*
X99899000Y-102477000D01*
X100153000Y-102858000D01*
G36*
X100153000Y-102858000D02*
G01*
X99899000Y-103112000D01*
X99645000Y-102731000D01*
X99899000Y-102477000D01*
X100153000Y-102858000D01*
G37*
X100153000Y-101969000D02*
X99899000Y-102223000D01*
X99645000Y-101842000D01*
X99899000Y-101588000D01*
X100153000Y-101969000D01*
G36*
X100153000Y-101969000D02*
G01*
X99899000Y-102223000D01*
X99645000Y-101842000D01*
X99899000Y-101588000D01*
X100153000Y-101969000D01*
G37*
X99772000Y-102350000D02*
X99518000Y-102604000D01*
X99264000Y-102223000D01*
X99518000Y-101969000D01*
X99772000Y-102350000D01*
G36*
X99772000Y-102350000D02*
G01*
X99518000Y-102604000D01*
X99264000Y-102223000D01*
X99518000Y-101969000D01*
X99772000Y-102350000D01*
G37*
X99391000Y-101842000D02*
X99137000Y-102096000D01*
X98883000Y-101715000D01*
X99137000Y-101461000D01*
X99391000Y-101842000D01*
G36*
X99391000Y-101842000D02*
G01*
X99137000Y-102096000D01*
X98883000Y-101715000D01*
X99137000Y-101461000D01*
X99391000Y-101842000D01*
G37*
D10*
X111443026Y-102530000D02*
G75*
G03*
X111443026Y-102530000I-898026J0D01*
G01*
X128960000Y-111420000D02*
X68000000Y-111420000D01*
X128960000Y-97450000D02*
X127690000Y-97450000D01*
X128960000Y-96180000D02*
X116260000Y-96180000D01*
X128960000Y-93640000D02*
X128960000Y-111420000D01*
X127690000Y-107610000D02*
X128960000Y-107610000D01*
X127690000Y-97450000D02*
X127690000Y-107610000D01*
X116260000Y-108880000D02*
X128960000Y-108880000D01*
X116260000Y-96180000D02*
X116260000Y-108880000D01*
X112450000Y-103800000D02*
X108640000Y-103800000D01*
X112450000Y-101260000D02*
X112450000Y-103800000D01*
X108640000Y-103800000D02*
X108640000Y-101260000D01*
X108640000Y-101260000D02*
X112450000Y-101260000D01*
X103560000Y-108880000D02*
X103560000Y-96180000D01*
X103560000Y-96180000D02*
X90860000Y-96180000D01*
X90860000Y-108880000D02*
X103560000Y-108880000D01*
X90860000Y-96180000D02*
X90860000Y-108880000D01*
X86999200Y-108369200D02*
X74299200Y-108369200D01*
X86999200Y-105829200D02*
X86999200Y-108369200D01*
X85230000Y-102428400D02*
X85230000Y-96178400D01*
X85230000Y-96178400D02*
X81230000Y-96178400D01*
X81230000Y-102428400D02*
X85230000Y-102428400D01*
X81230000Y-96428400D02*
X81230000Y-102428400D01*
X81230000Y-96178400D02*
X81230000Y-96428400D01*
X76839200Y-105829200D02*
X76839200Y-108369200D01*
X74299200Y-108369200D02*
X74299200Y-105829200D01*
X74299200Y-105829200D02*
X86999200Y-105829200D01*
X74299200Y-105829200D02*
X76839200Y-105829200D01*
X73080000Y-106340000D02*
X73080000Y-98720000D01*
X73080000Y-106340000D02*
X68000000Y-106340000D01*
X73080000Y-98720000D02*
X68000000Y-98720000D01*
X68000000Y-111420000D02*
X68000000Y-93640000D01*
X68000000Y-106340000D02*
X66730000Y-106340000D01*
X68000000Y-93640000D02*
X128960000Y-93640000D01*
X66730000Y-106340000D02*
X66730000Y-98720000D01*
X66730000Y-98720000D02*
X68000000Y-98720000D01*
D15*
%TO.C,F1*%
X67596936Y-84434000D02*
X68801064Y-84434000D01*
X67596936Y-86254000D02*
X68801064Y-86254000D01*
D16*
%TO.C,J4*%
X101496000Y-120442000D02*
X113896000Y-120442000D01*
X101496000Y-126192000D02*
X101496000Y-120442000D01*
X113896000Y-120442000D02*
X113896000Y-126192000D01*
X113896000Y-126192000D02*
X101496000Y-126192000D01*
D11*
X100846000Y-123842000D02*
G75*
G03*
X100846000Y-123842000I-100000J0D01*
G01*
D16*
%TO.C,J1*%
X66952000Y-120569000D02*
X79352000Y-120569000D01*
X66952000Y-126319000D02*
X66952000Y-120569000D01*
X79352000Y-120569000D02*
X79352000Y-126319000D01*
X79352000Y-126319000D02*
X66952000Y-126319000D01*
D11*
X66302000Y-123969000D02*
G75*
G03*
X66302000Y-123969000I-100000J0D01*
G01*
D16*
%TO.C,J2*%
X84351000Y-120442000D02*
X96751000Y-120442000D01*
X84351000Y-126192000D02*
X84351000Y-120442000D01*
X96751000Y-120442000D02*
X96751000Y-126192000D01*
X96751000Y-126192000D02*
X84351000Y-126192000D01*
D11*
X83701000Y-123842000D02*
G75*
G03*
X83701000Y-123842000I-100000J0D01*
G01*
D15*
%TO.C,J10*%
X66436000Y-88906000D02*
X67516000Y-88906000D01*
X67516000Y-88606000D02*
X67516000Y-88906000D01*
X67516000Y-88606000D02*
X69136000Y-88606000D01*
X67516000Y-89926000D02*
X67516000Y-91226000D01*
X67516000Y-91226000D02*
X69136000Y-91226000D01*
X69136000Y-88606000D02*
X69136000Y-89906000D01*
X69136000Y-90926000D02*
X69136000Y-91226000D01*
D16*
%TO.C,J6*%
X62328000Y-114024200D02*
X62328000Y-126424200D01*
X56578000Y-114024200D02*
X62328000Y-114024200D01*
X62328000Y-126424200D02*
X56578000Y-126424200D01*
X56578000Y-126424200D02*
X56578000Y-114024200D01*
D11*
X59028000Y-113274200D02*
G75*
G03*
X59028000Y-113274200I-100000J0D01*
G01*
D16*
%TO.C,J5*%
X62328000Y-96681100D02*
X62328000Y-109081100D01*
X56578000Y-96681100D02*
X62328000Y-96681100D01*
X62328000Y-109081100D02*
X56578000Y-109081100D01*
X56578000Y-109081100D02*
X56578000Y-96681100D01*
D11*
X59028000Y-95931100D02*
G75*
G03*
X59028000Y-95931100I-100000J0D01*
G01*
D16*
%TO.C,U1*%
X99350000Y-78390000D02*
X128650000Y-78390000D01*
X99350000Y-83040000D02*
X99350000Y-78390000D01*
X99350000Y-83040000D02*
X101500000Y-83040000D01*
X128650000Y-78390000D02*
X128650000Y-83040000D01*
X128650000Y-83040000D02*
X126400000Y-83040000D01*
D11*
X100600000Y-86700000D02*
G75*
G03*
X100600000Y-86700000I-100000J0D01*
G01*
D17*
%TO.C,U3*%
X120053100Y-124853700D02*
X124802900Y-124853700D01*
X124802900Y-119494300D02*
X120053100Y-119494300D01*
G36*
X126695200Y-123014499D02*
G01*
X126441200Y-123014499D01*
X126441200Y-122633499D01*
X126695200Y-122633499D01*
X126695200Y-123014499D01*
G37*
D16*
%TO.C,J7*%
X62438000Y-79331000D02*
X62438000Y-91731000D01*
X56688000Y-79331000D02*
X62438000Y-79331000D01*
X62438000Y-91731000D02*
X56688000Y-91731000D01*
X56688000Y-91731000D02*
X56688000Y-79331000D01*
D11*
X59138000Y-78581000D02*
G75*
G03*
X59138000Y-78581000I-100000J0D01*
G01*
D16*
%TO.C,J11*%
X68780000Y-79348000D02*
X76000000Y-79348000D01*
X68780000Y-81688000D02*
X68780000Y-79348000D01*
X76000000Y-79348000D02*
X76000000Y-81688000D01*
X76000000Y-81688000D02*
X68780000Y-81688000D01*
D11*
X69950000Y-78348000D02*
G75*
G03*
X69950000Y-78348000I-100000J0D01*
G01*
D15*
%TO.C,U2*%
X83595000Y-82940000D02*
X81795000Y-82940000D01*
X83595000Y-82940000D02*
X84395000Y-82940000D01*
X83595000Y-86060000D02*
X82795000Y-86060000D01*
X83595000Y-86060000D02*
X84395000Y-86060000D01*
%TD*%
M02*
