%TF.GenerationSoftware,KiCad,Pcbnew,7.0.7*%
%TF.CreationDate,2024-02-01T19:36:20-05:00*%
%TF.ProjectId,500g Bot Design-2024-01-21,35303067-2042-46f7-9420-44657369676e,rev?*%
%TF.SameCoordinates,Original*%
%TF.FileFunction,Paste,Top*%
%TF.FilePolarity,Positive*%
%FSLAX46Y46*%
G04 Gerber Fmt 4.6, Leading zero omitted, Abs format (unit mm)*
G04 Created by KiCad (PCBNEW 7.0.7) date 2024-02-01 19:36:20*
%MOMM*%
%LPD*%
G01*
G04 APERTURE LIST*
G04 Aperture macros list*
%AMRoundRect*
0 Rectangle with rounded corners*
0 $1 Rounding radius*
0 $2 $3 $4 $5 $6 $7 $8 $9 X,Y pos of 4 corners*
0 Add a 4 corners polygon primitive as box body*
4,1,4,$2,$3,$4,$5,$6,$7,$8,$9,$2,$3,0*
0 Add four circle primitives for the rounded corners*
1,1,$1+$1,$2,$3*
1,1,$1+$1,$4,$5*
1,1,$1+$1,$6,$7*
1,1,$1+$1,$8,$9*
0 Add four rect primitives between the rounded corners*
20,1,$1+$1,$2,$3,$4,$5,0*
20,1,$1+$1,$4,$5,$6,$7,0*
20,1,$1+$1,$6,$7,$8,$9,0*
20,1,$1+$1,$8,$9,$2,$3,0*%
G04 Aperture macros list end*
%ADD10RoundRect,0.250000X-0.375000X-0.625000X0.375000X-0.625000X0.375000X0.625000X-0.375000X0.625000X0*%
%ADD11RoundRect,0.079500X0.100500X-0.079500X0.100500X0.079500X-0.100500X0.079500X-0.100500X-0.079500X0*%
%ADD12R,1.200000X1.470000*%
%ADD13RoundRect,0.079500X-0.100500X0.079500X-0.100500X-0.079500X0.100500X-0.079500X0.100500X0.079500X0*%
%ADD14RoundRect,0.079500X-0.079500X-0.100500X0.079500X-0.100500X0.079500X0.100500X-0.079500X0.100500X0*%
%ADD15R,0.858799X0.550799*%
%ADD16RoundRect,0.079500X0.079500X0.100500X-0.079500X0.100500X-0.079500X-0.100500X0.079500X-0.100500X0*%
%ADD17R,1.950000X0.500000*%
%ADD18R,1.778000X0.355600*%
%ADD19R,0.940000X1.020000*%
%ADD20RoundRect,0.150000X-0.512500X-0.150000X0.512500X-0.150000X0.512500X0.150000X-0.512500X0.150000X0*%
G04 APERTURE END LIST*
D10*
%TO.C,F1*%
X66799000Y-85344000D03*
X69599000Y-85344000D03*
%TD*%
D11*
%TO.C,C11*%
X54229000Y-120487000D03*
X54229000Y-119797000D03*
%TD*%
D12*
%TO.C,L2*%
X95279000Y-90424000D03*
X96999000Y-90424000D03*
%TD*%
D13*
%TO.C,C12*%
X54864000Y-84491000D03*
X54864000Y-85181000D03*
%TD*%
D14*
%TO.C,C4*%
X73061000Y-128905000D03*
X73751000Y-128905000D03*
%TD*%
%TO.C,C8*%
X78141000Y-89050000D03*
X78831000Y-89050000D03*
%TD*%
%TO.C,C6*%
X107351000Y-128905000D03*
X108041000Y-128905000D03*
%TD*%
D15*
%TO.C,R2*%
X87864601Y-85090000D03*
X89173399Y-85090000D03*
%TD*%
D16*
%TO.C,C2*%
X89372000Y-89662000D03*
X88682000Y-89662000D03*
%TD*%
D14*
%TO.C,C13*%
X78141000Y-91440000D03*
X78831000Y-91440000D03*
%TD*%
D17*
%TO.C,J10*%
X67351000Y-89416000D03*
X69301000Y-90416000D03*
%TD*%
D16*
%TO.C,C14*%
X123027000Y-128651000D03*
X122337000Y-128651000D03*
%TD*%
D14*
%TO.C,C3*%
X90333000Y-128905000D03*
X91023000Y-128905000D03*
%TD*%
D18*
%TO.C,U3*%
X119557800Y-120223999D03*
X119557800Y-120874000D03*
X119557800Y-121524001D03*
X119557800Y-122174000D03*
X119557800Y-122823999D03*
X119557800Y-123474000D03*
X119557800Y-124123999D03*
X125298200Y-124124001D03*
X125298200Y-123474000D03*
X125298200Y-122824001D03*
X125298200Y-122174000D03*
X125298200Y-121524001D03*
X125298200Y-120874000D03*
X125298200Y-120224001D03*
%TD*%
D16*
%TO.C,C1*%
X89372000Y-92202000D03*
X88682000Y-92202000D03*
%TD*%
D11*
%TO.C,C9*%
X93599000Y-86385000D03*
X93599000Y-85695000D03*
%TD*%
D19*
%TO.C,R1*%
X90777000Y-88900000D03*
X92357000Y-88900000D03*
%TD*%
D13*
%TO.C,C10*%
X54610000Y-102525000D03*
X54610000Y-103215000D03*
%TD*%
D14*
%TO.C,C7*%
X129195000Y-89027000D03*
X129885000Y-89027000D03*
%TD*%
D20*
%TO.C,U2*%
X82457500Y-83550000D03*
X82457500Y-84500000D03*
X82457500Y-85450000D03*
X84732500Y-85450000D03*
X84732500Y-84500000D03*
X84732500Y-83550000D03*
%TD*%
M02*
