%TF.GenerationSoftware,KiCad,Pcbnew,7.0.7*%
%TF.CreationDate,2024-02-11T14:13:46-05:00*%
%TF.ProjectId,Teddi 2-11-24,54656464-6920-4322-9d31-312d32342e6b,rev?*%
%TF.SameCoordinates,Original*%
%TF.FileFunction,Drillmap*%
%TF.FilePolarity,Positive*%
%FSLAX45Y45*%
G04 Gerber Fmt 4.5, Leading zero omitted, Abs format (unit mm)*
G04 Created by KiCad (PCBNEW 7.0.7) date 2024-02-11 14:13:46*
%MOMM*%
%LPD*%
G01*
G04 APERTURE LIST*
%ADD10C,0.100000*%
%ADD11C,0.200000*%
%ADD12C,0.210000*%
G04 APERTURE END LIST*
D10*
X5300000Y-7750000D02*
X13120000Y-7750000D01*
X13120000Y-13020000D01*
X5300000Y-13020000D01*
X5300000Y-7750000D01*
D11*
D12*
X5470300Y-12658500D02*
X5680300Y-12868500D01*
X5680300Y-12658500D02*
X5470300Y-12868500D01*
X9242200Y-7997600D02*
X9452200Y-8207600D01*
X9452200Y-7997600D02*
X9242200Y-8207600D01*
X12760100Y-12620400D02*
X12970100Y-12830400D01*
X12970100Y-12620400D02*
X12760100Y-12830400D01*
D11*
X5555777Y-13336484D02*
X5555777Y-13136484D01*
X5555777Y-13136484D02*
X5603396Y-13136484D01*
X5603396Y-13136484D02*
X5631967Y-13146008D01*
X5631967Y-13146008D02*
X5651015Y-13165055D01*
X5651015Y-13165055D02*
X5660539Y-13184103D01*
X5660539Y-13184103D02*
X5670062Y-13222198D01*
X5670062Y-13222198D02*
X5670062Y-13250769D01*
X5670062Y-13250769D02*
X5660539Y-13288865D01*
X5660539Y-13288865D02*
X5651015Y-13307912D01*
X5651015Y-13307912D02*
X5631967Y-13326960D01*
X5631967Y-13326960D02*
X5603396Y-13336484D01*
X5603396Y-13336484D02*
X5555777Y-13336484D01*
X5755777Y-13336484D02*
X5755777Y-13203150D01*
X5755777Y-13241246D02*
X5765301Y-13222198D01*
X5765301Y-13222198D02*
X5774824Y-13212674D01*
X5774824Y-13212674D02*
X5793872Y-13203150D01*
X5793872Y-13203150D02*
X5812920Y-13203150D01*
X5879586Y-13336484D02*
X5879586Y-13203150D01*
X5879586Y-13136484D02*
X5870062Y-13146008D01*
X5870062Y-13146008D02*
X5879586Y-13155531D01*
X5879586Y-13155531D02*
X5889110Y-13146008D01*
X5889110Y-13146008D02*
X5879586Y-13136484D01*
X5879586Y-13136484D02*
X5879586Y-13155531D01*
X6003396Y-13336484D02*
X5984348Y-13326960D01*
X5984348Y-13326960D02*
X5974824Y-13307912D01*
X5974824Y-13307912D02*
X5974824Y-13136484D01*
X6108158Y-13336484D02*
X6089110Y-13326960D01*
X6089110Y-13326960D02*
X6079586Y-13307912D01*
X6079586Y-13307912D02*
X6079586Y-13136484D01*
X6336729Y-13336484D02*
X6336729Y-13136484D01*
X6336729Y-13136484D02*
X6403396Y-13279341D01*
X6403396Y-13279341D02*
X6470062Y-13136484D01*
X6470062Y-13136484D02*
X6470062Y-13336484D01*
X6651015Y-13336484D02*
X6651015Y-13231722D01*
X6651015Y-13231722D02*
X6641491Y-13212674D01*
X6641491Y-13212674D02*
X6622443Y-13203150D01*
X6622443Y-13203150D02*
X6584348Y-13203150D01*
X6584348Y-13203150D02*
X6565301Y-13212674D01*
X6651015Y-13326960D02*
X6631967Y-13336484D01*
X6631967Y-13336484D02*
X6584348Y-13336484D01*
X6584348Y-13336484D02*
X6565301Y-13326960D01*
X6565301Y-13326960D02*
X6555777Y-13307912D01*
X6555777Y-13307912D02*
X6555777Y-13288865D01*
X6555777Y-13288865D02*
X6565301Y-13269817D01*
X6565301Y-13269817D02*
X6584348Y-13260293D01*
X6584348Y-13260293D02*
X6631967Y-13260293D01*
X6631967Y-13260293D02*
X6651015Y-13250769D01*
X6746253Y-13203150D02*
X6746253Y-13403150D01*
X6746253Y-13212674D02*
X6765301Y-13203150D01*
X6765301Y-13203150D02*
X6803396Y-13203150D01*
X6803396Y-13203150D02*
X6822443Y-13212674D01*
X6822443Y-13212674D02*
X6831967Y-13222198D01*
X6831967Y-13222198D02*
X6841491Y-13241246D01*
X6841491Y-13241246D02*
X6841491Y-13298388D01*
X6841491Y-13298388D02*
X6831967Y-13317436D01*
X6831967Y-13317436D02*
X6822443Y-13326960D01*
X6822443Y-13326960D02*
X6803396Y-13336484D01*
X6803396Y-13336484D02*
X6765301Y-13336484D01*
X6765301Y-13336484D02*
X6746253Y-13326960D01*
X6927205Y-13317436D02*
X6936729Y-13326960D01*
X6936729Y-13326960D02*
X6927205Y-13336484D01*
X6927205Y-13336484D02*
X6917682Y-13326960D01*
X6917682Y-13326960D02*
X6927205Y-13317436D01*
X6927205Y-13317436D02*
X6927205Y-13336484D01*
X6927205Y-13212674D02*
X6936729Y-13222198D01*
X6936729Y-13222198D02*
X6927205Y-13231722D01*
X6927205Y-13231722D02*
X6917682Y-13222198D01*
X6917682Y-13222198D02*
X6927205Y-13212674D01*
X6927205Y-13212674D02*
X6927205Y-13231722D01*
X5095000Y-13565000D02*
X5295000Y-13765000D01*
X5295000Y-13565000D02*
X5095000Y-13765000D01*
X5546253Y-13575531D02*
X5555777Y-13566008D01*
X5555777Y-13566008D02*
X5574824Y-13556484D01*
X5574824Y-13556484D02*
X5622443Y-13556484D01*
X5622443Y-13556484D02*
X5641491Y-13566008D01*
X5641491Y-13566008D02*
X5651015Y-13575531D01*
X5651015Y-13575531D02*
X5660539Y-13594579D01*
X5660539Y-13594579D02*
X5660539Y-13613627D01*
X5660539Y-13613627D02*
X5651015Y-13642198D01*
X5651015Y-13642198D02*
X5536729Y-13756484D01*
X5536729Y-13756484D02*
X5660539Y-13756484D01*
X5746253Y-13737436D02*
X5755777Y-13746960D01*
X5755777Y-13746960D02*
X5746253Y-13756484D01*
X5746253Y-13756484D02*
X5736729Y-13746960D01*
X5736729Y-13746960D02*
X5746253Y-13737436D01*
X5746253Y-13737436D02*
X5746253Y-13756484D01*
X5946253Y-13756484D02*
X5831967Y-13756484D01*
X5889110Y-13756484D02*
X5889110Y-13556484D01*
X5889110Y-13556484D02*
X5870062Y-13585055D01*
X5870062Y-13585055D02*
X5851015Y-13604103D01*
X5851015Y-13604103D02*
X5831967Y-13613627D01*
X6070062Y-13556484D02*
X6089110Y-13556484D01*
X6089110Y-13556484D02*
X6108158Y-13566008D01*
X6108158Y-13566008D02*
X6117682Y-13575531D01*
X6117682Y-13575531D02*
X6127205Y-13594579D01*
X6127205Y-13594579D02*
X6136729Y-13632674D01*
X6136729Y-13632674D02*
X6136729Y-13680293D01*
X6136729Y-13680293D02*
X6127205Y-13718388D01*
X6127205Y-13718388D02*
X6117682Y-13737436D01*
X6117682Y-13737436D02*
X6108158Y-13746960D01*
X6108158Y-13746960D02*
X6089110Y-13756484D01*
X6089110Y-13756484D02*
X6070062Y-13756484D01*
X6070062Y-13756484D02*
X6051015Y-13746960D01*
X6051015Y-13746960D02*
X6041491Y-13737436D01*
X6041491Y-13737436D02*
X6031967Y-13718388D01*
X6031967Y-13718388D02*
X6022443Y-13680293D01*
X6022443Y-13680293D02*
X6022443Y-13632674D01*
X6022443Y-13632674D02*
X6031967Y-13594579D01*
X6031967Y-13594579D02*
X6041491Y-13575531D01*
X6041491Y-13575531D02*
X6051015Y-13566008D01*
X6051015Y-13566008D02*
X6070062Y-13556484D01*
X6260539Y-13556484D02*
X6279586Y-13556484D01*
X6279586Y-13556484D02*
X6298634Y-13566008D01*
X6298634Y-13566008D02*
X6308158Y-13575531D01*
X6308158Y-13575531D02*
X6317682Y-13594579D01*
X6317682Y-13594579D02*
X6327205Y-13632674D01*
X6327205Y-13632674D02*
X6327205Y-13680293D01*
X6327205Y-13680293D02*
X6317682Y-13718388D01*
X6317682Y-13718388D02*
X6308158Y-13737436D01*
X6308158Y-13737436D02*
X6298634Y-13746960D01*
X6298634Y-13746960D02*
X6279586Y-13756484D01*
X6279586Y-13756484D02*
X6260539Y-13756484D01*
X6260539Y-13756484D02*
X6241491Y-13746960D01*
X6241491Y-13746960D02*
X6231967Y-13737436D01*
X6231967Y-13737436D02*
X6222443Y-13718388D01*
X6222443Y-13718388D02*
X6212920Y-13680293D01*
X6212920Y-13680293D02*
X6212920Y-13632674D01*
X6212920Y-13632674D02*
X6222443Y-13594579D01*
X6222443Y-13594579D02*
X6231967Y-13575531D01*
X6231967Y-13575531D02*
X6241491Y-13566008D01*
X6241491Y-13566008D02*
X6260539Y-13556484D01*
X6412920Y-13756484D02*
X6412920Y-13623150D01*
X6412920Y-13642198D02*
X6422443Y-13632674D01*
X6422443Y-13632674D02*
X6441491Y-13623150D01*
X6441491Y-13623150D02*
X6470063Y-13623150D01*
X6470063Y-13623150D02*
X6489110Y-13632674D01*
X6489110Y-13632674D02*
X6498634Y-13651722D01*
X6498634Y-13651722D02*
X6498634Y-13756484D01*
X6498634Y-13651722D02*
X6508158Y-13632674D01*
X6508158Y-13632674D02*
X6527205Y-13623150D01*
X6527205Y-13623150D02*
X6555777Y-13623150D01*
X6555777Y-13623150D02*
X6574824Y-13632674D01*
X6574824Y-13632674D02*
X6584348Y-13651722D01*
X6584348Y-13651722D02*
X6584348Y-13756484D01*
X6679586Y-13756484D02*
X6679586Y-13623150D01*
X6679586Y-13642198D02*
X6689110Y-13632674D01*
X6689110Y-13632674D02*
X6708158Y-13623150D01*
X6708158Y-13623150D02*
X6736729Y-13623150D01*
X6736729Y-13623150D02*
X6755777Y-13632674D01*
X6755777Y-13632674D02*
X6765301Y-13651722D01*
X6765301Y-13651722D02*
X6765301Y-13756484D01*
X6765301Y-13651722D02*
X6774824Y-13632674D01*
X6774824Y-13632674D02*
X6793872Y-13623150D01*
X6793872Y-13623150D02*
X6822443Y-13623150D01*
X6822443Y-13623150D02*
X6841491Y-13632674D01*
X6841491Y-13632674D02*
X6851015Y-13651722D01*
X6851015Y-13651722D02*
X6851015Y-13756484D01*
X7241491Y-13546960D02*
X7070063Y-13804103D01*
X7498634Y-13556484D02*
X7517682Y-13556484D01*
X7517682Y-13556484D02*
X7536729Y-13566008D01*
X7536729Y-13566008D02*
X7546253Y-13575531D01*
X7546253Y-13575531D02*
X7555777Y-13594579D01*
X7555777Y-13594579D02*
X7565301Y-13632674D01*
X7565301Y-13632674D02*
X7565301Y-13680293D01*
X7565301Y-13680293D02*
X7555777Y-13718388D01*
X7555777Y-13718388D02*
X7546253Y-13737436D01*
X7546253Y-13737436D02*
X7536729Y-13746960D01*
X7536729Y-13746960D02*
X7517682Y-13756484D01*
X7517682Y-13756484D02*
X7498634Y-13756484D01*
X7498634Y-13756484D02*
X7479586Y-13746960D01*
X7479586Y-13746960D02*
X7470063Y-13737436D01*
X7470063Y-13737436D02*
X7460539Y-13718388D01*
X7460539Y-13718388D02*
X7451015Y-13680293D01*
X7451015Y-13680293D02*
X7451015Y-13632674D01*
X7451015Y-13632674D02*
X7460539Y-13594579D01*
X7460539Y-13594579D02*
X7470063Y-13575531D01*
X7470063Y-13575531D02*
X7479586Y-13566008D01*
X7479586Y-13566008D02*
X7498634Y-13556484D01*
X7651015Y-13737436D02*
X7660539Y-13746960D01*
X7660539Y-13746960D02*
X7651015Y-13756484D01*
X7651015Y-13756484D02*
X7641491Y-13746960D01*
X7641491Y-13746960D02*
X7651015Y-13737436D01*
X7651015Y-13737436D02*
X7651015Y-13756484D01*
X7784348Y-13556484D02*
X7803396Y-13556484D01*
X7803396Y-13556484D02*
X7822444Y-13566008D01*
X7822444Y-13566008D02*
X7831967Y-13575531D01*
X7831967Y-13575531D02*
X7841491Y-13594579D01*
X7841491Y-13594579D02*
X7851015Y-13632674D01*
X7851015Y-13632674D02*
X7851015Y-13680293D01*
X7851015Y-13680293D02*
X7841491Y-13718388D01*
X7841491Y-13718388D02*
X7831967Y-13737436D01*
X7831967Y-13737436D02*
X7822444Y-13746960D01*
X7822444Y-13746960D02*
X7803396Y-13756484D01*
X7803396Y-13756484D02*
X7784348Y-13756484D01*
X7784348Y-13756484D02*
X7765301Y-13746960D01*
X7765301Y-13746960D02*
X7755777Y-13737436D01*
X7755777Y-13737436D02*
X7746253Y-13718388D01*
X7746253Y-13718388D02*
X7736729Y-13680293D01*
X7736729Y-13680293D02*
X7736729Y-13632674D01*
X7736729Y-13632674D02*
X7746253Y-13594579D01*
X7746253Y-13594579D02*
X7755777Y-13575531D01*
X7755777Y-13575531D02*
X7765301Y-13566008D01*
X7765301Y-13566008D02*
X7784348Y-13556484D01*
X7965301Y-13642198D02*
X7946253Y-13632674D01*
X7946253Y-13632674D02*
X7936729Y-13623150D01*
X7936729Y-13623150D02*
X7927206Y-13604103D01*
X7927206Y-13604103D02*
X7927206Y-13594579D01*
X7927206Y-13594579D02*
X7936729Y-13575531D01*
X7936729Y-13575531D02*
X7946253Y-13566008D01*
X7946253Y-13566008D02*
X7965301Y-13556484D01*
X7965301Y-13556484D02*
X8003396Y-13556484D01*
X8003396Y-13556484D02*
X8022444Y-13566008D01*
X8022444Y-13566008D02*
X8031967Y-13575531D01*
X8031967Y-13575531D02*
X8041491Y-13594579D01*
X8041491Y-13594579D02*
X8041491Y-13604103D01*
X8041491Y-13604103D02*
X8031967Y-13623150D01*
X8031967Y-13623150D02*
X8022444Y-13632674D01*
X8022444Y-13632674D02*
X8003396Y-13642198D01*
X8003396Y-13642198D02*
X7965301Y-13642198D01*
X7965301Y-13642198D02*
X7946253Y-13651722D01*
X7946253Y-13651722D02*
X7936729Y-13661246D01*
X7936729Y-13661246D02*
X7927206Y-13680293D01*
X7927206Y-13680293D02*
X7927206Y-13718388D01*
X7927206Y-13718388D02*
X7936729Y-13737436D01*
X7936729Y-13737436D02*
X7946253Y-13746960D01*
X7946253Y-13746960D02*
X7965301Y-13756484D01*
X7965301Y-13756484D02*
X8003396Y-13756484D01*
X8003396Y-13756484D02*
X8022444Y-13746960D01*
X8022444Y-13746960D02*
X8031967Y-13737436D01*
X8031967Y-13737436D02*
X8041491Y-13718388D01*
X8041491Y-13718388D02*
X8041491Y-13680293D01*
X8041491Y-13680293D02*
X8031967Y-13661246D01*
X8031967Y-13661246D02*
X8022444Y-13651722D01*
X8022444Y-13651722D02*
X8003396Y-13642198D01*
X8117682Y-13575531D02*
X8127206Y-13566008D01*
X8127206Y-13566008D02*
X8146253Y-13556484D01*
X8146253Y-13556484D02*
X8193872Y-13556484D01*
X8193872Y-13556484D02*
X8212920Y-13566008D01*
X8212920Y-13566008D02*
X8222444Y-13575531D01*
X8222444Y-13575531D02*
X8231967Y-13594579D01*
X8231967Y-13594579D02*
X8231967Y-13613627D01*
X8231967Y-13613627D02*
X8222444Y-13642198D01*
X8222444Y-13642198D02*
X8108158Y-13756484D01*
X8108158Y-13756484D02*
X8231967Y-13756484D01*
X8298634Y-13556484D02*
X8431968Y-13556484D01*
X8431968Y-13556484D02*
X8346253Y-13756484D01*
X8498634Y-13556484D02*
X8498634Y-13594579D01*
X8574825Y-13556484D02*
X8574825Y-13594579D01*
X8870063Y-13832674D02*
X8860539Y-13823150D01*
X8860539Y-13823150D02*
X8841491Y-13794579D01*
X8841491Y-13794579D02*
X8831968Y-13775531D01*
X8831968Y-13775531D02*
X8822444Y-13746960D01*
X8822444Y-13746960D02*
X8812920Y-13699341D01*
X8812920Y-13699341D02*
X8812920Y-13661246D01*
X8812920Y-13661246D02*
X8822444Y-13613627D01*
X8822444Y-13613627D02*
X8831968Y-13585055D01*
X8831968Y-13585055D02*
X8841491Y-13566008D01*
X8841491Y-13566008D02*
X8860539Y-13537436D01*
X8860539Y-13537436D02*
X8870063Y-13527912D01*
X8927206Y-13556484D02*
X9051015Y-13556484D01*
X9051015Y-13556484D02*
X8984349Y-13632674D01*
X8984349Y-13632674D02*
X9012920Y-13632674D01*
X9012920Y-13632674D02*
X9031968Y-13642198D01*
X9031968Y-13642198D02*
X9041491Y-13651722D01*
X9041491Y-13651722D02*
X9051015Y-13670769D01*
X9051015Y-13670769D02*
X9051015Y-13718388D01*
X9051015Y-13718388D02*
X9041491Y-13737436D01*
X9041491Y-13737436D02*
X9031968Y-13746960D01*
X9031968Y-13746960D02*
X9012920Y-13756484D01*
X9012920Y-13756484D02*
X8955777Y-13756484D01*
X8955777Y-13756484D02*
X8936730Y-13746960D01*
X8936730Y-13746960D02*
X8927206Y-13737436D01*
X9289111Y-13756484D02*
X9289111Y-13556484D01*
X9374825Y-13756484D02*
X9374825Y-13651722D01*
X9374825Y-13651722D02*
X9365301Y-13632674D01*
X9365301Y-13632674D02*
X9346253Y-13623150D01*
X9346253Y-13623150D02*
X9317682Y-13623150D01*
X9317682Y-13623150D02*
X9298634Y-13632674D01*
X9298634Y-13632674D02*
X9289111Y-13642198D01*
X9498634Y-13756484D02*
X9479587Y-13746960D01*
X9479587Y-13746960D02*
X9470063Y-13737436D01*
X9470063Y-13737436D02*
X9460539Y-13718388D01*
X9460539Y-13718388D02*
X9460539Y-13661246D01*
X9460539Y-13661246D02*
X9470063Y-13642198D01*
X9470063Y-13642198D02*
X9479587Y-13632674D01*
X9479587Y-13632674D02*
X9498634Y-13623150D01*
X9498634Y-13623150D02*
X9527206Y-13623150D01*
X9527206Y-13623150D02*
X9546253Y-13632674D01*
X9546253Y-13632674D02*
X9555777Y-13642198D01*
X9555777Y-13642198D02*
X9565301Y-13661246D01*
X9565301Y-13661246D02*
X9565301Y-13718388D01*
X9565301Y-13718388D02*
X9555777Y-13737436D01*
X9555777Y-13737436D02*
X9546253Y-13746960D01*
X9546253Y-13746960D02*
X9527206Y-13756484D01*
X9527206Y-13756484D02*
X9498634Y-13756484D01*
X9679587Y-13756484D02*
X9660539Y-13746960D01*
X9660539Y-13746960D02*
X9651015Y-13727912D01*
X9651015Y-13727912D02*
X9651015Y-13556484D01*
X9831968Y-13746960D02*
X9812920Y-13756484D01*
X9812920Y-13756484D02*
X9774825Y-13756484D01*
X9774825Y-13756484D02*
X9755777Y-13746960D01*
X9755777Y-13746960D02*
X9746253Y-13727912D01*
X9746253Y-13727912D02*
X9746253Y-13651722D01*
X9746253Y-13651722D02*
X9755777Y-13632674D01*
X9755777Y-13632674D02*
X9774825Y-13623150D01*
X9774825Y-13623150D02*
X9812920Y-13623150D01*
X9812920Y-13623150D02*
X9831968Y-13632674D01*
X9831968Y-13632674D02*
X9841492Y-13651722D01*
X9841492Y-13651722D02*
X9841492Y-13670769D01*
X9841492Y-13670769D02*
X9746253Y-13689817D01*
X9917682Y-13746960D02*
X9936730Y-13756484D01*
X9936730Y-13756484D02*
X9974825Y-13756484D01*
X9974825Y-13756484D02*
X9993873Y-13746960D01*
X9993873Y-13746960D02*
X10003396Y-13727912D01*
X10003396Y-13727912D02*
X10003396Y-13718388D01*
X10003396Y-13718388D02*
X9993873Y-13699341D01*
X9993873Y-13699341D02*
X9974825Y-13689817D01*
X9974825Y-13689817D02*
X9946253Y-13689817D01*
X9946253Y-13689817D02*
X9927206Y-13680293D01*
X9927206Y-13680293D02*
X9917682Y-13661246D01*
X9917682Y-13661246D02*
X9917682Y-13651722D01*
X9917682Y-13651722D02*
X9927206Y-13632674D01*
X9927206Y-13632674D02*
X9946253Y-13623150D01*
X9946253Y-13623150D02*
X9974825Y-13623150D01*
X9974825Y-13623150D02*
X9993873Y-13632674D01*
X10070063Y-13832674D02*
X10079587Y-13823150D01*
X10079587Y-13823150D02*
X10098634Y-13794579D01*
X10098634Y-13794579D02*
X10108158Y-13775531D01*
X10108158Y-13775531D02*
X10117682Y-13746960D01*
X10117682Y-13746960D02*
X10127206Y-13699341D01*
X10127206Y-13699341D02*
X10127206Y-13661246D01*
X10127206Y-13661246D02*
X10117682Y-13613627D01*
X10117682Y-13613627D02*
X10108158Y-13585055D01*
X10108158Y-13585055D02*
X10098634Y-13566008D01*
X10098634Y-13566008D02*
X10079587Y-13537436D01*
X10079587Y-13537436D02*
X10070063Y-13527912D01*
X10431968Y-13832674D02*
X10422444Y-13823150D01*
X10422444Y-13823150D02*
X10403396Y-13794579D01*
X10403396Y-13794579D02*
X10393873Y-13775531D01*
X10393873Y-13775531D02*
X10384349Y-13746960D01*
X10384349Y-13746960D02*
X10374825Y-13699341D01*
X10374825Y-13699341D02*
X10374825Y-13661246D01*
X10374825Y-13661246D02*
X10384349Y-13613627D01*
X10384349Y-13613627D02*
X10393873Y-13585055D01*
X10393873Y-13585055D02*
X10403396Y-13566008D01*
X10403396Y-13566008D02*
X10422444Y-13537436D01*
X10422444Y-13537436D02*
X10431968Y-13527912D01*
X10508158Y-13623150D02*
X10508158Y-13756484D01*
X10508158Y-13642198D02*
X10517682Y-13632674D01*
X10517682Y-13632674D02*
X10536730Y-13623150D01*
X10536730Y-13623150D02*
X10565301Y-13623150D01*
X10565301Y-13623150D02*
X10584349Y-13632674D01*
X10584349Y-13632674D02*
X10593873Y-13651722D01*
X10593873Y-13651722D02*
X10593873Y-13756484D01*
X10717682Y-13756484D02*
X10698634Y-13746960D01*
X10698634Y-13746960D02*
X10689111Y-13737436D01*
X10689111Y-13737436D02*
X10679587Y-13718388D01*
X10679587Y-13718388D02*
X10679587Y-13661246D01*
X10679587Y-13661246D02*
X10689111Y-13642198D01*
X10689111Y-13642198D02*
X10698634Y-13632674D01*
X10698634Y-13632674D02*
X10717682Y-13623150D01*
X10717682Y-13623150D02*
X10746254Y-13623150D01*
X10746254Y-13623150D02*
X10765301Y-13632674D01*
X10765301Y-13632674D02*
X10774825Y-13642198D01*
X10774825Y-13642198D02*
X10784349Y-13661246D01*
X10784349Y-13661246D02*
X10784349Y-13718388D01*
X10784349Y-13718388D02*
X10774825Y-13737436D01*
X10774825Y-13737436D02*
X10765301Y-13746960D01*
X10765301Y-13746960D02*
X10746254Y-13756484D01*
X10746254Y-13756484D02*
X10717682Y-13756484D01*
X10841492Y-13623150D02*
X10917682Y-13623150D01*
X10870063Y-13556484D02*
X10870063Y-13727912D01*
X10870063Y-13727912D02*
X10879587Y-13746960D01*
X10879587Y-13746960D02*
X10898634Y-13756484D01*
X10898634Y-13756484D02*
X10917682Y-13756484D01*
X11136730Y-13623150D02*
X11136730Y-13823150D01*
X11136730Y-13632674D02*
X11155777Y-13623150D01*
X11155777Y-13623150D02*
X11193873Y-13623150D01*
X11193873Y-13623150D02*
X11212920Y-13632674D01*
X11212920Y-13632674D02*
X11222444Y-13642198D01*
X11222444Y-13642198D02*
X11231968Y-13661246D01*
X11231968Y-13661246D02*
X11231968Y-13718388D01*
X11231968Y-13718388D02*
X11222444Y-13737436D01*
X11222444Y-13737436D02*
X11212920Y-13746960D01*
X11212920Y-13746960D02*
X11193873Y-13756484D01*
X11193873Y-13756484D02*
X11155777Y-13756484D01*
X11155777Y-13756484D02*
X11136730Y-13746960D01*
X11346253Y-13756484D02*
X11327206Y-13746960D01*
X11327206Y-13746960D02*
X11317682Y-13727912D01*
X11317682Y-13727912D02*
X11317682Y-13556484D01*
X11508158Y-13756484D02*
X11508158Y-13651722D01*
X11508158Y-13651722D02*
X11498634Y-13632674D01*
X11498634Y-13632674D02*
X11479587Y-13623150D01*
X11479587Y-13623150D02*
X11441492Y-13623150D01*
X11441492Y-13623150D02*
X11422444Y-13632674D01*
X11508158Y-13746960D02*
X11489111Y-13756484D01*
X11489111Y-13756484D02*
X11441492Y-13756484D01*
X11441492Y-13756484D02*
X11422444Y-13746960D01*
X11422444Y-13746960D02*
X11412920Y-13727912D01*
X11412920Y-13727912D02*
X11412920Y-13708865D01*
X11412920Y-13708865D02*
X11422444Y-13689817D01*
X11422444Y-13689817D02*
X11441492Y-13680293D01*
X11441492Y-13680293D02*
X11489111Y-13680293D01*
X11489111Y-13680293D02*
X11508158Y-13670769D01*
X11574825Y-13623150D02*
X11651015Y-13623150D01*
X11603396Y-13556484D02*
X11603396Y-13727912D01*
X11603396Y-13727912D02*
X11612920Y-13746960D01*
X11612920Y-13746960D02*
X11631968Y-13756484D01*
X11631968Y-13756484D02*
X11651015Y-13756484D01*
X11793873Y-13746960D02*
X11774825Y-13756484D01*
X11774825Y-13756484D02*
X11736730Y-13756484D01*
X11736730Y-13756484D02*
X11717682Y-13746960D01*
X11717682Y-13746960D02*
X11708158Y-13727912D01*
X11708158Y-13727912D02*
X11708158Y-13651722D01*
X11708158Y-13651722D02*
X11717682Y-13632674D01*
X11717682Y-13632674D02*
X11736730Y-13623150D01*
X11736730Y-13623150D02*
X11774825Y-13623150D01*
X11774825Y-13623150D02*
X11793873Y-13632674D01*
X11793873Y-13632674D02*
X11803396Y-13651722D01*
X11803396Y-13651722D02*
X11803396Y-13670769D01*
X11803396Y-13670769D02*
X11708158Y-13689817D01*
X11974825Y-13756484D02*
X11974825Y-13556484D01*
X11974825Y-13746960D02*
X11955777Y-13756484D01*
X11955777Y-13756484D02*
X11917682Y-13756484D01*
X11917682Y-13756484D02*
X11898634Y-13746960D01*
X11898634Y-13746960D02*
X11889111Y-13737436D01*
X11889111Y-13737436D02*
X11879587Y-13718388D01*
X11879587Y-13718388D02*
X11879587Y-13661246D01*
X11879587Y-13661246D02*
X11889111Y-13642198D01*
X11889111Y-13642198D02*
X11898634Y-13632674D01*
X11898634Y-13632674D02*
X11917682Y-13623150D01*
X11917682Y-13623150D02*
X11955777Y-13623150D01*
X11955777Y-13623150D02*
X11974825Y-13632674D01*
X12051015Y-13832674D02*
X12060539Y-13823150D01*
X12060539Y-13823150D02*
X12079587Y-13794579D01*
X12079587Y-13794579D02*
X12089111Y-13775531D01*
X12089111Y-13775531D02*
X12098634Y-13746960D01*
X12098634Y-13746960D02*
X12108158Y-13699341D01*
X12108158Y-13699341D02*
X12108158Y-13661246D01*
X12108158Y-13661246D02*
X12098634Y-13613627D01*
X12098634Y-13613627D02*
X12089111Y-13585055D01*
X12089111Y-13585055D02*
X12079587Y-13566008D01*
X12079587Y-13566008D02*
X12060539Y-13537436D01*
X12060539Y-13537436D02*
X12051015Y-13527912D01*
M02*
