%TF.GenerationSoftware,KiCad,Pcbnew,7.0.7*%
%TF.CreationDate,2024-02-11T14:14:06-05:00*%
%TF.ProjectId,Teddi 2-11-24,54656464-6920-4322-9d31-312d32342e6b,rev?*%
%TF.SameCoordinates,Original*%
%TF.FileFunction,Soldermask,Bot*%
%TF.FilePolarity,Negative*%
%FSLAX46Y46*%
G04 Gerber Fmt 4.6, Leading zero omitted, Abs format (unit mm)*
G04 Created by KiCad (PCBNEW 7.0.7) date 2024-02-11 14:14:06*
%MOMM*%
%LPD*%
G01*
G04 APERTURE LIST*
G04 Aperture macros list*
%AMRoundRect*
0 Rectangle with rounded corners*
0 $1 Rounding radius*
0 $2 $3 $4 $5 $6 $7 $8 $9 X,Y pos of 4 corners*
0 Add a 4 corners polygon primitive as box body*
4,1,4,$2,$3,$4,$5,$6,$7,$8,$9,$2,$3,0*
0 Add four circle primitives for the rounded corners*
1,1,$1+$1,$2,$3*
1,1,$1+$1,$4,$5*
1,1,$1+$1,$6,$7*
1,1,$1+$1,$8,$9*
0 Add four rect primitives between the rounded corners*
20,1,$1+$1,$2,$3,$4,$5,0*
20,1,$1+$1,$4,$5,$6,$7,0*
20,1,$1+$1,$6,$7,$8,$9,0*
20,1,$1+$1,$8,$9,$2,$3,0*%
G04 Aperture macros list end*
%ADD10R,1.600000X1.600000*%
%ADD11C,1.600000*%
%ADD12R,1.300000X1.300000*%
%ADD13C,1.300000*%
%ADD14RoundRect,0.102000X-0.754000X-0.754000X0.754000X-0.754000X0.754000X0.754000X-0.754000X0.754000X0*%
%ADD15C,1.712000*%
%ADD16C,2.100000*%
%ADD17RoundRect,0.102000X-0.754000X0.754000X-0.754000X-0.754000X0.754000X-0.754000X0.754000X0.754000X0*%
%ADD18RoundRect,0.102000X-0.694000X-0.694000X0.694000X-0.694000X0.694000X0.694000X-0.694000X0.694000X0*%
%ADD19C,1.592000*%
%ADD20RoundRect,0.102000X-0.699000X-0.699000X0.699000X-0.699000X0.699000X0.699000X-0.699000X0.699000X0*%
%ADD21C,1.602000*%
G04 APERTURE END LIST*
D10*
%TO.C,IC1*%
X69270000Y-110150000D03*
D11*
X71810000Y-110150000D03*
X74350000Y-110150000D03*
X76890000Y-110150000D03*
X79430000Y-110150000D03*
X81970000Y-110150000D03*
X84510000Y-110150000D03*
X87050000Y-110150000D03*
X89590000Y-110150000D03*
X92130000Y-110150000D03*
X94670000Y-110150000D03*
X97210000Y-110150000D03*
X99750000Y-110150000D03*
X102290000Y-110150000D03*
X104830000Y-110150000D03*
X107370000Y-110150000D03*
X109910000Y-110150000D03*
X112450000Y-110150000D03*
X114990000Y-110150000D03*
X117530000Y-110150000D03*
X120070000Y-110150000D03*
X122610000Y-110150000D03*
X125150000Y-110150000D03*
X127690000Y-110150000D03*
X127690000Y-94910000D03*
X125150000Y-94910000D03*
X122610000Y-94910000D03*
X120070000Y-94910000D03*
X117530000Y-94910000D03*
X114990000Y-94910000D03*
X112450000Y-94910000D03*
X109910000Y-94910000D03*
X107370000Y-94910000D03*
X104830000Y-94910000D03*
X102290000Y-94910000D03*
X99750000Y-94910000D03*
X97210000Y-94910000D03*
X94670000Y-94910000D03*
X92130000Y-94910000D03*
X89590000Y-94910000D03*
X87050000Y-94910000D03*
X84510000Y-94910000D03*
X81970000Y-94910000D03*
X79430000Y-94910000D03*
X76890000Y-94910000D03*
X74350000Y-94910000D03*
X71810000Y-94910000D03*
X69270000Y-94910000D03*
X71810000Y-97450000D03*
X114990000Y-107610000D03*
X114990000Y-105070000D03*
X114990000Y-102530000D03*
X114990000Y-99990000D03*
X114990000Y-97450000D03*
D10*
X75569200Y-107099200D03*
D11*
X78109200Y-107099200D03*
X80649200Y-107099200D03*
X83189200Y-107099200D03*
X85729200Y-107099200D03*
D12*
X82240000Y-97348400D03*
D13*
X82240000Y-99348400D03*
X82240000Y-101348400D03*
X84240000Y-101348400D03*
X84240000Y-99348400D03*
X84240000Y-97348400D03*
X70000000Y-101260000D03*
X70000000Y-103800000D03*
%TD*%
D14*
%TO.C,J4*%
X103946000Y-123842000D03*
D15*
X106446000Y-123842000D03*
X108946000Y-123842000D03*
X111446000Y-123842000D03*
%TD*%
D16*
%TO.C,H2*%
X128651000Y-127254000D03*
%TD*%
%TO.C,H3*%
X93472000Y-81026000D03*
%TD*%
D14*
%TO.C,J1*%
X69402000Y-123969000D03*
D15*
X71902000Y-123969000D03*
X74402000Y-123969000D03*
X76902000Y-123969000D03*
%TD*%
D14*
%TO.C,J2*%
X86801000Y-123842000D03*
D15*
X89301000Y-123842000D03*
X91801000Y-123842000D03*
X94301000Y-123842000D03*
%TD*%
D17*
%TO.C,J6*%
X58801000Y-114808000D03*
D15*
X58801000Y-117308000D03*
X58801000Y-119808000D03*
X58801000Y-122308000D03*
%TD*%
D17*
%TO.C,J5*%
X58928000Y-99131100D03*
D15*
X58928000Y-101631100D03*
X58928000Y-104131100D03*
X58928000Y-106631100D03*
%TD*%
D16*
%TO.C,H1*%
X55753000Y-127635000D03*
%TD*%
D18*
%TO.C,U1*%
X102000000Y-86600000D03*
D19*
X103000000Y-82600000D03*
X104000000Y-86600000D03*
X105000000Y-82600000D03*
X106000000Y-86600000D03*
X107000000Y-82600000D03*
X108000000Y-86600000D03*
X109000000Y-82600000D03*
X110000000Y-86600000D03*
X111000000Y-82600000D03*
X112000000Y-86600000D03*
X113000000Y-82600000D03*
X114000000Y-86600000D03*
X115000000Y-82600000D03*
X116000000Y-86600000D03*
X117000000Y-82600000D03*
X118000000Y-86600000D03*
X119000000Y-82600000D03*
X120000000Y-86600000D03*
X121000000Y-82600000D03*
X122000000Y-86600000D03*
X123000000Y-82600000D03*
X124000000Y-86600000D03*
X125000000Y-82600000D03*
X126000000Y-86600000D03*
%TD*%
D17*
%TO.C,J7*%
X59038000Y-81781000D03*
D15*
X59038000Y-84281000D03*
X59038000Y-86781000D03*
X59038000Y-89281000D03*
%TD*%
D20*
%TO.C,J11*%
X69850000Y-80518000D03*
D21*
X72390000Y-80518000D03*
X74930000Y-80518000D03*
%TD*%
M02*
