ISO-10303-21;
HEADER;
FILE_DESCRIPTION(('for SolidWorks'),'2;1');
FILE_NAME('E:\\3D\\microstart-cad-board-only.step','2018-01-29T13:47:39'
  ,('MONSTER'),(''),'Open CASCADE STEP processor 6.6','DipTrace',
  'Unknown');
FILE_SCHEMA(('AUTOMOTIVE_DESIGN { 1 0 10303 214 1 1 1 1 }'));
ENDSEC;
DATA;
#1 = APPLICATION_PROTOCOL_DEFINITION('international standard',
  'automotive_design',2000,#2);
#2 = APPLICATION_CONTEXT(
  'core data for automotive mechanical design processes');
#3 = SHAPE_DEFINITION_REPRESENTATION(#4,#10);
#4 = PRODUCT_DEFINITION_SHAPE('','',#5);
#5 = PRODUCT_DEFINITION('design','',#6,#9);
#6 = PRODUCT_DEFINITION_FORMATION('','',#7);
#7 = PRODUCT('PCB_microstart-cad-board-only',
  'PCB_microstart-cad-board-only','',(#8));
#8 = PRODUCT_CONTEXT('',#2,'mechanical');
#9 = PRODUCT_DEFINITION_CONTEXT('part definition',#2,'design');
#10 = SHAPE_REPRESENTATION('',(#11,#15),#19);
#11 = AXIS2_PLACEMENT_3D('',#12,#13,#14);
#12 = CARTESIAN_POINT('',(0.E+000,0.E+000,0.E+000));
#13 = DIRECTION('',(0.E+000,0.E+000,1.));
#14 = DIRECTION('',(1.,0.E+000,-0.E+000));
#15 = AXIS2_PLACEMENT_3D('',#16,#17,#18);
#16 = CARTESIAN_POINT('',(0.E+000,0.E+000,0.E+000));
#17 = DIRECTION('',(0.E+000,0.E+000,1.));
#18 = DIRECTION('',(1.,0.E+000,-0.E+000));
#19 = ( GEOMETRIC_REPRESENTATION_CONTEXT(3) 
GLOBAL_UNCERTAINTY_ASSIGNED_CONTEXT((#23)) GLOBAL_UNIT_ASSIGNED_CONTEXT(
(#20,#21,#22)) REPRESENTATION_CONTEXT('Context #1',
  '3D Context with UNIT and UNCERTAINTY') );
#20 = ( LENGTH_UNIT() NAMED_UNIT(*) SI_UNIT(.MILLI.,.METRE.) );
#21 = ( NAMED_UNIT(*) PLANE_ANGLE_UNIT() SI_UNIT($,.RADIAN.) );
#22 = ( NAMED_UNIT(*) SI_UNIT($,.STERADIAN.) SOLID_ANGLE_UNIT() );
#23 = UNCERTAINTY_MEASURE_WITH_UNIT(LENGTH_MEASURE(1.E-004),#20,
  'distance_accuracy_value','confusion accuracy');
#24 = PRODUCT_RELATED_PRODUCT_CATEGORY('part',$,(#7));
#25 = ADVANCED_BREP_SHAPE_REPRESENTATION('',(#11,#26),#1346);
#26 = MANIFOLD_SOLID_BREP('',#27);
#27 = CLOSED_SHELL('',(#28,#68,#99,#130,#152,#185,#218,#251,#284,#317,
    #350,#383,#416,#449,#482,#515,#548,#581,#614,#647,#680,#713,#746,
    #779,#812,#845,#878,#911,#944,#977,#1010,#1043,#1076,#1109,#1142,
    #1244));
#28 = ADVANCED_FACE('',(#29),#63,.T.);
#29 = FACE_BOUND('',#30,.T.);
#30 = EDGE_LOOP('',(#31,#41,#49,#57));
#31 = ORIENTED_EDGE('',*,*,#32,.T.);
#32 = EDGE_CURVE('',#33,#35,#37,.T.);
#33 = VERTEX_POINT('',#34);
#34 = CARTESIAN_POINT('',(67.869100000001,59.307866666665,0.E+000));
#35 = VERTEX_POINT('',#36);
#36 = CARTESIAN_POINT('',(67.869100000001,59.307866666665,-1.6));
#37 = LINE('',#38,#39);
#38 = CARTESIAN_POINT('',(67.869100000001,59.307866666665,0.E+000));
#39 = VECTOR('',#40,1.);
#40 = DIRECTION('',(0.E+000,0.E+000,-1.));
#41 = ORIENTED_EDGE('',*,*,#42,.T.);
#42 = EDGE_CURVE('',#35,#43,#45,.T.);
#43 = VERTEX_POINT('',#44);
#44 = CARTESIAN_POINT('',(67.870766666664,43.844333333332,-1.6));
#45 = LINE('',#46,#47);
#46 = CARTESIAN_POINT('',(67.869100000001,59.307866666665,-1.6));
#47 = VECTOR('',#48,1.);
#48 = DIRECTION('',(1.07780454684E-004,-0.999999994192,0.E+000));
#49 = ORIENTED_EDGE('',*,*,#50,.F.);
#50 = EDGE_CURVE('',#51,#43,#53,.T.);
#51 = VERTEX_POINT('',#52);
#52 = CARTESIAN_POINT('',(67.870766666664,43.844333333332,0.E+000));
#53 = LINE('',#54,#55);
#54 = CARTESIAN_POINT('',(67.870766666664,43.844333333332,0.E+000));
#55 = VECTOR('',#56,1.);
#56 = DIRECTION('',(0.E+000,0.E+000,-1.));
#57 = ORIENTED_EDGE('',*,*,#58,.F.);
#58 = EDGE_CURVE('',#33,#51,#59,.T.);
#59 = LINE('',#60,#61);
#60 = CARTESIAN_POINT('',(67.869100000001,59.307866666665,0.E+000));
#61 = VECTOR('',#62,1.);
#62 = DIRECTION('',(1.07780454684E-004,-0.999999994192,0.E+000));
#63 = PLANE('',#64);
#64 = AXIS2_PLACEMENT_3D('',#65,#66,#67);
#65 = CARTESIAN_POINT('',(67.869100000001,59.307866666665,0.E+000));
#66 = DIRECTION('',(-0.999999994192,-1.07780454684E-004,-0.E+000));
#67 = DIRECTION('',(1.07780454684E-004,-0.999999994192,0.E+000));
#68 = ADVANCED_FACE('',(#69),#94,.T.);
#69 = FACE_BOUND('',#70,.T.);
#70 = EDGE_LOOP('',(#71,#72,#80,#88));
#71 = ORIENTED_EDGE('',*,*,#50,.T.);
#72 = ORIENTED_EDGE('',*,*,#73,.T.);
#73 = EDGE_CURVE('',#43,#74,#76,.T.);
#74 = VERTEX_POINT('',#75);
#75 = CARTESIAN_POINT('',(80.644999999999,43.815000000002,-1.6));
#76 = LINE('',#77,#78);
#77 = CARTESIAN_POINT('',(67.870766666664,43.844333333332,-1.6));
#78 = VECTOR('',#79,1.);
#79 = DIRECTION('',(0.999997363539,-2.296283090184E-003,0.E+000));
#80 = ORIENTED_EDGE('',*,*,#81,.F.);
#81 = EDGE_CURVE('',#82,#74,#84,.T.);
#82 = VERTEX_POINT('',#83);
#83 = CARTESIAN_POINT('',(80.644999999999,43.815000000002,0.E+000));
#84 = LINE('',#85,#86);
#85 = CARTESIAN_POINT('',(80.644999999999,43.815000000002,0.E+000));
#86 = VECTOR('',#87,1.);
#87 = DIRECTION('',(0.E+000,0.E+000,-1.));
#88 = ORIENTED_EDGE('',*,*,#89,.F.);
#89 = EDGE_CURVE('',#51,#82,#90,.T.);
#90 = LINE('',#91,#92);
#91 = CARTESIAN_POINT('',(67.870766666664,43.844333333332,0.E+000));
#92 = VECTOR('',#93,1.);
#93 = DIRECTION('',(0.999997363539,-2.296283090184E-003,0.E+000));
#94 = PLANE('',#95);
#95 = AXIS2_PLACEMENT_3D('',#96,#97,#98);
#96 = CARTESIAN_POINT('',(67.870766666664,43.844333333332,0.E+000));
#97 = DIRECTION('',(-2.296283090184E-003,-0.999997363539,-0.E+000));
#98 = DIRECTION('',(0.999997363539,-2.296283090184E-003,0.E+000));
#99 = ADVANCED_FACE('',(#100),#125,.T.);
#100 = FACE_BOUND('',#101,.T.);
#101 = EDGE_LOOP('',(#102,#103,#111,#119));
#102 = ORIENTED_EDGE('',*,*,#81,.T.);
#103 = ORIENTED_EDGE('',*,*,#104,.T.);
#104 = EDGE_CURVE('',#74,#105,#107,.T.);
#105 = VERTEX_POINT('',#106);
#106 = CARTESIAN_POINT('',(80.660199999998,59.297066666666,-1.6));
#107 = LINE('',#108,#109);
#108 = CARTESIAN_POINT('',(80.644999999999,43.815000000002,-1.6));
#109 = VECTOR('',#110,1.);
#110 = DIRECTION('',(9.817805982172E-004,0.999999518053,0.E+000));
#111 = ORIENTED_EDGE('',*,*,#112,.F.);
#112 = EDGE_CURVE('',#113,#105,#115,.T.);
#113 = VERTEX_POINT('',#114);
#114 = CARTESIAN_POINT('',(80.660199999998,59.297066666666,0.E+000));
#115 = LINE('',#116,#117);
#116 = CARTESIAN_POINT('',(80.660199999998,59.297066666666,0.E+000));
#117 = VECTOR('',#118,1.);
#118 = DIRECTION('',(0.E+000,0.E+000,-1.));
#119 = ORIENTED_EDGE('',*,*,#120,.F.);
#120 = EDGE_CURVE('',#82,#113,#121,.T.);
#121 = LINE('',#122,#123);
#122 = CARTESIAN_POINT('',(80.644999999999,43.815000000002,0.E+000));
#123 = VECTOR('',#124,1.);
#124 = DIRECTION('',(9.817805982172E-004,0.999999518053,0.E+000));
#125 = PLANE('',#126);
#126 = AXIS2_PLACEMENT_3D('',#127,#128,#129);
#127 = CARTESIAN_POINT('',(80.644999999999,43.815000000002,0.E+000));
#128 = DIRECTION('',(0.999999518053,-9.817805982172E-004,0.E+000));
#129 = DIRECTION('',(9.817805982172E-004,0.999999518053,0.E+000));
#130 = ADVANCED_FACE('',(#131),#147,.T.);
#131 = FACE_BOUND('',#132,.T.);
#132 = EDGE_LOOP('',(#133,#134,#140,#141));
#133 = ORIENTED_EDGE('',*,*,#112,.T.);
#134 = ORIENTED_EDGE('',*,*,#135,.T.);
#135 = EDGE_CURVE('',#105,#35,#136,.T.);
#136 = LINE('',#137,#138);
#137 = CARTESIAN_POINT('',(80.660199999998,59.297066666666,-1.6));
#138 = VECTOR('',#139,1.);
#139 = DIRECTION('',(-0.999999643548,8.443367770652E-004,0.E+000));
#140 = ORIENTED_EDGE('',*,*,#32,.F.);
#141 = ORIENTED_EDGE('',*,*,#142,.F.);
#142 = EDGE_CURVE('',#113,#33,#143,.T.);
#143 = LINE('',#144,#145);
#144 = CARTESIAN_POINT('',(80.660199999998,59.297066666666,0.E+000));
#145 = VECTOR('',#146,1.);
#146 = DIRECTION('',(-0.999999643548,8.443367770652E-004,0.E+000));
#147 = PLANE('',#148);
#148 = AXIS2_PLACEMENT_3D('',#149,#150,#151);
#149 = CARTESIAN_POINT('',(80.660199999998,59.297066666666,0.E+000));
#150 = DIRECTION('',(8.443367770652E-004,0.999999643548,0.E+000));
#151 = DIRECTION('',(-0.999999643548,8.443367770652E-004,0.E+000));
#152 = ADVANCED_FACE('',(#153),#180,.F.);
#153 = FACE_BOUND('',#154,.T.);
#154 = EDGE_LOOP('',(#155,#165,#172,#173));
#155 = ORIENTED_EDGE('',*,*,#156,.T.);
#156 = EDGE_CURVE('',#157,#159,#161,.T.);
#157 = VERTEX_POINT('',#158);
#158 = CARTESIAN_POINT('',(70.200266666669,57.041966666666,0.E+000));
#159 = VERTEX_POINT('',#160);
#160 = CARTESIAN_POINT('',(70.200266666669,57.041966666666,-1.6));
#161 = LINE('',#162,#163);
#162 = CARTESIAN_POINT('',(70.200266666669,57.041966666666,0.E+000));
#163 = VECTOR('',#164,1.);
#164 = DIRECTION('',(0.E+000,0.E+000,-1.));
#165 = ORIENTED_EDGE('',*,*,#166,.T.);
#166 = EDGE_CURVE('',#159,#159,#167,.T.);
#167 = CIRCLE('',#168,0.45);
#168 = AXIS2_PLACEMENT_3D('',#169,#170,#171);
#169 = CARTESIAN_POINT('',(69.75026666667,57.041966666666,-1.6));
#170 = DIRECTION('',(0.E+000,0.E+000,-1.));
#171 = DIRECTION('',(1.,0.E+000,0.E+000));
#172 = ORIENTED_EDGE('',*,*,#156,.F.);
#173 = ORIENTED_EDGE('',*,*,#174,.F.);
#174 = EDGE_CURVE('',#157,#157,#175,.T.);
#175 = CIRCLE('',#176,0.45);
#176 = AXIS2_PLACEMENT_3D('',#177,#178,#179);
#177 = CARTESIAN_POINT('',(69.75026666667,57.041966666666,0.E+000));
#178 = DIRECTION('',(0.E+000,0.E+000,-1.));
#179 = DIRECTION('',(1.,0.E+000,0.E+000));
#180 = CYLINDRICAL_SURFACE('',#181,0.45);
#181 = AXIS2_PLACEMENT_3D('',#182,#183,#184);
#182 = CARTESIAN_POINT('',(69.75026666667,57.041966666666,0.E+000));
#183 = DIRECTION('',(-0.E+000,-0.E+000,1.));
#184 = DIRECTION('',(1.,0.E+000,0.E+000));
#185 = ADVANCED_FACE('',(#186),#213,.F.);
#186 = FACE_BOUND('',#187,.T.);
#187 = EDGE_LOOP('',(#188,#198,#205,#206));
#188 = ORIENTED_EDGE('',*,*,#189,.T.);
#189 = EDGE_CURVE('',#190,#192,#194,.T.);
#190 = VERTEX_POINT('',#191);
#191 = CARTESIAN_POINT('',(72.740266666668,57.041966666666,0.E+000));
#192 = VERTEX_POINT('',#193);
#193 = CARTESIAN_POINT('',(72.740266666668,57.041966666666,-1.6));
#194 = LINE('',#195,#196);
#195 = CARTESIAN_POINT('',(72.740266666668,57.041966666666,0.E+000));
#196 = VECTOR('',#197,1.);
#197 = DIRECTION('',(0.E+000,0.E+000,-1.));
#198 = ORIENTED_EDGE('',*,*,#199,.T.);
#199 = EDGE_CURVE('',#192,#192,#200,.T.);
#200 = CIRCLE('',#201,0.45);
#201 = AXIS2_PLACEMENT_3D('',#202,#203,#204);
#202 = CARTESIAN_POINT('',(72.290266666668,57.041966666666,-1.6));
#203 = DIRECTION('',(0.E+000,0.E+000,-1.));
#204 = DIRECTION('',(1.,0.E+000,0.E+000));
#205 = ORIENTED_EDGE('',*,*,#189,.F.);
#206 = ORIENTED_EDGE('',*,*,#207,.F.);
#207 = EDGE_CURVE('',#190,#190,#208,.T.);
#208 = CIRCLE('',#209,0.45);
#209 = AXIS2_PLACEMENT_3D('',#210,#211,#212);
#210 = CARTESIAN_POINT('',(72.290266666668,57.041966666666,0.E+000));
#211 = DIRECTION('',(0.E+000,0.E+000,-1.));
#212 = DIRECTION('',(1.,0.E+000,0.E+000));
#213 = CYLINDRICAL_SURFACE('',#214,0.45);
#214 = AXIS2_PLACEMENT_3D('',#215,#216,#217);
#215 = CARTESIAN_POINT('',(72.290266666668,57.041966666666,0.E+000));
#216 = DIRECTION('',(-0.E+000,-0.E+000,1.));
#217 = DIRECTION('',(1.,0.E+000,0.E+000));
#218 = ADVANCED_FACE('',(#219),#246,.F.);
#219 = FACE_BOUND('',#220,.T.);
#220 = EDGE_LOOP('',(#221,#231,#238,#239));
#221 = ORIENTED_EDGE('',*,*,#222,.T.);
#222 = EDGE_CURVE('',#223,#225,#227,.T.);
#223 = VERTEX_POINT('',#224);
#224 = CARTESIAN_POINT('',(75.280266666666,57.041966666666,0.E+000));
#225 = VERTEX_POINT('',#226);
#226 = CARTESIAN_POINT('',(75.280266666666,57.041966666666,-1.6));
#227 = LINE('',#228,#229);
#228 = CARTESIAN_POINT('',(75.280266666666,57.041966666666,0.E+000));
#229 = VECTOR('',#230,1.);
#230 = DIRECTION('',(0.E+000,0.E+000,-1.));
#231 = ORIENTED_EDGE('',*,*,#232,.T.);
#232 = EDGE_CURVE('',#225,#225,#233,.T.);
#233 = CIRCLE('',#234,0.45);
#234 = AXIS2_PLACEMENT_3D('',#235,#236,#237);
#235 = CARTESIAN_POINT('',(74.830266666667,57.041966666666,-1.6));
#236 = DIRECTION('',(0.E+000,0.E+000,-1.));
#237 = DIRECTION('',(1.,0.E+000,0.E+000));
#238 = ORIENTED_EDGE('',*,*,#222,.F.);
#239 = ORIENTED_EDGE('',*,*,#240,.F.);
#240 = EDGE_CURVE('',#223,#223,#241,.T.);
#241 = CIRCLE('',#242,0.45);
#242 = AXIS2_PLACEMENT_3D('',#243,#244,#245);
#243 = CARTESIAN_POINT('',(74.830266666667,57.041966666666,0.E+000));
#244 = DIRECTION('',(0.E+000,0.E+000,-1.));
#245 = DIRECTION('',(1.,0.E+000,0.E+000));
#246 = CYLINDRICAL_SURFACE('',#247,0.45);
#247 = AXIS2_PLACEMENT_3D('',#248,#249,#250);
#248 = CARTESIAN_POINT('',(74.830266666667,57.041966666666,0.E+000));
#249 = DIRECTION('',(-0.E+000,-0.E+000,1.));
#250 = DIRECTION('',(1.,0.E+000,0.E+000));
#251 = ADVANCED_FACE('',(#252),#279,.F.);
#252 = FACE_BOUND('',#253,.T.);
#253 = EDGE_LOOP('',(#254,#264,#271,#272));
#254 = ORIENTED_EDGE('',*,*,#255,.T.);
#255 = EDGE_CURVE('',#256,#258,#260,.T.);
#256 = VERTEX_POINT('',#257);
#257 = CARTESIAN_POINT('',(71.57,45.720000000001,0.E+000));
#258 = VERTEX_POINT('',#259);
#259 = CARTESIAN_POINT('',(71.57,45.720000000001,-1.6));
#260 = LINE('',#261,#262);
#261 = CARTESIAN_POINT('',(71.57,45.720000000001,0.E+000));
#262 = VECTOR('',#263,1.);
#263 = DIRECTION('',(0.E+000,0.E+000,-1.));
#264 = ORIENTED_EDGE('',*,*,#265,.T.);
#265 = EDGE_CURVE('',#258,#258,#266,.T.);
#266 = CIRCLE('',#267,0.45);
#267 = AXIS2_PLACEMENT_3D('',#268,#269,#270);
#268 = CARTESIAN_POINT('',(71.12,45.720000000001,-1.6));
#269 = DIRECTION('',(0.E+000,0.E+000,-1.));
#270 = DIRECTION('',(1.,0.E+000,0.E+000));
#271 = ORIENTED_EDGE('',*,*,#255,.F.);
#272 = ORIENTED_EDGE('',*,*,#273,.F.);
#273 = EDGE_CURVE('',#256,#256,#274,.T.);
#274 = CIRCLE('',#275,0.45);
#275 = AXIS2_PLACEMENT_3D('',#276,#277,#278);
#276 = CARTESIAN_POINT('',(71.12,45.720000000001,0.E+000));
#277 = DIRECTION('',(0.E+000,0.E+000,-1.));
#278 = DIRECTION('',(1.,0.E+000,0.E+000));
#279 = CYLINDRICAL_SURFACE('',#280,0.45);
#280 = AXIS2_PLACEMENT_3D('',#281,#282,#283);
#281 = CARTESIAN_POINT('',(71.12,45.720000000001,0.E+000));
#282 = DIRECTION('',(-0.E+000,-0.E+000,1.));
#283 = DIRECTION('',(1.,0.E+000,0.E+000));
#284 = ADVANCED_FACE('',(#285),#312,.F.);
#285 = FACE_BOUND('',#286,.T.);
#286 = EDGE_LOOP('',(#287,#297,#304,#305));
#287 = ORIENTED_EDGE('',*,*,#288,.T.);
#288 = EDGE_CURVE('',#289,#291,#293,.T.);
#289 = VERTEX_POINT('',#290);
#290 = CARTESIAN_POINT('',(71.57,48.26,0.E+000));
#291 = VERTEX_POINT('',#292);
#292 = CARTESIAN_POINT('',(71.57,48.26,-1.6));
#293 = LINE('',#294,#295);
#294 = CARTESIAN_POINT('',(71.57,48.26,0.E+000));
#295 = VECTOR('',#296,1.);
#296 = DIRECTION('',(0.E+000,0.E+000,-1.));
#297 = ORIENTED_EDGE('',*,*,#298,.T.);
#298 = EDGE_CURVE('',#291,#291,#299,.T.);
#299 = CIRCLE('',#300,0.45);
#300 = AXIS2_PLACEMENT_3D('',#301,#302,#303);
#301 = CARTESIAN_POINT('',(71.12,48.26,-1.6));
#302 = DIRECTION('',(0.E+000,0.E+000,-1.));
#303 = DIRECTION('',(1.,0.E+000,0.E+000));
#304 = ORIENTED_EDGE('',*,*,#288,.F.);
#305 = ORIENTED_EDGE('',*,*,#306,.F.);
#306 = EDGE_CURVE('',#289,#289,#307,.T.);
#307 = CIRCLE('',#308,0.45);
#308 = AXIS2_PLACEMENT_3D('',#309,#310,#311);
#309 = CARTESIAN_POINT('',(71.12,48.26,0.E+000));
#310 = DIRECTION('',(0.E+000,0.E+000,-1.));
#311 = DIRECTION('',(1.,0.E+000,0.E+000));
#312 = CYLINDRICAL_SURFACE('',#313,0.45);
#313 = AXIS2_PLACEMENT_3D('',#314,#315,#316);
#314 = CARTESIAN_POINT('',(71.12,48.26,0.E+000));
#315 = DIRECTION('',(-0.E+000,-0.E+000,1.));
#316 = DIRECTION('',(1.,0.E+000,0.E+000));
#317 = ADVANCED_FACE('',(#318),#345,.F.);
#318 = FACE_BOUND('',#319,.T.);
#319 = EDGE_LOOP('',(#320,#330,#337,#338));
#320 = ORIENTED_EDGE('',*,*,#321,.T.);
#321 = EDGE_CURVE('',#322,#324,#326,.T.);
#322 = VERTEX_POINT('',#323);
#323 = CARTESIAN_POINT('',(74.109999999998,45.720000000001,0.E+000));
#324 = VERTEX_POINT('',#325);
#325 = CARTESIAN_POINT('',(74.109999999998,45.720000000001,-1.6));
#326 = LINE('',#327,#328);
#327 = CARTESIAN_POINT('',(74.109999999998,45.720000000001,0.E+000));
#328 = VECTOR('',#329,1.);
#329 = DIRECTION('',(0.E+000,0.E+000,-1.));
#330 = ORIENTED_EDGE('',*,*,#331,.T.);
#331 = EDGE_CURVE('',#324,#324,#332,.T.);
#332 = CIRCLE('',#333,0.45);
#333 = AXIS2_PLACEMENT_3D('',#334,#335,#336);
#334 = CARTESIAN_POINT('',(73.659999999999,45.720000000001,-1.6));
#335 = DIRECTION('',(0.E+000,0.E+000,-1.));
#336 = DIRECTION('',(1.,0.E+000,0.E+000));
#337 = ORIENTED_EDGE('',*,*,#321,.F.);
#338 = ORIENTED_EDGE('',*,*,#339,.F.);
#339 = EDGE_CURVE('',#322,#322,#340,.T.);
#340 = CIRCLE('',#341,0.45);
#341 = AXIS2_PLACEMENT_3D('',#342,#343,#344);
#342 = CARTESIAN_POINT('',(73.659999999999,45.720000000001,0.E+000));
#343 = DIRECTION('',(0.E+000,0.E+000,-1.));
#344 = DIRECTION('',(1.,0.E+000,0.E+000));
#345 = CYLINDRICAL_SURFACE('',#346,0.45);
#346 = AXIS2_PLACEMENT_3D('',#347,#348,#349);
#347 = CARTESIAN_POINT('',(73.659999999999,45.720000000001,0.E+000));
#348 = DIRECTION('',(-0.E+000,-0.E+000,1.));
#349 = DIRECTION('',(1.,0.E+000,0.E+000));
#350 = ADVANCED_FACE('',(#351),#378,.F.);
#351 = FACE_BOUND('',#352,.T.);
#352 = EDGE_LOOP('',(#353,#363,#370,#371));
#353 = ORIENTED_EDGE('',*,*,#354,.T.);
#354 = EDGE_CURVE('',#355,#357,#359,.T.);
#355 = VERTEX_POINT('',#356);
#356 = CARTESIAN_POINT('',(75.639666666667,53.853833333332,0.E+000));
#357 = VERTEX_POINT('',#358);
#358 = CARTESIAN_POINT('',(75.639666666667,53.853833333332,-1.6));
#359 = LINE('',#360,#361);
#360 = CARTESIAN_POINT('',(75.639666666667,53.853833333332,0.E+000));
#361 = VECTOR('',#362,1.);
#362 = DIRECTION('',(0.E+000,0.E+000,-1.));
#363 = ORIENTED_EDGE('',*,*,#364,.T.);
#364 = EDGE_CURVE('',#357,#357,#365,.T.);
#365 = CIRCLE('',#366,0.243);
#366 = AXIS2_PLACEMENT_3D('',#367,#368,#369);
#367 = CARTESIAN_POINT('',(75.396666666667,53.853833333332,-1.6));
#368 = DIRECTION('',(0.E+000,0.E+000,-1.));
#369 = DIRECTION('',(1.,0.E+000,0.E+000));
#370 = ORIENTED_EDGE('',*,*,#354,.F.);
#371 = ORIENTED_EDGE('',*,*,#372,.F.);
#372 = EDGE_CURVE('',#355,#355,#373,.T.);
#373 = CIRCLE('',#374,0.243);
#374 = AXIS2_PLACEMENT_3D('',#375,#376,#377);
#375 = CARTESIAN_POINT('',(75.396666666667,53.853833333332,0.E+000));
#376 = DIRECTION('',(0.E+000,0.E+000,-1.));
#377 = DIRECTION('',(1.,0.E+000,0.E+000));
#378 = CYLINDRICAL_SURFACE('',#379,0.243);
#379 = AXIS2_PLACEMENT_3D('',#380,#381,#382);
#380 = CARTESIAN_POINT('',(75.396666666667,53.853833333332,0.E+000));
#381 = DIRECTION('',(-0.E+000,-0.E+000,1.));
#382 = DIRECTION('',(1.,0.E+000,0.E+000));
#383 = ADVANCED_FACE('',(#384),#411,.F.);
#384 = FACE_BOUND('',#385,.T.);
#385 = EDGE_LOOP('',(#386,#396,#403,#404));
#386 = ORIENTED_EDGE('',*,*,#387,.T.);
#387 = EDGE_CURVE('',#388,#390,#392,.T.);
#388 = VERTEX_POINT('',#389);
#389 = CARTESIAN_POINT('',(68.838133333331,46.952033333335,0.E+000));
#390 = VERTEX_POINT('',#391);
#391 = CARTESIAN_POINT('',(68.838133333331,46.952033333335,-1.6));
#392 = LINE('',#393,#394);
#393 = CARTESIAN_POINT('',(68.838133333331,46.952033333335,0.E+000));
#394 = VECTOR('',#395,1.);
#395 = DIRECTION('',(0.E+000,0.E+000,-1.));
#396 = ORIENTED_EDGE('',*,*,#397,.T.);
#397 = EDGE_CURVE('',#390,#390,#398,.T.);
#398 = CIRCLE('',#399,0.243);
#399 = AXIS2_PLACEMENT_3D('',#400,#401,#402);
#400 = CARTESIAN_POINT('',(68.595133333331,46.952033333335,-1.6));
#401 = DIRECTION('',(0.E+000,0.E+000,-1.));
#402 = DIRECTION('',(1.,0.E+000,0.E+000));
#403 = ORIENTED_EDGE('',*,*,#387,.F.);
#404 = ORIENTED_EDGE('',*,*,#405,.F.);
#405 = EDGE_CURVE('',#388,#388,#406,.T.);
#406 = CIRCLE('',#407,0.243);
#407 = AXIS2_PLACEMENT_3D('',#408,#409,#410);
#408 = CARTESIAN_POINT('',(68.595133333331,46.952033333335,0.E+000));
#409 = DIRECTION('',(0.E+000,0.E+000,-1.));
#410 = DIRECTION('',(1.,0.E+000,0.E+000));
#411 = CYLINDRICAL_SURFACE('',#412,0.243);
#412 = AXIS2_PLACEMENT_3D('',#413,#414,#415);
#413 = CARTESIAN_POINT('',(68.595133333331,46.952033333335,0.E+000));
#414 = DIRECTION('',(-0.E+000,-0.E+000,1.));
#415 = DIRECTION('',(1.,0.E+000,0.E+000));
#416 = ADVANCED_FACE('',(#417),#444,.F.);
#417 = FACE_BOUND('',#418,.T.);
#418 = EDGE_LOOP('',(#419,#429,#436,#437));
#419 = ORIENTED_EDGE('',*,*,#420,.T.);
#420 = EDGE_CURVE('',#421,#423,#425,.T.);
#421 = VERTEX_POINT('',#422);
#422 = CARTESIAN_POINT('',(72.874366666668,49.621566666669,0.E+000));
#423 = VERTEX_POINT('',#424);
#424 = CARTESIAN_POINT('',(72.874366666668,49.621566666669,-1.6));
#425 = LINE('',#426,#427);
#426 = CARTESIAN_POINT('',(72.874366666668,49.621566666669,0.E+000));
#427 = VECTOR('',#428,1.);
#428 = DIRECTION('',(0.E+000,0.E+000,-1.));
#429 = ORIENTED_EDGE('',*,*,#430,.T.);
#430 = EDGE_CURVE('',#423,#423,#431,.T.);
#431 = CIRCLE('',#432,0.243);
#432 = AXIS2_PLACEMENT_3D('',#433,#434,#435);
#433 = CARTESIAN_POINT('',(72.631366666668,49.621566666669,-1.6));
#434 = DIRECTION('',(0.E+000,0.E+000,-1.));
#435 = DIRECTION('',(1.,0.E+000,0.E+000));
#436 = ORIENTED_EDGE('',*,*,#420,.F.);
#437 = ORIENTED_EDGE('',*,*,#438,.F.);
#438 = EDGE_CURVE('',#421,#421,#439,.T.);
#439 = CIRCLE('',#440,0.243);
#440 = AXIS2_PLACEMENT_3D('',#441,#442,#443);
#441 = CARTESIAN_POINT('',(72.631366666668,49.621566666669,0.E+000));
#442 = DIRECTION('',(0.E+000,0.E+000,-1.));
#443 = DIRECTION('',(1.,0.E+000,0.E+000));
#444 = CYLINDRICAL_SURFACE('',#445,0.243);
#445 = AXIS2_PLACEMENT_3D('',#446,#447,#448);
#446 = CARTESIAN_POINT('',(72.631366666668,49.621566666669,0.E+000));
#447 = DIRECTION('',(-0.E+000,-0.E+000,1.));
#448 = DIRECTION('',(1.,0.E+000,0.E+000));
#449 = ADVANCED_FACE('',(#450),#477,.F.);
#450 = FACE_BOUND('',#451,.T.);
#451 = EDGE_LOOP('',(#452,#462,#469,#470));
#452 = ORIENTED_EDGE('',*,*,#453,.T.);
#453 = EDGE_CURVE('',#454,#456,#458,.T.);
#454 = VERTEX_POINT('',#455);
#455 = CARTESIAN_POINT('',(77.743733333334,56.593533333333,0.E+000));
#456 = VERTEX_POINT('',#457);
#457 = CARTESIAN_POINT('',(77.743733333334,56.593533333333,-1.6));
#458 = LINE('',#459,#460);
#459 = CARTESIAN_POINT('',(77.743733333334,56.593533333333,0.E+000));
#460 = VECTOR('',#461,1.);
#461 = DIRECTION('',(0.E+000,0.E+000,-1.));
#462 = ORIENTED_EDGE('',*,*,#463,.T.);
#463 = EDGE_CURVE('',#456,#456,#464,.T.);
#464 = CIRCLE('',#465,0.243);
#465 = AXIS2_PLACEMENT_3D('',#466,#467,#468);
#466 = CARTESIAN_POINT('',(77.500733333334,56.593533333333,-1.6));
#467 = DIRECTION('',(0.E+000,0.E+000,-1.));
#468 = DIRECTION('',(1.,0.E+000,0.E+000));
#469 = ORIENTED_EDGE('',*,*,#453,.F.);
#470 = ORIENTED_EDGE('',*,*,#471,.F.);
#471 = EDGE_CURVE('',#454,#454,#472,.T.);
#472 = CIRCLE('',#473,0.243);
#473 = AXIS2_PLACEMENT_3D('',#474,#475,#476);
#474 = CARTESIAN_POINT('',(77.500733333334,56.593533333333,0.E+000));
#475 = DIRECTION('',(0.E+000,0.E+000,-1.));
#476 = DIRECTION('',(1.,0.E+000,0.E+000));
#477 = CYLINDRICAL_SURFACE('',#478,0.243);
#478 = AXIS2_PLACEMENT_3D('',#479,#480,#481);
#479 = CARTESIAN_POINT('',(77.500733333334,56.593533333333,0.E+000));
#480 = DIRECTION('',(-0.E+000,-0.E+000,1.));
#481 = DIRECTION('',(1.,0.E+000,0.E+000));
#482 = ADVANCED_FACE('',(#483),#510,.F.);
#483 = FACE_BOUND('',#484,.T.);
#484 = EDGE_LOOP('',(#485,#495,#502,#503));
#485 = ORIENTED_EDGE('',*,*,#486,.T.);
#486 = EDGE_CURVE('',#487,#489,#491,.T.);
#487 = VERTEX_POINT('',#488);
#488 = CARTESIAN_POINT('',(70.191333333334,53.4474,0.E+000));
#489 = VERTEX_POINT('',#490);
#490 = CARTESIAN_POINT('',(70.191333333334,53.4474,-1.6));
#491 = LINE('',#492,#493);
#492 = CARTESIAN_POINT('',(70.191333333334,53.4474,0.E+000));
#493 = VECTOR('',#494,1.);
#494 = DIRECTION('',(0.E+000,0.E+000,-1.));
#495 = ORIENTED_EDGE('',*,*,#496,.T.);
#496 = EDGE_CURVE('',#489,#489,#497,.T.);
#497 = CIRCLE('',#498,0.243);
#498 = AXIS2_PLACEMENT_3D('',#499,#500,#501);
#499 = CARTESIAN_POINT('',(69.948333333334,53.4474,-1.6));
#500 = DIRECTION('',(0.E+000,0.E+000,-1.));
#501 = DIRECTION('',(1.,0.E+000,0.E+000));
#502 = ORIENTED_EDGE('',*,*,#486,.F.);
#503 = ORIENTED_EDGE('',*,*,#504,.F.);
#504 = EDGE_CURVE('',#487,#487,#505,.T.);
#505 = CIRCLE('',#506,0.243);
#506 = AXIS2_PLACEMENT_3D('',#507,#508,#509);
#507 = CARTESIAN_POINT('',(69.948333333334,53.4474,0.E+000));
#508 = DIRECTION('',(0.E+000,0.E+000,-1.));
#509 = DIRECTION('',(1.,0.E+000,0.E+000));
#510 = CYLINDRICAL_SURFACE('',#511,0.243);
#511 = AXIS2_PLACEMENT_3D('',#512,#513,#514);
#512 = CARTESIAN_POINT('',(69.948333333334,53.4474,0.E+000));
#513 = DIRECTION('',(-0.E+000,-0.E+000,1.));
#514 = DIRECTION('',(1.,0.E+000,0.E+000));
#515 = ADVANCED_FACE('',(#516),#543,.F.);
#516 = FACE_BOUND('',#517,.T.);
#517 = EDGE_LOOP('',(#518,#528,#535,#536));
#518 = ORIENTED_EDGE('',*,*,#519,.T.);
#519 = EDGE_CURVE('',#520,#522,#524,.T.);
#520 = VERTEX_POINT('',#521);
#521 = CARTESIAN_POINT('',(80.200466666664,58.422266666666,0.E+000));
#522 = VERTEX_POINT('',#523);
#523 = CARTESIAN_POINT('',(80.200466666664,58.422266666666,-1.6));
#524 = LINE('',#525,#526);
#525 = CARTESIAN_POINT('',(80.200466666664,58.422266666666,0.E+000));
#526 = VECTOR('',#527,1.);
#527 = DIRECTION('',(0.E+000,0.E+000,-1.));
#528 = ORIENTED_EDGE('',*,*,#529,.T.);
#529 = EDGE_CURVE('',#522,#522,#530,.T.);
#530 = CIRCLE('',#531,0.243);
#531 = AXIS2_PLACEMENT_3D('',#532,#533,#534);
#532 = CARTESIAN_POINT('',(79.957466666664,58.422266666666,-1.6));
#533 = DIRECTION('',(0.E+000,0.E+000,-1.));
#534 = DIRECTION('',(1.,0.E+000,0.E+000));
#535 = ORIENTED_EDGE('',*,*,#519,.F.);
#536 = ORIENTED_EDGE('',*,*,#537,.F.);
#537 = EDGE_CURVE('',#520,#520,#538,.T.);
#538 = CIRCLE('',#539,0.243);
#539 = AXIS2_PLACEMENT_3D('',#540,#541,#542);
#540 = CARTESIAN_POINT('',(79.957466666664,58.422266666666,0.E+000));
#541 = DIRECTION('',(0.E+000,0.E+000,-1.));
#542 = DIRECTION('',(1.,0.E+000,0.E+000));
#543 = CYLINDRICAL_SURFACE('',#544,0.243);
#544 = AXIS2_PLACEMENT_3D('',#545,#546,#547);
#545 = CARTESIAN_POINT('',(79.957466666664,58.422266666666,0.E+000));
#546 = DIRECTION('',(-0.E+000,-0.E+000,1.));
#547 = DIRECTION('',(1.,0.E+000,0.E+000));
#548 = ADVANCED_FACE('',(#549),#576,.F.);
#549 = FACE_BOUND('',#550,.T.);
#550 = EDGE_LOOP('',(#551,#561,#568,#569));
#551 = ORIENTED_EDGE('',*,*,#552,.T.);
#552 = EDGE_CURVE('',#553,#555,#557,.T.);
#553 = VERTEX_POINT('',#554);
#554 = CARTESIAN_POINT('',(77.319433333335,50.184199999998,0.E+000));
#555 = VERTEX_POINT('',#556);
#556 = CARTESIAN_POINT('',(77.319433333335,50.184199999998,-1.6));
#557 = LINE('',#558,#559);
#558 = CARTESIAN_POINT('',(77.319433333335,50.184199999998,0.E+000));
#559 = VECTOR('',#560,1.);
#560 = DIRECTION('',(0.E+000,0.E+000,-1.));
#561 = ORIENTED_EDGE('',*,*,#562,.T.);
#562 = EDGE_CURVE('',#555,#555,#563,.T.);
#563 = CIRCLE('',#564,0.243);
#564 = AXIS2_PLACEMENT_3D('',#565,#566,#567);
#565 = CARTESIAN_POINT('',(77.076433333335,50.184199999998,-1.6));
#566 = DIRECTION('',(0.E+000,0.E+000,-1.));
#567 = DIRECTION('',(1.,0.E+000,0.E+000));
#568 = ORIENTED_EDGE('',*,*,#552,.F.);
#569 = ORIENTED_EDGE('',*,*,#570,.F.);
#570 = EDGE_CURVE('',#553,#553,#571,.T.);
#571 = CIRCLE('',#572,0.243);
#572 = AXIS2_PLACEMENT_3D('',#573,#574,#575);
#573 = CARTESIAN_POINT('',(77.076433333335,50.184199999998,0.E+000));
#574 = DIRECTION('',(0.E+000,0.E+000,-1.));
#575 = DIRECTION('',(1.,0.E+000,0.E+000));
#576 = CYLINDRICAL_SURFACE('',#577,0.243);
#577 = AXIS2_PLACEMENT_3D('',#578,#579,#580);
#578 = CARTESIAN_POINT('',(77.076433333335,50.184199999998,0.E+000));
#579 = DIRECTION('',(-0.E+000,-0.E+000,1.));
#580 = DIRECTION('',(1.,0.E+000,0.E+000));
#581 = ADVANCED_FACE('',(#582),#609,.F.);
#582 = FACE_BOUND('',#583,.T.);
#583 = EDGE_LOOP('',(#584,#594,#601,#602));
#584 = ORIENTED_EDGE('',*,*,#585,.T.);
#585 = EDGE_CURVE('',#586,#588,#590,.T.);
#586 = VERTEX_POINT('',#587);
#587 = CARTESIAN_POINT('',(70.547233333333,51.544133333334,0.E+000));
#588 = VERTEX_POINT('',#589);
#589 = CARTESIAN_POINT('',(70.547233333333,51.544133333334,-1.6));
#590 = LINE('',#591,#592);
#591 = CARTESIAN_POINT('',(70.547233333333,51.544133333334,0.E+000));
#592 = VECTOR('',#593,1.);
#593 = DIRECTION('',(0.E+000,0.E+000,-1.));
#594 = ORIENTED_EDGE('',*,*,#595,.T.);
#595 = EDGE_CURVE('',#588,#588,#596,.T.);
#596 = CIRCLE('',#597,0.243);
#597 = AXIS2_PLACEMENT_3D('',#598,#599,#600);
#598 = CARTESIAN_POINT('',(70.304233333334,51.544133333334,-1.6));
#599 = DIRECTION('',(0.E+000,0.E+000,-1.));
#600 = DIRECTION('',(1.,0.E+000,0.E+000));
#601 = ORIENTED_EDGE('',*,*,#585,.F.);
#602 = ORIENTED_EDGE('',*,*,#603,.F.);
#603 = EDGE_CURVE('',#586,#586,#604,.T.);
#604 = CIRCLE('',#605,0.243);
#605 = AXIS2_PLACEMENT_3D('',#606,#607,#608);
#606 = CARTESIAN_POINT('',(70.304233333334,51.544133333334,0.E+000));
#607 = DIRECTION('',(0.E+000,0.E+000,-1.));
#608 = DIRECTION('',(1.,0.E+000,0.E+000));
#609 = CYLINDRICAL_SURFACE('',#610,0.243);
#610 = AXIS2_PLACEMENT_3D('',#611,#612,#613);
#611 = CARTESIAN_POINT('',(70.304233333334,51.544133333334,0.E+000));
#612 = DIRECTION('',(-0.E+000,-0.E+000,1.));
#613 = DIRECTION('',(1.,0.E+000,0.E+000));
#614 = ADVANCED_FACE('',(#615),#642,.F.);
#615 = FACE_BOUND('',#616,.T.);
#616 = EDGE_LOOP('',(#617,#627,#634,#635));
#617 = ORIENTED_EDGE('',*,*,#618,.T.);
#618 = EDGE_CURVE('',#619,#621,#623,.T.);
#619 = VERTEX_POINT('',#620);
#620 = CARTESIAN_POINT('',(72.346500000002,47.643133333331,0.E+000));
#621 = VERTEX_POINT('',#622);
#622 = CARTESIAN_POINT('',(72.346500000002,47.643133333331,-1.6));
#623 = LINE('',#624,#625);
#624 = CARTESIAN_POINT('',(72.346500000002,47.643133333331,0.E+000));
#625 = VECTOR('',#626,1.);
#626 = DIRECTION('',(0.E+000,0.E+000,-1.));
#627 = ORIENTED_EDGE('',*,*,#628,.T.);
#628 = EDGE_CURVE('',#621,#621,#629,.T.);
#629 = CIRCLE('',#630,0.243);
#630 = AXIS2_PLACEMENT_3D('',#631,#632,#633);
#631 = CARTESIAN_POINT('',(72.103500000002,47.643133333331,-1.6));
#632 = DIRECTION('',(0.E+000,0.E+000,-1.));
#633 = DIRECTION('',(1.,0.E+000,0.E+000));
#634 = ORIENTED_EDGE('',*,*,#618,.F.);
#635 = ORIENTED_EDGE('',*,*,#636,.F.);
#636 = EDGE_CURVE('',#619,#619,#637,.T.);
#637 = CIRCLE('',#638,0.243);
#638 = AXIS2_PLACEMENT_3D('',#639,#640,#641);
#639 = CARTESIAN_POINT('',(72.103500000002,47.643133333331,0.E+000));
#640 = DIRECTION('',(0.E+000,0.E+000,-1.));
#641 = DIRECTION('',(1.,0.E+000,0.E+000));
#642 = CYLINDRICAL_SURFACE('',#643,0.243);
#643 = AXIS2_PLACEMENT_3D('',#644,#645,#646);
#644 = CARTESIAN_POINT('',(72.103500000002,47.643133333331,0.E+000));
#645 = DIRECTION('',(-0.E+000,-0.E+000,1.));
#646 = DIRECTION('',(1.,0.E+000,0.E+000));
#647 = ADVANCED_FACE('',(#648),#675,.F.);
#648 = FACE_BOUND('',#649,.T.);
#649 = EDGE_LOOP('',(#650,#660,#667,#668));
#650 = ORIENTED_EDGE('',*,*,#651,.T.);
#651 = EDGE_CURVE('',#652,#654,#656,.T.);
#652 = VERTEX_POINT('',#653);
#653 = CARTESIAN_POINT('',(71.1275,55.483800000002,0.E+000));
#654 = VERTEX_POINT('',#655);
#655 = CARTESIAN_POINT('',(71.1275,55.483800000002,-1.6));
#656 = LINE('',#657,#658);
#657 = CARTESIAN_POINT('',(71.1275,55.483800000002,0.E+000));
#658 = VECTOR('',#659,1.);
#659 = DIRECTION('',(0.E+000,0.E+000,-1.));
#660 = ORIENTED_EDGE('',*,*,#661,.T.);
#661 = EDGE_CURVE('',#654,#654,#662,.T.);
#662 = CIRCLE('',#663,0.243);
#663 = AXIS2_PLACEMENT_3D('',#664,#665,#666);
#664 = CARTESIAN_POINT('',(70.8845,55.483800000002,-1.6));
#665 = DIRECTION('',(0.E+000,0.E+000,-1.));
#666 = DIRECTION('',(1.,0.E+000,0.E+000));
#667 = ORIENTED_EDGE('',*,*,#651,.F.);
#668 = ORIENTED_EDGE('',*,*,#669,.F.);
#669 = EDGE_CURVE('',#652,#652,#670,.T.);
#670 = CIRCLE('',#671,0.243);
#671 = AXIS2_PLACEMENT_3D('',#672,#673,#674);
#672 = CARTESIAN_POINT('',(70.8845,55.483800000002,0.E+000));
#673 = DIRECTION('',(0.E+000,0.E+000,-1.));
#674 = DIRECTION('',(1.,0.E+000,0.E+000));
#675 = CYLINDRICAL_SURFACE('',#676,0.243);
#676 = AXIS2_PLACEMENT_3D('',#677,#678,#679);
#677 = CARTESIAN_POINT('',(70.8845,55.483800000002,0.E+000));
#678 = DIRECTION('',(-0.E+000,-0.E+000,1.));
#679 = DIRECTION('',(1.,0.E+000,0.E+000));
#680 = ADVANCED_FACE('',(#681),#708,.F.);
#681 = FACE_BOUND('',#682,.T.);
#682 = EDGE_LOOP('',(#683,#693,#700,#701));
#683 = ORIENTED_EDGE('',*,*,#684,.T.);
#684 = EDGE_CURVE('',#685,#687,#689,.T.);
#685 = VERTEX_POINT('',#686);
#686 = CARTESIAN_POINT('',(79.688133333332,55.655766666663,0.E+000));
#687 = VERTEX_POINT('',#688);
#688 = CARTESIAN_POINT('',(79.688133333332,55.655766666663,-1.6));
#689 = LINE('',#690,#691);
#690 = CARTESIAN_POINT('',(79.688133333332,55.655766666663,0.E+000));
#691 = VECTOR('',#692,1.);
#692 = DIRECTION('',(0.E+000,0.E+000,-1.));
#693 = ORIENTED_EDGE('',*,*,#694,.T.);
#694 = EDGE_CURVE('',#687,#687,#695,.T.);
#695 = CIRCLE('',#696,0.45);
#696 = AXIS2_PLACEMENT_3D('',#697,#698,#699);
#697 = CARTESIAN_POINT('',(79.238133333332,55.655766666663,-1.6));
#698 = DIRECTION('',(0.E+000,0.E+000,-1.));
#699 = DIRECTION('',(1.,0.E+000,0.E+000));
#700 = ORIENTED_EDGE('',*,*,#684,.F.);
#701 = ORIENTED_EDGE('',*,*,#702,.F.);
#702 = EDGE_CURVE('',#685,#685,#703,.T.);
#703 = CIRCLE('',#704,0.45);
#704 = AXIS2_PLACEMENT_3D('',#705,#706,#707);
#705 = CARTESIAN_POINT('',(79.238133333332,55.655766666663,0.E+000));
#706 = DIRECTION('',(0.E+000,0.E+000,-1.));
#707 = DIRECTION('',(1.,0.E+000,0.E+000));
#708 = CYLINDRICAL_SURFACE('',#709,0.45);
#709 = AXIS2_PLACEMENT_3D('',#710,#711,#712);
#710 = CARTESIAN_POINT('',(79.238133333332,55.655766666663,0.E+000));
#711 = DIRECTION('',(-0.E+000,-0.E+000,1.));
#712 = DIRECTION('',(1.,0.E+000,0.E+000));
#713 = ADVANCED_FACE('',(#714),#741,.F.);
#714 = FACE_BOUND('',#715,.T.);
#715 = EDGE_LOOP('',(#716,#726,#733,#734));
#716 = ORIENTED_EDGE('',*,*,#717,.T.);
#717 = EDGE_CURVE('',#718,#720,#722,.T.);
#718 = VERTEX_POINT('',#719);
#719 = CARTESIAN_POINT('',(79.688133333332,53.115766666665,0.E+000));
#720 = VERTEX_POINT('',#721);
#721 = CARTESIAN_POINT('',(79.688133333332,53.115766666665,-1.6));
#722 = LINE('',#723,#724);
#723 = CARTESIAN_POINT('',(79.688133333332,53.115766666665,0.E+000));
#724 = VECTOR('',#725,1.);
#725 = DIRECTION('',(0.E+000,0.E+000,-1.));
#726 = ORIENTED_EDGE('',*,*,#727,.T.);
#727 = EDGE_CURVE('',#720,#720,#728,.T.);
#728 = CIRCLE('',#729,0.45);
#729 = AXIS2_PLACEMENT_3D('',#730,#731,#732);
#730 = CARTESIAN_POINT('',(79.238133333332,53.115766666665,-1.6));
#731 = DIRECTION('',(0.E+000,0.E+000,-1.));
#732 = DIRECTION('',(1.,0.E+000,0.E+000));
#733 = ORIENTED_EDGE('',*,*,#717,.F.);
#734 = ORIENTED_EDGE('',*,*,#735,.F.);
#735 = EDGE_CURVE('',#718,#718,#736,.T.);
#736 = CIRCLE('',#737,0.45);
#737 = AXIS2_PLACEMENT_3D('',#738,#739,#740);
#738 = CARTESIAN_POINT('',(79.238133333332,53.115766666665,0.E+000));
#739 = DIRECTION('',(0.E+000,0.E+000,-1.));
#740 = DIRECTION('',(1.,0.E+000,0.E+000));
#741 = CYLINDRICAL_SURFACE('',#742,0.45);
#742 = AXIS2_PLACEMENT_3D('',#743,#744,#745);
#743 = CARTESIAN_POINT('',(79.238133333332,53.115766666665,0.E+000));
#744 = DIRECTION('',(-0.E+000,-0.E+000,1.));
#745 = DIRECTION('',(1.,0.E+000,0.E+000));
#746 = ADVANCED_FACE('',(#747),#774,.F.);
#747 = FACE_BOUND('',#748,.T.);
#748 = EDGE_LOOP('',(#749,#759,#766,#767));
#749 = ORIENTED_EDGE('',*,*,#750,.T.);
#750 = EDGE_CURVE('',#751,#753,#755,.T.);
#751 = VERTEX_POINT('',#752);
#752 = CARTESIAN_POINT('',(79.688133333332,50.575766666666,0.E+000));
#753 = VERTEX_POINT('',#754);
#754 = CARTESIAN_POINT('',(79.688133333332,50.575766666666,-1.6));
#755 = LINE('',#756,#757);
#756 = CARTESIAN_POINT('',(79.688133333332,50.575766666666,0.E+000));
#757 = VECTOR('',#758,1.);
#758 = DIRECTION('',(0.E+000,0.E+000,-1.));
#759 = ORIENTED_EDGE('',*,*,#760,.T.);
#760 = EDGE_CURVE('',#753,#753,#761,.T.);
#761 = CIRCLE('',#762,0.45);
#762 = AXIS2_PLACEMENT_3D('',#763,#764,#765);
#763 = CARTESIAN_POINT('',(79.238133333332,50.575766666666,-1.6));
#764 = DIRECTION('',(0.E+000,0.E+000,-1.));
#765 = DIRECTION('',(1.,0.E+000,0.E+000));
#766 = ORIENTED_EDGE('',*,*,#750,.F.);
#767 = ORIENTED_EDGE('',*,*,#768,.F.);
#768 = EDGE_CURVE('',#751,#751,#769,.T.);
#769 = CIRCLE('',#770,0.45);
#770 = AXIS2_PLACEMENT_3D('',#771,#772,#773);
#771 = CARTESIAN_POINT('',(79.238133333332,50.575766666666,0.E+000));
#772 = DIRECTION('',(0.E+000,0.E+000,-1.));
#773 = DIRECTION('',(1.,0.E+000,0.E+000));
#774 = CYLINDRICAL_SURFACE('',#775,0.45);
#775 = AXIS2_PLACEMENT_3D('',#776,#777,#778);
#776 = CARTESIAN_POINT('',(79.238133333332,50.575766666666,0.E+000));
#777 = DIRECTION('',(-0.E+000,-0.E+000,1.));
#778 = DIRECTION('',(1.,0.E+000,0.E+000));
#779 = ADVANCED_FACE('',(#780),#807,.F.);
#780 = FACE_BOUND('',#781,.T.);
#781 = EDGE_LOOP('',(#782,#792,#799,#800));
#782 = ORIENTED_EDGE('',*,*,#783,.T.);
#783 = EDGE_CURVE('',#784,#786,#788,.T.);
#784 = VERTEX_POINT('',#785);
#785 = CARTESIAN_POINT('',(71.248299999999,53.507099999998,0.E+000));
#786 = VERTEX_POINT('',#787);
#787 = CARTESIAN_POINT('',(71.248299999999,53.507099999998,-1.6));
#788 = LINE('',#789,#790);
#789 = CARTESIAN_POINT('',(71.248299999999,53.507099999998,0.E+000));
#790 = VECTOR('',#791,1.);
#791 = DIRECTION('',(0.E+000,0.E+000,-1.));
#792 = ORIENTED_EDGE('',*,*,#793,.T.);
#793 = EDGE_CURVE('',#786,#786,#794,.T.);
#794 = CIRCLE('',#795,0.243);
#795 = AXIS2_PLACEMENT_3D('',#796,#797,#798);
#796 = CARTESIAN_POINT('',(71.005299999999,53.507099999998,-1.6));
#797 = DIRECTION('',(0.E+000,0.E+000,-1.));
#798 = DIRECTION('',(1.,0.E+000,0.E+000));
#799 = ORIENTED_EDGE('',*,*,#783,.F.);
#800 = ORIENTED_EDGE('',*,*,#801,.F.);
#801 = EDGE_CURVE('',#784,#784,#802,.T.);
#802 = CIRCLE('',#803,0.243);
#803 = AXIS2_PLACEMENT_3D('',#804,#805,#806);
#804 = CARTESIAN_POINT('',(71.005299999999,53.507099999998,0.E+000));
#805 = DIRECTION('',(0.E+000,0.E+000,-1.));
#806 = DIRECTION('',(1.,0.E+000,0.E+000));
#807 = CYLINDRICAL_SURFACE('',#808,0.243);
#808 = AXIS2_PLACEMENT_3D('',#809,#810,#811);
#809 = CARTESIAN_POINT('',(71.005299999999,53.507099999998,0.E+000));
#810 = DIRECTION('',(-0.E+000,-0.E+000,1.));
#811 = DIRECTION('',(1.,0.E+000,0.E+000));
#812 = ADVANCED_FACE('',(#813),#840,.F.);
#813 = FACE_BOUND('',#814,.T.);
#814 = EDGE_LOOP('',(#815,#825,#832,#833));
#815 = ORIENTED_EDGE('',*,*,#816,.T.);
#816 = EDGE_CURVE('',#817,#819,#821,.T.);
#817 = VERTEX_POINT('',#818);
#818 = CARTESIAN_POINT('',(68.858,48.850733333335,0.E+000));
#819 = VERTEX_POINT('',#820);
#820 = CARTESIAN_POINT('',(68.858,48.850733333335,-1.6));
#821 = LINE('',#822,#823);
#822 = CARTESIAN_POINT('',(68.858,48.850733333335,0.E+000));
#823 = VECTOR('',#824,1.);
#824 = DIRECTION('',(0.E+000,0.E+000,-1.));
#825 = ORIENTED_EDGE('',*,*,#826,.T.);
#826 = EDGE_CURVE('',#819,#819,#827,.T.);
#827 = CIRCLE('',#828,0.243);
#828 = AXIS2_PLACEMENT_3D('',#829,#830,#831);
#829 = CARTESIAN_POINT('',(68.615,48.850733333335,-1.6));
#830 = DIRECTION('',(0.E+000,0.E+000,-1.));
#831 = DIRECTION('',(1.,0.E+000,0.E+000));
#832 = ORIENTED_EDGE('',*,*,#816,.F.);
#833 = ORIENTED_EDGE('',*,*,#834,.F.);
#834 = EDGE_CURVE('',#817,#817,#835,.T.);
#835 = CIRCLE('',#836,0.243);
#836 = AXIS2_PLACEMENT_3D('',#837,#838,#839);
#837 = CARTESIAN_POINT('',(68.615,48.850733333335,0.E+000));
#838 = DIRECTION('',(0.E+000,0.E+000,-1.));
#839 = DIRECTION('',(1.,0.E+000,0.E+000));
#840 = CYLINDRICAL_SURFACE('',#841,0.243);
#841 = AXIS2_PLACEMENT_3D('',#842,#843,#844);
#842 = CARTESIAN_POINT('',(68.615,48.850733333335,0.E+000));
#843 = DIRECTION('',(-0.E+000,-0.E+000,1.));
#844 = DIRECTION('',(1.,0.E+000,0.E+000));
#845 = ADVANCED_FACE('',(#846),#873,.F.);
#846 = FACE_BOUND('',#847,.T.);
#847 = EDGE_LOOP('',(#848,#858,#865,#866));
#848 = ORIENTED_EDGE('',*,*,#849,.T.);
#849 = EDGE_CURVE('',#850,#852,#854,.T.);
#850 = VERTEX_POINT('',#851);
#851 = CARTESIAN_POINT('',(72.197066666668,50.257266666667,0.E+000));
#852 = VERTEX_POINT('',#853);
#853 = CARTESIAN_POINT('',(72.197066666668,50.257266666667,-1.6));
#854 = LINE('',#855,#856);
#855 = CARTESIAN_POINT('',(72.197066666668,50.257266666667,0.E+000));
#856 = VECTOR('',#857,1.);
#857 = DIRECTION('',(0.E+000,0.E+000,-1.));
#858 = ORIENTED_EDGE('',*,*,#859,.T.);
#859 = EDGE_CURVE('',#852,#852,#860,.T.);
#860 = CIRCLE('',#861,0.243);
#861 = AXIS2_PLACEMENT_3D('',#862,#863,#864);
#862 = CARTESIAN_POINT('',(71.954066666668,50.257266666667,-1.6));
#863 = DIRECTION('',(0.E+000,0.E+000,-1.));
#864 = DIRECTION('',(1.,0.E+000,0.E+000));
#865 = ORIENTED_EDGE('',*,*,#849,.F.);
#866 = ORIENTED_EDGE('',*,*,#867,.F.);
#867 = EDGE_CURVE('',#850,#850,#868,.T.);
#868 = CIRCLE('',#869,0.243);
#869 = AXIS2_PLACEMENT_3D('',#870,#871,#872);
#870 = CARTESIAN_POINT('',(71.954066666668,50.257266666667,0.E+000));
#871 = DIRECTION('',(0.E+000,0.E+000,-1.));
#872 = DIRECTION('',(1.,0.E+000,0.E+000));
#873 = CYLINDRICAL_SURFACE('',#874,0.243);
#874 = AXIS2_PLACEMENT_3D('',#875,#876,#877);
#875 = CARTESIAN_POINT('',(71.954066666668,50.257266666667,0.E+000));
#876 = DIRECTION('',(-0.E+000,-0.E+000,1.));
#877 = DIRECTION('',(1.,0.E+000,0.E+000));
#878 = ADVANCED_FACE('',(#879),#906,.F.);
#879 = FACE_BOUND('',#880,.T.);
#880 = EDGE_LOOP('',(#881,#891,#898,#899));
#881 = ORIENTED_EDGE('',*,*,#882,.T.);
#882 = EDGE_CURVE('',#883,#885,#887,.T.);
#883 = VERTEX_POINT('',#884);
#884 = CARTESIAN_POINT('',(76.898699999998,56.210666666666,0.E+000));
#885 = VERTEX_POINT('',#886);
#886 = CARTESIAN_POINT('',(76.898699999998,56.210666666666,-1.6));
#887 = LINE('',#888,#889);
#888 = CARTESIAN_POINT('',(76.898699999998,56.210666666666,0.E+000));
#889 = VECTOR('',#890,1.);
#890 = DIRECTION('',(0.E+000,0.E+000,-1.));
#891 = ORIENTED_EDGE('',*,*,#892,.T.);
#892 = EDGE_CURVE('',#885,#885,#893,.T.);
#893 = CIRCLE('',#894,0.243);
#894 = AXIS2_PLACEMENT_3D('',#895,#896,#897);
#895 = CARTESIAN_POINT('',(76.655699999998,56.210666666666,-1.6));
#896 = DIRECTION('',(0.E+000,0.E+000,-1.));
#897 = DIRECTION('',(1.,0.E+000,0.E+000));
#898 = ORIENTED_EDGE('',*,*,#882,.F.);
#899 = ORIENTED_EDGE('',*,*,#900,.F.);
#900 = EDGE_CURVE('',#883,#883,#901,.T.);
#901 = CIRCLE('',#902,0.243);
#902 = AXIS2_PLACEMENT_3D('',#903,#904,#905);
#903 = CARTESIAN_POINT('',(76.655699999998,56.210666666666,0.E+000));
#904 = DIRECTION('',(0.E+000,0.E+000,-1.));
#905 = DIRECTION('',(1.,0.E+000,0.E+000));
#906 = CYLINDRICAL_SURFACE('',#907,0.243);
#907 = AXIS2_PLACEMENT_3D('',#908,#909,#910);
#908 = CARTESIAN_POINT('',(76.655699999998,56.210666666666,0.E+000));
#909 = DIRECTION('',(-0.E+000,-0.E+000,1.));
#910 = DIRECTION('',(1.,0.E+000,0.E+000));
#911 = ADVANCED_FACE('',(#912),#939,.F.);
#912 = FACE_BOUND('',#913,.T.);
#913 = EDGE_LOOP('',(#914,#924,#931,#932));
#914 = ORIENTED_EDGE('',*,*,#915,.T.);
#915 = EDGE_CURVE('',#916,#918,#920,.T.);
#916 = VERTEX_POINT('',#917);
#917 = CARTESIAN_POINT('',(80.230133333333,57.558466666664,0.E+000));
#918 = VERTEX_POINT('',#919);
#919 = CARTESIAN_POINT('',(80.230133333333,57.558466666664,-1.6));
#920 = LINE('',#921,#922);
#921 = CARTESIAN_POINT('',(80.230133333333,57.558466666664,0.E+000));
#922 = VECTOR('',#923,1.);
#923 = DIRECTION('',(0.E+000,0.E+000,-1.));
#924 = ORIENTED_EDGE('',*,*,#925,.T.);
#925 = EDGE_CURVE('',#918,#918,#926,.T.);
#926 = CIRCLE('',#927,0.243);
#927 = AXIS2_PLACEMENT_3D('',#928,#929,#930);
#928 = CARTESIAN_POINT('',(79.987133333333,57.558466666664,-1.6));
#929 = DIRECTION('',(0.E+000,0.E+000,-1.));
#930 = DIRECTION('',(1.,0.E+000,0.E+000));
#931 = ORIENTED_EDGE('',*,*,#915,.F.);
#932 = ORIENTED_EDGE('',*,*,#933,.F.);
#933 = EDGE_CURVE('',#916,#916,#934,.T.);
#934 = CIRCLE('',#935,0.243);
#935 = AXIS2_PLACEMENT_3D('',#936,#937,#938);
#936 = CARTESIAN_POINT('',(79.987133333333,57.558466666664,0.E+000));
#937 = DIRECTION('',(0.E+000,0.E+000,-1.));
#938 = DIRECTION('',(1.,0.E+000,0.E+000));
#939 = CYLINDRICAL_SURFACE('',#940,0.243);
#940 = AXIS2_PLACEMENT_3D('',#941,#942,#943);
#941 = CARTESIAN_POINT('',(79.987133333333,57.558466666664,0.E+000));
#942 = DIRECTION('',(-0.E+000,-0.E+000,1.));
#943 = DIRECTION('',(1.,0.E+000,0.E+000));
#944 = ADVANCED_FACE('',(#945),#972,.F.);
#945 = FACE_BOUND('',#946,.T.);
#946 = EDGE_LOOP('',(#947,#957,#964,#965));
#947 = ORIENTED_EDGE('',*,*,#948,.T.);
#948 = EDGE_CURVE('',#949,#951,#953,.T.);
#949 = VERTEX_POINT('',#950);
#950 = CARTESIAN_POINT('',(76.383766666668,47.815466666667,0.E+000));
#951 = VERTEX_POINT('',#952);
#952 = CARTESIAN_POINT('',(76.383766666668,47.815466666667,-1.6));
#953 = LINE('',#954,#955);
#954 = CARTESIAN_POINT('',(76.383766666668,47.815466666667,0.E+000));
#955 = VECTOR('',#956,1.);
#956 = DIRECTION('',(0.E+000,0.E+000,-1.));
#957 = ORIENTED_EDGE('',*,*,#958,.T.);
#958 = EDGE_CURVE('',#951,#951,#959,.T.);
#959 = CIRCLE('',#960,0.243);
#960 = AXIS2_PLACEMENT_3D('',#961,#962,#963);
#961 = CARTESIAN_POINT('',(76.140766666669,47.815466666667,-1.6));
#962 = DIRECTION('',(0.E+000,0.E+000,-1.));
#963 = DIRECTION('',(1.,0.E+000,0.E+000));
#964 = ORIENTED_EDGE('',*,*,#948,.F.);
#965 = ORIENTED_EDGE('',*,*,#966,.F.);
#966 = EDGE_CURVE('',#949,#949,#967,.T.);
#967 = CIRCLE('',#968,0.243);
#968 = AXIS2_PLACEMENT_3D('',#969,#970,#971);
#969 = CARTESIAN_POINT('',(76.140766666669,47.815466666667,0.E+000));
#970 = DIRECTION('',(0.E+000,0.E+000,-1.));
#971 = DIRECTION('',(1.,0.E+000,0.E+000));
#972 = CYLINDRICAL_SURFACE('',#973,0.243);
#973 = AXIS2_PLACEMENT_3D('',#974,#975,#976);
#974 = CARTESIAN_POINT('',(76.140766666669,47.815466666667,0.E+000));
#975 = DIRECTION('',(-0.E+000,-0.E+000,1.));
#976 = DIRECTION('',(1.,0.E+000,0.E+000));
#977 = ADVANCED_FACE('',(#978),#1005,.F.);
#978 = FACE_BOUND('',#979,.T.);
#979 = EDGE_LOOP('',(#980,#990,#997,#998));
#980 = ORIENTED_EDGE('',*,*,#981,.T.);
#981 = EDGE_CURVE('',#982,#984,#986,.T.);
#982 = VERTEX_POINT('',#983);
#983 = CARTESIAN_POINT('',(77.688200000002,46.822899999999,0.E+000));
#984 = VERTEX_POINT('',#985);
#985 = CARTESIAN_POINT('',(77.688200000002,46.822899999999,-1.6));
#986 = LINE('',#987,#988);
#987 = CARTESIAN_POINT('',(77.688200000002,46.822899999999,0.E+000));
#988 = VECTOR('',#989,1.);
#989 = DIRECTION('',(0.E+000,0.E+000,-1.));
#990 = ORIENTED_EDGE('',*,*,#991,.T.);
#991 = EDGE_CURVE('',#984,#984,#992,.T.);
#992 = CIRCLE('',#993,0.243);
#993 = AXIS2_PLACEMENT_3D('',#994,#995,#996);
#994 = CARTESIAN_POINT('',(77.445200000002,46.822899999999,-1.6));
#995 = DIRECTION('',(0.E+000,0.E+000,-1.));
#996 = DIRECTION('',(1.,0.E+000,0.E+000));
#997 = ORIENTED_EDGE('',*,*,#981,.F.);
#998 = ORIENTED_EDGE('',*,*,#999,.F.);
#999 = EDGE_CURVE('',#982,#982,#1000,.T.);
#1000 = CIRCLE('',#1001,0.243);
#1001 = AXIS2_PLACEMENT_3D('',#1002,#1003,#1004);
#1002 = CARTESIAN_POINT('',(77.445200000002,46.822899999999,0.E+000));
#1003 = DIRECTION('',(0.E+000,0.E+000,-1.));
#1004 = DIRECTION('',(1.,0.E+000,0.E+000));
#1005 = CYLINDRICAL_SURFACE('',#1006,0.243);
#1006 = AXIS2_PLACEMENT_3D('',#1007,#1008,#1009);
#1007 = CARTESIAN_POINT('',(77.445200000002,46.822899999999,0.E+000));
#1008 = DIRECTION('',(-0.E+000,-0.E+000,1.));
#1009 = DIRECTION('',(1.,0.E+000,0.E+000));
#1010 = ADVANCED_FACE('',(#1011),#1038,.F.);
#1011 = FACE_BOUND('',#1012,.T.);
#1012 = EDGE_LOOP('',(#1013,#1023,#1030,#1031));
#1013 = ORIENTED_EDGE('',*,*,#1014,.T.);
#1014 = EDGE_CURVE('',#1015,#1017,#1019,.T.);
#1015 = VERTEX_POINT('',#1016);
#1016 = CARTESIAN_POINT('',(74.869766666668,51.527266666667,0.E+000));
#1017 = VERTEX_POINT('',#1018);
#1018 = CARTESIAN_POINT('',(74.869766666668,51.527266666667,-1.6));
#1019 = LINE('',#1020,#1021);
#1020 = CARTESIAN_POINT('',(74.869766666668,51.527266666667,0.E+000));
#1021 = VECTOR('',#1022,1.);
#1022 = DIRECTION('',(0.E+000,0.E+000,-1.));
#1023 = ORIENTED_EDGE('',*,*,#1024,.T.);
#1024 = EDGE_CURVE('',#1017,#1017,#1025,.T.);
#1025 = CIRCLE('',#1026,0.243);
#1026 = AXIS2_PLACEMENT_3D('',#1027,#1028,#1029);
#1027 = CARTESIAN_POINT('',(74.626766666668,51.527266666667,-1.6));
#1028 = DIRECTION('',(0.E+000,0.E+000,-1.));
#1029 = DIRECTION('',(1.,0.E+000,0.E+000));
#1030 = ORIENTED_EDGE('',*,*,#1014,.F.);
#1031 = ORIENTED_EDGE('',*,*,#1032,.F.);
#1032 = EDGE_CURVE('',#1015,#1015,#1033,.T.);
#1033 = CIRCLE('',#1034,0.243);
#1034 = AXIS2_PLACEMENT_3D('',#1035,#1036,#1037);
#1035 = CARTESIAN_POINT('',(74.626766666668,51.527266666667,0.E+000));
#1036 = DIRECTION('',(0.E+000,0.E+000,-1.));
#1037 = DIRECTION('',(1.,0.E+000,0.E+000));
#1038 = CYLINDRICAL_SURFACE('',#1039,0.243);
#1039 = AXIS2_PLACEMENT_3D('',#1040,#1041,#1042);
#1040 = CARTESIAN_POINT('',(74.626766666668,51.527266666667,0.E+000));
#1041 = DIRECTION('',(-0.E+000,-0.E+000,1.));
#1042 = DIRECTION('',(1.,0.E+000,0.E+000));
#1043 = ADVANCED_FACE('',(#1044),#1071,.F.);
#1044 = FACE_BOUND('',#1045,.T.);
#1045 = EDGE_LOOP('',(#1046,#1056,#1063,#1064));
#1046 = ORIENTED_EDGE('',*,*,#1047,.T.);
#1047 = EDGE_CURVE('',#1048,#1050,#1052,.T.);
#1048 = VERTEX_POINT('',#1049);
#1049 = CARTESIAN_POINT('',(74.649600000002,53.850733333335,0.E+000));
#1050 = VERTEX_POINT('',#1051);
#1051 = CARTESIAN_POINT('',(74.649600000002,53.850733333335,-1.6));
#1052 = LINE('',#1053,#1054);
#1053 = CARTESIAN_POINT('',(74.649600000002,53.850733333335,0.E+000));
#1054 = VECTOR('',#1055,1.);
#1055 = DIRECTION('',(0.E+000,0.E+000,-1.));
#1056 = ORIENTED_EDGE('',*,*,#1057,.T.);
#1057 = EDGE_CURVE('',#1050,#1050,#1058,.T.);
#1058 = CIRCLE('',#1059,0.243);
#1059 = AXIS2_PLACEMENT_3D('',#1060,#1061,#1062);
#1060 = CARTESIAN_POINT('',(74.406600000002,53.850733333335,-1.6));
#1061 = DIRECTION('',(0.E+000,0.E+000,-1.));
#1062 = DIRECTION('',(1.,0.E+000,0.E+000));
#1063 = ORIENTED_EDGE('',*,*,#1047,.F.);
#1064 = ORIENTED_EDGE('',*,*,#1065,.F.);
#1065 = EDGE_CURVE('',#1048,#1048,#1066,.T.);
#1066 = CIRCLE('',#1067,0.243);
#1067 = AXIS2_PLACEMENT_3D('',#1068,#1069,#1070);
#1068 = CARTESIAN_POINT('',(74.406600000002,53.850733333335,0.E+000));
#1069 = DIRECTION('',(0.E+000,0.E+000,-1.));
#1070 = DIRECTION('',(1.,0.E+000,0.E+000));
#1071 = CYLINDRICAL_SURFACE('',#1072,0.243);
#1072 = AXIS2_PLACEMENT_3D('',#1073,#1074,#1075);
#1073 = CARTESIAN_POINT('',(74.406600000002,53.850733333335,0.E+000));
#1074 = DIRECTION('',(-0.E+000,-0.E+000,1.));
#1075 = DIRECTION('',(1.,0.E+000,0.E+000));
#1076 = ADVANCED_FACE('',(#1077),#1104,.F.);
#1077 = FACE_BOUND('',#1078,.T.);
#1078 = EDGE_LOOP('',(#1079,#1089,#1096,#1097));
#1079 = ORIENTED_EDGE('',*,*,#1080,.T.);
#1080 = EDGE_CURVE('',#1081,#1083,#1085,.T.);
#1081 = VERTEX_POINT('',#1082);
#1082 = CARTESIAN_POINT('',(77.582000000002,51.527266666667,0.E+000));
#1083 = VERTEX_POINT('',#1084);
#1084 = CARTESIAN_POINT('',(77.582000000002,51.527266666667,-1.6));
#1085 = LINE('',#1086,#1087);
#1086 = CARTESIAN_POINT('',(77.582000000002,51.527266666667,0.E+000));
#1087 = VECTOR('',#1088,1.);
#1088 = DIRECTION('',(0.E+000,0.E+000,-1.));
#1089 = ORIENTED_EDGE('',*,*,#1090,.T.);
#1090 = EDGE_CURVE('',#1083,#1083,#1091,.T.);
#1091 = CIRCLE('',#1092,0.243);
#1092 = AXIS2_PLACEMENT_3D('',#1093,#1094,#1095);
#1093 = CARTESIAN_POINT('',(77.339000000002,51.527266666667,-1.6));
#1094 = DIRECTION('',(0.E+000,0.E+000,-1.));
#1095 = DIRECTION('',(1.,0.E+000,0.E+000));
#1096 = ORIENTED_EDGE('',*,*,#1080,.F.);
#1097 = ORIENTED_EDGE('',*,*,#1098,.F.);
#1098 = EDGE_CURVE('',#1081,#1081,#1099,.T.);
#1099 = CIRCLE('',#1100,0.243);
#1100 = AXIS2_PLACEMENT_3D('',#1101,#1102,#1103);
#1101 = CARTESIAN_POINT('',(77.339000000002,51.527266666667,0.E+000));
#1102 = DIRECTION('',(0.E+000,0.E+000,-1.));
#1103 = DIRECTION('',(1.,0.E+000,0.E+000));
#1104 = CYLINDRICAL_SURFACE('',#1105,0.243);
#1105 = AXIS2_PLACEMENT_3D('',#1106,#1107,#1108);
#1106 = CARTESIAN_POINT('',(77.339000000002,51.527266666667,0.E+000));
#1107 = DIRECTION('',(-0.E+000,-0.E+000,1.));
#1108 = DIRECTION('',(1.,0.E+000,0.E+000));
#1109 = ADVANCED_FACE('',(#1110),#1137,.F.);
#1110 = FACE_BOUND('',#1111,.T.);
#1111 = EDGE_LOOP('',(#1112,#1122,#1129,#1130));
#1112 = ORIENTED_EDGE('',*,*,#1113,.T.);
#1113 = EDGE_CURVE('',#1114,#1116,#1118,.T.);
#1114 = VERTEX_POINT('',#1115);
#1115 = CARTESIAN_POINT('',(72.495600000002,51.530333333333,0.E+000));
#1116 = VERTEX_POINT('',#1117);
#1117 = CARTESIAN_POINT('',(72.495600000002,51.530333333333,-1.6));
#1118 = LINE('',#1119,#1120);
#1119 = CARTESIAN_POINT('',(72.495600000002,51.530333333333,0.E+000));
#1120 = VECTOR('',#1121,1.);
#1121 = DIRECTION('',(0.E+000,0.E+000,-1.));
#1122 = ORIENTED_EDGE('',*,*,#1123,.T.);
#1123 = EDGE_CURVE('',#1116,#1116,#1124,.T.);
#1124 = CIRCLE('',#1125,0.243);
#1125 = AXIS2_PLACEMENT_3D('',#1126,#1127,#1128);
#1126 = CARTESIAN_POINT('',(72.252600000002,51.530333333333,-1.6));
#1127 = DIRECTION('',(0.E+000,0.E+000,-1.));
#1128 = DIRECTION('',(1.,0.E+000,0.E+000));
#1129 = ORIENTED_EDGE('',*,*,#1113,.F.);
#1130 = ORIENTED_EDGE('',*,*,#1131,.F.);
#1131 = EDGE_CURVE('',#1114,#1114,#1132,.T.);
#1132 = CIRCLE('',#1133,0.243);
#1133 = AXIS2_PLACEMENT_3D('',#1134,#1135,#1136);
#1134 = CARTESIAN_POINT('',(72.252600000002,51.530333333333,0.E+000));
#1135 = DIRECTION('',(0.E+000,0.E+000,-1.));
#1136 = DIRECTION('',(1.,0.E+000,0.E+000));
#1137 = CYLINDRICAL_SURFACE('',#1138,0.243);
#1138 = AXIS2_PLACEMENT_3D('',#1139,#1140,#1141);
#1139 = CARTESIAN_POINT('',(72.252600000002,51.530333333333,0.E+000));
#1140 = DIRECTION('',(-0.E+000,-0.E+000,1.));
#1141 = DIRECTION('',(1.,0.E+000,0.E+000));
#1142 = ADVANCED_FACE('',(#1143,#1149,#1152,#1155,#1158,#1161,#1164,
    #1167,#1170,#1173,#1176,#1179,#1182,#1185,#1188,#1191,#1194,#1197,
    #1200,#1203,#1206,#1209,#1212,#1215,#1218,#1221,#1224,#1227,#1230,
    #1233,#1236),#1239,.F.);
#1143 = FACE_BOUND('',#1144,.T.);
#1144 = EDGE_LOOP('',(#1145,#1146,#1147,#1148));
#1145 = ORIENTED_EDGE('',*,*,#58,.T.);
#1146 = ORIENTED_EDGE('',*,*,#89,.T.);
#1147 = ORIENTED_EDGE('',*,*,#120,.T.);
#1148 = ORIENTED_EDGE('',*,*,#142,.T.);
#1149 = FACE_BOUND('',#1150,.T.);
#1150 = EDGE_LOOP('',(#1151));
#1151 = ORIENTED_EDGE('',*,*,#174,.T.);
#1152 = FACE_BOUND('',#1153,.T.);
#1153 = EDGE_LOOP('',(#1154));
#1154 = ORIENTED_EDGE('',*,*,#207,.T.);
#1155 = FACE_BOUND('',#1156,.T.);
#1156 = EDGE_LOOP('',(#1157));
#1157 = ORIENTED_EDGE('',*,*,#240,.T.);
#1158 = FACE_BOUND('',#1159,.T.);
#1159 = EDGE_LOOP('',(#1160));
#1160 = ORIENTED_EDGE('',*,*,#273,.T.);
#1161 = FACE_BOUND('',#1162,.T.);
#1162 = EDGE_LOOP('',(#1163));
#1163 = ORIENTED_EDGE('',*,*,#306,.T.);
#1164 = FACE_BOUND('',#1165,.T.);
#1165 = EDGE_LOOP('',(#1166));
#1166 = ORIENTED_EDGE('',*,*,#339,.T.);
#1167 = FACE_BOUND('',#1168,.T.);
#1168 = EDGE_LOOP('',(#1169));
#1169 = ORIENTED_EDGE('',*,*,#372,.T.);
#1170 = FACE_BOUND('',#1171,.T.);
#1171 = EDGE_LOOP('',(#1172));
#1172 = ORIENTED_EDGE('',*,*,#405,.T.);
#1173 = FACE_BOUND('',#1174,.T.);
#1174 = EDGE_LOOP('',(#1175));
#1175 = ORIENTED_EDGE('',*,*,#438,.T.);
#1176 = FACE_BOUND('',#1177,.T.);
#1177 = EDGE_LOOP('',(#1178));
#1178 = ORIENTED_EDGE('',*,*,#471,.T.);
#1179 = FACE_BOUND('',#1180,.T.);
#1180 = EDGE_LOOP('',(#1181));
#1181 = ORIENTED_EDGE('',*,*,#504,.T.);
#1182 = FACE_BOUND('',#1183,.T.);
#1183 = EDGE_LOOP('',(#1184));
#1184 = ORIENTED_EDGE('',*,*,#537,.T.);
#1185 = FACE_BOUND('',#1186,.T.);
#1186 = EDGE_LOOP('',(#1187));
#1187 = ORIENTED_EDGE('',*,*,#570,.T.);
#1188 = FACE_BOUND('',#1189,.T.);
#1189 = EDGE_LOOP('',(#1190));
#1190 = ORIENTED_EDGE('',*,*,#603,.T.);
#1191 = FACE_BOUND('',#1192,.T.);
#1192 = EDGE_LOOP('',(#1193));
#1193 = ORIENTED_EDGE('',*,*,#636,.T.);
#1194 = FACE_BOUND('',#1195,.T.);
#1195 = EDGE_LOOP('',(#1196));
#1196 = ORIENTED_EDGE('',*,*,#669,.T.);
#1197 = FACE_BOUND('',#1198,.T.);
#1198 = EDGE_LOOP('',(#1199));
#1199 = ORIENTED_EDGE('',*,*,#702,.T.);
#1200 = FACE_BOUND('',#1201,.T.);
#1201 = EDGE_LOOP('',(#1202));
#1202 = ORIENTED_EDGE('',*,*,#735,.T.);
#1203 = FACE_BOUND('',#1204,.T.);
#1204 = EDGE_LOOP('',(#1205));
#1205 = ORIENTED_EDGE('',*,*,#768,.T.);
#1206 = FACE_BOUND('',#1207,.T.);
#1207 = EDGE_LOOP('',(#1208));
#1208 = ORIENTED_EDGE('',*,*,#801,.T.);
#1209 = FACE_BOUND('',#1210,.T.);
#1210 = EDGE_LOOP('',(#1211));
#1211 = ORIENTED_EDGE('',*,*,#834,.T.);
#1212 = FACE_BOUND('',#1213,.T.);
#1213 = EDGE_LOOP('',(#1214));
#1214 = ORIENTED_EDGE('',*,*,#867,.T.);
#1215 = FACE_BOUND('',#1216,.T.);
#1216 = EDGE_LOOP('',(#1217));
#1217 = ORIENTED_EDGE('',*,*,#900,.T.);
#1218 = FACE_BOUND('',#1219,.T.);
#1219 = EDGE_LOOP('',(#1220));
#1220 = ORIENTED_EDGE('',*,*,#933,.T.);
#1221 = FACE_BOUND('',#1222,.T.);
#1222 = EDGE_LOOP('',(#1223));
#1223 = ORIENTED_EDGE('',*,*,#966,.T.);
#1224 = FACE_BOUND('',#1225,.T.);
#1225 = EDGE_LOOP('',(#1226));
#1226 = ORIENTED_EDGE('',*,*,#999,.T.);
#1227 = FACE_BOUND('',#1228,.T.);
#1228 = EDGE_LOOP('',(#1229));
#1229 = ORIENTED_EDGE('',*,*,#1032,.T.);
#1230 = FACE_BOUND('',#1231,.T.);
#1231 = EDGE_LOOP('',(#1232));
#1232 = ORIENTED_EDGE('',*,*,#1065,.T.);
#1233 = FACE_BOUND('',#1234,.T.);
#1234 = EDGE_LOOP('',(#1235));
#1235 = ORIENTED_EDGE('',*,*,#1098,.T.);
#1236 = FACE_BOUND('',#1237,.T.);
#1237 = EDGE_LOOP('',(#1238));
#1238 = ORIENTED_EDGE('',*,*,#1131,.T.);
#1239 = PLANE('',#1240);
#1240 = AXIS2_PLACEMENT_3D('',#1241,#1242,#1243);
#1241 = CARTESIAN_POINT('',(67.869100000001,59.307866666665,0.E+000));
#1242 = DIRECTION('',(0.E+000,0.E+000,-1.));
#1243 = DIRECTION('',(-1.,0.E+000,-0.E+000));
#1244 = ADVANCED_FACE('',(#1245,#1251,#1254,#1257,#1260,#1263,#1266,
    #1269,#1272,#1275,#1278,#1281,#1284,#1287,#1290,#1293,#1296,#1299,
    #1302,#1305,#1308,#1311,#1314,#1317,#1320,#1323,#1326,#1329,#1332,
    #1335,#1338),#1341,.T.);
#1245 = FACE_BOUND('',#1246,.F.);
#1246 = EDGE_LOOP('',(#1247,#1248,#1249,#1250));
#1247 = ORIENTED_EDGE('',*,*,#42,.T.);
#1248 = ORIENTED_EDGE('',*,*,#73,.T.);
#1249 = ORIENTED_EDGE('',*,*,#104,.T.);
#1250 = ORIENTED_EDGE('',*,*,#135,.T.);
#1251 = FACE_BOUND('',#1252,.F.);
#1252 = EDGE_LOOP('',(#1253));
#1253 = ORIENTED_EDGE('',*,*,#166,.T.);
#1254 = FACE_BOUND('',#1255,.F.);
#1255 = EDGE_LOOP('',(#1256));
#1256 = ORIENTED_EDGE('',*,*,#199,.T.);
#1257 = FACE_BOUND('',#1258,.F.);
#1258 = EDGE_LOOP('',(#1259));
#1259 = ORIENTED_EDGE('',*,*,#232,.T.);
#1260 = FACE_BOUND('',#1261,.F.);
#1261 = EDGE_LOOP('',(#1262));
#1262 = ORIENTED_EDGE('',*,*,#265,.T.);
#1263 = FACE_BOUND('',#1264,.F.);
#1264 = EDGE_LOOP('',(#1265));
#1265 = ORIENTED_EDGE('',*,*,#298,.T.);
#1266 = FACE_BOUND('',#1267,.F.);
#1267 = EDGE_LOOP('',(#1268));
#1268 = ORIENTED_EDGE('',*,*,#331,.T.);
#1269 = FACE_BOUND('',#1270,.F.);
#1270 = EDGE_LOOP('',(#1271));
#1271 = ORIENTED_EDGE('',*,*,#364,.T.);
#1272 = FACE_BOUND('',#1273,.F.);
#1273 = EDGE_LOOP('',(#1274));
#1274 = ORIENTED_EDGE('',*,*,#397,.T.);
#1275 = FACE_BOUND('',#1276,.F.);
#1276 = EDGE_LOOP('',(#1277));
#1277 = ORIENTED_EDGE('',*,*,#430,.T.);
#1278 = FACE_BOUND('',#1279,.F.);
#1279 = EDGE_LOOP('',(#1280));
#1280 = ORIENTED_EDGE('',*,*,#463,.T.);
#1281 = FACE_BOUND('',#1282,.F.);
#1282 = EDGE_LOOP('',(#1283));
#1283 = ORIENTED_EDGE('',*,*,#496,.T.);
#1284 = FACE_BOUND('',#1285,.F.);
#1285 = EDGE_LOOP('',(#1286));
#1286 = ORIENTED_EDGE('',*,*,#529,.T.);
#1287 = FACE_BOUND('',#1288,.F.);
#1288 = EDGE_LOOP('',(#1289));
#1289 = ORIENTED_EDGE('',*,*,#562,.T.);
#1290 = FACE_BOUND('',#1291,.F.);
#1291 = EDGE_LOOP('',(#1292));
#1292 = ORIENTED_EDGE('',*,*,#595,.T.);
#1293 = FACE_BOUND('',#1294,.F.);
#1294 = EDGE_LOOP('',(#1295));
#1295 = ORIENTED_EDGE('',*,*,#628,.T.);
#1296 = FACE_BOUND('',#1297,.F.);
#1297 = EDGE_LOOP('',(#1298));
#1298 = ORIENTED_EDGE('',*,*,#661,.T.);
#1299 = FACE_BOUND('',#1300,.F.);
#1300 = EDGE_LOOP('',(#1301));
#1301 = ORIENTED_EDGE('',*,*,#694,.T.);
#1302 = FACE_BOUND('',#1303,.F.);
#1303 = EDGE_LOOP('',(#1304));
#1304 = ORIENTED_EDGE('',*,*,#727,.T.);
#1305 = FACE_BOUND('',#1306,.F.);
#1306 = EDGE_LOOP('',(#1307));
#1307 = ORIENTED_EDGE('',*,*,#760,.T.);
#1308 = FACE_BOUND('',#1309,.F.);
#1309 = EDGE_LOOP('',(#1310));
#1310 = ORIENTED_EDGE('',*,*,#793,.T.);
#1311 = FACE_BOUND('',#1312,.F.);
#1312 = EDGE_LOOP('',(#1313));
#1313 = ORIENTED_EDGE('',*,*,#826,.T.);
#1314 = FACE_BOUND('',#1315,.F.);
#1315 = EDGE_LOOP('',(#1316));
#1316 = ORIENTED_EDGE('',*,*,#859,.T.);
#1317 = FACE_BOUND('',#1318,.F.);
#1318 = EDGE_LOOP('',(#1319));
#1319 = ORIENTED_EDGE('',*,*,#892,.T.);
#1320 = FACE_BOUND('',#1321,.F.);
#1321 = EDGE_LOOP('',(#1322));
#1322 = ORIENTED_EDGE('',*,*,#925,.T.);
#1323 = FACE_BOUND('',#1324,.F.);
#1324 = EDGE_LOOP('',(#1325));
#1325 = ORIENTED_EDGE('',*,*,#958,.T.);
#1326 = FACE_BOUND('',#1327,.F.);
#1327 = EDGE_LOOP('',(#1328));
#1328 = ORIENTED_EDGE('',*,*,#991,.T.);
#1329 = FACE_BOUND('',#1330,.F.);
#1330 = EDGE_LOOP('',(#1331));
#1331 = ORIENTED_EDGE('',*,*,#1024,.T.);
#1332 = FACE_BOUND('',#1333,.F.);
#1333 = EDGE_LOOP('',(#1334));
#1334 = ORIENTED_EDGE('',*,*,#1057,.T.);
#1335 = FACE_BOUND('',#1336,.F.);
#1336 = EDGE_LOOP('',(#1337));
#1337 = ORIENTED_EDGE('',*,*,#1090,.T.);
#1338 = FACE_BOUND('',#1339,.F.);
#1339 = EDGE_LOOP('',(#1340));
#1340 = ORIENTED_EDGE('',*,*,#1123,.T.);
#1341 = PLANE('',#1342);
#1342 = AXIS2_PLACEMENT_3D('',#1343,#1344,#1345);
#1343 = CARTESIAN_POINT('',(67.869100000001,59.307866666665,-1.6));
#1344 = DIRECTION('',(0.E+000,0.E+000,-1.));
#1345 = DIRECTION('',(-1.,0.E+000,-0.E+000));
#1346 = ( GEOMETRIC_REPRESENTATION_CONTEXT(3) 
GLOBAL_UNCERTAINTY_ASSIGNED_CONTEXT((#1350)) 
GLOBAL_UNIT_ASSIGNED_CONTEXT((#1347,#1348,#1349)) REPRESENTATION_CONTEXT
('Context #1','3D Context with UNIT and UNCERTAINTY') );
#1347 = ( LENGTH_UNIT() NAMED_UNIT(*) SI_UNIT(.MILLI.,.METRE.) );
#1348 = ( NAMED_UNIT(*) PLANE_ANGLE_UNIT() SI_UNIT($,.RADIAN.) );
#1349 = ( NAMED_UNIT(*) SI_UNIT($,.STERADIAN.) SOLID_ANGLE_UNIT() );
#1350 = UNCERTAINTY_MEASURE_WITH_UNIT(LENGTH_MEASURE(1.E-004),#1347,
  'distance_accuracy_value','confusion accuracy');
#1351 = SHAPE_DEFINITION_REPRESENTATION(#1352,#25);
#1352 = PRODUCT_DEFINITION_SHAPE('','',#1353);
#1353 = PRODUCT_DEFINITION('design','',#1354,#1357);
#1354 = PRODUCT_DEFINITION_FORMATION('','',#1355);
#1355 = PRODUCT('Board','Board','',(#1356));
#1356 = PRODUCT_CONTEXT('',#2,'mechanical');
#1357 = PRODUCT_DEFINITION_CONTEXT('part definition',#2,'design');
#1358 = CONTEXT_DEPENDENT_SHAPE_REPRESENTATION(#1359,#1361);
#1359 = ( REPRESENTATION_RELATIONSHIP('','',#25,#10) 
REPRESENTATION_RELATIONSHIP_WITH_TRANSFORMATION(#1360) 
SHAPE_REPRESENTATION_RELATIONSHIP() );
#1360 = ITEM_DEFINED_TRANSFORMATION('','',#11,#15);
#1361 = PRODUCT_DEFINITION_SHAPE('Placement','Placement of an item',
  #1362);
#1362 = NEXT_ASSEMBLY_USAGE_OCCURRENCE('1','Board','',#5,#1353,$);
#1363 = PRODUCT_RELATED_PRODUCT_CATEGORY('part',$,(#1355));
#1364 = MECHANICAL_DESIGN_GEOMETRIC_PRESENTATION_REPRESENTATION('',(
    #1365),#1346);
#1365 = STYLED_ITEM('color',(#1366),#26);
#1366 = PRESENTATION_STYLE_ASSIGNMENT((#1367));
#1367 = SURFACE_STYLE_USAGE(.BOTH.,#1368);
#1368 = SURFACE_SIDE_STYLE('',(#1369));
#1369 = SURFACE_STYLE_FILL_AREA(#1370);
#1370 = FILL_AREA_STYLE('',(#1371));
#1371 = FILL_AREA_STYLE_COLOUR('',#1372);
#1372 = DRAUGHTING_PRE_DEFINED_COLOUR('red');
ENDSEC;
END-ISO-10303-21;
