%TF.GenerationSoftware,KiCad,Pcbnew,7.0.7*%
%TF.CreationDate,2024-02-11T13:41:50-05:00*%
%TF.ProjectId,Frosti,46726f73-7469-42e6-9b69-6361645f7063,rev?*%
%TF.SameCoordinates,Original*%
%TF.FileFunction,Copper,L2,Bot*%
%TF.FilePolarity,Positive*%
%FSLAX46Y46*%
G04 Gerber Fmt 4.6, Leading zero omitted, Abs format (unit mm)*
G04 Created by KiCad (PCBNEW 7.0.7) date 2024-02-11 13:41:50*
%MOMM*%
%LPD*%
G01*
G04 APERTURE LIST*
G04 Aperture macros list*
%AMRoundRect*
0 Rectangle with rounded corners*
0 $1 Rounding radius*
0 $2 $3 $4 $5 $6 $7 $8 $9 X,Y pos of 4 corners*
0 Add a 4 corners polygon primitive as box body*
4,1,4,$2,$3,$4,$5,$6,$7,$8,$9,$2,$3,0*
0 Add four circle primitives for the rounded corners*
1,1,$1+$1,$2,$3*
1,1,$1+$1,$4,$5*
1,1,$1+$1,$6,$7*
1,1,$1+$1,$8,$9*
0 Add four rect primitives between the rounded corners*
20,1,$1+$1,$2,$3,$4,$5,0*
20,1,$1+$1,$4,$5,$6,$7,0*
20,1,$1+$1,$6,$7,$8,$9,0*
20,1,$1+$1,$8,$9,$2,$3,0*%
G04 Aperture macros list end*
%TA.AperFunction,ComponentPad*%
%ADD10C,1.803400*%
%TD*%
%TA.AperFunction,ComponentPad*%
%ADD11R,1.700000X1.700000*%
%TD*%
%TA.AperFunction,ComponentPad*%
%ADD12O,1.700000X1.700000*%
%TD*%
%TA.AperFunction,ComponentPad*%
%ADD13R,1.350000X1.350000*%
%TD*%
%TA.AperFunction,ComponentPad*%
%ADD14O,1.350000X1.350000*%
%TD*%
%TA.AperFunction,ComponentPad*%
%ADD15C,1.308000*%
%TD*%
%TA.AperFunction,ComponentPad*%
%ADD16C,1.258000*%
%TD*%
%TA.AperFunction,ComponentPad*%
%ADD17C,1.208000*%
%TD*%
%TA.AperFunction,ComponentPad*%
%ADD18C,2.032000*%
%TD*%
%TA.AperFunction,ComponentPad*%
%ADD19RoundRect,1.500000X1.500000X1.500000X-1.500000X1.500000X-1.500000X-1.500000X1.500000X-1.500000X0*%
%TD*%
%TA.AperFunction,ComponentPad*%
%ADD20C,6.000000*%
%TD*%
%TA.AperFunction,ViaPad*%
%ADD21C,0.800000*%
%TD*%
%TA.AperFunction,Conductor*%
%ADD22C,0.250000*%
%TD*%
G04 APERTURE END LIST*
D10*
%TO.P,U5,1,Vin*%
%TO.N,Net-(U4-OUT1)*%
X170815000Y-130810000D03*
%TO.P,U5,2,GND*%
%TO.N,Net-(U4-OUT2)*%
X165815000Y-130810000D03*
%TD*%
D11*
%TO.P,Servo Motor,1,PWM*%
%TO.N,Servo PWM Signal*%
X144145000Y-65405000D03*
D12*
%TO.P,Servo Motor,2,+*%
%TO.N,Servo 5V Source*%
X141605000Y-65405000D03*
%TO.P,Servo Motor,3,-*%
%TO.N,GNDREF*%
X139065000Y-65405000D03*
%TD*%
D10*
%TO.P,U11,1,Vin*%
%TO.N,Net-(U10-OUT1)*%
X109980100Y-130810000D03*
%TO.P,U11,2,GND*%
%TO.N,Net-(U10-OUT2)*%
X104980100Y-130810000D03*
%TD*%
%TO.P,U6,1,+5V*%
%TO.N,+3V3*%
X108585000Y-68705000D03*
%TO.P,U6,2,GND*%
%TO.N,GNDREF*%
X108585000Y-63625000D03*
%TO.P,U6,3,Signal_Out*%
%TO.N,Line Sensor 1 Data*%
X108585000Y-58545000D03*
%TD*%
%TO.P,U2,1,+5V*%
%TO.N,+3V3*%
X125095000Y-68580000D03*
%TO.P,U2,2,GND*%
%TO.N,GNDREF*%
X125095000Y-63500000D03*
%TO.P,U2,3,Signal_Out*%
%TO.N,Distance Sensor Data 2*%
X125095000Y-58420000D03*
%TD*%
%TO.P,U1,1,+5V*%
%TO.N,+3V3*%
X125095000Y-84455000D03*
%TO.P,U1,2,GND*%
%TO.N,GNDREF*%
X125095000Y-79375000D03*
%TO.P,U1,3,Signal_Out*%
%TO.N,Distance Sensor Data 1*%
X125095000Y-74295000D03*
%TD*%
D13*
%TO.P,IMU,1,VCC*%
%TO.N,+3V3*%
X137795000Y-87630000D03*
D14*
%TO.P,IMU,2,GND*%
%TO.N,GNDREF*%
X137795000Y-89630000D03*
%TO.P,IMU,3,SCL*%
%TO.N,IMU Clock*%
X137795000Y-91630000D03*
%TO.P,IMU,4,SDA*%
%TO.N,IMU Data*%
X137795000Y-93630000D03*
%TD*%
D15*
%TO.P,U14,0,RX1*%
%TO.N,Start Module Signal*%
X161925000Y-107315000D03*
%TO.P,U14,1,TX1*%
%TO.N,unconnected-(U14-TX1-Pad1)*%
X159385000Y-107315000D03*
%TO.P,U14,2,OUT2*%
%TO.N,unconnected-(U14-OUT2-Pad2)*%
X156845000Y-107315000D03*
%TO.P,U14,3,LRCLK2*%
%TO.N,unconnected-(U14-LRCLK2-Pad3)*%
X154305000Y-107315000D03*
%TO.P,U14,3.3V_1,3.3V*%
%TO.N,+3V3*%
X128905000Y-107315000D03*
%TO.P,U14,3.3V_2,3.3V*%
X159385000Y-122555000D03*
%TO.P,U14,3.3V_3,3.3V*%
X118745000Y-112395000D03*
%TO.P,U14,4,BCLK2*%
%TO.N,unconnected-(U14-BCLK2-Pad4)*%
X151765000Y-107315000D03*
%TO.P,U14,5,IN2*%
%TO.N,unconnected-(U14-IN2-Pad5)*%
X149225000Y-107315000D03*
D16*
%TO.P,U14,5V,5V*%
%TO.N,unconnected-(U14-Pad5V)*%
X158115000Y-110365000D03*
D15*
%TO.P,U14,6,OUT1D*%
%TO.N,Servo PWM Signal*%
X146685000Y-107315000D03*
%TO.P,U14,7,RX2*%
%TO.N,unconnected-(U14-RX2-Pad7)*%
X144145000Y-107315000D03*
%TO.P,U14,8,TX2*%
%TO.N,unconnected-(U14-TX2-Pad8)*%
X141605000Y-107315000D03*
%TO.P,U14,9,OUT1C*%
%TO.N,unconnected-(U14-OUT1C-Pad9)*%
X139065000Y-107315000D03*
%TO.P,U14,10,CS1*%
%TO.N,unconnected-(U14-CS1-Pad10)*%
X136525000Y-107315000D03*
%TO.P,U14,11,MOSI*%
%TO.N,unconnected-(U14-MOSI-Pad11)*%
X133985000Y-107315000D03*
%TO.P,U14,12,MISO*%
%TO.N,unconnected-(U14-MISO-Pad12)*%
X131445000Y-107315000D03*
%TO.P,U14,13,SCK*%
%TO.N,unconnected-(U14-SCK-Pad13)*%
X131445000Y-122555000D03*
%TO.P,U14,14,A0*%
%TO.N,unconnected-(U14-A0-Pad14)*%
X133985000Y-122555000D03*
%TO.P,U14,15,A1*%
%TO.N,unconnected-(U14-A1-Pad15)*%
X136525000Y-122555000D03*
%TO.P,U14,16,A2*%
%TO.N,unconnected-(U14-A2-Pad16)*%
X139065000Y-122555000D03*
%TO.P,U14,17,A3*%
%TO.N,unconnected-(U14-A3-Pad17)*%
X141605000Y-122555000D03*
%TO.P,U14,18,A4*%
%TO.N,unconnected-(U14-A4-Pad18)*%
X144145000Y-122555000D03*
%TO.P,U14,19,A5*%
%TO.N,unconnected-(U14-A5-Pad19)*%
X146685000Y-122555000D03*
%TO.P,U14,20,A6*%
%TO.N,unconnected-(U14-A6-Pad20)*%
X149225000Y-122555000D03*
%TO.P,U14,21,A7*%
%TO.N,Motor Driver 1 PWM High*%
X151765000Y-122555000D03*
%TO.P,U14,22,A8*%
%TO.N,Motor Driver 1 PWM Low*%
X154305000Y-122555000D03*
%TO.P,U14,23,A9*%
%TO.N,unconnected-(U14-A9-Pad23)*%
X156845000Y-122555000D03*
%TO.P,U14,24,A10*%
%TO.N,IMU Clock*%
X126365000Y-107315000D03*
%TO.P,U14,25,A11*%
%TO.N,IMU Data*%
X123825000Y-107315000D03*
%TO.P,U14,26,A12*%
%TO.N,unconnected-(U14-A12-Pad26)*%
X121285000Y-107315000D03*
%TO.P,U14,27,A13*%
%TO.N,Distance Sensor Data 3*%
X118745000Y-107315000D03*
%TO.P,U14,28,RX7*%
%TO.N,Distance Sensor Data 1*%
X116205000Y-107315000D03*
%TO.P,U14,29,TX7*%
%TO.N,Distance Sensor Data 2*%
X113665000Y-107315000D03*
%TO.P,U14,30,CRX3*%
%TO.N,Line Sensor 2 Data*%
X111125000Y-107315000D03*
%TO.P,U14,31,CTX3*%
%TO.N,Line Sensor 3 Data*%
X108585000Y-107315000D03*
%TO.P,U14,32,OUT1B*%
%TO.N,Line Sensor 1 Data*%
X106045000Y-107315000D03*
%TO.P,U14,33,MCLK2*%
%TO.N,unconnected-(U14-MCLK2-Pad33)*%
X106045000Y-122555000D03*
%TO.P,U14,34,RX8*%
%TO.N,unconnected-(U14-RX8-Pad34)*%
X108585000Y-122555000D03*
%TO.P,U14,35,TX8*%
%TO.N,unconnected-(U14-TX8-Pad35)*%
X111125000Y-122555000D03*
%TO.P,U14,36,CS2*%
%TO.N,Motor Driver 2 PWM High*%
X113665000Y-122555000D03*
%TO.P,U14,37,CS3*%
%TO.N,Motor Driver 2 PWM Low*%
X116205000Y-122555000D03*
%TO.P,U14,38,A14*%
%TO.N,unconnected-(U14-A14-Pad38)*%
X118745000Y-122555000D03*
%TO.P,U14,39,A15*%
%TO.N,unconnected-(U14-A15-Pad39)*%
X121285000Y-122555000D03*
%TO.P,U14,40,A16*%
%TO.N,unconnected-(U14-A16-Pad40)*%
X123825000Y-122555000D03*
%TO.P,U14,41,A17*%
%TO.N,unconnected-(U14-A17-Pad41)*%
X126365000Y-122555000D03*
D16*
%TO.P,U14,D+,D+*%
%TO.N,unconnected-(U14-PadD+)*%
X153035000Y-110365000D03*
%TO.P,U14,D-,D-*%
%TO.N,unconnected-(U14-PadD-)*%
X155575000Y-110365000D03*
D15*
%TO.P,U14,GND1,GND*%
%TO.N,GNDREF*%
X164465000Y-107315000D03*
%TO.P,U14,GND2,GND*%
X128905000Y-122555000D03*
%TO.P,U14,GND3,GND*%
X161925000Y-122555000D03*
%TO.P,U14,GND4,GND*%
X118745000Y-114935000D03*
D17*
%TO.P,U14,GND5,GND*%
X149495000Y-118105000D03*
%TO.P,U14,LED,LED*%
%TO.N,unconnected-(U14-PadLED)*%
X151495000Y-118105000D03*
D15*
%TO.P,U14,ON/OFF,ON/OFF*%
%TO.N,unconnected-(U14-PadON{slash}OFF)*%
X118745000Y-120015000D03*
%TO.P,U14,PROGRAM,PROGRAM*%
%TO.N,unconnected-(U14-PadPROGRAM)*%
X118745000Y-117475000D03*
D17*
%TO.P,U14,R+,R+*%
%TO.N,unconnected-(U14-PadR+)*%
X151495000Y-120105000D03*
%TO.P,U14,R-,R-*%
%TO.N,unconnected-(U14-PadR-)*%
X149495000Y-120105000D03*
%TO.P,U14,T+,T+*%
%TO.N,unconnected-(U14-PadT+)*%
X149495000Y-116105000D03*
%TO.P,U14,T-,T-*%
%TO.N,unconnected-(U14-PadT-)*%
X151495000Y-116105000D03*
D16*
%TO.P,U14,USB_GND1,USB_GND*%
%TO.N,Net-(U14-USB_GND-PadUSB_GND1)*%
X150495000Y-110365000D03*
%TO.P,U14,USB_GND2,USB_GND*%
X147955000Y-110365000D03*
D15*
%TO.P,U14,VBAT,VBAT*%
%TO.N,unconnected-(U14-PadVBAT)*%
X118745000Y-109855000D03*
%TO.P,U14,VIN,VIN*%
%TO.N,Servo 5V Source*%
X164465000Y-122555000D03*
%TO.P,U14,VUSB,VUSB*%
%TO.N,unconnected-(U14-PadVUSB)*%
X161925000Y-120015000D03*
%TD*%
D18*
%TO.P,SW2,1,A*%
%TO.N,11.1V Converter Source*%
X169545000Y-70995001D03*
%TO.P,SW2,2,B*%
%TO.N,Net-(SW2-B)*%
X169545000Y-66295000D03*
%TO.P,SW2,3*%
%TO.N,N/C*%
X169545000Y-61595000D03*
%TD*%
D10*
%TO.P,U3,1,+5V*%
%TO.N,+3V3*%
X125095000Y-100330000D03*
%TO.P,U3,2,GND*%
%TO.N,GNDREF*%
X125095000Y-95250000D03*
%TO.P,U3,3,Signal_Out*%
%TO.N,Distance Sensor Data 3*%
X125095000Y-90170000D03*
%TD*%
D19*
%TO.P,GND1,1,Pin_1*%
%TO.N,GNDREF*%
X160655000Y-61595000D03*
D20*
%TO.P,GND1,2,Pin_2*%
%TO.N,Net-(GND1-Pin_2)*%
X153455000Y-61595000D03*
%TD*%
D10*
%TO.P,U8,1,+5V*%
%TO.N,+3V3*%
X108585000Y-100455000D03*
%TO.P,U8,2,GND*%
%TO.N,GNDREF*%
X108585000Y-95375000D03*
%TO.P,U8,3,Signal_Out*%
%TO.N,Line Sensor 2 Data*%
X108585000Y-90295000D03*
%TD*%
D13*
%TO.P,Start Module,1,5V*%
%TO.N,+3V3*%
X151575000Y-97965000D03*
D14*
%TO.P,Start Module,2,GND*%
%TO.N,GNDREF*%
X153575000Y-97965000D03*
%TO.P,Start Module,3,Signal*%
%TO.N,Start Module Signal*%
X155575000Y-97965000D03*
%TD*%
D10*
%TO.P,U7,1,+5V*%
%TO.N,+3V3*%
X108585000Y-84580000D03*
%TO.P,U7,2,GND*%
%TO.N,GNDREF*%
X108585000Y-79500000D03*
%TO.P,U7,3,Signal_Out*%
%TO.N,Line Sensor 3 Data*%
X108585000Y-74420000D03*
%TD*%
D21*
%TO.N,11.1V Converter Source*%
X151765000Y-69850000D03*
%TD*%
D22*
%TO.N,11.1V Converter Source*%
X168910000Y-69850000D02*
X169545000Y-70485000D01*
X169545000Y-70485000D02*
X169545000Y-70995001D01*
X151765000Y-69850000D02*
X168910000Y-69850000D01*
%TO.N,+3V3*%
X128905000Y-107315000D02*
X128905000Y-104140000D01*
X128905000Y-104140000D02*
X125095000Y-100330000D01*
%TO.N,Distance Sensor Data 1*%
X116205000Y-83185000D02*
X116205000Y-107315000D01*
X125095000Y-74295000D02*
X116205000Y-83185000D01*
%TO.N,Distance Sensor Data 2*%
X118745000Y-58420000D02*
X125095000Y-58420000D01*
X113665000Y-107315000D02*
X110490000Y-104140000D01*
X110490000Y-66675000D02*
X118745000Y-58420000D01*
X110490000Y-104140000D02*
X110490000Y-66675000D01*
%TO.N,Distance Sensor Data 3*%
X118745000Y-96520000D02*
X118745000Y-107315000D01*
X125095000Y-90170000D02*
X118745000Y-96520000D01*
%TO.N,Servo PWM Signal*%
X144145000Y-104775000D02*
X146685000Y-107315000D01*
X144145000Y-65405000D02*
X144145000Y-104775000D01*
%TD*%
%TA.AperFunction,Conductor*%
%TO.N,GNDREF*%
G36*
X149974568Y-118235605D02*
G01*
X149996791Y-118253239D01*
X150435321Y-118691767D01*
X150481100Y-118688591D01*
X150549341Y-118703588D01*
X150588637Y-118737567D01*
X150675269Y-118852287D01*
X150826536Y-118990185D01*
X150831830Y-118993463D01*
X150841696Y-118999571D01*
X150888332Y-119051598D01*
X150899437Y-119120579D01*
X150871485Y-119184614D01*
X150841703Y-119210422D01*
X150826544Y-119219808D01*
X150826537Y-119219814D01*
X150675269Y-119357712D01*
X150593954Y-119465392D01*
X150537845Y-119507028D01*
X150468133Y-119511719D01*
X150406951Y-119477977D01*
X150396046Y-119465392D01*
X150314730Y-119357712D01*
X150163464Y-119219815D01*
X150132021Y-119200346D01*
X150085387Y-119148317D01*
X150074127Y-119080629D01*
X150078591Y-119042144D01*
X149641406Y-118604958D01*
X149607921Y-118543635D01*
X149612905Y-118473943D01*
X149654777Y-118418010D01*
X149670062Y-118408227D01*
X149712947Y-118385019D01*
X149792060Y-118299079D01*
X149795554Y-118291111D01*
X149840504Y-118237628D01*
X149907239Y-118216934D01*
X149974568Y-118235605D01*
G37*
%TD.AperFunction*%
%TA.AperFunction,Conductor*%
G36*
X150583048Y-116732022D02*
G01*
X150593954Y-116744608D01*
X150675266Y-116852283D01*
X150675268Y-116852286D01*
X150826537Y-116990185D01*
X150826538Y-116990186D01*
X150841699Y-116999574D01*
X150888334Y-117051603D01*
X150899437Y-117120585D01*
X150871483Y-117184619D01*
X150841699Y-117210426D01*
X150826538Y-117219813D01*
X150826537Y-117219814D01*
X150675269Y-117357712D01*
X150588635Y-117472435D01*
X150532526Y-117514071D01*
X150481089Y-117521410D01*
X150435321Y-117518231D01*
X149995552Y-117958000D01*
X149934229Y-117991485D01*
X149864537Y-117986501D01*
X149808604Y-117944629D01*
X149804070Y-117938152D01*
X149756064Y-117864673D01*
X149756062Y-117864671D01*
X149656399Y-117787100D01*
X149615586Y-117730390D01*
X149611911Y-117660617D01*
X149644880Y-117601566D01*
X150078592Y-117167853D01*
X150074127Y-117129368D01*
X150085955Y-117060507D01*
X150132025Y-117009650D01*
X150163462Y-116990186D01*
X150314732Y-116852285D01*
X150396045Y-116744608D01*
X150452154Y-116702971D01*
X150521866Y-116698279D01*
X150583048Y-116732022D01*
G37*
%TD.AperFunction*%
%TA.AperFunction,Conductor*%
G36*
X172028039Y-56534685D02*
G01*
X172073794Y-56587489D01*
X172085000Y-56639000D01*
X172085000Y-129801467D01*
X172065315Y-129868506D01*
X172012511Y-129914261D01*
X171943353Y-129924205D01*
X171879797Y-129895180D01*
X171869770Y-129885450D01*
X171767936Y-129774829D01*
X171767932Y-129774826D01*
X171584567Y-129632107D01*
X171584561Y-129632103D01*
X171380188Y-129521501D01*
X171380180Y-129521498D01*
X171160402Y-129446048D01*
X170931190Y-129407800D01*
X170698810Y-129407800D01*
X170469597Y-129446048D01*
X170249819Y-129521498D01*
X170249811Y-129521501D01*
X170045438Y-129632103D01*
X170045432Y-129632107D01*
X169862067Y-129774826D01*
X169862064Y-129774829D01*
X169704676Y-129945797D01*
X169704673Y-129945801D01*
X169577575Y-130140337D01*
X169484229Y-130353145D01*
X169427183Y-130578417D01*
X169407994Y-130809994D01*
X169407994Y-130810005D01*
X169427183Y-131041582D01*
X169484229Y-131266854D01*
X169577575Y-131479662D01*
X169704673Y-131674198D01*
X169704675Y-131674201D01*
X169862061Y-131845168D01*
X169862064Y-131845170D01*
X169862067Y-131845173D01*
X170045432Y-131987892D01*
X170045438Y-131987896D01*
X170045441Y-131987898D01*
X170249812Y-132098499D01*
X170469600Y-132173952D01*
X170698810Y-132212200D01*
X170931190Y-132212200D01*
X171160400Y-132173952D01*
X171380188Y-132098499D01*
X171584559Y-131987898D01*
X171767939Y-131845168D01*
X171869771Y-131734547D01*
X171929657Y-131698559D01*
X171999495Y-131700659D01*
X172057111Y-131740183D01*
X172084213Y-131804582D01*
X172085000Y-131818532D01*
X172085000Y-134496000D01*
X172065315Y-134563039D01*
X172012511Y-134608794D01*
X171961000Y-134620000D01*
X103629000Y-134620000D01*
X103561961Y-134600315D01*
X103516206Y-134547511D01*
X103505000Y-134496000D01*
X103505000Y-131529200D01*
X103524685Y-131462161D01*
X103577489Y-131416406D01*
X103646647Y-131406462D01*
X103710203Y-131435487D01*
X103739659Y-131475460D01*
X103740233Y-131475150D01*
X103742452Y-131479251D01*
X103742557Y-131479393D01*
X103742674Y-131479661D01*
X103869773Y-131674198D01*
X103869775Y-131674201D01*
X104027161Y-131845168D01*
X104027164Y-131845170D01*
X104027167Y-131845173D01*
X104210532Y-131987892D01*
X104210538Y-131987896D01*
X104210541Y-131987898D01*
X104414912Y-132098499D01*
X104634700Y-132173952D01*
X104863910Y-132212200D01*
X105096290Y-132212200D01*
X105325500Y-132173952D01*
X105545288Y-132098499D01*
X105749659Y-131987898D01*
X105933039Y-131845168D01*
X106090425Y-131674201D01*
X106217525Y-131479661D01*
X106310871Y-131266854D01*
X106367916Y-131041586D01*
X106387106Y-130810005D01*
X108573094Y-130810005D01*
X108592283Y-131041582D01*
X108649329Y-131266854D01*
X108742675Y-131479662D01*
X108869773Y-131674198D01*
X108869775Y-131674201D01*
X109027161Y-131845168D01*
X109027164Y-131845170D01*
X109027167Y-131845173D01*
X109210532Y-131987892D01*
X109210538Y-131987896D01*
X109210541Y-131987898D01*
X109414912Y-132098499D01*
X109634700Y-132173952D01*
X109863910Y-132212200D01*
X110096290Y-132212200D01*
X110325500Y-132173952D01*
X110545288Y-132098499D01*
X110749659Y-131987898D01*
X110933039Y-131845168D01*
X111090425Y-131674201D01*
X111217525Y-131479661D01*
X111310871Y-131266854D01*
X111367916Y-131041586D01*
X111387106Y-130810005D01*
X164407994Y-130810005D01*
X164427183Y-131041582D01*
X164484229Y-131266854D01*
X164577575Y-131479662D01*
X164704673Y-131674198D01*
X164704675Y-131674201D01*
X164862061Y-131845168D01*
X164862064Y-131845170D01*
X164862067Y-131845173D01*
X165045432Y-131987892D01*
X165045438Y-131987896D01*
X165045441Y-131987898D01*
X165249812Y-132098499D01*
X165469600Y-132173952D01*
X165698810Y-132212200D01*
X165931190Y-132212200D01*
X166160400Y-132173952D01*
X166380188Y-132098499D01*
X166584559Y-131987898D01*
X166767939Y-131845168D01*
X166925325Y-131674201D01*
X167052425Y-131479661D01*
X167145771Y-131266854D01*
X167202816Y-131041586D01*
X167222006Y-130810000D01*
X167202816Y-130578414D01*
X167145771Y-130353146D01*
X167052425Y-130140339D01*
X166925325Y-129945799D01*
X166767939Y-129774832D01*
X166767934Y-129774828D01*
X166767932Y-129774826D01*
X166584567Y-129632107D01*
X166584561Y-129632103D01*
X166380188Y-129521501D01*
X166380180Y-129521498D01*
X166160402Y-129446048D01*
X165931190Y-129407800D01*
X165698810Y-129407800D01*
X165469597Y-129446048D01*
X165249819Y-129521498D01*
X165249811Y-129521501D01*
X165045438Y-129632103D01*
X165045432Y-129632107D01*
X164862067Y-129774826D01*
X164862064Y-129774829D01*
X164704676Y-129945797D01*
X164704673Y-129945801D01*
X164577575Y-130140337D01*
X164484229Y-130353145D01*
X164427183Y-130578417D01*
X164407994Y-130809994D01*
X164407994Y-130810005D01*
X111387106Y-130810005D01*
X111387106Y-130810000D01*
X111367916Y-130578414D01*
X111310871Y-130353146D01*
X111217525Y-130140339D01*
X111090425Y-129945799D01*
X110933039Y-129774832D01*
X110933034Y-129774828D01*
X110933032Y-129774826D01*
X110749667Y-129632107D01*
X110749661Y-129632103D01*
X110545288Y-129521501D01*
X110545280Y-129521498D01*
X110325502Y-129446048D01*
X110096290Y-129407800D01*
X109863910Y-129407800D01*
X109634697Y-129446048D01*
X109414919Y-129521498D01*
X109414911Y-129521501D01*
X109210538Y-129632103D01*
X109210532Y-129632107D01*
X109027167Y-129774826D01*
X109027164Y-129774829D01*
X108869776Y-129945797D01*
X108869773Y-129945801D01*
X108742675Y-130140337D01*
X108649329Y-130353145D01*
X108592283Y-130578417D01*
X108573094Y-130809994D01*
X108573094Y-130810005D01*
X106387106Y-130810005D01*
X106387106Y-130810000D01*
X106367916Y-130578414D01*
X106310871Y-130353146D01*
X106217525Y-130140339D01*
X106090425Y-129945799D01*
X105933039Y-129774832D01*
X105933034Y-129774828D01*
X105933032Y-129774826D01*
X105749667Y-129632107D01*
X105749661Y-129632103D01*
X105545288Y-129521501D01*
X105545280Y-129521498D01*
X105325502Y-129446048D01*
X105096290Y-129407800D01*
X104863910Y-129407800D01*
X104634697Y-129446048D01*
X104414919Y-129521498D01*
X104414911Y-129521501D01*
X104210538Y-129632103D01*
X104210532Y-129632107D01*
X104027167Y-129774826D01*
X104027164Y-129774829D01*
X103869776Y-129945797D01*
X103869773Y-129945801D01*
X103742675Y-130140338D01*
X103742554Y-130140614D01*
X103742473Y-130140709D01*
X103740233Y-130144850D01*
X103739380Y-130144388D01*
X103697595Y-130194098D01*
X103630858Y-130214785D01*
X103563531Y-130196107D01*
X103516990Y-130143995D01*
X103505000Y-130090799D01*
X103505000Y-122555000D01*
X104885554Y-122555000D01*
X104905295Y-122768047D01*
X104905296Y-122768050D01*
X104963846Y-122973835D01*
X104963849Y-122973841D01*
X104992359Y-123031096D01*
X105059219Y-123165370D01*
X105188159Y-123336114D01*
X105346278Y-123480258D01*
X105346283Y-123480261D01*
X105346286Y-123480263D01*
X105528186Y-123592891D01*
X105528187Y-123592891D01*
X105528190Y-123592893D01*
X105727703Y-123670185D01*
X105938020Y-123709500D01*
X105938022Y-123709500D01*
X106151978Y-123709500D01*
X106151980Y-123709500D01*
X106362297Y-123670185D01*
X106561810Y-123592893D01*
X106743722Y-123480258D01*
X106901841Y-123336114D01*
X107030781Y-123165370D01*
X107126151Y-122973840D01*
X107126151Y-122973837D01*
X107126153Y-122973835D01*
X107177590Y-122793050D01*
X107184704Y-122768048D01*
X107191529Y-122694394D01*
X107217315Y-122629457D01*
X107274116Y-122588770D01*
X107343897Y-122585250D01*
X107404503Y-122620015D01*
X107436693Y-122682028D01*
X107438471Y-122694395D01*
X107445295Y-122768047D01*
X107445296Y-122768050D01*
X107503846Y-122973835D01*
X107503849Y-122973841D01*
X107532359Y-123031096D01*
X107599219Y-123165370D01*
X107728159Y-123336114D01*
X107886278Y-123480258D01*
X107886283Y-123480261D01*
X107886286Y-123480263D01*
X108068186Y-123592891D01*
X108068187Y-123592891D01*
X108068190Y-123592893D01*
X108267703Y-123670185D01*
X108478020Y-123709500D01*
X108478022Y-123709500D01*
X108691978Y-123709500D01*
X108691980Y-123709500D01*
X108902297Y-123670185D01*
X109101810Y-123592893D01*
X109283722Y-123480258D01*
X109441841Y-123336114D01*
X109570781Y-123165370D01*
X109666151Y-122973840D01*
X109666151Y-122973837D01*
X109666153Y-122973835D01*
X109717590Y-122793050D01*
X109724704Y-122768048D01*
X109731529Y-122694394D01*
X109757315Y-122629457D01*
X109814116Y-122588770D01*
X109883897Y-122585250D01*
X109944503Y-122620015D01*
X109976693Y-122682028D01*
X109978471Y-122694395D01*
X109985295Y-122768047D01*
X109985296Y-122768050D01*
X110043846Y-122973835D01*
X110043849Y-122973841D01*
X110072359Y-123031096D01*
X110139219Y-123165370D01*
X110268159Y-123336114D01*
X110426278Y-123480258D01*
X110426283Y-123480261D01*
X110426286Y-123480263D01*
X110608186Y-123592891D01*
X110608187Y-123592891D01*
X110608190Y-123592893D01*
X110807703Y-123670185D01*
X111018020Y-123709500D01*
X111018022Y-123709500D01*
X111231978Y-123709500D01*
X111231980Y-123709500D01*
X111442297Y-123670185D01*
X111641810Y-123592893D01*
X111823722Y-123480258D01*
X111981841Y-123336114D01*
X112110781Y-123165370D01*
X112206151Y-122973840D01*
X112206151Y-122973837D01*
X112206153Y-122973835D01*
X112257590Y-122793050D01*
X112264704Y-122768048D01*
X112271529Y-122694394D01*
X112297315Y-122629457D01*
X112354116Y-122588770D01*
X112423897Y-122585250D01*
X112484503Y-122620015D01*
X112516693Y-122682028D01*
X112518471Y-122694395D01*
X112525295Y-122768047D01*
X112525296Y-122768050D01*
X112583846Y-122973835D01*
X112583849Y-122973841D01*
X112612359Y-123031096D01*
X112679219Y-123165370D01*
X112808159Y-123336114D01*
X112966278Y-123480258D01*
X112966283Y-123480261D01*
X112966286Y-123480263D01*
X113148186Y-123592891D01*
X113148187Y-123592891D01*
X113148190Y-123592893D01*
X113347703Y-123670185D01*
X113558020Y-123709500D01*
X113558022Y-123709500D01*
X113771978Y-123709500D01*
X113771980Y-123709500D01*
X113982297Y-123670185D01*
X114181810Y-123592893D01*
X114363722Y-123480258D01*
X114521841Y-123336114D01*
X114650781Y-123165370D01*
X114746151Y-122973840D01*
X114746151Y-122973837D01*
X114746153Y-122973835D01*
X114797590Y-122793050D01*
X114804704Y-122768048D01*
X114811529Y-122694394D01*
X114837315Y-122629457D01*
X114894116Y-122588770D01*
X114963897Y-122585250D01*
X115024503Y-122620015D01*
X115056693Y-122682028D01*
X115058471Y-122694395D01*
X115065295Y-122768047D01*
X115065296Y-122768050D01*
X115123846Y-122973835D01*
X115123849Y-122973841D01*
X115152359Y-123031096D01*
X115219219Y-123165370D01*
X115348159Y-123336114D01*
X115506278Y-123480258D01*
X115506283Y-123480261D01*
X115506286Y-123480263D01*
X115688186Y-123592891D01*
X115688187Y-123592891D01*
X115688190Y-123592893D01*
X115887703Y-123670185D01*
X116098020Y-123709500D01*
X116098022Y-123709500D01*
X116311978Y-123709500D01*
X116311980Y-123709500D01*
X116522297Y-123670185D01*
X116721810Y-123592893D01*
X116903722Y-123480258D01*
X117061841Y-123336114D01*
X117190781Y-123165370D01*
X117286151Y-122973840D01*
X117286151Y-122973837D01*
X117286153Y-122973835D01*
X117337590Y-122793050D01*
X117344704Y-122768048D01*
X117351529Y-122694394D01*
X117377315Y-122629457D01*
X117434116Y-122588770D01*
X117503897Y-122585250D01*
X117564503Y-122620015D01*
X117596693Y-122682028D01*
X117598471Y-122694395D01*
X117605295Y-122768047D01*
X117605296Y-122768050D01*
X117663846Y-122973835D01*
X117663849Y-122973841D01*
X117692359Y-123031096D01*
X117759219Y-123165370D01*
X117888159Y-123336114D01*
X118046278Y-123480258D01*
X118046283Y-123480261D01*
X118046286Y-123480263D01*
X118228186Y-123592891D01*
X118228187Y-123592891D01*
X118228190Y-123592893D01*
X118427703Y-123670185D01*
X118638020Y-123709500D01*
X118638022Y-123709500D01*
X118851978Y-123709500D01*
X118851980Y-123709500D01*
X119062297Y-123670185D01*
X119261810Y-123592893D01*
X119443722Y-123480258D01*
X119601841Y-123336114D01*
X119730781Y-123165370D01*
X119826151Y-122973840D01*
X119826151Y-122973837D01*
X119826153Y-122973835D01*
X119877590Y-122793050D01*
X119884704Y-122768048D01*
X119891529Y-122694394D01*
X119917315Y-122629457D01*
X119974116Y-122588770D01*
X120043897Y-122585250D01*
X120104503Y-122620015D01*
X120136693Y-122682028D01*
X120138471Y-122694395D01*
X120145295Y-122768047D01*
X120145296Y-122768050D01*
X120203846Y-122973835D01*
X120203849Y-122973841D01*
X120232359Y-123031096D01*
X120299219Y-123165370D01*
X120428159Y-123336114D01*
X120586278Y-123480258D01*
X120586283Y-123480261D01*
X120586286Y-123480263D01*
X120768186Y-123592891D01*
X120768187Y-123592891D01*
X120768190Y-123592893D01*
X120967703Y-123670185D01*
X121178020Y-123709500D01*
X121178022Y-123709500D01*
X121391978Y-123709500D01*
X121391980Y-123709500D01*
X121602297Y-123670185D01*
X121801810Y-123592893D01*
X121983722Y-123480258D01*
X122141841Y-123336114D01*
X122270781Y-123165370D01*
X122366151Y-122973840D01*
X122366151Y-122973837D01*
X122366153Y-122973835D01*
X122417590Y-122793050D01*
X122424704Y-122768048D01*
X122431529Y-122694394D01*
X122457315Y-122629457D01*
X122514116Y-122588770D01*
X122583897Y-122585250D01*
X122644503Y-122620015D01*
X122676693Y-122682028D01*
X122678471Y-122694395D01*
X122685295Y-122768047D01*
X122685296Y-122768050D01*
X122743846Y-122973835D01*
X122743849Y-122973841D01*
X122772359Y-123031096D01*
X122839219Y-123165370D01*
X122968159Y-123336114D01*
X123126278Y-123480258D01*
X123126283Y-123480261D01*
X123126286Y-123480263D01*
X123308186Y-123592891D01*
X123308187Y-123592891D01*
X123308190Y-123592893D01*
X123507703Y-123670185D01*
X123718020Y-123709500D01*
X123718022Y-123709500D01*
X123931978Y-123709500D01*
X123931980Y-123709500D01*
X124142297Y-123670185D01*
X124341810Y-123592893D01*
X124523722Y-123480258D01*
X124681841Y-123336114D01*
X124810781Y-123165370D01*
X124906151Y-122973840D01*
X124906151Y-122973837D01*
X124906153Y-122973835D01*
X124957590Y-122793050D01*
X124964704Y-122768048D01*
X124971529Y-122694394D01*
X124997315Y-122629457D01*
X125054116Y-122588770D01*
X125123897Y-122585250D01*
X125184503Y-122620015D01*
X125216693Y-122682028D01*
X125218471Y-122694395D01*
X125225295Y-122768047D01*
X125225296Y-122768050D01*
X125283846Y-122973835D01*
X125283849Y-122973841D01*
X125312359Y-123031096D01*
X125379219Y-123165370D01*
X125508159Y-123336114D01*
X125666278Y-123480258D01*
X125666283Y-123480261D01*
X125666286Y-123480263D01*
X125848186Y-123592891D01*
X125848187Y-123592891D01*
X125848190Y-123592893D01*
X126047703Y-123670185D01*
X126258020Y-123709500D01*
X126258022Y-123709500D01*
X126471978Y-123709500D01*
X126471980Y-123709500D01*
X126682297Y-123670185D01*
X126881810Y-123592893D01*
X127063722Y-123480258D01*
X127221841Y-123336114D01*
X127350781Y-123165370D01*
X127446151Y-122973840D01*
X127446151Y-122973837D01*
X127446153Y-122973835D01*
X127497590Y-122793050D01*
X127504704Y-122768048D01*
X127511780Y-122691686D01*
X127537564Y-122626751D01*
X127594364Y-122586063D01*
X127664145Y-122582543D01*
X127724752Y-122617307D01*
X127756943Y-122679320D01*
X127758721Y-122691687D01*
X127765788Y-122767954D01*
X127765789Y-122767956D01*
X127824315Y-122973654D01*
X127824321Y-122973669D01*
X127919646Y-123165106D01*
X127928980Y-123177466D01*
X128367580Y-122738866D01*
X128428903Y-122705381D01*
X128498594Y-122710365D01*
X128554528Y-122752236D01*
X128565742Y-122770246D01*
X128577359Y-122793045D01*
X128577361Y-122793047D01*
X128577363Y-122793050D01*
X128666949Y-122882636D01*
X128666951Y-122882637D01*
X128666955Y-122882641D01*
X128689747Y-122894254D01*
X128740542Y-122942228D01*
X128757337Y-123010049D01*
X128734799Y-123076184D01*
X128721132Y-123092419D01*
X128285085Y-123528465D01*
X128388415Y-123592444D01*
X128388416Y-123592445D01*
X128587837Y-123669700D01*
X128798068Y-123709000D01*
X129011932Y-123709000D01*
X129222162Y-123669700D01*
X129421585Y-123592444D01*
X129421586Y-123592443D01*
X129524913Y-123528465D01*
X129088866Y-123092419D01*
X129055381Y-123031096D01*
X129060365Y-122961405D01*
X129102236Y-122905471D01*
X129120245Y-122894258D01*
X129143045Y-122882641D01*
X129232641Y-122793045D01*
X129244254Y-122770252D01*
X129292225Y-122719458D01*
X129360046Y-122702661D01*
X129426181Y-122725197D01*
X129442419Y-122738866D01*
X129881018Y-123177465D01*
X129890355Y-123165101D01*
X129890357Y-123165098D01*
X129985678Y-122973669D01*
X129985684Y-122973654D01*
X130044210Y-122767956D01*
X130044211Y-122767954D01*
X130051278Y-122691688D01*
X130077064Y-122626751D01*
X130133864Y-122586063D01*
X130203645Y-122582543D01*
X130264252Y-122617308D01*
X130296442Y-122679321D01*
X130298220Y-122691687D01*
X130305296Y-122768048D01*
X130305296Y-122768050D01*
X130363846Y-122973835D01*
X130363849Y-122973841D01*
X130392359Y-123031096D01*
X130459219Y-123165370D01*
X130588159Y-123336114D01*
X130746278Y-123480258D01*
X130746283Y-123480261D01*
X130746286Y-123480263D01*
X130928186Y-123592891D01*
X130928187Y-123592891D01*
X130928190Y-123592893D01*
X131127703Y-123670185D01*
X131338020Y-123709500D01*
X131338022Y-123709500D01*
X131551978Y-123709500D01*
X131551980Y-123709500D01*
X131762297Y-123670185D01*
X131961810Y-123592893D01*
X132143722Y-123480258D01*
X132301841Y-123336114D01*
X132430781Y-123165370D01*
X132526151Y-122973840D01*
X132526151Y-122973837D01*
X132526153Y-122973835D01*
X132577590Y-122793050D01*
X132584704Y-122768048D01*
X132591529Y-122694394D01*
X132617315Y-122629457D01*
X132674116Y-122588770D01*
X132743897Y-122585250D01*
X132804503Y-122620015D01*
X132836693Y-122682028D01*
X132838471Y-122694395D01*
X132845295Y-122768047D01*
X132845296Y-122768050D01*
X132903846Y-122973835D01*
X132903849Y-122973841D01*
X132932359Y-123031096D01*
X132999219Y-123165370D01*
X133128159Y-123336114D01*
X133286278Y-123480258D01*
X133286283Y-123480261D01*
X133286286Y-123480263D01*
X133468186Y-123592891D01*
X133468187Y-123592891D01*
X133468190Y-123592893D01*
X133667703Y-123670185D01*
X133878020Y-123709500D01*
X133878022Y-123709500D01*
X134091978Y-123709500D01*
X134091980Y-123709500D01*
X134302297Y-123670185D01*
X134501810Y-123592893D01*
X134683722Y-123480258D01*
X134841841Y-123336114D01*
X134970781Y-123165370D01*
X135066151Y-122973840D01*
X135066151Y-122973837D01*
X135066153Y-122973835D01*
X135117590Y-122793050D01*
X135124704Y-122768048D01*
X135131529Y-122694394D01*
X135157315Y-122629457D01*
X135214116Y-122588770D01*
X135283897Y-122585250D01*
X135344503Y-122620015D01*
X135376693Y-122682028D01*
X135378471Y-122694395D01*
X135385295Y-122768047D01*
X135385296Y-122768050D01*
X135443846Y-122973835D01*
X135443849Y-122973841D01*
X135472359Y-123031096D01*
X135539219Y-123165370D01*
X135668159Y-123336114D01*
X135826278Y-123480258D01*
X135826283Y-123480261D01*
X135826286Y-123480263D01*
X136008186Y-123592891D01*
X136008187Y-123592891D01*
X136008190Y-123592893D01*
X136207703Y-123670185D01*
X136418020Y-123709500D01*
X136418022Y-123709500D01*
X136631978Y-123709500D01*
X136631980Y-123709500D01*
X136842297Y-123670185D01*
X137041810Y-123592893D01*
X137223722Y-123480258D01*
X137381841Y-123336114D01*
X137510781Y-123165370D01*
X137606151Y-122973840D01*
X137606151Y-122973837D01*
X137606153Y-122973835D01*
X137657590Y-122793050D01*
X137664704Y-122768048D01*
X137671529Y-122694394D01*
X137697315Y-122629457D01*
X137754116Y-122588770D01*
X137823897Y-122585250D01*
X137884503Y-122620015D01*
X137916693Y-122682028D01*
X137918471Y-122694395D01*
X137925295Y-122768047D01*
X137925296Y-122768050D01*
X137983846Y-122973835D01*
X137983849Y-122973841D01*
X138012359Y-123031096D01*
X138079219Y-123165370D01*
X138208159Y-123336114D01*
X138366278Y-123480258D01*
X138366283Y-123480261D01*
X138366286Y-123480263D01*
X138548186Y-123592891D01*
X138548187Y-123592891D01*
X138548190Y-123592893D01*
X138747703Y-123670185D01*
X138958020Y-123709500D01*
X138958022Y-123709500D01*
X139171978Y-123709500D01*
X139171980Y-123709500D01*
X139382297Y-123670185D01*
X139581810Y-123592893D01*
X139763722Y-123480258D01*
X139921841Y-123336114D01*
X140050781Y-123165370D01*
X140146151Y-122973840D01*
X140146151Y-122973837D01*
X140146153Y-122973835D01*
X140197590Y-122793050D01*
X140204704Y-122768048D01*
X140211529Y-122694394D01*
X140237315Y-122629457D01*
X140294116Y-122588770D01*
X140363897Y-122585250D01*
X140424503Y-122620015D01*
X140456693Y-122682028D01*
X140458471Y-122694395D01*
X140465295Y-122768047D01*
X140465296Y-122768050D01*
X140523846Y-122973835D01*
X140523849Y-122973841D01*
X140552359Y-123031096D01*
X140619219Y-123165370D01*
X140748159Y-123336114D01*
X140906278Y-123480258D01*
X140906283Y-123480261D01*
X140906286Y-123480263D01*
X141088186Y-123592891D01*
X141088187Y-123592891D01*
X141088190Y-123592893D01*
X141287703Y-123670185D01*
X141498020Y-123709500D01*
X141498022Y-123709500D01*
X141711978Y-123709500D01*
X141711980Y-123709500D01*
X141922297Y-123670185D01*
X142121810Y-123592893D01*
X142303722Y-123480258D01*
X142461841Y-123336114D01*
X142590781Y-123165370D01*
X142686151Y-122973840D01*
X142686151Y-122973837D01*
X142686153Y-122973835D01*
X142737590Y-122793050D01*
X142744704Y-122768048D01*
X142751529Y-122694394D01*
X142777315Y-122629457D01*
X142834116Y-122588770D01*
X142903897Y-122585250D01*
X142964503Y-122620015D01*
X142996693Y-122682028D01*
X142998471Y-122694395D01*
X143005295Y-122768047D01*
X143005296Y-122768050D01*
X143063846Y-122973835D01*
X143063849Y-122973841D01*
X143092359Y-123031096D01*
X143159219Y-123165370D01*
X143288159Y-123336114D01*
X143446278Y-123480258D01*
X143446283Y-123480261D01*
X143446286Y-123480263D01*
X143628186Y-123592891D01*
X143628187Y-123592891D01*
X143628190Y-123592893D01*
X143827703Y-123670185D01*
X144038020Y-123709500D01*
X144038022Y-123709500D01*
X144251978Y-123709500D01*
X144251980Y-123709500D01*
X144462297Y-123670185D01*
X144661810Y-123592893D01*
X144843722Y-123480258D01*
X145001841Y-123336114D01*
X145130781Y-123165370D01*
X145226151Y-122973840D01*
X145226151Y-122973837D01*
X145226153Y-122973835D01*
X145277590Y-122793050D01*
X145284704Y-122768048D01*
X145291529Y-122694394D01*
X145317315Y-122629457D01*
X145374116Y-122588770D01*
X145443897Y-122585250D01*
X145504503Y-122620015D01*
X145536693Y-122682028D01*
X145538471Y-122694395D01*
X145545295Y-122768047D01*
X145545296Y-122768050D01*
X145603846Y-122973835D01*
X145603849Y-122973841D01*
X145632359Y-123031096D01*
X145699219Y-123165370D01*
X145828159Y-123336114D01*
X145986278Y-123480258D01*
X145986283Y-123480261D01*
X145986286Y-123480263D01*
X146168186Y-123592891D01*
X146168187Y-123592891D01*
X146168190Y-123592893D01*
X146367703Y-123670185D01*
X146578020Y-123709500D01*
X146578022Y-123709500D01*
X146791978Y-123709500D01*
X146791980Y-123709500D01*
X147002297Y-123670185D01*
X147201810Y-123592893D01*
X147383722Y-123480258D01*
X147541841Y-123336114D01*
X147670781Y-123165370D01*
X147766151Y-122973840D01*
X147766151Y-122973837D01*
X147766153Y-122973835D01*
X147817590Y-122793050D01*
X147824704Y-122768048D01*
X147831529Y-122694394D01*
X147857315Y-122629457D01*
X147914116Y-122588770D01*
X147983897Y-122585250D01*
X148044503Y-122620015D01*
X148076693Y-122682028D01*
X148078471Y-122694395D01*
X148085295Y-122768047D01*
X148085296Y-122768050D01*
X148143846Y-122973835D01*
X148143849Y-122973841D01*
X148172359Y-123031096D01*
X148239219Y-123165370D01*
X148368159Y-123336114D01*
X148526278Y-123480258D01*
X148526283Y-123480261D01*
X148526286Y-123480263D01*
X148708186Y-123592891D01*
X148708187Y-123592891D01*
X148708190Y-123592893D01*
X148907703Y-123670185D01*
X149118020Y-123709500D01*
X149118022Y-123709500D01*
X149331978Y-123709500D01*
X149331980Y-123709500D01*
X149542297Y-123670185D01*
X149741810Y-123592893D01*
X149923722Y-123480258D01*
X150081841Y-123336114D01*
X150210781Y-123165370D01*
X150306151Y-122973840D01*
X150306151Y-122973837D01*
X150306153Y-122973835D01*
X150357590Y-122793050D01*
X150364704Y-122768048D01*
X150371529Y-122694394D01*
X150397315Y-122629457D01*
X150454116Y-122588770D01*
X150523897Y-122585250D01*
X150584503Y-122620015D01*
X150616693Y-122682028D01*
X150618471Y-122694395D01*
X150625295Y-122768047D01*
X150625296Y-122768050D01*
X150683846Y-122973835D01*
X150683849Y-122973841D01*
X150712359Y-123031096D01*
X150779219Y-123165370D01*
X150908159Y-123336114D01*
X151066278Y-123480258D01*
X151066283Y-123480261D01*
X151066286Y-123480263D01*
X151248186Y-123592891D01*
X151248187Y-123592891D01*
X151248190Y-123592893D01*
X151447703Y-123670185D01*
X151658020Y-123709500D01*
X151658022Y-123709500D01*
X151871978Y-123709500D01*
X151871980Y-123709500D01*
X152082297Y-123670185D01*
X152281810Y-123592893D01*
X152463722Y-123480258D01*
X152621841Y-123336114D01*
X152750781Y-123165370D01*
X152846151Y-122973840D01*
X152846151Y-122973837D01*
X152846153Y-122973835D01*
X152897590Y-122793050D01*
X152904704Y-122768048D01*
X152911529Y-122694394D01*
X152937315Y-122629457D01*
X152994116Y-122588770D01*
X153063897Y-122585250D01*
X153124503Y-122620015D01*
X153156693Y-122682028D01*
X153158471Y-122694395D01*
X153165295Y-122768047D01*
X153165296Y-122768050D01*
X153223846Y-122973835D01*
X153223849Y-122973841D01*
X153252359Y-123031096D01*
X153319219Y-123165370D01*
X153448159Y-123336114D01*
X153606278Y-123480258D01*
X153606283Y-123480261D01*
X153606286Y-123480263D01*
X153788186Y-123592891D01*
X153788187Y-123592891D01*
X153788190Y-123592893D01*
X153987703Y-123670185D01*
X154198020Y-123709500D01*
X154198022Y-123709500D01*
X154411978Y-123709500D01*
X154411980Y-123709500D01*
X154622297Y-123670185D01*
X154821810Y-123592893D01*
X155003722Y-123480258D01*
X155161841Y-123336114D01*
X155290781Y-123165370D01*
X155386151Y-122973840D01*
X155386151Y-122973837D01*
X155386153Y-122973835D01*
X155437590Y-122793050D01*
X155444704Y-122768048D01*
X155451529Y-122694394D01*
X155477315Y-122629457D01*
X155534116Y-122588770D01*
X155603897Y-122585250D01*
X155664503Y-122620015D01*
X155696693Y-122682028D01*
X155698471Y-122694395D01*
X155705295Y-122768047D01*
X155705296Y-122768050D01*
X155763846Y-122973835D01*
X155763849Y-122973841D01*
X155792359Y-123031096D01*
X155859219Y-123165370D01*
X155988159Y-123336114D01*
X156146278Y-123480258D01*
X156146283Y-123480261D01*
X156146286Y-123480263D01*
X156328186Y-123592891D01*
X156328187Y-123592891D01*
X156328190Y-123592893D01*
X156527703Y-123670185D01*
X156738020Y-123709500D01*
X156738022Y-123709500D01*
X156951978Y-123709500D01*
X156951980Y-123709500D01*
X157162297Y-123670185D01*
X157361810Y-123592893D01*
X157543722Y-123480258D01*
X157701841Y-123336114D01*
X157830781Y-123165370D01*
X157926151Y-122973840D01*
X157926151Y-122973837D01*
X157926153Y-122973835D01*
X157977590Y-122793050D01*
X157984704Y-122768048D01*
X157991529Y-122694394D01*
X158017315Y-122629457D01*
X158074116Y-122588770D01*
X158143897Y-122585250D01*
X158204503Y-122620015D01*
X158236693Y-122682028D01*
X158238471Y-122694395D01*
X158245295Y-122768047D01*
X158245296Y-122768050D01*
X158303846Y-122973835D01*
X158303849Y-122973841D01*
X158332359Y-123031096D01*
X158399219Y-123165370D01*
X158528159Y-123336114D01*
X158686278Y-123480258D01*
X158686283Y-123480261D01*
X158686286Y-123480263D01*
X158868186Y-123592891D01*
X158868187Y-123592891D01*
X158868190Y-123592893D01*
X159067703Y-123670185D01*
X159278020Y-123709500D01*
X159278022Y-123709500D01*
X159491978Y-123709500D01*
X159491980Y-123709500D01*
X159702297Y-123670185D01*
X159901810Y-123592893D01*
X160083722Y-123480258D01*
X160241841Y-123336114D01*
X160370781Y-123165370D01*
X160466151Y-122973840D01*
X160466151Y-122973837D01*
X160466153Y-122973835D01*
X160517590Y-122793050D01*
X160524704Y-122768048D01*
X160531780Y-122691686D01*
X160557564Y-122626751D01*
X160614364Y-122586063D01*
X160684145Y-122582543D01*
X160744752Y-122617307D01*
X160776943Y-122679320D01*
X160778721Y-122691687D01*
X160785788Y-122767954D01*
X160785789Y-122767956D01*
X160844315Y-122973654D01*
X160844321Y-122973669D01*
X160939646Y-123165106D01*
X160948980Y-123177466D01*
X161387580Y-122738866D01*
X161448903Y-122705381D01*
X161518594Y-122710365D01*
X161574528Y-122752236D01*
X161585742Y-122770246D01*
X161597359Y-122793045D01*
X161597361Y-122793047D01*
X161597363Y-122793050D01*
X161686949Y-122882636D01*
X161686951Y-122882637D01*
X161686955Y-122882641D01*
X161709747Y-122894254D01*
X161760542Y-122942228D01*
X161777337Y-123010049D01*
X161754799Y-123076184D01*
X161741132Y-123092419D01*
X161305085Y-123528465D01*
X161408415Y-123592444D01*
X161408416Y-123592445D01*
X161607837Y-123669700D01*
X161818068Y-123709000D01*
X162031932Y-123709000D01*
X162242162Y-123669700D01*
X162441585Y-123592444D01*
X162441586Y-123592443D01*
X162544913Y-123528465D01*
X162108866Y-123092419D01*
X162075381Y-123031096D01*
X162080365Y-122961405D01*
X162122236Y-122905471D01*
X162140245Y-122894258D01*
X162163045Y-122882641D01*
X162252641Y-122793045D01*
X162264254Y-122770252D01*
X162312225Y-122719458D01*
X162380046Y-122702661D01*
X162446181Y-122725197D01*
X162462419Y-122738866D01*
X162901018Y-123177465D01*
X162910355Y-123165101D01*
X162910357Y-123165098D01*
X163005678Y-122973669D01*
X163005684Y-122973654D01*
X163064210Y-122767956D01*
X163064211Y-122767954D01*
X163071278Y-122691688D01*
X163097064Y-122626751D01*
X163153864Y-122586063D01*
X163223645Y-122582543D01*
X163284252Y-122617308D01*
X163316442Y-122679321D01*
X163318220Y-122691687D01*
X163325296Y-122768048D01*
X163325296Y-122768050D01*
X163383846Y-122973835D01*
X163383849Y-122973841D01*
X163412359Y-123031096D01*
X163479219Y-123165370D01*
X163608159Y-123336114D01*
X163766278Y-123480258D01*
X163766283Y-123480261D01*
X163766286Y-123480263D01*
X163948186Y-123592891D01*
X163948187Y-123592891D01*
X163948190Y-123592893D01*
X164147703Y-123670185D01*
X164358020Y-123709500D01*
X164358022Y-123709500D01*
X164571978Y-123709500D01*
X164571980Y-123709500D01*
X164782297Y-123670185D01*
X164981810Y-123592893D01*
X165163722Y-123480258D01*
X165321841Y-123336114D01*
X165450781Y-123165370D01*
X165546151Y-122973840D01*
X165546151Y-122973837D01*
X165546153Y-122973835D01*
X165597590Y-122793050D01*
X165604704Y-122768048D01*
X165624446Y-122555000D01*
X165621567Y-122523936D01*
X165604704Y-122341952D01*
X165604703Y-122341949D01*
X165546153Y-122136164D01*
X165546150Y-122136158D01*
X165528121Y-122099950D01*
X165450781Y-121944630D01*
X165321841Y-121773886D01*
X165163722Y-121629742D01*
X165163716Y-121629738D01*
X165163713Y-121629736D01*
X164981813Y-121517108D01*
X164981807Y-121517106D01*
X164782297Y-121439815D01*
X164571980Y-121400500D01*
X164358020Y-121400500D01*
X164147703Y-121439815D01*
X164021533Y-121488693D01*
X163948192Y-121517106D01*
X163948186Y-121517108D01*
X163766286Y-121629736D01*
X163766283Y-121629738D01*
X163766279Y-121629740D01*
X163766278Y-121629742D01*
X163608159Y-121773886D01*
X163608158Y-121773887D01*
X163479219Y-121944629D01*
X163383849Y-122136158D01*
X163383846Y-122136164D01*
X163325296Y-122341949D01*
X163325296Y-122341952D01*
X163318220Y-122418312D01*
X163292434Y-122483249D01*
X163235633Y-122523936D01*
X163165852Y-122527456D01*
X163105246Y-122492690D01*
X163073056Y-122430678D01*
X163071278Y-122418311D01*
X163064211Y-122342045D01*
X163064210Y-122342043D01*
X163005684Y-122136345D01*
X163005678Y-122136330D01*
X162910353Y-121944893D01*
X162901019Y-121932533D01*
X162901018Y-121932533D01*
X162462419Y-122371132D01*
X162401096Y-122404617D01*
X162331404Y-122399633D01*
X162275471Y-122357761D01*
X162264256Y-122339751D01*
X162252641Y-122316955D01*
X162252637Y-122316951D01*
X162252636Y-122316949D01*
X162163050Y-122227363D01*
X162163047Y-122227361D01*
X162163045Y-122227359D01*
X162140250Y-122215744D01*
X162089456Y-122167771D01*
X162072661Y-122099950D01*
X162095198Y-122033815D01*
X162108866Y-122017580D01*
X162544913Y-121581533D01*
X162544912Y-121581532D01*
X162441589Y-121517557D01*
X162441583Y-121517554D01*
X162242162Y-121440299D01*
X162064795Y-121407143D01*
X162002514Y-121375475D01*
X161967241Y-121315162D01*
X161970175Y-121245354D01*
X162010384Y-121188214D01*
X162064791Y-121163366D01*
X162242297Y-121130185D01*
X162441810Y-121052893D01*
X162623722Y-120940258D01*
X162781841Y-120796114D01*
X162910781Y-120625370D01*
X163006151Y-120433840D01*
X163006151Y-120433837D01*
X163006153Y-120433835D01*
X163064703Y-120228050D01*
X163064704Y-120228047D01*
X163084446Y-120015000D01*
X163084446Y-120014999D01*
X163064704Y-119801952D01*
X163064703Y-119801949D01*
X163006153Y-119596164D01*
X163006150Y-119596158D01*
X162968758Y-119521064D01*
X162910781Y-119404630D01*
X162781841Y-119233886D01*
X162623722Y-119089742D01*
X162623716Y-119089738D01*
X162623713Y-119089736D01*
X162441813Y-118977108D01*
X162441807Y-118977106D01*
X162242297Y-118899815D01*
X162031980Y-118860500D01*
X161818020Y-118860500D01*
X161607703Y-118899815D01*
X161481533Y-118948693D01*
X161408192Y-118977106D01*
X161408186Y-118977108D01*
X161226286Y-119089736D01*
X161226283Y-119089738D01*
X161226279Y-119089740D01*
X161226278Y-119089742D01*
X161083595Y-119219814D01*
X161068158Y-119233887D01*
X160939219Y-119404629D01*
X160843849Y-119596158D01*
X160843846Y-119596164D01*
X160785296Y-119801949D01*
X160785295Y-119801952D01*
X160765554Y-120014999D01*
X160765554Y-120015000D01*
X160785295Y-120228047D01*
X160785296Y-120228050D01*
X160843846Y-120433835D01*
X160843849Y-120433841D01*
X160939219Y-120625370D01*
X161068159Y-120796114D01*
X161226278Y-120940258D01*
X161226283Y-120940261D01*
X161226286Y-120940263D01*
X161408186Y-121052891D01*
X161408187Y-121052891D01*
X161408190Y-121052893D01*
X161607703Y-121130185D01*
X161785205Y-121163366D01*
X161847485Y-121195033D01*
X161882758Y-121255345D01*
X161879824Y-121325154D01*
X161839615Y-121382294D01*
X161785204Y-121407143D01*
X161607837Y-121440299D01*
X161408415Y-121517555D01*
X161305085Y-121581533D01*
X161741133Y-122017580D01*
X161774618Y-122078903D01*
X161769634Y-122148594D01*
X161727763Y-122204528D01*
X161709748Y-122215745D01*
X161686956Y-122227358D01*
X161686949Y-122227363D01*
X161597363Y-122316949D01*
X161597358Y-122316956D01*
X161585745Y-122339748D01*
X161537770Y-122390544D01*
X161469949Y-122407338D01*
X161403814Y-122384800D01*
X161387580Y-122371133D01*
X160948980Y-121932532D01*
X160948979Y-121932532D01*
X160939646Y-121944894D01*
X160939644Y-121944896D01*
X160844321Y-122136330D01*
X160844315Y-122136345D01*
X160785789Y-122342043D01*
X160785789Y-122342044D01*
X160778721Y-122418313D01*
X160752934Y-122483250D01*
X160696133Y-122523937D01*
X160626352Y-122527456D01*
X160565746Y-122492690D01*
X160533557Y-122430677D01*
X160531780Y-122418323D01*
X160524704Y-122341952D01*
X160492100Y-122227360D01*
X160466153Y-122136164D01*
X160466150Y-122136158D01*
X160448121Y-122099950D01*
X160370781Y-121944630D01*
X160241841Y-121773886D01*
X160083722Y-121629742D01*
X160083716Y-121629738D01*
X160083713Y-121629736D01*
X159901813Y-121517108D01*
X159901807Y-121517106D01*
X159702297Y-121439815D01*
X159491980Y-121400500D01*
X159278020Y-121400500D01*
X159067703Y-121439815D01*
X158941533Y-121488693D01*
X158868192Y-121517106D01*
X158868186Y-121517108D01*
X158686286Y-121629736D01*
X158686283Y-121629738D01*
X158686279Y-121629740D01*
X158686278Y-121629742D01*
X158528159Y-121773886D01*
X158528158Y-121773887D01*
X158399219Y-121944629D01*
X158303849Y-122136158D01*
X158303846Y-122136164D01*
X158245296Y-122341949D01*
X158245295Y-122341952D01*
X158238471Y-122415604D01*
X158212685Y-122480542D01*
X158155884Y-122521229D01*
X158086103Y-122524749D01*
X158025497Y-122489984D01*
X157993307Y-122427971D01*
X157991529Y-122415604D01*
X157984704Y-122341952D01*
X157984703Y-122341949D01*
X157926153Y-122136164D01*
X157926150Y-122136158D01*
X157908121Y-122099950D01*
X157830781Y-121944630D01*
X157701841Y-121773886D01*
X157543722Y-121629742D01*
X157543716Y-121629738D01*
X157543713Y-121629736D01*
X157361813Y-121517108D01*
X157361807Y-121517106D01*
X157162297Y-121439815D01*
X156951980Y-121400500D01*
X156738020Y-121400500D01*
X156527703Y-121439815D01*
X156401533Y-121488693D01*
X156328192Y-121517106D01*
X156328186Y-121517108D01*
X156146286Y-121629736D01*
X156146283Y-121629738D01*
X156146279Y-121629740D01*
X156146278Y-121629742D01*
X155988159Y-121773886D01*
X155988158Y-121773887D01*
X155859219Y-121944629D01*
X155763849Y-122136158D01*
X155763846Y-122136164D01*
X155705296Y-122341949D01*
X155705295Y-122341952D01*
X155698471Y-122415604D01*
X155672685Y-122480542D01*
X155615884Y-122521229D01*
X155546103Y-122524749D01*
X155485497Y-122489984D01*
X155453307Y-122427971D01*
X155451529Y-122415604D01*
X155444704Y-122341952D01*
X155444703Y-122341949D01*
X155386153Y-122136164D01*
X155386150Y-122136158D01*
X155368121Y-122099950D01*
X155290781Y-121944630D01*
X155161841Y-121773886D01*
X155003722Y-121629742D01*
X155003716Y-121629738D01*
X155003713Y-121629736D01*
X154821813Y-121517108D01*
X154821807Y-121517106D01*
X154622297Y-121439815D01*
X154411980Y-121400500D01*
X154198020Y-121400500D01*
X153987703Y-121439815D01*
X153861533Y-121488693D01*
X153788192Y-121517106D01*
X153788186Y-121517108D01*
X153606286Y-121629736D01*
X153606283Y-121629738D01*
X153606279Y-121629740D01*
X153606278Y-121629742D01*
X153448159Y-121773886D01*
X153448158Y-121773887D01*
X153319219Y-121944629D01*
X153223849Y-122136158D01*
X153223846Y-122136164D01*
X153165296Y-122341949D01*
X153165295Y-122341952D01*
X153158471Y-122415604D01*
X153132685Y-122480542D01*
X153075884Y-122521229D01*
X153006103Y-122524749D01*
X152945497Y-122489984D01*
X152913307Y-122427971D01*
X152911529Y-122415604D01*
X152904704Y-122341952D01*
X152904703Y-122341949D01*
X152846153Y-122136164D01*
X152846150Y-122136158D01*
X152828121Y-122099950D01*
X152750781Y-121944630D01*
X152621841Y-121773886D01*
X152463722Y-121629742D01*
X152463716Y-121629738D01*
X152463713Y-121629736D01*
X152281813Y-121517108D01*
X152281807Y-121517106D01*
X152082297Y-121439815D01*
X151871980Y-121400500D01*
X151871783Y-121400500D01*
X151871692Y-121400473D01*
X151866271Y-121399971D01*
X151866369Y-121398910D01*
X151804744Y-121380815D01*
X151758989Y-121328011D01*
X151749045Y-121258853D01*
X151778070Y-121195297D01*
X151826989Y-121160873D01*
X151852195Y-121151107D01*
X151989427Y-121097944D01*
X152163462Y-120990186D01*
X152314732Y-120852285D01*
X152438088Y-120688935D01*
X152529328Y-120505701D01*
X152585345Y-120308821D01*
X152604232Y-120105000D01*
X152585345Y-119901179D01*
X152529328Y-119704299D01*
X152438088Y-119521065D01*
X152314732Y-119357715D01*
X152314730Y-119357712D01*
X152163462Y-119219814D01*
X152163460Y-119219812D01*
X152148302Y-119210427D01*
X152101666Y-119158400D01*
X152090562Y-119089418D01*
X152118515Y-119025384D01*
X152148302Y-118999573D01*
X152163460Y-118990187D01*
X152163459Y-118990187D01*
X152163462Y-118990186D01*
X152314732Y-118852285D01*
X152438088Y-118688935D01*
X152529328Y-118505701D01*
X152585345Y-118308821D01*
X152604232Y-118105000D01*
X152585345Y-117901179D01*
X152529328Y-117704299D01*
X152438088Y-117521065D01*
X152314732Y-117357715D01*
X152314730Y-117357712D01*
X152163462Y-117219814D01*
X152163460Y-117219812D01*
X152148302Y-117210427D01*
X152101666Y-117158400D01*
X152090562Y-117089418D01*
X152118515Y-117025384D01*
X152148302Y-116999573D01*
X152156960Y-116994211D01*
X152163462Y-116990186D01*
X152314732Y-116852285D01*
X152438088Y-116688935D01*
X152529328Y-116505701D01*
X152585345Y-116308821D01*
X152604232Y-116105000D01*
X152585345Y-115901179D01*
X152529328Y-115704299D01*
X152438088Y-115521065D01*
X152355043Y-115411096D01*
X152314730Y-115357712D01*
X152163462Y-115219814D01*
X152163460Y-115219812D01*
X151989430Y-115112057D01*
X151989424Y-115112054D01*
X151838993Y-115053777D01*
X151798556Y-115038112D01*
X151597347Y-115000500D01*
X151392653Y-115000500D01*
X151191444Y-115038112D01*
X151191441Y-115038112D01*
X151191441Y-115038113D01*
X151000575Y-115112054D01*
X151000569Y-115112057D01*
X150826539Y-115219812D01*
X150826537Y-115219814D01*
X150675269Y-115357712D01*
X150593954Y-115465392D01*
X150537845Y-115507028D01*
X150468133Y-115511719D01*
X150406951Y-115477977D01*
X150396046Y-115465392D01*
X150314730Y-115357712D01*
X150163462Y-115219814D01*
X150163460Y-115219812D01*
X149989430Y-115112057D01*
X149989424Y-115112054D01*
X149838993Y-115053777D01*
X149798556Y-115038112D01*
X149597347Y-115000500D01*
X149392653Y-115000500D01*
X149191444Y-115038112D01*
X149191441Y-115038112D01*
X149191441Y-115038113D01*
X149000575Y-115112054D01*
X149000569Y-115112057D01*
X148826539Y-115219812D01*
X148826537Y-115219814D01*
X148675269Y-115357712D01*
X148551912Y-115521064D01*
X148460673Y-115704295D01*
X148404654Y-115901183D01*
X148385768Y-116104999D01*
X148385768Y-116105000D01*
X148404654Y-116308816D01*
X148404654Y-116308818D01*
X148404655Y-116308821D01*
X148441156Y-116437108D01*
X148460673Y-116505704D01*
X148551912Y-116688935D01*
X148675269Y-116852287D01*
X148805401Y-116970917D01*
X148826538Y-116990186D01*
X148857272Y-117009216D01*
X148857975Y-117009651D01*
X148904610Y-117061679D01*
X148915871Y-117129367D01*
X148911406Y-117167853D01*
X149348594Y-117605041D01*
X149382079Y-117666364D01*
X149377095Y-117736056D01*
X149335223Y-117791989D01*
X149319931Y-117801776D01*
X149277056Y-117824979D01*
X149277052Y-117824981D01*
X149197939Y-117910922D01*
X149194441Y-117918896D01*
X149149481Y-117972379D01*
X149082744Y-117993065D01*
X149015417Y-117974386D01*
X148993207Y-117956760D01*
X148554678Y-117518231D01*
X148554676Y-117518231D01*
X148552345Y-117521319D01*
X148552337Y-117521332D01*
X148461144Y-117704470D01*
X148461139Y-117704483D01*
X148405147Y-117901271D01*
X148386270Y-118104999D01*
X148386270Y-118105000D01*
X148405147Y-118308728D01*
X148461139Y-118505516D01*
X148461144Y-118505529D01*
X148552337Y-118688667D01*
X148552343Y-118688677D01*
X148554676Y-118691767D01*
X148554677Y-118691768D01*
X148994447Y-118251999D01*
X149055770Y-118218514D01*
X149125462Y-118223498D01*
X149181395Y-118265370D01*
X149185937Y-118271859D01*
X149233934Y-118345325D01*
X149233935Y-118345326D01*
X149233936Y-118345327D01*
X149284932Y-118385018D01*
X149333600Y-118422898D01*
X149374413Y-118479609D01*
X149378088Y-118549382D01*
X149345119Y-118608433D01*
X148911406Y-119042145D01*
X148915872Y-119080631D01*
X148904044Y-119149492D01*
X148857977Y-119200347D01*
X148826538Y-119219813D01*
X148826537Y-119219814D01*
X148675269Y-119357712D01*
X148551912Y-119521064D01*
X148460673Y-119704295D01*
X148404654Y-119901183D01*
X148385768Y-120104999D01*
X148385768Y-120105000D01*
X148404654Y-120308816D01*
X148404654Y-120308818D01*
X148404655Y-120308821D01*
X148440226Y-120433840D01*
X148460673Y-120505704D01*
X148551912Y-120688935D01*
X148675269Y-120852287D01*
X148826537Y-120990185D01*
X148826539Y-120990187D01*
X149000569Y-121097942D01*
X149000575Y-121097945D01*
X149163011Y-121160873D01*
X149218413Y-121203446D01*
X149242003Y-121269213D01*
X149226292Y-121337293D01*
X149176268Y-121386072D01*
X149123652Y-121399148D01*
X149123729Y-121399971D01*
X149118333Y-121400470D01*
X149118217Y-121400500D01*
X149118020Y-121400500D01*
X148907703Y-121439815D01*
X148781533Y-121488693D01*
X148708192Y-121517106D01*
X148708186Y-121517108D01*
X148526286Y-121629736D01*
X148526283Y-121629738D01*
X148526279Y-121629740D01*
X148526278Y-121629742D01*
X148368159Y-121773886D01*
X148368158Y-121773887D01*
X148239219Y-121944629D01*
X148143849Y-122136158D01*
X148143846Y-122136164D01*
X148085296Y-122341949D01*
X148085295Y-122341952D01*
X148078471Y-122415604D01*
X148052685Y-122480542D01*
X147995884Y-122521229D01*
X147926103Y-122524749D01*
X147865497Y-122489984D01*
X147833307Y-122427971D01*
X147831529Y-122415604D01*
X147824704Y-122341952D01*
X147824703Y-122341949D01*
X147766153Y-122136164D01*
X147766150Y-122136158D01*
X147748121Y-122099950D01*
X147670781Y-121944630D01*
X147541841Y-121773886D01*
X147383722Y-121629742D01*
X147383716Y-121629738D01*
X147383713Y-121629736D01*
X147201813Y-121517108D01*
X147201807Y-121517106D01*
X147002297Y-121439815D01*
X146791980Y-121400500D01*
X146578020Y-121400500D01*
X146367703Y-121439815D01*
X146241533Y-121488693D01*
X146168192Y-121517106D01*
X146168186Y-121517108D01*
X145986286Y-121629736D01*
X145986283Y-121629738D01*
X145986279Y-121629740D01*
X145986278Y-121629742D01*
X145828159Y-121773886D01*
X145828158Y-121773887D01*
X145699219Y-121944629D01*
X145603849Y-122136158D01*
X145603846Y-122136164D01*
X145545296Y-122341949D01*
X145545295Y-122341952D01*
X145538471Y-122415604D01*
X145512685Y-122480542D01*
X145455884Y-122521229D01*
X145386103Y-122524749D01*
X145325497Y-122489984D01*
X145293307Y-122427971D01*
X145291529Y-122415604D01*
X145284704Y-122341952D01*
X145284703Y-122341949D01*
X145226153Y-122136164D01*
X145226150Y-122136158D01*
X145208121Y-122099950D01*
X145130781Y-121944630D01*
X145001841Y-121773886D01*
X144843722Y-121629742D01*
X144843716Y-121629738D01*
X144843713Y-121629736D01*
X144661813Y-121517108D01*
X144661807Y-121517106D01*
X144462297Y-121439815D01*
X144251980Y-121400500D01*
X144038020Y-121400500D01*
X143827703Y-121439815D01*
X143701533Y-121488693D01*
X143628192Y-121517106D01*
X143628186Y-121517108D01*
X143446286Y-121629736D01*
X143446283Y-121629738D01*
X143446279Y-121629740D01*
X143446278Y-121629742D01*
X143288159Y-121773886D01*
X143288158Y-121773887D01*
X143159219Y-121944629D01*
X143063849Y-122136158D01*
X143063846Y-122136164D01*
X143005296Y-122341949D01*
X143005295Y-122341952D01*
X142998471Y-122415604D01*
X142972685Y-122480542D01*
X142915884Y-122521229D01*
X142846103Y-122524749D01*
X142785497Y-122489984D01*
X142753307Y-122427971D01*
X142751529Y-122415604D01*
X142744704Y-122341952D01*
X142744703Y-122341949D01*
X142686153Y-122136164D01*
X142686150Y-122136158D01*
X142668121Y-122099950D01*
X142590781Y-121944630D01*
X142461841Y-121773886D01*
X142303722Y-121629742D01*
X142303716Y-121629738D01*
X142303713Y-121629736D01*
X142121813Y-121517108D01*
X142121807Y-121517106D01*
X141922297Y-121439815D01*
X141711980Y-121400500D01*
X141498020Y-121400500D01*
X141287703Y-121439815D01*
X141161533Y-121488693D01*
X141088192Y-121517106D01*
X141088186Y-121517108D01*
X140906286Y-121629736D01*
X140906283Y-121629738D01*
X140906279Y-121629740D01*
X140906278Y-121629742D01*
X140748159Y-121773886D01*
X140748158Y-121773887D01*
X140619219Y-121944629D01*
X140523849Y-122136158D01*
X140523846Y-122136164D01*
X140465296Y-122341949D01*
X140465295Y-122341952D01*
X140458471Y-122415604D01*
X140432685Y-122480542D01*
X140375884Y-122521229D01*
X140306103Y-122524749D01*
X140245497Y-122489984D01*
X140213307Y-122427971D01*
X140211529Y-122415604D01*
X140204704Y-122341952D01*
X140204703Y-122341949D01*
X140146153Y-122136164D01*
X140146150Y-122136158D01*
X140128121Y-122099950D01*
X140050781Y-121944630D01*
X139921841Y-121773886D01*
X139763722Y-121629742D01*
X139763716Y-121629738D01*
X139763713Y-121629736D01*
X139581813Y-121517108D01*
X139581807Y-121517106D01*
X139382297Y-121439815D01*
X139171980Y-121400500D01*
X138958020Y-121400500D01*
X138747703Y-121439815D01*
X138621533Y-121488693D01*
X138548192Y-121517106D01*
X138548186Y-121517108D01*
X138366286Y-121629736D01*
X138366283Y-121629738D01*
X138366279Y-121629740D01*
X138366278Y-121629742D01*
X138208159Y-121773886D01*
X138208158Y-121773887D01*
X138079219Y-121944629D01*
X137983849Y-122136158D01*
X137983846Y-122136164D01*
X137925296Y-122341949D01*
X137925295Y-122341952D01*
X137918471Y-122415604D01*
X137892685Y-122480542D01*
X137835884Y-122521229D01*
X137766103Y-122524749D01*
X137705497Y-122489984D01*
X137673307Y-122427971D01*
X137671529Y-122415604D01*
X137664704Y-122341952D01*
X137664703Y-122341949D01*
X137606153Y-122136164D01*
X137606150Y-122136158D01*
X137588121Y-122099950D01*
X137510781Y-121944630D01*
X137381841Y-121773886D01*
X137223722Y-121629742D01*
X137223716Y-121629738D01*
X137223713Y-121629736D01*
X137041813Y-121517108D01*
X137041807Y-121517106D01*
X136842297Y-121439815D01*
X136631980Y-121400500D01*
X136418020Y-121400500D01*
X136207703Y-121439815D01*
X136081533Y-121488693D01*
X136008192Y-121517106D01*
X136008186Y-121517108D01*
X135826286Y-121629736D01*
X135826283Y-121629738D01*
X135826279Y-121629740D01*
X135826278Y-121629742D01*
X135668159Y-121773886D01*
X135668158Y-121773887D01*
X135539219Y-121944629D01*
X135443849Y-122136158D01*
X135443846Y-122136164D01*
X135385296Y-122341949D01*
X135385295Y-122341952D01*
X135378471Y-122415604D01*
X135352685Y-122480542D01*
X135295884Y-122521229D01*
X135226103Y-122524749D01*
X135165497Y-122489984D01*
X135133307Y-122427971D01*
X135131529Y-122415604D01*
X135124704Y-122341952D01*
X135124703Y-122341949D01*
X135066153Y-122136164D01*
X135066150Y-122136158D01*
X135048121Y-122099950D01*
X134970781Y-121944630D01*
X134841841Y-121773886D01*
X134683722Y-121629742D01*
X134683716Y-121629738D01*
X134683713Y-121629736D01*
X134501813Y-121517108D01*
X134501807Y-121517106D01*
X134302297Y-121439815D01*
X134091980Y-121400500D01*
X133878020Y-121400500D01*
X133667703Y-121439815D01*
X133541533Y-121488693D01*
X133468192Y-121517106D01*
X133468186Y-121517108D01*
X133286286Y-121629736D01*
X133286283Y-121629738D01*
X133286279Y-121629740D01*
X133286278Y-121629742D01*
X133128159Y-121773886D01*
X133128158Y-121773887D01*
X132999219Y-121944629D01*
X132903849Y-122136158D01*
X132903846Y-122136164D01*
X132845296Y-122341949D01*
X132845295Y-122341952D01*
X132838471Y-122415604D01*
X132812685Y-122480542D01*
X132755884Y-122521229D01*
X132686103Y-122524749D01*
X132625497Y-122489984D01*
X132593307Y-122427971D01*
X132591529Y-122415604D01*
X132584704Y-122341952D01*
X132584703Y-122341949D01*
X132526153Y-122136164D01*
X132526150Y-122136158D01*
X132508121Y-122099950D01*
X132430781Y-121944630D01*
X132301841Y-121773886D01*
X132143722Y-121629742D01*
X132143716Y-121629738D01*
X132143713Y-121629736D01*
X131961813Y-121517108D01*
X131961807Y-121517106D01*
X131762297Y-121439815D01*
X131551980Y-121400500D01*
X131338020Y-121400500D01*
X131127703Y-121439815D01*
X131001533Y-121488693D01*
X130928192Y-121517106D01*
X130928186Y-121517108D01*
X130746286Y-121629736D01*
X130746283Y-121629738D01*
X130746279Y-121629740D01*
X130746278Y-121629742D01*
X130588159Y-121773886D01*
X130588158Y-121773887D01*
X130459219Y-121944629D01*
X130363849Y-122136158D01*
X130363846Y-122136164D01*
X130305296Y-122341949D01*
X130305296Y-122341952D01*
X130298220Y-122418312D01*
X130272434Y-122483249D01*
X130215633Y-122523936D01*
X130145852Y-122527456D01*
X130085246Y-122492690D01*
X130053056Y-122430678D01*
X130051278Y-122418311D01*
X130044211Y-122342045D01*
X130044210Y-122342043D01*
X129985684Y-122136345D01*
X129985678Y-122136330D01*
X129890353Y-121944893D01*
X129881019Y-121932533D01*
X129881018Y-121932533D01*
X129442419Y-122371132D01*
X129381096Y-122404617D01*
X129311404Y-122399633D01*
X129255471Y-122357761D01*
X129244256Y-122339751D01*
X129232641Y-122316955D01*
X129232637Y-122316951D01*
X129232636Y-122316949D01*
X129143050Y-122227363D01*
X129143047Y-122227361D01*
X129143045Y-122227359D01*
X129120250Y-122215744D01*
X129069456Y-122167771D01*
X129052661Y-122099950D01*
X129075198Y-122033815D01*
X129088866Y-122017580D01*
X129524913Y-121581533D01*
X129524912Y-121581532D01*
X129421589Y-121517557D01*
X129421583Y-121517554D01*
X129222162Y-121440299D01*
X129011932Y-121401000D01*
X128798068Y-121401000D01*
X128587837Y-121440299D01*
X128388415Y-121517555D01*
X128285085Y-121581533D01*
X128721133Y-122017580D01*
X128754618Y-122078903D01*
X128749634Y-122148594D01*
X128707763Y-122204528D01*
X128689748Y-122215745D01*
X128666956Y-122227358D01*
X128666949Y-122227363D01*
X128577363Y-122316949D01*
X128577358Y-122316956D01*
X128565745Y-122339748D01*
X128517770Y-122390544D01*
X128449949Y-122407338D01*
X128383814Y-122384800D01*
X128367580Y-122371133D01*
X127928980Y-121932532D01*
X127928979Y-121932532D01*
X127919646Y-121944894D01*
X127919644Y-121944896D01*
X127824321Y-122136330D01*
X127824315Y-122136345D01*
X127765789Y-122342043D01*
X127765789Y-122342044D01*
X127758721Y-122418313D01*
X127732934Y-122483250D01*
X127676133Y-122523937D01*
X127606352Y-122527456D01*
X127545746Y-122492690D01*
X127513557Y-122430677D01*
X127511780Y-122418323D01*
X127504704Y-122341952D01*
X127472100Y-122227360D01*
X127446153Y-122136164D01*
X127446150Y-122136158D01*
X127428121Y-122099950D01*
X127350781Y-121944630D01*
X127221841Y-121773886D01*
X127063722Y-121629742D01*
X127063716Y-121629738D01*
X127063713Y-121629736D01*
X126881813Y-121517108D01*
X126881807Y-121517106D01*
X126682297Y-121439815D01*
X126471980Y-121400500D01*
X126258020Y-121400500D01*
X126047703Y-121439815D01*
X125921533Y-121488693D01*
X125848192Y-121517106D01*
X125848186Y-121517108D01*
X125666286Y-121629736D01*
X125666283Y-121629738D01*
X125666279Y-121629740D01*
X125666278Y-121629742D01*
X125508159Y-121773886D01*
X125508158Y-121773887D01*
X125379219Y-121944629D01*
X125283849Y-122136158D01*
X125283846Y-122136164D01*
X125225296Y-122341949D01*
X125225295Y-122341952D01*
X125218471Y-122415604D01*
X125192685Y-122480542D01*
X125135884Y-122521229D01*
X125066103Y-122524749D01*
X125005497Y-122489984D01*
X124973307Y-122427971D01*
X124971529Y-122415604D01*
X124964704Y-122341952D01*
X124964703Y-122341949D01*
X124906153Y-122136164D01*
X124906150Y-122136158D01*
X124888121Y-122099950D01*
X124810781Y-121944630D01*
X124681841Y-121773886D01*
X124523722Y-121629742D01*
X124523716Y-121629738D01*
X124523713Y-121629736D01*
X124341813Y-121517108D01*
X124341807Y-121517106D01*
X124142297Y-121439815D01*
X123931980Y-121400500D01*
X123718020Y-121400500D01*
X123507703Y-121439815D01*
X123381533Y-121488693D01*
X123308192Y-121517106D01*
X123308186Y-121517108D01*
X123126286Y-121629736D01*
X123126283Y-121629738D01*
X123126279Y-121629740D01*
X123126278Y-121629742D01*
X122968159Y-121773886D01*
X122968158Y-121773887D01*
X122839219Y-121944629D01*
X122743849Y-122136158D01*
X122743846Y-122136164D01*
X122685296Y-122341949D01*
X122685295Y-122341952D01*
X122678471Y-122415604D01*
X122652685Y-122480542D01*
X122595884Y-122521229D01*
X122526103Y-122524749D01*
X122465497Y-122489984D01*
X122433307Y-122427971D01*
X122431529Y-122415604D01*
X122424704Y-122341952D01*
X122424703Y-122341949D01*
X122366153Y-122136164D01*
X122366150Y-122136158D01*
X122348121Y-122099950D01*
X122270781Y-121944630D01*
X122141841Y-121773886D01*
X121983722Y-121629742D01*
X121983716Y-121629738D01*
X121983713Y-121629736D01*
X121801813Y-121517108D01*
X121801807Y-121517106D01*
X121602297Y-121439815D01*
X121391980Y-121400500D01*
X121178020Y-121400500D01*
X120967703Y-121439815D01*
X120841533Y-121488693D01*
X120768192Y-121517106D01*
X120768186Y-121517108D01*
X120586286Y-121629736D01*
X120586283Y-121629738D01*
X120586279Y-121629740D01*
X120586278Y-121629742D01*
X120428159Y-121773886D01*
X120428158Y-121773887D01*
X120299219Y-121944629D01*
X120203849Y-122136158D01*
X120203846Y-122136164D01*
X120145296Y-122341949D01*
X120145295Y-122341952D01*
X120138471Y-122415604D01*
X120112685Y-122480542D01*
X120055884Y-122521229D01*
X119986103Y-122524749D01*
X119925497Y-122489984D01*
X119893307Y-122427971D01*
X119891529Y-122415604D01*
X119884704Y-122341952D01*
X119884703Y-122341949D01*
X119826153Y-122136164D01*
X119826150Y-122136158D01*
X119808121Y-122099950D01*
X119730781Y-121944630D01*
X119601841Y-121773886D01*
X119443722Y-121629742D01*
X119443716Y-121629738D01*
X119443713Y-121629736D01*
X119261813Y-121517108D01*
X119261807Y-121517106D01*
X119062297Y-121439815D01*
X118969124Y-121422398D01*
X118886154Y-121406888D01*
X118823874Y-121375219D01*
X118788601Y-121314907D01*
X118791535Y-121245099D01*
X118831744Y-121187959D01*
X118886150Y-121163112D01*
X119062297Y-121130185D01*
X119261810Y-121052893D01*
X119443722Y-120940258D01*
X119601841Y-120796114D01*
X119730781Y-120625370D01*
X119826151Y-120433840D01*
X119826151Y-120433837D01*
X119826153Y-120433835D01*
X119884703Y-120228050D01*
X119884704Y-120228047D01*
X119904446Y-120015000D01*
X119904446Y-120014999D01*
X119884704Y-119801952D01*
X119884703Y-119801949D01*
X119826153Y-119596164D01*
X119826150Y-119596158D01*
X119788758Y-119521064D01*
X119730781Y-119404630D01*
X119601841Y-119233886D01*
X119443722Y-119089742D01*
X119443716Y-119089738D01*
X119443713Y-119089736D01*
X119261813Y-118977108D01*
X119261807Y-118977106D01*
X119062297Y-118899815D01*
X118980948Y-118884608D01*
X118886154Y-118866888D01*
X118823874Y-118835219D01*
X118788601Y-118774907D01*
X118791535Y-118705099D01*
X118831744Y-118647959D01*
X118886150Y-118623112D01*
X119062297Y-118590185D01*
X119261810Y-118512893D01*
X119443722Y-118400258D01*
X119601841Y-118256114D01*
X119730781Y-118085370D01*
X119826151Y-117893840D01*
X119826151Y-117893837D01*
X119826153Y-117893835D01*
X119865654Y-117755000D01*
X119884704Y-117688048D01*
X119904446Y-117475000D01*
X119884704Y-117261952D01*
X119859079Y-117171888D01*
X119826153Y-117056164D01*
X119826150Y-117056158D01*
X119793301Y-116990188D01*
X119730781Y-116864630D01*
X119601841Y-116693886D01*
X119443722Y-116549742D01*
X119443716Y-116549738D01*
X119443713Y-116549736D01*
X119261813Y-116437108D01*
X119261807Y-116437106D01*
X119062297Y-116359815D01*
X118927395Y-116334597D01*
X118884795Y-116326634D01*
X118822514Y-116294965D01*
X118787241Y-116234653D01*
X118790175Y-116164845D01*
X118830384Y-116107705D01*
X118884795Y-116082856D01*
X119062163Y-116049700D01*
X119261585Y-115972444D01*
X119261586Y-115972443D01*
X119364913Y-115908465D01*
X118928866Y-115472419D01*
X118895381Y-115411096D01*
X118900365Y-115341405D01*
X118942236Y-115285471D01*
X118960245Y-115274258D01*
X118983045Y-115262641D01*
X119072641Y-115173045D01*
X119084254Y-115150252D01*
X119132225Y-115099458D01*
X119200046Y-115082661D01*
X119266181Y-115105197D01*
X119282419Y-115118866D01*
X119721018Y-115557465D01*
X119730355Y-115545101D01*
X119730357Y-115545098D01*
X119825678Y-115353669D01*
X119825684Y-115353654D01*
X119884210Y-115147956D01*
X119884211Y-115147954D01*
X119903944Y-114935000D01*
X119903944Y-114934999D01*
X119884211Y-114722045D01*
X119884210Y-114722043D01*
X119825684Y-114516345D01*
X119825678Y-114516330D01*
X119730353Y-114324893D01*
X119721019Y-114312533D01*
X119721018Y-114312533D01*
X119282419Y-114751132D01*
X119221096Y-114784617D01*
X119151404Y-114779633D01*
X119095471Y-114737761D01*
X119084256Y-114719751D01*
X119072641Y-114696955D01*
X119072637Y-114696951D01*
X119072636Y-114696949D01*
X118983050Y-114607363D01*
X118983047Y-114607361D01*
X118983045Y-114607359D01*
X118960250Y-114595744D01*
X118909456Y-114547771D01*
X118892661Y-114479950D01*
X118915198Y-114413815D01*
X118928866Y-114397580D01*
X119364913Y-113961533D01*
X119364912Y-113961532D01*
X119261589Y-113897557D01*
X119261583Y-113897554D01*
X119062162Y-113820299D01*
X118884795Y-113787143D01*
X118822514Y-113755475D01*
X118787241Y-113695162D01*
X118790175Y-113625354D01*
X118830384Y-113568214D01*
X118884791Y-113543366D01*
X119062297Y-113510185D01*
X119261810Y-113432893D01*
X119443722Y-113320258D01*
X119601841Y-113176114D01*
X119730781Y-113005370D01*
X119826151Y-112813840D01*
X119826151Y-112813837D01*
X119826153Y-112813835D01*
X119884703Y-112608050D01*
X119884704Y-112608047D01*
X119904446Y-112395000D01*
X119904446Y-112394999D01*
X119884704Y-112181952D01*
X119884703Y-112181949D01*
X119826153Y-111976164D01*
X119826150Y-111976158D01*
X119730781Y-111784630D01*
X119601841Y-111613886D01*
X119443722Y-111469742D01*
X119443716Y-111469738D01*
X119443713Y-111469736D01*
X119261813Y-111357108D01*
X119261807Y-111357106D01*
X119062297Y-111279815D01*
X118980948Y-111264608D01*
X118886154Y-111246888D01*
X118823874Y-111215219D01*
X118788601Y-111154907D01*
X118791535Y-111085099D01*
X118831744Y-111027959D01*
X118886150Y-111003112D01*
X119062297Y-110970185D01*
X119261810Y-110892893D01*
X119443722Y-110780258D01*
X119601841Y-110636114D01*
X119730781Y-110465370D01*
X119780759Y-110365000D01*
X146820661Y-110365000D01*
X146839974Y-110573429D01*
X146897259Y-110774769D01*
X146990562Y-110962147D01*
X146990567Y-110962155D01*
X147116714Y-111129201D01*
X147218555Y-111222040D01*
X147271408Y-111270222D01*
X147449382Y-111380419D01*
X147449383Y-111380419D01*
X147449384Y-111380420D01*
X147490734Y-111396439D01*
X147644573Y-111456036D01*
X147850336Y-111494500D01*
X147850338Y-111494500D01*
X148059662Y-111494500D01*
X148059664Y-111494500D01*
X148265427Y-111456036D01*
X148460618Y-111380419D01*
X148638592Y-111270222D01*
X148793287Y-111129199D01*
X148919434Y-110962153D01*
X149012740Y-110774771D01*
X149070025Y-110573434D01*
X149089339Y-110365000D01*
X149360661Y-110365000D01*
X149379974Y-110573429D01*
X149437259Y-110774769D01*
X149530562Y-110962147D01*
X149530567Y-110962155D01*
X149656714Y-111129201D01*
X149758555Y-111222040D01*
X149811408Y-111270222D01*
X149989382Y-111380419D01*
X149989383Y-111380419D01*
X149989384Y-111380420D01*
X150030734Y-111396439D01*
X150184573Y-111456036D01*
X150390336Y-111494500D01*
X150390338Y-111494500D01*
X150599662Y-111494500D01*
X150599664Y-111494500D01*
X150805427Y-111456036D01*
X151000618Y-111380419D01*
X151178592Y-111270222D01*
X151333287Y-111129199D01*
X151459434Y-110962153D01*
X151552740Y-110774771D01*
X151610025Y-110573434D01*
X151629339Y-110365000D01*
X151900661Y-110365000D01*
X151919974Y-110573429D01*
X151977259Y-110774769D01*
X152070562Y-110962147D01*
X152070567Y-110962155D01*
X152196714Y-111129201D01*
X152298555Y-111222040D01*
X152351408Y-111270222D01*
X152529382Y-111380419D01*
X152529383Y-111380419D01*
X152529384Y-111380420D01*
X152570734Y-111396439D01*
X152724573Y-111456036D01*
X152930336Y-111494500D01*
X152930338Y-111494500D01*
X153139662Y-111494500D01*
X153139664Y-111494500D01*
X153345427Y-111456036D01*
X153540618Y-111380419D01*
X153718592Y-111270222D01*
X153873287Y-111129199D01*
X153999434Y-110962153D01*
X154092740Y-110774771D01*
X154150025Y-110573434D01*
X154169339Y-110365000D01*
X154440661Y-110365000D01*
X154459974Y-110573429D01*
X154517259Y-110774769D01*
X154610562Y-110962147D01*
X154610567Y-110962155D01*
X154736714Y-111129201D01*
X154838555Y-111222040D01*
X154891408Y-111270222D01*
X155069382Y-111380419D01*
X155069383Y-111380419D01*
X155069384Y-111380420D01*
X155110734Y-111396439D01*
X155264573Y-111456036D01*
X155470336Y-111494500D01*
X155470338Y-111494500D01*
X155679662Y-111494500D01*
X155679664Y-111494500D01*
X155885427Y-111456036D01*
X156080618Y-111380419D01*
X156258592Y-111270222D01*
X156413287Y-111129199D01*
X156539434Y-110962153D01*
X156632740Y-110774771D01*
X156690025Y-110573434D01*
X156709339Y-110365000D01*
X156980661Y-110365000D01*
X156999974Y-110573429D01*
X157057259Y-110774769D01*
X157150562Y-110962147D01*
X157150567Y-110962155D01*
X157276714Y-111129201D01*
X157378555Y-111222040D01*
X157431408Y-111270222D01*
X157609382Y-111380419D01*
X157609383Y-111380419D01*
X157609384Y-111380420D01*
X157650734Y-111396439D01*
X157804573Y-111456036D01*
X158010336Y-111494500D01*
X158010338Y-111494500D01*
X158219662Y-111494500D01*
X158219664Y-111494500D01*
X158425427Y-111456036D01*
X158620618Y-111380419D01*
X158798592Y-111270222D01*
X158953287Y-111129199D01*
X159079434Y-110962153D01*
X159172740Y-110774771D01*
X159230025Y-110573434D01*
X159249339Y-110365000D01*
X159230025Y-110156566D01*
X159172740Y-109955229D01*
X159122831Y-109854999D01*
X159079437Y-109767852D01*
X159079432Y-109767844D01*
X158953285Y-109600798D01*
X158798593Y-109459779D01*
X158798592Y-109459778D01*
X158620618Y-109349581D01*
X158620616Y-109349580D01*
X158620615Y-109349579D01*
X158466779Y-109289984D01*
X158425427Y-109273964D01*
X158219664Y-109235500D01*
X158010336Y-109235500D01*
X157804573Y-109273964D01*
X157804570Y-109273964D01*
X157804570Y-109273965D01*
X157609384Y-109349579D01*
X157609383Y-109349580D01*
X157431406Y-109459779D01*
X157276714Y-109600798D01*
X157150567Y-109767844D01*
X157150562Y-109767852D01*
X157057259Y-109955230D01*
X156999974Y-110156570D01*
X156980661Y-110364999D01*
X156980661Y-110365000D01*
X156709339Y-110365000D01*
X156690025Y-110156566D01*
X156632740Y-109955229D01*
X156582831Y-109854999D01*
X156539437Y-109767852D01*
X156539432Y-109767844D01*
X156413285Y-109600798D01*
X156258593Y-109459779D01*
X156258592Y-109459778D01*
X156080618Y-109349581D01*
X156080616Y-109349580D01*
X156080615Y-109349579D01*
X155926779Y-109289984D01*
X155885427Y-109273964D01*
X155679664Y-109235500D01*
X155470336Y-109235500D01*
X155264573Y-109273964D01*
X155264570Y-109273964D01*
X155264570Y-109273965D01*
X155069384Y-109349579D01*
X155069383Y-109349580D01*
X154891406Y-109459779D01*
X154736714Y-109600798D01*
X154610567Y-109767844D01*
X154610562Y-109767852D01*
X154517259Y-109955230D01*
X154459974Y-110156570D01*
X154440661Y-110364999D01*
X154440661Y-110365000D01*
X154169339Y-110365000D01*
X154150025Y-110156566D01*
X154092740Y-109955229D01*
X154042831Y-109854999D01*
X153999437Y-109767852D01*
X153999432Y-109767844D01*
X153873285Y-109600798D01*
X153718593Y-109459779D01*
X153718592Y-109459778D01*
X153540618Y-109349581D01*
X153540616Y-109349580D01*
X153540615Y-109349579D01*
X153386779Y-109289984D01*
X153345427Y-109273964D01*
X153139664Y-109235500D01*
X152930336Y-109235500D01*
X152724573Y-109273964D01*
X152724570Y-109273964D01*
X152724570Y-109273965D01*
X152529384Y-109349579D01*
X152529383Y-109349580D01*
X152351406Y-109459779D01*
X152196714Y-109600798D01*
X152070567Y-109767844D01*
X152070562Y-109767852D01*
X151977259Y-109955230D01*
X151919974Y-110156570D01*
X151900661Y-110364999D01*
X151900661Y-110365000D01*
X151629339Y-110365000D01*
X151610025Y-110156566D01*
X151552740Y-109955229D01*
X151502831Y-109854999D01*
X151459437Y-109767852D01*
X151459432Y-109767844D01*
X151333285Y-109600798D01*
X151178593Y-109459779D01*
X151178592Y-109459778D01*
X151000618Y-109349581D01*
X151000616Y-109349580D01*
X151000615Y-109349579D01*
X150846779Y-109289984D01*
X150805427Y-109273964D01*
X150599664Y-109235500D01*
X150390336Y-109235500D01*
X150184573Y-109273964D01*
X150184570Y-109273964D01*
X150184570Y-109273965D01*
X149989384Y-109349579D01*
X149989383Y-109349580D01*
X149811406Y-109459779D01*
X149656714Y-109600798D01*
X149530567Y-109767844D01*
X149530562Y-109767852D01*
X149437259Y-109955230D01*
X149379974Y-110156570D01*
X149360661Y-110364999D01*
X149360661Y-110365000D01*
X149089339Y-110365000D01*
X149070025Y-110156566D01*
X149012740Y-109955229D01*
X148962831Y-109854999D01*
X148919437Y-109767852D01*
X148919432Y-109767844D01*
X148793285Y-109600798D01*
X148638593Y-109459779D01*
X148638592Y-109459778D01*
X148460618Y-109349581D01*
X148460616Y-109349580D01*
X148460615Y-109349579D01*
X148306779Y-109289984D01*
X148265427Y-109273964D01*
X148059664Y-109235500D01*
X147850336Y-109235500D01*
X147644573Y-109273964D01*
X147644570Y-109273964D01*
X147644570Y-109273965D01*
X147449384Y-109349579D01*
X147449383Y-109349580D01*
X147271406Y-109459779D01*
X147116714Y-109600798D01*
X146990567Y-109767844D01*
X146990562Y-109767852D01*
X146897259Y-109955230D01*
X146839974Y-110156570D01*
X146820661Y-110364999D01*
X146820661Y-110365000D01*
X119780759Y-110365000D01*
X119826151Y-110273840D01*
X119826151Y-110273837D01*
X119826153Y-110273835D01*
X119884703Y-110068050D01*
X119884704Y-110068047D01*
X119904446Y-109855000D01*
X119904446Y-109854999D01*
X119884704Y-109641952D01*
X119884703Y-109641949D01*
X119826153Y-109436164D01*
X119826150Y-109436158D01*
X119783040Y-109349581D01*
X119730781Y-109244630D01*
X119601841Y-109073886D01*
X119443722Y-108929742D01*
X119443716Y-108929738D01*
X119443713Y-108929736D01*
X119261813Y-108817108D01*
X119261807Y-108817106D01*
X119062297Y-108739815D01*
X118980948Y-108724608D01*
X118886154Y-108706888D01*
X118823874Y-108675219D01*
X118788601Y-108614907D01*
X118791535Y-108545099D01*
X118831744Y-108487959D01*
X118886150Y-108463112D01*
X119062297Y-108430185D01*
X119261810Y-108352893D01*
X119443722Y-108240258D01*
X119601841Y-108096114D01*
X119730781Y-107925370D01*
X119826151Y-107733840D01*
X119826151Y-107733837D01*
X119826153Y-107733835D01*
X119877590Y-107553050D01*
X119884704Y-107528048D01*
X119891529Y-107454394D01*
X119917315Y-107389457D01*
X119974116Y-107348770D01*
X120043897Y-107345250D01*
X120104503Y-107380015D01*
X120136693Y-107442028D01*
X120138471Y-107454395D01*
X120145295Y-107528047D01*
X120145296Y-107528050D01*
X120203846Y-107733835D01*
X120203849Y-107733841D01*
X120232359Y-107791096D01*
X120299219Y-107925370D01*
X120428159Y-108096114D01*
X120586278Y-108240258D01*
X120586283Y-108240261D01*
X120586286Y-108240263D01*
X120768186Y-108352891D01*
X120768187Y-108352891D01*
X120768190Y-108352893D01*
X120967703Y-108430185D01*
X121178020Y-108469500D01*
X121178022Y-108469500D01*
X121391978Y-108469500D01*
X121391980Y-108469500D01*
X121602297Y-108430185D01*
X121801810Y-108352893D01*
X121983722Y-108240258D01*
X122141841Y-108096114D01*
X122270781Y-107925370D01*
X122366151Y-107733840D01*
X122366151Y-107733837D01*
X122366153Y-107733835D01*
X122417590Y-107553050D01*
X122424704Y-107528048D01*
X122431529Y-107454394D01*
X122457315Y-107389457D01*
X122514116Y-107348770D01*
X122583897Y-107345250D01*
X122644503Y-107380015D01*
X122676693Y-107442028D01*
X122678471Y-107454395D01*
X122685295Y-107528047D01*
X122685296Y-107528050D01*
X122743846Y-107733835D01*
X122743849Y-107733841D01*
X122772359Y-107791096D01*
X122839219Y-107925370D01*
X122968159Y-108096114D01*
X123126278Y-108240258D01*
X123126283Y-108240261D01*
X123126286Y-108240263D01*
X123308186Y-108352891D01*
X123308187Y-108352891D01*
X123308190Y-108352893D01*
X123507703Y-108430185D01*
X123718020Y-108469500D01*
X123718022Y-108469500D01*
X123931978Y-108469500D01*
X123931980Y-108469500D01*
X124142297Y-108430185D01*
X124341810Y-108352893D01*
X124523722Y-108240258D01*
X124681841Y-108096114D01*
X124810781Y-107925370D01*
X124906151Y-107733840D01*
X124906151Y-107733837D01*
X124906153Y-107733835D01*
X124957590Y-107553050D01*
X124964704Y-107528048D01*
X124971529Y-107454394D01*
X124997315Y-107389457D01*
X125054116Y-107348770D01*
X125123897Y-107345250D01*
X125184503Y-107380015D01*
X125216693Y-107442028D01*
X125218471Y-107454395D01*
X125225295Y-107528047D01*
X125225296Y-107528050D01*
X125283846Y-107733835D01*
X125283849Y-107733841D01*
X125312359Y-107791096D01*
X125379219Y-107925370D01*
X125508159Y-108096114D01*
X125666278Y-108240258D01*
X125666283Y-108240261D01*
X125666286Y-108240263D01*
X125848186Y-108352891D01*
X125848187Y-108352891D01*
X125848190Y-108352893D01*
X126047703Y-108430185D01*
X126258020Y-108469500D01*
X126258022Y-108469500D01*
X126471978Y-108469500D01*
X126471980Y-108469500D01*
X126682297Y-108430185D01*
X126881810Y-108352893D01*
X127063722Y-108240258D01*
X127221841Y-108096114D01*
X127350781Y-107925370D01*
X127446151Y-107733840D01*
X127446151Y-107733837D01*
X127446153Y-107733835D01*
X127497590Y-107553050D01*
X127504704Y-107528048D01*
X127511529Y-107454394D01*
X127537315Y-107389457D01*
X127594116Y-107348770D01*
X127663897Y-107345250D01*
X127724503Y-107380015D01*
X127756693Y-107442028D01*
X127758471Y-107454395D01*
X127765295Y-107528047D01*
X127765296Y-107528050D01*
X127823846Y-107733835D01*
X127823849Y-107733841D01*
X127852359Y-107791096D01*
X127919219Y-107925370D01*
X128048159Y-108096114D01*
X128206278Y-108240258D01*
X128206283Y-108240261D01*
X128206286Y-108240263D01*
X128388186Y-108352891D01*
X128388187Y-108352891D01*
X128388190Y-108352893D01*
X128587703Y-108430185D01*
X128798020Y-108469500D01*
X128798022Y-108469500D01*
X129011978Y-108469500D01*
X129011980Y-108469500D01*
X129222297Y-108430185D01*
X129421810Y-108352893D01*
X129603722Y-108240258D01*
X129761841Y-108096114D01*
X129890781Y-107925370D01*
X129986151Y-107733840D01*
X129986151Y-107733837D01*
X129986153Y-107733835D01*
X130037590Y-107553050D01*
X130044704Y-107528048D01*
X130051529Y-107454394D01*
X130077315Y-107389457D01*
X130134116Y-107348770D01*
X130203897Y-107345250D01*
X130264503Y-107380015D01*
X130296693Y-107442028D01*
X130298471Y-107454395D01*
X130305295Y-107528047D01*
X130305296Y-107528050D01*
X130363846Y-107733835D01*
X130363849Y-107733841D01*
X130392359Y-107791096D01*
X130459219Y-107925370D01*
X130588159Y-108096114D01*
X130746278Y-108240258D01*
X130746283Y-108240261D01*
X130746286Y-108240263D01*
X130928186Y-108352891D01*
X130928187Y-108352891D01*
X130928190Y-108352893D01*
X131127703Y-108430185D01*
X131338020Y-108469500D01*
X131338022Y-108469500D01*
X131551978Y-108469500D01*
X131551980Y-108469500D01*
X131762297Y-108430185D01*
X131961810Y-108352893D01*
X132143722Y-108240258D01*
X132301841Y-108096114D01*
X132430781Y-107925370D01*
X132526151Y-107733840D01*
X132526151Y-107733837D01*
X132526153Y-107733835D01*
X132577590Y-107553050D01*
X132584704Y-107528048D01*
X132591529Y-107454394D01*
X132617315Y-107389457D01*
X132674116Y-107348770D01*
X132743897Y-107345250D01*
X132804503Y-107380015D01*
X132836693Y-107442028D01*
X132838471Y-107454395D01*
X132845295Y-107528047D01*
X132845296Y-107528050D01*
X132903846Y-107733835D01*
X132903849Y-107733841D01*
X132932359Y-107791096D01*
X132999219Y-107925370D01*
X133128159Y-108096114D01*
X133286278Y-108240258D01*
X133286283Y-108240261D01*
X133286286Y-108240263D01*
X133468186Y-108352891D01*
X133468187Y-108352891D01*
X133468190Y-108352893D01*
X133667703Y-108430185D01*
X133878020Y-108469500D01*
X133878022Y-108469500D01*
X134091978Y-108469500D01*
X134091980Y-108469500D01*
X134302297Y-108430185D01*
X134501810Y-108352893D01*
X134683722Y-108240258D01*
X134841841Y-108096114D01*
X134970781Y-107925370D01*
X135066151Y-107733840D01*
X135066151Y-107733837D01*
X135066153Y-107733835D01*
X135117590Y-107553050D01*
X135124704Y-107528048D01*
X135131529Y-107454394D01*
X135157315Y-107389457D01*
X135214116Y-107348770D01*
X135283897Y-107345250D01*
X135344503Y-107380015D01*
X135376693Y-107442028D01*
X135378471Y-107454395D01*
X135385295Y-107528047D01*
X135385296Y-107528050D01*
X135443846Y-107733835D01*
X135443849Y-107733841D01*
X135472359Y-107791096D01*
X135539219Y-107925370D01*
X135668159Y-108096114D01*
X135826278Y-108240258D01*
X135826283Y-108240261D01*
X135826286Y-108240263D01*
X136008186Y-108352891D01*
X136008187Y-108352891D01*
X136008190Y-108352893D01*
X136207703Y-108430185D01*
X136418020Y-108469500D01*
X136418022Y-108469500D01*
X136631978Y-108469500D01*
X136631980Y-108469500D01*
X136842297Y-108430185D01*
X137041810Y-108352893D01*
X137223722Y-108240258D01*
X137381841Y-108096114D01*
X137510781Y-107925370D01*
X137606151Y-107733840D01*
X137606151Y-107733837D01*
X137606153Y-107733835D01*
X137657590Y-107553050D01*
X137664704Y-107528048D01*
X137671529Y-107454394D01*
X137697315Y-107389457D01*
X137754116Y-107348770D01*
X137823897Y-107345250D01*
X137884503Y-107380015D01*
X137916693Y-107442028D01*
X137918471Y-107454395D01*
X137925295Y-107528047D01*
X137925296Y-107528050D01*
X137983846Y-107733835D01*
X137983849Y-107733841D01*
X138012359Y-107791096D01*
X138079219Y-107925370D01*
X138208159Y-108096114D01*
X138366278Y-108240258D01*
X138366283Y-108240261D01*
X138366286Y-108240263D01*
X138548186Y-108352891D01*
X138548187Y-108352891D01*
X138548190Y-108352893D01*
X138747703Y-108430185D01*
X138958020Y-108469500D01*
X138958022Y-108469500D01*
X139171978Y-108469500D01*
X139171980Y-108469500D01*
X139382297Y-108430185D01*
X139581810Y-108352893D01*
X139763722Y-108240258D01*
X139921841Y-108096114D01*
X140050781Y-107925370D01*
X140146151Y-107733840D01*
X140146151Y-107733837D01*
X140146153Y-107733835D01*
X140197590Y-107553050D01*
X140204704Y-107528048D01*
X140211529Y-107454394D01*
X140237315Y-107389457D01*
X140294116Y-107348770D01*
X140363897Y-107345250D01*
X140424503Y-107380015D01*
X140456693Y-107442028D01*
X140458471Y-107454395D01*
X140465295Y-107528047D01*
X140465296Y-107528050D01*
X140523846Y-107733835D01*
X140523849Y-107733841D01*
X140552359Y-107791096D01*
X140619219Y-107925370D01*
X140748159Y-108096114D01*
X140906278Y-108240258D01*
X140906283Y-108240261D01*
X140906286Y-108240263D01*
X141088186Y-108352891D01*
X141088187Y-108352891D01*
X141088190Y-108352893D01*
X141287703Y-108430185D01*
X141498020Y-108469500D01*
X141498022Y-108469500D01*
X141711978Y-108469500D01*
X141711980Y-108469500D01*
X141922297Y-108430185D01*
X142121810Y-108352893D01*
X142303722Y-108240258D01*
X142461841Y-108096114D01*
X142590781Y-107925370D01*
X142686151Y-107733840D01*
X142686151Y-107733837D01*
X142686153Y-107733835D01*
X142737590Y-107553050D01*
X142744704Y-107528048D01*
X142751529Y-107454394D01*
X142777315Y-107389457D01*
X142834116Y-107348770D01*
X142903897Y-107345250D01*
X142964503Y-107380015D01*
X142996693Y-107442028D01*
X142998471Y-107454395D01*
X143005295Y-107528047D01*
X143005296Y-107528050D01*
X143063846Y-107733835D01*
X143063849Y-107733841D01*
X143092359Y-107791096D01*
X143159219Y-107925370D01*
X143288159Y-108096114D01*
X143446278Y-108240258D01*
X143446283Y-108240261D01*
X143446286Y-108240263D01*
X143628186Y-108352891D01*
X143628187Y-108352891D01*
X143628190Y-108352893D01*
X143827703Y-108430185D01*
X144038020Y-108469500D01*
X144038022Y-108469500D01*
X144251978Y-108469500D01*
X144251980Y-108469500D01*
X144462297Y-108430185D01*
X144661810Y-108352893D01*
X144843722Y-108240258D01*
X145001841Y-108096114D01*
X145130781Y-107925370D01*
X145226151Y-107733840D01*
X145226151Y-107733837D01*
X145226153Y-107733835D01*
X145277590Y-107553050D01*
X145284704Y-107528048D01*
X145291529Y-107454394D01*
X145317315Y-107389457D01*
X145374116Y-107348770D01*
X145443897Y-107345250D01*
X145504503Y-107380015D01*
X145536693Y-107442028D01*
X145538471Y-107454395D01*
X145545295Y-107528047D01*
X145545296Y-107528050D01*
X145603846Y-107733835D01*
X145603849Y-107733841D01*
X145632359Y-107791096D01*
X145699219Y-107925370D01*
X145828159Y-108096114D01*
X145986278Y-108240258D01*
X145986283Y-108240261D01*
X145986286Y-108240263D01*
X146168186Y-108352891D01*
X146168187Y-108352891D01*
X146168190Y-108352893D01*
X146367703Y-108430185D01*
X146578020Y-108469500D01*
X146578022Y-108469500D01*
X146791978Y-108469500D01*
X146791980Y-108469500D01*
X147002297Y-108430185D01*
X147201810Y-108352893D01*
X147383722Y-108240258D01*
X147541841Y-108096114D01*
X147670781Y-107925370D01*
X147766151Y-107733840D01*
X147766151Y-107733837D01*
X147766153Y-107733835D01*
X147817590Y-107553050D01*
X147824704Y-107528048D01*
X147831529Y-107454394D01*
X147857315Y-107389457D01*
X147914116Y-107348770D01*
X147983897Y-107345250D01*
X148044503Y-107380015D01*
X148076693Y-107442028D01*
X148078471Y-107454395D01*
X148085295Y-107528047D01*
X148085296Y-107528050D01*
X148143846Y-107733835D01*
X148143849Y-107733841D01*
X148172359Y-107791096D01*
X148239219Y-107925370D01*
X148368159Y-108096114D01*
X148526278Y-108240258D01*
X148526283Y-108240261D01*
X148526286Y-108240263D01*
X148708186Y-108352891D01*
X148708187Y-108352891D01*
X148708190Y-108352893D01*
X148907703Y-108430185D01*
X149118020Y-108469500D01*
X149118022Y-108469500D01*
X149331978Y-108469500D01*
X149331980Y-108469500D01*
X149542297Y-108430185D01*
X149741810Y-108352893D01*
X149923722Y-108240258D01*
X150081841Y-108096114D01*
X150210781Y-107925370D01*
X150306151Y-107733840D01*
X150306151Y-107733837D01*
X150306153Y-107733835D01*
X150357590Y-107553050D01*
X150364704Y-107528048D01*
X150371529Y-107454394D01*
X150397315Y-107389457D01*
X150454116Y-107348770D01*
X150523897Y-107345250D01*
X150584503Y-107380015D01*
X150616693Y-107442028D01*
X150618471Y-107454395D01*
X150625295Y-107528047D01*
X150625296Y-107528050D01*
X150683846Y-107733835D01*
X150683849Y-107733841D01*
X150712359Y-107791096D01*
X150779219Y-107925370D01*
X150908159Y-108096114D01*
X151066278Y-108240258D01*
X151066283Y-108240261D01*
X151066286Y-108240263D01*
X151248186Y-108352891D01*
X151248187Y-108352891D01*
X151248190Y-108352893D01*
X151447703Y-108430185D01*
X151658020Y-108469500D01*
X151658022Y-108469500D01*
X151871978Y-108469500D01*
X151871980Y-108469500D01*
X152082297Y-108430185D01*
X152281810Y-108352893D01*
X152463722Y-108240258D01*
X152621841Y-108096114D01*
X152750781Y-107925370D01*
X152846151Y-107733840D01*
X152846151Y-107733837D01*
X152846153Y-107733835D01*
X152897590Y-107553050D01*
X152904704Y-107528048D01*
X152911529Y-107454394D01*
X152937315Y-107389457D01*
X152994116Y-107348770D01*
X153063897Y-107345250D01*
X153124503Y-107380015D01*
X153156693Y-107442028D01*
X153158471Y-107454395D01*
X153165295Y-107528047D01*
X153165296Y-107528050D01*
X153223846Y-107733835D01*
X153223849Y-107733841D01*
X153252359Y-107791096D01*
X153319219Y-107925370D01*
X153448159Y-108096114D01*
X153606278Y-108240258D01*
X153606283Y-108240261D01*
X153606286Y-108240263D01*
X153788186Y-108352891D01*
X153788187Y-108352891D01*
X153788190Y-108352893D01*
X153987703Y-108430185D01*
X154198020Y-108469500D01*
X154198022Y-108469500D01*
X154411978Y-108469500D01*
X154411980Y-108469500D01*
X154622297Y-108430185D01*
X154821810Y-108352893D01*
X155003722Y-108240258D01*
X155161841Y-108096114D01*
X155290781Y-107925370D01*
X155386151Y-107733840D01*
X155386151Y-107733837D01*
X155386153Y-107733835D01*
X155437590Y-107553050D01*
X155444704Y-107528048D01*
X155451529Y-107454394D01*
X155477315Y-107389457D01*
X155534116Y-107348770D01*
X155603897Y-107345250D01*
X155664503Y-107380015D01*
X155696693Y-107442028D01*
X155698471Y-107454395D01*
X155705295Y-107528047D01*
X155705296Y-107528050D01*
X155763846Y-107733835D01*
X155763849Y-107733841D01*
X155792359Y-107791096D01*
X155859219Y-107925370D01*
X155988159Y-108096114D01*
X156146278Y-108240258D01*
X156146283Y-108240261D01*
X156146286Y-108240263D01*
X156328186Y-108352891D01*
X156328187Y-108352891D01*
X156328190Y-108352893D01*
X156527703Y-108430185D01*
X156738020Y-108469500D01*
X156738022Y-108469500D01*
X156951978Y-108469500D01*
X156951980Y-108469500D01*
X157162297Y-108430185D01*
X157361810Y-108352893D01*
X157543722Y-108240258D01*
X157701841Y-108096114D01*
X157830781Y-107925370D01*
X157926151Y-107733840D01*
X157926151Y-107733837D01*
X157926153Y-107733835D01*
X157977590Y-107553050D01*
X157984704Y-107528048D01*
X157991529Y-107454394D01*
X158017315Y-107389457D01*
X158074116Y-107348770D01*
X158143897Y-107345250D01*
X158204503Y-107380015D01*
X158236693Y-107442028D01*
X158238471Y-107454395D01*
X158245295Y-107528047D01*
X158245296Y-107528050D01*
X158303846Y-107733835D01*
X158303849Y-107733841D01*
X158332359Y-107791096D01*
X158399219Y-107925370D01*
X158528159Y-108096114D01*
X158686278Y-108240258D01*
X158686283Y-108240261D01*
X158686286Y-108240263D01*
X158868186Y-108352891D01*
X158868187Y-108352891D01*
X158868190Y-108352893D01*
X159067703Y-108430185D01*
X159278020Y-108469500D01*
X159278022Y-108469500D01*
X159491978Y-108469500D01*
X159491980Y-108469500D01*
X159702297Y-108430185D01*
X159901810Y-108352893D01*
X160083722Y-108240258D01*
X160241841Y-108096114D01*
X160370781Y-107925370D01*
X160466151Y-107733840D01*
X160466151Y-107733837D01*
X160466153Y-107733835D01*
X160517590Y-107553050D01*
X160524704Y-107528048D01*
X160531529Y-107454394D01*
X160557315Y-107389457D01*
X160614116Y-107348770D01*
X160683897Y-107345250D01*
X160744503Y-107380015D01*
X160776693Y-107442028D01*
X160778471Y-107454395D01*
X160785295Y-107528047D01*
X160785296Y-107528050D01*
X160843846Y-107733835D01*
X160843849Y-107733841D01*
X160872359Y-107791096D01*
X160939219Y-107925370D01*
X161068159Y-108096114D01*
X161226278Y-108240258D01*
X161226283Y-108240261D01*
X161226286Y-108240263D01*
X161408186Y-108352891D01*
X161408187Y-108352891D01*
X161408190Y-108352893D01*
X161607703Y-108430185D01*
X161818020Y-108469500D01*
X161818022Y-108469500D01*
X162031978Y-108469500D01*
X162031980Y-108469500D01*
X162242297Y-108430185D01*
X162441810Y-108352893D01*
X162623722Y-108240258D01*
X162781841Y-108096114D01*
X162910781Y-107925370D01*
X163006151Y-107733840D01*
X163006151Y-107733837D01*
X163006153Y-107733835D01*
X163057590Y-107553050D01*
X163064704Y-107528048D01*
X163071780Y-107451686D01*
X163097564Y-107386751D01*
X163154364Y-107346063D01*
X163224145Y-107342543D01*
X163284752Y-107377307D01*
X163316943Y-107439320D01*
X163318721Y-107451687D01*
X163325788Y-107527954D01*
X163325789Y-107527956D01*
X163384315Y-107733654D01*
X163384321Y-107733669D01*
X163479646Y-107925106D01*
X163488980Y-107937466D01*
X163927580Y-107498866D01*
X163988903Y-107465381D01*
X164058594Y-107470365D01*
X164114528Y-107512236D01*
X164125742Y-107530246D01*
X164137359Y-107553045D01*
X164137361Y-107553047D01*
X164137363Y-107553050D01*
X164226949Y-107642636D01*
X164226951Y-107642637D01*
X164226955Y-107642641D01*
X164249747Y-107654254D01*
X164300542Y-107702228D01*
X164317337Y-107770049D01*
X164294799Y-107836184D01*
X164281132Y-107852419D01*
X163845085Y-108288465D01*
X163948415Y-108352444D01*
X163948416Y-108352445D01*
X164147837Y-108429700D01*
X164358068Y-108469000D01*
X164571932Y-108469000D01*
X164782162Y-108429700D01*
X164981585Y-108352444D01*
X164981586Y-108352443D01*
X165084913Y-108288465D01*
X164648866Y-107852419D01*
X164615381Y-107791096D01*
X164620365Y-107721405D01*
X164662236Y-107665471D01*
X164680245Y-107654258D01*
X164703045Y-107642641D01*
X164792641Y-107553045D01*
X164804254Y-107530252D01*
X164852225Y-107479458D01*
X164920046Y-107462661D01*
X164986181Y-107485197D01*
X165002419Y-107498866D01*
X165441018Y-107937465D01*
X165450355Y-107925101D01*
X165450357Y-107925098D01*
X165545678Y-107733669D01*
X165545684Y-107733654D01*
X165604210Y-107527956D01*
X165604211Y-107527954D01*
X165623944Y-107315000D01*
X165623944Y-107314999D01*
X165604211Y-107102045D01*
X165604210Y-107102043D01*
X165545684Y-106896345D01*
X165545678Y-106896330D01*
X165450353Y-106704893D01*
X165441019Y-106692533D01*
X165441018Y-106692533D01*
X165002419Y-107131132D01*
X164941096Y-107164617D01*
X164871404Y-107159633D01*
X164815471Y-107117761D01*
X164804256Y-107099751D01*
X164792641Y-107076955D01*
X164792637Y-107076951D01*
X164792636Y-107076949D01*
X164703050Y-106987363D01*
X164703047Y-106987361D01*
X164703045Y-106987359D01*
X164680250Y-106975744D01*
X164629456Y-106927771D01*
X164612661Y-106859950D01*
X164635198Y-106793815D01*
X164648866Y-106777580D01*
X165084913Y-106341533D01*
X165084912Y-106341532D01*
X164981589Y-106277557D01*
X164981583Y-106277554D01*
X164782162Y-106200299D01*
X164571932Y-106161000D01*
X164358068Y-106161000D01*
X164147837Y-106200299D01*
X163948415Y-106277555D01*
X163845085Y-106341533D01*
X164281133Y-106777580D01*
X164314618Y-106838903D01*
X164309634Y-106908594D01*
X164267763Y-106964528D01*
X164249748Y-106975745D01*
X164226956Y-106987358D01*
X164226949Y-106987363D01*
X164137363Y-107076949D01*
X164137358Y-107076956D01*
X164125745Y-107099748D01*
X164077770Y-107150544D01*
X164009949Y-107167338D01*
X163943814Y-107144800D01*
X163927580Y-107131133D01*
X163488980Y-106692532D01*
X163488979Y-106692532D01*
X163479646Y-106704894D01*
X163479644Y-106704896D01*
X163384321Y-106896330D01*
X163384315Y-106896345D01*
X163325789Y-107102043D01*
X163325789Y-107102044D01*
X163318721Y-107178313D01*
X163292934Y-107243250D01*
X163236133Y-107283937D01*
X163166352Y-107287456D01*
X163105746Y-107252690D01*
X163073557Y-107190677D01*
X163071780Y-107178323D01*
X163064704Y-107101952D01*
X163032100Y-106987360D01*
X163006153Y-106896164D01*
X163006150Y-106896158D01*
X162988121Y-106859950D01*
X162910781Y-106704630D01*
X162781841Y-106533886D01*
X162623722Y-106389742D01*
X162623716Y-106389738D01*
X162623713Y-106389736D01*
X162441813Y-106277108D01*
X162441807Y-106277106D01*
X162437241Y-106275337D01*
X162242297Y-106199815D01*
X162031980Y-106160500D01*
X161818020Y-106160500D01*
X161607703Y-106199815D01*
X161481533Y-106248693D01*
X161408192Y-106277106D01*
X161408186Y-106277108D01*
X161226286Y-106389736D01*
X161226283Y-106389738D01*
X161226279Y-106389740D01*
X161226278Y-106389742D01*
X161226276Y-106389744D01*
X161068158Y-106533887D01*
X160939219Y-106704629D01*
X160843849Y-106896158D01*
X160843846Y-106896164D01*
X160785296Y-107101949D01*
X160785295Y-107101952D01*
X160778471Y-107175604D01*
X160752685Y-107240542D01*
X160695884Y-107281229D01*
X160626103Y-107284749D01*
X160565497Y-107249984D01*
X160533307Y-107187971D01*
X160531529Y-107175604D01*
X160524704Y-107101952D01*
X160524703Y-107101949D01*
X160466153Y-106896164D01*
X160466150Y-106896158D01*
X160448121Y-106859950D01*
X160370781Y-106704630D01*
X160241841Y-106533886D01*
X160083722Y-106389742D01*
X160083716Y-106389738D01*
X160083713Y-106389736D01*
X159901813Y-106277108D01*
X159901807Y-106277106D01*
X159897241Y-106275337D01*
X159702297Y-106199815D01*
X159491980Y-106160500D01*
X159278020Y-106160500D01*
X159067703Y-106199815D01*
X158941533Y-106248693D01*
X158868192Y-106277106D01*
X158868186Y-106277108D01*
X158686286Y-106389736D01*
X158686283Y-106389738D01*
X158686279Y-106389740D01*
X158686278Y-106389742D01*
X158686276Y-106389744D01*
X158528158Y-106533887D01*
X158399219Y-106704629D01*
X158303849Y-106896158D01*
X158303846Y-106896164D01*
X158245296Y-107101949D01*
X158245295Y-107101952D01*
X158238471Y-107175604D01*
X158212685Y-107240542D01*
X158155884Y-107281229D01*
X158086103Y-107284749D01*
X158025497Y-107249984D01*
X157993307Y-107187971D01*
X157991529Y-107175604D01*
X157984704Y-107101952D01*
X157984703Y-107101949D01*
X157926153Y-106896164D01*
X157926150Y-106896158D01*
X157908121Y-106859950D01*
X157830781Y-106704630D01*
X157701841Y-106533886D01*
X157543722Y-106389742D01*
X157543716Y-106389738D01*
X157543713Y-106389736D01*
X157361813Y-106277108D01*
X157361807Y-106277106D01*
X157357241Y-106275337D01*
X157162297Y-106199815D01*
X156951980Y-106160500D01*
X156738020Y-106160500D01*
X156527703Y-106199815D01*
X156401533Y-106248693D01*
X156328192Y-106277106D01*
X156328186Y-106277108D01*
X156146286Y-106389736D01*
X156146283Y-106389738D01*
X156146279Y-106389740D01*
X156146278Y-106389742D01*
X156146276Y-106389744D01*
X155988158Y-106533887D01*
X155859219Y-106704629D01*
X155763849Y-106896158D01*
X155763846Y-106896164D01*
X155705296Y-107101949D01*
X155705295Y-107101952D01*
X155698471Y-107175604D01*
X155672685Y-107240542D01*
X155615884Y-107281229D01*
X155546103Y-107284749D01*
X155485497Y-107249984D01*
X155453307Y-107187971D01*
X155451529Y-107175604D01*
X155444704Y-107101952D01*
X155444703Y-107101949D01*
X155386153Y-106896164D01*
X155386150Y-106896158D01*
X155368121Y-106859950D01*
X155290781Y-106704630D01*
X155161841Y-106533886D01*
X155003722Y-106389742D01*
X155003716Y-106389738D01*
X155003713Y-106389736D01*
X154821813Y-106277108D01*
X154821807Y-106277106D01*
X154817241Y-106275337D01*
X154622297Y-106199815D01*
X154411980Y-106160500D01*
X154198020Y-106160500D01*
X153987703Y-106199815D01*
X153861533Y-106248693D01*
X153788192Y-106277106D01*
X153788186Y-106277108D01*
X153606286Y-106389736D01*
X153606283Y-106389738D01*
X153606279Y-106389740D01*
X153606278Y-106389742D01*
X153606276Y-106389744D01*
X153448158Y-106533887D01*
X153319219Y-106704629D01*
X153223849Y-106896158D01*
X153223846Y-106896164D01*
X153165296Y-107101949D01*
X153165295Y-107101952D01*
X153158471Y-107175604D01*
X153132685Y-107240542D01*
X153075884Y-107281229D01*
X153006103Y-107284749D01*
X152945497Y-107249984D01*
X152913307Y-107187971D01*
X152911529Y-107175604D01*
X152904704Y-107101952D01*
X152904703Y-107101949D01*
X152846153Y-106896164D01*
X152846150Y-106896158D01*
X152828121Y-106859950D01*
X152750781Y-106704630D01*
X152621841Y-106533886D01*
X152463722Y-106389742D01*
X152463716Y-106389738D01*
X152463713Y-106389736D01*
X152281813Y-106277108D01*
X152281807Y-106277106D01*
X152277241Y-106275337D01*
X152082297Y-106199815D01*
X151871980Y-106160500D01*
X151658020Y-106160500D01*
X151447703Y-106199815D01*
X151321533Y-106248693D01*
X151248192Y-106277106D01*
X151248186Y-106277108D01*
X151066286Y-106389736D01*
X151066283Y-106389738D01*
X151066279Y-106389740D01*
X151066278Y-106389742D01*
X151066276Y-106389744D01*
X150908158Y-106533887D01*
X150779219Y-106704629D01*
X150683849Y-106896158D01*
X150683846Y-106896164D01*
X150625296Y-107101949D01*
X150625295Y-107101952D01*
X150618471Y-107175604D01*
X150592685Y-107240542D01*
X150535884Y-107281229D01*
X150466103Y-107284749D01*
X150405497Y-107249984D01*
X150373307Y-107187971D01*
X150371529Y-107175604D01*
X150364704Y-107101952D01*
X150364703Y-107101949D01*
X150306153Y-106896164D01*
X150306150Y-106896158D01*
X150288121Y-106859950D01*
X150210781Y-106704630D01*
X150081841Y-106533886D01*
X149923722Y-106389742D01*
X149923716Y-106389738D01*
X149923713Y-106389736D01*
X149741813Y-106277108D01*
X149741807Y-106277106D01*
X149737241Y-106275337D01*
X149542297Y-106199815D01*
X149331980Y-106160500D01*
X149118020Y-106160500D01*
X148907703Y-106199815D01*
X148781533Y-106248693D01*
X148708192Y-106277106D01*
X148708186Y-106277108D01*
X148526286Y-106389736D01*
X148526283Y-106389738D01*
X148526279Y-106389740D01*
X148526278Y-106389742D01*
X148526276Y-106389744D01*
X148368158Y-106533887D01*
X148239219Y-106704629D01*
X148143849Y-106896158D01*
X148143846Y-106896164D01*
X148085296Y-107101949D01*
X148085295Y-107101952D01*
X148078471Y-107175604D01*
X148052685Y-107240542D01*
X147995884Y-107281229D01*
X147926103Y-107284749D01*
X147865497Y-107249984D01*
X147833307Y-107187971D01*
X147831529Y-107175604D01*
X147824704Y-107101952D01*
X147824703Y-107101949D01*
X147766153Y-106896164D01*
X147766150Y-106896158D01*
X147748121Y-106859950D01*
X147670781Y-106704630D01*
X147541841Y-106533886D01*
X147383722Y-106389742D01*
X147383716Y-106389738D01*
X147383713Y-106389736D01*
X147201813Y-106277108D01*
X147201807Y-106277106D01*
X147197241Y-106275337D01*
X147002297Y-106199815D01*
X146791980Y-106160500D01*
X146578020Y-106160500D01*
X146578016Y-106160500D01*
X146504995Y-106174149D01*
X146435480Y-106167117D01*
X146394532Y-106139941D01*
X144806819Y-104552228D01*
X144773334Y-104490905D01*
X144770500Y-104464547D01*
X144770500Y-98687870D01*
X150399500Y-98687870D01*
X150399501Y-98687876D01*
X150405908Y-98747483D01*
X150456202Y-98882328D01*
X150456206Y-98882335D01*
X150542452Y-98997544D01*
X150542455Y-98997547D01*
X150657664Y-99083793D01*
X150657671Y-99083797D01*
X150792517Y-99134091D01*
X150792516Y-99134091D01*
X150799444Y-99134835D01*
X150852127Y-99140500D01*
X152297872Y-99140499D01*
X152357483Y-99134091D01*
X152492331Y-99083796D01*
X152607546Y-98997546D01*
X152659758Y-98927800D01*
X152670087Y-98914003D01*
X152726020Y-98872132D01*
X152795712Y-98867148D01*
X152852891Y-98896677D01*
X152863869Y-98906685D01*
X152863874Y-98906689D01*
X153049012Y-99021322D01*
X153049023Y-99021327D01*
X153252060Y-99099984D01*
X153325000Y-99113619D01*
X153325000Y-98475575D01*
X153344685Y-98408536D01*
X153397489Y-98362781D01*
X153466647Y-98352837D01*
X153468331Y-98353091D01*
X153500699Y-98358218D01*
X153543515Y-98365000D01*
X153543519Y-98365000D01*
X153606485Y-98365000D01*
X153649300Y-98358218D01*
X153681602Y-98353102D01*
X153750894Y-98362056D01*
X153804347Y-98407052D01*
X153824987Y-98473803D01*
X153825000Y-98475575D01*
X153825000Y-99113619D01*
X153897939Y-99099984D01*
X154100976Y-99021327D01*
X154100987Y-99021322D01*
X154286130Y-98906685D01*
X154286131Y-98906685D01*
X154447055Y-98759984D01*
X154475730Y-98722012D01*
X154531838Y-98680374D01*
X154601550Y-98675681D01*
X154662733Y-98709422D01*
X154673640Y-98722009D01*
X154692512Y-98747000D01*
X154702573Y-98760322D01*
X154863568Y-98907088D01*
X154863575Y-98907092D01*
X154863576Y-98907093D01*
X155048786Y-99021770D01*
X155048792Y-99021773D01*
X155071664Y-99030633D01*
X155251931Y-99100470D01*
X155466074Y-99140500D01*
X155466076Y-99140500D01*
X155683924Y-99140500D01*
X155683926Y-99140500D01*
X155898069Y-99100470D01*
X156101210Y-99021772D01*
X156286432Y-98907088D01*
X156447427Y-98760322D01*
X156578712Y-98586472D01*
X156675817Y-98391459D01*
X156735435Y-98181923D01*
X156755536Y-97965000D01*
X156735435Y-97748077D01*
X156675817Y-97538541D01*
X156578712Y-97343528D01*
X156447427Y-97169678D01*
X156286432Y-97022912D01*
X156286428Y-97022909D01*
X156286423Y-97022906D01*
X156101213Y-96908229D01*
X156101207Y-96908226D01*
X156016112Y-96875260D01*
X155898069Y-96829530D01*
X155683926Y-96789500D01*
X155466074Y-96789500D01*
X155251931Y-96829530D01*
X155208896Y-96846202D01*
X155048792Y-96908226D01*
X155048786Y-96908229D01*
X154863576Y-97022906D01*
X154863566Y-97022913D01*
X154702574Y-97169676D01*
X154673640Y-97207991D01*
X154617530Y-97249627D01*
X154547818Y-97254318D01*
X154486637Y-97220576D01*
X154475731Y-97207990D01*
X154447051Y-97170011D01*
X154447050Y-97170010D01*
X154286131Y-97023314D01*
X154100987Y-96908677D01*
X154100985Y-96908676D01*
X153897931Y-96830013D01*
X153897921Y-96830010D01*
X153825001Y-96816378D01*
X153825000Y-96816379D01*
X153825000Y-97454424D01*
X153805315Y-97521463D01*
X153752511Y-97567218D01*
X153683353Y-97577162D01*
X153681602Y-97576897D01*
X153606486Y-97565000D01*
X153606481Y-97565000D01*
X153543519Y-97565000D01*
X153543514Y-97565000D01*
X153468398Y-97576897D01*
X153399104Y-97567942D01*
X153345652Y-97522946D01*
X153325013Y-97456194D01*
X153325000Y-97454424D01*
X153325000Y-96816379D01*
X153324998Y-96816378D01*
X153252078Y-96830010D01*
X153252068Y-96830013D01*
X153049014Y-96908676D01*
X153049012Y-96908677D01*
X152863869Y-97023314D01*
X152863868Y-97023314D01*
X152852887Y-97033325D01*
X152790082Y-97063940D01*
X152720695Y-97055740D01*
X152670086Y-97015997D01*
X152607546Y-96932454D01*
X152575182Y-96908226D01*
X152492335Y-96846206D01*
X152492328Y-96846202D01*
X152357482Y-96795908D01*
X152357483Y-96795908D01*
X152297883Y-96789501D01*
X152297881Y-96789500D01*
X152297873Y-96789500D01*
X152297864Y-96789500D01*
X150852129Y-96789500D01*
X150852123Y-96789501D01*
X150792516Y-96795908D01*
X150657671Y-96846202D01*
X150657664Y-96846206D01*
X150542455Y-96932452D01*
X150542452Y-96932455D01*
X150456206Y-97047664D01*
X150456202Y-97047671D01*
X150405908Y-97182517D01*
X150399501Y-97242116D01*
X150399500Y-97242135D01*
X150399500Y-98687870D01*
X144770500Y-98687870D01*
X144770500Y-69850000D01*
X150859540Y-69850000D01*
X150879326Y-70038256D01*
X150879327Y-70038259D01*
X150937818Y-70218277D01*
X150937821Y-70218284D01*
X151032467Y-70382216D01*
X151134185Y-70495185D01*
X151159129Y-70522888D01*
X151312265Y-70634148D01*
X151312270Y-70634151D01*
X151485192Y-70711142D01*
X151485197Y-70711144D01*
X151670354Y-70750500D01*
X151670355Y-70750500D01*
X151859644Y-70750500D01*
X151859646Y-70750500D01*
X152044803Y-70711144D01*
X152217730Y-70634151D01*
X152370871Y-70522888D01*
X152373788Y-70519647D01*
X152376600Y-70516526D01*
X152436087Y-70479879D01*
X152468748Y-70475500D01*
X167952837Y-70475500D01*
X168019876Y-70495185D01*
X168065631Y-70547989D01*
X168075575Y-70617147D01*
X168073414Y-70628428D01*
X168044108Y-70750500D01*
X168042538Y-70757039D01*
X168023811Y-70995001D01*
X168042538Y-71232964D01*
X168098261Y-71465069D01*
X168189608Y-71685601D01*
X168189610Y-71685605D01*
X168189611Y-71685606D01*
X168314332Y-71889133D01*
X168469357Y-72070644D01*
X168650868Y-72225669D01*
X168854395Y-72350390D01*
X168854397Y-72350390D01*
X168854399Y-72350392D01*
X168930071Y-72381736D01*
X169074927Y-72441738D01*
X169307034Y-72497462D01*
X169545000Y-72516190D01*
X169782966Y-72497462D01*
X170015073Y-72441738D01*
X170235605Y-72350390D01*
X170439132Y-72225669D01*
X170620643Y-72070644D01*
X170775668Y-71889133D01*
X170900389Y-71685606D01*
X170991737Y-71465074D01*
X171047461Y-71232967D01*
X171066189Y-70995001D01*
X171047461Y-70757035D01*
X170991737Y-70524928D01*
X170900389Y-70304396D01*
X170775668Y-70100869D01*
X170620643Y-69919358D01*
X170439132Y-69764333D01*
X170235605Y-69639612D01*
X170235604Y-69639611D01*
X170235600Y-69639609D01*
X170015068Y-69548262D01*
X169782962Y-69492539D01*
X169782963Y-69492539D01*
X169585653Y-69477011D01*
X169545000Y-69473812D01*
X169544999Y-69473812D01*
X169544998Y-69473812D01*
X169487213Y-69478359D01*
X169418836Y-69463994D01*
X169392602Y-69445133D01*
X169391606Y-69444198D01*
X169345364Y-69400773D01*
X169334919Y-69390328D01*
X169324475Y-69379883D01*
X169318986Y-69375625D01*
X169314561Y-69371847D01*
X169280582Y-69339938D01*
X169280580Y-69339936D01*
X169280577Y-69339935D01*
X169263029Y-69330288D01*
X169246763Y-69319604D01*
X169230933Y-69307325D01*
X169188168Y-69288818D01*
X169182922Y-69286248D01*
X169142093Y-69263803D01*
X169142092Y-69263802D01*
X169122693Y-69258822D01*
X169104281Y-69252518D01*
X169085898Y-69244562D01*
X169085892Y-69244560D01*
X169039874Y-69237272D01*
X169034152Y-69236087D01*
X168989021Y-69224500D01*
X168989019Y-69224500D01*
X168968984Y-69224500D01*
X168949586Y-69222973D01*
X168942162Y-69221797D01*
X168929805Y-69219840D01*
X168929804Y-69219840D01*
X168883416Y-69224225D01*
X168877578Y-69224500D01*
X152468748Y-69224500D01*
X152401709Y-69204815D01*
X152376600Y-69183474D01*
X152370873Y-69177114D01*
X152370869Y-69177110D01*
X152217734Y-69065851D01*
X152217729Y-69065848D01*
X152044807Y-68988857D01*
X152044802Y-68988855D01*
X151899001Y-68957865D01*
X151859646Y-68949500D01*
X151670354Y-68949500D01*
X151637897Y-68956398D01*
X151485197Y-68988855D01*
X151485192Y-68988857D01*
X151312270Y-69065848D01*
X151312265Y-69065851D01*
X151159129Y-69177111D01*
X151032466Y-69317785D01*
X150937821Y-69481715D01*
X150937818Y-69481722D01*
X150893140Y-69619229D01*
X150879326Y-69661744D01*
X150859540Y-69850000D01*
X144770500Y-69850000D01*
X144770500Y-66879499D01*
X144790185Y-66812460D01*
X144842989Y-66766705D01*
X144894500Y-66755499D01*
X145042871Y-66755499D01*
X145042872Y-66755499D01*
X145102483Y-66749091D01*
X145237331Y-66698796D01*
X145352546Y-66612546D01*
X145438796Y-66497331D01*
X145489091Y-66362483D01*
X145495500Y-66302873D01*
X145495500Y-66295000D01*
X168023811Y-66295000D01*
X168042538Y-66532963D01*
X168098261Y-66765068D01*
X168189608Y-66985600D01*
X168189610Y-66985604D01*
X168189611Y-66985605D01*
X168314332Y-67189132D01*
X168469357Y-67370643D01*
X168650868Y-67525668D01*
X168854395Y-67650389D01*
X168854397Y-67650389D01*
X168854399Y-67650391D01*
X168901327Y-67669829D01*
X169074927Y-67741737D01*
X169307034Y-67797461D01*
X169545000Y-67816189D01*
X169782966Y-67797461D01*
X170015073Y-67741737D01*
X170235605Y-67650389D01*
X170439132Y-67525668D01*
X170620643Y-67370643D01*
X170775668Y-67189132D01*
X170900389Y-66985605D01*
X170991737Y-66765073D01*
X171047461Y-66532966D01*
X171066189Y-66295000D01*
X171047461Y-66057034D01*
X170991737Y-65824927D01*
X170931735Y-65680070D01*
X170900391Y-65604399D01*
X170834005Y-65496067D01*
X170775668Y-65400868D01*
X170620643Y-65219357D01*
X170439132Y-65064332D01*
X170235605Y-64939611D01*
X170235604Y-64939610D01*
X170235600Y-64939608D01*
X170015068Y-64848261D01*
X169782962Y-64792538D01*
X169782963Y-64792538D01*
X169545000Y-64773811D01*
X169307036Y-64792538D01*
X169074931Y-64848261D01*
X168854399Y-64939608D01*
X168650867Y-65064332D01*
X168469357Y-65219357D01*
X168314332Y-65400867D01*
X168189608Y-65604399D01*
X168098261Y-65824931D01*
X168042538Y-66057036D01*
X168023811Y-66295000D01*
X145495500Y-66295000D01*
X145495499Y-64507128D01*
X145489091Y-64447517D01*
X145487810Y-64444083D01*
X145438797Y-64312671D01*
X145438793Y-64312664D01*
X145352547Y-64197455D01*
X145352544Y-64197452D01*
X145237335Y-64111206D01*
X145237328Y-64111202D01*
X145102482Y-64060908D01*
X145102483Y-64060908D01*
X145042883Y-64054501D01*
X145042881Y-64054500D01*
X145042873Y-64054500D01*
X145042864Y-64054500D01*
X143247129Y-64054500D01*
X143247123Y-64054501D01*
X143187516Y-64060908D01*
X143052671Y-64111202D01*
X143052664Y-64111206D01*
X142937455Y-64197452D01*
X142937452Y-64197455D01*
X142851206Y-64312664D01*
X142851203Y-64312669D01*
X142802189Y-64444083D01*
X142760317Y-64500016D01*
X142694853Y-64524433D01*
X142626580Y-64509581D01*
X142598326Y-64488430D01*
X142476402Y-64366506D01*
X142476395Y-64366501D01*
X142282834Y-64230967D01*
X142282830Y-64230965D01*
X142256798Y-64218826D01*
X142068663Y-64131097D01*
X142068659Y-64131096D01*
X142068655Y-64131094D01*
X141840413Y-64069938D01*
X141840403Y-64069936D01*
X141605001Y-64049341D01*
X141604999Y-64049341D01*
X141369596Y-64069936D01*
X141369586Y-64069938D01*
X141141344Y-64131094D01*
X141141335Y-64131098D01*
X140927171Y-64230964D01*
X140927169Y-64230965D01*
X140733597Y-64366505D01*
X140566508Y-64533594D01*
X140436269Y-64719595D01*
X140381692Y-64763219D01*
X140312193Y-64770412D01*
X140249839Y-64738890D01*
X140233119Y-64719594D01*
X140103113Y-64533926D01*
X140103108Y-64533920D01*
X139936082Y-64366894D01*
X139742578Y-64231399D01*
X139528492Y-64131570D01*
X139528486Y-64131567D01*
X139315000Y-64074364D01*
X139315000Y-64792698D01*
X139295315Y-64859737D01*
X139242511Y-64905492D01*
X139173355Y-64915436D01*
X139100766Y-64905000D01*
X139100763Y-64905000D01*
X139029237Y-64905000D01*
X139029233Y-64905000D01*
X138956645Y-64915436D01*
X138887487Y-64905492D01*
X138834684Y-64859736D01*
X138815000Y-64792698D01*
X138815000Y-64074364D01*
X138814999Y-64074364D01*
X138601513Y-64131567D01*
X138601507Y-64131570D01*
X138387422Y-64231399D01*
X138387420Y-64231400D01*
X138193926Y-64366886D01*
X138193920Y-64366891D01*
X138026891Y-64533920D01*
X138026886Y-64533926D01*
X137891400Y-64727420D01*
X137891399Y-64727422D01*
X137791570Y-64941507D01*
X137791567Y-64941513D01*
X137734364Y-65154999D01*
X137734364Y-65155000D01*
X138451653Y-65155000D01*
X138518692Y-65174685D01*
X138564447Y-65227489D01*
X138574391Y-65296647D01*
X138570631Y-65313933D01*
X138565000Y-65333111D01*
X138565000Y-65476888D01*
X138570631Y-65496067D01*
X138570630Y-65565936D01*
X138532855Y-65624714D01*
X138469299Y-65653738D01*
X138451653Y-65655000D01*
X137734364Y-65655000D01*
X137791567Y-65868486D01*
X137791570Y-65868492D01*
X137891399Y-66082578D01*
X138026894Y-66276082D01*
X138193917Y-66443105D01*
X138387421Y-66578600D01*
X138601507Y-66678429D01*
X138601516Y-66678433D01*
X138815000Y-66735634D01*
X138815000Y-66017301D01*
X138834685Y-65950262D01*
X138887489Y-65904507D01*
X138956647Y-65894563D01*
X139029237Y-65905000D01*
X139029238Y-65905000D01*
X139100762Y-65905000D01*
X139100763Y-65905000D01*
X139173353Y-65894563D01*
X139242512Y-65904507D01*
X139295315Y-65950262D01*
X139315000Y-66017301D01*
X139315000Y-66735633D01*
X139528483Y-66678433D01*
X139528492Y-66678429D01*
X139742578Y-66578600D01*
X139936082Y-66443105D01*
X140103105Y-66276082D01*
X140233119Y-66090405D01*
X140287696Y-66046781D01*
X140357195Y-66039588D01*
X140419549Y-66071110D01*
X140436269Y-66090405D01*
X140566505Y-66276401D01*
X140733599Y-66443495D01*
X140813014Y-66499102D01*
X140927165Y-66579032D01*
X140927167Y-66579033D01*
X140927170Y-66579035D01*
X141141337Y-66678903D01*
X141369592Y-66740063D01*
X141546034Y-66755500D01*
X141604999Y-66760659D01*
X141605000Y-66760659D01*
X141605001Y-66760659D01*
X141663966Y-66755500D01*
X141840408Y-66740063D01*
X142068663Y-66678903D01*
X142282830Y-66579035D01*
X142476401Y-66443495D01*
X142598329Y-66321566D01*
X142659648Y-66288084D01*
X142729340Y-66293068D01*
X142785274Y-66334939D01*
X142802189Y-66365917D01*
X142851202Y-66497328D01*
X142851206Y-66497335D01*
X142937452Y-66612544D01*
X142937455Y-66612547D01*
X143052664Y-66698793D01*
X143052671Y-66698797D01*
X143075794Y-66707421D01*
X143187517Y-66749091D01*
X143247127Y-66755500D01*
X143395500Y-66755499D01*
X143462539Y-66775183D01*
X143508294Y-66827987D01*
X143519500Y-66879499D01*
X143519500Y-104692255D01*
X143517775Y-104707872D01*
X143518061Y-104707899D01*
X143517326Y-104715665D01*
X143519500Y-104784814D01*
X143519500Y-104814343D01*
X143519501Y-104814360D01*
X143520368Y-104821231D01*
X143520826Y-104827050D01*
X143522290Y-104873624D01*
X143522291Y-104873627D01*
X143527880Y-104892867D01*
X143531824Y-104911911D01*
X143534336Y-104931791D01*
X143551490Y-104975119D01*
X143553382Y-104980647D01*
X143566381Y-105025388D01*
X143576580Y-105042634D01*
X143585138Y-105060103D01*
X143592514Y-105078732D01*
X143619898Y-105116423D01*
X143623106Y-105121307D01*
X143646827Y-105161416D01*
X143646833Y-105161424D01*
X143660990Y-105175580D01*
X143673628Y-105190376D01*
X143685405Y-105206586D01*
X143685406Y-105206587D01*
X143721309Y-105236288D01*
X143725620Y-105240210D01*
X144453329Y-105967919D01*
X144486814Y-106029242D01*
X144481830Y-106098934D01*
X144439958Y-106154867D01*
X144374494Y-106179284D01*
X144342863Y-106177489D01*
X144325001Y-106174150D01*
X144251980Y-106160500D01*
X144038020Y-106160500D01*
X143827703Y-106199815D01*
X143701533Y-106248693D01*
X143628192Y-106277106D01*
X143628186Y-106277108D01*
X143446286Y-106389736D01*
X143446283Y-106389738D01*
X143446279Y-106389740D01*
X143446278Y-106389742D01*
X143446276Y-106389744D01*
X143288158Y-106533887D01*
X143159219Y-106704629D01*
X143063849Y-106896158D01*
X143063846Y-106896164D01*
X143005296Y-107101949D01*
X143005295Y-107101952D01*
X142998471Y-107175604D01*
X142972685Y-107240542D01*
X142915884Y-107281229D01*
X142846103Y-107284749D01*
X142785497Y-107249984D01*
X142753307Y-107187971D01*
X142751529Y-107175604D01*
X142744704Y-107101952D01*
X142744703Y-107101949D01*
X142686153Y-106896164D01*
X142686150Y-106896158D01*
X142668121Y-106859950D01*
X142590781Y-106704630D01*
X142461841Y-106533886D01*
X142303722Y-106389742D01*
X142303716Y-106389738D01*
X142303713Y-106389736D01*
X142121813Y-106277108D01*
X142121807Y-106277106D01*
X142117241Y-106275337D01*
X141922297Y-106199815D01*
X141711980Y-106160500D01*
X141498020Y-106160500D01*
X141287703Y-106199815D01*
X141161533Y-106248693D01*
X141088192Y-106277106D01*
X141088186Y-106277108D01*
X140906286Y-106389736D01*
X140906283Y-106389738D01*
X140906279Y-106389740D01*
X140906278Y-106389742D01*
X140906276Y-106389744D01*
X140748158Y-106533887D01*
X140619219Y-106704629D01*
X140523849Y-106896158D01*
X140523846Y-106896164D01*
X140465296Y-107101949D01*
X140465295Y-107101952D01*
X140458471Y-107175604D01*
X140432685Y-107240542D01*
X140375884Y-107281229D01*
X140306103Y-107284749D01*
X140245497Y-107249984D01*
X140213307Y-107187971D01*
X140211529Y-107175604D01*
X140204704Y-107101952D01*
X140204703Y-107101949D01*
X140146153Y-106896164D01*
X140146150Y-106896158D01*
X140128121Y-106859950D01*
X140050781Y-106704630D01*
X139921841Y-106533886D01*
X139763722Y-106389742D01*
X139763716Y-106389738D01*
X139763713Y-106389736D01*
X139581813Y-106277108D01*
X139581807Y-106277106D01*
X139577241Y-106275337D01*
X139382297Y-106199815D01*
X139171980Y-106160500D01*
X138958020Y-106160500D01*
X138747703Y-106199815D01*
X138621533Y-106248693D01*
X138548192Y-106277106D01*
X138548186Y-106277108D01*
X138366286Y-106389736D01*
X138366283Y-106389738D01*
X138366279Y-106389740D01*
X138366278Y-106389742D01*
X138366276Y-106389744D01*
X138208158Y-106533887D01*
X138079219Y-106704629D01*
X137983849Y-106896158D01*
X137983846Y-106896164D01*
X137925296Y-107101949D01*
X137925295Y-107101952D01*
X137918471Y-107175604D01*
X137892685Y-107240542D01*
X137835884Y-107281229D01*
X137766103Y-107284749D01*
X137705497Y-107249984D01*
X137673307Y-107187971D01*
X137671529Y-107175604D01*
X137664704Y-107101952D01*
X137664703Y-107101949D01*
X137606153Y-106896164D01*
X137606150Y-106896158D01*
X137588121Y-106859950D01*
X137510781Y-106704630D01*
X137381841Y-106533886D01*
X137223722Y-106389742D01*
X137223716Y-106389738D01*
X137223713Y-106389736D01*
X137041813Y-106277108D01*
X137041807Y-106277106D01*
X137037241Y-106275337D01*
X136842297Y-106199815D01*
X136631980Y-106160500D01*
X136418020Y-106160500D01*
X136207703Y-106199815D01*
X136081533Y-106248693D01*
X136008192Y-106277106D01*
X136008186Y-106277108D01*
X135826286Y-106389736D01*
X135826283Y-106389738D01*
X135826279Y-106389740D01*
X135826278Y-106389742D01*
X135826276Y-106389744D01*
X135668158Y-106533887D01*
X135539219Y-106704629D01*
X135443849Y-106896158D01*
X135443846Y-106896164D01*
X135385296Y-107101949D01*
X135385295Y-107101952D01*
X135378471Y-107175604D01*
X135352685Y-107240542D01*
X135295884Y-107281229D01*
X135226103Y-107284749D01*
X135165497Y-107249984D01*
X135133307Y-107187971D01*
X135131529Y-107175604D01*
X135124704Y-107101952D01*
X135124703Y-107101949D01*
X135066153Y-106896164D01*
X135066150Y-106896158D01*
X135048121Y-106859950D01*
X134970781Y-106704630D01*
X134841841Y-106533886D01*
X134683722Y-106389742D01*
X134683716Y-106389738D01*
X134683713Y-106389736D01*
X134501813Y-106277108D01*
X134501807Y-106277106D01*
X134497241Y-106275337D01*
X134302297Y-106199815D01*
X134091980Y-106160500D01*
X133878020Y-106160500D01*
X133667703Y-106199815D01*
X133541533Y-106248693D01*
X133468192Y-106277106D01*
X133468186Y-106277108D01*
X133286286Y-106389736D01*
X133286283Y-106389738D01*
X133286279Y-106389740D01*
X133286278Y-106389742D01*
X133286276Y-106389744D01*
X133128158Y-106533887D01*
X132999219Y-106704629D01*
X132903849Y-106896158D01*
X132903846Y-106896164D01*
X132845296Y-107101949D01*
X132845295Y-107101952D01*
X132838471Y-107175604D01*
X132812685Y-107240542D01*
X132755884Y-107281229D01*
X132686103Y-107284749D01*
X132625497Y-107249984D01*
X132593307Y-107187971D01*
X132591529Y-107175604D01*
X132584704Y-107101952D01*
X132584703Y-107101949D01*
X132526153Y-106896164D01*
X132526150Y-106896158D01*
X132508121Y-106859950D01*
X132430781Y-106704630D01*
X132301841Y-106533886D01*
X132143722Y-106389742D01*
X132143716Y-106389738D01*
X132143713Y-106389736D01*
X131961813Y-106277108D01*
X131961807Y-106277106D01*
X131957241Y-106275337D01*
X131762297Y-106199815D01*
X131551980Y-106160500D01*
X131338020Y-106160500D01*
X131127703Y-106199815D01*
X131001533Y-106248693D01*
X130928192Y-106277106D01*
X130928186Y-106277108D01*
X130746286Y-106389736D01*
X130746283Y-106389738D01*
X130746279Y-106389740D01*
X130746278Y-106389742D01*
X130746276Y-106389744D01*
X130588158Y-106533887D01*
X130459219Y-106704629D01*
X130363849Y-106896158D01*
X130363846Y-106896164D01*
X130305296Y-107101949D01*
X130305295Y-107101952D01*
X130298471Y-107175604D01*
X130272685Y-107240542D01*
X130215884Y-107281229D01*
X130146103Y-107284749D01*
X130085497Y-107249984D01*
X130053307Y-107187971D01*
X130051529Y-107175604D01*
X130044704Y-107101952D01*
X130044703Y-107101949D01*
X129986153Y-106896164D01*
X129986150Y-106896158D01*
X129968121Y-106859950D01*
X129890781Y-106704630D01*
X129761841Y-106533886D01*
X129603722Y-106389742D01*
X129589221Y-106380763D01*
X129542587Y-106328736D01*
X129530500Y-106275337D01*
X129530500Y-104222742D01*
X129532224Y-104207122D01*
X129531939Y-104207095D01*
X129532673Y-104199333D01*
X129530500Y-104130172D01*
X129530500Y-104100656D01*
X129530500Y-104100650D01*
X129529631Y-104093779D01*
X129529173Y-104087952D01*
X129528699Y-104072872D01*
X129527710Y-104041373D01*
X129522119Y-104022130D01*
X129518173Y-104003078D01*
X129515664Y-103983208D01*
X129498504Y-103939867D01*
X129496624Y-103934379D01*
X129483618Y-103889610D01*
X129473422Y-103872370D01*
X129464861Y-103854894D01*
X129457487Y-103836270D01*
X129457486Y-103836268D01*
X129430079Y-103798545D01*
X129426888Y-103793686D01*
X129403172Y-103753583D01*
X129403165Y-103753574D01*
X129389006Y-103739415D01*
X129376368Y-103724619D01*
X129364594Y-103708413D01*
X129328688Y-103678709D01*
X129324376Y-103674786D01*
X126477748Y-100828157D01*
X126444263Y-100766835D01*
X126445223Y-100710037D01*
X126482815Y-100561589D01*
X126482816Y-100561586D01*
X126502006Y-100330000D01*
X126482816Y-100098414D01*
X126425771Y-99873146D01*
X126332425Y-99660339D01*
X126205325Y-99465799D01*
X126047939Y-99294832D01*
X126047934Y-99294828D01*
X126047932Y-99294826D01*
X125864567Y-99152107D01*
X125864561Y-99152103D01*
X125660188Y-99041501D01*
X125660180Y-99041498D01*
X125440402Y-98966048D01*
X125211190Y-98927800D01*
X124978810Y-98927800D01*
X124749597Y-98966048D01*
X124529819Y-99041498D01*
X124529811Y-99041501D01*
X124325438Y-99152103D01*
X124325432Y-99152107D01*
X124142067Y-99294826D01*
X124142064Y-99294829D01*
X123984676Y-99465797D01*
X123984673Y-99465801D01*
X123857575Y-99660337D01*
X123764229Y-99873145D01*
X123707183Y-100098417D01*
X123687994Y-100329994D01*
X123687994Y-100330005D01*
X123707183Y-100561582D01*
X123764229Y-100786854D01*
X123857575Y-100999662D01*
X123984673Y-101194198D01*
X123984675Y-101194201D01*
X124142061Y-101365168D01*
X124142064Y-101365170D01*
X124142067Y-101365173D01*
X124325432Y-101507892D01*
X124325438Y-101507896D01*
X124325441Y-101507898D01*
X124529812Y-101618499D01*
X124749600Y-101693952D01*
X124978810Y-101732200D01*
X125211190Y-101732200D01*
X125440400Y-101693952D01*
X125466913Y-101684849D01*
X125536710Y-101681698D01*
X125594859Y-101714449D01*
X128243179Y-104362770D01*
X128276664Y-104424093D01*
X128279498Y-104450451D01*
X128279498Y-106275337D01*
X128259813Y-106342376D01*
X128220782Y-106380760D01*
X128206280Y-106389740D01*
X128206274Y-106389744D01*
X128048160Y-106533884D01*
X127919219Y-106704629D01*
X127823849Y-106896158D01*
X127823846Y-106896164D01*
X127765296Y-107101949D01*
X127765295Y-107101952D01*
X127758471Y-107175604D01*
X127732685Y-107240542D01*
X127675884Y-107281229D01*
X127606103Y-107284749D01*
X127545497Y-107249984D01*
X127513307Y-107187971D01*
X127511529Y-107175604D01*
X127504704Y-107101952D01*
X127504703Y-107101949D01*
X127446153Y-106896164D01*
X127446150Y-106896158D01*
X127428121Y-106859950D01*
X127350781Y-106704630D01*
X127221841Y-106533886D01*
X127063722Y-106389742D01*
X127063716Y-106389738D01*
X127063713Y-106389736D01*
X126881813Y-106277108D01*
X126881807Y-106277106D01*
X126877241Y-106275337D01*
X126682297Y-106199815D01*
X126471980Y-106160500D01*
X126258020Y-106160500D01*
X126047703Y-106199815D01*
X125921533Y-106248693D01*
X125848192Y-106277106D01*
X125848186Y-106277108D01*
X125666286Y-106389736D01*
X125666283Y-106389738D01*
X125666279Y-106389740D01*
X125666278Y-106389742D01*
X125666276Y-106389744D01*
X125508158Y-106533887D01*
X125379219Y-106704629D01*
X125283849Y-106896158D01*
X125283846Y-106896164D01*
X125225296Y-107101949D01*
X125225295Y-107101952D01*
X125218471Y-107175604D01*
X125192685Y-107240542D01*
X125135884Y-107281229D01*
X125066103Y-107284749D01*
X125005497Y-107249984D01*
X124973307Y-107187971D01*
X124971529Y-107175604D01*
X124964704Y-107101952D01*
X124964703Y-107101949D01*
X124906153Y-106896164D01*
X124906150Y-106896158D01*
X124888121Y-106859950D01*
X124810781Y-106704630D01*
X124681841Y-106533886D01*
X124523722Y-106389742D01*
X124523716Y-106389738D01*
X124523713Y-106389736D01*
X124341813Y-106277108D01*
X124341807Y-106277106D01*
X124337241Y-106275337D01*
X124142297Y-106199815D01*
X123931980Y-106160500D01*
X123718020Y-106160500D01*
X123507703Y-106199815D01*
X123381533Y-106248693D01*
X123308192Y-106277106D01*
X123308186Y-106277108D01*
X123126286Y-106389736D01*
X123126283Y-106389738D01*
X123126279Y-106389740D01*
X123126278Y-106389742D01*
X123126276Y-106389744D01*
X122968158Y-106533887D01*
X122839219Y-106704629D01*
X122743849Y-106896158D01*
X122743846Y-106896164D01*
X122685296Y-107101949D01*
X122685295Y-107101952D01*
X122678471Y-107175604D01*
X122652685Y-107240542D01*
X122595884Y-107281229D01*
X122526103Y-107284749D01*
X122465497Y-107249984D01*
X122433307Y-107187971D01*
X122431529Y-107175604D01*
X122424704Y-107101952D01*
X122424703Y-107101949D01*
X122366153Y-106896164D01*
X122366150Y-106896158D01*
X122348121Y-106859950D01*
X122270781Y-106704630D01*
X122141841Y-106533886D01*
X121983722Y-106389742D01*
X121983716Y-106389738D01*
X121983713Y-106389736D01*
X121801813Y-106277108D01*
X121801807Y-106277106D01*
X121797241Y-106275337D01*
X121602297Y-106199815D01*
X121391980Y-106160500D01*
X121178020Y-106160500D01*
X120967703Y-106199815D01*
X120841533Y-106248693D01*
X120768192Y-106277106D01*
X120768186Y-106277108D01*
X120586286Y-106389736D01*
X120586283Y-106389738D01*
X120586279Y-106389740D01*
X120586278Y-106389742D01*
X120586276Y-106389744D01*
X120428158Y-106533887D01*
X120299219Y-106704629D01*
X120203849Y-106896158D01*
X120203846Y-106896164D01*
X120145296Y-107101949D01*
X120145295Y-107101952D01*
X120138471Y-107175604D01*
X120112685Y-107240542D01*
X120055884Y-107281229D01*
X119986103Y-107284749D01*
X119925497Y-107249984D01*
X119893307Y-107187971D01*
X119891529Y-107175604D01*
X119884704Y-107101952D01*
X119884703Y-107101949D01*
X119826153Y-106896164D01*
X119826150Y-106896158D01*
X119808121Y-106859950D01*
X119730781Y-106704630D01*
X119601841Y-106533886D01*
X119443722Y-106389742D01*
X119429221Y-106380763D01*
X119382587Y-106328736D01*
X119370500Y-106275337D01*
X119370500Y-96830452D01*
X119390185Y-96763413D01*
X119406819Y-96742771D01*
X120899585Y-95250005D01*
X123688496Y-95250005D01*
X123707678Y-95481499D01*
X123764704Y-95706691D01*
X123858015Y-95919418D01*
X123942584Y-96048861D01*
X124378997Y-95612447D01*
X124440320Y-95578962D01*
X124510011Y-95583946D01*
X124565945Y-95625817D01*
X124571374Y-95633684D01*
X124591973Y-95666142D01*
X124711265Y-95778165D01*
X124714928Y-95780826D01*
X124757594Y-95836155D01*
X124763575Y-95905768D01*
X124730970Y-95967564D01*
X124729725Y-95968826D01*
X124294989Y-96403561D01*
X124294990Y-96403563D01*
X124325712Y-96427475D01*
X124325718Y-96427480D01*
X124530007Y-96538035D01*
X124530017Y-96538040D01*
X124749721Y-96613464D01*
X124978853Y-96651700D01*
X125211147Y-96651700D01*
X125440278Y-96613464D01*
X125659982Y-96538040D01*
X125659987Y-96538038D01*
X125864288Y-96427475D01*
X125895008Y-96403563D01*
X125895008Y-96403562D01*
X125456588Y-95965142D01*
X125423103Y-95903819D01*
X125428087Y-95834127D01*
X125469959Y-95778194D01*
X125471384Y-95777143D01*
X125541903Y-95725908D01*
X125541905Y-95725906D01*
X125542809Y-95724813D01*
X125628237Y-95621548D01*
X125686135Y-95582441D01*
X125755987Y-95580845D01*
X125811461Y-95612908D01*
X126247414Y-96048861D01*
X126331980Y-95919425D01*
X126331985Y-95919417D01*
X126425295Y-95706691D01*
X126482321Y-95481499D01*
X126501504Y-95250005D01*
X126501504Y-95249994D01*
X126482321Y-95018500D01*
X126425295Y-94793308D01*
X126331982Y-94580576D01*
X126247414Y-94451137D01*
X125811001Y-94887551D01*
X125749678Y-94921036D01*
X125679986Y-94916052D01*
X125624053Y-94874180D01*
X125618623Y-94866312D01*
X125606911Y-94847857D01*
X125598028Y-94833859D01*
X125534384Y-94774094D01*
X125478733Y-94721834D01*
X125475067Y-94719170D01*
X125432402Y-94663839D01*
X125426424Y-94594226D01*
X125459031Y-94532431D01*
X125460273Y-94531172D01*
X125895009Y-94096435D01*
X125864286Y-94072523D01*
X125864281Y-94072519D01*
X125659992Y-93961964D01*
X125659982Y-93961959D01*
X125440278Y-93886535D01*
X125211147Y-93848300D01*
X124978853Y-93848300D01*
X124749721Y-93886535D01*
X124530017Y-93961959D01*
X124530007Y-93961964D01*
X124325717Y-94072520D01*
X124325706Y-94072527D01*
X124294990Y-94096434D01*
X124294990Y-94096436D01*
X124733412Y-94534858D01*
X124766897Y-94596181D01*
X124761913Y-94665873D01*
X124720041Y-94721806D01*
X124718616Y-94722857D01*
X124648096Y-94774091D01*
X124648094Y-94774094D01*
X124561763Y-94878451D01*
X124503863Y-94917559D01*
X124434012Y-94919155D01*
X124378538Y-94887092D01*
X123942583Y-94451137D01*
X123858016Y-94580578D01*
X123764704Y-94793308D01*
X123707678Y-95018500D01*
X123688496Y-95249994D01*
X123688496Y-95250005D01*
X120899585Y-95250005D01*
X121952071Y-94197519D01*
X122519590Y-93630000D01*
X136614464Y-93630000D01*
X136634564Y-93846918D01*
X136634564Y-93846920D01*
X136634565Y-93846923D01*
X136681401Y-94011535D01*
X136694184Y-94056462D01*
X136776331Y-94221434D01*
X136791288Y-94251472D01*
X136922573Y-94425322D01*
X137083568Y-94572088D01*
X137083575Y-94572092D01*
X137083576Y-94572093D01*
X137268786Y-94686770D01*
X137268792Y-94686773D01*
X137291664Y-94695633D01*
X137471931Y-94765470D01*
X137686074Y-94805500D01*
X137686076Y-94805500D01*
X137903924Y-94805500D01*
X137903926Y-94805500D01*
X138118069Y-94765470D01*
X138321210Y-94686772D01*
X138506432Y-94572088D01*
X138667427Y-94425322D01*
X138798712Y-94251472D01*
X138895817Y-94056459D01*
X138955435Y-93846923D01*
X138975536Y-93630000D01*
X138955435Y-93413077D01*
X138895817Y-93203541D01*
X138798712Y-93008528D01*
X138667427Y-92834678D01*
X138543423Y-92721634D01*
X138507145Y-92661927D01*
X138508905Y-92592079D01*
X138543423Y-92538365D01*
X138667427Y-92425322D01*
X138798712Y-92251472D01*
X138895817Y-92056459D01*
X138955435Y-91846923D01*
X138975536Y-91630000D01*
X138955435Y-91413077D01*
X138895817Y-91203541D01*
X138798712Y-91008528D01*
X138667427Y-90834678D01*
X138667425Y-90834675D01*
X138543055Y-90721298D01*
X138506773Y-90661587D01*
X138508534Y-90591740D01*
X138543056Y-90538023D01*
X138667054Y-90424985D01*
X138798284Y-90251208D01*
X138895348Y-90056280D01*
X138945505Y-89880000D01*
X138305576Y-89880000D01*
X138238537Y-89860315D01*
X138192782Y-89807511D01*
X138182838Y-89738353D01*
X138183103Y-89736603D01*
X138199986Y-89630003D01*
X138199986Y-89629996D01*
X138183103Y-89523397D01*
X138192058Y-89454104D01*
X138237054Y-89400652D01*
X138303806Y-89380013D01*
X138305576Y-89380000D01*
X138945505Y-89380000D01*
X138945505Y-89379999D01*
X138895348Y-89203719D01*
X138798284Y-89008791D01*
X138716852Y-88900957D01*
X138692160Y-88835595D01*
X138706725Y-88767261D01*
X138741493Y-88726965D01*
X138827546Y-88662546D01*
X138913796Y-88547331D01*
X138964091Y-88412483D01*
X138970500Y-88352873D01*
X138970499Y-86907128D01*
X138964091Y-86847517D01*
X138913796Y-86712669D01*
X138913795Y-86712668D01*
X138913793Y-86712664D01*
X138827547Y-86597455D01*
X138827544Y-86597452D01*
X138712335Y-86511206D01*
X138712328Y-86511202D01*
X138577482Y-86460908D01*
X138577483Y-86460908D01*
X138517883Y-86454501D01*
X138517881Y-86454500D01*
X138517873Y-86454500D01*
X138517864Y-86454500D01*
X137072129Y-86454500D01*
X137072123Y-86454501D01*
X137012516Y-86460908D01*
X136877671Y-86511202D01*
X136877664Y-86511206D01*
X136762455Y-86597452D01*
X136762452Y-86597455D01*
X136676206Y-86712664D01*
X136676202Y-86712671D01*
X136625908Y-86847517D01*
X136619501Y-86907116D01*
X136619501Y-86907123D01*
X136619500Y-86907135D01*
X136619500Y-88352870D01*
X136619501Y-88352876D01*
X136625908Y-88412483D01*
X136676202Y-88547328D01*
X136676206Y-88547335D01*
X136762452Y-88662544D01*
X136762455Y-88662547D01*
X136848504Y-88726964D01*
X136890375Y-88782898D01*
X136895359Y-88852589D01*
X136873148Y-88900956D01*
X136791714Y-89008792D01*
X136694651Y-89203719D01*
X136644494Y-89379999D01*
X136644495Y-89380000D01*
X137284424Y-89380000D01*
X137351463Y-89399685D01*
X137397218Y-89452489D01*
X137407162Y-89521647D01*
X137406897Y-89523397D01*
X137390014Y-89629996D01*
X137390014Y-89630003D01*
X137406897Y-89736603D01*
X137397942Y-89805896D01*
X137352946Y-89859348D01*
X137286194Y-89879987D01*
X137284424Y-89880000D01*
X136644495Y-89880000D01*
X136694651Y-90056280D01*
X136791715Y-90251208D01*
X136922943Y-90424982D01*
X137046944Y-90538023D01*
X137083225Y-90597734D01*
X137081465Y-90667582D01*
X137046944Y-90721298D01*
X136922574Y-90834675D01*
X136791288Y-91008527D01*
X136694184Y-91203537D01*
X136634564Y-91413081D01*
X136614464Y-91629999D01*
X136614464Y-91630000D01*
X136634564Y-91846918D01*
X136694184Y-92056462D01*
X136791288Y-92251472D01*
X136922574Y-92425324D01*
X137046572Y-92538363D01*
X137082854Y-92598074D01*
X137081093Y-92667922D01*
X137046572Y-92721637D01*
X136922574Y-92834675D01*
X136791288Y-93008527D01*
X136694184Y-93203537D01*
X136634564Y-93413081D01*
X136614464Y-93629999D01*
X136614464Y-93630000D01*
X122519590Y-93630000D01*
X124595142Y-91554447D01*
X124656463Y-91520964D01*
X124723083Y-91524848D01*
X124749600Y-91533952D01*
X124978810Y-91572200D01*
X125211190Y-91572200D01*
X125440400Y-91533952D01*
X125660188Y-91458499D01*
X125864559Y-91347898D01*
X126047939Y-91205168D01*
X126205325Y-91034201D01*
X126332425Y-90839661D01*
X126425771Y-90626854D01*
X126482816Y-90401586D01*
X126502006Y-90170000D01*
X126482816Y-89938414D01*
X126425771Y-89713146D01*
X126332425Y-89500339D01*
X126205325Y-89305799D01*
X126047939Y-89134832D01*
X126047934Y-89134828D01*
X126047932Y-89134826D01*
X125864567Y-88992107D01*
X125864561Y-88992103D01*
X125660188Y-88881501D01*
X125660180Y-88881498D01*
X125440402Y-88806048D01*
X125211190Y-88767800D01*
X124978810Y-88767800D01*
X124749597Y-88806048D01*
X124529819Y-88881498D01*
X124529811Y-88881501D01*
X124325438Y-88992103D01*
X124325432Y-88992107D01*
X124142067Y-89134826D01*
X124142064Y-89134829D01*
X123984676Y-89305797D01*
X123984673Y-89305801D01*
X123857575Y-89500337D01*
X123764229Y-89713145D01*
X123707183Y-89938417D01*
X123687994Y-90169994D01*
X123687994Y-90170005D01*
X123707183Y-90401582D01*
X123744776Y-90550035D01*
X123742151Y-90619855D01*
X123712251Y-90668156D01*
X118361208Y-96019199D01*
X118348951Y-96029020D01*
X118349134Y-96029241D01*
X118343123Y-96034213D01*
X118295772Y-96084636D01*
X118274889Y-96105519D01*
X118274877Y-96105532D01*
X118270621Y-96111017D01*
X118266837Y-96115447D01*
X118234937Y-96149418D01*
X118234936Y-96149420D01*
X118225284Y-96166976D01*
X118214610Y-96183226D01*
X118202329Y-96199061D01*
X118202324Y-96199068D01*
X118183815Y-96241838D01*
X118181245Y-96247084D01*
X118158803Y-96287906D01*
X118153822Y-96307307D01*
X118147521Y-96325710D01*
X118139562Y-96344102D01*
X118139561Y-96344105D01*
X118132271Y-96390127D01*
X118131087Y-96395846D01*
X118119501Y-96440972D01*
X118119500Y-96440982D01*
X118119500Y-96461016D01*
X118117973Y-96480415D01*
X118114840Y-96500194D01*
X118114840Y-96500195D01*
X118119225Y-96546583D01*
X118119500Y-96552421D01*
X118119500Y-106275337D01*
X118099815Y-106342376D01*
X118060778Y-106380764D01*
X118046276Y-106389743D01*
X117888160Y-106533884D01*
X117759219Y-106704629D01*
X117663849Y-106896158D01*
X117663846Y-106896164D01*
X117605296Y-107101949D01*
X117605295Y-107101952D01*
X117598471Y-107175604D01*
X117572685Y-107240542D01*
X117515884Y-107281229D01*
X117446103Y-107284749D01*
X117385497Y-107249984D01*
X117353307Y-107187971D01*
X117351529Y-107175604D01*
X117344704Y-107101952D01*
X117344703Y-107101949D01*
X117286153Y-106896164D01*
X117286150Y-106896158D01*
X117268121Y-106859950D01*
X117190781Y-106704630D01*
X117061841Y-106533886D01*
X116903722Y-106389742D01*
X116889221Y-106380763D01*
X116842587Y-106328736D01*
X116830500Y-106275337D01*
X116830500Y-84455005D01*
X123687994Y-84455005D01*
X123707183Y-84686582D01*
X123764229Y-84911854D01*
X123857575Y-85124662D01*
X123984673Y-85319198D01*
X123984675Y-85319201D01*
X124142061Y-85490168D01*
X124142064Y-85490170D01*
X124142067Y-85490173D01*
X124325432Y-85632892D01*
X124325438Y-85632896D01*
X124325441Y-85632898D01*
X124529812Y-85743499D01*
X124749600Y-85818952D01*
X124978810Y-85857200D01*
X125211190Y-85857200D01*
X125440400Y-85818952D01*
X125660188Y-85743499D01*
X125864559Y-85632898D01*
X126047939Y-85490168D01*
X126205325Y-85319201D01*
X126332425Y-85124661D01*
X126425771Y-84911854D01*
X126482816Y-84686586D01*
X126502006Y-84455000D01*
X126482816Y-84223414D01*
X126425771Y-83998146D01*
X126332425Y-83785339D01*
X126205325Y-83590799D01*
X126047939Y-83419832D01*
X126047934Y-83419828D01*
X126047932Y-83419826D01*
X125864567Y-83277107D01*
X125864561Y-83277103D01*
X125660188Y-83166501D01*
X125660180Y-83166498D01*
X125440402Y-83091048D01*
X125211190Y-83052800D01*
X124978810Y-83052800D01*
X124749597Y-83091048D01*
X124529819Y-83166498D01*
X124529811Y-83166501D01*
X124325438Y-83277103D01*
X124325432Y-83277107D01*
X124142067Y-83419826D01*
X124142064Y-83419829D01*
X123984676Y-83590797D01*
X123984673Y-83590801D01*
X123857575Y-83785337D01*
X123764229Y-83998145D01*
X123707183Y-84223417D01*
X123687994Y-84454994D01*
X123687994Y-84455005D01*
X116830500Y-84455005D01*
X116830500Y-83495451D01*
X116850185Y-83428412D01*
X116866819Y-83407770D01*
X120697848Y-79576741D01*
X120899584Y-79375005D01*
X123688496Y-79375005D01*
X123707678Y-79606499D01*
X123764704Y-79831691D01*
X123858015Y-80044418D01*
X123942584Y-80173861D01*
X124378997Y-79737447D01*
X124440320Y-79703962D01*
X124510011Y-79708946D01*
X124565945Y-79750817D01*
X124571374Y-79758684D01*
X124591973Y-79791142D01*
X124711265Y-79903165D01*
X124714928Y-79905826D01*
X124757594Y-79961155D01*
X124763575Y-80030768D01*
X124730970Y-80092564D01*
X124729725Y-80093826D01*
X124294989Y-80528561D01*
X124294990Y-80528563D01*
X124325712Y-80552475D01*
X124325718Y-80552480D01*
X124530007Y-80663035D01*
X124530017Y-80663040D01*
X124749721Y-80738464D01*
X124978853Y-80776700D01*
X125211147Y-80776700D01*
X125440278Y-80738464D01*
X125659982Y-80663040D01*
X125659987Y-80663038D01*
X125864288Y-80552475D01*
X125895008Y-80528563D01*
X125895008Y-80528562D01*
X125456588Y-80090142D01*
X125423103Y-80028819D01*
X125428087Y-79959127D01*
X125469959Y-79903194D01*
X125471384Y-79902143D01*
X125541903Y-79850908D01*
X125541905Y-79850906D01*
X125542809Y-79849813D01*
X125628237Y-79746548D01*
X125686135Y-79707441D01*
X125755987Y-79705845D01*
X125811461Y-79737908D01*
X126247414Y-80173861D01*
X126331980Y-80044425D01*
X126331985Y-80044417D01*
X126425295Y-79831691D01*
X126482321Y-79606499D01*
X126501504Y-79375005D01*
X126501504Y-79374994D01*
X126482321Y-79143500D01*
X126425295Y-78918308D01*
X126331982Y-78705576D01*
X126247414Y-78576137D01*
X125811001Y-79012551D01*
X125749678Y-79046036D01*
X125679986Y-79041052D01*
X125624053Y-78999180D01*
X125618623Y-78991312D01*
X125606911Y-78972857D01*
X125598028Y-78958859D01*
X125534384Y-78899094D01*
X125478733Y-78846834D01*
X125475067Y-78844170D01*
X125432402Y-78788839D01*
X125426424Y-78719226D01*
X125459031Y-78657431D01*
X125460273Y-78656172D01*
X125895009Y-78221435D01*
X125864286Y-78197523D01*
X125864281Y-78197519D01*
X125659992Y-78086964D01*
X125659982Y-78086959D01*
X125440278Y-78011535D01*
X125211147Y-77973300D01*
X124978853Y-77973300D01*
X124749721Y-78011535D01*
X124530017Y-78086959D01*
X124530007Y-78086964D01*
X124325717Y-78197520D01*
X124325706Y-78197527D01*
X124294990Y-78221434D01*
X124294990Y-78221436D01*
X124733412Y-78659858D01*
X124766897Y-78721181D01*
X124761913Y-78790873D01*
X124720041Y-78846806D01*
X124718616Y-78847857D01*
X124648096Y-78899091D01*
X124648094Y-78899094D01*
X124561763Y-79003451D01*
X124503863Y-79042559D01*
X124434012Y-79044155D01*
X124378538Y-79012092D01*
X123942583Y-78576137D01*
X123858016Y-78705578D01*
X123764704Y-78918308D01*
X123707678Y-79143500D01*
X123688496Y-79374994D01*
X123688496Y-79375005D01*
X120899584Y-79375005D01*
X124595141Y-75679447D01*
X124656462Y-75645964D01*
X124723084Y-75649849D01*
X124749599Y-75658952D01*
X124978810Y-75697200D01*
X125211190Y-75697200D01*
X125440400Y-75658952D01*
X125660188Y-75583499D01*
X125864559Y-75472898D01*
X126047939Y-75330168D01*
X126205325Y-75159201D01*
X126332425Y-74964661D01*
X126425771Y-74751854D01*
X126482816Y-74526586D01*
X126502006Y-74295000D01*
X126482816Y-74063414D01*
X126425771Y-73838146D01*
X126332425Y-73625339D01*
X126205325Y-73430799D01*
X126047939Y-73259832D01*
X126047934Y-73259828D01*
X126047932Y-73259826D01*
X125864567Y-73117107D01*
X125864561Y-73117103D01*
X125660188Y-73006501D01*
X125660180Y-73006498D01*
X125440402Y-72931048D01*
X125211190Y-72892800D01*
X124978810Y-72892800D01*
X124749597Y-72931048D01*
X124529819Y-73006498D01*
X124529811Y-73006501D01*
X124325438Y-73117103D01*
X124325432Y-73117107D01*
X124142067Y-73259826D01*
X124142064Y-73259829D01*
X123984676Y-73430797D01*
X123984673Y-73430801D01*
X123857575Y-73625337D01*
X123764229Y-73838145D01*
X123707183Y-74063417D01*
X123687994Y-74294994D01*
X123687994Y-74295005D01*
X123707183Y-74526582D01*
X123744776Y-74675036D01*
X123742150Y-74744857D01*
X123712251Y-74793157D01*
X115821208Y-82684199D01*
X115808951Y-82694020D01*
X115809134Y-82694241D01*
X115803123Y-82699213D01*
X115755772Y-82749636D01*
X115734889Y-82770519D01*
X115734877Y-82770532D01*
X115730621Y-82776017D01*
X115726837Y-82780447D01*
X115694937Y-82814418D01*
X115694936Y-82814420D01*
X115685284Y-82831976D01*
X115674610Y-82848226D01*
X115662329Y-82864061D01*
X115662324Y-82864068D01*
X115643815Y-82906838D01*
X115641245Y-82912084D01*
X115618803Y-82952906D01*
X115613822Y-82972307D01*
X115607521Y-82990710D01*
X115599562Y-83009102D01*
X115599561Y-83009105D01*
X115592271Y-83055127D01*
X115591087Y-83060846D01*
X115579501Y-83105972D01*
X115579500Y-83105982D01*
X115579500Y-83126016D01*
X115577973Y-83145413D01*
X115574840Y-83165196D01*
X115578831Y-83207415D01*
X115579225Y-83211583D01*
X115579500Y-83217421D01*
X115579500Y-106275337D01*
X115559815Y-106342376D01*
X115520778Y-106380764D01*
X115506276Y-106389743D01*
X115348160Y-106533884D01*
X115219219Y-106704629D01*
X115123849Y-106896158D01*
X115123846Y-106896164D01*
X115065296Y-107101949D01*
X115065295Y-107101952D01*
X115058471Y-107175604D01*
X115032685Y-107240542D01*
X114975884Y-107281229D01*
X114906103Y-107284749D01*
X114845497Y-107249984D01*
X114813307Y-107187971D01*
X114811529Y-107175604D01*
X114804704Y-107101952D01*
X114804703Y-107101949D01*
X114746153Y-106896164D01*
X114746150Y-106896158D01*
X114728121Y-106859950D01*
X114650781Y-106704630D01*
X114521841Y-106533886D01*
X114363722Y-106389742D01*
X114363716Y-106389738D01*
X114363713Y-106389736D01*
X114181813Y-106277108D01*
X114181807Y-106277106D01*
X114177241Y-106275337D01*
X113982297Y-106199815D01*
X113771980Y-106160500D01*
X113558020Y-106160500D01*
X113526967Y-106166304D01*
X113484997Y-106174150D01*
X113415482Y-106167118D01*
X113374532Y-106139942D01*
X111151819Y-103917228D01*
X111118334Y-103855905D01*
X111115500Y-103829547D01*
X111115500Y-68580005D01*
X123687994Y-68580005D01*
X123707183Y-68811582D01*
X123764229Y-69036854D01*
X123857575Y-69249662D01*
X123956302Y-69400773D01*
X123984675Y-69444201D01*
X124142061Y-69615168D01*
X124142064Y-69615170D01*
X124142067Y-69615173D01*
X124325432Y-69757892D01*
X124325438Y-69757896D01*
X124325441Y-69757898D01*
X124529812Y-69868499D01*
X124749600Y-69943952D01*
X124978810Y-69982200D01*
X125211190Y-69982200D01*
X125440400Y-69943952D01*
X125660188Y-69868499D01*
X125864559Y-69757898D01*
X126047939Y-69615168D01*
X126205325Y-69444201D01*
X126332425Y-69249661D01*
X126425771Y-69036854D01*
X126482816Y-68811586D01*
X126502006Y-68580000D01*
X126482816Y-68348414D01*
X126425771Y-68123146D01*
X126332425Y-67910339D01*
X126205325Y-67715799D01*
X126047939Y-67544832D01*
X126047934Y-67544828D01*
X126047932Y-67544826D01*
X125864567Y-67402107D01*
X125864561Y-67402103D01*
X125660188Y-67291501D01*
X125660180Y-67291498D01*
X125440402Y-67216048D01*
X125211190Y-67177800D01*
X124978810Y-67177800D01*
X124749597Y-67216048D01*
X124529819Y-67291498D01*
X124529811Y-67291501D01*
X124325438Y-67402103D01*
X124325432Y-67402107D01*
X124142067Y-67544826D01*
X124142064Y-67544829D01*
X123984676Y-67715797D01*
X123984673Y-67715801D01*
X123857575Y-67910337D01*
X123764229Y-68123145D01*
X123707183Y-68348417D01*
X123687994Y-68579994D01*
X123687994Y-68580005D01*
X111115500Y-68580005D01*
X111115500Y-66985452D01*
X111135185Y-66918413D01*
X111151819Y-66897771D01*
X114549585Y-63500005D01*
X123688496Y-63500005D01*
X123707678Y-63731499D01*
X123764704Y-63956691D01*
X123858015Y-64169418D01*
X123942584Y-64298861D01*
X124378997Y-63862447D01*
X124440320Y-63828962D01*
X124510011Y-63833946D01*
X124565945Y-63875817D01*
X124571374Y-63883684D01*
X124586137Y-63906947D01*
X124591973Y-63916142D01*
X124711265Y-64028165D01*
X124714928Y-64030826D01*
X124757594Y-64086155D01*
X124763575Y-64155768D01*
X124730970Y-64217564D01*
X124729725Y-64218826D01*
X124294989Y-64653561D01*
X124294990Y-64653563D01*
X124325712Y-64677475D01*
X124325718Y-64677480D01*
X124530007Y-64788035D01*
X124530017Y-64788040D01*
X124749721Y-64863464D01*
X124978853Y-64901700D01*
X125211147Y-64901700D01*
X125440278Y-64863464D01*
X125659982Y-64788040D01*
X125659987Y-64788038D01*
X125864288Y-64677475D01*
X125895008Y-64653563D01*
X125895008Y-64653562D01*
X125456588Y-64215142D01*
X125423103Y-64153819D01*
X125428087Y-64084127D01*
X125469959Y-64028194D01*
X125471384Y-64027143D01*
X125541903Y-63975908D01*
X125541905Y-63975906D01*
X125550201Y-63965878D01*
X125628237Y-63871548D01*
X125686135Y-63832441D01*
X125755987Y-63830845D01*
X125811461Y-63862908D01*
X126247414Y-64298861D01*
X126331980Y-64169425D01*
X126331985Y-64169417D01*
X126425295Y-63956691D01*
X126482321Y-63731499D01*
X126501504Y-63500005D01*
X126501504Y-63499994D01*
X126482321Y-63268500D01*
X126425295Y-63043308D01*
X126331982Y-62830576D01*
X126247414Y-62701137D01*
X125811001Y-63137551D01*
X125749678Y-63171036D01*
X125679986Y-63166052D01*
X125624053Y-63124180D01*
X125618623Y-63116312D01*
X125618545Y-63116189D01*
X125598028Y-63083859D01*
X125553173Y-63041738D01*
X125478733Y-62971834D01*
X125475067Y-62969170D01*
X125432402Y-62913839D01*
X125426424Y-62844226D01*
X125459031Y-62782431D01*
X125460273Y-62781172D01*
X125895009Y-62346435D01*
X125864286Y-62322523D01*
X125864281Y-62322519D01*
X125659992Y-62211964D01*
X125659982Y-62211959D01*
X125440278Y-62136535D01*
X125211147Y-62098300D01*
X124978853Y-62098300D01*
X124749721Y-62136535D01*
X124530017Y-62211959D01*
X124530007Y-62211964D01*
X124325717Y-62322520D01*
X124325706Y-62322527D01*
X124294990Y-62346434D01*
X124294990Y-62346436D01*
X124733412Y-62784858D01*
X124766897Y-62846181D01*
X124761913Y-62915873D01*
X124720041Y-62971806D01*
X124718616Y-62972857D01*
X124648096Y-63024091D01*
X124648094Y-63024094D01*
X124561763Y-63128451D01*
X124503863Y-63167559D01*
X124434012Y-63169155D01*
X124378538Y-63137092D01*
X123942583Y-62701137D01*
X123858016Y-62830578D01*
X123764704Y-63043308D01*
X123707678Y-63268500D01*
X123688496Y-63499994D01*
X123688496Y-63500005D01*
X114549585Y-63500005D01*
X116454590Y-61595000D01*
X149949696Y-61595000D01*
X149968898Y-61961405D01*
X149985624Y-62067008D01*
X150026295Y-62323794D01*
X150065855Y-62471435D01*
X150121260Y-62678206D01*
X150252746Y-63020739D01*
X150419320Y-63347656D01*
X150619147Y-63655364D01*
X150711907Y-63769913D01*
X150850051Y-63940506D01*
X151109494Y-64199949D01*
X151248694Y-64312671D01*
X151394635Y-64430852D01*
X151702343Y-64630679D01*
X151702348Y-64630682D01*
X152029264Y-64797255D01*
X152301354Y-64901700D01*
X152337137Y-64915436D01*
X152371801Y-64928742D01*
X152726206Y-65023705D01*
X153088596Y-65081102D01*
X153434734Y-65099241D01*
X153454999Y-65100304D01*
X153455000Y-65100304D01*
X153455001Y-65100304D01*
X153474203Y-65099297D01*
X153821404Y-65081102D01*
X154183794Y-65023705D01*
X154538199Y-64928742D01*
X154880736Y-64797255D01*
X155207652Y-64630682D01*
X155515366Y-64430851D01*
X155800506Y-64199949D01*
X156059949Y-63940506D01*
X156290851Y-63655366D01*
X156490682Y-63347652D01*
X156657255Y-63020736D01*
X156788742Y-62678199D01*
X156883705Y-62323794D01*
X156908527Y-62167073D01*
X156938456Y-62103939D01*
X156997768Y-62067008D01*
X157067630Y-62068006D01*
X157125863Y-62106616D01*
X157153977Y-62170579D01*
X157155000Y-62186472D01*
X157155000Y-63166434D01*
X157170300Y-63380362D01*
X157231109Y-63659895D01*
X157331091Y-63927958D01*
X157468191Y-64179038D01*
X157468192Y-64179039D01*
X157639639Y-64408065D01*
X157639649Y-64408077D01*
X157841922Y-64610350D01*
X157841934Y-64610360D01*
X158070960Y-64781807D01*
X158070961Y-64781808D01*
X158322042Y-64918908D01*
X158322041Y-64918908D01*
X158590104Y-65018890D01*
X158869637Y-65079699D01*
X159083566Y-65095000D01*
X160405000Y-65095000D01*
X160405000Y-63969000D01*
X160424685Y-63901961D01*
X160477489Y-63856206D01*
X160529000Y-63845000D01*
X160730221Y-63845000D01*
X160730228Y-63845000D01*
X160772719Y-63842155D01*
X160840922Y-63857317D01*
X160890102Y-63906947D01*
X160905000Y-63965878D01*
X160905000Y-65095000D01*
X162226434Y-65095000D01*
X162440362Y-65079699D01*
X162719895Y-65018890D01*
X162987958Y-64918908D01*
X163239038Y-64781808D01*
X163239039Y-64781807D01*
X163468065Y-64610360D01*
X163468077Y-64610350D01*
X163670350Y-64408077D01*
X163670360Y-64408065D01*
X163841807Y-64179039D01*
X163841808Y-64179038D01*
X163978908Y-63927958D01*
X164078890Y-63659895D01*
X164139699Y-63380362D01*
X164155000Y-63166434D01*
X164155000Y-61845000D01*
X163026114Y-61845000D01*
X162959075Y-61825315D01*
X162913320Y-61772511D01*
X162902183Y-61716859D01*
X162906258Y-61595000D01*
X168023811Y-61595000D01*
X168042538Y-61832963D01*
X168098261Y-62065068D01*
X168189608Y-62285600D01*
X168189610Y-62285604D01*
X168189611Y-62285605D01*
X168314332Y-62489132D01*
X168469357Y-62670643D01*
X168650868Y-62825668D01*
X168854395Y-62950389D01*
X168854397Y-62950389D01*
X168854399Y-62950391D01*
X168866917Y-62955576D01*
X169074927Y-63041737D01*
X169307034Y-63097461D01*
X169545000Y-63116189D01*
X169782966Y-63097461D01*
X170015073Y-63041737D01*
X170235605Y-62950389D01*
X170439132Y-62825668D01*
X170620643Y-62670643D01*
X170775668Y-62489132D01*
X170900389Y-62285605D01*
X170991737Y-62065073D01*
X171047461Y-61832966D01*
X171066189Y-61595000D01*
X171047461Y-61357034D01*
X170991737Y-61124927D01*
X170900389Y-60904395D01*
X170775668Y-60700868D01*
X170620643Y-60519357D01*
X170439132Y-60364332D01*
X170235605Y-60239611D01*
X170235604Y-60239610D01*
X170235600Y-60239608D01*
X170015068Y-60148261D01*
X169782962Y-60092538D01*
X169782963Y-60092538D01*
X169545000Y-60073811D01*
X169307036Y-60092538D01*
X169074931Y-60148261D01*
X168854399Y-60239608D01*
X168650867Y-60364332D01*
X168469357Y-60519357D01*
X168314332Y-60700867D01*
X168189608Y-60904399D01*
X168098261Y-61124931D01*
X168042538Y-61357036D01*
X168023811Y-61595000D01*
X162906258Y-61595000D01*
X162908777Y-61519648D01*
X162904930Y-61481411D01*
X162917805Y-61412740D01*
X162965763Y-61361929D01*
X163028307Y-61345000D01*
X164155000Y-61345000D01*
X164155000Y-60023566D01*
X164139699Y-59809637D01*
X164078890Y-59530104D01*
X163978908Y-59262041D01*
X163841808Y-59010961D01*
X163841807Y-59010960D01*
X163670360Y-58781934D01*
X163670350Y-58781922D01*
X163468077Y-58579649D01*
X163468065Y-58579639D01*
X163239039Y-58408192D01*
X163239038Y-58408191D01*
X162987957Y-58271091D01*
X162987958Y-58271091D01*
X162719895Y-58171109D01*
X162440362Y-58110300D01*
X162226434Y-58095000D01*
X160905000Y-58095000D01*
X160905000Y-59221000D01*
X160885315Y-59288039D01*
X160832511Y-59333794D01*
X160781000Y-59345000D01*
X160579764Y-59345000D01*
X160537280Y-59347843D01*
X160469076Y-59332679D01*
X160419897Y-59283048D01*
X160405000Y-59224120D01*
X160405000Y-58095000D01*
X159083566Y-58095000D01*
X158869637Y-58110300D01*
X158590104Y-58171109D01*
X158322041Y-58271091D01*
X158070961Y-58408191D01*
X158070960Y-58408192D01*
X157841934Y-58579639D01*
X157841922Y-58579649D01*
X157639649Y-58781922D01*
X157639639Y-58781934D01*
X157468192Y-59010960D01*
X157468191Y-59010961D01*
X157331091Y-59262041D01*
X157231109Y-59530104D01*
X157170300Y-59809637D01*
X157155000Y-60023566D01*
X157155000Y-61003527D01*
X157135315Y-61070566D01*
X157082511Y-61116321D01*
X157013353Y-61126265D01*
X156949797Y-61097240D01*
X156912023Y-61038462D01*
X156908527Y-61022925D01*
X156889754Y-60904399D01*
X156883705Y-60866206D01*
X156788742Y-60511801D01*
X156657255Y-60169264D01*
X156490682Y-59842348D01*
X156484937Y-59833501D01*
X156290852Y-59534635D01*
X156149504Y-59360085D01*
X156059949Y-59249494D01*
X155800506Y-58990051D01*
X155768010Y-58963736D01*
X155515364Y-58759147D01*
X155207656Y-58559320D01*
X154880739Y-58392746D01*
X154538206Y-58261260D01*
X154538199Y-58261258D01*
X154183794Y-58166295D01*
X154183790Y-58166294D01*
X154183789Y-58166294D01*
X153821405Y-58108898D01*
X153455001Y-58089696D01*
X153454999Y-58089696D01*
X153088594Y-58108898D01*
X152726211Y-58166294D01*
X152726209Y-58166294D01*
X152371793Y-58261260D01*
X152029260Y-58392746D01*
X151702343Y-58559320D01*
X151394635Y-58759147D01*
X151109498Y-58990047D01*
X151109490Y-58990054D01*
X150850054Y-59249490D01*
X150850047Y-59249498D01*
X150619147Y-59534635D01*
X150419320Y-59842343D01*
X150252746Y-60169260D01*
X150121260Y-60511793D01*
X150026294Y-60866209D01*
X150026294Y-60866211D01*
X149968898Y-61228594D01*
X149949696Y-61594999D01*
X149949696Y-61595000D01*
X116454590Y-61595000D01*
X118967772Y-59081819D01*
X119029095Y-59048334D01*
X119055453Y-59045500D01*
X123761618Y-59045500D01*
X123828657Y-59065185D01*
X123865426Y-59101678D01*
X123945422Y-59224120D01*
X123984675Y-59284201D01*
X124142061Y-59455168D01*
X124142064Y-59455170D01*
X124142067Y-59455173D01*
X124325432Y-59597892D01*
X124325438Y-59597896D01*
X124325441Y-59597898D01*
X124529812Y-59708499D01*
X124749600Y-59783952D01*
X124978810Y-59822200D01*
X125211190Y-59822200D01*
X125440400Y-59783952D01*
X125660188Y-59708499D01*
X125864559Y-59597898D01*
X126047939Y-59455168D01*
X126205325Y-59284201D01*
X126332425Y-59089661D01*
X126425771Y-58876854D01*
X126482816Y-58651586D01*
X126502006Y-58420000D01*
X126501027Y-58408191D01*
X126482816Y-58188417D01*
X126482816Y-58188414D01*
X126425771Y-57963146D01*
X126332425Y-57750339D01*
X126205325Y-57555799D01*
X126047939Y-57384832D01*
X126047934Y-57384828D01*
X126047932Y-57384826D01*
X125864567Y-57242107D01*
X125864561Y-57242103D01*
X125660188Y-57131501D01*
X125660180Y-57131498D01*
X125440402Y-57056048D01*
X125211190Y-57017800D01*
X124978810Y-57017800D01*
X124749597Y-57056048D01*
X124529819Y-57131498D01*
X124529811Y-57131501D01*
X124325438Y-57242103D01*
X124325432Y-57242107D01*
X124142067Y-57384826D01*
X124142064Y-57384829D01*
X123984676Y-57555797D01*
X123984673Y-57555801D01*
X123865426Y-57738322D01*
X123812280Y-57783679D01*
X123761618Y-57794500D01*
X118827743Y-57794500D01*
X118812122Y-57792775D01*
X118812096Y-57793061D01*
X118804334Y-57792327D01*
X118804333Y-57792327D01*
X118735186Y-57794500D01*
X118705649Y-57794500D01*
X118698766Y-57795369D01*
X118692949Y-57795826D01*
X118646373Y-57797290D01*
X118627129Y-57802881D01*
X118608079Y-57806825D01*
X118588211Y-57809334D01*
X118544884Y-57826488D01*
X118539358Y-57828379D01*
X118494614Y-57841379D01*
X118494610Y-57841381D01*
X118477366Y-57851579D01*
X118459905Y-57860133D01*
X118441274Y-57867510D01*
X118441262Y-57867517D01*
X118403570Y-57894902D01*
X118398687Y-57898109D01*
X118358580Y-57921829D01*
X118344414Y-57935995D01*
X118329624Y-57948627D01*
X118313414Y-57960404D01*
X118313411Y-57960407D01*
X118283710Y-57996309D01*
X118279777Y-58000631D01*
X110106208Y-66174199D01*
X110093951Y-66184020D01*
X110094134Y-66184241D01*
X110088123Y-66189213D01*
X110040772Y-66239636D01*
X110019889Y-66260519D01*
X110019877Y-66260532D01*
X110015621Y-66266017D01*
X110011837Y-66270447D01*
X109979937Y-66304418D01*
X109979936Y-66304420D01*
X109970284Y-66321976D01*
X109959610Y-66338226D01*
X109947329Y-66354061D01*
X109947324Y-66354068D01*
X109928815Y-66396838D01*
X109926245Y-66402084D01*
X109903803Y-66442906D01*
X109898822Y-66462307D01*
X109892521Y-66480710D01*
X109884562Y-66499102D01*
X109884561Y-66499105D01*
X109877271Y-66545127D01*
X109876087Y-66550846D01*
X109864501Y-66595972D01*
X109864500Y-66595982D01*
X109864500Y-66616016D01*
X109862973Y-66635415D01*
X109859840Y-66655194D01*
X109859840Y-66655195D01*
X109864225Y-66701583D01*
X109864500Y-66707421D01*
X109864500Y-67706787D01*
X109844815Y-67773826D01*
X109792011Y-67819581D01*
X109722853Y-67829525D01*
X109659297Y-67800500D01*
X109649270Y-67790770D01*
X109580256Y-67715801D01*
X109537939Y-67669832D01*
X109537938Y-67669831D01*
X109537936Y-67669829D01*
X109537932Y-67669826D01*
X109354567Y-67527107D01*
X109354561Y-67527103D01*
X109150188Y-67416501D01*
X109150180Y-67416498D01*
X108930402Y-67341048D01*
X108701190Y-67302800D01*
X108468810Y-67302800D01*
X108239597Y-67341048D01*
X108019819Y-67416498D01*
X108019811Y-67416501D01*
X107815438Y-67527103D01*
X107815432Y-67527107D01*
X107632067Y-67669826D01*
X107632064Y-67669829D01*
X107474676Y-67840797D01*
X107474673Y-67840801D01*
X107347575Y-68035337D01*
X107254229Y-68248145D01*
X107197183Y-68473417D01*
X107177994Y-68704994D01*
X107177994Y-68705005D01*
X107197183Y-68936582D01*
X107254229Y-69161854D01*
X107347575Y-69374662D01*
X107460995Y-69548262D01*
X107474675Y-69569201D01*
X107632061Y-69740168D01*
X107632064Y-69740170D01*
X107632067Y-69740173D01*
X107815432Y-69882892D01*
X107815438Y-69882896D01*
X107815441Y-69882898D01*
X108019812Y-69993499D01*
X108239600Y-70068952D01*
X108468810Y-70107200D01*
X108701190Y-70107200D01*
X108930400Y-70068952D01*
X109150188Y-69993499D01*
X109354559Y-69882898D01*
X109373057Y-69868501D01*
X109416138Y-69834969D01*
X109537939Y-69740168D01*
X109649272Y-69619227D01*
X109709157Y-69583239D01*
X109778995Y-69585339D01*
X109836611Y-69624863D01*
X109863713Y-69689262D01*
X109864500Y-69703212D01*
X109864500Y-73421787D01*
X109844815Y-73488826D01*
X109792011Y-73534581D01*
X109722853Y-73544525D01*
X109659297Y-73515500D01*
X109649270Y-73505770D01*
X109580256Y-73430801D01*
X109537939Y-73384832D01*
X109537938Y-73384831D01*
X109537936Y-73384829D01*
X109537932Y-73384826D01*
X109354567Y-73242107D01*
X109354561Y-73242103D01*
X109150188Y-73131501D01*
X109150180Y-73131498D01*
X108930402Y-73056048D01*
X108701190Y-73017800D01*
X108468810Y-73017800D01*
X108239597Y-73056048D01*
X108019819Y-73131498D01*
X108019811Y-73131501D01*
X107815438Y-73242103D01*
X107815432Y-73242107D01*
X107632067Y-73384826D01*
X107632064Y-73384829D01*
X107474676Y-73555797D01*
X107474673Y-73555801D01*
X107347575Y-73750337D01*
X107254229Y-73963145D01*
X107197183Y-74188417D01*
X107177994Y-74419994D01*
X107177994Y-74420005D01*
X107197183Y-74651582D01*
X107254229Y-74876854D01*
X107347575Y-75089662D01*
X107474673Y-75284198D01*
X107474675Y-75284201D01*
X107632061Y-75455168D01*
X107632064Y-75455170D01*
X107632067Y-75455173D01*
X107815432Y-75597892D01*
X107815438Y-75597896D01*
X107815441Y-75597898D01*
X108019812Y-75708499D01*
X108239600Y-75783952D01*
X108468810Y-75822200D01*
X108701190Y-75822200D01*
X108930400Y-75783952D01*
X109150188Y-75708499D01*
X109354559Y-75597898D01*
X109373057Y-75583501D01*
X109515167Y-75472892D01*
X109537939Y-75455168D01*
X109649272Y-75334227D01*
X109709157Y-75298239D01*
X109778995Y-75300339D01*
X109836611Y-75339863D01*
X109863713Y-75404262D01*
X109864500Y-75418212D01*
X109864500Y-78576792D01*
X109844815Y-78643831D01*
X109792011Y-78689586D01*
X109740522Y-78698029D01*
X109301001Y-79137551D01*
X109239678Y-79171036D01*
X109169986Y-79166052D01*
X109114053Y-79124180D01*
X109108623Y-79116312D01*
X109096387Y-79097031D01*
X109088028Y-79083859D01*
X109047750Y-79046036D01*
X108968733Y-78971834D01*
X108965067Y-78969170D01*
X108922402Y-78913839D01*
X108916424Y-78844226D01*
X108949031Y-78782431D01*
X108950273Y-78781172D01*
X109385009Y-78346435D01*
X109354286Y-78322523D01*
X109354281Y-78322519D01*
X109149992Y-78211964D01*
X109149982Y-78211959D01*
X108930278Y-78136535D01*
X108701147Y-78098300D01*
X108468853Y-78098300D01*
X108239721Y-78136535D01*
X108020017Y-78211959D01*
X108020007Y-78211964D01*
X107815717Y-78322520D01*
X107815706Y-78322527D01*
X107784990Y-78346434D01*
X107784990Y-78346436D01*
X108223412Y-78784858D01*
X108256897Y-78846181D01*
X108251913Y-78915873D01*
X108210041Y-78971806D01*
X108208616Y-78972857D01*
X108138096Y-79024091D01*
X108138094Y-79024094D01*
X108051763Y-79128451D01*
X107993863Y-79167559D01*
X107924012Y-79169155D01*
X107868538Y-79137092D01*
X107432583Y-78701137D01*
X107348016Y-78830578D01*
X107254704Y-79043308D01*
X107197678Y-79268500D01*
X107178496Y-79499994D01*
X107178496Y-79500005D01*
X107197678Y-79731499D01*
X107254704Y-79956691D01*
X107348015Y-80169418D01*
X107432584Y-80298861D01*
X107868997Y-79862447D01*
X107930320Y-79828962D01*
X108000011Y-79833946D01*
X108055945Y-79875817D01*
X108061374Y-79883684D01*
X108081973Y-79916142D01*
X108201265Y-80028165D01*
X108204928Y-80030826D01*
X108247594Y-80086155D01*
X108253575Y-80155768D01*
X108220970Y-80217564D01*
X108219725Y-80218826D01*
X107784989Y-80653561D01*
X107784990Y-80653563D01*
X107815712Y-80677475D01*
X107815718Y-80677480D01*
X108020007Y-80788035D01*
X108020017Y-80788040D01*
X108239721Y-80863464D01*
X108468853Y-80901700D01*
X108701147Y-80901700D01*
X108930278Y-80863464D01*
X109149982Y-80788040D01*
X109149987Y-80788038D01*
X109354288Y-80677475D01*
X109385008Y-80653563D01*
X109385008Y-80653562D01*
X108946588Y-80215142D01*
X108913103Y-80153819D01*
X108918087Y-80084127D01*
X108959959Y-80028194D01*
X108961384Y-80027143D01*
X109031903Y-79975908D01*
X109031905Y-79975906D01*
X109092927Y-79902143D01*
X109118237Y-79871548D01*
X109176135Y-79832441D01*
X109245987Y-79830845D01*
X109301461Y-79862908D01*
X109740841Y-80302288D01*
X109796420Y-80312531D01*
X109847379Y-80360333D01*
X109864500Y-80423206D01*
X109864500Y-83581787D01*
X109844815Y-83648826D01*
X109792011Y-83694581D01*
X109722853Y-83704525D01*
X109659297Y-83675500D01*
X109649270Y-83665770D01*
X109580256Y-83590801D01*
X109537939Y-83544832D01*
X109537938Y-83544831D01*
X109537936Y-83544829D01*
X109537932Y-83544826D01*
X109354567Y-83402107D01*
X109354561Y-83402103D01*
X109150188Y-83291501D01*
X109150180Y-83291498D01*
X108930402Y-83216048D01*
X108701190Y-83177800D01*
X108468810Y-83177800D01*
X108239597Y-83216048D01*
X108019819Y-83291498D01*
X108019811Y-83291501D01*
X107815438Y-83402103D01*
X107815432Y-83402107D01*
X107632067Y-83544826D01*
X107632064Y-83544829D01*
X107474676Y-83715797D01*
X107474673Y-83715801D01*
X107347575Y-83910337D01*
X107254229Y-84123145D01*
X107197183Y-84348417D01*
X107177994Y-84579994D01*
X107177994Y-84580005D01*
X107197183Y-84811582D01*
X107254229Y-85036854D01*
X107347575Y-85249662D01*
X107474673Y-85444198D01*
X107474675Y-85444201D01*
X107632061Y-85615168D01*
X107632064Y-85615170D01*
X107632067Y-85615173D01*
X107815432Y-85757892D01*
X107815438Y-85757896D01*
X107815441Y-85757898D01*
X108019812Y-85868499D01*
X108239600Y-85943952D01*
X108468810Y-85982200D01*
X108701190Y-85982200D01*
X108930400Y-85943952D01*
X109150188Y-85868499D01*
X109354559Y-85757898D01*
X109373057Y-85743501D01*
X109515167Y-85632892D01*
X109537939Y-85615168D01*
X109649272Y-85494227D01*
X109709157Y-85458239D01*
X109778995Y-85460339D01*
X109836611Y-85499863D01*
X109863713Y-85564262D01*
X109864500Y-85578212D01*
X109864500Y-89296787D01*
X109844815Y-89363826D01*
X109792011Y-89409581D01*
X109722853Y-89419525D01*
X109659297Y-89390500D01*
X109649270Y-89380770D01*
X109580256Y-89305801D01*
X109537939Y-89259832D01*
X109537938Y-89259831D01*
X109537936Y-89259829D01*
X109537932Y-89259826D01*
X109354567Y-89117107D01*
X109354561Y-89117103D01*
X109150188Y-89006501D01*
X109150180Y-89006498D01*
X108930402Y-88931048D01*
X108701190Y-88892800D01*
X108468810Y-88892800D01*
X108239597Y-88931048D01*
X108019819Y-89006498D01*
X108019811Y-89006501D01*
X107815438Y-89117103D01*
X107815432Y-89117107D01*
X107632067Y-89259826D01*
X107632064Y-89259829D01*
X107474676Y-89430797D01*
X107474673Y-89430801D01*
X107347575Y-89625337D01*
X107254229Y-89838145D01*
X107197183Y-90063417D01*
X107177994Y-90294994D01*
X107177994Y-90295005D01*
X107197183Y-90526582D01*
X107254229Y-90751854D01*
X107347575Y-90964662D01*
X107474673Y-91159198D01*
X107474675Y-91159201D01*
X107632061Y-91330168D01*
X107632064Y-91330170D01*
X107632067Y-91330173D01*
X107815432Y-91472892D01*
X107815438Y-91472896D01*
X107815441Y-91472898D01*
X108019812Y-91583499D01*
X108239600Y-91658952D01*
X108468810Y-91697200D01*
X108701190Y-91697200D01*
X108930400Y-91658952D01*
X109150188Y-91583499D01*
X109354559Y-91472898D01*
X109373057Y-91458501D01*
X109515167Y-91347892D01*
X109537939Y-91330168D01*
X109649272Y-91209227D01*
X109709157Y-91173239D01*
X109778995Y-91175339D01*
X109836611Y-91214863D01*
X109863713Y-91279262D01*
X109864500Y-91293212D01*
X109864500Y-94451792D01*
X109844815Y-94518831D01*
X109792011Y-94564586D01*
X109740522Y-94573029D01*
X109301001Y-95012551D01*
X109239678Y-95046036D01*
X109169986Y-95041052D01*
X109114053Y-94999180D01*
X109108623Y-94991312D01*
X109096387Y-94972031D01*
X109088028Y-94958859D01*
X109047750Y-94921036D01*
X108968733Y-94846834D01*
X108965067Y-94844170D01*
X108922402Y-94788839D01*
X108916424Y-94719226D01*
X108949031Y-94657431D01*
X108950273Y-94656172D01*
X109385009Y-94221435D01*
X109354286Y-94197523D01*
X109354281Y-94197519D01*
X109149992Y-94086964D01*
X109149982Y-94086959D01*
X108930278Y-94011535D01*
X108701147Y-93973300D01*
X108468853Y-93973300D01*
X108239721Y-94011535D01*
X108020017Y-94086959D01*
X108020007Y-94086964D01*
X107815717Y-94197520D01*
X107815706Y-94197527D01*
X107784990Y-94221434D01*
X107784990Y-94221436D01*
X108223412Y-94659858D01*
X108256897Y-94721181D01*
X108251913Y-94790873D01*
X108210041Y-94846806D01*
X108208616Y-94847857D01*
X108138096Y-94899091D01*
X108138094Y-94899094D01*
X108051763Y-95003451D01*
X107993863Y-95042559D01*
X107924012Y-95044155D01*
X107868538Y-95012092D01*
X107432583Y-94576137D01*
X107348016Y-94705578D01*
X107254704Y-94918308D01*
X107197678Y-95143500D01*
X107178496Y-95374994D01*
X107178496Y-95375005D01*
X107197678Y-95606499D01*
X107254704Y-95831691D01*
X107348015Y-96044418D01*
X107432584Y-96173861D01*
X107868997Y-95737447D01*
X107930320Y-95703962D01*
X108000011Y-95708946D01*
X108055945Y-95750817D01*
X108061374Y-95758684D01*
X108081973Y-95791142D01*
X108201265Y-95903165D01*
X108204928Y-95905826D01*
X108247594Y-95961155D01*
X108253575Y-96030768D01*
X108220970Y-96092564D01*
X108219725Y-96093826D01*
X107784989Y-96528561D01*
X107784990Y-96528563D01*
X107815712Y-96552475D01*
X107815718Y-96552480D01*
X108020007Y-96663035D01*
X108020017Y-96663040D01*
X108239721Y-96738464D01*
X108468853Y-96776700D01*
X108701147Y-96776700D01*
X108930278Y-96738464D01*
X109149982Y-96663040D01*
X109149987Y-96663038D01*
X109354288Y-96552475D01*
X109385008Y-96528563D01*
X109385008Y-96528562D01*
X108946588Y-96090142D01*
X108913103Y-96028819D01*
X108918087Y-95959127D01*
X108959959Y-95903194D01*
X108961384Y-95902143D01*
X109031903Y-95850908D01*
X109031905Y-95850906D01*
X109092927Y-95777143D01*
X109118237Y-95746548D01*
X109176135Y-95707441D01*
X109245987Y-95705845D01*
X109301461Y-95737908D01*
X109740841Y-96177288D01*
X109796420Y-96187531D01*
X109847379Y-96235333D01*
X109864500Y-96298206D01*
X109864500Y-99456787D01*
X109844815Y-99523826D01*
X109792011Y-99569581D01*
X109722853Y-99579525D01*
X109659297Y-99550500D01*
X109649270Y-99540770D01*
X109580256Y-99465801D01*
X109537939Y-99419832D01*
X109537938Y-99419831D01*
X109537936Y-99419829D01*
X109537932Y-99419826D01*
X109354567Y-99277107D01*
X109354561Y-99277103D01*
X109150188Y-99166501D01*
X109150180Y-99166498D01*
X108930402Y-99091048D01*
X108701190Y-99052800D01*
X108468810Y-99052800D01*
X108239597Y-99091048D01*
X108019819Y-99166498D01*
X108019811Y-99166501D01*
X107815438Y-99277103D01*
X107815432Y-99277107D01*
X107632067Y-99419826D01*
X107632064Y-99419829D01*
X107474676Y-99590797D01*
X107474673Y-99590801D01*
X107347575Y-99785337D01*
X107254229Y-99998145D01*
X107197183Y-100223417D01*
X107177994Y-100454994D01*
X107177994Y-100455005D01*
X107197183Y-100686582D01*
X107254229Y-100911854D01*
X107347575Y-101124662D01*
X107474673Y-101319198D01*
X107474675Y-101319201D01*
X107632061Y-101490168D01*
X107632064Y-101490170D01*
X107632067Y-101490173D01*
X107815432Y-101632892D01*
X107815438Y-101632896D01*
X107815441Y-101632898D01*
X108019812Y-101743499D01*
X108239600Y-101818952D01*
X108468810Y-101857200D01*
X108701190Y-101857200D01*
X108930400Y-101818952D01*
X109150188Y-101743499D01*
X109354559Y-101632898D01*
X109373057Y-101618501D01*
X109515167Y-101507892D01*
X109537939Y-101490168D01*
X109649272Y-101369227D01*
X109709157Y-101333239D01*
X109778995Y-101335339D01*
X109836611Y-101374863D01*
X109863713Y-101439262D01*
X109864500Y-101453212D01*
X109864500Y-104057255D01*
X109862775Y-104072872D01*
X109863061Y-104072899D01*
X109862326Y-104080665D01*
X109864500Y-104149814D01*
X109864500Y-104179343D01*
X109864501Y-104179360D01*
X109865368Y-104186231D01*
X109865826Y-104192050D01*
X109867290Y-104238624D01*
X109867291Y-104238627D01*
X109872880Y-104257867D01*
X109876824Y-104276911D01*
X109879336Y-104296791D01*
X109896490Y-104340119D01*
X109898382Y-104345647D01*
X109911381Y-104390388D01*
X109921580Y-104407634D01*
X109930138Y-104425103D01*
X109937514Y-104443732D01*
X109964898Y-104481423D01*
X109968106Y-104486307D01*
X109991827Y-104526416D01*
X109991833Y-104526424D01*
X110005990Y-104540580D01*
X110018628Y-104555376D01*
X110030405Y-104571586D01*
X110030406Y-104571587D01*
X110066309Y-104601288D01*
X110070620Y-104605210D01*
X110440529Y-104975119D01*
X111433328Y-105967919D01*
X111466813Y-106029242D01*
X111461829Y-106098934D01*
X111419957Y-106154867D01*
X111354493Y-106179284D01*
X111322863Y-106177489D01*
X111231980Y-106160500D01*
X111018020Y-106160500D01*
X110807703Y-106199815D01*
X110681533Y-106248693D01*
X110608192Y-106277106D01*
X110608186Y-106277108D01*
X110426286Y-106389736D01*
X110426283Y-106389738D01*
X110426279Y-106389740D01*
X110426278Y-106389742D01*
X110426276Y-106389744D01*
X110268158Y-106533887D01*
X110139219Y-106704629D01*
X110043849Y-106896158D01*
X110043846Y-106896164D01*
X109985296Y-107101949D01*
X109985295Y-107101952D01*
X109978471Y-107175604D01*
X109952685Y-107240542D01*
X109895884Y-107281229D01*
X109826103Y-107284749D01*
X109765497Y-107249984D01*
X109733307Y-107187971D01*
X109731529Y-107175604D01*
X109724704Y-107101952D01*
X109724703Y-107101949D01*
X109666153Y-106896164D01*
X109666150Y-106896158D01*
X109648121Y-106859950D01*
X109570781Y-106704630D01*
X109441841Y-106533886D01*
X109283722Y-106389742D01*
X109283716Y-106389738D01*
X109283713Y-106389736D01*
X109101813Y-106277108D01*
X109101807Y-106277106D01*
X109097241Y-106275337D01*
X108902297Y-106199815D01*
X108691980Y-106160500D01*
X108478020Y-106160500D01*
X108267703Y-106199815D01*
X108141533Y-106248693D01*
X108068192Y-106277106D01*
X108068186Y-106277108D01*
X107886286Y-106389736D01*
X107886283Y-106389738D01*
X107886279Y-106389740D01*
X107886278Y-106389742D01*
X107886276Y-106389744D01*
X107728158Y-106533887D01*
X107599219Y-106704629D01*
X107503849Y-106896158D01*
X107503846Y-106896164D01*
X107445296Y-107101949D01*
X107445295Y-107101952D01*
X107438471Y-107175604D01*
X107412685Y-107240542D01*
X107355884Y-107281229D01*
X107286103Y-107284749D01*
X107225497Y-107249984D01*
X107193307Y-107187971D01*
X107191529Y-107175604D01*
X107184704Y-107101952D01*
X107184703Y-107101949D01*
X107126153Y-106896164D01*
X107126150Y-106896158D01*
X107108121Y-106859950D01*
X107030781Y-106704630D01*
X106901841Y-106533886D01*
X106743722Y-106389742D01*
X106743716Y-106389738D01*
X106743713Y-106389736D01*
X106561813Y-106277108D01*
X106561807Y-106277106D01*
X106557241Y-106275337D01*
X106362297Y-106199815D01*
X106151980Y-106160500D01*
X105938020Y-106160500D01*
X105727703Y-106199815D01*
X105601533Y-106248693D01*
X105528192Y-106277106D01*
X105528186Y-106277108D01*
X105346286Y-106389736D01*
X105346283Y-106389738D01*
X105346279Y-106389740D01*
X105346278Y-106389742D01*
X105346276Y-106389744D01*
X105188158Y-106533887D01*
X105059219Y-106704629D01*
X104963849Y-106896158D01*
X104963846Y-106896164D01*
X104905296Y-107101949D01*
X104905295Y-107101952D01*
X104885554Y-107314999D01*
X104885554Y-107315000D01*
X104905295Y-107528047D01*
X104905296Y-107528050D01*
X104963846Y-107733835D01*
X104963849Y-107733841D01*
X104992359Y-107791096D01*
X105059219Y-107925370D01*
X105188159Y-108096114D01*
X105346278Y-108240258D01*
X105346283Y-108240261D01*
X105346286Y-108240263D01*
X105528186Y-108352891D01*
X105528187Y-108352891D01*
X105528190Y-108352893D01*
X105727703Y-108430185D01*
X105938020Y-108469500D01*
X105938022Y-108469500D01*
X106151978Y-108469500D01*
X106151980Y-108469500D01*
X106362297Y-108430185D01*
X106561810Y-108352893D01*
X106743722Y-108240258D01*
X106901841Y-108096114D01*
X107030781Y-107925370D01*
X107126151Y-107733840D01*
X107126151Y-107733837D01*
X107126153Y-107733835D01*
X107177590Y-107553050D01*
X107184704Y-107528048D01*
X107191529Y-107454394D01*
X107217315Y-107389457D01*
X107274116Y-107348770D01*
X107343897Y-107345250D01*
X107404503Y-107380015D01*
X107436693Y-107442028D01*
X107438471Y-107454395D01*
X107445295Y-107528047D01*
X107445296Y-107528050D01*
X107503846Y-107733835D01*
X107503849Y-107733841D01*
X107532359Y-107791096D01*
X107599219Y-107925370D01*
X107728159Y-108096114D01*
X107886278Y-108240258D01*
X107886283Y-108240261D01*
X107886286Y-108240263D01*
X108068186Y-108352891D01*
X108068187Y-108352891D01*
X108068190Y-108352893D01*
X108267703Y-108430185D01*
X108478020Y-108469500D01*
X108478022Y-108469500D01*
X108691978Y-108469500D01*
X108691980Y-108469500D01*
X108902297Y-108430185D01*
X109101810Y-108352893D01*
X109283722Y-108240258D01*
X109441841Y-108096114D01*
X109570781Y-107925370D01*
X109666151Y-107733840D01*
X109666151Y-107733837D01*
X109666153Y-107733835D01*
X109717590Y-107553050D01*
X109724704Y-107528048D01*
X109731529Y-107454394D01*
X109757315Y-107389457D01*
X109814116Y-107348770D01*
X109883897Y-107345250D01*
X109944503Y-107380015D01*
X109976693Y-107442028D01*
X109978471Y-107454395D01*
X109985295Y-107528047D01*
X109985296Y-107528050D01*
X110043846Y-107733835D01*
X110043849Y-107733841D01*
X110072359Y-107791096D01*
X110139219Y-107925370D01*
X110268159Y-108096114D01*
X110426278Y-108240258D01*
X110426283Y-108240261D01*
X110426286Y-108240263D01*
X110608186Y-108352891D01*
X110608187Y-108352891D01*
X110608190Y-108352893D01*
X110807703Y-108430185D01*
X111018020Y-108469500D01*
X111018022Y-108469500D01*
X111231978Y-108469500D01*
X111231980Y-108469500D01*
X111442297Y-108430185D01*
X111641810Y-108352893D01*
X111823722Y-108240258D01*
X111981841Y-108096114D01*
X112110781Y-107925370D01*
X112206151Y-107733840D01*
X112206151Y-107733837D01*
X112206153Y-107733835D01*
X112257590Y-107553050D01*
X112264704Y-107528048D01*
X112271529Y-107454394D01*
X112297315Y-107389457D01*
X112354116Y-107348770D01*
X112423897Y-107345250D01*
X112484503Y-107380015D01*
X112516693Y-107442028D01*
X112518471Y-107454395D01*
X112525295Y-107528047D01*
X112525296Y-107528050D01*
X112583846Y-107733835D01*
X112583849Y-107733841D01*
X112612359Y-107791096D01*
X112679219Y-107925370D01*
X112808159Y-108096114D01*
X112966278Y-108240258D01*
X112966283Y-108240261D01*
X112966286Y-108240263D01*
X113148186Y-108352891D01*
X113148187Y-108352891D01*
X113148190Y-108352893D01*
X113347703Y-108430185D01*
X113558020Y-108469500D01*
X113558022Y-108469500D01*
X113771978Y-108469500D01*
X113771980Y-108469500D01*
X113982297Y-108430185D01*
X114181810Y-108352893D01*
X114363722Y-108240258D01*
X114521841Y-108096114D01*
X114650781Y-107925370D01*
X114746151Y-107733840D01*
X114746151Y-107733837D01*
X114746153Y-107733835D01*
X114797590Y-107553050D01*
X114804704Y-107528048D01*
X114811529Y-107454394D01*
X114837315Y-107389457D01*
X114894116Y-107348770D01*
X114963897Y-107345250D01*
X115024503Y-107380015D01*
X115056693Y-107442028D01*
X115058471Y-107454395D01*
X115065295Y-107528047D01*
X115065296Y-107528050D01*
X115123846Y-107733835D01*
X115123849Y-107733841D01*
X115152359Y-107791096D01*
X115219219Y-107925370D01*
X115348159Y-108096114D01*
X115506278Y-108240258D01*
X115506283Y-108240261D01*
X115506286Y-108240263D01*
X115688186Y-108352891D01*
X115688187Y-108352891D01*
X115688190Y-108352893D01*
X115887703Y-108430185D01*
X116098020Y-108469500D01*
X116098022Y-108469500D01*
X116311978Y-108469500D01*
X116311980Y-108469500D01*
X116522297Y-108430185D01*
X116721810Y-108352893D01*
X116903722Y-108240258D01*
X117061841Y-108096114D01*
X117190781Y-107925370D01*
X117286151Y-107733840D01*
X117286151Y-107733837D01*
X117286153Y-107733835D01*
X117337590Y-107553050D01*
X117344704Y-107528048D01*
X117351529Y-107454394D01*
X117377315Y-107389457D01*
X117434116Y-107348770D01*
X117503897Y-107345250D01*
X117564503Y-107380015D01*
X117596693Y-107442028D01*
X117598471Y-107454395D01*
X117605295Y-107528047D01*
X117605296Y-107528050D01*
X117663846Y-107733835D01*
X117663849Y-107733841D01*
X117692359Y-107791096D01*
X117759219Y-107925370D01*
X117888159Y-108096114D01*
X118046278Y-108240258D01*
X118046283Y-108240261D01*
X118046286Y-108240263D01*
X118228186Y-108352891D01*
X118228187Y-108352891D01*
X118228190Y-108352893D01*
X118427703Y-108430185D01*
X118603845Y-108463111D01*
X118666125Y-108494779D01*
X118701398Y-108555092D01*
X118698464Y-108624900D01*
X118658255Y-108682040D01*
X118603845Y-108706888D01*
X118427703Y-108739815D01*
X118301533Y-108788693D01*
X118228192Y-108817106D01*
X118228186Y-108817108D01*
X118046286Y-108929736D01*
X118046283Y-108929738D01*
X118046279Y-108929740D01*
X118046278Y-108929742D01*
X117888159Y-109073886D01*
X117888158Y-109073887D01*
X117759219Y-109244629D01*
X117663849Y-109436158D01*
X117663846Y-109436164D01*
X117605296Y-109641949D01*
X117605295Y-109641952D01*
X117585554Y-109854999D01*
X117585554Y-109855000D01*
X117605295Y-110068047D01*
X117605296Y-110068050D01*
X117663846Y-110273835D01*
X117663849Y-110273840D01*
X117759219Y-110465370D01*
X117888159Y-110636114D01*
X118046278Y-110780258D01*
X118046283Y-110780261D01*
X118046286Y-110780263D01*
X118228186Y-110892891D01*
X118228187Y-110892891D01*
X118228190Y-110892893D01*
X118427703Y-110970185D01*
X118603845Y-111003111D01*
X118666125Y-111034779D01*
X118701398Y-111095092D01*
X118698464Y-111164900D01*
X118658255Y-111222040D01*
X118603845Y-111246888D01*
X118427703Y-111279815D01*
X118301533Y-111328693D01*
X118228192Y-111357106D01*
X118228186Y-111357108D01*
X118046286Y-111469736D01*
X118046283Y-111469738D01*
X118046279Y-111469740D01*
X118046278Y-111469742D01*
X118019120Y-111494500D01*
X117888158Y-111613887D01*
X117759219Y-111784629D01*
X117663849Y-111976158D01*
X117663846Y-111976164D01*
X117605296Y-112181949D01*
X117605295Y-112181952D01*
X117585554Y-112394999D01*
X117585554Y-112395000D01*
X117605295Y-112608047D01*
X117605296Y-112608050D01*
X117663846Y-112813835D01*
X117663849Y-112813840D01*
X117759219Y-113005370D01*
X117888159Y-113176114D01*
X118046278Y-113320258D01*
X118046283Y-113320261D01*
X118046286Y-113320263D01*
X118228186Y-113432891D01*
X118228187Y-113432891D01*
X118228190Y-113432893D01*
X118427703Y-113510185D01*
X118605205Y-113543366D01*
X118667485Y-113575033D01*
X118702758Y-113635345D01*
X118699824Y-113705154D01*
X118659615Y-113762294D01*
X118605204Y-113787143D01*
X118427837Y-113820299D01*
X118228415Y-113897555D01*
X118125085Y-113961533D01*
X118561133Y-114397580D01*
X118594618Y-114458903D01*
X118589634Y-114528594D01*
X118547763Y-114584528D01*
X118529748Y-114595745D01*
X118506956Y-114607358D01*
X118506949Y-114607363D01*
X118417363Y-114696949D01*
X118417358Y-114696956D01*
X118405745Y-114719748D01*
X118357770Y-114770544D01*
X118289949Y-114787338D01*
X118223814Y-114764800D01*
X118207580Y-114751133D01*
X117768980Y-114312532D01*
X117768979Y-114312532D01*
X117759646Y-114324894D01*
X117759644Y-114324896D01*
X117664321Y-114516330D01*
X117664315Y-114516345D01*
X117605789Y-114722043D01*
X117605788Y-114722045D01*
X117586056Y-114934999D01*
X117586056Y-114935000D01*
X117605788Y-115147954D01*
X117605789Y-115147956D01*
X117664315Y-115353654D01*
X117664321Y-115353669D01*
X117759646Y-115545106D01*
X117768980Y-115557466D01*
X118207580Y-115118866D01*
X118268903Y-115085381D01*
X118338594Y-115090365D01*
X118394528Y-115132236D01*
X118405742Y-115150246D01*
X118417359Y-115173045D01*
X118417361Y-115173047D01*
X118417363Y-115173050D01*
X118506949Y-115262636D01*
X118506951Y-115262637D01*
X118506955Y-115262641D01*
X118529747Y-115274254D01*
X118580542Y-115322228D01*
X118597337Y-115390049D01*
X118574799Y-115456184D01*
X118561132Y-115472419D01*
X118125085Y-115908465D01*
X118228415Y-115972444D01*
X118228416Y-115972445D01*
X118427836Y-116049700D01*
X118605204Y-116082856D01*
X118667485Y-116114524D01*
X118702758Y-116174836D01*
X118699824Y-116244644D01*
X118659616Y-116301785D01*
X118605205Y-116326634D01*
X118518851Y-116342776D01*
X118427703Y-116359815D01*
X118301533Y-116408693D01*
X118228192Y-116437106D01*
X118228186Y-116437108D01*
X118046286Y-116549736D01*
X118046283Y-116549738D01*
X118046279Y-116549740D01*
X118046278Y-116549742D01*
X117893590Y-116688935D01*
X117888158Y-116693887D01*
X117759219Y-116864629D01*
X117663849Y-117056158D01*
X117663846Y-117056164D01*
X117605296Y-117261949D01*
X117605295Y-117261952D01*
X117585554Y-117474999D01*
X117585554Y-117475000D01*
X117605295Y-117688047D01*
X117605296Y-117688050D01*
X117663846Y-117893835D01*
X117663849Y-117893841D01*
X117703956Y-117974386D01*
X117759219Y-118085370D01*
X117888159Y-118256114D01*
X118046278Y-118400258D01*
X118046283Y-118400261D01*
X118046286Y-118400263D01*
X118228186Y-118512891D01*
X118228187Y-118512891D01*
X118228190Y-118512893D01*
X118427703Y-118590185D01*
X118603845Y-118623111D01*
X118666125Y-118654779D01*
X118701398Y-118715092D01*
X118698464Y-118784900D01*
X118658255Y-118842040D01*
X118603845Y-118866888D01*
X118427703Y-118899815D01*
X118301533Y-118948693D01*
X118228192Y-118977106D01*
X118228186Y-118977108D01*
X118046286Y-119089736D01*
X118046283Y-119089738D01*
X118046279Y-119089740D01*
X118046278Y-119089742D01*
X117903595Y-119219814D01*
X117888158Y-119233887D01*
X117759219Y-119404629D01*
X117663849Y-119596158D01*
X117663846Y-119596164D01*
X117605296Y-119801949D01*
X117605295Y-119801952D01*
X117585554Y-120014999D01*
X117585554Y-120015000D01*
X117605295Y-120228047D01*
X117605296Y-120228050D01*
X117663846Y-120433835D01*
X117663849Y-120433841D01*
X117759219Y-120625369D01*
X117759219Y-120625370D01*
X117888159Y-120796114D01*
X118046278Y-120940258D01*
X118046283Y-120940261D01*
X118046286Y-120940263D01*
X118228186Y-121052891D01*
X118228187Y-121052891D01*
X118228190Y-121052893D01*
X118427703Y-121130185D01*
X118603845Y-121163111D01*
X118666125Y-121194779D01*
X118701398Y-121255092D01*
X118698464Y-121324900D01*
X118658255Y-121382040D01*
X118603845Y-121406888D01*
X118427703Y-121439815D01*
X118301533Y-121488693D01*
X118228192Y-121517106D01*
X118228186Y-121517108D01*
X118046286Y-121629736D01*
X118046283Y-121629738D01*
X118046279Y-121629740D01*
X118046278Y-121629742D01*
X117888159Y-121773886D01*
X117888158Y-121773887D01*
X117759219Y-121944629D01*
X117663849Y-122136158D01*
X117663846Y-122136164D01*
X117605296Y-122341949D01*
X117605295Y-122341952D01*
X117598471Y-122415604D01*
X117572685Y-122480542D01*
X117515884Y-122521229D01*
X117446103Y-122524749D01*
X117385497Y-122489984D01*
X117353307Y-122427971D01*
X117351529Y-122415604D01*
X117344704Y-122341952D01*
X117344703Y-122341949D01*
X117286153Y-122136164D01*
X117286150Y-122136158D01*
X117268121Y-122099950D01*
X117190781Y-121944630D01*
X117061841Y-121773886D01*
X116903722Y-121629742D01*
X116903716Y-121629738D01*
X116903713Y-121629736D01*
X116721813Y-121517108D01*
X116721807Y-121517106D01*
X116522297Y-121439815D01*
X116311980Y-121400500D01*
X116098020Y-121400500D01*
X115887703Y-121439815D01*
X115761533Y-121488693D01*
X115688192Y-121517106D01*
X115688186Y-121517108D01*
X115506286Y-121629736D01*
X115506283Y-121629738D01*
X115506279Y-121629740D01*
X115506278Y-121629742D01*
X115348159Y-121773886D01*
X115348158Y-121773887D01*
X115219219Y-121944629D01*
X115123849Y-122136158D01*
X115123846Y-122136164D01*
X115065296Y-122341949D01*
X115065295Y-122341952D01*
X115058471Y-122415604D01*
X115032685Y-122480542D01*
X114975884Y-122521229D01*
X114906103Y-122524749D01*
X114845497Y-122489984D01*
X114813307Y-122427971D01*
X114811529Y-122415604D01*
X114804704Y-122341952D01*
X114804703Y-122341949D01*
X114746153Y-122136164D01*
X114746150Y-122136158D01*
X114728121Y-122099950D01*
X114650781Y-121944630D01*
X114521841Y-121773886D01*
X114363722Y-121629742D01*
X114363716Y-121629738D01*
X114363713Y-121629736D01*
X114181813Y-121517108D01*
X114181807Y-121517106D01*
X113982297Y-121439815D01*
X113771980Y-121400500D01*
X113558020Y-121400500D01*
X113347703Y-121439815D01*
X113221533Y-121488693D01*
X113148192Y-121517106D01*
X113148186Y-121517108D01*
X112966286Y-121629736D01*
X112966283Y-121629738D01*
X112966279Y-121629740D01*
X112966278Y-121629742D01*
X112808159Y-121773886D01*
X112808158Y-121773887D01*
X112679219Y-121944629D01*
X112583849Y-122136158D01*
X112583846Y-122136164D01*
X112525296Y-122341949D01*
X112525295Y-122341952D01*
X112518471Y-122415604D01*
X112492685Y-122480542D01*
X112435884Y-122521229D01*
X112366103Y-122524749D01*
X112305497Y-122489984D01*
X112273307Y-122427971D01*
X112271529Y-122415604D01*
X112264704Y-122341952D01*
X112264703Y-122341949D01*
X112206153Y-122136164D01*
X112206150Y-122136158D01*
X112188121Y-122099950D01*
X112110781Y-121944630D01*
X111981841Y-121773886D01*
X111823722Y-121629742D01*
X111823716Y-121629738D01*
X111823713Y-121629736D01*
X111641813Y-121517108D01*
X111641807Y-121517106D01*
X111442297Y-121439815D01*
X111231980Y-121400500D01*
X111018020Y-121400500D01*
X110807703Y-121439815D01*
X110681533Y-121488693D01*
X110608192Y-121517106D01*
X110608186Y-121517108D01*
X110426286Y-121629736D01*
X110426283Y-121629738D01*
X110426279Y-121629740D01*
X110426278Y-121629742D01*
X110268159Y-121773886D01*
X110268158Y-121773887D01*
X110139219Y-121944629D01*
X110043849Y-122136158D01*
X110043846Y-122136164D01*
X109985296Y-122341949D01*
X109985295Y-122341952D01*
X109978471Y-122415604D01*
X109952685Y-122480542D01*
X109895884Y-122521229D01*
X109826103Y-122524749D01*
X109765497Y-122489984D01*
X109733307Y-122427971D01*
X109731529Y-122415604D01*
X109724704Y-122341952D01*
X109724703Y-122341949D01*
X109666153Y-122136164D01*
X109666150Y-122136158D01*
X109648121Y-122099950D01*
X109570781Y-121944630D01*
X109441841Y-121773886D01*
X109283722Y-121629742D01*
X109283716Y-121629738D01*
X109283713Y-121629736D01*
X109101813Y-121517108D01*
X109101807Y-121517106D01*
X108902297Y-121439815D01*
X108691980Y-121400500D01*
X108478020Y-121400500D01*
X108267703Y-121439815D01*
X108141533Y-121488693D01*
X108068192Y-121517106D01*
X108068186Y-121517108D01*
X107886286Y-121629736D01*
X107886283Y-121629738D01*
X107886279Y-121629740D01*
X107886278Y-121629742D01*
X107728159Y-121773886D01*
X107728158Y-121773887D01*
X107599219Y-121944629D01*
X107503849Y-122136158D01*
X107503846Y-122136164D01*
X107445296Y-122341949D01*
X107445295Y-122341952D01*
X107438471Y-122415604D01*
X107412685Y-122480542D01*
X107355884Y-122521229D01*
X107286103Y-122524749D01*
X107225497Y-122489984D01*
X107193307Y-122427971D01*
X107191529Y-122415604D01*
X107184704Y-122341952D01*
X107184703Y-122341949D01*
X107126153Y-122136164D01*
X107126150Y-122136158D01*
X107108121Y-122099950D01*
X107030781Y-121944630D01*
X106901841Y-121773886D01*
X106743722Y-121629742D01*
X106743716Y-121629738D01*
X106743713Y-121629736D01*
X106561813Y-121517108D01*
X106561807Y-121517106D01*
X106362297Y-121439815D01*
X106151980Y-121400500D01*
X105938020Y-121400500D01*
X105727703Y-121439815D01*
X105601533Y-121488693D01*
X105528192Y-121517106D01*
X105528186Y-121517108D01*
X105346286Y-121629736D01*
X105346283Y-121629738D01*
X105346279Y-121629740D01*
X105346278Y-121629742D01*
X105188159Y-121773886D01*
X105188158Y-121773887D01*
X105059219Y-121944629D01*
X104963849Y-122136158D01*
X104963846Y-122136164D01*
X104905296Y-122341949D01*
X104905295Y-122341952D01*
X104885554Y-122554999D01*
X104885554Y-122555000D01*
X103505000Y-122555000D01*
X103505000Y-63625005D01*
X107178496Y-63625005D01*
X107197678Y-63856499D01*
X107254704Y-64081691D01*
X107348015Y-64294418D01*
X107432584Y-64423861D01*
X107868997Y-63987447D01*
X107930320Y-63953962D01*
X108000011Y-63958946D01*
X108055945Y-64000817D01*
X108061374Y-64008684D01*
X108081973Y-64041142D01*
X108201265Y-64153165D01*
X108204928Y-64155826D01*
X108247594Y-64211155D01*
X108253575Y-64280768D01*
X108220970Y-64342564D01*
X108219725Y-64343826D01*
X107784989Y-64778561D01*
X107784990Y-64778563D01*
X107815712Y-64802475D01*
X107815718Y-64802480D01*
X108020007Y-64913035D01*
X108020017Y-64913040D01*
X108239721Y-64988464D01*
X108468853Y-65026700D01*
X108701147Y-65026700D01*
X108930278Y-64988464D01*
X109149982Y-64913040D01*
X109149987Y-64913038D01*
X109354288Y-64802475D01*
X109385008Y-64778563D01*
X109385008Y-64778562D01*
X108946588Y-64340142D01*
X108913103Y-64278819D01*
X108918087Y-64209127D01*
X108959959Y-64153194D01*
X108961384Y-64152143D01*
X109031903Y-64100908D01*
X109031905Y-64100906D01*
X109057525Y-64069937D01*
X109118237Y-63996548D01*
X109176135Y-63957441D01*
X109245987Y-63955845D01*
X109301461Y-63987908D01*
X109737414Y-64423861D01*
X109821980Y-64294425D01*
X109821985Y-64294417D01*
X109915295Y-64081691D01*
X109972321Y-63856499D01*
X109991504Y-63625005D01*
X109991504Y-63624994D01*
X109972321Y-63393500D01*
X109915295Y-63168308D01*
X109821982Y-62955576D01*
X109737414Y-62826137D01*
X109301001Y-63262551D01*
X109239678Y-63296036D01*
X109169986Y-63291052D01*
X109114053Y-63249180D01*
X109108623Y-63241312D01*
X109096387Y-63222031D01*
X109088028Y-63208859D01*
X109047750Y-63171036D01*
X108968733Y-63096834D01*
X108965067Y-63094170D01*
X108922402Y-63038839D01*
X108916424Y-62969226D01*
X108949031Y-62907431D01*
X108950273Y-62906172D01*
X109385009Y-62471435D01*
X109354286Y-62447523D01*
X109354281Y-62447519D01*
X109149992Y-62336964D01*
X109149982Y-62336959D01*
X108930278Y-62261535D01*
X108701147Y-62223300D01*
X108468853Y-62223300D01*
X108239721Y-62261535D01*
X108020017Y-62336959D01*
X108020007Y-62336964D01*
X107815717Y-62447520D01*
X107815706Y-62447527D01*
X107784990Y-62471434D01*
X107784990Y-62471436D01*
X108223412Y-62909858D01*
X108256897Y-62971181D01*
X108251913Y-63040873D01*
X108210041Y-63096806D01*
X108208616Y-63097857D01*
X108138096Y-63149091D01*
X108138094Y-63149094D01*
X108051763Y-63253451D01*
X107993863Y-63292559D01*
X107924012Y-63294155D01*
X107868538Y-63262092D01*
X107432583Y-62826137D01*
X107348016Y-62955578D01*
X107254704Y-63168308D01*
X107197678Y-63393500D01*
X107178496Y-63624994D01*
X107178496Y-63625005D01*
X103505000Y-63625005D01*
X103505000Y-58545005D01*
X107177994Y-58545005D01*
X107197183Y-58776582D01*
X107254229Y-59001854D01*
X107347575Y-59214662D01*
X107442586Y-59360085D01*
X107474675Y-59409201D01*
X107632061Y-59580168D01*
X107632064Y-59580170D01*
X107632067Y-59580173D01*
X107815432Y-59722892D01*
X107815438Y-59722896D01*
X107815441Y-59722898D01*
X108019812Y-59833499D01*
X108239600Y-59908952D01*
X108468810Y-59947200D01*
X108701190Y-59947200D01*
X108930400Y-59908952D01*
X109150188Y-59833499D01*
X109354559Y-59722898D01*
X109373057Y-59708501D01*
X109515167Y-59597892D01*
X109537939Y-59580168D01*
X109695325Y-59409201D01*
X109822425Y-59214661D01*
X109915771Y-59001854D01*
X109972816Y-58776586D01*
X109989136Y-58579639D01*
X109992006Y-58545005D01*
X109992006Y-58544994D01*
X109972816Y-58313417D01*
X109972816Y-58313414D01*
X109915771Y-58088146D01*
X109822425Y-57875339D01*
X109812490Y-57860133D01*
X109695326Y-57680801D01*
X109695325Y-57680799D01*
X109537939Y-57509832D01*
X109537934Y-57509828D01*
X109537932Y-57509826D01*
X109354567Y-57367107D01*
X109354561Y-57367103D01*
X109150188Y-57256501D01*
X109150180Y-57256498D01*
X108930402Y-57181048D01*
X108701190Y-57142800D01*
X108468810Y-57142800D01*
X108239597Y-57181048D01*
X108019819Y-57256498D01*
X108019811Y-57256501D01*
X107815438Y-57367103D01*
X107815432Y-57367107D01*
X107632067Y-57509826D01*
X107632064Y-57509829D01*
X107474676Y-57680797D01*
X107474673Y-57680801D01*
X107347575Y-57875337D01*
X107254229Y-58088145D01*
X107197183Y-58313417D01*
X107177994Y-58544994D01*
X107177994Y-58545005D01*
X103505000Y-58545005D01*
X103505000Y-56639000D01*
X103524685Y-56571961D01*
X103577489Y-56526206D01*
X103629000Y-56515000D01*
X171961000Y-56515000D01*
X172028039Y-56534685D01*
G37*
%TD.AperFunction*%
%TD*%
M02*
