%TF.GenerationSoftware,KiCad,Pcbnew,7.0.7*%
%TF.CreationDate,2024-02-11T13:41:50-05:00*%
%TF.ProjectId,Frosti,46726f73-7469-42e6-9b69-6361645f7063,rev?*%
%TF.SameCoordinates,Original*%
%TF.FileFunction,Legend,Top*%
%TF.FilePolarity,Positive*%
%FSLAX46Y46*%
G04 Gerber Fmt 4.6, Leading zero omitted, Abs format (unit mm)*
G04 Created by KiCad (PCBNEW 7.0.7) date 2024-02-11 13:41:50*
%MOMM*%
%LPD*%
G01*
G04 APERTURE LIST*
%ADD10C,0.150000*%
%ADD11C,0.120000*%
%ADD12C,0.152400*%
%ADD13C,0.508000*%
%ADD14C,0.200000*%
%ADD15C,0.127000*%
G04 APERTURE END LIST*
D10*
X131980414Y-80367744D02*
X131230414Y-80367744D01*
X131230414Y-80367744D02*
X131230414Y-80189173D01*
X131230414Y-80189173D02*
X131266128Y-80082030D01*
X131266128Y-80082030D02*
X131337557Y-80010601D01*
X131337557Y-80010601D02*
X131408985Y-79974887D01*
X131408985Y-79974887D02*
X131551842Y-79939173D01*
X131551842Y-79939173D02*
X131658985Y-79939173D01*
X131658985Y-79939173D02*
X131801842Y-79974887D01*
X131801842Y-79974887D02*
X131873271Y-80010601D01*
X131873271Y-80010601D02*
X131944700Y-80082030D01*
X131944700Y-80082030D02*
X131980414Y-80189173D01*
X131980414Y-80189173D02*
X131980414Y-80367744D01*
X131980414Y-79617744D02*
X131480414Y-79617744D01*
X131230414Y-79617744D02*
X131266128Y-79653458D01*
X131266128Y-79653458D02*
X131301842Y-79617744D01*
X131301842Y-79617744D02*
X131266128Y-79582030D01*
X131266128Y-79582030D02*
X131230414Y-79617744D01*
X131230414Y-79617744D02*
X131301842Y-79617744D01*
X131944700Y-79296315D02*
X131980414Y-79224887D01*
X131980414Y-79224887D02*
X131980414Y-79082030D01*
X131980414Y-79082030D02*
X131944700Y-79010601D01*
X131944700Y-79010601D02*
X131873271Y-78974887D01*
X131873271Y-78974887D02*
X131837557Y-78974887D01*
X131837557Y-78974887D02*
X131766128Y-79010601D01*
X131766128Y-79010601D02*
X131730414Y-79082030D01*
X131730414Y-79082030D02*
X131730414Y-79189173D01*
X131730414Y-79189173D02*
X131694700Y-79260601D01*
X131694700Y-79260601D02*
X131623271Y-79296315D01*
X131623271Y-79296315D02*
X131587557Y-79296315D01*
X131587557Y-79296315D02*
X131516128Y-79260601D01*
X131516128Y-79260601D02*
X131480414Y-79189173D01*
X131480414Y-79189173D02*
X131480414Y-79082030D01*
X131480414Y-79082030D02*
X131516128Y-79010601D01*
X131480414Y-78760601D02*
X131480414Y-78474887D01*
X131230414Y-78653458D02*
X131873271Y-78653458D01*
X131873271Y-78653458D02*
X131944700Y-78617744D01*
X131944700Y-78617744D02*
X131980414Y-78546315D01*
X131980414Y-78546315D02*
X131980414Y-78474887D01*
X131980414Y-77903459D02*
X131587557Y-77903459D01*
X131587557Y-77903459D02*
X131516128Y-77939173D01*
X131516128Y-77939173D02*
X131480414Y-78010601D01*
X131480414Y-78010601D02*
X131480414Y-78153459D01*
X131480414Y-78153459D02*
X131516128Y-78224887D01*
X131944700Y-77903459D02*
X131980414Y-77974887D01*
X131980414Y-77974887D02*
X131980414Y-78153459D01*
X131980414Y-78153459D02*
X131944700Y-78224887D01*
X131944700Y-78224887D02*
X131873271Y-78260601D01*
X131873271Y-78260601D02*
X131801842Y-78260601D01*
X131801842Y-78260601D02*
X131730414Y-78224887D01*
X131730414Y-78224887D02*
X131694700Y-78153459D01*
X131694700Y-78153459D02*
X131694700Y-77974887D01*
X131694700Y-77974887D02*
X131658985Y-77903459D01*
X131480414Y-77546316D02*
X131980414Y-77546316D01*
X131551842Y-77546316D02*
X131516128Y-77510602D01*
X131516128Y-77510602D02*
X131480414Y-77439173D01*
X131480414Y-77439173D02*
X131480414Y-77332030D01*
X131480414Y-77332030D02*
X131516128Y-77260602D01*
X131516128Y-77260602D02*
X131587557Y-77224888D01*
X131587557Y-77224888D02*
X131980414Y-77224888D01*
X131944700Y-76546317D02*
X131980414Y-76617745D01*
X131980414Y-76617745D02*
X131980414Y-76760602D01*
X131980414Y-76760602D02*
X131944700Y-76832031D01*
X131944700Y-76832031D02*
X131908985Y-76867745D01*
X131908985Y-76867745D02*
X131837557Y-76903459D01*
X131837557Y-76903459D02*
X131623271Y-76903459D01*
X131623271Y-76903459D02*
X131551842Y-76867745D01*
X131551842Y-76867745D02*
X131516128Y-76832031D01*
X131516128Y-76832031D02*
X131480414Y-76760602D01*
X131480414Y-76760602D02*
X131480414Y-76617745D01*
X131480414Y-76617745D02*
X131516128Y-76546317D01*
X131944700Y-75939174D02*
X131980414Y-76010602D01*
X131980414Y-76010602D02*
X131980414Y-76153460D01*
X131980414Y-76153460D02*
X131944700Y-76224888D01*
X131944700Y-76224888D02*
X131873271Y-76260602D01*
X131873271Y-76260602D02*
X131587557Y-76260602D01*
X131587557Y-76260602D02*
X131516128Y-76224888D01*
X131516128Y-76224888D02*
X131480414Y-76153460D01*
X131480414Y-76153460D02*
X131480414Y-76010602D01*
X131480414Y-76010602D02*
X131516128Y-75939174D01*
X131516128Y-75939174D02*
X131587557Y-75903460D01*
X131587557Y-75903460D02*
X131658985Y-75903460D01*
X131658985Y-75903460D02*
X131730414Y-76260602D01*
X131944700Y-75046316D02*
X131980414Y-74939174D01*
X131980414Y-74939174D02*
X131980414Y-74760602D01*
X131980414Y-74760602D02*
X131944700Y-74689174D01*
X131944700Y-74689174D02*
X131908985Y-74653459D01*
X131908985Y-74653459D02*
X131837557Y-74617745D01*
X131837557Y-74617745D02*
X131766128Y-74617745D01*
X131766128Y-74617745D02*
X131694700Y-74653459D01*
X131694700Y-74653459D02*
X131658985Y-74689174D01*
X131658985Y-74689174D02*
X131623271Y-74760602D01*
X131623271Y-74760602D02*
X131587557Y-74903459D01*
X131587557Y-74903459D02*
X131551842Y-74974888D01*
X131551842Y-74974888D02*
X131516128Y-75010602D01*
X131516128Y-75010602D02*
X131444700Y-75046316D01*
X131444700Y-75046316D02*
X131373271Y-75046316D01*
X131373271Y-75046316D02*
X131301842Y-75010602D01*
X131301842Y-75010602D02*
X131266128Y-74974888D01*
X131266128Y-74974888D02*
X131230414Y-74903459D01*
X131230414Y-74903459D02*
X131230414Y-74724888D01*
X131230414Y-74724888D02*
X131266128Y-74617745D01*
X131944700Y-74010602D02*
X131980414Y-74082030D01*
X131980414Y-74082030D02*
X131980414Y-74224888D01*
X131980414Y-74224888D02*
X131944700Y-74296316D01*
X131944700Y-74296316D02*
X131873271Y-74332030D01*
X131873271Y-74332030D02*
X131587557Y-74332030D01*
X131587557Y-74332030D02*
X131516128Y-74296316D01*
X131516128Y-74296316D02*
X131480414Y-74224888D01*
X131480414Y-74224888D02*
X131480414Y-74082030D01*
X131480414Y-74082030D02*
X131516128Y-74010602D01*
X131516128Y-74010602D02*
X131587557Y-73974888D01*
X131587557Y-73974888D02*
X131658985Y-73974888D01*
X131658985Y-73974888D02*
X131730414Y-74332030D01*
X131480414Y-73653459D02*
X131980414Y-73653459D01*
X131551842Y-73653459D02*
X131516128Y-73617745D01*
X131516128Y-73617745D02*
X131480414Y-73546316D01*
X131480414Y-73546316D02*
X131480414Y-73439173D01*
X131480414Y-73439173D02*
X131516128Y-73367745D01*
X131516128Y-73367745D02*
X131587557Y-73332031D01*
X131587557Y-73332031D02*
X131980414Y-73332031D01*
X131944700Y-73010602D02*
X131980414Y-72939174D01*
X131980414Y-72939174D02*
X131980414Y-72796317D01*
X131980414Y-72796317D02*
X131944700Y-72724888D01*
X131944700Y-72724888D02*
X131873271Y-72689174D01*
X131873271Y-72689174D02*
X131837557Y-72689174D01*
X131837557Y-72689174D02*
X131766128Y-72724888D01*
X131766128Y-72724888D02*
X131730414Y-72796317D01*
X131730414Y-72796317D02*
X131730414Y-72903460D01*
X131730414Y-72903460D02*
X131694700Y-72974888D01*
X131694700Y-72974888D02*
X131623271Y-73010602D01*
X131623271Y-73010602D02*
X131587557Y-73010602D01*
X131587557Y-73010602D02*
X131516128Y-72974888D01*
X131516128Y-72974888D02*
X131480414Y-72903460D01*
X131480414Y-72903460D02*
X131480414Y-72796317D01*
X131480414Y-72796317D02*
X131516128Y-72724888D01*
X131980414Y-72260602D02*
X131944700Y-72332031D01*
X131944700Y-72332031D02*
X131908985Y-72367745D01*
X131908985Y-72367745D02*
X131837557Y-72403459D01*
X131837557Y-72403459D02*
X131623271Y-72403459D01*
X131623271Y-72403459D02*
X131551842Y-72367745D01*
X131551842Y-72367745D02*
X131516128Y-72332031D01*
X131516128Y-72332031D02*
X131480414Y-72260602D01*
X131480414Y-72260602D02*
X131480414Y-72153459D01*
X131480414Y-72153459D02*
X131516128Y-72082031D01*
X131516128Y-72082031D02*
X131551842Y-72046317D01*
X131551842Y-72046317D02*
X131623271Y-72010602D01*
X131623271Y-72010602D02*
X131837557Y-72010602D01*
X131837557Y-72010602D02*
X131908985Y-72046317D01*
X131908985Y-72046317D02*
X131944700Y-72082031D01*
X131944700Y-72082031D02*
X131980414Y-72153459D01*
X131980414Y-72153459D02*
X131980414Y-72260602D01*
X131980414Y-71689174D02*
X131480414Y-71689174D01*
X131623271Y-71689174D02*
X131551842Y-71653460D01*
X131551842Y-71653460D02*
X131516128Y-71617746D01*
X131516128Y-71617746D02*
X131480414Y-71546317D01*
X131480414Y-71546317D02*
X131480414Y-71474888D01*
X115470414Y-95250601D02*
X115470414Y-95607744D01*
X115470414Y-95607744D02*
X114720414Y-95607744D01*
X115470414Y-95000601D02*
X114970414Y-95000601D01*
X114720414Y-95000601D02*
X114756128Y-95036315D01*
X114756128Y-95036315D02*
X114791842Y-95000601D01*
X114791842Y-95000601D02*
X114756128Y-94964887D01*
X114756128Y-94964887D02*
X114720414Y-95000601D01*
X114720414Y-95000601D02*
X114791842Y-95000601D01*
X114970414Y-94643458D02*
X115470414Y-94643458D01*
X115041842Y-94643458D02*
X115006128Y-94607744D01*
X115006128Y-94607744D02*
X114970414Y-94536315D01*
X114970414Y-94536315D02*
X114970414Y-94429172D01*
X114970414Y-94429172D02*
X115006128Y-94357744D01*
X115006128Y-94357744D02*
X115077557Y-94322030D01*
X115077557Y-94322030D02*
X115470414Y-94322030D01*
X115434700Y-93679173D02*
X115470414Y-93750601D01*
X115470414Y-93750601D02*
X115470414Y-93893459D01*
X115470414Y-93893459D02*
X115434700Y-93964887D01*
X115434700Y-93964887D02*
X115363271Y-94000601D01*
X115363271Y-94000601D02*
X115077557Y-94000601D01*
X115077557Y-94000601D02*
X115006128Y-93964887D01*
X115006128Y-93964887D02*
X114970414Y-93893459D01*
X114970414Y-93893459D02*
X114970414Y-93750601D01*
X114970414Y-93750601D02*
X115006128Y-93679173D01*
X115006128Y-93679173D02*
X115077557Y-93643459D01*
X115077557Y-93643459D02*
X115148985Y-93643459D01*
X115148985Y-93643459D02*
X115220414Y-94000601D01*
X115434700Y-92786315D02*
X115470414Y-92679173D01*
X115470414Y-92679173D02*
X115470414Y-92500601D01*
X115470414Y-92500601D02*
X115434700Y-92429173D01*
X115434700Y-92429173D02*
X115398985Y-92393458D01*
X115398985Y-92393458D02*
X115327557Y-92357744D01*
X115327557Y-92357744D02*
X115256128Y-92357744D01*
X115256128Y-92357744D02*
X115184700Y-92393458D01*
X115184700Y-92393458D02*
X115148985Y-92429173D01*
X115148985Y-92429173D02*
X115113271Y-92500601D01*
X115113271Y-92500601D02*
X115077557Y-92643458D01*
X115077557Y-92643458D02*
X115041842Y-92714887D01*
X115041842Y-92714887D02*
X115006128Y-92750601D01*
X115006128Y-92750601D02*
X114934700Y-92786315D01*
X114934700Y-92786315D02*
X114863271Y-92786315D01*
X114863271Y-92786315D02*
X114791842Y-92750601D01*
X114791842Y-92750601D02*
X114756128Y-92714887D01*
X114756128Y-92714887D02*
X114720414Y-92643458D01*
X114720414Y-92643458D02*
X114720414Y-92464887D01*
X114720414Y-92464887D02*
X114756128Y-92357744D01*
X115434700Y-91750601D02*
X115470414Y-91822029D01*
X115470414Y-91822029D02*
X115470414Y-91964887D01*
X115470414Y-91964887D02*
X115434700Y-92036315D01*
X115434700Y-92036315D02*
X115363271Y-92072029D01*
X115363271Y-92072029D02*
X115077557Y-92072029D01*
X115077557Y-92072029D02*
X115006128Y-92036315D01*
X115006128Y-92036315D02*
X114970414Y-91964887D01*
X114970414Y-91964887D02*
X114970414Y-91822029D01*
X114970414Y-91822029D02*
X115006128Y-91750601D01*
X115006128Y-91750601D02*
X115077557Y-91714887D01*
X115077557Y-91714887D02*
X115148985Y-91714887D01*
X115148985Y-91714887D02*
X115220414Y-92072029D01*
X114970414Y-91393458D02*
X115470414Y-91393458D01*
X115041842Y-91393458D02*
X115006128Y-91357744D01*
X115006128Y-91357744D02*
X114970414Y-91286315D01*
X114970414Y-91286315D02*
X114970414Y-91179172D01*
X114970414Y-91179172D02*
X115006128Y-91107744D01*
X115006128Y-91107744D02*
X115077557Y-91072030D01*
X115077557Y-91072030D02*
X115470414Y-91072030D01*
X115434700Y-90750601D02*
X115470414Y-90679173D01*
X115470414Y-90679173D02*
X115470414Y-90536316D01*
X115470414Y-90536316D02*
X115434700Y-90464887D01*
X115434700Y-90464887D02*
X115363271Y-90429173D01*
X115363271Y-90429173D02*
X115327557Y-90429173D01*
X115327557Y-90429173D02*
X115256128Y-90464887D01*
X115256128Y-90464887D02*
X115220414Y-90536316D01*
X115220414Y-90536316D02*
X115220414Y-90643459D01*
X115220414Y-90643459D02*
X115184700Y-90714887D01*
X115184700Y-90714887D02*
X115113271Y-90750601D01*
X115113271Y-90750601D02*
X115077557Y-90750601D01*
X115077557Y-90750601D02*
X115006128Y-90714887D01*
X115006128Y-90714887D02*
X114970414Y-90643459D01*
X114970414Y-90643459D02*
X114970414Y-90536316D01*
X114970414Y-90536316D02*
X115006128Y-90464887D01*
X115470414Y-90000601D02*
X115434700Y-90072030D01*
X115434700Y-90072030D02*
X115398985Y-90107744D01*
X115398985Y-90107744D02*
X115327557Y-90143458D01*
X115327557Y-90143458D02*
X115113271Y-90143458D01*
X115113271Y-90143458D02*
X115041842Y-90107744D01*
X115041842Y-90107744D02*
X115006128Y-90072030D01*
X115006128Y-90072030D02*
X114970414Y-90000601D01*
X114970414Y-90000601D02*
X114970414Y-89893458D01*
X114970414Y-89893458D02*
X115006128Y-89822030D01*
X115006128Y-89822030D02*
X115041842Y-89786316D01*
X115041842Y-89786316D02*
X115113271Y-89750601D01*
X115113271Y-89750601D02*
X115327557Y-89750601D01*
X115327557Y-89750601D02*
X115398985Y-89786316D01*
X115398985Y-89786316D02*
X115434700Y-89822030D01*
X115434700Y-89822030D02*
X115470414Y-89893458D01*
X115470414Y-89893458D02*
X115470414Y-90000601D01*
X115470414Y-89429173D02*
X114970414Y-89429173D01*
X115113271Y-89429173D02*
X115041842Y-89393459D01*
X115041842Y-89393459D02*
X115006128Y-89357745D01*
X115006128Y-89357745D02*
X114970414Y-89286316D01*
X114970414Y-89286316D02*
X114970414Y-89214887D01*
X117834580Y-99067857D02*
X117882200Y-99115476D01*
X117882200Y-99115476D02*
X117929819Y-99258333D01*
X117929819Y-99258333D02*
X117929819Y-99353571D01*
X117929819Y-99353571D02*
X117882200Y-99496428D01*
X117882200Y-99496428D02*
X117786961Y-99591666D01*
X117786961Y-99591666D02*
X117691723Y-99639285D01*
X117691723Y-99639285D02*
X117501247Y-99686904D01*
X117501247Y-99686904D02*
X117358390Y-99686904D01*
X117358390Y-99686904D02*
X117167914Y-99639285D01*
X117167914Y-99639285D02*
X117072676Y-99591666D01*
X117072676Y-99591666D02*
X116977438Y-99496428D01*
X116977438Y-99496428D02*
X116929819Y-99353571D01*
X116929819Y-99353571D02*
X116929819Y-99258333D01*
X116929819Y-99258333D02*
X116977438Y-99115476D01*
X116977438Y-99115476D02*
X117025057Y-99067857D01*
X117929819Y-98115476D02*
X117929819Y-98686904D01*
X117929819Y-98401190D02*
X116929819Y-98401190D01*
X116929819Y-98401190D02*
X117072676Y-98496428D01*
X117072676Y-98496428D02*
X117167914Y-98591666D01*
X117167914Y-98591666D02*
X117215533Y-98686904D01*
X117025057Y-97734523D02*
X116977438Y-97686904D01*
X116977438Y-97686904D02*
X116929819Y-97591666D01*
X116929819Y-97591666D02*
X116929819Y-97353571D01*
X116929819Y-97353571D02*
X116977438Y-97258333D01*
X116977438Y-97258333D02*
X117025057Y-97210714D01*
X117025057Y-97210714D02*
X117120295Y-97163095D01*
X117120295Y-97163095D02*
X117215533Y-97163095D01*
X117215533Y-97163095D02*
X117358390Y-97210714D01*
X117358390Y-97210714D02*
X117929819Y-97782142D01*
X117929819Y-97782142D02*
X117929819Y-97163095D01*
X128997255Y-127551390D02*
X128630588Y-127551390D01*
X128630588Y-128127580D02*
X128630588Y-127027580D01*
X128630588Y-127027580D02*
X129154398Y-127027580D01*
X130202017Y-128127580D02*
X129835350Y-127603771D01*
X129573445Y-128127580D02*
X129573445Y-127027580D01*
X129573445Y-127027580D02*
X129992493Y-127027580D01*
X129992493Y-127027580D02*
X130097255Y-127079961D01*
X130097255Y-127079961D02*
X130149636Y-127132342D01*
X130149636Y-127132342D02*
X130202017Y-127237104D01*
X130202017Y-127237104D02*
X130202017Y-127394247D01*
X130202017Y-127394247D02*
X130149636Y-127499009D01*
X130149636Y-127499009D02*
X130097255Y-127551390D01*
X130097255Y-127551390D02*
X129992493Y-127603771D01*
X129992493Y-127603771D02*
X129573445Y-127603771D01*
X130882969Y-127027580D02*
X131092493Y-127027580D01*
X131092493Y-127027580D02*
X131197255Y-127079961D01*
X131197255Y-127079961D02*
X131302017Y-127184723D01*
X131302017Y-127184723D02*
X131354398Y-127394247D01*
X131354398Y-127394247D02*
X131354398Y-127760914D01*
X131354398Y-127760914D02*
X131302017Y-127970438D01*
X131302017Y-127970438D02*
X131197255Y-128075200D01*
X131197255Y-128075200D02*
X131092493Y-128127580D01*
X131092493Y-128127580D02*
X130882969Y-128127580D01*
X130882969Y-128127580D02*
X130778207Y-128075200D01*
X130778207Y-128075200D02*
X130673445Y-127970438D01*
X130673445Y-127970438D02*
X130621064Y-127760914D01*
X130621064Y-127760914D02*
X130621064Y-127394247D01*
X130621064Y-127394247D02*
X130673445Y-127184723D01*
X130673445Y-127184723D02*
X130778207Y-127079961D01*
X130778207Y-127079961D02*
X130882969Y-127027580D01*
X131773445Y-128075200D02*
X131930588Y-128127580D01*
X131930588Y-128127580D02*
X132192493Y-128127580D01*
X132192493Y-128127580D02*
X132297255Y-128075200D01*
X132297255Y-128075200D02*
X132349636Y-128022819D01*
X132349636Y-128022819D02*
X132402017Y-127918057D01*
X132402017Y-127918057D02*
X132402017Y-127813295D01*
X132402017Y-127813295D02*
X132349636Y-127708533D01*
X132349636Y-127708533D02*
X132297255Y-127656152D01*
X132297255Y-127656152D02*
X132192493Y-127603771D01*
X132192493Y-127603771D02*
X131982969Y-127551390D01*
X131982969Y-127551390D02*
X131878207Y-127499009D01*
X131878207Y-127499009D02*
X131825826Y-127446628D01*
X131825826Y-127446628D02*
X131773445Y-127341866D01*
X131773445Y-127341866D02*
X131773445Y-127237104D01*
X131773445Y-127237104D02*
X131825826Y-127132342D01*
X131825826Y-127132342D02*
X131878207Y-127079961D01*
X131878207Y-127079961D02*
X131982969Y-127027580D01*
X131982969Y-127027580D02*
X132244874Y-127027580D01*
X132244874Y-127027580D02*
X132402017Y-127079961D01*
X132716302Y-127027580D02*
X133344874Y-127027580D01*
X133030588Y-128127580D02*
X133030588Y-127027580D01*
X133711540Y-128127580D02*
X133711540Y-127027580D01*
X134235350Y-128127580D02*
X134235350Y-127027580D01*
X134759160Y-128127580D02*
X134759160Y-127027580D01*
X136749637Y-128022819D02*
X136697256Y-128075200D01*
X136697256Y-128075200D02*
X136540113Y-128127580D01*
X136540113Y-128127580D02*
X136435351Y-128127580D01*
X136435351Y-128127580D02*
X136278208Y-128075200D01*
X136278208Y-128075200D02*
X136173446Y-127970438D01*
X136173446Y-127970438D02*
X136121065Y-127865676D01*
X136121065Y-127865676D02*
X136068684Y-127656152D01*
X136068684Y-127656152D02*
X136068684Y-127499009D01*
X136068684Y-127499009D02*
X136121065Y-127289485D01*
X136121065Y-127289485D02*
X136173446Y-127184723D01*
X136173446Y-127184723D02*
X136278208Y-127079961D01*
X136278208Y-127079961D02*
X136435351Y-127027580D01*
X136435351Y-127027580D02*
X136540113Y-127027580D01*
X136540113Y-127027580D02*
X136697256Y-127079961D01*
X136697256Y-127079961D02*
X136749637Y-127132342D01*
X137378208Y-128127580D02*
X137273446Y-128075200D01*
X137273446Y-128075200D02*
X137221065Y-128022819D01*
X137221065Y-128022819D02*
X137168684Y-127918057D01*
X137168684Y-127918057D02*
X137168684Y-127603771D01*
X137168684Y-127603771D02*
X137221065Y-127499009D01*
X137221065Y-127499009D02*
X137273446Y-127446628D01*
X137273446Y-127446628D02*
X137378208Y-127394247D01*
X137378208Y-127394247D02*
X137535351Y-127394247D01*
X137535351Y-127394247D02*
X137640113Y-127446628D01*
X137640113Y-127446628D02*
X137692494Y-127499009D01*
X137692494Y-127499009D02*
X137744875Y-127603771D01*
X137744875Y-127603771D02*
X137744875Y-127918057D01*
X137744875Y-127918057D02*
X137692494Y-128022819D01*
X137692494Y-128022819D02*
X137640113Y-128075200D01*
X137640113Y-128075200D02*
X137535351Y-128127580D01*
X137535351Y-128127580D02*
X137378208Y-128127580D01*
X138216303Y-127394247D02*
X138216303Y-128127580D01*
X138216303Y-127499009D02*
X138268684Y-127446628D01*
X138268684Y-127446628D02*
X138373446Y-127394247D01*
X138373446Y-127394247D02*
X138530589Y-127394247D01*
X138530589Y-127394247D02*
X138635351Y-127446628D01*
X138635351Y-127446628D02*
X138687732Y-127551390D01*
X138687732Y-127551390D02*
X138687732Y-128127580D01*
X139054398Y-127394247D02*
X139473446Y-127394247D01*
X139211541Y-127027580D02*
X139211541Y-127970438D01*
X139211541Y-127970438D02*
X139263922Y-128075200D01*
X139263922Y-128075200D02*
X139368684Y-128127580D01*
X139368684Y-128127580D02*
X139473446Y-128127580D01*
X139840112Y-128127580D02*
X139840112Y-127394247D01*
X139840112Y-127603771D02*
X139892493Y-127499009D01*
X139892493Y-127499009D02*
X139944874Y-127446628D01*
X139944874Y-127446628D02*
X140049636Y-127394247D01*
X140049636Y-127394247D02*
X140154398Y-127394247D01*
X140678207Y-128127580D02*
X140573445Y-128075200D01*
X140573445Y-128075200D02*
X140521064Y-128022819D01*
X140521064Y-128022819D02*
X140468683Y-127918057D01*
X140468683Y-127918057D02*
X140468683Y-127603771D01*
X140468683Y-127603771D02*
X140521064Y-127499009D01*
X140521064Y-127499009D02*
X140573445Y-127446628D01*
X140573445Y-127446628D02*
X140678207Y-127394247D01*
X140678207Y-127394247D02*
X140835350Y-127394247D01*
X140835350Y-127394247D02*
X140940112Y-127446628D01*
X140940112Y-127446628D02*
X140992493Y-127499009D01*
X140992493Y-127499009D02*
X141044874Y-127603771D01*
X141044874Y-127603771D02*
X141044874Y-127918057D01*
X141044874Y-127918057D02*
X140992493Y-128022819D01*
X140992493Y-128022819D02*
X140940112Y-128075200D01*
X140940112Y-128075200D02*
X140835350Y-128127580D01*
X140835350Y-128127580D02*
X140678207Y-128127580D01*
X141673445Y-128127580D02*
X141568683Y-128075200D01*
X141568683Y-128075200D02*
X141516302Y-127970438D01*
X141516302Y-127970438D02*
X141516302Y-127027580D01*
X143297254Y-127551390D02*
X143454397Y-127603771D01*
X143454397Y-127603771D02*
X143506778Y-127656152D01*
X143506778Y-127656152D02*
X143559159Y-127760914D01*
X143559159Y-127760914D02*
X143559159Y-127918057D01*
X143559159Y-127918057D02*
X143506778Y-128022819D01*
X143506778Y-128022819D02*
X143454397Y-128075200D01*
X143454397Y-128075200D02*
X143349635Y-128127580D01*
X143349635Y-128127580D02*
X142930587Y-128127580D01*
X142930587Y-128127580D02*
X142930587Y-127027580D01*
X142930587Y-127027580D02*
X143297254Y-127027580D01*
X143297254Y-127027580D02*
X143402016Y-127079961D01*
X143402016Y-127079961D02*
X143454397Y-127132342D01*
X143454397Y-127132342D02*
X143506778Y-127237104D01*
X143506778Y-127237104D02*
X143506778Y-127341866D01*
X143506778Y-127341866D02*
X143454397Y-127446628D01*
X143454397Y-127446628D02*
X143402016Y-127499009D01*
X143402016Y-127499009D02*
X143297254Y-127551390D01*
X143297254Y-127551390D02*
X142930587Y-127551390D01*
X144187730Y-128127580D02*
X144082968Y-128075200D01*
X144082968Y-128075200D02*
X144030587Y-128022819D01*
X144030587Y-128022819D02*
X143978206Y-127918057D01*
X143978206Y-127918057D02*
X143978206Y-127603771D01*
X143978206Y-127603771D02*
X144030587Y-127499009D01*
X144030587Y-127499009D02*
X144082968Y-127446628D01*
X144082968Y-127446628D02*
X144187730Y-127394247D01*
X144187730Y-127394247D02*
X144344873Y-127394247D01*
X144344873Y-127394247D02*
X144449635Y-127446628D01*
X144449635Y-127446628D02*
X144502016Y-127499009D01*
X144502016Y-127499009D02*
X144554397Y-127603771D01*
X144554397Y-127603771D02*
X144554397Y-127918057D01*
X144554397Y-127918057D02*
X144502016Y-128022819D01*
X144502016Y-128022819D02*
X144449635Y-128075200D01*
X144449635Y-128075200D02*
X144344873Y-128127580D01*
X144344873Y-128127580D02*
X144187730Y-128127580D01*
X145497254Y-128127580D02*
X145497254Y-127551390D01*
X145497254Y-127551390D02*
X145444873Y-127446628D01*
X145444873Y-127446628D02*
X145340111Y-127394247D01*
X145340111Y-127394247D02*
X145130587Y-127394247D01*
X145130587Y-127394247D02*
X145025825Y-127446628D01*
X145497254Y-128075200D02*
X145392492Y-128127580D01*
X145392492Y-128127580D02*
X145130587Y-128127580D01*
X145130587Y-128127580D02*
X145025825Y-128075200D01*
X145025825Y-128075200D02*
X144973444Y-127970438D01*
X144973444Y-127970438D02*
X144973444Y-127865676D01*
X144973444Y-127865676D02*
X145025825Y-127760914D01*
X145025825Y-127760914D02*
X145130587Y-127708533D01*
X145130587Y-127708533D02*
X145392492Y-127708533D01*
X145392492Y-127708533D02*
X145497254Y-127656152D01*
X146021063Y-128127580D02*
X146021063Y-127394247D01*
X146021063Y-127603771D02*
X146073444Y-127499009D01*
X146073444Y-127499009D02*
X146125825Y-127446628D01*
X146125825Y-127446628D02*
X146230587Y-127394247D01*
X146230587Y-127394247D02*
X146335349Y-127394247D01*
X147173444Y-128127580D02*
X147173444Y-127027580D01*
X147173444Y-128075200D02*
X147068682Y-128127580D01*
X147068682Y-128127580D02*
X146859158Y-128127580D01*
X146859158Y-128127580D02*
X146754396Y-128075200D01*
X146754396Y-128075200D02*
X146702015Y-128022819D01*
X146702015Y-128022819D02*
X146649634Y-127918057D01*
X146649634Y-127918057D02*
X146649634Y-127603771D01*
X146649634Y-127603771D02*
X146702015Y-127499009D01*
X146702015Y-127499009D02*
X146754396Y-127446628D01*
X146754396Y-127446628D02*
X146859158Y-127394247D01*
X146859158Y-127394247D02*
X147068682Y-127394247D01*
X147068682Y-127394247D02*
X147173444Y-127446628D01*
X115470414Y-79375601D02*
X115470414Y-79732744D01*
X115470414Y-79732744D02*
X114720414Y-79732744D01*
X115470414Y-79125601D02*
X114970414Y-79125601D01*
X114720414Y-79125601D02*
X114756128Y-79161315D01*
X114756128Y-79161315D02*
X114791842Y-79125601D01*
X114791842Y-79125601D02*
X114756128Y-79089887D01*
X114756128Y-79089887D02*
X114720414Y-79125601D01*
X114720414Y-79125601D02*
X114791842Y-79125601D01*
X114970414Y-78768458D02*
X115470414Y-78768458D01*
X115041842Y-78768458D02*
X115006128Y-78732744D01*
X115006128Y-78732744D02*
X114970414Y-78661315D01*
X114970414Y-78661315D02*
X114970414Y-78554172D01*
X114970414Y-78554172D02*
X115006128Y-78482744D01*
X115006128Y-78482744D02*
X115077557Y-78447030D01*
X115077557Y-78447030D02*
X115470414Y-78447030D01*
X115434700Y-77804173D02*
X115470414Y-77875601D01*
X115470414Y-77875601D02*
X115470414Y-78018459D01*
X115470414Y-78018459D02*
X115434700Y-78089887D01*
X115434700Y-78089887D02*
X115363271Y-78125601D01*
X115363271Y-78125601D02*
X115077557Y-78125601D01*
X115077557Y-78125601D02*
X115006128Y-78089887D01*
X115006128Y-78089887D02*
X114970414Y-78018459D01*
X114970414Y-78018459D02*
X114970414Y-77875601D01*
X114970414Y-77875601D02*
X115006128Y-77804173D01*
X115006128Y-77804173D02*
X115077557Y-77768459D01*
X115077557Y-77768459D02*
X115148985Y-77768459D01*
X115148985Y-77768459D02*
X115220414Y-78125601D01*
X115434700Y-76911315D02*
X115470414Y-76804173D01*
X115470414Y-76804173D02*
X115470414Y-76625601D01*
X115470414Y-76625601D02*
X115434700Y-76554173D01*
X115434700Y-76554173D02*
X115398985Y-76518458D01*
X115398985Y-76518458D02*
X115327557Y-76482744D01*
X115327557Y-76482744D02*
X115256128Y-76482744D01*
X115256128Y-76482744D02*
X115184700Y-76518458D01*
X115184700Y-76518458D02*
X115148985Y-76554173D01*
X115148985Y-76554173D02*
X115113271Y-76625601D01*
X115113271Y-76625601D02*
X115077557Y-76768458D01*
X115077557Y-76768458D02*
X115041842Y-76839887D01*
X115041842Y-76839887D02*
X115006128Y-76875601D01*
X115006128Y-76875601D02*
X114934700Y-76911315D01*
X114934700Y-76911315D02*
X114863271Y-76911315D01*
X114863271Y-76911315D02*
X114791842Y-76875601D01*
X114791842Y-76875601D02*
X114756128Y-76839887D01*
X114756128Y-76839887D02*
X114720414Y-76768458D01*
X114720414Y-76768458D02*
X114720414Y-76589887D01*
X114720414Y-76589887D02*
X114756128Y-76482744D01*
X115434700Y-75875601D02*
X115470414Y-75947029D01*
X115470414Y-75947029D02*
X115470414Y-76089887D01*
X115470414Y-76089887D02*
X115434700Y-76161315D01*
X115434700Y-76161315D02*
X115363271Y-76197029D01*
X115363271Y-76197029D02*
X115077557Y-76197029D01*
X115077557Y-76197029D02*
X115006128Y-76161315D01*
X115006128Y-76161315D02*
X114970414Y-76089887D01*
X114970414Y-76089887D02*
X114970414Y-75947029D01*
X114970414Y-75947029D02*
X115006128Y-75875601D01*
X115006128Y-75875601D02*
X115077557Y-75839887D01*
X115077557Y-75839887D02*
X115148985Y-75839887D01*
X115148985Y-75839887D02*
X115220414Y-76197029D01*
X114970414Y-75518458D02*
X115470414Y-75518458D01*
X115041842Y-75518458D02*
X115006128Y-75482744D01*
X115006128Y-75482744D02*
X114970414Y-75411315D01*
X114970414Y-75411315D02*
X114970414Y-75304172D01*
X114970414Y-75304172D02*
X115006128Y-75232744D01*
X115006128Y-75232744D02*
X115077557Y-75197030D01*
X115077557Y-75197030D02*
X115470414Y-75197030D01*
X115434700Y-74875601D02*
X115470414Y-74804173D01*
X115470414Y-74804173D02*
X115470414Y-74661316D01*
X115470414Y-74661316D02*
X115434700Y-74589887D01*
X115434700Y-74589887D02*
X115363271Y-74554173D01*
X115363271Y-74554173D02*
X115327557Y-74554173D01*
X115327557Y-74554173D02*
X115256128Y-74589887D01*
X115256128Y-74589887D02*
X115220414Y-74661316D01*
X115220414Y-74661316D02*
X115220414Y-74768459D01*
X115220414Y-74768459D02*
X115184700Y-74839887D01*
X115184700Y-74839887D02*
X115113271Y-74875601D01*
X115113271Y-74875601D02*
X115077557Y-74875601D01*
X115077557Y-74875601D02*
X115006128Y-74839887D01*
X115006128Y-74839887D02*
X114970414Y-74768459D01*
X114970414Y-74768459D02*
X114970414Y-74661316D01*
X114970414Y-74661316D02*
X115006128Y-74589887D01*
X115470414Y-74125601D02*
X115434700Y-74197030D01*
X115434700Y-74197030D02*
X115398985Y-74232744D01*
X115398985Y-74232744D02*
X115327557Y-74268458D01*
X115327557Y-74268458D02*
X115113271Y-74268458D01*
X115113271Y-74268458D02*
X115041842Y-74232744D01*
X115041842Y-74232744D02*
X115006128Y-74197030D01*
X115006128Y-74197030D02*
X114970414Y-74125601D01*
X114970414Y-74125601D02*
X114970414Y-74018458D01*
X114970414Y-74018458D02*
X115006128Y-73947030D01*
X115006128Y-73947030D02*
X115041842Y-73911316D01*
X115041842Y-73911316D02*
X115113271Y-73875601D01*
X115113271Y-73875601D02*
X115327557Y-73875601D01*
X115327557Y-73875601D02*
X115398985Y-73911316D01*
X115398985Y-73911316D02*
X115434700Y-73947030D01*
X115434700Y-73947030D02*
X115470414Y-74018458D01*
X115470414Y-74018458D02*
X115470414Y-74125601D01*
X115470414Y-73554173D02*
X114970414Y-73554173D01*
X115113271Y-73554173D02*
X115041842Y-73518459D01*
X115041842Y-73518459D02*
X115006128Y-73482745D01*
X115006128Y-73482745D02*
X114970414Y-73411316D01*
X114970414Y-73411316D02*
X114970414Y-73339887D01*
X115470414Y-63500601D02*
X115470414Y-63857744D01*
X115470414Y-63857744D02*
X114720414Y-63857744D01*
X115470414Y-63250601D02*
X114970414Y-63250601D01*
X114720414Y-63250601D02*
X114756128Y-63286315D01*
X114756128Y-63286315D02*
X114791842Y-63250601D01*
X114791842Y-63250601D02*
X114756128Y-63214887D01*
X114756128Y-63214887D02*
X114720414Y-63250601D01*
X114720414Y-63250601D02*
X114791842Y-63250601D01*
X114970414Y-62893458D02*
X115470414Y-62893458D01*
X115041842Y-62893458D02*
X115006128Y-62857744D01*
X115006128Y-62857744D02*
X114970414Y-62786315D01*
X114970414Y-62786315D02*
X114970414Y-62679172D01*
X114970414Y-62679172D02*
X115006128Y-62607744D01*
X115006128Y-62607744D02*
X115077557Y-62572030D01*
X115077557Y-62572030D02*
X115470414Y-62572030D01*
X115434700Y-61929173D02*
X115470414Y-62000601D01*
X115470414Y-62000601D02*
X115470414Y-62143459D01*
X115470414Y-62143459D02*
X115434700Y-62214887D01*
X115434700Y-62214887D02*
X115363271Y-62250601D01*
X115363271Y-62250601D02*
X115077557Y-62250601D01*
X115077557Y-62250601D02*
X115006128Y-62214887D01*
X115006128Y-62214887D02*
X114970414Y-62143459D01*
X114970414Y-62143459D02*
X114970414Y-62000601D01*
X114970414Y-62000601D02*
X115006128Y-61929173D01*
X115006128Y-61929173D02*
X115077557Y-61893459D01*
X115077557Y-61893459D02*
X115148985Y-61893459D01*
X115148985Y-61893459D02*
X115220414Y-62250601D01*
X115434700Y-61036315D02*
X115470414Y-60929173D01*
X115470414Y-60929173D02*
X115470414Y-60750601D01*
X115470414Y-60750601D02*
X115434700Y-60679173D01*
X115434700Y-60679173D02*
X115398985Y-60643458D01*
X115398985Y-60643458D02*
X115327557Y-60607744D01*
X115327557Y-60607744D02*
X115256128Y-60607744D01*
X115256128Y-60607744D02*
X115184700Y-60643458D01*
X115184700Y-60643458D02*
X115148985Y-60679173D01*
X115148985Y-60679173D02*
X115113271Y-60750601D01*
X115113271Y-60750601D02*
X115077557Y-60893458D01*
X115077557Y-60893458D02*
X115041842Y-60964887D01*
X115041842Y-60964887D02*
X115006128Y-61000601D01*
X115006128Y-61000601D02*
X114934700Y-61036315D01*
X114934700Y-61036315D02*
X114863271Y-61036315D01*
X114863271Y-61036315D02*
X114791842Y-61000601D01*
X114791842Y-61000601D02*
X114756128Y-60964887D01*
X114756128Y-60964887D02*
X114720414Y-60893458D01*
X114720414Y-60893458D02*
X114720414Y-60714887D01*
X114720414Y-60714887D02*
X114756128Y-60607744D01*
X115434700Y-60000601D02*
X115470414Y-60072029D01*
X115470414Y-60072029D02*
X115470414Y-60214887D01*
X115470414Y-60214887D02*
X115434700Y-60286315D01*
X115434700Y-60286315D02*
X115363271Y-60322029D01*
X115363271Y-60322029D02*
X115077557Y-60322029D01*
X115077557Y-60322029D02*
X115006128Y-60286315D01*
X115006128Y-60286315D02*
X114970414Y-60214887D01*
X114970414Y-60214887D02*
X114970414Y-60072029D01*
X114970414Y-60072029D02*
X115006128Y-60000601D01*
X115006128Y-60000601D02*
X115077557Y-59964887D01*
X115077557Y-59964887D02*
X115148985Y-59964887D01*
X115148985Y-59964887D02*
X115220414Y-60322029D01*
X114970414Y-59643458D02*
X115470414Y-59643458D01*
X115041842Y-59643458D02*
X115006128Y-59607744D01*
X115006128Y-59607744D02*
X114970414Y-59536315D01*
X114970414Y-59536315D02*
X114970414Y-59429172D01*
X114970414Y-59429172D02*
X115006128Y-59357744D01*
X115006128Y-59357744D02*
X115077557Y-59322030D01*
X115077557Y-59322030D02*
X115470414Y-59322030D01*
X115434700Y-59000601D02*
X115470414Y-58929173D01*
X115470414Y-58929173D02*
X115470414Y-58786316D01*
X115470414Y-58786316D02*
X115434700Y-58714887D01*
X115434700Y-58714887D02*
X115363271Y-58679173D01*
X115363271Y-58679173D02*
X115327557Y-58679173D01*
X115327557Y-58679173D02*
X115256128Y-58714887D01*
X115256128Y-58714887D02*
X115220414Y-58786316D01*
X115220414Y-58786316D02*
X115220414Y-58893459D01*
X115220414Y-58893459D02*
X115184700Y-58964887D01*
X115184700Y-58964887D02*
X115113271Y-59000601D01*
X115113271Y-59000601D02*
X115077557Y-59000601D01*
X115077557Y-59000601D02*
X115006128Y-58964887D01*
X115006128Y-58964887D02*
X114970414Y-58893459D01*
X114970414Y-58893459D02*
X114970414Y-58786316D01*
X114970414Y-58786316D02*
X115006128Y-58714887D01*
X115470414Y-58250601D02*
X115434700Y-58322030D01*
X115434700Y-58322030D02*
X115398985Y-58357744D01*
X115398985Y-58357744D02*
X115327557Y-58393458D01*
X115327557Y-58393458D02*
X115113271Y-58393458D01*
X115113271Y-58393458D02*
X115041842Y-58357744D01*
X115041842Y-58357744D02*
X115006128Y-58322030D01*
X115006128Y-58322030D02*
X114970414Y-58250601D01*
X114970414Y-58250601D02*
X114970414Y-58143458D01*
X114970414Y-58143458D02*
X115006128Y-58072030D01*
X115006128Y-58072030D02*
X115041842Y-58036316D01*
X115041842Y-58036316D02*
X115113271Y-58000601D01*
X115113271Y-58000601D02*
X115327557Y-58000601D01*
X115327557Y-58000601D02*
X115398985Y-58036316D01*
X115398985Y-58036316D02*
X115434700Y-58072030D01*
X115434700Y-58072030D02*
X115470414Y-58143458D01*
X115470414Y-58143458D02*
X115470414Y-58250601D01*
X115470414Y-57679173D02*
X114970414Y-57679173D01*
X115113271Y-57679173D02*
X115041842Y-57643459D01*
X115041842Y-57643459D02*
X115006128Y-57607745D01*
X115006128Y-57607745D02*
X114970414Y-57536316D01*
X114970414Y-57536316D02*
X114970414Y-57464887D01*
X133591541Y-133214700D02*
X133698684Y-133250414D01*
X133698684Y-133250414D02*
X133877255Y-133250414D01*
X133877255Y-133250414D02*
X133948684Y-133214700D01*
X133948684Y-133214700D02*
X133984398Y-133178985D01*
X133984398Y-133178985D02*
X134020112Y-133107557D01*
X134020112Y-133107557D02*
X134020112Y-133036128D01*
X134020112Y-133036128D02*
X133984398Y-132964700D01*
X133984398Y-132964700D02*
X133948684Y-132928985D01*
X133948684Y-132928985D02*
X133877255Y-132893271D01*
X133877255Y-132893271D02*
X133734398Y-132857557D01*
X133734398Y-132857557D02*
X133662969Y-132821842D01*
X133662969Y-132821842D02*
X133627255Y-132786128D01*
X133627255Y-132786128D02*
X133591541Y-132714700D01*
X133591541Y-132714700D02*
X133591541Y-132643271D01*
X133591541Y-132643271D02*
X133627255Y-132571842D01*
X133627255Y-132571842D02*
X133662969Y-132536128D01*
X133662969Y-132536128D02*
X133734398Y-132500414D01*
X133734398Y-132500414D02*
X133912969Y-132500414D01*
X133912969Y-132500414D02*
X134020112Y-132536128D01*
X134341541Y-132750414D02*
X134341541Y-133500414D01*
X134341541Y-132786128D02*
X134412970Y-132750414D01*
X134412970Y-132750414D02*
X134555827Y-132750414D01*
X134555827Y-132750414D02*
X134627255Y-132786128D01*
X134627255Y-132786128D02*
X134662970Y-132821842D01*
X134662970Y-132821842D02*
X134698684Y-132893271D01*
X134698684Y-132893271D02*
X134698684Y-133107557D01*
X134698684Y-133107557D02*
X134662970Y-133178985D01*
X134662970Y-133178985D02*
X134627255Y-133214700D01*
X134627255Y-133214700D02*
X134555827Y-133250414D01*
X134555827Y-133250414D02*
X134412970Y-133250414D01*
X134412970Y-133250414D02*
X134341541Y-133214700D01*
X135020112Y-133250414D02*
X135020112Y-132750414D01*
X135020112Y-132893271D02*
X135055826Y-132821842D01*
X135055826Y-132821842D02*
X135091541Y-132786128D01*
X135091541Y-132786128D02*
X135162969Y-132750414D01*
X135162969Y-132750414D02*
X135234398Y-132750414D01*
X135484398Y-133250414D02*
X135484398Y-132750414D01*
X135484398Y-132500414D02*
X135448684Y-132536128D01*
X135448684Y-132536128D02*
X135484398Y-132571842D01*
X135484398Y-132571842D02*
X135520112Y-132536128D01*
X135520112Y-132536128D02*
X135484398Y-132500414D01*
X135484398Y-132500414D02*
X135484398Y-132571842D01*
X135841541Y-132750414D02*
X135841541Y-133250414D01*
X135841541Y-132821842D02*
X135877255Y-132786128D01*
X135877255Y-132786128D02*
X135948684Y-132750414D01*
X135948684Y-132750414D02*
X136055827Y-132750414D01*
X136055827Y-132750414D02*
X136127255Y-132786128D01*
X136127255Y-132786128D02*
X136162970Y-132857557D01*
X136162970Y-132857557D02*
X136162970Y-133250414D01*
X136841541Y-132750414D02*
X136841541Y-133357557D01*
X136841541Y-133357557D02*
X136805826Y-133428985D01*
X136805826Y-133428985D02*
X136770112Y-133464700D01*
X136770112Y-133464700D02*
X136698683Y-133500414D01*
X136698683Y-133500414D02*
X136591541Y-133500414D01*
X136591541Y-133500414D02*
X136520112Y-133464700D01*
X136841541Y-133214700D02*
X136770112Y-133250414D01*
X136770112Y-133250414D02*
X136627255Y-133250414D01*
X136627255Y-133250414D02*
X136555826Y-133214700D01*
X136555826Y-133214700D02*
X136520112Y-133178985D01*
X136520112Y-133178985D02*
X136484398Y-133107557D01*
X136484398Y-133107557D02*
X136484398Y-132893271D01*
X136484398Y-132893271D02*
X136520112Y-132821842D01*
X136520112Y-132821842D02*
X136555826Y-132786128D01*
X136555826Y-132786128D02*
X136627255Y-132750414D01*
X136627255Y-132750414D02*
X136770112Y-132750414D01*
X136770112Y-132750414D02*
X136841541Y-132786128D01*
X137734398Y-132571842D02*
X137770112Y-132536128D01*
X137770112Y-132536128D02*
X137841541Y-132500414D01*
X137841541Y-132500414D02*
X138020112Y-132500414D01*
X138020112Y-132500414D02*
X138091541Y-132536128D01*
X138091541Y-132536128D02*
X138127255Y-132571842D01*
X138127255Y-132571842D02*
X138162969Y-132643271D01*
X138162969Y-132643271D02*
X138162969Y-132714700D01*
X138162969Y-132714700D02*
X138127255Y-132821842D01*
X138127255Y-132821842D02*
X137698683Y-133250414D01*
X137698683Y-133250414D02*
X138162969Y-133250414D01*
X138627255Y-132500414D02*
X138698684Y-132500414D01*
X138698684Y-132500414D02*
X138770112Y-132536128D01*
X138770112Y-132536128D02*
X138805827Y-132571842D01*
X138805827Y-132571842D02*
X138841541Y-132643271D01*
X138841541Y-132643271D02*
X138877255Y-132786128D01*
X138877255Y-132786128D02*
X138877255Y-132964700D01*
X138877255Y-132964700D02*
X138841541Y-133107557D01*
X138841541Y-133107557D02*
X138805827Y-133178985D01*
X138805827Y-133178985D02*
X138770112Y-133214700D01*
X138770112Y-133214700D02*
X138698684Y-133250414D01*
X138698684Y-133250414D02*
X138627255Y-133250414D01*
X138627255Y-133250414D02*
X138555827Y-133214700D01*
X138555827Y-133214700D02*
X138520112Y-133178985D01*
X138520112Y-133178985D02*
X138484398Y-133107557D01*
X138484398Y-133107557D02*
X138448684Y-132964700D01*
X138448684Y-132964700D02*
X138448684Y-132786128D01*
X138448684Y-132786128D02*
X138484398Y-132643271D01*
X138484398Y-132643271D02*
X138520112Y-132571842D01*
X138520112Y-132571842D02*
X138555827Y-132536128D01*
X138555827Y-132536128D02*
X138627255Y-132500414D01*
X139162970Y-132571842D02*
X139198684Y-132536128D01*
X139198684Y-132536128D02*
X139270113Y-132500414D01*
X139270113Y-132500414D02*
X139448684Y-132500414D01*
X139448684Y-132500414D02*
X139520113Y-132536128D01*
X139520113Y-132536128D02*
X139555827Y-132571842D01*
X139555827Y-132571842D02*
X139591541Y-132643271D01*
X139591541Y-132643271D02*
X139591541Y-132714700D01*
X139591541Y-132714700D02*
X139555827Y-132821842D01*
X139555827Y-132821842D02*
X139127255Y-133250414D01*
X139127255Y-133250414D02*
X139591541Y-133250414D01*
X140234399Y-132750414D02*
X140234399Y-133250414D01*
X140055827Y-132464700D02*
X139877256Y-133000414D01*
X139877256Y-133000414D02*
X140341541Y-133000414D01*
X129829160Y-130704295D02*
X129829160Y-129904295D01*
X129829160Y-129904295D02*
X130019636Y-129904295D01*
X130019636Y-129904295D02*
X130133922Y-129942390D01*
X130133922Y-129942390D02*
X130210112Y-130018580D01*
X130210112Y-130018580D02*
X130248207Y-130094771D01*
X130248207Y-130094771D02*
X130286303Y-130247152D01*
X130286303Y-130247152D02*
X130286303Y-130361438D01*
X130286303Y-130361438D02*
X130248207Y-130513819D01*
X130248207Y-130513819D02*
X130210112Y-130590009D01*
X130210112Y-130590009D02*
X130133922Y-130666200D01*
X130133922Y-130666200D02*
X130019636Y-130704295D01*
X130019636Y-130704295D02*
X129829160Y-130704295D01*
X130933922Y-130666200D02*
X130857731Y-130704295D01*
X130857731Y-130704295D02*
X130705350Y-130704295D01*
X130705350Y-130704295D02*
X130629160Y-130666200D01*
X130629160Y-130666200D02*
X130591064Y-130590009D01*
X130591064Y-130590009D02*
X130591064Y-130285247D01*
X130591064Y-130285247D02*
X130629160Y-130209057D01*
X130629160Y-130209057D02*
X130705350Y-130170961D01*
X130705350Y-130170961D02*
X130857731Y-130170961D01*
X130857731Y-130170961D02*
X130933922Y-130209057D01*
X130933922Y-130209057D02*
X130972017Y-130285247D01*
X130972017Y-130285247D02*
X130972017Y-130361438D01*
X130972017Y-130361438D02*
X130591064Y-130437628D01*
X131276778Y-130666200D02*
X131352969Y-130704295D01*
X131352969Y-130704295D02*
X131505350Y-130704295D01*
X131505350Y-130704295D02*
X131581540Y-130666200D01*
X131581540Y-130666200D02*
X131619636Y-130590009D01*
X131619636Y-130590009D02*
X131619636Y-130551914D01*
X131619636Y-130551914D02*
X131581540Y-130475723D01*
X131581540Y-130475723D02*
X131505350Y-130437628D01*
X131505350Y-130437628D02*
X131391064Y-130437628D01*
X131391064Y-130437628D02*
X131314874Y-130399533D01*
X131314874Y-130399533D02*
X131276778Y-130323342D01*
X131276778Y-130323342D02*
X131276778Y-130285247D01*
X131276778Y-130285247D02*
X131314874Y-130209057D01*
X131314874Y-130209057D02*
X131391064Y-130170961D01*
X131391064Y-130170961D02*
X131505350Y-130170961D01*
X131505350Y-130170961D02*
X131581540Y-130209057D01*
X131962493Y-130704295D02*
X131962493Y-130170961D01*
X131962493Y-129904295D02*
X131924397Y-129942390D01*
X131924397Y-129942390D02*
X131962493Y-129980485D01*
X131962493Y-129980485D02*
X132000588Y-129942390D01*
X132000588Y-129942390D02*
X131962493Y-129904295D01*
X131962493Y-129904295D02*
X131962493Y-129980485D01*
X132686302Y-130170961D02*
X132686302Y-130818580D01*
X132686302Y-130818580D02*
X132648207Y-130894771D01*
X132648207Y-130894771D02*
X132610111Y-130932866D01*
X132610111Y-130932866D02*
X132533921Y-130970961D01*
X132533921Y-130970961D02*
X132419635Y-130970961D01*
X132419635Y-130970961D02*
X132343445Y-130932866D01*
X132686302Y-130666200D02*
X132610111Y-130704295D01*
X132610111Y-130704295D02*
X132457730Y-130704295D01*
X132457730Y-130704295D02*
X132381540Y-130666200D01*
X132381540Y-130666200D02*
X132343445Y-130628104D01*
X132343445Y-130628104D02*
X132305349Y-130551914D01*
X132305349Y-130551914D02*
X132305349Y-130323342D01*
X132305349Y-130323342D02*
X132343445Y-130247152D01*
X132343445Y-130247152D02*
X132381540Y-130209057D01*
X132381540Y-130209057D02*
X132457730Y-130170961D01*
X132457730Y-130170961D02*
X132610111Y-130170961D01*
X132610111Y-130170961D02*
X132686302Y-130209057D01*
X133067255Y-130170961D02*
X133067255Y-130704295D01*
X133067255Y-130247152D02*
X133105350Y-130209057D01*
X133105350Y-130209057D02*
X133181540Y-130170961D01*
X133181540Y-130170961D02*
X133295826Y-130170961D01*
X133295826Y-130170961D02*
X133372017Y-130209057D01*
X133372017Y-130209057D02*
X133410112Y-130285247D01*
X133410112Y-130285247D02*
X133410112Y-130704295D01*
X134095827Y-130666200D02*
X134019636Y-130704295D01*
X134019636Y-130704295D02*
X133867255Y-130704295D01*
X133867255Y-130704295D02*
X133791065Y-130666200D01*
X133791065Y-130666200D02*
X133752969Y-130590009D01*
X133752969Y-130590009D02*
X133752969Y-130285247D01*
X133752969Y-130285247D02*
X133791065Y-130209057D01*
X133791065Y-130209057D02*
X133867255Y-130170961D01*
X133867255Y-130170961D02*
X134019636Y-130170961D01*
X134019636Y-130170961D02*
X134095827Y-130209057D01*
X134095827Y-130209057D02*
X134133922Y-130285247D01*
X134133922Y-130285247D02*
X134133922Y-130361438D01*
X134133922Y-130361438D02*
X133752969Y-130437628D01*
X134819636Y-130704295D02*
X134819636Y-129904295D01*
X134819636Y-130666200D02*
X134743445Y-130704295D01*
X134743445Y-130704295D02*
X134591064Y-130704295D01*
X134591064Y-130704295D02*
X134514874Y-130666200D01*
X134514874Y-130666200D02*
X134476779Y-130628104D01*
X134476779Y-130628104D02*
X134438683Y-130551914D01*
X134438683Y-130551914D02*
X134438683Y-130323342D01*
X134438683Y-130323342D02*
X134476779Y-130247152D01*
X134476779Y-130247152D02*
X134514874Y-130209057D01*
X134514874Y-130209057D02*
X134591064Y-130170961D01*
X134591064Y-130170961D02*
X134743445Y-130170961D01*
X134743445Y-130170961D02*
X134819636Y-130209057D01*
X135810113Y-130704295D02*
X135810113Y-129904295D01*
X135810113Y-130209057D02*
X135886303Y-130170961D01*
X135886303Y-130170961D02*
X136038684Y-130170961D01*
X136038684Y-130170961D02*
X136114875Y-130209057D01*
X136114875Y-130209057D02*
X136152970Y-130247152D01*
X136152970Y-130247152D02*
X136191065Y-130323342D01*
X136191065Y-130323342D02*
X136191065Y-130551914D01*
X136191065Y-130551914D02*
X136152970Y-130628104D01*
X136152970Y-130628104D02*
X136114875Y-130666200D01*
X136114875Y-130666200D02*
X136038684Y-130704295D01*
X136038684Y-130704295D02*
X135886303Y-130704295D01*
X135886303Y-130704295D02*
X135810113Y-130666200D01*
X136457732Y-130170961D02*
X136648208Y-130704295D01*
X136838685Y-130170961D02*
X136648208Y-130704295D01*
X136648208Y-130704295D02*
X136572018Y-130894771D01*
X136572018Y-130894771D02*
X136533923Y-130932866D01*
X136533923Y-130932866D02*
X136457732Y-130970961D01*
X138210114Y-130704295D02*
X137943447Y-130323342D01*
X137752971Y-130704295D02*
X137752971Y-129904295D01*
X137752971Y-129904295D02*
X138057733Y-129904295D01*
X138057733Y-129904295D02*
X138133923Y-129942390D01*
X138133923Y-129942390D02*
X138172018Y-129980485D01*
X138172018Y-129980485D02*
X138210114Y-130056676D01*
X138210114Y-130056676D02*
X138210114Y-130170961D01*
X138210114Y-130170961D02*
X138172018Y-130247152D01*
X138172018Y-130247152D02*
X138133923Y-130285247D01*
X138133923Y-130285247D02*
X138057733Y-130323342D01*
X138057733Y-130323342D02*
X137752971Y-130323342D01*
X138895828Y-130170961D02*
X138895828Y-130704295D01*
X138552971Y-130170961D02*
X138552971Y-130590009D01*
X138552971Y-130590009D02*
X138591066Y-130666200D01*
X138591066Y-130666200D02*
X138667256Y-130704295D01*
X138667256Y-130704295D02*
X138781542Y-130704295D01*
X138781542Y-130704295D02*
X138857733Y-130666200D01*
X138857733Y-130666200D02*
X138895828Y-130628104D01*
X139619638Y-130704295D02*
X139619638Y-129904295D01*
X139619638Y-130666200D02*
X139543447Y-130704295D01*
X139543447Y-130704295D02*
X139391066Y-130704295D01*
X139391066Y-130704295D02*
X139314876Y-130666200D01*
X139314876Y-130666200D02*
X139276781Y-130628104D01*
X139276781Y-130628104D02*
X139238685Y-130551914D01*
X139238685Y-130551914D02*
X139238685Y-130323342D01*
X139238685Y-130323342D02*
X139276781Y-130247152D01*
X139276781Y-130247152D02*
X139314876Y-130209057D01*
X139314876Y-130209057D02*
X139391066Y-130170961D01*
X139391066Y-130170961D02*
X139543447Y-130170961D01*
X139543447Y-130170961D02*
X139619638Y-130209057D01*
X140000591Y-130704295D02*
X140000591Y-130170961D01*
X140000591Y-130323342D02*
X140038686Y-130247152D01*
X140038686Y-130247152D02*
X140076781Y-130209057D01*
X140076781Y-130209057D02*
X140152972Y-130170961D01*
X140152972Y-130170961D02*
X140229162Y-130170961D01*
X140838686Y-130704295D02*
X140838686Y-130285247D01*
X140838686Y-130285247D02*
X140800591Y-130209057D01*
X140800591Y-130209057D02*
X140724400Y-130170961D01*
X140724400Y-130170961D02*
X140572019Y-130170961D01*
X140572019Y-130170961D02*
X140495829Y-130209057D01*
X140838686Y-130666200D02*
X140762495Y-130704295D01*
X140762495Y-130704295D02*
X140572019Y-130704295D01*
X140572019Y-130704295D02*
X140495829Y-130666200D01*
X140495829Y-130666200D02*
X140457733Y-130590009D01*
X140457733Y-130590009D02*
X140457733Y-130513819D01*
X140457733Y-130513819D02*
X140495829Y-130437628D01*
X140495829Y-130437628D02*
X140572019Y-130399533D01*
X140572019Y-130399533D02*
X140762495Y-130399533D01*
X140762495Y-130399533D02*
X140838686Y-130361438D01*
X142248210Y-129942390D02*
X142172020Y-129904295D01*
X142172020Y-129904295D02*
X142057734Y-129904295D01*
X142057734Y-129904295D02*
X141943448Y-129942390D01*
X141943448Y-129942390D02*
X141867258Y-130018580D01*
X141867258Y-130018580D02*
X141829163Y-130094771D01*
X141829163Y-130094771D02*
X141791067Y-130247152D01*
X141791067Y-130247152D02*
X141791067Y-130361438D01*
X141791067Y-130361438D02*
X141829163Y-130513819D01*
X141829163Y-130513819D02*
X141867258Y-130590009D01*
X141867258Y-130590009D02*
X141943448Y-130666200D01*
X141943448Y-130666200D02*
X142057734Y-130704295D01*
X142057734Y-130704295D02*
X142133925Y-130704295D01*
X142133925Y-130704295D02*
X142248210Y-130666200D01*
X142248210Y-130666200D02*
X142286306Y-130628104D01*
X142286306Y-130628104D02*
X142286306Y-130361438D01*
X142286306Y-130361438D02*
X142133925Y-130361438D01*
X142743448Y-130704295D02*
X142667258Y-130666200D01*
X142667258Y-130666200D02*
X142629163Y-130628104D01*
X142629163Y-130628104D02*
X142591067Y-130551914D01*
X142591067Y-130551914D02*
X142591067Y-130323342D01*
X142591067Y-130323342D02*
X142629163Y-130247152D01*
X142629163Y-130247152D02*
X142667258Y-130209057D01*
X142667258Y-130209057D02*
X142743448Y-130170961D01*
X142743448Y-130170961D02*
X142857734Y-130170961D01*
X142857734Y-130170961D02*
X142933925Y-130209057D01*
X142933925Y-130209057D02*
X142972020Y-130247152D01*
X142972020Y-130247152D02*
X143010115Y-130323342D01*
X143010115Y-130323342D02*
X143010115Y-130551914D01*
X143010115Y-130551914D02*
X142972020Y-130628104D01*
X142972020Y-130628104D02*
X142933925Y-130666200D01*
X142933925Y-130666200D02*
X142857734Y-130704295D01*
X142857734Y-130704295D02*
X142743448Y-130704295D01*
X143657735Y-130666200D02*
X143581544Y-130704295D01*
X143581544Y-130704295D02*
X143429163Y-130704295D01*
X143429163Y-130704295D02*
X143352973Y-130666200D01*
X143352973Y-130666200D02*
X143314877Y-130590009D01*
X143314877Y-130590009D02*
X143314877Y-130285247D01*
X143314877Y-130285247D02*
X143352973Y-130209057D01*
X143352973Y-130209057D02*
X143429163Y-130170961D01*
X143429163Y-130170961D02*
X143581544Y-130170961D01*
X143581544Y-130170961D02*
X143657735Y-130209057D01*
X143657735Y-130209057D02*
X143695830Y-130285247D01*
X143695830Y-130285247D02*
X143695830Y-130361438D01*
X143695830Y-130361438D02*
X143314877Y-130437628D01*
X144152972Y-130704295D02*
X144076782Y-130666200D01*
X144076782Y-130666200D02*
X144038687Y-130590009D01*
X144038687Y-130590009D02*
X144038687Y-129904295D01*
X131980414Y-64492744D02*
X131230414Y-64492744D01*
X131230414Y-64492744D02*
X131230414Y-64314173D01*
X131230414Y-64314173D02*
X131266128Y-64207030D01*
X131266128Y-64207030D02*
X131337557Y-64135601D01*
X131337557Y-64135601D02*
X131408985Y-64099887D01*
X131408985Y-64099887D02*
X131551842Y-64064173D01*
X131551842Y-64064173D02*
X131658985Y-64064173D01*
X131658985Y-64064173D02*
X131801842Y-64099887D01*
X131801842Y-64099887D02*
X131873271Y-64135601D01*
X131873271Y-64135601D02*
X131944700Y-64207030D01*
X131944700Y-64207030D02*
X131980414Y-64314173D01*
X131980414Y-64314173D02*
X131980414Y-64492744D01*
X131980414Y-63742744D02*
X131480414Y-63742744D01*
X131230414Y-63742744D02*
X131266128Y-63778458D01*
X131266128Y-63778458D02*
X131301842Y-63742744D01*
X131301842Y-63742744D02*
X131266128Y-63707030D01*
X131266128Y-63707030D02*
X131230414Y-63742744D01*
X131230414Y-63742744D02*
X131301842Y-63742744D01*
X131944700Y-63421315D02*
X131980414Y-63349887D01*
X131980414Y-63349887D02*
X131980414Y-63207030D01*
X131980414Y-63207030D02*
X131944700Y-63135601D01*
X131944700Y-63135601D02*
X131873271Y-63099887D01*
X131873271Y-63099887D02*
X131837557Y-63099887D01*
X131837557Y-63099887D02*
X131766128Y-63135601D01*
X131766128Y-63135601D02*
X131730414Y-63207030D01*
X131730414Y-63207030D02*
X131730414Y-63314173D01*
X131730414Y-63314173D02*
X131694700Y-63385601D01*
X131694700Y-63385601D02*
X131623271Y-63421315D01*
X131623271Y-63421315D02*
X131587557Y-63421315D01*
X131587557Y-63421315D02*
X131516128Y-63385601D01*
X131516128Y-63385601D02*
X131480414Y-63314173D01*
X131480414Y-63314173D02*
X131480414Y-63207030D01*
X131480414Y-63207030D02*
X131516128Y-63135601D01*
X131480414Y-62885601D02*
X131480414Y-62599887D01*
X131230414Y-62778458D02*
X131873271Y-62778458D01*
X131873271Y-62778458D02*
X131944700Y-62742744D01*
X131944700Y-62742744D02*
X131980414Y-62671315D01*
X131980414Y-62671315D02*
X131980414Y-62599887D01*
X131980414Y-62028459D02*
X131587557Y-62028459D01*
X131587557Y-62028459D02*
X131516128Y-62064173D01*
X131516128Y-62064173D02*
X131480414Y-62135601D01*
X131480414Y-62135601D02*
X131480414Y-62278459D01*
X131480414Y-62278459D02*
X131516128Y-62349887D01*
X131944700Y-62028459D02*
X131980414Y-62099887D01*
X131980414Y-62099887D02*
X131980414Y-62278459D01*
X131980414Y-62278459D02*
X131944700Y-62349887D01*
X131944700Y-62349887D02*
X131873271Y-62385601D01*
X131873271Y-62385601D02*
X131801842Y-62385601D01*
X131801842Y-62385601D02*
X131730414Y-62349887D01*
X131730414Y-62349887D02*
X131694700Y-62278459D01*
X131694700Y-62278459D02*
X131694700Y-62099887D01*
X131694700Y-62099887D02*
X131658985Y-62028459D01*
X131480414Y-61671316D02*
X131980414Y-61671316D01*
X131551842Y-61671316D02*
X131516128Y-61635602D01*
X131516128Y-61635602D02*
X131480414Y-61564173D01*
X131480414Y-61564173D02*
X131480414Y-61457030D01*
X131480414Y-61457030D02*
X131516128Y-61385602D01*
X131516128Y-61385602D02*
X131587557Y-61349888D01*
X131587557Y-61349888D02*
X131980414Y-61349888D01*
X131944700Y-60671317D02*
X131980414Y-60742745D01*
X131980414Y-60742745D02*
X131980414Y-60885602D01*
X131980414Y-60885602D02*
X131944700Y-60957031D01*
X131944700Y-60957031D02*
X131908985Y-60992745D01*
X131908985Y-60992745D02*
X131837557Y-61028459D01*
X131837557Y-61028459D02*
X131623271Y-61028459D01*
X131623271Y-61028459D02*
X131551842Y-60992745D01*
X131551842Y-60992745D02*
X131516128Y-60957031D01*
X131516128Y-60957031D02*
X131480414Y-60885602D01*
X131480414Y-60885602D02*
X131480414Y-60742745D01*
X131480414Y-60742745D02*
X131516128Y-60671317D01*
X131944700Y-60064174D02*
X131980414Y-60135602D01*
X131980414Y-60135602D02*
X131980414Y-60278460D01*
X131980414Y-60278460D02*
X131944700Y-60349888D01*
X131944700Y-60349888D02*
X131873271Y-60385602D01*
X131873271Y-60385602D02*
X131587557Y-60385602D01*
X131587557Y-60385602D02*
X131516128Y-60349888D01*
X131516128Y-60349888D02*
X131480414Y-60278460D01*
X131480414Y-60278460D02*
X131480414Y-60135602D01*
X131480414Y-60135602D02*
X131516128Y-60064174D01*
X131516128Y-60064174D02*
X131587557Y-60028460D01*
X131587557Y-60028460D02*
X131658985Y-60028460D01*
X131658985Y-60028460D02*
X131730414Y-60385602D01*
X131944700Y-59171316D02*
X131980414Y-59064174D01*
X131980414Y-59064174D02*
X131980414Y-58885602D01*
X131980414Y-58885602D02*
X131944700Y-58814174D01*
X131944700Y-58814174D02*
X131908985Y-58778459D01*
X131908985Y-58778459D02*
X131837557Y-58742745D01*
X131837557Y-58742745D02*
X131766128Y-58742745D01*
X131766128Y-58742745D02*
X131694700Y-58778459D01*
X131694700Y-58778459D02*
X131658985Y-58814174D01*
X131658985Y-58814174D02*
X131623271Y-58885602D01*
X131623271Y-58885602D02*
X131587557Y-59028459D01*
X131587557Y-59028459D02*
X131551842Y-59099888D01*
X131551842Y-59099888D02*
X131516128Y-59135602D01*
X131516128Y-59135602D02*
X131444700Y-59171316D01*
X131444700Y-59171316D02*
X131373271Y-59171316D01*
X131373271Y-59171316D02*
X131301842Y-59135602D01*
X131301842Y-59135602D02*
X131266128Y-59099888D01*
X131266128Y-59099888D02*
X131230414Y-59028459D01*
X131230414Y-59028459D02*
X131230414Y-58849888D01*
X131230414Y-58849888D02*
X131266128Y-58742745D01*
X131944700Y-58135602D02*
X131980414Y-58207030D01*
X131980414Y-58207030D02*
X131980414Y-58349888D01*
X131980414Y-58349888D02*
X131944700Y-58421316D01*
X131944700Y-58421316D02*
X131873271Y-58457030D01*
X131873271Y-58457030D02*
X131587557Y-58457030D01*
X131587557Y-58457030D02*
X131516128Y-58421316D01*
X131516128Y-58421316D02*
X131480414Y-58349888D01*
X131480414Y-58349888D02*
X131480414Y-58207030D01*
X131480414Y-58207030D02*
X131516128Y-58135602D01*
X131516128Y-58135602D02*
X131587557Y-58099888D01*
X131587557Y-58099888D02*
X131658985Y-58099888D01*
X131658985Y-58099888D02*
X131730414Y-58457030D01*
X131480414Y-57778459D02*
X131980414Y-57778459D01*
X131551842Y-57778459D02*
X131516128Y-57742745D01*
X131516128Y-57742745D02*
X131480414Y-57671316D01*
X131480414Y-57671316D02*
X131480414Y-57564173D01*
X131480414Y-57564173D02*
X131516128Y-57492745D01*
X131516128Y-57492745D02*
X131587557Y-57457031D01*
X131587557Y-57457031D02*
X131980414Y-57457031D01*
X131944700Y-57135602D02*
X131980414Y-57064174D01*
X131980414Y-57064174D02*
X131980414Y-56921317D01*
X131980414Y-56921317D02*
X131944700Y-56849888D01*
X131944700Y-56849888D02*
X131873271Y-56814174D01*
X131873271Y-56814174D02*
X131837557Y-56814174D01*
X131837557Y-56814174D02*
X131766128Y-56849888D01*
X131766128Y-56849888D02*
X131730414Y-56921317D01*
X131730414Y-56921317D02*
X131730414Y-57028460D01*
X131730414Y-57028460D02*
X131694700Y-57099888D01*
X131694700Y-57099888D02*
X131623271Y-57135602D01*
X131623271Y-57135602D02*
X131587557Y-57135602D01*
X131587557Y-57135602D02*
X131516128Y-57099888D01*
X131516128Y-57099888D02*
X131480414Y-57028460D01*
X131480414Y-57028460D02*
X131480414Y-56921317D01*
X131480414Y-56921317D02*
X131516128Y-56849888D01*
X131980414Y-56385602D02*
X131944700Y-56457031D01*
X131944700Y-56457031D02*
X131908985Y-56492745D01*
X131908985Y-56492745D02*
X131837557Y-56528459D01*
X131837557Y-56528459D02*
X131623271Y-56528459D01*
X131623271Y-56528459D02*
X131551842Y-56492745D01*
X131551842Y-56492745D02*
X131516128Y-56457031D01*
X131516128Y-56457031D02*
X131480414Y-56385602D01*
X131480414Y-56385602D02*
X131480414Y-56278459D01*
X131480414Y-56278459D02*
X131516128Y-56207031D01*
X131516128Y-56207031D02*
X131551842Y-56171317D01*
X131551842Y-56171317D02*
X131623271Y-56135602D01*
X131623271Y-56135602D02*
X131837557Y-56135602D01*
X131837557Y-56135602D02*
X131908985Y-56171317D01*
X131908985Y-56171317D02*
X131944700Y-56207031D01*
X131944700Y-56207031D02*
X131980414Y-56278459D01*
X131980414Y-56278459D02*
X131980414Y-56385602D01*
X131980414Y-55814174D02*
X131480414Y-55814174D01*
X131623271Y-55814174D02*
X131551842Y-55778460D01*
X131551842Y-55778460D02*
X131516128Y-55742746D01*
X131516128Y-55742746D02*
X131480414Y-55671317D01*
X131480414Y-55671317D02*
X131480414Y-55599888D01*
X131980414Y-96242744D02*
X131230414Y-96242744D01*
X131230414Y-96242744D02*
X131230414Y-96064173D01*
X131230414Y-96064173D02*
X131266128Y-95957030D01*
X131266128Y-95957030D02*
X131337557Y-95885601D01*
X131337557Y-95885601D02*
X131408985Y-95849887D01*
X131408985Y-95849887D02*
X131551842Y-95814173D01*
X131551842Y-95814173D02*
X131658985Y-95814173D01*
X131658985Y-95814173D02*
X131801842Y-95849887D01*
X131801842Y-95849887D02*
X131873271Y-95885601D01*
X131873271Y-95885601D02*
X131944700Y-95957030D01*
X131944700Y-95957030D02*
X131980414Y-96064173D01*
X131980414Y-96064173D02*
X131980414Y-96242744D01*
X131980414Y-95492744D02*
X131480414Y-95492744D01*
X131230414Y-95492744D02*
X131266128Y-95528458D01*
X131266128Y-95528458D02*
X131301842Y-95492744D01*
X131301842Y-95492744D02*
X131266128Y-95457030D01*
X131266128Y-95457030D02*
X131230414Y-95492744D01*
X131230414Y-95492744D02*
X131301842Y-95492744D01*
X131944700Y-95171315D02*
X131980414Y-95099887D01*
X131980414Y-95099887D02*
X131980414Y-94957030D01*
X131980414Y-94957030D02*
X131944700Y-94885601D01*
X131944700Y-94885601D02*
X131873271Y-94849887D01*
X131873271Y-94849887D02*
X131837557Y-94849887D01*
X131837557Y-94849887D02*
X131766128Y-94885601D01*
X131766128Y-94885601D02*
X131730414Y-94957030D01*
X131730414Y-94957030D02*
X131730414Y-95064173D01*
X131730414Y-95064173D02*
X131694700Y-95135601D01*
X131694700Y-95135601D02*
X131623271Y-95171315D01*
X131623271Y-95171315D02*
X131587557Y-95171315D01*
X131587557Y-95171315D02*
X131516128Y-95135601D01*
X131516128Y-95135601D02*
X131480414Y-95064173D01*
X131480414Y-95064173D02*
X131480414Y-94957030D01*
X131480414Y-94957030D02*
X131516128Y-94885601D01*
X131480414Y-94635601D02*
X131480414Y-94349887D01*
X131230414Y-94528458D02*
X131873271Y-94528458D01*
X131873271Y-94528458D02*
X131944700Y-94492744D01*
X131944700Y-94492744D02*
X131980414Y-94421315D01*
X131980414Y-94421315D02*
X131980414Y-94349887D01*
X131980414Y-93778459D02*
X131587557Y-93778459D01*
X131587557Y-93778459D02*
X131516128Y-93814173D01*
X131516128Y-93814173D02*
X131480414Y-93885601D01*
X131480414Y-93885601D02*
X131480414Y-94028459D01*
X131480414Y-94028459D02*
X131516128Y-94099887D01*
X131944700Y-93778459D02*
X131980414Y-93849887D01*
X131980414Y-93849887D02*
X131980414Y-94028459D01*
X131980414Y-94028459D02*
X131944700Y-94099887D01*
X131944700Y-94099887D02*
X131873271Y-94135601D01*
X131873271Y-94135601D02*
X131801842Y-94135601D01*
X131801842Y-94135601D02*
X131730414Y-94099887D01*
X131730414Y-94099887D02*
X131694700Y-94028459D01*
X131694700Y-94028459D02*
X131694700Y-93849887D01*
X131694700Y-93849887D02*
X131658985Y-93778459D01*
X131480414Y-93421316D02*
X131980414Y-93421316D01*
X131551842Y-93421316D02*
X131516128Y-93385602D01*
X131516128Y-93385602D02*
X131480414Y-93314173D01*
X131480414Y-93314173D02*
X131480414Y-93207030D01*
X131480414Y-93207030D02*
X131516128Y-93135602D01*
X131516128Y-93135602D02*
X131587557Y-93099888D01*
X131587557Y-93099888D02*
X131980414Y-93099888D01*
X131944700Y-92421317D02*
X131980414Y-92492745D01*
X131980414Y-92492745D02*
X131980414Y-92635602D01*
X131980414Y-92635602D02*
X131944700Y-92707031D01*
X131944700Y-92707031D02*
X131908985Y-92742745D01*
X131908985Y-92742745D02*
X131837557Y-92778459D01*
X131837557Y-92778459D02*
X131623271Y-92778459D01*
X131623271Y-92778459D02*
X131551842Y-92742745D01*
X131551842Y-92742745D02*
X131516128Y-92707031D01*
X131516128Y-92707031D02*
X131480414Y-92635602D01*
X131480414Y-92635602D02*
X131480414Y-92492745D01*
X131480414Y-92492745D02*
X131516128Y-92421317D01*
X131944700Y-91814174D02*
X131980414Y-91885602D01*
X131980414Y-91885602D02*
X131980414Y-92028460D01*
X131980414Y-92028460D02*
X131944700Y-92099888D01*
X131944700Y-92099888D02*
X131873271Y-92135602D01*
X131873271Y-92135602D02*
X131587557Y-92135602D01*
X131587557Y-92135602D02*
X131516128Y-92099888D01*
X131516128Y-92099888D02*
X131480414Y-92028460D01*
X131480414Y-92028460D02*
X131480414Y-91885602D01*
X131480414Y-91885602D02*
X131516128Y-91814174D01*
X131516128Y-91814174D02*
X131587557Y-91778460D01*
X131587557Y-91778460D02*
X131658985Y-91778460D01*
X131658985Y-91778460D02*
X131730414Y-92135602D01*
X131944700Y-90921316D02*
X131980414Y-90814174D01*
X131980414Y-90814174D02*
X131980414Y-90635602D01*
X131980414Y-90635602D02*
X131944700Y-90564174D01*
X131944700Y-90564174D02*
X131908985Y-90528459D01*
X131908985Y-90528459D02*
X131837557Y-90492745D01*
X131837557Y-90492745D02*
X131766128Y-90492745D01*
X131766128Y-90492745D02*
X131694700Y-90528459D01*
X131694700Y-90528459D02*
X131658985Y-90564174D01*
X131658985Y-90564174D02*
X131623271Y-90635602D01*
X131623271Y-90635602D02*
X131587557Y-90778459D01*
X131587557Y-90778459D02*
X131551842Y-90849888D01*
X131551842Y-90849888D02*
X131516128Y-90885602D01*
X131516128Y-90885602D02*
X131444700Y-90921316D01*
X131444700Y-90921316D02*
X131373271Y-90921316D01*
X131373271Y-90921316D02*
X131301842Y-90885602D01*
X131301842Y-90885602D02*
X131266128Y-90849888D01*
X131266128Y-90849888D02*
X131230414Y-90778459D01*
X131230414Y-90778459D02*
X131230414Y-90599888D01*
X131230414Y-90599888D02*
X131266128Y-90492745D01*
X131944700Y-89885602D02*
X131980414Y-89957030D01*
X131980414Y-89957030D02*
X131980414Y-90099888D01*
X131980414Y-90099888D02*
X131944700Y-90171316D01*
X131944700Y-90171316D02*
X131873271Y-90207030D01*
X131873271Y-90207030D02*
X131587557Y-90207030D01*
X131587557Y-90207030D02*
X131516128Y-90171316D01*
X131516128Y-90171316D02*
X131480414Y-90099888D01*
X131480414Y-90099888D02*
X131480414Y-89957030D01*
X131480414Y-89957030D02*
X131516128Y-89885602D01*
X131516128Y-89885602D02*
X131587557Y-89849888D01*
X131587557Y-89849888D02*
X131658985Y-89849888D01*
X131658985Y-89849888D02*
X131730414Y-90207030D01*
X131480414Y-89528459D02*
X131980414Y-89528459D01*
X131551842Y-89528459D02*
X131516128Y-89492745D01*
X131516128Y-89492745D02*
X131480414Y-89421316D01*
X131480414Y-89421316D02*
X131480414Y-89314173D01*
X131480414Y-89314173D02*
X131516128Y-89242745D01*
X131516128Y-89242745D02*
X131587557Y-89207031D01*
X131587557Y-89207031D02*
X131980414Y-89207031D01*
X131944700Y-88885602D02*
X131980414Y-88814174D01*
X131980414Y-88814174D02*
X131980414Y-88671317D01*
X131980414Y-88671317D02*
X131944700Y-88599888D01*
X131944700Y-88599888D02*
X131873271Y-88564174D01*
X131873271Y-88564174D02*
X131837557Y-88564174D01*
X131837557Y-88564174D02*
X131766128Y-88599888D01*
X131766128Y-88599888D02*
X131730414Y-88671317D01*
X131730414Y-88671317D02*
X131730414Y-88778460D01*
X131730414Y-88778460D02*
X131694700Y-88849888D01*
X131694700Y-88849888D02*
X131623271Y-88885602D01*
X131623271Y-88885602D02*
X131587557Y-88885602D01*
X131587557Y-88885602D02*
X131516128Y-88849888D01*
X131516128Y-88849888D02*
X131480414Y-88778460D01*
X131480414Y-88778460D02*
X131480414Y-88671317D01*
X131480414Y-88671317D02*
X131516128Y-88599888D01*
X131980414Y-88135602D02*
X131944700Y-88207031D01*
X131944700Y-88207031D02*
X131908985Y-88242745D01*
X131908985Y-88242745D02*
X131837557Y-88278459D01*
X131837557Y-88278459D02*
X131623271Y-88278459D01*
X131623271Y-88278459D02*
X131551842Y-88242745D01*
X131551842Y-88242745D02*
X131516128Y-88207031D01*
X131516128Y-88207031D02*
X131480414Y-88135602D01*
X131480414Y-88135602D02*
X131480414Y-88028459D01*
X131480414Y-88028459D02*
X131516128Y-87957031D01*
X131516128Y-87957031D02*
X131551842Y-87921317D01*
X131551842Y-87921317D02*
X131623271Y-87885602D01*
X131623271Y-87885602D02*
X131837557Y-87885602D01*
X131837557Y-87885602D02*
X131908985Y-87921317D01*
X131908985Y-87921317D02*
X131944700Y-87957031D01*
X131944700Y-87957031D02*
X131980414Y-88028459D01*
X131980414Y-88028459D02*
X131980414Y-88135602D01*
X131980414Y-87564174D02*
X131480414Y-87564174D01*
X131623271Y-87564174D02*
X131551842Y-87528460D01*
X131551842Y-87528460D02*
X131516128Y-87492746D01*
X131516128Y-87492746D02*
X131480414Y-87421317D01*
X131480414Y-87421317D02*
X131480414Y-87349888D01*
X139372142Y-60909580D02*
X139324523Y-60957200D01*
X139324523Y-60957200D02*
X139181666Y-61004819D01*
X139181666Y-61004819D02*
X139086428Y-61004819D01*
X139086428Y-61004819D02*
X138943571Y-60957200D01*
X138943571Y-60957200D02*
X138848333Y-60861961D01*
X138848333Y-60861961D02*
X138800714Y-60766723D01*
X138800714Y-60766723D02*
X138753095Y-60576247D01*
X138753095Y-60576247D02*
X138753095Y-60433390D01*
X138753095Y-60433390D02*
X138800714Y-60242914D01*
X138800714Y-60242914D02*
X138848333Y-60147676D01*
X138848333Y-60147676D02*
X138943571Y-60052438D01*
X138943571Y-60052438D02*
X139086428Y-60004819D01*
X139086428Y-60004819D02*
X139181666Y-60004819D01*
X139181666Y-60004819D02*
X139324523Y-60052438D01*
X139324523Y-60052438D02*
X139372142Y-60100057D01*
X140324523Y-61004819D02*
X139753095Y-61004819D01*
X140038809Y-61004819D02*
X140038809Y-60004819D01*
X140038809Y-60004819D02*
X139943571Y-60147676D01*
X139943571Y-60147676D02*
X139848333Y-60242914D01*
X139848333Y-60242914D02*
X139753095Y-60290533D01*
X140800714Y-61004819D02*
X140991190Y-61004819D01*
X140991190Y-61004819D02*
X141086428Y-60957200D01*
X141086428Y-60957200D02*
X141134047Y-60909580D01*
X141134047Y-60909580D02*
X141229285Y-60766723D01*
X141229285Y-60766723D02*
X141276904Y-60576247D01*
X141276904Y-60576247D02*
X141276904Y-60195295D01*
X141276904Y-60195295D02*
X141229285Y-60100057D01*
X141229285Y-60100057D02*
X141181666Y-60052438D01*
X141181666Y-60052438D02*
X141086428Y-60004819D01*
X141086428Y-60004819D02*
X140895952Y-60004819D01*
X140895952Y-60004819D02*
X140800714Y-60052438D01*
X140800714Y-60052438D02*
X140753095Y-60100057D01*
X140753095Y-60100057D02*
X140705476Y-60195295D01*
X140705476Y-60195295D02*
X140705476Y-60433390D01*
X140705476Y-60433390D02*
X140753095Y-60528628D01*
X140753095Y-60528628D02*
X140800714Y-60576247D01*
X140800714Y-60576247D02*
X140895952Y-60623866D01*
X140895952Y-60623866D02*
X141086428Y-60623866D01*
X141086428Y-60623866D02*
X141181666Y-60576247D01*
X141181666Y-60576247D02*
X141229285Y-60528628D01*
X141229285Y-60528628D02*
X141276904Y-60433390D01*
X119827319Y-128079166D02*
X119351128Y-128412499D01*
X119827319Y-128650594D02*
X118827319Y-128650594D01*
X118827319Y-128650594D02*
X118827319Y-128269642D01*
X118827319Y-128269642D02*
X118874938Y-128174404D01*
X118874938Y-128174404D02*
X118922557Y-128126785D01*
X118922557Y-128126785D02*
X119017795Y-128079166D01*
X119017795Y-128079166D02*
X119160652Y-128079166D01*
X119160652Y-128079166D02*
X119255890Y-128126785D01*
X119255890Y-128126785D02*
X119303509Y-128174404D01*
X119303509Y-128174404D02*
X119351128Y-128269642D01*
X119351128Y-128269642D02*
X119351128Y-128650594D01*
X118922557Y-127698213D02*
X118874938Y-127650594D01*
X118874938Y-127650594D02*
X118827319Y-127555356D01*
X118827319Y-127555356D02*
X118827319Y-127317261D01*
X118827319Y-127317261D02*
X118874938Y-127222023D01*
X118874938Y-127222023D02*
X118922557Y-127174404D01*
X118922557Y-127174404D02*
X119017795Y-127126785D01*
X119017795Y-127126785D02*
X119113033Y-127126785D01*
X119113033Y-127126785D02*
X119255890Y-127174404D01*
X119255890Y-127174404D02*
X119827319Y-127745832D01*
X119827319Y-127745832D02*
X119827319Y-127126785D01*
X152868333Y-79867080D02*
X152820714Y-79914700D01*
X152820714Y-79914700D02*
X152677857Y-79962319D01*
X152677857Y-79962319D02*
X152582619Y-79962319D01*
X152582619Y-79962319D02*
X152439762Y-79914700D01*
X152439762Y-79914700D02*
X152344524Y-79819461D01*
X152344524Y-79819461D02*
X152296905Y-79724223D01*
X152296905Y-79724223D02*
X152249286Y-79533747D01*
X152249286Y-79533747D02*
X152249286Y-79390890D01*
X152249286Y-79390890D02*
X152296905Y-79200414D01*
X152296905Y-79200414D02*
X152344524Y-79105176D01*
X152344524Y-79105176D02*
X152439762Y-79009938D01*
X152439762Y-79009938D02*
X152582619Y-78962319D01*
X152582619Y-78962319D02*
X152677857Y-78962319D01*
X152677857Y-78962319D02*
X152820714Y-79009938D01*
X152820714Y-79009938D02*
X152868333Y-79057557D01*
X153439762Y-79390890D02*
X153344524Y-79343271D01*
X153344524Y-79343271D02*
X153296905Y-79295652D01*
X153296905Y-79295652D02*
X153249286Y-79200414D01*
X153249286Y-79200414D02*
X153249286Y-79152795D01*
X153249286Y-79152795D02*
X153296905Y-79057557D01*
X153296905Y-79057557D02*
X153344524Y-79009938D01*
X153344524Y-79009938D02*
X153439762Y-78962319D01*
X153439762Y-78962319D02*
X153630238Y-78962319D01*
X153630238Y-78962319D02*
X153725476Y-79009938D01*
X153725476Y-79009938D02*
X153773095Y-79057557D01*
X153773095Y-79057557D02*
X153820714Y-79152795D01*
X153820714Y-79152795D02*
X153820714Y-79200414D01*
X153820714Y-79200414D02*
X153773095Y-79295652D01*
X153773095Y-79295652D02*
X153725476Y-79343271D01*
X153725476Y-79343271D02*
X153630238Y-79390890D01*
X153630238Y-79390890D02*
X153439762Y-79390890D01*
X153439762Y-79390890D02*
X153344524Y-79438509D01*
X153344524Y-79438509D02*
X153296905Y-79486128D01*
X153296905Y-79486128D02*
X153249286Y-79581366D01*
X153249286Y-79581366D02*
X153249286Y-79771842D01*
X153249286Y-79771842D02*
X153296905Y-79867080D01*
X153296905Y-79867080D02*
X153344524Y-79914700D01*
X153344524Y-79914700D02*
X153439762Y-79962319D01*
X153439762Y-79962319D02*
X153630238Y-79962319D01*
X153630238Y-79962319D02*
X153725476Y-79914700D01*
X153725476Y-79914700D02*
X153773095Y-79867080D01*
X153773095Y-79867080D02*
X153820714Y-79771842D01*
X153820714Y-79771842D02*
X153820714Y-79581366D01*
X153820714Y-79581366D02*
X153773095Y-79486128D01*
X153773095Y-79486128D02*
X153725476Y-79438509D01*
X153725476Y-79438509D02*
X153630238Y-79390890D01*
X134119580Y-99387857D02*
X134167200Y-99435476D01*
X134167200Y-99435476D02*
X134214819Y-99578333D01*
X134214819Y-99578333D02*
X134214819Y-99673571D01*
X134214819Y-99673571D02*
X134167200Y-99816428D01*
X134167200Y-99816428D02*
X134071961Y-99911666D01*
X134071961Y-99911666D02*
X133976723Y-99959285D01*
X133976723Y-99959285D02*
X133786247Y-100006904D01*
X133786247Y-100006904D02*
X133643390Y-100006904D01*
X133643390Y-100006904D02*
X133452914Y-99959285D01*
X133452914Y-99959285D02*
X133357676Y-99911666D01*
X133357676Y-99911666D02*
X133262438Y-99816428D01*
X133262438Y-99816428D02*
X133214819Y-99673571D01*
X133214819Y-99673571D02*
X133214819Y-99578333D01*
X133214819Y-99578333D02*
X133262438Y-99435476D01*
X133262438Y-99435476D02*
X133310057Y-99387857D01*
X134214819Y-98435476D02*
X134214819Y-99006904D01*
X134214819Y-98721190D02*
X133214819Y-98721190D01*
X133214819Y-98721190D02*
X133357676Y-98816428D01*
X133357676Y-98816428D02*
X133452914Y-98911666D01*
X133452914Y-98911666D02*
X133500533Y-99006904D01*
X133548152Y-97578333D02*
X134214819Y-97578333D01*
X133167200Y-97816428D02*
X133881485Y-98054523D01*
X133881485Y-98054523D02*
X133881485Y-97435476D01*
X169076904Y-131355180D02*
X169076904Y-130545657D01*
X169076904Y-130545657D02*
X169029285Y-130450419D01*
X169029285Y-130450419D02*
X168981666Y-130402800D01*
X168981666Y-130402800D02*
X168886428Y-130355180D01*
X168886428Y-130355180D02*
X168695952Y-130355180D01*
X168695952Y-130355180D02*
X168600714Y-130402800D01*
X168600714Y-130402800D02*
X168553095Y-130450419D01*
X168553095Y-130450419D02*
X168505476Y-130545657D01*
X168505476Y-130545657D02*
X168505476Y-131355180D01*
X167553095Y-131355180D02*
X168029285Y-131355180D01*
X168029285Y-131355180D02*
X168076904Y-130878990D01*
X168076904Y-130878990D02*
X168029285Y-130926609D01*
X168029285Y-130926609D02*
X167934047Y-130974228D01*
X167934047Y-130974228D02*
X167695952Y-130974228D01*
X167695952Y-130974228D02*
X167600714Y-130926609D01*
X167600714Y-130926609D02*
X167553095Y-130878990D01*
X167553095Y-130878990D02*
X167505476Y-130783752D01*
X167505476Y-130783752D02*
X167505476Y-130545657D01*
X167505476Y-130545657D02*
X167553095Y-130450419D01*
X167553095Y-130450419D02*
X167600714Y-130402800D01*
X167600714Y-130402800D02*
X167695952Y-130355180D01*
X167695952Y-130355180D02*
X167934047Y-130355180D01*
X167934047Y-130355180D02*
X168029285Y-130402800D01*
X168029285Y-130402800D02*
X168076904Y-130450419D01*
X153619819Y-74263094D02*
X154429342Y-74263094D01*
X154429342Y-74263094D02*
X154524580Y-74215475D01*
X154524580Y-74215475D02*
X154572200Y-74167856D01*
X154572200Y-74167856D02*
X154619819Y-74072618D01*
X154619819Y-74072618D02*
X154619819Y-73882142D01*
X154619819Y-73882142D02*
X154572200Y-73786904D01*
X154572200Y-73786904D02*
X154524580Y-73739285D01*
X154524580Y-73739285D02*
X154429342Y-73691666D01*
X154429342Y-73691666D02*
X153619819Y-73691666D01*
X154619819Y-72691666D02*
X154619819Y-73263094D01*
X154619819Y-72977380D02*
X153619819Y-72977380D01*
X153619819Y-72977380D02*
X153762676Y-73072618D01*
X153762676Y-73072618D02*
X153857914Y-73167856D01*
X153857914Y-73167856D02*
X153905533Y-73263094D01*
X153619819Y-72358332D02*
X153619819Y-71691666D01*
X153619819Y-71691666D02*
X154619819Y-72120237D01*
X137295475Y-68357200D02*
X137438332Y-68404819D01*
X137438332Y-68404819D02*
X137676427Y-68404819D01*
X137676427Y-68404819D02*
X137771665Y-68357200D01*
X137771665Y-68357200D02*
X137819284Y-68309580D01*
X137819284Y-68309580D02*
X137866903Y-68214342D01*
X137866903Y-68214342D02*
X137866903Y-68119104D01*
X137866903Y-68119104D02*
X137819284Y-68023866D01*
X137819284Y-68023866D02*
X137771665Y-67976247D01*
X137771665Y-67976247D02*
X137676427Y-67928628D01*
X137676427Y-67928628D02*
X137485951Y-67881009D01*
X137485951Y-67881009D02*
X137390713Y-67833390D01*
X137390713Y-67833390D02*
X137343094Y-67785771D01*
X137343094Y-67785771D02*
X137295475Y-67690533D01*
X137295475Y-67690533D02*
X137295475Y-67595295D01*
X137295475Y-67595295D02*
X137343094Y-67500057D01*
X137343094Y-67500057D02*
X137390713Y-67452438D01*
X137390713Y-67452438D02*
X137485951Y-67404819D01*
X137485951Y-67404819D02*
X137724046Y-67404819D01*
X137724046Y-67404819D02*
X137866903Y-67452438D01*
X138676427Y-68357200D02*
X138581189Y-68404819D01*
X138581189Y-68404819D02*
X138390713Y-68404819D01*
X138390713Y-68404819D02*
X138295475Y-68357200D01*
X138295475Y-68357200D02*
X138247856Y-68261961D01*
X138247856Y-68261961D02*
X138247856Y-67881009D01*
X138247856Y-67881009D02*
X138295475Y-67785771D01*
X138295475Y-67785771D02*
X138390713Y-67738152D01*
X138390713Y-67738152D02*
X138581189Y-67738152D01*
X138581189Y-67738152D02*
X138676427Y-67785771D01*
X138676427Y-67785771D02*
X138724046Y-67881009D01*
X138724046Y-67881009D02*
X138724046Y-67976247D01*
X138724046Y-67976247D02*
X138247856Y-68071485D01*
X139152618Y-68404819D02*
X139152618Y-67738152D01*
X139152618Y-67928628D02*
X139200237Y-67833390D01*
X139200237Y-67833390D02*
X139247856Y-67785771D01*
X139247856Y-67785771D02*
X139343094Y-67738152D01*
X139343094Y-67738152D02*
X139438332Y-67738152D01*
X139676428Y-67738152D02*
X139914523Y-68404819D01*
X139914523Y-68404819D02*
X140152618Y-67738152D01*
X140676428Y-68404819D02*
X140581190Y-68357200D01*
X140581190Y-68357200D02*
X140533571Y-68309580D01*
X140533571Y-68309580D02*
X140485952Y-68214342D01*
X140485952Y-68214342D02*
X140485952Y-67928628D01*
X140485952Y-67928628D02*
X140533571Y-67833390D01*
X140533571Y-67833390D02*
X140581190Y-67785771D01*
X140581190Y-67785771D02*
X140676428Y-67738152D01*
X140676428Y-67738152D02*
X140819285Y-67738152D01*
X140819285Y-67738152D02*
X140914523Y-67785771D01*
X140914523Y-67785771D02*
X140962142Y-67833390D01*
X140962142Y-67833390D02*
X141009761Y-67928628D01*
X141009761Y-67928628D02*
X141009761Y-68214342D01*
X141009761Y-68214342D02*
X140962142Y-68309580D01*
X140962142Y-68309580D02*
X140914523Y-68357200D01*
X140914523Y-68357200D02*
X140819285Y-68404819D01*
X140819285Y-68404819D02*
X140676428Y-68404819D01*
X142200238Y-68404819D02*
X142200238Y-67404819D01*
X142200238Y-67404819D02*
X142533571Y-68119104D01*
X142533571Y-68119104D02*
X142866904Y-67404819D01*
X142866904Y-67404819D02*
X142866904Y-68404819D01*
X143485952Y-68404819D02*
X143390714Y-68357200D01*
X143390714Y-68357200D02*
X143343095Y-68309580D01*
X143343095Y-68309580D02*
X143295476Y-68214342D01*
X143295476Y-68214342D02*
X143295476Y-67928628D01*
X143295476Y-67928628D02*
X143343095Y-67833390D01*
X143343095Y-67833390D02*
X143390714Y-67785771D01*
X143390714Y-67785771D02*
X143485952Y-67738152D01*
X143485952Y-67738152D02*
X143628809Y-67738152D01*
X143628809Y-67738152D02*
X143724047Y-67785771D01*
X143724047Y-67785771D02*
X143771666Y-67833390D01*
X143771666Y-67833390D02*
X143819285Y-67928628D01*
X143819285Y-67928628D02*
X143819285Y-68214342D01*
X143819285Y-68214342D02*
X143771666Y-68309580D01*
X143771666Y-68309580D02*
X143724047Y-68357200D01*
X143724047Y-68357200D02*
X143628809Y-68404819D01*
X143628809Y-68404819D02*
X143485952Y-68404819D01*
X144105000Y-67738152D02*
X144485952Y-67738152D01*
X144247857Y-67404819D02*
X144247857Y-68261961D01*
X144247857Y-68261961D02*
X144295476Y-68357200D01*
X144295476Y-68357200D02*
X144390714Y-68404819D01*
X144390714Y-68404819D02*
X144485952Y-68404819D01*
X144962143Y-68404819D02*
X144866905Y-68357200D01*
X144866905Y-68357200D02*
X144819286Y-68309580D01*
X144819286Y-68309580D02*
X144771667Y-68214342D01*
X144771667Y-68214342D02*
X144771667Y-67928628D01*
X144771667Y-67928628D02*
X144819286Y-67833390D01*
X144819286Y-67833390D02*
X144866905Y-67785771D01*
X144866905Y-67785771D02*
X144962143Y-67738152D01*
X144962143Y-67738152D02*
X145105000Y-67738152D01*
X145105000Y-67738152D02*
X145200238Y-67785771D01*
X145200238Y-67785771D02*
X145247857Y-67833390D01*
X145247857Y-67833390D02*
X145295476Y-67928628D01*
X145295476Y-67928628D02*
X145295476Y-68214342D01*
X145295476Y-68214342D02*
X145247857Y-68309580D01*
X145247857Y-68309580D02*
X145200238Y-68357200D01*
X145200238Y-68357200D02*
X145105000Y-68404819D01*
X145105000Y-68404819D02*
X144962143Y-68404819D01*
X145724048Y-68404819D02*
X145724048Y-67738152D01*
X145724048Y-67928628D02*
X145771667Y-67833390D01*
X145771667Y-67833390D02*
X145819286Y-67785771D01*
X145819286Y-67785771D02*
X145914524Y-67738152D01*
X145914524Y-67738152D02*
X146009762Y-67738152D01*
X108718194Y-131355180D02*
X108718194Y-130545657D01*
X108718194Y-130545657D02*
X108670575Y-130450419D01*
X108670575Y-130450419D02*
X108622956Y-130402800D01*
X108622956Y-130402800D02*
X108527718Y-130355180D01*
X108527718Y-130355180D02*
X108337242Y-130355180D01*
X108337242Y-130355180D02*
X108242004Y-130402800D01*
X108242004Y-130402800D02*
X108194385Y-130450419D01*
X108194385Y-130450419D02*
X108146766Y-130545657D01*
X108146766Y-130545657D02*
X108146766Y-131355180D01*
X107146766Y-130355180D02*
X107718194Y-130355180D01*
X107432480Y-130355180D02*
X107432480Y-131355180D01*
X107432480Y-131355180D02*
X107527718Y-131212323D01*
X107527718Y-131212323D02*
X107622956Y-131117085D01*
X107622956Y-131117085D02*
X107718194Y-131069466D01*
X106194385Y-130355180D02*
X106765813Y-130355180D01*
X106480099Y-130355180D02*
X106480099Y-131355180D01*
X106480099Y-131355180D02*
X106575337Y-131212323D01*
X106575337Y-131212323D02*
X106670575Y-131117085D01*
X106670575Y-131117085D02*
X106765813Y-131069466D01*
X117609580Y-67762857D02*
X117657200Y-67810476D01*
X117657200Y-67810476D02*
X117704819Y-67953333D01*
X117704819Y-67953333D02*
X117704819Y-68048571D01*
X117704819Y-68048571D02*
X117657200Y-68191428D01*
X117657200Y-68191428D02*
X117561961Y-68286666D01*
X117561961Y-68286666D02*
X117466723Y-68334285D01*
X117466723Y-68334285D02*
X117276247Y-68381904D01*
X117276247Y-68381904D02*
X117133390Y-68381904D01*
X117133390Y-68381904D02*
X116942914Y-68334285D01*
X116942914Y-68334285D02*
X116847676Y-68286666D01*
X116847676Y-68286666D02*
X116752438Y-68191428D01*
X116752438Y-68191428D02*
X116704819Y-68048571D01*
X116704819Y-68048571D02*
X116704819Y-67953333D01*
X116704819Y-67953333D02*
X116752438Y-67810476D01*
X116752438Y-67810476D02*
X116800057Y-67762857D01*
X117704819Y-66810476D02*
X117704819Y-67381904D01*
X117704819Y-67096190D02*
X116704819Y-67096190D01*
X116704819Y-67096190D02*
X116847676Y-67191428D01*
X116847676Y-67191428D02*
X116942914Y-67286666D01*
X116942914Y-67286666D02*
X116990533Y-67381904D01*
X116704819Y-66477142D02*
X116704819Y-65858095D01*
X116704819Y-65858095D02*
X117085771Y-66191428D01*
X117085771Y-66191428D02*
X117085771Y-66048571D01*
X117085771Y-66048571D02*
X117133390Y-65953333D01*
X117133390Y-65953333D02*
X117181009Y-65905714D01*
X117181009Y-65905714D02*
X117276247Y-65858095D01*
X117276247Y-65858095D02*
X117514342Y-65858095D01*
X117514342Y-65858095D02*
X117609580Y-65905714D01*
X117609580Y-65905714D02*
X117657200Y-65953333D01*
X117657200Y-65953333D02*
X117704819Y-66048571D01*
X117704819Y-66048571D02*
X117704819Y-66334285D01*
X117704819Y-66334285D02*
X117657200Y-66429523D01*
X117657200Y-66429523D02*
X117609580Y-66477142D01*
X134119580Y-83512857D02*
X134167200Y-83560476D01*
X134167200Y-83560476D02*
X134214819Y-83703333D01*
X134214819Y-83703333D02*
X134214819Y-83798571D01*
X134214819Y-83798571D02*
X134167200Y-83941428D01*
X134167200Y-83941428D02*
X134071961Y-84036666D01*
X134071961Y-84036666D02*
X133976723Y-84084285D01*
X133976723Y-84084285D02*
X133786247Y-84131904D01*
X133786247Y-84131904D02*
X133643390Y-84131904D01*
X133643390Y-84131904D02*
X133452914Y-84084285D01*
X133452914Y-84084285D02*
X133357676Y-84036666D01*
X133357676Y-84036666D02*
X133262438Y-83941428D01*
X133262438Y-83941428D02*
X133214819Y-83798571D01*
X133214819Y-83798571D02*
X133214819Y-83703333D01*
X133214819Y-83703333D02*
X133262438Y-83560476D01*
X133262438Y-83560476D02*
X133310057Y-83512857D01*
X134214819Y-82560476D02*
X134214819Y-83131904D01*
X134214819Y-82846190D02*
X133214819Y-82846190D01*
X133214819Y-82846190D02*
X133357676Y-82941428D01*
X133357676Y-82941428D02*
X133452914Y-83036666D01*
X133452914Y-83036666D02*
X133500533Y-83131904D01*
X133214819Y-81703333D02*
X133214819Y-81893809D01*
X133214819Y-81893809D02*
X133262438Y-81989047D01*
X133262438Y-81989047D02*
X133310057Y-82036666D01*
X133310057Y-82036666D02*
X133452914Y-82131904D01*
X133452914Y-82131904D02*
X133643390Y-82179523D01*
X133643390Y-82179523D02*
X134024342Y-82179523D01*
X134024342Y-82179523D02*
X134119580Y-82131904D01*
X134119580Y-82131904D02*
X134167200Y-82084285D01*
X134167200Y-82084285D02*
X134214819Y-81989047D01*
X134214819Y-81989047D02*
X134214819Y-81798571D01*
X134214819Y-81798571D02*
X134167200Y-81703333D01*
X134167200Y-81703333D02*
X134119580Y-81655714D01*
X134119580Y-81655714D02*
X134024342Y-81608095D01*
X134024342Y-81608095D02*
X133786247Y-81608095D01*
X133786247Y-81608095D02*
X133691009Y-81655714D01*
X133691009Y-81655714D02*
X133643390Y-81703333D01*
X133643390Y-81703333D02*
X133595771Y-81798571D01*
X133595771Y-81798571D02*
X133595771Y-81989047D01*
X133595771Y-81989047D02*
X133643390Y-82084285D01*
X133643390Y-82084285D02*
X133691009Y-82131904D01*
X133691009Y-82131904D02*
X133786247Y-82179523D01*
X169269580Y-98752857D02*
X169317200Y-98800476D01*
X169317200Y-98800476D02*
X169364819Y-98943333D01*
X169364819Y-98943333D02*
X169364819Y-99038571D01*
X169364819Y-99038571D02*
X169317200Y-99181428D01*
X169317200Y-99181428D02*
X169221961Y-99276666D01*
X169221961Y-99276666D02*
X169126723Y-99324285D01*
X169126723Y-99324285D02*
X168936247Y-99371904D01*
X168936247Y-99371904D02*
X168793390Y-99371904D01*
X168793390Y-99371904D02*
X168602914Y-99324285D01*
X168602914Y-99324285D02*
X168507676Y-99276666D01*
X168507676Y-99276666D02*
X168412438Y-99181428D01*
X168412438Y-99181428D02*
X168364819Y-99038571D01*
X168364819Y-99038571D02*
X168364819Y-98943333D01*
X168364819Y-98943333D02*
X168412438Y-98800476D01*
X168412438Y-98800476D02*
X168460057Y-98752857D01*
X169364819Y-97800476D02*
X169364819Y-98371904D01*
X169364819Y-98086190D02*
X168364819Y-98086190D01*
X168364819Y-98086190D02*
X168507676Y-98181428D01*
X168507676Y-98181428D02*
X168602914Y-98276666D01*
X168602914Y-98276666D02*
X168650533Y-98371904D01*
X168364819Y-97181428D02*
X168364819Y-97086190D01*
X168364819Y-97086190D02*
X168412438Y-96990952D01*
X168412438Y-96990952D02*
X168460057Y-96943333D01*
X168460057Y-96943333D02*
X168555295Y-96895714D01*
X168555295Y-96895714D02*
X168745771Y-96848095D01*
X168745771Y-96848095D02*
X168983866Y-96848095D01*
X168983866Y-96848095D02*
X169174342Y-96895714D01*
X169174342Y-96895714D02*
X169269580Y-96943333D01*
X169269580Y-96943333D02*
X169317200Y-96990952D01*
X169317200Y-96990952D02*
X169364819Y-97086190D01*
X169364819Y-97086190D02*
X169364819Y-97181428D01*
X169364819Y-97181428D02*
X169317200Y-97276666D01*
X169317200Y-97276666D02*
X169269580Y-97324285D01*
X169269580Y-97324285D02*
X169174342Y-97371904D01*
X169174342Y-97371904D02*
X168983866Y-97419523D01*
X168983866Y-97419523D02*
X168745771Y-97419523D01*
X168745771Y-97419523D02*
X168555295Y-97371904D01*
X168555295Y-97371904D02*
X168460057Y-97324285D01*
X168460057Y-97324285D02*
X168412438Y-97276666D01*
X168412438Y-97276666D02*
X168364819Y-97181428D01*
X134119580Y-67317857D02*
X134167200Y-67365476D01*
X134167200Y-67365476D02*
X134214819Y-67508333D01*
X134214819Y-67508333D02*
X134214819Y-67603571D01*
X134214819Y-67603571D02*
X134167200Y-67746428D01*
X134167200Y-67746428D02*
X134071961Y-67841666D01*
X134071961Y-67841666D02*
X133976723Y-67889285D01*
X133976723Y-67889285D02*
X133786247Y-67936904D01*
X133786247Y-67936904D02*
X133643390Y-67936904D01*
X133643390Y-67936904D02*
X133452914Y-67889285D01*
X133452914Y-67889285D02*
X133357676Y-67841666D01*
X133357676Y-67841666D02*
X133262438Y-67746428D01*
X133262438Y-67746428D02*
X133214819Y-67603571D01*
X133214819Y-67603571D02*
X133214819Y-67508333D01*
X133214819Y-67508333D02*
X133262438Y-67365476D01*
X133262438Y-67365476D02*
X133310057Y-67317857D01*
X134214819Y-66365476D02*
X134214819Y-66936904D01*
X134214819Y-66651190D02*
X133214819Y-66651190D01*
X133214819Y-66651190D02*
X133357676Y-66746428D01*
X133357676Y-66746428D02*
X133452914Y-66841666D01*
X133452914Y-66841666D02*
X133500533Y-66936904D01*
X133214819Y-65460714D02*
X133214819Y-65936904D01*
X133214819Y-65936904D02*
X133691009Y-65984523D01*
X133691009Y-65984523D02*
X133643390Y-65936904D01*
X133643390Y-65936904D02*
X133595771Y-65841666D01*
X133595771Y-65841666D02*
X133595771Y-65603571D01*
X133595771Y-65603571D02*
X133643390Y-65508333D01*
X133643390Y-65508333D02*
X133691009Y-65460714D01*
X133691009Y-65460714D02*
X133786247Y-65413095D01*
X133786247Y-65413095D02*
X134024342Y-65413095D01*
X134024342Y-65413095D02*
X134119580Y-65460714D01*
X134119580Y-65460714D02*
X134167200Y-65508333D01*
X134167200Y-65508333D02*
X134214819Y-65603571D01*
X134214819Y-65603571D02*
X134214819Y-65841666D01*
X134214819Y-65841666D02*
X134167200Y-65936904D01*
X134167200Y-65936904D02*
X134119580Y-65984523D01*
X163106666Y-69906009D02*
X162773333Y-69906009D01*
X162773333Y-70429819D02*
X162773333Y-69429819D01*
X162773333Y-69429819D02*
X163249523Y-69429819D01*
X164154285Y-70429819D02*
X163582857Y-70429819D01*
X163868571Y-70429819D02*
X163868571Y-69429819D01*
X163868571Y-69429819D02*
X163773333Y-69572676D01*
X163773333Y-69572676D02*
X163678095Y-69667914D01*
X163678095Y-69667914D02*
X163582857Y-69715533D01*
X108039819Y-64386904D02*
X108849342Y-64386904D01*
X108849342Y-64386904D02*
X108944580Y-64339285D01*
X108944580Y-64339285D02*
X108992200Y-64291666D01*
X108992200Y-64291666D02*
X109039819Y-64196428D01*
X109039819Y-64196428D02*
X109039819Y-64005952D01*
X109039819Y-64005952D02*
X108992200Y-63910714D01*
X108992200Y-63910714D02*
X108944580Y-63863095D01*
X108944580Y-63863095D02*
X108849342Y-63815476D01*
X108849342Y-63815476D02*
X108039819Y-63815476D01*
X108039819Y-62910714D02*
X108039819Y-63101190D01*
X108039819Y-63101190D02*
X108087438Y-63196428D01*
X108087438Y-63196428D02*
X108135057Y-63244047D01*
X108135057Y-63244047D02*
X108277914Y-63339285D01*
X108277914Y-63339285D02*
X108468390Y-63386904D01*
X108468390Y-63386904D02*
X108849342Y-63386904D01*
X108849342Y-63386904D02*
X108944580Y-63339285D01*
X108944580Y-63339285D02*
X108992200Y-63291666D01*
X108992200Y-63291666D02*
X109039819Y-63196428D01*
X109039819Y-63196428D02*
X109039819Y-63005952D01*
X109039819Y-63005952D02*
X108992200Y-62910714D01*
X108992200Y-62910714D02*
X108944580Y-62863095D01*
X108944580Y-62863095D02*
X108849342Y-62815476D01*
X108849342Y-62815476D02*
X108611247Y-62815476D01*
X108611247Y-62815476D02*
X108516009Y-62863095D01*
X108516009Y-62863095D02*
X108468390Y-62910714D01*
X108468390Y-62910714D02*
X108420771Y-63005952D01*
X108420771Y-63005952D02*
X108420771Y-63196428D01*
X108420771Y-63196428D02*
X108468390Y-63291666D01*
X108468390Y-63291666D02*
X108516009Y-63339285D01*
X108516009Y-63339285D02*
X108611247Y-63386904D01*
X117199580Y-131926666D02*
X117247200Y-131974285D01*
X117247200Y-131974285D02*
X117294819Y-132117142D01*
X117294819Y-132117142D02*
X117294819Y-132212380D01*
X117294819Y-132212380D02*
X117247200Y-132355237D01*
X117247200Y-132355237D02*
X117151961Y-132450475D01*
X117151961Y-132450475D02*
X117056723Y-132498094D01*
X117056723Y-132498094D02*
X116866247Y-132545713D01*
X116866247Y-132545713D02*
X116723390Y-132545713D01*
X116723390Y-132545713D02*
X116532914Y-132498094D01*
X116532914Y-132498094D02*
X116437676Y-132450475D01*
X116437676Y-132450475D02*
X116342438Y-132355237D01*
X116342438Y-132355237D02*
X116294819Y-132212380D01*
X116294819Y-132212380D02*
X116294819Y-132117142D01*
X116294819Y-132117142D02*
X116342438Y-131974285D01*
X116342438Y-131974285D02*
X116390057Y-131926666D01*
X116294819Y-131593332D02*
X116294819Y-130974285D01*
X116294819Y-130974285D02*
X116675771Y-131307618D01*
X116675771Y-131307618D02*
X116675771Y-131164761D01*
X116675771Y-131164761D02*
X116723390Y-131069523D01*
X116723390Y-131069523D02*
X116771009Y-131021904D01*
X116771009Y-131021904D02*
X116866247Y-130974285D01*
X116866247Y-130974285D02*
X117104342Y-130974285D01*
X117104342Y-130974285D02*
X117199580Y-131021904D01*
X117199580Y-131021904D02*
X117247200Y-131069523D01*
X117247200Y-131069523D02*
X117294819Y-131164761D01*
X117294819Y-131164761D02*
X117294819Y-131450475D01*
X117294819Y-131450475D02*
X117247200Y-131545713D01*
X117247200Y-131545713D02*
X117199580Y-131593332D01*
X151442142Y-102769580D02*
X151394523Y-102817200D01*
X151394523Y-102817200D02*
X151251666Y-102864819D01*
X151251666Y-102864819D02*
X151156428Y-102864819D01*
X151156428Y-102864819D02*
X151013571Y-102817200D01*
X151013571Y-102817200D02*
X150918333Y-102721961D01*
X150918333Y-102721961D02*
X150870714Y-102626723D01*
X150870714Y-102626723D02*
X150823095Y-102436247D01*
X150823095Y-102436247D02*
X150823095Y-102293390D01*
X150823095Y-102293390D02*
X150870714Y-102102914D01*
X150870714Y-102102914D02*
X150918333Y-102007676D01*
X150918333Y-102007676D02*
X151013571Y-101912438D01*
X151013571Y-101912438D02*
X151156428Y-101864819D01*
X151156428Y-101864819D02*
X151251666Y-101864819D01*
X151251666Y-101864819D02*
X151394523Y-101912438D01*
X151394523Y-101912438D02*
X151442142Y-101960057D01*
X152394523Y-102864819D02*
X151823095Y-102864819D01*
X152108809Y-102864819D02*
X152108809Y-101864819D01*
X152108809Y-101864819D02*
X152013571Y-102007676D01*
X152013571Y-102007676D02*
X151918333Y-102102914D01*
X151918333Y-102102914D02*
X151823095Y-102150533D01*
X152727857Y-101864819D02*
X153394523Y-101864819D01*
X153394523Y-101864819D02*
X152965952Y-102864819D01*
X163014819Y-81804166D02*
X162538628Y-82137499D01*
X163014819Y-82375594D02*
X162014819Y-82375594D01*
X162014819Y-82375594D02*
X162014819Y-81994642D01*
X162014819Y-81994642D02*
X162062438Y-81899404D01*
X162062438Y-81899404D02*
X162110057Y-81851785D01*
X162110057Y-81851785D02*
X162205295Y-81804166D01*
X162205295Y-81804166D02*
X162348152Y-81804166D01*
X162348152Y-81804166D02*
X162443390Y-81851785D01*
X162443390Y-81851785D02*
X162491009Y-81899404D01*
X162491009Y-81899404D02*
X162538628Y-81994642D01*
X162538628Y-81994642D02*
X162538628Y-82375594D01*
X162348152Y-80947023D02*
X163014819Y-80947023D01*
X161967200Y-81185118D02*
X162681485Y-81423213D01*
X162681485Y-81423213D02*
X162681485Y-80804166D01*
X124549819Y-64261904D02*
X125359342Y-64261904D01*
X125359342Y-64261904D02*
X125454580Y-64214285D01*
X125454580Y-64214285D02*
X125502200Y-64166666D01*
X125502200Y-64166666D02*
X125549819Y-64071428D01*
X125549819Y-64071428D02*
X125549819Y-63880952D01*
X125549819Y-63880952D02*
X125502200Y-63785714D01*
X125502200Y-63785714D02*
X125454580Y-63738095D01*
X125454580Y-63738095D02*
X125359342Y-63690476D01*
X125359342Y-63690476D02*
X124549819Y-63690476D01*
X124645057Y-63261904D02*
X124597438Y-63214285D01*
X124597438Y-63214285D02*
X124549819Y-63119047D01*
X124549819Y-63119047D02*
X124549819Y-62880952D01*
X124549819Y-62880952D02*
X124597438Y-62785714D01*
X124597438Y-62785714D02*
X124645057Y-62738095D01*
X124645057Y-62738095D02*
X124740295Y-62690476D01*
X124740295Y-62690476D02*
X124835533Y-62690476D01*
X124835533Y-62690476D02*
X124978390Y-62738095D01*
X124978390Y-62738095D02*
X125549819Y-63309523D01*
X125549819Y-63309523D02*
X125549819Y-62690476D01*
X150314819Y-127019166D02*
X149838628Y-127352499D01*
X150314819Y-127590594D02*
X149314819Y-127590594D01*
X149314819Y-127590594D02*
X149314819Y-127209642D01*
X149314819Y-127209642D02*
X149362438Y-127114404D01*
X149362438Y-127114404D02*
X149410057Y-127066785D01*
X149410057Y-127066785D02*
X149505295Y-127019166D01*
X149505295Y-127019166D02*
X149648152Y-127019166D01*
X149648152Y-127019166D02*
X149743390Y-127066785D01*
X149743390Y-127066785D02*
X149791009Y-127114404D01*
X149791009Y-127114404D02*
X149838628Y-127209642D01*
X149838628Y-127209642D02*
X149838628Y-127590594D01*
X150314819Y-126066785D02*
X150314819Y-126638213D01*
X150314819Y-126352499D02*
X149314819Y-126352499D01*
X149314819Y-126352499D02*
X149457676Y-126447737D01*
X149457676Y-126447737D02*
X149552914Y-126542975D01*
X149552914Y-126542975D02*
X149600533Y-126638213D01*
X124549819Y-80136904D02*
X125359342Y-80136904D01*
X125359342Y-80136904D02*
X125454580Y-80089285D01*
X125454580Y-80089285D02*
X125502200Y-80041666D01*
X125502200Y-80041666D02*
X125549819Y-79946428D01*
X125549819Y-79946428D02*
X125549819Y-79755952D01*
X125549819Y-79755952D02*
X125502200Y-79660714D01*
X125502200Y-79660714D02*
X125454580Y-79613095D01*
X125454580Y-79613095D02*
X125359342Y-79565476D01*
X125359342Y-79565476D02*
X124549819Y-79565476D01*
X125549819Y-78565476D02*
X125549819Y-79136904D01*
X125549819Y-78851190D02*
X124549819Y-78851190D01*
X124549819Y-78851190D02*
X124692676Y-78946428D01*
X124692676Y-78946428D02*
X124787914Y-79041666D01*
X124787914Y-79041666D02*
X124835533Y-79136904D01*
X163348333Y-74144580D02*
X163300714Y-74192200D01*
X163300714Y-74192200D02*
X163157857Y-74239819D01*
X163157857Y-74239819D02*
X163062619Y-74239819D01*
X163062619Y-74239819D02*
X162919762Y-74192200D01*
X162919762Y-74192200D02*
X162824524Y-74096961D01*
X162824524Y-74096961D02*
X162776905Y-74001723D01*
X162776905Y-74001723D02*
X162729286Y-73811247D01*
X162729286Y-73811247D02*
X162729286Y-73668390D01*
X162729286Y-73668390D02*
X162776905Y-73477914D01*
X162776905Y-73477914D02*
X162824524Y-73382676D01*
X162824524Y-73382676D02*
X162919762Y-73287438D01*
X162919762Y-73287438D02*
X163062619Y-73239819D01*
X163062619Y-73239819D02*
X163157857Y-73239819D01*
X163157857Y-73239819D02*
X163300714Y-73287438D01*
X163300714Y-73287438D02*
X163348333Y-73335057D01*
X164253095Y-73239819D02*
X163776905Y-73239819D01*
X163776905Y-73239819D02*
X163729286Y-73716009D01*
X163729286Y-73716009D02*
X163776905Y-73668390D01*
X163776905Y-73668390D02*
X163872143Y-73620771D01*
X163872143Y-73620771D02*
X164110238Y-73620771D01*
X164110238Y-73620771D02*
X164205476Y-73668390D01*
X164205476Y-73668390D02*
X164253095Y-73716009D01*
X164253095Y-73716009D02*
X164300714Y-73811247D01*
X164300714Y-73811247D02*
X164300714Y-74049342D01*
X164300714Y-74049342D02*
X164253095Y-74144580D01*
X164253095Y-74144580D02*
X164205476Y-74192200D01*
X164205476Y-74192200D02*
X164110238Y-74239819D01*
X164110238Y-74239819D02*
X163872143Y-74239819D01*
X163872143Y-74239819D02*
X163776905Y-74192200D01*
X163776905Y-74192200D02*
X163729286Y-74144580D01*
X169269580Y-102401666D02*
X169317200Y-102449285D01*
X169317200Y-102449285D02*
X169364819Y-102592142D01*
X169364819Y-102592142D02*
X169364819Y-102687380D01*
X169364819Y-102687380D02*
X169317200Y-102830237D01*
X169317200Y-102830237D02*
X169221961Y-102925475D01*
X169221961Y-102925475D02*
X169126723Y-102973094D01*
X169126723Y-102973094D02*
X168936247Y-103020713D01*
X168936247Y-103020713D02*
X168793390Y-103020713D01*
X168793390Y-103020713D02*
X168602914Y-102973094D01*
X168602914Y-102973094D02*
X168507676Y-102925475D01*
X168507676Y-102925475D02*
X168412438Y-102830237D01*
X168412438Y-102830237D02*
X168364819Y-102687380D01*
X168364819Y-102687380D02*
X168364819Y-102592142D01*
X168364819Y-102592142D02*
X168412438Y-102449285D01*
X168412438Y-102449285D02*
X168460057Y-102401666D01*
X169364819Y-101925475D02*
X169364819Y-101734999D01*
X169364819Y-101734999D02*
X169317200Y-101639761D01*
X169317200Y-101639761D02*
X169269580Y-101592142D01*
X169269580Y-101592142D02*
X169126723Y-101496904D01*
X169126723Y-101496904D02*
X168936247Y-101449285D01*
X168936247Y-101449285D02*
X168555295Y-101449285D01*
X168555295Y-101449285D02*
X168460057Y-101496904D01*
X168460057Y-101496904D02*
X168412438Y-101544523D01*
X168412438Y-101544523D02*
X168364819Y-101639761D01*
X168364819Y-101639761D02*
X168364819Y-101830237D01*
X168364819Y-101830237D02*
X168412438Y-101925475D01*
X168412438Y-101925475D02*
X168460057Y-101973094D01*
X168460057Y-101973094D02*
X168555295Y-102020713D01*
X168555295Y-102020713D02*
X168793390Y-102020713D01*
X168793390Y-102020713D02*
X168888628Y-101973094D01*
X168888628Y-101973094D02*
X168936247Y-101925475D01*
X168936247Y-101925475D02*
X168983866Y-101830237D01*
X168983866Y-101830237D02*
X168983866Y-101639761D01*
X168983866Y-101639761D02*
X168936247Y-101544523D01*
X168936247Y-101544523D02*
X168888628Y-101496904D01*
X168888628Y-101496904D02*
X168793390Y-101449285D01*
X151714580Y-131704166D02*
X151762200Y-131751785D01*
X151762200Y-131751785D02*
X151809819Y-131894642D01*
X151809819Y-131894642D02*
X151809819Y-131989880D01*
X151809819Y-131989880D02*
X151762200Y-132132737D01*
X151762200Y-132132737D02*
X151666961Y-132227975D01*
X151666961Y-132227975D02*
X151571723Y-132275594D01*
X151571723Y-132275594D02*
X151381247Y-132323213D01*
X151381247Y-132323213D02*
X151238390Y-132323213D01*
X151238390Y-132323213D02*
X151047914Y-132275594D01*
X151047914Y-132275594D02*
X150952676Y-132227975D01*
X150952676Y-132227975D02*
X150857438Y-132132737D01*
X150857438Y-132132737D02*
X150809819Y-131989880D01*
X150809819Y-131989880D02*
X150809819Y-131894642D01*
X150809819Y-131894642D02*
X150857438Y-131751785D01*
X150857438Y-131751785D02*
X150905057Y-131704166D01*
X151809819Y-130751785D02*
X151809819Y-131323213D01*
X151809819Y-131037499D02*
X150809819Y-131037499D01*
X150809819Y-131037499D02*
X150952676Y-131132737D01*
X150952676Y-131132737D02*
X151047914Y-131227975D01*
X151047914Y-131227975D02*
X151095533Y-131323213D01*
X140789819Y-91550237D02*
X139789819Y-91550237D01*
X140789819Y-91074047D02*
X139789819Y-91074047D01*
X139789819Y-91074047D02*
X140504104Y-90740714D01*
X140504104Y-90740714D02*
X139789819Y-90407381D01*
X139789819Y-90407381D02*
X140789819Y-90407381D01*
X139789819Y-89931190D02*
X140599342Y-89931190D01*
X140599342Y-89931190D02*
X140694580Y-89883571D01*
X140694580Y-89883571D02*
X140742200Y-89835952D01*
X140742200Y-89835952D02*
X140789819Y-89740714D01*
X140789819Y-89740714D02*
X140789819Y-89550238D01*
X140789819Y-89550238D02*
X140742200Y-89455000D01*
X140742200Y-89455000D02*
X140694580Y-89407381D01*
X140694580Y-89407381D02*
X140599342Y-89359762D01*
X140599342Y-89359762D02*
X139789819Y-89359762D01*
X134651905Y-116929819D02*
X134651905Y-117739342D01*
X134651905Y-117739342D02*
X134699524Y-117834580D01*
X134699524Y-117834580D02*
X134747143Y-117882200D01*
X134747143Y-117882200D02*
X134842381Y-117929819D01*
X134842381Y-117929819D02*
X135032857Y-117929819D01*
X135032857Y-117929819D02*
X135128095Y-117882200D01*
X135128095Y-117882200D02*
X135175714Y-117834580D01*
X135175714Y-117834580D02*
X135223333Y-117739342D01*
X135223333Y-117739342D02*
X135223333Y-116929819D01*
X136223333Y-117929819D02*
X135651905Y-117929819D01*
X135937619Y-117929819D02*
X135937619Y-116929819D01*
X135937619Y-116929819D02*
X135842381Y-117072676D01*
X135842381Y-117072676D02*
X135747143Y-117167914D01*
X135747143Y-117167914D02*
X135651905Y-117215533D01*
X137080476Y-117263152D02*
X137080476Y-117929819D01*
X136842381Y-116882200D02*
X136604286Y-117596485D01*
X136604286Y-117596485D02*
X137223333Y-117596485D01*
X147044580Y-73324166D02*
X147092200Y-73371785D01*
X147092200Y-73371785D02*
X147139819Y-73514642D01*
X147139819Y-73514642D02*
X147139819Y-73609880D01*
X147139819Y-73609880D02*
X147092200Y-73752737D01*
X147092200Y-73752737D02*
X146996961Y-73847975D01*
X146996961Y-73847975D02*
X146901723Y-73895594D01*
X146901723Y-73895594D02*
X146711247Y-73943213D01*
X146711247Y-73943213D02*
X146568390Y-73943213D01*
X146568390Y-73943213D02*
X146377914Y-73895594D01*
X146377914Y-73895594D02*
X146282676Y-73847975D01*
X146282676Y-73847975D02*
X146187438Y-73752737D01*
X146187438Y-73752737D02*
X146139819Y-73609880D01*
X146139819Y-73609880D02*
X146139819Y-73514642D01*
X146139819Y-73514642D02*
X146187438Y-73371785D01*
X146187438Y-73371785D02*
X146235057Y-73324166D01*
X146139819Y-72990832D02*
X146139819Y-72324166D01*
X146139819Y-72324166D02*
X147139819Y-72752737D01*
X158025180Y-129095595D02*
X157215657Y-129095595D01*
X157215657Y-129095595D02*
X157120419Y-129143214D01*
X157120419Y-129143214D02*
X157072800Y-129190833D01*
X157072800Y-129190833D02*
X157025180Y-129286071D01*
X157025180Y-129286071D02*
X157025180Y-129476547D01*
X157025180Y-129476547D02*
X157072800Y-129571785D01*
X157072800Y-129571785D02*
X157120419Y-129619404D01*
X157120419Y-129619404D02*
X157215657Y-129667023D01*
X157215657Y-129667023D02*
X158025180Y-129667023D01*
X157691847Y-130571785D02*
X157025180Y-130571785D01*
X158072800Y-130333690D02*
X157358514Y-130095595D01*
X157358514Y-130095595D02*
X157358514Y-130714642D01*
X167934819Y-80980594D02*
X166934819Y-80980594D01*
X166934819Y-80980594D02*
X166934819Y-80742499D01*
X166934819Y-80742499D02*
X166982438Y-80599642D01*
X166982438Y-80599642D02*
X167077676Y-80504404D01*
X167077676Y-80504404D02*
X167172914Y-80456785D01*
X167172914Y-80456785D02*
X167363390Y-80409166D01*
X167363390Y-80409166D02*
X167506247Y-80409166D01*
X167506247Y-80409166D02*
X167696723Y-80456785D01*
X167696723Y-80456785D02*
X167791961Y-80504404D01*
X167791961Y-80504404D02*
X167887200Y-80599642D01*
X167887200Y-80599642D02*
X167934819Y-80742499D01*
X167934819Y-80742499D02*
X167934819Y-80980594D01*
X167934819Y-79456785D02*
X167934819Y-80028213D01*
X167934819Y-79742499D02*
X166934819Y-79742499D01*
X166934819Y-79742499D02*
X167077676Y-79837737D01*
X167077676Y-79837737D02*
X167172914Y-79932975D01*
X167172914Y-79932975D02*
X167220533Y-80028213D01*
X163343333Y-77729580D02*
X163295714Y-77777200D01*
X163295714Y-77777200D02*
X163152857Y-77824819D01*
X163152857Y-77824819D02*
X163057619Y-77824819D01*
X163057619Y-77824819D02*
X162914762Y-77777200D01*
X162914762Y-77777200D02*
X162819524Y-77681961D01*
X162819524Y-77681961D02*
X162771905Y-77586723D01*
X162771905Y-77586723D02*
X162724286Y-77396247D01*
X162724286Y-77396247D02*
X162724286Y-77253390D01*
X162724286Y-77253390D02*
X162771905Y-77062914D01*
X162771905Y-77062914D02*
X162819524Y-76967676D01*
X162819524Y-76967676D02*
X162914762Y-76872438D01*
X162914762Y-76872438D02*
X163057619Y-76824819D01*
X163057619Y-76824819D02*
X163152857Y-76824819D01*
X163152857Y-76824819D02*
X163295714Y-76872438D01*
X163295714Y-76872438D02*
X163343333Y-76920057D01*
X164200476Y-76824819D02*
X164010000Y-76824819D01*
X164010000Y-76824819D02*
X163914762Y-76872438D01*
X163914762Y-76872438D02*
X163867143Y-76920057D01*
X163867143Y-76920057D02*
X163771905Y-77062914D01*
X163771905Y-77062914D02*
X163724286Y-77253390D01*
X163724286Y-77253390D02*
X163724286Y-77634342D01*
X163724286Y-77634342D02*
X163771905Y-77729580D01*
X163771905Y-77729580D02*
X163819524Y-77777200D01*
X163819524Y-77777200D02*
X163914762Y-77824819D01*
X163914762Y-77824819D02*
X164105238Y-77824819D01*
X164105238Y-77824819D02*
X164200476Y-77777200D01*
X164200476Y-77777200D02*
X164248095Y-77729580D01*
X164248095Y-77729580D02*
X164295714Y-77634342D01*
X164295714Y-77634342D02*
X164295714Y-77396247D01*
X164295714Y-77396247D02*
X164248095Y-77301009D01*
X164248095Y-77301009D02*
X164200476Y-77253390D01*
X164200476Y-77253390D02*
X164105238Y-77205771D01*
X164105238Y-77205771D02*
X163914762Y-77205771D01*
X163914762Y-77205771D02*
X163819524Y-77253390D01*
X163819524Y-77253390D02*
X163771905Y-77301009D01*
X163771905Y-77301009D02*
X163724286Y-77396247D01*
X147904580Y-131699166D02*
X147952200Y-131746785D01*
X147952200Y-131746785D02*
X147999819Y-131889642D01*
X147999819Y-131889642D02*
X147999819Y-131984880D01*
X147999819Y-131984880D02*
X147952200Y-132127737D01*
X147952200Y-132127737D02*
X147856961Y-132222975D01*
X147856961Y-132222975D02*
X147761723Y-132270594D01*
X147761723Y-132270594D02*
X147571247Y-132318213D01*
X147571247Y-132318213D02*
X147428390Y-132318213D01*
X147428390Y-132318213D02*
X147237914Y-132270594D01*
X147237914Y-132270594D02*
X147142676Y-132222975D01*
X147142676Y-132222975D02*
X147047438Y-132127737D01*
X147047438Y-132127737D02*
X146999819Y-131984880D01*
X146999819Y-131984880D02*
X146999819Y-131889642D01*
X146999819Y-131889642D02*
X147047438Y-131746785D01*
X147047438Y-131746785D02*
X147095057Y-131699166D01*
X147095057Y-131318213D02*
X147047438Y-131270594D01*
X147047438Y-131270594D02*
X146999819Y-131175356D01*
X146999819Y-131175356D02*
X146999819Y-130937261D01*
X146999819Y-130937261D02*
X147047438Y-130842023D01*
X147047438Y-130842023D02*
X147095057Y-130794404D01*
X147095057Y-130794404D02*
X147190295Y-130746785D01*
X147190295Y-130746785D02*
X147285533Y-130746785D01*
X147285533Y-130746785D02*
X147428390Y-130794404D01*
X147428390Y-130794404D02*
X147999819Y-131365832D01*
X147999819Y-131365832D02*
X147999819Y-130746785D01*
X170878332Y-65887800D02*
X170735475Y-65840180D01*
X170735475Y-65840180D02*
X170497380Y-65840180D01*
X170497380Y-65840180D02*
X170402142Y-65887800D01*
X170402142Y-65887800D02*
X170354523Y-65935419D01*
X170354523Y-65935419D02*
X170306904Y-66030657D01*
X170306904Y-66030657D02*
X170306904Y-66125895D01*
X170306904Y-66125895D02*
X170354523Y-66221133D01*
X170354523Y-66221133D02*
X170402142Y-66268752D01*
X170402142Y-66268752D02*
X170497380Y-66316371D01*
X170497380Y-66316371D02*
X170687856Y-66363990D01*
X170687856Y-66363990D02*
X170783094Y-66411609D01*
X170783094Y-66411609D02*
X170830713Y-66459228D01*
X170830713Y-66459228D02*
X170878332Y-66554466D01*
X170878332Y-66554466D02*
X170878332Y-66649704D01*
X170878332Y-66649704D02*
X170830713Y-66744942D01*
X170830713Y-66744942D02*
X170783094Y-66792561D01*
X170783094Y-66792561D02*
X170687856Y-66840180D01*
X170687856Y-66840180D02*
X170449761Y-66840180D01*
X170449761Y-66840180D02*
X170306904Y-66792561D01*
X169973570Y-66840180D02*
X169735475Y-65840180D01*
X169735475Y-65840180D02*
X169544999Y-66554466D01*
X169544999Y-66554466D02*
X169354523Y-65840180D01*
X169354523Y-65840180D02*
X169116428Y-66840180D01*
X168783094Y-66744942D02*
X168735475Y-66792561D01*
X168735475Y-66792561D02*
X168640237Y-66840180D01*
X168640237Y-66840180D02*
X168402142Y-66840180D01*
X168402142Y-66840180D02*
X168306904Y-66792561D01*
X168306904Y-66792561D02*
X168259285Y-66744942D01*
X168259285Y-66744942D02*
X168211666Y-66649704D01*
X168211666Y-66649704D02*
X168211666Y-66554466D01*
X168211666Y-66554466D02*
X168259285Y-66411609D01*
X168259285Y-66411609D02*
X168830713Y-65840180D01*
X168830713Y-65840180D02*
X168211666Y-65840180D01*
X115294580Y-129071666D02*
X115342200Y-129119285D01*
X115342200Y-129119285D02*
X115389819Y-129262142D01*
X115389819Y-129262142D02*
X115389819Y-129357380D01*
X115389819Y-129357380D02*
X115342200Y-129500237D01*
X115342200Y-129500237D02*
X115246961Y-129595475D01*
X115246961Y-129595475D02*
X115151723Y-129643094D01*
X115151723Y-129643094D02*
X114961247Y-129690713D01*
X114961247Y-129690713D02*
X114818390Y-129690713D01*
X114818390Y-129690713D02*
X114627914Y-129643094D01*
X114627914Y-129643094D02*
X114532676Y-129595475D01*
X114532676Y-129595475D02*
X114437438Y-129500237D01*
X114437438Y-129500237D02*
X114389819Y-129357380D01*
X114389819Y-129357380D02*
X114389819Y-129262142D01*
X114389819Y-129262142D02*
X114437438Y-129119285D01*
X114437438Y-129119285D02*
X114485057Y-129071666D01*
X114723152Y-128214523D02*
X115389819Y-128214523D01*
X114342200Y-128452618D02*
X115056485Y-128690713D01*
X115056485Y-128690713D02*
X115056485Y-128071666D01*
X124549819Y-96011904D02*
X125359342Y-96011904D01*
X125359342Y-96011904D02*
X125454580Y-95964285D01*
X125454580Y-95964285D02*
X125502200Y-95916666D01*
X125502200Y-95916666D02*
X125549819Y-95821428D01*
X125549819Y-95821428D02*
X125549819Y-95630952D01*
X125549819Y-95630952D02*
X125502200Y-95535714D01*
X125502200Y-95535714D02*
X125454580Y-95488095D01*
X125454580Y-95488095D02*
X125359342Y-95440476D01*
X125359342Y-95440476D02*
X124549819Y-95440476D01*
X124549819Y-95059523D02*
X124549819Y-94440476D01*
X124549819Y-94440476D02*
X124930771Y-94773809D01*
X124930771Y-94773809D02*
X124930771Y-94630952D01*
X124930771Y-94630952D02*
X124978390Y-94535714D01*
X124978390Y-94535714D02*
X125026009Y-94488095D01*
X125026009Y-94488095D02*
X125121247Y-94440476D01*
X125121247Y-94440476D02*
X125359342Y-94440476D01*
X125359342Y-94440476D02*
X125454580Y-94488095D01*
X125454580Y-94488095D02*
X125502200Y-94535714D01*
X125502200Y-94535714D02*
X125549819Y-94630952D01*
X125549819Y-94630952D02*
X125549819Y-94916666D01*
X125549819Y-94916666D02*
X125502200Y-95011904D01*
X125502200Y-95011904D02*
X125454580Y-95059523D01*
X133709580Y-88877857D02*
X133757200Y-88925476D01*
X133757200Y-88925476D02*
X133804819Y-89068333D01*
X133804819Y-89068333D02*
X133804819Y-89163571D01*
X133804819Y-89163571D02*
X133757200Y-89306428D01*
X133757200Y-89306428D02*
X133661961Y-89401666D01*
X133661961Y-89401666D02*
X133566723Y-89449285D01*
X133566723Y-89449285D02*
X133376247Y-89496904D01*
X133376247Y-89496904D02*
X133233390Y-89496904D01*
X133233390Y-89496904D02*
X133042914Y-89449285D01*
X133042914Y-89449285D02*
X132947676Y-89401666D01*
X132947676Y-89401666D02*
X132852438Y-89306428D01*
X132852438Y-89306428D02*
X132804819Y-89163571D01*
X132804819Y-89163571D02*
X132804819Y-89068333D01*
X132804819Y-89068333D02*
X132852438Y-88925476D01*
X132852438Y-88925476D02*
X132900057Y-88877857D01*
X133804819Y-87925476D02*
X133804819Y-88496904D01*
X133804819Y-88211190D02*
X132804819Y-88211190D01*
X132804819Y-88211190D02*
X132947676Y-88306428D01*
X132947676Y-88306428D02*
X133042914Y-88401666D01*
X133042914Y-88401666D02*
X133090533Y-88496904D01*
X133233390Y-87354047D02*
X133185771Y-87449285D01*
X133185771Y-87449285D02*
X133138152Y-87496904D01*
X133138152Y-87496904D02*
X133042914Y-87544523D01*
X133042914Y-87544523D02*
X132995295Y-87544523D01*
X132995295Y-87544523D02*
X132900057Y-87496904D01*
X132900057Y-87496904D02*
X132852438Y-87449285D01*
X132852438Y-87449285D02*
X132804819Y-87354047D01*
X132804819Y-87354047D02*
X132804819Y-87163571D01*
X132804819Y-87163571D02*
X132852438Y-87068333D01*
X132852438Y-87068333D02*
X132900057Y-87020714D01*
X132900057Y-87020714D02*
X132995295Y-86973095D01*
X132995295Y-86973095D02*
X133042914Y-86973095D01*
X133042914Y-86973095D02*
X133138152Y-87020714D01*
X133138152Y-87020714D02*
X133185771Y-87068333D01*
X133185771Y-87068333D02*
X133233390Y-87163571D01*
X133233390Y-87163571D02*
X133233390Y-87354047D01*
X133233390Y-87354047D02*
X133281009Y-87449285D01*
X133281009Y-87449285D02*
X133328628Y-87496904D01*
X133328628Y-87496904D02*
X133423866Y-87544523D01*
X133423866Y-87544523D02*
X133614342Y-87544523D01*
X133614342Y-87544523D02*
X133709580Y-87496904D01*
X133709580Y-87496904D02*
X133757200Y-87449285D01*
X133757200Y-87449285D02*
X133804819Y-87354047D01*
X133804819Y-87354047D02*
X133804819Y-87163571D01*
X133804819Y-87163571D02*
X133757200Y-87068333D01*
X133757200Y-87068333D02*
X133709580Y-87020714D01*
X133709580Y-87020714D02*
X133614342Y-86973095D01*
X133614342Y-86973095D02*
X133423866Y-86973095D01*
X133423866Y-86973095D02*
X133328628Y-87020714D01*
X133328628Y-87020714D02*
X133281009Y-87068333D01*
X133281009Y-87068333D02*
X133233390Y-87163571D01*
X162393333Y-88084819D02*
X161917143Y-88084819D01*
X161917143Y-88084819D02*
X161917143Y-87084819D01*
X163250476Y-88084819D02*
X162679048Y-88084819D01*
X162964762Y-88084819D02*
X162964762Y-87084819D01*
X162964762Y-87084819D02*
X162869524Y-87227676D01*
X162869524Y-87227676D02*
X162774286Y-87322914D01*
X162774286Y-87322914D02*
X162679048Y-87370533D01*
X108039819Y-96136904D02*
X108849342Y-96136904D01*
X108849342Y-96136904D02*
X108944580Y-96089285D01*
X108944580Y-96089285D02*
X108992200Y-96041666D01*
X108992200Y-96041666D02*
X109039819Y-95946428D01*
X109039819Y-95946428D02*
X109039819Y-95755952D01*
X109039819Y-95755952D02*
X108992200Y-95660714D01*
X108992200Y-95660714D02*
X108944580Y-95613095D01*
X108944580Y-95613095D02*
X108849342Y-95565476D01*
X108849342Y-95565476D02*
X108039819Y-95565476D01*
X108468390Y-94946428D02*
X108420771Y-95041666D01*
X108420771Y-95041666D02*
X108373152Y-95089285D01*
X108373152Y-95089285D02*
X108277914Y-95136904D01*
X108277914Y-95136904D02*
X108230295Y-95136904D01*
X108230295Y-95136904D02*
X108135057Y-95089285D01*
X108135057Y-95089285D02*
X108087438Y-95041666D01*
X108087438Y-95041666D02*
X108039819Y-94946428D01*
X108039819Y-94946428D02*
X108039819Y-94755952D01*
X108039819Y-94755952D02*
X108087438Y-94660714D01*
X108087438Y-94660714D02*
X108135057Y-94613095D01*
X108135057Y-94613095D02*
X108230295Y-94565476D01*
X108230295Y-94565476D02*
X108277914Y-94565476D01*
X108277914Y-94565476D02*
X108373152Y-94613095D01*
X108373152Y-94613095D02*
X108420771Y-94660714D01*
X108420771Y-94660714D02*
X108468390Y-94755952D01*
X108468390Y-94755952D02*
X108468390Y-94946428D01*
X108468390Y-94946428D02*
X108516009Y-95041666D01*
X108516009Y-95041666D02*
X108563628Y-95089285D01*
X108563628Y-95089285D02*
X108658866Y-95136904D01*
X108658866Y-95136904D02*
X108849342Y-95136904D01*
X108849342Y-95136904D02*
X108944580Y-95089285D01*
X108944580Y-95089285D02*
X108992200Y-95041666D01*
X108992200Y-95041666D02*
X109039819Y-94946428D01*
X109039819Y-94946428D02*
X109039819Y-94755952D01*
X109039819Y-94755952D02*
X108992200Y-94660714D01*
X108992200Y-94660714D02*
X108944580Y-94613095D01*
X108944580Y-94613095D02*
X108849342Y-94565476D01*
X108849342Y-94565476D02*
X108658866Y-94565476D01*
X108658866Y-94565476D02*
X108563628Y-94613095D01*
X108563628Y-94613095D02*
X108516009Y-94660714D01*
X108516009Y-94660714D02*
X108468390Y-94755952D01*
X147780951Y-95832200D02*
X147923808Y-95879819D01*
X147923808Y-95879819D02*
X148161903Y-95879819D01*
X148161903Y-95879819D02*
X148257141Y-95832200D01*
X148257141Y-95832200D02*
X148304760Y-95784580D01*
X148304760Y-95784580D02*
X148352379Y-95689342D01*
X148352379Y-95689342D02*
X148352379Y-95594104D01*
X148352379Y-95594104D02*
X148304760Y-95498866D01*
X148304760Y-95498866D02*
X148257141Y-95451247D01*
X148257141Y-95451247D02*
X148161903Y-95403628D01*
X148161903Y-95403628D02*
X147971427Y-95356009D01*
X147971427Y-95356009D02*
X147876189Y-95308390D01*
X147876189Y-95308390D02*
X147828570Y-95260771D01*
X147828570Y-95260771D02*
X147780951Y-95165533D01*
X147780951Y-95165533D02*
X147780951Y-95070295D01*
X147780951Y-95070295D02*
X147828570Y-94975057D01*
X147828570Y-94975057D02*
X147876189Y-94927438D01*
X147876189Y-94927438D02*
X147971427Y-94879819D01*
X147971427Y-94879819D02*
X148209522Y-94879819D01*
X148209522Y-94879819D02*
X148352379Y-94927438D01*
X148638094Y-95213152D02*
X149019046Y-95213152D01*
X148780951Y-94879819D02*
X148780951Y-95736961D01*
X148780951Y-95736961D02*
X148828570Y-95832200D01*
X148828570Y-95832200D02*
X148923808Y-95879819D01*
X148923808Y-95879819D02*
X149019046Y-95879819D01*
X149780951Y-95879819D02*
X149780951Y-95356009D01*
X149780951Y-95356009D02*
X149733332Y-95260771D01*
X149733332Y-95260771D02*
X149638094Y-95213152D01*
X149638094Y-95213152D02*
X149447618Y-95213152D01*
X149447618Y-95213152D02*
X149352380Y-95260771D01*
X149780951Y-95832200D02*
X149685713Y-95879819D01*
X149685713Y-95879819D02*
X149447618Y-95879819D01*
X149447618Y-95879819D02*
X149352380Y-95832200D01*
X149352380Y-95832200D02*
X149304761Y-95736961D01*
X149304761Y-95736961D02*
X149304761Y-95641723D01*
X149304761Y-95641723D02*
X149352380Y-95546485D01*
X149352380Y-95546485D02*
X149447618Y-95498866D01*
X149447618Y-95498866D02*
X149685713Y-95498866D01*
X149685713Y-95498866D02*
X149780951Y-95451247D01*
X150257142Y-95879819D02*
X150257142Y-95213152D01*
X150257142Y-95403628D02*
X150304761Y-95308390D01*
X150304761Y-95308390D02*
X150352380Y-95260771D01*
X150352380Y-95260771D02*
X150447618Y-95213152D01*
X150447618Y-95213152D02*
X150542856Y-95213152D01*
X150733333Y-95213152D02*
X151114285Y-95213152D01*
X150876190Y-94879819D02*
X150876190Y-95736961D01*
X150876190Y-95736961D02*
X150923809Y-95832200D01*
X150923809Y-95832200D02*
X151019047Y-95879819D01*
X151019047Y-95879819D02*
X151114285Y-95879819D01*
X152209524Y-95879819D02*
X152209524Y-94879819D01*
X152209524Y-94879819D02*
X152542857Y-95594104D01*
X152542857Y-95594104D02*
X152876190Y-94879819D01*
X152876190Y-94879819D02*
X152876190Y-95879819D01*
X153495238Y-95879819D02*
X153400000Y-95832200D01*
X153400000Y-95832200D02*
X153352381Y-95784580D01*
X153352381Y-95784580D02*
X153304762Y-95689342D01*
X153304762Y-95689342D02*
X153304762Y-95403628D01*
X153304762Y-95403628D02*
X153352381Y-95308390D01*
X153352381Y-95308390D02*
X153400000Y-95260771D01*
X153400000Y-95260771D02*
X153495238Y-95213152D01*
X153495238Y-95213152D02*
X153638095Y-95213152D01*
X153638095Y-95213152D02*
X153733333Y-95260771D01*
X153733333Y-95260771D02*
X153780952Y-95308390D01*
X153780952Y-95308390D02*
X153828571Y-95403628D01*
X153828571Y-95403628D02*
X153828571Y-95689342D01*
X153828571Y-95689342D02*
X153780952Y-95784580D01*
X153780952Y-95784580D02*
X153733333Y-95832200D01*
X153733333Y-95832200D02*
X153638095Y-95879819D01*
X153638095Y-95879819D02*
X153495238Y-95879819D01*
X154685714Y-95879819D02*
X154685714Y-94879819D01*
X154685714Y-95832200D02*
X154590476Y-95879819D01*
X154590476Y-95879819D02*
X154400000Y-95879819D01*
X154400000Y-95879819D02*
X154304762Y-95832200D01*
X154304762Y-95832200D02*
X154257143Y-95784580D01*
X154257143Y-95784580D02*
X154209524Y-95689342D01*
X154209524Y-95689342D02*
X154209524Y-95403628D01*
X154209524Y-95403628D02*
X154257143Y-95308390D01*
X154257143Y-95308390D02*
X154304762Y-95260771D01*
X154304762Y-95260771D02*
X154400000Y-95213152D01*
X154400000Y-95213152D02*
X154590476Y-95213152D01*
X154590476Y-95213152D02*
X154685714Y-95260771D01*
X155590476Y-95213152D02*
X155590476Y-95879819D01*
X155161905Y-95213152D02*
X155161905Y-95736961D01*
X155161905Y-95736961D02*
X155209524Y-95832200D01*
X155209524Y-95832200D02*
X155304762Y-95879819D01*
X155304762Y-95879819D02*
X155447619Y-95879819D01*
X155447619Y-95879819D02*
X155542857Y-95832200D01*
X155542857Y-95832200D02*
X155590476Y-95784580D01*
X156209524Y-95879819D02*
X156114286Y-95832200D01*
X156114286Y-95832200D02*
X156066667Y-95736961D01*
X156066667Y-95736961D02*
X156066667Y-94879819D01*
X156971429Y-95832200D02*
X156876191Y-95879819D01*
X156876191Y-95879819D02*
X156685715Y-95879819D01*
X156685715Y-95879819D02*
X156590477Y-95832200D01*
X156590477Y-95832200D02*
X156542858Y-95736961D01*
X156542858Y-95736961D02*
X156542858Y-95356009D01*
X156542858Y-95356009D02*
X156590477Y-95260771D01*
X156590477Y-95260771D02*
X156685715Y-95213152D01*
X156685715Y-95213152D02*
X156876191Y-95213152D01*
X156876191Y-95213152D02*
X156971429Y-95260771D01*
X156971429Y-95260771D02*
X157019048Y-95356009D01*
X157019048Y-95356009D02*
X157019048Y-95451247D01*
X157019048Y-95451247D02*
X156542858Y-95546485D01*
X117609580Y-82997857D02*
X117657200Y-83045476D01*
X117657200Y-83045476D02*
X117704819Y-83188333D01*
X117704819Y-83188333D02*
X117704819Y-83283571D01*
X117704819Y-83283571D02*
X117657200Y-83426428D01*
X117657200Y-83426428D02*
X117561961Y-83521666D01*
X117561961Y-83521666D02*
X117466723Y-83569285D01*
X117466723Y-83569285D02*
X117276247Y-83616904D01*
X117276247Y-83616904D02*
X117133390Y-83616904D01*
X117133390Y-83616904D02*
X116942914Y-83569285D01*
X116942914Y-83569285D02*
X116847676Y-83521666D01*
X116847676Y-83521666D02*
X116752438Y-83426428D01*
X116752438Y-83426428D02*
X116704819Y-83283571D01*
X116704819Y-83283571D02*
X116704819Y-83188333D01*
X116704819Y-83188333D02*
X116752438Y-83045476D01*
X116752438Y-83045476D02*
X116800057Y-82997857D01*
X117704819Y-82045476D02*
X117704819Y-82616904D01*
X117704819Y-82331190D02*
X116704819Y-82331190D01*
X116704819Y-82331190D02*
X116847676Y-82426428D01*
X116847676Y-82426428D02*
X116942914Y-82521666D01*
X116942914Y-82521666D02*
X116990533Y-82616904D01*
X117704819Y-81093095D02*
X117704819Y-81664523D01*
X117704819Y-81378809D02*
X116704819Y-81378809D01*
X116704819Y-81378809D02*
X116847676Y-81474047D01*
X116847676Y-81474047D02*
X116942914Y-81569285D01*
X116942914Y-81569285D02*
X116990533Y-81664523D01*
X166569819Y-81804166D02*
X166093628Y-82137499D01*
X166569819Y-82375594D02*
X165569819Y-82375594D01*
X165569819Y-82375594D02*
X165569819Y-81994642D01*
X165569819Y-81994642D02*
X165617438Y-81899404D01*
X165617438Y-81899404D02*
X165665057Y-81851785D01*
X165665057Y-81851785D02*
X165760295Y-81804166D01*
X165760295Y-81804166D02*
X165903152Y-81804166D01*
X165903152Y-81804166D02*
X165998390Y-81851785D01*
X165998390Y-81851785D02*
X166046009Y-81899404D01*
X166046009Y-81899404D02*
X166093628Y-81994642D01*
X166093628Y-81994642D02*
X166093628Y-82375594D01*
X165569819Y-81470832D02*
X165569819Y-80851785D01*
X165569819Y-80851785D02*
X165950771Y-81185118D01*
X165950771Y-81185118D02*
X165950771Y-81042261D01*
X165950771Y-81042261D02*
X165998390Y-80947023D01*
X165998390Y-80947023D02*
X166046009Y-80899404D01*
X166046009Y-80899404D02*
X166141247Y-80851785D01*
X166141247Y-80851785D02*
X166379342Y-80851785D01*
X166379342Y-80851785D02*
X166474580Y-80899404D01*
X166474580Y-80899404D02*
X166522200Y-80947023D01*
X166522200Y-80947023D02*
X166569819Y-81042261D01*
X166569819Y-81042261D02*
X166569819Y-81327975D01*
X166569819Y-81327975D02*
X166522200Y-81423213D01*
X166522200Y-81423213D02*
X166474580Y-81470832D01*
X108039819Y-80261904D02*
X108849342Y-80261904D01*
X108849342Y-80261904D02*
X108944580Y-80214285D01*
X108944580Y-80214285D02*
X108992200Y-80166666D01*
X108992200Y-80166666D02*
X109039819Y-80071428D01*
X109039819Y-80071428D02*
X109039819Y-79880952D01*
X109039819Y-79880952D02*
X108992200Y-79785714D01*
X108992200Y-79785714D02*
X108944580Y-79738095D01*
X108944580Y-79738095D02*
X108849342Y-79690476D01*
X108849342Y-79690476D02*
X108039819Y-79690476D01*
X108039819Y-79309523D02*
X108039819Y-78642857D01*
X108039819Y-78642857D02*
X109039819Y-79071428D01*
D11*
%TO.C,C19*%
X139753748Y-61495000D02*
X140276252Y-61495000D01*
X139753748Y-62965000D02*
X140276252Y-62965000D01*
%TO.C,R2*%
X118457500Y-127685436D02*
X118457500Y-128139564D01*
X116987500Y-127685436D02*
X116987500Y-128139564D01*
%TO.C,C8*%
X153296252Y-78337500D02*
X152773748Y-78337500D01*
X153296252Y-76867500D02*
X152773748Y-76867500D01*
%TO.C,C14*%
X132815000Y-98483748D02*
X132815000Y-99006252D01*
X131345000Y-98483748D02*
X131345000Y-99006252D01*
D12*
%TO.C,U5*%
X173442000Y-135687001D02*
X173442000Y-125933002D01*
X173442000Y-125933002D02*
X163188000Y-125933002D01*
X163188000Y-135687001D02*
X173442000Y-135687001D01*
X163188000Y-125933002D02*
X163188000Y-135687001D01*
D13*
X175601000Y-130810000D02*
G75*
G03*
X175601000Y-130810000I-381000J0D01*
G01*
D11*
%TO.C,U17*%
X153325000Y-73025000D02*
X153325000Y-71225000D01*
X153325000Y-73025000D02*
X153325000Y-73825000D01*
X150205000Y-73025000D02*
X150205000Y-72225000D01*
X150205000Y-73025000D02*
X150205000Y-73825000D01*
%TO.C,Servo Motor*%
X145475000Y-64075000D02*
X145475000Y-65405000D01*
X144145000Y-64075000D02*
X145475000Y-64075000D01*
X142875000Y-64075000D02*
X137735000Y-64075000D01*
X142875000Y-64075000D02*
X142875000Y-66735000D01*
X137735000Y-64075000D02*
X137735000Y-66735000D01*
X142875000Y-66735000D02*
X137735000Y-66735000D01*
D12*
%TO.C,U11*%
X112607100Y-135687001D02*
X112607100Y-125933002D01*
X112607100Y-125933002D02*
X102353100Y-125933002D01*
X102353100Y-135687001D02*
X112607100Y-135687001D01*
X102353100Y-125933002D02*
X102353100Y-135687001D01*
D13*
X114766100Y-130810000D02*
G75*
G03*
X114766100Y-130810000I-381000J0D01*
G01*
D11*
%TO.C,C13*%
X116305000Y-66858748D02*
X116305000Y-67381252D01*
X114835000Y-66858748D02*
X114835000Y-67381252D01*
%TO.C,C16*%
X132815000Y-82608748D02*
X132815000Y-83131252D01*
X131345000Y-82608748D02*
X131345000Y-83131252D01*
%TO.C,C10*%
X167740000Y-97848748D02*
X167740000Y-98371252D01*
X166270000Y-97848748D02*
X166270000Y-98371252D01*
%TO.C,C15*%
X132815000Y-66413748D02*
X132815000Y-66936252D01*
X131345000Y-66413748D02*
X131345000Y-66936252D01*
%TO.C,F1*%
X163701252Y-68780000D02*
X163178748Y-68780000D01*
X163701252Y-67360000D02*
X163178748Y-67360000D01*
D12*
%TO.C,U6*%
X102557999Y-71372000D02*
X114013399Y-71372000D01*
X114013399Y-71372000D02*
X114013399Y-55878000D01*
X102557999Y-55878000D02*
X102557999Y-71372000D01*
X114013399Y-55878000D02*
X102557999Y-55878000D01*
D13*
X108966000Y-73150000D02*
G75*
G03*
X108966000Y-73150000I-381000J0D01*
G01*
D11*
%TO.C,C3*%
X118010000Y-132021252D02*
X118010000Y-131498748D01*
X119480000Y-132021252D02*
X119480000Y-131498748D01*
%TO.C,C17*%
X151823748Y-99770000D02*
X152346252Y-99770000D01*
X151823748Y-101240000D02*
X152346252Y-101240000D01*
%TO.C,R4*%
X159920000Y-81864564D02*
X159920000Y-81410436D01*
X161390000Y-81864564D02*
X161390000Y-81410436D01*
D14*
%TO.C,U10*%
X126017500Y-126798146D02*
X126017500Y-131700001D01*
X121007500Y-129150001D02*
X121007500Y-131299999D01*
D12*
%TO.C,U2*%
X119067999Y-71247000D02*
X130523399Y-71247000D01*
X130523399Y-71247000D02*
X130523399Y-55753000D01*
X119067999Y-55753000D02*
X119067999Y-71247000D01*
X130523399Y-55753000D02*
X119067999Y-55753000D01*
D13*
X125476000Y-73025000D02*
G75*
G03*
X125476000Y-73025000I-381000J0D01*
G01*
D11*
%TO.C,R1*%
X152500000Y-126902936D02*
X152500000Y-127357064D01*
X151030000Y-126902936D02*
X151030000Y-127357064D01*
D12*
%TO.C,U1*%
X119067999Y-87122000D02*
X130523399Y-87122000D01*
X130523399Y-87122000D02*
X130523399Y-71628000D01*
X119067999Y-71628000D02*
X119067999Y-87122000D01*
X130523399Y-71628000D02*
X119067999Y-71628000D01*
D13*
X125476000Y-88900000D02*
G75*
G03*
X125476000Y-88900000I-381000J0D01*
G01*
D11*
%TO.C,C5*%
X163253748Y-71145000D02*
X163776252Y-71145000D01*
X163253748Y-72615000D02*
X163776252Y-72615000D01*
%TO.C,C9*%
X167740000Y-101973748D02*
X167740000Y-102496252D01*
X166270000Y-101973748D02*
X166270000Y-102496252D01*
%TO.C,C1*%
X152300000Y-131798752D02*
X152300000Y-131276248D01*
X153770000Y-131798752D02*
X153770000Y-131276248D01*
%TO.C,IMU*%
X136735000Y-88630000D02*
X136735000Y-94690000D01*
X136735000Y-88630000D02*
X138855000Y-88630000D01*
X136735000Y-94690000D02*
X138855000Y-94690000D01*
X137795000Y-86570000D02*
X138855000Y-86570000D01*
X138855000Y-86570000D02*
X138855000Y-87630000D01*
X138855000Y-88630000D02*
X138855000Y-94690000D01*
D15*
%TO.C,U14*%
X166435000Y-110905000D02*
X166435000Y-118965000D01*
X165735000Y-123825000D02*
X165735000Y-118965000D01*
X165735000Y-123825000D02*
X104775000Y-123825000D01*
X165735000Y-118965000D02*
X166435000Y-118965000D01*
X165735000Y-110905000D02*
X166435000Y-110905000D01*
X165735000Y-106045000D02*
X165735000Y-110905000D01*
X104775000Y-123825000D02*
X104775000Y-106045000D01*
X104775000Y-106045000D02*
X165735000Y-106045000D01*
D14*
X159485000Y-105435000D02*
G75*
G03*
X159485000Y-105435000I-100000J0D01*
G01*
D11*
%TO.C,C7*%
X149325000Y-72896248D02*
X149325000Y-73418752D01*
X147855000Y-72896248D02*
X147855000Y-73418752D01*
D14*
%TO.C,U4*%
X159980000Y-126807501D02*
X159980000Y-131432501D01*
X154980000Y-128857499D02*
X154980000Y-130857501D01*
D11*
%TO.C,C12*%
X116305000Y-97968748D02*
X116305000Y-98491252D01*
X114835000Y-97968748D02*
X114835000Y-98491252D01*
%TO.C,D1*%
X168175000Y-81727500D02*
X169645000Y-81727500D01*
X169645000Y-81727500D02*
X169645000Y-79442500D01*
X168175000Y-79442500D02*
X168175000Y-81727500D01*
%TO.C,C6*%
X163771252Y-76425000D02*
X163248748Y-76425000D01*
X163771252Y-74955000D02*
X163248748Y-74955000D01*
%TO.C,C2*%
X148490000Y-131793752D02*
X148490000Y-131271248D01*
X149960000Y-131793752D02*
X149960000Y-131271248D01*
D12*
%TO.C,SW2*%
X172974000Y-76201000D02*
X172974000Y-56389000D01*
X172974000Y-56389000D02*
X166116000Y-56389000D01*
X166116000Y-76201000D02*
X172974000Y-76201000D01*
X166116000Y-56389000D02*
X166116000Y-76201000D01*
D11*
%TO.C,C4*%
X114200000Y-132021252D02*
X114200000Y-131498748D01*
X115670000Y-132021252D02*
X115670000Y-131498748D01*
D12*
%TO.C,U3*%
X119067999Y-102997000D02*
X130523399Y-102997000D01*
X130523399Y-102997000D02*
X130523399Y-87503000D01*
X119067999Y-87503000D02*
X119067999Y-102997000D01*
X130523399Y-87503000D02*
X119067999Y-87503000D01*
D13*
X125476000Y-104775000D02*
G75*
G03*
X125476000Y-104775000I-381000J0D01*
G01*
D11*
%TO.C,GND1*%
X164905000Y-63195000D02*
X164905000Y-60045000D01*
X164905000Y-60045000D02*
X162055000Y-57445000D01*
X162055000Y-65745000D02*
X164905000Y-63195000D01*
X162055000Y-57445000D02*
X149205000Y-57445000D01*
X149205000Y-65745000D02*
X162055000Y-65745000D01*
X149205000Y-57445000D02*
X149205000Y-65745000D01*
%TO.C,C18*%
X135990000Y-87973748D02*
X135990000Y-88496252D01*
X134520000Y-87973748D02*
X134520000Y-88496252D01*
%TO.C,L1*%
X157160000Y-84770000D02*
X157160000Y-86170000D01*
X157160000Y-84770000D02*
X158560000Y-84770000D01*
X157410000Y-85420000D02*
X157410000Y-88170000D01*
X157410000Y-92170000D02*
X157410000Y-94920000D01*
X157810000Y-85020000D02*
X167310000Y-85020000D01*
X167310000Y-95320000D02*
X157810000Y-95320000D01*
X167710000Y-85420000D02*
X167710000Y-88170000D01*
X167710000Y-92170000D02*
X167710000Y-94920000D01*
X157810000Y-85020000D02*
G75*
G03*
X157410000Y-85420000I-1J-399999D01*
G01*
X157410000Y-94920000D02*
G75*
G03*
X157810000Y-95320000I399999J-1D01*
G01*
X167710000Y-85420000D02*
G75*
G03*
X167310000Y-85020000I-400000J0D01*
G01*
X167310000Y-95320000D02*
G75*
G03*
X167710000Y-94920000I0J400000D01*
G01*
D12*
%TO.C,U8*%
X102557999Y-103122000D02*
X114013399Y-103122000D01*
X114013399Y-103122000D02*
X114013399Y-87628000D01*
X102557999Y-87628000D02*
X102557999Y-103122000D01*
X114013399Y-87628000D02*
X102557999Y-87628000D01*
D13*
X108966000Y-104900000D02*
G75*
G03*
X108966000Y-104900000I-381000J0D01*
G01*
D11*
%TO.C,Start Module*%
X152575000Y-99025000D02*
X156635000Y-99025000D01*
X152575000Y-99025000D02*
X152575000Y-96905000D01*
X156635000Y-99025000D02*
X156635000Y-96905000D01*
X150515000Y-97965000D02*
X150515000Y-96905000D01*
X150515000Y-96905000D02*
X151575000Y-96905000D01*
X152575000Y-96905000D02*
X156635000Y-96905000D01*
%TO.C,C11*%
X116305000Y-82093748D02*
X116305000Y-82616252D01*
X114835000Y-82093748D02*
X114835000Y-82616252D01*
%TO.C,R3*%
X165200000Y-81410436D02*
X165200000Y-81864564D01*
X163730000Y-81410436D02*
X163730000Y-81864564D01*
D12*
%TO.C,U7*%
X102557999Y-87247000D02*
X114013399Y-87247000D01*
X114013399Y-87247000D02*
X114013399Y-71753000D01*
X102557999Y-71753000D02*
X102557999Y-87247000D01*
X114013399Y-71753000D02*
X102557999Y-71753000D01*
D13*
X108966000Y-89025000D02*
G75*
G03*
X108966000Y-89025000I-381000J0D01*
G01*
%TD*%
M02*
