G04 #@! TF.GenerationSoftware,KiCad,Pcbnew,8.0.3*
G04 #@! TF.CreationDate,2025-05-14T17:26:27-04:00*
G04 #@! TF.ProjectId,ballsi,62616c6c-7369-42e6-9b69-6361645f7063,rev?*
G04 #@! TF.SameCoordinates,Original*
G04 #@! TF.FileFunction,Copper,L1,Top*
G04 #@! TF.FilePolarity,Positive*
%FSLAX46Y46*%
G04 Gerber Fmt 4.6, Leading zero omitted, Abs format (unit mm)*
G04 Created by KiCad (PCBNEW 8.0.3) date 2025-05-14 17:26:27*
%MOMM*%
%LPD*%
G01*
G04 APERTURE LIST*
G04 Aperture macros list*
%AMRoundRect*
0 Rectangle with rounded corners*
0 $1 Rounding radius*
0 $2 $3 $4 $5 $6 $7 $8 $9 X,Y pos of 4 corners*
0 Add a 4 corners polygon primitive as box body*
4,1,4,$2,$3,$4,$5,$6,$7,$8,$9,$2,$3,0*
0 Add four circle primitives for the rounded corners*
1,1,$1+$1,$2,$3*
1,1,$1+$1,$4,$5*
1,1,$1+$1,$6,$7*
1,1,$1+$1,$8,$9*
0 Add four rect primitives between the rounded corners*
20,1,$1+$1,$2,$3,$4,$5,0*
20,1,$1+$1,$4,$5,$6,$7,0*
20,1,$1+$1,$6,$7,$8,$9,0*
20,1,$1+$1,$8,$9,$2,$3,0*%
G04 Aperture macros list end*
G04 #@! TA.AperFunction,ComponentPad*
%ADD10O,1.700000X1.700000*%
G04 #@! TD*
G04 #@! TA.AperFunction,ComponentPad*
%ADD11R,1.700000X1.700000*%
G04 #@! TD*
G04 #@! TA.AperFunction,SMDPad,CuDef*
%ADD12RoundRect,0.250000X0.400000X0.625000X-0.400000X0.625000X-0.400000X-0.625000X0.400000X-0.625000X0*%
G04 #@! TD*
G04 #@! TA.AperFunction,ComponentPad*
%ADD13R,1.500000X1.050000*%
G04 #@! TD*
G04 #@! TA.AperFunction,ComponentPad*
%ADD14O,1.500000X1.050000*%
G04 #@! TD*
G04 #@! TA.AperFunction,SMDPad,CuDef*
%ADD15RoundRect,0.250001X-0.462499X-0.624999X0.462499X-0.624999X0.462499X0.624999X-0.462499X0.624999X0*%
G04 #@! TD*
G04 #@! TA.AperFunction,SMDPad,CuDef*
%ADD16RoundRect,0.250000X0.625000X-0.400000X0.625000X0.400000X-0.625000X0.400000X-0.625000X-0.400000X0*%
G04 #@! TD*
G04 #@! TA.AperFunction,SMDPad,CuDef*
%ADD17RoundRect,0.250001X0.624999X-0.462499X0.624999X0.462499X-0.624999X0.462499X-0.624999X-0.462499X0*%
G04 #@! TD*
G04 #@! TA.AperFunction,ComponentPad*
%ADD18C,4.000000*%
G04 #@! TD*
G04 #@! TA.AperFunction,ComponentPad*
%ADD19R,3.800000X3.800000*%
G04 #@! TD*
G04 #@! TA.AperFunction,SMDPad,CuDef*
%ADD20RoundRect,0.250000X0.650000X-0.412500X0.650000X0.412500X-0.650000X0.412500X-0.650000X-0.412500X0*%
G04 #@! TD*
G04 #@! TA.AperFunction,SMDPad,CuDef*
%ADD21R,2.387600X3.098800*%
G04 #@! TD*
G04 #@! TA.AperFunction,SMDPad,CuDef*
%ADD22R,2.209800X0.508000*%
G04 #@! TD*
G04 #@! TA.AperFunction,ComponentPad*
%ADD23C,2.450000*%
G04 #@! TD*
G04 #@! TA.AperFunction,ComponentPad*
%ADD24R,2.450000X2.450000*%
G04 #@! TD*
G04 #@! TA.AperFunction,ComponentPad*
%ADD25R,1.600000X1.600000*%
G04 #@! TD*
G04 #@! TA.AperFunction,ComponentPad*
%ADD26O,1.600000X1.600000*%
G04 #@! TD*
G04 #@! TA.AperFunction,ComponentPad*
%ADD27C,1.300000*%
G04 #@! TD*
G04 #@! TA.AperFunction,ComponentPad*
%ADD28R,1.300000X1.300000*%
G04 #@! TD*
G04 #@! TA.AperFunction,ComponentPad*
%ADD29C,1.600200*%
G04 #@! TD*
G04 #@! TA.AperFunction,ViaPad*
%ADD30C,0.600000*%
G04 #@! TD*
G04 #@! TA.AperFunction,Conductor*
%ADD31C,0.200000*%
G04 #@! TD*
G04 #@! TA.AperFunction,Conductor*
%ADD32C,0.500000*%
G04 #@! TD*
G04 APERTURE END LIST*
D10*
X229445000Y-71025000D03*
X231985000Y-71025000D03*
D11*
X234525000Y-71025000D03*
D10*
X223000000Y-71000000D03*
D11*
X225540000Y-71000000D03*
D10*
X165500000Y-71000000D03*
D11*
X168040000Y-71000000D03*
D10*
X156500000Y-71000000D03*
X159040000Y-71000000D03*
D11*
X161580000Y-71000000D03*
D12*
X197050000Y-100000000D03*
X193950000Y-100000000D03*
X197050000Y-102500000D03*
X193950000Y-102500000D03*
D13*
X201250000Y-89540000D03*
D14*
X201250000Y-88270000D03*
X201250000Y-87000000D03*
D15*
X194012500Y-97500000D03*
X196987500Y-97500000D03*
D12*
X216050000Y-75250000D03*
X212950000Y-75250000D03*
D16*
X187750000Y-52575000D03*
X187750000Y-55675000D03*
D12*
X207200000Y-75250000D03*
X210300000Y-75250000D03*
D10*
X204670000Y-97460000D03*
X204670000Y-100000000D03*
X204670000Y-102540000D03*
D11*
X204670000Y-105080000D03*
D17*
X215750000Y-104512500D03*
X215750000Y-107487500D03*
D18*
X201500000Y-77250000D03*
D19*
X201500000Y-82250000D03*
D20*
X205250000Y-52562500D03*
X205250000Y-55687500D03*
D16*
X208750000Y-55675000D03*
X208750000Y-52575000D03*
D10*
X204920000Y-66500000D03*
X207460000Y-66500000D03*
D11*
X210000000Y-66500000D03*
D21*
X159000000Y-64750000D03*
D22*
X161875001Y-62845000D03*
X161875001Y-64115000D03*
X161875001Y-65385000D03*
X161875001Y-66655000D03*
X156124999Y-66655000D03*
X156124999Y-65385000D03*
X156124999Y-64115000D03*
X156124999Y-62845000D03*
D23*
X215000000Y-89000000D03*
X210300000Y-89000000D03*
D24*
X205600000Y-89000000D03*
D10*
X213920000Y-66500000D03*
X216460000Y-66500000D03*
D11*
X219000000Y-66500000D03*
D25*
X175500000Y-68880000D03*
D26*
X175500000Y-71420000D03*
X175500000Y-73960000D03*
X175500000Y-76500000D03*
X175500000Y-79040000D03*
X175500000Y-81580000D03*
X175500000Y-84120000D03*
X175500000Y-86660000D03*
X175500000Y-89200000D03*
X175500000Y-91740000D03*
X175500000Y-94280000D03*
X175500000Y-96820000D03*
X175500000Y-99360000D03*
X175500000Y-101900000D03*
X175500000Y-104440000D03*
X190740000Y-104440000D03*
X190740000Y-101900000D03*
X190740000Y-99360000D03*
X190740000Y-96820000D03*
X190740000Y-94280000D03*
X190740000Y-91740000D03*
X190740000Y-89200000D03*
X190740000Y-86660000D03*
X190740000Y-84120000D03*
X190740000Y-81580000D03*
X190740000Y-79040000D03*
X190740000Y-76500000D03*
X190740000Y-73960000D03*
X190740000Y-71420000D03*
X190740000Y-68880000D03*
D20*
X198250000Y-52562500D03*
X198250000Y-55687500D03*
D21*
X231894400Y-64750000D03*
D22*
X234769401Y-62845000D03*
X234769401Y-64115000D03*
X234769401Y-65385000D03*
X234769401Y-66655000D03*
X229019399Y-66655000D03*
X229019399Y-65385000D03*
X229019399Y-64115000D03*
X229019399Y-62845000D03*
D20*
X191250000Y-52562500D03*
X191250000Y-55687500D03*
D27*
X207100000Y-82040000D03*
X207100000Y-79500000D03*
X214720000Y-79500000D03*
D28*
X214720000Y-82040000D03*
D10*
X195905000Y-66525000D03*
X198445000Y-66525000D03*
D11*
X200985000Y-66525000D03*
D20*
X194750000Y-52562500D03*
X194750000Y-55687500D03*
D29*
X194000000Y-75835001D03*
X194000000Y-83455001D03*
X194000000Y-91075001D03*
X194000000Y-93615001D03*
D20*
X201750000Y-52562500D03*
X201750000Y-55687500D03*
D30*
X187500000Y-70000000D03*
X185961571Y-65750000D03*
X184355944Y-67441728D03*
X229019399Y-66655000D03*
X208750000Y-55675000D03*
X185155100Y-67405000D03*
X194750000Y-55687500D03*
X192150000Y-99500000D03*
X194000000Y-88512063D03*
X179437892Y-73687892D03*
X178922151Y-74769322D03*
X188650000Y-94392578D03*
X196530331Y-71469669D03*
X195469669Y-72530331D03*
X197050000Y-100000000D03*
X194572332Y-89112063D03*
X177150000Y-73750000D03*
X177750000Y-75250000D03*
X161875001Y-66655000D03*
X234769401Y-66655000D03*
D31*
X185961571Y-65750000D02*
X186000000Y-65750000D01*
X184355944Y-67355627D02*
X185961571Y-65750000D01*
X184355944Y-67441728D02*
X184355944Y-67355627D01*
D32*
X194750000Y-55687500D02*
X205250000Y-55687500D01*
D31*
X154720099Y-65396686D02*
X154720099Y-65939000D01*
X154234314Y-60700000D02*
X153350000Y-61584314D01*
X153350000Y-61584314D02*
X153350000Y-64026587D01*
X153350000Y-64026587D02*
X154720099Y-65396686D01*
X182725000Y-60700000D02*
X154234314Y-60700000D01*
X187750000Y-55675000D02*
X182725000Y-60700000D01*
X154720099Y-65939000D02*
X155436099Y-66655000D01*
X155436099Y-66655000D02*
X156124999Y-66655000D01*
X191250000Y-61592942D02*
X191250000Y-55687500D01*
X185437942Y-67405000D02*
X191250000Y-61592942D01*
X185155100Y-67405000D02*
X185437942Y-67405000D01*
X214720000Y-72970000D02*
X214720000Y-79500000D01*
X196800000Y-71200000D02*
X212950000Y-71200000D01*
X196530331Y-71469669D02*
X196800000Y-71200000D01*
X212950000Y-71200000D02*
X214720000Y-72970000D01*
X214720000Y-79500000D02*
X214720000Y-82040000D01*
X207100000Y-75350000D02*
X207200000Y-75250000D01*
X207100000Y-79500000D02*
X207100000Y-75350000D01*
X207100000Y-82040000D02*
X206750000Y-81690000D01*
X192150000Y-99850000D02*
X192150000Y-99500000D01*
X191250000Y-100750000D02*
X192150000Y-99850000D01*
X187900000Y-98400000D02*
X190250000Y-100750000D01*
X181594314Y-98400000D02*
X187900000Y-98400000D01*
X177474314Y-94280000D02*
X181594314Y-98400000D01*
X190250000Y-100750000D02*
X191250000Y-100750000D01*
X175500000Y-94280000D02*
X177474314Y-94280000D01*
X192000000Y-98000000D02*
X181760000Y-98000000D01*
X192350000Y-97650000D02*
X192000000Y-98000000D01*
X194000000Y-88684314D02*
X192350000Y-90334314D01*
X192350000Y-90334314D02*
X192350000Y-97650000D01*
X194000000Y-88512063D02*
X194000000Y-88684314D01*
X181760000Y-98000000D02*
X175500000Y-91740000D01*
X192750000Y-101300000D02*
X193950000Y-102500000D01*
X194137937Y-89112063D02*
X192750000Y-90500000D01*
X194572332Y-89112063D02*
X194137937Y-89112063D01*
X192750000Y-90500000D02*
X192750000Y-101300000D01*
X195768629Y-70400000D02*
X215100000Y-70400000D01*
X215100000Y-70400000D02*
X219000000Y-66500000D01*
X188705686Y-66400000D02*
X176750000Y-78355686D01*
X195934315Y-70000000D02*
X192334315Y-66400000D01*
X176750000Y-78355686D02*
X176750000Y-79750000D01*
X176750000Y-79750000D02*
X175500000Y-81000000D01*
X206500000Y-70000000D02*
X195934315Y-70000000D01*
X175500000Y-81000000D02*
X175500000Y-81580000D01*
X210000000Y-66500000D02*
X206500000Y-70000000D01*
X192334315Y-66400000D02*
X188705686Y-66400000D01*
X210000000Y-66500000D02*
X210250000Y-66750000D01*
X197910000Y-69600000D02*
X200985000Y-66525000D01*
X196100000Y-69600000D02*
X197910000Y-69600000D01*
X192500000Y-66000000D02*
X196100000Y-69600000D01*
X188540000Y-66000000D02*
X192500000Y-66000000D01*
X175500000Y-79040000D02*
X188540000Y-66000000D01*
X227626184Y-64115000D02*
X229019399Y-64115000D01*
X189558628Y-63850000D02*
X227361184Y-63850000D01*
X179720736Y-73687892D02*
X189558628Y-63850000D01*
X179437892Y-73687892D02*
X179720736Y-73687892D01*
X227361184Y-63850000D02*
X227626184Y-64115000D01*
X228330499Y-65385000D02*
X229019399Y-65385000D01*
X189724314Y-64250000D02*
X227195499Y-64250000D01*
X178922151Y-74769322D02*
X179204992Y-74769322D01*
X179204992Y-74769322D02*
X189724314Y-64250000D01*
X227195499Y-64250000D02*
X228330499Y-65385000D01*
D32*
X236095000Y-62845000D02*
X234769401Y-62845000D01*
D31*
X233050000Y-72500000D02*
X234525000Y-71025000D01*
X220250000Y-72500000D02*
X233050000Y-72500000D01*
X195602943Y-70800000D02*
X218550000Y-70800000D01*
X192002943Y-67200000D02*
X195602943Y-70800000D01*
X177550000Y-78687058D02*
X189037058Y-67200000D01*
X177550000Y-81090000D02*
X177550000Y-78687058D01*
X190740000Y-94280000D02*
X177550000Y-81090000D01*
X189037058Y-67200000D02*
X192002943Y-67200000D01*
X218550000Y-70800000D02*
X220250000Y-72500000D01*
X195469669Y-72530331D02*
X196530331Y-71469669D01*
X188650000Y-94730000D02*
X190740000Y-96820000D01*
X188650000Y-94392578D02*
X188650000Y-94730000D01*
X202695686Y-100000000D02*
X204670000Y-100000000D01*
X196545686Y-106150000D02*
X202695686Y-100000000D01*
X177474314Y-104440000D02*
X179184314Y-106150000D01*
X179184314Y-106150000D02*
X196545686Y-106150000D01*
X175500000Y-104440000D02*
X177474314Y-104440000D01*
X193950000Y-97562500D02*
X194012500Y-97500000D01*
X193950000Y-100000000D02*
X193950000Y-97562500D01*
X196987500Y-94062501D02*
X196987500Y-97500000D01*
X194000000Y-91075001D02*
X196987500Y-94062501D01*
X194012500Y-93627501D02*
X194000000Y-93615001D01*
X194012500Y-97500000D02*
X194012500Y-93627501D01*
X154569785Y-64115000D02*
X156124999Y-64115000D01*
X154565686Y-61500000D02*
X154150000Y-61915686D01*
X154150000Y-61915686D02*
X154150000Y-63695215D01*
X176600000Y-61500000D02*
X154565686Y-61500000D01*
X177350000Y-62250000D02*
X176600000Y-61500000D01*
X177350000Y-73550000D02*
X177350000Y-62250000D01*
X177150000Y-73750000D02*
X177350000Y-73550000D01*
X154150000Y-63695215D02*
X154569785Y-64115000D01*
X153750000Y-61750000D02*
X153750000Y-63860901D01*
X153750000Y-63860901D02*
X155274099Y-65385000D01*
X154400000Y-61100000D02*
X153750000Y-61750000D01*
X155274099Y-65385000D02*
X156124999Y-65385000D01*
X176850000Y-61100000D02*
X154400000Y-61100000D01*
X177750000Y-62000000D02*
X176850000Y-61100000D01*
X177750000Y-75250000D02*
X177750000Y-62000000D01*
X188871372Y-66800000D02*
X192168629Y-66800000D01*
X177150000Y-78521372D02*
X188871372Y-66800000D01*
X177150000Y-82470000D02*
X177150000Y-78521372D01*
X175500000Y-84120000D02*
X177150000Y-82470000D01*
X192500000Y-70640000D02*
X190740000Y-68880000D01*
X192500000Y-81955001D02*
X192500000Y-70640000D01*
X194000000Y-83455001D02*
X192500000Y-81955001D01*
D32*
X167750000Y-71000000D02*
X168040000Y-71000000D01*
X166200000Y-69450000D02*
X167750000Y-71000000D01*
X166200000Y-66319099D02*
X166200000Y-69450000D01*
X162725901Y-62845000D02*
X166200000Y-66319099D01*
X161875001Y-62845000D02*
X162725901Y-62845000D01*
X237750000Y-67500000D02*
X237750000Y-64500000D01*
X236750000Y-68500000D02*
X237750000Y-67500000D01*
X237750000Y-64500000D02*
X236095000Y-62845000D01*
X226489950Y-68500000D02*
X236750000Y-68500000D01*
X225540000Y-71000000D02*
X225540000Y-69449950D01*
X225540000Y-69449950D02*
X226489950Y-68500000D01*
X237050000Y-66050000D02*
X236385000Y-65385000D01*
X226200000Y-67800000D02*
X236460050Y-67800000D01*
X236385000Y-65385000D02*
X234769401Y-65385000D01*
X223000000Y-71000000D02*
X226200000Y-67800000D01*
X236460050Y-67800000D02*
X237050000Y-67210049D01*
X237050000Y-67210049D02*
X237050000Y-66050000D01*
X164275951Y-65385000D02*
X161875001Y-65385000D01*
X165500000Y-66609049D02*
X164275951Y-65385000D01*
X165500000Y-71000000D02*
X165500000Y-66609049D01*
X214950000Y-104512500D02*
X215750000Y-104512500D01*
X210300000Y-99775050D02*
X214950000Y-104425050D01*
X214950000Y-104425050D02*
X214950000Y-104512500D01*
X210300000Y-89000000D02*
X210300000Y-99775050D01*
X194000000Y-84465000D02*
X194000000Y-83455001D01*
X214250000Y-104715000D02*
X194000000Y-84465000D01*
X214250000Y-105987500D02*
X214250000Y-104715000D01*
X215750000Y-107487500D02*
X214250000Y-105987500D01*
X205600000Y-81350000D02*
X205600000Y-89000000D01*
X201500000Y-77250000D02*
X205600000Y-81350000D01*
X194812500Y-55750000D02*
X194750000Y-55687500D01*
D31*
X199630000Y-102500000D02*
X204670000Y-97460000D01*
X197050000Y-102500000D02*
X199630000Y-102500000D01*
X179350000Y-105750000D02*
X175500000Y-101900000D01*
X197050000Y-105080000D02*
X196380000Y-105750000D01*
X196380000Y-105750000D02*
X179350000Y-105750000D01*
X197050000Y-102500000D02*
X197050000Y-105080000D01*
X192168629Y-66800000D02*
X195768629Y-70400000D01*
X207100000Y-82040000D02*
X207100000Y-81100000D01*
X207100000Y-81100000D02*
X212950000Y-75250000D01*
G04 #@! TA.AperFunction,Conductor*
G36*
X206152715Y-97691643D02*
G01*
X206191584Y-97717951D01*
X213463181Y-104989548D01*
X213496666Y-105050871D01*
X213499500Y-105077229D01*
X213499500Y-106061418D01*
X213499500Y-106061420D01*
X213499499Y-106061420D01*
X213528340Y-106206407D01*
X213528343Y-106206417D01*
X213584913Y-106342990D01*
X213605498Y-106373798D01*
X213667045Y-106465914D01*
X213667049Y-106465918D01*
X214338181Y-107137048D01*
X214371666Y-107198371D01*
X214374500Y-107224729D01*
X214374500Y-108000015D01*
X214385000Y-108102795D01*
X214385001Y-108102796D01*
X214440185Y-108269332D01*
X214465518Y-108310403D01*
X214483958Y-108377796D01*
X214463035Y-108444459D01*
X214409393Y-108489229D01*
X214359979Y-108499500D01*
X174124500Y-108499500D01*
X174057461Y-108479815D01*
X174011706Y-108427011D01*
X174000500Y-108375500D01*
X174000500Y-104810411D01*
X174020185Y-104743372D01*
X174072989Y-104697617D01*
X174142147Y-104687673D01*
X174205703Y-104716698D01*
X174243477Y-104775476D01*
X174244275Y-104778318D01*
X174273258Y-104886488D01*
X174273261Y-104886497D01*
X174369431Y-105092732D01*
X174369432Y-105092734D01*
X174499954Y-105279141D01*
X174660858Y-105440045D01*
X174660861Y-105440047D01*
X174847266Y-105570568D01*
X175053504Y-105666739D01*
X175273308Y-105725635D01*
X175435230Y-105739801D01*
X175499998Y-105745468D01*
X175500000Y-105745468D01*
X175500002Y-105745468D01*
X175556673Y-105740509D01*
X175726692Y-105725635D01*
X175946496Y-105666739D01*
X176152734Y-105570568D01*
X176339139Y-105440047D01*
X176500047Y-105279139D01*
X176630118Y-105093375D01*
X176684693Y-105049752D01*
X176731692Y-105040500D01*
X177174217Y-105040500D01*
X177241256Y-105060185D01*
X177261898Y-105076819D01*
X178699453Y-106514374D01*
X178699463Y-106514385D01*
X178703793Y-106518715D01*
X178703794Y-106518716D01*
X178815598Y-106630520D01*
X178902409Y-106680639D01*
X178902411Y-106680641D01*
X178952527Y-106709576D01*
X178952529Y-106709577D01*
X179105256Y-106750500D01*
X179105257Y-106750500D01*
X196459017Y-106750500D01*
X196459033Y-106750501D01*
X196466629Y-106750501D01*
X196624740Y-106750501D01*
X196624743Y-106750501D01*
X196777471Y-106709577D01*
X196827590Y-106680639D01*
X196914402Y-106630520D01*
X197026206Y-106518716D01*
X197026206Y-106518714D01*
X197036414Y-106508507D01*
X197036415Y-106508504D01*
X199362785Y-104182135D01*
X203319500Y-104182135D01*
X203319500Y-105977870D01*
X203319501Y-105977876D01*
X203325908Y-106037483D01*
X203376202Y-106172328D01*
X203376206Y-106172335D01*
X203462452Y-106287544D01*
X203462455Y-106287547D01*
X203577664Y-106373793D01*
X203577671Y-106373797D01*
X203712517Y-106424091D01*
X203712516Y-106424091D01*
X203719444Y-106424835D01*
X203772127Y-106430500D01*
X205567872Y-106430499D01*
X205627483Y-106424091D01*
X205762331Y-106373796D01*
X205877546Y-106287546D01*
X205963796Y-106172331D01*
X206014091Y-106037483D01*
X206020500Y-105977873D01*
X206020499Y-104182128D01*
X206014091Y-104122517D01*
X205995450Y-104072539D01*
X205963796Y-103987669D01*
X205963793Y-103987664D01*
X205877547Y-103872455D01*
X205877544Y-103872452D01*
X205762335Y-103786206D01*
X205762328Y-103786202D01*
X205627482Y-103735908D01*
X205627483Y-103735908D01*
X205567883Y-103729501D01*
X205567881Y-103729500D01*
X205567873Y-103729500D01*
X205567864Y-103729500D01*
X203772129Y-103729500D01*
X203772123Y-103729501D01*
X203712516Y-103735908D01*
X203577671Y-103786202D01*
X203577664Y-103786206D01*
X203462455Y-103872452D01*
X203462452Y-103872455D01*
X203376206Y-103987664D01*
X203376204Y-103987669D01*
X203325908Y-104122517D01*
X203319501Y-104182116D01*
X203319501Y-104182123D01*
X203319500Y-104182135D01*
X199362785Y-104182135D01*
X202908102Y-100636819D01*
X202969425Y-100603334D01*
X202995783Y-100600500D01*
X203380909Y-100600500D01*
X203447948Y-100620185D01*
X203493292Y-100672097D01*
X203495965Y-100677830D01*
X203631505Y-100871401D01*
X203798599Y-101038495D01*
X203895384Y-101106265D01*
X203992165Y-101174032D01*
X203992167Y-101174033D01*
X203992170Y-101174035D01*
X204206337Y-101273903D01*
X204206343Y-101273904D01*
X204206344Y-101273905D01*
X204251880Y-101286106D01*
X204434592Y-101335063D01*
X204622918Y-101351539D01*
X204669999Y-101355659D01*
X204670000Y-101355659D01*
X204670001Y-101355659D01*
X204709234Y-101352226D01*
X204905408Y-101335063D01*
X205133663Y-101273903D01*
X205347830Y-101174035D01*
X205541401Y-101038495D01*
X205708495Y-100871401D01*
X205844035Y-100677830D01*
X205943903Y-100463663D01*
X206005063Y-100235408D01*
X206025659Y-100000000D01*
X206005063Y-99764592D01*
X205943903Y-99536337D01*
X205844035Y-99322171D01*
X205711793Y-99133308D01*
X205708494Y-99128597D01*
X205541402Y-98961506D01*
X205541396Y-98961501D01*
X205355842Y-98831575D01*
X205312217Y-98776998D01*
X205305023Y-98707500D01*
X205336546Y-98645145D01*
X205355842Y-98628425D01*
X205395723Y-98600500D01*
X205541401Y-98498495D01*
X205708495Y-98331401D01*
X205844035Y-98137830D01*
X205943903Y-97923663D01*
X205984128Y-97773538D01*
X206020493Y-97713879D01*
X206083339Y-97683349D01*
X206152715Y-97691643D01*
G37*
G04 #@! TD.AperFunction*
G04 #@! TA.AperFunction,Conductor*
G36*
X239942539Y-50520185D02*
G01*
X239988294Y-50572989D01*
X239999500Y-50624500D01*
X239999500Y-78375500D01*
X239979815Y-78442539D01*
X239927011Y-78488294D01*
X239875500Y-78499500D01*
X217434108Y-78499500D01*
X217306812Y-78533608D01*
X217192686Y-78599500D01*
X217192683Y-78599502D01*
X217099502Y-78692683D01*
X217099500Y-78692686D01*
X217033608Y-78806812D01*
X216999500Y-78934108D01*
X216999500Y-103331240D01*
X216979815Y-103398279D01*
X216927011Y-103444034D01*
X216857853Y-103453978D01*
X216810403Y-103436778D01*
X216694337Y-103365187D01*
X216694335Y-103365186D01*
X216584791Y-103328887D01*
X216527797Y-103310001D01*
X216527795Y-103310000D01*
X216425015Y-103299500D01*
X216425008Y-103299500D01*
X215074992Y-103299500D01*
X215074984Y-103299500D01*
X214965469Y-103310689D01*
X214965244Y-103308491D01*
X214905941Y-103304036D01*
X214862009Y-103275691D01*
X211086819Y-99500501D01*
X211053334Y-99439178D01*
X211050500Y-99412820D01*
X211050500Y-90631652D01*
X211070185Y-90564613D01*
X211120697Y-90519932D01*
X211165169Y-90498517D01*
X211378848Y-90352833D01*
X211543515Y-90200045D01*
X211568424Y-90176933D01*
X211568424Y-90176931D01*
X211568428Y-90176929D01*
X211729672Y-89974734D01*
X211858981Y-89750766D01*
X211953464Y-89510026D01*
X212011012Y-89257893D01*
X212014109Y-89216564D01*
X212030338Y-89000004D01*
X212030338Y-88999995D01*
X213269662Y-88999995D01*
X213269662Y-89000004D01*
X213288986Y-89257883D01*
X213288987Y-89257888D01*
X213346532Y-89510012D01*
X213346534Y-89510021D01*
X213346536Y-89510026D01*
X213441019Y-89750766D01*
X213570328Y-89974734D01*
X213700566Y-90138048D01*
X213731575Y-90176933D01*
X213897155Y-90330567D01*
X213921152Y-90352833D01*
X214134831Y-90498517D01*
X214134836Y-90498519D01*
X214134837Y-90498520D01*
X214134838Y-90498521D01*
X214249499Y-90553738D01*
X214367833Y-90610724D01*
X214367834Y-90610724D01*
X214367837Y-90610726D01*
X214614964Y-90686955D01*
X214870692Y-90725500D01*
X214870693Y-90725500D01*
X215129307Y-90725500D01*
X215129308Y-90725500D01*
X215385036Y-90686955D01*
X215632163Y-90610726D01*
X215865169Y-90498517D01*
X216078848Y-90352833D01*
X216243515Y-90200045D01*
X216268424Y-90176933D01*
X216268424Y-90176931D01*
X216268428Y-90176929D01*
X216429672Y-89974734D01*
X216558981Y-89750766D01*
X216653464Y-89510026D01*
X216711012Y-89257893D01*
X216714109Y-89216564D01*
X216730338Y-89000004D01*
X216730338Y-88999995D01*
X216711013Y-88742116D01*
X216711012Y-88742111D01*
X216711012Y-88742107D01*
X216653464Y-88489974D01*
X216558981Y-88249234D01*
X216429672Y-88025266D01*
X216268428Y-87823071D01*
X216268427Y-87823070D01*
X216268424Y-87823066D01*
X216078848Y-87647167D01*
X216033548Y-87616282D01*
X215865169Y-87501483D01*
X215865165Y-87501481D01*
X215865162Y-87501479D01*
X215865161Y-87501478D01*
X215632165Y-87389275D01*
X215632167Y-87389275D01*
X215385044Y-87313047D01*
X215385040Y-87313046D01*
X215385036Y-87313045D01*
X215262025Y-87294504D01*
X215129313Y-87274500D01*
X215129308Y-87274500D01*
X214870692Y-87274500D01*
X214870686Y-87274500D01*
X214711430Y-87298504D01*
X214614964Y-87313045D01*
X214614961Y-87313046D01*
X214614955Y-87313047D01*
X214367833Y-87389275D01*
X214134838Y-87501478D01*
X214134837Y-87501479D01*
X213921151Y-87647167D01*
X213731575Y-87823066D01*
X213570328Y-88025266D01*
X213441019Y-88249233D01*
X213346538Y-88489968D01*
X213346532Y-88489987D01*
X213288987Y-88742111D01*
X213288986Y-88742116D01*
X213269662Y-88999995D01*
X212030338Y-88999995D01*
X212011013Y-88742116D01*
X212011012Y-88742111D01*
X212011012Y-88742107D01*
X211953464Y-88489974D01*
X211858981Y-88249234D01*
X211729672Y-88025266D01*
X211568428Y-87823071D01*
X211568427Y-87823070D01*
X211568424Y-87823066D01*
X211378848Y-87647167D01*
X211333548Y-87616282D01*
X211165169Y-87501483D01*
X211165165Y-87501481D01*
X211165162Y-87501479D01*
X211165161Y-87501478D01*
X210932165Y-87389275D01*
X210932167Y-87389275D01*
X210685044Y-87313047D01*
X210685040Y-87313046D01*
X210685036Y-87313045D01*
X210562025Y-87294504D01*
X210429313Y-87274500D01*
X210429308Y-87274500D01*
X210170692Y-87274500D01*
X210170686Y-87274500D01*
X210011430Y-87298504D01*
X209914964Y-87313045D01*
X209914961Y-87313046D01*
X209914955Y-87313047D01*
X209667833Y-87389275D01*
X209434838Y-87501478D01*
X209434837Y-87501479D01*
X209221151Y-87647167D01*
X209031575Y-87823066D01*
X208870328Y-88025266D01*
X208741019Y-88249233D01*
X208646538Y-88489968D01*
X208646532Y-88489987D01*
X208588987Y-88742111D01*
X208588986Y-88742116D01*
X208569662Y-88999995D01*
X208569662Y-89000004D01*
X208588986Y-89257883D01*
X208588987Y-89257888D01*
X208646532Y-89510012D01*
X208646534Y-89510021D01*
X208646536Y-89510026D01*
X208741019Y-89750766D01*
X208870328Y-89974734D01*
X209000566Y-90138048D01*
X209031575Y-90176933D01*
X209197155Y-90330567D01*
X209221152Y-90352833D01*
X209434831Y-90498517D01*
X209479302Y-90519932D01*
X209531161Y-90566753D01*
X209549500Y-90631652D01*
X209549500Y-98653770D01*
X209529815Y-98720809D01*
X209477011Y-98766564D01*
X209407853Y-98776508D01*
X209344297Y-98747483D01*
X209337819Y-98741451D01*
X201373548Y-90777180D01*
X201340063Y-90715857D01*
X201345047Y-90646165D01*
X201386919Y-90590232D01*
X201452383Y-90565815D01*
X201461229Y-90565499D01*
X202047871Y-90565499D01*
X202047872Y-90565499D01*
X202107483Y-90559091D01*
X202242331Y-90508796D01*
X202357546Y-90422546D01*
X202443796Y-90307331D01*
X202494091Y-90172483D01*
X202500500Y-90112873D01*
X202500499Y-88967128D01*
X202494091Y-88907517D01*
X202490948Y-88899091D01*
X202443797Y-88772671D01*
X202443796Y-88772670D01*
X202443796Y-88772669D01*
X202442967Y-88771562D01*
X202442485Y-88770268D01*
X202439546Y-88764886D01*
X202440319Y-88764463D01*
X202418551Y-88706099D01*
X202427675Y-88649798D01*
X202436861Y-88627623D01*
X202461091Y-88569127D01*
X202500500Y-88371003D01*
X202500500Y-88168997D01*
X202461091Y-87970873D01*
X202383786Y-87784244D01*
X202383784Y-87784241D01*
X202383782Y-87784237D01*
X202271558Y-87616281D01*
X202128718Y-87473441D01*
X201960762Y-87361217D01*
X201960752Y-87361212D01*
X201774127Y-87283909D01*
X201774119Y-87283907D01*
X201576007Y-87244500D01*
X201576003Y-87244500D01*
X200923997Y-87244500D01*
X200923992Y-87244500D01*
X200725880Y-87283907D01*
X200725872Y-87283909D01*
X200539247Y-87361212D01*
X200539237Y-87361217D01*
X200371281Y-87473441D01*
X200228441Y-87616281D01*
X200116217Y-87784237D01*
X200116212Y-87784247D01*
X200038909Y-87970872D01*
X200038907Y-87970880D01*
X199999500Y-88168992D01*
X199999500Y-88371007D01*
X200038907Y-88569119D01*
X200038909Y-88569127D01*
X200072325Y-88649800D01*
X200079794Y-88719270D01*
X200060038Y-88764660D01*
X200060454Y-88764887D01*
X200057919Y-88769528D01*
X200057037Y-88771556D01*
X200056206Y-88772665D01*
X200056202Y-88772672D01*
X200005908Y-88907517D01*
X200003189Y-88932813D01*
X199999501Y-88967123D01*
X199999500Y-88967135D01*
X199999500Y-89103770D01*
X199979815Y-89170809D01*
X199927011Y-89216564D01*
X199857853Y-89226508D01*
X199794297Y-89197483D01*
X199787819Y-89191451D01*
X195028579Y-84432211D01*
X194995094Y-84370888D01*
X195000078Y-84301196D01*
X195014682Y-84273411D01*
X195130655Y-84107785D01*
X195226833Y-83901532D01*
X195285733Y-83681711D01*
X195305568Y-83455001D01*
X195285733Y-83228291D01*
X195241012Y-83061389D01*
X195226835Y-83008477D01*
X195226834Y-83008476D01*
X195226833Y-83008470D01*
X195130655Y-82802217D01*
X195127340Y-82797483D01*
X195000126Y-82615802D01*
X195000121Y-82615796D01*
X194839204Y-82454879D01*
X194839198Y-82454874D01*
X194652785Y-82324346D01*
X194652783Y-82324345D01*
X194498303Y-82252310D01*
X194446531Y-82228168D01*
X194446527Y-82228167D01*
X194446523Y-82228165D01*
X194226715Y-82169269D01*
X194226705Y-82169267D01*
X194000001Y-82149433D01*
X193999999Y-82149433D01*
X193773288Y-82169268D01*
X193773286Y-82169268D01*
X193676983Y-82195071D01*
X193607133Y-82193407D01*
X193557211Y-82162977D01*
X193136819Y-81742585D01*
X193103334Y-81681262D01*
X193100500Y-81654904D01*
X193100500Y-77031105D01*
X193120185Y-76964066D01*
X193172989Y-76918311D01*
X193242147Y-76908367D01*
X193295624Y-76929531D01*
X193347212Y-76965654D01*
X193347216Y-76965656D01*
X193553469Y-77061834D01*
X193773290Y-77120734D01*
X193954658Y-77136602D01*
X193999999Y-77140569D01*
X194000000Y-77140569D01*
X194000001Y-77140569D01*
X194037785Y-77137263D01*
X194226710Y-77120734D01*
X194446531Y-77061834D01*
X194652784Y-76965656D01*
X194839203Y-76835124D01*
X195000123Y-76674204D01*
X195130655Y-76487785D01*
X195226833Y-76281532D01*
X195285733Y-76061711D01*
X195305568Y-75835001D01*
X195285733Y-75608291D01*
X195226833Y-75388470D01*
X195130655Y-75182217D01*
X195116593Y-75162135D01*
X195000126Y-74995802D01*
X195000121Y-74995796D01*
X194839204Y-74834879D01*
X194839198Y-74834874D01*
X194652785Y-74704346D01*
X194652783Y-74704345D01*
X194512427Y-74638896D01*
X194446531Y-74608168D01*
X194446527Y-74608167D01*
X194446523Y-74608165D01*
X194226715Y-74549269D01*
X194226705Y-74549267D01*
X194000001Y-74529433D01*
X193999999Y-74529433D01*
X193773294Y-74549267D01*
X193773284Y-74549269D01*
X193553476Y-74608165D01*
X193553467Y-74608169D01*
X193347216Y-74704345D01*
X193347214Y-74704346D01*
X193295623Y-74740471D01*
X193229417Y-74762798D01*
X193161649Y-74745788D01*
X193113837Y-74694839D01*
X193100500Y-74638896D01*
X193100500Y-70729059D01*
X193100501Y-70729046D01*
X193100501Y-70560945D01*
X193100501Y-70560943D01*
X193059577Y-70408215D01*
X193024333Y-70347171D01*
X192980520Y-70271284D01*
X192868716Y-70159480D01*
X192868715Y-70159479D01*
X192864385Y-70155149D01*
X192864374Y-70155139D01*
X192031941Y-69322706D01*
X191998456Y-69261383D01*
X191999847Y-69202931D01*
X192025635Y-69106692D01*
X192045468Y-68880000D01*
X192025635Y-68653308D01*
X191966739Y-68433504D01*
X191896554Y-68282994D01*
X191886063Y-68213919D01*
X191914582Y-68150135D01*
X191973059Y-68111895D01*
X192042926Y-68111340D01*
X192096618Y-68142910D01*
X195118082Y-71164374D01*
X195118092Y-71164385D01*
X195122422Y-71168715D01*
X195122423Y-71168716D01*
X195234227Y-71280520D01*
X195297127Y-71316835D01*
X195371158Y-71359577D01*
X195494971Y-71392753D01*
X195554629Y-71429116D01*
X195585158Y-71491963D01*
X195576863Y-71561338D01*
X195550556Y-71600207D01*
X195451134Y-71699629D01*
X195389811Y-71733114D01*
X195377337Y-71735168D01*
X195290419Y-71744961D01*
X195120147Y-71804541D01*
X194967406Y-71900515D01*
X194839853Y-72028068D01*
X194743880Y-72180807D01*
X194684300Y-72351076D01*
X194684299Y-72351081D01*
X194664104Y-72530327D01*
X194664104Y-72530334D01*
X194684299Y-72709580D01*
X194684300Y-72709585D01*
X194743880Y-72879854D01*
X194839853Y-73032593D01*
X194967407Y-73160147D01*
X195007963Y-73185630D01*
X195100442Y-73243739D01*
X195120147Y-73256120D01*
X195266311Y-73307265D01*
X195290414Y-73315699D01*
X195290419Y-73315700D01*
X195469665Y-73335896D01*
X195469669Y-73335896D01*
X195469673Y-73335896D01*
X195648918Y-73315700D01*
X195648921Y-73315699D01*
X195648924Y-73315699D01*
X195819191Y-73256120D01*
X195971931Y-73160147D01*
X196099485Y-73032593D01*
X196195458Y-72879853D01*
X196255037Y-72709586D01*
X196264830Y-72622660D01*
X196291895Y-72558249D01*
X196300359Y-72548874D01*
X196548866Y-72300367D01*
X196610187Y-72266884D01*
X196622642Y-72264832D01*
X196709586Y-72255037D01*
X196879853Y-72195458D01*
X197032593Y-72099485D01*
X197160147Y-71971931D01*
X197231403Y-71858528D01*
X197283738Y-71812237D01*
X197336397Y-71800500D01*
X212649903Y-71800500D01*
X212716942Y-71820185D01*
X212737584Y-71836819D01*
X214083181Y-73182416D01*
X214116666Y-73243739D01*
X214119500Y-73270097D01*
X214119500Y-74033770D01*
X214099815Y-74100809D01*
X214047011Y-74146564D01*
X213977853Y-74156508D01*
X213914297Y-74127483D01*
X213907819Y-74121451D01*
X213818657Y-74032289D01*
X213818656Y-74032288D01*
X213725888Y-73975069D01*
X213669336Y-73940187D01*
X213669331Y-73940185D01*
X213667862Y-73939698D01*
X213502797Y-73885001D01*
X213502795Y-73885000D01*
X213400010Y-73874500D01*
X212499998Y-73874500D01*
X212499980Y-73874501D01*
X212397203Y-73885000D01*
X212397200Y-73885001D01*
X212230668Y-73940185D01*
X212230663Y-73940187D01*
X212081342Y-74032289D01*
X211957289Y-74156342D01*
X211865187Y-74305663D01*
X211865186Y-74305666D01*
X211810001Y-74472203D01*
X211810001Y-74472204D01*
X211810000Y-74472204D01*
X211799500Y-74574983D01*
X211799500Y-75499902D01*
X211779815Y-75566941D01*
X211763181Y-75587583D01*
X208329434Y-79021329D01*
X208268111Y-79054814D01*
X208198419Y-79049830D01*
X208142486Y-79007958D01*
X208130753Y-78988919D01*
X208082367Y-78891746D01*
X207953872Y-78721593D01*
X207819945Y-78599502D01*
X207796302Y-78577948D01*
X207759221Y-78554988D01*
X207712587Y-78502961D01*
X207700500Y-78449562D01*
X207700500Y-76721869D01*
X207720185Y-76654830D01*
X207772989Y-76609075D01*
X207785486Y-76604166D01*
X207919334Y-76559814D01*
X208068656Y-76467712D01*
X208192712Y-76343656D01*
X208284814Y-76194334D01*
X208339999Y-76027797D01*
X208350500Y-75925009D01*
X208350499Y-74574992D01*
X208348016Y-74550689D01*
X208339999Y-74472203D01*
X208339998Y-74472200D01*
X208284814Y-74305666D01*
X208192712Y-74156344D01*
X208068656Y-74032288D01*
X207975888Y-73975069D01*
X207919336Y-73940187D01*
X207919331Y-73940185D01*
X207917862Y-73939698D01*
X207752797Y-73885001D01*
X207752795Y-73885000D01*
X207650010Y-73874500D01*
X206749998Y-73874500D01*
X206749980Y-73874501D01*
X206647203Y-73885000D01*
X206647200Y-73885001D01*
X206480668Y-73940185D01*
X206480663Y-73940187D01*
X206331342Y-74032289D01*
X206207289Y-74156342D01*
X206115187Y-74305663D01*
X206115186Y-74305666D01*
X206060001Y-74472203D01*
X206060001Y-74472204D01*
X206060000Y-74472204D01*
X206049500Y-74574983D01*
X206049500Y-75925001D01*
X206049501Y-75925018D01*
X206060000Y-76027796D01*
X206060001Y-76027799D01*
X206083199Y-76097804D01*
X206115186Y-76194334D01*
X206207288Y-76343656D01*
X206331344Y-76467712D01*
X206440597Y-76535099D01*
X206487321Y-76587047D01*
X206499500Y-76640638D01*
X206499500Y-78449562D01*
X206479815Y-78516601D01*
X206440778Y-78554988D01*
X206423924Y-78565424D01*
X206403699Y-78577947D01*
X206246127Y-78721593D01*
X206117632Y-78891746D01*
X206022596Y-79082605D01*
X206022596Y-79082607D01*
X205964244Y-79287689D01*
X205944571Y-79499999D01*
X205944571Y-79500000D01*
X205964244Y-79712310D01*
X206022596Y-79917392D01*
X206022596Y-79917394D01*
X206117632Y-80108253D01*
X206246127Y-80278406D01*
X206246128Y-80278407D01*
X206403698Y-80422052D01*
X206584981Y-80534298D01*
X206584985Y-80534299D01*
X206584989Y-80534302D01*
X206585245Y-80534430D01*
X206585345Y-80534523D01*
X206589856Y-80537316D01*
X206589309Y-80538198D01*
X206636482Y-80581933D01*
X206653902Y-80649597D01*
X206631975Y-80715937D01*
X206622974Y-80726730D01*
X206619479Y-80731285D01*
X206569361Y-80818094D01*
X206569359Y-80818096D01*
X206540425Y-80868209D01*
X206540423Y-80868213D01*
X206540423Y-80868215D01*
X206524600Y-80927266D01*
X206506268Y-80995682D01*
X206469902Y-81055342D01*
X206407055Y-81085870D01*
X206337679Y-81077575D01*
X206283802Y-81033089D01*
X206271935Y-81011045D01*
X206267410Y-81000123D01*
X206265766Y-80995526D01*
X206232811Y-80946206D01*
X206210205Y-80912373D01*
X206182952Y-80871585D01*
X203780467Y-78469099D01*
X203746982Y-78407776D01*
X203751966Y-78338084D01*
X203755941Y-78328640D01*
X203829503Y-78172315D01*
X203926731Y-77873079D01*
X203985688Y-77564015D01*
X203985689Y-77564004D01*
X204005444Y-77250005D01*
X204005444Y-77249994D01*
X203985689Y-76935995D01*
X203985688Y-76935988D01*
X203985688Y-76935985D01*
X203926731Y-76626921D01*
X203829503Y-76327685D01*
X203807785Y-76281533D01*
X203704345Y-76061711D01*
X203695537Y-76042993D01*
X203620657Y-75925001D01*
X203526948Y-75777338D01*
X203526945Y-75777334D01*
X203326393Y-75534909D01*
X203326391Y-75534907D01*
X203150178Y-75369431D01*
X203097030Y-75319522D01*
X203097027Y-75319520D01*
X203097021Y-75319515D01*
X202842495Y-75134591D01*
X202842488Y-75134586D01*
X202842484Y-75134584D01*
X202566766Y-74983006D01*
X202566763Y-74983004D01*
X202566758Y-74983002D01*
X202566757Y-74983001D01*
X202274228Y-74867181D01*
X202274225Y-74867180D01*
X201969476Y-74788934D01*
X201969463Y-74788932D01*
X201657329Y-74749500D01*
X201657318Y-74749500D01*
X201342682Y-74749500D01*
X201342670Y-74749500D01*
X201030536Y-74788932D01*
X201030523Y-74788934D01*
X200725774Y-74867180D01*
X200725771Y-74867181D01*
X200433242Y-74983001D01*
X200433241Y-74983002D01*
X200157516Y-75134584D01*
X200157504Y-75134591D01*
X199902978Y-75319515D01*
X199902968Y-75319523D01*
X199673608Y-75534907D01*
X199673606Y-75534909D01*
X199473054Y-75777334D01*
X199473051Y-75777338D01*
X199304464Y-76042990D01*
X199304461Y-76042996D01*
X199170499Y-76327678D01*
X199170497Y-76327683D01*
X199073270Y-76626916D01*
X199014311Y-76935988D01*
X199014310Y-76935995D01*
X198994556Y-77249994D01*
X198994556Y-77250005D01*
X199014310Y-77564004D01*
X199014311Y-77564011D01*
X199073270Y-77873083D01*
X199170497Y-78172316D01*
X199170499Y-78172321D01*
X199304461Y-78457003D01*
X199304464Y-78457009D01*
X199473051Y-78722661D01*
X199473054Y-78722665D01*
X199673606Y-78965090D01*
X199673608Y-78965092D01*
X199673610Y-78965094D01*
X199763845Y-79049830D01*
X199902968Y-79180476D01*
X199902978Y-79180484D01*
X200157504Y-79365408D01*
X200157509Y-79365410D01*
X200157516Y-79365416D01*
X200433234Y-79516994D01*
X200433239Y-79516996D01*
X200433241Y-79516997D01*
X200433242Y-79516998D01*
X200725771Y-79632818D01*
X200725774Y-79632819D01*
X201030523Y-79711065D01*
X201030527Y-79711066D01*
X201096010Y-79719338D01*
X201342670Y-79750499D01*
X201342679Y-79750499D01*
X201342682Y-79750500D01*
X201342684Y-79750500D01*
X201657316Y-79750500D01*
X201657318Y-79750500D01*
X201657321Y-79750499D01*
X201657329Y-79750499D01*
X201843593Y-79726968D01*
X201969473Y-79711066D01*
X202274225Y-79632819D01*
X202566766Y-79516994D01*
X202574780Y-79512587D01*
X202643010Y-79497540D01*
X202708545Y-79521769D01*
X202722201Y-79533568D01*
X204813181Y-81624548D01*
X204846666Y-81685871D01*
X204849500Y-81712229D01*
X204849500Y-87150500D01*
X204829815Y-87217539D01*
X204777011Y-87263294D01*
X204725500Y-87274500D01*
X204327129Y-87274500D01*
X204327123Y-87274501D01*
X204267516Y-87280908D01*
X204132671Y-87331202D01*
X204132664Y-87331206D01*
X204017455Y-87417452D01*
X204017452Y-87417455D01*
X203931206Y-87532664D01*
X203931202Y-87532671D01*
X203880908Y-87667517D01*
X203874546Y-87726695D01*
X203874501Y-87727123D01*
X203874500Y-87727135D01*
X203874500Y-90272870D01*
X203874501Y-90272876D01*
X203880908Y-90332483D01*
X203931202Y-90467328D01*
X203931206Y-90467335D01*
X204017452Y-90582544D01*
X204017455Y-90582547D01*
X204132664Y-90668793D01*
X204132671Y-90668797D01*
X204267517Y-90719091D01*
X204267516Y-90719091D01*
X204274444Y-90719835D01*
X204327127Y-90725500D01*
X206872872Y-90725499D01*
X206932483Y-90719091D01*
X207067331Y-90668796D01*
X207182546Y-90582546D01*
X207268796Y-90467331D01*
X207319091Y-90332483D01*
X207325500Y-90272873D01*
X207325499Y-87727128D01*
X207319091Y-87667517D01*
X207299981Y-87616281D01*
X207268797Y-87532671D01*
X207268793Y-87532664D01*
X207182547Y-87417455D01*
X207182544Y-87417452D01*
X207067335Y-87331206D01*
X207067328Y-87331202D01*
X206932482Y-87280908D01*
X206932483Y-87280908D01*
X206872883Y-87274501D01*
X206872881Y-87274500D01*
X206872873Y-87274500D01*
X206872865Y-87274500D01*
X206474500Y-87274500D01*
X206407461Y-87254815D01*
X206361706Y-87202011D01*
X206350500Y-87150500D01*
X206350500Y-83151736D01*
X206370185Y-83084697D01*
X206422989Y-83038942D01*
X206492147Y-83028998D01*
X206539776Y-83046308D01*
X206584981Y-83074298D01*
X206783802Y-83151321D01*
X206993390Y-83190500D01*
X206993392Y-83190500D01*
X207206608Y-83190500D01*
X207206610Y-83190500D01*
X207416198Y-83151321D01*
X207615019Y-83074298D01*
X207796302Y-82962052D01*
X207953872Y-82818407D01*
X208082366Y-82648255D01*
X208098526Y-82615802D01*
X208177403Y-82457394D01*
X208177403Y-82457393D01*
X208177405Y-82457389D01*
X208235756Y-82252310D01*
X208255429Y-82040000D01*
X208235756Y-81827690D01*
X208177405Y-81622611D01*
X208177403Y-81622606D01*
X208177403Y-81622605D01*
X208082367Y-81431746D01*
X207950417Y-81257018D01*
X207951478Y-81256216D01*
X207923746Y-81199323D01*
X207931946Y-81129937D01*
X207958317Y-81090916D01*
X212389138Y-76660095D01*
X212450459Y-76626612D01*
X212489421Y-76624420D01*
X212499991Y-76625500D01*
X213400008Y-76625499D01*
X213400016Y-76625498D01*
X213400019Y-76625498D01*
X213456302Y-76619748D01*
X213502797Y-76614999D01*
X213669334Y-76559814D01*
X213818656Y-76467712D01*
X213907819Y-76378549D01*
X213969142Y-76345064D01*
X214038834Y-76350048D01*
X214094767Y-76391920D01*
X214119184Y-76457384D01*
X214119500Y-76466230D01*
X214119500Y-78449562D01*
X214099815Y-78516601D01*
X214060778Y-78554988D01*
X214043924Y-78565424D01*
X214023699Y-78577947D01*
X213866127Y-78721593D01*
X213737632Y-78891746D01*
X213642596Y-79082605D01*
X213642596Y-79082607D01*
X213584244Y-79287689D01*
X213564571Y-79499999D01*
X213564571Y-79500000D01*
X213584244Y-79712310D01*
X213642596Y-79917392D01*
X213642596Y-79917394D01*
X213737632Y-80108253D01*
X213866127Y-80278406D01*
X214023699Y-80422053D01*
X214036861Y-80430202D01*
X214060777Y-80445010D01*
X214107412Y-80497036D01*
X214119500Y-80550437D01*
X214119500Y-80767648D01*
X214099815Y-80834687D01*
X214047011Y-80880442D01*
X214008755Y-80890938D01*
X213962516Y-80895909D01*
X213827671Y-80946202D01*
X213827664Y-80946206D01*
X213712455Y-81032452D01*
X213712452Y-81032455D01*
X213626206Y-81147664D01*
X213626202Y-81147671D01*
X213575908Y-81282517D01*
X213569501Y-81342116D01*
X213569501Y-81342123D01*
X213569500Y-81342135D01*
X213569500Y-82737870D01*
X213569501Y-82737876D01*
X213575908Y-82797483D01*
X213626202Y-82932328D01*
X213626206Y-82932335D01*
X213712452Y-83047544D01*
X213712455Y-83047547D01*
X213827664Y-83133793D01*
X213827671Y-83133797D01*
X213962517Y-83184091D01*
X213962516Y-83184091D01*
X213969444Y-83184835D01*
X214022127Y-83190500D01*
X215417872Y-83190499D01*
X215477483Y-83184091D01*
X215612331Y-83133796D01*
X215727546Y-83047546D01*
X215813796Y-82932331D01*
X215864091Y-82797483D01*
X215870500Y-82737873D01*
X215870499Y-81342128D01*
X215864091Y-81282517D01*
X215862813Y-81279091D01*
X215813797Y-81147671D01*
X215813793Y-81147664D01*
X215727547Y-81032455D01*
X215727544Y-81032452D01*
X215612335Y-80946206D01*
X215612328Y-80946202D01*
X215477483Y-80895908D01*
X215431243Y-80890937D01*
X215366693Y-80864199D01*
X215326845Y-80806806D01*
X215320500Y-80767648D01*
X215320500Y-80550437D01*
X215340185Y-80483398D01*
X215379222Y-80445010D01*
X215416302Y-80422052D01*
X215573872Y-80278407D01*
X215702366Y-80108255D01*
X215751190Y-80010203D01*
X215797403Y-79917394D01*
X215797403Y-79917393D01*
X215797405Y-79917389D01*
X215855756Y-79712310D01*
X215875429Y-79500000D01*
X215855756Y-79287690D01*
X215797405Y-79082611D01*
X215797403Y-79082606D01*
X215797403Y-79082605D01*
X215702367Y-78891746D01*
X215573872Y-78721593D01*
X215439945Y-78599502D01*
X215416302Y-78577948D01*
X215379221Y-78554988D01*
X215332587Y-78502961D01*
X215320500Y-78449562D01*
X215320500Y-73059059D01*
X215320501Y-73059046D01*
X215320501Y-72890945D01*
X215320501Y-72890943D01*
X215279577Y-72738215D01*
X215226763Y-72646739D01*
X215200520Y-72601284D01*
X215088716Y-72489480D01*
X215088715Y-72489479D01*
X215084385Y-72485149D01*
X215084374Y-72485139D01*
X214211416Y-71612181D01*
X214177931Y-71550858D01*
X214182915Y-71481166D01*
X214224787Y-71425233D01*
X214290251Y-71400816D01*
X214299097Y-71400500D01*
X218249903Y-71400500D01*
X218316942Y-71420185D01*
X218337584Y-71436819D01*
X219765139Y-72864374D01*
X219765149Y-72864385D01*
X219769479Y-72868715D01*
X219769480Y-72868716D01*
X219881284Y-72980520D01*
X219881286Y-72980521D01*
X219933818Y-73010850D01*
X219933817Y-73010850D01*
X219933820Y-73010851D01*
X220018209Y-73059574D01*
X220018210Y-73059574D01*
X220018215Y-73059577D01*
X220170943Y-73100500D01*
X220329057Y-73100500D01*
X232963331Y-73100500D01*
X232963347Y-73100501D01*
X232970943Y-73100501D01*
X233129054Y-73100501D01*
X233129057Y-73100501D01*
X233281785Y-73059577D01*
X233366182Y-73010850D01*
X233418716Y-72980520D01*
X233530520Y-72868716D01*
X233530520Y-72868714D01*
X233540724Y-72858511D01*
X233540728Y-72858506D01*
X233987416Y-72411818D01*
X234048739Y-72378333D01*
X234075097Y-72375499D01*
X235422871Y-72375499D01*
X235422872Y-72375499D01*
X235482483Y-72369091D01*
X235617331Y-72318796D01*
X235732546Y-72232546D01*
X235818796Y-72117331D01*
X235869091Y-71982483D01*
X235875500Y-71922873D01*
X235875499Y-70127128D01*
X235869091Y-70067517D01*
X235867810Y-70064083D01*
X235818797Y-69932671D01*
X235818793Y-69932664D01*
X235732547Y-69817455D01*
X235732544Y-69817452D01*
X235617335Y-69731206D01*
X235617328Y-69731202D01*
X235482482Y-69680908D01*
X235482483Y-69680908D01*
X235422883Y-69674501D01*
X235422881Y-69674500D01*
X235422873Y-69674500D01*
X235422864Y-69674500D01*
X233627129Y-69674500D01*
X233627123Y-69674501D01*
X233567516Y-69680908D01*
X233432671Y-69731202D01*
X233432664Y-69731206D01*
X233317455Y-69817452D01*
X233317452Y-69817455D01*
X233231206Y-69932664D01*
X233231203Y-69932669D01*
X233182189Y-70064083D01*
X233140317Y-70120016D01*
X233074853Y-70144433D01*
X233006580Y-70129581D01*
X232978326Y-70108430D01*
X232856402Y-69986506D01*
X232856395Y-69986501D01*
X232662834Y-69850967D01*
X232662830Y-69850965D01*
X232662828Y-69850964D01*
X232448663Y-69751097D01*
X232448659Y-69751096D01*
X232448655Y-69751094D01*
X232220413Y-69689938D01*
X232220403Y-69689936D01*
X231985001Y-69669341D01*
X231984999Y-69669341D01*
X231749596Y-69689936D01*
X231749586Y-69689938D01*
X231521344Y-69751094D01*
X231521335Y-69751098D01*
X231307171Y-69850964D01*
X231307169Y-69850965D01*
X231113597Y-69986505D01*
X230946505Y-70153597D01*
X230810965Y-70347169D01*
X230810965Y-70347170D01*
X230711098Y-70561335D01*
X230711094Y-70561344D01*
X230649938Y-70789586D01*
X230649936Y-70789596D01*
X230629341Y-71024999D01*
X230629341Y-71025000D01*
X230649936Y-71260403D01*
X230649938Y-71260413D01*
X230711094Y-71488655D01*
X230711096Y-71488659D01*
X230711097Y-71488663D01*
X230712636Y-71491963D01*
X230810965Y-71702830D01*
X230810969Y-71702836D01*
X230812047Y-71704376D01*
X230812312Y-71705164D01*
X230813674Y-71707522D01*
X230813200Y-71707795D01*
X230834375Y-71770582D01*
X230817365Y-71838349D01*
X230766418Y-71886163D01*
X230710473Y-71899500D01*
X227014500Y-71899500D01*
X226947461Y-71879815D01*
X226901706Y-71827011D01*
X226890500Y-71775500D01*
X226890499Y-70102129D01*
X226890498Y-70102123D01*
X226889490Y-70092747D01*
X226884091Y-70042517D01*
X226882810Y-70039083D01*
X226833797Y-69907671D01*
X226833793Y-69907664D01*
X226747547Y-69792455D01*
X226747544Y-69792452D01*
X226632335Y-69706206D01*
X226632328Y-69706202D01*
X226603920Y-69695607D01*
X226547986Y-69653736D01*
X226523569Y-69588272D01*
X226538420Y-69519999D01*
X226559569Y-69491747D01*
X226764498Y-69286819D01*
X226825821Y-69253334D01*
X226852179Y-69250500D01*
X236823920Y-69250500D01*
X236921462Y-69231096D01*
X236968913Y-69221658D01*
X237105495Y-69165084D01*
X237154729Y-69132186D01*
X237228416Y-69082952D01*
X238332952Y-67978415D01*
X238395022Y-67885520D01*
X238412033Y-67860061D01*
X238415079Y-67855503D01*
X238415080Y-67855500D01*
X238415084Y-67855495D01*
X238447042Y-67778342D01*
X238471659Y-67718912D01*
X238499388Y-67579502D01*
X238499393Y-67579503D01*
X238499393Y-67579480D01*
X238500500Y-67573918D01*
X238500500Y-64426082D01*
X238500500Y-64426079D01*
X238471659Y-64281090D01*
X238471656Y-64281082D01*
X238415087Y-64144511D01*
X238415080Y-64144498D01*
X238332952Y-64021585D01*
X238332951Y-64021584D01*
X238228416Y-63917049D01*
X237814819Y-63503452D01*
X236573421Y-62262052D01*
X236573414Y-62262046D01*
X236470738Y-62193441D01*
X236470736Y-62193440D01*
X236450503Y-62179920D01*
X236450488Y-62179912D01*
X236313917Y-62123343D01*
X236313907Y-62123340D01*
X236168920Y-62094500D01*
X236168918Y-62094500D01*
X235966021Y-62094500D01*
X235952766Y-62093789D01*
X235922184Y-62090501D01*
X235922182Y-62090500D01*
X235922174Y-62090500D01*
X235922165Y-62090500D01*
X233616630Y-62090500D01*
X233616624Y-62090501D01*
X233557017Y-62096908D01*
X233422172Y-62147202D01*
X233422165Y-62147206D01*
X233306956Y-62233452D01*
X233306953Y-62233455D01*
X233220707Y-62348664D01*
X233220703Y-62348671D01*
X233178280Y-62462416D01*
X233170410Y-62483517D01*
X233164001Y-62543127D01*
X233164001Y-62543134D01*
X233164001Y-62543135D01*
X233164001Y-63146870D01*
X233164002Y-63146876D01*
X233170409Y-63206483D01*
X233220703Y-63341328D01*
X233220707Y-63341335D01*
X233306953Y-63456544D01*
X233306956Y-63456547D01*
X233422165Y-63542793D01*
X233422172Y-63542797D01*
X233557018Y-63593091D01*
X233557017Y-63593091D01*
X233563945Y-63593835D01*
X233616628Y-63599500D01*
X235736769Y-63599499D01*
X235803808Y-63619184D01*
X235824450Y-63635818D01*
X236333143Y-64144511D01*
X236624522Y-64435889D01*
X236658007Y-64497212D01*
X236653023Y-64566903D01*
X236611151Y-64622837D01*
X236545687Y-64647254D01*
X236512650Y-64645187D01*
X236458922Y-64634500D01*
X236458918Y-64634500D01*
X235966021Y-64634500D01*
X235952766Y-64633789D01*
X235922184Y-64630501D01*
X235922182Y-64630500D01*
X235922174Y-64630500D01*
X235922165Y-64630500D01*
X233616630Y-64630500D01*
X233616624Y-64630501D01*
X233557017Y-64636908D01*
X233422172Y-64687202D01*
X233422165Y-64687206D01*
X233306956Y-64773452D01*
X233306953Y-64773455D01*
X233220707Y-64888664D01*
X233220703Y-64888671D01*
X233170411Y-65023513D01*
X233170410Y-65023517D01*
X233164001Y-65083127D01*
X233164001Y-65083134D01*
X233164001Y-65083135D01*
X233164001Y-65686870D01*
X233164002Y-65686876D01*
X233170409Y-65746483D01*
X233220703Y-65881328D01*
X233220705Y-65881331D01*
X233268883Y-65945689D01*
X233293300Y-66011154D01*
X233278448Y-66079427D01*
X233268883Y-66094311D01*
X233220705Y-66158668D01*
X233220703Y-66158671D01*
X233171872Y-66289596D01*
X233170410Y-66293517D01*
X233164001Y-66353127D01*
X233164001Y-66353134D01*
X233164001Y-66353135D01*
X233164001Y-66353136D01*
X233164002Y-66925500D01*
X233144318Y-66992539D01*
X233091514Y-67038294D01*
X233040002Y-67049500D01*
X230748799Y-67049500D01*
X230681760Y-67029815D01*
X230636005Y-66977011D01*
X230624799Y-66925500D01*
X230624798Y-66353129D01*
X230624797Y-66353123D01*
X230618390Y-66293516D01*
X230568096Y-66158671D01*
X230568094Y-66158668D01*
X230551120Y-66135994D01*
X230519916Y-66094311D01*
X230495499Y-66028847D01*
X230510350Y-65960574D01*
X230519915Y-65945691D01*
X230568095Y-65881331D01*
X230618390Y-65746483D01*
X230624799Y-65686873D01*
X230624798Y-65083128D01*
X230618390Y-65023517D01*
X230586543Y-64938132D01*
X230568096Y-64888671D01*
X230568094Y-64888668D01*
X230541643Y-64853334D01*
X230519916Y-64824311D01*
X230495499Y-64758847D01*
X230510350Y-64690574D01*
X230519917Y-64675688D01*
X230568095Y-64611331D01*
X230618390Y-64476483D01*
X230624799Y-64416873D01*
X230624798Y-63813128D01*
X230618390Y-63753517D01*
X230568095Y-63618669D01*
X230568094Y-63618668D01*
X230568092Y-63618664D01*
X230481846Y-63503455D01*
X230481843Y-63503452D01*
X230366634Y-63417206D01*
X230366627Y-63417202D01*
X230231781Y-63366908D01*
X230231782Y-63366908D01*
X230172182Y-63360501D01*
X230172180Y-63360500D01*
X230172172Y-63360500D01*
X230172163Y-63360500D01*
X227866628Y-63360500D01*
X227866622Y-63360501D01*
X227807014Y-63366909D01*
X227799470Y-63368692D01*
X227798818Y-63365936D01*
X227742486Y-63369956D01*
X227706865Y-63356181D01*
X227643087Y-63319359D01*
X227643087Y-63319358D01*
X227643085Y-63319358D01*
X227592969Y-63290423D01*
X227440241Y-63249499D01*
X227282127Y-63249499D01*
X227274531Y-63249499D01*
X227274515Y-63249500D01*
X190742039Y-63249500D01*
X190675000Y-63229815D01*
X190629245Y-63177011D01*
X190619301Y-63107853D01*
X190648326Y-63044297D01*
X190654358Y-63037819D01*
X191343512Y-62348664D01*
X191608506Y-62083669D01*
X191608511Y-62083666D01*
X191618714Y-62073462D01*
X191618716Y-62073462D01*
X191730520Y-61961658D01*
X191807077Y-61829057D01*
X191809577Y-61824727D01*
X191850500Y-61672000D01*
X191850500Y-61513885D01*
X191850500Y-56972642D01*
X191870185Y-56905603D01*
X191922989Y-56859848D01*
X191961897Y-56849284D01*
X192052797Y-56839999D01*
X192219334Y-56784814D01*
X192368656Y-56692712D01*
X192492712Y-56568656D01*
X192584814Y-56419334D01*
X192639999Y-56252797D01*
X192650500Y-56150009D01*
X192650499Y-55224992D01*
X192650498Y-55224983D01*
X193349500Y-55224983D01*
X193349500Y-56150001D01*
X193349501Y-56150019D01*
X193360000Y-56252796D01*
X193360001Y-56252799D01*
X193406901Y-56394331D01*
X193415186Y-56419334D01*
X193507288Y-56568656D01*
X193631344Y-56692712D01*
X193780666Y-56784814D01*
X193947203Y-56839999D01*
X194049991Y-56850500D01*
X195450008Y-56850499D01*
X195552797Y-56839999D01*
X195719334Y-56784814D01*
X195868656Y-56692712D01*
X195992712Y-56568656D01*
X196036970Y-56496902D01*
X196088917Y-56450179D01*
X196142508Y-56438000D01*
X196857492Y-56438000D01*
X196924531Y-56457685D01*
X196963029Y-56496901D01*
X197007288Y-56568656D01*
X197131344Y-56692712D01*
X197280666Y-56784814D01*
X197447203Y-56839999D01*
X197549991Y-56850500D01*
X198950008Y-56850499D01*
X199052797Y-56839999D01*
X199219334Y-56784814D01*
X199368656Y-56692712D01*
X199492712Y-56568656D01*
X199536970Y-56496902D01*
X199588917Y-56450179D01*
X199642508Y-56438000D01*
X200357492Y-56438000D01*
X200424531Y-56457685D01*
X200463029Y-56496901D01*
X200507288Y-56568656D01*
X200631344Y-56692712D01*
X200780666Y-56784814D01*
X200947203Y-56839999D01*
X201049991Y-56850500D01*
X202450008Y-56850499D01*
X202552797Y-56839999D01*
X202719334Y-56784814D01*
X202868656Y-56692712D01*
X202992712Y-56568656D01*
X203036970Y-56496902D01*
X203088917Y-56450179D01*
X203142508Y-56438000D01*
X203857492Y-56438000D01*
X203924531Y-56457685D01*
X203963029Y-56496901D01*
X204007288Y-56568656D01*
X204131344Y-56692712D01*
X204280666Y-56784814D01*
X204447203Y-56839999D01*
X204549991Y-56850500D01*
X205950008Y-56850499D01*
X206052797Y-56839999D01*
X206219334Y-56784814D01*
X206368656Y-56692712D01*
X206492712Y-56568656D01*
X206584814Y-56419334D01*
X206639999Y-56252797D01*
X206650500Y-56150009D01*
X206650499Y-55224992D01*
X206650498Y-55224983D01*
X207374500Y-55224983D01*
X207374500Y-56125001D01*
X207374501Y-56125019D01*
X207385000Y-56227796D01*
X207385001Y-56227799D01*
X207416662Y-56323344D01*
X207440186Y-56394334D01*
X207532288Y-56543656D01*
X207656344Y-56667712D01*
X207805666Y-56759814D01*
X207972203Y-56814999D01*
X208074991Y-56825500D01*
X209425008Y-56825499D01*
X209527797Y-56814999D01*
X209694334Y-56759814D01*
X209843656Y-56667712D01*
X209967712Y-56543656D01*
X210059814Y-56394334D01*
X210114999Y-56227797D01*
X210125500Y-56125009D01*
X210125499Y-55224992D01*
X210114999Y-55122203D01*
X210059814Y-54955666D01*
X209967712Y-54806344D01*
X209843656Y-54682288D01*
X209767408Y-54635258D01*
X233999500Y-54635258D01*
X233999500Y-54864741D01*
X234024446Y-55054215D01*
X234029452Y-55092238D01*
X234065020Y-55224980D01*
X234088842Y-55313887D01*
X234176650Y-55525876D01*
X234176657Y-55525890D01*
X234291392Y-55724617D01*
X234431081Y-55906661D01*
X234431089Y-55906670D01*
X234593330Y-56068911D01*
X234593338Y-56068918D01*
X234775382Y-56208607D01*
X234775385Y-56208608D01*
X234775388Y-56208611D01*
X234974112Y-56323344D01*
X234974117Y-56323346D01*
X234974123Y-56323349D01*
X235065480Y-56361190D01*
X235186113Y-56411158D01*
X235407762Y-56470548D01*
X235635266Y-56500500D01*
X235635273Y-56500500D01*
X235864727Y-56500500D01*
X235864734Y-56500500D01*
X236092238Y-56470548D01*
X236313887Y-56411158D01*
X236525888Y-56323344D01*
X236724612Y-56208611D01*
X236906661Y-56068919D01*
X236906665Y-56068914D01*
X236906670Y-56068911D01*
X237068911Y-55906670D01*
X237068914Y-55906665D01*
X237068919Y-55906661D01*
X237208611Y-55724612D01*
X237323344Y-55525888D01*
X237411158Y-55313887D01*
X237470548Y-55092238D01*
X237500500Y-54864734D01*
X237500500Y-54635266D01*
X237470548Y-54407762D01*
X237411158Y-54186113D01*
X237323344Y-53974112D01*
X237208611Y-53775388D01*
X237208608Y-53775385D01*
X237208607Y-53775382D01*
X237068918Y-53593338D01*
X237068911Y-53593330D01*
X236906670Y-53431089D01*
X236906661Y-53431081D01*
X236724617Y-53291392D01*
X236525890Y-53176657D01*
X236525876Y-53176650D01*
X236313887Y-53088842D01*
X236092238Y-53029452D01*
X236054215Y-53024446D01*
X235864741Y-52999500D01*
X235864734Y-52999500D01*
X235635266Y-52999500D01*
X235635258Y-52999500D01*
X235418715Y-53028009D01*
X235407762Y-53029452D01*
X235314076Y-53054554D01*
X235186112Y-53088842D01*
X234974123Y-53176650D01*
X234974109Y-53176657D01*
X234775382Y-53291392D01*
X234593338Y-53431081D01*
X234431081Y-53593338D01*
X234291392Y-53775382D01*
X234176657Y-53974109D01*
X234176650Y-53974123D01*
X234088842Y-54186112D01*
X234029453Y-54407759D01*
X234029451Y-54407770D01*
X233999500Y-54635258D01*
X209767408Y-54635258D01*
X209694334Y-54590186D01*
X209527797Y-54535001D01*
X209527795Y-54535000D01*
X209425010Y-54524500D01*
X208074998Y-54524500D01*
X208074981Y-54524501D01*
X207972203Y-54535000D01*
X207972200Y-54535001D01*
X207805668Y-54590185D01*
X207805663Y-54590187D01*
X207656342Y-54682289D01*
X207532289Y-54806342D01*
X207440187Y-54955663D01*
X207440186Y-54955666D01*
X207385001Y-55122203D01*
X207385001Y-55122204D01*
X207385000Y-55122204D01*
X207374500Y-55224983D01*
X206650498Y-55224983D01*
X206639999Y-55122203D01*
X206584814Y-54955666D01*
X206492712Y-54806344D01*
X206368656Y-54682288D01*
X206219334Y-54590186D01*
X206052797Y-54535001D01*
X206052795Y-54535000D01*
X205950010Y-54524500D01*
X204549998Y-54524500D01*
X204549981Y-54524501D01*
X204447203Y-54535000D01*
X204447200Y-54535001D01*
X204280668Y-54590185D01*
X204280663Y-54590187D01*
X204131342Y-54682289D01*
X204007289Y-54806342D01*
X204007288Y-54806344D01*
X203971278Y-54864727D01*
X203963031Y-54878097D01*
X203911083Y-54924821D01*
X203857492Y-54937000D01*
X203142508Y-54937000D01*
X203075469Y-54917315D01*
X203036969Y-54878097D01*
X203028727Y-54864734D01*
X202992712Y-54806344D01*
X202868656Y-54682288D01*
X202719334Y-54590186D01*
X202552797Y-54535001D01*
X202552795Y-54535000D01*
X202450010Y-54524500D01*
X201049998Y-54524500D01*
X201049981Y-54524501D01*
X200947203Y-54535000D01*
X200947200Y-54535001D01*
X200780668Y-54590185D01*
X200780663Y-54590187D01*
X200631342Y-54682289D01*
X200507289Y-54806342D01*
X200507288Y-54806344D01*
X200471278Y-54864727D01*
X200463031Y-54878097D01*
X200411083Y-54924821D01*
X200357492Y-54937000D01*
X199642508Y-54937000D01*
X199575469Y-54917315D01*
X199536969Y-54878097D01*
X199528727Y-54864734D01*
X199492712Y-54806344D01*
X199368656Y-54682288D01*
X199219334Y-54590186D01*
X199052797Y-54535001D01*
X199052795Y-54535000D01*
X198950010Y-54524500D01*
X197549998Y-54524500D01*
X197549981Y-54524501D01*
X197447203Y-54535000D01*
X197447200Y-54535001D01*
X197280668Y-54590185D01*
X197280663Y-54590187D01*
X197131342Y-54682289D01*
X197007289Y-54806342D01*
X197007288Y-54806344D01*
X196971278Y-54864727D01*
X196963031Y-54878097D01*
X196911083Y-54924821D01*
X196857492Y-54937000D01*
X196142508Y-54937000D01*
X196075469Y-54917315D01*
X196036969Y-54878097D01*
X196028727Y-54864734D01*
X195992712Y-54806344D01*
X195868656Y-54682288D01*
X195719334Y-54590186D01*
X195552797Y-54535001D01*
X195552795Y-54535000D01*
X195450010Y-54524500D01*
X194049998Y-54524500D01*
X194049981Y-54524501D01*
X193947203Y-54535000D01*
X193947200Y-54535001D01*
X193780668Y-54590185D01*
X193780663Y-54590187D01*
X193631342Y-54682289D01*
X193507289Y-54806342D01*
X193415187Y-54955663D01*
X193415186Y-54955666D01*
X193360001Y-55122203D01*
X193360001Y-55122204D01*
X193360000Y-55122204D01*
X193349500Y-55224983D01*
X192650498Y-55224983D01*
X192639999Y-55122203D01*
X192584814Y-54955666D01*
X192492712Y-54806344D01*
X192368656Y-54682288D01*
X192219334Y-54590186D01*
X192052797Y-54535001D01*
X192052795Y-54535000D01*
X191950010Y-54524500D01*
X190549998Y-54524500D01*
X190549981Y-54524501D01*
X190447203Y-54535000D01*
X190447200Y-54535001D01*
X190280668Y-54590185D01*
X190280663Y-54590187D01*
X190131342Y-54682289D01*
X190007289Y-54806342D01*
X189915187Y-54955663D01*
X189915186Y-54955666D01*
X189860001Y-55122203D01*
X189860001Y-55122204D01*
X189860000Y-55122204D01*
X189849500Y-55224983D01*
X189849500Y-56150001D01*
X189849501Y-56150019D01*
X189860000Y-56252796D01*
X189860001Y-56252799D01*
X189906901Y-56394331D01*
X189915186Y-56419334D01*
X190007288Y-56568656D01*
X190131344Y-56692712D01*
X190280666Y-56784814D01*
X190447203Y-56839999D01*
X190538103Y-56849285D01*
X190602794Y-56875681D01*
X190642945Y-56932861D01*
X190649500Y-56972643D01*
X190649500Y-61292844D01*
X190629815Y-61359883D01*
X190613181Y-61380525D01*
X185412277Y-66581428D01*
X185350954Y-66614913D01*
X185310713Y-66616967D01*
X185155104Y-66599435D01*
X185155096Y-66599435D01*
X184975850Y-66619630D01*
X184975845Y-66619631D01*
X184805576Y-66679211D01*
X184652837Y-66775184D01*
X184525284Y-66902737D01*
X184429311Y-67055476D01*
X184369731Y-67225745D01*
X184369730Y-67225750D01*
X184349535Y-67404996D01*
X184349535Y-67405003D01*
X184369730Y-67584249D01*
X184369731Y-67584254D01*
X184429311Y-67754523D01*
X184521620Y-67901431D01*
X184540620Y-67968668D01*
X184520252Y-68035503D01*
X184504307Y-68055084D01*
X179695071Y-72864320D01*
X179633748Y-72897805D01*
X179593507Y-72899859D01*
X179437896Y-72882327D01*
X179437888Y-72882327D01*
X179258642Y-72902522D01*
X179258637Y-72902523D01*
X179088368Y-72962103D01*
X178935629Y-73058076D01*
X178808076Y-73185629D01*
X178712103Y-73338368D01*
X178652523Y-73508637D01*
X178652522Y-73508642D01*
X178632327Y-73687888D01*
X178632327Y-73687895D01*
X178652522Y-73867141D01*
X178652525Y-73867152D01*
X178657841Y-73882345D01*
X178661402Y-73952124D01*
X178626672Y-74012751D01*
X178581760Y-74040337D01*
X178572632Y-74043531D01*
X178572621Y-74043536D01*
X178540471Y-74063738D01*
X178473235Y-74082738D01*
X178406399Y-74062370D01*
X178361186Y-74009102D01*
X178350500Y-73958744D01*
X178350500Y-61920943D01*
X178350499Y-61920939D01*
X178339874Y-61881285D01*
X178325881Y-61829062D01*
X178309577Y-61768215D01*
X178280639Y-61718095D01*
X178230520Y-61631284D01*
X178118716Y-61519480D01*
X178118715Y-61519479D01*
X178114385Y-61515149D01*
X178114374Y-61515139D01*
X178111416Y-61512181D01*
X178077931Y-61450858D01*
X178082915Y-61381166D01*
X178124787Y-61325233D01*
X178190251Y-61300816D01*
X178199097Y-61300500D01*
X182638331Y-61300500D01*
X182638347Y-61300501D01*
X182645943Y-61300501D01*
X182804054Y-61300501D01*
X182804057Y-61300501D01*
X182956785Y-61259577D01*
X183018014Y-61224226D01*
X183093716Y-61180520D01*
X183205520Y-61068716D01*
X183205520Y-61068714D01*
X183215724Y-61058511D01*
X183215728Y-61058506D01*
X187412416Y-56861818D01*
X187473739Y-56828333D01*
X187500097Y-56825499D01*
X188425002Y-56825499D01*
X188425008Y-56825499D01*
X188527797Y-56814999D01*
X188694334Y-56759814D01*
X188843656Y-56667712D01*
X188967712Y-56543656D01*
X189059814Y-56394334D01*
X189114999Y-56227797D01*
X189125500Y-56125009D01*
X189125499Y-55224992D01*
X189114999Y-55122203D01*
X189059814Y-54955666D01*
X188967712Y-54806344D01*
X188843656Y-54682288D01*
X188694334Y-54590186D01*
X188527797Y-54535001D01*
X188527795Y-54535000D01*
X188425010Y-54524500D01*
X187074998Y-54524500D01*
X187074981Y-54524501D01*
X186972203Y-54535000D01*
X186972200Y-54535001D01*
X186805668Y-54590185D01*
X186805663Y-54590187D01*
X186656342Y-54682289D01*
X186532289Y-54806342D01*
X186440187Y-54955663D01*
X186440186Y-54955666D01*
X186385001Y-55122203D01*
X186385001Y-55122204D01*
X186385000Y-55122204D01*
X186374500Y-55224983D01*
X186374500Y-56125000D01*
X186374501Y-56125011D01*
X186375581Y-56135583D01*
X186362808Y-56204275D01*
X186339903Y-56235860D01*
X182512584Y-60063181D01*
X182451261Y-60096666D01*
X182424903Y-60099500D01*
X154320983Y-60099500D01*
X154320967Y-60099499D01*
X154313371Y-60099499D01*
X154155257Y-60099499D01*
X154047901Y-60128265D01*
X154002524Y-60140424D01*
X154002523Y-60140425D01*
X153952410Y-60169359D01*
X153952409Y-60169360D01*
X153909003Y-60194420D01*
X153865599Y-60219479D01*
X153865596Y-60219481D01*
X152869481Y-61215596D01*
X152869475Y-61215604D01*
X152820462Y-61300499D01*
X152820462Y-61300500D01*
X152790423Y-61352529D01*
X152749499Y-61505257D01*
X152749499Y-61505259D01*
X152749499Y-61673360D01*
X152749500Y-61673373D01*
X152749500Y-63939917D01*
X152749499Y-63939935D01*
X152749499Y-64105641D01*
X152749498Y-64105641D01*
X152749499Y-64105644D01*
X152790423Y-64258372D01*
X152790424Y-64258374D01*
X152790423Y-64258374D01*
X152803538Y-64281088D01*
X152803539Y-64281090D01*
X152869475Y-64395296D01*
X152869481Y-64395304D01*
X152988349Y-64514172D01*
X152988355Y-64514177D01*
X154083280Y-65609102D01*
X154116765Y-65670425D01*
X154119599Y-65696783D01*
X154119599Y-65852330D01*
X154119598Y-65852348D01*
X154119598Y-66018054D01*
X154119597Y-66018054D01*
X154160523Y-66170789D01*
X154160524Y-66170790D01*
X154177099Y-66199498D01*
X154177100Y-66199499D01*
X154231381Y-66293517D01*
X154239580Y-66307717D01*
X154358448Y-66426585D01*
X154358454Y-66426590D01*
X154483280Y-66551416D01*
X154516765Y-66612739D01*
X154519599Y-66639097D01*
X154519599Y-66956869D01*
X154519600Y-66956876D01*
X154526007Y-67016483D01*
X154576301Y-67151328D01*
X154576305Y-67151335D01*
X154662551Y-67266544D01*
X154662554Y-67266547D01*
X154777763Y-67352793D01*
X154777770Y-67352797D01*
X154912616Y-67403091D01*
X154912615Y-67403091D01*
X154919543Y-67403835D01*
X154972226Y-67409500D01*
X157277771Y-67409499D01*
X157337382Y-67403091D01*
X157472230Y-67352796D01*
X157587445Y-67266546D01*
X157673695Y-67151331D01*
X157723990Y-67016483D01*
X157730399Y-66956873D01*
X157730398Y-66353128D01*
X157723990Y-66293517D01*
X157721938Y-66288016D01*
X157673696Y-66158671D01*
X157673694Y-66158668D01*
X157656720Y-66135994D01*
X157625516Y-66094311D01*
X157601099Y-66028847D01*
X157615950Y-65960574D01*
X157625515Y-65945691D01*
X157673695Y-65881331D01*
X157723990Y-65746483D01*
X157730399Y-65686873D01*
X157730398Y-65083128D01*
X157723990Y-65023517D01*
X157692143Y-64938132D01*
X157673696Y-64888671D01*
X157673694Y-64888668D01*
X157647243Y-64853334D01*
X157625516Y-64824311D01*
X157601099Y-64758847D01*
X157615950Y-64690574D01*
X157625517Y-64675688D01*
X157673695Y-64611331D01*
X157723990Y-64476483D01*
X157730399Y-64416873D01*
X157730398Y-63813128D01*
X157723990Y-63753517D01*
X157673695Y-63618669D01*
X157673694Y-63618668D01*
X157673692Y-63618664D01*
X157587446Y-63503455D01*
X157587443Y-63503452D01*
X157472234Y-63417206D01*
X157472227Y-63417202D01*
X157337381Y-63366908D01*
X157337382Y-63366908D01*
X157277782Y-63360501D01*
X157277780Y-63360500D01*
X157277772Y-63360500D01*
X157277763Y-63360500D01*
X154972228Y-63360500D01*
X154972222Y-63360501D01*
X154912611Y-63366909D01*
X154905068Y-63368692D01*
X154904415Y-63365930D01*
X154848091Y-63369935D01*
X154786782Y-63336424D01*
X154753323Y-63275087D01*
X154750500Y-63248780D01*
X154750500Y-62224500D01*
X154770185Y-62157461D01*
X154822989Y-62111706D01*
X154874500Y-62100500D01*
X160264362Y-62100500D01*
X160331401Y-62120185D01*
X160377156Y-62172989D01*
X160387100Y-62242147D01*
X160363628Y-62298811D01*
X160326307Y-62348664D01*
X160326303Y-62348671D01*
X160283880Y-62462416D01*
X160276010Y-62483517D01*
X160269601Y-62543127D01*
X160269601Y-62543134D01*
X160269601Y-62543135D01*
X160269601Y-63146870D01*
X160269602Y-63146876D01*
X160276009Y-63206483D01*
X160326303Y-63341328D01*
X160326307Y-63341335D01*
X160412553Y-63456544D01*
X160412556Y-63456547D01*
X160527765Y-63542793D01*
X160527772Y-63542797D01*
X160662618Y-63593091D01*
X160662617Y-63593091D01*
X160669545Y-63593835D01*
X160722228Y-63599500D01*
X162367670Y-63599499D01*
X162434709Y-63619184D01*
X162455351Y-63635818D01*
X163242352Y-64422819D01*
X163275837Y-64484142D01*
X163270853Y-64553834D01*
X163228981Y-64609767D01*
X163163517Y-64634184D01*
X163154671Y-64634500D01*
X163071621Y-64634500D01*
X163058366Y-64633789D01*
X163027784Y-64630501D01*
X163027782Y-64630500D01*
X163027774Y-64630500D01*
X163027765Y-64630500D01*
X160722230Y-64630500D01*
X160722224Y-64630501D01*
X160662617Y-64636908D01*
X160527772Y-64687202D01*
X160527765Y-64687206D01*
X160412556Y-64773452D01*
X160412553Y-64773455D01*
X160326307Y-64888664D01*
X160326303Y-64888671D01*
X160276011Y-65023513D01*
X160276010Y-65023517D01*
X160269601Y-65083127D01*
X160269601Y-65083134D01*
X160269601Y-65083135D01*
X160269601Y-65686870D01*
X160269602Y-65686876D01*
X160276009Y-65746483D01*
X160326303Y-65881328D01*
X160326305Y-65881331D01*
X160374483Y-65945689D01*
X160398900Y-66011154D01*
X160384048Y-66079427D01*
X160374483Y-66094311D01*
X160326305Y-66158668D01*
X160326303Y-66158671D01*
X160277472Y-66289596D01*
X160276010Y-66293517D01*
X160269601Y-66353127D01*
X160269601Y-66353134D01*
X160269601Y-66353135D01*
X160269601Y-66956870D01*
X160269602Y-66956876D01*
X160276009Y-67016483D01*
X160326303Y-67151328D01*
X160326307Y-67151335D01*
X160412553Y-67266544D01*
X160412556Y-67266547D01*
X160527765Y-67352793D01*
X160527772Y-67352797D01*
X160662618Y-67403091D01*
X160662617Y-67403091D01*
X160669545Y-67403835D01*
X160722228Y-67409500D01*
X161586461Y-67409499D01*
X161627416Y-67416458D01*
X161695749Y-67440369D01*
X161874997Y-67460565D01*
X161875001Y-67460565D01*
X161875005Y-67460565D01*
X162054252Y-67440369D01*
X162054254Y-67440368D01*
X162054256Y-67440368D01*
X162122586Y-67416458D01*
X162163541Y-67409499D01*
X163027772Y-67409499D01*
X163027773Y-67409499D01*
X163087384Y-67403091D01*
X163222232Y-67352796D01*
X163337447Y-67266546D01*
X163423697Y-67151331D01*
X163473992Y-67016483D01*
X163480401Y-66956873D01*
X163480400Y-66353128D01*
X163473992Y-66293517D01*
X163473991Y-66293513D01*
X163472692Y-66288016D01*
X163476432Y-66218247D01*
X163517299Y-66161575D01*
X163582317Y-66135994D01*
X163593369Y-66135500D01*
X163913721Y-66135500D01*
X163980760Y-66155185D01*
X164001402Y-66171819D01*
X164713181Y-66883598D01*
X164746666Y-66944921D01*
X164749500Y-66971279D01*
X164749500Y-69812298D01*
X164729815Y-69879337D01*
X164696625Y-69913872D01*
X164628595Y-69961507D01*
X164461505Y-70128597D01*
X164325965Y-70322169D01*
X164325964Y-70322171D01*
X164226098Y-70536335D01*
X164226094Y-70536344D01*
X164164938Y-70764586D01*
X164164936Y-70764596D01*
X164144341Y-70999999D01*
X164144341Y-71000000D01*
X164164936Y-71235403D01*
X164164938Y-71235413D01*
X164226094Y-71463655D01*
X164226096Y-71463659D01*
X164226097Y-71463663D01*
X164239294Y-71491963D01*
X164325965Y-71677830D01*
X164325967Y-71677834D01*
X164414689Y-71804541D01*
X164461505Y-71871401D01*
X164628599Y-72038495D01*
X164715700Y-72099484D01*
X164822165Y-72174032D01*
X164822167Y-72174033D01*
X164822170Y-72174035D01*
X165036337Y-72273903D01*
X165264592Y-72335063D01*
X165452918Y-72351539D01*
X165499999Y-72355659D01*
X165500000Y-72355659D01*
X165500001Y-72355659D01*
X165539234Y-72352226D01*
X165735408Y-72335063D01*
X165963663Y-72273903D01*
X166177830Y-72174035D01*
X166371401Y-72038495D01*
X166493329Y-71916566D01*
X166554648Y-71883084D01*
X166624340Y-71888068D01*
X166680274Y-71929939D01*
X166697189Y-71960917D01*
X166746202Y-72092328D01*
X166746206Y-72092335D01*
X166832452Y-72207544D01*
X166832455Y-72207547D01*
X166947664Y-72293793D01*
X166947671Y-72293797D01*
X167082517Y-72344091D01*
X167082516Y-72344091D01*
X167089444Y-72344835D01*
X167142127Y-72350500D01*
X168937872Y-72350499D01*
X168997483Y-72344091D01*
X169132331Y-72293796D01*
X169247546Y-72207546D01*
X169333796Y-72092331D01*
X169384091Y-71957483D01*
X169390500Y-71897873D01*
X169390499Y-70102128D01*
X169384091Y-70042517D01*
X169382810Y-70039083D01*
X169333797Y-69907671D01*
X169333793Y-69907664D01*
X169247547Y-69792455D01*
X169247544Y-69792452D01*
X169132335Y-69706206D01*
X169132328Y-69706202D01*
X168997482Y-69655908D01*
X168997483Y-69655908D01*
X168937883Y-69649501D01*
X168937881Y-69649500D01*
X168937873Y-69649500D01*
X168937865Y-69649500D01*
X167512230Y-69649500D01*
X167445191Y-69629815D01*
X167424549Y-69613181D01*
X166986819Y-69175451D01*
X166953334Y-69114128D01*
X166950500Y-69087770D01*
X166950500Y-66245178D01*
X166921659Y-66100191D01*
X166921658Y-66100190D01*
X166921658Y-66100186D01*
X166905566Y-66061337D01*
X166865087Y-65963610D01*
X166865085Y-65963606D01*
X166865084Y-65963604D01*
X166822920Y-65900501D01*
X166782952Y-65840683D01*
X163510731Y-62568462D01*
X163477246Y-62507139D01*
X163475122Y-62494030D01*
X163473992Y-62483517D01*
X163423698Y-62348671D01*
X163423694Y-62348664D01*
X163386374Y-62298811D01*
X163361956Y-62233347D01*
X163376807Y-62165074D01*
X163426212Y-62115668D01*
X163485640Y-62100500D01*
X176299903Y-62100500D01*
X176366942Y-62120185D01*
X176387584Y-62136819D01*
X176713181Y-62462416D01*
X176746666Y-62523739D01*
X176749500Y-62550097D01*
X176749500Y-67543568D01*
X176729815Y-67610607D01*
X176677011Y-67656362D01*
X176607853Y-67666306D01*
X176551190Y-67642835D01*
X176542334Y-67636206D01*
X176542328Y-67636202D01*
X176407482Y-67585908D01*
X176407483Y-67585908D01*
X176347883Y-67579501D01*
X176347881Y-67579500D01*
X176347873Y-67579500D01*
X176347864Y-67579500D01*
X174652129Y-67579500D01*
X174652123Y-67579501D01*
X174592516Y-67585908D01*
X174457671Y-67636202D01*
X174457664Y-67636206D01*
X174342455Y-67722452D01*
X174342452Y-67722455D01*
X174256206Y-67837664D01*
X174256202Y-67837671D01*
X174205908Y-67972517D01*
X174199501Y-68032116D01*
X174199500Y-68032135D01*
X174199500Y-69727870D01*
X174199501Y-69727876D01*
X174205908Y-69787483D01*
X174256202Y-69922328D01*
X174256206Y-69922335D01*
X174342452Y-70037544D01*
X174342455Y-70037547D01*
X174457664Y-70123793D01*
X174457671Y-70123797D01*
X174473179Y-70129581D01*
X174592517Y-70174091D01*
X174627596Y-70177862D01*
X174692144Y-70204599D01*
X174731993Y-70261991D01*
X174734488Y-70331816D01*
X174698836Y-70391905D01*
X174685464Y-70402725D01*
X174660858Y-70419954D01*
X174499954Y-70580858D01*
X174369432Y-70767265D01*
X174369431Y-70767267D01*
X174273261Y-70973502D01*
X174273258Y-70973511D01*
X174214366Y-71193302D01*
X174214364Y-71193313D01*
X174194532Y-71419998D01*
X174194532Y-71420001D01*
X174214364Y-71646686D01*
X174214366Y-71646697D01*
X174273258Y-71866488D01*
X174273261Y-71866497D01*
X174369431Y-72072732D01*
X174369432Y-72072734D01*
X174499954Y-72259141D01*
X174660858Y-72420045D01*
X174660861Y-72420047D01*
X174847266Y-72550568D01*
X174905275Y-72577618D01*
X174957714Y-72623791D01*
X174976866Y-72690984D01*
X174956650Y-72757865D01*
X174905275Y-72802382D01*
X174847267Y-72829431D01*
X174847265Y-72829432D01*
X174660858Y-72959954D01*
X174499954Y-73120858D01*
X174369432Y-73307265D01*
X174369431Y-73307267D01*
X174273261Y-73513502D01*
X174273258Y-73513511D01*
X174214366Y-73733302D01*
X174214364Y-73733313D01*
X174194532Y-73959998D01*
X174194532Y-73960001D01*
X174214364Y-74186686D01*
X174214366Y-74186697D01*
X174273258Y-74406488D01*
X174273261Y-74406497D01*
X174369431Y-74612732D01*
X174369432Y-74612734D01*
X174499954Y-74799141D01*
X174660858Y-74960045D01*
X174660861Y-74960047D01*
X174847266Y-75090568D01*
X175053504Y-75186739D01*
X175273308Y-75245635D01*
X175435230Y-75259801D01*
X175499998Y-75265468D01*
X175500000Y-75265468D01*
X175500002Y-75265468D01*
X175556673Y-75260509D01*
X175726692Y-75245635D01*
X175946496Y-75186739D01*
X176152734Y-75090568D01*
X176339139Y-74960047D01*
X176500047Y-74799139D01*
X176630568Y-74612734D01*
X176661881Y-74545580D01*
X176708051Y-74493145D01*
X176775245Y-74473992D01*
X176815217Y-74480947D01*
X176970737Y-74535366D01*
X176970742Y-74535367D01*
X176970745Y-74535368D01*
X177039384Y-74543101D01*
X177103796Y-74570166D01*
X177143352Y-74627760D01*
X177149500Y-74666321D01*
X177149500Y-74667587D01*
X177129815Y-74734626D01*
X177122450Y-74744896D01*
X177120186Y-74747734D01*
X177024211Y-74900476D01*
X176964631Y-75070745D01*
X176964630Y-75070750D01*
X176944435Y-75249996D01*
X176944435Y-75250003D01*
X176964630Y-75429249D01*
X176964631Y-75429254D01*
X177024211Y-75599523D01*
X177051963Y-75643689D01*
X177120184Y-75752262D01*
X177247738Y-75879816D01*
X177324108Y-75927802D01*
X177400479Y-75975790D01*
X177447181Y-75992131D01*
X177503958Y-76032852D01*
X177529706Y-76097804D01*
X177516251Y-76166366D01*
X177493909Y-76196854D01*
X175942705Y-77748058D01*
X175881382Y-77781543D01*
X175822931Y-77780152D01*
X175726697Y-77754366D01*
X175726693Y-77754365D01*
X175726692Y-77754365D01*
X175726691Y-77754364D01*
X175726686Y-77754364D01*
X175500002Y-77734532D01*
X175499998Y-77734532D01*
X175273313Y-77754364D01*
X175273302Y-77754366D01*
X175053511Y-77813258D01*
X175053502Y-77813261D01*
X174847267Y-77909431D01*
X174847265Y-77909432D01*
X174660858Y-78039954D01*
X174499954Y-78200858D01*
X174369432Y-78387265D01*
X174369431Y-78387267D01*
X174273261Y-78593502D01*
X174273258Y-78593511D01*
X174214364Y-78813308D01*
X174213763Y-78816721D01*
X174213083Y-78818092D01*
X174212964Y-78818537D01*
X174212874Y-78818513D01*
X174182732Y-78879321D01*
X174122782Y-78915208D01*
X174052948Y-78912986D01*
X173995401Y-78873362D01*
X173971873Y-78827271D01*
X173969526Y-78818513D01*
X173966392Y-78806814D01*
X173900500Y-78692686D01*
X173807314Y-78599500D01*
X173730219Y-78554989D01*
X173693187Y-78533608D01*
X173629539Y-78516554D01*
X173565892Y-78499500D01*
X173565891Y-78499500D01*
X151124500Y-78499500D01*
X151057461Y-78479815D01*
X151011706Y-78427011D01*
X151000500Y-78375500D01*
X151000500Y-70999999D01*
X157684341Y-70999999D01*
X157684341Y-71000000D01*
X157704936Y-71235403D01*
X157704938Y-71235413D01*
X157766094Y-71463655D01*
X157766096Y-71463659D01*
X157766097Y-71463663D01*
X157779294Y-71491963D01*
X157865965Y-71677830D01*
X157865967Y-71677834D01*
X157954689Y-71804541D01*
X158001505Y-71871401D01*
X158168599Y-72038495D01*
X158255700Y-72099484D01*
X158362165Y-72174032D01*
X158362167Y-72174033D01*
X158362170Y-72174035D01*
X158576337Y-72273903D01*
X158804592Y-72335063D01*
X158992918Y-72351539D01*
X159039999Y-72355659D01*
X159040000Y-72355659D01*
X159040001Y-72355659D01*
X159079234Y-72352226D01*
X159275408Y-72335063D01*
X159503663Y-72273903D01*
X159717830Y-72174035D01*
X159911401Y-72038495D01*
X160033329Y-71916566D01*
X160094648Y-71883084D01*
X160164340Y-71888068D01*
X160220274Y-71929939D01*
X160237189Y-71960917D01*
X160286202Y-72092328D01*
X160286206Y-72092335D01*
X160372452Y-72207544D01*
X160372455Y-72207547D01*
X160487664Y-72293793D01*
X160487671Y-72293797D01*
X160622517Y-72344091D01*
X160622516Y-72344091D01*
X160629444Y-72344835D01*
X160682127Y-72350500D01*
X162477872Y-72350499D01*
X162537483Y-72344091D01*
X162672331Y-72293796D01*
X162787546Y-72207546D01*
X162873796Y-72092331D01*
X162924091Y-71957483D01*
X162930500Y-71897873D01*
X162930499Y-70102128D01*
X162924091Y-70042517D01*
X162922810Y-70039083D01*
X162873797Y-69907671D01*
X162873793Y-69907664D01*
X162787547Y-69792455D01*
X162787544Y-69792452D01*
X162672335Y-69706206D01*
X162672328Y-69706202D01*
X162537482Y-69655908D01*
X162537483Y-69655908D01*
X162477883Y-69649501D01*
X162477881Y-69649500D01*
X162477873Y-69649500D01*
X162477864Y-69649500D01*
X160682129Y-69649500D01*
X160682123Y-69649501D01*
X160622516Y-69655908D01*
X160487671Y-69706202D01*
X160487664Y-69706206D01*
X160372455Y-69792452D01*
X160372452Y-69792455D01*
X160286206Y-69907664D01*
X160286203Y-69907669D01*
X160237189Y-70039083D01*
X160195317Y-70095016D01*
X160129853Y-70119433D01*
X160061580Y-70104581D01*
X160033326Y-70083430D01*
X159911402Y-69961506D01*
X159911395Y-69961501D01*
X159717834Y-69825967D01*
X159717830Y-69825965D01*
X159688521Y-69812298D01*
X159503663Y-69726097D01*
X159503659Y-69726096D01*
X159503655Y-69726094D01*
X159275413Y-69664938D01*
X159275403Y-69664936D01*
X159040001Y-69644341D01*
X159039999Y-69644341D01*
X158804596Y-69664936D01*
X158804586Y-69664938D01*
X158576344Y-69726094D01*
X158576335Y-69726098D01*
X158362171Y-69825964D01*
X158362169Y-69825965D01*
X158168597Y-69961505D01*
X158001505Y-70128597D01*
X157865965Y-70322169D01*
X157865964Y-70322171D01*
X157766098Y-70536335D01*
X157766094Y-70536344D01*
X157704938Y-70764586D01*
X157704936Y-70764596D01*
X157684341Y-70999999D01*
X151000500Y-70999999D01*
X151000500Y-54635258D01*
X153499500Y-54635258D01*
X153499500Y-54864741D01*
X153524446Y-55054215D01*
X153529452Y-55092238D01*
X153565020Y-55224980D01*
X153588842Y-55313887D01*
X153676650Y-55525876D01*
X153676657Y-55525890D01*
X153791392Y-55724617D01*
X153931081Y-55906661D01*
X153931089Y-55906670D01*
X154093330Y-56068911D01*
X154093338Y-56068918D01*
X154275382Y-56208607D01*
X154275385Y-56208608D01*
X154275388Y-56208611D01*
X154474112Y-56323344D01*
X154474117Y-56323346D01*
X154474123Y-56323349D01*
X154565480Y-56361190D01*
X154686113Y-56411158D01*
X154907762Y-56470548D01*
X155135266Y-56500500D01*
X155135273Y-56500500D01*
X155364727Y-56500500D01*
X155364734Y-56500500D01*
X155592238Y-56470548D01*
X155813887Y-56411158D01*
X156025888Y-56323344D01*
X156224612Y-56208611D01*
X156406661Y-56068919D01*
X156406665Y-56068914D01*
X156406670Y-56068911D01*
X156568911Y-55906670D01*
X156568914Y-55906665D01*
X156568919Y-55906661D01*
X156708611Y-55724612D01*
X156823344Y-55525888D01*
X156911158Y-55313887D01*
X156970548Y-55092238D01*
X157000500Y-54864734D01*
X157000500Y-54635266D01*
X156970548Y-54407762D01*
X156911158Y-54186113D01*
X156823344Y-53974112D01*
X156708611Y-53775388D01*
X156708608Y-53775385D01*
X156708607Y-53775382D01*
X156568918Y-53593338D01*
X156568911Y-53593330D01*
X156406670Y-53431089D01*
X156406661Y-53431081D01*
X156224617Y-53291392D01*
X156025890Y-53176657D01*
X156025876Y-53176650D01*
X155813887Y-53088842D01*
X155592238Y-53029452D01*
X155554215Y-53024446D01*
X155364741Y-52999500D01*
X155364734Y-52999500D01*
X155135266Y-52999500D01*
X155135258Y-52999500D01*
X154918715Y-53028009D01*
X154907762Y-53029452D01*
X154814076Y-53054554D01*
X154686112Y-53088842D01*
X154474123Y-53176650D01*
X154474109Y-53176657D01*
X154275382Y-53291392D01*
X154093338Y-53431081D01*
X153931081Y-53593338D01*
X153791392Y-53775382D01*
X153676657Y-53974109D01*
X153676650Y-53974123D01*
X153588842Y-54186112D01*
X153529453Y-54407759D01*
X153529451Y-54407770D01*
X153499500Y-54635258D01*
X151000500Y-54635258D01*
X151000500Y-50624500D01*
X151020185Y-50557461D01*
X151072989Y-50511706D01*
X151124500Y-50500500D01*
X239875500Y-50500500D01*
X239942539Y-50520185D01*
G37*
G04 #@! TD.AperFunction*
G04 #@! TA.AperFunction,Conductor*
G36*
X189747990Y-67820185D02*
G01*
X189793745Y-67872989D01*
X189803689Y-67942147D01*
X189774664Y-68005703D01*
X189768632Y-68012181D01*
X189739954Y-68040858D01*
X189609432Y-68227265D01*
X189609431Y-68227267D01*
X189513261Y-68433502D01*
X189513258Y-68433511D01*
X189454366Y-68653302D01*
X189454364Y-68653313D01*
X189434532Y-68879998D01*
X189434532Y-68880001D01*
X189454364Y-69106686D01*
X189454366Y-69106697D01*
X189513258Y-69326488D01*
X189513261Y-69326497D01*
X189609431Y-69532732D01*
X189609432Y-69532734D01*
X189739954Y-69719141D01*
X189900858Y-69880045D01*
X189947693Y-69912839D01*
X190087266Y-70010568D01*
X190293504Y-70106739D01*
X190513308Y-70165635D01*
X190653052Y-70177861D01*
X190739998Y-70185468D01*
X190740000Y-70185468D01*
X190740002Y-70185468D01*
X190804614Y-70179815D01*
X190966692Y-70165635D01*
X191062932Y-70139847D01*
X191132781Y-70141510D01*
X191182706Y-70171941D01*
X191863181Y-70852416D01*
X191896666Y-70913739D01*
X191899500Y-70940097D01*
X191899500Y-72980951D01*
X191879815Y-73047990D01*
X191827011Y-73093745D01*
X191757853Y-73103689D01*
X191694297Y-73074664D01*
X191687819Y-73068632D01*
X191579141Y-72959954D01*
X191392734Y-72829432D01*
X191392732Y-72829431D01*
X191186497Y-72733261D01*
X191186488Y-72733258D01*
X190966697Y-72674366D01*
X190966693Y-72674365D01*
X190966692Y-72674365D01*
X190966691Y-72674364D01*
X190966686Y-72674364D01*
X190740002Y-72654532D01*
X190739998Y-72654532D01*
X190513313Y-72674364D01*
X190513302Y-72674366D01*
X190293511Y-72733258D01*
X190293502Y-72733261D01*
X190087267Y-72829431D01*
X190087265Y-72829432D01*
X189900858Y-72959954D01*
X189739954Y-73120858D01*
X189609432Y-73307265D01*
X189609431Y-73307267D01*
X189513261Y-73513502D01*
X189513258Y-73513511D01*
X189454366Y-73733302D01*
X189454364Y-73733313D01*
X189434532Y-73959998D01*
X189434532Y-73960001D01*
X189454364Y-74186686D01*
X189454366Y-74186697D01*
X189513258Y-74406488D01*
X189513261Y-74406497D01*
X189609431Y-74612732D01*
X189609432Y-74612734D01*
X189739954Y-74799141D01*
X189900858Y-74960045D01*
X189900861Y-74960047D01*
X190087266Y-75090568D01*
X190145275Y-75117618D01*
X190197714Y-75163791D01*
X190216866Y-75230984D01*
X190196650Y-75297865D01*
X190145275Y-75342382D01*
X190087267Y-75369431D01*
X190087265Y-75369432D01*
X189900858Y-75499954D01*
X189739954Y-75660858D01*
X189609432Y-75847265D01*
X189609431Y-75847267D01*
X189513261Y-76053502D01*
X189513258Y-76053511D01*
X189454366Y-76273302D01*
X189454364Y-76273313D01*
X189434532Y-76499998D01*
X189434532Y-76500001D01*
X189454364Y-76726686D01*
X189454366Y-76726697D01*
X189513258Y-76946488D01*
X189513261Y-76946497D01*
X189609431Y-77152732D01*
X189609432Y-77152734D01*
X189739954Y-77339141D01*
X189900858Y-77500045D01*
X189900861Y-77500047D01*
X190087266Y-77630568D01*
X190145275Y-77657618D01*
X190197714Y-77703791D01*
X190216866Y-77770984D01*
X190196650Y-77837865D01*
X190145275Y-77882382D01*
X190087267Y-77909431D01*
X190087265Y-77909432D01*
X189900858Y-78039954D01*
X189739954Y-78200858D01*
X189609432Y-78387265D01*
X189609431Y-78387267D01*
X189513261Y-78593502D01*
X189513258Y-78593511D01*
X189454366Y-78813302D01*
X189454364Y-78813313D01*
X189434532Y-79039998D01*
X189434532Y-79040001D01*
X189454364Y-79266686D01*
X189454366Y-79266697D01*
X189513258Y-79486488D01*
X189513261Y-79486497D01*
X189609431Y-79692732D01*
X189609432Y-79692734D01*
X189739954Y-79879141D01*
X189900858Y-80040045D01*
X189900861Y-80040047D01*
X190087266Y-80170568D01*
X190145275Y-80197618D01*
X190197714Y-80243791D01*
X190216866Y-80310984D01*
X190196650Y-80377865D01*
X190145275Y-80422382D01*
X190087267Y-80449431D01*
X190087265Y-80449432D01*
X189900858Y-80579954D01*
X189739954Y-80740858D01*
X189609432Y-80927265D01*
X189609431Y-80927267D01*
X189513261Y-81133502D01*
X189513258Y-81133511D01*
X189454366Y-81353302D01*
X189454364Y-81353313D01*
X189434532Y-81579998D01*
X189434532Y-81580001D01*
X189454364Y-81806686D01*
X189454366Y-81806697D01*
X189513258Y-82026488D01*
X189513261Y-82026497D01*
X189609431Y-82232732D01*
X189609432Y-82232734D01*
X189739954Y-82419141D01*
X189900858Y-82580045D01*
X189900861Y-82580047D01*
X190087266Y-82710568D01*
X190145275Y-82737618D01*
X190197714Y-82783791D01*
X190216866Y-82850984D01*
X190196650Y-82917865D01*
X190145275Y-82962382D01*
X190087267Y-82989431D01*
X190087265Y-82989432D01*
X189900858Y-83119954D01*
X189739954Y-83280858D01*
X189609432Y-83467265D01*
X189609431Y-83467267D01*
X189513261Y-83673502D01*
X189513258Y-83673511D01*
X189454366Y-83893302D01*
X189454364Y-83893313D01*
X189434532Y-84119998D01*
X189434532Y-84120001D01*
X189454364Y-84346686D01*
X189454366Y-84346697D01*
X189513258Y-84566488D01*
X189513261Y-84566497D01*
X189609431Y-84772732D01*
X189609432Y-84772734D01*
X189739954Y-84959141D01*
X189900858Y-85120045D01*
X189900861Y-85120047D01*
X190087266Y-85250568D01*
X190145275Y-85277618D01*
X190197714Y-85323791D01*
X190216866Y-85390984D01*
X190196650Y-85457865D01*
X190145275Y-85502382D01*
X190087267Y-85529431D01*
X190087265Y-85529432D01*
X189900858Y-85659954D01*
X189739954Y-85820858D01*
X189609432Y-86007265D01*
X189609431Y-86007267D01*
X189513261Y-86213502D01*
X189513258Y-86213511D01*
X189454366Y-86433302D01*
X189454364Y-86433313D01*
X189434532Y-86659998D01*
X189434532Y-86660001D01*
X189454364Y-86886686D01*
X189454366Y-86886697D01*
X189513258Y-87106488D01*
X189513261Y-87106497D01*
X189609431Y-87312732D01*
X189609432Y-87312734D01*
X189739954Y-87499141D01*
X189900858Y-87660045D01*
X189900861Y-87660047D01*
X190087266Y-87790568D01*
X190145275Y-87817618D01*
X190197714Y-87863791D01*
X190216866Y-87930984D01*
X190196650Y-87997865D01*
X190145275Y-88042382D01*
X190087267Y-88069431D01*
X190087265Y-88069432D01*
X189900858Y-88199954D01*
X189739954Y-88360858D01*
X189609432Y-88547265D01*
X189609431Y-88547267D01*
X189513261Y-88753502D01*
X189513258Y-88753511D01*
X189454366Y-88973302D01*
X189454364Y-88973313D01*
X189434532Y-89199998D01*
X189434532Y-89200001D01*
X189454364Y-89426686D01*
X189454366Y-89426697D01*
X189513258Y-89646488D01*
X189513261Y-89646497D01*
X189609431Y-89852732D01*
X189609432Y-89852734D01*
X189739954Y-90039141D01*
X189900858Y-90200045D01*
X189900861Y-90200047D01*
X190087266Y-90330568D01*
X190145275Y-90357618D01*
X190197714Y-90403791D01*
X190216866Y-90470984D01*
X190196650Y-90537865D01*
X190145275Y-90582381D01*
X190144923Y-90582546D01*
X190087267Y-90609431D01*
X190087265Y-90609432D01*
X189900858Y-90739954D01*
X189739954Y-90900858D01*
X189609432Y-91087265D01*
X189609431Y-91087267D01*
X189513261Y-91293502D01*
X189513258Y-91293511D01*
X189454366Y-91513302D01*
X189454364Y-91513313D01*
X189434532Y-91739998D01*
X189434532Y-91740002D01*
X189441780Y-91822848D01*
X189428013Y-91891348D01*
X189379398Y-91941531D01*
X189311369Y-91957464D01*
X189245526Y-91934089D01*
X189230571Y-91921336D01*
X178186819Y-80877584D01*
X178153334Y-80816261D01*
X178150500Y-80789903D01*
X178150500Y-78987155D01*
X178170185Y-78920116D01*
X178186819Y-78899474D01*
X189249474Y-67836819D01*
X189310797Y-67803334D01*
X189337155Y-67800500D01*
X189680951Y-67800500D01*
X189747990Y-67820185D01*
G37*
G04 #@! TD.AperFunction*
G04 #@! TA.AperFunction,Conductor*
G36*
X226962441Y-64870185D02*
G01*
X226983083Y-64886819D01*
X227377680Y-65281416D01*
X227411165Y-65342739D01*
X227413999Y-65369097D01*
X227413999Y-65686869D01*
X227414000Y-65686876D01*
X227420407Y-65746483D01*
X227470701Y-65881328D01*
X227470703Y-65881331D01*
X227518881Y-65945689D01*
X227543298Y-66011154D01*
X227528446Y-66079427D01*
X227518881Y-66094311D01*
X227470703Y-66158668D01*
X227470701Y-66158671D01*
X227421870Y-66289596D01*
X227420408Y-66293517D01*
X227413999Y-66353127D01*
X227413999Y-66353134D01*
X227413999Y-66353135D01*
X227413999Y-66353136D01*
X227414000Y-66925500D01*
X227394316Y-66992539D01*
X227341512Y-67038294D01*
X227290000Y-67049500D01*
X226126080Y-67049500D01*
X225981092Y-67078340D01*
X225981082Y-67078343D01*
X225844511Y-67134912D01*
X225844498Y-67134919D01*
X225721584Y-67217048D01*
X225721580Y-67217051D01*
X223311500Y-69627130D01*
X223250177Y-69660615D01*
X223213012Y-69662977D01*
X223000002Y-69644341D01*
X222999999Y-69644341D01*
X222764596Y-69664936D01*
X222764586Y-69664938D01*
X222536344Y-69726094D01*
X222536335Y-69726098D01*
X222322171Y-69825964D01*
X222322169Y-69825965D01*
X222128597Y-69961505D01*
X221961505Y-70128597D01*
X221825965Y-70322169D01*
X221825964Y-70322171D01*
X221726098Y-70536335D01*
X221726094Y-70536344D01*
X221664938Y-70764586D01*
X221664936Y-70764596D01*
X221644341Y-70999999D01*
X221644341Y-71000000D01*
X221664936Y-71235403D01*
X221664938Y-71235413D01*
X221726094Y-71463655D01*
X221726096Y-71463659D01*
X221726097Y-71463663D01*
X221739294Y-71491963D01*
X221825965Y-71677830D01*
X221825967Y-71677834D01*
X221844553Y-71704377D01*
X221866880Y-71770583D01*
X221849870Y-71838350D01*
X221798922Y-71886163D01*
X221742978Y-71899500D01*
X220550097Y-71899500D01*
X220483058Y-71879815D01*
X220462416Y-71863181D01*
X219037590Y-70438355D01*
X219037588Y-70438352D01*
X218918717Y-70319481D01*
X218918716Y-70319480D01*
X218831904Y-70269360D01*
X218831904Y-70269359D01*
X218831900Y-70269358D01*
X218781785Y-70240423D01*
X218629057Y-70199499D01*
X218470943Y-70199499D01*
X218463347Y-70199499D01*
X218463331Y-70199500D01*
X216449097Y-70199500D01*
X216382058Y-70179815D01*
X216336303Y-70127011D01*
X216326359Y-70057853D01*
X216355384Y-69994297D01*
X216361416Y-69987819D01*
X218462416Y-67886818D01*
X218523739Y-67853333D01*
X218550097Y-67850499D01*
X219897871Y-67850499D01*
X219897872Y-67850499D01*
X219957483Y-67844091D01*
X220092331Y-67793796D01*
X220207546Y-67707546D01*
X220293796Y-67592331D01*
X220344091Y-67457483D01*
X220350500Y-67397873D01*
X220350499Y-65602128D01*
X220344091Y-65542517D01*
X220342810Y-65539083D01*
X220293797Y-65407671D01*
X220293793Y-65407664D01*
X220207547Y-65292455D01*
X220207544Y-65292452D01*
X220092335Y-65206206D01*
X220092328Y-65206202D01*
X219957482Y-65155908D01*
X219957483Y-65155908D01*
X219897883Y-65149501D01*
X219897881Y-65149500D01*
X219897873Y-65149500D01*
X219897864Y-65149500D01*
X218102129Y-65149500D01*
X218102123Y-65149501D01*
X218042516Y-65155908D01*
X217907671Y-65206202D01*
X217907664Y-65206206D01*
X217792455Y-65292452D01*
X217792452Y-65292455D01*
X217706206Y-65407664D01*
X217706203Y-65407669D01*
X217657189Y-65539083D01*
X217615317Y-65595016D01*
X217549853Y-65619433D01*
X217481580Y-65604581D01*
X217453326Y-65583430D01*
X217331402Y-65461506D01*
X217331395Y-65461501D01*
X217137834Y-65325967D01*
X217137830Y-65325965D01*
X217119574Y-65317452D01*
X216923663Y-65226097D01*
X216923659Y-65226096D01*
X216923655Y-65226094D01*
X216695413Y-65164938D01*
X216695403Y-65164936D01*
X216460001Y-65144341D01*
X216459999Y-65144341D01*
X216224596Y-65164936D01*
X216224586Y-65164938D01*
X215996344Y-65226094D01*
X215996335Y-65226098D01*
X215782171Y-65325964D01*
X215782169Y-65325965D01*
X215588597Y-65461505D01*
X215421505Y-65628597D01*
X215285965Y-65822169D01*
X215285964Y-65822171D01*
X215186098Y-66036335D01*
X215186094Y-66036344D01*
X215124938Y-66264586D01*
X215124936Y-66264596D01*
X215104341Y-66499999D01*
X215104341Y-66500000D01*
X215124936Y-66735403D01*
X215124938Y-66735413D01*
X215186094Y-66963655D01*
X215186096Y-66963659D01*
X215186097Y-66963663D01*
X215265952Y-67134912D01*
X215285965Y-67177830D01*
X215285967Y-67177834D01*
X215348085Y-67266547D01*
X215421505Y-67371401D01*
X215588599Y-67538495D01*
X215685384Y-67606265D01*
X215782165Y-67674032D01*
X215782167Y-67674033D01*
X215782170Y-67674035D01*
X215996337Y-67773903D01*
X215996343Y-67773904D01*
X215996344Y-67773905D01*
X216051285Y-67788626D01*
X216224592Y-67835063D01*
X216412918Y-67851539D01*
X216459999Y-67855659D01*
X216460000Y-67855659D01*
X216460001Y-67855659D01*
X216487843Y-67853223D01*
X216556343Y-67866989D01*
X216606526Y-67915604D01*
X216622460Y-67983633D01*
X216599085Y-68049477D01*
X216586332Y-68064432D01*
X214887584Y-69763181D01*
X214826261Y-69796666D01*
X214799903Y-69799500D01*
X207849097Y-69799500D01*
X207782058Y-69779815D01*
X207736303Y-69727011D01*
X207726359Y-69657853D01*
X207755384Y-69594297D01*
X207761416Y-69587819D01*
X209462416Y-67886818D01*
X209523739Y-67853333D01*
X209550097Y-67850499D01*
X210897871Y-67850499D01*
X210897872Y-67850499D01*
X210957483Y-67844091D01*
X211092331Y-67793796D01*
X211207546Y-67707546D01*
X211293796Y-67592331D01*
X211344091Y-67457483D01*
X211350500Y-67397873D01*
X211350499Y-65602128D01*
X211344091Y-65542517D01*
X211342810Y-65539083D01*
X211293797Y-65407671D01*
X211293793Y-65407664D01*
X211207547Y-65292455D01*
X211207544Y-65292452D01*
X211092335Y-65206206D01*
X211092328Y-65206202D01*
X210957482Y-65155908D01*
X210957483Y-65155908D01*
X210897883Y-65149501D01*
X210897881Y-65149500D01*
X210897873Y-65149500D01*
X210897864Y-65149500D01*
X209102129Y-65149500D01*
X209102123Y-65149501D01*
X209042516Y-65155908D01*
X208907671Y-65206202D01*
X208907664Y-65206206D01*
X208792455Y-65292452D01*
X208792452Y-65292455D01*
X208706206Y-65407664D01*
X208706203Y-65407669D01*
X208657189Y-65539083D01*
X208615317Y-65595016D01*
X208549853Y-65619433D01*
X208481580Y-65604581D01*
X208453326Y-65583430D01*
X208331402Y-65461506D01*
X208331395Y-65461501D01*
X208137834Y-65325967D01*
X208137830Y-65325965D01*
X208119574Y-65317452D01*
X207923663Y-65226097D01*
X207923659Y-65226096D01*
X207923655Y-65226094D01*
X207695413Y-65164938D01*
X207695403Y-65164936D01*
X207460001Y-65144341D01*
X207459999Y-65144341D01*
X207224596Y-65164936D01*
X207224586Y-65164938D01*
X206996344Y-65226094D01*
X206996335Y-65226098D01*
X206782171Y-65325964D01*
X206782169Y-65325965D01*
X206588597Y-65461505D01*
X206421505Y-65628597D01*
X206285965Y-65822169D01*
X206285964Y-65822171D01*
X206186098Y-66036335D01*
X206186094Y-66036344D01*
X206124938Y-66264586D01*
X206124936Y-66264596D01*
X206104341Y-66499999D01*
X206104341Y-66500000D01*
X206124936Y-66735403D01*
X206124938Y-66735413D01*
X206186094Y-66963655D01*
X206186096Y-66963659D01*
X206186097Y-66963663D01*
X206265952Y-67134912D01*
X206285965Y-67177830D01*
X206285967Y-67177834D01*
X206348085Y-67266547D01*
X206421505Y-67371401D01*
X206588599Y-67538495D01*
X206685384Y-67606265D01*
X206782165Y-67674032D01*
X206782167Y-67674033D01*
X206782170Y-67674035D01*
X206996337Y-67773903D01*
X206996343Y-67773904D01*
X206996344Y-67773905D01*
X207051285Y-67788626D01*
X207224592Y-67835063D01*
X207412918Y-67851539D01*
X207459999Y-67855659D01*
X207460000Y-67855659D01*
X207460001Y-67855659D01*
X207487843Y-67853223D01*
X207556343Y-67866989D01*
X207606526Y-67915604D01*
X207622460Y-67983633D01*
X207599085Y-68049477D01*
X207586332Y-68064432D01*
X206287584Y-69363181D01*
X206226261Y-69396666D01*
X206199903Y-69399500D01*
X199259097Y-69399500D01*
X199192058Y-69379815D01*
X199146303Y-69327011D01*
X199136359Y-69257853D01*
X199165384Y-69194297D01*
X199171416Y-69187819D01*
X200447416Y-67911818D01*
X200508739Y-67878333D01*
X200535097Y-67875499D01*
X201882871Y-67875499D01*
X201882872Y-67875499D01*
X201942483Y-67869091D01*
X202077331Y-67818796D01*
X202192546Y-67732546D01*
X202278796Y-67617331D01*
X202329091Y-67482483D01*
X202335500Y-67422873D01*
X202335499Y-65627128D01*
X202329091Y-65567517D01*
X202327810Y-65564083D01*
X202278797Y-65432671D01*
X202278793Y-65432664D01*
X202192547Y-65317455D01*
X202192544Y-65317452D01*
X202077335Y-65231206D01*
X202077328Y-65231202D01*
X201942482Y-65180908D01*
X201942483Y-65180908D01*
X201882883Y-65174501D01*
X201882881Y-65174500D01*
X201882873Y-65174500D01*
X201882864Y-65174500D01*
X200087129Y-65174500D01*
X200087123Y-65174501D01*
X200027516Y-65180908D01*
X199892671Y-65231202D01*
X199892664Y-65231206D01*
X199777455Y-65317452D01*
X199777452Y-65317455D01*
X199691206Y-65432664D01*
X199691203Y-65432669D01*
X199642189Y-65564083D01*
X199600317Y-65620016D01*
X199534853Y-65644433D01*
X199466580Y-65629581D01*
X199438326Y-65608430D01*
X199316402Y-65486506D01*
X199316395Y-65486501D01*
X199284340Y-65464056D01*
X199239518Y-65432671D01*
X199122834Y-65350967D01*
X199122830Y-65350965D01*
X199105189Y-65342739D01*
X198908663Y-65251097D01*
X198908659Y-65251096D01*
X198908655Y-65251094D01*
X198680413Y-65189938D01*
X198680403Y-65189936D01*
X198445001Y-65169341D01*
X198444999Y-65169341D01*
X198209596Y-65189936D01*
X198209586Y-65189938D01*
X197981344Y-65251094D01*
X197981335Y-65251098D01*
X197767171Y-65350964D01*
X197767169Y-65350965D01*
X197573597Y-65486505D01*
X197406505Y-65653597D01*
X197270965Y-65847169D01*
X197270964Y-65847171D01*
X197171098Y-66061335D01*
X197171094Y-66061344D01*
X197109938Y-66289586D01*
X197109936Y-66289596D01*
X197089341Y-66524999D01*
X197089341Y-66525000D01*
X197109936Y-66760403D01*
X197109938Y-66760413D01*
X197171094Y-66988655D01*
X197171096Y-66988659D01*
X197171097Y-66988663D01*
X197259307Y-67177830D01*
X197270965Y-67202830D01*
X197270967Y-67202834D01*
X197315578Y-67266544D01*
X197406505Y-67396401D01*
X197573599Y-67563495D01*
X197670384Y-67631265D01*
X197767165Y-67699032D01*
X197767167Y-67699033D01*
X197767170Y-67699035D01*
X197981337Y-67798903D01*
X198209592Y-67860063D01*
X198397918Y-67876539D01*
X198444999Y-67880659D01*
X198445000Y-67880659D01*
X198445001Y-67880659D01*
X198472843Y-67878223D01*
X198541343Y-67891989D01*
X198591526Y-67940604D01*
X198607460Y-68008633D01*
X198584085Y-68074477D01*
X198571332Y-68089432D01*
X197697584Y-68963181D01*
X197636261Y-68996666D01*
X197609903Y-68999500D01*
X196400097Y-68999500D01*
X196333058Y-68979815D01*
X196312416Y-68963181D01*
X192987590Y-65638355D01*
X192987588Y-65638352D01*
X192868717Y-65519481D01*
X192868709Y-65519475D01*
X192772721Y-65464057D01*
X192772719Y-65464056D01*
X192731790Y-65440425D01*
X192731789Y-65440424D01*
X192719263Y-65437067D01*
X192579057Y-65399499D01*
X192420943Y-65399499D01*
X192413347Y-65399499D01*
X192413331Y-65399500D01*
X189723411Y-65399500D01*
X189656372Y-65379815D01*
X189610617Y-65327011D01*
X189600673Y-65257853D01*
X189629698Y-65194297D01*
X189635730Y-65187819D01*
X189936730Y-64886819D01*
X189998053Y-64853334D01*
X190024411Y-64850500D01*
X226895402Y-64850500D01*
X226962441Y-64870185D01*
G37*
G04 #@! TD.AperFunction*
M02*
