G04 #@! TF.GenerationSoftware,KiCad,Pcbnew,8.0.3*
G04 #@! TF.CreationDate,2025-05-14T17:26:27-04:00*
G04 #@! TF.ProjectId,ballsi,62616c6c-7369-42e6-9b69-6361645f7063,rev?*
G04 #@! TF.SameCoordinates,Original*
G04 #@! TF.FileFunction,Legend,Bot*
G04 #@! TF.FilePolarity,Positive*
%FSLAX46Y46*%
G04 Gerber Fmt 4.6, Leading zero omitted, Abs format (unit mm)*
G04 Created by KiCad (PCBNEW 8.0.3) date 2025-05-14 17:26:27*
%MOMM*%
%LPD*%
G01*
G04 APERTURE LIST*
G04 Aperture macros list*
%AMRoundRect*
0 Rectangle with rounded corners*
0 $1 Rounding radius*
0 $2 $3 $4 $5 $6 $7 $8 $9 X,Y pos of 4 corners*
0 Add a 4 corners polygon primitive as box body*
4,1,4,$2,$3,$4,$5,$6,$7,$8,$9,$2,$3,0*
0 Add four circle primitives for the rounded corners*
1,1,$1+$1,$2,$3*
1,1,$1+$1,$4,$5*
1,1,$1+$1,$6,$7*
1,1,$1+$1,$8,$9*
0 Add four rect primitives between the rounded corners*
20,1,$1+$1,$2,$3,$4,$5,0*
20,1,$1+$1,$4,$5,$6,$7,0*
20,1,$1+$1,$6,$7,$8,$9,0*
20,1,$1+$1,$8,$9,$2,$3,0*%
G04 Aperture macros list end*
%ADD10C,0.100000*%
%ADD11C,0.120000*%
%ADD12O,1.700000X1.700000*%
%ADD13R,1.700000X1.700000*%
%ADD14C,3.000000*%
%ADD15R,1.500000X1.050000*%
%ADD16O,1.500000X1.050000*%
%ADD17C,4.000000*%
%ADD18R,3.800000X3.800000*%
%ADD19C,2.654000*%
%ADD20RoundRect,0.102000X1.225000X-1.225000X1.225000X1.225000X-1.225000X1.225000X-1.225000X-1.225000X0*%
%ADD21R,1.600000X1.600000*%
%ADD22O,1.600000X1.600000*%
%ADD23C,1.300000*%
%ADD24R,1.300000X1.300000*%
%ADD25C,1.600200*%
G04 APERTURE END LIST*
D10*
X229493734Y-67092133D02*
X228884211Y-67092133D01*
X156743734Y-66842133D02*
X156134211Y-66842133D01*
X223243734Y-67092133D02*
X222634211Y-67092133D01*
X225743734Y-67092133D02*
X225134211Y-67092133D01*
X225438972Y-67396895D02*
X225438972Y-66787371D01*
X168493734Y-66592133D02*
X167884211Y-66592133D01*
X168188972Y-66896895D02*
X168188972Y-66287371D01*
X165993734Y-66592133D02*
X165384211Y-66592133D01*
X225536591Y-68896895D02*
X225803258Y-68515942D01*
X225993734Y-68896895D02*
X225993734Y-68096895D01*
X225993734Y-68096895D02*
X225688972Y-68096895D01*
X225688972Y-68096895D02*
X225612782Y-68134990D01*
X225612782Y-68134990D02*
X225574687Y-68173085D01*
X225574687Y-68173085D02*
X225536591Y-68249276D01*
X225536591Y-68249276D02*
X225536591Y-68363561D01*
X225536591Y-68363561D02*
X225574687Y-68439752D01*
X225574687Y-68439752D02*
X225612782Y-68477847D01*
X225612782Y-68477847D02*
X225688972Y-68515942D01*
X225688972Y-68515942D02*
X225993734Y-68515942D01*
X225384211Y-68973085D02*
X224774687Y-68973085D01*
X224584210Y-68896895D02*
X224584210Y-68096895D01*
X224584210Y-68096895D02*
X224317544Y-68668323D01*
X224317544Y-68668323D02*
X224050877Y-68096895D01*
X224050877Y-68096895D02*
X224050877Y-68896895D01*
X223784210Y-68096895D02*
X223327067Y-68096895D01*
X223555639Y-68896895D02*
X223555639Y-68096895D01*
X222603257Y-68896895D02*
X222869924Y-68515942D01*
X223060400Y-68896895D02*
X223060400Y-68096895D01*
X223060400Y-68096895D02*
X222755638Y-68096895D01*
X222755638Y-68096895D02*
X222679448Y-68134990D01*
X222679448Y-68134990D02*
X222641353Y-68173085D01*
X222641353Y-68173085D02*
X222603257Y-68249276D01*
X222603257Y-68249276D02*
X222603257Y-68363561D01*
X222603257Y-68363561D02*
X222641353Y-68439752D01*
X222641353Y-68439752D02*
X222679448Y-68477847D01*
X222679448Y-68477847D02*
X222755638Y-68515942D01*
X222755638Y-68515942D02*
X223060400Y-68515942D01*
X167862782Y-68896895D02*
X168243734Y-68896895D01*
X168243734Y-68896895D02*
X168243734Y-68096895D01*
X167786592Y-68973085D02*
X167177068Y-68973085D01*
X166986591Y-68896895D02*
X166986591Y-68096895D01*
X166986591Y-68096895D02*
X166719925Y-68668323D01*
X166719925Y-68668323D02*
X166453258Y-68096895D01*
X166453258Y-68096895D02*
X166453258Y-68896895D01*
X166186591Y-68096895D02*
X165729448Y-68096895D01*
X165958020Y-68896895D02*
X165958020Y-68096895D01*
X165005638Y-68896895D02*
X165272305Y-68515942D01*
X165462781Y-68896895D02*
X165462781Y-68096895D01*
X165462781Y-68096895D02*
X165158019Y-68096895D01*
X165158019Y-68096895D02*
X165081829Y-68134990D01*
X165081829Y-68134990D02*
X165043734Y-68173085D01*
X165043734Y-68173085D02*
X165005638Y-68249276D01*
X165005638Y-68249276D02*
X165005638Y-68363561D01*
X165005638Y-68363561D02*
X165043734Y-68439752D01*
X165043734Y-68439752D02*
X165081829Y-68477847D01*
X165081829Y-68477847D02*
X165158019Y-68515942D01*
X165158019Y-68515942D02*
X165462781Y-68515942D01*
X233036591Y-69146895D02*
X233303258Y-68765942D01*
X233493734Y-69146895D02*
X233493734Y-68346895D01*
X233493734Y-68346895D02*
X233188972Y-68346895D01*
X233188972Y-68346895D02*
X233112782Y-68384990D01*
X233112782Y-68384990D02*
X233074687Y-68423085D01*
X233074687Y-68423085D02*
X233036591Y-68499276D01*
X233036591Y-68499276D02*
X233036591Y-68613561D01*
X233036591Y-68613561D02*
X233074687Y-68689752D01*
X233074687Y-68689752D02*
X233112782Y-68727847D01*
X233112782Y-68727847D02*
X233188972Y-68765942D01*
X233188972Y-68765942D02*
X233493734Y-68765942D01*
X232884211Y-69223085D02*
X232274687Y-69223085D01*
X231703258Y-69146895D02*
X232084210Y-69146895D01*
X232084210Y-69146895D02*
X232084210Y-68346895D01*
X231436591Y-69146895D02*
X231436591Y-68613561D01*
X231436591Y-68346895D02*
X231474687Y-68384990D01*
X231474687Y-68384990D02*
X231436591Y-68423085D01*
X231436591Y-68423085D02*
X231398496Y-68384990D01*
X231398496Y-68384990D02*
X231436591Y-68346895D01*
X231436591Y-68346895D02*
X231436591Y-68423085D01*
X231055639Y-68613561D02*
X231055639Y-69146895D01*
X231055639Y-68689752D02*
X231017544Y-68651657D01*
X231017544Y-68651657D02*
X230941354Y-68613561D01*
X230941354Y-68613561D02*
X230827068Y-68613561D01*
X230827068Y-68613561D02*
X230750877Y-68651657D01*
X230750877Y-68651657D02*
X230712782Y-68727847D01*
X230712782Y-68727847D02*
X230712782Y-69146895D01*
X230027067Y-69108800D02*
X230103258Y-69146895D01*
X230103258Y-69146895D02*
X230255639Y-69146895D01*
X230255639Y-69146895D02*
X230331829Y-69108800D01*
X230331829Y-69108800D02*
X230369925Y-69032609D01*
X230369925Y-69032609D02*
X230369925Y-68727847D01*
X230369925Y-68727847D02*
X230331829Y-68651657D01*
X230331829Y-68651657D02*
X230255639Y-68613561D01*
X230255639Y-68613561D02*
X230103258Y-68613561D01*
X230103258Y-68613561D02*
X230027067Y-68651657D01*
X230027067Y-68651657D02*
X229988972Y-68727847D01*
X229988972Y-68727847D02*
X229988972Y-68804038D01*
X229988972Y-68804038D02*
X230369925Y-68880228D01*
X232243734Y-67092133D02*
X231634211Y-67092133D01*
X231938972Y-67396895D02*
X231938972Y-66787371D01*
X234781830Y-67358800D02*
X234705639Y-67396895D01*
X234705639Y-67396895D02*
X234553258Y-67396895D01*
X234553258Y-67396895D02*
X234477068Y-67358800D01*
X234477068Y-67358800D02*
X234438972Y-67282609D01*
X234438972Y-67282609D02*
X234438972Y-67244514D01*
X234438972Y-67244514D02*
X234477068Y-67168323D01*
X234477068Y-67168323D02*
X234553258Y-67130228D01*
X234553258Y-67130228D02*
X234667544Y-67130228D01*
X234667544Y-67130228D02*
X234743734Y-67092133D01*
X234743734Y-67092133D02*
X234781830Y-67015942D01*
X234781830Y-67015942D02*
X234781830Y-66977847D01*
X234781830Y-66977847D02*
X234743734Y-66901657D01*
X234743734Y-66901657D02*
X234667544Y-66863561D01*
X234667544Y-66863561D02*
X234553258Y-66863561D01*
X234553258Y-66863561D02*
X234477068Y-66901657D01*
X162031830Y-66608800D02*
X161955639Y-66646895D01*
X161955639Y-66646895D02*
X161803258Y-66646895D01*
X161803258Y-66646895D02*
X161727068Y-66608800D01*
X161727068Y-66608800D02*
X161688972Y-66532609D01*
X161688972Y-66532609D02*
X161688972Y-66494514D01*
X161688972Y-66494514D02*
X161727068Y-66418323D01*
X161727068Y-66418323D02*
X161803258Y-66380228D01*
X161803258Y-66380228D02*
X161917544Y-66380228D01*
X161917544Y-66380228D02*
X161993734Y-66342133D01*
X161993734Y-66342133D02*
X162031830Y-66265942D01*
X162031830Y-66265942D02*
X162031830Y-66227847D01*
X162031830Y-66227847D02*
X161993734Y-66151657D01*
X161993734Y-66151657D02*
X161917544Y-66113561D01*
X161917544Y-66113561D02*
X161803258Y-66113561D01*
X161803258Y-66113561D02*
X161727068Y-66151657D01*
X156993734Y-66342133D02*
X156384211Y-66342133D01*
X159493734Y-66342133D02*
X158884211Y-66342133D01*
X159188972Y-66646895D02*
X159188972Y-66037371D01*
X160362782Y-68896895D02*
X160743734Y-68896895D01*
X160743734Y-68896895D02*
X160743734Y-68096895D01*
X160286592Y-68973085D02*
X159677068Y-68973085D01*
X159105639Y-68896895D02*
X159486591Y-68896895D01*
X159486591Y-68896895D02*
X159486591Y-68096895D01*
X158838972Y-68896895D02*
X158838972Y-68363561D01*
X158838972Y-68096895D02*
X158877068Y-68134990D01*
X158877068Y-68134990D02*
X158838972Y-68173085D01*
X158838972Y-68173085D02*
X158800877Y-68134990D01*
X158800877Y-68134990D02*
X158838972Y-68096895D01*
X158838972Y-68096895D02*
X158838972Y-68173085D01*
X158458020Y-68363561D02*
X158458020Y-68896895D01*
X158458020Y-68439752D02*
X158419925Y-68401657D01*
X158419925Y-68401657D02*
X158343735Y-68363561D01*
X158343735Y-68363561D02*
X158229449Y-68363561D01*
X158229449Y-68363561D02*
X158153258Y-68401657D01*
X158153258Y-68401657D02*
X158115163Y-68477847D01*
X158115163Y-68477847D02*
X158115163Y-68896895D01*
X157429448Y-68858800D02*
X157505639Y-68896895D01*
X157505639Y-68896895D02*
X157658020Y-68896895D01*
X157658020Y-68896895D02*
X157734210Y-68858800D01*
X157734210Y-68858800D02*
X157772306Y-68782609D01*
X157772306Y-68782609D02*
X157772306Y-68477847D01*
X157772306Y-68477847D02*
X157734210Y-68401657D01*
X157734210Y-68401657D02*
X157658020Y-68363561D01*
X157658020Y-68363561D02*
X157505639Y-68363561D01*
X157505639Y-68363561D02*
X157429448Y-68401657D01*
X157429448Y-68401657D02*
X157391353Y-68477847D01*
X157391353Y-68477847D02*
X157391353Y-68554038D01*
X157391353Y-68554038D02*
X157772306Y-68630228D01*
X224500000Y-50000000D02*
X236500000Y-62000000D01*
X217500000Y-76000000D02*
X236500000Y-76000000D01*
X154500000Y-62000000D02*
X154500000Y-76000000D01*
X217500000Y-76000000D02*
X217500000Y-79000000D01*
X166500000Y-50000000D02*
X154500000Y-62000000D01*
X236500000Y-62000000D02*
X236500000Y-76000000D01*
X173500000Y-76000000D02*
X154500000Y-76000000D01*
X173500000Y-76000000D02*
X173500000Y-79000000D01*
D11*
X235855000Y-72355000D02*
X234525000Y-72355000D01*
X235855000Y-71025000D02*
X235855000Y-72355000D01*
X233255000Y-72355000D02*
X228115000Y-72355000D01*
X233255000Y-69695000D02*
X233255000Y-72355000D01*
X233255000Y-69695000D02*
X228115000Y-69695000D01*
X228115000Y-69695000D02*
X228115000Y-72355000D01*
X221670000Y-69670000D02*
X221670000Y-72330000D01*
X224270000Y-69670000D02*
X221670000Y-69670000D01*
X224270000Y-69670000D02*
X224270000Y-72330000D01*
X224270000Y-72330000D02*
X221670000Y-72330000D01*
X226870000Y-71000000D02*
X226870000Y-72330000D01*
X226870000Y-72330000D02*
X225540000Y-72330000D01*
X164170000Y-69670000D02*
X164170000Y-72330000D01*
X166770000Y-69670000D02*
X164170000Y-69670000D01*
X166770000Y-69670000D02*
X166770000Y-72330000D01*
X166770000Y-72330000D02*
X164170000Y-72330000D01*
X169370000Y-71000000D02*
X169370000Y-72330000D01*
X169370000Y-72330000D02*
X168040000Y-72330000D01*
X162910000Y-72330000D02*
X161580000Y-72330000D01*
X162910000Y-71000000D02*
X162910000Y-72330000D01*
X160310000Y-72330000D02*
X155170000Y-72330000D01*
X160310000Y-69670000D02*
X160310000Y-72330000D01*
X160310000Y-69670000D02*
X155170000Y-69670000D01*
X155170000Y-69670000D02*
X155170000Y-72330000D01*
%LPC*%
D12*
X229445000Y-71025000D03*
X231985000Y-71025000D03*
D13*
X234525000Y-71025000D03*
D12*
X223000000Y-71000000D03*
D13*
X225540000Y-71000000D03*
D12*
X165500000Y-71000000D03*
D13*
X168040000Y-71000000D03*
D12*
X156500000Y-71000000D03*
X159040000Y-71000000D03*
D13*
X161580000Y-71000000D03*
D14*
X235750000Y-54750000D03*
X155250000Y-54750000D03*
D15*
X201250000Y-89540000D03*
D16*
X201250000Y-88270000D03*
X201250000Y-87000000D03*
D12*
X204670000Y-97460000D03*
X204670000Y-100000000D03*
X204670000Y-102540000D03*
D13*
X204670000Y-105080000D03*
D17*
X201500000Y-77250000D03*
D18*
X201500000Y-82250000D03*
D12*
X204920000Y-66500000D03*
X207460000Y-66500000D03*
D13*
X210000000Y-66500000D03*
D19*
X215000000Y-89000000D03*
X210300000Y-89000000D03*
D20*
X205600000Y-89000000D03*
D12*
X213920000Y-66500000D03*
X216460000Y-66500000D03*
D13*
X219000000Y-66500000D03*
D21*
X175500000Y-68880000D03*
D22*
X175500000Y-71420000D03*
X175500000Y-73960000D03*
X175500000Y-76500000D03*
X175500000Y-79040000D03*
X175500000Y-81580000D03*
X175500000Y-84120000D03*
X175500000Y-86660000D03*
X175500000Y-89200000D03*
X175500000Y-91740000D03*
X175500000Y-94280000D03*
X175500000Y-96820000D03*
X175500000Y-99360000D03*
X175500000Y-101900000D03*
X175500000Y-104440000D03*
X190740000Y-104440000D03*
X190740000Y-101900000D03*
X190740000Y-99360000D03*
X190740000Y-96820000D03*
X190740000Y-94280000D03*
X190740000Y-91740000D03*
X190740000Y-89200000D03*
X190740000Y-86660000D03*
X190740000Y-84120000D03*
X190740000Y-81580000D03*
X190740000Y-79040000D03*
X190740000Y-76500000D03*
X190740000Y-73960000D03*
X190740000Y-71420000D03*
X190740000Y-68880000D03*
D23*
X207100000Y-82040000D03*
X207100000Y-79500000D03*
X214720000Y-79500000D03*
D24*
X214720000Y-82040000D03*
D12*
X195905000Y-66525000D03*
X198445000Y-66525000D03*
D13*
X200985000Y-66525000D03*
D25*
X194000000Y-75835001D03*
X194000000Y-83455001D03*
X194000000Y-91075001D03*
X194000000Y-93615001D03*
%LPD*%
M02*
