%TF.GenerationSoftware,KiCad,Pcbnew,8.0.4*%
%TF.CreationDate,2024-10-31T19:44:01-04:00*%
%TF.ProjectId,Skibid-i,536b6962-6964-42d6-992e-6b696361645f,rev?*%
%TF.SameCoordinates,Original*%
%TF.FileFunction,Soldermask,Bot*%
%TF.FilePolarity,Negative*%
%FSLAX46Y46*%
G04 Gerber Fmt 4.6, Leading zero omitted, Abs format (unit mm)*
G04 Created by KiCad (PCBNEW 8.0.4) date 2024-10-31 19:44:01*
%MOMM*%
%LPD*%
G01*
G04 APERTURE LIST*
G04 Aperture macros list*
%AMRoundRect*
0 Rectangle with rounded corners*
0 $1 Rounding radius*
0 $2 $3 $4 $5 $6 $7 $8 $9 X,Y pos of 4 corners*
0 Add a 4 corners polygon primitive as box body*
4,1,4,$2,$3,$4,$5,$6,$7,$8,$9,$2,$3,0*
0 Add four circle primitives for the rounded corners*
1,1,$1+$1,$2,$3*
1,1,$1+$1,$4,$5*
1,1,$1+$1,$6,$7*
1,1,$1+$1,$8,$9*
0 Add four rect primitives between the rounded corners*
20,1,$1+$1,$2,$3,$4,$5,0*
20,1,$1+$1,$4,$5,$6,$7,0*
20,1,$1+$1,$6,$7,$8,$9,0*
20,1,$1+$1,$8,$9,$2,$3,0*%
G04 Aperture macros list end*
%ADD10R,1.700000X1.700000*%
%ADD11O,1.700000X1.700000*%
%ADD12C,1.803400*%
%ADD13C,1.498600*%
%ADD14C,2.500000*%
%ADD15C,1.869000*%
%ADD16RoundRect,0.102000X1.387500X1.387500X-1.387500X1.387500X-1.387500X-1.387500X1.387500X-1.387500X0*%
%ADD17C,2.979000*%
%ADD18R,3.800000X3.800000*%
%ADD19C,4.000000*%
%ADD20R,1.320800X1.320800*%
%ADD21C,1.320800*%
G04 APERTURE END LIST*
D10*
%TO.C,J15*%
X244570000Y-86750000D03*
D11*
X247110000Y-86750000D03*
X249650000Y-86750000D03*
%TD*%
D12*
%TO.C,J8*%
X153750000Y-48350000D03*
X153750000Y-53350000D03*
X153750000Y-58350000D03*
%TD*%
D13*
%TO.C,J13*%
X243314900Y-64849501D03*
X245854900Y-64849501D03*
X248394900Y-64849501D03*
%TD*%
D12*
%TO.C,J10*%
X263750000Y-37100000D03*
X258750000Y-37100000D03*
X253750000Y-37100000D03*
%TD*%
%TO.C,J12*%
X180509800Y-82550001D03*
X185509800Y-82550001D03*
X190509800Y-82550001D03*
%TD*%
%TO.C,J4*%
X247504899Y-37050000D03*
X242504899Y-37050000D03*
X237504899Y-37050000D03*
%TD*%
D14*
%TO.C,H1*%
X173500000Y-44050000D03*
%TD*%
D15*
%TO.C,IC1*%
X229470000Y-59450000D03*
X226930000Y-59450000D03*
X224390000Y-59450000D03*
X221850000Y-59450000D03*
X219310000Y-59450000D03*
X216770000Y-59450000D03*
X214230000Y-59450000D03*
X211690000Y-59450000D03*
X209150000Y-59450000D03*
X206610000Y-59450000D03*
X204070000Y-59450000D03*
X201530000Y-59450000D03*
X201530000Y-74690000D03*
X204070000Y-74690000D03*
X206610000Y-74690000D03*
X209150000Y-74690000D03*
X211690000Y-74690000D03*
X214230000Y-74690000D03*
X216770000Y-74690000D03*
X219310000Y-74690000D03*
X221850000Y-74690000D03*
X224390000Y-74690000D03*
X226930000Y-74690000D03*
X196450000Y-59450000D03*
X193910000Y-59450000D03*
X191370000Y-59450000D03*
X188830000Y-59450000D03*
X186290000Y-59450000D03*
X183750000Y-59450000D03*
X181210000Y-59450000D03*
X178670000Y-59450000D03*
X176130000Y-59450000D03*
X176130000Y-74690000D03*
X178670000Y-74690000D03*
X181210000Y-74690000D03*
X183750000Y-74690000D03*
X186290000Y-74690000D03*
X188830000Y-74690000D03*
X191370000Y-74690000D03*
X193910000Y-74690000D03*
X196450000Y-74690000D03*
X198990000Y-59450000D03*
X218040000Y-62500000D03*
X220580000Y-62500000D03*
X223120000Y-62500000D03*
X225660000Y-62500000D03*
X228200000Y-62500000D03*
X229470000Y-74690000D03*
X234550000Y-74690000D03*
X232010000Y-59450000D03*
X232010000Y-72150000D03*
X198990000Y-74690000D03*
X232010000Y-74690000D03*
X234550000Y-59450000D03*
%TD*%
D16*
%TO.C,ON*%
X265150000Y-85000000D03*
D17*
X260450000Y-85000000D03*
X255750000Y-85000000D03*
%TD*%
D12*
%TO.C,J2*%
X228504900Y-83625001D03*
X223504900Y-83625001D03*
X218504900Y-83625001D03*
%TD*%
D14*
%TO.C,H5*%
X155750000Y-73200000D03*
%TD*%
D12*
%TO.C,J6*%
X212404899Y-36900000D03*
X207404899Y-36900000D03*
X202404899Y-36900000D03*
%TD*%
D14*
%TO.C,H4*%
X162800000Y-85350000D03*
%TD*%
D12*
%TO.C,J5*%
X230100000Y-37100000D03*
X225100000Y-37100000D03*
X220100000Y-37100000D03*
%TD*%
%TO.C,J9*%
X176700000Y-36700000D03*
X171700000Y-36700000D03*
X166700000Y-36700000D03*
%TD*%
D14*
%TO.C,H2*%
X251500000Y-56000000D03*
%TD*%
D12*
%TO.C,J7*%
X194704899Y-36800000D03*
X189704899Y-36800000D03*
X184704899Y-36800000D03*
%TD*%
D18*
%TO.C,J19*%
X238100000Y-80450000D03*
D19*
X238100000Y-85450000D03*
%TD*%
D20*
%TO.C,SW2*%
X161050000Y-63480000D03*
D21*
X161050000Y-66020000D03*
X161050000Y-68560000D03*
X161050000Y-71100000D03*
X168670000Y-71100000D03*
X168670000Y-68560000D03*
X168670000Y-66020000D03*
X168670000Y-63480000D03*
%TD*%
D10*
%TO.C,J1*%
X199600000Y-83160000D03*
D11*
X199600000Y-85700000D03*
X202140000Y-83160000D03*
X202140000Y-85700000D03*
X204680000Y-83160000D03*
X204680000Y-85700000D03*
X207220000Y-83160000D03*
X207220000Y-85700000D03*
X209760000Y-83160000D03*
X209760000Y-85700000D03*
%TD*%
D10*
%TO.C,J17*%
X148800000Y-70000000D03*
D11*
X148800000Y-72540000D03*
X148800000Y-75080000D03*
X148800000Y-77620000D03*
X148800000Y-80160000D03*
X148800000Y-82700000D03*
X148800000Y-85240000D03*
X148800000Y-87780000D03*
%TD*%
D12*
%TO.C,J3*%
X258800000Y-66300000D03*
X258800000Y-61300000D03*
X258800000Y-56300000D03*
%TD*%
%TO.C,J20*%
X150850000Y-35750000D03*
X155850000Y-35750000D03*
X160850000Y-35750000D03*
%TD*%
M02*
