%TF.GenerationSoftware,KiCad,Pcbnew,8.0.4*%
%TF.CreationDate,2024-10-31T19:44:00-04:00*%
%TF.ProjectId,Skibid-i,536b6962-6964-42d6-992e-6b696361645f,rev?*%
%TF.SameCoordinates,Original*%
%TF.FileFunction,Copper,L2,Bot*%
%TF.FilePolarity,Positive*%
%FSLAX46Y46*%
G04 Gerber Fmt 4.6, Leading zero omitted, Abs format (unit mm)*
G04 Created by KiCad (PCBNEW 8.0.4) date 2024-10-31 19:44:00*
%MOMM*%
%LPD*%
G01*
G04 APERTURE LIST*
%TA.AperFunction,ComponentPad*%
%ADD10R,1.700000X1.700000*%
%TD*%
%TA.AperFunction,ComponentPad*%
%ADD11O,1.700000X1.700000*%
%TD*%
%TA.AperFunction,ComponentPad*%
%ADD12C,1.803400*%
%TD*%
%TA.AperFunction,ComponentPad*%
%ADD13C,1.498600*%
%TD*%
%TA.AperFunction,ComponentPad*%
%ADD14C,1.665000*%
%TD*%
%TA.AperFunction,ComponentPad*%
%ADD15R,2.775000X2.775000*%
%TD*%
%TA.AperFunction,ComponentPad*%
%ADD16C,2.775000*%
%TD*%
%TA.AperFunction,ComponentPad*%
%ADD17R,3.800000X3.800000*%
%TD*%
%TA.AperFunction,ComponentPad*%
%ADD18C,4.000000*%
%TD*%
%TA.AperFunction,ComponentPad*%
%ADD19R,1.320800X1.320800*%
%TD*%
%TA.AperFunction,ComponentPad*%
%ADD20C,1.320800*%
%TD*%
%TA.AperFunction,ViaPad*%
%ADD21C,0.800000*%
%TD*%
%TA.AperFunction,Conductor*%
%ADD22C,0.250000*%
%TD*%
%TA.AperFunction,Conductor*%
%ADD23C,0.400000*%
%TD*%
G04 APERTURE END LIST*
D10*
%TO.P,J15,1,Pin_1*%
%TO.N,Start*%
X244570000Y-86750000D03*
D11*
%TO.P,J15,2,Pin_2*%
%TO.N,GND*%
X247110000Y-86750000D03*
%TO.P,J15,3,Pin_3*%
%TO.N,+3.3V*%
X249650000Y-86750000D03*
%TD*%
D12*
%TO.P,J8,1,Pin_1*%
%TO.N,+12V*%
X153750000Y-48350000D03*
%TO.P,J8,2,Pin_2*%
%TO.N,GND*%
X153750000Y-53350000D03*
%TO.P,J8,3,Pin_3*%
%TO.N,OM7*%
X153750000Y-58350000D03*
%TD*%
D13*
%TO.P,J13,1,1*%
%TO.N,+12V*%
X243314900Y-64849501D03*
%TO.P,J13,2,2*%
%TO.N,GND*%
X245854900Y-64849501D03*
%TO.P,J13,3,3*%
%TO.N,+5V*%
X248394900Y-64849501D03*
%TD*%
D12*
%TO.P,J10,1,Pin_1*%
%TO.N,GND*%
X263750000Y-37100000D03*
%TO.P,J10,2,Pin_2*%
%TO.N,+3.3V*%
X258750000Y-37100000D03*
%TO.P,J10,3,Pin_3*%
%TO.N,LN2*%
X253750000Y-37100000D03*
%TD*%
%TO.P,J12,1,Pin_1*%
%TO.N,GND*%
X180509800Y-82550001D03*
%TO.P,J12,2,Pin_2*%
%TO.N,+3.3V*%
X185509800Y-82550001D03*
%TO.P,J12,3,Pin_3*%
%TO.N,LN3*%
X190509800Y-82550001D03*
%TD*%
%TO.P,J4,1,Pin_1*%
%TO.N,+12V*%
X247504899Y-37050000D03*
%TO.P,J4,2,Pin_2*%
%TO.N,GND*%
X242504899Y-37050000D03*
%TO.P,J4,3,Pin_3*%
%TO.N,OM2*%
X237504899Y-37050000D03*
%TD*%
D14*
%TO.P,IC1,1,TX1*%
%TO.N,unconnected-(IC1-TX1-Pad1)*%
X229470000Y-59450000D03*
%TO.P,IC1,2,OUT2*%
%TO.N,Dis1*%
X226930000Y-59450000D03*
%TO.P,IC1,3,LRCLK2*%
%TO.N,Dis2*%
X224390000Y-59450000D03*
%TO.P,IC1,4,BCLK2*%
%TO.N,Dis3*%
X221850000Y-59450000D03*
%TO.P,IC1,5,IN2*%
%TO.N,Dis4*%
X219310000Y-59450000D03*
%TO.P,IC1,6,OUT1D*%
%TO.N,Dis5*%
X216770000Y-59450000D03*
%TO.P,IC1,7,RX2*%
%TO.N,unconnected-(IC1-RX2-Pad7)*%
X214230000Y-59450000D03*
%TO.P,IC1,8,TX2*%
%TO.N,unconnected-(IC1-TX2-Pad8)*%
X211690000Y-59450000D03*
%TO.P,IC1,9,OUT1C*%
%TO.N,Dis6*%
X209150000Y-59450000D03*
%TO.P,IC1,10,CS_1*%
%TO.N,Dis7*%
X206610000Y-59450000D03*
%TO.P,IC1,11,MOSI*%
%TO.N,BDC1*%
X204070000Y-59450000D03*
%TO.P,IC1,12,MISO*%
%TO.N,BDC11*%
X201530000Y-59450000D03*
%TO.P,IC1,13,SCK*%
%TO.N,Start*%
X201530000Y-74690000D03*
%TO.P,IC1,14,A0*%
%TO.N,LN1*%
X204070000Y-74690000D03*
%TO.P,IC1,15,A1*%
%TO.N,LN2*%
X206610000Y-74690000D03*
%TO.P,IC1,16,A2*%
%TO.N,LN3*%
X209150000Y-74690000D03*
%TO.P,IC1,17,A3*%
%TO.N,LN4*%
X211690000Y-74690000D03*
%TO.P,IC1,18,A4*%
%TO.N,unconnected-(IC1-A4-Pad18)*%
X214230000Y-74690000D03*
%TO.P,IC1,19,A5*%
%TO.N,unconnected-(IC1-A5-Pad19)*%
X216770000Y-74690000D03*
%TO.P,IC1,20,A6*%
%TO.N,unconnected-(IC1-A6-Pad20)*%
X219310000Y-74690000D03*
%TO.P,IC1,21,A7*%
%TO.N,unconnected-(IC1-A7-Pad21)*%
X221850000Y-74690000D03*
%TO.P,IC1,22,A8*%
%TO.N,unconnected-(IC1-A8-Pad22)*%
X224390000Y-74690000D03*
%TO.P,IC1,23,A9*%
%TO.N,unconnected-(IC1-A9-Pad23)*%
X226930000Y-74690000D03*
%TO.P,IC1,24,A10*%
%TO.N,DIP1*%
X196450000Y-59450000D03*
%TO.P,IC1,25,A11*%
%TO.N,DIP2*%
X193910000Y-59450000D03*
%TO.P,IC1,26,A12*%
%TO.N,DIP3*%
X191370000Y-59450000D03*
%TO.P,IC1,27,A13*%
%TO.N,DIP4*%
X188830000Y-59450000D03*
%TO.P,IC1,28,RX7*%
%TO.N,unconnected-(IC1-RX7-Pad28)*%
X186290000Y-59450000D03*
%TO.P,IC1,29,TX7*%
%TO.N,unconnected-(IC1-TX7-Pad29)*%
X183750000Y-59450000D03*
%TO.P,IC1,30,CRX3*%
%TO.N,unconnected-(IC1-CRX3-Pad30)*%
X181210000Y-59450000D03*
%TO.P,IC1,31,CTX3*%
%TO.N,unconnected-(IC1-CTX3-Pad31)*%
X178670000Y-59450000D03*
%TO.P,IC1,32,OUT1B*%
%TO.N,unconnected-(IC1-OUT1B-Pad32)*%
X176130000Y-59450000D03*
%TO.P,IC1,33,MCLK2*%
%TO.N,unconnected-(IC1-MCLK2-Pad33)*%
X176130000Y-74690000D03*
%TO.P,IC1,34,RX8*%
%TO.N,unconnected-(IC1-RX8-Pad34)*%
X178670000Y-74690000D03*
%TO.P,IC1,35,TX8*%
%TO.N,unconnected-(IC1-TX8-Pad35)*%
X181210000Y-74690000D03*
%TO.P,IC1,36,CS_2*%
%TO.N,BDC22*%
X183750000Y-74690000D03*
%TO.P,IC1,37,CS_3*%
%TO.N,BDC2*%
X186290000Y-74690000D03*
%TO.P,IC1,38,A14*%
%TO.N,SCL*%
X188830000Y-74690000D03*
%TO.P,IC1,39,A15*%
%TO.N,SDA*%
X191370000Y-74690000D03*
%TO.P,IC1,40,A16*%
%TO.N,unconnected-(IC1-A16-Pad40)*%
X193910000Y-74690000D03*
%TO.P,IC1,41,A17*%
%TO.N,unconnected-(IC1-A17-Pad41)*%
X196450000Y-74690000D03*
%TO.P,IC1,42,3.3V_1*%
%TO.N,unconnected-(IC1-3.3V_1-Pad42)*%
X198990000Y-59450000D03*
%TO.P,IC1,48,GND_2*%
%TO.N,GND*%
X218040000Y-62500000D03*
%TO.P,IC1,49,GND_3*%
X220580000Y-62500000D03*
%TO.P,IC1,50,D+*%
%TO.N,unconnected-(IC1-D+-Pad50)*%
X223120000Y-62500000D03*
%TO.P,IC1,51,D-*%
%TO.N,unconnected-(IC1-D--Pad51)*%
X225660000Y-62500000D03*
%TO.P,IC1,52,+5V*%
%TO.N,unconnected-(IC1-+5V-Pad52)*%
X228200000Y-62500000D03*
%TO.P,IC1,53,3.3V_(250_M_A_MAX)*%
%TO.N,+3.3V*%
X229470000Y-74690000D03*
%TO.P,IC1,55,VIN_(3.6_TO_5.5_VOLTS)*%
%TO.N,+5V*%
X234550000Y-74690000D03*
%TO.P,IC1,57,RX1*%
%TO.N,unconnected-(IC1-RX1-Pad57)*%
X232010000Y-59450000D03*
%TO.P,IC1,68,VUSB*%
%TO.N,unconnected-(IC1-VUSB-Pad68)*%
X232010000Y-72150000D03*
%TO.P,IC1,69,GND_4*%
%TO.N,GND*%
X198990000Y-74690000D03*
%TO.P,IC1,70,GND_5*%
X232010000Y-74690000D03*
%TO.P,IC1,71,GND_6*%
X234550000Y-59450000D03*
%TD*%
D15*
%TO.P,ON,1,C*%
%TO.N,Net-(SW1-C)*%
X265150000Y-85000000D03*
D16*
%TO.P,ON,2,B*%
%TO.N,Net-(J19-Pin_2)*%
X260450000Y-85000000D03*
%TO.P,ON,3,A*%
%TO.N,unconnected-(SW1-A-Pad3)*%
X255750000Y-85000000D03*
%TD*%
D12*
%TO.P,J2,1,Pin_1*%
%TO.N,GND*%
X228504900Y-83625001D03*
%TO.P,J2,2,Pin_2*%
%TO.N,+3.3V*%
X223504900Y-83625001D03*
%TO.P,J2,3,Pin_3*%
%TO.N,LN4*%
X218504900Y-83625001D03*
%TD*%
%TO.P,J6,1,Pin_1*%
%TO.N,+12V*%
X212404899Y-36900000D03*
%TO.P,J6,2,Pin_2*%
%TO.N,GND*%
X207404899Y-36900000D03*
%TO.P,J6,3,Pin_3*%
%TO.N,OM4*%
X202404899Y-36900000D03*
%TD*%
%TO.P,J5,1,Pin_1*%
%TO.N,+12V*%
X230100000Y-37100000D03*
%TO.P,J5,2,Pin_2*%
%TO.N,GND*%
X225100000Y-37100000D03*
%TO.P,J5,3,Pin_3*%
%TO.N,OM3*%
X220100000Y-37100000D03*
%TD*%
%TO.P,J9,1,Pin_1*%
%TO.N,+12V*%
X176700000Y-36700000D03*
%TO.P,J9,2,Pin_2*%
%TO.N,GND*%
X171700000Y-36700000D03*
%TO.P,J9,3,Pin_3*%
%TO.N,OM6*%
X166700000Y-36700000D03*
%TD*%
%TO.P,J7,1,Pin_1*%
%TO.N,+12V*%
X194704899Y-36800000D03*
%TO.P,J7,2,Pin_2*%
%TO.N,GND*%
X189704899Y-36800000D03*
%TO.P,J7,3,Pin_3*%
%TO.N,OM5*%
X184704899Y-36800000D03*
%TD*%
D17*
%TO.P,J19,1,Pin_1*%
%TO.N,GND*%
X238100000Y-80450000D03*
D18*
%TO.P,J19,2,Pin_2*%
%TO.N,Net-(J19-Pin_2)*%
X238100000Y-85450000D03*
%TD*%
D19*
%TO.P,SW2,1,1*%
%TO.N,+3.3V*%
X161050000Y-63480000D03*
D20*
%TO.P,SW2,2,2*%
X161050000Y-66020000D03*
%TO.P,SW2,3,3*%
%TO.N,unconnected-(SW2-Pad3)*%
X161050000Y-68560000D03*
%TO.P,SW2,4,4*%
%TO.N,+3.3V*%
X161050000Y-71100000D03*
%TO.P,SW2,5,5*%
%TO.N,DIP1*%
X168670000Y-71100000D03*
%TO.P,SW2,6,6*%
%TO.N,unconnected-(SW2-Pad6)*%
X168670000Y-68560000D03*
%TO.P,SW2,7,7*%
%TO.N,DIP3*%
X168670000Y-66020000D03*
%TO.P,SW2,8,8*%
%TO.N,DIP4*%
X168670000Y-63480000D03*
%TD*%
D10*
%TO.P,J1,1,Pin_1*%
%TO.N,GND*%
X199600000Y-83160000D03*
D11*
%TO.P,J1,2,Pin_2*%
%TO.N,unconnected-(J1-Pin_2-Pad2)*%
X199600000Y-85700000D03*
%TO.P,J1,3,Pin_3*%
%TO.N,BDC11*%
X202140000Y-83160000D03*
%TO.P,J1,4,Pin_4*%
%TO.N,BDC2*%
X202140000Y-85700000D03*
%TO.P,J1,5,Pin_5*%
%TO.N,BDC1*%
X204680000Y-83160000D03*
%TO.P,J1,6,Pin_6*%
%TO.N,BDC22*%
X204680000Y-85700000D03*
%TO.P,J1,7,Pin_7*%
%TO.N,unconnected-(J1-Pin_7-Pad7)*%
X207220000Y-83160000D03*
%TO.P,J1,8,Pin_8*%
%TO.N,unconnected-(J1-Pin_8-Pad8)*%
X207220000Y-85700000D03*
%TO.P,J1,9,Pin_9*%
%TO.N,+5V*%
X209760000Y-83160000D03*
%TO.P,J1,10,Pin_10*%
%TO.N,unconnected-(J1-Pin_10-Pad10)*%
X209760000Y-85700000D03*
%TD*%
D10*
%TO.P,J17,1,Pin_1*%
%TO.N,+3.3V*%
X148800000Y-70000000D03*
D11*
%TO.P,J17,2,Pin_2*%
%TO.N,GND*%
X148800000Y-72540000D03*
%TO.P,J17,3,Pin_3*%
%TO.N,SCL*%
X148800000Y-75080000D03*
%TO.P,J17,4,Pin_4*%
%TO.N,SDA*%
X148800000Y-77620000D03*
%TO.P,J17,5,Pin_5*%
%TO.N,unconnected-(J17-Pin_5-Pad5)*%
X148800000Y-80160000D03*
%TO.P,J17,6,Pin_6*%
%TO.N,unconnected-(J17-Pin_6-Pad6)*%
X148800000Y-82700000D03*
%TO.P,J17,7,Pin_7*%
%TO.N,unconnected-(J17-Pin_7-Pad7)*%
X148800000Y-85240000D03*
%TO.P,J17,8,Pin_8*%
%TO.N,unconnected-(J17-Pin_8-Pad8)*%
X148800000Y-87780000D03*
%TD*%
D12*
%TO.P,J3,1,Pin_1*%
%TO.N,+12V*%
X258800000Y-66300000D03*
%TO.P,J3,2,Pin_2*%
%TO.N,GND*%
X258800000Y-61300000D03*
%TO.P,J3,3,Pin_3*%
%TO.N,OM1*%
X258800000Y-56300000D03*
%TD*%
%TO.P,J20,1,Pin_1*%
%TO.N,GND*%
X150850000Y-35750000D03*
%TO.P,J20,2,Pin_2*%
%TO.N,+3.3V*%
X155850000Y-35750000D03*
%TO.P,J20,3,Pin_3*%
%TO.N,LN1*%
X160850000Y-35750000D03*
%TD*%
D21*
%TO.N,+3.3V*%
X150500000Y-39300000D03*
X197760000Y-49520000D03*
X170050000Y-52960000D03*
X179650000Y-49510000D03*
X183950000Y-49500000D03*
X202100000Y-49520000D03*
X167700000Y-50630000D03*
%TO.N,Start*%
X231600000Y-76700000D03*
%TO.N,BDC22*%
X186100000Y-80900000D03*
X192450000Y-87250000D03*
%TO.N,BDC2*%
X196475000Y-86275000D03*
X193075000Y-82875000D03*
%TO.N,DIP1*%
X193380000Y-62520000D03*
X187800000Y-68100000D03*
%TO.N,Dis1*%
X235700000Y-55300000D03*
X229730000Y-56730000D03*
%TO.N,Dis2*%
X227945000Y-55895000D03*
X237500000Y-53400000D03*
%TO.N,Dis3*%
X225400000Y-55900000D03*
X228110000Y-53210000D03*
%TD*%
D22*
%TO.N,+3.3V*%
X150500000Y-39300000D02*
X154050000Y-35750000D01*
X154050000Y-35750000D02*
X155850000Y-35750000D01*
%TO.N,+12V*%
X153750000Y-48350000D02*
X148050000Y-42650000D01*
X173950000Y-33950000D02*
X151450000Y-33950000D01*
D23*
X266650000Y-37100000D02*
X266650000Y-58450000D01*
D22*
X148050000Y-42650000D02*
X148050000Y-36150000D01*
X148050000Y-36150000D02*
X150250000Y-33950000D01*
D23*
X247504899Y-37050000D02*
X250654899Y-33900000D01*
D22*
X176700000Y-36700000D02*
X173950000Y-33950000D01*
D23*
X250654899Y-33900000D02*
X263450000Y-33900000D01*
X263450000Y-33900000D02*
X266650000Y-37100000D01*
D22*
X150250000Y-33950000D02*
X151450000Y-33950000D01*
D23*
X266650000Y-58450000D02*
X258800000Y-66300000D01*
D22*
%TO.N,+5V*%
X238100000Y-67400000D02*
X234550000Y-70950000D01*
X245844401Y-67400000D02*
X238100000Y-67400000D01*
X248394900Y-64849501D02*
X245844401Y-67400000D01*
X234550000Y-70950000D02*
X234550000Y-74690000D01*
%TO.N,+3.3V*%
X183950000Y-49500000D02*
X183940000Y-49510000D01*
X229470000Y-74690000D02*
X229470000Y-77659901D01*
X258750000Y-43800000D02*
X258750000Y-37100000D01*
X244650000Y-57900000D02*
X244623047Y-57900000D01*
X244623047Y-57900000D02*
X229470000Y-73053047D01*
X202100000Y-49520000D02*
X197760000Y-49520000D01*
X183940000Y-49510000D02*
X179650000Y-49510000D01*
X170030000Y-52960000D02*
X167700000Y-50630000D01*
X229470000Y-77659901D02*
X223504900Y-83625001D01*
X244650000Y-57900000D02*
X258750000Y-43800000D01*
X229470000Y-73053047D02*
X229470000Y-74690000D01*
X170050000Y-52960000D02*
X170030000Y-52960000D01*
%TO.N,LN2*%
X228700000Y-71100000D02*
X253750000Y-46050000D01*
X253750000Y-46050000D02*
X253750000Y-37100000D01*
X228700000Y-71100000D02*
X210200000Y-71100000D01*
X210200000Y-71100000D02*
X206610000Y-74690000D01*
%TO.N,LN1*%
X161550000Y-47650000D02*
X160850000Y-46950000D01*
X161550000Y-47650000D02*
X184900000Y-71000000D01*
X184900000Y-71000000D02*
X200380000Y-71000000D01*
X160850000Y-46950000D02*
X160850000Y-35750000D01*
X200380000Y-71000000D02*
X204070000Y-74690000D01*
%TO.N,LN4*%
X211690000Y-74690000D02*
X211690000Y-76810101D01*
X211690000Y-76810101D02*
X218504900Y-83625001D01*
%TO.N,LN3*%
X209150000Y-74690000D02*
X205540000Y-78300000D01*
X194759801Y-78300000D02*
X190509800Y-82550001D01*
X205540000Y-78300000D02*
X194759801Y-78300000D01*
%TO.N,Start*%
X244570000Y-82470000D02*
X244570000Y-86750000D01*
X231600000Y-76700000D02*
X238800000Y-76700000D01*
X238800000Y-76700000D02*
X244570000Y-82470000D01*
%TO.N,SCL*%
X187020000Y-76500000D02*
X186965000Y-76445000D01*
X150165000Y-76445000D02*
X148800000Y-75080000D01*
X188830000Y-74690000D02*
X187020000Y-76500000D01*
X186965000Y-76445000D02*
X150165000Y-76445000D01*
%TO.N,SDA*%
X191370000Y-74690000D02*
X188410000Y-77650000D01*
X188380000Y-77620000D02*
X148800000Y-77620000D01*
X188410000Y-77650000D02*
X188380000Y-77620000D01*
%TO.N,BDC22*%
X192450000Y-87250000D02*
X186100000Y-80900000D01*
%TO.N,BDC2*%
X193075000Y-82875000D02*
X196475000Y-86275000D01*
%TO.N,DIP1*%
X187800000Y-68100000D02*
X193380000Y-62520000D01*
%TO.N,Dis1*%
X231160000Y-55300000D02*
X229730000Y-56730000D01*
X235700000Y-55300000D02*
X231160000Y-55300000D01*
%TO.N,Dis2*%
X230440000Y-53400000D02*
X227945000Y-55895000D01*
X237500000Y-53400000D02*
X230440000Y-53400000D01*
%TO.N,Dis3*%
X225420000Y-55900000D02*
X225400000Y-55900000D01*
X228110000Y-53210000D02*
X225420000Y-55900000D01*
D23*
%TO.N,Net-(J19-Pin_2)*%
X256150000Y-89300000D02*
X260450000Y-85000000D01*
X238100000Y-85450000D02*
X241950000Y-89300000D01*
X241950000Y-89300000D02*
X256150000Y-89300000D01*
%TD*%
M02*
