M48
; DRILL file {KiCad 7.0.7} date Sun Feb 18 14:41:30 2024
; FORMAT={-:-/ absolute / metric / decimal}
; #@! TF.CreationDate,2024-02-18T14:41:30-05:00
; #@! TF.GenerationSoftware,Kicad,Pcbnew,7.0.7
; #@! TF.FileFunction,Plated,1,2,PTH
FMAT,2
METRIC
; #@! TA.AperFunction,Plated,PTH,ViaDrill
T1C0.400
; #@! TA.AperFunction,Plated,PTH,ComponentDrill
T2C0.700
; #@! TA.AperFunction,Plated,PTH,ComponentDrill
T3C0.750
; #@! TA.AperFunction,Plated,PTH,ComponentDrill
T4C0.800
; #@! TA.AperFunction,Plated,PTH,ComponentDrill
T5C1.000
; #@! TA.AperFunction,Plated,PTH,ComponentDrill
T6C1.100
; #@! TA.AperFunction,Plated,PTH,ComponentDrill
T7C1.200
%
G90
G05
T1
X101.872Y-96.941
X101.872Y-102.341
X102.072Y-94.741
X104.072Y-90.741
X105.372Y-110.482
X106.868Y-97.353
X107.078Y-105.014
X107.124Y-102.6
X107.6Y-96.2
X108.272Y-84.741
X108.8Y-94.2
X109.072Y-87.141
X109.4Y-104.6
X109.6Y-90.8
X109.6Y-98.4
X110.4Y-92.2
X110.6Y-94.0
X111.4Y-106.4
X113.4Y-100.6
X113.6Y-95.0
X114.272Y-92.141
X153.272Y-77.741
T2
X131.232Y-93.771
X131.232Y-95.771
X131.232Y-97.771
X133.232Y-93.771
X133.232Y-95.771
X133.232Y-97.771
T3
X124.612Y-103.511
X127.152Y-103.511
X129.692Y-103.511
X132.232Y-103.511
X134.772Y-103.511
T4
X118.262Y-91.321
X118.262Y-106.561
X120.802Y-91.321
X120.802Y-93.861
X120.802Y-106.561
X123.342Y-91.321
X123.342Y-106.561
X125.882Y-91.321
X125.882Y-106.561
X128.422Y-91.321
X128.422Y-106.561
X130.962Y-91.321
X130.962Y-106.561
X133.502Y-91.321
X133.502Y-106.561
X136.042Y-91.321
X136.042Y-106.561
X138.582Y-91.321
X138.582Y-106.561
X141.122Y-91.321
X141.122Y-106.561
X143.662Y-91.321
X143.662Y-106.561
X146.202Y-91.321
X146.202Y-106.561
X148.742Y-91.321
X148.742Y-106.561
X151.282Y-91.321
X151.282Y-106.561
X153.822Y-91.321
X153.822Y-106.561
X156.362Y-91.321
X156.362Y-106.561
X158.902Y-91.321
X158.902Y-106.561
X161.442Y-91.321
X161.442Y-106.561
X163.982Y-91.321
X163.982Y-93.861
X163.982Y-96.401
X163.982Y-98.941
X163.982Y-101.481
X163.982Y-104.021
X163.982Y-106.561
X166.522Y-91.321
X166.522Y-106.561
X169.062Y-91.321
X169.062Y-106.561
X171.602Y-91.321
X171.602Y-106.561
X174.142Y-91.321
X174.142Y-106.561
X176.682Y-91.321
X176.682Y-106.561
T5
X111.962Y-110.591
X111.962Y-123.291
X114.502Y-110.591
X114.502Y-123.291
X117.042Y-110.591
X117.042Y-123.291
X119.582Y-110.591
X119.582Y-123.291
X122.122Y-110.591
X122.122Y-123.291
X124.662Y-110.591
X124.662Y-123.291
X145.362Y-110.391
X145.362Y-123.091
X147.902Y-110.391
X147.902Y-123.091
X150.442Y-110.391
X150.442Y-123.091
X152.982Y-110.391
X152.982Y-123.091
X155.522Y-110.391
X155.522Y-123.091
X158.062Y-110.391
X158.062Y-123.091
X167.712Y-120.001
X167.712Y-122.541
X170.252Y-120.001
X170.252Y-122.541
X172.792Y-120.001
X172.792Y-122.541
X175.332Y-120.001
X175.332Y-122.541
X177.872Y-120.001
X177.872Y-122.541
X180.412Y-120.001
X180.412Y-122.541
T6
X106.072Y-77.941
X108.612Y-77.941
X111.152Y-77.941
X116.052Y-77.941
X118.592Y-77.941
X121.132Y-77.941
X125.912Y-77.966
X128.452Y-77.966
X130.992Y-77.966
X135.792Y-77.941
X138.332Y-77.941
X140.872Y-77.941
X145.792Y-77.941
X148.332Y-77.941
X150.872Y-77.941
X155.772Y-77.941
X158.312Y-77.941
X160.852Y-77.941
X165.672Y-77.941
X168.212Y-77.941
X170.752Y-77.941
X175.532Y-77.941
X178.072Y-77.941
X180.612Y-77.941
T7
X128.872Y-120.541
X132.372Y-120.541
X137.572Y-120.541
X141.072Y-120.541
X183.672Y-86.591
X183.672Y-90.091
T0
M30
