%TF.GenerationSoftware,KiCad,Pcbnew,7.0.7*%
%TF.CreationDate,2024-02-18T14:41:38-05:00*%
%TF.ProjectId,Frankii FInal,4672616e-6b69-4692-9046-496e616c2e6b,rev?*%
%TF.SameCoordinates,Original*%
%TF.FileFunction,Soldermask,Bot*%
%TF.FilePolarity,Negative*%
%FSLAX46Y46*%
G04 Gerber Fmt 4.6, Leading zero omitted, Abs format (unit mm)*
G04 Created by KiCad (PCBNEW 7.0.7) date 2024-02-18 14:41:38*
%MOMM*%
%LPD*%
G01*
G04 APERTURE LIST*
%ADD10C,1.700000*%
%ADD11R,2.100000X2.100000*%
%ADD12C,2.100000*%
%ADD13C,0.853092*%
%ADD14C,0.812800*%
%ADD15C,2.200000*%
%ADD16R,2.400000X2.400000*%
%ADD17C,2.400000*%
%ADD18C,1.512000*%
%ADD19C,1.462000*%
%ADD20C,1.412000*%
%ADD21R,1.700000X1.700000*%
%ADD22O,1.700000X1.700000*%
G04 APERTURE END LIST*
D10*
%TO.C,DRV8256P2*%
X145361700Y-110391100D03*
X147901700Y-110391100D03*
X150441700Y-110391100D03*
X152981700Y-110391100D03*
X155521700Y-110391100D03*
X158061700Y-110391100D03*
X158061700Y-123091100D03*
X155521700Y-123091100D03*
X152981700Y-123091100D03*
X150441700Y-123091100D03*
X147901700Y-123091100D03*
X145361700Y-123091100D03*
%TD*%
D11*
%TO.C,J6*%
X116051700Y-77941100D03*
D12*
X118591700Y-77941100D03*
X121131700Y-77941100D03*
%TD*%
D13*
%TO.C,SW1*%
X187998800Y-101436200D03*
D14*
X187998340Y-95036200D03*
%TD*%
D15*
%TO.C,H4*%
X186071700Y-75141100D03*
%TD*%
D11*
%TO.C,J7*%
X106071700Y-77941100D03*
D12*
X108611700Y-77941100D03*
X111151700Y-77941100D03*
%TD*%
D11*
%TO.C,J4*%
X155771700Y-77941100D03*
D12*
X158311700Y-77941100D03*
X160851700Y-77941100D03*
%TD*%
D15*
%TO.C,H1*%
X101271700Y-75141100D03*
%TD*%
D11*
%TO.C,J8*%
X145791700Y-77941100D03*
D12*
X148331700Y-77941100D03*
X150871700Y-77941100D03*
%TD*%
D16*
%TO.C,J2*%
X183671700Y-90091100D03*
D17*
X183671700Y-86591100D03*
%TD*%
D11*
%TO.C,J3*%
X165671700Y-77941100D03*
D12*
X168211700Y-77941100D03*
X170751700Y-77941100D03*
%TD*%
D15*
%TO.C,H3*%
X186271700Y-122541100D03*
%TD*%
D11*
%TO.C,J5*%
X125911700Y-77966400D03*
D12*
X128451700Y-77966400D03*
X130991700Y-77966400D03*
%TD*%
D11*
%TO.C,J9*%
X135791700Y-77941100D03*
D12*
X138331700Y-77941100D03*
X140871700Y-77941100D03*
%TD*%
D18*
%TO.C,U5*%
X120801700Y-106561100D03*
X123341700Y-106561100D03*
X125881700Y-106561100D03*
X128421700Y-106561100D03*
X153821700Y-106561100D03*
X123341700Y-91321100D03*
X163981700Y-101481100D03*
X130961700Y-106561100D03*
X133501700Y-106561100D03*
D19*
X124611700Y-103511100D03*
D18*
X136041700Y-106561100D03*
X138581700Y-106561100D03*
X141121700Y-106561100D03*
X143661700Y-106561100D03*
X146201700Y-106561100D03*
X148741700Y-106561100D03*
X151281700Y-106561100D03*
X151281700Y-91321100D03*
X148741700Y-91321100D03*
X146201700Y-91321100D03*
X143661700Y-91321100D03*
X141121700Y-91321100D03*
X138581700Y-91321100D03*
X136041700Y-91321100D03*
X133501700Y-91321100D03*
X130961700Y-91321100D03*
X128421700Y-91321100D03*
X125881700Y-91321100D03*
X156361700Y-106561100D03*
X158901700Y-106561100D03*
X161441700Y-106561100D03*
X163981700Y-106561100D03*
X166521700Y-106561100D03*
X169061700Y-106561100D03*
X171601700Y-106561100D03*
X174141700Y-106561100D03*
X176681700Y-106561100D03*
X176681700Y-91321100D03*
X174141700Y-91321100D03*
X171601700Y-91321100D03*
X169061700Y-91321100D03*
X166521700Y-91321100D03*
X163981700Y-91321100D03*
X161441700Y-91321100D03*
X158901700Y-91321100D03*
X156361700Y-91321100D03*
D19*
X129691700Y-103511100D03*
X127151700Y-103511100D03*
D18*
X118261700Y-106561100D03*
X153821700Y-91321100D03*
X120801700Y-91321100D03*
X163981700Y-98941100D03*
D20*
X133231700Y-95771100D03*
X131231700Y-95771100D03*
D18*
X163981700Y-93861100D03*
X163981700Y-96401100D03*
D20*
X131231700Y-93771100D03*
X133231700Y-93771100D03*
X133231700Y-97771100D03*
X131231700Y-97771100D03*
D19*
X132231700Y-103511100D03*
X134771700Y-103511100D03*
D18*
X163981700Y-104021100D03*
X118261700Y-91321100D03*
X120801700Y-93861100D03*
%TD*%
D10*
%TO.C,DRV8256P1*%
X111961700Y-110591100D03*
X114501700Y-110591100D03*
X117041700Y-110591100D03*
X119581700Y-110591100D03*
X122121700Y-110591100D03*
X124661700Y-110591100D03*
X124661700Y-123291100D03*
X122121700Y-123291100D03*
X119581700Y-123291100D03*
X117041700Y-123291100D03*
X114501700Y-123291100D03*
X111961700Y-123291100D03*
%TD*%
D11*
%TO.C,J1*%
X175531700Y-77941100D03*
D12*
X178071700Y-77941100D03*
X180611700Y-77941100D03*
%TD*%
D15*
%TO.C,H2*%
X101271700Y-122541100D03*
%TD*%
D16*
%TO.C,J10*%
X137571700Y-120541100D03*
D17*
X141071700Y-120541100D03*
%TD*%
D16*
%TO.C,J11*%
X128871700Y-120541100D03*
D17*
X132371700Y-120541100D03*
%TD*%
D21*
%TO.C,PowerRegulator1*%
X180411700Y-122541100D03*
D22*
X180411700Y-120001100D03*
X177871700Y-122541100D03*
X177871700Y-120001100D03*
X175331700Y-122541100D03*
X175331700Y-120001100D03*
X172791700Y-122541100D03*
X172791700Y-120001100D03*
X170251700Y-122541100D03*
X170251700Y-120001100D03*
X167711700Y-122541100D03*
X167711700Y-120001100D03*
%TD*%
M02*
