M48
; DRILL file {KiCad 9.0.2} date 2026-07-23T06:08:31-0400
; FORMAT={-:-/ absolute / metric / decimal}
; #@! TF.CreationDate,2026-07-23T06:08:31-04:00
; #@! TF.GenerationSoftware,Kicad,Pcbnew,9.0.2
; #@! TF.FileFunction,Plated,1,2,PTH
FMAT,2
METRIC
; #@! TA.AperFunction,Plated,PTH,ViaDrill
T1C0.300
; #@! TA.AperFunction,Plated,PTH,ComponentDrill
T2C0.600
; #@! TA.AperFunction,Plated,PTH,ComponentDrill
T3C1.000
; #@! TA.AperFunction,Plated,PTH,ComponentDrill
T4C1.100
; #@! TA.AperFunction,Plated,PTH,ComponentDrill
T5C1.200
; #@! TA.AperFunction,Plated,PTH,ComponentDrill
T6C1.850
; #@! TA.AperFunction,Plated,PTH,ComponentDrill
T7C2.700
%
G90
G05
T1
X115.651Y-102.05
X116.35Y-93.95
X116.95Y-102.0
X119.5Y-103.7
X119.5Y-105.25
X122.0Y-94.803
X125.25Y-106.25
X127.6Y-98.0
X131.23Y-102.0
X133.77Y-96.25
X136.451Y-107.201
X136.8Y-101.9
X136.95Y-96.25
X137.2Y-95.45
X138.55Y-96.7
X138.8Y-108.55
X139.806Y-105.406
X140.75Y-99.0
X141.4Y-111.4
X142.89Y-106.0
X143.25Y-112.4
X144.25Y-103.728
X144.976Y-100.176
X145.4Y-102.35
X145.6Y-111.0
X146.147Y-101.783
X146.416Y-99.584
X147.3Y-104.65
X147.55Y-108.4
X149.4Y-97.9
X151.98Y-96.25
X151.98Y-102.0
X153.25Y-96.25
X154.52Y-96.25
X157.225Y-103.275
X157.95Y-96.4
X157.95Y-98.025
X160.2Y-102.3
X162.45Y-96.2
X167.45Y-97.3
X172.25Y-96.0
T3
X104.8Y-107.27
X104.8Y-109.81
X104.8Y-112.35
X107.34Y-107.27
X107.34Y-109.81
X107.34Y-112.35
X123.65Y-98.37
X123.65Y-100.91
X123.65Y-103.45
X187.5Y-107.27
T4
X104.8Y-84.45
X104.8Y-90.95
X109.3Y-84.45
X109.3Y-90.95
T5
X104.95Y-96.41
X104.95Y-98.95
X104.95Y-101.49
X114.12Y-90.4
X116.66Y-90.4
X119.2Y-90.4
X127.481Y-90.442
X130.021Y-90.442
X131.86Y-107.5
X132.561Y-90.442
X134.4Y-107.5
X140.931Y-90.392
X143.471Y-90.392
X146.011Y-90.392
X152.61Y-107.5
X154.36Y-90.4
X155.15Y-107.5
X156.9Y-90.4
X159.44Y-90.4
X167.81Y-90.4
X170.35Y-90.4
X172.89Y-90.4
X182.05Y-96.41
X182.05Y-98.95
X182.05Y-101.49
T6
X162.2Y-109.85
X166.9Y-109.85
X171.6Y-109.85
T7
X180.85Y-107.6
X180.85Y-112.6
T2
G00X112.73Y-106.595
M15
G01X112.73Y-107.695
M16
G05
G00X112.73Y-110.925
M15
G01X112.73Y-111.725
M16
G05
G00X121.37Y-106.595
M15
G01X121.37Y-107.695
M16
G05
G00X121.37Y-110.925
M15
G01X121.37Y-111.725
M16
G05
M30
