%TF.GenerationSoftware,KiCad,Pcbnew,9.0.2*%
%TF.CreationDate,2026-07-23T06:08:34-04:00*%
%TF.ProjectId,500gNewMemberBoard,35303067-4e65-4774-9d65-6d626572426f,rev?*%
%TF.SameCoordinates,Original*%
%TF.FileFunction,Copper,L2,Bot*%
%TF.FilePolarity,Positive*%
%FSLAX46Y46*%
G04 Gerber Fmt 4.6, Leading zero omitted, Abs format (unit mm)*
G04 Created by KiCad (PCBNEW 9.0.2) date 2026-07-23 06:08:34*
%MOMM*%
%LPD*%
G01*
G04 APERTURE LIST*
G04 Aperture macros list*
%AMRoundRect*
0 Rectangle with rounded corners*
0 $1 Rounding radius*
0 $2 $3 $4 $5 $6 $7 $8 $9 X,Y pos of 4 corners*
0 Add a 4 corners polygon primitive as box body*
4,1,4,$2,$3,$4,$5,$6,$7,$8,$9,$2,$3,0*
0 Add four circle primitives for the rounded corners*
1,1,$1+$1,$2,$3*
1,1,$1+$1,$4,$5*
1,1,$1+$1,$6,$7*
1,1,$1+$1,$8,$9*
0 Add four rect primitives between the rounded corners*
20,1,$1+$1,$2,$3,$4,$5,0*
20,1,$1+$1,$4,$5,$6,$7,0*
20,1,$1+$1,$6,$7,$8,$9,0*
20,1,$1+$1,$8,$9,$2,$3,0*%
G04 Aperture macros list end*
%TA.AperFunction,ComponentPad*%
%ADD10R,1.700000X1.700000*%
%TD*%
%TA.AperFunction,ComponentPad*%
%ADD11C,1.700000*%
%TD*%
%TA.AperFunction,ComponentPad*%
%ADD12RoundRect,0.250000X0.750000X0.750000X-0.750000X0.750000X-0.750000X-0.750000X0.750000X-0.750000X0*%
%TD*%
%TA.AperFunction,ComponentPad*%
%ADD13C,2.000000*%
%TD*%
%TA.AperFunction,ComponentPad*%
%ADD14RoundRect,0.250000X-0.750000X-0.750000X0.750000X-0.750000X0.750000X0.750000X-0.750000X0.750000X0*%
%TD*%
%TA.AperFunction,ComponentPad*%
%ADD15RoundRect,0.250000X0.750000X-0.750000X0.750000X0.750000X-0.750000X0.750000X-0.750000X-0.750000X0*%
%TD*%
%TA.AperFunction,ComponentPad*%
%ADD16RoundRect,0.250000X-0.750000X0.750000X-0.750000X-0.750000X0.750000X-0.750000X0.750000X0.750000X0*%
%TD*%
%TA.AperFunction,HeatsinkPad*%
%ADD17O,1.000000X2.100000*%
%TD*%
%TA.AperFunction,HeatsinkPad*%
%ADD18O,1.000000X1.800000*%
%TD*%
%TA.AperFunction,ComponentPad*%
%ADD19R,2.450000X2.450000*%
%TD*%
%TA.AperFunction,ComponentPad*%
%ADD20C,2.450000*%
%TD*%
%TA.AperFunction,ComponentPad*%
%ADD21RoundRect,0.760000X1.140000X-1.140000X1.140000X1.140000X-1.140000X1.140000X-1.140000X-1.140000X0*%
%TD*%
%TA.AperFunction,ComponentPad*%
%ADD22C,3.800000*%
%TD*%
%TA.AperFunction,ViaPad*%
%ADD23C,0.600000*%
%TD*%
%TA.AperFunction,Conductor*%
%ADD24C,0.500000*%
%TD*%
%TA.AperFunction,Conductor*%
%ADD25C,0.200000*%
%TD*%
G04 APERTURE END LIST*
D10*
%TO.P,TP1,1,1*%
%TO.N,+12V*%
X187500000Y-107270001D03*
%TD*%
%TO.P,J12,1,Pin_1*%
%TO.N,Start*%
X123650000Y-103450000D03*
D11*
%TO.P,J12,2,Pin_2*%
%TO.N,GND*%
X123650000Y-100910000D03*
%TO.P,J12,3,Pin_3*%
%TO.N,5v*%
X123650000Y-98370000D03*
%TD*%
D12*
%TO.P,J10,1,Pin_1*%
%TO.N,A3*%
X119200000Y-90400000D03*
D13*
%TO.P,J10,2,Pin_2*%
%TO.N,5v*%
X116660000Y-90400000D03*
%TO.P,J10,3,Pin_3*%
%TO.N,GND*%
X114120001Y-90400000D03*
%TD*%
D12*
%TO.P,J9,1,Pin_1*%
%TO.N,A2*%
X132560882Y-90442454D03*
D13*
%TO.P,J9,2,Pin_2*%
%TO.N,5v*%
X130020882Y-90442454D03*
%TO.P,J9,3,Pin_3*%
%TO.N,GND*%
X127480883Y-90442454D03*
%TD*%
%TO.P,SW2,1,1*%
%TO.N,GND*%
X104800000Y-90950000D03*
X104800000Y-84450000D03*
%TO.P,SW2,2,2*%
%TO.N,Button1*%
X109300001Y-90950000D03*
X109300000Y-84449999D03*
%TD*%
D12*
%TO.P,J11,1,Pin_1*%
%TO.N,A0*%
X159440000Y-90400000D03*
D13*
%TO.P,J11,2,Pin_2*%
%TO.N,5v*%
X156900000Y-90400000D03*
%TO.P,J11,3,Pin_3*%
%TO.N,GND*%
X154360001Y-90400000D03*
%TD*%
D14*
%TO.P,J4,1,Pin_1*%
%TO.N,Net-(J4-Pin_1)*%
X152610000Y-107500000D03*
D13*
%TO.P,J4,2,Pin_2*%
%TO.N,Net-(J4-Pin_2)*%
X155150000Y-107500000D03*
%TD*%
D10*
%TO.P,J2,1,Pin_1*%
%TO.N,MISO*%
X104800000Y-107270001D03*
D11*
%TO.P,J2,2,Pin_2*%
%TO.N,+5V*%
X107340000Y-107270001D03*
%TO.P,J2,3,Pin_3*%
%TO.N,SCK*%
X104800000Y-109810001D03*
%TO.P,J2,4,Pin_4*%
%TO.N,MOSI{slash}D11*%
X107340000Y-109810001D03*
%TO.P,J2,5,Pin_5*%
%TO.N,RESET*%
X104800000Y-112350000D03*
%TO.P,J2,6,Pin_6*%
%TO.N,GND*%
X107340000Y-112350001D03*
%TD*%
D15*
%TO.P,J8,1,Pin_1*%
%TO.N,A6*%
X182050000Y-101490000D03*
D13*
%TO.P,J8,2,Pin_2*%
%TO.N,5v*%
X182050000Y-98950000D03*
%TO.P,J8,3,Pin_3*%
%TO.N,GND*%
X182050000Y-96410001D03*
%TD*%
D12*
%TO.P,J5,1,Pin_1*%
%TO.N,A1*%
X146010882Y-90392454D03*
D13*
%TO.P,J5,2,Pin_2*%
%TO.N,5v*%
X143470882Y-90392454D03*
%TO.P,J5,3,Pin_3*%
%TO.N,GND*%
X140930883Y-90392454D03*
%TD*%
D16*
%TO.P,J6,1,Pin_1*%
%TO.N,A4*%
X104950000Y-96410000D03*
D13*
%TO.P,J6,2,Pin_2*%
%TO.N,5v*%
X104950000Y-98950000D03*
%TO.P,J6,3,Pin_3*%
%TO.N,GND*%
X104950000Y-101489999D03*
%TD*%
D14*
%TO.P,J3,1,Pin_1*%
%TO.N,Net-(J3-Pin_1)*%
X131860000Y-107500000D03*
D13*
%TO.P,J3,2,Pin_2*%
%TO.N,Net-(J3-Pin_2)*%
X134400000Y-107500000D03*
%TD*%
D12*
%TO.P,J7,1,Pin_1*%
%TO.N,A7*%
X172890000Y-90400000D03*
D13*
%TO.P,J7,2,Pin_2*%
%TO.N,5v*%
X170350000Y-90400000D03*
%TO.P,J7,3,Pin_3*%
%TO.N,GND*%
X167810001Y-90400000D03*
%TD*%
D17*
%TO.P,J1,S1,SHIELD*%
%TO.N,GND*%
X112730000Y-107145000D03*
D18*
X112730000Y-111325000D03*
D17*
X121370000Y-107145000D03*
D18*
X121370000Y-111325000D03*
%TD*%
D19*
%TO.P,SW3,1,A*%
%TO.N,unconnected-(SW3-A-Pad1)*%
X162200000Y-109850000D03*
D20*
%TO.P,SW3,2,B*%
%TO.N,+12V*%
X166900000Y-109850000D03*
%TO.P,SW3,3,C*%
%TO.N,Net-(J13-Pin_2)*%
X171600000Y-109850000D03*
%TD*%
D21*
%TO.P,J13,1,Pin_1*%
%TO.N,GND*%
X180850000Y-112600000D03*
D22*
%TO.P,J13,2,Pin_2*%
%TO.N,Net-(J13-Pin_2)*%
X180850000Y-107600000D03*
%TD*%
D23*
%TO.N,+12V*%
X131230001Y-102000000D03*
X151980001Y-102000000D03*
%TO.N,GND*%
X136450735Y-107200735D03*
X157950000Y-98025000D03*
X143250000Y-112400000D03*
X138800000Y-108550000D03*
X116350000Y-93950000D03*
X145600000Y-111000000D03*
X142890442Y-106000000D03*
X167450000Y-97300000D03*
X160200000Y-102300000D03*
%TO.N,5v*%
X172250000Y-96000001D03*
%TO.N,+5V*%
X147550000Y-108400000D03*
X139806362Y-105406362D03*
X157225000Y-103275000D03*
X162450000Y-96200000D03*
X149400000Y-97900000D03*
X119500000Y-103700000D03*
%TO.N,RESET*%
X145400000Y-102350000D03*
X147300000Y-104650000D03*
X141400000Y-111400000D03*
%TO.N,Net-(U3-~{DTR})*%
X116950000Y-102000000D03*
X127600000Y-98000000D03*
X138550000Y-96700000D03*
X115651000Y-102050000D03*
%TO.N,Net-(J1-CC2)*%
X119500000Y-105250000D03*
X125250000Y-106250000D03*
%TO.N,MISO*%
X144975735Y-100175735D03*
%TO.N,SCK*%
X146416433Y-99583567D03*
%TO.N,Start*%
X136800000Y-101900000D03*
%TO.N,Net-(U1-PD1)*%
X122000000Y-94803000D03*
X137200000Y-95450000D03*
%TO.N,Net-(U5-ILIM)*%
X151980001Y-96250000D03*
X157950000Y-96400000D03*
%TO.N,Button1*%
X140750000Y-99000000D03*
%TO.N,Motor2B*%
X146147264Y-101782609D03*
X154520000Y-96250000D03*
%TO.N,Motor1B*%
X133770000Y-96250000D03*
X136950000Y-96250000D03*
%TO.N,Motor2A*%
X153250000Y-96250000D03*
X144250000Y-103728428D03*
%TD*%
D24*
%TO.N,+12V*%
X135387363Y-106157362D02*
X139007362Y-106157362D01*
X144600000Y-111750000D02*
X165000000Y-111750000D01*
X165450000Y-109850000D02*
X157550000Y-101950000D01*
X157550000Y-101950000D02*
X152030001Y-101950000D01*
X152030001Y-101950000D02*
X151980001Y-102000000D01*
X165000000Y-111750000D02*
X166900000Y-109850000D01*
X166900000Y-109850000D02*
X165450000Y-109850000D01*
X131230001Y-102000000D02*
X135387363Y-106157362D01*
X139007362Y-106157362D02*
X144600000Y-111750000D01*
%TO.N,GND*%
X116350000Y-92629999D02*
X114120001Y-90400000D01*
D25*
X145600000Y-108709558D02*
X145600000Y-111000000D01*
D24*
X158875000Y-98025000D02*
X160200000Y-99350000D01*
X116350000Y-93950000D02*
X116350000Y-92629999D01*
X157950000Y-98025000D02*
X158875000Y-98025000D01*
X137450735Y-107200735D02*
X138800000Y-108550000D01*
D25*
X142890442Y-106000000D02*
X145600000Y-108709558D01*
D24*
X139612075Y-108550000D02*
X138800000Y-108550000D01*
X143250000Y-112187925D02*
X139612075Y-108550000D01*
X136450735Y-107200735D02*
X137450735Y-107200735D01*
X143250000Y-112400000D02*
X143250000Y-112187925D01*
X160200000Y-99350000D02*
X160200000Y-102300000D01*
D25*
X167450000Y-97300000D02*
X167500000Y-97300000D01*
%TO.N,5v*%
X116660000Y-90400000D02*
X115810000Y-89550000D01*
X108551000Y-89099000D02*
X103649000Y-94001000D01*
X142169882Y-89091454D02*
X131371882Y-89091454D01*
X170350000Y-90400000D02*
X169049000Y-89099000D01*
X175199999Y-98950000D02*
X172250000Y-96000001D01*
X128677428Y-89099000D02*
X117961000Y-89099000D01*
X103649000Y-94001000D02*
X103649000Y-97649000D01*
X143470882Y-90392454D02*
X142169882Y-89091454D01*
X158201000Y-89099000D02*
X156900000Y-90400000D01*
X144771882Y-89091454D02*
X143470882Y-90392454D01*
X117961000Y-89099000D02*
X116660000Y-90400000D01*
X115810000Y-89550000D02*
X115800000Y-89550000D01*
X156900000Y-90400000D02*
X155591454Y-89091454D01*
X103649000Y-97649000D02*
X104950000Y-98950000D01*
X116660000Y-90400000D02*
X123650000Y-97390000D01*
X115800000Y-89550000D02*
X115349000Y-89099000D01*
X123650000Y-97390000D02*
X123650000Y-98320001D01*
X155591454Y-89091454D02*
X144771882Y-89091454D01*
X130020882Y-90442454D02*
X128677428Y-89099000D01*
X169049000Y-89099000D02*
X158201000Y-89099000D01*
X115349000Y-89099000D02*
X108551000Y-89099000D01*
X182050000Y-98950000D02*
X175199999Y-98950000D01*
X172250000Y-92300000D02*
X172250000Y-96000001D01*
X131371882Y-89091454D02*
X130020882Y-90442454D01*
X170350000Y-90400000D02*
X172250000Y-92300000D01*
%TO.N,+5V*%
X160349000Y-94099000D02*
X162450000Y-96200000D01*
X147550000Y-106450000D02*
X148600000Y-105400000D01*
X148600000Y-105400000D02*
X139812724Y-105400000D01*
X149400000Y-97832900D02*
X153133900Y-94099000D01*
X110910001Y-103700000D02*
X107340000Y-107270001D01*
X157225000Y-103275000D02*
X155100000Y-105400000D01*
X139812724Y-105400000D02*
X139806362Y-105406362D01*
X149400000Y-97900000D02*
X149400000Y-97832900D01*
X153133900Y-94099000D02*
X160349000Y-94099000D01*
X155100000Y-105400000D02*
X148600000Y-105400000D01*
X119500000Y-103700000D02*
X110910001Y-103700000D01*
X147550000Y-108400000D02*
X147550000Y-106450000D01*
%TO.N,RESET*%
X111071216Y-111199001D02*
X112398215Y-112526000D01*
X140274000Y-112526000D02*
X141400000Y-111400000D01*
X145400000Y-102350000D02*
X147300000Y-104250000D01*
X104800000Y-112350000D02*
X105950999Y-111199001D01*
X112398215Y-112526000D02*
X140274000Y-112526000D01*
X105950999Y-111199001D02*
X111071216Y-111199001D01*
X147300000Y-104250000D02*
X147300000Y-104650000D01*
%TO.N,Net-(U3-~{DTR})*%
X116950000Y-102000000D02*
X115701000Y-102000000D01*
X115701000Y-102000000D02*
X115651000Y-102050000D01*
X127600000Y-98000000D02*
X137250000Y-98000000D01*
X137250000Y-98000000D02*
X138550000Y-96700000D01*
%TO.N,Net-(J1-CC2)*%
X125250000Y-106250000D02*
X124250000Y-105250000D01*
X124250000Y-105250000D02*
X119500000Y-105250000D01*
%TO.N,MISO*%
X144951470Y-100200000D02*
X144975735Y-100175735D01*
X109370001Y-102700000D02*
X119300000Y-102700000D01*
X119900000Y-102100000D02*
X126165800Y-102100000D01*
X104800000Y-107270001D02*
X109370001Y-102700000D01*
X119300000Y-102700000D02*
X119900000Y-102100000D01*
X126165800Y-102100000D02*
X128090065Y-100175735D01*
X128090065Y-100175735D02*
X144975735Y-100175735D01*
%TO.N,SCK*%
X143499000Y-102501000D02*
X136551057Y-102501000D01*
X115241056Y-108659001D02*
X105951000Y-108659001D01*
X136551057Y-102501000D02*
X135449057Y-101399000D01*
X119250057Y-104650000D02*
X115241056Y-108659001D01*
X124750000Y-104650000D02*
X119250057Y-104650000D01*
X135449057Y-101399000D02*
X128001000Y-101399000D01*
X146416433Y-99583567D02*
X143499000Y-102501000D01*
X128001000Y-101399000D02*
X124750000Y-104650000D01*
X105951000Y-108659001D02*
X104800000Y-109810001D01*
%TO.N,Start*%
X135615157Y-100998000D02*
X127834900Y-100998000D01*
X135900000Y-101000000D02*
X135617157Y-101000000D01*
X136800000Y-101900000D02*
X135900000Y-101000000D01*
X135617157Y-101000000D02*
X135615157Y-100998000D01*
X125382900Y-103450000D02*
X123650000Y-103450000D01*
X127834900Y-100998000D02*
X125382900Y-103450000D01*
D24*
%TO.N,Net-(J13-Pin_2)*%
X180850000Y-107600000D02*
X173850000Y-107600000D01*
X173850000Y-107600000D02*
X171600000Y-109850000D01*
D25*
%TO.N,Net-(U1-PD1)*%
X137200000Y-95450000D02*
X136550000Y-94800000D01*
X136550000Y-94800000D02*
X122003000Y-94800000D01*
X122003000Y-94800000D02*
X122000000Y-94803000D01*
%TO.N,Net-(U5-ILIM)*%
X153300000Y-94500000D02*
X151980001Y-95819999D01*
X151980001Y-95819999D02*
X151980001Y-96250000D01*
X156050000Y-94500000D02*
X153300000Y-94500000D01*
X157950000Y-96400000D02*
X156050000Y-94500000D01*
%TO.N,Button1*%
X140750000Y-99000000D02*
X140150000Y-99600000D01*
X140150000Y-99600000D02*
X117950001Y-99600000D01*
X117950001Y-99600000D02*
X109300001Y-90950000D01*
%TO.N,Motor2B*%
X150470000Y-100300000D02*
X154520000Y-96250000D01*
X146147264Y-101782609D02*
X147629873Y-100300000D01*
X147629873Y-100300000D02*
X150470000Y-100300000D01*
%TO.N,Motor1B*%
X136950000Y-96250000D02*
X133770000Y-96250000D01*
%TO.N,Motor2A*%
X149600000Y-99900000D02*
X153250000Y-96250000D01*
X144250000Y-103728428D02*
X144250000Y-102650000D01*
X147000000Y-99900000D02*
X149600000Y-99900000D01*
X144250000Y-102650000D02*
X147000000Y-99900000D01*
%TD*%
%TA.AperFunction,Conductor*%
%TO.N,GND*%
G36*
X158116892Y-103583709D02*
G01*
X158141306Y-103602674D01*
X160316486Y-105777854D01*
X162451452Y-107912819D01*
X162484937Y-107974142D01*
X162479953Y-108043834D01*
X162438081Y-108099767D01*
X162372617Y-108124184D01*
X162363771Y-108124500D01*
X160927129Y-108124500D01*
X160927123Y-108124501D01*
X160867516Y-108130908D01*
X160732671Y-108181202D01*
X160732664Y-108181206D01*
X160617455Y-108267452D01*
X160617452Y-108267455D01*
X160531206Y-108382664D01*
X160531202Y-108382671D01*
X160480908Y-108517517D01*
X160474501Y-108577116D01*
X160474500Y-108577127D01*
X160474500Y-109736911D01*
X160474501Y-110875500D01*
X160454816Y-110942539D01*
X160402013Y-110988294D01*
X160350501Y-110999500D01*
X144962229Y-110999500D01*
X144895190Y-110979815D01*
X144874548Y-110963181D01*
X140197416Y-106286049D01*
X140187433Y-106267767D01*
X140173451Y-106252324D01*
X140171025Y-106237718D01*
X140163931Y-106224726D01*
X140165416Y-106203948D01*
X140162004Y-106183399D01*
X140167858Y-106169802D01*
X140168915Y-106155034D01*
X140181398Y-106138358D01*
X140189637Y-106119226D01*
X140208361Y-106102340D01*
X140210787Y-106099101D01*
X140215801Y-106095538D01*
X140215995Y-106095407D01*
X140316651Y-106028151D01*
X140318412Y-106026389D01*
X140325416Y-106021670D01*
X140353365Y-106012797D01*
X140380355Y-106001334D01*
X140391517Y-106000685D01*
X140392011Y-106000529D01*
X140392400Y-106000634D01*
X140394712Y-106000500D01*
X146901347Y-106000500D01*
X146968386Y-106020185D01*
X147014141Y-106072989D01*
X147024085Y-106142147D01*
X147008733Y-106186502D01*
X146990424Y-106218212D01*
X146990423Y-106218214D01*
X146990423Y-106218215D01*
X146949499Y-106370943D01*
X146949499Y-106370945D01*
X146949499Y-106539046D01*
X146949500Y-106539059D01*
X146949500Y-107820234D01*
X146929815Y-107887273D01*
X146928602Y-107889125D01*
X146840609Y-108020814D01*
X146840602Y-108020827D01*
X146780264Y-108166498D01*
X146780261Y-108166510D01*
X146749500Y-108321153D01*
X146749500Y-108478846D01*
X146780261Y-108633489D01*
X146780264Y-108633501D01*
X146840602Y-108779172D01*
X146840609Y-108779185D01*
X146928210Y-108910288D01*
X146928213Y-108910292D01*
X147039707Y-109021786D01*
X147039711Y-109021789D01*
X147170814Y-109109390D01*
X147170827Y-109109397D01*
X147316498Y-109169735D01*
X147316503Y-109169737D01*
X147471153Y-109200499D01*
X147471156Y-109200500D01*
X147471158Y-109200500D01*
X147628844Y-109200500D01*
X147628845Y-109200499D01*
X147783497Y-109169737D01*
X147929179Y-109109394D01*
X148060289Y-109021789D01*
X148171789Y-108910289D01*
X148259394Y-108779179D01*
X148319737Y-108633497D01*
X148350500Y-108478842D01*
X148350500Y-108321158D01*
X148350500Y-108321155D01*
X148350499Y-108321153D01*
X148346118Y-108299127D01*
X148319737Y-108166503D01*
X148304993Y-108130908D01*
X148259397Y-108020827D01*
X148259390Y-108020814D01*
X148171398Y-107889125D01*
X148150520Y-107822447D01*
X148150500Y-107820234D01*
X148150500Y-106750097D01*
X148170185Y-106683058D01*
X148186819Y-106662416D01*
X148812416Y-106036819D01*
X148873739Y-106003334D01*
X148900097Y-106000500D01*
X151248770Y-106000500D01*
X151315809Y-106020185D01*
X151361564Y-106072989D01*
X151371508Y-106142147D01*
X151342483Y-106205703D01*
X151336451Y-106212181D01*
X151267289Y-106281342D01*
X151175187Y-106430663D01*
X151175185Y-106430668D01*
X151157678Y-106483501D01*
X151120001Y-106597203D01*
X151120001Y-106597204D01*
X151120000Y-106597204D01*
X151109500Y-106699983D01*
X151109500Y-108300001D01*
X151109501Y-108300018D01*
X151120000Y-108402796D01*
X151120001Y-108402799D01*
X151175185Y-108569331D01*
X151175187Y-108569336D01*
X151201746Y-108612395D01*
X151267288Y-108718656D01*
X151391344Y-108842712D01*
X151540666Y-108934814D01*
X151707203Y-108989999D01*
X151809991Y-109000500D01*
X153410008Y-109000499D01*
X153512797Y-108989999D01*
X153679334Y-108934814D01*
X153828656Y-108842712D01*
X153952712Y-108718656D01*
X153982512Y-108670341D01*
X154034458Y-108623618D01*
X154103420Y-108612395D01*
X154167503Y-108640238D01*
X154168758Y-108641385D01*
X154168786Y-108641353D01*
X154172481Y-108644508D01*
X154172490Y-108644517D01*
X154363567Y-108783343D01*
X154428983Y-108816674D01*
X154574003Y-108890566D01*
X154574005Y-108890566D01*
X154574008Y-108890568D01*
X154694412Y-108929689D01*
X154798631Y-108963553D01*
X155031903Y-109000500D01*
X155031908Y-109000500D01*
X155268097Y-109000500D01*
X155501368Y-108963553D01*
X155725992Y-108890568D01*
X155936433Y-108783343D01*
X156127510Y-108644517D01*
X156294517Y-108477510D01*
X156433343Y-108286433D01*
X156540568Y-108075992D01*
X156613553Y-107851368D01*
X156623524Y-107788413D01*
X156650500Y-107618097D01*
X156650500Y-107381902D01*
X156613553Y-107148631D01*
X156570799Y-107017048D01*
X156540568Y-106924008D01*
X156540566Y-106924005D01*
X156540566Y-106924003D01*
X156460290Y-106766454D01*
X156433343Y-106713567D01*
X156294517Y-106522490D01*
X156127510Y-106355483D01*
X155936433Y-106216657D01*
X155911490Y-106203948D01*
X155725996Y-106109433D01*
X155551480Y-106052729D01*
X155549208Y-106051176D01*
X155546467Y-106050980D01*
X155520543Y-106031574D01*
X155493805Y-106013291D01*
X155492734Y-106010758D01*
X155490533Y-106009110D01*
X155479215Y-105978767D01*
X155466607Y-105948932D01*
X155467076Y-105946221D01*
X155466115Y-105943645D01*
X155472999Y-105911995D01*
X155478522Y-105880086D01*
X155480560Y-105877238D01*
X155480966Y-105875372D01*
X155502112Y-105847123D01*
X155580520Y-105768716D01*
X155580521Y-105768713D01*
X157239662Y-104109572D01*
X157300983Y-104076089D01*
X157303150Y-104075638D01*
X157361085Y-104064113D01*
X157458497Y-104044737D01*
X157604179Y-103984394D01*
X157735289Y-103896789D01*
X157846789Y-103785289D01*
X157934394Y-103654179D01*
X157939062Y-103642908D01*
X157982898Y-103588503D01*
X158049191Y-103566434D01*
X158116892Y-103583709D01*
G37*
%TD.AperFunction*%
%TA.AperFunction,Conductor*%
G36*
X118517998Y-104320185D02*
G01*
X118563753Y-104372989D01*
X118573697Y-104442147D01*
X118544672Y-104505703D01*
X118538640Y-104512181D01*
X115028640Y-108022182D01*
X115001712Y-108036885D01*
X114975894Y-108053478D01*
X114969693Y-108054369D01*
X114967317Y-108055667D01*
X114940959Y-108058501D01*
X114800570Y-108058501D01*
X114733531Y-108038816D01*
X114687776Y-107986012D01*
X114677832Y-107916854D01*
X114693185Y-107872497D01*
X114696280Y-107867136D01*
X114696281Y-107867135D01*
X114735500Y-107720766D01*
X114735500Y-107569234D01*
X114696281Y-107422865D01*
X114620515Y-107291635D01*
X114513365Y-107184485D01*
X114447750Y-107146602D01*
X114382136Y-107108719D01*
X114308950Y-107089109D01*
X114235766Y-107069500D01*
X114084234Y-107069500D01*
X113937863Y-107108719D01*
X113806635Y-107184485D01*
X113806632Y-107184487D01*
X113699487Y-107291632D01*
X113699485Y-107291635D01*
X113623719Y-107422863D01*
X113612378Y-107465191D01*
X113584500Y-107569234D01*
X113584500Y-107720766D01*
X113588264Y-107734813D01*
X113623719Y-107867136D01*
X113626815Y-107872497D01*
X113643290Y-107940397D01*
X113620440Y-108006425D01*
X113565520Y-108049617D01*
X113519430Y-108058501D01*
X108656290Y-108058501D01*
X108589251Y-108038816D01*
X108543496Y-107986012D01*
X108533552Y-107916854D01*
X108545805Y-107878206D01*
X108550790Y-107868422D01*
X108591557Y-107788413D01*
X108657246Y-107586244D01*
X108690500Y-107376288D01*
X108690500Y-107163714D01*
X108657246Y-106953758D01*
X108643506Y-106911474D01*
X108641512Y-106841636D01*
X108673755Y-106785479D01*
X111122417Y-104336819D01*
X111183740Y-104303334D01*
X111210098Y-104300500D01*
X118450959Y-104300500D01*
X118517998Y-104320185D01*
G37*
%TD.AperFunction*%
%TA.AperFunction,Conductor*%
G36*
X115115942Y-89719185D02*
G01*
X115136584Y-89735819D01*
X115204747Y-89803982D01*
X115238232Y-89865305D01*
X115234997Y-89929980D01*
X115196447Y-90048628D01*
X115159500Y-90281902D01*
X115159500Y-90518097D01*
X115196446Y-90751368D01*
X115269433Y-90975996D01*
X115372812Y-91178887D01*
X115376657Y-91186433D01*
X115515483Y-91377510D01*
X115682490Y-91544517D01*
X115873567Y-91683343D01*
X115956886Y-91725796D01*
X116084003Y-91790566D01*
X116084005Y-91790566D01*
X116084008Y-91790568D01*
X116196959Y-91827268D01*
X116308631Y-91863553D01*
X116541903Y-91900500D01*
X116541908Y-91900500D01*
X116778097Y-91900500D01*
X116892043Y-91882452D01*
X117011368Y-91863553D01*
X117137566Y-91822547D01*
X117207404Y-91820553D01*
X117263563Y-91852798D01*
X122672752Y-97261987D01*
X122706237Y-97323310D01*
X122701253Y-97393002D01*
X122672754Y-97437348D01*
X122619892Y-97490211D01*
X122494951Y-97662179D01*
X122398444Y-97851585D01*
X122332753Y-98053760D01*
X122309670Y-98199500D01*
X122299500Y-98263713D01*
X122299500Y-98476287D01*
X122322545Y-98621786D01*
X122330139Y-98669736D01*
X122332754Y-98686243D01*
X122381798Y-98837184D01*
X122383793Y-98907023D01*
X122347713Y-98966856D01*
X122285012Y-98997684D01*
X122263867Y-98999500D01*
X118250098Y-98999500D01*
X118183059Y-98979815D01*
X118162417Y-98963181D01*
X110752799Y-91553563D01*
X110719314Y-91492240D01*
X110722548Y-91427566D01*
X110763554Y-91301368D01*
X110783706Y-91174126D01*
X110800501Y-91068097D01*
X110800501Y-90831902D01*
X110763554Y-90598631D01*
X110690567Y-90374003D01*
X110583343Y-90163566D01*
X110530680Y-90091082D01*
X110444518Y-89972490D01*
X110383209Y-89911181D01*
X110349724Y-89849858D01*
X110354708Y-89780166D01*
X110396580Y-89724233D01*
X110462044Y-89699816D01*
X110470890Y-89699500D01*
X115048903Y-89699500D01*
X115115942Y-89719185D01*
G37*
%TD.AperFunction*%
%TA.AperFunction,Conductor*%
G36*
X109308363Y-81970185D02*
G01*
X109329005Y-81986819D01*
X111599500Y-84257314D01*
X111692686Y-84350500D01*
X111806814Y-84416392D01*
X111934108Y-84450500D01*
X111934110Y-84450500D01*
X175065890Y-84450500D01*
X175065892Y-84450500D01*
X175193186Y-84416392D01*
X175307314Y-84350500D01*
X177670995Y-81986819D01*
X177732318Y-81953334D01*
X177758676Y-81950500D01*
X187434108Y-81950500D01*
X187496754Y-81950500D01*
X187503244Y-81950670D01*
X187807046Y-81966592D01*
X187819953Y-81967949D01*
X187939096Y-81986819D01*
X188117209Y-82015028D01*
X188129896Y-82017724D01*
X188420625Y-82095625D01*
X188432965Y-82099635D01*
X188713938Y-82207490D01*
X188725790Y-82212767D01*
X188993968Y-82349411D01*
X189005199Y-82355896D01*
X189257608Y-82519812D01*
X189268109Y-82527441D01*
X189502010Y-82716850D01*
X189511655Y-82725535D01*
X189724464Y-82938344D01*
X189733149Y-82947989D01*
X189922558Y-83181890D01*
X189930187Y-83192391D01*
X190094101Y-83444796D01*
X190100591Y-83456036D01*
X190237231Y-83724206D01*
X190242510Y-83736064D01*
X190350363Y-84017033D01*
X190354374Y-84029376D01*
X190432273Y-84320097D01*
X190434971Y-84332794D01*
X190482050Y-84630046D01*
X190483407Y-84642953D01*
X190499330Y-84946756D01*
X190499500Y-84953246D01*
X190499500Y-90691324D01*
X190479815Y-90758363D01*
X190463181Y-90779005D01*
X188099502Y-93142683D01*
X188099500Y-93142686D01*
X188033608Y-93256812D01*
X187999500Y-93384108D01*
X187999500Y-104515891D01*
X188033608Y-104643187D01*
X188064657Y-104696964D01*
X188099500Y-104757314D01*
X188099502Y-104757316D01*
X190463181Y-107120995D01*
X190496666Y-107182318D01*
X190499500Y-107208676D01*
X190499500Y-112946753D01*
X190499330Y-112953243D01*
X190483407Y-113257046D01*
X190482050Y-113269953D01*
X190434971Y-113567205D01*
X190432273Y-113579902D01*
X190354374Y-113870623D01*
X190350363Y-113882966D01*
X190242510Y-114163935D01*
X190237231Y-114175793D01*
X190100591Y-114443963D01*
X190094101Y-114455203D01*
X189930187Y-114707608D01*
X189922558Y-114718109D01*
X189733149Y-114952010D01*
X189724464Y-114961655D01*
X189511655Y-115174464D01*
X189502010Y-115183149D01*
X189268109Y-115372558D01*
X189257608Y-115380187D01*
X189005203Y-115544101D01*
X188993963Y-115550591D01*
X188725793Y-115687231D01*
X188713935Y-115692510D01*
X188432966Y-115800363D01*
X188420623Y-115804374D01*
X188129902Y-115882273D01*
X188117205Y-115884971D01*
X187819953Y-115932050D01*
X187807046Y-115933407D01*
X187503244Y-115949330D01*
X187496754Y-115949500D01*
X177758676Y-115949500D01*
X177691637Y-115929815D01*
X177670995Y-115913181D01*
X175307316Y-113549502D01*
X175307314Y-113549500D01*
X175250250Y-113516554D01*
X175193187Y-113483608D01*
X175129539Y-113466554D01*
X175065892Y-113449500D01*
X112065893Y-113449500D01*
X111934108Y-113449500D01*
X111806812Y-113483608D01*
X111692686Y-113549500D01*
X111692683Y-113549502D01*
X109329005Y-115913181D01*
X109267682Y-115946666D01*
X109241324Y-115949500D01*
X99503246Y-115949500D01*
X99496756Y-115949330D01*
X99192953Y-115933407D01*
X99180046Y-115932050D01*
X98882794Y-115884971D01*
X98870097Y-115882273D01*
X98579376Y-115804374D01*
X98567033Y-115800363D01*
X98286064Y-115692510D01*
X98274206Y-115687231D01*
X98006036Y-115550591D01*
X97994796Y-115544101D01*
X97742391Y-115380187D01*
X97731890Y-115372558D01*
X97497989Y-115183149D01*
X97488344Y-115174464D01*
X97275535Y-114961655D01*
X97266850Y-114952010D01*
X97077441Y-114718109D01*
X97069812Y-114707608D01*
X97008517Y-114613222D01*
X96905896Y-114455199D01*
X96899408Y-114443963D01*
X96762768Y-114175793D01*
X96757489Y-114163935D01*
X96686994Y-113980289D01*
X96649635Y-113882965D01*
X96645625Y-113870623D01*
X96644626Y-113866895D01*
X96567724Y-113579896D01*
X96565028Y-113567205D01*
X96561685Y-113546100D01*
X96517949Y-113269953D01*
X96516592Y-113257046D01*
X96500670Y-112953243D01*
X96500500Y-112946753D01*
X96500500Y-112828711D01*
X97649500Y-112828711D01*
X97649500Y-113071288D01*
X97681161Y-113311785D01*
X97743947Y-113546104D01*
X97794126Y-113667246D01*
X97836776Y-113770212D01*
X97958064Y-113980289D01*
X97958066Y-113980292D01*
X97958067Y-113980293D01*
X98105733Y-114172736D01*
X98105739Y-114172743D01*
X98277256Y-114344260D01*
X98277262Y-114344265D01*
X98469711Y-114491936D01*
X98679788Y-114613224D01*
X98903900Y-114706054D01*
X99138211Y-114768838D01*
X99318586Y-114792584D01*
X99378711Y-114800500D01*
X99378712Y-114800500D01*
X99621289Y-114800500D01*
X99669388Y-114794167D01*
X99861789Y-114768838D01*
X100096100Y-114706054D01*
X100320212Y-114613224D01*
X100530289Y-114491936D01*
X100722738Y-114344265D01*
X100894265Y-114172738D01*
X101041936Y-113980289D01*
X101163224Y-113770212D01*
X101256054Y-113546100D01*
X101318838Y-113311789D01*
X101350500Y-113071288D01*
X101350500Y-112828712D01*
X101318838Y-112588211D01*
X101256054Y-112353900D01*
X101163224Y-112129788D01*
X101041936Y-111919711D01*
X100894265Y-111727262D01*
X100894260Y-111727256D01*
X100722743Y-111555739D01*
X100722736Y-111555733D01*
X100530293Y-111408067D01*
X100530292Y-111408066D01*
X100530289Y-111408064D01*
X100358661Y-111308974D01*
X100320214Y-111286777D01*
X100320205Y-111286773D01*
X100096104Y-111193947D01*
X99932406Y-111150084D01*
X99861789Y-111131162D01*
X99861788Y-111131161D01*
X99861785Y-111131161D01*
X99621289Y-111099500D01*
X99621288Y-111099500D01*
X99378712Y-111099500D01*
X99378711Y-111099500D01*
X99138214Y-111131161D01*
X98903895Y-111193947D01*
X98679794Y-111286773D01*
X98679785Y-111286777D01*
X98511805Y-111383761D01*
X98482165Y-111400874D01*
X98469706Y-111408067D01*
X98277263Y-111555733D01*
X98277256Y-111555739D01*
X98105739Y-111727256D01*
X98105733Y-111727263D01*
X97958067Y-111919706D01*
X97836777Y-112129785D01*
X97836773Y-112129794D01*
X97743947Y-112353895D01*
X97681161Y-112588214D01*
X97649500Y-112828711D01*
X96500500Y-112828711D01*
X96500500Y-107208676D01*
X96520185Y-107141637D01*
X96536819Y-107120995D01*
X97714169Y-105943645D01*
X98900500Y-104757314D01*
X98966392Y-104643186D01*
X99000500Y-104515892D01*
X99000500Y-104384107D01*
X99000500Y-97728054D01*
X103048498Y-97728054D01*
X103089423Y-97880785D01*
X103112731Y-97921154D01*
X103112732Y-97921158D01*
X103168475Y-98017709D01*
X103168481Y-98017717D01*
X103287349Y-98136585D01*
X103287355Y-98136590D01*
X103497200Y-98346435D01*
X103530685Y-98407758D01*
X103527450Y-98472433D01*
X103486447Y-98598628D01*
X103449500Y-98831902D01*
X103449500Y-99068097D01*
X103486446Y-99301368D01*
X103559433Y-99525996D01*
X103666657Y-99736433D01*
X103805483Y-99927510D01*
X103972490Y-100094517D01*
X104163567Y-100233343D01*
X104238148Y-100271344D01*
X104374003Y-100340566D01*
X104374005Y-100340566D01*
X104374008Y-100340568D01*
X104494412Y-100379689D01*
X104598631Y-100413553D01*
X104831903Y-100450500D01*
X104831908Y-100450500D01*
X105068097Y-100450500D01*
X105301368Y-100413553D01*
X105325528Y-100405703D01*
X105525992Y-100340568D01*
X105736433Y-100233343D01*
X105927510Y-100094517D01*
X106094517Y-99927510D01*
X106233343Y-99736433D01*
X106340568Y-99525992D01*
X106413553Y-99301368D01*
X106428914Y-99204381D01*
X106450500Y-99068097D01*
X106450500Y-98831902D01*
X106413553Y-98598631D01*
X106351534Y-98407758D01*
X106340568Y-98374008D01*
X106340566Y-98374005D01*
X106340566Y-98374003D01*
X106255539Y-98207130D01*
X106233343Y-98163567D01*
X106094517Y-97972490D01*
X106094508Y-97972481D01*
X106091353Y-97968786D01*
X106093134Y-97967264D01*
X106064273Y-97914408D01*
X106069257Y-97844716D01*
X106111129Y-97788783D01*
X106120334Y-97782516D01*
X106168656Y-97752712D01*
X106292712Y-97628656D01*
X106384814Y-97479334D01*
X106439999Y-97312797D01*
X106450500Y-97210009D01*
X106450499Y-95609992D01*
X106447252Y-95578210D01*
X106439999Y-95507203D01*
X106439998Y-95507200D01*
X106428777Y-95473337D01*
X106384814Y-95340666D01*
X106292712Y-95191344D01*
X106168656Y-95067288D01*
X106019334Y-94975186D01*
X105852797Y-94920001D01*
X105852795Y-94920000D01*
X105750016Y-94909500D01*
X105750009Y-94909500D01*
X104373500Y-94909500D01*
X104306461Y-94889815D01*
X104260706Y-94837011D01*
X104249500Y-94785500D01*
X104249500Y-94301096D01*
X104269185Y-94234057D01*
X104285814Y-94213420D01*
X107587820Y-90911413D01*
X107649143Y-90877929D01*
X107718835Y-90882913D01*
X107774768Y-90924785D01*
X107799185Y-90990249D01*
X107799501Y-90999095D01*
X107799501Y-91068097D01*
X107836447Y-91301368D01*
X107909434Y-91525996D01*
X107985762Y-91675796D01*
X108016658Y-91736433D01*
X108155484Y-91927510D01*
X108322491Y-92094517D01*
X108513568Y-92233343D01*
X108612992Y-92284002D01*
X108724004Y-92340566D01*
X108724006Y-92340566D01*
X108724009Y-92340568D01*
X108816293Y-92370553D01*
X108948632Y-92413553D01*
X109181904Y-92450500D01*
X109181909Y-92450500D01*
X109418098Y-92450500D01*
X109524127Y-92433705D01*
X109651369Y-92413553D01*
X109777567Y-92372547D01*
X109847405Y-92370553D01*
X109903564Y-92402798D01*
X117465140Y-99964374D01*
X117465150Y-99964385D01*
X117469480Y-99968715D01*
X117469481Y-99968716D01*
X117581285Y-100080520D01*
X117668096Y-100130639D01*
X117668098Y-100130641D01*
X117718214Y-100159576D01*
X117718216Y-100159577D01*
X117870943Y-100200500D01*
X117870944Y-100200500D01*
X126916702Y-100200500D01*
X126983741Y-100220185D01*
X127029496Y-100272989D01*
X127039440Y-100342147D01*
X127010415Y-100405703D01*
X127004383Y-100412181D01*
X125953384Y-101463181D01*
X125892061Y-101496666D01*
X125865703Y-101499500D01*
X119820943Y-101499500D01*
X119668214Y-101540423D01*
X119635040Y-101559577D01*
X119635039Y-101559577D01*
X119531287Y-101619477D01*
X119531282Y-101619481D01*
X119419480Y-101731284D01*
X119419478Y-101731286D01*
X119250265Y-101900500D01*
X119087584Y-102063181D01*
X119026261Y-102096666D01*
X118999903Y-102099500D01*
X117874500Y-102099500D01*
X117807461Y-102079815D01*
X117761706Y-102027011D01*
X117750500Y-101975500D01*
X117750500Y-101921155D01*
X117750499Y-101921153D01*
X117731972Y-101828011D01*
X117719737Y-101766503D01*
X117678314Y-101666498D01*
X117659397Y-101620827D01*
X117659390Y-101620814D01*
X117571789Y-101489711D01*
X117571786Y-101489707D01*
X117460292Y-101378213D01*
X117460288Y-101378210D01*
X117329185Y-101290609D01*
X117329172Y-101290602D01*
X117183501Y-101230264D01*
X117183489Y-101230261D01*
X117028845Y-101199500D01*
X117028842Y-101199500D01*
X116871158Y-101199500D01*
X116871155Y-101199500D01*
X116716510Y-101230261D01*
X116716498Y-101230264D01*
X116570827Y-101290602D01*
X116570814Y-101290609D01*
X116439125Y-101378602D01*
X116421078Y-101384252D01*
X116405169Y-101394477D01*
X116374207Y-101398928D01*
X116372447Y-101399480D01*
X116370234Y-101399500D01*
X116155935Y-101399500D01*
X116088896Y-101379815D01*
X116087090Y-101378633D01*
X116030179Y-101340606D01*
X116030172Y-101340602D01*
X115884501Y-101280264D01*
X115884489Y-101280261D01*
X115729845Y-101249500D01*
X115729842Y-101249500D01*
X115572158Y-101249500D01*
X115572155Y-101249500D01*
X115417510Y-101280261D01*
X115417498Y-101280264D01*
X115271827Y-101340602D01*
X115271814Y-101340609D01*
X115140711Y-101428210D01*
X115140707Y-101428213D01*
X115029213Y-101539707D01*
X115029210Y-101539711D01*
X114941609Y-101670814D01*
X114941602Y-101670827D01*
X114881264Y-101816498D01*
X114881261Y-101816510D01*
X114850500Y-101971153D01*
X114850500Y-101975500D01*
X114830815Y-102042539D01*
X114778011Y-102088294D01*
X114726500Y-102099500D01*
X109290942Y-102099500D01*
X109267024Y-102105908D01*
X109267025Y-102105909D01*
X109138215Y-102140423D01*
X109138210Y-102140426D01*
X109001291Y-102219475D01*
X109001283Y-102219481D01*
X108889479Y-102331286D01*
X105337582Y-105883182D01*
X105276259Y-105916667D01*
X105249901Y-105919501D01*
X103902129Y-105919501D01*
X103902123Y-105919502D01*
X103842516Y-105925909D01*
X103707671Y-105976203D01*
X103707664Y-105976207D01*
X103592455Y-106062453D01*
X103592452Y-106062456D01*
X103506206Y-106177665D01*
X103506202Y-106177672D01*
X103455908Y-106312518D01*
X103449627Y-106370943D01*
X103449501Y-106372124D01*
X103449500Y-106372136D01*
X103449500Y-108167871D01*
X103449501Y-108167877D01*
X103455908Y-108227484D01*
X103506202Y-108362329D01*
X103506206Y-108362336D01*
X103592452Y-108477545D01*
X103592455Y-108477548D01*
X103707664Y-108563794D01*
X103707671Y-108563798D01*
X103839082Y-108612811D01*
X103895016Y-108654682D01*
X103919433Y-108720146D01*
X103904582Y-108788419D01*
X103883431Y-108816674D01*
X103769889Y-108930216D01*
X103644951Y-109102180D01*
X103548444Y-109291586D01*
X103548443Y-109291588D01*
X103548443Y-109291589D01*
X103528821Y-109351978D01*
X103482753Y-109493761D01*
X103449500Y-109703714D01*
X103449500Y-109916288D01*
X103482754Y-110126244D01*
X103547627Y-110325903D01*
X103548444Y-110328415D01*
X103644951Y-110517821D01*
X103769890Y-110689787D01*
X103920213Y-110840110D01*
X104092179Y-110965049D01*
X104092181Y-110965050D01*
X104092184Y-110965052D01*
X104100942Y-110969514D01*
X104151739Y-111017488D01*
X104168535Y-111085308D01*
X104145999Y-111151444D01*
X104100949Y-111190482D01*
X104092183Y-111194948D01*
X103920213Y-111319890D01*
X103769890Y-111470213D01*
X103644951Y-111642179D01*
X103548444Y-111831585D01*
X103482753Y-112033760D01*
X103456344Y-112200500D01*
X103449500Y-112243713D01*
X103449500Y-112456287D01*
X103482754Y-112666243D01*
X103535543Y-112828711D01*
X103548444Y-112868414D01*
X103644951Y-113057820D01*
X103769890Y-113229786D01*
X103920213Y-113380109D01*
X104092179Y-113505048D01*
X104092181Y-113505049D01*
X104092184Y-113505051D01*
X104281588Y-113601557D01*
X104483757Y-113667246D01*
X104693713Y-113700500D01*
X104693714Y-113700500D01*
X104906286Y-113700500D01*
X104906287Y-113700500D01*
X105116243Y-113667246D01*
X105318412Y-113601557D01*
X105507816Y-113505051D01*
X105584276Y-113449500D01*
X105679786Y-113380109D01*
X105679788Y-113380106D01*
X105679792Y-113380104D01*
X105830104Y-113229792D01*
X105830106Y-113229788D01*
X105830109Y-113229786D01*
X105955048Y-113057820D01*
X105955047Y-113057820D01*
X105955051Y-113057816D01*
X106051557Y-112868412D01*
X106117246Y-112666243D01*
X106150500Y-112456287D01*
X106150500Y-112243713D01*
X106117246Y-112033757D01*
X106103507Y-111991476D01*
X106103072Y-111976262D01*
X106097754Y-111962000D01*
X106102094Y-111942049D01*
X106101511Y-111921637D01*
X106109601Y-111907547D01*
X106112608Y-111893727D01*
X106133760Y-111865474D01*
X106163419Y-111835817D01*
X106224743Y-111802334D01*
X106251097Y-111799501D01*
X110771119Y-111799501D01*
X110838158Y-111819186D01*
X110858800Y-111835820D01*
X111913354Y-112890374D01*
X111913364Y-112890385D01*
X111917694Y-112894715D01*
X111917695Y-112894716D01*
X112029499Y-113006520D01*
X112116310Y-113056639D01*
X112116312Y-113056641D01*
X112154366Y-113078611D01*
X112166430Y-113085577D01*
X112319158Y-113126501D01*
X112319161Y-113126501D01*
X112484868Y-113126501D01*
X112484884Y-113126500D01*
X140187331Y-113126500D01*
X140187347Y-113126501D01*
X140194943Y-113126501D01*
X140353054Y-113126501D01*
X140353057Y-113126501D01*
X140505785Y-113085577D01*
X140555904Y-113056639D01*
X140642716Y-113006520D01*
X140754520Y-112894716D01*
X140754520Y-112894714D01*
X140764728Y-112884507D01*
X140764729Y-112884504D01*
X140820522Y-112828711D01*
X185649500Y-112828711D01*
X185649500Y-113071288D01*
X185681161Y-113311785D01*
X185743947Y-113546104D01*
X185794126Y-113667246D01*
X185836776Y-113770212D01*
X185958064Y-113980289D01*
X185958066Y-113980292D01*
X185958067Y-113980293D01*
X186105733Y-114172736D01*
X186105739Y-114172743D01*
X186277256Y-114344260D01*
X186277262Y-114344265D01*
X186469711Y-114491936D01*
X186679788Y-114613224D01*
X186903900Y-114706054D01*
X187138211Y-114768838D01*
X187318586Y-114792584D01*
X187378711Y-114800500D01*
X187378712Y-114800500D01*
X187621289Y-114800500D01*
X187669388Y-114794167D01*
X187861789Y-114768838D01*
X188096100Y-114706054D01*
X188320212Y-114613224D01*
X188530289Y-114491936D01*
X188722738Y-114344265D01*
X188894265Y-114172738D01*
X189041936Y-113980289D01*
X189163224Y-113770212D01*
X189256054Y-113546100D01*
X189318838Y-113311789D01*
X189350500Y-113071288D01*
X189350500Y-112828712D01*
X189318838Y-112588211D01*
X189256054Y-112353900D01*
X189163224Y-112129788D01*
X189041936Y-111919711D01*
X188894265Y-111727262D01*
X188894260Y-111727256D01*
X188722743Y-111555739D01*
X188722736Y-111555733D01*
X188530293Y-111408067D01*
X188530292Y-111408066D01*
X188530289Y-111408064D01*
X188358661Y-111308974D01*
X188320214Y-111286777D01*
X188320205Y-111286773D01*
X188096104Y-111193947D01*
X187932406Y-111150084D01*
X187861789Y-111131162D01*
X187861788Y-111131161D01*
X187861785Y-111131161D01*
X187621289Y-111099500D01*
X187621288Y-111099500D01*
X187378712Y-111099500D01*
X187378711Y-111099500D01*
X187138214Y-111131161D01*
X186903895Y-111193947D01*
X186679794Y-111286773D01*
X186679785Y-111286777D01*
X186511805Y-111383761D01*
X186482165Y-111400874D01*
X186469706Y-111408067D01*
X186277263Y-111555733D01*
X186277256Y-111555739D01*
X186105739Y-111727256D01*
X186105733Y-111727263D01*
X185958067Y-111919706D01*
X185836777Y-112129785D01*
X185836773Y-112129794D01*
X185743947Y-112353895D01*
X185681161Y-112588214D01*
X185649500Y-112828711D01*
X140820522Y-112828711D01*
X141414662Y-112234572D01*
X141475983Y-112201089D01*
X141478150Y-112200638D01*
X141536085Y-112189113D01*
X141633497Y-112169737D01*
X141779179Y-112109394D01*
X141910289Y-112021789D01*
X142021789Y-111910289D01*
X142109394Y-111779179D01*
X142169737Y-111633497D01*
X142200500Y-111478842D01*
X142200500Y-111321158D01*
X142200500Y-111321155D01*
X142200499Y-111321153D01*
X142175196Y-111193947D01*
X142169737Y-111166503D01*
X142169735Y-111166498D01*
X142109397Y-111020827D01*
X142109390Y-111020814D01*
X142021789Y-110889711D01*
X142021786Y-110889707D01*
X141910292Y-110778213D01*
X141910288Y-110778210D01*
X141779185Y-110690609D01*
X141779172Y-110690602D01*
X141633501Y-110630264D01*
X141633489Y-110630261D01*
X141478845Y-110599500D01*
X141478842Y-110599500D01*
X141321158Y-110599500D01*
X141321155Y-110599500D01*
X141166510Y-110630261D01*
X141166498Y-110630264D01*
X141020827Y-110690602D01*
X141020814Y-110690609D01*
X140889711Y-110778210D01*
X140889707Y-110778213D01*
X140778213Y-110889707D01*
X140778210Y-110889711D01*
X140690609Y-111020814D01*
X140690602Y-111020827D01*
X140630264Y-111166498D01*
X140630261Y-111166508D01*
X140599361Y-111321850D01*
X140566976Y-111383761D01*
X140565425Y-111385339D01*
X140061584Y-111889181D01*
X140000261Y-111922666D01*
X139973903Y-111925500D01*
X112698312Y-111925500D01*
X112631273Y-111905815D01*
X112610631Y-111889181D01*
X111558806Y-110837356D01*
X111558804Y-110837353D01*
X111439933Y-110718482D01*
X111439932Y-110718481D01*
X111353120Y-110668361D01*
X111353120Y-110668360D01*
X111353116Y-110668359D01*
X111303001Y-110639424D01*
X111150273Y-110598500D01*
X110992159Y-110598500D01*
X110984563Y-110598500D01*
X110984547Y-110598501D01*
X108656290Y-110598501D01*
X108589251Y-110578816D01*
X108543496Y-110526012D01*
X108533552Y-110456854D01*
X108545805Y-110418206D01*
X108552109Y-110405834D01*
X108591557Y-110328413D01*
X108657246Y-110126244D01*
X108690500Y-109916288D01*
X108690500Y-109703714D01*
X108657246Y-109493758D01*
X108633870Y-109421817D01*
X108631876Y-109351978D01*
X108667956Y-109292145D01*
X108730657Y-109261317D01*
X108751802Y-109259501D01*
X115154387Y-109259501D01*
X115154403Y-109259502D01*
X115161999Y-109259502D01*
X115320110Y-109259502D01*
X115320113Y-109259502D01*
X115472841Y-109218578D01*
X115531145Y-109184916D01*
X115609772Y-109139521D01*
X115721576Y-109027717D01*
X115721576Y-109027715D01*
X115731780Y-109017512D01*
X115731783Y-109017507D01*
X117180056Y-107569234D01*
X119364500Y-107569234D01*
X119364500Y-107720766D01*
X119368264Y-107734813D01*
X119403719Y-107867136D01*
X119416415Y-107889125D01*
X119479485Y-107998365D01*
X119586635Y-108105515D01*
X119694649Y-108167877D01*
X119717731Y-108181204D01*
X119717865Y-108181281D01*
X119864234Y-108220500D01*
X119864236Y-108220500D01*
X120015764Y-108220500D01*
X120015766Y-108220500D01*
X120162135Y-108181281D01*
X120293365Y-108105515D01*
X120400515Y-107998365D01*
X120476281Y-107867135D01*
X120515500Y-107720766D01*
X120515500Y-107569234D01*
X120476281Y-107422865D01*
X120400515Y-107291635D01*
X120293365Y-107184485D01*
X120227750Y-107146602D01*
X120162136Y-107108719D01*
X120088950Y-107089109D01*
X120015766Y-107069500D01*
X119864234Y-107069500D01*
X119717863Y-107108719D01*
X119586635Y-107184485D01*
X119586632Y-107184487D01*
X119479487Y-107291632D01*
X119479485Y-107291635D01*
X119403719Y-107422863D01*
X119392378Y-107465191D01*
X119364500Y-107569234D01*
X117180056Y-107569234D01*
X118850490Y-105898801D01*
X118911811Y-105865318D01*
X118981503Y-105870302D01*
X119007060Y-105883382D01*
X119120814Y-105959390D01*
X119120827Y-105959397D01*
X119249748Y-106012797D01*
X119266503Y-106019737D01*
X119421153Y-106050499D01*
X119421156Y-106050500D01*
X119421158Y-106050500D01*
X119578844Y-106050500D01*
X119578845Y-106050499D01*
X119733497Y-106019737D01*
X119879179Y-105959394D01*
X119889115Y-105952755D01*
X120010875Y-105871398D01*
X120077553Y-105850520D01*
X120079766Y-105850500D01*
X123949903Y-105850500D01*
X124016942Y-105870185D01*
X124037584Y-105886819D01*
X124415425Y-106264660D01*
X124448910Y-106325983D01*
X124449361Y-106328149D01*
X124480261Y-106483491D01*
X124480264Y-106483501D01*
X124540602Y-106629172D01*
X124540609Y-106629185D01*
X124628210Y-106760288D01*
X124628213Y-106760292D01*
X124739707Y-106871786D01*
X124739711Y-106871789D01*
X124870814Y-106959390D01*
X124870827Y-106959397D01*
X125010021Y-107017052D01*
X125016503Y-107019737D01*
X125171153Y-107050499D01*
X125171156Y-107050500D01*
X125171158Y-107050500D01*
X125328844Y-107050500D01*
X125328845Y-107050499D01*
X125483497Y-107019737D01*
X125629179Y-106959394D01*
X125760289Y-106871789D01*
X125871789Y-106760289D01*
X125959394Y-106629179D01*
X126019737Y-106483497D01*
X126050500Y-106328842D01*
X126050500Y-106171158D01*
X126050500Y-106171155D01*
X126050499Y-106171153D01*
X126029421Y-106065187D01*
X126019737Y-106016503D01*
X126013164Y-106000634D01*
X125959397Y-105870827D01*
X125959390Y-105870814D01*
X125871789Y-105739711D01*
X125871786Y-105739707D01*
X125760292Y-105628213D01*
X125760288Y-105628210D01*
X125629185Y-105540609D01*
X125629172Y-105540602D01*
X125483501Y-105480264D01*
X125483491Y-105480261D01*
X125328151Y-105449362D01*
X125311394Y-105440596D01*
X125292916Y-105436577D01*
X125267877Y-105417832D01*
X125266241Y-105416977D01*
X125264662Y-105415426D01*
X125136917Y-105287681D01*
X125103432Y-105226358D01*
X125108416Y-105156666D01*
X125136917Y-105112319D01*
X125230520Y-105018716D01*
X125230520Y-105018714D01*
X125240724Y-105008511D01*
X125240727Y-105008506D01*
X128213416Y-102035819D01*
X128274739Y-102002334D01*
X128301097Y-101999500D01*
X130311955Y-101999500D01*
X130378994Y-102019185D01*
X130424749Y-102071989D01*
X130433572Y-102099309D01*
X130460262Y-102233489D01*
X130460265Y-102233501D01*
X130520603Y-102379172D01*
X130520610Y-102379185D01*
X130608211Y-102510288D01*
X130608214Y-102510292D01*
X130719711Y-102621789D01*
X130849719Y-102708657D01*
X130850822Y-102709394D01*
X130874476Y-102719191D01*
X130914704Y-102746071D01*
X134023630Y-105854997D01*
X134057115Y-105916320D01*
X134052131Y-105986012D01*
X134010259Y-106041945D01*
X133974268Y-106060609D01*
X133824003Y-106109433D01*
X133613566Y-106216657D01*
X133524533Y-106281344D01*
X133422490Y-106355483D01*
X133422488Y-106355485D01*
X133418786Y-106358647D01*
X133417305Y-106356913D01*
X133364110Y-106385791D01*
X133294431Y-106380635D01*
X133238601Y-106338626D01*
X133232511Y-106329656D01*
X133221940Y-106312518D01*
X133202712Y-106281344D01*
X133078656Y-106157288D01*
X132929334Y-106065186D01*
X132762797Y-106010001D01*
X132762795Y-106010000D01*
X132660010Y-105999500D01*
X131059998Y-105999500D01*
X131059981Y-105999501D01*
X130957203Y-106010000D01*
X130957200Y-106010001D01*
X130790668Y-106065185D01*
X130790663Y-106065187D01*
X130641342Y-106157289D01*
X130517289Y-106281342D01*
X130425187Y-106430663D01*
X130425185Y-106430668D01*
X130407678Y-106483501D01*
X130370001Y-106597203D01*
X130370001Y-106597204D01*
X130370000Y-106597204D01*
X130359500Y-106699983D01*
X130359500Y-108300001D01*
X130359501Y-108300018D01*
X130370000Y-108402796D01*
X130370001Y-108402799D01*
X130425185Y-108569331D01*
X130425187Y-108569336D01*
X130451746Y-108612395D01*
X130517288Y-108718656D01*
X130641344Y-108842712D01*
X130790666Y-108934814D01*
X130957203Y-108989999D01*
X131059991Y-109000500D01*
X132660008Y-109000499D01*
X132762797Y-108989999D01*
X132929334Y-108934814D01*
X133078656Y-108842712D01*
X133202712Y-108718656D01*
X133232512Y-108670341D01*
X133284458Y-108623618D01*
X133353420Y-108612395D01*
X133417503Y-108640238D01*
X133418758Y-108641385D01*
X133418786Y-108641353D01*
X133422481Y-108644508D01*
X133422490Y-108644517D01*
X133613567Y-108783343D01*
X133678983Y-108816674D01*
X133824003Y-108890566D01*
X133824005Y-108890566D01*
X133824008Y-108890568D01*
X133944412Y-108929689D01*
X134048631Y-108963553D01*
X134281903Y-109000500D01*
X134281908Y-109000500D01*
X134518097Y-109000500D01*
X134751368Y-108963553D01*
X134975992Y-108890568D01*
X135186433Y-108783343D01*
X135377510Y-108644517D01*
X135544517Y-108477510D01*
X135683343Y-108286433D01*
X135790568Y-108075992D01*
X135863553Y-107851368D01*
X135873524Y-107788413D01*
X135900500Y-107618097D01*
X135900500Y-107381902D01*
X135871256Y-107197268D01*
X135863553Y-107148632D01*
X135863552Y-107148628D01*
X135863552Y-107148627D01*
X135838063Y-107070180D01*
X135836068Y-107000339D01*
X135872148Y-106940506D01*
X135934849Y-106909678D01*
X135955994Y-106907862D01*
X138645132Y-106907862D01*
X138712171Y-106927547D01*
X138732813Y-106944181D01*
X141381148Y-109592515D01*
X144017049Y-112228416D01*
X144121584Y-112332951D01*
X144121587Y-112332953D01*
X144121588Y-112332954D01*
X144244503Y-112415083D01*
X144244506Y-112415085D01*
X144278238Y-112429057D01*
X144278239Y-112429057D01*
X144381088Y-112471659D01*
X144497241Y-112494763D01*
X144516468Y-112498587D01*
X144526081Y-112500500D01*
X144526082Y-112500500D01*
X165073920Y-112500500D01*
X165171462Y-112481096D01*
X165218913Y-112471658D01*
X165355495Y-112415084D01*
X165447064Y-112353900D01*
X165447066Y-112353899D01*
X165478409Y-112332957D01*
X165478413Y-112332954D01*
X165478416Y-112332952D01*
X166277588Y-111533778D01*
X166338909Y-111500295D01*
X166397358Y-111501685D01*
X166562649Y-111545976D01*
X166786905Y-111575500D01*
X166786912Y-111575500D01*
X167013088Y-111575500D01*
X167013095Y-111575500D01*
X167237351Y-111545976D01*
X167455834Y-111487433D01*
X167664806Y-111400874D01*
X167860693Y-111287779D01*
X168040142Y-111150083D01*
X168200083Y-110990142D01*
X168337779Y-110810693D01*
X168450874Y-110614806D01*
X168537433Y-110405834D01*
X168595976Y-110187351D01*
X168625500Y-109963095D01*
X168625500Y-109736911D01*
X169874500Y-109736911D01*
X169874500Y-109963088D01*
X169874501Y-109963104D01*
X169904023Y-110187347D01*
X169962567Y-110405834D01*
X170049120Y-110614794D01*
X170049127Y-110614809D01*
X170162220Y-110810692D01*
X170299915Y-110990140D01*
X170299921Y-110990147D01*
X170459852Y-111150078D01*
X170459859Y-111150084D01*
X170639307Y-111287779D01*
X170835190Y-111400872D01*
X170835205Y-111400879D01*
X170852559Y-111408067D01*
X171044166Y-111487433D01*
X171262649Y-111545976D01*
X171486905Y-111575500D01*
X171486912Y-111575500D01*
X171713088Y-111575500D01*
X171713095Y-111575500D01*
X171937351Y-111545976D01*
X172155834Y-111487433D01*
X172364806Y-111400874D01*
X172560693Y-111287779D01*
X172740142Y-111150083D01*
X172900083Y-110990142D01*
X173037779Y-110810693D01*
X173150874Y-110614806D01*
X173237433Y-110405834D01*
X173295976Y-110187351D01*
X173325500Y-109963095D01*
X173325500Y-109736905D01*
X173295976Y-109512649D01*
X173251686Y-109347358D01*
X173253349Y-109277511D01*
X173283778Y-109227588D01*
X174124548Y-108386819D01*
X174185871Y-108353334D01*
X174212229Y-108350500D01*
X178481412Y-108350500D01*
X178548451Y-108370185D01*
X178594206Y-108422989D01*
X178598454Y-108433546D01*
X178628733Y-108520080D01*
X178745714Y-108762994D01*
X178755879Y-108779172D01*
X178889162Y-108991289D01*
X179057266Y-109202085D01*
X179247915Y-109392734D01*
X179458711Y-109560838D01*
X179687003Y-109704284D01*
X179929921Y-109821267D01*
X180121049Y-109888145D01*
X180184397Y-109910312D01*
X180184405Y-109910315D01*
X180184408Y-109910315D01*
X180184409Y-109910316D01*
X180447268Y-109970312D01*
X180715187Y-110000499D01*
X180715188Y-110000500D01*
X180715191Y-110000500D01*
X180984812Y-110000500D01*
X180984812Y-110000499D01*
X181252732Y-109970312D01*
X181515591Y-109910316D01*
X181770079Y-109821267D01*
X182012997Y-109704284D01*
X182241289Y-109560838D01*
X182452085Y-109392734D01*
X182642734Y-109202085D01*
X182810838Y-108991289D01*
X182954284Y-108762997D01*
X183071267Y-108520079D01*
X183160316Y-108265591D01*
X183220312Y-108002732D01*
X183250500Y-107734809D01*
X183250500Y-107465191D01*
X183220312Y-107197268D01*
X183160316Y-106934409D01*
X183071267Y-106679921D01*
X182954284Y-106437003D01*
X182952891Y-106434786D01*
X182952890Y-106434783D01*
X182952887Y-106434780D01*
X182913525Y-106372136D01*
X186149500Y-106372136D01*
X186149500Y-108167871D01*
X186149501Y-108167877D01*
X186155908Y-108227484D01*
X186206202Y-108362329D01*
X186206206Y-108362336D01*
X186292452Y-108477545D01*
X186292455Y-108477548D01*
X186407664Y-108563794D01*
X186407671Y-108563798D01*
X186542517Y-108614092D01*
X186542516Y-108614092D01*
X186549444Y-108614836D01*
X186602127Y-108620501D01*
X188397872Y-108620500D01*
X188457483Y-108614092D01*
X188592331Y-108563797D01*
X188707546Y-108477547D01*
X188793796Y-108362332D01*
X188844091Y-108227484D01*
X188850500Y-108167874D01*
X188850499Y-106372129D01*
X188844091Y-106312518D01*
X188838950Y-106298735D01*
X188793797Y-106177672D01*
X188793793Y-106177665D01*
X188707547Y-106062456D01*
X188707544Y-106062453D01*
X188592335Y-105976207D01*
X188592328Y-105976203D01*
X188457482Y-105925909D01*
X188457483Y-105925909D01*
X188397883Y-105919502D01*
X188397881Y-105919501D01*
X188397873Y-105919501D01*
X188397864Y-105919501D01*
X186602129Y-105919501D01*
X186602123Y-105919502D01*
X186542516Y-105925909D01*
X186407671Y-105976203D01*
X186407664Y-105976207D01*
X186292455Y-106062453D01*
X186292452Y-106062456D01*
X186206206Y-106177665D01*
X186206202Y-106177672D01*
X186155908Y-106312518D01*
X186149627Y-106370943D01*
X186149501Y-106372124D01*
X186149500Y-106372136D01*
X182913525Y-106372136D01*
X182810838Y-106208711D01*
X182642734Y-105997915D01*
X182452085Y-105807266D01*
X182415203Y-105777854D01*
X182390936Y-105758501D01*
X182241289Y-105639162D01*
X182012997Y-105495716D01*
X182012994Y-105495714D01*
X181770082Y-105378734D01*
X181515602Y-105289687D01*
X181515594Y-105289684D01*
X181318446Y-105244687D01*
X181252732Y-105229688D01*
X181252728Y-105229687D01*
X181252719Y-105229686D01*
X180984813Y-105199500D01*
X180984809Y-105199500D01*
X180715191Y-105199500D01*
X180715186Y-105199500D01*
X180447280Y-105229686D01*
X180447268Y-105229688D01*
X180184405Y-105289684D01*
X180184397Y-105289687D01*
X179929917Y-105378734D01*
X179687005Y-105495714D01*
X179458712Y-105639161D01*
X179247915Y-105807265D01*
X179057265Y-105997915D01*
X178889161Y-106208712D01*
X178745714Y-106437005D01*
X178628733Y-106679919D01*
X178604177Y-106750097D01*
X178600612Y-106760288D01*
X178598454Y-106766454D01*
X178557732Y-106823230D01*
X178492780Y-106848978D01*
X178481412Y-106849500D01*
X173776076Y-106849500D01*
X173747242Y-106855234D01*
X173747243Y-106855235D01*
X173631093Y-106878339D01*
X173631089Y-106878340D01*
X173565677Y-106905435D01*
X173565672Y-106905437D01*
X173559819Y-106907862D01*
X173494505Y-106934916D01*
X173429777Y-106978166D01*
X173424932Y-106981403D01*
X173424925Y-106981407D01*
X173371582Y-107017049D01*
X173371579Y-107017052D01*
X172222411Y-108166219D01*
X172161088Y-108199704D01*
X172102638Y-108198313D01*
X171937351Y-108154024D01*
X171937348Y-108154023D01*
X171937346Y-108154023D01*
X171713104Y-108124501D01*
X171713101Y-108124500D01*
X171713095Y-108124500D01*
X171486905Y-108124500D01*
X171486899Y-108124500D01*
X171486895Y-108124501D01*
X171262652Y-108154023D01*
X171044165Y-108212567D01*
X170835205Y-108299120D01*
X170835190Y-108299127D01*
X170639307Y-108412220D01*
X170459859Y-108549915D01*
X170459852Y-108549921D01*
X170299921Y-108709852D01*
X170299915Y-108709859D01*
X170162220Y-108889307D01*
X170049127Y-109085190D01*
X170049120Y-109085205D01*
X169962567Y-109294165D01*
X169904023Y-109512652D01*
X169874501Y-109736895D01*
X169874500Y-109736911D01*
X168625500Y-109736911D01*
X168625500Y-109736905D01*
X168595976Y-109512649D01*
X168537433Y-109294166D01*
X168473376Y-109139519D01*
X168450879Y-109085205D01*
X168450872Y-109085190D01*
X168337779Y-108889307D01*
X168200084Y-108709859D01*
X168200078Y-108709852D01*
X168040147Y-108549921D01*
X168040140Y-108549915D01*
X167860692Y-108412220D01*
X167664809Y-108299127D01*
X167664794Y-108299120D01*
X167455834Y-108212567D01*
X167339074Y-108181281D01*
X167237351Y-108154024D01*
X167237350Y-108154023D01*
X167237347Y-108154023D01*
X167013104Y-108124501D01*
X167013101Y-108124500D01*
X167013095Y-108124500D01*
X166786905Y-108124500D01*
X166786899Y-108124500D01*
X166786895Y-108124501D01*
X166562652Y-108154023D01*
X166344165Y-108212567D01*
X166135205Y-108299120D01*
X166135190Y-108299127D01*
X165939307Y-108412220D01*
X165759860Y-108549914D01*
X165599917Y-108709858D01*
X165586696Y-108727087D01*
X165530266Y-108768286D01*
X165460519Y-108772437D01*
X165400643Y-108739276D01*
X158028421Y-101367052D01*
X158028414Y-101367046D01*
X157954729Y-101317812D01*
X157954729Y-101317813D01*
X157905491Y-101284913D01*
X157768917Y-101228343D01*
X157768907Y-101228340D01*
X157623920Y-101199500D01*
X157623918Y-101199500D01*
X152058843Y-101199500D01*
X151901159Y-101199500D01*
X151901156Y-101199500D01*
X151746511Y-101230261D01*
X151746499Y-101230264D01*
X151600828Y-101290602D01*
X151600815Y-101290609D01*
X151469712Y-101378210D01*
X151469708Y-101378213D01*
X151358214Y-101489707D01*
X151358211Y-101489711D01*
X151270610Y-101620814D01*
X151270603Y-101620827D01*
X151210265Y-101766498D01*
X151210262Y-101766510D01*
X151179501Y-101921153D01*
X151179501Y-102078846D01*
X151210262Y-102233489D01*
X151210265Y-102233501D01*
X151270603Y-102379172D01*
X151270610Y-102379185D01*
X151358211Y-102510288D01*
X151358214Y-102510292D01*
X151469708Y-102621786D01*
X151469712Y-102621789D01*
X151600815Y-102709390D01*
X151600828Y-102709397D01*
X151734370Y-102764711D01*
X151746504Y-102769737D01*
X151901154Y-102800499D01*
X151901157Y-102800500D01*
X151901159Y-102800500D01*
X152058845Y-102800500D01*
X152058846Y-102800499D01*
X152213498Y-102769737D01*
X152312740Y-102728630D01*
X152357865Y-102709939D01*
X152405317Y-102700500D01*
X156414127Y-102700500D01*
X156481166Y-102720185D01*
X156526921Y-102772989D01*
X156536865Y-102842147D01*
X156518378Y-102890392D01*
X156518479Y-102890446D01*
X156518049Y-102891249D01*
X156517229Y-102893391D01*
X156515609Y-102895814D01*
X156515602Y-102895827D01*
X156455264Y-103041498D01*
X156455261Y-103041508D01*
X156424361Y-103196850D01*
X156391976Y-103258761D01*
X156390425Y-103260339D01*
X154887584Y-104763181D01*
X154826261Y-104796666D01*
X154799903Y-104799500D01*
X148224500Y-104799500D01*
X148157461Y-104779815D01*
X148111706Y-104727011D01*
X148100500Y-104675500D01*
X148100500Y-104571155D01*
X148100499Y-104571153D01*
X148089507Y-104515892D01*
X148069737Y-104416503D01*
X148042281Y-104350217D01*
X148009397Y-104270827D01*
X148009390Y-104270814D01*
X147921789Y-104139711D01*
X147921786Y-104139707D01*
X147904770Y-104122691D01*
X147872676Y-104067104D01*
X147867959Y-104049500D01*
X147859577Y-104018216D01*
X147806048Y-103925500D01*
X147780524Y-103881290D01*
X147780518Y-103881282D01*
X147193628Y-103294392D01*
X146552232Y-102652997D01*
X146518748Y-102591675D01*
X146523732Y-102521983D01*
X146565604Y-102466050D01*
X146571001Y-102462230D01*
X146657553Y-102404398D01*
X146769053Y-102292898D01*
X146856658Y-102161788D01*
X146917001Y-102016106D01*
X146947764Y-101861451D01*
X146947902Y-101860759D01*
X146980287Y-101798848D01*
X146981780Y-101797327D01*
X147842290Y-100936819D01*
X147903613Y-100903334D01*
X147929971Y-100900500D01*
X150383331Y-100900500D01*
X150383347Y-100900501D01*
X150390943Y-100900501D01*
X150549054Y-100900501D01*
X150549057Y-100900501D01*
X150701785Y-100859577D01*
X150751904Y-100830639D01*
X150838716Y-100780520D01*
X150950520Y-100668716D01*
X150950520Y-100668714D01*
X150960728Y-100658507D01*
X150960729Y-100658504D01*
X154534662Y-97084572D01*
X154595983Y-97051089D01*
X154598150Y-97050638D01*
X154656085Y-97039113D01*
X154753497Y-97019737D01*
X154899179Y-96959394D01*
X155030289Y-96871789D01*
X155141789Y-96760289D01*
X155229394Y-96629179D01*
X155232719Y-96621153D01*
X155250102Y-96579185D01*
X155289737Y-96483497D01*
X155320500Y-96328842D01*
X155320500Y-96171158D01*
X155320500Y-96171155D01*
X155320499Y-96171153D01*
X155302012Y-96078213D01*
X155289737Y-96016503D01*
X155284278Y-96003324D01*
X155229397Y-95870827D01*
X155229390Y-95870814D01*
X155141789Y-95739711D01*
X155141786Y-95739707D01*
X155030292Y-95628213D01*
X155030288Y-95628210D01*
X154899185Y-95540609D01*
X154899172Y-95540602D01*
X154753501Y-95480264D01*
X154753489Y-95480261D01*
X154598845Y-95449500D01*
X154598842Y-95449500D01*
X154441158Y-95449500D01*
X154441155Y-95449500D01*
X154286510Y-95480261D01*
X154286498Y-95480264D01*
X154140827Y-95540602D01*
X154140814Y-95540609D01*
X154009711Y-95628210D01*
X154009707Y-95628213D01*
X153972681Y-95665240D01*
X153911358Y-95698725D01*
X153841666Y-95693741D01*
X153797319Y-95665240D01*
X153760292Y-95628213D01*
X153760288Y-95628210D01*
X153629185Y-95540609D01*
X153629172Y-95540602D01*
X153483501Y-95480264D01*
X153483494Y-95480262D01*
X153448682Y-95473337D01*
X153439678Y-95468626D01*
X153429542Y-95467902D01*
X153409239Y-95452703D01*
X153386772Y-95440950D01*
X153381743Y-95432119D01*
X153373609Y-95426030D01*
X153364747Y-95402270D01*
X153352199Y-95380234D01*
X153352743Y-95370086D01*
X153349192Y-95360566D01*
X153354582Y-95335788D01*
X153355940Y-95310464D01*
X153362279Y-95300403D01*
X153364044Y-95292293D01*
X153385189Y-95264045D01*
X153512418Y-95136816D01*
X153573739Y-95103334D01*
X153600097Y-95100500D01*
X155749903Y-95100500D01*
X155816942Y-95120185D01*
X155837584Y-95136819D01*
X157115425Y-96414660D01*
X157148910Y-96475983D01*
X157149361Y-96478149D01*
X157180261Y-96633491D01*
X157180264Y-96633501D01*
X157240602Y-96779172D01*
X157240609Y-96779185D01*
X157328210Y-96910288D01*
X157328213Y-96910292D01*
X157439707Y-97021786D01*
X157439711Y-97021789D01*
X157570814Y-97109390D01*
X157570827Y-97109397D01*
X157706064Y-97165413D01*
X157716503Y-97169737D01*
X157866131Y-97199500D01*
X157871153Y-97200499D01*
X157871156Y-97200500D01*
X157871158Y-97200500D01*
X158028844Y-97200500D01*
X158028845Y-97200499D01*
X158183497Y-97169737D01*
X158329179Y-97109394D01*
X158460289Y-97021789D01*
X158571789Y-96910289D01*
X158659394Y-96779179D01*
X158719737Y-96633497D01*
X158750500Y-96478842D01*
X158750500Y-96321158D01*
X158750500Y-96321155D01*
X158750499Y-96321153D01*
X158750432Y-96320814D01*
X158719737Y-96166503D01*
X158700955Y-96121158D01*
X158659397Y-96020827D01*
X158659390Y-96020814D01*
X158571789Y-95889711D01*
X158571786Y-95889707D01*
X158460292Y-95778213D01*
X158460288Y-95778210D01*
X158329185Y-95690609D01*
X158329172Y-95690602D01*
X158183501Y-95630264D01*
X158183491Y-95630261D01*
X158028151Y-95599362D01*
X157966241Y-95566977D01*
X157964662Y-95565426D01*
X157663274Y-95264038D01*
X157310415Y-94911180D01*
X157276931Y-94849858D01*
X157281915Y-94780167D01*
X157323786Y-94724233D01*
X157389251Y-94699816D01*
X157398097Y-94699500D01*
X160048903Y-94699500D01*
X160115942Y-94719185D01*
X160136584Y-94735819D01*
X161615425Y-96214660D01*
X161648910Y-96275983D01*
X161649361Y-96278149D01*
X161680261Y-96433491D01*
X161680264Y-96433501D01*
X161740602Y-96579172D01*
X161740609Y-96579185D01*
X161828210Y-96710288D01*
X161828213Y-96710292D01*
X161939707Y-96821786D01*
X161939711Y-96821789D01*
X162070814Y-96909390D01*
X162070827Y-96909397D01*
X162205861Y-96965329D01*
X162216503Y-96969737D01*
X162371153Y-97000499D01*
X162371156Y-97000500D01*
X162371158Y-97000500D01*
X162528844Y-97000500D01*
X162528845Y-97000499D01*
X162683497Y-96969737D01*
X162829179Y-96909394D01*
X162960289Y-96821789D01*
X163071789Y-96710289D01*
X163159394Y-96579179D01*
X163219737Y-96433497D01*
X163250500Y-96278842D01*
X163250500Y-96121158D01*
X163250500Y-96121155D01*
X163250499Y-96121153D01*
X163240083Y-96068789D01*
X163219737Y-95966503D01*
X163206710Y-95935052D01*
X163159397Y-95820827D01*
X163159390Y-95820814D01*
X163071789Y-95689711D01*
X163071786Y-95689707D01*
X162960292Y-95578213D01*
X162960288Y-95578210D01*
X162829185Y-95490609D01*
X162829172Y-95490602D01*
X162683501Y-95430264D01*
X162683491Y-95430261D01*
X162528151Y-95399362D01*
X162466241Y-95366977D01*
X162464662Y-95365426D01*
X160836590Y-93737355D01*
X160836588Y-93737352D01*
X160717717Y-93618481D01*
X160717716Y-93618480D01*
X160630904Y-93568360D01*
X160630904Y-93568359D01*
X160630900Y-93568358D01*
X160580785Y-93539423D01*
X160428057Y-93498499D01*
X160269943Y-93498499D01*
X160262347Y-93498499D01*
X160262331Y-93498500D01*
X153220569Y-93498500D01*
X153220553Y-93498499D01*
X153212957Y-93498499D01*
X153054843Y-93498499D01*
X152947487Y-93527265D01*
X152902110Y-93539424D01*
X152902109Y-93539425D01*
X152851996Y-93568359D01*
X152851995Y-93568360D01*
X152808589Y-93593420D01*
X152765185Y-93618479D01*
X152765182Y-93618481D01*
X152653378Y-93730286D01*
X149301576Y-97082087D01*
X149240253Y-97115572D01*
X149238087Y-97116023D01*
X149166508Y-97130261D01*
X149166498Y-97130264D01*
X149020827Y-97190602D01*
X149020814Y-97190609D01*
X148889711Y-97278210D01*
X148889707Y-97278213D01*
X148778213Y-97389707D01*
X148778210Y-97389711D01*
X148690609Y-97520814D01*
X148690602Y-97520827D01*
X148630264Y-97666498D01*
X148630261Y-97666510D01*
X148599500Y-97821153D01*
X148599500Y-97978846D01*
X148630261Y-98133489D01*
X148630264Y-98133501D01*
X148690602Y-98279172D01*
X148690609Y-98279185D01*
X148778210Y-98410288D01*
X148778213Y-98410292D01*
X148889707Y-98521786D01*
X148889711Y-98521789D01*
X149020814Y-98609390D01*
X149020827Y-98609397D01*
X149149169Y-98662557D01*
X149166503Y-98669737D01*
X149321153Y-98700499D01*
X149321156Y-98700500D01*
X149321158Y-98700500D01*
X149478844Y-98700500D01*
X149478845Y-98700499D01*
X149633497Y-98669737D01*
X149650831Y-98662556D01*
X149720300Y-98655087D01*
X149782779Y-98686361D01*
X149818433Y-98746449D01*
X149815940Y-98816274D01*
X149785966Y-98864798D01*
X149387584Y-99263181D01*
X149326261Y-99296666D01*
X149299903Y-99299500D01*
X147248077Y-99299500D01*
X147181038Y-99279815D01*
X147135283Y-99227011D01*
X147133515Y-99222950D01*
X147125825Y-99204384D01*
X147038222Y-99073278D01*
X147038219Y-99073274D01*
X146926725Y-98961780D01*
X146926721Y-98961777D01*
X146795618Y-98874176D01*
X146795605Y-98874169D01*
X146649934Y-98813831D01*
X146649922Y-98813828D01*
X146495278Y-98783067D01*
X146495275Y-98783067D01*
X146337591Y-98783067D01*
X146337588Y-98783067D01*
X146182943Y-98813828D01*
X146182931Y-98813831D01*
X146037260Y-98874169D01*
X146037247Y-98874176D01*
X145906144Y-98961777D01*
X145906140Y-98961780D01*
X145794646Y-99073274D01*
X145794643Y-99073278D01*
X145707042Y-99204381D01*
X145707035Y-99204394D01*
X145646697Y-99350065D01*
X145646695Y-99350074D01*
X145628254Y-99442778D01*
X145595868Y-99504688D01*
X145535152Y-99539262D01*
X145465383Y-99535521D01*
X145437746Y-99521687D01*
X145354920Y-99466344D01*
X145354907Y-99466337D01*
X145209236Y-99405999D01*
X145209224Y-99405996D01*
X145054580Y-99375235D01*
X145054577Y-99375235D01*
X144896893Y-99375235D01*
X144896890Y-99375235D01*
X144742245Y-99405996D01*
X144742233Y-99405999D01*
X144596562Y-99466337D01*
X144596549Y-99466344D01*
X144464860Y-99554337D01*
X144398182Y-99575215D01*
X144395969Y-99575235D01*
X141560382Y-99575235D01*
X141493343Y-99555550D01*
X141447588Y-99502746D01*
X141437644Y-99433588D01*
X141457279Y-99382345D01*
X141459391Y-99379183D01*
X141459394Y-99379179D01*
X141519737Y-99233497D01*
X141550500Y-99078842D01*
X141550500Y-98921158D01*
X141550500Y-98921155D01*
X141550499Y-98921153D01*
X141541153Y-98874169D01*
X141519737Y-98766503D01*
X141517432Y-98760939D01*
X141459397Y-98620827D01*
X141459390Y-98620814D01*
X141371789Y-98489711D01*
X141371786Y-98489707D01*
X141260292Y-98378213D01*
X141260288Y-98378210D01*
X141129185Y-98290609D01*
X141129172Y-98290602D01*
X140983501Y-98230264D01*
X140983489Y-98230261D01*
X140828845Y-98199500D01*
X140828842Y-98199500D01*
X140671158Y-98199500D01*
X140671155Y-98199500D01*
X140516510Y-98230261D01*
X140516498Y-98230264D01*
X140370827Y-98290602D01*
X140370814Y-98290609D01*
X140239711Y-98378210D01*
X140239707Y-98378213D01*
X140128213Y-98489707D01*
X140128210Y-98489711D01*
X140040609Y-98620814D01*
X140040602Y-98620827D01*
X139980264Y-98766498D01*
X139980261Y-98766508D01*
X139953769Y-98899692D01*
X139921384Y-98961603D01*
X139860668Y-98996177D01*
X139832152Y-98999500D01*
X127902190Y-98999500D01*
X127835151Y-98979815D01*
X127789396Y-98927011D01*
X127779452Y-98857853D01*
X127808477Y-98794297D01*
X127854738Y-98760939D01*
X127979172Y-98709397D01*
X127979172Y-98709396D01*
X127979179Y-98709394D01*
X127992491Y-98700499D01*
X128110875Y-98621398D01*
X128177553Y-98600520D01*
X128179766Y-98600500D01*
X137163331Y-98600500D01*
X137163347Y-98600501D01*
X137170943Y-98600501D01*
X137329054Y-98600501D01*
X137329057Y-98600501D01*
X137481785Y-98559577D01*
X137551233Y-98519481D01*
X137618716Y-98480520D01*
X137730520Y-98368716D01*
X137730520Y-98368714D01*
X137740724Y-98358511D01*
X137740727Y-98358506D01*
X138564665Y-97534570D01*
X138625984Y-97501088D01*
X138628151Y-97500637D01*
X138628840Y-97500500D01*
X138628842Y-97500500D01*
X138783497Y-97469737D01*
X138929179Y-97409394D01*
X139060289Y-97321789D01*
X139171789Y-97210289D01*
X139259394Y-97079179D01*
X139259957Y-97077821D01*
X139277837Y-97034654D01*
X139319737Y-96933497D01*
X139350500Y-96778842D01*
X139350500Y-96621158D01*
X139350500Y-96621155D01*
X139350499Y-96621153D01*
X139328447Y-96510290D01*
X139319737Y-96466503D01*
X139298263Y-96414660D01*
X139259397Y-96320827D01*
X139259390Y-96320814D01*
X139171789Y-96189711D01*
X139171786Y-96189707D01*
X139060292Y-96078213D01*
X139060288Y-96078210D01*
X138929185Y-95990609D01*
X138929172Y-95990602D01*
X138783501Y-95930264D01*
X138783489Y-95930261D01*
X138628845Y-95899500D01*
X138628842Y-95899500D01*
X138471158Y-95899500D01*
X138471155Y-95899500D01*
X138316510Y-95930261D01*
X138316498Y-95930264D01*
X138170827Y-95990602D01*
X138170814Y-95990609D01*
X138039711Y-96078210D01*
X138039709Y-96078211D01*
X138035749Y-96082172D01*
X137974424Y-96115653D01*
X137904732Y-96110664D01*
X137848801Y-96068789D01*
X137824388Y-96003324D01*
X137839244Y-95935052D01*
X137844959Y-95925611D01*
X137909394Y-95829179D01*
X137912854Y-95820827D01*
X137938263Y-95759482D01*
X137969737Y-95683497D01*
X138000500Y-95528842D01*
X138000500Y-95371158D01*
X138000500Y-95371155D01*
X138000499Y-95371153D01*
X137986426Y-95300403D01*
X137969737Y-95216503D01*
X137929841Y-95120185D01*
X137909397Y-95070827D01*
X137909390Y-95070814D01*
X137821789Y-94939711D01*
X137821786Y-94939707D01*
X137710292Y-94828213D01*
X137710288Y-94828210D01*
X137579185Y-94740609D01*
X137579172Y-94740602D01*
X137433501Y-94680264D01*
X137433491Y-94680261D01*
X137278149Y-94649361D01*
X137216238Y-94616976D01*
X137214660Y-94615425D01*
X137037590Y-94438355D01*
X137037588Y-94438352D01*
X136918717Y-94319481D01*
X136918709Y-94319475D01*
X136829923Y-94268215D01*
X136829922Y-94268215D01*
X136781785Y-94240423D01*
X136629057Y-94199499D01*
X136470943Y-94199499D01*
X136463347Y-94199499D01*
X136463331Y-94199500D01*
X122575276Y-94199500D01*
X122508237Y-94179815D01*
X122506385Y-94178602D01*
X122379185Y-94093609D01*
X122379172Y-94093602D01*
X122233501Y-94033264D01*
X122233489Y-94033261D01*
X122078845Y-94002500D01*
X122078842Y-94002500D01*
X121921158Y-94002500D01*
X121921155Y-94002500D01*
X121766510Y-94033261D01*
X121766498Y-94033264D01*
X121620827Y-94093602D01*
X121620814Y-94093609D01*
X121489714Y-94181208D01*
X121477757Y-94193165D01*
X121416432Y-94226648D01*
X121346741Y-94221661D01*
X121302397Y-94193162D01*
X119221415Y-92112180D01*
X119187930Y-92050857D01*
X119192914Y-91981165D01*
X119234786Y-91925232D01*
X119300250Y-91900815D01*
X119309096Y-91900499D01*
X120000002Y-91900499D01*
X120000008Y-91900499D01*
X120102797Y-91889999D01*
X120269334Y-91834814D01*
X120418656Y-91742712D01*
X120542712Y-91618656D01*
X120634814Y-91469334D01*
X120689999Y-91302797D01*
X120700500Y-91200009D01*
X120700499Y-89823499D01*
X120720184Y-89756461D01*
X120772987Y-89710706D01*
X120824499Y-89699500D01*
X128377331Y-89699500D01*
X128406771Y-89708144D01*
X128436758Y-89714668D01*
X128441773Y-89718422D01*
X128444370Y-89719185D01*
X128465012Y-89735819D01*
X128568082Y-89838889D01*
X128601567Y-89900212D01*
X128598332Y-89964887D01*
X128557329Y-90091082D01*
X128520382Y-90324356D01*
X128520382Y-90560551D01*
X128557328Y-90793822D01*
X128630315Y-91018450D01*
X128722825Y-91200009D01*
X128737539Y-91228887D01*
X128876365Y-91419964D01*
X129043372Y-91586971D01*
X129234449Y-91725797D01*
X129267643Y-91742710D01*
X129444885Y-91833020D01*
X129444887Y-91833020D01*
X129444890Y-91833022D01*
X129565294Y-91872143D01*
X129669513Y-91906007D01*
X129902785Y-91942954D01*
X129902790Y-91942954D01*
X130138979Y-91942954D01*
X130372250Y-91906007D01*
X130389205Y-91900498D01*
X130596874Y-91833022D01*
X130807315Y-91725797D01*
X130998392Y-91586971D01*
X130998398Y-91586965D01*
X131002103Y-91583802D01*
X131003666Y-91585633D01*
X131056174Y-91556793D01*
X131125878Y-91561606D01*
X131181914Y-91603339D01*
X131188369Y-91612796D01*
X131218169Y-91661109D01*
X131218170Y-91661110D01*
X131342226Y-91785166D01*
X131491548Y-91877268D01*
X131658085Y-91932453D01*
X131760873Y-91942954D01*
X133360890Y-91942953D01*
X133463679Y-91932453D01*
X133630216Y-91877268D01*
X133779538Y-91785166D01*
X133903594Y-91661110D01*
X133995696Y-91511788D01*
X134050881Y-91345251D01*
X134061382Y-91242463D01*
X134061381Y-89815953D01*
X134081066Y-89748915D01*
X134133869Y-89703160D01*
X134185381Y-89691954D01*
X141869785Y-89691954D01*
X141899225Y-89700598D01*
X141929212Y-89707122D01*
X141934227Y-89710876D01*
X141936824Y-89711639D01*
X141957466Y-89728273D01*
X142018082Y-89788889D01*
X142051567Y-89850212D01*
X142048332Y-89914887D01*
X142007329Y-90041082D01*
X141970382Y-90274356D01*
X141970382Y-90510551D01*
X142007328Y-90743822D01*
X142080315Y-90968450D01*
X142169348Y-91143186D01*
X142187539Y-91178887D01*
X142326365Y-91369964D01*
X142493372Y-91536971D01*
X142684449Y-91675797D01*
X142782578Y-91725796D01*
X142894885Y-91783020D01*
X142894887Y-91783020D01*
X142894890Y-91783022D01*
X143010398Y-91820553D01*
X143119513Y-91856007D01*
X143352785Y-91892954D01*
X143352790Y-91892954D01*
X143588979Y-91892954D01*
X143822250Y-91856007D01*
X143892996Y-91833020D01*
X144046874Y-91783022D01*
X144257315Y-91675797D01*
X144448392Y-91536971D01*
X144448398Y-91536965D01*
X144452103Y-91533802D01*
X144453666Y-91535633D01*
X144506174Y-91506793D01*
X144575878Y-91511606D01*
X144631914Y-91553339D01*
X144638369Y-91562796D01*
X144668169Y-91611109D01*
X144668170Y-91611110D01*
X144792226Y-91735166D01*
X144941548Y-91827268D01*
X145108085Y-91882453D01*
X145210873Y-91892954D01*
X146810890Y-91892953D01*
X146913679Y-91882453D01*
X147080216Y-91827268D01*
X147229538Y-91735166D01*
X147353594Y-91611110D01*
X147445696Y-91461788D01*
X147500881Y-91295251D01*
X147511382Y-91192463D01*
X147511381Y-89815953D01*
X147531066Y-89748915D01*
X147583869Y-89703160D01*
X147635381Y-89691954D01*
X155291357Y-89691954D01*
X155320797Y-89700598D01*
X155350784Y-89707122D01*
X155355799Y-89710876D01*
X155358396Y-89711639D01*
X155379038Y-89728273D01*
X155447200Y-89796435D01*
X155480685Y-89857758D01*
X155477450Y-89922433D01*
X155436447Y-90048628D01*
X155399500Y-90281902D01*
X155399500Y-90518097D01*
X155436446Y-90751368D01*
X155509433Y-90975996D01*
X155612812Y-91178887D01*
X155616657Y-91186433D01*
X155755483Y-91377510D01*
X155922490Y-91544517D01*
X156113567Y-91683343D01*
X156196886Y-91725796D01*
X156324003Y-91790566D01*
X156324005Y-91790566D01*
X156324008Y-91790568D01*
X156436959Y-91827268D01*
X156548631Y-91863553D01*
X156781903Y-91900500D01*
X156781908Y-91900500D01*
X157018097Y-91900500D01*
X157251368Y-91863553D01*
X157284468Y-91852798D01*
X157475992Y-91790568D01*
X157686433Y-91683343D01*
X157877510Y-91544517D01*
X157877516Y-91544511D01*
X157881221Y-91541348D01*
X157882784Y-91543179D01*
X157935292Y-91514339D01*
X158004996Y-91519152D01*
X158061032Y-91560885D01*
X158067487Y-91570342D01*
X158097287Y-91618655D01*
X158097288Y-91618656D01*
X158221344Y-91742712D01*
X158370666Y-91834814D01*
X158537203Y-91889999D01*
X158639991Y-91900500D01*
X160240008Y-91900499D01*
X160342797Y-91889999D01*
X160509334Y-91834814D01*
X160658656Y-91742712D01*
X160782712Y-91618656D01*
X160874814Y-91469334D01*
X160929999Y-91302797D01*
X160940500Y-91200009D01*
X160940499Y-89823499D01*
X160960184Y-89756461D01*
X161012987Y-89710706D01*
X161064499Y-89699500D01*
X168748903Y-89699500D01*
X168778343Y-89708144D01*
X168808330Y-89714668D01*
X168813345Y-89718422D01*
X168815942Y-89719185D01*
X168836584Y-89735819D01*
X168897200Y-89796435D01*
X168930685Y-89857758D01*
X168927450Y-89922433D01*
X168886447Y-90048628D01*
X168849500Y-90281902D01*
X168849500Y-90518097D01*
X168886446Y-90751368D01*
X168959433Y-90975996D01*
X169062812Y-91178887D01*
X169066657Y-91186433D01*
X169205483Y-91377510D01*
X169372490Y-91544517D01*
X169563567Y-91683343D01*
X169646886Y-91725796D01*
X169774003Y-91790566D01*
X169774005Y-91790566D01*
X169774008Y-91790568D01*
X169886959Y-91827268D01*
X169998631Y-91863553D01*
X170231903Y-91900500D01*
X170231908Y-91900500D01*
X170468097Y-91900500D01*
X170582043Y-91882452D01*
X170701368Y-91863553D01*
X170827566Y-91822547D01*
X170897404Y-91820553D01*
X170953563Y-91852798D01*
X171613181Y-92512416D01*
X171646666Y-92573739D01*
X171649500Y-92600097D01*
X171649500Y-95420235D01*
X171629815Y-95487274D01*
X171628602Y-95489126D01*
X171540609Y-95620815D01*
X171540602Y-95620828D01*
X171480264Y-95766499D01*
X171480261Y-95766511D01*
X171449500Y-95921154D01*
X171449500Y-96078847D01*
X171480261Y-96233490D01*
X171480264Y-96233502D01*
X171540602Y-96379173D01*
X171540609Y-96379186D01*
X171628210Y-96510289D01*
X171628213Y-96510293D01*
X171739707Y-96621787D01*
X171739711Y-96621790D01*
X171870814Y-96709391D01*
X171870827Y-96709398D01*
X171993691Y-96760289D01*
X172016503Y-96769738D01*
X172062272Y-96778842D01*
X172171849Y-96800639D01*
X172233760Y-96833024D01*
X172235338Y-96834574D01*
X174831283Y-99430520D01*
X174831285Y-99430521D01*
X174831289Y-99430524D01*
X174956383Y-99502746D01*
X174968215Y-99509577D01*
X175120942Y-99550501D01*
X175120944Y-99550501D01*
X175286653Y-99550501D01*
X175286669Y-99550500D01*
X180595932Y-99550500D01*
X180662971Y-99570185D01*
X180706416Y-99618203D01*
X180766657Y-99736433D01*
X180905483Y-99927510D01*
X180905489Y-99927516D01*
X180908647Y-99931214D01*
X180906864Y-99932736D01*
X180935726Y-99985591D01*
X180930742Y-100055283D01*
X180888870Y-100111216D01*
X180879658Y-100117487D01*
X180831344Y-100147287D01*
X180707289Y-100271342D01*
X180615187Y-100420663D01*
X180615186Y-100420666D01*
X180560001Y-100587203D01*
X180560001Y-100587204D01*
X180560000Y-100587204D01*
X180549500Y-100689983D01*
X180549500Y-102290001D01*
X180549501Y-102290018D01*
X180560000Y-102392796D01*
X180560001Y-102392799D01*
X180598934Y-102510288D01*
X180615186Y-102559334D01*
X180707288Y-102708656D01*
X180831344Y-102832712D01*
X180980666Y-102924814D01*
X181147203Y-102979999D01*
X181249991Y-102990500D01*
X182850008Y-102990499D01*
X182952797Y-102979999D01*
X183119334Y-102924814D01*
X183268656Y-102832712D01*
X183392712Y-102708656D01*
X183484814Y-102559334D01*
X183539999Y-102392797D01*
X183550500Y-102290009D01*
X183550499Y-100689992D01*
X183539999Y-100587203D01*
X183484814Y-100420666D01*
X183392712Y-100271344D01*
X183268656Y-100147288D01*
X183268655Y-100147287D01*
X183220342Y-100117487D01*
X183173618Y-100065539D01*
X183162397Y-99996576D01*
X183190241Y-99932494D01*
X183191381Y-99931249D01*
X183191348Y-99931221D01*
X183194511Y-99927516D01*
X183194511Y-99927515D01*
X183194517Y-99927510D01*
X183333343Y-99736433D01*
X183440568Y-99525992D01*
X183513553Y-99301368D01*
X183528914Y-99204381D01*
X183550500Y-99068097D01*
X183550500Y-98831902D01*
X183513553Y-98598631D01*
X183451534Y-98407758D01*
X183440568Y-98374008D01*
X183440566Y-98374005D01*
X183440566Y-98374003D01*
X183355539Y-98207130D01*
X183333343Y-98163567D01*
X183194517Y-97972490D01*
X183027510Y-97805483D01*
X182836433Y-97666657D01*
X182827654Y-97662184D01*
X182625996Y-97559433D01*
X182401368Y-97486446D01*
X182168097Y-97449500D01*
X182168092Y-97449500D01*
X181931908Y-97449500D01*
X181931903Y-97449500D01*
X181698631Y-97486446D01*
X181474003Y-97559433D01*
X181263566Y-97666657D01*
X181179057Y-97728057D01*
X181072490Y-97805483D01*
X181072488Y-97805485D01*
X181072487Y-97805485D01*
X180905485Y-97972487D01*
X180905485Y-97972488D01*
X180905483Y-97972490D01*
X180872624Y-98017717D01*
X180766657Y-98163566D01*
X180748348Y-98199500D01*
X180707747Y-98279185D01*
X180706417Y-98281795D01*
X180658442Y-98332591D01*
X180595932Y-98349500D01*
X175500097Y-98349500D01*
X175433058Y-98329815D01*
X175412416Y-98313181D01*
X173084573Y-95985338D01*
X173051088Y-95924015D01*
X173050637Y-95921848D01*
X173046192Y-95899500D01*
X173019737Y-95766504D01*
X173019735Y-95766499D01*
X172959397Y-95620828D01*
X172959390Y-95620815D01*
X172871398Y-95489126D01*
X172850520Y-95422448D01*
X172850500Y-95420235D01*
X172850500Y-92389060D01*
X172850501Y-92389047D01*
X172850501Y-92220944D01*
X172816624Y-92094517D01*
X172809577Y-92068216D01*
X172809575Y-92068214D01*
X172807473Y-92060366D01*
X172809811Y-92059739D01*
X172803654Y-92002487D01*
X172834927Y-91940007D01*
X172895014Y-91904352D01*
X172925685Y-91900499D01*
X173690002Y-91900499D01*
X173690008Y-91900499D01*
X173792797Y-91889999D01*
X173959334Y-91834814D01*
X174108656Y-91742712D01*
X174232712Y-91618656D01*
X174324814Y-91469334D01*
X174379999Y-91302797D01*
X174390500Y-91200009D01*
X174390499Y-89599992D01*
X174379999Y-89497203D01*
X174324814Y-89330666D01*
X174232712Y-89181344D01*
X174108656Y-89057288D01*
X173959334Y-88965186D01*
X173792797Y-88910001D01*
X173792795Y-88910000D01*
X173690010Y-88899500D01*
X172089998Y-88899500D01*
X172089981Y-88899501D01*
X171987203Y-88910000D01*
X171987200Y-88910001D01*
X171820668Y-88965185D01*
X171820663Y-88965187D01*
X171671342Y-89057289D01*
X171547287Y-89181344D01*
X171517487Y-89229658D01*
X171465539Y-89276382D01*
X171396576Y-89287603D01*
X171332494Y-89259759D01*
X171331241Y-89258614D01*
X171331214Y-89258647D01*
X171327517Y-89255490D01*
X171327510Y-89255483D01*
X171136433Y-89116657D01*
X170925996Y-89009433D01*
X170701368Y-88936446D01*
X170468097Y-88899500D01*
X170468092Y-88899500D01*
X170231908Y-88899500D01*
X170231903Y-88899500D01*
X169998628Y-88936447D01*
X169872433Y-88977450D01*
X169802592Y-88979445D01*
X169746435Y-88947200D01*
X169536590Y-88737355D01*
X169536588Y-88737352D01*
X169417717Y-88618481D01*
X169417716Y-88618480D01*
X169330904Y-88568360D01*
X169330904Y-88568359D01*
X169330900Y-88568358D01*
X169280785Y-88539423D01*
X169128057Y-88498499D01*
X168969943Y-88498499D01*
X168962347Y-88498499D01*
X168962331Y-88498500D01*
X158287669Y-88498500D01*
X158287653Y-88498499D01*
X158280057Y-88498499D01*
X158121943Y-88498499D01*
X158014587Y-88527265D01*
X157969210Y-88539424D01*
X157969209Y-88539425D01*
X157919096Y-88568359D01*
X157919095Y-88568360D01*
X157875689Y-88593420D01*
X157832285Y-88618479D01*
X157832282Y-88618481D01*
X157720478Y-88730286D01*
X157503563Y-88947200D01*
X157442240Y-88980685D01*
X157377564Y-88977450D01*
X157251370Y-88936447D01*
X157018097Y-88899500D01*
X157018092Y-88899500D01*
X156781908Y-88899500D01*
X156781903Y-88899500D01*
X156548628Y-88936447D01*
X156422433Y-88977450D01*
X156352592Y-88979445D01*
X156296435Y-88947200D01*
X156079044Y-88729809D01*
X156079042Y-88729806D01*
X155960171Y-88610935D01*
X155960170Y-88610934D01*
X155873358Y-88560814D01*
X155873358Y-88560813D01*
X155873354Y-88560812D01*
X155823239Y-88531877D01*
X155670511Y-88490953D01*
X155512397Y-88490953D01*
X155504801Y-88490953D01*
X155504785Y-88490954D01*
X144858551Y-88490954D01*
X144858535Y-88490953D01*
X144850939Y-88490953D01*
X144692825Y-88490953D01*
X144585469Y-88519719D01*
X144540092Y-88531878D01*
X144540091Y-88531879D01*
X144489978Y-88560813D01*
X144489977Y-88560814D01*
X144446571Y-88585874D01*
X144403167Y-88610933D01*
X144403164Y-88610935D01*
X144291360Y-88722740D01*
X144074445Y-88939654D01*
X144013122Y-88973139D01*
X143948446Y-88969904D01*
X143822252Y-88928901D01*
X143588979Y-88891954D01*
X143588974Y-88891954D01*
X143352790Y-88891954D01*
X143352785Y-88891954D01*
X143119510Y-88928901D01*
X142993315Y-88969904D01*
X142923474Y-88971899D01*
X142867317Y-88939654D01*
X142657472Y-88729809D01*
X142657470Y-88729806D01*
X142538599Y-88610935D01*
X142538598Y-88610934D01*
X142451786Y-88560814D01*
X142451786Y-88560813D01*
X142451782Y-88560812D01*
X142401667Y-88531877D01*
X142248939Y-88490953D01*
X142090825Y-88490953D01*
X142083229Y-88490953D01*
X142083213Y-88490954D01*
X131458552Y-88490954D01*
X131458536Y-88490953D01*
X131450940Y-88490953D01*
X131292825Y-88490953D01*
X131216461Y-88511415D01*
X131140096Y-88531877D01*
X131140091Y-88531880D01*
X131003172Y-88610929D01*
X131003164Y-88610935D01*
X130624445Y-88989654D01*
X130563122Y-89023139D01*
X130498446Y-89019904D01*
X130372252Y-88978901D01*
X130138979Y-88941954D01*
X130138974Y-88941954D01*
X129902790Y-88941954D01*
X129902785Y-88941954D01*
X129669510Y-88978901D01*
X129543315Y-89019904D01*
X129473474Y-89021899D01*
X129417317Y-88989654D01*
X129165018Y-88737355D01*
X129165016Y-88737352D01*
X129046145Y-88618481D01*
X129046144Y-88618480D01*
X128959332Y-88568360D01*
X128959332Y-88568359D01*
X128959328Y-88568358D01*
X128909213Y-88539423D01*
X128756485Y-88498499D01*
X128598371Y-88498499D01*
X128590775Y-88498499D01*
X128590759Y-88498500D01*
X118047669Y-88498500D01*
X118047653Y-88498499D01*
X118040057Y-88498499D01*
X117881943Y-88498499D01*
X117774587Y-88527265D01*
X117729210Y-88539424D01*
X117729209Y-88539425D01*
X117679096Y-88568359D01*
X117679095Y-88568360D01*
X117635689Y-88593420D01*
X117592285Y-88618479D01*
X117592282Y-88618481D01*
X117480478Y-88730286D01*
X117263563Y-88947200D01*
X117202240Y-88980685D01*
X117137564Y-88977450D01*
X117011370Y-88936447D01*
X116778097Y-88899500D01*
X116778092Y-88899500D01*
X116541908Y-88899500D01*
X116541903Y-88899500D01*
X116308628Y-88936447D01*
X116174885Y-88979902D01*
X116105044Y-88981897D01*
X116048887Y-88949652D01*
X115836590Y-88737355D01*
X115836588Y-88737352D01*
X115717717Y-88618481D01*
X115717716Y-88618480D01*
X115630904Y-88568360D01*
X115630904Y-88568359D01*
X115630900Y-88568358D01*
X115580785Y-88539423D01*
X115428057Y-88498499D01*
X115269943Y-88498499D01*
X115262347Y-88498499D01*
X115262331Y-88498500D01*
X108637669Y-88498500D01*
X108637653Y-88498499D01*
X108630057Y-88498499D01*
X108471943Y-88498499D01*
X108364587Y-88527265D01*
X108319210Y-88539424D01*
X108319209Y-88539425D01*
X108269096Y-88568359D01*
X108269095Y-88568360D01*
X108225689Y-88593420D01*
X108182285Y-88618479D01*
X108182282Y-88618481D01*
X103168481Y-93632282D01*
X103168479Y-93632285D01*
X103118361Y-93719094D01*
X103118359Y-93719096D01*
X103089425Y-93769209D01*
X103089424Y-93769210D01*
X103089423Y-93769215D01*
X103048499Y-93921943D01*
X103048499Y-94080057D01*
X103048499Y-94080059D01*
X103048500Y-94090053D01*
X103048500Y-97562330D01*
X103048499Y-97562348D01*
X103048499Y-97728054D01*
X103048498Y-97728054D01*
X99000500Y-97728054D01*
X99000500Y-93384108D01*
X98966392Y-93256814D01*
X98900500Y-93142686D01*
X98807314Y-93049500D01*
X96536819Y-90779005D01*
X96503334Y-90717682D01*
X96500500Y-90691324D01*
X96500500Y-84953246D01*
X96500670Y-84946757D01*
X96503953Y-84884108D01*
X96506856Y-84828711D01*
X97649500Y-84828711D01*
X97649500Y-85071288D01*
X97681161Y-85311785D01*
X97743947Y-85546104D01*
X97821504Y-85733342D01*
X97836776Y-85770212D01*
X97958064Y-85980289D01*
X97958066Y-85980292D01*
X97958067Y-85980293D01*
X98105733Y-86172736D01*
X98105739Y-86172743D01*
X98277256Y-86344260D01*
X98277262Y-86344265D01*
X98469711Y-86491936D01*
X98679788Y-86613224D01*
X98903900Y-86706054D01*
X99138211Y-86768838D01*
X99318586Y-86792584D01*
X99378711Y-86800500D01*
X99378712Y-86800500D01*
X99621289Y-86800500D01*
X99669388Y-86794167D01*
X99861789Y-86768838D01*
X100096100Y-86706054D01*
X100320212Y-86613224D01*
X100530289Y-86491936D01*
X100722738Y-86344265D01*
X100894265Y-86172738D01*
X101041936Y-85980289D01*
X101163224Y-85770212D01*
X101256054Y-85546100D01*
X101318838Y-85311789D01*
X101350500Y-85071288D01*
X101350500Y-84828712D01*
X101318838Y-84588211D01*
X101256054Y-84353900D01*
X101254644Y-84350497D01*
X101246941Y-84331901D01*
X107799500Y-84331901D01*
X107799500Y-84568096D01*
X107836446Y-84801367D01*
X107909433Y-85025995D01*
X108016657Y-85236432D01*
X108155483Y-85427509D01*
X108322490Y-85594516D01*
X108513567Y-85733342D01*
X108612991Y-85784001D01*
X108724003Y-85840565D01*
X108724005Y-85840565D01*
X108724008Y-85840567D01*
X108844412Y-85879688D01*
X108948631Y-85913552D01*
X109181903Y-85950499D01*
X109181908Y-85950499D01*
X109418097Y-85950499D01*
X109651368Y-85913552D01*
X109875992Y-85840567D01*
X110086433Y-85733342D01*
X110277510Y-85594516D01*
X110444517Y-85427509D01*
X110583343Y-85236432D01*
X110690568Y-85025991D01*
X110754668Y-84828711D01*
X185649500Y-84828711D01*
X185649500Y-85071288D01*
X185681161Y-85311785D01*
X185743947Y-85546104D01*
X185821504Y-85733342D01*
X185836776Y-85770212D01*
X185958064Y-85980289D01*
X185958066Y-85980292D01*
X185958067Y-85980293D01*
X186105733Y-86172736D01*
X186105739Y-86172743D01*
X186277256Y-86344260D01*
X186277262Y-86344265D01*
X186469711Y-86491936D01*
X186679788Y-86613224D01*
X186903900Y-86706054D01*
X187138211Y-86768838D01*
X187318586Y-86792584D01*
X187378711Y-86800500D01*
X187378712Y-86800500D01*
X187621289Y-86800500D01*
X187669388Y-86794167D01*
X187861789Y-86768838D01*
X188096100Y-86706054D01*
X188320212Y-86613224D01*
X188530289Y-86491936D01*
X188722738Y-86344265D01*
X188894265Y-86172738D01*
X189041936Y-85980289D01*
X189163224Y-85770212D01*
X189256054Y-85546100D01*
X189318838Y-85311789D01*
X189350500Y-85071288D01*
X189350500Y-84828712D01*
X189318838Y-84588211D01*
X189256054Y-84353900D01*
X189163224Y-84129788D01*
X189041936Y-83919711D01*
X188894265Y-83727262D01*
X188894260Y-83727256D01*
X188722743Y-83555739D01*
X188722736Y-83555733D01*
X188530293Y-83408067D01*
X188530292Y-83408066D01*
X188530289Y-83408064D01*
X188320212Y-83286776D01*
X188320205Y-83286773D01*
X188096104Y-83193947D01*
X187861785Y-83131161D01*
X187621289Y-83099500D01*
X187621288Y-83099500D01*
X187378712Y-83099500D01*
X187378711Y-83099500D01*
X187138214Y-83131161D01*
X186903895Y-83193947D01*
X186679794Y-83286773D01*
X186679785Y-83286777D01*
X186469706Y-83408067D01*
X186277263Y-83555733D01*
X186277256Y-83555739D01*
X186105739Y-83727256D01*
X186105733Y-83727263D01*
X185958067Y-83919706D01*
X185836777Y-84129785D01*
X185836773Y-84129794D01*
X185743947Y-84353895D01*
X185681161Y-84588214D01*
X185649500Y-84828711D01*
X110754668Y-84828711D01*
X110763553Y-84801367D01*
X110788643Y-84642953D01*
X110800500Y-84568096D01*
X110800500Y-84331901D01*
X110763553Y-84098630D01*
X110705418Y-83919711D01*
X110690568Y-83874007D01*
X110690566Y-83874004D01*
X110690566Y-83874002D01*
X110634002Y-83762990D01*
X110583343Y-83663566D01*
X110444517Y-83472489D01*
X110277510Y-83305482D01*
X110086433Y-83166656D01*
X109875996Y-83059432D01*
X109651368Y-82986445D01*
X109418097Y-82949499D01*
X109418092Y-82949499D01*
X109181908Y-82949499D01*
X109181903Y-82949499D01*
X108948631Y-82986445D01*
X108724003Y-83059432D01*
X108513566Y-83166656D01*
X108476004Y-83193947D01*
X108322490Y-83305482D01*
X108322488Y-83305484D01*
X108322487Y-83305484D01*
X108155485Y-83472486D01*
X108155485Y-83472487D01*
X108155483Y-83472489D01*
X108095862Y-83554549D01*
X108016657Y-83663565D01*
X107909433Y-83874002D01*
X107836446Y-84098630D01*
X107799500Y-84331901D01*
X101246941Y-84331901D01*
X101163226Y-84129794D01*
X101163224Y-84129788D01*
X101041936Y-83919711D01*
X100894265Y-83727262D01*
X100894260Y-83727256D01*
X100722743Y-83555739D01*
X100722736Y-83555733D01*
X100530293Y-83408067D01*
X100530292Y-83408066D01*
X100530289Y-83408064D01*
X100320212Y-83286776D01*
X100320205Y-83286773D01*
X100096104Y-83193947D01*
X99861785Y-83131161D01*
X99621289Y-83099500D01*
X99621288Y-83099500D01*
X99378712Y-83099500D01*
X99378711Y-83099500D01*
X99138214Y-83131161D01*
X98903895Y-83193947D01*
X98679794Y-83286773D01*
X98679785Y-83286777D01*
X98469706Y-83408067D01*
X98277263Y-83555733D01*
X98277256Y-83555739D01*
X98105739Y-83727256D01*
X98105733Y-83727263D01*
X97958067Y-83919706D01*
X97836777Y-84129785D01*
X97836773Y-84129794D01*
X97743947Y-84353895D01*
X97681161Y-84588214D01*
X97649500Y-84828711D01*
X96506856Y-84828711D01*
X96516592Y-84642951D01*
X96517949Y-84630046D01*
X96527761Y-84568096D01*
X96565029Y-84332786D01*
X96567723Y-84320107D01*
X96645627Y-84029368D01*
X96649636Y-84017033D01*
X96757493Y-83736054D01*
X96762763Y-83724215D01*
X96899415Y-83456023D01*
X96905891Y-83444808D01*
X97069819Y-83192380D01*
X97077434Y-83181899D01*
X97266858Y-82947979D01*
X97275525Y-82938354D01*
X97488354Y-82725525D01*
X97497979Y-82716858D01*
X97731899Y-82527434D01*
X97742380Y-82519819D01*
X97994808Y-82355891D01*
X98006023Y-82349415D01*
X98274215Y-82212763D01*
X98286054Y-82207493D01*
X98567040Y-82099633D01*
X98579368Y-82095627D01*
X98870107Y-82017723D01*
X98882786Y-82015029D01*
X99180046Y-81967949D01*
X99192951Y-81966592D01*
X99496756Y-81950669D01*
X99503246Y-81950500D01*
X99565892Y-81950500D01*
X109241324Y-81950500D01*
X109308363Y-81970185D01*
G37*
%TD.AperFunction*%
%TD*%
%TA.AperFunction,NonConductor*%
G36*
X136316942Y-95420185D02*
G01*
X136337584Y-95436819D01*
X136338584Y-95437819D01*
X136372069Y-95499142D01*
X136367085Y-95568834D01*
X136325213Y-95624767D01*
X136259749Y-95649184D01*
X136250903Y-95649500D01*
X134349766Y-95649500D01*
X134282727Y-95629815D01*
X134280888Y-95628611D01*
X134279391Y-95627611D01*
X134234579Y-95574004D01*
X134225863Y-95504680D01*
X134256010Y-95441649D01*
X134315449Y-95404922D01*
X134348269Y-95400500D01*
X136249903Y-95400500D01*
X136316942Y-95420185D01*
G37*
%TD.AperFunction*%
%TA.AperFunction,NonConductor*%
G36*
X151350702Y-96798949D02*
G01*
X151383362Y-96801285D01*
X151385627Y-96802740D01*
X151387599Y-96802955D01*
X151417934Y-96820996D01*
X151423052Y-96825129D01*
X151469712Y-96871789D01*
X151534133Y-96914834D01*
X151538486Y-96918349D01*
X151555319Y-96942647D01*
X151574275Y-96965329D01*
X151574993Y-96971045D01*
X151578275Y-96975783D01*
X151579299Y-97005322D01*
X151582984Y-97034654D01*
X151580496Y-97039853D01*
X151580696Y-97045610D01*
X151562331Y-97077821D01*
X151552830Y-97097681D01*
X151550019Y-97099417D01*
X151548261Y-97102501D01*
X150364798Y-98285965D01*
X150303475Y-98319450D01*
X150233783Y-98314466D01*
X150177850Y-98272594D01*
X150153433Y-98207130D01*
X150162556Y-98150833D01*
X150169737Y-98133497D01*
X150200500Y-97978842D01*
X150200500Y-97932996D01*
X150220185Y-97865957D01*
X150236814Y-97845319D01*
X151252349Y-96829784D01*
X151254418Y-96828654D01*
X151255626Y-96826625D01*
X151284933Y-96811992D01*
X151313670Y-96796301D01*
X151316024Y-96796469D01*
X151318138Y-96795414D01*
X151350702Y-96798949D01*
G37*
%TD.AperFunction*%
%TA.AperFunction,NonConductor*%
G36*
X133224231Y-95410043D02*
G01*
X133256898Y-95419005D01*
X133257667Y-95419861D01*
X133258770Y-95420185D01*
X133280938Y-95445769D01*
X133303588Y-95470984D01*
X133303772Y-95472120D01*
X133304525Y-95472989D01*
X133309346Y-95506520D01*
X133314764Y-95539954D01*
X133314305Y-95541007D01*
X133314469Y-95542147D01*
X133300393Y-95572967D01*
X133286878Y-95604018D01*
X133285751Y-95605029D01*
X133285444Y-95605703D01*
X133264373Y-95624292D01*
X133264419Y-95624347D01*
X133262880Y-95625609D01*
X133260621Y-95627603D01*
X133259708Y-95628212D01*
X133148213Y-95739707D01*
X133148210Y-95739711D01*
X133060609Y-95870814D01*
X133060602Y-95870827D01*
X133000264Y-96016498D01*
X133000261Y-96016510D01*
X132969500Y-96171153D01*
X132969500Y-96328846D01*
X133000261Y-96483489D01*
X133000264Y-96483501D01*
X133060602Y-96629172D01*
X133060609Y-96629185D01*
X133148210Y-96760288D01*
X133148213Y-96760292D01*
X133259707Y-96871786D01*
X133259711Y-96871789D01*
X133390814Y-96959390D01*
X133390827Y-96959397D01*
X133536498Y-97019735D01*
X133536503Y-97019737D01*
X133688157Y-97049903D01*
X133691153Y-97050499D01*
X133691156Y-97050500D01*
X133691158Y-97050500D01*
X133848844Y-97050500D01*
X133848845Y-97050499D01*
X134003497Y-97019737D01*
X134149179Y-96959394D01*
X134187949Y-96933489D01*
X134280875Y-96871398D01*
X134347553Y-96850520D01*
X134349766Y-96850500D01*
X136370234Y-96850500D01*
X136437273Y-96870185D01*
X136439125Y-96871398D01*
X136570814Y-96959390D01*
X136570827Y-96959397D01*
X136716498Y-97019735D01*
X136716503Y-97019737D01*
X136868157Y-97049903D01*
X136871153Y-97050499D01*
X136871156Y-97050500D01*
X136871158Y-97050500D01*
X137028844Y-97050500D01*
X137029151Y-97050439D01*
X137029314Y-97050453D01*
X137034907Y-97049903D01*
X137035011Y-97050963D01*
X137098743Y-97056664D01*
X137153922Y-97099525D01*
X137177169Y-97165413D01*
X137161103Y-97233411D01*
X137141029Y-97259735D01*
X137037582Y-97363182D01*
X136976262Y-97396666D01*
X136949903Y-97399500D01*
X128179766Y-97399500D01*
X128112727Y-97379815D01*
X128110875Y-97378602D01*
X127979185Y-97290609D01*
X127979172Y-97290602D01*
X127833501Y-97230264D01*
X127833489Y-97230261D01*
X127678845Y-97199500D01*
X127678842Y-97199500D01*
X127521158Y-97199500D01*
X127521155Y-97199500D01*
X127366510Y-97230261D01*
X127366498Y-97230264D01*
X127220827Y-97290602D01*
X127220814Y-97290609D01*
X127089711Y-97378210D01*
X127089707Y-97378213D01*
X126978213Y-97489707D01*
X126978210Y-97489711D01*
X126890609Y-97620814D01*
X126890602Y-97620827D01*
X126830264Y-97766498D01*
X126830261Y-97766510D01*
X126799500Y-97921153D01*
X126799500Y-98078846D01*
X126830261Y-98233489D01*
X126830264Y-98233501D01*
X126890602Y-98379172D01*
X126890609Y-98379185D01*
X126978210Y-98510288D01*
X126978213Y-98510292D01*
X127089707Y-98621786D01*
X127089711Y-98621789D01*
X127220814Y-98709390D01*
X127220827Y-98709397D01*
X127345262Y-98760939D01*
X127399666Y-98804779D01*
X127421731Y-98871074D01*
X127404452Y-98938773D01*
X127353315Y-98986384D01*
X127297810Y-98999500D01*
X125036133Y-98999500D01*
X124969094Y-98979815D01*
X124923339Y-98927011D01*
X124913395Y-98857853D01*
X124918199Y-98837192D01*
X124967246Y-98686243D01*
X125000500Y-98476287D01*
X125000500Y-98263713D01*
X124967246Y-98053757D01*
X124901557Y-97851588D01*
X124805051Y-97662184D01*
X124805049Y-97662181D01*
X124805048Y-97662179D01*
X124680109Y-97490213D01*
X124529786Y-97339890D01*
X124357820Y-97214951D01*
X124269082Y-97169737D01*
X124226926Y-97148257D01*
X124176131Y-97100284D01*
X124176037Y-97100122D01*
X124130520Y-97021284D01*
X122721415Y-95612180D01*
X122687931Y-95550858D01*
X122692915Y-95481166D01*
X122734787Y-95425233D01*
X122800251Y-95400816D01*
X122809097Y-95400500D01*
X133191731Y-95400500D01*
X133224231Y-95410043D01*
G37*
%TD.AperFunction*%
%TA.AperFunction,NonConductor*%
G36*
X144142207Y-100795920D02*
G01*
X144187962Y-100848724D01*
X144197906Y-100917882D01*
X144168881Y-100981438D01*
X144162849Y-100987916D01*
X143286584Y-101864181D01*
X143225261Y-101897666D01*
X143198903Y-101900500D01*
X137718046Y-101900500D01*
X137651007Y-101880815D01*
X137605252Y-101828011D01*
X137596429Y-101800691D01*
X137570596Y-101670821D01*
X137569737Y-101666503D01*
X137550260Y-101619480D01*
X137509397Y-101520827D01*
X137509390Y-101520814D01*
X137421789Y-101389711D01*
X137421786Y-101389707D01*
X137310292Y-101278213D01*
X137310288Y-101278210D01*
X137179185Y-101190609D01*
X137179172Y-101190602D01*
X137033501Y-101130264D01*
X137033491Y-101130261D01*
X136878149Y-101099361D01*
X136861392Y-101090595D01*
X136842914Y-101086576D01*
X136817877Y-101067833D01*
X136816238Y-101066976D01*
X136814660Y-101065425D01*
X136737151Y-100987916D01*
X136703666Y-100926593D01*
X136708650Y-100856901D01*
X136750522Y-100800968D01*
X136815986Y-100776551D01*
X136824832Y-100776235D01*
X144075168Y-100776235D01*
X144142207Y-100795920D01*
G37*
%TD.AperFunction*%
%TA.AperFunction,NonConductor*%
G36*
X122242539Y-102720185D02*
G01*
X122288294Y-102772989D01*
X122299500Y-102824500D01*
X122299501Y-103925500D01*
X122279816Y-103992539D01*
X122227013Y-104038294D01*
X122175501Y-104049500D01*
X120397757Y-104049500D01*
X120330718Y-104029815D01*
X120284963Y-103977011D01*
X120275019Y-103907853D01*
X120276140Y-103901308D01*
X120300500Y-103778844D01*
X120300500Y-103621155D01*
X120300499Y-103621153D01*
X120275393Y-103494938D01*
X120269737Y-103466503D01*
X120269030Y-103464797D01*
X120209397Y-103320827D01*
X120209390Y-103320814D01*
X120121789Y-103189711D01*
X120121786Y-103189707D01*
X120010292Y-103078213D01*
X120010288Y-103078210D01*
X119992489Y-103066317D01*
X119978978Y-103050151D01*
X119962112Y-103037525D01*
X119957022Y-103023879D01*
X119947684Y-103012705D01*
X119945058Y-102991800D01*
X119937696Y-102972060D01*
X119940791Y-102957829D01*
X119938977Y-102943380D01*
X119948068Y-102924376D01*
X119952548Y-102903787D01*
X119967432Y-102883903D01*
X119969132Y-102880352D01*
X119973655Y-102875578D01*
X120112417Y-102736816D01*
X120173740Y-102703334D01*
X120200097Y-102700500D01*
X122175500Y-102700500D01*
X122242539Y-102720185D01*
G37*
%TD.AperFunction*%
%TA.AperFunction,NonConductor*%
G36*
X135215999Y-102019185D02*
G01*
X135236641Y-102035819D01*
X136066196Y-102865374D01*
X136066206Y-102865385D01*
X136070536Y-102869715D01*
X136070537Y-102869716D01*
X136182341Y-102981520D01*
X136182343Y-102981521D01*
X136182347Y-102981524D01*
X136286244Y-103041508D01*
X136319273Y-103060577D01*
X136431076Y-103090534D01*
X136471999Y-103101500D01*
X136472000Y-103101500D01*
X143412333Y-103101500D01*
X143419939Y-103101500D01*
X143419943Y-103101501D01*
X143474160Y-103101501D01*
X143513530Y-103113061D01*
X143541197Y-103121186D01*
X143541199Y-103121187D01*
X143586953Y-103173991D01*
X143590239Y-103196850D01*
X143595958Y-103236629D01*
X143596896Y-103243150D01*
X143596891Y-103243160D01*
X143577260Y-103294392D01*
X143540609Y-103349242D01*
X143540602Y-103349255D01*
X143480264Y-103494926D01*
X143480261Y-103494938D01*
X143449500Y-103649581D01*
X143449500Y-103807274D01*
X143480261Y-103961917D01*
X143480264Y-103961929D01*
X143540602Y-104107600D01*
X143540609Y-104107613D01*
X143628210Y-104238716D01*
X143628213Y-104238720D01*
X143739707Y-104350214D01*
X143739711Y-104350217D01*
X143870814Y-104437818D01*
X143870827Y-104437825D01*
X144016498Y-104498163D01*
X144016503Y-104498165D01*
X144171153Y-104528927D01*
X144171156Y-104528928D01*
X144171158Y-104528928D01*
X144328844Y-104528928D01*
X144328845Y-104528927D01*
X144483497Y-104498165D01*
X144596166Y-104451495D01*
X144629172Y-104437825D01*
X144629172Y-104437824D01*
X144629179Y-104437822D01*
X144760289Y-104350217D01*
X144871789Y-104238717D01*
X144959394Y-104107607D01*
X145019737Y-103961925D01*
X145050500Y-103807270D01*
X145050500Y-103649586D01*
X145050500Y-103649583D01*
X145050499Y-103649581D01*
X145044844Y-103621153D01*
X145019737Y-103494931D01*
X145007255Y-103464797D01*
X144959397Y-103349255D01*
X144959395Y-103349251D01*
X144959394Y-103349249D01*
X144947391Y-103331286D01*
X144895198Y-103253173D01*
X144874320Y-103186496D01*
X144892804Y-103119116D01*
X144944783Y-103072425D01*
X145013753Y-103061249D01*
X145045752Y-103069721D01*
X145165004Y-103119116D01*
X145166503Y-103119737D01*
X145231147Y-103132595D01*
X145321849Y-103150638D01*
X145383760Y-103183023D01*
X145385339Y-103184574D01*
X146497958Y-104297194D01*
X146531443Y-104358517D01*
X146529382Y-104410118D01*
X146531451Y-104410530D01*
X146499500Y-104571155D01*
X146499500Y-104675500D01*
X146479815Y-104742539D01*
X146427011Y-104788294D01*
X146375500Y-104799500D01*
X140376606Y-104799500D01*
X140309567Y-104779815D01*
X140307715Y-104778602D01*
X140185547Y-104696971D01*
X140185534Y-104696964D01*
X140039863Y-104636626D01*
X140039851Y-104636623D01*
X139885207Y-104605862D01*
X139885204Y-104605862D01*
X139727520Y-104605862D01*
X139727517Y-104605862D01*
X139572872Y-104636623D01*
X139572860Y-104636626D01*
X139427189Y-104696964D01*
X139427176Y-104696971D01*
X139296073Y-104784572D01*
X139296069Y-104784575D01*
X139184575Y-104896069D01*
X139184572Y-104896073D01*
X139096971Y-105027176D01*
X139096964Y-105027189D01*
X139036626Y-105172860D01*
X139036623Y-105172872D01*
X139009933Y-105307053D01*
X138977548Y-105368964D01*
X138916833Y-105403538D01*
X138888316Y-105406862D01*
X135749593Y-105406862D01*
X135682554Y-105387177D01*
X135661912Y-105370543D01*
X132502550Y-102211181D01*
X132469065Y-102149858D01*
X132474049Y-102080166D01*
X132515921Y-102024233D01*
X132581385Y-101999816D01*
X132590231Y-101999500D01*
X135148960Y-101999500D01*
X135215999Y-102019185D01*
G37*
%TD.AperFunction*%
%TA.AperFunction,NonConductor*%
G36*
X110227942Y-103320185D02*
G01*
X110273697Y-103372989D01*
X110283641Y-103442147D01*
X110254616Y-103505703D01*
X110248584Y-103512181D01*
X107824522Y-105936242D01*
X107763199Y-105969727D01*
X107698523Y-105966492D01*
X107656245Y-105952755D01*
X107516272Y-105930585D01*
X107446287Y-105919501D01*
X107299096Y-105919501D01*
X107232057Y-105899816D01*
X107186302Y-105847012D01*
X107176358Y-105777854D01*
X107205383Y-105714298D01*
X107211415Y-105707820D01*
X108282610Y-104636626D01*
X109582417Y-103336819D01*
X109643740Y-103303334D01*
X109670098Y-103300500D01*
X110160903Y-103300500D01*
X110227942Y-103320185D01*
G37*
%TD.AperFunction*%
%TA.AperFunction,NonConductor*%
G36*
X154346488Y-106020185D02*
G01*
X154392243Y-106072989D01*
X154402187Y-106142147D01*
X154373162Y-106205703D01*
X154352337Y-106224815D01*
X154172490Y-106355483D01*
X154172388Y-106355584D01*
X154168788Y-106358674D01*
X154140945Y-106371222D01*
X154114110Y-106385791D01*
X154109397Y-106385442D01*
X154105089Y-106387384D01*
X154074885Y-106382888D01*
X154044431Y-106380635D01*
X154040654Y-106377793D01*
X154035981Y-106377098D01*
X154013001Y-106356985D01*
X153988601Y-106338626D01*
X153983589Y-106331244D01*
X153983404Y-106331082D01*
X153983348Y-106330889D01*
X153982511Y-106329656D01*
X153971940Y-106312518D01*
X153952712Y-106281344D01*
X153883549Y-106212181D01*
X153850064Y-106150858D01*
X153855048Y-106081166D01*
X153896920Y-106025233D01*
X153962384Y-106000816D01*
X153971230Y-106000500D01*
X154279449Y-106000500D01*
X154346488Y-106020185D01*
G37*
%TD.AperFunction*%
%TA.AperFunction,NonConductor*%
G36*
X164130702Y-109592515D02*
G01*
X164137180Y-109598547D01*
X164867049Y-110328416D01*
X164971584Y-110432951D01*
X165023440Y-110467600D01*
X165029893Y-110473354D01*
X165043977Y-110495970D01*
X165061062Y-110516413D01*
X165062161Y-110525170D01*
X165066828Y-110532663D01*
X165066448Y-110559303D01*
X165069769Y-110585738D01*
X165065959Y-110593700D01*
X165065834Y-110602526D01*
X165051112Y-110624732D01*
X165039614Y-110648766D01*
X165035047Y-110653584D01*
X164725451Y-110963181D01*
X164664128Y-110996666D01*
X164637770Y-110999500D01*
X164049500Y-110999500D01*
X163982461Y-110979815D01*
X163936706Y-110927011D01*
X163925500Y-110875500D01*
X163925500Y-110325903D01*
X163925499Y-109686227D01*
X163945184Y-109619189D01*
X163997987Y-109573434D01*
X164067146Y-109563490D01*
X164130702Y-109592515D01*
G37*
%TD.AperFunction*%
M02*
