%TF.GenerationSoftware,KiCad,Pcbnew,9.0.2*%
%TF.CreationDate,2026-07-23T06:08:34-04:00*%
%TF.ProjectId,500gNewMemberBoard,35303067-4e65-4774-9d65-6d626572426f,rev?*%
%TF.SameCoordinates,Original*%
%TF.FileFunction,Legend,Top*%
%TF.FilePolarity,Positive*%
%FSLAX46Y46*%
G04 Gerber Fmt 4.6, Leading zero omitted, Abs format (unit mm)*
G04 Created by KiCad (PCBNEW 9.0.2) date 2026-07-23 06:08:34*
%MOMM*%
%LPD*%
G01*
G04 APERTURE LIST*
%ADD10C,0.150000*%
%ADD11C,0.100000*%
%ADD12C,0.187500*%
%ADD13C,0.300000*%
%ADD14C,0.200000*%
%ADD15C,0.120000*%
%ADD16C,0.000000*%
%ADD17C,0.050000*%
%ADD18C,0.127000*%
G04 APERTURE END LIST*
D10*
G36*
X100143009Y-95983809D02*
G01*
X99740895Y-96117847D01*
X99740895Y-95849770D01*
X100143009Y-95983809D01*
G37*
G36*
X100613322Y-97406574D02*
G01*
X99194658Y-97406574D01*
X99194658Y-97064415D01*
X99306621Y-97064415D01*
X99306621Y-97093679D01*
X99317820Y-97120715D01*
X99338512Y-97141407D01*
X99365548Y-97152606D01*
X99380180Y-97154047D01*
X99638514Y-97154047D01*
X99638514Y-97221904D01*
X99639955Y-97236536D01*
X99651154Y-97263572D01*
X99671846Y-97284264D01*
X99698882Y-97295463D01*
X99728146Y-97295463D01*
X99755182Y-97284264D01*
X99775874Y-97263572D01*
X99787073Y-97236536D01*
X99788514Y-97221904D01*
X99788514Y-97154047D01*
X100046847Y-97154047D01*
X100061479Y-97152606D01*
X100088515Y-97141407D01*
X100109207Y-97120715D01*
X100120406Y-97093679D01*
X100120406Y-97064415D01*
X100109207Y-97037379D01*
X100088515Y-97016687D01*
X100061479Y-97005488D01*
X100046847Y-97004047D01*
X99788514Y-97004047D01*
X99788514Y-96706913D01*
X100404083Y-96912103D01*
X100418419Y-96915363D01*
X100447609Y-96913288D01*
X100473783Y-96900202D01*
X100492957Y-96878094D01*
X100502211Y-96850332D01*
X100500136Y-96821142D01*
X100487049Y-96794969D01*
X100464942Y-96775795D01*
X100451517Y-96769801D01*
X99737231Y-96531706D01*
X99729977Y-96530056D01*
X99728146Y-96529298D01*
X99726641Y-96529298D01*
X99722894Y-96528446D01*
X99710909Y-96529298D01*
X99698882Y-96529298D01*
X99696390Y-96530330D01*
X99693704Y-96530521D01*
X99682954Y-96535895D01*
X99671846Y-96540497D01*
X99669940Y-96542402D01*
X99667531Y-96543607D01*
X99659653Y-96552689D01*
X99651154Y-96561189D01*
X99650123Y-96563677D01*
X99648357Y-96565714D01*
X99644555Y-96577117D01*
X99639955Y-96588225D01*
X99639578Y-96592051D01*
X99639103Y-96593477D01*
X99639243Y-96595451D01*
X99638514Y-96602857D01*
X99638514Y-97004047D01*
X99380180Y-97004047D01*
X99365548Y-97005488D01*
X99338512Y-97016687D01*
X99317820Y-97037379D01*
X99306621Y-97064415D01*
X99194658Y-97064415D01*
X99194658Y-95641096D01*
X99305769Y-95641096D01*
X99307844Y-95670286D01*
X99320930Y-95696459D01*
X99343037Y-95715633D01*
X99356463Y-95721627D01*
X99590895Y-95799770D01*
X99590895Y-96167847D01*
X99356463Y-96245991D01*
X99343037Y-96251985D01*
X99320930Y-96271159D01*
X99307844Y-96297332D01*
X99305769Y-96326522D01*
X99315023Y-96354285D01*
X99334197Y-96376392D01*
X99360370Y-96389478D01*
X99389560Y-96391553D01*
X99403897Y-96388293D01*
X100403897Y-96054960D01*
X100417322Y-96048966D01*
X100421369Y-96045455D01*
X100426163Y-96043059D01*
X100432327Y-96035951D01*
X100439429Y-96029792D01*
X100441824Y-96025000D01*
X100445337Y-96020951D01*
X100448311Y-96012028D01*
X100452516Y-96003619D01*
X100452895Y-95998274D01*
X100454591Y-95993189D01*
X100453924Y-95983809D01*
X100454591Y-95974429D01*
X100452895Y-95969343D01*
X100452516Y-95963999D01*
X100448311Y-95955589D01*
X100445337Y-95946667D01*
X100441824Y-95942617D01*
X100439429Y-95937826D01*
X100432327Y-95931666D01*
X100426163Y-95924559D01*
X100421369Y-95922162D01*
X100417322Y-95918652D01*
X100403897Y-95912658D01*
X99403897Y-95579325D01*
X99389560Y-95576065D01*
X99360370Y-95578140D01*
X99334197Y-95591226D01*
X99315023Y-95613333D01*
X99305769Y-95641096D01*
X99194658Y-95641096D01*
X99194658Y-95464954D01*
X100613322Y-95464954D01*
X100613322Y-97406574D01*
G37*
D11*
X101722931Y-112803014D02*
X101472931Y-112445871D01*
X101294360Y-112803014D02*
X101294360Y-112053014D01*
X101294360Y-112053014D02*
X101580074Y-112053014D01*
X101580074Y-112053014D02*
X101651503Y-112088728D01*
X101651503Y-112088728D02*
X101687217Y-112124442D01*
X101687217Y-112124442D02*
X101722931Y-112195871D01*
X101722931Y-112195871D02*
X101722931Y-112303014D01*
X101722931Y-112303014D02*
X101687217Y-112374442D01*
X101687217Y-112374442D02*
X101651503Y-112410157D01*
X101651503Y-112410157D02*
X101580074Y-112445871D01*
X101580074Y-112445871D02*
X101294360Y-112445871D01*
X102008646Y-112767300D02*
X102115789Y-112803014D01*
X102115789Y-112803014D02*
X102294360Y-112803014D01*
X102294360Y-112803014D02*
X102365789Y-112767300D01*
X102365789Y-112767300D02*
X102401503Y-112731585D01*
X102401503Y-112731585D02*
X102437217Y-112660157D01*
X102437217Y-112660157D02*
X102437217Y-112588728D01*
X102437217Y-112588728D02*
X102401503Y-112517300D01*
X102401503Y-112517300D02*
X102365789Y-112481585D01*
X102365789Y-112481585D02*
X102294360Y-112445871D01*
X102294360Y-112445871D02*
X102151503Y-112410157D01*
X102151503Y-112410157D02*
X102080074Y-112374442D01*
X102080074Y-112374442D02*
X102044360Y-112338728D01*
X102044360Y-112338728D02*
X102008646Y-112267300D01*
X102008646Y-112267300D02*
X102008646Y-112195871D01*
X102008646Y-112195871D02*
X102044360Y-112124442D01*
X102044360Y-112124442D02*
X102080074Y-112088728D01*
X102080074Y-112088728D02*
X102151503Y-112053014D01*
X102151503Y-112053014D02*
X102330074Y-112053014D01*
X102330074Y-112053014D02*
X102437217Y-112088728D01*
X102651503Y-112053014D02*
X103080075Y-112053014D01*
X102865789Y-112803014D02*
X102865789Y-112053014D01*
D10*
G36*
X173326190Y-85593009D02*
G01*
X173192152Y-85190895D01*
X173460228Y-85190895D01*
X173326190Y-85593009D01*
G37*
G36*
X173845045Y-86016291D02*
G01*
X171903252Y-86016291D01*
X171903252Y-85843914D01*
X172014363Y-85843914D01*
X172014536Y-85844346D01*
X172014536Y-85844812D01*
X172019957Y-85857901D01*
X172025231Y-85871084D01*
X172025556Y-85871417D01*
X172025735Y-85871848D01*
X172035754Y-85881867D01*
X172045670Y-85892028D01*
X172046098Y-85892211D01*
X172046427Y-85892540D01*
X172059527Y-85897966D01*
X172072568Y-85903555D01*
X172073032Y-85903560D01*
X172073463Y-85903739D01*
X172088095Y-85905180D01*
X172754761Y-85905180D01*
X172769393Y-85903739D01*
X172796429Y-85892540D01*
X172817121Y-85871848D01*
X172828320Y-85844812D01*
X172828320Y-85815548D01*
X172817121Y-85788512D01*
X172796429Y-85767820D01*
X172769393Y-85756621D01*
X172754761Y-85755180D01*
X172201836Y-85755180D01*
X172585602Y-84859724D01*
X172590041Y-84845708D01*
X172590116Y-84839560D01*
X172918446Y-84839560D01*
X172921706Y-84853897D01*
X173255039Y-85853897D01*
X173261033Y-85867322D01*
X173264543Y-85871369D01*
X173266940Y-85876163D01*
X173274048Y-85882328D01*
X173280207Y-85889429D01*
X173284996Y-85891823D01*
X173289047Y-85895337D01*
X173297972Y-85898311D01*
X173306380Y-85902516D01*
X173311724Y-85902895D01*
X173316810Y-85904591D01*
X173326190Y-85903924D01*
X173335570Y-85904591D01*
X173340655Y-85902895D01*
X173346000Y-85902516D01*
X173354410Y-85898310D01*
X173363332Y-85895337D01*
X173367379Y-85891826D01*
X173372173Y-85889430D01*
X173378336Y-85882324D01*
X173385440Y-85876163D01*
X173387835Y-85871371D01*
X173391347Y-85867323D01*
X173397341Y-85853897D01*
X173730674Y-84853897D01*
X173733934Y-84839561D01*
X173731859Y-84810371D01*
X173718773Y-84784197D01*
X173696665Y-84765023D01*
X173668903Y-84755769D01*
X173639713Y-84757844D01*
X173613540Y-84770931D01*
X173594366Y-84793038D01*
X173588372Y-84806463D01*
X173510228Y-85040895D01*
X173142152Y-85040895D01*
X173064008Y-84806463D01*
X173058014Y-84793037D01*
X173038840Y-84770930D01*
X173012667Y-84757844D01*
X172983477Y-84755769D01*
X172955714Y-84765023D01*
X172933607Y-84784197D01*
X172920521Y-84810370D01*
X172918446Y-84839560D01*
X172590116Y-84839560D01*
X172590398Y-84816446D01*
X172579530Y-84789276D01*
X172559091Y-84768333D01*
X172532193Y-84756805D01*
X172502932Y-84756449D01*
X172475762Y-84767317D01*
X172454818Y-84787755D01*
X172447730Y-84800636D01*
X172019159Y-85800636D01*
X172014720Y-85814653D01*
X172014714Y-85815117D01*
X172014536Y-85815548D01*
X172014536Y-85829734D01*
X172014363Y-85843914D01*
X171903252Y-85843914D01*
X171903252Y-84644658D01*
X173845045Y-84644658D01*
X173845045Y-86016291D01*
G37*
G36*
X152711399Y-112179077D02*
G01*
X152783341Y-112251019D01*
X152823683Y-112412386D01*
X152823683Y-112727251D01*
X152783341Y-112888617D01*
X152711398Y-112960561D01*
X152642883Y-112994819D01*
X152487817Y-112994819D01*
X152419301Y-112960561D01*
X152347358Y-112888617D01*
X152307017Y-112727251D01*
X152307017Y-112412386D01*
X152347358Y-112251019D01*
X152419301Y-112179077D01*
X152487817Y-112144819D01*
X152642883Y-112144819D01*
X152711399Y-112179077D01*
G37*
G36*
X154520923Y-112179077D02*
G01*
X154592865Y-112251019D01*
X154633207Y-112412386D01*
X154633207Y-112727251D01*
X154592865Y-112888617D01*
X154520922Y-112960561D01*
X154452407Y-112994819D01*
X154297341Y-112994819D01*
X154228825Y-112960561D01*
X154156882Y-112888617D01*
X154116541Y-112727251D01*
X154116541Y-112412386D01*
X154156882Y-112251019D01*
X154228825Y-112179077D01*
X154297341Y-112144819D01*
X154452407Y-112144819D01*
X154520923Y-112179077D01*
G37*
G36*
X155568542Y-112179077D02*
G01*
X155598949Y-112209484D01*
X155633207Y-112278000D01*
X155633207Y-112385447D01*
X155598949Y-112453963D01*
X155568542Y-112484370D01*
X155500026Y-112518628D01*
X155211779Y-112518628D01*
X155211779Y-112144819D01*
X155500026Y-112144819D01*
X155568542Y-112179077D01*
G37*
G36*
X156846699Y-113255930D02*
G01*
X150950668Y-113255930D01*
X150950668Y-112069819D01*
X151061779Y-112069819D01*
X151061779Y-113069819D01*
X151063220Y-113084451D01*
X151074419Y-113111487D01*
X151095111Y-113132179D01*
X151122147Y-113143378D01*
X151151411Y-113143378D01*
X151178447Y-113132179D01*
X151199139Y-113111487D01*
X151210338Y-113084451D01*
X151211779Y-113069819D01*
X151211779Y-112407886D01*
X151402148Y-112815821D01*
X151405322Y-112821180D01*
X151405982Y-112822993D01*
X151407156Y-112824275D01*
X151409642Y-112828471D01*
X151418051Y-112836171D01*
X151425746Y-112844574D01*
X151428764Y-112845982D01*
X151431223Y-112848234D01*
X151441935Y-112852129D01*
X151452264Y-112856950D01*
X151455592Y-112857096D01*
X151458724Y-112858235D01*
X151470118Y-112857734D01*
X151481500Y-112858234D01*
X151484628Y-112857096D01*
X151487960Y-112856950D01*
X151498295Y-112852126D01*
X151509001Y-112848234D01*
X151511456Y-112845984D01*
X151514478Y-112844575D01*
X151522179Y-112836164D01*
X151530582Y-112828470D01*
X151533065Y-112824277D01*
X151534242Y-112822993D01*
X151534902Y-112821177D01*
X151538076Y-112815820D01*
X151728445Y-112407886D01*
X151728445Y-113069819D01*
X151729886Y-113084451D01*
X151741085Y-113111487D01*
X151761777Y-113132179D01*
X151788813Y-113143378D01*
X151818077Y-113143378D01*
X151845113Y-113132179D01*
X151865805Y-113111487D01*
X151877004Y-113084451D01*
X151878445Y-113069819D01*
X151878445Y-112403152D01*
X152157017Y-112403152D01*
X152157017Y-112736485D01*
X152157268Y-112739038D01*
X152157106Y-112740131D01*
X152157915Y-112745604D01*
X152158458Y-112751117D01*
X152158880Y-112752138D01*
X152159256Y-112754675D01*
X152206875Y-112945151D01*
X152211822Y-112958997D01*
X152215141Y-112963476D01*
X152217275Y-112968628D01*
X152226603Y-112979994D01*
X152321841Y-113075233D01*
X152327591Y-113079953D01*
X152328890Y-113081450D01*
X152331144Y-113082869D01*
X152333206Y-113084561D01*
X152335038Y-113085319D01*
X152341333Y-113089282D01*
X152436571Y-113136901D01*
X152450302Y-113142156D01*
X152452991Y-113142347D01*
X152455480Y-113143378D01*
X152470112Y-113144819D01*
X152660588Y-113144819D01*
X152675220Y-113143378D01*
X152677709Y-113142346D01*
X152680397Y-113142156D01*
X152694129Y-113136901D01*
X152789367Y-113089282D01*
X152795666Y-113085317D01*
X152797494Y-113084560D01*
X152799550Y-113082871D01*
X152801810Y-113081450D01*
X152803109Y-113079951D01*
X152808859Y-113075233D01*
X152904098Y-112979993D01*
X152913425Y-112968628D01*
X152915558Y-112963476D01*
X152918878Y-112958997D01*
X152923825Y-112945151D01*
X152971444Y-112754675D01*
X152971819Y-112752138D01*
X152972242Y-112751117D01*
X152972784Y-112745604D01*
X152973594Y-112740131D01*
X152973431Y-112739038D01*
X152973683Y-112736485D01*
X152973683Y-112403152D01*
X152973431Y-112400598D01*
X152973594Y-112399506D01*
X152972784Y-112394032D01*
X152972242Y-112388520D01*
X152971819Y-112387498D01*
X152971444Y-112384962D01*
X152923825Y-112194486D01*
X152918878Y-112180640D01*
X152915559Y-112176161D01*
X152913425Y-112171008D01*
X152904097Y-112159643D01*
X152808859Y-112064405D01*
X152803109Y-112059686D01*
X152801810Y-112058188D01*
X152799550Y-112056766D01*
X152797627Y-112055187D01*
X153110839Y-112055187D01*
X153110839Y-112084451D01*
X153122038Y-112111487D01*
X153142730Y-112132179D01*
X153169766Y-112143378D01*
X153184398Y-112144819D01*
X153395112Y-112144819D01*
X153395112Y-113069819D01*
X153396553Y-113084451D01*
X153407752Y-113111487D01*
X153428444Y-113132179D01*
X153455480Y-113143378D01*
X153484744Y-113143378D01*
X153511780Y-113132179D01*
X153532472Y-113111487D01*
X153543671Y-113084451D01*
X153545112Y-113069819D01*
X153545112Y-112403152D01*
X153966541Y-112403152D01*
X153966541Y-112736485D01*
X153966792Y-112739038D01*
X153966630Y-112740131D01*
X153967439Y-112745604D01*
X153967982Y-112751117D01*
X153968404Y-112752138D01*
X153968780Y-112754675D01*
X154016399Y-112945151D01*
X154021346Y-112958997D01*
X154024665Y-112963476D01*
X154026799Y-112968628D01*
X154036127Y-112979994D01*
X154131365Y-113075233D01*
X154137115Y-113079953D01*
X154138414Y-113081450D01*
X154140668Y-113082869D01*
X154142730Y-113084561D01*
X154144562Y-113085319D01*
X154150857Y-113089282D01*
X154246095Y-113136901D01*
X154259826Y-113142156D01*
X154262515Y-113142347D01*
X154265004Y-113143378D01*
X154279636Y-113144819D01*
X154470112Y-113144819D01*
X154484744Y-113143378D01*
X154487233Y-113142346D01*
X154489921Y-113142156D01*
X154503653Y-113136901D01*
X154598891Y-113089282D01*
X154605190Y-113085317D01*
X154607018Y-113084560D01*
X154609074Y-113082871D01*
X154611334Y-113081450D01*
X154612633Y-113079951D01*
X154618383Y-113075233D01*
X154713622Y-112979993D01*
X154722949Y-112968628D01*
X154725082Y-112963476D01*
X154728402Y-112958997D01*
X154733349Y-112945151D01*
X154780968Y-112754675D01*
X154781343Y-112752138D01*
X154781766Y-112751117D01*
X154782308Y-112745604D01*
X154783118Y-112740131D01*
X154782955Y-112739038D01*
X154783207Y-112736485D01*
X154783207Y-112403152D01*
X154782955Y-112400598D01*
X154783118Y-112399506D01*
X154782308Y-112394032D01*
X154781766Y-112388520D01*
X154781343Y-112387498D01*
X154780968Y-112384962D01*
X154733349Y-112194486D01*
X154728402Y-112180640D01*
X154725083Y-112176161D01*
X154722949Y-112171008D01*
X154713621Y-112159643D01*
X154623797Y-112069819D01*
X155061779Y-112069819D01*
X155061779Y-113069819D01*
X155063220Y-113084451D01*
X155074419Y-113111487D01*
X155095111Y-113132179D01*
X155122147Y-113143378D01*
X155151411Y-113143378D01*
X155178447Y-113132179D01*
X155199139Y-113111487D01*
X155210338Y-113084451D01*
X155211779Y-113069819D01*
X155211779Y-112668628D01*
X155335825Y-112668628D01*
X155646765Y-113112829D01*
X155656336Y-113123989D01*
X155681015Y-113139716D01*
X155709832Y-113144802D01*
X155738403Y-113138472D01*
X155762377Y-113121690D01*
X155778104Y-113097012D01*
X155783189Y-113068194D01*
X155780308Y-113055187D01*
X155967982Y-113055187D01*
X155967982Y-113084451D01*
X155979181Y-113111487D01*
X155999873Y-113132179D01*
X156026909Y-113143378D01*
X156041541Y-113144819D01*
X156660588Y-113144819D01*
X156675220Y-113143378D01*
X156702256Y-113132179D01*
X156722948Y-113111487D01*
X156734147Y-113084451D01*
X156734147Y-113055187D01*
X156722948Y-113028151D01*
X156702256Y-113007459D01*
X156675220Y-112996260D01*
X156660588Y-112994819D01*
X156222607Y-112994819D01*
X156666002Y-112551423D01*
X156675330Y-112540058D01*
X156676361Y-112537567D01*
X156678126Y-112535533D01*
X156684120Y-112522107D01*
X156731739Y-112379251D01*
X156733388Y-112371995D01*
X156734147Y-112370165D01*
X156734408Y-112367511D01*
X156734999Y-112364914D01*
X156734858Y-112362939D01*
X156735588Y-112355533D01*
X156735588Y-112260295D01*
X156734147Y-112245663D01*
X156733116Y-112243174D01*
X156732925Y-112240485D01*
X156727670Y-112226754D01*
X156680051Y-112131516D01*
X156676086Y-112125216D01*
X156675329Y-112123389D01*
X156673640Y-112121332D01*
X156672219Y-112119073D01*
X156670720Y-112117773D01*
X156666002Y-112112024D01*
X156618383Y-112064405D01*
X156612633Y-112059686D01*
X156611334Y-112058188D01*
X156609074Y-112056766D01*
X156607018Y-112055078D01*
X156605190Y-112054320D01*
X156598891Y-112050356D01*
X156503653Y-112002737D01*
X156489921Y-111997482D01*
X156487233Y-111997291D01*
X156484744Y-111996260D01*
X156470112Y-111994819D01*
X156232017Y-111994819D01*
X156217385Y-111996260D01*
X156214896Y-111997290D01*
X156212207Y-111997482D01*
X156198476Y-112002737D01*
X156103238Y-112050356D01*
X156096938Y-112054320D01*
X156095111Y-112055078D01*
X156093054Y-112056766D01*
X156090795Y-112058188D01*
X156089495Y-112059686D01*
X156083746Y-112064405D01*
X156036127Y-112112024D01*
X156026800Y-112123389D01*
X156015601Y-112150426D01*
X156015601Y-112179688D01*
X156026800Y-112206725D01*
X156047492Y-112227417D01*
X156074529Y-112238616D01*
X156103791Y-112238616D01*
X156130828Y-112227417D01*
X156142193Y-112218090D01*
X156181206Y-112179077D01*
X156249722Y-112144819D01*
X156452407Y-112144819D01*
X156520923Y-112179077D01*
X156551330Y-112209484D01*
X156585588Y-112278000D01*
X156585588Y-112343363D01*
X156547416Y-112457876D01*
X155988508Y-113016786D01*
X155979181Y-113028151D01*
X155967982Y-113055187D01*
X155780308Y-113055187D01*
X155776860Y-113039623D01*
X155769650Y-113026810D01*
X155518846Y-112668518D01*
X155532363Y-112667187D01*
X155534852Y-112666155D01*
X155537540Y-112665965D01*
X155551272Y-112660710D01*
X155646510Y-112613091D01*
X155652809Y-112609126D01*
X155654637Y-112608369D01*
X155656693Y-112606680D01*
X155658953Y-112605259D01*
X155660252Y-112603760D01*
X155666002Y-112599042D01*
X155713621Y-112551423D01*
X155718339Y-112545673D01*
X155719838Y-112544374D01*
X155721259Y-112542114D01*
X155722948Y-112540058D01*
X155723705Y-112538230D01*
X155727670Y-112531931D01*
X155775289Y-112436693D01*
X155780544Y-112422962D01*
X155780735Y-112420272D01*
X155781766Y-112417784D01*
X155783207Y-112403152D01*
X155783207Y-112260295D01*
X155781766Y-112245663D01*
X155780735Y-112243174D01*
X155780544Y-112240485D01*
X155775289Y-112226754D01*
X155727670Y-112131516D01*
X155723705Y-112125216D01*
X155722948Y-112123389D01*
X155721259Y-112121332D01*
X155719838Y-112119073D01*
X155718339Y-112117773D01*
X155713621Y-112112024D01*
X155666002Y-112064405D01*
X155660252Y-112059686D01*
X155658953Y-112058188D01*
X155656693Y-112056766D01*
X155654637Y-112055078D01*
X155652809Y-112054320D01*
X155646510Y-112050356D01*
X155551272Y-112002737D01*
X155537540Y-111997482D01*
X155534852Y-111997291D01*
X155532363Y-111996260D01*
X155517731Y-111994819D01*
X155136779Y-111994819D01*
X155122147Y-111996260D01*
X155095111Y-112007459D01*
X155074419Y-112028151D01*
X155063220Y-112055187D01*
X155061779Y-112069819D01*
X154623797Y-112069819D01*
X154618383Y-112064405D01*
X154612633Y-112059686D01*
X154611334Y-112058188D01*
X154609074Y-112056766D01*
X154607018Y-112055078D01*
X154605190Y-112054320D01*
X154598891Y-112050356D01*
X154503653Y-112002737D01*
X154489921Y-111997482D01*
X154487233Y-111997291D01*
X154484744Y-111996260D01*
X154470112Y-111994819D01*
X154279636Y-111994819D01*
X154265004Y-111996260D01*
X154262515Y-111997290D01*
X154259826Y-111997482D01*
X154246095Y-112002737D01*
X154150857Y-112050356D01*
X154144562Y-112054318D01*
X154142730Y-112055077D01*
X154140668Y-112056768D01*
X154138414Y-112058188D01*
X154137115Y-112059684D01*
X154131365Y-112064405D01*
X154036127Y-112159643D01*
X154026800Y-112171008D01*
X154024666Y-112176158D01*
X154021346Y-112180640D01*
X154016399Y-112194486D01*
X153968780Y-112384962D01*
X153968404Y-112387498D01*
X153967982Y-112388520D01*
X153967439Y-112394032D01*
X153966630Y-112399506D01*
X153966792Y-112400598D01*
X153966541Y-112403152D01*
X153545112Y-112403152D01*
X153545112Y-112144819D01*
X153755826Y-112144819D01*
X153770458Y-112143378D01*
X153797494Y-112132179D01*
X153818186Y-112111487D01*
X153829385Y-112084451D01*
X153829385Y-112055187D01*
X153818186Y-112028151D01*
X153797494Y-112007459D01*
X153770458Y-111996260D01*
X153755826Y-111994819D01*
X153184398Y-111994819D01*
X153169766Y-111996260D01*
X153142730Y-112007459D01*
X153122038Y-112028151D01*
X153110839Y-112055187D01*
X152797627Y-112055187D01*
X152797494Y-112055078D01*
X152795666Y-112054320D01*
X152789367Y-112050356D01*
X152694129Y-112002737D01*
X152680397Y-111997482D01*
X152677709Y-111997291D01*
X152675220Y-111996260D01*
X152660588Y-111994819D01*
X152470112Y-111994819D01*
X152455480Y-111996260D01*
X152452991Y-111997290D01*
X152450302Y-111997482D01*
X152436571Y-112002737D01*
X152341333Y-112050356D01*
X152335038Y-112054318D01*
X152333206Y-112055077D01*
X152331144Y-112056768D01*
X152328890Y-112058188D01*
X152327591Y-112059684D01*
X152321841Y-112064405D01*
X152226603Y-112159643D01*
X152217276Y-112171008D01*
X152215142Y-112176158D01*
X152211822Y-112180640D01*
X152206875Y-112194486D01*
X152159256Y-112384962D01*
X152158880Y-112387498D01*
X152158458Y-112388520D01*
X152157915Y-112394032D01*
X152157106Y-112399506D01*
X152157268Y-112400598D01*
X152157017Y-112403152D01*
X151878445Y-112403152D01*
X151878445Y-112069819D01*
X151877497Y-112060197D01*
X151877575Y-112058431D01*
X151877230Y-112057482D01*
X151877004Y-112055187D01*
X151872022Y-112043160D01*
X151867575Y-112030930D01*
X151866445Y-112029696D01*
X151865805Y-112028151D01*
X151856605Y-112018951D01*
X151847811Y-112009348D01*
X151846294Y-112008640D01*
X151845113Y-112007459D01*
X151833100Y-112002482D01*
X151821293Y-111996973D01*
X151819620Y-111996899D01*
X151818077Y-111996260D01*
X151805071Y-111996260D01*
X151792057Y-111995688D01*
X151790484Y-111996260D01*
X151788813Y-111996260D01*
X151776794Y-112001238D01*
X151764556Y-112005689D01*
X151763322Y-112006819D01*
X151761777Y-112007459D01*
X151752578Y-112016657D01*
X151742975Y-112025452D01*
X151741799Y-112027436D01*
X151741085Y-112028151D01*
X151740408Y-112029784D01*
X151735481Y-112038102D01*
X151470111Y-112606750D01*
X151204743Y-112038103D01*
X151199817Y-112029787D01*
X151199139Y-112028151D01*
X151198423Y-112027435D01*
X151197249Y-112025453D01*
X151187652Y-112016664D01*
X151178447Y-112007459D01*
X151176901Y-112006818D01*
X151175668Y-112005689D01*
X151163437Y-112001241D01*
X151151411Y-111996260D01*
X151149737Y-111996260D01*
X151148167Y-111995689D01*
X151135166Y-111996260D01*
X151122147Y-111996260D01*
X151120602Y-111996899D01*
X151118931Y-111996973D01*
X151107132Y-112002479D01*
X151095111Y-112007459D01*
X151093928Y-112008641D01*
X151092413Y-112009349D01*
X151083624Y-112018945D01*
X151074419Y-112028151D01*
X151073778Y-112029696D01*
X151072649Y-112030930D01*
X151068201Y-112043160D01*
X151063220Y-112055187D01*
X151062993Y-112057482D01*
X151062649Y-112058431D01*
X151062726Y-112060197D01*
X151061779Y-112069819D01*
X150950668Y-112069819D01*
X150950668Y-111883708D01*
X156846699Y-111883708D01*
X156846699Y-113255930D01*
G37*
G36*
X131961399Y-112179077D02*
G01*
X132033341Y-112251019D01*
X132073683Y-112412386D01*
X132073683Y-112727251D01*
X132033341Y-112888617D01*
X131961398Y-112960561D01*
X131892883Y-112994819D01*
X131737817Y-112994819D01*
X131669301Y-112960561D01*
X131597358Y-112888617D01*
X131557017Y-112727251D01*
X131557017Y-112412386D01*
X131597358Y-112251019D01*
X131669301Y-112179077D01*
X131737817Y-112144819D01*
X131892883Y-112144819D01*
X131961399Y-112179077D01*
G37*
G36*
X133770923Y-112179077D02*
G01*
X133842865Y-112251019D01*
X133883207Y-112412386D01*
X133883207Y-112727251D01*
X133842865Y-112888617D01*
X133770922Y-112960561D01*
X133702407Y-112994819D01*
X133547341Y-112994819D01*
X133478825Y-112960561D01*
X133406882Y-112888617D01*
X133366541Y-112727251D01*
X133366541Y-112412386D01*
X133406882Y-112251019D01*
X133478825Y-112179077D01*
X133547341Y-112144819D01*
X133702407Y-112144819D01*
X133770923Y-112179077D01*
G37*
G36*
X134818542Y-112179077D02*
G01*
X134848949Y-112209484D01*
X134883207Y-112278000D01*
X134883207Y-112385447D01*
X134848949Y-112453963D01*
X134818542Y-112484370D01*
X134750026Y-112518628D01*
X134461779Y-112518628D01*
X134461779Y-112144819D01*
X134750026Y-112144819D01*
X134818542Y-112179077D01*
G37*
G36*
X136095258Y-113255930D02*
G01*
X130200668Y-113255930D01*
X130200668Y-112069819D01*
X130311779Y-112069819D01*
X130311779Y-113069819D01*
X130313220Y-113084451D01*
X130324419Y-113111487D01*
X130345111Y-113132179D01*
X130372147Y-113143378D01*
X130401411Y-113143378D01*
X130428447Y-113132179D01*
X130449139Y-113111487D01*
X130460338Y-113084451D01*
X130461779Y-113069819D01*
X130461779Y-112407886D01*
X130652148Y-112815821D01*
X130655322Y-112821180D01*
X130655982Y-112822993D01*
X130657156Y-112824275D01*
X130659642Y-112828471D01*
X130668051Y-112836171D01*
X130675746Y-112844574D01*
X130678764Y-112845982D01*
X130681223Y-112848234D01*
X130691935Y-112852129D01*
X130702264Y-112856950D01*
X130705592Y-112857096D01*
X130708724Y-112858235D01*
X130720118Y-112857734D01*
X130731500Y-112858234D01*
X130734628Y-112857096D01*
X130737960Y-112856950D01*
X130748295Y-112852126D01*
X130759001Y-112848234D01*
X130761456Y-112845984D01*
X130764478Y-112844575D01*
X130772179Y-112836164D01*
X130780582Y-112828470D01*
X130783065Y-112824277D01*
X130784242Y-112822993D01*
X130784902Y-112821177D01*
X130788076Y-112815820D01*
X130978445Y-112407886D01*
X130978445Y-113069819D01*
X130979886Y-113084451D01*
X130991085Y-113111487D01*
X131011777Y-113132179D01*
X131038813Y-113143378D01*
X131068077Y-113143378D01*
X131095113Y-113132179D01*
X131115805Y-113111487D01*
X131127004Y-113084451D01*
X131128445Y-113069819D01*
X131128445Y-112403152D01*
X131407017Y-112403152D01*
X131407017Y-112736485D01*
X131407268Y-112739038D01*
X131407106Y-112740131D01*
X131407915Y-112745604D01*
X131408458Y-112751117D01*
X131408880Y-112752138D01*
X131409256Y-112754675D01*
X131456875Y-112945151D01*
X131461822Y-112958997D01*
X131465141Y-112963476D01*
X131467275Y-112968628D01*
X131476603Y-112979994D01*
X131571841Y-113075233D01*
X131577591Y-113079953D01*
X131578890Y-113081450D01*
X131581144Y-113082869D01*
X131583206Y-113084561D01*
X131585038Y-113085319D01*
X131591333Y-113089282D01*
X131686571Y-113136901D01*
X131700302Y-113142156D01*
X131702991Y-113142347D01*
X131705480Y-113143378D01*
X131720112Y-113144819D01*
X131910588Y-113144819D01*
X131925220Y-113143378D01*
X131927709Y-113142346D01*
X131930397Y-113142156D01*
X131944129Y-113136901D01*
X132039367Y-113089282D01*
X132045666Y-113085317D01*
X132047494Y-113084560D01*
X132049550Y-113082871D01*
X132051810Y-113081450D01*
X132053109Y-113079951D01*
X132058859Y-113075233D01*
X132154098Y-112979993D01*
X132163425Y-112968628D01*
X132165558Y-112963476D01*
X132168878Y-112958997D01*
X132173825Y-112945151D01*
X132221444Y-112754675D01*
X132221819Y-112752138D01*
X132222242Y-112751117D01*
X132222784Y-112745604D01*
X132223594Y-112740131D01*
X132223431Y-112739038D01*
X132223683Y-112736485D01*
X132223683Y-112403152D01*
X132223431Y-112400598D01*
X132223594Y-112399506D01*
X132222784Y-112394032D01*
X132222242Y-112388520D01*
X132221819Y-112387498D01*
X132221444Y-112384962D01*
X132173825Y-112194486D01*
X132168878Y-112180640D01*
X132165559Y-112176161D01*
X132163425Y-112171008D01*
X132154097Y-112159643D01*
X132058859Y-112064405D01*
X132053109Y-112059686D01*
X132051810Y-112058188D01*
X132049550Y-112056766D01*
X132047627Y-112055187D01*
X132360839Y-112055187D01*
X132360839Y-112084451D01*
X132372038Y-112111487D01*
X132392730Y-112132179D01*
X132419766Y-112143378D01*
X132434398Y-112144819D01*
X132645112Y-112144819D01*
X132645112Y-113069819D01*
X132646553Y-113084451D01*
X132657752Y-113111487D01*
X132678444Y-113132179D01*
X132705480Y-113143378D01*
X132734744Y-113143378D01*
X132761780Y-113132179D01*
X132782472Y-113111487D01*
X132793671Y-113084451D01*
X132795112Y-113069819D01*
X132795112Y-112403152D01*
X133216541Y-112403152D01*
X133216541Y-112736485D01*
X133216792Y-112739038D01*
X133216630Y-112740131D01*
X133217439Y-112745604D01*
X133217982Y-112751117D01*
X133218404Y-112752138D01*
X133218780Y-112754675D01*
X133266399Y-112945151D01*
X133271346Y-112958997D01*
X133274665Y-112963476D01*
X133276799Y-112968628D01*
X133286127Y-112979994D01*
X133381365Y-113075233D01*
X133387115Y-113079953D01*
X133388414Y-113081450D01*
X133390668Y-113082869D01*
X133392730Y-113084561D01*
X133394562Y-113085319D01*
X133400857Y-113089282D01*
X133496095Y-113136901D01*
X133509826Y-113142156D01*
X133512515Y-113142347D01*
X133515004Y-113143378D01*
X133529636Y-113144819D01*
X133720112Y-113144819D01*
X133734744Y-113143378D01*
X133737233Y-113142346D01*
X133739921Y-113142156D01*
X133753653Y-113136901D01*
X133848891Y-113089282D01*
X133855190Y-113085317D01*
X133857018Y-113084560D01*
X133859074Y-113082871D01*
X133861334Y-113081450D01*
X133862633Y-113079951D01*
X133868383Y-113075233D01*
X133963622Y-112979993D01*
X133972949Y-112968628D01*
X133975082Y-112963476D01*
X133978402Y-112958997D01*
X133983349Y-112945151D01*
X134030968Y-112754675D01*
X134031343Y-112752138D01*
X134031766Y-112751117D01*
X134032308Y-112745604D01*
X134033118Y-112740131D01*
X134032955Y-112739038D01*
X134033207Y-112736485D01*
X134033207Y-112403152D01*
X134032955Y-112400598D01*
X134033118Y-112399506D01*
X134032308Y-112394032D01*
X134031766Y-112388520D01*
X134031343Y-112387498D01*
X134030968Y-112384962D01*
X133983349Y-112194486D01*
X133978402Y-112180640D01*
X133975083Y-112176161D01*
X133972949Y-112171008D01*
X133963621Y-112159643D01*
X133873797Y-112069819D01*
X134311779Y-112069819D01*
X134311779Y-113069819D01*
X134313220Y-113084451D01*
X134324419Y-113111487D01*
X134345111Y-113132179D01*
X134372147Y-113143378D01*
X134401411Y-113143378D01*
X134428447Y-113132179D01*
X134449139Y-113111487D01*
X134460338Y-113084451D01*
X134461779Y-113069819D01*
X134461779Y-112668628D01*
X134585825Y-112668628D01*
X134896765Y-113112829D01*
X134906336Y-113123989D01*
X134931015Y-113139716D01*
X134959832Y-113144802D01*
X134988403Y-113138472D01*
X135012377Y-113121690D01*
X135028104Y-113097012D01*
X135033189Y-113068194D01*
X135026860Y-113039623D01*
X135019650Y-113026810D01*
X134768846Y-112668518D01*
X134782363Y-112667187D01*
X134784852Y-112666155D01*
X134787540Y-112665965D01*
X134801272Y-112660710D01*
X134896510Y-112613091D01*
X134902809Y-112609126D01*
X134904637Y-112608369D01*
X134906693Y-112606680D01*
X134908953Y-112605259D01*
X134910252Y-112603760D01*
X134916002Y-112599042D01*
X134963621Y-112551423D01*
X134968339Y-112545673D01*
X134969838Y-112544374D01*
X134971259Y-112542114D01*
X134972948Y-112540058D01*
X134973705Y-112538230D01*
X134977670Y-112531931D01*
X135025289Y-112436693D01*
X135030544Y-112422962D01*
X135030735Y-112420272D01*
X135031766Y-112417784D01*
X135033207Y-112403152D01*
X135033207Y-112346152D01*
X135264749Y-112346152D01*
X135266823Y-112375342D01*
X135279910Y-112401517D01*
X135302018Y-112420690D01*
X135329779Y-112429944D01*
X135358969Y-112427870D01*
X135372701Y-112422615D01*
X135467939Y-112374996D01*
X135474238Y-112371031D01*
X135476066Y-112370274D01*
X135478122Y-112368585D01*
X135480382Y-112367164D01*
X135481681Y-112365665D01*
X135487431Y-112360947D01*
X135549874Y-112298504D01*
X135549874Y-112994819D01*
X135339160Y-112994819D01*
X135324528Y-112996260D01*
X135297492Y-113007459D01*
X135276800Y-113028151D01*
X135265601Y-113055187D01*
X135265601Y-113084451D01*
X135276800Y-113111487D01*
X135297492Y-113132179D01*
X135324528Y-113143378D01*
X135339160Y-113144819D01*
X135910588Y-113144819D01*
X135925220Y-113143378D01*
X135952256Y-113132179D01*
X135972948Y-113111487D01*
X135984147Y-113084451D01*
X135984147Y-113055187D01*
X135972948Y-113028151D01*
X135952256Y-113007459D01*
X135925220Y-112996260D01*
X135910588Y-112994819D01*
X135699874Y-112994819D01*
X135699874Y-112069819D01*
X135699868Y-112069766D01*
X135699874Y-112069740D01*
X135699858Y-112069663D01*
X135698433Y-112055187D01*
X135695591Y-112048326D01*
X135694135Y-112041045D01*
X135690045Y-112034938D01*
X135687234Y-112028151D01*
X135681985Y-112022902D01*
X135677852Y-112016730D01*
X135671735Y-112012652D01*
X135666542Y-112007459D01*
X135659682Y-112004617D01*
X135653503Y-112000498D01*
X135646294Y-111999072D01*
X135639506Y-111996260D01*
X135632079Y-111996260D01*
X135624795Y-111994819D01*
X135617590Y-111996260D01*
X135610242Y-111996260D01*
X135603381Y-111999101D01*
X135596101Y-112000558D01*
X135589995Y-112004646D01*
X135583206Y-112007459D01*
X135577955Y-112012709D01*
X135571786Y-112016841D01*
X135562565Y-112028099D01*
X135562514Y-112028151D01*
X135562504Y-112028173D01*
X135562470Y-112028216D01*
X135471350Y-112164896D01*
X135389971Y-112246275D01*
X135305619Y-112288451D01*
X135293176Y-112296283D01*
X135274003Y-112318391D01*
X135264749Y-112346152D01*
X135033207Y-112346152D01*
X135033207Y-112260295D01*
X135031766Y-112245663D01*
X135030735Y-112243174D01*
X135030544Y-112240485D01*
X135025289Y-112226754D01*
X134977670Y-112131516D01*
X134973705Y-112125216D01*
X134972948Y-112123389D01*
X134971259Y-112121332D01*
X134969838Y-112119073D01*
X134968339Y-112117773D01*
X134963621Y-112112024D01*
X134916002Y-112064405D01*
X134910252Y-112059686D01*
X134908953Y-112058188D01*
X134906693Y-112056766D01*
X134904637Y-112055078D01*
X134902809Y-112054320D01*
X134896510Y-112050356D01*
X134801272Y-112002737D01*
X134787540Y-111997482D01*
X134784852Y-111997291D01*
X134782363Y-111996260D01*
X134767731Y-111994819D01*
X134386779Y-111994819D01*
X134372147Y-111996260D01*
X134345111Y-112007459D01*
X134324419Y-112028151D01*
X134313220Y-112055187D01*
X134311779Y-112069819D01*
X133873797Y-112069819D01*
X133868383Y-112064405D01*
X133862633Y-112059686D01*
X133861334Y-112058188D01*
X133859074Y-112056766D01*
X133857018Y-112055078D01*
X133855190Y-112054320D01*
X133848891Y-112050356D01*
X133753653Y-112002737D01*
X133739921Y-111997482D01*
X133737233Y-111997291D01*
X133734744Y-111996260D01*
X133720112Y-111994819D01*
X133529636Y-111994819D01*
X133515004Y-111996260D01*
X133512515Y-111997290D01*
X133509826Y-111997482D01*
X133496095Y-112002737D01*
X133400857Y-112050356D01*
X133394562Y-112054318D01*
X133392730Y-112055077D01*
X133390668Y-112056768D01*
X133388414Y-112058188D01*
X133387115Y-112059684D01*
X133381365Y-112064405D01*
X133286127Y-112159643D01*
X133276800Y-112171008D01*
X133274666Y-112176158D01*
X133271346Y-112180640D01*
X133266399Y-112194486D01*
X133218780Y-112384962D01*
X133218404Y-112387498D01*
X133217982Y-112388520D01*
X133217439Y-112394032D01*
X133216630Y-112399506D01*
X133216792Y-112400598D01*
X133216541Y-112403152D01*
X132795112Y-112403152D01*
X132795112Y-112144819D01*
X133005826Y-112144819D01*
X133020458Y-112143378D01*
X133047494Y-112132179D01*
X133068186Y-112111487D01*
X133079385Y-112084451D01*
X133079385Y-112055187D01*
X133068186Y-112028151D01*
X133047494Y-112007459D01*
X133020458Y-111996260D01*
X133005826Y-111994819D01*
X132434398Y-111994819D01*
X132419766Y-111996260D01*
X132392730Y-112007459D01*
X132372038Y-112028151D01*
X132360839Y-112055187D01*
X132047627Y-112055187D01*
X132047494Y-112055078D01*
X132045666Y-112054320D01*
X132039367Y-112050356D01*
X131944129Y-112002737D01*
X131930397Y-111997482D01*
X131927709Y-111997291D01*
X131925220Y-111996260D01*
X131910588Y-111994819D01*
X131720112Y-111994819D01*
X131705480Y-111996260D01*
X131702991Y-111997290D01*
X131700302Y-111997482D01*
X131686571Y-112002737D01*
X131591333Y-112050356D01*
X131585038Y-112054318D01*
X131583206Y-112055077D01*
X131581144Y-112056768D01*
X131578890Y-112058188D01*
X131577591Y-112059684D01*
X131571841Y-112064405D01*
X131476603Y-112159643D01*
X131467276Y-112171008D01*
X131465142Y-112176158D01*
X131461822Y-112180640D01*
X131456875Y-112194486D01*
X131409256Y-112384962D01*
X131408880Y-112387498D01*
X131408458Y-112388520D01*
X131407915Y-112394032D01*
X131407106Y-112399506D01*
X131407268Y-112400598D01*
X131407017Y-112403152D01*
X131128445Y-112403152D01*
X131128445Y-112069819D01*
X131127497Y-112060197D01*
X131127575Y-112058431D01*
X131127230Y-112057482D01*
X131127004Y-112055187D01*
X131122022Y-112043160D01*
X131117575Y-112030930D01*
X131116445Y-112029696D01*
X131115805Y-112028151D01*
X131106605Y-112018951D01*
X131097811Y-112009348D01*
X131096294Y-112008640D01*
X131095113Y-112007459D01*
X131083100Y-112002482D01*
X131071293Y-111996973D01*
X131069620Y-111996899D01*
X131068077Y-111996260D01*
X131055071Y-111996260D01*
X131042057Y-111995688D01*
X131040484Y-111996260D01*
X131038813Y-111996260D01*
X131026794Y-112001238D01*
X131014556Y-112005689D01*
X131013322Y-112006819D01*
X131011777Y-112007459D01*
X131002578Y-112016657D01*
X130992975Y-112025452D01*
X130991799Y-112027436D01*
X130991085Y-112028151D01*
X130990408Y-112029784D01*
X130985481Y-112038102D01*
X130720111Y-112606750D01*
X130454743Y-112038103D01*
X130449817Y-112029787D01*
X130449139Y-112028151D01*
X130448423Y-112027435D01*
X130447249Y-112025453D01*
X130437652Y-112016664D01*
X130428447Y-112007459D01*
X130426901Y-112006818D01*
X130425668Y-112005689D01*
X130413437Y-112001241D01*
X130401411Y-111996260D01*
X130399737Y-111996260D01*
X130398167Y-111995689D01*
X130385166Y-111996260D01*
X130372147Y-111996260D01*
X130370602Y-111996899D01*
X130368931Y-111996973D01*
X130357132Y-112002479D01*
X130345111Y-112007459D01*
X130343928Y-112008641D01*
X130342413Y-112009349D01*
X130333624Y-112018945D01*
X130324419Y-112028151D01*
X130323778Y-112029696D01*
X130322649Y-112030930D01*
X130318201Y-112043160D01*
X130313220Y-112055187D01*
X130312993Y-112057482D01*
X130312649Y-112058431D01*
X130312726Y-112060197D01*
X130311779Y-112069819D01*
X130200668Y-112069819D01*
X130200668Y-111883708D01*
X136095258Y-111883708D01*
X136095258Y-113255930D01*
G37*
D12*
X126214750Y-97818571D02*
X126214750Y-98961429D01*
X125643321Y-98390000D02*
X126786178Y-98390000D01*
D11*
X100694360Y-107703014D02*
X100694360Y-106953014D01*
X100694360Y-106953014D02*
X100944360Y-107488728D01*
X100944360Y-107488728D02*
X101194360Y-106953014D01*
X101194360Y-106953014D02*
X101194360Y-107703014D01*
X101551503Y-107703014D02*
X101551503Y-106953014D01*
X101872932Y-107667300D02*
X101980075Y-107703014D01*
X101980075Y-107703014D02*
X102158646Y-107703014D01*
X102158646Y-107703014D02*
X102230075Y-107667300D01*
X102230075Y-107667300D02*
X102265789Y-107631585D01*
X102265789Y-107631585D02*
X102301503Y-107560157D01*
X102301503Y-107560157D02*
X102301503Y-107488728D01*
X102301503Y-107488728D02*
X102265789Y-107417300D01*
X102265789Y-107417300D02*
X102230075Y-107381585D01*
X102230075Y-107381585D02*
X102158646Y-107345871D01*
X102158646Y-107345871D02*
X102015789Y-107310157D01*
X102015789Y-107310157D02*
X101944360Y-107274442D01*
X101944360Y-107274442D02*
X101908646Y-107238728D01*
X101908646Y-107238728D02*
X101872932Y-107167300D01*
X101872932Y-107167300D02*
X101872932Y-107095871D01*
X101872932Y-107095871D02*
X101908646Y-107024442D01*
X101908646Y-107024442D02*
X101944360Y-106988728D01*
X101944360Y-106988728D02*
X102015789Y-106953014D01*
X102015789Y-106953014D02*
X102194360Y-106953014D01*
X102194360Y-106953014D02*
X102301503Y-106988728D01*
X102765789Y-106953014D02*
X102908646Y-106953014D01*
X102908646Y-106953014D02*
X102980075Y-106988728D01*
X102980075Y-106988728D02*
X103051503Y-107060157D01*
X103051503Y-107060157D02*
X103087218Y-107203014D01*
X103087218Y-107203014D02*
X103087218Y-107453014D01*
X103087218Y-107453014D02*
X103051503Y-107595871D01*
X103051503Y-107595871D02*
X102980075Y-107667300D01*
X102980075Y-107667300D02*
X102908646Y-107703014D01*
X102908646Y-107703014D02*
X102765789Y-107703014D01*
X102765789Y-107703014D02*
X102694361Y-107667300D01*
X102694361Y-107667300D02*
X102622932Y-107595871D01*
X102622932Y-107595871D02*
X102587218Y-107453014D01*
X102587218Y-107453014D02*
X102587218Y-107203014D01*
X102587218Y-107203014D02*
X102622932Y-107060157D01*
X102622932Y-107060157D02*
X102694361Y-106988728D01*
X102694361Y-106988728D02*
X102765789Y-106953014D01*
D12*
X126214750Y-100378571D02*
X126214750Y-101521429D01*
D10*
G36*
X107788220Y-83505180D02*
G01*
X107637295Y-83505180D01*
X107522782Y-83467009D01*
X107448669Y-83392896D01*
X107410175Y-83315909D01*
X107366792Y-83142375D01*
X107366792Y-83017986D01*
X107410175Y-82844452D01*
X107448669Y-82767465D01*
X107522781Y-82693352D01*
X107637296Y-82655180D01*
X107788220Y-82655180D01*
X107788220Y-83505180D01*
G37*
G36*
X108049331Y-83766291D02*
G01*
X106106949Y-83766291D01*
X106106949Y-83593914D01*
X106218060Y-83593914D01*
X106218233Y-83594346D01*
X106218233Y-83594812D01*
X106223654Y-83607901D01*
X106228928Y-83621084D01*
X106229253Y-83621417D01*
X106229432Y-83621848D01*
X106239451Y-83631867D01*
X106249367Y-83642028D01*
X106249795Y-83642211D01*
X106250124Y-83642540D01*
X106263224Y-83647966D01*
X106276265Y-83653555D01*
X106276729Y-83653560D01*
X106277160Y-83653739D01*
X106291792Y-83655180D01*
X106958458Y-83655180D01*
X106973090Y-83653739D01*
X107000126Y-83642540D01*
X107020818Y-83621848D01*
X107032017Y-83594812D01*
X107032017Y-83565548D01*
X107020818Y-83538512D01*
X107000126Y-83517820D01*
X106973090Y-83506621D01*
X106958458Y-83505180D01*
X106405533Y-83505180D01*
X106618287Y-83008752D01*
X107216792Y-83008752D01*
X107216792Y-83151609D01*
X107217043Y-83154162D01*
X107216881Y-83155255D01*
X107217690Y-83160728D01*
X107218233Y-83166241D01*
X107218655Y-83167262D01*
X107219031Y-83169799D01*
X107266650Y-83360275D01*
X107267035Y-83361354D01*
X107267074Y-83361894D01*
X107269401Y-83367975D01*
X107271597Y-83374121D01*
X107271919Y-83374556D01*
X107272329Y-83375626D01*
X107319948Y-83470864D01*
X107323912Y-83477163D01*
X107324670Y-83478991D01*
X107326358Y-83481047D01*
X107327780Y-83483307D01*
X107329278Y-83484606D01*
X107333997Y-83490356D01*
X107429235Y-83585594D01*
X107440600Y-83594922D01*
X107443090Y-83595953D01*
X107445125Y-83597718D01*
X107458551Y-83603712D01*
X107601407Y-83651331D01*
X107608662Y-83652980D01*
X107610493Y-83653739D01*
X107613146Y-83654000D01*
X107615744Y-83654591D01*
X107617718Y-83654450D01*
X107625125Y-83655180D01*
X107863220Y-83655180D01*
X107877852Y-83653739D01*
X107904888Y-83642540D01*
X107925580Y-83621848D01*
X107936779Y-83594812D01*
X107938220Y-83580180D01*
X107938220Y-82580180D01*
X107936779Y-82565548D01*
X107925580Y-82538512D01*
X107904888Y-82517820D01*
X107877852Y-82506621D01*
X107863220Y-82505180D01*
X107625125Y-82505180D01*
X107617719Y-82505909D01*
X107615744Y-82505769D01*
X107613146Y-82506359D01*
X107610493Y-82506621D01*
X107608662Y-82507379D01*
X107601408Y-82509029D01*
X107458550Y-82556649D01*
X107445125Y-82562643D01*
X107443090Y-82564407D01*
X107440600Y-82565439D01*
X107429235Y-82574767D01*
X107333997Y-82670005D01*
X107329278Y-82675754D01*
X107327780Y-82677054D01*
X107326358Y-82679313D01*
X107324670Y-82681370D01*
X107323912Y-82683197D01*
X107319948Y-82689497D01*
X107272329Y-82784735D01*
X107271919Y-82785804D01*
X107271597Y-82786240D01*
X107269401Y-82792385D01*
X107267074Y-82798467D01*
X107267035Y-82799006D01*
X107266650Y-82800086D01*
X107219031Y-82990562D01*
X107218655Y-82993098D01*
X107218233Y-82994120D01*
X107217690Y-82999632D01*
X107216881Y-83005106D01*
X107217043Y-83006198D01*
X107216792Y-83008752D01*
X106618287Y-83008752D01*
X106789299Y-82609724D01*
X106793738Y-82595708D01*
X106794095Y-82566446D01*
X106783227Y-82539276D01*
X106762788Y-82518333D01*
X106735890Y-82506805D01*
X106706629Y-82506449D01*
X106679459Y-82517317D01*
X106658515Y-82537755D01*
X106651427Y-82550636D01*
X106222856Y-83550636D01*
X106218417Y-83564653D01*
X106218411Y-83565117D01*
X106218233Y-83565548D01*
X106218233Y-83579734D01*
X106218060Y-83593914D01*
X106106949Y-83593914D01*
X106106949Y-82394069D01*
X108049331Y-82394069D01*
X108049331Y-83766291D01*
G37*
D11*
X147053014Y-112477068D02*
X146695871Y-112727068D01*
X147053014Y-112905639D02*
X146303014Y-112905639D01*
X146303014Y-112905639D02*
X146303014Y-112619925D01*
X146303014Y-112619925D02*
X146338728Y-112548496D01*
X146338728Y-112548496D02*
X146374442Y-112512782D01*
X146374442Y-112512782D02*
X146445871Y-112477068D01*
X146445871Y-112477068D02*
X146553014Y-112477068D01*
X146553014Y-112477068D02*
X146624442Y-112512782D01*
X146624442Y-112512782D02*
X146660157Y-112548496D01*
X146660157Y-112548496D02*
X146695871Y-112619925D01*
X146695871Y-112619925D02*
X146695871Y-112905639D01*
X146660157Y-112155639D02*
X146660157Y-111905639D01*
X147053014Y-111798496D02*
X147053014Y-112155639D01*
X147053014Y-112155639D02*
X146303014Y-112155639D01*
X146303014Y-112155639D02*
X146303014Y-111798496D01*
X147017300Y-111512782D02*
X147053014Y-111405640D01*
X147053014Y-111405640D02*
X147053014Y-111227068D01*
X147053014Y-111227068D02*
X147017300Y-111155640D01*
X147017300Y-111155640D02*
X146981585Y-111119925D01*
X146981585Y-111119925D02*
X146910157Y-111084211D01*
X146910157Y-111084211D02*
X146838728Y-111084211D01*
X146838728Y-111084211D02*
X146767300Y-111119925D01*
X146767300Y-111119925D02*
X146731585Y-111155640D01*
X146731585Y-111155640D02*
X146695871Y-111227068D01*
X146695871Y-111227068D02*
X146660157Y-111369925D01*
X146660157Y-111369925D02*
X146624442Y-111441354D01*
X146624442Y-111441354D02*
X146588728Y-111477068D01*
X146588728Y-111477068D02*
X146517300Y-111512782D01*
X146517300Y-111512782D02*
X146445871Y-111512782D01*
X146445871Y-111512782D02*
X146374442Y-111477068D01*
X146374442Y-111477068D02*
X146338728Y-111441354D01*
X146338728Y-111441354D02*
X146303014Y-111369925D01*
X146303014Y-111369925D02*
X146303014Y-111191354D01*
X146303014Y-111191354D02*
X146338728Y-111084211D01*
X146660157Y-110762782D02*
X146660157Y-110512782D01*
X147053014Y-110405639D02*
X147053014Y-110762782D01*
X147053014Y-110762782D02*
X146303014Y-110762782D01*
X146303014Y-110762782D02*
X146303014Y-110405639D01*
X146303014Y-110191354D02*
X146303014Y-109762783D01*
X147053014Y-109977068D02*
X146303014Y-109977068D01*
D13*
X157689638Y-111795489D02*
X157689638Y-111414536D01*
X157689638Y-111414536D02*
X157784876Y-111224060D01*
X157784876Y-111224060D02*
X157975352Y-111033584D01*
X157975352Y-111033584D02*
X158356304Y-110938346D01*
X158356304Y-110938346D02*
X159022971Y-110938346D01*
X159022971Y-110938346D02*
X159403923Y-111033584D01*
X159403923Y-111033584D02*
X159594400Y-111224060D01*
X159594400Y-111224060D02*
X159689638Y-111414536D01*
X159689638Y-111414536D02*
X159689638Y-111795489D01*
X159689638Y-111795489D02*
X159594400Y-111985965D01*
X159594400Y-111985965D02*
X159403923Y-112176441D01*
X159403923Y-112176441D02*
X159022971Y-112271679D01*
X159022971Y-112271679D02*
X158356304Y-112271679D01*
X158356304Y-112271679D02*
X157975352Y-112176441D01*
X157975352Y-112176441D02*
X157784876Y-111985965D01*
X157784876Y-111985965D02*
X157689638Y-111795489D01*
X158642019Y-109414536D02*
X158642019Y-110081203D01*
X159689638Y-110081203D02*
X157689638Y-110081203D01*
X157689638Y-110081203D02*
X157689638Y-109128822D01*
X158642019Y-107700250D02*
X158642019Y-108366917D01*
X159689638Y-108366917D02*
X157689638Y-108366917D01*
X157689638Y-108366917D02*
X157689638Y-107414536D01*
D12*
X153768571Y-85435250D02*
X154911429Y-85435250D01*
D10*
G36*
X132976190Y-85593009D02*
G01*
X132842152Y-85190895D01*
X133110228Y-85190895D01*
X132976190Y-85593009D01*
G37*
G36*
X133495045Y-86016291D02*
G01*
X131599603Y-86016291D01*
X131599603Y-85544466D01*
X131710714Y-85544466D01*
X131710714Y-85639704D01*
X131712155Y-85654336D01*
X131713186Y-85656825D01*
X131713377Y-85659513D01*
X131718632Y-85673245D01*
X131766251Y-85768483D01*
X131770215Y-85774782D01*
X131770973Y-85776610D01*
X131772661Y-85778666D01*
X131774083Y-85780926D01*
X131775581Y-85782225D01*
X131780300Y-85787975D01*
X131827919Y-85835594D01*
X131833668Y-85840312D01*
X131834968Y-85841811D01*
X131837227Y-85843232D01*
X131839284Y-85844921D01*
X131841111Y-85845678D01*
X131847411Y-85849643D01*
X131942649Y-85897262D01*
X131956380Y-85902517D01*
X131959069Y-85902708D01*
X131961558Y-85903739D01*
X131976190Y-85905180D01*
X132214285Y-85905180D01*
X132228917Y-85903739D01*
X132231406Y-85902707D01*
X132234094Y-85902517D01*
X132247826Y-85897262D01*
X132343064Y-85849643D01*
X132349363Y-85845678D01*
X132351191Y-85844921D01*
X132353247Y-85843232D01*
X132355507Y-85841811D01*
X132356806Y-85840312D01*
X132362556Y-85835594D01*
X132410175Y-85787975D01*
X132419502Y-85776610D01*
X132430701Y-85749574D01*
X132430701Y-85720311D01*
X132419502Y-85693275D01*
X132398809Y-85672582D01*
X132371773Y-85661383D01*
X132342510Y-85661383D01*
X132315474Y-85672582D01*
X132304109Y-85681909D01*
X132265096Y-85720922D01*
X132196580Y-85755180D01*
X131993895Y-85755180D01*
X131925379Y-85720922D01*
X131894972Y-85690515D01*
X131860714Y-85621999D01*
X131860714Y-85556636D01*
X131898885Y-85442122D01*
X132457794Y-84883213D01*
X132467122Y-84871848D01*
X132478320Y-84844811D01*
X132478320Y-84839560D01*
X132568446Y-84839560D01*
X132571706Y-84853897D01*
X132905039Y-85853897D01*
X132911033Y-85867322D01*
X132914543Y-85871369D01*
X132916940Y-85876163D01*
X132924048Y-85882328D01*
X132930207Y-85889429D01*
X132934996Y-85891823D01*
X132939047Y-85895337D01*
X132947972Y-85898311D01*
X132956380Y-85902516D01*
X132961724Y-85902895D01*
X132966810Y-85904591D01*
X132976190Y-85903924D01*
X132985570Y-85904591D01*
X132990655Y-85902895D01*
X132996000Y-85902516D01*
X133004410Y-85898310D01*
X133013332Y-85895337D01*
X133017379Y-85891826D01*
X133022173Y-85889430D01*
X133028336Y-85882324D01*
X133035440Y-85876163D01*
X133037835Y-85871371D01*
X133041347Y-85867323D01*
X133047341Y-85853897D01*
X133380674Y-84853897D01*
X133383934Y-84839561D01*
X133381859Y-84810371D01*
X133368773Y-84784197D01*
X133346665Y-84765023D01*
X133318903Y-84755769D01*
X133289713Y-84757844D01*
X133263540Y-84770931D01*
X133244366Y-84793038D01*
X133238372Y-84806463D01*
X133160228Y-85040895D01*
X132792152Y-85040895D01*
X132714008Y-84806463D01*
X132708014Y-84793037D01*
X132688840Y-84770930D01*
X132662667Y-84757844D01*
X132633477Y-84755769D01*
X132605714Y-84765023D01*
X132583607Y-84784197D01*
X132570521Y-84810370D01*
X132568446Y-84839560D01*
X132478320Y-84839560D01*
X132478320Y-84815548D01*
X132467121Y-84788512D01*
X132446429Y-84767819D01*
X132422345Y-84757844D01*
X132419393Y-84756621D01*
X132404761Y-84755180D01*
X131785714Y-84755180D01*
X131771082Y-84756621D01*
X131744046Y-84767820D01*
X131723354Y-84788512D01*
X131712155Y-84815548D01*
X131712155Y-84844812D01*
X131723354Y-84871848D01*
X131744046Y-84892540D01*
X131771082Y-84903739D01*
X131785714Y-84905180D01*
X132223695Y-84905180D01*
X131780300Y-85348576D01*
X131770973Y-85359941D01*
X131769941Y-85362431D01*
X131768176Y-85364467D01*
X131762182Y-85377892D01*
X131714563Y-85520749D01*
X131712913Y-85528002D01*
X131712155Y-85529834D01*
X131711893Y-85532488D01*
X131711303Y-85535086D01*
X131711443Y-85537060D01*
X131710714Y-85544466D01*
X131599603Y-85544466D01*
X131599603Y-84644069D01*
X133495045Y-84644069D01*
X133495045Y-86016291D01*
G37*
D11*
X109053884Y-107241466D02*
X109815789Y-107241466D01*
X109434836Y-107622419D02*
X109434836Y-106860514D01*
D12*
X167228571Y-85435250D02*
X168371429Y-85435250D01*
D11*
X109053884Y-112341466D02*
X109815789Y-112341466D01*
D12*
X126878571Y-85435250D02*
X128021429Y-85435250D01*
X113528571Y-85435250D02*
X114671429Y-85435250D01*
D10*
G36*
X119626190Y-85593009D02*
G01*
X119492152Y-85190895D01*
X119760228Y-85190895D01*
X119626190Y-85593009D01*
G37*
G36*
X120145045Y-86016291D02*
G01*
X118249603Y-86016291D01*
X118249603Y-85020657D01*
X118360714Y-85020657D01*
X118360714Y-85258752D01*
X118362155Y-85273384D01*
X118363186Y-85275873D01*
X118363377Y-85278561D01*
X118368632Y-85292293D01*
X118416251Y-85387531D01*
X118420215Y-85393830D01*
X118420973Y-85395658D01*
X118422661Y-85397714D01*
X118424083Y-85399974D01*
X118425581Y-85401273D01*
X118430300Y-85407023D01*
X118477919Y-85454642D01*
X118483668Y-85459360D01*
X118484968Y-85460859D01*
X118487227Y-85462280D01*
X118489284Y-85463969D01*
X118491111Y-85464726D01*
X118497411Y-85468691D01*
X118592649Y-85516310D01*
X118606166Y-85521483D01*
X118379271Y-85780792D01*
X118374749Y-85787116D01*
X118373354Y-85788512D01*
X118372805Y-85789835D01*
X118370720Y-85792753D01*
X118366818Y-85804290D01*
X118362155Y-85815548D01*
X118362155Y-85818078D01*
X118361345Y-85820474D01*
X118362155Y-85832627D01*
X118362155Y-85844812D01*
X118363122Y-85847148D01*
X118363291Y-85849672D01*
X118368693Y-85860597D01*
X118373354Y-85871848D01*
X118375140Y-85873634D01*
X118376263Y-85875904D01*
X118385435Y-85883929D01*
X118394046Y-85892540D01*
X118396382Y-85893508D01*
X118398287Y-85895174D01*
X118409824Y-85899075D01*
X118421082Y-85903739D01*
X118424652Y-85904090D01*
X118426008Y-85904549D01*
X118427975Y-85904417D01*
X118435714Y-85905180D01*
X119054761Y-85905180D01*
X119069393Y-85903739D01*
X119096429Y-85892540D01*
X119117121Y-85871848D01*
X119128320Y-85844812D01*
X119128320Y-85815548D01*
X119117121Y-85788512D01*
X119096429Y-85767820D01*
X119069393Y-85756621D01*
X119054761Y-85755180D01*
X118600997Y-85755180D01*
X118825490Y-85498616D01*
X118830011Y-85492291D01*
X118831407Y-85490896D01*
X118831955Y-85489572D01*
X118834041Y-85486655D01*
X118837942Y-85475117D01*
X118842606Y-85463860D01*
X118842606Y-85461329D01*
X118843416Y-85458934D01*
X118842606Y-85446780D01*
X118842606Y-85434596D01*
X118841638Y-85432259D01*
X118841470Y-85429736D01*
X118836067Y-85418810D01*
X118831407Y-85407560D01*
X118829620Y-85405773D01*
X118828498Y-85403504D01*
X118819325Y-85395478D01*
X118810715Y-85386868D01*
X118808378Y-85385899D01*
X118806474Y-85384234D01*
X118794936Y-85380332D01*
X118783679Y-85375669D01*
X118780108Y-85375317D01*
X118778753Y-85374859D01*
X118776785Y-85374990D01*
X118769047Y-85374228D01*
X118643895Y-85374228D01*
X118575379Y-85339970D01*
X118544972Y-85309563D01*
X118510714Y-85241047D01*
X118510714Y-85038362D01*
X118544972Y-84969846D01*
X118575378Y-84939439D01*
X118643896Y-84905180D01*
X118894198Y-84905180D01*
X118962714Y-84939438D01*
X119001728Y-84978452D01*
X119013093Y-84987779D01*
X119040129Y-84998978D01*
X119069392Y-84998978D01*
X119096428Y-84987779D01*
X119117121Y-84967086D01*
X119128320Y-84940050D01*
X119128320Y-84910787D01*
X119117121Y-84883751D01*
X119107794Y-84872386D01*
X119074968Y-84839560D01*
X119218446Y-84839560D01*
X119221706Y-84853897D01*
X119555039Y-85853897D01*
X119561033Y-85867322D01*
X119564543Y-85871369D01*
X119566940Y-85876163D01*
X119574048Y-85882328D01*
X119580207Y-85889429D01*
X119584996Y-85891823D01*
X119589047Y-85895337D01*
X119597972Y-85898311D01*
X119606380Y-85902516D01*
X119611724Y-85902895D01*
X119616810Y-85904591D01*
X119626190Y-85903924D01*
X119635570Y-85904591D01*
X119640655Y-85902895D01*
X119646000Y-85902516D01*
X119654410Y-85898310D01*
X119663332Y-85895337D01*
X119667379Y-85891826D01*
X119672173Y-85889430D01*
X119678336Y-85882324D01*
X119685440Y-85876163D01*
X119687835Y-85871371D01*
X119691347Y-85867323D01*
X119697341Y-85853897D01*
X120030674Y-84853897D01*
X120033934Y-84839561D01*
X120031859Y-84810371D01*
X120018773Y-84784197D01*
X119996665Y-84765023D01*
X119968903Y-84755769D01*
X119939713Y-84757844D01*
X119913540Y-84770931D01*
X119894366Y-84793038D01*
X119888372Y-84806463D01*
X119810228Y-85040895D01*
X119442152Y-85040895D01*
X119364008Y-84806463D01*
X119358014Y-84793037D01*
X119338840Y-84770930D01*
X119312667Y-84757844D01*
X119283477Y-84755769D01*
X119255714Y-84765023D01*
X119233607Y-84784197D01*
X119220521Y-84810370D01*
X119218446Y-84839560D01*
X119074968Y-84839560D01*
X119060175Y-84824767D01*
X119054426Y-84820049D01*
X119053127Y-84818551D01*
X119050867Y-84817128D01*
X119048810Y-84815440D01*
X119046982Y-84814683D01*
X119040684Y-84810718D01*
X118945446Y-84763098D01*
X118931714Y-84757843D01*
X118929024Y-84757651D01*
X118926536Y-84756621D01*
X118911904Y-84755180D01*
X118626190Y-84755180D01*
X118611558Y-84756621D01*
X118609069Y-84757651D01*
X118606380Y-84757843D01*
X118592649Y-84763098D01*
X118497410Y-84810718D01*
X118491112Y-84814682D01*
X118489284Y-84815440D01*
X118487223Y-84817131D01*
X118484968Y-84818551D01*
X118483671Y-84820046D01*
X118477919Y-84824767D01*
X118430300Y-84872386D01*
X118425581Y-84878135D01*
X118424083Y-84879435D01*
X118422661Y-84881694D01*
X118420973Y-84883751D01*
X118420215Y-84885578D01*
X118416251Y-84891878D01*
X118368632Y-84987116D01*
X118363377Y-85000848D01*
X118363186Y-85003535D01*
X118362155Y-85006025D01*
X118360714Y-85020657D01*
X118249603Y-85020657D01*
X118249603Y-84644069D01*
X120145045Y-84644069D01*
X120145045Y-86016291D01*
G37*
D12*
X99985250Y-102081427D02*
X99985250Y-100938570D01*
D10*
G36*
X126555547Y-103785049D02*
G01*
X126632534Y-103823543D01*
X126706648Y-103897656D01*
X126744819Y-104012169D01*
X126744819Y-104163094D01*
X125894819Y-104163094D01*
X125894819Y-104012169D01*
X125932990Y-103897655D01*
X126007103Y-103823543D01*
X126084090Y-103785049D01*
X126257624Y-103741666D01*
X126382013Y-103741666D01*
X126555547Y-103785049D01*
G37*
G36*
X127005930Y-104424205D02*
G01*
X125586678Y-104424205D01*
X125586678Y-103999999D01*
X125744819Y-103999999D01*
X125744819Y-104238094D01*
X125746260Y-104252726D01*
X125757459Y-104279762D01*
X125778151Y-104300454D01*
X125805187Y-104311653D01*
X125819819Y-104313094D01*
X126819819Y-104313094D01*
X126834451Y-104311653D01*
X126861487Y-104300454D01*
X126882179Y-104279762D01*
X126893378Y-104252726D01*
X126894819Y-104238094D01*
X126894819Y-103999999D01*
X126894089Y-103992592D01*
X126894230Y-103990618D01*
X126893639Y-103988020D01*
X126893378Y-103985367D01*
X126892619Y-103983536D01*
X126890970Y-103976281D01*
X126843351Y-103833425D01*
X126837357Y-103819999D01*
X126835592Y-103817964D01*
X126834561Y-103815474D01*
X126825233Y-103804109D01*
X126729994Y-103708871D01*
X126724244Y-103704152D01*
X126722945Y-103702654D01*
X126720686Y-103701232D01*
X126718628Y-103699543D01*
X126716798Y-103698785D01*
X126710502Y-103694822D01*
X126615264Y-103647203D01*
X126614194Y-103646793D01*
X126613759Y-103646471D01*
X126607613Y-103644275D01*
X126601532Y-103641948D01*
X126600992Y-103641909D01*
X126599913Y-103641524D01*
X126409437Y-103593905D01*
X126406900Y-103593529D01*
X126405879Y-103593107D01*
X126400366Y-103592564D01*
X126394893Y-103591755D01*
X126393800Y-103591917D01*
X126391247Y-103591666D01*
X126248390Y-103591666D01*
X126245836Y-103591917D01*
X126244744Y-103591755D01*
X126239270Y-103592564D01*
X126233758Y-103593107D01*
X126232736Y-103593529D01*
X126230200Y-103593905D01*
X126039724Y-103641524D01*
X126038644Y-103641909D01*
X126038104Y-103641948D01*
X126032014Y-103644278D01*
X126025878Y-103646471D01*
X126025442Y-103646793D01*
X126024373Y-103647203D01*
X125929135Y-103694822D01*
X125922840Y-103698784D01*
X125921008Y-103699543D01*
X125918946Y-103701234D01*
X125916692Y-103702654D01*
X125915393Y-103704150D01*
X125909643Y-103708871D01*
X125814405Y-103804109D01*
X125805078Y-103815474D01*
X125804046Y-103817964D01*
X125802281Y-103820000D01*
X125796287Y-103833425D01*
X125748668Y-103976282D01*
X125747018Y-103983535D01*
X125746260Y-103985367D01*
X125745998Y-103988021D01*
X125745408Y-103990619D01*
X125745548Y-103992593D01*
X125744819Y-103999999D01*
X125586678Y-103999999D01*
X125586678Y-103038238D01*
X125697789Y-103038238D01*
X125699864Y-103067428D01*
X125712950Y-103093601D01*
X125735057Y-103112775D01*
X125748483Y-103118769D01*
X126462767Y-103356864D01*
X126470022Y-103358513D01*
X126471853Y-103359272D01*
X126473357Y-103359272D01*
X126477104Y-103360124D01*
X126489089Y-103359272D01*
X126501117Y-103359272D01*
X126503608Y-103358239D01*
X126506294Y-103358049D01*
X126517041Y-103352675D01*
X126528153Y-103348073D01*
X126530058Y-103346167D01*
X126532468Y-103344963D01*
X126540342Y-103335883D01*
X126548845Y-103327381D01*
X126549876Y-103324890D01*
X126551642Y-103322855D01*
X126555442Y-103311454D01*
X126560044Y-103300345D01*
X126560420Y-103296518D01*
X126560896Y-103295093D01*
X126560755Y-103293118D01*
X126561485Y-103285713D01*
X126561485Y-102884523D01*
X126819819Y-102884523D01*
X126834451Y-102883082D01*
X126861487Y-102871883D01*
X126882179Y-102851191D01*
X126893378Y-102824155D01*
X126893378Y-102794891D01*
X126882179Y-102767855D01*
X126861487Y-102747163D01*
X126834451Y-102735964D01*
X126819819Y-102734523D01*
X126561485Y-102734523D01*
X126561485Y-102666666D01*
X126560044Y-102652034D01*
X126548845Y-102624998D01*
X126528153Y-102604306D01*
X126501117Y-102593107D01*
X126471853Y-102593107D01*
X126444817Y-102604306D01*
X126424125Y-102624998D01*
X126412926Y-102652034D01*
X126411485Y-102666666D01*
X126411485Y-102734523D01*
X126153152Y-102734523D01*
X126138520Y-102735964D01*
X126111484Y-102747163D01*
X126090792Y-102767855D01*
X126079593Y-102794891D01*
X126079593Y-102824155D01*
X126090792Y-102851191D01*
X126111484Y-102871883D01*
X126138520Y-102883082D01*
X126153152Y-102884523D01*
X126411485Y-102884523D01*
X126411485Y-103181656D01*
X125795917Y-102976467D01*
X125781580Y-102973207D01*
X125752390Y-102975282D01*
X125726217Y-102988368D01*
X125707043Y-103010475D01*
X125697789Y-103038238D01*
X125586678Y-103038238D01*
X125586678Y-102481996D01*
X127005930Y-102481996D01*
X127005930Y-104424205D01*
G37*
D12*
X99985250Y-99521428D02*
X99985250Y-98378571D01*
X100556678Y-98949999D02*
X99413821Y-98949999D01*
D10*
G36*
X159059857Y-84939438D02*
G01*
X159090265Y-84969846D01*
X159128758Y-85046833D01*
X159172142Y-85220367D01*
X159172142Y-85439994D01*
X159128758Y-85613528D01*
X159090265Y-85690515D01*
X159059858Y-85720922D01*
X158991342Y-85755180D01*
X158931514Y-85755180D01*
X158862998Y-85720922D01*
X158832591Y-85690515D01*
X158794097Y-85613528D01*
X158750714Y-85439994D01*
X158750714Y-85220367D01*
X158794097Y-85046833D01*
X158832591Y-84969846D01*
X158862997Y-84939439D01*
X158931515Y-84905180D01*
X158991341Y-84905180D01*
X159059857Y-84939438D01*
G37*
G36*
X159866190Y-85593009D02*
G01*
X159732152Y-85190895D01*
X160000228Y-85190895D01*
X159866190Y-85593009D01*
G37*
G36*
X160385045Y-86016291D02*
G01*
X158489603Y-86016291D01*
X158489603Y-85211133D01*
X158600714Y-85211133D01*
X158600714Y-85449228D01*
X158600965Y-85451781D01*
X158600803Y-85452874D01*
X158601612Y-85458347D01*
X158602155Y-85463860D01*
X158602577Y-85464881D01*
X158602953Y-85467418D01*
X158650572Y-85657894D01*
X158650957Y-85658973D01*
X158650996Y-85659513D01*
X158653323Y-85665594D01*
X158655519Y-85671740D01*
X158655841Y-85672175D01*
X158656251Y-85673245D01*
X158703870Y-85768483D01*
X158707834Y-85774782D01*
X158708592Y-85776610D01*
X158710280Y-85778666D01*
X158711702Y-85780926D01*
X158713200Y-85782225D01*
X158717919Y-85787975D01*
X158765538Y-85835594D01*
X158771287Y-85840312D01*
X158772587Y-85841811D01*
X158774846Y-85843232D01*
X158776903Y-85844921D01*
X158778730Y-85845678D01*
X158785030Y-85849643D01*
X158880268Y-85897262D01*
X158893999Y-85902517D01*
X158896688Y-85902708D01*
X158899177Y-85903739D01*
X158913809Y-85905180D01*
X159009047Y-85905180D01*
X159023679Y-85903739D01*
X159026168Y-85902707D01*
X159028856Y-85902517D01*
X159042588Y-85897262D01*
X159137826Y-85849643D01*
X159144125Y-85845678D01*
X159145953Y-85844921D01*
X159148009Y-85843232D01*
X159150269Y-85841811D01*
X159151568Y-85840312D01*
X159157318Y-85835594D01*
X159204937Y-85787975D01*
X159209655Y-85782225D01*
X159211154Y-85780926D01*
X159212575Y-85778666D01*
X159214264Y-85776610D01*
X159215021Y-85774782D01*
X159218986Y-85768483D01*
X159266605Y-85673245D01*
X159267014Y-85672175D01*
X159267337Y-85671740D01*
X159269529Y-85665603D01*
X159271860Y-85659514D01*
X159271898Y-85658973D01*
X159272284Y-85657894D01*
X159319903Y-85467418D01*
X159320278Y-85464881D01*
X159320701Y-85463860D01*
X159321243Y-85458347D01*
X159322053Y-85452874D01*
X159321890Y-85451781D01*
X159322142Y-85449228D01*
X159322142Y-85211133D01*
X159321890Y-85208579D01*
X159322053Y-85207487D01*
X159321243Y-85202013D01*
X159320701Y-85196501D01*
X159320278Y-85195479D01*
X159319903Y-85192943D01*
X159272284Y-85002467D01*
X159271898Y-85001387D01*
X159271860Y-85000847D01*
X159269529Y-84994757D01*
X159267337Y-84988621D01*
X159267014Y-84988185D01*
X159266605Y-84987116D01*
X159218986Y-84891878D01*
X159215021Y-84885578D01*
X159214264Y-84883751D01*
X159212575Y-84881694D01*
X159211154Y-84879435D01*
X159209655Y-84878135D01*
X159204937Y-84872386D01*
X159172111Y-84839560D01*
X159458446Y-84839560D01*
X159461706Y-84853897D01*
X159795039Y-85853897D01*
X159801033Y-85867322D01*
X159804543Y-85871369D01*
X159806940Y-85876163D01*
X159814048Y-85882328D01*
X159820207Y-85889429D01*
X159824996Y-85891823D01*
X159829047Y-85895337D01*
X159837972Y-85898311D01*
X159846380Y-85902516D01*
X159851724Y-85902895D01*
X159856810Y-85904591D01*
X159866190Y-85903924D01*
X159875570Y-85904591D01*
X159880655Y-85902895D01*
X159886000Y-85902516D01*
X159894410Y-85898310D01*
X159903332Y-85895337D01*
X159907379Y-85891826D01*
X159912173Y-85889430D01*
X159918336Y-85882324D01*
X159925440Y-85876163D01*
X159927835Y-85871371D01*
X159931347Y-85867323D01*
X159937341Y-85853897D01*
X160270674Y-84853897D01*
X160273934Y-84839561D01*
X160271859Y-84810371D01*
X160258773Y-84784197D01*
X160236665Y-84765023D01*
X160208903Y-84755769D01*
X160179713Y-84757844D01*
X160153540Y-84770931D01*
X160134366Y-84793038D01*
X160128372Y-84806463D01*
X160050228Y-85040895D01*
X159682152Y-85040895D01*
X159604008Y-84806463D01*
X159598014Y-84793037D01*
X159578840Y-84770930D01*
X159552667Y-84757844D01*
X159523477Y-84755769D01*
X159495714Y-84765023D01*
X159473607Y-84784197D01*
X159460521Y-84810370D01*
X159458446Y-84839560D01*
X159172111Y-84839560D01*
X159157318Y-84824767D01*
X159151569Y-84820049D01*
X159150270Y-84818551D01*
X159148010Y-84817128D01*
X159145953Y-84815440D01*
X159144125Y-84814683D01*
X159137827Y-84810718D01*
X159042589Y-84763098D01*
X159028857Y-84757843D01*
X159026167Y-84757651D01*
X159023679Y-84756621D01*
X159009047Y-84755180D01*
X158913809Y-84755180D01*
X158899177Y-84756621D01*
X158896688Y-84757651D01*
X158893999Y-84757843D01*
X158880268Y-84763098D01*
X158785029Y-84810718D01*
X158778731Y-84814682D01*
X158776903Y-84815440D01*
X158774842Y-84817131D01*
X158772587Y-84818551D01*
X158771290Y-84820046D01*
X158765538Y-84824767D01*
X158717919Y-84872386D01*
X158713200Y-84878135D01*
X158711702Y-84879435D01*
X158710280Y-84881694D01*
X158708592Y-84883751D01*
X158707834Y-84885578D01*
X158703870Y-84891878D01*
X158656251Y-84987116D01*
X158655841Y-84988185D01*
X158655519Y-84988621D01*
X158653323Y-84994766D01*
X158650996Y-85000848D01*
X158650957Y-85001387D01*
X158650572Y-85002467D01*
X158602953Y-85192943D01*
X158602577Y-85195479D01*
X158602155Y-85196501D01*
X158601612Y-85202013D01*
X158600803Y-85207487D01*
X158600965Y-85208579D01*
X158600714Y-85211133D01*
X158489603Y-85211133D01*
X158489603Y-84644069D01*
X160385045Y-84644069D01*
X160385045Y-86016291D01*
G37*
D11*
X96791368Y-108703702D02*
X96841875Y-108804717D01*
X96841875Y-108804717D02*
X96968144Y-108930986D01*
X96968144Y-108930986D02*
X97043906Y-108956240D01*
X97043906Y-108956240D02*
X97094413Y-108956240D01*
X97094413Y-108956240D02*
X97170175Y-108930986D01*
X97170175Y-108930986D02*
X97220683Y-108880478D01*
X97220683Y-108880478D02*
X97245936Y-108804717D01*
X97245936Y-108804717D02*
X97245936Y-108754209D01*
X97245936Y-108754209D02*
X97220683Y-108678448D01*
X97220683Y-108678448D02*
X97144921Y-108552179D01*
X97144921Y-108552179D02*
X97119667Y-108476417D01*
X97119667Y-108476417D02*
X97119667Y-108425910D01*
X97119667Y-108425910D02*
X97144921Y-108350148D01*
X97144921Y-108350148D02*
X97195429Y-108299641D01*
X97195429Y-108299641D02*
X97271190Y-108274387D01*
X97271190Y-108274387D02*
X97321698Y-108274387D01*
X97321698Y-108274387D02*
X97397459Y-108299641D01*
X97397459Y-108299641D02*
X97523728Y-108425910D01*
X97523728Y-108425910D02*
X97574236Y-108526925D01*
X97649998Y-109511824D02*
X97599490Y-109511824D01*
X97599490Y-109511824D02*
X97498475Y-109461316D01*
X97498475Y-109461316D02*
X97447967Y-109410809D01*
X97447967Y-109410809D02*
X97397459Y-109309793D01*
X97397459Y-109309793D02*
X97397459Y-109208778D01*
X97397459Y-109208778D02*
X97422713Y-109133017D01*
X97422713Y-109133017D02*
X97498475Y-109006747D01*
X97498475Y-109006747D02*
X97574236Y-108930986D01*
X97574236Y-108930986D02*
X97700505Y-108855225D01*
X97700505Y-108855225D02*
X97776267Y-108829971D01*
X97776267Y-108829971D02*
X97877282Y-108829971D01*
X97877282Y-108829971D02*
X97978297Y-108880478D01*
X97978297Y-108880478D02*
X98028805Y-108930986D01*
X98028805Y-108930986D02*
X98079312Y-109032001D01*
X98079312Y-109032001D02*
X98079312Y-109082509D01*
X97826774Y-109789616D02*
X98357104Y-109259286D01*
X98129820Y-110092661D02*
X98205581Y-109562331D01*
X98660150Y-109562331D02*
X98054059Y-109562331D01*
D10*
G36*
X146426190Y-85593009D02*
G01*
X146292152Y-85190895D01*
X146560228Y-85190895D01*
X146426190Y-85593009D01*
G37*
G36*
X146945045Y-86016291D02*
G01*
X145051044Y-86016291D01*
X145051044Y-84815548D01*
X145162155Y-84815548D01*
X145162155Y-84844812D01*
X145173354Y-84871848D01*
X145194046Y-84892540D01*
X145221082Y-84903739D01*
X145235714Y-84905180D01*
X145446428Y-84905180D01*
X145446428Y-85830180D01*
X145446433Y-85830232D01*
X145446428Y-85830259D01*
X145446443Y-85830335D01*
X145447869Y-85844812D01*
X145450710Y-85851672D01*
X145452167Y-85858953D01*
X145456255Y-85865058D01*
X145459068Y-85871848D01*
X145464318Y-85877098D01*
X145468450Y-85883268D01*
X145474564Y-85887344D01*
X145479760Y-85892540D01*
X145486620Y-85895381D01*
X145492799Y-85899501D01*
X145500007Y-85900926D01*
X145506796Y-85903739D01*
X145514223Y-85903739D01*
X145521507Y-85905180D01*
X145528712Y-85903739D01*
X145536060Y-85903739D01*
X145542920Y-85900897D01*
X145550201Y-85899441D01*
X145556306Y-85895352D01*
X145563096Y-85892540D01*
X145568346Y-85887289D01*
X145574516Y-85883158D01*
X145583736Y-85871899D01*
X145583788Y-85871848D01*
X145583797Y-85871825D01*
X145583832Y-85871783D01*
X145674950Y-85735104D01*
X145756331Y-85653724D01*
X145840683Y-85611548D01*
X145853126Y-85603716D01*
X145872299Y-85581608D01*
X145881553Y-85553847D01*
X145879479Y-85524657D01*
X145866391Y-85498482D01*
X145844284Y-85479309D01*
X145816522Y-85470055D01*
X145787332Y-85472129D01*
X145773601Y-85477384D01*
X145678363Y-85525003D01*
X145672068Y-85528965D01*
X145670236Y-85529724D01*
X145668174Y-85531415D01*
X145665920Y-85532835D01*
X145664621Y-85534331D01*
X145658871Y-85539052D01*
X145596428Y-85601495D01*
X145596428Y-84905180D01*
X145807142Y-84905180D01*
X145821774Y-84903739D01*
X145848810Y-84892540D01*
X145869502Y-84871848D01*
X145880701Y-84844812D01*
X145880701Y-84839560D01*
X146018446Y-84839560D01*
X146021706Y-84853897D01*
X146355039Y-85853897D01*
X146361033Y-85867322D01*
X146364543Y-85871369D01*
X146366940Y-85876163D01*
X146374048Y-85882328D01*
X146380207Y-85889429D01*
X146384996Y-85891823D01*
X146389047Y-85895337D01*
X146397972Y-85898311D01*
X146406380Y-85902516D01*
X146411724Y-85902895D01*
X146416810Y-85904591D01*
X146426190Y-85903924D01*
X146435570Y-85904591D01*
X146440655Y-85902895D01*
X146446000Y-85902516D01*
X146454410Y-85898310D01*
X146463332Y-85895337D01*
X146467379Y-85891826D01*
X146472173Y-85889430D01*
X146478336Y-85882324D01*
X146485440Y-85876163D01*
X146487835Y-85871371D01*
X146491347Y-85867323D01*
X146497341Y-85853897D01*
X146830674Y-84853897D01*
X146833934Y-84839561D01*
X146831859Y-84810371D01*
X146818773Y-84784197D01*
X146796665Y-84765023D01*
X146768903Y-84755769D01*
X146739713Y-84757844D01*
X146713540Y-84770931D01*
X146694366Y-84793038D01*
X146688372Y-84806463D01*
X146610228Y-85040895D01*
X146242152Y-85040895D01*
X146164008Y-84806463D01*
X146158014Y-84793037D01*
X146138840Y-84770930D01*
X146112667Y-84757844D01*
X146083477Y-84755769D01*
X146055714Y-84765023D01*
X146033607Y-84784197D01*
X146020521Y-84810370D01*
X146018446Y-84839560D01*
X145880701Y-84839560D01*
X145880701Y-84815548D01*
X145869502Y-84788512D01*
X145848810Y-84767820D01*
X145821774Y-84756621D01*
X145807142Y-84755180D01*
X145235714Y-84755180D01*
X145221082Y-84756621D01*
X145194046Y-84767820D01*
X145173354Y-84788512D01*
X145162155Y-84815548D01*
X145051044Y-84815548D01*
X145051044Y-84644069D01*
X146945045Y-84644069D01*
X146945045Y-86016291D01*
G37*
D11*
X108937217Y-96615513D02*
X109365789Y-96615513D01*
X109151503Y-97365513D02*
X109151503Y-96615513D01*
X109544360Y-96615513D02*
X110044360Y-97365513D01*
X110044360Y-96615513D02*
X109544360Y-97365513D01*
D12*
X187014750Y-98438571D02*
X187014750Y-99581429D01*
X186443321Y-99010000D02*
X187586178Y-99010000D01*
X142888571Y-85435250D02*
X144031429Y-85435250D01*
X143460000Y-86006678D02*
X143460000Y-84863821D01*
D11*
X148094360Y-113203014D02*
X148094360Y-112453014D01*
X148094360Y-112453014D02*
X148344360Y-112988728D01*
X148344360Y-112988728D02*
X148594360Y-112453014D01*
X148594360Y-112453014D02*
X148594360Y-113203014D01*
X149380074Y-113131585D02*
X149344360Y-113167300D01*
X149344360Y-113167300D02*
X149237217Y-113203014D01*
X149237217Y-113203014D02*
X149165789Y-113203014D01*
X149165789Y-113203014D02*
X149058646Y-113167300D01*
X149058646Y-113167300D02*
X148987217Y-113095871D01*
X148987217Y-113095871D02*
X148951503Y-113024442D01*
X148951503Y-113024442D02*
X148915789Y-112881585D01*
X148915789Y-112881585D02*
X148915789Y-112774442D01*
X148915789Y-112774442D02*
X148951503Y-112631585D01*
X148951503Y-112631585D02*
X148987217Y-112560157D01*
X148987217Y-112560157D02*
X149058646Y-112488728D01*
X149058646Y-112488728D02*
X149165789Y-112453014D01*
X149165789Y-112453014D02*
X149237217Y-112453014D01*
X149237217Y-112453014D02*
X149344360Y-112488728D01*
X149344360Y-112488728D02*
X149380074Y-112524442D01*
X149701503Y-112453014D02*
X149701503Y-113060157D01*
X149701503Y-113060157D02*
X149737217Y-113131585D01*
X149737217Y-113131585D02*
X149772932Y-113167300D01*
X149772932Y-113167300D02*
X149844360Y-113203014D01*
X149844360Y-113203014D02*
X149987217Y-113203014D01*
X149987217Y-113203014D02*
X150058646Y-113167300D01*
X150058646Y-113167300D02*
X150094360Y-113131585D01*
X150094360Y-113131585D02*
X150130074Y-113060157D01*
X150130074Y-113060157D02*
X150130074Y-112453014D01*
D12*
X129438571Y-85435250D02*
X130581429Y-85435250D01*
X130010000Y-86006678D02*
X130010000Y-84863821D01*
X156328571Y-85435250D02*
X157471429Y-85435250D01*
X156900000Y-86006678D02*
X156900000Y-84863821D01*
D11*
X109094360Y-110203014D02*
X109094360Y-109453014D01*
X109094360Y-109453014D02*
X109344360Y-109988728D01*
X109344360Y-109988728D02*
X109594360Y-109453014D01*
X109594360Y-109453014D02*
X109594360Y-110203014D01*
X110094360Y-109453014D02*
X110237217Y-109453014D01*
X110237217Y-109453014D02*
X110308646Y-109488728D01*
X110308646Y-109488728D02*
X110380074Y-109560157D01*
X110380074Y-109560157D02*
X110415789Y-109703014D01*
X110415789Y-109703014D02*
X110415789Y-109953014D01*
X110415789Y-109953014D02*
X110380074Y-110095871D01*
X110380074Y-110095871D02*
X110308646Y-110167300D01*
X110308646Y-110167300D02*
X110237217Y-110203014D01*
X110237217Y-110203014D02*
X110094360Y-110203014D01*
X110094360Y-110203014D02*
X110022932Y-110167300D01*
X110022932Y-110167300D02*
X109951503Y-110095871D01*
X109951503Y-110095871D02*
X109915789Y-109953014D01*
X109915789Y-109953014D02*
X109915789Y-109703014D01*
X109915789Y-109703014D02*
X109951503Y-109560157D01*
X109951503Y-109560157D02*
X110022932Y-109488728D01*
X110022932Y-109488728D02*
X110094360Y-109453014D01*
X110701503Y-110167300D02*
X110808646Y-110203014D01*
X110808646Y-110203014D02*
X110987217Y-110203014D01*
X110987217Y-110203014D02*
X111058646Y-110167300D01*
X111058646Y-110167300D02*
X111094360Y-110131585D01*
X111094360Y-110131585D02*
X111130074Y-110060157D01*
X111130074Y-110060157D02*
X111130074Y-109988728D01*
X111130074Y-109988728D02*
X111094360Y-109917300D01*
X111094360Y-109917300D02*
X111058646Y-109881585D01*
X111058646Y-109881585D02*
X110987217Y-109845871D01*
X110987217Y-109845871D02*
X110844360Y-109810157D01*
X110844360Y-109810157D02*
X110772931Y-109774442D01*
X110772931Y-109774442D02*
X110737217Y-109738728D01*
X110737217Y-109738728D02*
X110701503Y-109667300D01*
X110701503Y-109667300D02*
X110701503Y-109595871D01*
X110701503Y-109595871D02*
X110737217Y-109524442D01*
X110737217Y-109524442D02*
X110772931Y-109488728D01*
X110772931Y-109488728D02*
X110844360Y-109453014D01*
X110844360Y-109453014D02*
X111022931Y-109453014D01*
X111022931Y-109453014D02*
X111130074Y-109488728D01*
X111451503Y-110203014D02*
X111451503Y-109453014D01*
D12*
X116088571Y-85435250D02*
X117231429Y-85435250D01*
X116660000Y-86006678D02*
X116660000Y-84863821D01*
D11*
X186287217Y-108553014D02*
X186537217Y-109303014D01*
X186537217Y-109303014D02*
X186787217Y-108553014D01*
X187287217Y-108910157D02*
X187394360Y-108945871D01*
X187394360Y-108945871D02*
X187430074Y-108981585D01*
X187430074Y-108981585D02*
X187465788Y-109053014D01*
X187465788Y-109053014D02*
X187465788Y-109160157D01*
X187465788Y-109160157D02*
X187430074Y-109231585D01*
X187430074Y-109231585D02*
X187394360Y-109267300D01*
X187394360Y-109267300D02*
X187322931Y-109303014D01*
X187322931Y-109303014D02*
X187037217Y-109303014D01*
X187037217Y-109303014D02*
X187037217Y-108553014D01*
X187037217Y-108553014D02*
X187287217Y-108553014D01*
X187287217Y-108553014D02*
X187358646Y-108588728D01*
X187358646Y-108588728D02*
X187394360Y-108624442D01*
X187394360Y-108624442D02*
X187430074Y-108695871D01*
X187430074Y-108695871D02*
X187430074Y-108767300D01*
X187430074Y-108767300D02*
X187394360Y-108838728D01*
X187394360Y-108838728D02*
X187358646Y-108874442D01*
X187358646Y-108874442D02*
X187287217Y-108910157D01*
X187287217Y-108910157D02*
X187037217Y-108910157D01*
X187751503Y-109088728D02*
X188108646Y-109088728D01*
X187680074Y-109303014D02*
X187930074Y-108553014D01*
X187930074Y-108553014D02*
X188180074Y-109303014D01*
X188322931Y-108553014D02*
X188751503Y-108553014D01*
X188537217Y-109303014D02*
X188537217Y-108553014D01*
D12*
X169788571Y-85435250D02*
X170931429Y-85435250D01*
X170360000Y-86006678D02*
X170360000Y-84863821D01*
D13*
X174139638Y-111295489D02*
X174139638Y-110914536D01*
X174139638Y-110914536D02*
X174234876Y-110724060D01*
X174234876Y-110724060D02*
X174425352Y-110533584D01*
X174425352Y-110533584D02*
X174806304Y-110438346D01*
X174806304Y-110438346D02*
X175472971Y-110438346D01*
X175472971Y-110438346D02*
X175853923Y-110533584D01*
X175853923Y-110533584D02*
X176044400Y-110724060D01*
X176044400Y-110724060D02*
X176139638Y-110914536D01*
X176139638Y-110914536D02*
X176139638Y-111295489D01*
X176139638Y-111295489D02*
X176044400Y-111485965D01*
X176044400Y-111485965D02*
X175853923Y-111676441D01*
X175853923Y-111676441D02*
X175472971Y-111771679D01*
X175472971Y-111771679D02*
X174806304Y-111771679D01*
X174806304Y-111771679D02*
X174425352Y-111676441D01*
X174425352Y-111676441D02*
X174234876Y-111485965D01*
X174234876Y-111485965D02*
X174139638Y-111295489D01*
X176139638Y-109581203D02*
X174139638Y-109581203D01*
X174139638Y-109581203D02*
X176139638Y-108438346D01*
X176139638Y-108438346D02*
X174139638Y-108438346D01*
D10*
G36*
X187259104Y-102110228D02*
G01*
X186856989Y-101976190D01*
X187259104Y-101842151D01*
X187259104Y-102110228D01*
G37*
G36*
X187480153Y-100894972D02*
G01*
X187510561Y-100925379D01*
X187544819Y-100993895D01*
X187544819Y-101148961D01*
X187510561Y-101217476D01*
X187480153Y-101247883D01*
X187411637Y-101282142D01*
X187208952Y-101282142D01*
X187140436Y-101247884D01*
X187110029Y-101217477D01*
X187075771Y-101148961D01*
X187075771Y-100993895D01*
X187110029Y-100925379D01*
X187140436Y-100894972D01*
X187208952Y-100860714D01*
X187411637Y-100860714D01*
X187480153Y-100894972D01*
G37*
G36*
X187805930Y-102495045D02*
G01*
X186433708Y-102495045D01*
X186433708Y-101966810D01*
X186545408Y-101966810D01*
X186546074Y-101976190D01*
X186545408Y-101985570D01*
X186547103Y-101990655D01*
X186547483Y-101996000D01*
X186551687Y-102004409D01*
X186554662Y-102013333D01*
X186558173Y-102017381D01*
X186560569Y-102022173D01*
X186567673Y-102028335D01*
X186573836Y-102035440D01*
X186578627Y-102037835D01*
X186582676Y-102041347D01*
X186596102Y-102047341D01*
X187596102Y-102380674D01*
X187610438Y-102383934D01*
X187639628Y-102381859D01*
X187665802Y-102368773D01*
X187684976Y-102346665D01*
X187694230Y-102318903D01*
X187692155Y-102289713D01*
X187679068Y-102263540D01*
X187656961Y-102244366D01*
X187643536Y-102238372D01*
X187409104Y-102160228D01*
X187409104Y-101792151D01*
X187643536Y-101714008D01*
X187656961Y-101708014D01*
X187679068Y-101688840D01*
X187692155Y-101662667D01*
X187694230Y-101633477D01*
X187684976Y-101605715D01*
X187665802Y-101583607D01*
X187639628Y-101570521D01*
X187610438Y-101568446D01*
X187596102Y-101571706D01*
X186596102Y-101905039D01*
X186582676Y-101911033D01*
X186578627Y-101914544D01*
X186573836Y-101916940D01*
X186567673Y-101924044D01*
X186560569Y-101930207D01*
X186558173Y-101934998D01*
X186554662Y-101939047D01*
X186551687Y-101947970D01*
X186547483Y-101956380D01*
X186547103Y-101961724D01*
X186545408Y-101966810D01*
X186433708Y-101966810D01*
X186433708Y-100880952D01*
X186544819Y-100880952D01*
X186544819Y-101071428D01*
X186546260Y-101086060D01*
X186547291Y-101088549D01*
X186547482Y-101091237D01*
X186552737Y-101104969D01*
X186600356Y-101200207D01*
X186604320Y-101206506D01*
X186605078Y-101208334D01*
X186606766Y-101210390D01*
X186608188Y-101212650D01*
X186609686Y-101213949D01*
X186614405Y-101219699D01*
X186662024Y-101267318D01*
X186662064Y-101267351D01*
X186662079Y-101267373D01*
X186667920Y-101272156D01*
X186673389Y-101276645D01*
X186673411Y-101276654D01*
X186673454Y-101276689D01*
X186816312Y-101371927D01*
X186824386Y-101376231D01*
X186825878Y-101377337D01*
X186827640Y-101377966D01*
X186829286Y-101378844D01*
X186831100Y-101379202D01*
X186839724Y-101382284D01*
X187030200Y-101429903D01*
X187032736Y-101430278D01*
X187033758Y-101430701D01*
X187039270Y-101431243D01*
X187044744Y-101432053D01*
X187045836Y-101431890D01*
X187048390Y-101432142D01*
X187429342Y-101432142D01*
X187443974Y-101430701D01*
X187446463Y-101429669D01*
X187449151Y-101429479D01*
X187462883Y-101424224D01*
X187558121Y-101376605D01*
X187564417Y-101372641D01*
X187566247Y-101371884D01*
X187568305Y-101370194D01*
X187570564Y-101368773D01*
X187571863Y-101367274D01*
X187577612Y-101362557D01*
X187625232Y-101314938D01*
X187629950Y-101309188D01*
X187631450Y-101307888D01*
X187632872Y-101305628D01*
X187634560Y-101303572D01*
X187635317Y-101301744D01*
X187639282Y-101295445D01*
X187686901Y-101200207D01*
X187692156Y-101186476D01*
X187692347Y-101183786D01*
X187693378Y-101181298D01*
X187694819Y-101166666D01*
X187694819Y-100976190D01*
X187693378Y-100961558D01*
X187692347Y-100959069D01*
X187692156Y-100956380D01*
X187686901Y-100942649D01*
X187639282Y-100847411D01*
X187635317Y-100841111D01*
X187634560Y-100839284D01*
X187632872Y-100837227D01*
X187631450Y-100834968D01*
X187629950Y-100833667D01*
X187625232Y-100827918D01*
X187577612Y-100780299D01*
X187571863Y-100775581D01*
X187570564Y-100774083D01*
X187568305Y-100772661D01*
X187566247Y-100770972D01*
X187564417Y-100770214D01*
X187558121Y-100766251D01*
X187462883Y-100718632D01*
X187449151Y-100713377D01*
X187446463Y-100713186D01*
X187443974Y-100712155D01*
X187429342Y-100710714D01*
X187191247Y-100710714D01*
X187176615Y-100712155D01*
X187174126Y-100713185D01*
X187171437Y-100713377D01*
X187157706Y-100718632D01*
X187062468Y-100766251D01*
X187056168Y-100770215D01*
X187054341Y-100770973D01*
X187052284Y-100772661D01*
X187050025Y-100774083D01*
X187048725Y-100775581D01*
X187042976Y-100780300D01*
X186995357Y-100827919D01*
X186990638Y-100833668D01*
X186989140Y-100834968D01*
X186987718Y-100837227D01*
X186986030Y-100839284D01*
X186985272Y-100841111D01*
X186981308Y-100847411D01*
X186933689Y-100942649D01*
X186928434Y-100956381D01*
X186928243Y-100959068D01*
X186927212Y-100961558D01*
X186925771Y-100976190D01*
X186925771Y-101166666D01*
X186927212Y-101181298D01*
X186928243Y-101183787D01*
X186928434Y-101186475D01*
X186933689Y-101200207D01*
X186962804Y-101258437D01*
X186888708Y-101239913D01*
X186762837Y-101155999D01*
X186729077Y-101122239D01*
X186694819Y-101053723D01*
X186694819Y-100880952D01*
X186693378Y-100866320D01*
X186682179Y-100839284D01*
X186661487Y-100818592D01*
X186634451Y-100807393D01*
X186605187Y-100807393D01*
X186578151Y-100818592D01*
X186557459Y-100839284D01*
X186546260Y-100866320D01*
X186544819Y-100880952D01*
X186433708Y-100880952D01*
X186433708Y-100599603D01*
X187805930Y-100599603D01*
X187805930Y-102495045D01*
G37*
D11*
X101158646Y-110167300D02*
X101265789Y-110203014D01*
X101265789Y-110203014D02*
X101444360Y-110203014D01*
X101444360Y-110203014D02*
X101515789Y-110167300D01*
X101515789Y-110167300D02*
X101551503Y-110131585D01*
X101551503Y-110131585D02*
X101587217Y-110060157D01*
X101587217Y-110060157D02*
X101587217Y-109988728D01*
X101587217Y-109988728D02*
X101551503Y-109917300D01*
X101551503Y-109917300D02*
X101515789Y-109881585D01*
X101515789Y-109881585D02*
X101444360Y-109845871D01*
X101444360Y-109845871D02*
X101301503Y-109810157D01*
X101301503Y-109810157D02*
X101230074Y-109774442D01*
X101230074Y-109774442D02*
X101194360Y-109738728D01*
X101194360Y-109738728D02*
X101158646Y-109667300D01*
X101158646Y-109667300D02*
X101158646Y-109595871D01*
X101158646Y-109595871D02*
X101194360Y-109524442D01*
X101194360Y-109524442D02*
X101230074Y-109488728D01*
X101230074Y-109488728D02*
X101301503Y-109453014D01*
X101301503Y-109453014D02*
X101480074Y-109453014D01*
X101480074Y-109453014D02*
X101587217Y-109488728D01*
X102337217Y-110131585D02*
X102301503Y-110167300D01*
X102301503Y-110167300D02*
X102194360Y-110203014D01*
X102194360Y-110203014D02*
X102122932Y-110203014D01*
X102122932Y-110203014D02*
X102015789Y-110167300D01*
X102015789Y-110167300D02*
X101944360Y-110095871D01*
X101944360Y-110095871D02*
X101908646Y-110024442D01*
X101908646Y-110024442D02*
X101872932Y-109881585D01*
X101872932Y-109881585D02*
X101872932Y-109774442D01*
X101872932Y-109774442D02*
X101908646Y-109631585D01*
X101908646Y-109631585D02*
X101944360Y-109560157D01*
X101944360Y-109560157D02*
X102015789Y-109488728D01*
X102015789Y-109488728D02*
X102122932Y-109453014D01*
X102122932Y-109453014D02*
X102194360Y-109453014D01*
X102194360Y-109453014D02*
X102301503Y-109488728D01*
X102301503Y-109488728D02*
X102337217Y-109524442D01*
X102658646Y-110203014D02*
X102658646Y-109453014D01*
X103087217Y-110203014D02*
X102765789Y-109774442D01*
X103087217Y-109453014D02*
X102658646Y-109881585D01*
D12*
X140328571Y-85435250D02*
X141471429Y-85435250D01*
D10*
X104636779Y-115319819D02*
X104636779Y-114319819D01*
X105684397Y-115224580D02*
X105636778Y-115272200D01*
X105636778Y-115272200D02*
X105493921Y-115319819D01*
X105493921Y-115319819D02*
X105398683Y-115319819D01*
X105398683Y-115319819D02*
X105255826Y-115272200D01*
X105255826Y-115272200D02*
X105160588Y-115176961D01*
X105160588Y-115176961D02*
X105112969Y-115081723D01*
X105112969Y-115081723D02*
X105065350Y-114891247D01*
X105065350Y-114891247D02*
X105065350Y-114748390D01*
X105065350Y-114748390D02*
X105112969Y-114557914D01*
X105112969Y-114557914D02*
X105160588Y-114462676D01*
X105160588Y-114462676D02*
X105255826Y-114367438D01*
X105255826Y-114367438D02*
X105398683Y-114319819D01*
X105398683Y-114319819D02*
X105493921Y-114319819D01*
X105493921Y-114319819D02*
X105636778Y-114367438D01*
X105636778Y-114367438D02*
X105684397Y-114415057D01*
X106065350Y-115272200D02*
X106208207Y-115319819D01*
X106208207Y-115319819D02*
X106446302Y-115319819D01*
X106446302Y-115319819D02*
X106541540Y-115272200D01*
X106541540Y-115272200D02*
X106589159Y-115224580D01*
X106589159Y-115224580D02*
X106636778Y-115129342D01*
X106636778Y-115129342D02*
X106636778Y-115034104D01*
X106636778Y-115034104D02*
X106589159Y-114938866D01*
X106589159Y-114938866D02*
X106541540Y-114891247D01*
X106541540Y-114891247D02*
X106446302Y-114843628D01*
X106446302Y-114843628D02*
X106255826Y-114796009D01*
X106255826Y-114796009D02*
X106160588Y-114748390D01*
X106160588Y-114748390D02*
X106112969Y-114700771D01*
X106112969Y-114700771D02*
X106065350Y-114605533D01*
X106065350Y-114605533D02*
X106065350Y-114510295D01*
X106065350Y-114510295D02*
X106112969Y-114415057D01*
X106112969Y-114415057D02*
X106160588Y-114367438D01*
X106160588Y-114367438D02*
X106255826Y-114319819D01*
X106255826Y-114319819D02*
X106493921Y-114319819D01*
X106493921Y-114319819D02*
X106636778Y-114367438D01*
X107065350Y-115319819D02*
X107065350Y-114319819D01*
X107065350Y-114319819D02*
X107446302Y-114319819D01*
X107446302Y-114319819D02*
X107541540Y-114367438D01*
X107541540Y-114367438D02*
X107589159Y-114415057D01*
X107589159Y-114415057D02*
X107636778Y-114510295D01*
X107636778Y-114510295D02*
X107636778Y-114653152D01*
X107636778Y-114653152D02*
X107589159Y-114748390D01*
X107589159Y-114748390D02*
X107541540Y-114796009D01*
X107541540Y-114796009D02*
X107446302Y-114843628D01*
X107446302Y-114843628D02*
X107065350Y-114843628D01*
D11*
X111072931Y-97365513D02*
X110822931Y-97008370D01*
X110644360Y-97365513D02*
X110644360Y-96615513D01*
X110644360Y-96615513D02*
X110930074Y-96615513D01*
X110930074Y-96615513D02*
X111001503Y-96651227D01*
X111001503Y-96651227D02*
X111037217Y-96686941D01*
X111037217Y-96686941D02*
X111072931Y-96758370D01*
X111072931Y-96758370D02*
X111072931Y-96865513D01*
X111072931Y-96865513D02*
X111037217Y-96936941D01*
X111037217Y-96936941D02*
X111001503Y-96972656D01*
X111001503Y-96972656D02*
X110930074Y-97008370D01*
X110930074Y-97008370D02*
X110644360Y-97008370D01*
X111322931Y-96615513D02*
X111822931Y-97365513D01*
X111822931Y-96615513D02*
X111322931Y-97365513D01*
D12*
X187014750Y-95878571D02*
X187014750Y-97021429D01*
D10*
G36*
X97346199Y-106979218D02*
G01*
X97499582Y-107071248D01*
X97587540Y-107159206D01*
X97679569Y-107312589D01*
X97706789Y-107394246D01*
X97706789Y-107499057D01*
X97652806Y-107607023D01*
X97546086Y-107713742D01*
X96945046Y-107112702D01*
X97051766Y-107005982D01*
X97159730Y-106952000D01*
X97264543Y-106952000D01*
X97346199Y-106979218D01*
G37*
G36*
X99560219Y-106068878D02*
G01*
X97546087Y-108083010D01*
X96575779Y-107112702D01*
X96590410Y-107098071D01*
X96765421Y-107098071D01*
X96765421Y-107127333D01*
X96776620Y-107154370D01*
X96785947Y-107165735D01*
X97493054Y-107872842D01*
X97504419Y-107882169D01*
X97504420Y-107882170D01*
X97520257Y-107888729D01*
X97531455Y-107893368D01*
X97531456Y-107893368D01*
X97560719Y-107893368D01*
X97587755Y-107882169D01*
X97599120Y-107872842D01*
X97767478Y-107704483D01*
X97772198Y-107698730D01*
X97773694Y-107697434D01*
X97775112Y-107695179D01*
X97776806Y-107693117D01*
X97777564Y-107691285D01*
X97781527Y-107684991D01*
X97848871Y-107550304D01*
X97854126Y-107536572D01*
X97854316Y-107533884D01*
X97855348Y-107531395D01*
X97856789Y-107516763D01*
X97856789Y-107382076D01*
X97856059Y-107374669D01*
X97856200Y-107372695D01*
X97855609Y-107370097D01*
X97855348Y-107367444D01*
X97854589Y-107365613D01*
X97852940Y-107358358D01*
X97819268Y-107257344D01*
X97818800Y-107256297D01*
X97818721Y-107255762D01*
X97815934Y-107249876D01*
X97813274Y-107243918D01*
X97812918Y-107243508D01*
X97812429Y-107242474D01*
X97711414Y-107074115D01*
X97709887Y-107072058D01*
X97709463Y-107071034D01*
X97705945Y-107066748D01*
X97702650Y-107062309D01*
X97701761Y-107061650D01*
X97700135Y-107059669D01*
X97599120Y-106958654D01*
X97597138Y-106957027D01*
X97596480Y-106956139D01*
X97592032Y-106952837D01*
X97587755Y-106949327D01*
X97586733Y-106948903D01*
X97584674Y-106947375D01*
X97416315Y-106846359D01*
X97415278Y-106845868D01*
X97414870Y-106845514D01*
X97408919Y-106842857D01*
X97403027Y-106840067D01*
X97402491Y-106839987D01*
X97401445Y-106839520D01*
X97300430Y-106805849D01*
X97293176Y-106804199D01*
X97291345Y-106803441D01*
X97288690Y-106803179D01*
X97286093Y-106802589D01*
X97284118Y-106802729D01*
X97276713Y-106802000D01*
X97142026Y-106802000D01*
X97127394Y-106803441D01*
X97124904Y-106804472D01*
X97122217Y-106804663D01*
X97108485Y-106809918D01*
X96973798Y-106877261D01*
X96967501Y-106881224D01*
X96965672Y-106881982D01*
X96963613Y-106883671D01*
X96961355Y-106885093D01*
X96960055Y-106886591D01*
X96954306Y-106891310D01*
X96785947Y-107059669D01*
X96776620Y-107071034D01*
X96765421Y-107098071D01*
X96590410Y-107098071D01*
X97451167Y-106237314D01*
X97639445Y-106237314D01*
X97640886Y-106251794D01*
X97640886Y-106251867D01*
X97640895Y-106251889D01*
X97640901Y-106251945D01*
X97673117Y-106413024D01*
X97673117Y-106528111D01*
X97643294Y-106617580D01*
X97640034Y-106631917D01*
X97642108Y-106661107D01*
X97655195Y-106687280D01*
X97677302Y-106706454D01*
X97705065Y-106715708D01*
X97734255Y-106713634D01*
X97760428Y-106700547D01*
X97779602Y-106678440D01*
X97785596Y-106665014D01*
X97819268Y-106564000D01*
X97820917Y-106556744D01*
X97821676Y-106554914D01*
X97821937Y-106552260D01*
X97822528Y-106549663D01*
X97822387Y-106547688D01*
X97823117Y-106540282D01*
X97823117Y-106451974D01*
X98315486Y-106944343D01*
X98166489Y-107093341D01*
X98157162Y-107104706D01*
X98145963Y-107131743D01*
X98145963Y-107161005D01*
X98157162Y-107188042D01*
X98177854Y-107208734D01*
X98204891Y-107219933D01*
X98234153Y-107219933D01*
X98261190Y-107208734D01*
X98272555Y-107199407D01*
X98676616Y-106795346D01*
X98685944Y-106783980D01*
X98697142Y-106756944D01*
X98697142Y-106727681D01*
X98685944Y-106700645D01*
X98665251Y-106679952D01*
X98638215Y-106668754D01*
X98608952Y-106668754D01*
X98581916Y-106679952D01*
X98570550Y-106689280D01*
X98421552Y-106838277D01*
X97767478Y-106184203D01*
X97767436Y-106184169D01*
X97767422Y-106184147D01*
X97767356Y-106184103D01*
X97756113Y-106174876D01*
X97749253Y-106172034D01*
X97743074Y-106167915D01*
X97735864Y-106166488D01*
X97729076Y-106163677D01*
X97721651Y-106163677D01*
X97714367Y-106162236D01*
X97707162Y-106163677D01*
X97699814Y-106163677D01*
X97692954Y-106166518D01*
X97685671Y-106167975D01*
X97679564Y-106172064D01*
X97672777Y-106174876D01*
X97667526Y-106180126D01*
X97661356Y-106184259D01*
X97657280Y-106190373D01*
X97652085Y-106195568D01*
X97649243Y-106202427D01*
X97645124Y-106208607D01*
X97643697Y-106215816D01*
X97640886Y-106222605D01*
X97640886Y-106230029D01*
X97639445Y-106237314D01*
X97451167Y-106237314D01*
X97903608Y-105784873D01*
X98078619Y-105784873D01*
X98078619Y-105814135D01*
X98089818Y-105841172D01*
X98110510Y-105861864D01*
X98137547Y-105873063D01*
X98166809Y-105873063D01*
X98193846Y-105861864D01*
X98205211Y-105852537D01*
X98526071Y-105531676D01*
X98548749Y-105871836D01*
X98550024Y-105879506D01*
X98550024Y-105881478D01*
X98550571Y-105882799D01*
X98551160Y-105886340D01*
X98556563Y-105897264D01*
X98561223Y-105908515D01*
X98563011Y-105910303D01*
X98564133Y-105912571D01*
X98573300Y-105920592D01*
X98581915Y-105929207D01*
X98584252Y-105930175D01*
X98586155Y-105931840D01*
X98597691Y-105935741D01*
X98608952Y-105940406D01*
X98611482Y-105940406D01*
X98613877Y-105941216D01*
X98626031Y-105940406D01*
X98638214Y-105940406D01*
X98640550Y-105939438D01*
X98643076Y-105939270D01*
X98654000Y-105933866D01*
X98665251Y-105929207D01*
X98668023Y-105926931D01*
X98669307Y-105926297D01*
X98670606Y-105924811D01*
X98676616Y-105919880D01*
X98765112Y-105831383D01*
X98837783Y-105807160D01*
X98880787Y-105807160D01*
X98953458Y-105831384D01*
X99096778Y-105974704D01*
X99121002Y-106047375D01*
X99121002Y-106090379D01*
X99096779Y-106163050D01*
X98919786Y-106340042D01*
X98847115Y-106364267D01*
X98791941Y-106364267D01*
X98777309Y-106365708D01*
X98750273Y-106376907D01*
X98729581Y-106397599D01*
X98718382Y-106424635D01*
X98718382Y-106453899D01*
X98729581Y-106480935D01*
X98750273Y-106501627D01*
X98777309Y-106512826D01*
X98791941Y-106514267D01*
X98859285Y-106514267D01*
X98866690Y-106513537D01*
X98868665Y-106513678D01*
X98871262Y-106513087D01*
X98873917Y-106512826D01*
X98875748Y-106512067D01*
X98883002Y-106510418D01*
X98984017Y-106476746D01*
X98997442Y-106470752D01*
X98999475Y-106468988D01*
X99001968Y-106467956D01*
X99013333Y-106458628D01*
X99215364Y-106256598D01*
X99224691Y-106245233D01*
X99225722Y-106242742D01*
X99227488Y-106240707D01*
X99233482Y-106227281D01*
X99267153Y-106126265D01*
X99268802Y-106119013D01*
X99269561Y-106117181D01*
X99269822Y-106114525D01*
X99270413Y-106111929D01*
X99270272Y-106109954D01*
X99271002Y-106102549D01*
X99271002Y-106035206D01*
X99270272Y-106027800D01*
X99270413Y-106025826D01*
X99269822Y-106023228D01*
X99269561Y-106020574D01*
X99268802Y-106018742D01*
X99267153Y-106011489D01*
X99233482Y-105910474D01*
X99227488Y-105897049D01*
X99225723Y-105895014D01*
X99224692Y-105892524D01*
X99215364Y-105881158D01*
X99047005Y-105712799D01*
X99035640Y-105703472D01*
X99033149Y-105702440D01*
X99031114Y-105700675D01*
X99017689Y-105694681D01*
X98916674Y-105661009D01*
X98909420Y-105659359D01*
X98907589Y-105658601D01*
X98904934Y-105658339D01*
X98902337Y-105657749D01*
X98900362Y-105657889D01*
X98892957Y-105657160D01*
X98825613Y-105657160D01*
X98818206Y-105657889D01*
X98816232Y-105657749D01*
X98813634Y-105658339D01*
X98810981Y-105658601D01*
X98809150Y-105659359D01*
X98801895Y-105661009D01*
X98700881Y-105694681D01*
X98687665Y-105700581D01*
X98664745Y-105356782D01*
X98663470Y-105349111D01*
X98663470Y-105347140D01*
X98662922Y-105345818D01*
X98662334Y-105342278D01*
X98656930Y-105331353D01*
X98652271Y-105320103D01*
X98650482Y-105318314D01*
X98649361Y-105316047D01*
X98640190Y-105308022D01*
X98631579Y-105299411D01*
X98629243Y-105298443D01*
X98627339Y-105296777D01*
X98615794Y-105292872D01*
X98604542Y-105288212D01*
X98602012Y-105288212D01*
X98599617Y-105287402D01*
X98587463Y-105288212D01*
X98575280Y-105288212D01*
X98572943Y-105289179D01*
X98570418Y-105289348D01*
X98559493Y-105294751D01*
X98548243Y-105299411D01*
X98545470Y-105301686D01*
X98544187Y-105302321D01*
X98542887Y-105303806D01*
X98536878Y-105308738D01*
X98099145Y-105746471D01*
X98089818Y-105757836D01*
X98078619Y-105784873D01*
X97903608Y-105784873D01*
X98589911Y-105098570D01*
X99560219Y-106068878D01*
G37*
D14*
X185002933Y-113361904D02*
X185002933Y-111838095D01*
X185002933Y-108361904D02*
X185002933Y-106838095D01*
X185764838Y-107599999D02*
X184241028Y-107599999D01*
D15*
%TO.C,J12*%
X125030000Y-104830000D02*
X123650000Y-104830000D01*
X125030000Y-103450000D02*
X125030000Y-104830000D01*
X125030000Y-102180000D02*
X125030000Y-96990000D01*
X125030000Y-102180000D02*
X122270000Y-102180000D01*
X125030000Y-96990000D02*
X122270000Y-96990000D01*
X122270000Y-102180000D02*
X122270000Y-96990000D01*
%TO.C,D1*%
X129140000Y-112630000D02*
X129140000Y-109570000D01*
X129140000Y-112630000D02*
X125740000Y-112630000D01*
X129140000Y-109570000D02*
X125740000Y-109570000D01*
%TO.C,J10*%
X112480000Y-93620000D02*
X112480000Y-86880001D01*
X118900000Y-86880000D02*
X112480000Y-86880001D01*
X120840000Y-86880000D02*
X119500000Y-86880000D01*
X120840000Y-87799999D02*
X112480000Y-87800000D01*
X120840000Y-88800000D02*
X112480000Y-88800000D01*
X120840000Y-91900000D02*
X112480000Y-91900000D01*
X120840000Y-93620000D02*
X112480000Y-93620000D01*
X120840000Y-93620000D02*
X120840000Y-86880000D01*
X119200000Y-86880000D02*
X118760000Y-86270000D01*
X119640000Y-86270000D01*
X119200000Y-86880000D01*
G36*
X119200000Y-86880000D02*
G01*
X118760000Y-86270000D01*
X119640000Y-86270000D01*
X119200000Y-86880000D01*
G37*
%TO.C,J9*%
X125840882Y-93662454D02*
X125840882Y-86922455D01*
X132260882Y-86922454D02*
X125840882Y-86922455D01*
X134200882Y-86922454D02*
X132860882Y-86922454D01*
X134200882Y-87842453D02*
X125840882Y-87842454D01*
X134200882Y-88842454D02*
X125840882Y-88842454D01*
X134200882Y-91942454D02*
X125840882Y-91942454D01*
X134200882Y-93662454D02*
X125840882Y-93662454D01*
X134200882Y-93662454D02*
X134200882Y-86922454D01*
X132560882Y-86922454D02*
X132120882Y-86312454D01*
X133000882Y-86312454D01*
X132560882Y-86922454D01*
G36*
X132560882Y-86922454D02*
G01*
X132120882Y-86312454D01*
X133000882Y-86312454D01*
X132560882Y-86922454D01*
G37*
%TO.C,R8*%
X139027500Y-111112742D02*
X139027500Y-111587258D01*
X140072500Y-111112742D02*
X140072500Y-111587258D01*
%TO.C,SW2*%
X103800000Y-85450000D02*
X103800000Y-89950000D01*
X106300000Y-91200000D02*
X107800000Y-91200000D01*
X107800000Y-84200000D02*
X106300000Y-84200000D01*
X110300000Y-89950000D02*
X110300000Y-85450000D01*
%TO.C,C12*%
X124580000Y-107345000D02*
X124580000Y-109255000D01*
X124580000Y-109255000D02*
X128500000Y-109255000D01*
X128500000Y-107345000D02*
X124580000Y-107345000D01*
%TO.C,C7*%
X116140000Y-96040581D02*
X116140000Y-95759419D01*
X117160000Y-96040581D02*
X117160000Y-95759419D01*
%TO.C,D2*%
X108765000Y-94112499D02*
X108765000Y-96397499D01*
X108765000Y-96397499D02*
X110235000Y-96397499D01*
X110235000Y-96397499D02*
X110235000Y-94112499D01*
%TO.C,D9*%
X101415000Y-92465000D02*
X101415000Y-93935000D01*
X101415000Y-93935000D02*
X103700000Y-93935000D01*
X103700000Y-92465000D02*
X101415000Y-92465000D01*
%TO.C,D4*%
X97630223Y-108180330D02*
X98669670Y-109219777D01*
X98669670Y-109219777D02*
X100285409Y-107604038D01*
X99245962Y-106564591D02*
X97630223Y-108180330D01*
%TO.C,J11*%
X152720000Y-93620000D02*
X152720000Y-86880001D01*
X159140000Y-86880000D02*
X152720000Y-86880001D01*
X161080000Y-86880000D02*
X159740000Y-86880000D01*
X161080000Y-87799999D02*
X152720000Y-87800000D01*
X161080000Y-88800000D02*
X152720000Y-88800000D01*
X161080000Y-91900000D02*
X152720000Y-91900000D01*
X161080000Y-93620000D02*
X152720000Y-93620000D01*
X161080000Y-93620000D02*
X161080000Y-86880000D01*
X159440000Y-86880000D02*
X159000000Y-86270000D01*
X159880000Y-86270000D01*
X159440000Y-86880000D01*
G36*
X159440000Y-86880000D02*
G01*
X159000000Y-86270000D01*
X159880000Y-86270000D01*
X159440000Y-86880000D01*
G37*
D16*
%TO.C,G\u002A\u002A\u002A*%
G36*
X181734150Y-90702585D02*
G01*
X181741423Y-90707776D01*
X181755415Y-90743862D01*
X181703463Y-90774232D01*
X181572662Y-90807334D01*
X181459641Y-90818697D01*
X181415465Y-90793931D01*
X181415424Y-90792640D01*
X181456614Y-90751821D01*
X181551824Y-90715824D01*
X181658516Y-90695720D01*
X181734150Y-90702585D01*
G37*
G36*
X181857093Y-90308333D02*
G01*
X181922770Y-90327746D01*
X181921005Y-90344155D01*
X181853160Y-90371734D01*
X181731363Y-90395320D01*
X181586368Y-90412142D01*
X181448933Y-90419430D01*
X181349814Y-90414411D01*
X181318662Y-90398429D01*
X181365366Y-90344436D01*
X181503129Y-90311726D01*
X181719343Y-90301142D01*
X181857093Y-90308333D01*
G37*
G36*
X181973263Y-90143011D02*
G01*
X182026578Y-90166342D01*
X182007691Y-90201187D01*
X181962565Y-90212238D01*
X181731995Y-90229039D01*
X181587577Y-90229577D01*
X181520032Y-90213592D01*
X181512186Y-90199547D01*
X181553318Y-90164031D01*
X181621043Y-90152069D01*
X181755136Y-90145400D01*
X181866485Y-90138221D01*
X181973263Y-90143011D01*
G37*
G36*
X182002675Y-89779832D02*
G01*
X182074386Y-89789114D01*
X182064129Y-89804284D01*
X182020186Y-89817332D01*
X181873006Y-89844821D01*
X181720493Y-89858156D01*
X181588663Y-89857337D01*
X181503531Y-89842364D01*
X181487995Y-89817332D01*
X181548193Y-89793589D01*
X181676862Y-89778264D01*
X181841613Y-89774676D01*
X182002675Y-89779832D01*
G37*
G36*
X181841934Y-90521741D02*
G01*
X181872615Y-90539118D01*
X181869348Y-90566636D01*
X181813647Y-90591924D01*
X181692007Y-90618632D01*
X181490923Y-90650412D01*
X181427519Y-90659456D01*
X181343112Y-90657107D01*
X181318662Y-90636360D01*
X181361539Y-90595515D01*
X181468224Y-90557852D01*
X181605798Y-90529149D01*
X181741341Y-90515186D01*
X181841934Y-90521741D01*
G37*
G36*
X182166341Y-89928640D02*
G01*
X182176024Y-89943586D01*
X182095493Y-89985965D01*
X182079262Y-89989181D01*
X181833955Y-90020366D01*
X181669466Y-90037886D01*
X181570931Y-90042502D01*
X181523488Y-90034972D01*
X181512186Y-90018165D01*
X181539420Y-89977141D01*
X181629629Y-89948101D01*
X181795571Y-89928133D01*
X181947614Y-89918759D01*
X182085256Y-89917771D01*
X182166341Y-89928640D01*
G37*
G36*
X181517730Y-86686365D02*
G01*
X181605137Y-86735388D01*
X181648438Y-86816074D01*
X181626876Y-86903556D01*
X181543697Y-86988151D01*
X181450809Y-86980507D01*
X181366830Y-86914262D01*
X181299864Y-86828839D01*
X181302367Y-86801048D01*
X181391348Y-86801048D01*
X181418999Y-86846211D01*
X181496849Y-86908208D01*
X181549643Y-86893440D01*
X181560567Y-86844759D01*
X181526560Y-86759178D01*
X181450062Y-86732941D01*
X181413075Y-86746594D01*
X181391348Y-86801048D01*
X181302367Y-86801048D01*
X181305747Y-86763508D01*
X181321349Y-86741905D01*
X181413905Y-86683655D01*
X181517730Y-86686365D01*
G37*
G36*
X184402948Y-85250765D02*
G01*
X184488606Y-85346779D01*
X184497405Y-85457943D01*
X184435247Y-85544516D01*
X184311057Y-85603616D01*
X184211045Y-85573948D01*
X184175067Y-85537942D01*
X184132774Y-85430021D01*
X184142659Y-85390482D01*
X184240545Y-85390482D01*
X184245710Y-85414666D01*
X184315503Y-85458696D01*
X184348182Y-85463047D01*
X184396017Y-85438849D01*
X184390853Y-85414666D01*
X184321059Y-85370635D01*
X184288380Y-85366285D01*
X184240545Y-85390482D01*
X184142659Y-85390482D01*
X184159101Y-85324715D01*
X184233447Y-85247986D01*
X184335208Y-85225799D01*
X184402948Y-85250765D01*
G37*
G36*
X184021724Y-86778518D02*
G01*
X184027995Y-86829748D01*
X184039441Y-86895374D01*
X184087954Y-86876283D01*
X184100325Y-86866295D01*
X184171342Y-86833429D01*
X184258813Y-86863863D01*
X184293848Y-86885677D01*
X184382543Y-86968125D01*
X184412554Y-87046275D01*
X184379734Y-87095638D01*
X184330376Y-87101437D01*
X184239020Y-87086213D01*
X184091108Y-87053706D01*
X183965151Y-87022742D01*
X183792375Y-86962850D01*
X183788531Y-86960001D01*
X184173138Y-86960001D01*
X184208258Y-87009268D01*
X184221519Y-87011237D01*
X184268642Y-86994730D01*
X184269900Y-86989902D01*
X184235998Y-86948596D01*
X184221519Y-86938666D01*
X184176937Y-86942502D01*
X184173138Y-86960001D01*
X183788531Y-86960001D01*
X183705350Y-86898351D01*
X183705522Y-86890285D01*
X183882853Y-86890285D01*
X183907043Y-86914475D01*
X183931233Y-86890285D01*
X183907043Y-86866094D01*
X183882853Y-86890285D01*
X183705522Y-86890285D01*
X183706670Y-86836337D01*
X183798926Y-86783903D01*
X183871049Y-86765271D01*
X183978740Y-86751451D01*
X184021724Y-86778518D01*
G37*
G36*
X179280696Y-82206948D02*
G01*
X179363205Y-82281999D01*
X179635110Y-82598066D01*
X179854921Y-82857208D01*
X180034653Y-83074977D01*
X180186320Y-83266925D01*
X180321937Y-83448605D01*
X180453521Y-83635567D01*
X180593085Y-83843364D01*
X180723726Y-84043006D01*
X180745242Y-84064366D01*
X180733429Y-84015046D01*
X180695467Y-83912239D01*
X180638534Y-83773139D01*
X180569811Y-83614942D01*
X180496475Y-83454841D01*
X180425707Y-83310030D01*
X180387403Y-83237523D01*
X180277215Y-83052849D01*
X180139982Y-82843586D01*
X180029837Y-82688443D01*
X179909756Y-82522711D01*
X179843715Y-82415369D01*
X179824634Y-82349795D01*
X179845428Y-82309365D01*
X179862943Y-82296746D01*
X179925196Y-82311565D01*
X180022493Y-82397523D01*
X180144787Y-82540147D01*
X180282031Y-82724963D01*
X180424175Y-82937497D01*
X180561174Y-83163275D01*
X180682979Y-83387824D01*
X180779543Y-83596671D01*
X180798393Y-83644287D01*
X180897056Y-83886677D01*
X180978876Y-84045908D01*
X181050448Y-84132703D01*
X181114285Y-84157824D01*
X181251306Y-84188329D01*
X181424807Y-84264625D01*
X181599171Y-84367965D01*
X181738781Y-84479602D01*
X181752530Y-84493757D01*
X181887277Y-84638004D01*
X181916771Y-84453556D01*
X181985869Y-84259345D01*
X182112760Y-84096439D01*
X182272769Y-83994532D01*
X182306968Y-83983984D01*
X182550965Y-83968405D01*
X182808179Y-84028302D01*
X183049280Y-84152244D01*
X183244938Y-84328803D01*
X183268144Y-84358564D01*
X183338642Y-84518675D01*
X183364471Y-84723601D01*
X183341067Y-84930097D01*
X183331852Y-84962286D01*
X183318409Y-85000057D01*
X183314426Y-85026802D01*
X183332972Y-85043264D01*
X183387114Y-85050183D01*
X183489921Y-85048300D01*
X183654461Y-85038357D01*
X183893804Y-85021095D01*
X184101044Y-85005911D01*
X184287311Y-84996188D01*
X184409021Y-85004172D01*
X184497641Y-85035661D01*
X184582263Y-85094552D01*
X184682218Y-85197498D01*
X184719119Y-85318060D01*
X184721338Y-85395920D01*
X184705723Y-85562832D01*
X184668728Y-85772527D01*
X184618755Y-85987598D01*
X184564204Y-86170641D01*
X184526950Y-86261332D01*
X184485949Y-86415023D01*
X184491247Y-86593595D01*
X184537323Y-86756661D01*
X184608273Y-86856128D01*
X184666912Y-86910322D01*
X184692389Y-86968605D01*
X184688300Y-87060175D01*
X184658243Y-87214226D01*
X184654524Y-87231515D01*
X184605526Y-87411174D01*
X184535033Y-87549496D01*
X184419337Y-87687963D01*
X184358636Y-87749201D01*
X184240659Y-87871019D01*
X184156606Y-87968907D01*
X184124757Y-88021468D01*
X184091623Y-88084080D01*
X184050135Y-88125701D01*
X183968301Y-88164806D01*
X183924377Y-88118891D01*
X183920045Y-87992657D01*
X183946495Y-87835733D01*
X183988966Y-87677173D01*
X184036546Y-87589895D01*
X184104479Y-87548954D01*
X184125186Y-87543326D01*
X184222119Y-87493211D01*
X184260718Y-87434422D01*
X184231979Y-87360246D01*
X184135720Y-87295679D01*
X184001149Y-87247778D01*
X183857475Y-87223605D01*
X183733906Y-87230216D01*
X183659649Y-87274673D01*
X183653620Y-87287697D01*
X183673360Y-87355766D01*
X183747236Y-87442865D01*
X183753257Y-87448196D01*
X183821371Y-87514271D01*
X183847903Y-87577560D01*
X183838251Y-87672248D01*
X183807906Y-87794337D01*
X183767238Y-87936558D01*
X183733068Y-88035522D01*
X183719797Y-88061277D01*
X183664678Y-88066680D01*
X183612646Y-88009233D01*
X183592567Y-87928999D01*
X183573630Y-87836636D01*
X183524554Y-87692089D01*
X183471551Y-87562833D01*
X183403833Y-87395249D01*
X183375256Y-87264990D01*
X183376847Y-87210259D01*
X183473546Y-87210259D01*
X183501270Y-87380074D01*
X183554438Y-87529225D01*
X183616331Y-87661548D01*
X183670131Y-87742786D01*
X183696998Y-87756402D01*
X183701345Y-87702908D01*
X183665847Y-87596570D01*
X183639646Y-87540876D01*
X183573328Y-87357079D01*
X183572679Y-87229032D01*
X183607503Y-87149050D01*
X183678789Y-87114598D01*
X183793263Y-87107999D01*
X183962353Y-87131418D01*
X184140259Y-87189360D01*
X184175066Y-87205744D01*
X184320058Y-87309064D01*
X184369182Y-87423011D01*
X184322498Y-87548868D01*
X184197330Y-87674413D01*
X184074835Y-87784050D01*
X184028398Y-87855025D01*
X184061392Y-87881992D01*
X184066303Y-87882094D01*
X184117688Y-87849549D01*
X184211241Y-87765297D01*
X184298989Y-87676475D01*
X184480805Y-87424352D01*
X184552330Y-87235257D01*
X184611292Y-86999657D01*
X184428501Y-86838128D01*
X184326471Y-86739712D01*
X184298968Y-86688025D01*
X184330376Y-86674584D01*
X184402094Y-86641248D01*
X184415043Y-86605292D01*
X184373727Y-86549211D01*
X184273635Y-86516667D01*
X184150548Y-86510661D01*
X184040247Y-86534199D01*
X183989997Y-86569618D01*
X183905567Y-86630311D01*
X183770543Y-86685874D01*
X183723901Y-86699031D01*
X183606643Y-86732406D01*
X183542241Y-86776447D01*
X183509303Y-86859427D01*
X183486435Y-87009616D01*
X183485932Y-87013508D01*
X183473546Y-87210259D01*
X183376847Y-87210259D01*
X183379352Y-87124045D01*
X183396350Y-87004707D01*
X183430407Y-86814368D01*
X183464444Y-86700675D01*
X183509867Y-86644189D01*
X183578081Y-86625470D01*
X183619613Y-86624190D01*
X183710280Y-86603009D01*
X183737438Y-86521414D01*
X183737710Y-86505514D01*
X183724042Y-86415277D01*
X184090316Y-86415277D01*
X184161935Y-86429939D01*
X184207005Y-86430666D01*
X184292757Y-86420762D01*
X184292728Y-86386612D01*
X184283357Y-86376389D01*
X184250760Y-86288859D01*
X184257890Y-86247038D01*
X184253849Y-86218776D01*
X184194862Y-86264051D01*
X184181538Y-86277124D01*
X184097723Y-86369603D01*
X184090316Y-86415277D01*
X183724042Y-86415277D01*
X183717047Y-86369098D01*
X183713315Y-86358094D01*
X183882853Y-86358094D01*
X183907043Y-86382285D01*
X183931233Y-86358094D01*
X183907043Y-86333904D01*
X183882853Y-86358094D01*
X183713315Y-86358094D01*
X183680402Y-86261062D01*
X183649675Y-86156251D01*
X183656392Y-86128254D01*
X183770817Y-86128254D01*
X183773039Y-86192459D01*
X183795839Y-86262607D01*
X183815848Y-86257884D01*
X183836252Y-86190826D01*
X183930823Y-86190826D01*
X183964495Y-86254277D01*
X184034542Y-86273876D01*
X184091522Y-86226260D01*
X184100567Y-86185392D01*
X184060350Y-86119945D01*
X184015900Y-86101209D01*
X183947983Y-86121971D01*
X183930823Y-86190826D01*
X183836252Y-86190826D01*
X183842655Y-86169782D01*
X183854898Y-86119836D01*
X183871918Y-86027241D01*
X183853085Y-86012088D01*
X183818318Y-86036948D01*
X183770817Y-86128254D01*
X183656392Y-86128254D01*
X183673837Y-86055543D01*
X183697798Y-86011091D01*
X184138255Y-86011091D01*
X184160528Y-86052370D01*
X184172219Y-86066701D01*
X184240407Y-86133800D01*
X184268362Y-86118334D01*
X184269900Y-86097175D01*
X184231123Y-86045216D01*
X184190486Y-86023496D01*
X184138255Y-86011091D01*
X183697798Y-86011091D01*
X183711770Y-85985170D01*
X183724876Y-85962983D01*
X183947360Y-85962983D01*
X183954002Y-85991746D01*
X183979614Y-85995237D01*
X184019437Y-85977535D01*
X184011868Y-85962983D01*
X183954451Y-85957193D01*
X183947360Y-85962983D01*
X183724876Y-85962983D01*
X183799582Y-85836516D01*
X184100567Y-85836516D01*
X184238296Y-85892269D01*
X184345499Y-85963034D01*
X184402013Y-86047398D01*
X184435820Y-86111373D01*
X184475183Y-86085870D01*
X184514022Y-85977470D01*
X184528388Y-85910571D01*
X184540750Y-85803539D01*
X184512765Y-85762227D01*
X184450119Y-85758155D01*
X184316468Y-85776574D01*
X184221519Y-85799747D01*
X184100567Y-85836516D01*
X183799582Y-85836516D01*
X183800445Y-85835055D01*
X183684411Y-85866105D01*
X183581344Y-85890357D01*
X183532091Y-85897815D01*
X183499743Y-85937775D01*
X183495805Y-85970283D01*
X183465001Y-86049602D01*
X183388455Y-86157482D01*
X183362757Y-86186783D01*
X183264224Y-86273056D01*
X183137782Y-86335337D01*
X182954171Y-86386584D01*
X182872049Y-86404096D01*
X182696858Y-86442234D01*
X182561621Y-86476473D01*
X182491833Y-86500262D01*
X182488425Y-86502680D01*
X182490645Y-86558421D01*
X182528268Y-86665005D01*
X182544093Y-86699824D01*
X182595001Y-86844279D01*
X182583619Y-86948441D01*
X182576955Y-86962131D01*
X182533559Y-87060258D01*
X182549558Y-87101298D01*
X182603160Y-87107999D01*
X182747329Y-87144159D01*
X182920383Y-87239269D01*
X183095343Y-87373270D01*
X183245229Y-87526107D01*
X183328168Y-87646974D01*
X183404484Y-87856716D01*
X183446741Y-88110217D01*
X183450202Y-88362036D01*
X183420813Y-88535235D01*
X183386301Y-88695059D01*
X183402230Y-88783957D01*
X183408911Y-88791848D01*
X183425869Y-88868573D01*
X183403151Y-88998843D01*
X183350709Y-89153135D01*
X183278492Y-89301926D01*
X183199863Y-89412115D01*
X183116358Y-89539488D01*
X183064896Y-89681124D01*
X183018648Y-89801287D01*
X182955407Y-89842232D01*
X182865000Y-89863785D01*
X182735256Y-89915179D01*
X182610754Y-89978071D01*
X182581768Y-89995989D01*
X182590703Y-90037347D01*
X182613858Y-90070163D01*
X182627393Y-90150612D01*
X182574876Y-90243649D01*
X182478502Y-90322166D01*
X182378851Y-90357217D01*
X182291734Y-90391068D01*
X182276459Y-90475044D01*
X182277930Y-90486719D01*
X182255188Y-90616996D01*
X182170568Y-90727758D01*
X182053385Y-90783500D01*
X182031702Y-90784951D01*
X181963073Y-90808486D01*
X181965330Y-90858096D01*
X181969254Y-90984825D01*
X181904578Y-91099582D01*
X181795653Y-91166509D01*
X181752153Y-91171999D01*
X181646692Y-91198162D01*
X181533917Y-91286468D01*
X181442203Y-91389713D01*
X181305060Y-91538589D01*
X181207818Y-91600465D01*
X181148615Y-91575624D01*
X181125590Y-91464352D01*
X181125138Y-91438094D01*
X181112979Y-91341332D01*
X181221900Y-91341332D01*
X181227311Y-91432372D01*
X181237657Y-91462285D01*
X181277755Y-91430852D01*
X181355133Y-91353919D01*
X181367043Y-91341332D01*
X181480672Y-91220380D01*
X181351286Y-91220380D01*
X181255018Y-91237461D01*
X181223207Y-91306767D01*
X181221900Y-91341332D01*
X181112979Y-91341332D01*
X181109401Y-91312853D01*
X181059176Y-91269067D01*
X181052567Y-91268761D01*
X180996815Y-91230916D01*
X180980535Y-91141443D01*
X181002362Y-91036438D01*
X181060929Y-90951995D01*
X181064662Y-90949062D01*
X181122855Y-90899673D01*
X181102532Y-90884709D01*
X181064662Y-90883252D01*
X181002722Y-90843342D01*
X180978284Y-90751565D01*
X180991840Y-90645456D01*
X181043883Y-90562554D01*
X181060303Y-90551293D01*
X181109827Y-90512539D01*
X181080181Y-90475480D01*
X181036113Y-90450425D01*
X180945657Y-90366296D01*
X180949694Y-90263545D01*
X181012924Y-90178363D01*
X181067631Y-90113412D01*
X181050220Y-90074331D01*
X181012924Y-90051551D01*
X180943364Y-89967493D01*
X180942936Y-89914094D01*
X181028376Y-89914094D01*
X181067563Y-89957017D01*
X181100948Y-89962475D01*
X181158563Y-90005749D01*
X181173519Y-90107618D01*
X181151883Y-90222848D01*
X181100948Y-90252761D01*
X181035513Y-90275839D01*
X181044347Y-90323394D01*
X181113969Y-90360620D01*
X181177551Y-90412216D01*
X181210143Y-90501062D01*
X181206990Y-90589042D01*
X181163339Y-90638039D01*
X181148787Y-90639809D01*
X181087670Y-90671521D01*
X181084201Y-90738292D01*
X181138240Y-90797569D01*
X181149329Y-90802447D01*
X181210188Y-90868346D01*
X181221900Y-90923400D01*
X181188738Y-91014204D01*
X181149329Y-91044352D01*
X181078863Y-91094703D01*
X181089591Y-91140891D01*
X181168059Y-91158637D01*
X181209805Y-91153485D01*
X181340676Y-91130643D01*
X181510690Y-91104519D01*
X181573257Y-91095678D01*
X181749151Y-91061709D01*
X181829960Y-91027133D01*
X181816896Y-91000826D01*
X181711170Y-90991667D01*
X181560567Y-91002666D01*
X181388684Y-91017650D01*
X181301983Y-91011653D01*
X181291044Y-90984021D01*
X181291088Y-90983950D01*
X181357216Y-90948812D01*
X181478025Y-90930742D01*
X181506608Y-90930094D01*
X181681239Y-90899128D01*
X181797427Y-90814512D01*
X181920573Y-90721811D01*
X182047765Y-90670578D01*
X182148045Y-90635055D01*
X182189519Y-90589782D01*
X182160437Y-90558729D01*
X182144481Y-90565171D01*
X182082295Y-90559194D01*
X182069305Y-90544241D01*
X182078341Y-90478612D01*
X182144760Y-90391992D01*
X182241246Y-90310176D01*
X182340480Y-90258957D01*
X182377989Y-90252761D01*
X182471521Y-90231031D01*
X182503995Y-90204380D01*
X182500159Y-90159798D01*
X182482660Y-90155999D01*
X182432401Y-90127013D01*
X182444558Y-90055412D01*
X182510462Y-89964232D01*
X182576567Y-89906444D01*
X182671556Y-89823511D01*
X182720087Y-89756296D01*
X182721710Y-89747376D01*
X182680157Y-89702536D01*
X182574218Y-89645745D01*
X182497044Y-89614828D01*
X182385740Y-89578930D01*
X182627536Y-89578930D01*
X182630367Y-89594622D01*
X182682090Y-89625911D01*
X182782965Y-89680148D01*
X182794281Y-89686013D01*
X182894454Y-89731683D01*
X182946540Y-89717766D01*
X182988036Y-89629725D01*
X182996219Y-89607730D01*
X183036948Y-89479009D01*
X183056595Y-89380562D01*
X183056696Y-89378769D01*
X183019260Y-89310449D01*
X182922115Y-89238093D01*
X182896397Y-89224867D01*
X182732417Y-89146671D01*
X182672006Y-89362436D01*
X182639905Y-89493404D01*
X182627536Y-89578930D01*
X182385740Y-89578930D01*
X182356210Y-89569406D01*
X182273023Y-89561747D01*
X182216574Y-89590618D01*
X182203302Y-89603114D01*
X182112529Y-89647427D01*
X181971137Y-89671124D01*
X181811296Y-89674568D01*
X181665171Y-89658120D01*
X181564933Y-89622143D01*
X181541553Y-89595661D01*
X181530179Y-89551148D01*
X181635134Y-89551148D01*
X181637816Y-89565597D01*
X181736532Y-89573714D01*
X181864124Y-89575428D01*
X182018551Y-89566730D01*
X182130951Y-89544307D01*
X182167899Y-89522887D01*
X182154258Y-89495408D01*
X182059865Y-89491191D01*
X181916755Y-89504754D01*
X181728207Y-89530742D01*
X181635134Y-89551148D01*
X181530179Y-89551148D01*
X181516596Y-89497989D01*
X181549541Y-89447508D01*
X181656557Y-89428716D01*
X181717805Y-89426697D01*
X181923424Y-89423109D01*
X181729900Y-89333523D01*
X181590681Y-89276891D01*
X181476575Y-89243618D01*
X181451710Y-89240349D01*
X181379841Y-89211971D01*
X181367043Y-89183204D01*
X181401222Y-89147853D01*
X181427519Y-89152374D01*
X181575773Y-89204086D01*
X181660318Y-89209623D01*
X181676345Y-89192046D01*
X181781164Y-89192046D01*
X181800859Y-89248778D01*
X181864801Y-89282171D01*
X181971131Y-89324425D01*
X182123549Y-89386011D01*
X182213710Y-89422773D01*
X182354052Y-89478482D01*
X182455528Y-89515579D01*
X182486647Y-89524408D01*
X182521539Y-89485494D01*
X182573501Y-89384203D01*
X182597529Y-89327484D01*
X182642654Y-89205599D01*
X182663929Y-89129435D01*
X182663258Y-89118134D01*
X182614996Y-89096916D01*
X182498653Y-89048877D01*
X182336047Y-88982985D01*
X182271771Y-88957177D01*
X182064003Y-88880160D01*
X181936075Y-88848093D01*
X182243841Y-88848093D01*
X182273213Y-88893895D01*
X182322567Y-88912824D01*
X182425445Y-88925714D01*
X182493014Y-88886482D01*
X182499254Y-88873904D01*
X182576567Y-88873904D01*
X182600757Y-88898094D01*
X182624948Y-88873904D01*
X182600757Y-88849713D01*
X182576567Y-88873904D01*
X182499254Y-88873904D01*
X182542123Y-88787496D01*
X182632467Y-88787496D01*
X182659586Y-88772520D01*
X182673329Y-88752951D01*
X182713443Y-88649670D01*
X182717568Y-88607809D01*
X182703754Y-88578877D01*
X182673329Y-88631999D01*
X182637047Y-88734573D01*
X182632467Y-88787496D01*
X182542123Y-88787496D01*
X182547256Y-88777150D01*
X182569890Y-88710556D01*
X182611049Y-88574004D01*
X182613477Y-88501549D01*
X182567424Y-88464966D01*
X182476194Y-88439317D01*
X182393697Y-88429352D01*
X182343765Y-88467598D01*
X182301710Y-88575693D01*
X182294865Y-88598236D01*
X182251729Y-88757165D01*
X182243841Y-88848093D01*
X181936075Y-88848093D01*
X181935213Y-88847877D01*
X181879340Y-88858899D01*
X181876889Y-88864145D01*
X181850848Y-88947984D01*
X181811428Y-89072517D01*
X181808586Y-89081425D01*
X181781164Y-89192046D01*
X181676345Y-89192046D01*
X181707726Y-89157630D01*
X181744566Y-89036755D01*
X181750190Y-89014493D01*
X181780470Y-88880493D01*
X181793843Y-88792411D01*
X181792204Y-88774938D01*
X181741150Y-88757327D01*
X181692001Y-88744291D01*
X182044376Y-88744291D01*
X182055427Y-88799419D01*
X182087752Y-88762194D01*
X182140113Y-88634372D01*
X182157844Y-88583618D01*
X182194211Y-88457304D01*
X182203986Y-88378744D01*
X182196302Y-88365904D01*
X182159413Y-88406568D01*
X182112239Y-88504231D01*
X182069430Y-88622401D01*
X182045639Y-88724582D01*
X182044376Y-88744291D01*
X181692001Y-88744291D01*
X181622399Y-88725830D01*
X181477840Y-88691067D01*
X181178100Y-88621821D01*
X181132377Y-88747862D01*
X181085803Y-88872803D01*
X181054552Y-88952805D01*
X181057768Y-89018320D01*
X181138646Y-89073174D01*
X181182651Y-89090749D01*
X181272102Y-89134042D01*
X181292804Y-89167267D01*
X181285058Y-89172224D01*
X181201687Y-89168617D01*
X181115725Y-89136097D01*
X181039258Y-89098712D01*
X181039999Y-89116177D01*
X181088853Y-89173054D01*
X181163111Y-89311283D01*
X181157969Y-89449867D01*
X181113043Y-89523418D01*
X181076829Y-89580833D01*
X181113043Y-89609697D01*
X181161798Y-89666534D01*
X181172665Y-89757412D01*
X181147732Y-89838121D01*
X181100948Y-89865713D01*
X181036564Y-89891838D01*
X181028376Y-89914094D01*
X180942936Y-89914094D01*
X180942513Y-89861327D01*
X181010399Y-89778051D01*
X181057733Y-89729751D01*
X181034589Y-89700220D01*
X180994779Y-89637275D01*
X180981139Y-89542444D01*
X180994673Y-89459277D01*
X181028376Y-89430285D01*
X181077807Y-89401964D01*
X181066588Y-89334282D01*
X181005492Y-89253157D01*
X180931920Y-89198225D01*
X180843472Y-89138092D01*
X180800132Y-89069827D01*
X180799922Y-89017493D01*
X180883233Y-89017493D01*
X180896968Y-89089066D01*
X180932571Y-89078051D01*
X180981642Y-88993765D01*
X181034502Y-88849713D01*
X181068573Y-88714962D01*
X181076814Y-88627142D01*
X181066086Y-88607809D01*
X181021948Y-88648604D01*
X180966974Y-88747923D01*
X180916606Y-88871165D01*
X180886288Y-88983727D01*
X180883233Y-89017493D01*
X180799922Y-89017493D01*
X180799735Y-88970904D01*
X180840113Y-88818799D01*
X180883233Y-88692007D01*
X180935189Y-88534330D01*
X180945099Y-88498933D01*
X181045300Y-88498933D01*
X181066848Y-88511047D01*
X181110549Y-88473398D01*
X181236427Y-88473398D01*
X181250618Y-88525270D01*
X181310328Y-88565424D01*
X181433676Y-88609055D01*
X181546292Y-88643380D01*
X181715271Y-88691202D01*
X181848671Y-88723216D01*
X181918926Y-88732849D01*
X181920400Y-88732601D01*
X181961781Y-88684644D01*
X182013223Y-88575221D01*
X182034297Y-88517094D01*
X182071185Y-88389157D01*
X182084719Y-88304941D01*
X182081486Y-88290124D01*
X182027447Y-88268706D01*
X181904410Y-88231807D01*
X181884877Y-88226550D01*
X182165329Y-88226550D01*
X182503995Y-88359982D01*
X182842662Y-88493414D01*
X182900956Y-88369183D01*
X182945532Y-88248794D01*
X182961432Y-88166154D01*
X182922381Y-88094249D01*
X182830567Y-88037040D01*
X182564173Y-87938386D01*
X182378339Y-87874759D01*
X182264509Y-87843480D01*
X182214131Y-87841872D01*
X182212051Y-87843435D01*
X182193753Y-87902875D01*
X182178867Y-88019279D01*
X182176844Y-88046838D01*
X182165329Y-88226550D01*
X181884877Y-88226550D01*
X181737389Y-88186856D01*
X181711049Y-88180122D01*
X181518780Y-88134462D01*
X181398172Y-88123809D01*
X181327366Y-88158323D01*
X181284505Y-88248165D01*
X181249635Y-88394612D01*
X181236427Y-88473398D01*
X181110549Y-88473398D01*
X181114284Y-88470180D01*
X181164484Y-88370599D01*
X181168786Y-88358684D01*
X181212293Y-88216912D01*
X181215984Y-88144761D01*
X181180631Y-88124018D01*
X181178764Y-88123999D01*
X181135744Y-88164893D01*
X181106399Y-88240457D01*
X181071130Y-88364598D01*
X181047597Y-88433981D01*
X181045300Y-88498933D01*
X180945099Y-88498933D01*
X180970311Y-88408875D01*
X180979995Y-88354104D01*
X181000657Y-88284761D01*
X181055815Y-88153356D01*
X181135228Y-87983628D01*
X181151548Y-87950634D01*
X181274101Y-87950634D01*
X181282996Y-88013385D01*
X181299511Y-88014134D01*
X181311061Y-87949381D01*
X181307767Y-87937460D01*
X181390595Y-87937460D01*
X181393179Y-88002908D01*
X181423935Y-88032979D01*
X181499368Y-88062715D01*
X181626039Y-88098116D01*
X181772303Y-88132164D01*
X181906513Y-88157836D01*
X181997025Y-88168113D01*
X182016840Y-88164511D01*
X182052709Y-88089373D01*
X182088150Y-87972761D01*
X182112558Y-87856885D01*
X182115327Y-87783953D01*
X182113513Y-87779775D01*
X182048479Y-87743881D01*
X181993140Y-87736951D01*
X181916053Y-87718310D01*
X181899233Y-87693666D01*
X181940133Y-87674017D01*
X182041858Y-87684611D01*
X182056472Y-87687924D01*
X182249077Y-87741267D01*
X182466109Y-87812980D01*
X182688576Y-87895275D01*
X182897489Y-87980365D01*
X183073858Y-88060462D01*
X183198694Y-88127778D01*
X183253005Y-88174526D01*
X183253900Y-88178987D01*
X183224121Y-88218736D01*
X183154719Y-88194079D01*
X183121955Y-88166226D01*
X183080213Y-88156138D01*
X183040749Y-88224112D01*
X183011786Y-88318302D01*
X182981834Y-88456490D01*
X182988685Y-88531865D01*
X183018958Y-88563731D01*
X183062353Y-88611314D01*
X183034637Y-88637358D01*
X182961091Y-88628803D01*
X182924265Y-88612642D01*
X182859644Y-88591169D01*
X182812301Y-88624381D01*
X182760961Y-88729716D01*
X182750788Y-88754844D01*
X182702789Y-88885016D01*
X182675616Y-88978511D01*
X182673329Y-88995587D01*
X182713408Y-89041574D01*
X182815671Y-89106687D01*
X182891660Y-89145369D01*
X183025221Y-89215274D01*
X183119681Y-89277798D01*
X183142823Y-89301120D01*
X183179464Y-89299337D01*
X183231833Y-89211809D01*
X183295246Y-89047377D01*
X183322896Y-88961262D01*
X183324956Y-88866763D01*
X183251265Y-88787295D01*
X183232116Y-88774269D01*
X183146108Y-88703820D01*
X183109739Y-88648099D01*
X183128844Y-88626521D01*
X183194923Y-88650519D01*
X183257449Y-88666408D01*
X183301084Y-88617918D01*
X183333268Y-88529923D01*
X183358033Y-88414584D01*
X183352010Y-88344594D01*
X183347050Y-88339481D01*
X183328138Y-88280640D01*
X183332779Y-88168264D01*
X183335138Y-88152540D01*
X183327329Y-87915664D01*
X183237259Y-87683765D01*
X183078368Y-87476121D01*
X182864095Y-87312006D01*
X182696085Y-87235947D01*
X182470695Y-87159149D01*
X182317447Y-87321640D01*
X182187342Y-87427548D01*
X182029116Y-87512776D01*
X181874244Y-87564336D01*
X181754199Y-87569241D01*
X181734440Y-87562216D01*
X181723559Y-87566354D01*
X181766186Y-87605650D01*
X181838383Y-87679811D01*
X181840482Y-87715791D01*
X181774036Y-87698822D01*
X181757271Y-87690273D01*
X181618927Y-87643482D01*
X181517491Y-87680705D01*
X181437136Y-87808116D01*
X181433561Y-87816548D01*
X181390595Y-87937460D01*
X181307767Y-87937460D01*
X181303331Y-87921404D01*
X181281848Y-87903078D01*
X181274101Y-87950634D01*
X181151548Y-87950634D01*
X181171268Y-87910766D01*
X181232848Y-87788188D01*
X181318662Y-87788188D01*
X181334210Y-87832147D01*
X181369887Y-87793798D01*
X181385503Y-87758629D01*
X181388884Y-87708687D01*
X181366489Y-87713103D01*
X181320381Y-87775047D01*
X181318662Y-87788188D01*
X181232848Y-87788188D01*
X181362540Y-87530027D01*
X181303536Y-87458020D01*
X181480834Y-87458020D01*
X181561917Y-87481866D01*
X181687313Y-87492718D01*
X181823507Y-87491229D01*
X181936987Y-87478055D01*
X181994239Y-87453850D01*
X181995995Y-87447957D01*
X181951933Y-87424122D01*
X181836342Y-87411551D01*
X181710643Y-87411671D01*
X181569976Y-87422565D01*
X181488128Y-87440166D01*
X181480834Y-87458020D01*
X181303536Y-87458020D01*
X181190201Y-87319710D01*
X181061608Y-87180146D01*
X180925913Y-87058804D01*
X180862698Y-87013496D01*
X180731549Y-86920459D01*
X180623432Y-86824540D01*
X180617944Y-86818604D01*
X180531251Y-86752114D01*
X180419377Y-86741587D01*
X180355032Y-86750936D01*
X180213064Y-86788696D01*
X180052420Y-86847669D01*
X179919674Y-86909899D01*
X179883261Y-86932823D01*
X179867121Y-86978427D01*
X179839779Y-87079589D01*
X179839777Y-87079598D01*
X179819385Y-87175412D01*
X179840420Y-87190799D01*
X179919180Y-87139975D01*
X180047349Y-87084579D01*
X180201868Y-87059719D01*
X180210923Y-87059618D01*
X180335453Y-87073784D01*
X180430230Y-87131175D01*
X180524062Y-87241047D01*
X180617927Y-87357672D01*
X180696319Y-87440753D01*
X180718490Y-87458457D01*
X180757807Y-87527159D01*
X180776539Y-87647290D01*
X180776795Y-87663277D01*
X180750421Y-87810577D01*
X180660364Y-87956311D01*
X180612300Y-88011702D01*
X180517813Y-88120818D01*
X180458328Y-88200979D01*
X180447805Y-88223923D01*
X180405052Y-88248396D01*
X180299272Y-88270739D01*
X180164184Y-88287084D01*
X180033510Y-88293562D01*
X179940967Y-88286307D01*
X179930893Y-88283218D01*
X179872430Y-88222078D01*
X179867233Y-88194850D01*
X179824451Y-88086818D01*
X179726981Y-88028159D01*
X179927437Y-88028159D01*
X179973347Y-88129842D01*
X180050935Y-88185002D01*
X180154248Y-88181792D01*
X180252073Y-88142619D01*
X180352119Y-88142619D01*
X180376451Y-88139437D01*
X180437451Y-88075341D01*
X180447805Y-88062416D01*
X180514711Y-87965470D01*
X180543470Y-87900153D01*
X180543491Y-87898654D01*
X180520295Y-87900542D01*
X180467455Y-87955414D01*
X180407389Y-88034688D01*
X180362516Y-88109787D01*
X180352119Y-88142619D01*
X180252073Y-88142619D01*
X180252348Y-88142509D01*
X180302010Y-88085449D01*
X180302662Y-88078445D01*
X180264318Y-88054301D01*
X180210564Y-88060380D01*
X180124102Y-88047804D01*
X180086352Y-87983279D01*
X180034388Y-87895581D01*
X179971406Y-87894759D01*
X179939537Y-87930908D01*
X179927437Y-88028159D01*
X179726981Y-88028159D01*
X179711318Y-88018733D01*
X179552698Y-88004229D01*
X179409167Y-87996771D01*
X179297152Y-87927607D01*
X179261169Y-87891167D01*
X179236233Y-87857168D01*
X179403063Y-87857168D01*
X179407614Y-87882094D01*
X179469467Y-87928630D01*
X179483041Y-87930475D01*
X179527264Y-87893573D01*
X179528567Y-87882094D01*
X179498652Y-87849840D01*
X179593075Y-87849840D01*
X179599716Y-87878603D01*
X179625329Y-87882094D01*
X179665152Y-87864392D01*
X179657583Y-87849840D01*
X179600166Y-87844050D01*
X179593075Y-87849840D01*
X179498652Y-87849840D01*
X179489187Y-87839635D01*
X179453140Y-87833713D01*
X179403063Y-87857168D01*
X179236233Y-87857168D01*
X179167915Y-87764018D01*
X179154814Y-87682256D01*
X179236423Y-87682256D01*
X179269387Y-87751930D01*
X179344240Y-87777519D01*
X179452226Y-87770919D01*
X179505869Y-87754331D01*
X179705855Y-87754331D01*
X179725539Y-87785332D01*
X179768818Y-87825254D01*
X179795819Y-87885740D01*
X179831160Y-87953553D01*
X179855597Y-87958239D01*
X179855911Y-87900334D01*
X179820560Y-87812714D01*
X179807639Y-87773237D01*
X180158260Y-87773237D01*
X180172042Y-87912981D01*
X180208419Y-87973820D01*
X180258022Y-87949299D01*
X180298649Y-87869999D01*
X180300379Y-87857904D01*
X180399424Y-87857904D01*
X180423614Y-87882094D01*
X180447805Y-87857904D01*
X180423614Y-87833713D01*
X180399424Y-87857904D01*
X180300379Y-87857904D01*
X180307297Y-87809523D01*
X180641329Y-87809523D01*
X180665519Y-87833713D01*
X180689710Y-87809523D01*
X180665519Y-87785332D01*
X180641329Y-87809523D01*
X180307297Y-87809523D01*
X180314459Y-87759442D01*
X180295393Y-87705758D01*
X180259096Y-87630290D01*
X180258313Y-87608996D01*
X180261201Y-87526629D01*
X180259270Y-87495047D01*
X180243334Y-87442300D01*
X180217792Y-87464215D01*
X180190119Y-87540213D01*
X180167785Y-87649713D01*
X180158265Y-87772133D01*
X180158260Y-87773237D01*
X179807639Y-87773237D01*
X179787846Y-87712761D01*
X179963995Y-87712761D01*
X179988186Y-87736951D01*
X180012376Y-87712761D01*
X179988186Y-87688571D01*
X179963995Y-87712761D01*
X179787846Y-87712761D01*
X179783266Y-87698768D01*
X179786715Y-87619263D01*
X179791903Y-87554859D01*
X179774593Y-87543428D01*
X179735741Y-87584729D01*
X179710249Y-87664380D01*
X179705855Y-87754331D01*
X179505869Y-87754331D01*
X179551599Y-87740190D01*
X179600613Y-87693395D01*
X179601138Y-87687869D01*
X179564164Y-87636444D01*
X179446332Y-87616964D01*
X179419720Y-87616540D01*
X179289167Y-87634070D01*
X179236423Y-87682256D01*
X179154814Y-87682256D01*
X179148372Y-87642050D01*
X179186887Y-87522986D01*
X179344809Y-87522986D01*
X179385018Y-87533532D01*
X179433685Y-87495047D01*
X179625329Y-87495047D01*
X179641836Y-87542170D01*
X179646664Y-87543428D01*
X179687970Y-87509525D01*
X179697900Y-87495047D01*
X179694064Y-87450464D01*
X179676565Y-87446666D01*
X179627298Y-87481786D01*
X179625329Y-87495047D01*
X179433685Y-87495047D01*
X179467455Y-87468342D01*
X179506196Y-87424103D01*
X179925425Y-87424103D01*
X179928031Y-87530630D01*
X179975152Y-87573018D01*
X180010092Y-87578334D01*
X180092169Y-87554295D01*
X180109138Y-87494895D01*
X180130618Y-87404511D01*
X180154635Y-87375877D01*
X180214805Y-87386851D01*
X180292361Y-87448605D01*
X180355694Y-87528478D01*
X180373194Y-87593811D01*
X180370705Y-87599136D01*
X180389801Y-87631209D01*
X180448405Y-87640190D01*
X180517932Y-87630625D01*
X180502261Y-87589909D01*
X180487546Y-87574054D01*
X180481651Y-87567618D01*
X180641329Y-87567618D01*
X180665519Y-87591809D01*
X180689710Y-87567618D01*
X180665519Y-87543428D01*
X180641329Y-87567618D01*
X180481651Y-87567618D01*
X180412161Y-87491754D01*
X180317169Y-87383037D01*
X180312475Y-87377537D01*
X180189217Y-87278172D01*
X180069006Y-87253840D01*
X179973884Y-87301888D01*
X179925892Y-87419665D01*
X179925425Y-87424103D01*
X179506196Y-87424103D01*
X179560582Y-87361999D01*
X179577263Y-87338337D01*
X179743074Y-87338337D01*
X179790630Y-87346084D01*
X179853381Y-87337189D01*
X179854130Y-87320674D01*
X179789378Y-87309124D01*
X179761400Y-87316854D01*
X179743074Y-87338337D01*
X179577263Y-87338337D01*
X179647599Y-87238566D01*
X180337000Y-87238566D01*
X180381017Y-87322708D01*
X180401407Y-87352689D01*
X180484281Y-87451224D01*
X180528889Y-87474055D01*
X180523355Y-87425108D01*
X180470297Y-87329911D01*
X180399058Y-87241739D01*
X180342426Y-87204763D01*
X180342184Y-87204761D01*
X180337000Y-87238566D01*
X179647599Y-87238566D01*
X179654490Y-87228791D01*
X179720898Y-87106173D01*
X179734274Y-87068690D01*
X179745267Y-86994215D01*
X179708065Y-86973667D01*
X179609495Y-86990102D01*
X179465182Y-87042816D01*
X179396719Y-87132807D01*
X179383504Y-87228951D01*
X179369485Y-87357041D01*
X179352930Y-87434571D01*
X179344809Y-87522986D01*
X179186887Y-87522986D01*
X179197998Y-87488637D01*
X179208472Y-87466194D01*
X179267292Y-87321526D01*
X179304304Y-87200045D01*
X179312644Y-87117024D01*
X179273665Y-87066592D01*
X179165470Y-87024243D01*
X179140393Y-87016616D01*
X178980446Y-86947734D01*
X178873068Y-86843298D01*
X178865388Y-86824305D01*
X178999235Y-86824305D01*
X179032277Y-86858449D01*
X179141922Y-86895694D01*
X179315681Y-86904698D01*
X179525917Y-86887955D01*
X179744992Y-86847955D01*
X179945268Y-86787190D01*
X179980102Y-86772994D01*
X180129811Y-86715243D01*
X180253257Y-86678936D01*
X180297174Y-86672571D01*
X180346141Y-86660911D01*
X180715531Y-86660911D01*
X180778687Y-86758242D01*
X180919906Y-86884053D01*
X180958185Y-86912735D01*
X180954823Y-86871643D01*
X180943475Y-86768261D01*
X180940797Y-86745142D01*
X180927491Y-86690620D01*
X181030817Y-86690620D01*
X181031229Y-86741653D01*
X181066065Y-86818524D01*
X181123903Y-86889167D01*
X181210859Y-86995435D01*
X181251896Y-87077908D01*
X181327831Y-87207364D01*
X181461816Y-87276610D01*
X181667234Y-87292529D01*
X181669099Y-87292464D01*
X181847508Y-87268870D01*
X181969250Y-87205050D01*
X182004104Y-87171939D01*
X182106854Y-87085987D01*
X182185480Y-87060590D01*
X182221854Y-87097093D01*
X182213710Y-87156380D01*
X182210679Y-87235675D01*
X182254799Y-87253142D01*
X182332103Y-87220787D01*
X182341942Y-87136851D01*
X182282294Y-87021025D01*
X182279056Y-87016808D01*
X182212679Y-86891700D01*
X182189519Y-86781753D01*
X182175362Y-86696042D01*
X182114066Y-86682447D01*
X182076389Y-86690475D01*
X181946090Y-86685948D01*
X181872006Y-86652142D01*
X181741877Y-86607779D01*
X181620370Y-86611443D01*
X181478986Y-86611303D01*
X181359577Y-86544369D01*
X181334121Y-86521972D01*
X181208254Y-86406475D01*
X181238923Y-86534479D01*
X181233148Y-86644058D01*
X181172582Y-86707066D01*
X181082148Y-86699620D01*
X181072391Y-86694063D01*
X181030817Y-86690620D01*
X180927491Y-86690620D01*
X180910996Y-86623030D01*
X180852488Y-86577448D01*
X180832415Y-86575809D01*
X180732690Y-86598089D01*
X180715531Y-86660911D01*
X180346141Y-86660911D01*
X180384235Y-86651840D01*
X180521849Y-86598333D01*
X180635073Y-86545674D01*
X180889721Y-86418778D01*
X181031620Y-86554726D01*
X181129365Y-86638166D01*
X181168031Y-86645696D01*
X181147079Y-86578450D01*
X181078061Y-86456965D01*
X181043195Y-86400551D01*
X181415424Y-86400551D01*
X181451642Y-86468417D01*
X181487995Y-86479047D01*
X181552548Y-86469101D01*
X181560567Y-86460780D01*
X181537438Y-86430666D01*
X181633138Y-86430666D01*
X181636974Y-86475248D01*
X181654473Y-86479047D01*
X181703741Y-86443926D01*
X181705710Y-86430666D01*
X181689203Y-86383543D01*
X181684374Y-86382285D01*
X181643068Y-86416187D01*
X181633138Y-86430666D01*
X181537438Y-86430666D01*
X181528506Y-86419037D01*
X181487995Y-86382285D01*
X181430767Y-86348553D01*
X181415492Y-86393000D01*
X181415424Y-86400551D01*
X181043195Y-86400551D01*
X180982602Y-86302510D01*
X181040522Y-86258477D01*
X181270281Y-86258477D01*
X181286225Y-86328379D01*
X181328118Y-86307425D01*
X181340786Y-86288866D01*
X181334719Y-86226729D01*
X181319451Y-86213439D01*
X181277377Y-86223951D01*
X181270281Y-86258477D01*
X181040522Y-86258477D01*
X181241262Y-86105867D01*
X181374842Y-86105867D01*
X181386613Y-86132905D01*
X181435328Y-86184844D01*
X181463334Y-86174189D01*
X181463805Y-86167426D01*
X181429441Y-86126504D01*
X181407949Y-86111570D01*
X181374842Y-86105867D01*
X181241262Y-86105867D01*
X181310437Y-86053278D01*
X181366858Y-86009609D01*
X181530068Y-86009609D01*
X181545102Y-86057521D01*
X181612059Y-86157800D01*
X181717710Y-86291273D01*
X181752570Y-86332148D01*
X181899295Y-86497036D01*
X181995786Y-86595558D01*
X182038830Y-86624877D01*
X182025212Y-86582157D01*
X182014821Y-86563713D01*
X181967294Y-86496008D01*
X181878875Y-86380297D01*
X181875099Y-86375538D01*
X182287123Y-86375538D01*
X182290740Y-86569618D01*
X182303613Y-86742198D01*
X182325456Y-86865022D01*
X182344338Y-86904799D01*
X182432142Y-86959855D01*
X182498329Y-86923097D01*
X182503943Y-86914560D01*
X182501245Y-86843476D01*
X182458417Y-86758652D01*
X182412911Y-86647473D01*
X182388340Y-86466410D01*
X182385418Y-86367805D01*
X182479805Y-86367805D01*
X182828285Y-86308030D01*
X183032911Y-86265476D01*
X183168399Y-86215472D01*
X183262298Y-86146691D01*
X183287904Y-86119048D01*
X183377092Y-86003701D01*
X183405371Y-85925626D01*
X183364721Y-85878817D01*
X183247123Y-85857266D01*
X183044559Y-85854965D01*
X182939500Y-85858034D01*
X182479957Y-85874285D01*
X182479881Y-86121045D01*
X182479805Y-86367805D01*
X182385418Y-86367805D01*
X182382302Y-86262663D01*
X182377737Y-86063315D01*
X182364571Y-85956316D01*
X182342190Y-85937583D01*
X182334662Y-85946856D01*
X182308799Y-86035900D01*
X182293048Y-86188213D01*
X182287123Y-86375538D01*
X181875099Y-86375538D01*
X181784492Y-86261332D01*
X181681744Y-86133584D01*
X181605859Y-86038625D01*
X181597598Y-86028090D01*
X181873556Y-86028090D01*
X181903680Y-86125432D01*
X181904631Y-86128285D01*
X181951988Y-86248286D01*
X181983732Y-86282662D01*
X181995966Y-86227407D01*
X181995995Y-86222198D01*
X181968466Y-86136506D01*
X181924089Y-86064960D01*
X181879307Y-86011357D01*
X181873556Y-86028090D01*
X181597598Y-86028090D01*
X181574997Y-85999269D01*
X181535252Y-86004891D01*
X181530068Y-86009609D01*
X181366858Y-86009609D01*
X181528425Y-85884559D01*
X181595700Y-85826826D01*
X181754091Y-85826826D01*
X181783449Y-85878117D01*
X181863546Y-85872847D01*
X181945399Y-85870579D01*
X182000915Y-85930025D01*
X182032683Y-86003492D01*
X182092365Y-86161609D01*
X182194767Y-85969566D01*
X182265824Y-85805681D01*
X182284808Y-85747199D01*
X182891043Y-85747199D01*
X182998785Y-85750266D01*
X183110430Y-85710971D01*
X183185778Y-85632380D01*
X183187499Y-85629196D01*
X183313529Y-85629196D01*
X183340046Y-85645017D01*
X183438091Y-85654904D01*
X183514787Y-85656571D01*
X183641937Y-85648501D01*
X183711799Y-85627932D01*
X183716488Y-85612994D01*
X183656766Y-85590789D01*
X183568219Y-85586558D01*
X183866339Y-85586558D01*
X183904591Y-85632661D01*
X183963502Y-85601485D01*
X184034084Y-85572025D01*
X184110448Y-85621546D01*
X184113362Y-85624441D01*
X184245337Y-85694619D01*
X184401390Y-85689367D01*
X184546861Y-85610146D01*
X184551427Y-85605966D01*
X184627863Y-85500010D01*
X184626450Y-85376157D01*
X184570351Y-85223526D01*
X184479482Y-85146504D01*
X184328688Y-85124414D01*
X184320123Y-85124380D01*
X184189749Y-85138021D01*
X184115065Y-85193140D01*
X184080620Y-85255340D01*
X184005203Y-85374830D01*
X183929738Y-85450188D01*
X183867715Y-85529160D01*
X183866339Y-85586558D01*
X183568219Y-85586558D01*
X183544298Y-85585415D01*
X183421308Y-85595175D01*
X183330023Y-85618370D01*
X183313529Y-85629196D01*
X183187499Y-85629196D01*
X183236968Y-85537689D01*
X183228688Y-85463235D01*
X183185778Y-85390475D01*
X183120837Y-85304549D01*
X183110648Y-85296309D01*
X183302281Y-85296309D01*
X183320691Y-85339120D01*
X183389353Y-85359226D01*
X183528413Y-85361180D01*
X183580472Y-85359194D01*
X183743199Y-85345076D01*
X183870018Y-85321598D01*
X183919138Y-85302293D01*
X183977180Y-85237163D01*
X183945541Y-85198470D01*
X183828677Y-85190263D01*
X183798186Y-85192400D01*
X183626265Y-85205168D01*
X183462935Y-85214406D01*
X183459519Y-85214551D01*
X183338509Y-85239106D01*
X183302281Y-85296309D01*
X183110648Y-85296309D01*
X183077527Y-85269523D01*
X183078913Y-85299546D01*
X183108236Y-85341466D01*
X183145920Y-85453005D01*
X183118466Y-85580305D01*
X183038529Y-85681578D01*
X182998453Y-85703979D01*
X182891043Y-85747199D01*
X182284808Y-85747199D01*
X182329931Y-85608190D01*
X182479805Y-85608190D01*
X182497507Y-85648013D01*
X182512059Y-85640444D01*
X182517849Y-85583027D01*
X182512059Y-85575936D01*
X182483296Y-85582577D01*
X182479805Y-85608190D01*
X182329931Y-85608190D01*
X182330352Y-85606892D01*
X182353991Y-85511428D01*
X182375229Y-85427036D01*
X182529035Y-85427036D01*
X182563392Y-85441317D01*
X182588662Y-85448016D01*
X182660550Y-85497839D01*
X182673329Y-85535710D01*
X182699818Y-85609326D01*
X182759557Y-85686522D01*
X182822953Y-85734894D01*
X182854181Y-85733750D01*
X182843859Y-85685865D01*
X182800041Y-85631228D01*
X182737709Y-85549839D01*
X182721710Y-85504791D01*
X182733609Y-85465749D01*
X182829637Y-85465749D01*
X182848104Y-85542918D01*
X182871898Y-85563905D01*
X182971144Y-85592843D01*
X183028304Y-85539232D01*
X183036186Y-85483868D01*
X182998214Y-85399907D01*
X182951373Y-85375467D01*
X182870002Y-85395844D01*
X182829637Y-85465749D01*
X182733609Y-85465749D01*
X182757817Y-85386323D01*
X182844059Y-85295910D01*
X182924999Y-85269523D01*
X182994588Y-85258706D01*
X182999328Y-85240728D01*
X182929024Y-85224942D01*
X182823150Y-85245293D01*
X182724038Y-85288118D01*
X182674021Y-85339755D01*
X182673329Y-85345938D01*
X182633341Y-85406898D01*
X182588662Y-85420278D01*
X182529035Y-85427036D01*
X182375229Y-85427036D01*
X182393181Y-85355700D01*
X182435426Y-85272087D01*
X182495699Y-85236677D01*
X182529975Y-85230430D01*
X182659293Y-85199277D01*
X182801962Y-85145588D01*
X182929716Y-85106458D01*
X183033322Y-85106027D01*
X183038768Y-85107875D01*
X183133466Y-85102004D01*
X183205433Y-85013871D01*
X183246894Y-84856810D01*
X183253900Y-84738850D01*
X183240211Y-84576317D01*
X183188748Y-84432989D01*
X183083916Y-84265619D01*
X183082553Y-84263689D01*
X183028048Y-84234071D01*
X182911598Y-84189130D01*
X182764561Y-84139187D01*
X182618296Y-84094565D01*
X182504158Y-84065586D01*
X182463762Y-84059999D01*
X182317257Y-84098282D01*
X182169928Y-84193394D01*
X182064446Y-84315731D01*
X182049496Y-84347410D01*
X182028224Y-84444261D01*
X182006480Y-84613013D01*
X181986981Y-84828856D01*
X181973813Y-85038522D01*
X181958036Y-85318379D01*
X181941274Y-85515384D01*
X181920568Y-85643423D01*
X181892957Y-85716386D01*
X181855482Y-85748160D01*
X181821486Y-85753332D01*
X181762070Y-85792243D01*
X181754091Y-85826826D01*
X181595700Y-85826826D01*
X181680643Y-85753930D01*
X181779785Y-85642855D01*
X181838545Y-85532802D01*
X181869619Y-85405235D01*
X181885699Y-85241621D01*
X181887760Y-85210380D01*
X181896195Y-85019078D01*
X181888205Y-84894907D01*
X181858892Y-84808928D01*
X181807744Y-84737332D01*
X181705182Y-84616380D01*
X181755279Y-84756397D01*
X181781676Y-84887929D01*
X181759938Y-85022225D01*
X181682992Y-85172206D01*
X181543768Y-85350796D01*
X181335193Y-85570917D01*
X181279342Y-85626156D01*
X180958786Y-85929032D01*
X180675532Y-86169333D01*
X180409333Y-86362272D01*
X180139945Y-86523064D01*
X179971668Y-86608841D01*
X179758277Y-86703817D01*
X179582843Y-86757833D01*
X179401847Y-86782124D01*
X179281854Y-86786931D01*
X179109812Y-86792592D01*
X179020334Y-86803695D01*
X178999235Y-86824305D01*
X178865388Y-86824305D01*
X178809735Y-86686681D01*
X178781920Y-86461253D01*
X178778662Y-86311109D01*
X178780468Y-86195184D01*
X178856637Y-86195184D01*
X178865387Y-86410641D01*
X178952856Y-86583382D01*
X178974244Y-86606455D01*
X179058200Y-86678580D01*
X179143415Y-86709148D01*
X179267961Y-86707501D01*
X179349196Y-86698468D01*
X179513097Y-86661812D01*
X179722770Y-86592263D01*
X179939020Y-86503224D01*
X179989315Y-86479587D01*
X180145069Y-86403382D01*
X180269423Y-86337969D01*
X180378907Y-86271188D01*
X180490052Y-86190881D01*
X180619388Y-86084889D01*
X180783445Y-85941054D01*
X180998754Y-85747215D01*
X181058532Y-85693132D01*
X181346342Y-85416699D01*
X181549559Y-85184609D01*
X181669025Y-84995776D01*
X181705710Y-84856264D01*
X181667528Y-84736787D01*
X181568148Y-84595592D01*
X181430319Y-84459084D01*
X181276789Y-84353668D01*
X181269406Y-84349838D01*
X181132608Y-84282728D01*
X181060449Y-84259031D01*
X181032541Y-84275971D01*
X181028376Y-84316996D01*
X181064261Y-84385475D01*
X181152503Y-84471689D01*
X181171289Y-84486129D01*
X181299090Y-84636518D01*
X181355446Y-84829748D01*
X181333038Y-85036201D01*
X181317640Y-85078466D01*
X181203454Y-85254344D01*
X181021179Y-85427333D01*
X180798316Y-85579518D01*
X180562364Y-85692986D01*
X180340824Y-85749821D01*
X180281948Y-85753152D01*
X180174620Y-85728390D01*
X180042868Y-85667928D01*
X180024472Y-85657101D01*
X179899027Y-85532324D01*
X179859431Y-85364064D01*
X179872171Y-85306031D01*
X179979595Y-85306031D01*
X179991277Y-85457074D01*
X180068867Y-85570623D01*
X180109138Y-85596592D01*
X180282501Y-85638064D01*
X180493699Y-85614283D01*
X180713565Y-85529804D01*
X180778924Y-85492002D01*
X180928215Y-85379963D01*
X181078241Y-85240898D01*
X181115090Y-85201004D01*
X181238819Y-85015421D01*
X181268110Y-84843371D01*
X181203054Y-84677709D01*
X181122803Y-84582411D01*
X181012705Y-84487600D01*
X180912300Y-84453267D01*
X180787543Y-84460119D01*
X180593537Y-84518233D01*
X180411223Y-84629679D01*
X180249635Y-84779319D01*
X180117810Y-84952016D01*
X180024785Y-85132633D01*
X179979595Y-85306031D01*
X179872171Y-85306031D01*
X179905668Y-85153449D01*
X180035085Y-84905718D01*
X180222460Y-84660931D01*
X180424215Y-84482420D01*
X180627057Y-84379726D01*
X180796060Y-84359660D01*
X180909153Y-84366947D01*
X180941780Y-84351960D01*
X180909499Y-84304328D01*
X180898127Y-84291631D01*
X180788147Y-84229847D01*
X180695015Y-84235796D01*
X180528682Y-84301360D01*
X180316248Y-84426097D01*
X180075953Y-84596904D01*
X179826033Y-84800680D01*
X179584725Y-85024323D01*
X179552757Y-85056382D01*
X179274664Y-85367609D01*
X179064078Y-85666158D01*
X178923801Y-85944520D01*
X178856637Y-86195184D01*
X178780468Y-86195184D01*
X178781782Y-86110870D01*
X178798203Y-85967076D01*
X178838518Y-85841542D01*
X178913322Y-85696087D01*
X178981796Y-85578936D01*
X179101994Y-85355873D01*
X179157023Y-85200782D01*
X179157785Y-85132975D01*
X179158162Y-85020027D01*
X179248977Y-85020027D01*
X179262270Y-85124053D01*
X179307244Y-85116174D01*
X179397124Y-85051850D01*
X179494061Y-84962816D01*
X179644827Y-84822530D01*
X179830245Y-84664354D01*
X179981701Y-84544460D01*
X180124468Y-84432566D01*
X180196803Y-84362237D01*
X180208511Y-84320956D01*
X180174723Y-84298077D01*
X180048728Y-84294663D01*
X179893035Y-84351762D01*
X179724212Y-84454375D01*
X179558827Y-84587506D01*
X179413447Y-84736157D01*
X179304641Y-84885330D01*
X179248977Y-85020027D01*
X179158162Y-85020027D01*
X179158409Y-84946157D01*
X179252653Y-84744680D01*
X179438889Y-84530941D01*
X179715491Y-84307332D01*
X179722091Y-84302665D01*
X179859720Y-84213217D01*
X179968678Y-84173023D01*
X180095201Y-84170084D01*
X180192962Y-84180488D01*
X180344978Y-84193072D01*
X180458368Y-84191074D01*
X180493746Y-84182459D01*
X180496421Y-84127372D01*
X180444776Y-84010230D01*
X180347022Y-83842820D01*
X180211371Y-83636930D01*
X180046035Y-83404346D01*
X179859225Y-83156856D01*
X179659153Y-82906247D01*
X179454029Y-82664306D01*
X179371660Y-82571773D01*
X179227043Y-82396009D01*
X179153068Y-82268262D01*
X179151542Y-82192865D01*
X179205366Y-82173142D01*
X179280696Y-82206948D01*
G37*
D10*
%TO.C,U5*%
X151310000Y-97049999D02*
X151310000Y-101200001D01*
X156460000Y-97049999D02*
X156460000Y-101200001D01*
D15*
X156690001Y-96690000D02*
X156360000Y-96450000D01*
X156690000Y-96210000D01*
X156690001Y-96690000D01*
G36*
X156690001Y-96690000D02*
G01*
X156360000Y-96450000D01*
X156690000Y-96210000D01*
X156690001Y-96690000D01*
G37*
%TO.C,D13*%
X173865000Y-106215000D02*
X173865000Y-107685000D01*
X173865000Y-107685000D02*
X176150000Y-107685000D01*
X176150000Y-106215000D02*
X173865000Y-106215000D01*
%TO.C,D12*%
X148365000Y-109950000D02*
X148365000Y-112235000D01*
X148365000Y-112235000D02*
X149835000Y-112235000D01*
X149835000Y-112235000D02*
X149835000Y-109950000D01*
%TO.C,U2*%
X159039999Y-101000000D02*
X159040000Y-97240000D01*
X159040000Y-97240000D02*
X160299999Y-97240000D01*
X165860000Y-97240000D02*
X164600001Y-97240000D01*
X165860001Y-101000000D02*
X165860000Y-97240000D01*
X159140000Y-102280000D02*
X158810000Y-102520000D01*
X158810000Y-102040000D01*
X159140000Y-102280000D01*
G36*
X159140000Y-102280000D02*
G01*
X158810000Y-102520000D01*
X158810000Y-102040000D01*
X159140000Y-102280000D01*
G37*
%TO.C,C2*%
X171486251Y-103890000D02*
X170063747Y-103890000D01*
X171486251Y-105710000D02*
X170063747Y-105710000D01*
%TO.C,C10*%
X137043342Y-103993916D02*
X139815201Y-106765775D01*
X139815201Y-106765775D02*
X141165775Y-105415201D01*
X141165775Y-105415201D02*
X138393916Y-102643342D01*
%TO.C,J4*%
X150970000Y-104280000D02*
X150970000Y-111020000D01*
X150970000Y-104280000D02*
X156790000Y-104280000D01*
X150970000Y-106000000D02*
X156790000Y-106000000D01*
X150970000Y-109100000D02*
X156790000Y-109100000D01*
X150970000Y-110100000D02*
X156790000Y-110100000D01*
X150970000Y-111020000D02*
X152310000Y-111020000D01*
X152910000Y-111020000D02*
X156790000Y-111020000D01*
X156790000Y-104280000D02*
X156790000Y-111020000D01*
X153050000Y-111630000D02*
X152170000Y-111630000D01*
X152610000Y-111020000D01*
X153050000Y-111630000D01*
G36*
X153050000Y-111630000D02*
G01*
X152170000Y-111630000D01*
X152610000Y-111020000D01*
X153050000Y-111630000D01*
G37*
%TO.C,C16*%
X149790000Y-101090581D02*
X149790000Y-100809419D01*
X150810000Y-101090581D02*
X150810000Y-100809419D01*
%TO.C,U6*%
X168839999Y-101000000D02*
X168840000Y-97240000D01*
X168840000Y-97240000D02*
X170099999Y-97240000D01*
X175660000Y-97240000D02*
X174400001Y-97240000D01*
X175660001Y-101000000D02*
X175660000Y-97240000D01*
X168940000Y-102280000D02*
X168610000Y-102520000D01*
X168610000Y-102040000D01*
X168940000Y-102280000D01*
G36*
X168940000Y-102280000D02*
G01*
X168610000Y-102520000D01*
X168610000Y-102040000D01*
X168940000Y-102280000D01*
G37*
%TO.C,J2*%
X103420000Y-105890001D02*
X104800000Y-105890002D01*
X103420000Y-108540001D02*
X103420000Y-113730001D01*
X103420000Y-108540001D02*
X106070000Y-108540001D01*
X103420000Y-113730001D02*
X108720000Y-113730001D01*
X103420001Y-107270001D02*
X103420000Y-105890001D01*
X106070000Y-105890001D02*
X108720000Y-105890001D01*
X106070000Y-108540001D02*
X106070000Y-105890001D01*
X108720000Y-105890001D02*
X108720000Y-113730001D01*
%TO.C,C11*%
X123090000Y-110009419D02*
X123090000Y-110290581D01*
X124110000Y-110009419D02*
X124110000Y-110290581D01*
%TO.C,R5*%
X114527500Y-95662742D02*
X114527500Y-96137258D01*
X115572500Y-95662742D02*
X115572500Y-96137258D01*
%TO.C,D14*%
X101815000Y-87515000D02*
X101815000Y-89800000D01*
X103285000Y-87515000D02*
X101815000Y-87515000D01*
X103285000Y-89800000D02*
X103285000Y-87515000D01*
%TO.C,C5*%
X166390000Y-101986251D02*
X166390000Y-100563747D01*
X168210000Y-101986251D02*
X168210000Y-100563747D01*
%TO.C,R2*%
X125812742Y-105727500D02*
X126287258Y-105727500D01*
X125812742Y-106772500D02*
X126287258Y-106772500D01*
%TO.C,R18*%
X148112742Y-107877500D02*
X148587258Y-107877500D01*
X148112742Y-108922500D02*
X148587258Y-108922500D01*
%TO.C,D3*%
X110465000Y-94112499D02*
X110465000Y-96397499D01*
X110465000Y-96397499D02*
X111935000Y-96397499D01*
X111935000Y-96397499D02*
X111935000Y-94112499D01*
%TO.C,R15*%
X106712258Y-92677500D02*
X106237742Y-92677500D01*
X106712258Y-93722500D02*
X106237742Y-93722500D01*
%TO.C,C8*%
X138541962Y-95986789D02*
X138740773Y-95787978D01*
X139263211Y-96708038D02*
X139462022Y-96509227D01*
%TO.C,R3*%
X119327500Y-95662742D02*
X119327500Y-96137258D01*
X120372500Y-95662742D02*
X120372500Y-96137258D01*
%TO.C,R4*%
X117727500Y-95662743D02*
X117727500Y-96137259D01*
X118772500Y-95662743D02*
X118772500Y-96137259D01*
%TO.C,C17*%
X148390000Y-104438748D02*
X148390000Y-105861252D01*
X150210000Y-104438748D02*
X150210000Y-105861252D01*
%TO.C,C1*%
X176190000Y-101986251D02*
X176190000Y-100563747D01*
X178010000Y-101986251D02*
X178010000Y-100563747D01*
%TO.C,C18*%
X149037978Y-96390773D02*
X149236789Y-96191962D01*
X149759227Y-97112022D02*
X149958038Y-96913211D01*
%TO.C,C9*%
X137641962Y-106663211D02*
X137840773Y-106862022D01*
X138363211Y-105941962D02*
X138562022Y-106140773D01*
%TO.C,U1*%
X138394689Y-100150000D02*
X138589143Y-100344454D01*
X138589143Y-99955546D02*
X138394689Y-100150000D01*
X143305546Y-95239143D02*
X143500000Y-95044689D01*
X143500000Y-95044689D02*
X143694454Y-95239143D01*
X143500000Y-105255311D02*
X143305546Y-105060857D01*
X143694454Y-105060857D02*
X143500000Y-105255311D01*
X148410857Y-100344454D02*
X148605311Y-100150000D01*
X148605311Y-100150000D02*
X148410857Y-99955546D01*
X138171950Y-100761647D02*
X137599194Y-100669723D01*
X138080027Y-100188891D01*
X138171950Y-100761647D01*
G36*
X138171950Y-100761647D02*
G01*
X137599194Y-100669723D01*
X138080027Y-100188891D01*
X138171950Y-100761647D01*
G37*
%TO.C,SW1*%
X141430000Y-109830000D02*
X145570000Y-109830000D01*
X141430000Y-110129999D02*
X141430000Y-109830000D01*
X141430000Y-112970000D02*
X141430000Y-112670001D01*
X145570000Y-109830000D02*
X145570000Y-110129999D01*
X145570000Y-112670001D02*
X145570000Y-112970000D01*
X145570000Y-112970000D02*
X141430000Y-112970000D01*
%TO.C,C3*%
X147839970Y-95188781D02*
X148038781Y-94989970D01*
X148561219Y-95910030D02*
X148760030Y-95711219D01*
%TO.C,D7*%
X134965000Y-86915000D02*
X134965000Y-89200000D01*
X136435000Y-86915000D02*
X134965000Y-86915000D01*
X136435000Y-89200000D02*
X136435000Y-86915000D01*
%TO.C,J8*%
X178830000Y-94770000D02*
X185569999Y-94770000D01*
X178830000Y-103130000D02*
X178830000Y-94770000D01*
X178830000Y-103130000D02*
X185570000Y-103130000D01*
X180550000Y-103130000D02*
X180550000Y-94770000D01*
X183650000Y-103130000D02*
X183650000Y-94770000D01*
X184650001Y-103130000D02*
X184650000Y-94770000D01*
X185570000Y-101190000D02*
X185569999Y-94770000D01*
X185570000Y-103130000D02*
X185570000Y-101790000D01*
X186180000Y-101930000D02*
X185570000Y-101490000D01*
X186180000Y-101050000D01*
X186180000Y-101930000D01*
G36*
X186180000Y-101930000D02*
G01*
X185570000Y-101490000D01*
X186180000Y-101050000D01*
X186180000Y-101930000D01*
G37*
%TO.C,C15*%
X128140000Y-102161252D02*
X128140000Y-100738748D01*
X129960000Y-102161252D02*
X129960000Y-100738748D01*
%TO.C,C14*%
X128440000Y-105259419D02*
X128440000Y-105540581D01*
X129460000Y-105259419D02*
X129460000Y-105540581D01*
%TO.C,R13*%
X135177500Y-92112258D02*
X135177500Y-91637742D01*
X136222500Y-92112258D02*
X136222500Y-91637742D01*
%TO.C,J5*%
X139290882Y-93612454D02*
X139290882Y-86872455D01*
X145710882Y-86872454D02*
X139290882Y-86872455D01*
X147650882Y-86872454D02*
X146310882Y-86872454D01*
X147650882Y-87792453D02*
X139290882Y-87792454D01*
X147650882Y-88792454D02*
X139290882Y-88792454D01*
X147650882Y-91892454D02*
X139290882Y-91892454D01*
X147650882Y-93612454D02*
X139290882Y-93612454D01*
X147650882Y-93612454D02*
X147650882Y-86872454D01*
X146010882Y-86872454D02*
X145570882Y-86262454D01*
X146450882Y-86262454D01*
X146010882Y-86872454D01*
G36*
X146010882Y-86872454D02*
G01*
X145570882Y-86262454D01*
X146450882Y-86262454D01*
X146010882Y-86872454D01*
G37*
%TO.C,J6*%
X101430000Y-94770000D02*
X101430000Y-96110000D01*
X101430000Y-96710000D02*
X101430001Y-103130000D01*
X102349999Y-94770000D02*
X102350000Y-103130000D01*
X103350000Y-94770000D02*
X103350000Y-103130000D01*
X106450000Y-94770000D02*
X106450000Y-103130000D01*
X108170000Y-94770000D02*
X101430000Y-94770000D01*
X108170000Y-94770000D02*
X108170000Y-103130000D01*
X108170000Y-103130000D02*
X101430001Y-103130000D01*
X101430000Y-96410000D02*
X100820000Y-96850000D01*
X100820000Y-95970000D01*
X101430000Y-96410000D01*
G36*
X101430000Y-96410000D02*
G01*
X100820000Y-96850000D01*
X100820000Y-95970000D01*
X101430000Y-96410000D01*
G37*
%TO.C,R11*%
X162027500Y-92112258D02*
X162027500Y-91637742D01*
X163072500Y-92112258D02*
X163072500Y-91637742D01*
D10*
%TO.C,U4*%
X130560000Y-97049999D02*
X130560000Y-101200001D01*
X135710000Y-97049999D02*
X135710000Y-101200001D01*
D15*
X135940001Y-96690000D02*
X135610000Y-96450000D01*
X135940000Y-96210000D01*
X135940001Y-96690000D01*
G36*
X135940001Y-96690000D02*
G01*
X135610000Y-96450000D01*
X135940000Y-96210000D01*
X135940001Y-96690000D01*
G37*
%TO.C,J3*%
X130220000Y-104280000D02*
X130220000Y-111020000D01*
X130220000Y-104280000D02*
X136040000Y-104280000D01*
X130220000Y-106000000D02*
X136040000Y-106000000D01*
X130220000Y-109100000D02*
X136040000Y-109100000D01*
X130220000Y-110100000D02*
X136040000Y-110100000D01*
X130220000Y-111020000D02*
X131560000Y-111020000D01*
X132160000Y-111020000D02*
X136040000Y-111020000D01*
X136040000Y-104280000D02*
X136040000Y-111020000D01*
X132300000Y-111630000D02*
X131420000Y-111630000D01*
X131860000Y-111020000D01*
X132300000Y-111630000D01*
G36*
X132300000Y-111630000D02*
G01*
X131420000Y-111630000D01*
X131860000Y-111020000D01*
X132300000Y-111630000D01*
G37*
%TO.C,D11*%
X175365000Y-86865000D02*
X175365000Y-89150000D01*
X176835000Y-86865000D02*
X175365000Y-86865000D01*
X176835000Y-89150000D02*
X176835000Y-86865000D01*
%TO.C,R20*%
X101462742Y-90777500D02*
X101937258Y-90777500D01*
X101462742Y-91822500D02*
X101937258Y-91822500D01*
%TO.C,C6*%
X120540000Y-103640581D02*
X120540000Y-103359419D01*
X121560000Y-103640581D02*
X121560000Y-103359419D01*
%TO.C,D10*%
X183312499Y-93885000D02*
X185597499Y-93885000D01*
X185597499Y-92415000D02*
X183312499Y-92415000D01*
X185597499Y-93885000D02*
X185597499Y-92415000D01*
%TO.C,R17*%
X175577500Y-92137258D02*
X175577500Y-91662742D01*
X176622500Y-92137258D02*
X176622500Y-91662742D01*
%TO.C,J7*%
X166170000Y-93620000D02*
X166170000Y-86880001D01*
X172590000Y-86880000D02*
X166170000Y-86880001D01*
X174530000Y-86880000D02*
X173190000Y-86880000D01*
X174530000Y-87799999D02*
X166170000Y-87800000D01*
X174530000Y-88800000D02*
X166170000Y-88800000D01*
X174530000Y-91900000D02*
X166170000Y-91900000D01*
X174530000Y-93620000D02*
X166170000Y-93620000D01*
X174530000Y-93620000D02*
X174530000Y-86880000D01*
X172890000Y-86880000D02*
X172450000Y-86270000D01*
X173330000Y-86270000D01*
X172890000Y-86880000D01*
G36*
X172890000Y-86880000D02*
G01*
X172450000Y-86270000D01*
X173330000Y-86270000D01*
X172890000Y-86880000D01*
G37*
%TO.C,R1*%
X110277500Y-106737742D02*
X110277500Y-107212258D01*
X111322500Y-106737742D02*
X111322500Y-107212258D01*
%TO.C,F1*%
X123090000Y-107175279D02*
X123090000Y-106849719D01*
X124110000Y-107175279D02*
X124110000Y-106849719D01*
%TO.C,C4*%
X161686251Y-103890000D02*
X160263747Y-103890000D01*
X161686251Y-105710000D02*
X160263747Y-105710000D01*
%TO.C,R7*%
X101537258Y-104627500D02*
X101062742Y-104627500D01*
X101537258Y-105672500D02*
X101062742Y-105672500D01*
%TO.C,D8*%
X121565000Y-86865000D02*
X121565000Y-89150000D01*
X123035000Y-86865000D02*
X121565000Y-86865000D01*
X123035000Y-89150000D02*
X123035000Y-86865000D01*
%TO.C,R9*%
X128527500Y-96500242D02*
X128527500Y-96974758D01*
X129572500Y-96500242D02*
X129572500Y-96974758D01*
%TO.C,D6*%
X148465000Y-86877499D02*
X148465000Y-89162499D01*
X149935000Y-86877499D02*
X148465000Y-86877499D01*
X149935000Y-89162499D02*
X149935000Y-86877499D01*
%TO.C,R16*%
X180312742Y-92627500D02*
X180787258Y-92627500D01*
X180312742Y-93672500D02*
X180787258Y-93672500D01*
%TO.C,R14*%
X121777500Y-92087258D02*
X121777500Y-91612742D01*
X122822500Y-92087258D02*
X122822500Y-91612742D01*
%TO.C,D5*%
X161815000Y-86877499D02*
X161815000Y-89162499D01*
X163285000Y-86877499D02*
X161815000Y-86877499D01*
X163285000Y-89162499D02*
X163285000Y-86877499D01*
%TO.C,R6*%
X112927500Y-95662742D02*
X112927500Y-96137258D01*
X113972500Y-95662742D02*
X113972500Y-96137258D01*
%TO.C,R19*%
X175112742Y-104077500D02*
X175587258Y-104077500D01*
X175112742Y-105122500D02*
X175587258Y-105122500D01*
%TO.C,C13*%
X140488781Y-106539970D02*
X140289970Y-106738781D01*
X141210030Y-107261219D02*
X141011219Y-107460030D01*
%TO.C,R10*%
X157427500Y-96962742D02*
X157427500Y-97437258D01*
X158472500Y-96962742D02*
X158472500Y-97437258D01*
%TO.C,J1*%
X112380000Y-110150000D02*
X112380000Y-108450000D01*
X121720000Y-110150000D02*
X121720000Y-108450000D01*
D14*
%TO.C,SW3*%
X160550000Y-106550001D02*
X173250000Y-106550001D01*
X160550000Y-113149999D02*
X160550000Y-106550001D01*
X173250000Y-106550001D02*
X173250000Y-113149999D01*
X173250000Y-113149999D02*
X160550000Y-113149999D01*
D17*
X162860553Y-114150000D02*
G75*
G02*
X162139447Y-114150000I-360553J0D01*
G01*
X162139447Y-114150000D02*
G75*
G02*
X162860553Y-114150000I360553J0D01*
G01*
X162782841Y-114150000D02*
G75*
G02*
X162217159Y-114150000I-282841J0D01*
G01*
X162217159Y-114150000D02*
G75*
G02*
X162782841Y-114150000I282841J0D01*
G01*
X162723606Y-114150000D02*
G75*
G02*
X162276394Y-114150000I-223606J0D01*
G01*
X162276394Y-114150000D02*
G75*
G02*
X162723606Y-114150000I223606J0D01*
G01*
X162723606Y-114150000D02*
G75*
G02*
X162276394Y-114150000I-223606J0D01*
G01*
X162276394Y-114150000D02*
G75*
G02*
X162723606Y-114150000I223606J0D01*
G01*
X162723606Y-114150000D02*
G75*
G02*
X162276394Y-114150000I-223606J0D01*
G01*
X162276394Y-114150000D02*
G75*
G02*
X162723606Y-114150000I223606J0D01*
G01*
X162641419Y-114150000D02*
G75*
G02*
X162358581Y-114150000I-141419J0D01*
G01*
X162358581Y-114150000D02*
G75*
G02*
X162641419Y-114150000I141419J0D01*
G01*
D15*
%TO.C,J13*%
X178140000Y-104890000D02*
X183560000Y-104890000D01*
X178140000Y-113610000D02*
X178140000Y-104890000D01*
X179440000Y-115310000D02*
X178140000Y-113610000D01*
X179440000Y-115310000D02*
X182260000Y-115310000D01*
X182260000Y-115310000D02*
X183560000Y-113610000D01*
X183560000Y-113610000D02*
X183560000Y-104890000D01*
%TO.C,R12*%
X148677500Y-92137258D02*
X148677500Y-91662742D01*
X149722500Y-92137258D02*
X149722500Y-91662742D01*
%TO.C,U3*%
X109955000Y-101300000D02*
X109955000Y-99350000D01*
X109955000Y-101300000D02*
X109955000Y-103250000D01*
X120075000Y-101300000D02*
X120075000Y-99350000D01*
X120075000Y-101300000D02*
X120075000Y-103250000D01*
X120350000Y-98840000D02*
X120020000Y-98600000D01*
X120350000Y-98360000D01*
X120350000Y-98840000D01*
G36*
X120350000Y-98840000D02*
G01*
X120020000Y-98600000D01*
X120350000Y-98360000D01*
X120350000Y-98840000D01*
G37*
D18*
%TO.C,Y2*%
X141674157Y-108206604D02*
X142593396Y-109125843D01*
X144106604Y-105774157D02*
X145025843Y-106693396D01*
D14*
X141880223Y-109019777D02*
G75*
G02*
X141680223Y-109019777I-100000J0D01*
G01*
X141680223Y-109019777D02*
G75*
G02*
X141880223Y-109019777I100000J0D01*
G01*
%TD*%
M02*
