%TF.GenerationSoftware,KiCad,Pcbnew,9.0.2*%
%TF.CreationDate,2026-07-23T06:08:34-04:00*%
%TF.ProjectId,500gNewMemberBoard,35303067-4e65-4774-9d65-6d626572426f,rev?*%
%TF.SameCoordinates,Original*%
%TF.FileFunction,Paste,Top*%
%TF.FilePolarity,Positive*%
%FSLAX46Y46*%
G04 Gerber Fmt 4.6, Leading zero omitted, Abs format (unit mm)*
G04 Created by KiCad (PCBNEW 9.0.2) date 2026-07-23 06:08:34*
%MOMM*%
%LPD*%
G01*
G04 APERTURE LIST*
G04 Aperture macros list*
%AMRoundRect*
0 Rectangle with rounded corners*
0 $1 Rounding radius*
0 $2 $3 $4 $5 $6 $7 $8 $9 X,Y pos of 4 corners*
0 Add a 4 corners polygon primitive as box body*
4,1,4,$2,$3,$4,$5,$6,$7,$8,$9,$2,$3,0*
0 Add four circle primitives for the rounded corners*
1,1,$1+$1,$2,$3*
1,1,$1+$1,$4,$5*
1,1,$1+$1,$6,$7*
1,1,$1+$1,$8,$9*
0 Add four rect primitives between the rounded corners*
20,1,$1+$1,$2,$3,$4,$5,0*
20,1,$1+$1,$4,$5,$6,$7,0*
20,1,$1+$1,$6,$7,$8,$9,0*
20,1,$1+$1,$8,$9,$2,$3,0*%
%AMRotRect*
0 Rectangle, with rotation*
0 The origin of the aperture is its center*
0 $1 length*
0 $2 width*
0 $3 Rotation angle, in degrees counterclockwise*
0 Add horizontal line*
21,1,$1,$2,0,0,$3*%
G04 Aperture macros list end*
%ADD10RoundRect,0.127000X1.208000X1.143000X-1.208000X1.143000X-1.208000X-1.143000X1.208000X-1.143000X0*%
%ADD11RoundRect,0.076200X0.304800X0.558800X-0.304800X0.558800X-0.304800X-0.558800X0.304800X-0.558800X0*%
%ADD12RoundRect,0.200000X-0.275000X0.200000X-0.275000X-0.200000X0.275000X-0.200000X0.275000X0.200000X0*%
%ADD13RoundRect,0.250000X-0.457500X-0.445000X0.457500X-0.445000X0.457500X0.445000X-0.457500X0.445000X0*%
%ADD14RoundRect,0.225000X0.250000X-0.225000X0.250000X0.225000X-0.250000X0.225000X-0.250000X-0.225000X0*%
%ADD15RoundRect,0.218750X0.256250X-0.218750X0.256250X0.218750X-0.256250X0.218750X-0.256250X-0.218750X0*%
%ADD16RoundRect,0.218750X-0.218750X-0.256250X0.218750X-0.256250X0.218750X0.256250X-0.218750X0.256250X0*%
%ADD17RoundRect,0.218750X0.026517X-0.335876X0.335876X-0.026517X-0.026517X0.335876X-0.335876X0.026517X0*%
%ADD18R,3.100000X2.400000*%
%ADD19R,0.500000X2.200000*%
%ADD20RoundRect,0.375000X0.375000X-0.625000X0.375000X0.625000X-0.375000X0.625000X-0.375000X-0.625000X0*%
%ADD21RoundRect,0.500000X1.400000X-0.500000X1.400000X0.500000X-1.400000X0.500000X-1.400000X-0.500000X0*%
%ADD22RoundRect,0.250000X0.325000X0.650000X-0.325000X0.650000X-0.325000X-0.650000X0.325000X-0.650000X0*%
%ADD23RoundRect,0.250000X0.638164X-0.008839X-0.008839X0.638164X-0.638164X0.008839X0.008839X-0.638164X0*%
%ADD24RoundRect,0.225000X-0.250000X0.225000X-0.250000X-0.225000X0.250000X-0.225000X0.250000X0.225000X0*%
%ADD25RoundRect,0.218750X-0.256250X0.218750X-0.256250X-0.218750X0.256250X-0.218750X0.256250X0.218750X0*%
%ADD26RoundRect,0.250000X0.650000X-0.325000X0.650000X0.325000X-0.650000X0.325000X-0.650000X-0.325000X0*%
%ADD27RoundRect,0.200000X-0.200000X-0.275000X0.200000X-0.275000X0.200000X0.275000X-0.200000X0.275000X0*%
%ADD28RoundRect,0.200000X0.200000X0.275000X-0.200000X0.275000X-0.200000X-0.275000X0.200000X-0.275000X0*%
%ADD29RoundRect,0.225000X0.017678X-0.335876X0.335876X-0.017678X-0.017678X0.335876X-0.335876X0.017678X0*%
%ADD30RoundRect,0.250000X-0.650000X0.325000X-0.650000X-0.325000X0.650000X-0.325000X0.650000X0.325000X0*%
%ADD31RoundRect,0.225000X-0.335876X-0.017678X-0.017678X-0.335876X0.335876X0.017678X0.017678X0.335876X0*%
%ADD32RoundRect,0.137500X-0.327037X-0.521491X0.521491X0.327037X0.327037X0.521491X-0.521491X-0.327037X0*%
%ADD33RoundRect,0.137500X0.327037X-0.521491X0.521491X-0.327037X-0.327037X0.521491X-0.521491X0.327037X0*%
%ADD34RoundRect,0.200000X0.200000X0.800000X-0.200000X0.800000X-0.200000X-0.800000X0.200000X-0.800000X0*%
%ADD35RoundRect,0.200000X0.275000X-0.200000X0.275000X0.200000X-0.275000X0.200000X-0.275000X-0.200000X0*%
%ADD36RoundRect,0.218750X0.218750X0.256250X-0.218750X0.256250X-0.218750X-0.256250X0.218750X-0.256250X0*%
%ADD37RoundRect,0.225000X-0.017678X0.335876X-0.335876X0.017678X0.017678X-0.335876X0.335876X-0.017678X0*%
%ADD38RoundRect,0.150000X-0.150000X-0.425000X0.150000X-0.425000X0.150000X0.425000X-0.150000X0.425000X0*%
%ADD39RoundRect,0.075000X-0.075000X-0.500000X0.075000X-0.500000X0.075000X0.500000X-0.075000X0.500000X0*%
%ADD40O,1.000000X2.100000*%
%ADD41O,1.000000X1.800000*%
%ADD42RoundRect,0.150000X-0.150000X0.825000X-0.150000X-0.825000X0.150000X-0.825000X0.150000X0.825000X0*%
%ADD43RotRect,0.400000X1.900000X45.000000*%
G04 APERTURE END LIST*
D10*
%TO.C,D1*%
X127548500Y-111100000D03*
D11*
X125197500Y-111100000D03*
%TD*%
D12*
%TO.C,R8*%
X139550000Y-110525000D03*
X139550000Y-112175000D03*
%TD*%
D13*
%TO.C,C12*%
X125547500Y-108300000D03*
X128252500Y-108300000D03*
%TD*%
D14*
%TO.C,C7*%
X116650000Y-96675000D03*
X116650000Y-95125000D03*
%TD*%
D15*
%TO.C,D2*%
X109500000Y-95700000D03*
X109500000Y-94124998D03*
%TD*%
D16*
%TO.C,D9*%
X102112500Y-93200000D03*
X103687500Y-93200000D03*
%TD*%
D17*
%TO.C,D4*%
X98643153Y-108206847D03*
X99756847Y-107093153D03*
%TD*%
D18*
%TO.C,U5*%
X153885000Y-99125000D03*
D19*
X155789999Y-96250000D03*
X154520000Y-96250000D03*
X153250000Y-96250000D03*
X151980001Y-96250000D03*
X151980001Y-102000000D03*
X153250000Y-102000000D03*
X154520000Y-102000000D03*
X155789999Y-102000000D03*
%TD*%
D16*
%TO.C,D13*%
X174562499Y-106950000D03*
X176137501Y-106950000D03*
%TD*%
D15*
%TO.C,D12*%
X149100000Y-111537501D03*
X149100000Y-109962499D03*
%TD*%
D20*
%TO.C,U2*%
X160150000Y-102300000D03*
X162450000Y-102299999D03*
D21*
X162450000Y-96000001D03*
D20*
X164750000Y-102300000D03*
%TD*%
D22*
%TO.C,C2*%
X172250000Y-104800000D03*
X169299998Y-104800000D03*
%TD*%
D23*
%TO.C,C10*%
X139806362Y-105406362D03*
X137893638Y-103493638D03*
%TD*%
D14*
%TO.C,C16*%
X150300000Y-101725000D03*
X150300000Y-100175000D03*
%TD*%
D20*
%TO.C,U6*%
X169950000Y-102300000D03*
X172250000Y-102299999D03*
D21*
X172250000Y-96000001D03*
D20*
X174550000Y-102300000D03*
%TD*%
D24*
%TO.C,C11*%
X123600000Y-109375000D03*
X123600000Y-110925000D03*
%TD*%
D12*
%TO.C,R5*%
X115050000Y-95075000D03*
X115050000Y-96725000D03*
%TD*%
D25*
%TO.C,D14*%
X102550000Y-88212499D03*
X102550000Y-89787501D03*
%TD*%
D26*
%TO.C,C5*%
X167300000Y-102750000D03*
X167300000Y-99799998D03*
%TD*%
D27*
%TO.C,R2*%
X125225000Y-106250000D03*
X126875000Y-106250000D03*
%TD*%
%TO.C,R18*%
X147525000Y-108400000D03*
X149175000Y-108400000D03*
%TD*%
D15*
%TO.C,D3*%
X111200000Y-95700000D03*
X111200000Y-94124998D03*
%TD*%
D28*
%TO.C,R15*%
X107300000Y-93200000D03*
X105650000Y-93200000D03*
%TD*%
D29*
%TO.C,C8*%
X138453984Y-96796016D03*
X139550000Y-95700000D03*
%TD*%
D12*
%TO.C,R3*%
X119850000Y-95075000D03*
X119850000Y-96725000D03*
%TD*%
%TO.C,R4*%
X118250000Y-95075001D03*
X118250000Y-96725001D03*
%TD*%
D30*
%TO.C,C17*%
X149300000Y-103674999D03*
X149300000Y-106625001D03*
%TD*%
D26*
%TO.C,C1*%
X177100000Y-102750000D03*
X177100000Y-99799998D03*
%TD*%
D29*
%TO.C,C18*%
X148950000Y-97200000D03*
X150046016Y-96103984D03*
%TD*%
D31*
%TO.C,C9*%
X137553984Y-105853984D03*
X138650000Y-106950000D03*
%TD*%
D32*
%TO.C,U1*%
X138576769Y-101113433D03*
X139142454Y-101679118D03*
X139708140Y-102244804D03*
X140273825Y-102810489D03*
X140839511Y-103376175D03*
X141405196Y-103941860D03*
X141970882Y-104507546D03*
X142536567Y-105073231D03*
D33*
X144463433Y-105073231D03*
X145029118Y-104507546D03*
X145594804Y-103941860D03*
X146160489Y-103376175D03*
X146726175Y-102810489D03*
X147291860Y-102244804D03*
X147857546Y-101679118D03*
X148423231Y-101113433D03*
D32*
X148423231Y-99186567D03*
X147857546Y-98620882D03*
X147291860Y-98055196D03*
X146726175Y-97489511D03*
X146160489Y-96923825D03*
X145594804Y-96358140D03*
X145029118Y-95792454D03*
X144463433Y-95226769D03*
D33*
X142536567Y-95226769D03*
X141970882Y-95792454D03*
X141405196Y-96358140D03*
X140839511Y-96923825D03*
X140273825Y-97489511D03*
X139708140Y-98055196D03*
X139142454Y-98620882D03*
X138576769Y-99186567D03*
%TD*%
D34*
%TO.C,SW1*%
X145600000Y-111400000D03*
X141400000Y-111400000D03*
%TD*%
D29*
%TO.C,C3*%
X147751992Y-95998008D03*
X148848008Y-94901992D03*
%TD*%
D25*
%TO.C,D7*%
X135700000Y-87612499D03*
X135700000Y-89187501D03*
%TD*%
D26*
%TO.C,C15*%
X129050000Y-102925001D03*
X129050000Y-99974999D03*
%TD*%
D24*
%TO.C,C14*%
X128950000Y-104625000D03*
X128950000Y-106175000D03*
%TD*%
D35*
%TO.C,R13*%
X135700000Y-92700000D03*
X135700000Y-91050000D03*
%TD*%
%TO.C,R11*%
X162550000Y-92700000D03*
X162550000Y-91050000D03*
%TD*%
D18*
%TO.C,U4*%
X133135000Y-99125000D03*
D19*
X135039999Y-96250000D03*
X133770000Y-96250000D03*
X132500000Y-96250000D03*
X131230001Y-96250000D03*
X131230001Y-102000000D03*
X132500000Y-102000000D03*
X133770000Y-102000000D03*
X135039999Y-102000000D03*
%TD*%
D25*
%TO.C,D11*%
X176100000Y-87562499D03*
X176100000Y-89137501D03*
%TD*%
D27*
%TO.C,R20*%
X100875000Y-91300000D03*
X102525000Y-91300000D03*
%TD*%
D14*
%TO.C,C6*%
X121050000Y-104275000D03*
X121050000Y-102725000D03*
%TD*%
D36*
%TO.C,D10*%
X184900000Y-93150000D03*
X183324998Y-93150000D03*
%TD*%
D35*
%TO.C,R17*%
X176100000Y-92725000D03*
X176100000Y-91075000D03*
%TD*%
D12*
%TO.C,R1*%
X110800000Y-106150000D03*
X110800000Y-107800000D03*
%TD*%
D15*
%TO.C,F1*%
X123600000Y-107800000D03*
X123600000Y-106224998D03*
%TD*%
D22*
%TO.C,C4*%
X162450000Y-104800000D03*
X159499998Y-104800000D03*
%TD*%
D28*
%TO.C,R7*%
X102125000Y-105150000D03*
X100475000Y-105150000D03*
%TD*%
D25*
%TO.C,D8*%
X122300000Y-87562499D03*
X122300000Y-89137501D03*
%TD*%
D12*
%TO.C,R9*%
X129050000Y-95912500D03*
X129050000Y-97562500D03*
%TD*%
D25*
%TO.C,D6*%
X149200000Y-87574998D03*
X149200000Y-89150000D03*
%TD*%
D27*
%TO.C,R16*%
X179725000Y-93150000D03*
X181375000Y-93150000D03*
%TD*%
D35*
%TO.C,R14*%
X122300000Y-92675000D03*
X122300000Y-91025000D03*
%TD*%
D25*
%TO.C,D5*%
X162550000Y-87574998D03*
X162550000Y-89150000D03*
%TD*%
D12*
%TO.C,R6*%
X113450000Y-95075000D03*
X113450000Y-96725000D03*
%TD*%
D27*
%TO.C,R19*%
X174525000Y-104600000D03*
X176175000Y-104600000D03*
%TD*%
D37*
%TO.C,C13*%
X141298008Y-106451992D03*
X140201992Y-107548008D03*
%TD*%
D12*
%TO.C,R10*%
X157950000Y-96375000D03*
X157950000Y-98025000D03*
%TD*%
D38*
%TO.C,J1*%
X113850000Y-106570000D03*
X114650000Y-106570000D03*
D39*
X115800000Y-106570001D03*
X116800000Y-106570000D03*
X117300000Y-106570000D03*
X118300000Y-106570001D03*
D38*
X119450000Y-106570000D03*
X120250000Y-106570000D03*
X120250000Y-106570000D03*
X119450000Y-106570000D03*
D39*
X118800000Y-106570000D03*
X117800000Y-106570000D03*
X116300000Y-106570000D03*
X115300000Y-106570000D03*
D38*
X114650000Y-106570000D03*
X113850000Y-106570000D03*
D40*
X112730000Y-107145000D03*
D41*
X112730000Y-111325000D03*
D40*
X121370000Y-107145000D03*
D41*
X121370000Y-111325000D03*
%TD*%
D35*
%TO.C,R12*%
X149200000Y-92725000D03*
X149200000Y-91075000D03*
%TD*%
D42*
%TO.C,U3*%
X119460000Y-98825000D03*
X118190000Y-98825000D03*
X116920000Y-98825000D03*
X115650000Y-98825000D03*
X114380000Y-98825000D03*
X113110000Y-98825000D03*
X111840000Y-98825000D03*
X110570000Y-98825000D03*
X110570000Y-103775000D03*
X111840000Y-103775000D03*
X113110000Y-103775000D03*
X114380000Y-103775000D03*
X115650000Y-103775000D03*
X116920000Y-103775000D03*
X118190000Y-103775000D03*
X119460000Y-103775000D03*
%TD*%
D43*
%TO.C,Y2*%
X142501472Y-108298528D03*
X143350000Y-107450000D03*
X144198528Y-106601472D03*
%TD*%
M02*
