%TF.GenerationSoftware,KiCad,Pcbnew,9.0.2*%
%TF.CreationDate,2026-07-23T06:08:35-04:00*%
%TF.ProjectId,500gNewMemberBoard,35303067-4e65-4774-9d65-6d626572426f,rev?*%
%TF.SameCoordinates,Original*%
%TF.FileFunction,Soldermask,Bot*%
%TF.FilePolarity,Negative*%
%FSLAX46Y46*%
G04 Gerber Fmt 4.6, Leading zero omitted, Abs format (unit mm)*
G04 Created by KiCad (PCBNEW 9.0.2) date 2026-07-23 06:08:35*
%MOMM*%
%LPD*%
G01*
G04 APERTURE LIST*
G04 Aperture macros list*
%AMRoundRect*
0 Rectangle with rounded corners*
0 $1 Rounding radius*
0 $2 $3 $4 $5 $6 $7 $8 $9 X,Y pos of 4 corners*
0 Add a 4 corners polygon primitive as box body*
4,1,4,$2,$3,$4,$5,$6,$7,$8,$9,$2,$3,0*
0 Add four circle primitives for the rounded corners*
1,1,$1+$1,$2,$3*
1,1,$1+$1,$4,$5*
1,1,$1+$1,$6,$7*
1,1,$1+$1,$8,$9*
0 Add four rect primitives between the rounded corners*
20,1,$1+$1,$2,$3,$4,$5,0*
20,1,$1+$1,$4,$5,$6,$7,0*
20,1,$1+$1,$6,$7,$8,$9,0*
20,1,$1+$1,$8,$9,$2,$3,0*%
G04 Aperture macros list end*
%ADD10R,1.700000X1.700000*%
%ADD11C,1.700000*%
%ADD12RoundRect,0.250000X0.750000X0.750000X-0.750000X0.750000X-0.750000X-0.750000X0.750000X-0.750000X0*%
%ADD13C,2.000000*%
%ADD14C,3.200000*%
%ADD15RoundRect,0.250000X-0.750000X-0.750000X0.750000X-0.750000X0.750000X0.750000X-0.750000X0.750000X0*%
%ADD16RoundRect,0.250000X0.750000X-0.750000X0.750000X0.750000X-0.750000X0.750000X-0.750000X-0.750000X0*%
%ADD17RoundRect,0.250000X-0.750000X0.750000X-0.750000X-0.750000X0.750000X-0.750000X0.750000X0.750000X0*%
%ADD18C,0.650000*%
%ADD19O,1.000000X2.100000*%
%ADD20O,1.000000X1.800000*%
%ADD21RoundRect,0.102000X1.225000X-1.225000X1.225000X1.225000X-1.225000X1.225000X-1.225000X-1.225000X0*%
%ADD22C,2.654000*%
%ADD23RoundRect,0.760000X1.140000X-1.140000X1.140000X1.140000X-1.140000X1.140000X-1.140000X-1.140000X0*%
%ADD24C,3.800000*%
G04 APERTURE END LIST*
D10*
%TO.C,TP1*%
X187500000Y-107270001D03*
%TD*%
%TO.C,J12*%
X123650000Y-103450000D03*
D11*
X123650000Y-100910000D03*
X123650000Y-98370000D03*
%TD*%
D12*
%TO.C,J10*%
X119200000Y-90400000D03*
D13*
X116660000Y-90400000D03*
X114120001Y-90400000D03*
%TD*%
D12*
%TO.C,J9*%
X132560882Y-90442454D03*
D13*
X130020882Y-90442454D03*
X127480883Y-90442454D03*
%TD*%
%TO.C,SW2*%
X104800000Y-90950000D03*
X104800000Y-84450000D03*
X109300001Y-90950000D03*
X109300000Y-84449999D03*
%TD*%
D12*
%TO.C,J11*%
X159440000Y-90400000D03*
D13*
X156900000Y-90400000D03*
X154360001Y-90400000D03*
%TD*%
D14*
%TO.C,H1*%
X187500000Y-112950000D03*
%TD*%
D15*
%TO.C,J4*%
X152610000Y-107500000D03*
D13*
X155150000Y-107500000D03*
%TD*%
D10*
%TO.C,J2*%
X104800000Y-107270001D03*
D11*
X107340000Y-107270001D03*
X104800000Y-109810001D03*
X107340000Y-109810001D03*
X104800000Y-112350000D03*
X107340000Y-112350001D03*
%TD*%
D14*
%TO.C,H4*%
X99500000Y-112950000D03*
%TD*%
D16*
%TO.C,J8*%
X182050000Y-101490000D03*
D13*
X182050000Y-98950000D03*
X182050000Y-96410001D03*
%TD*%
D12*
%TO.C,J5*%
X146010882Y-90392454D03*
D13*
X143470882Y-90392454D03*
X140930883Y-90392454D03*
%TD*%
D17*
%TO.C,J6*%
X104950000Y-96410000D03*
D13*
X104950000Y-98950000D03*
X104950000Y-101489999D03*
%TD*%
D15*
%TO.C,J3*%
X131860000Y-107500000D03*
D13*
X134400000Y-107500000D03*
%TD*%
D14*
%TO.C,H2*%
X187500000Y-84950000D03*
%TD*%
D12*
%TO.C,J7*%
X172890000Y-90400000D03*
D13*
X170350000Y-90400000D03*
X167810001Y-90400000D03*
%TD*%
D18*
%TO.C,J1*%
X114160000Y-107645000D03*
X119940000Y-107645000D03*
D19*
X112730000Y-107145000D03*
D20*
X112730000Y-111325000D03*
D19*
X121370000Y-107145000D03*
D20*
X121370000Y-111325000D03*
%TD*%
D21*
%TO.C,SW3*%
X162200000Y-109850000D03*
D22*
X166900000Y-109850000D03*
X171600000Y-109850000D03*
%TD*%
D23*
%TO.C,J13*%
X180850000Y-112600000D03*
D24*
X180850000Y-107600000D03*
%TD*%
D14*
%TO.C,H3*%
X99500000Y-84950000D03*
%TD*%
M02*
