%TF.GenerationSoftware,KiCad,Pcbnew,8.0.7*%
%TF.CreationDate,2025-02-13T21:02:31-05:00*%
%TF.ProjectId,celebiNewMD,63656c65-6269-44e6-9577-4d442e6b6963,rev?*%
%TF.SameCoordinates,Original*%
%TF.FileFunction,Soldermask,Top*%
%TF.FilePolarity,Negative*%
%FSLAX46Y46*%
G04 Gerber Fmt 4.6, Leading zero omitted, Abs format (unit mm)*
G04 Created by KiCad (PCBNEW 8.0.7) date 2025-02-13 21:02:31*
%MOMM*%
%LPD*%
G01*
G04 APERTURE LIST*
G04 Aperture macros list*
%AMRoundRect*
0 Rectangle with rounded corners*
0 $1 Rounding radius*
0 $2 $3 $4 $5 $6 $7 $8 $9 X,Y pos of 4 corners*
0 Add a 4 corners polygon primitive as box body*
4,1,4,$2,$3,$4,$5,$6,$7,$8,$9,$2,$3,0*
0 Add four circle primitives for the rounded corners*
1,1,$1+$1,$2,$3*
1,1,$1+$1,$4,$5*
1,1,$1+$1,$6,$7*
1,1,$1+$1,$8,$9*
0 Add four rect primitives between the rounded corners*
20,1,$1+$1,$2,$3,$4,$5,0*
20,1,$1+$1,$4,$5,$6,$7,0*
20,1,$1+$1,$6,$7,$8,$9,0*
20,1,$1+$1,$8,$9,$2,$3,0*%
G04 Aperture macros list end*
%ADD10C,2.700000*%
%ADD11RoundRect,0.250000X0.650000X1.550000X-0.650000X1.550000X-0.650000X-1.550000X0.650000X-1.550000X0*%
%ADD12O,1.800000X3.600000*%
%ADD13C,1.512000*%
%ADD14C,1.462000*%
%ADD15C,1.412000*%
%ADD16RoundRect,0.250000X-0.650000X-1.550000X0.650000X-1.550000X0.650000X1.550000X-0.650000X1.550000X0*%
%ADD17R,2.794000X2.794000*%
%ADD18C,2.794000*%
%ADD19RoundRect,0.250000X-0.337500X-0.475000X0.337500X-0.475000X0.337500X0.475000X-0.337500X0.475000X0*%
%ADD20RoundRect,0.250000X1.550000X-0.650000X1.550000X0.650000X-1.550000X0.650000X-1.550000X-0.650000X0*%
%ADD21O,3.600000X1.800000*%
%ADD22R,0.711200X0.228600*%
%ADD23RoundRect,0.250001X-0.462499X-0.624999X0.462499X-0.624999X0.462499X0.624999X-0.462499X0.624999X0*%
%ADD24RoundRect,0.760000X-1.140000X-1.140000X1.140000X-1.140000X1.140000X1.140000X-1.140000X1.140000X0*%
%ADD25C,3.800000*%
%ADD26RoundRect,0.250000X0.337500X0.475000X-0.337500X0.475000X-0.337500X-0.475000X0.337500X-0.475000X0*%
%ADD27R,1.700000X1.700000*%
%ADD28O,1.700000X1.700000*%
G04 APERTURE END LIST*
D10*
%TO.C,REF\u002A\u002A*%
X147000000Y-92500000D03*
%TD*%
%TO.C,REF\u002A\u002A*%
X54000000Y-90000000D03*
%TD*%
%TO.C,REF\u002A\u002A*%
X54000000Y-62500000D03*
%TD*%
%TO.C,REF\u002A\u002A*%
X145500000Y-64500000D03*
%TD*%
D11*
%TO.C,J9*%
X81445000Y-58932500D03*
D12*
X77945000Y-58932500D03*
X74445000Y-58932500D03*
%TD*%
D13*
%TO.C,U1*%
X54680000Y-84740000D03*
X57220000Y-84740000D03*
X59760000Y-84740000D03*
X62300000Y-84740000D03*
X87700000Y-84740000D03*
X57220000Y-69500000D03*
X97860000Y-79660000D03*
X64840000Y-84740000D03*
X67380000Y-84740000D03*
D14*
X58490000Y-81690000D03*
D13*
X69920000Y-84740000D03*
X72460000Y-84740000D03*
X75000000Y-84740000D03*
X77540000Y-84740000D03*
X80080000Y-84740000D03*
X82620000Y-84740000D03*
X85160000Y-84740000D03*
X85160000Y-69500000D03*
X82620000Y-69500000D03*
X80080000Y-69500000D03*
X77540000Y-69500000D03*
X75000000Y-69500000D03*
X72460000Y-69500000D03*
X69920000Y-69500000D03*
X67380000Y-69500000D03*
X64840000Y-69500000D03*
X62300000Y-69500000D03*
X59760000Y-69500000D03*
X90240000Y-84740000D03*
X92780000Y-84740000D03*
X95320000Y-84740000D03*
X97860000Y-84740000D03*
X100400000Y-84740000D03*
X102940000Y-84740000D03*
X105480000Y-84740000D03*
X108020000Y-84740000D03*
X110560000Y-84740000D03*
X110560000Y-69500000D03*
X108020000Y-69500000D03*
X105480000Y-69500000D03*
X102940000Y-69500000D03*
X100400000Y-69500000D03*
X97860000Y-69500000D03*
X95320000Y-69500000D03*
X92780000Y-69500000D03*
X90240000Y-69500000D03*
D14*
X63570000Y-81690000D03*
X61030000Y-81690000D03*
D13*
X52140000Y-84740000D03*
X87700000Y-69500000D03*
X54680000Y-69500000D03*
X97860000Y-77120000D03*
D15*
X67110000Y-73950000D03*
X65110000Y-73950000D03*
D13*
X97860000Y-72040000D03*
X97860000Y-74580000D03*
D15*
X65110000Y-71950000D03*
X67110000Y-71950000D03*
X67110000Y-75950000D03*
X65110000Y-75950000D03*
D14*
X66110000Y-81690000D03*
X68650000Y-81690000D03*
D13*
X97860000Y-82200000D03*
X52140000Y-69500000D03*
X54680000Y-72040000D03*
%TD*%
D16*
%TO.C,J3*%
X120000000Y-95067500D03*
D12*
X123500000Y-95067500D03*
X127000000Y-95067500D03*
%TD*%
D17*
%TO.C,SW1*%
X133500000Y-72500000D03*
D18*
X133500000Y-77199000D03*
X133500000Y-81898000D03*
%TD*%
D19*
%TO.C,C4*%
X124075000Y-84500000D03*
X126150000Y-84500000D03*
%TD*%
D20*
%TO.C,J13*%
X141067500Y-74695000D03*
D21*
X141067500Y-71195000D03*
%TD*%
D11*
%TO.C,J10*%
X67000000Y-59000000D03*
D12*
X63500000Y-59000000D03*
X60000000Y-59000000D03*
%TD*%
D16*
%TO.C,J5*%
X105000000Y-95067500D03*
D12*
X108500000Y-95067500D03*
X112000000Y-95067500D03*
%TD*%
D19*
%TO.C,C5*%
X124000000Y-78000000D03*
X126075000Y-78000000D03*
%TD*%
D11*
%TO.C,J6*%
X110445000Y-58932500D03*
D12*
X106945000Y-58932500D03*
X103445000Y-58932500D03*
%TD*%
D19*
%TO.C,C3*%
X117000000Y-84500000D03*
X119075000Y-84500000D03*
%TD*%
D22*
%TO.C,U3*%
X118199900Y-68000000D03*
X118199900Y-68500126D03*
X118199900Y-69000252D03*
X119800100Y-69000252D03*
X119800100Y-68500126D03*
X119800100Y-68000000D03*
%TD*%
%TO.C,U2*%
X118199900Y-74500252D03*
X118199900Y-75000378D03*
X118199900Y-75500504D03*
X119800100Y-75500504D03*
X119800100Y-75000378D03*
X119800100Y-74500252D03*
%TD*%
D16*
%TO.C,J4*%
X74945000Y-95000000D03*
D12*
X78445000Y-95000000D03*
X81945000Y-95000000D03*
%TD*%
D20*
%TO.C,J14*%
X141067500Y-86000000D03*
D21*
X141067500Y-82500000D03*
%TD*%
D16*
%TO.C,J1*%
X58945000Y-95000000D03*
D12*
X62445000Y-95000000D03*
X65945000Y-95000000D03*
%TD*%
D16*
%TO.C,J11*%
X134000000Y-95067500D03*
D12*
X137500000Y-95067500D03*
X141000000Y-95067500D03*
%TD*%
D23*
%TO.C,F1*%
X135512500Y-64000000D03*
X138487500Y-64000000D03*
%TD*%
D24*
%TO.C,J8*%
X140000000Y-55000000D03*
D25*
X145000000Y-55000000D03*
%TD*%
D19*
%TO.C,C6*%
X117925000Y-55500378D03*
X120000000Y-55500378D03*
%TD*%
D16*
%TO.C,J2*%
X90000000Y-95067500D03*
D12*
X93500000Y-95067500D03*
X97000000Y-95067500D03*
%TD*%
D11*
%TO.C,J7*%
X95945000Y-58932500D03*
D12*
X92445000Y-58932500D03*
X88945000Y-58932500D03*
%TD*%
D19*
%TO.C,C1*%
X124500000Y-55000000D03*
X126575000Y-55000000D03*
%TD*%
D26*
%TO.C,C2*%
X120000000Y-61000378D03*
X117925000Y-61000378D03*
%TD*%
D27*
%TO.C,J12*%
X125500000Y-59475000D03*
D28*
X125500000Y-62015000D03*
X125500000Y-64555000D03*
%TD*%
M02*
