%TF.GenerationSoftware,KiCad,Pcbnew,8.0.7*%
%TF.CreationDate,2025-02-13T21:02:31-05:00*%
%TF.ProjectId,celebiNewMD,63656c65-6269-44e6-9577-4d442e6b6963,rev?*%
%TF.SameCoordinates,Original*%
%TF.FileFunction,Legend,Top*%
%TF.FilePolarity,Positive*%
%FSLAX46Y46*%
G04 Gerber Fmt 4.6, Leading zero omitted, Abs format (unit mm)*
G04 Created by KiCad (PCBNEW 8.0.7) date 2025-02-13 21:02:31*
%MOMM*%
%LPD*%
G01*
G04 APERTURE LIST*
%ADD10C,0.150000*%
%ADD11C,0.120000*%
%ADD12C,0.127000*%
%ADD13C,0.200000*%
%ADD14C,0.152400*%
G04 APERTURE END LIST*
D10*
X145666666Y-89254819D02*
X145333333Y-88778628D01*
X145095238Y-89254819D02*
X145095238Y-88254819D01*
X145095238Y-88254819D02*
X145476190Y-88254819D01*
X145476190Y-88254819D02*
X145571428Y-88302438D01*
X145571428Y-88302438D02*
X145619047Y-88350057D01*
X145619047Y-88350057D02*
X145666666Y-88445295D01*
X145666666Y-88445295D02*
X145666666Y-88588152D01*
X145666666Y-88588152D02*
X145619047Y-88683390D01*
X145619047Y-88683390D02*
X145571428Y-88731009D01*
X145571428Y-88731009D02*
X145476190Y-88778628D01*
X145476190Y-88778628D02*
X145095238Y-88778628D01*
X146095238Y-88731009D02*
X146428571Y-88731009D01*
X146571428Y-89254819D02*
X146095238Y-89254819D01*
X146095238Y-89254819D02*
X146095238Y-88254819D01*
X146095238Y-88254819D02*
X146571428Y-88254819D01*
X147333333Y-88731009D02*
X147000000Y-88731009D01*
X147000000Y-89254819D02*
X147000000Y-88254819D01*
X147000000Y-88254819D02*
X147476190Y-88254819D01*
X148000000Y-88254819D02*
X148000000Y-88492914D01*
X147761905Y-88397676D02*
X148000000Y-88492914D01*
X148000000Y-88492914D02*
X148238095Y-88397676D01*
X147857143Y-88683390D02*
X148000000Y-88492914D01*
X148000000Y-88492914D02*
X148142857Y-88683390D01*
X148761905Y-88254819D02*
X148761905Y-88492914D01*
X148523810Y-88397676D02*
X148761905Y-88492914D01*
X148761905Y-88492914D02*
X149000000Y-88397676D01*
X148619048Y-88683390D02*
X148761905Y-88492914D01*
X148761905Y-88492914D02*
X148904762Y-88683390D01*
X52666666Y-86754819D02*
X52333333Y-86278628D01*
X52095238Y-86754819D02*
X52095238Y-85754819D01*
X52095238Y-85754819D02*
X52476190Y-85754819D01*
X52476190Y-85754819D02*
X52571428Y-85802438D01*
X52571428Y-85802438D02*
X52619047Y-85850057D01*
X52619047Y-85850057D02*
X52666666Y-85945295D01*
X52666666Y-85945295D02*
X52666666Y-86088152D01*
X52666666Y-86088152D02*
X52619047Y-86183390D01*
X52619047Y-86183390D02*
X52571428Y-86231009D01*
X52571428Y-86231009D02*
X52476190Y-86278628D01*
X52476190Y-86278628D02*
X52095238Y-86278628D01*
X53095238Y-86231009D02*
X53428571Y-86231009D01*
X53571428Y-86754819D02*
X53095238Y-86754819D01*
X53095238Y-86754819D02*
X53095238Y-85754819D01*
X53095238Y-85754819D02*
X53571428Y-85754819D01*
X54333333Y-86231009D02*
X54000000Y-86231009D01*
X54000000Y-86754819D02*
X54000000Y-85754819D01*
X54000000Y-85754819D02*
X54476190Y-85754819D01*
X55000000Y-85754819D02*
X55000000Y-85992914D01*
X54761905Y-85897676D02*
X55000000Y-85992914D01*
X55000000Y-85992914D02*
X55238095Y-85897676D01*
X54857143Y-86183390D02*
X55000000Y-85992914D01*
X55000000Y-85992914D02*
X55142857Y-86183390D01*
X55761905Y-85754819D02*
X55761905Y-85992914D01*
X55523810Y-85897676D02*
X55761905Y-85992914D01*
X55761905Y-85992914D02*
X56000000Y-85897676D01*
X55619048Y-86183390D02*
X55761905Y-85992914D01*
X55761905Y-85992914D02*
X55904762Y-86183390D01*
X52666666Y-59254819D02*
X52333333Y-58778628D01*
X52095238Y-59254819D02*
X52095238Y-58254819D01*
X52095238Y-58254819D02*
X52476190Y-58254819D01*
X52476190Y-58254819D02*
X52571428Y-58302438D01*
X52571428Y-58302438D02*
X52619047Y-58350057D01*
X52619047Y-58350057D02*
X52666666Y-58445295D01*
X52666666Y-58445295D02*
X52666666Y-58588152D01*
X52666666Y-58588152D02*
X52619047Y-58683390D01*
X52619047Y-58683390D02*
X52571428Y-58731009D01*
X52571428Y-58731009D02*
X52476190Y-58778628D01*
X52476190Y-58778628D02*
X52095238Y-58778628D01*
X53095238Y-58731009D02*
X53428571Y-58731009D01*
X53571428Y-59254819D02*
X53095238Y-59254819D01*
X53095238Y-59254819D02*
X53095238Y-58254819D01*
X53095238Y-58254819D02*
X53571428Y-58254819D01*
X54333333Y-58731009D02*
X54000000Y-58731009D01*
X54000000Y-59254819D02*
X54000000Y-58254819D01*
X54000000Y-58254819D02*
X54476190Y-58254819D01*
X55000000Y-58254819D02*
X55000000Y-58492914D01*
X54761905Y-58397676D02*
X55000000Y-58492914D01*
X55000000Y-58492914D02*
X55238095Y-58397676D01*
X54857143Y-58683390D02*
X55000000Y-58492914D01*
X55000000Y-58492914D02*
X55142857Y-58683390D01*
X55761905Y-58254819D02*
X55761905Y-58492914D01*
X55523810Y-58397676D02*
X55761905Y-58492914D01*
X55761905Y-58492914D02*
X56000000Y-58397676D01*
X55619048Y-58683390D02*
X55761905Y-58492914D01*
X55761905Y-58492914D02*
X55904762Y-58683390D01*
X144166666Y-61254819D02*
X143833333Y-60778628D01*
X143595238Y-61254819D02*
X143595238Y-60254819D01*
X143595238Y-60254819D02*
X143976190Y-60254819D01*
X143976190Y-60254819D02*
X144071428Y-60302438D01*
X144071428Y-60302438D02*
X144119047Y-60350057D01*
X144119047Y-60350057D02*
X144166666Y-60445295D01*
X144166666Y-60445295D02*
X144166666Y-60588152D01*
X144166666Y-60588152D02*
X144119047Y-60683390D01*
X144119047Y-60683390D02*
X144071428Y-60731009D01*
X144071428Y-60731009D02*
X143976190Y-60778628D01*
X143976190Y-60778628D02*
X143595238Y-60778628D01*
X144595238Y-60731009D02*
X144928571Y-60731009D01*
X145071428Y-61254819D02*
X144595238Y-61254819D01*
X144595238Y-61254819D02*
X144595238Y-60254819D01*
X144595238Y-60254819D02*
X145071428Y-60254819D01*
X145833333Y-60731009D02*
X145500000Y-60731009D01*
X145500000Y-61254819D02*
X145500000Y-60254819D01*
X145500000Y-60254819D02*
X145976190Y-60254819D01*
X146500000Y-60254819D02*
X146500000Y-60492914D01*
X146261905Y-60397676D02*
X146500000Y-60492914D01*
X146500000Y-60492914D02*
X146738095Y-60397676D01*
X146357143Y-60683390D02*
X146500000Y-60492914D01*
X146500000Y-60492914D02*
X146642857Y-60683390D01*
X147261905Y-60254819D02*
X147261905Y-60492914D01*
X147023810Y-60397676D02*
X147261905Y-60492914D01*
X147261905Y-60492914D02*
X147500000Y-60397676D01*
X147119048Y-60683390D02*
X147261905Y-60492914D01*
X147261905Y-60492914D02*
X147404762Y-60683390D01*
X77611666Y-61387319D02*
X77611666Y-62101604D01*
X77611666Y-62101604D02*
X77564047Y-62244461D01*
X77564047Y-62244461D02*
X77468809Y-62339700D01*
X77468809Y-62339700D02*
X77325952Y-62387319D01*
X77325952Y-62387319D02*
X77230714Y-62387319D01*
X78135476Y-62387319D02*
X78325952Y-62387319D01*
X78325952Y-62387319D02*
X78421190Y-62339700D01*
X78421190Y-62339700D02*
X78468809Y-62292080D01*
X78468809Y-62292080D02*
X78564047Y-62149223D01*
X78564047Y-62149223D02*
X78611666Y-61958747D01*
X78611666Y-61958747D02*
X78611666Y-61577795D01*
X78611666Y-61577795D02*
X78564047Y-61482557D01*
X78564047Y-61482557D02*
X78516428Y-61434938D01*
X78516428Y-61434938D02*
X78421190Y-61387319D01*
X78421190Y-61387319D02*
X78230714Y-61387319D01*
X78230714Y-61387319D02*
X78135476Y-61434938D01*
X78135476Y-61434938D02*
X78087857Y-61482557D01*
X78087857Y-61482557D02*
X78040238Y-61577795D01*
X78040238Y-61577795D02*
X78040238Y-61815890D01*
X78040238Y-61815890D02*
X78087857Y-61911128D01*
X78087857Y-61911128D02*
X78135476Y-61958747D01*
X78135476Y-61958747D02*
X78230714Y-62006366D01*
X78230714Y-62006366D02*
X78421190Y-62006366D01*
X78421190Y-62006366D02*
X78516428Y-61958747D01*
X78516428Y-61958747D02*
X78564047Y-61911128D01*
X78564047Y-61911128D02*
X78611666Y-61815890D01*
X53283095Y-66279819D02*
X53283095Y-67089342D01*
X53283095Y-67089342D02*
X53330714Y-67184580D01*
X53330714Y-67184580D02*
X53378333Y-67232200D01*
X53378333Y-67232200D02*
X53473571Y-67279819D01*
X53473571Y-67279819D02*
X53664047Y-67279819D01*
X53664047Y-67279819D02*
X53759285Y-67232200D01*
X53759285Y-67232200D02*
X53806904Y-67184580D01*
X53806904Y-67184580D02*
X53854523Y-67089342D01*
X53854523Y-67089342D02*
X53854523Y-66279819D01*
X54854523Y-67279819D02*
X54283095Y-67279819D01*
X54568809Y-67279819D02*
X54568809Y-66279819D01*
X54568809Y-66279819D02*
X54473571Y-66422676D01*
X54473571Y-66422676D02*
X54378333Y-66517914D01*
X54378333Y-66517914D02*
X54283095Y-66565533D01*
X123166666Y-91522319D02*
X123166666Y-92236604D01*
X123166666Y-92236604D02*
X123119047Y-92379461D01*
X123119047Y-92379461D02*
X123023809Y-92474700D01*
X123023809Y-92474700D02*
X122880952Y-92522319D01*
X122880952Y-92522319D02*
X122785714Y-92522319D01*
X123547619Y-91522319D02*
X124166666Y-91522319D01*
X124166666Y-91522319D02*
X123833333Y-91903271D01*
X123833333Y-91903271D02*
X123976190Y-91903271D01*
X123976190Y-91903271D02*
X124071428Y-91950890D01*
X124071428Y-91950890D02*
X124119047Y-91998509D01*
X124119047Y-91998509D02*
X124166666Y-92093747D01*
X124166666Y-92093747D02*
X124166666Y-92331842D01*
X124166666Y-92331842D02*
X124119047Y-92427080D01*
X124119047Y-92427080D02*
X124071428Y-92474700D01*
X124071428Y-92474700D02*
X123976190Y-92522319D01*
X123976190Y-92522319D02*
X123690476Y-92522319D01*
X123690476Y-92522319D02*
X123595238Y-92474700D01*
X123595238Y-92474700D02*
X123547619Y-92427080D01*
X132166667Y-77606200D02*
X132309524Y-77653819D01*
X132309524Y-77653819D02*
X132547619Y-77653819D01*
X132547619Y-77653819D02*
X132642857Y-77606200D01*
X132642857Y-77606200D02*
X132690476Y-77558580D01*
X132690476Y-77558580D02*
X132738095Y-77463342D01*
X132738095Y-77463342D02*
X132738095Y-77368104D01*
X132738095Y-77368104D02*
X132690476Y-77272866D01*
X132690476Y-77272866D02*
X132642857Y-77225247D01*
X132642857Y-77225247D02*
X132547619Y-77177628D01*
X132547619Y-77177628D02*
X132357143Y-77130009D01*
X132357143Y-77130009D02*
X132261905Y-77082390D01*
X132261905Y-77082390D02*
X132214286Y-77034771D01*
X132214286Y-77034771D02*
X132166667Y-76939533D01*
X132166667Y-76939533D02*
X132166667Y-76844295D01*
X132166667Y-76844295D02*
X132214286Y-76749057D01*
X132214286Y-76749057D02*
X132261905Y-76701438D01*
X132261905Y-76701438D02*
X132357143Y-76653819D01*
X132357143Y-76653819D02*
X132595238Y-76653819D01*
X132595238Y-76653819D02*
X132738095Y-76701438D01*
X133071429Y-76653819D02*
X133309524Y-77653819D01*
X133309524Y-77653819D02*
X133500000Y-76939533D01*
X133500000Y-76939533D02*
X133690476Y-77653819D01*
X133690476Y-77653819D02*
X133928572Y-76653819D01*
X134833333Y-77653819D02*
X134261905Y-77653819D01*
X134547619Y-77653819D02*
X134547619Y-76653819D01*
X134547619Y-76653819D02*
X134452381Y-76796676D01*
X134452381Y-76796676D02*
X134357143Y-76891914D01*
X134357143Y-76891914D02*
X134261905Y-76939533D01*
X129690000Y-71954819D02*
X129690000Y-72192914D01*
X129451905Y-72097676D02*
X129690000Y-72192914D01*
X129690000Y-72192914D02*
X129928095Y-72097676D01*
X129547143Y-72383390D02*
X129690000Y-72192914D01*
X129690000Y-72192914D02*
X129832857Y-72383390D01*
X129690000Y-71954819D02*
X129690000Y-72192914D01*
X129451905Y-72097676D02*
X129690000Y-72192914D01*
X129690000Y-72192914D02*
X129928095Y-72097676D01*
X129547143Y-72383390D02*
X129690000Y-72192914D01*
X129690000Y-72192914D02*
X129832857Y-72383390D01*
X124945833Y-83179580D02*
X124898214Y-83227200D01*
X124898214Y-83227200D02*
X124755357Y-83274819D01*
X124755357Y-83274819D02*
X124660119Y-83274819D01*
X124660119Y-83274819D02*
X124517262Y-83227200D01*
X124517262Y-83227200D02*
X124422024Y-83131961D01*
X124422024Y-83131961D02*
X124374405Y-83036723D01*
X124374405Y-83036723D02*
X124326786Y-82846247D01*
X124326786Y-82846247D02*
X124326786Y-82703390D01*
X124326786Y-82703390D02*
X124374405Y-82512914D01*
X124374405Y-82512914D02*
X124422024Y-82417676D01*
X124422024Y-82417676D02*
X124517262Y-82322438D01*
X124517262Y-82322438D02*
X124660119Y-82274819D01*
X124660119Y-82274819D02*
X124755357Y-82274819D01*
X124755357Y-82274819D02*
X124898214Y-82322438D01*
X124898214Y-82322438D02*
X124945833Y-82370057D01*
X125802976Y-82608152D02*
X125802976Y-83274819D01*
X125564881Y-82227200D02*
X125326786Y-82941485D01*
X125326786Y-82941485D02*
X125945833Y-82941485D01*
X137522319Y-73754523D02*
X138236604Y-73754523D01*
X138236604Y-73754523D02*
X138379461Y-73802142D01*
X138379461Y-73802142D02*
X138474700Y-73897380D01*
X138474700Y-73897380D02*
X138522319Y-74040237D01*
X138522319Y-74040237D02*
X138522319Y-74135475D01*
X138522319Y-72754523D02*
X138522319Y-73325951D01*
X138522319Y-73040237D02*
X137522319Y-73040237D01*
X137522319Y-73040237D02*
X137665176Y-73135475D01*
X137665176Y-73135475D02*
X137760414Y-73230713D01*
X137760414Y-73230713D02*
X137808033Y-73325951D01*
X137522319Y-72421189D02*
X137522319Y-71802142D01*
X137522319Y-71802142D02*
X137903271Y-72135475D01*
X137903271Y-72135475D02*
X137903271Y-71992618D01*
X137903271Y-71992618D02*
X137950890Y-71897380D01*
X137950890Y-71897380D02*
X137998509Y-71849761D01*
X137998509Y-71849761D02*
X138093747Y-71802142D01*
X138093747Y-71802142D02*
X138331842Y-71802142D01*
X138331842Y-71802142D02*
X138427080Y-71849761D01*
X138427080Y-71849761D02*
X138474700Y-71897380D01*
X138474700Y-71897380D02*
X138522319Y-71992618D01*
X138522319Y-71992618D02*
X138522319Y-72278332D01*
X138522319Y-72278332D02*
X138474700Y-72373570D01*
X138474700Y-72373570D02*
X138427080Y-72421189D01*
X62690476Y-61454819D02*
X62690476Y-62169104D01*
X62690476Y-62169104D02*
X62642857Y-62311961D01*
X62642857Y-62311961D02*
X62547619Y-62407200D01*
X62547619Y-62407200D02*
X62404762Y-62454819D01*
X62404762Y-62454819D02*
X62309524Y-62454819D01*
X63690476Y-62454819D02*
X63119048Y-62454819D01*
X63404762Y-62454819D02*
X63404762Y-61454819D01*
X63404762Y-61454819D02*
X63309524Y-61597676D01*
X63309524Y-61597676D02*
X63214286Y-61692914D01*
X63214286Y-61692914D02*
X63119048Y-61740533D01*
X64309524Y-61454819D02*
X64404762Y-61454819D01*
X64404762Y-61454819D02*
X64500000Y-61502438D01*
X64500000Y-61502438D02*
X64547619Y-61550057D01*
X64547619Y-61550057D02*
X64595238Y-61645295D01*
X64595238Y-61645295D02*
X64642857Y-61835771D01*
X64642857Y-61835771D02*
X64642857Y-62073866D01*
X64642857Y-62073866D02*
X64595238Y-62264342D01*
X64595238Y-62264342D02*
X64547619Y-62359580D01*
X64547619Y-62359580D02*
X64500000Y-62407200D01*
X64500000Y-62407200D02*
X64404762Y-62454819D01*
X64404762Y-62454819D02*
X64309524Y-62454819D01*
X64309524Y-62454819D02*
X64214286Y-62407200D01*
X64214286Y-62407200D02*
X64166667Y-62359580D01*
X64166667Y-62359580D02*
X64119048Y-62264342D01*
X64119048Y-62264342D02*
X64071429Y-62073866D01*
X64071429Y-62073866D02*
X64071429Y-61835771D01*
X64071429Y-61835771D02*
X64119048Y-61645295D01*
X64119048Y-61645295D02*
X64166667Y-61550057D01*
X64166667Y-61550057D02*
X64214286Y-61502438D01*
X64214286Y-61502438D02*
X64309524Y-61454819D01*
X108166666Y-91522319D02*
X108166666Y-92236604D01*
X108166666Y-92236604D02*
X108119047Y-92379461D01*
X108119047Y-92379461D02*
X108023809Y-92474700D01*
X108023809Y-92474700D02*
X107880952Y-92522319D01*
X107880952Y-92522319D02*
X107785714Y-92522319D01*
X109119047Y-91522319D02*
X108642857Y-91522319D01*
X108642857Y-91522319D02*
X108595238Y-91998509D01*
X108595238Y-91998509D02*
X108642857Y-91950890D01*
X108642857Y-91950890D02*
X108738095Y-91903271D01*
X108738095Y-91903271D02*
X108976190Y-91903271D01*
X108976190Y-91903271D02*
X109071428Y-91950890D01*
X109071428Y-91950890D02*
X109119047Y-91998509D01*
X109119047Y-91998509D02*
X109166666Y-92093747D01*
X109166666Y-92093747D02*
X109166666Y-92331842D01*
X109166666Y-92331842D02*
X109119047Y-92427080D01*
X109119047Y-92427080D02*
X109071428Y-92474700D01*
X109071428Y-92474700D02*
X108976190Y-92522319D01*
X108976190Y-92522319D02*
X108738095Y-92522319D01*
X108738095Y-92522319D02*
X108642857Y-92474700D01*
X108642857Y-92474700D02*
X108595238Y-92427080D01*
X124870833Y-76679580D02*
X124823214Y-76727200D01*
X124823214Y-76727200D02*
X124680357Y-76774819D01*
X124680357Y-76774819D02*
X124585119Y-76774819D01*
X124585119Y-76774819D02*
X124442262Y-76727200D01*
X124442262Y-76727200D02*
X124347024Y-76631961D01*
X124347024Y-76631961D02*
X124299405Y-76536723D01*
X124299405Y-76536723D02*
X124251786Y-76346247D01*
X124251786Y-76346247D02*
X124251786Y-76203390D01*
X124251786Y-76203390D02*
X124299405Y-76012914D01*
X124299405Y-76012914D02*
X124347024Y-75917676D01*
X124347024Y-75917676D02*
X124442262Y-75822438D01*
X124442262Y-75822438D02*
X124585119Y-75774819D01*
X124585119Y-75774819D02*
X124680357Y-75774819D01*
X124680357Y-75774819D02*
X124823214Y-75822438D01*
X124823214Y-75822438D02*
X124870833Y-75870057D01*
X125775595Y-75774819D02*
X125299405Y-75774819D01*
X125299405Y-75774819D02*
X125251786Y-76251009D01*
X125251786Y-76251009D02*
X125299405Y-76203390D01*
X125299405Y-76203390D02*
X125394643Y-76155771D01*
X125394643Y-76155771D02*
X125632738Y-76155771D01*
X125632738Y-76155771D02*
X125727976Y-76203390D01*
X125727976Y-76203390D02*
X125775595Y-76251009D01*
X125775595Y-76251009D02*
X125823214Y-76346247D01*
X125823214Y-76346247D02*
X125823214Y-76584342D01*
X125823214Y-76584342D02*
X125775595Y-76679580D01*
X125775595Y-76679580D02*
X125727976Y-76727200D01*
X125727976Y-76727200D02*
X125632738Y-76774819D01*
X125632738Y-76774819D02*
X125394643Y-76774819D01*
X125394643Y-76774819D02*
X125299405Y-76727200D01*
X125299405Y-76727200D02*
X125251786Y-76679580D01*
X106611666Y-61387319D02*
X106611666Y-62101604D01*
X106611666Y-62101604D02*
X106564047Y-62244461D01*
X106564047Y-62244461D02*
X106468809Y-62339700D01*
X106468809Y-62339700D02*
X106325952Y-62387319D01*
X106325952Y-62387319D02*
X106230714Y-62387319D01*
X107516428Y-61387319D02*
X107325952Y-61387319D01*
X107325952Y-61387319D02*
X107230714Y-61434938D01*
X107230714Y-61434938D02*
X107183095Y-61482557D01*
X107183095Y-61482557D02*
X107087857Y-61625414D01*
X107087857Y-61625414D02*
X107040238Y-61815890D01*
X107040238Y-61815890D02*
X107040238Y-62196842D01*
X107040238Y-62196842D02*
X107087857Y-62292080D01*
X107087857Y-62292080D02*
X107135476Y-62339700D01*
X107135476Y-62339700D02*
X107230714Y-62387319D01*
X107230714Y-62387319D02*
X107421190Y-62387319D01*
X107421190Y-62387319D02*
X107516428Y-62339700D01*
X107516428Y-62339700D02*
X107564047Y-62292080D01*
X107564047Y-62292080D02*
X107611666Y-62196842D01*
X107611666Y-62196842D02*
X107611666Y-61958747D01*
X107611666Y-61958747D02*
X107564047Y-61863509D01*
X107564047Y-61863509D02*
X107516428Y-61815890D01*
X107516428Y-61815890D02*
X107421190Y-61768271D01*
X107421190Y-61768271D02*
X107230714Y-61768271D01*
X107230714Y-61768271D02*
X107135476Y-61815890D01*
X107135476Y-61815890D02*
X107087857Y-61863509D01*
X107087857Y-61863509D02*
X107040238Y-61958747D01*
X117870833Y-83179580D02*
X117823214Y-83227200D01*
X117823214Y-83227200D02*
X117680357Y-83274819D01*
X117680357Y-83274819D02*
X117585119Y-83274819D01*
X117585119Y-83274819D02*
X117442262Y-83227200D01*
X117442262Y-83227200D02*
X117347024Y-83131961D01*
X117347024Y-83131961D02*
X117299405Y-83036723D01*
X117299405Y-83036723D02*
X117251786Y-82846247D01*
X117251786Y-82846247D02*
X117251786Y-82703390D01*
X117251786Y-82703390D02*
X117299405Y-82512914D01*
X117299405Y-82512914D02*
X117347024Y-82417676D01*
X117347024Y-82417676D02*
X117442262Y-82322438D01*
X117442262Y-82322438D02*
X117585119Y-82274819D01*
X117585119Y-82274819D02*
X117680357Y-82274819D01*
X117680357Y-82274819D02*
X117823214Y-82322438D01*
X117823214Y-82322438D02*
X117870833Y-82370057D01*
X118204167Y-82274819D02*
X118823214Y-82274819D01*
X118823214Y-82274819D02*
X118489881Y-82655771D01*
X118489881Y-82655771D02*
X118632738Y-82655771D01*
X118632738Y-82655771D02*
X118727976Y-82703390D01*
X118727976Y-82703390D02*
X118775595Y-82751009D01*
X118775595Y-82751009D02*
X118823214Y-82846247D01*
X118823214Y-82846247D02*
X118823214Y-83084342D01*
X118823214Y-83084342D02*
X118775595Y-83179580D01*
X118775595Y-83179580D02*
X118727976Y-83227200D01*
X118727976Y-83227200D02*
X118632738Y-83274819D01*
X118632738Y-83274819D02*
X118347024Y-83274819D01*
X118347024Y-83274819D02*
X118251786Y-83227200D01*
X118251786Y-83227200D02*
X118204167Y-83179580D01*
X118238095Y-67954945D02*
X118238095Y-68764468D01*
X118238095Y-68764468D02*
X118285714Y-68859706D01*
X118285714Y-68859706D02*
X118333333Y-68907326D01*
X118333333Y-68907326D02*
X118428571Y-68954945D01*
X118428571Y-68954945D02*
X118619047Y-68954945D01*
X118619047Y-68954945D02*
X118714285Y-68907326D01*
X118714285Y-68907326D02*
X118761904Y-68859706D01*
X118761904Y-68859706D02*
X118809523Y-68764468D01*
X118809523Y-68764468D02*
X118809523Y-67954945D01*
X119190476Y-67954945D02*
X119809523Y-67954945D01*
X119809523Y-67954945D02*
X119476190Y-68335897D01*
X119476190Y-68335897D02*
X119619047Y-68335897D01*
X119619047Y-68335897D02*
X119714285Y-68383516D01*
X119714285Y-68383516D02*
X119761904Y-68431135D01*
X119761904Y-68431135D02*
X119809523Y-68526373D01*
X119809523Y-68526373D02*
X119809523Y-68764468D01*
X119809523Y-68764468D02*
X119761904Y-68859706D01*
X119761904Y-68859706D02*
X119714285Y-68907326D01*
X119714285Y-68907326D02*
X119619047Y-68954945D01*
X119619047Y-68954945D02*
X119333333Y-68954945D01*
X119333333Y-68954945D02*
X119238095Y-68907326D01*
X119238095Y-68907326D02*
X119190476Y-68859706D01*
X118238095Y-74455197D02*
X118238095Y-75264720D01*
X118238095Y-75264720D02*
X118285714Y-75359958D01*
X118285714Y-75359958D02*
X118333333Y-75407578D01*
X118333333Y-75407578D02*
X118428571Y-75455197D01*
X118428571Y-75455197D02*
X118619047Y-75455197D01*
X118619047Y-75455197D02*
X118714285Y-75407578D01*
X118714285Y-75407578D02*
X118761904Y-75359958D01*
X118761904Y-75359958D02*
X118809523Y-75264720D01*
X118809523Y-75264720D02*
X118809523Y-74455197D01*
X119238095Y-74550435D02*
X119285714Y-74502816D01*
X119285714Y-74502816D02*
X119380952Y-74455197D01*
X119380952Y-74455197D02*
X119619047Y-74455197D01*
X119619047Y-74455197D02*
X119714285Y-74502816D01*
X119714285Y-74502816D02*
X119761904Y-74550435D01*
X119761904Y-74550435D02*
X119809523Y-74645673D01*
X119809523Y-74645673D02*
X119809523Y-74740911D01*
X119809523Y-74740911D02*
X119761904Y-74883768D01*
X119761904Y-74883768D02*
X119190476Y-75455197D01*
X119190476Y-75455197D02*
X119809523Y-75455197D01*
X78111666Y-91454819D02*
X78111666Y-92169104D01*
X78111666Y-92169104D02*
X78064047Y-92311961D01*
X78064047Y-92311961D02*
X77968809Y-92407200D01*
X77968809Y-92407200D02*
X77825952Y-92454819D01*
X77825952Y-92454819D02*
X77730714Y-92454819D01*
X79016428Y-91788152D02*
X79016428Y-92454819D01*
X78778333Y-91407200D02*
X78540238Y-92121485D01*
X78540238Y-92121485D02*
X79159285Y-92121485D01*
X137522319Y-85059523D02*
X138236604Y-85059523D01*
X138236604Y-85059523D02*
X138379461Y-85107142D01*
X138379461Y-85107142D02*
X138474700Y-85202380D01*
X138474700Y-85202380D02*
X138522319Y-85345237D01*
X138522319Y-85345237D02*
X138522319Y-85440475D01*
X138522319Y-84059523D02*
X138522319Y-84630951D01*
X138522319Y-84345237D02*
X137522319Y-84345237D01*
X137522319Y-84345237D02*
X137665176Y-84440475D01*
X137665176Y-84440475D02*
X137760414Y-84535713D01*
X137760414Y-84535713D02*
X137808033Y-84630951D01*
X137855652Y-83202380D02*
X138522319Y-83202380D01*
X137474700Y-83440475D02*
X138188985Y-83678570D01*
X138188985Y-83678570D02*
X138188985Y-83059523D01*
X62111666Y-91454819D02*
X62111666Y-92169104D01*
X62111666Y-92169104D02*
X62064047Y-92311961D01*
X62064047Y-92311961D02*
X61968809Y-92407200D01*
X61968809Y-92407200D02*
X61825952Y-92454819D01*
X61825952Y-92454819D02*
X61730714Y-92454819D01*
X63111666Y-92454819D02*
X62540238Y-92454819D01*
X62825952Y-92454819D02*
X62825952Y-91454819D01*
X62825952Y-91454819D02*
X62730714Y-91597676D01*
X62730714Y-91597676D02*
X62635476Y-91692914D01*
X62635476Y-91692914D02*
X62540238Y-91740533D01*
X136690476Y-91522319D02*
X136690476Y-92236604D01*
X136690476Y-92236604D02*
X136642857Y-92379461D01*
X136642857Y-92379461D02*
X136547619Y-92474700D01*
X136547619Y-92474700D02*
X136404762Y-92522319D01*
X136404762Y-92522319D02*
X136309524Y-92522319D01*
X137690476Y-92522319D02*
X137119048Y-92522319D01*
X137404762Y-92522319D02*
X137404762Y-91522319D01*
X137404762Y-91522319D02*
X137309524Y-91665176D01*
X137309524Y-91665176D02*
X137214286Y-91760414D01*
X137214286Y-91760414D02*
X137119048Y-91808033D01*
X138642857Y-92522319D02*
X138071429Y-92522319D01*
X138357143Y-92522319D02*
X138357143Y-91522319D01*
X138357143Y-91522319D02*
X138261905Y-91665176D01*
X138261905Y-91665176D02*
X138166667Y-91760414D01*
X138166667Y-91760414D02*
X138071429Y-91808033D01*
X136666666Y-62111009D02*
X136333333Y-62111009D01*
X136333333Y-62634819D02*
X136333333Y-61634819D01*
X136333333Y-61634819D02*
X136809523Y-61634819D01*
X137714285Y-62634819D02*
X137142857Y-62634819D01*
X137428571Y-62634819D02*
X137428571Y-61634819D01*
X137428571Y-61634819D02*
X137333333Y-61777676D01*
X137333333Y-61777676D02*
X137238095Y-61872914D01*
X137238095Y-61872914D02*
X137142857Y-61920533D01*
X142166666Y-50454819D02*
X142166666Y-51169104D01*
X142166666Y-51169104D02*
X142119047Y-51311961D01*
X142119047Y-51311961D02*
X142023809Y-51407200D01*
X142023809Y-51407200D02*
X141880952Y-51454819D01*
X141880952Y-51454819D02*
X141785714Y-51454819D01*
X142785714Y-50883390D02*
X142690476Y-50835771D01*
X142690476Y-50835771D02*
X142642857Y-50788152D01*
X142642857Y-50788152D02*
X142595238Y-50692914D01*
X142595238Y-50692914D02*
X142595238Y-50645295D01*
X142595238Y-50645295D02*
X142642857Y-50550057D01*
X142642857Y-50550057D02*
X142690476Y-50502438D01*
X142690476Y-50502438D02*
X142785714Y-50454819D01*
X142785714Y-50454819D02*
X142976190Y-50454819D01*
X142976190Y-50454819D02*
X143071428Y-50502438D01*
X143071428Y-50502438D02*
X143119047Y-50550057D01*
X143119047Y-50550057D02*
X143166666Y-50645295D01*
X143166666Y-50645295D02*
X143166666Y-50692914D01*
X143166666Y-50692914D02*
X143119047Y-50788152D01*
X143119047Y-50788152D02*
X143071428Y-50835771D01*
X143071428Y-50835771D02*
X142976190Y-50883390D01*
X142976190Y-50883390D02*
X142785714Y-50883390D01*
X142785714Y-50883390D02*
X142690476Y-50931009D01*
X142690476Y-50931009D02*
X142642857Y-50978628D01*
X142642857Y-50978628D02*
X142595238Y-51073866D01*
X142595238Y-51073866D02*
X142595238Y-51264342D01*
X142595238Y-51264342D02*
X142642857Y-51359580D01*
X142642857Y-51359580D02*
X142690476Y-51407200D01*
X142690476Y-51407200D02*
X142785714Y-51454819D01*
X142785714Y-51454819D02*
X142976190Y-51454819D01*
X142976190Y-51454819D02*
X143071428Y-51407200D01*
X143071428Y-51407200D02*
X143119047Y-51359580D01*
X143119047Y-51359580D02*
X143166666Y-51264342D01*
X143166666Y-51264342D02*
X143166666Y-51073866D01*
X143166666Y-51073866D02*
X143119047Y-50978628D01*
X143119047Y-50978628D02*
X143071428Y-50931009D01*
X143071428Y-50931009D02*
X142976190Y-50883390D01*
X135428571Y-55114700D02*
X136571429Y-55114700D01*
X148428571Y-55114700D02*
X149571429Y-55114700D01*
X149000000Y-55686128D02*
X149000000Y-54543271D01*
X118795833Y-54179958D02*
X118748214Y-54227578D01*
X118748214Y-54227578D02*
X118605357Y-54275197D01*
X118605357Y-54275197D02*
X118510119Y-54275197D01*
X118510119Y-54275197D02*
X118367262Y-54227578D01*
X118367262Y-54227578D02*
X118272024Y-54132339D01*
X118272024Y-54132339D02*
X118224405Y-54037101D01*
X118224405Y-54037101D02*
X118176786Y-53846625D01*
X118176786Y-53846625D02*
X118176786Y-53703768D01*
X118176786Y-53703768D02*
X118224405Y-53513292D01*
X118224405Y-53513292D02*
X118272024Y-53418054D01*
X118272024Y-53418054D02*
X118367262Y-53322816D01*
X118367262Y-53322816D02*
X118510119Y-53275197D01*
X118510119Y-53275197D02*
X118605357Y-53275197D01*
X118605357Y-53275197D02*
X118748214Y-53322816D01*
X118748214Y-53322816D02*
X118795833Y-53370435D01*
X119652976Y-53275197D02*
X119462500Y-53275197D01*
X119462500Y-53275197D02*
X119367262Y-53322816D01*
X119367262Y-53322816D02*
X119319643Y-53370435D01*
X119319643Y-53370435D02*
X119224405Y-53513292D01*
X119224405Y-53513292D02*
X119176786Y-53703768D01*
X119176786Y-53703768D02*
X119176786Y-54084720D01*
X119176786Y-54084720D02*
X119224405Y-54179958D01*
X119224405Y-54179958D02*
X119272024Y-54227578D01*
X119272024Y-54227578D02*
X119367262Y-54275197D01*
X119367262Y-54275197D02*
X119557738Y-54275197D01*
X119557738Y-54275197D02*
X119652976Y-54227578D01*
X119652976Y-54227578D02*
X119700595Y-54179958D01*
X119700595Y-54179958D02*
X119748214Y-54084720D01*
X119748214Y-54084720D02*
X119748214Y-53846625D01*
X119748214Y-53846625D02*
X119700595Y-53751387D01*
X119700595Y-53751387D02*
X119652976Y-53703768D01*
X119652976Y-53703768D02*
X119557738Y-53656149D01*
X119557738Y-53656149D02*
X119367262Y-53656149D01*
X119367262Y-53656149D02*
X119272024Y-53703768D01*
X119272024Y-53703768D02*
X119224405Y-53751387D01*
X119224405Y-53751387D02*
X119176786Y-53846625D01*
X93166666Y-91522319D02*
X93166666Y-92236604D01*
X93166666Y-92236604D02*
X93119047Y-92379461D01*
X93119047Y-92379461D02*
X93023809Y-92474700D01*
X93023809Y-92474700D02*
X92880952Y-92522319D01*
X92880952Y-92522319D02*
X92785714Y-92522319D01*
X93595238Y-91617557D02*
X93642857Y-91569938D01*
X93642857Y-91569938D02*
X93738095Y-91522319D01*
X93738095Y-91522319D02*
X93976190Y-91522319D01*
X93976190Y-91522319D02*
X94071428Y-91569938D01*
X94071428Y-91569938D02*
X94119047Y-91617557D01*
X94119047Y-91617557D02*
X94166666Y-91712795D01*
X94166666Y-91712795D02*
X94166666Y-91808033D01*
X94166666Y-91808033D02*
X94119047Y-91950890D01*
X94119047Y-91950890D02*
X93547619Y-92522319D01*
X93547619Y-92522319D02*
X94166666Y-92522319D01*
X92111666Y-61387319D02*
X92111666Y-62101604D01*
X92111666Y-62101604D02*
X92064047Y-62244461D01*
X92064047Y-62244461D02*
X91968809Y-62339700D01*
X91968809Y-62339700D02*
X91825952Y-62387319D01*
X91825952Y-62387319D02*
X91730714Y-62387319D01*
X92492619Y-61387319D02*
X93159285Y-61387319D01*
X93159285Y-61387319D02*
X92730714Y-62387319D01*
X125370833Y-53679580D02*
X125323214Y-53727200D01*
X125323214Y-53727200D02*
X125180357Y-53774819D01*
X125180357Y-53774819D02*
X125085119Y-53774819D01*
X125085119Y-53774819D02*
X124942262Y-53727200D01*
X124942262Y-53727200D02*
X124847024Y-53631961D01*
X124847024Y-53631961D02*
X124799405Y-53536723D01*
X124799405Y-53536723D02*
X124751786Y-53346247D01*
X124751786Y-53346247D02*
X124751786Y-53203390D01*
X124751786Y-53203390D02*
X124799405Y-53012914D01*
X124799405Y-53012914D02*
X124847024Y-52917676D01*
X124847024Y-52917676D02*
X124942262Y-52822438D01*
X124942262Y-52822438D02*
X125085119Y-52774819D01*
X125085119Y-52774819D02*
X125180357Y-52774819D01*
X125180357Y-52774819D02*
X125323214Y-52822438D01*
X125323214Y-52822438D02*
X125370833Y-52870057D01*
X126323214Y-53774819D02*
X125751786Y-53774819D01*
X126037500Y-53774819D02*
X126037500Y-52774819D01*
X126037500Y-52774819D02*
X125942262Y-52917676D01*
X125942262Y-52917676D02*
X125847024Y-53012914D01*
X125847024Y-53012914D02*
X125751786Y-53060533D01*
X118795833Y-63039958D02*
X118748214Y-63087578D01*
X118748214Y-63087578D02*
X118605357Y-63135197D01*
X118605357Y-63135197D02*
X118510119Y-63135197D01*
X118510119Y-63135197D02*
X118367262Y-63087578D01*
X118367262Y-63087578D02*
X118272024Y-62992339D01*
X118272024Y-62992339D02*
X118224405Y-62897101D01*
X118224405Y-62897101D02*
X118176786Y-62706625D01*
X118176786Y-62706625D02*
X118176786Y-62563768D01*
X118176786Y-62563768D02*
X118224405Y-62373292D01*
X118224405Y-62373292D02*
X118272024Y-62278054D01*
X118272024Y-62278054D02*
X118367262Y-62182816D01*
X118367262Y-62182816D02*
X118510119Y-62135197D01*
X118510119Y-62135197D02*
X118605357Y-62135197D01*
X118605357Y-62135197D02*
X118748214Y-62182816D01*
X118748214Y-62182816D02*
X118795833Y-62230435D01*
X119176786Y-62230435D02*
X119224405Y-62182816D01*
X119224405Y-62182816D02*
X119319643Y-62135197D01*
X119319643Y-62135197D02*
X119557738Y-62135197D01*
X119557738Y-62135197D02*
X119652976Y-62182816D01*
X119652976Y-62182816D02*
X119700595Y-62230435D01*
X119700595Y-62230435D02*
X119748214Y-62325673D01*
X119748214Y-62325673D02*
X119748214Y-62420911D01*
X119748214Y-62420911D02*
X119700595Y-62563768D01*
X119700595Y-62563768D02*
X119129167Y-63135197D01*
X119129167Y-63135197D02*
X119748214Y-63135197D01*
X124690476Y-56599819D02*
X124690476Y-57314104D01*
X124690476Y-57314104D02*
X124642857Y-57456961D01*
X124642857Y-57456961D02*
X124547619Y-57552200D01*
X124547619Y-57552200D02*
X124404762Y-57599819D01*
X124404762Y-57599819D02*
X124309524Y-57599819D01*
X125690476Y-57599819D02*
X125119048Y-57599819D01*
X125404762Y-57599819D02*
X125404762Y-56599819D01*
X125404762Y-56599819D02*
X125309524Y-56742676D01*
X125309524Y-56742676D02*
X125214286Y-56837914D01*
X125214286Y-56837914D02*
X125119048Y-56885533D01*
X126071429Y-56695057D02*
X126119048Y-56647438D01*
X126119048Y-56647438D02*
X126214286Y-56599819D01*
X126214286Y-56599819D02*
X126452381Y-56599819D01*
X126452381Y-56599819D02*
X126547619Y-56647438D01*
X126547619Y-56647438D02*
X126595238Y-56695057D01*
X126595238Y-56695057D02*
X126642857Y-56790295D01*
X126642857Y-56790295D02*
X126642857Y-56885533D01*
X126642857Y-56885533D02*
X126595238Y-57028390D01*
X126595238Y-57028390D02*
X126023810Y-57599819D01*
X126023810Y-57599819D02*
X126642857Y-57599819D01*
D11*
%TO.C,J9*%
X84005000Y-60242500D02*
X84005000Y-50822500D01*
X84005000Y-60242500D02*
X82495000Y-60242500D01*
X84005000Y-54132500D02*
X71885000Y-54132500D01*
X84005000Y-50822500D02*
X71885000Y-50822500D01*
X81745000Y-61532500D02*
X81145000Y-61532500D01*
X81445000Y-60932500D02*
X81745000Y-61532500D01*
X81145000Y-61532500D02*
X81445000Y-60932500D01*
X80395000Y-60242500D02*
X78995000Y-60242500D01*
X76895000Y-60242500D02*
X75495000Y-60242500D01*
X71885000Y-60242500D02*
X73395000Y-60242500D01*
X71885000Y-50822500D02*
X71885000Y-60242500D01*
D12*
%TO.C,U1*%
X50170000Y-81150000D02*
X50170000Y-73090000D01*
X50870000Y-68230000D02*
X50870000Y-73090000D01*
X50870000Y-68230000D02*
X111830000Y-68230000D01*
X50870000Y-73090000D02*
X50170000Y-73090000D01*
X50870000Y-81150000D02*
X50170000Y-81150000D01*
X50870000Y-86010000D02*
X50870000Y-81150000D01*
X111830000Y-68230000D02*
X111830000Y-86010000D01*
X111830000Y-86010000D02*
X50870000Y-86010000D01*
D13*
X57320000Y-86620000D02*
G75*
G02*
X57120000Y-86620000I-100000J0D01*
G01*
X57120000Y-86620000D02*
G75*
G02*
X57320000Y-86620000I100000J0D01*
G01*
D11*
%TO.C,J3*%
X117440000Y-93757500D02*
X117440000Y-103177500D01*
X117440000Y-93757500D02*
X118950000Y-93757500D01*
X117440000Y-99867500D02*
X129560000Y-99867500D01*
X117440000Y-103177500D02*
X129560000Y-103177500D01*
X119700000Y-92467500D02*
X120300000Y-92467500D01*
X120000000Y-93067500D02*
X119700000Y-92467500D01*
X120300000Y-92467500D02*
X120000000Y-93067500D01*
X121050000Y-93757500D02*
X122450000Y-93757500D01*
X124550000Y-93757500D02*
X125950000Y-93757500D01*
X129560000Y-93757500D02*
X128050000Y-93757500D01*
X129560000Y-103177500D02*
X129560000Y-93757500D01*
D14*
%TO.C,SW1*%
X130071000Y-70722000D02*
X130071000Y-83676000D01*
X130071000Y-83676000D02*
X136929000Y-83676000D01*
X136929000Y-70722000D02*
X130071000Y-70722000D01*
X136929000Y-83676000D02*
X136929000Y-70722000D01*
D11*
%TO.C,C4*%
X124851248Y-83765000D02*
X125373752Y-83765000D01*
X124851248Y-85235000D02*
X125373752Y-85235000D01*
%TO.C,J13*%
X138467500Y-74395000D02*
X139067500Y-74695000D01*
X138467500Y-74995000D02*
X138467500Y-74395000D01*
X139067500Y-74695000D02*
X138467500Y-74995000D01*
X139757500Y-68635000D02*
X139757500Y-70145000D01*
X139757500Y-73645000D02*
X139757500Y-72245000D01*
X139757500Y-77255000D02*
X139757500Y-75745000D01*
X139757500Y-77255000D02*
X149177500Y-77255000D01*
X145867500Y-77255000D02*
X145867500Y-68635000D01*
X149177500Y-68635000D02*
X139757500Y-68635000D01*
X149177500Y-77255000D02*
X149177500Y-68635000D01*
%TO.C,J10*%
X57440000Y-50890000D02*
X57440000Y-60310000D01*
X57440000Y-60310000D02*
X58950000Y-60310000D01*
X62450000Y-60310000D02*
X61050000Y-60310000D01*
X65950000Y-60310000D02*
X64550000Y-60310000D01*
X66700000Y-61600000D02*
X67000000Y-61000000D01*
X67000000Y-61000000D02*
X67300000Y-61600000D01*
X67300000Y-61600000D02*
X66700000Y-61600000D01*
X69560000Y-50890000D02*
X57440000Y-50890000D01*
X69560000Y-54200000D02*
X57440000Y-54200000D01*
X69560000Y-60310000D02*
X68050000Y-60310000D01*
X69560000Y-60310000D02*
X69560000Y-50890000D01*
%TO.C,J5*%
X102440000Y-93757500D02*
X102440000Y-103177500D01*
X102440000Y-93757500D02*
X103950000Y-93757500D01*
X102440000Y-99867500D02*
X114560000Y-99867500D01*
X102440000Y-103177500D02*
X114560000Y-103177500D01*
X104700000Y-92467500D02*
X105300000Y-92467500D01*
X105000000Y-93067500D02*
X104700000Y-92467500D01*
X105300000Y-92467500D02*
X105000000Y-93067500D01*
X106050000Y-93757500D02*
X107450000Y-93757500D01*
X109550000Y-93757500D02*
X110950000Y-93757500D01*
X114560000Y-93757500D02*
X113050000Y-93757500D01*
X114560000Y-103177500D02*
X114560000Y-93757500D01*
%TO.C,C5*%
X124776248Y-77265000D02*
X125298752Y-77265000D01*
X124776248Y-78735000D02*
X125298752Y-78735000D01*
%TO.C,J6*%
X100885000Y-50822500D02*
X100885000Y-60242500D01*
X100885000Y-60242500D02*
X102395000Y-60242500D01*
X105895000Y-60242500D02*
X104495000Y-60242500D01*
X109395000Y-60242500D02*
X107995000Y-60242500D01*
X110145000Y-61532500D02*
X110445000Y-60932500D01*
X110445000Y-60932500D02*
X110745000Y-61532500D01*
X110745000Y-61532500D02*
X110145000Y-61532500D01*
X113005000Y-50822500D02*
X100885000Y-50822500D01*
X113005000Y-54132500D02*
X100885000Y-54132500D01*
X113005000Y-60242500D02*
X111495000Y-60242500D01*
X113005000Y-60242500D02*
X113005000Y-50822500D01*
%TO.C,C3*%
X117776248Y-83765000D02*
X118298752Y-83765000D01*
X117776248Y-85235000D02*
X118298752Y-85235000D01*
D14*
%TO.C,U3*%
X118225300Y-69478026D02*
X119774700Y-69478026D01*
X119774700Y-67522226D02*
X118225300Y-67522226D01*
X117394974Y-68000000D02*
G75*
G02*
X117191774Y-68000000I-101600J0D01*
G01*
X117191774Y-68000000D02*
G75*
G02*
X117394974Y-68000000I101600J0D01*
G01*
%TO.C,U2*%
X118225300Y-75978278D02*
X119774700Y-75978278D01*
X119774700Y-74022478D02*
X118225300Y-74022478D01*
X117394974Y-74500252D02*
G75*
G02*
X117191774Y-74500252I-101600J0D01*
G01*
X117191774Y-74500252D02*
G75*
G02*
X117394974Y-74500252I101600J0D01*
G01*
D11*
%TO.C,J4*%
X72385000Y-93690000D02*
X72385000Y-103110000D01*
X72385000Y-93690000D02*
X73895000Y-93690000D01*
X72385000Y-99800000D02*
X84505000Y-99800000D01*
X72385000Y-103110000D02*
X84505000Y-103110000D01*
X74645000Y-92400000D02*
X75245000Y-92400000D01*
X74945000Y-93000000D02*
X74645000Y-92400000D01*
X75245000Y-92400000D02*
X74945000Y-93000000D01*
X75995000Y-93690000D02*
X77395000Y-93690000D01*
X79495000Y-93690000D02*
X80895000Y-93690000D01*
X84505000Y-93690000D02*
X82995000Y-93690000D01*
X84505000Y-103110000D02*
X84505000Y-93690000D01*
%TO.C,J14*%
X138467500Y-85700000D02*
X139067500Y-86000000D01*
X138467500Y-86300000D02*
X138467500Y-85700000D01*
X139067500Y-86000000D02*
X138467500Y-86300000D01*
X139757500Y-79940000D02*
X139757500Y-81450000D01*
X139757500Y-84950000D02*
X139757500Y-83550000D01*
X139757500Y-88560000D02*
X139757500Y-87050000D01*
X139757500Y-88560000D02*
X149177500Y-88560000D01*
X145867500Y-88560000D02*
X145867500Y-79940000D01*
X149177500Y-79940000D02*
X139757500Y-79940000D01*
X149177500Y-88560000D02*
X149177500Y-79940000D01*
%TO.C,J1*%
X56385000Y-93690000D02*
X56385000Y-103110000D01*
X56385000Y-93690000D02*
X57895000Y-93690000D01*
X56385000Y-99800000D02*
X68505000Y-99800000D01*
X56385000Y-103110000D02*
X68505000Y-103110000D01*
X58645000Y-92400000D02*
X59245000Y-92400000D01*
X58945000Y-93000000D02*
X58645000Y-92400000D01*
X59245000Y-92400000D02*
X58945000Y-93000000D01*
X59995000Y-93690000D02*
X61395000Y-93690000D01*
X63495000Y-93690000D02*
X64895000Y-93690000D01*
X68505000Y-93690000D02*
X66995000Y-93690000D01*
X68505000Y-103110000D02*
X68505000Y-93690000D01*
%TO.C,J11*%
X131440000Y-93757500D02*
X131440000Y-103177500D01*
X131440000Y-93757500D02*
X132950000Y-93757500D01*
X131440000Y-99867500D02*
X143560000Y-99867500D01*
X131440000Y-103177500D02*
X143560000Y-103177500D01*
X133700000Y-92467500D02*
X134300000Y-92467500D01*
X134000000Y-93067500D02*
X133700000Y-92467500D01*
X134300000Y-92467500D02*
X134000000Y-93067500D01*
X135050000Y-93757500D02*
X136450000Y-93757500D01*
X138550000Y-93757500D02*
X139950000Y-93757500D01*
X143560000Y-93757500D02*
X142050000Y-93757500D01*
X143560000Y-103177500D02*
X143560000Y-93757500D01*
%TO.C,F1*%
X136397936Y-63090000D02*
X137602064Y-63090000D01*
X136397936Y-64910000D02*
X137602064Y-64910000D01*
%TO.C,J8*%
X137290000Y-53590000D02*
X137290000Y-56410000D01*
X137290000Y-53590000D02*
X138990000Y-52290000D01*
X137290000Y-56410000D02*
X138990000Y-57710000D01*
X138990000Y-52290000D02*
X147710000Y-52290000D01*
X138990000Y-57710000D02*
X147710000Y-57710000D01*
X147710000Y-52290000D02*
X147710000Y-57710000D01*
%TO.C,C6*%
X118701248Y-54765378D02*
X119223752Y-54765378D01*
X118701248Y-56235378D02*
X119223752Y-56235378D01*
%TO.C,J2*%
X87440000Y-93757500D02*
X87440000Y-103177500D01*
X87440000Y-93757500D02*
X88950000Y-93757500D01*
X87440000Y-99867500D02*
X99560000Y-99867500D01*
X87440000Y-103177500D02*
X99560000Y-103177500D01*
X89700000Y-92467500D02*
X90300000Y-92467500D01*
X90000000Y-93067500D02*
X89700000Y-92467500D01*
X90300000Y-92467500D02*
X90000000Y-93067500D01*
X91050000Y-93757500D02*
X92450000Y-93757500D01*
X94550000Y-93757500D02*
X95950000Y-93757500D01*
X99560000Y-93757500D02*
X98050000Y-93757500D01*
X99560000Y-103177500D02*
X99560000Y-93757500D01*
%TO.C,J7*%
X86385000Y-50822500D02*
X86385000Y-60242500D01*
X86385000Y-60242500D02*
X87895000Y-60242500D01*
X91395000Y-60242500D02*
X89995000Y-60242500D01*
X94895000Y-60242500D02*
X93495000Y-60242500D01*
X95645000Y-61532500D02*
X95945000Y-60932500D01*
X95945000Y-60932500D02*
X96245000Y-61532500D01*
X96245000Y-61532500D02*
X95645000Y-61532500D01*
X98505000Y-50822500D02*
X86385000Y-50822500D01*
X98505000Y-54132500D02*
X86385000Y-54132500D01*
X98505000Y-60242500D02*
X96995000Y-60242500D01*
X98505000Y-60242500D02*
X98505000Y-50822500D01*
%TO.C,C1*%
X125276248Y-54265000D02*
X125798752Y-54265000D01*
X125276248Y-55735000D02*
X125798752Y-55735000D01*
%TO.C,C2*%
X119223752Y-60265378D02*
X118701248Y-60265378D01*
X119223752Y-61735378D02*
X118701248Y-61735378D01*
%TO.C,J12*%
X124170000Y-58145000D02*
X125500000Y-58145000D01*
X124170000Y-59475000D02*
X124170000Y-58145000D01*
X124170000Y-60745000D02*
X124170000Y-65885000D01*
X124170000Y-60745000D02*
X126830000Y-60745000D01*
X124170000Y-65885000D02*
X126830000Y-65885000D01*
X126830000Y-60745000D02*
X126830000Y-65885000D01*
%TD*%
M02*
