%TF.GenerationSoftware,KiCad,Pcbnew,9.0.2+dfsg-1*%
%TF.CreationDate,2025-08-17T17:02:39-04:00*%
%TF.ProjectId,Basic_Controller,42617369-635f-4436-9f6e-74726f6c6c65,rev?*%
%TF.SameCoordinates,Original*%
%TF.FileFunction,Plated,1,2,PTH,Drill*%
%TF.FilePolarity,Positive*%
%FSLAX46Y46*%
G04 Gerber Fmt 4.6, Leading zero omitted, Abs format (unit mm)*
G04 Created by KiCad (PCBNEW 9.0.2+dfsg-1) date 2025-08-17 17:02:39*
%MOMM*%
%LPD*%
G01*
G04 APERTURE LIST*
%TA.AperFunction,ViaDrill*%
%ADD10C,0.300000*%
%TD*%
%TA.AperFunction,ComponentDrill*%
%ADD11C,0.330000*%
%TD*%
%TA.AperFunction,ComponentDrill*%
%ADD12C,0.787400*%
%TD*%
%TA.AperFunction,ComponentDrill*%
%ADD13C,0.812800*%
%TD*%
%TA.AperFunction,ComponentDrill*%
%ADD14C,0.950000*%
%TD*%
%TA.AperFunction,ComponentDrill*%
%ADD15C,1.000000*%
%TD*%
%TA.AperFunction,ComponentDrill*%
%ADD16C,1.498600*%
%TD*%
%TA.AperFunction,ComponentDrill*%
%ADD17C,2.700000*%
%TD*%
G04 APERTURE END LIST*
D10*
X137500000Y-87500000D03*
X137500000Y-93000000D03*
X144500000Y-67500000D03*
X144565000Y-68435000D03*
X155000000Y-67000000D03*
X160000000Y-71000000D03*
X164000000Y-83500000D03*
X165000000Y-69650000D03*
X167000000Y-74000000D03*
X167000000Y-85350000D03*
X167000000Y-88000000D03*
X168000000Y-67500000D03*
X170000000Y-71000000D03*
X170000000Y-91650001D03*
X171000000Y-70000000D03*
X172290380Y-76290380D03*
X172500000Y-85350000D03*
X173000000Y-69500000D03*
X173000000Y-74000000D03*
X173000000Y-84699000D03*
X174000000Y-75500000D03*
X174790380Y-85209620D03*
X175488145Y-77954836D03*
X175500000Y-77000000D03*
X175780626Y-85350000D03*
X176500000Y-73500000D03*
X176500000Y-85000000D03*
X177000000Y-81000000D03*
X177750000Y-77750000D03*
X177955883Y-72985025D03*
X181500000Y-75000000D03*
X181500000Y-83000000D03*
X181830053Y-66330053D03*
X182000000Y-69000000D03*
X183000000Y-70000000D03*
X184500000Y-75000000D03*
X187000000Y-69500000D03*
X191000000Y-70000000D03*
X194500000Y-85000000D03*
X195065687Y-84434313D03*
X196500000Y-87000000D03*
X197500000Y-86000000D03*
X200000000Y-79500000D03*
X203000000Y-82500000D03*
X211500000Y-88500000D03*
X211500000Y-92500000D03*
D11*
%TO.C,U4*%
X149500000Y-66500000D03*
X149500000Y-67800000D03*
X149500000Y-69100000D03*
X150800000Y-66500000D03*
X150800000Y-67800000D03*
X150800000Y-69100000D03*
%TO.C,U5*%
X198700000Y-66500000D03*
X198700000Y-67800000D03*
X198700000Y-69100000D03*
X200000000Y-66500000D03*
X200000000Y-67800000D03*
X200000000Y-69100000D03*
D12*
%TO.C,SW3*%
X140499999Y-83000000D03*
X142499999Y-83000000D03*
X144500000Y-83000000D03*
%TO.C,SW2*%
X206999999Y-90500000D03*
X209000000Y-90500000D03*
X211000000Y-90500000D03*
D13*
%TO.C,J4*%
X173000000Y-89000000D03*
X173000000Y-91000001D03*
X174999999Y-89000000D03*
X174999999Y-91000001D03*
X177000000Y-89000000D03*
X177000000Y-91000001D03*
X178999998Y-89000000D03*
X178999998Y-91000001D03*
D14*
%TO.C,J1*%
X158500000Y-59200000D03*
X161000000Y-59200000D03*
X163500000Y-59200000D03*
%TO.C,J2*%
X185000000Y-59500000D03*
X187500000Y-59500000D03*
X190000000Y-59500000D03*
%TO.C,J3*%
X209500000Y-73500000D03*
X209500000Y-76000000D03*
X209500000Y-78500000D03*
X209500000Y-81000000D03*
D15*
%TO.C,M1+1*%
X139500000Y-59500000D03*
X142000000Y-59500000D03*
%TO.C,M2+1*%
X208000000Y-60500000D03*
X210500000Y-60500000D03*
D16*
%TO.C,SW3*%
X138399998Y-83000000D03*
X146599999Y-83000000D03*
%TO.C,SW2*%
X204900000Y-90500000D03*
X213100001Y-90500000D03*
D17*
%TO.C,J13*%
X140500000Y-90000000D03*
X145500000Y-90000000D03*
M02*
