G04 #@! TF.GenerationSoftware,KiCad,Pcbnew,9.0.2+dfsg-1*
G04 #@! TF.CreationDate,2025-08-18T20:56:22-04:00*
G04 #@! TF.ProjectId,Basic_Controller,42617369-635f-4436-9f6e-74726f6c6c65,rev?*
G04 #@! TF.SameCoordinates,Original*
G04 #@! TF.FileFunction,Copper,L2,Bot*
G04 #@! TF.FilePolarity,Positive*
%FSLAX46Y46*%
G04 Gerber Fmt 4.6, Leading zero omitted, Abs format (unit mm)*
G04 Created by KiCad (PCBNEW 9.0.2+dfsg-1) date 2025-08-18 20:56:22*
%MOMM*%
%LPD*%
G01*
G04 APERTURE LIST*
G04 Aperture macros list*
%AMRoundRect*
0 Rectangle with rounded corners*
0 $1 Rounding radius*
0 $2 $3 $4 $5 $6 $7 $8 $9 X,Y pos of 4 corners*
0 Add a 4 corners polygon primitive as box body*
4,1,4,$2,$3,$4,$5,$6,$7,$8,$9,$2,$3,0*
0 Add four circle primitives for the rounded corners*
1,1,$1+$1,$2,$3*
1,1,$1+$1,$4,$5*
1,1,$1+$1,$6,$7*
1,1,$1+$1,$8,$9*
0 Add four rect primitives between the rounded corners*
20,1,$1+$1,$2,$3,$4,$5,0*
20,1,$1+$1,$4,$5,$6,$7,0*
20,1,$1+$1,$6,$7,$8,$9,0*
20,1,$1+$1,$8,$9,$2,$3,0*%
G04 Aperture macros list end*
G04 #@! TA.AperFunction,ComponentPad*
%ADD10RoundRect,0.250000X-0.600000X-0.725000X0.600000X-0.725000X0.600000X0.725000X-0.600000X0.725000X0*%
G04 #@! TD*
G04 #@! TA.AperFunction,ComponentPad*
%ADD11O,1.700000X1.950000*%
G04 #@! TD*
G04 #@! TA.AperFunction,ComponentPad*
%ADD12C,0.630000*%
G04 #@! TD*
G04 #@! TA.AperFunction,SMDPad,CuDef*
%ADD13R,2.600000X3.300000*%
G04 #@! TD*
G04 #@! TA.AperFunction,ComponentPad*
%ADD14C,1.524000*%
G04 #@! TD*
G04 #@! TA.AperFunction,ComponentPad*
%ADD15RoundRect,0.250000X-0.600000X-0.750000X0.600000X-0.750000X0.600000X0.750000X-0.600000X0.750000X0*%
G04 #@! TD*
G04 #@! TA.AperFunction,ComponentPad*
%ADD16O,1.700000X2.000000*%
G04 #@! TD*
G04 #@! TA.AperFunction,ComponentPad*
%ADD17C,1.320800*%
G04 #@! TD*
G04 #@! TA.AperFunction,ComponentPad*
%ADD18RoundRect,0.760000X1.140000X-1.140000X1.140000X1.140000X-1.140000X1.140000X-1.140000X-1.140000X0*%
G04 #@! TD*
G04 #@! TA.AperFunction,ComponentPad*
%ADD19C,4.000000*%
G04 #@! TD*
G04 #@! TA.AperFunction,ComponentPad*
%ADD20R,1.295400X1.295400*%
G04 #@! TD*
G04 #@! TA.AperFunction,ComponentPad*
%ADD21C,1.295400*%
G04 #@! TD*
G04 #@! TA.AperFunction,ComponentPad*
%ADD22C,1.498600*%
G04 #@! TD*
G04 #@! TA.AperFunction,ViaPad*
%ADD23C,0.600000*%
G04 #@! TD*
G04 #@! TA.AperFunction,Conductor*
%ADD24C,0.300000*%
G04 #@! TD*
G04 #@! TA.AperFunction,Conductor*
%ADD25C,1.300000*%
G04 #@! TD*
G04 #@! TA.AperFunction,Conductor*
%ADD26C,0.500000*%
G04 #@! TD*
G04 APERTURE END LIST*
D10*
X168000000Y-84975000D03*
D11*
X170500000Y-84975000D03*
X173000000Y-84975000D03*
D12*
X135337872Y-90777705D03*
X135337872Y-92077705D03*
X135337872Y-93377705D03*
D13*
X135987872Y-92077705D03*
D12*
X136637872Y-90777705D03*
X136637872Y-92077705D03*
X136637872Y-93377705D03*
D14*
X138660000Y-117240000D03*
X141200000Y-117240000D03*
X143740000Y-117240000D03*
X146280000Y-117240000D03*
X179300000Y-117240000D03*
X148820000Y-117240000D03*
X151360000Y-117240000D03*
X153900000Y-117240000D03*
X156440000Y-117240000D03*
X158980000Y-117240000D03*
X161520000Y-117240000D03*
X164060000Y-117240000D03*
X166600000Y-117240000D03*
X169140000Y-117240000D03*
X171680000Y-117240000D03*
X174220000Y-117240000D03*
X176760000Y-117240000D03*
X186920000Y-102000000D03*
X184380000Y-102000000D03*
X181840000Y-102000000D03*
X179300000Y-102000000D03*
X176760000Y-102000000D03*
X174220000Y-102000000D03*
X171680000Y-102000000D03*
X169140000Y-102000000D03*
X166600000Y-102000000D03*
X141500000Y-108350000D03*
X141500000Y-110890000D03*
X164060000Y-102000000D03*
X161520000Y-102000000D03*
X158980000Y-102000000D03*
X156440000Y-102000000D03*
X153900000Y-102000000D03*
X151360000Y-102000000D03*
X148820000Y-102000000D03*
X146280000Y-102000000D03*
X181840000Y-117240000D03*
X184380000Y-117240000D03*
X186920000Y-117240000D03*
X138660000Y-102000000D03*
X141200000Y-102000000D03*
X143740000Y-102000000D03*
X141500000Y-113430000D03*
X141500000Y-105810000D03*
D15*
X183729110Y-85000000D03*
D16*
X186229110Y-85000000D03*
D17*
X195500000Y-104500000D03*
X197500001Y-104500000D03*
X195500000Y-102500001D03*
X197500001Y-102500001D03*
X195500000Y-100500000D03*
X197500001Y-100500000D03*
X195500000Y-98500002D03*
X197500001Y-98500002D03*
D10*
X148000000Y-84975000D03*
D11*
X150500000Y-84975000D03*
X153000000Y-84975000D03*
D18*
X131500000Y-118000000D03*
D19*
X131500000Y-113000000D03*
D12*
X184357678Y-90889585D03*
X184357678Y-92189585D03*
X184357678Y-93489585D03*
D13*
X185007678Y-92189585D03*
D12*
X185657678Y-90889585D03*
X185657678Y-92189585D03*
X185657678Y-93489585D03*
D15*
X134750000Y-85000000D03*
D16*
X137250000Y-85000000D03*
D20*
X124500000Y-118000000D03*
D21*
X124500000Y-116000000D03*
X124500000Y-113999999D03*
D22*
X124500000Y-120100001D03*
X124500000Y-111900000D03*
D23*
X172000000Y-97424210D03*
X170500000Y-114000000D03*
X172000000Y-99150000D03*
X194500000Y-113500000D03*
X177500000Y-91500000D03*
X148500000Y-96774210D03*
X171225790Y-96774210D03*
X141500000Y-96774210D03*
X127500000Y-92980982D03*
X148500000Y-95624166D03*
X126032675Y-95624166D03*
X171879613Y-95623210D03*
X123000000Y-108500000D03*
X162845517Y-95666715D03*
X130500000Y-89500000D03*
X148000000Y-87000000D03*
X133112872Y-90172705D03*
X138862872Y-91442705D03*
X129000000Y-118000000D03*
X158200000Y-92150000D03*
X131500000Y-120500000D03*
X179500000Y-90000000D03*
X168000000Y-87000000D03*
X161287424Y-94201837D03*
X126000000Y-93000000D03*
X134000000Y-118000000D03*
X175500000Y-91500000D03*
X187882678Y-91554585D03*
X197637301Y-117250001D03*
X198195741Y-115868010D03*
X169000000Y-115000000D03*
X193732772Y-113726637D03*
X175175415Y-92824585D03*
X174500000Y-96774210D03*
X133500000Y-104500000D03*
X165500000Y-99650000D03*
X153000000Y-94000000D03*
D24*
X173000000Y-96000000D02*
X172000000Y-97000000D01*
X172000000Y-99150000D02*
X170500000Y-100650000D01*
X173000000Y-84975000D02*
X173000000Y-96000000D01*
X170500000Y-100650000D02*
X170500000Y-114000000D01*
X172000000Y-97000000D02*
X172000000Y-97424210D01*
X193987600Y-102012400D02*
X195500000Y-100500000D01*
X194500000Y-113500000D02*
X193987600Y-112987600D01*
X193987600Y-112987600D02*
X193987600Y-102012400D01*
X175000000Y-98500000D02*
X155825980Y-98500000D01*
X177500000Y-91500000D02*
X176500000Y-92500000D01*
X176500000Y-92500000D02*
X176500000Y-97000000D01*
X176500000Y-97000000D02*
X175000000Y-98500000D01*
X155825980Y-98500000D02*
X152473000Y-101852980D01*
X152473000Y-101852980D02*
X152473000Y-116127000D01*
X152473000Y-116127000D02*
X151360000Y-117240000D01*
X128774210Y-96774210D02*
X141500000Y-96774210D01*
X148500000Y-96774210D02*
X171225790Y-96774210D01*
X127500000Y-92980982D02*
X127500000Y-95500000D01*
X127500000Y-95500000D02*
X128774210Y-96774210D01*
D25*
X168000001Y-95623210D02*
X168000000Y-95623211D01*
X123875834Y-95624166D02*
X126032675Y-95624166D01*
X122000000Y-97500000D02*
X123875834Y-95624166D01*
X123000000Y-108500000D02*
X122000000Y-107500000D01*
X168000000Y-95623211D02*
X159815861Y-95623211D01*
X122000000Y-107500000D02*
X122000000Y-97500000D01*
X159814906Y-95624166D02*
X148500000Y-95624166D01*
X159815861Y-95623211D02*
X159814906Y-95624166D01*
X171879613Y-95623210D02*
X168000001Y-95623210D01*
D24*
X132000000Y-88500000D02*
X131500000Y-88500000D01*
X148820000Y-104680000D02*
X148820000Y-117240000D01*
X145000000Y-88500000D02*
X132000000Y-88500000D01*
X147500000Y-91000000D02*
X145000000Y-88500000D01*
X131500000Y-88500000D02*
X130500000Y-89500000D01*
X147500000Y-103360000D02*
X148820000Y-104680000D01*
X147500000Y-97500000D02*
X147500000Y-103360000D01*
X147500000Y-97500000D02*
X147500000Y-91000000D01*
X199500000Y-104500000D02*
X197500001Y-102500001D01*
X197693650Y-117193652D02*
X197806348Y-117193652D01*
X197637301Y-117250001D02*
X197693650Y-117193652D01*
X197806348Y-117193652D02*
X199500000Y-115500000D01*
X199500000Y-115500000D02*
X199500000Y-104500000D01*
X198195741Y-115868010D02*
X198195741Y-108844741D01*
X194488600Y-103511401D02*
X195500000Y-102500001D01*
X198195741Y-108844741D02*
X194488600Y-105137600D01*
X194488600Y-105137600D02*
X194488600Y-103511401D01*
X198511401Y-98081066D02*
X198511401Y-99488600D01*
X169000000Y-115000000D02*
X177500000Y-115000000D01*
X197918937Y-97488602D02*
X198511401Y-98081066D01*
X177500000Y-115000000D02*
X195011398Y-97488602D01*
X195011398Y-97488602D02*
X197918937Y-97488602D01*
X198511401Y-99488600D02*
X197500001Y-100500000D01*
X193732772Y-113726637D02*
X193486600Y-113480465D01*
X193486600Y-113480465D02*
X193486600Y-100513402D01*
X193486600Y-100513402D02*
X195500000Y-98500002D01*
X174500000Y-96774210D02*
X174500000Y-93500000D01*
X174500000Y-93500000D02*
X175175415Y-92824585D01*
D26*
X138660000Y-109660000D02*
X138660000Y-117240000D01*
X133500000Y-104500000D02*
X138660000Y-109660000D01*
D24*
X165500000Y-113600000D02*
X169140000Y-117240000D01*
X153000000Y-94000000D02*
X153000000Y-84975000D01*
X165487000Y-101538980D02*
X165487000Y-102461020D01*
X165500000Y-101525980D02*
X165487000Y-101538980D01*
X165500000Y-99650000D02*
X165500000Y-101525980D01*
X165487000Y-102461020D02*
X165500000Y-102474020D01*
X165500000Y-102474020D02*
X165500000Y-113600000D01*
G04 #@! TA.AperFunction,Conductor*
G36*
X199942539Y-82020185D02*
G01*
X199988294Y-82072989D01*
X199999500Y-82124500D01*
X199999500Y-103780192D01*
X199979815Y-103847231D01*
X199927011Y-103892986D01*
X199857853Y-103902930D01*
X199794297Y-103873905D01*
X199787819Y-103867873D01*
X198685124Y-102765178D01*
X198651639Y-102703855D01*
X198650332Y-102658098D01*
X198660901Y-102591370D01*
X198660901Y-102408630D01*
X198632316Y-102228159D01*
X198632316Y-102228156D01*
X198575849Y-102054370D01*
X198492892Y-101891557D01*
X198385486Y-101743725D01*
X198256277Y-101614516D01*
X198236734Y-101600317D01*
X198194069Y-101544989D01*
X198188090Y-101475375D01*
X198220695Y-101413580D01*
X198236731Y-101399685D01*
X198256277Y-101385485D01*
X198385486Y-101256276D01*
X198492892Y-101108444D01*
X198575849Y-100945631D01*
X198632316Y-100771845D01*
X198651894Y-100648233D01*
X198660901Y-100591370D01*
X198660901Y-100408632D01*
X198657082Y-100384526D01*
X198650331Y-100341900D01*
X198659285Y-100272609D01*
X198685118Y-100234827D01*
X199016678Y-99903269D01*
X199087867Y-99796726D01*
X199109821Y-99743724D01*
X199122104Y-99714070D01*
X199122104Y-99714069D01*
X199136902Y-99678344D01*
X199149600Y-99614510D01*
X199161901Y-99552671D01*
X199161901Y-98016994D01*
X199136903Y-97891327D01*
X199136902Y-97891326D01*
X199136902Y-97891322D01*
X199115179Y-97838879D01*
X199104534Y-97813180D01*
X199087868Y-97772943D01*
X199087867Y-97772940D01*
X199077786Y-97757853D01*
X199016679Y-97666398D01*
X199016673Y-97666391D01*
X198333610Y-96983328D01*
X198333603Y-96983323D01*
X198227064Y-96912137D01*
X198108681Y-96863101D01*
X198108675Y-96863099D01*
X197983008Y-96838102D01*
X197983006Y-96838102D01*
X194947329Y-96838102D01*
X194947327Y-96838102D01*
X194821659Y-96863099D01*
X194821649Y-96863102D01*
X194794136Y-96874499D01*
X194703279Y-96912132D01*
X194703261Y-96912142D01*
X194596730Y-96983323D01*
X194596723Y-96983329D01*
X177266873Y-114313181D01*
X177205550Y-114346666D01*
X177179192Y-114349500D01*
X171397757Y-114349500D01*
X171330718Y-114329815D01*
X171284963Y-114277011D01*
X171275019Y-114207853D01*
X171276140Y-114201308D01*
X171300500Y-114078844D01*
X171300500Y-113921155D01*
X171300499Y-113921153D01*
X171283688Y-113836641D01*
X171269737Y-113766503D01*
X171252810Y-113725637D01*
X171209397Y-113620828D01*
X171209396Y-113620827D01*
X171209394Y-113620821D01*
X171171396Y-113563953D01*
X171150520Y-113497276D01*
X171150500Y-113495064D01*
X171150500Y-103326097D01*
X171170185Y-103259058D01*
X171222989Y-103213303D01*
X171292147Y-103203359D01*
X171312810Y-103208163D01*
X171384364Y-103231413D01*
X171580639Y-103262500D01*
X171580640Y-103262500D01*
X171779360Y-103262500D01*
X171779361Y-103262500D01*
X171975636Y-103231413D01*
X172164632Y-103170005D01*
X172341694Y-103079787D01*
X172502464Y-102962981D01*
X172642981Y-102822464D01*
X172759787Y-102661694D01*
X172839515Y-102505218D01*
X172887490Y-102454423D01*
X172955311Y-102437628D01*
X173021446Y-102460165D01*
X173060484Y-102505218D01*
X173140213Y-102661694D01*
X173257019Y-102822464D01*
X173397536Y-102962981D01*
X173558306Y-103079787D01*
X173645149Y-103124035D01*
X173735367Y-103170005D01*
X173735370Y-103170006D01*
X173829866Y-103200709D01*
X173924364Y-103231413D01*
X174120639Y-103262500D01*
X174120640Y-103262500D01*
X174319360Y-103262500D01*
X174319361Y-103262500D01*
X174515636Y-103231413D01*
X174704632Y-103170005D01*
X174881694Y-103079787D01*
X175042464Y-102962981D01*
X175182981Y-102822464D01*
X175299787Y-102661694D01*
X175379515Y-102505218D01*
X175427490Y-102454423D01*
X175495311Y-102437628D01*
X175561446Y-102460165D01*
X175600484Y-102505218D01*
X175680213Y-102661694D01*
X175797019Y-102822464D01*
X175937536Y-102962981D01*
X176098306Y-103079787D01*
X176185149Y-103124035D01*
X176275367Y-103170005D01*
X176275370Y-103170006D01*
X176369866Y-103200709D01*
X176464364Y-103231413D01*
X176660639Y-103262500D01*
X176660640Y-103262500D01*
X176859360Y-103262500D01*
X176859361Y-103262500D01*
X177055636Y-103231413D01*
X177244632Y-103170005D01*
X177421694Y-103079787D01*
X177582464Y-102962981D01*
X177722981Y-102822464D01*
X177839787Y-102661694D01*
X177919515Y-102505218D01*
X177967490Y-102454423D01*
X178035311Y-102437628D01*
X178101446Y-102460165D01*
X178140484Y-102505218D01*
X178220213Y-102661694D01*
X178337019Y-102822464D01*
X178477536Y-102962981D01*
X178638306Y-103079787D01*
X178725149Y-103124035D01*
X178815367Y-103170005D01*
X178815370Y-103170006D01*
X178909866Y-103200709D01*
X179004364Y-103231413D01*
X179200639Y-103262500D01*
X179200640Y-103262500D01*
X179399360Y-103262500D01*
X179399361Y-103262500D01*
X179595636Y-103231413D01*
X179784632Y-103170005D01*
X179961694Y-103079787D01*
X180122464Y-102962981D01*
X180262981Y-102822464D01*
X180379787Y-102661694D01*
X180459515Y-102505218D01*
X180507490Y-102454423D01*
X180575311Y-102437628D01*
X180641446Y-102460165D01*
X180680484Y-102505218D01*
X180760213Y-102661694D01*
X180877019Y-102822464D01*
X181017536Y-102962981D01*
X181178306Y-103079787D01*
X181265149Y-103124035D01*
X181355367Y-103170005D01*
X181355370Y-103170006D01*
X181449866Y-103200709D01*
X181544364Y-103231413D01*
X181740639Y-103262500D01*
X181740640Y-103262500D01*
X181939360Y-103262500D01*
X181939361Y-103262500D01*
X182135636Y-103231413D01*
X182324632Y-103170005D01*
X182501694Y-103079787D01*
X182662464Y-102962981D01*
X182802981Y-102822464D01*
X182919787Y-102661694D01*
X182999515Y-102505218D01*
X183047490Y-102454423D01*
X183115311Y-102437628D01*
X183181446Y-102460165D01*
X183220484Y-102505218D01*
X183300213Y-102661694D01*
X183417019Y-102822464D01*
X183557536Y-102962981D01*
X183718306Y-103079787D01*
X183805149Y-103124035D01*
X183895367Y-103170005D01*
X183895370Y-103170006D01*
X183989866Y-103200709D01*
X184084364Y-103231413D01*
X184280639Y-103262500D01*
X184280640Y-103262500D01*
X184479360Y-103262500D01*
X184479361Y-103262500D01*
X184675636Y-103231413D01*
X184864632Y-103170005D01*
X185041694Y-103079787D01*
X185202464Y-102962981D01*
X185342981Y-102822464D01*
X185459787Y-102661694D01*
X185539515Y-102505218D01*
X185587490Y-102454423D01*
X185655311Y-102437628D01*
X185721446Y-102460165D01*
X185760484Y-102505218D01*
X185840213Y-102661694D01*
X185957019Y-102822464D01*
X186097536Y-102962981D01*
X186258306Y-103079787D01*
X186345149Y-103124035D01*
X186435367Y-103170005D01*
X186435370Y-103170006D01*
X186529866Y-103200709D01*
X186624364Y-103231413D01*
X186820639Y-103262500D01*
X186820640Y-103262500D01*
X187019360Y-103262500D01*
X187019361Y-103262500D01*
X187215636Y-103231413D01*
X187404632Y-103170005D01*
X187581694Y-103079787D01*
X187742464Y-102962981D01*
X187882981Y-102822464D01*
X187999787Y-102661694D01*
X188090005Y-102484632D01*
X188151413Y-102295636D01*
X188182500Y-102099361D01*
X188182500Y-101900639D01*
X188151413Y-101704364D01*
X188099820Y-101545576D01*
X188090006Y-101515370D01*
X188090005Y-101515367D01*
X187999786Y-101338305D01*
X187940190Y-101256278D01*
X187882981Y-101177536D01*
X187742464Y-101037019D01*
X187581694Y-100920213D01*
X187533736Y-100895777D01*
X187404632Y-100829994D01*
X187404629Y-100829993D01*
X187215637Y-100768587D01*
X187117498Y-100753043D01*
X187019361Y-100737500D01*
X186820639Y-100737500D01*
X186790832Y-100742221D01*
X186624362Y-100768587D01*
X186435370Y-100829993D01*
X186435367Y-100829994D01*
X186258305Y-100920213D01*
X186097533Y-101037021D01*
X185957021Y-101177533D01*
X185840213Y-101338305D01*
X185760485Y-101494780D01*
X185712510Y-101545576D01*
X185644689Y-101562371D01*
X185578554Y-101539833D01*
X185539515Y-101494780D01*
X185459786Y-101338305D01*
X185400190Y-101256278D01*
X185342981Y-101177536D01*
X185202464Y-101037019D01*
X185041694Y-100920213D01*
X184993736Y-100895777D01*
X184864632Y-100829994D01*
X184864629Y-100829993D01*
X184675637Y-100768587D01*
X184577498Y-100753043D01*
X184479361Y-100737500D01*
X184280639Y-100737500D01*
X184250832Y-100742221D01*
X184084362Y-100768587D01*
X183895370Y-100829993D01*
X183895367Y-100829994D01*
X183718305Y-100920213D01*
X183557533Y-101037021D01*
X183417021Y-101177533D01*
X183300213Y-101338305D01*
X183220485Y-101494780D01*
X183172510Y-101545576D01*
X183104689Y-101562371D01*
X183038554Y-101539833D01*
X182999515Y-101494780D01*
X182919786Y-101338305D01*
X182860190Y-101256278D01*
X182802981Y-101177536D01*
X182662464Y-101037019D01*
X182501694Y-100920213D01*
X182453736Y-100895777D01*
X182324632Y-100829994D01*
X182324629Y-100829993D01*
X182135637Y-100768587D01*
X182037498Y-100753043D01*
X181939361Y-100737500D01*
X181740639Y-100737500D01*
X181710832Y-100742221D01*
X181544362Y-100768587D01*
X181355370Y-100829993D01*
X181355367Y-100829994D01*
X181178305Y-100920213D01*
X181017533Y-101037021D01*
X180877021Y-101177533D01*
X180760213Y-101338305D01*
X180680485Y-101494780D01*
X180632510Y-101545576D01*
X180564689Y-101562371D01*
X180498554Y-101539833D01*
X180459515Y-101494780D01*
X180379786Y-101338305D01*
X180320190Y-101256278D01*
X180262981Y-101177536D01*
X180122464Y-101037019D01*
X179961694Y-100920213D01*
X179913736Y-100895777D01*
X179784632Y-100829994D01*
X179784629Y-100829993D01*
X179595637Y-100768587D01*
X179497498Y-100753043D01*
X179399361Y-100737500D01*
X179200639Y-100737500D01*
X179170832Y-100742221D01*
X179004362Y-100768587D01*
X178815370Y-100829993D01*
X178815367Y-100829994D01*
X178638305Y-100920213D01*
X178477533Y-101037021D01*
X178337021Y-101177533D01*
X178220213Y-101338305D01*
X178140485Y-101494780D01*
X178092510Y-101545576D01*
X178024689Y-101562371D01*
X177958554Y-101539833D01*
X177919515Y-101494780D01*
X177839786Y-101338305D01*
X177780190Y-101256278D01*
X177722981Y-101177536D01*
X177582464Y-101037019D01*
X177421694Y-100920213D01*
X177373736Y-100895777D01*
X177244632Y-100829994D01*
X177244629Y-100829993D01*
X177055637Y-100768587D01*
X176957498Y-100753043D01*
X176859361Y-100737500D01*
X176660639Y-100737500D01*
X176630832Y-100742221D01*
X176464362Y-100768587D01*
X176275370Y-100829993D01*
X176275367Y-100829994D01*
X176098305Y-100920213D01*
X175937533Y-101037021D01*
X175797021Y-101177533D01*
X175680213Y-101338305D01*
X175600485Y-101494780D01*
X175552510Y-101545576D01*
X175484689Y-101562371D01*
X175418554Y-101539833D01*
X175379515Y-101494780D01*
X175299786Y-101338305D01*
X175240190Y-101256278D01*
X175182981Y-101177536D01*
X175042464Y-101037019D01*
X174881694Y-100920213D01*
X174833736Y-100895777D01*
X174704632Y-100829994D01*
X174704629Y-100829993D01*
X174515637Y-100768587D01*
X174417498Y-100753043D01*
X174319361Y-100737500D01*
X174120639Y-100737500D01*
X174090832Y-100742221D01*
X173924362Y-100768587D01*
X173735370Y-100829993D01*
X173735367Y-100829994D01*
X173558305Y-100920213D01*
X173397533Y-101037021D01*
X173257021Y-101177533D01*
X173140213Y-101338305D01*
X173060485Y-101494780D01*
X173012510Y-101545576D01*
X172944689Y-101562371D01*
X172878554Y-101539833D01*
X172839515Y-101494780D01*
X172759786Y-101338305D01*
X172700190Y-101256278D01*
X172642981Y-101177536D01*
X172502464Y-101037019D01*
X172341694Y-100920213D01*
X172293736Y-100895777D01*
X172164632Y-100829994D01*
X172164629Y-100829993D01*
X171975637Y-100768587D01*
X171877498Y-100753043D01*
X171779361Y-100737500D01*
X171631807Y-100737500D01*
X171564768Y-100717815D01*
X171519013Y-100665011D01*
X171509069Y-100595853D01*
X171538094Y-100532297D01*
X171544126Y-100525819D01*
X171797336Y-100272609D01*
X172102931Y-99967013D01*
X172164252Y-99933530D01*
X172166317Y-99933099D01*
X172233497Y-99919737D01*
X172379179Y-99859394D01*
X172510289Y-99771789D01*
X172621789Y-99660289D01*
X172709394Y-99529179D01*
X172769737Y-99383497D01*
X172787908Y-99292147D01*
X172796231Y-99250308D01*
X172828616Y-99188397D01*
X172889332Y-99153823D01*
X172917848Y-99150500D01*
X175064071Y-99150500D01*
X175148615Y-99133682D01*
X175189744Y-99125501D01*
X175308127Y-99076465D01*
X175310307Y-99075008D01*
X175312516Y-99073533D01*
X175380616Y-99028029D01*
X175414669Y-99005277D01*
X177005276Y-97414670D01*
X177076465Y-97308127D01*
X177125501Y-97189744D01*
X177127345Y-97180475D01*
X177132735Y-97153382D01*
X177150500Y-97064071D01*
X177150500Y-93887429D01*
X183207678Y-93887429D01*
X183214079Y-93946957D01*
X183214081Y-93946964D01*
X183264323Y-94081671D01*
X183264327Y-94081678D01*
X183350487Y-94196772D01*
X183350490Y-94196775D01*
X183465584Y-94282935D01*
X183465591Y-94282939D01*
X183600298Y-94333181D01*
X183600305Y-94333183D01*
X183659833Y-94339584D01*
X183659850Y-94339585D01*
X184757678Y-94339585D01*
X184757678Y-94243139D01*
X184757677Y-94243138D01*
X185257678Y-94243138D01*
X185257678Y-94339585D01*
X186355506Y-94339585D01*
X186355522Y-94339584D01*
X186415050Y-94333183D01*
X186415057Y-94333181D01*
X186549764Y-94282939D01*
X186549771Y-94282935D01*
X186664865Y-94196775D01*
X186664868Y-94196772D01*
X186751028Y-94081678D01*
X186751032Y-94081671D01*
X186801274Y-93946964D01*
X186801276Y-93946957D01*
X186807677Y-93887429D01*
X186807678Y-93887412D01*
X186807678Y-92439585D01*
X186261231Y-92439585D01*
X186414989Y-92593343D01*
X186448474Y-92654666D01*
X186443490Y-92724358D01*
X186414990Y-92768705D01*
X186344110Y-92839585D01*
X186414990Y-92910465D01*
X186448475Y-92971788D01*
X186443491Y-93041480D01*
X186414990Y-93085827D01*
X185257678Y-94243138D01*
X184757677Y-94243138D01*
X183971303Y-93456764D01*
X184192678Y-93456764D01*
X184192678Y-93522406D01*
X184217797Y-93583050D01*
X184264213Y-93629466D01*
X184324857Y-93654585D01*
X184390499Y-93654585D01*
X184451143Y-93629466D01*
X184497559Y-93583050D01*
X184522678Y-93522406D01*
X184522678Y-93489585D01*
X184711232Y-93489585D01*
X184757678Y-93536030D01*
X184757678Y-93536029D01*
X185257678Y-93536029D01*
X185304123Y-93489585D01*
X185271302Y-93456764D01*
X185492678Y-93456764D01*
X185492678Y-93522406D01*
X185517797Y-93583050D01*
X185564213Y-93629466D01*
X185624857Y-93654585D01*
X185690499Y-93654585D01*
X185751143Y-93629466D01*
X185797559Y-93583050D01*
X185822678Y-93522406D01*
X185822678Y-93456764D01*
X185797559Y-93396120D01*
X185751143Y-93349704D01*
X185690499Y-93324585D01*
X185624857Y-93324585D01*
X185564213Y-93349704D01*
X185517797Y-93396120D01*
X185492678Y-93456764D01*
X185271302Y-93456764D01*
X185257678Y-93443140D01*
X185257678Y-93536029D01*
X184757678Y-93536029D01*
X184757678Y-93443139D01*
X184711232Y-93489585D01*
X184522678Y-93489585D01*
X184522678Y-93456764D01*
X184497559Y-93396120D01*
X184451143Y-93349704D01*
X184390499Y-93324585D01*
X184324857Y-93324585D01*
X184264213Y-93349704D01*
X184217797Y-93396120D01*
X184192678Y-93456764D01*
X183971303Y-93456764D01*
X183600366Y-93085827D01*
X183566881Y-93024504D01*
X183571865Y-92954812D01*
X183577613Y-92941752D01*
X183629785Y-92839585D01*
X184061232Y-92839585D01*
X184357678Y-93136031D01*
X184654124Y-92839585D01*
X185361232Y-92839585D01*
X185657678Y-93136031D01*
X185954124Y-92839585D01*
X185657678Y-92543139D01*
X185361232Y-92839585D01*
X184654124Y-92839585D01*
X184357678Y-92543139D01*
X184061232Y-92839585D01*
X183629785Y-92839585D01*
X183643800Y-92812139D01*
X183600366Y-92768705D01*
X183566881Y-92707382D01*
X183571865Y-92637690D01*
X183600366Y-92593343D01*
X183754124Y-92439585D01*
X183207678Y-92439585D01*
X183207678Y-93887429D01*
X177150500Y-93887429D01*
X177150500Y-92820807D01*
X177170185Y-92753768D01*
X177186815Y-92733130D01*
X177602931Y-92317013D01*
X177619096Y-92308186D01*
X177632250Y-92295288D01*
X177662542Y-92284463D01*
X177664252Y-92283530D01*
X177665438Y-92283278D01*
X177665876Y-92283186D01*
X177733497Y-92269737D01*
X177879179Y-92209394D01*
X177957945Y-92156764D01*
X184192678Y-92156764D01*
X184192678Y-92222406D01*
X184217797Y-92283050D01*
X184264213Y-92329466D01*
X184324857Y-92354585D01*
X184390499Y-92354585D01*
X184451143Y-92329466D01*
X184497559Y-92283050D01*
X184522678Y-92222406D01*
X184522678Y-92156764D01*
X185492678Y-92156764D01*
X185492678Y-92222406D01*
X185517797Y-92283050D01*
X185564213Y-92329466D01*
X185624857Y-92354585D01*
X185690499Y-92354585D01*
X185751143Y-92329466D01*
X185797559Y-92283050D01*
X185822678Y-92222406D01*
X185822678Y-92156764D01*
X185797559Y-92096120D01*
X185751143Y-92049704D01*
X185690499Y-92024585D01*
X185624857Y-92024585D01*
X185564213Y-92049704D01*
X185517797Y-92096120D01*
X185492678Y-92156764D01*
X184522678Y-92156764D01*
X184497559Y-92096120D01*
X184451143Y-92049704D01*
X184390499Y-92024585D01*
X184324857Y-92024585D01*
X184264213Y-92049704D01*
X184217797Y-92096120D01*
X184192678Y-92156764D01*
X177957945Y-92156764D01*
X178010289Y-92121789D01*
X178121789Y-92010289D01*
X178209394Y-91879179D01*
X178269737Y-91733497D01*
X178300500Y-91578842D01*
X178300500Y-91421158D01*
X178300500Y-91421155D01*
X178300499Y-91421153D01*
X178269738Y-91266510D01*
X178269738Y-91266508D01*
X178269737Y-91266503D01*
X178269735Y-91266498D01*
X178209397Y-91120827D01*
X178209390Y-91120814D01*
X178121789Y-90989711D01*
X178121786Y-90989707D01*
X178010292Y-90878213D01*
X178010288Y-90878210D01*
X177879185Y-90790609D01*
X177879172Y-90790602D01*
X177733501Y-90730264D01*
X177733489Y-90730261D01*
X177578845Y-90699500D01*
X177578842Y-90699500D01*
X177421158Y-90699500D01*
X177421155Y-90699500D01*
X177266510Y-90730261D01*
X177266498Y-90730264D01*
X177120827Y-90790602D01*
X177120814Y-90790609D01*
X176989711Y-90878210D01*
X176989707Y-90878213D01*
X176878213Y-90989707D01*
X176878210Y-90989711D01*
X176790609Y-91120814D01*
X176790602Y-91120827D01*
X176730264Y-91266498D01*
X176730261Y-91266508D01*
X176716920Y-91333579D01*
X176684535Y-91395490D01*
X176682984Y-91397068D01*
X175994725Y-92085328D01*
X175994724Y-92085329D01*
X175970365Y-92121786D01*
X175935420Y-92174086D01*
X175923535Y-92191873D01*
X175923533Y-92191876D01*
X175921691Y-92196323D01*
X175877846Y-92250723D01*
X175811550Y-92272783D01*
X175743852Y-92255499D01*
X175719452Y-92236543D01*
X175685707Y-92202798D01*
X175685703Y-92202795D01*
X175554600Y-92115194D01*
X175554587Y-92115187D01*
X175408916Y-92054849D01*
X175408904Y-92054846D01*
X175254260Y-92024085D01*
X175254257Y-92024085D01*
X175096573Y-92024085D01*
X175096570Y-92024085D01*
X174941925Y-92054846D01*
X174941913Y-92054849D01*
X174796242Y-92115187D01*
X174796229Y-92115194D01*
X174665126Y-92202795D01*
X174665122Y-92202798D01*
X174553628Y-92314292D01*
X174553625Y-92314296D01*
X174466024Y-92445399D01*
X174466017Y-92445412D01*
X174405679Y-92591083D01*
X174405676Y-92591093D01*
X174392335Y-92658164D01*
X174359950Y-92720075D01*
X174358399Y-92721653D01*
X173994722Y-93085331D01*
X173994717Y-93085337D01*
X173971452Y-93120158D01*
X173971448Y-93120164D01*
X173967883Y-93125501D01*
X173923535Y-93191873D01*
X173886852Y-93280431D01*
X173884161Y-93285531D01*
X173863666Y-93306612D01*
X173845220Y-93329503D01*
X173839592Y-93331376D01*
X173835458Y-93335629D01*
X173806820Y-93342283D01*
X173778926Y-93351568D01*
X173773179Y-93350101D01*
X173767401Y-93351444D01*
X173739710Y-93341559D01*
X173711226Y-93334289D01*
X173707184Y-93329947D01*
X173701599Y-93327954D01*
X173683649Y-93304669D01*
X173663616Y-93283151D01*
X173662092Y-93276704D01*
X173658942Y-93272617D01*
X173657698Y-93258107D01*
X173650500Y-93227647D01*
X173650500Y-90491740D01*
X183207678Y-90491740D01*
X183207678Y-91939585D01*
X183754124Y-91939585D01*
X183754124Y-91939584D01*
X183600366Y-91785826D01*
X183566881Y-91724503D01*
X183571865Y-91654811D01*
X183577613Y-91641751D01*
X183629785Y-91539585D01*
X184061232Y-91539585D01*
X184357678Y-91836031D01*
X184654124Y-91539585D01*
X185361232Y-91539585D01*
X185657678Y-91836031D01*
X185954124Y-91539585D01*
X185657678Y-91243139D01*
X185361232Y-91539585D01*
X184654124Y-91539585D01*
X184357678Y-91243139D01*
X184061232Y-91539585D01*
X183629785Y-91539585D01*
X183643800Y-91512139D01*
X183600366Y-91468705D01*
X183566881Y-91407382D01*
X183571865Y-91337690D01*
X183600366Y-91293343D01*
X184036945Y-90856764D01*
X184192678Y-90856764D01*
X184192678Y-90922406D01*
X184217797Y-90983050D01*
X184264213Y-91029466D01*
X184324857Y-91054585D01*
X184390499Y-91054585D01*
X184451143Y-91029466D01*
X184497559Y-90983050D01*
X184522678Y-90922406D01*
X184522678Y-90889585D01*
X184711232Y-90889585D01*
X184757678Y-90936030D01*
X184757678Y-90936029D01*
X185257678Y-90936029D01*
X185304123Y-90889585D01*
X185271302Y-90856764D01*
X185492678Y-90856764D01*
X185492678Y-90922406D01*
X185517797Y-90983050D01*
X185564213Y-91029466D01*
X185624857Y-91054585D01*
X185690499Y-91054585D01*
X185751143Y-91029466D01*
X185797559Y-90983050D01*
X185822678Y-90922406D01*
X185822678Y-90856764D01*
X185797559Y-90796120D01*
X185751143Y-90749704D01*
X185690499Y-90724585D01*
X185624857Y-90724585D01*
X185564213Y-90749704D01*
X185517797Y-90796120D01*
X185492678Y-90856764D01*
X185271302Y-90856764D01*
X185257678Y-90843140D01*
X185257678Y-90936029D01*
X184757678Y-90936029D01*
X184757678Y-90843139D01*
X184711232Y-90889585D01*
X184522678Y-90889585D01*
X184522678Y-90856764D01*
X184497559Y-90796120D01*
X184451143Y-90749704D01*
X184390499Y-90724585D01*
X184324857Y-90724585D01*
X184264213Y-90749704D01*
X184217797Y-90796120D01*
X184192678Y-90856764D01*
X184036945Y-90856764D01*
X184143167Y-90750542D01*
X184757677Y-90136031D01*
X185257678Y-90136031D01*
X186414990Y-91293343D01*
X186448475Y-91354666D01*
X186443491Y-91424358D01*
X186414990Y-91468705D01*
X186344110Y-91539585D01*
X186414989Y-91610464D01*
X186448474Y-91671787D01*
X186443490Y-91741479D01*
X186414989Y-91785826D01*
X186261231Y-91939583D01*
X186261232Y-91939585D01*
X186807678Y-91939585D01*
X186807678Y-90491757D01*
X186807677Y-90491740D01*
X186801276Y-90432212D01*
X186801274Y-90432205D01*
X186751032Y-90297498D01*
X186751028Y-90297491D01*
X186664868Y-90182397D01*
X186664865Y-90182394D01*
X186549771Y-90096234D01*
X186549764Y-90096230D01*
X186415057Y-90045988D01*
X186415050Y-90045986D01*
X186355522Y-90039585D01*
X185257678Y-90039585D01*
X185257678Y-90136031D01*
X184757677Y-90136031D01*
X184757678Y-90136030D01*
X184757678Y-90039585D01*
X183659833Y-90039585D01*
X183600305Y-90045986D01*
X183600298Y-90045988D01*
X183465591Y-90096230D01*
X183465584Y-90096234D01*
X183350490Y-90182394D01*
X183350487Y-90182397D01*
X183264327Y-90297491D01*
X183264323Y-90297498D01*
X183214081Y-90432205D01*
X183214079Y-90432212D01*
X183207678Y-90491740D01*
X173650500Y-90491740D01*
X173650500Y-86359617D01*
X173670185Y-86292578D01*
X173704592Y-86258902D01*
X173703874Y-86257914D01*
X173707811Y-86255053D01*
X173707816Y-86255051D01*
X173879792Y-86130104D01*
X174030104Y-85979792D01*
X174030106Y-85979788D01*
X174030109Y-85979786D01*
X174155048Y-85807820D01*
X174155047Y-85807820D01*
X174155051Y-85807816D01*
X174251557Y-85618412D01*
X174317246Y-85416243D01*
X174350500Y-85206287D01*
X174350500Y-84743713D01*
X174317246Y-84533757D01*
X174251557Y-84331588D01*
X174184501Y-84199983D01*
X182378610Y-84199983D01*
X182378610Y-85800001D01*
X182378611Y-85800018D01*
X182389110Y-85902796D01*
X182389111Y-85902799D01*
X182435004Y-86041294D01*
X182444296Y-86069334D01*
X182536398Y-86218656D01*
X182660454Y-86342712D01*
X182809776Y-86434814D01*
X182976313Y-86489999D01*
X183079101Y-86500500D01*
X184379118Y-86500499D01*
X184481907Y-86489999D01*
X184648444Y-86434814D01*
X184797766Y-86342712D01*
X184921822Y-86218656D01*
X185013924Y-86069334D01*
X185013924Y-86069331D01*
X185017288Y-86063879D01*
X185069236Y-86017154D01*
X185138198Y-86005931D01*
X185202280Y-86033774D01*
X185210508Y-86041294D01*
X185349323Y-86180109D01*
X185521289Y-86305048D01*
X185521291Y-86305049D01*
X185521294Y-86305051D01*
X185710698Y-86401557D01*
X185912867Y-86467246D01*
X186122823Y-86500500D01*
X186122824Y-86500500D01*
X186335396Y-86500500D01*
X186335397Y-86500500D01*
X186545353Y-86467246D01*
X186747522Y-86401557D01*
X186936926Y-86305051D01*
X187005750Y-86255048D01*
X187108896Y-86180109D01*
X187108898Y-86180106D01*
X187108902Y-86180104D01*
X187259214Y-86029792D01*
X187259216Y-86029788D01*
X187259219Y-86029786D01*
X187364213Y-85885272D01*
X187364223Y-85885258D01*
X193749500Y-85885258D01*
X193749500Y-86114741D01*
X193763182Y-86218657D01*
X193779452Y-86342238D01*
X193821858Y-86500500D01*
X193838842Y-86563887D01*
X193926650Y-86775876D01*
X193926657Y-86775890D01*
X194041392Y-86974617D01*
X194181081Y-87156661D01*
X194181089Y-87156670D01*
X194343330Y-87318911D01*
X194343338Y-87318918D01*
X194525382Y-87458607D01*
X194525385Y-87458608D01*
X194525388Y-87458611D01*
X194724112Y-87573344D01*
X194724117Y-87573346D01*
X194724123Y-87573349D01*
X194815480Y-87611190D01*
X194936113Y-87661158D01*
X195157762Y-87720548D01*
X195385266Y-87750500D01*
X195385273Y-87750500D01*
X195614727Y-87750500D01*
X195614734Y-87750500D01*
X195842238Y-87720548D01*
X196063887Y-87661158D01*
X196275888Y-87573344D01*
X196474612Y-87458611D01*
X196656661Y-87318919D01*
X196656665Y-87318914D01*
X196656670Y-87318911D01*
X196818911Y-87156670D01*
X196818914Y-87156665D01*
X196818919Y-87156661D01*
X196958611Y-86974612D01*
X197073344Y-86775888D01*
X197161158Y-86563887D01*
X197220548Y-86342238D01*
X197250500Y-86114734D01*
X197250500Y-85885266D01*
X197220548Y-85657762D01*
X197161158Y-85436113D01*
X197090967Y-85266657D01*
X197073349Y-85224123D01*
X197073346Y-85224117D01*
X197073344Y-85224112D01*
X196958611Y-85025388D01*
X196958608Y-85025385D01*
X196958607Y-85025382D01*
X196818918Y-84843338D01*
X196818911Y-84843330D01*
X196656670Y-84681089D01*
X196656661Y-84681081D01*
X196474617Y-84541392D01*
X196458990Y-84532370D01*
X196275888Y-84426656D01*
X196275876Y-84426650D01*
X196063887Y-84338842D01*
X195980911Y-84316609D01*
X195842238Y-84279452D01*
X195804215Y-84274446D01*
X195614741Y-84249500D01*
X195614734Y-84249500D01*
X195385266Y-84249500D01*
X195385258Y-84249500D01*
X195168715Y-84278009D01*
X195157762Y-84279452D01*
X195064076Y-84304554D01*
X194936112Y-84338842D01*
X194724123Y-84426650D01*
X194724109Y-84426657D01*
X194525382Y-84541392D01*
X194343338Y-84681081D01*
X194181081Y-84843338D01*
X194041392Y-85025382D01*
X193926657Y-85224109D01*
X193926650Y-85224123D01*
X193838842Y-85436112D01*
X193779453Y-85657759D01*
X193779451Y-85657770D01*
X193749500Y-85885258D01*
X187364223Y-85885258D01*
X187384161Y-85857816D01*
X187480667Y-85668412D01*
X187546356Y-85466243D01*
X187579610Y-85256287D01*
X187579610Y-84743713D01*
X187546356Y-84533757D01*
X187480667Y-84331588D01*
X187384161Y-84142184D01*
X187384159Y-84142181D01*
X187384158Y-84142179D01*
X187259219Y-83970213D01*
X187108896Y-83819890D01*
X186936930Y-83694951D01*
X186747524Y-83598444D01*
X186747523Y-83598443D01*
X186747522Y-83598443D01*
X186545353Y-83532754D01*
X186545351Y-83532753D01*
X186545350Y-83532753D01*
X186384067Y-83507208D01*
X186335397Y-83499500D01*
X186122823Y-83499500D01*
X186074152Y-83507208D01*
X185912870Y-83532753D01*
X185710695Y-83598444D01*
X185521289Y-83694951D01*
X185349325Y-83819889D01*
X185210508Y-83958706D01*
X185149185Y-83992190D01*
X185079493Y-83987206D01*
X185023560Y-83945334D01*
X185017288Y-83936120D01*
X184921822Y-83781344D01*
X184797767Y-83657289D01*
X184797766Y-83657288D01*
X184648444Y-83565186D01*
X184481907Y-83510001D01*
X184481905Y-83510000D01*
X184379120Y-83499500D01*
X183079108Y-83499500D01*
X183079091Y-83499501D01*
X182976313Y-83510000D01*
X182976310Y-83510001D01*
X182809778Y-83565185D01*
X182809773Y-83565187D01*
X182660452Y-83657289D01*
X182536399Y-83781342D01*
X182444297Y-83930663D01*
X182444295Y-83930668D01*
X182442368Y-83936484D01*
X182389111Y-84097203D01*
X182389111Y-84097204D01*
X182389110Y-84097204D01*
X182378610Y-84199983D01*
X174184501Y-84199983D01*
X174155051Y-84142184D01*
X174155049Y-84142181D01*
X174155048Y-84142179D01*
X174030109Y-83970213D01*
X173879786Y-83819890D01*
X173707820Y-83694951D01*
X173518414Y-83598444D01*
X173518413Y-83598443D01*
X173518412Y-83598443D01*
X173316243Y-83532754D01*
X173316241Y-83532753D01*
X173316240Y-83532753D01*
X173154957Y-83507208D01*
X173106287Y-83499500D01*
X172893713Y-83499500D01*
X172845042Y-83507208D01*
X172683760Y-83532753D01*
X172481585Y-83598444D01*
X172292179Y-83694951D01*
X172120213Y-83819890D01*
X171969894Y-83970209D01*
X171969890Y-83970214D01*
X171850318Y-84134793D01*
X171794989Y-84177459D01*
X171725375Y-84183438D01*
X171663580Y-84150833D01*
X171649682Y-84134793D01*
X171530109Y-83970214D01*
X171530105Y-83970209D01*
X171379786Y-83819890D01*
X171207820Y-83694951D01*
X171018414Y-83598444D01*
X171018413Y-83598443D01*
X171018412Y-83598443D01*
X170816243Y-83532754D01*
X170816241Y-83532753D01*
X170816240Y-83532753D01*
X170654957Y-83507208D01*
X170606287Y-83499500D01*
X170393713Y-83499500D01*
X170345042Y-83507208D01*
X170183760Y-83532753D01*
X169981585Y-83598444D01*
X169792179Y-83694951D01*
X169620215Y-83819889D01*
X169481035Y-83959069D01*
X169419712Y-83992553D01*
X169350020Y-83987569D01*
X169294087Y-83945697D01*
X169287815Y-83936484D01*
X169192315Y-83781654D01*
X169068345Y-83657684D01*
X168919124Y-83565643D01*
X168919119Y-83565641D01*
X168752697Y-83510494D01*
X168752690Y-83510493D01*
X168649986Y-83500000D01*
X168250000Y-83500000D01*
X168250000Y-84570854D01*
X168183343Y-84532370D01*
X168062535Y-84500000D01*
X167937465Y-84500000D01*
X167816657Y-84532370D01*
X167750000Y-84570854D01*
X167750000Y-83500000D01*
X167350028Y-83500000D01*
X167350012Y-83500001D01*
X167247302Y-83510494D01*
X167080880Y-83565641D01*
X167080875Y-83565643D01*
X166931654Y-83657684D01*
X166807684Y-83781654D01*
X166715643Y-83930875D01*
X166715641Y-83930880D01*
X166660494Y-84097302D01*
X166660493Y-84097309D01*
X166650000Y-84200013D01*
X166650000Y-84725000D01*
X167595854Y-84725000D01*
X167557370Y-84791657D01*
X167525000Y-84912465D01*
X167525000Y-85037535D01*
X167557370Y-85158343D01*
X167595854Y-85225000D01*
X166650001Y-85225000D01*
X166650001Y-85749986D01*
X166660494Y-85852697D01*
X166715641Y-86019119D01*
X166715643Y-86019124D01*
X166807684Y-86168345D01*
X166931654Y-86292315D01*
X167080875Y-86384356D01*
X167080880Y-86384358D01*
X167247302Y-86439505D01*
X167247309Y-86439506D01*
X167350019Y-86449999D01*
X167749999Y-86449999D01*
X167750000Y-86449998D01*
X167750000Y-85379145D01*
X167816657Y-85417630D01*
X167937465Y-85450000D01*
X168062535Y-85450000D01*
X168183343Y-85417630D01*
X168250000Y-85379145D01*
X168250000Y-86449999D01*
X168649972Y-86449999D01*
X168649986Y-86449998D01*
X168752697Y-86439505D01*
X168919119Y-86384358D01*
X168919124Y-86384356D01*
X169068345Y-86292315D01*
X169192317Y-86168343D01*
X169287815Y-86013516D01*
X169339763Y-85966791D01*
X169408725Y-85955568D01*
X169472808Y-85983412D01*
X169481035Y-85990931D01*
X169620213Y-86130109D01*
X169792179Y-86255048D01*
X169792181Y-86255049D01*
X169792184Y-86255051D01*
X169981588Y-86351557D01*
X170183757Y-86417246D01*
X170393713Y-86450500D01*
X170393714Y-86450500D01*
X170606286Y-86450500D01*
X170606287Y-86450500D01*
X170816243Y-86417246D01*
X171018412Y-86351557D01*
X171207816Y-86255051D01*
X171229789Y-86239086D01*
X171379786Y-86130109D01*
X171379788Y-86130106D01*
X171379792Y-86130104D01*
X171530104Y-85979792D01*
X171649683Y-85815204D01*
X171705011Y-85772540D01*
X171774624Y-85766561D01*
X171836420Y-85799166D01*
X171850313Y-85815199D01*
X171969896Y-85979792D01*
X172120208Y-86130104D01*
X172292184Y-86255051D01*
X172292188Y-86255053D01*
X172296126Y-86257914D01*
X172295146Y-86259262D01*
X172337160Y-86305690D01*
X172349500Y-86359617D01*
X172349500Y-94395506D01*
X172329815Y-94462545D01*
X172277011Y-94508300D01*
X172207853Y-94518244D01*
X172187183Y-94513438D01*
X172149019Y-94501038D01*
X171970164Y-94472710D01*
X171970159Y-94472710D01*
X168090553Y-94472710D01*
X168090547Y-94472709D01*
X167909454Y-94472709D01*
X167909441Y-94472710D01*
X167904695Y-94472711D01*
X167904694Y-94472710D01*
X167904694Y-94472711D01*
X159911543Y-94472711D01*
X159911519Y-94472710D01*
X159906408Y-94472710D01*
X159725315Y-94472710D01*
X159725308Y-94472710D01*
X159720451Y-94473092D01*
X159720428Y-94472807D01*
X159709517Y-94473666D01*
X153855835Y-94473666D01*
X153788796Y-94453981D01*
X153743041Y-94401177D01*
X153733097Y-94332019D01*
X153741274Y-94302214D01*
X153765743Y-94243139D01*
X153769737Y-94233497D01*
X153800500Y-94078842D01*
X153800500Y-93921158D01*
X153800500Y-93921155D01*
X153800499Y-93921153D01*
X153793787Y-93887412D01*
X153769737Y-93766503D01*
X153765537Y-93756364D01*
X153709397Y-93620828D01*
X153709396Y-93620827D01*
X153709394Y-93620821D01*
X153671396Y-93563953D01*
X153650520Y-93497276D01*
X153650500Y-93495064D01*
X153650500Y-86359617D01*
X153670185Y-86292578D01*
X153704592Y-86258902D01*
X153703874Y-86257914D01*
X153707811Y-86255053D01*
X153707816Y-86255051D01*
X153879792Y-86130104D01*
X154030104Y-85979792D01*
X154030106Y-85979788D01*
X154030109Y-85979786D01*
X154155048Y-85807820D01*
X154155047Y-85807820D01*
X154155051Y-85807816D01*
X154251557Y-85618412D01*
X154317246Y-85416243D01*
X154350500Y-85206287D01*
X154350500Y-84743713D01*
X154317246Y-84533757D01*
X154251557Y-84331588D01*
X154243925Y-84316609D01*
X154211597Y-84253160D01*
X154211596Y-84253159D01*
X154173024Y-84177459D01*
X154155051Y-84142184D01*
X154122443Y-84097302D01*
X154030109Y-83970213D01*
X153879786Y-83819890D01*
X153707820Y-83694951D01*
X153518414Y-83598444D01*
X153518413Y-83598443D01*
X153518412Y-83598443D01*
X153316243Y-83532754D01*
X153316241Y-83532753D01*
X153316240Y-83532753D01*
X153154957Y-83507208D01*
X153106287Y-83499500D01*
X152893713Y-83499500D01*
X152845042Y-83507208D01*
X152683760Y-83532753D01*
X152481585Y-83598444D01*
X152292179Y-83694951D01*
X152120213Y-83819890D01*
X151969894Y-83970209D01*
X151969890Y-83970214D01*
X151850318Y-84134793D01*
X151794989Y-84177459D01*
X151725375Y-84183438D01*
X151663580Y-84150833D01*
X151649682Y-84134793D01*
X151530109Y-83970214D01*
X151530105Y-83970209D01*
X151379786Y-83819890D01*
X151207820Y-83694951D01*
X151018414Y-83598444D01*
X151018413Y-83598443D01*
X151018412Y-83598443D01*
X150816243Y-83532754D01*
X150816241Y-83532753D01*
X150816240Y-83532753D01*
X150654957Y-83507208D01*
X150606287Y-83499500D01*
X150393713Y-83499500D01*
X150345042Y-83507208D01*
X150183760Y-83532753D01*
X149981585Y-83598444D01*
X149792179Y-83694951D01*
X149620215Y-83819889D01*
X149481035Y-83959069D01*
X149419712Y-83992553D01*
X149350020Y-83987569D01*
X149294087Y-83945697D01*
X149287815Y-83936484D01*
X149192315Y-83781654D01*
X149068345Y-83657684D01*
X148919124Y-83565643D01*
X148919119Y-83565641D01*
X148752697Y-83510494D01*
X148752690Y-83510493D01*
X148649986Y-83500000D01*
X148250000Y-83500000D01*
X148250000Y-84570854D01*
X148183343Y-84532370D01*
X148062535Y-84500000D01*
X147937465Y-84500000D01*
X147816657Y-84532370D01*
X147750000Y-84570854D01*
X147750000Y-83500000D01*
X147350028Y-83500000D01*
X147350012Y-83500001D01*
X147247302Y-83510494D01*
X147080880Y-83565641D01*
X147080875Y-83565643D01*
X146931654Y-83657684D01*
X146807684Y-83781654D01*
X146715643Y-83930875D01*
X146715641Y-83930880D01*
X146660494Y-84097302D01*
X146660493Y-84097309D01*
X146650000Y-84200013D01*
X146650000Y-84725000D01*
X147595854Y-84725000D01*
X147557370Y-84791657D01*
X147525000Y-84912465D01*
X147525000Y-85037535D01*
X147557370Y-85158343D01*
X147595854Y-85225000D01*
X146650001Y-85225000D01*
X146650001Y-85749986D01*
X146660494Y-85852697D01*
X146715641Y-86019119D01*
X146715643Y-86019124D01*
X146807684Y-86168345D01*
X146931654Y-86292315D01*
X147080875Y-86384356D01*
X147080880Y-86384358D01*
X147247302Y-86439505D01*
X147247309Y-86439506D01*
X147350019Y-86449999D01*
X147749999Y-86449999D01*
X147750000Y-86449998D01*
X147750000Y-85379145D01*
X147816657Y-85417630D01*
X147937465Y-85450000D01*
X148062535Y-85450000D01*
X148183343Y-85417630D01*
X148250000Y-85379145D01*
X148250000Y-86449999D01*
X148649972Y-86449999D01*
X148649986Y-86449998D01*
X148752697Y-86439505D01*
X148919119Y-86384358D01*
X148919124Y-86384356D01*
X149068345Y-86292315D01*
X149192317Y-86168343D01*
X149287815Y-86013516D01*
X149339763Y-85966791D01*
X149408725Y-85955568D01*
X149472808Y-85983412D01*
X149481035Y-85990931D01*
X149620213Y-86130109D01*
X149792179Y-86255048D01*
X149792181Y-86255049D01*
X149792184Y-86255051D01*
X149981588Y-86351557D01*
X150183757Y-86417246D01*
X150393713Y-86450500D01*
X150393714Y-86450500D01*
X150606286Y-86450500D01*
X150606287Y-86450500D01*
X150816243Y-86417246D01*
X151018412Y-86351557D01*
X151207816Y-86255051D01*
X151229789Y-86239086D01*
X151379786Y-86130109D01*
X151379788Y-86130106D01*
X151379792Y-86130104D01*
X151530104Y-85979792D01*
X151649683Y-85815204D01*
X151705011Y-85772540D01*
X151774624Y-85766561D01*
X151836420Y-85799166D01*
X151850313Y-85815199D01*
X151969896Y-85979792D01*
X152120208Y-86130104D01*
X152292184Y-86255051D01*
X152292188Y-86255053D01*
X152296126Y-86257914D01*
X152295146Y-86259262D01*
X152337160Y-86305690D01*
X152349500Y-86359617D01*
X152349500Y-93495064D01*
X152329815Y-93562103D01*
X152328603Y-93563954D01*
X152290608Y-93620817D01*
X152290602Y-93620828D01*
X152230264Y-93766498D01*
X152230261Y-93766510D01*
X152199500Y-93921153D01*
X152199500Y-94078846D01*
X152230261Y-94233489D01*
X152230264Y-94233501D01*
X152258726Y-94302214D01*
X152266195Y-94371683D01*
X152234920Y-94434162D01*
X152174831Y-94469814D01*
X152144165Y-94473666D01*
X148409448Y-94473666D01*
X148293897Y-94491967D01*
X148224604Y-94483012D01*
X148171152Y-94438016D01*
X148150513Y-94371264D01*
X148150500Y-94369494D01*
X148150500Y-90935928D01*
X148125502Y-90810261D01*
X148125501Y-90810260D01*
X148125501Y-90810256D01*
X148076465Y-90691873D01*
X148005277Y-90585331D01*
X148005275Y-90585329D01*
X148005273Y-90585326D01*
X145414673Y-87994726D01*
X145308134Y-87923540D01*
X145308127Y-87923535D01*
X145189744Y-87874499D01*
X145189738Y-87874497D01*
X145064071Y-87849500D01*
X145064069Y-87849500D01*
X132064069Y-87849500D01*
X131435931Y-87849500D01*
X131435929Y-87849500D01*
X131310261Y-87874497D01*
X131310251Y-87874500D01*
X131261220Y-87894810D01*
X131191881Y-87923530D01*
X131191863Y-87923540D01*
X131085332Y-87994721D01*
X131085325Y-87994727D01*
X130397068Y-88682984D01*
X130335745Y-88716469D01*
X130333579Y-88716920D01*
X130266508Y-88730261D01*
X130266498Y-88730264D01*
X130120827Y-88790602D01*
X130120814Y-88790609D01*
X129989711Y-88878210D01*
X129989707Y-88878213D01*
X129878213Y-88989707D01*
X129878210Y-88989711D01*
X129790609Y-89120814D01*
X129790602Y-89120827D01*
X129730264Y-89266498D01*
X129730261Y-89266510D01*
X129699500Y-89421153D01*
X129699500Y-89578846D01*
X129730261Y-89733489D01*
X129730264Y-89733501D01*
X129790602Y-89879172D01*
X129790609Y-89879185D01*
X129878210Y-90010288D01*
X129878213Y-90010292D01*
X129989707Y-90121786D01*
X129989711Y-90121789D01*
X130120814Y-90209390D01*
X130120827Y-90209397D01*
X130247812Y-90261995D01*
X130266503Y-90269737D01*
X130406031Y-90297491D01*
X130421153Y-90300499D01*
X130421156Y-90300500D01*
X130421158Y-90300500D01*
X130578844Y-90300500D01*
X130578845Y-90300499D01*
X130733497Y-90269737D01*
X130741894Y-90266258D01*
X130752189Y-90261995D01*
X130879172Y-90209397D01*
X130879172Y-90209396D01*
X130879179Y-90209394D01*
X131010289Y-90121789D01*
X131121789Y-90010289D01*
X131209394Y-89879179D01*
X131269737Y-89733497D01*
X131283079Y-89666416D01*
X131315463Y-89604509D01*
X131316956Y-89602988D01*
X131733127Y-89186819D01*
X131794450Y-89153334D01*
X131820808Y-89150500D01*
X131935931Y-89150500D01*
X144679192Y-89150500D01*
X144746231Y-89170185D01*
X144766873Y-89186819D01*
X146813181Y-91233127D01*
X146846666Y-91294450D01*
X146849500Y-91320808D01*
X146849500Y-100686898D01*
X146829815Y-100753937D01*
X146777011Y-100799692D01*
X146707853Y-100809636D01*
X146687183Y-100804829D01*
X146575638Y-100768587D01*
X146575639Y-100768587D01*
X146409168Y-100742221D01*
X146379361Y-100737500D01*
X146180639Y-100737500D01*
X146150832Y-100742221D01*
X145984362Y-100768587D01*
X145795370Y-100829993D01*
X145795367Y-100829994D01*
X145618305Y-100920213D01*
X145457533Y-101037021D01*
X145317021Y-101177533D01*
X145200213Y-101338305D01*
X145120485Y-101494780D01*
X145072510Y-101545576D01*
X145004689Y-101562371D01*
X144938554Y-101539833D01*
X144899515Y-101494780D01*
X144819786Y-101338305D01*
X144760190Y-101256278D01*
X144702981Y-101177536D01*
X144562464Y-101037019D01*
X144401694Y-100920213D01*
X144353736Y-100895777D01*
X144224632Y-100829994D01*
X144224629Y-100829993D01*
X144035637Y-100768587D01*
X143937498Y-100753043D01*
X143839361Y-100737500D01*
X143640639Y-100737500D01*
X143610832Y-100742221D01*
X143444362Y-100768587D01*
X143255370Y-100829993D01*
X143255367Y-100829994D01*
X143078305Y-100920213D01*
X142917533Y-101037021D01*
X142777021Y-101177533D01*
X142660213Y-101338305D01*
X142580485Y-101494780D01*
X142532510Y-101545576D01*
X142464689Y-101562371D01*
X142398554Y-101539833D01*
X142359515Y-101494780D01*
X142279786Y-101338305D01*
X142220190Y-101256278D01*
X142162981Y-101177536D01*
X142022464Y-101037019D01*
X141861694Y-100920213D01*
X141813736Y-100895777D01*
X141684632Y-100829994D01*
X141684629Y-100829993D01*
X141495637Y-100768587D01*
X141397498Y-100753043D01*
X141299361Y-100737500D01*
X141100639Y-100737500D01*
X141070832Y-100742221D01*
X140904362Y-100768587D01*
X140715370Y-100829993D01*
X140715367Y-100829994D01*
X140538305Y-100920213D01*
X140377533Y-101037021D01*
X140237021Y-101177533D01*
X140120213Y-101338305D01*
X140040485Y-101494780D01*
X139992510Y-101545576D01*
X139924689Y-101562371D01*
X139858554Y-101539833D01*
X139819515Y-101494780D01*
X139739786Y-101338305D01*
X139680190Y-101256278D01*
X139622981Y-101177536D01*
X139482464Y-101037019D01*
X139321694Y-100920213D01*
X139273736Y-100895777D01*
X139144632Y-100829994D01*
X139144629Y-100829993D01*
X138955637Y-100768587D01*
X138857498Y-100753043D01*
X138759361Y-100737500D01*
X138560639Y-100737500D01*
X138530832Y-100742221D01*
X138364362Y-100768587D01*
X138175370Y-100829993D01*
X138175367Y-100829994D01*
X137998305Y-100920213D01*
X137837533Y-101037021D01*
X137697021Y-101177533D01*
X137580213Y-101338305D01*
X137489994Y-101515367D01*
X137489993Y-101515370D01*
X137428587Y-101704362D01*
X137397500Y-101900639D01*
X137397500Y-102099360D01*
X137428587Y-102295637D01*
X137489993Y-102484629D01*
X137489994Y-102484632D01*
X137544379Y-102591366D01*
X137580213Y-102661694D01*
X137697019Y-102822464D01*
X137837536Y-102962981D01*
X137998306Y-103079787D01*
X138085149Y-103124035D01*
X138175367Y-103170005D01*
X138175370Y-103170006D01*
X138269866Y-103200709D01*
X138364364Y-103231413D01*
X138560639Y-103262500D01*
X138560640Y-103262500D01*
X138759360Y-103262500D01*
X138759361Y-103262500D01*
X138955636Y-103231413D01*
X139144632Y-103170005D01*
X139321694Y-103079787D01*
X139482464Y-102962981D01*
X139622981Y-102822464D01*
X139739787Y-102661694D01*
X139819515Y-102505218D01*
X139867490Y-102454423D01*
X139935311Y-102437628D01*
X140001446Y-102460165D01*
X140040484Y-102505218D01*
X140120213Y-102661694D01*
X140237019Y-102822464D01*
X140377536Y-102962981D01*
X140538306Y-103079787D01*
X140625149Y-103124035D01*
X140715367Y-103170005D01*
X140715370Y-103170006D01*
X140809866Y-103200709D01*
X140904364Y-103231413D01*
X141100639Y-103262500D01*
X141100640Y-103262500D01*
X141299360Y-103262500D01*
X141299361Y-103262500D01*
X141495636Y-103231413D01*
X141684632Y-103170005D01*
X141861694Y-103079787D01*
X142022464Y-102962981D01*
X142162981Y-102822464D01*
X142279787Y-102661694D01*
X142359515Y-102505218D01*
X142407490Y-102454423D01*
X142475311Y-102437628D01*
X142541446Y-102460165D01*
X142580484Y-102505218D01*
X142660213Y-102661694D01*
X142777019Y-102822464D01*
X142917536Y-102962981D01*
X143078306Y-103079787D01*
X143165149Y-103124035D01*
X143255367Y-103170005D01*
X143255370Y-103170006D01*
X143349866Y-103200709D01*
X143444364Y-103231413D01*
X143640639Y-103262500D01*
X143640640Y-103262500D01*
X143839360Y-103262500D01*
X143839361Y-103262500D01*
X144035636Y-103231413D01*
X144224632Y-103170005D01*
X144401694Y-103079787D01*
X144562464Y-102962981D01*
X144702981Y-102822464D01*
X144819787Y-102661694D01*
X144899515Y-102505218D01*
X144947490Y-102454423D01*
X145015311Y-102437628D01*
X145081446Y-102460165D01*
X145120484Y-102505218D01*
X145200213Y-102661694D01*
X145317019Y-102822464D01*
X145457536Y-102962981D01*
X145618306Y-103079787D01*
X145705149Y-103124035D01*
X145795367Y-103170005D01*
X145795370Y-103170006D01*
X145889866Y-103200709D01*
X145984364Y-103231413D01*
X146180639Y-103262500D01*
X146180640Y-103262500D01*
X146379360Y-103262500D01*
X146379361Y-103262500D01*
X146575636Y-103231413D01*
X146663310Y-103202926D01*
X146687182Y-103195170D01*
X146710130Y-103194514D01*
X146732489Y-103189298D01*
X146744393Y-103193535D01*
X146757023Y-103193175D01*
X146776683Y-103205030D01*
X146798312Y-103212730D01*
X146806034Y-103222729D01*
X146816856Y-103229255D01*
X146826987Y-103249860D01*
X146841018Y-103268029D01*
X146844179Y-103284827D01*
X146847684Y-103291956D01*
X146849037Y-103302400D01*
X146849500Y-103307745D01*
X146849500Y-103424069D01*
X146866018Y-103507109D01*
X146867348Y-103513798D01*
X146867349Y-103513802D01*
X146874496Y-103549737D01*
X146874498Y-103549742D01*
X146908702Y-103632316D01*
X146923535Y-103668127D01*
X146974047Y-103743724D01*
X146994726Y-103774673D01*
X146994727Y-103774674D01*
X148133181Y-104913127D01*
X148166666Y-104974450D01*
X148169500Y-105000808D01*
X148169500Y-116088899D01*
X148149815Y-116155938D01*
X148118385Y-116189217D01*
X147997539Y-116277016D01*
X147997533Y-116277021D01*
X147857021Y-116417533D01*
X147740213Y-116578305D01*
X147660485Y-116734780D01*
X147612510Y-116785576D01*
X147544689Y-116802371D01*
X147478554Y-116779833D01*
X147439515Y-116734780D01*
X147371753Y-116601791D01*
X147359787Y-116578306D01*
X147242981Y-116417536D01*
X147102464Y-116277019D01*
X146941694Y-116160213D01*
X146930499Y-116154509D01*
X146764632Y-116069994D01*
X146764629Y-116069993D01*
X146575637Y-116008587D01*
X146477498Y-115993043D01*
X146379361Y-115977500D01*
X146180639Y-115977500D01*
X146115214Y-115987862D01*
X145984362Y-116008587D01*
X145795370Y-116069993D01*
X145795367Y-116069994D01*
X145618305Y-116160213D01*
X145457533Y-116277021D01*
X145317021Y-116417533D01*
X145200213Y-116578305D01*
X145120485Y-116734780D01*
X145072510Y-116785576D01*
X145004689Y-116802371D01*
X144938554Y-116779833D01*
X144899515Y-116734780D01*
X144831753Y-116601791D01*
X144819787Y-116578306D01*
X144702981Y-116417536D01*
X144562464Y-116277019D01*
X144401694Y-116160213D01*
X144390499Y-116154509D01*
X144224632Y-116069994D01*
X144224629Y-116069993D01*
X144035637Y-116008587D01*
X143937498Y-115993043D01*
X143839361Y-115977500D01*
X143640639Y-115977500D01*
X143575214Y-115987862D01*
X143444362Y-116008587D01*
X143255370Y-116069993D01*
X143255367Y-116069994D01*
X143078305Y-116160213D01*
X142917533Y-116277021D01*
X142777021Y-116417533D01*
X142660213Y-116578305D01*
X142580485Y-116734780D01*
X142532510Y-116785576D01*
X142464689Y-116802371D01*
X142398554Y-116779833D01*
X142359515Y-116734780D01*
X142291753Y-116601791D01*
X142279787Y-116578306D01*
X142162981Y-116417536D01*
X142022464Y-116277019D01*
X141861694Y-116160213D01*
X141850499Y-116154509D01*
X141684632Y-116069994D01*
X141684629Y-116069993D01*
X141495637Y-116008587D01*
X141397498Y-115993043D01*
X141299361Y-115977500D01*
X141100639Y-115977500D01*
X141035214Y-115987862D01*
X140904362Y-116008587D01*
X140715370Y-116069993D01*
X140715367Y-116069994D01*
X140538305Y-116160213D01*
X140377533Y-116277021D01*
X140237021Y-116417533D01*
X140120213Y-116578305D01*
X140040485Y-116734780D01*
X139992510Y-116785576D01*
X139924689Y-116802371D01*
X139858554Y-116779833D01*
X139819515Y-116734780D01*
X139751753Y-116601791D01*
X139739787Y-116578306D01*
X139622981Y-116417536D01*
X139482464Y-116277019D01*
X139461613Y-116261870D01*
X139418949Y-116206540D01*
X139410500Y-116161553D01*
X139410500Y-109586079D01*
X139381659Y-109441092D01*
X139381658Y-109441091D01*
X139381658Y-109441087D01*
X139325084Y-109304505D01*
X139276304Y-109231500D01*
X139242952Y-109181584D01*
X135772007Y-105710639D01*
X140237500Y-105710639D01*
X140237500Y-105909360D01*
X140268587Y-106105637D01*
X140329993Y-106294629D01*
X140329994Y-106294632D01*
X140420213Y-106471694D01*
X140537019Y-106632464D01*
X140677536Y-106772981D01*
X140838306Y-106889787D01*
X140956832Y-106950179D01*
X140994780Y-106969515D01*
X141045576Y-107017490D01*
X141062371Y-107085311D01*
X141039833Y-107151446D01*
X140994780Y-107190485D01*
X140838305Y-107270213D01*
X140677533Y-107387021D01*
X140537021Y-107527533D01*
X140420213Y-107688305D01*
X140329994Y-107865367D01*
X140329993Y-107865370D01*
X140268587Y-108054362D01*
X140237500Y-108250639D01*
X140237500Y-108449360D01*
X140268587Y-108645637D01*
X140329993Y-108834629D01*
X140329994Y-108834632D01*
X140384518Y-108941639D01*
X140420213Y-109011694D01*
X140537019Y-109172464D01*
X140677536Y-109312981D01*
X140838306Y-109429787D01*
X140944695Y-109483995D01*
X140994780Y-109509515D01*
X141045576Y-109557490D01*
X141062371Y-109625311D01*
X141039833Y-109691446D01*
X140994780Y-109730485D01*
X140838305Y-109810213D01*
X140677533Y-109927021D01*
X140537021Y-110067533D01*
X140420213Y-110228305D01*
X140329994Y-110405367D01*
X140329993Y-110405370D01*
X140268587Y-110594362D01*
X140237500Y-110790639D01*
X140237500Y-110989360D01*
X140268587Y-111185637D01*
X140329993Y-111374629D01*
X140329994Y-111374632D01*
X140419733Y-111550752D01*
X140420213Y-111551694D01*
X140537019Y-111712464D01*
X140677536Y-111852981D01*
X140838306Y-111969787D01*
X140956832Y-112030179D01*
X140994780Y-112049515D01*
X141045576Y-112097490D01*
X141062371Y-112165311D01*
X141039833Y-112231446D01*
X140994780Y-112270485D01*
X140838305Y-112350213D01*
X140677533Y-112467021D01*
X140537021Y-112607533D01*
X140420213Y-112768305D01*
X140329994Y-112945367D01*
X140329993Y-112945370D01*
X140268587Y-113134362D01*
X140267626Y-113140431D01*
X140237500Y-113330639D01*
X140237500Y-113529361D01*
X140242232Y-113559240D01*
X140268587Y-113725637D01*
X140329993Y-113914629D01*
X140329994Y-113914632D01*
X140417729Y-114086819D01*
X140420213Y-114091694D01*
X140537019Y-114252464D01*
X140677536Y-114392981D01*
X140838306Y-114509787D01*
X140900328Y-114541389D01*
X141015367Y-114600005D01*
X141015370Y-114600006D01*
X141079452Y-114620827D01*
X141204364Y-114661413D01*
X141400639Y-114692500D01*
X141400640Y-114692500D01*
X141599360Y-114692500D01*
X141599361Y-114692500D01*
X141795636Y-114661413D01*
X141984632Y-114600005D01*
X142161694Y-114509787D01*
X142322464Y-114392981D01*
X142462981Y-114252464D01*
X142579787Y-114091694D01*
X142670005Y-113914632D01*
X142731413Y-113725636D01*
X142762500Y-113529361D01*
X142762500Y-113330639D01*
X142731413Y-113134364D01*
X142684413Y-112989711D01*
X142670006Y-112945370D01*
X142670005Y-112945367D01*
X142579786Y-112768305D01*
X142550862Y-112728494D01*
X142462981Y-112607536D01*
X142322464Y-112467019D01*
X142161694Y-112350213D01*
X142005218Y-112270484D01*
X141954423Y-112222510D01*
X141937628Y-112154689D01*
X141960165Y-112088554D01*
X142005218Y-112049515D01*
X142161694Y-111969787D01*
X142322464Y-111852981D01*
X142462981Y-111712464D01*
X142579787Y-111551694D01*
X142670005Y-111374632D01*
X142731413Y-111185636D01*
X142762500Y-110989361D01*
X142762500Y-110790639D01*
X142731413Y-110594364D01*
X142670005Y-110405368D01*
X142670005Y-110405367D01*
X142579786Y-110228305D01*
X142462981Y-110067536D01*
X142322464Y-109927019D01*
X142161694Y-109810213D01*
X142005218Y-109730484D01*
X141954423Y-109682510D01*
X141937628Y-109614689D01*
X141960165Y-109548554D01*
X142005218Y-109509515D01*
X142161694Y-109429787D01*
X142322464Y-109312981D01*
X142462981Y-109172464D01*
X142579787Y-109011694D01*
X142670005Y-108834632D01*
X142731413Y-108645636D01*
X142762500Y-108449361D01*
X142762500Y-108250639D01*
X142731413Y-108054364D01*
X142670005Y-107865368D01*
X142670005Y-107865367D01*
X142624035Y-107775149D01*
X142579787Y-107688306D01*
X142462981Y-107527536D01*
X142322464Y-107387019D01*
X142161694Y-107270213D01*
X142005218Y-107190484D01*
X141954423Y-107142510D01*
X141937628Y-107074689D01*
X141960165Y-107008554D01*
X142005218Y-106969515D01*
X142161694Y-106889787D01*
X142322464Y-106772981D01*
X142462981Y-106632464D01*
X142579787Y-106471694D01*
X142670005Y-106294632D01*
X142731413Y-106105636D01*
X142762500Y-105909361D01*
X142762500Y-105710639D01*
X142731413Y-105514364D01*
X142670005Y-105325368D01*
X142670005Y-105325367D01*
X142579786Y-105148305D01*
X142462981Y-104987536D01*
X142322464Y-104847019D01*
X142161694Y-104730213D01*
X142108549Y-104703134D01*
X141984632Y-104639994D01*
X141984629Y-104639993D01*
X141795637Y-104578587D01*
X141697498Y-104563043D01*
X141599361Y-104547500D01*
X141400639Y-104547500D01*
X141335214Y-104557862D01*
X141204362Y-104578587D01*
X141015370Y-104639993D01*
X141015367Y-104639994D01*
X140838305Y-104730213D01*
X140677533Y-104847021D01*
X140537021Y-104987533D01*
X140420213Y-105148305D01*
X140329994Y-105325367D01*
X140329993Y-105325370D01*
X140268587Y-105514362D01*
X140237500Y-105710639D01*
X135772007Y-105710639D01*
X134246071Y-104184703D01*
X134219191Y-104144475D01*
X134209394Y-104120821D01*
X134209389Y-104120814D01*
X134121789Y-103989710D01*
X134010292Y-103878213D01*
X134010288Y-103878210D01*
X133879185Y-103790609D01*
X133879172Y-103790602D01*
X133733501Y-103730264D01*
X133733489Y-103730261D01*
X133578845Y-103699500D01*
X133578842Y-103699500D01*
X133421158Y-103699500D01*
X133421155Y-103699500D01*
X133266510Y-103730261D01*
X133266498Y-103730264D01*
X133120827Y-103790602D01*
X133120814Y-103790609D01*
X132989711Y-103878210D01*
X132989707Y-103878213D01*
X132878213Y-103989707D01*
X132878210Y-103989711D01*
X132790609Y-104120814D01*
X132790602Y-104120827D01*
X132730264Y-104266498D01*
X132730261Y-104266510D01*
X132699500Y-104421153D01*
X132699500Y-104578846D01*
X132730261Y-104733489D01*
X132730264Y-104733501D01*
X132790602Y-104879172D01*
X132790609Y-104879185D01*
X132878210Y-105010288D01*
X132878213Y-105010292D01*
X132989710Y-105121789D01*
X133029396Y-105148306D01*
X133120821Y-105209394D01*
X133144475Y-105219191D01*
X133184703Y-105246071D01*
X137873181Y-109934549D01*
X137906666Y-109995872D01*
X137909500Y-110022230D01*
X137909500Y-116161553D01*
X137889815Y-116228592D01*
X137858387Y-116261869D01*
X137848756Y-116268867D01*
X137837534Y-116277020D01*
X137697021Y-116417533D01*
X137580213Y-116578305D01*
X137489994Y-116755367D01*
X137489993Y-116755370D01*
X137428587Y-116944362D01*
X137397500Y-117140639D01*
X137397500Y-117339360D01*
X137428587Y-117535637D01*
X137489993Y-117724629D01*
X137489994Y-117724632D01*
X137564976Y-117871790D01*
X137580213Y-117901694D01*
X137697019Y-118062464D01*
X137837536Y-118202981D01*
X137998306Y-118319787D01*
X138085149Y-118364035D01*
X138175367Y-118410005D01*
X138175370Y-118410006D01*
X138269866Y-118440709D01*
X138364364Y-118471413D01*
X138560639Y-118502500D01*
X138560640Y-118502500D01*
X138759360Y-118502500D01*
X138759361Y-118502500D01*
X138955636Y-118471413D01*
X139144632Y-118410005D01*
X139321694Y-118319787D01*
X139482464Y-118202981D01*
X139622981Y-118062464D01*
X139739787Y-117901694D01*
X139819515Y-117745218D01*
X139867490Y-117694423D01*
X139935311Y-117677628D01*
X140001446Y-117700165D01*
X140040484Y-117745218D01*
X140120213Y-117901694D01*
X140237019Y-118062464D01*
X140377536Y-118202981D01*
X140538306Y-118319787D01*
X140625149Y-118364035D01*
X140715367Y-118410005D01*
X140715370Y-118410006D01*
X140809866Y-118440709D01*
X140904364Y-118471413D01*
X141100639Y-118502500D01*
X141100640Y-118502500D01*
X141299360Y-118502500D01*
X141299361Y-118502500D01*
X141495636Y-118471413D01*
X141684632Y-118410005D01*
X141861694Y-118319787D01*
X142022464Y-118202981D01*
X142162981Y-118062464D01*
X142279787Y-117901694D01*
X142359515Y-117745218D01*
X142407490Y-117694423D01*
X142475311Y-117677628D01*
X142541446Y-117700165D01*
X142580484Y-117745218D01*
X142660213Y-117901694D01*
X142777019Y-118062464D01*
X142917536Y-118202981D01*
X143078306Y-118319787D01*
X143165149Y-118364035D01*
X143255367Y-118410005D01*
X143255370Y-118410006D01*
X143349866Y-118440709D01*
X143444364Y-118471413D01*
X143640639Y-118502500D01*
X143640640Y-118502500D01*
X143839360Y-118502500D01*
X143839361Y-118502500D01*
X144035636Y-118471413D01*
X144224632Y-118410005D01*
X144401694Y-118319787D01*
X144562464Y-118202981D01*
X144702981Y-118062464D01*
X144819787Y-117901694D01*
X144899515Y-117745218D01*
X144947490Y-117694423D01*
X145015311Y-117677628D01*
X145081446Y-117700165D01*
X145120484Y-117745218D01*
X145200213Y-117901694D01*
X145317019Y-118062464D01*
X145457536Y-118202981D01*
X145618306Y-118319787D01*
X145705149Y-118364035D01*
X145795367Y-118410005D01*
X145795370Y-118410006D01*
X145889866Y-118440709D01*
X145984364Y-118471413D01*
X146180639Y-118502500D01*
X146180640Y-118502500D01*
X146379360Y-118502500D01*
X146379361Y-118502500D01*
X146575636Y-118471413D01*
X146764632Y-118410005D01*
X146941694Y-118319787D01*
X147102464Y-118202981D01*
X147242981Y-118062464D01*
X147359787Y-117901694D01*
X147439515Y-117745218D01*
X147487490Y-117694423D01*
X147555311Y-117677628D01*
X147621446Y-117700165D01*
X147660484Y-117745218D01*
X147740213Y-117901694D01*
X147857019Y-118062464D01*
X147997536Y-118202981D01*
X148158306Y-118319787D01*
X148245149Y-118364035D01*
X148335367Y-118410005D01*
X148335370Y-118410006D01*
X148429866Y-118440709D01*
X148524364Y-118471413D01*
X148720639Y-118502500D01*
X148720640Y-118502500D01*
X148919360Y-118502500D01*
X148919361Y-118502500D01*
X149115636Y-118471413D01*
X149304632Y-118410005D01*
X149481694Y-118319787D01*
X149642464Y-118202981D01*
X149782981Y-118062464D01*
X149899787Y-117901694D01*
X149979515Y-117745218D01*
X150027490Y-117694423D01*
X150095311Y-117677628D01*
X150161446Y-117700165D01*
X150200484Y-117745218D01*
X150280213Y-117901694D01*
X150397019Y-118062464D01*
X150537536Y-118202981D01*
X150698306Y-118319787D01*
X150785149Y-118364035D01*
X150875367Y-118410005D01*
X150875370Y-118410006D01*
X150969866Y-118440709D01*
X151064364Y-118471413D01*
X151260639Y-118502500D01*
X151260640Y-118502500D01*
X151459360Y-118502500D01*
X151459361Y-118502500D01*
X151655636Y-118471413D01*
X151844632Y-118410005D01*
X152021694Y-118319787D01*
X152182464Y-118202981D01*
X152322981Y-118062464D01*
X152439787Y-117901694D01*
X152519515Y-117745218D01*
X152567490Y-117694423D01*
X152635311Y-117677628D01*
X152701446Y-117700165D01*
X152740484Y-117745218D01*
X152820213Y-117901694D01*
X152937019Y-118062464D01*
X153077536Y-118202981D01*
X153238306Y-118319787D01*
X153325149Y-118364035D01*
X153415367Y-118410005D01*
X153415370Y-118410006D01*
X153509866Y-118440709D01*
X153604364Y-118471413D01*
X153800639Y-118502500D01*
X153800640Y-118502500D01*
X153999360Y-118502500D01*
X153999361Y-118502500D01*
X154195636Y-118471413D01*
X154384632Y-118410005D01*
X154561694Y-118319787D01*
X154722464Y-118202981D01*
X154862981Y-118062464D01*
X154979787Y-117901694D01*
X155059515Y-117745218D01*
X155107490Y-117694423D01*
X155175311Y-117677628D01*
X155241446Y-117700165D01*
X155280484Y-117745218D01*
X155360213Y-117901694D01*
X155477019Y-118062464D01*
X155617536Y-118202981D01*
X155778306Y-118319787D01*
X155865149Y-118364035D01*
X155955367Y-118410005D01*
X155955370Y-118410006D01*
X156049866Y-118440709D01*
X156144364Y-118471413D01*
X156340639Y-118502500D01*
X156340640Y-118502500D01*
X156539360Y-118502500D01*
X156539361Y-118502500D01*
X156735636Y-118471413D01*
X156924632Y-118410005D01*
X157101694Y-118319787D01*
X157262464Y-118202981D01*
X157402981Y-118062464D01*
X157519787Y-117901694D01*
X157599515Y-117745218D01*
X157647490Y-117694423D01*
X157715311Y-117677628D01*
X157781446Y-117700165D01*
X157820484Y-117745218D01*
X157900213Y-117901694D01*
X158017019Y-118062464D01*
X158157536Y-118202981D01*
X158318306Y-118319787D01*
X158405149Y-118364035D01*
X158495367Y-118410005D01*
X158495370Y-118410006D01*
X158589866Y-118440709D01*
X158684364Y-118471413D01*
X158880639Y-118502500D01*
X158880640Y-118502500D01*
X159079360Y-118502500D01*
X159079361Y-118502500D01*
X159275636Y-118471413D01*
X159464632Y-118410005D01*
X159641694Y-118319787D01*
X159802464Y-118202981D01*
X159942981Y-118062464D01*
X160059787Y-117901694D01*
X160139515Y-117745218D01*
X160187490Y-117694423D01*
X160255311Y-117677628D01*
X160321446Y-117700165D01*
X160360484Y-117745218D01*
X160440213Y-117901694D01*
X160557019Y-118062464D01*
X160697536Y-118202981D01*
X160858306Y-118319787D01*
X160945149Y-118364035D01*
X161035367Y-118410005D01*
X161035370Y-118410006D01*
X161129866Y-118440709D01*
X161224364Y-118471413D01*
X161420639Y-118502500D01*
X161420640Y-118502500D01*
X161619360Y-118502500D01*
X161619361Y-118502500D01*
X161815636Y-118471413D01*
X162004632Y-118410005D01*
X162181694Y-118319787D01*
X162342464Y-118202981D01*
X162482981Y-118062464D01*
X162599787Y-117901694D01*
X162679515Y-117745218D01*
X162727490Y-117694423D01*
X162795311Y-117677628D01*
X162861446Y-117700165D01*
X162900484Y-117745218D01*
X162980213Y-117901694D01*
X163097019Y-118062464D01*
X163237536Y-118202981D01*
X163398306Y-118319787D01*
X163485149Y-118364035D01*
X163575367Y-118410005D01*
X163575370Y-118410006D01*
X163669866Y-118440709D01*
X163764364Y-118471413D01*
X163960639Y-118502500D01*
X163960640Y-118502500D01*
X164159360Y-118502500D01*
X164159361Y-118502500D01*
X164355636Y-118471413D01*
X164544632Y-118410005D01*
X164721694Y-118319787D01*
X164882464Y-118202981D01*
X165022981Y-118062464D01*
X165139787Y-117901694D01*
X165219515Y-117745218D01*
X165267490Y-117694423D01*
X165335311Y-117677628D01*
X165401446Y-117700165D01*
X165440484Y-117745218D01*
X165520213Y-117901694D01*
X165637019Y-118062464D01*
X165777536Y-118202981D01*
X165938306Y-118319787D01*
X166025149Y-118364035D01*
X166115367Y-118410005D01*
X166115370Y-118410006D01*
X166209866Y-118440709D01*
X166304364Y-118471413D01*
X166500639Y-118502500D01*
X166500640Y-118502500D01*
X166699360Y-118502500D01*
X166699361Y-118502500D01*
X166895636Y-118471413D01*
X167084632Y-118410005D01*
X167261694Y-118319787D01*
X167422464Y-118202981D01*
X167562981Y-118062464D01*
X167679787Y-117901694D01*
X167759515Y-117745218D01*
X167807490Y-117694423D01*
X167875311Y-117677628D01*
X167941446Y-117700165D01*
X167980484Y-117745218D01*
X168060213Y-117901694D01*
X168177019Y-118062464D01*
X168317536Y-118202981D01*
X168478306Y-118319787D01*
X168565149Y-118364035D01*
X168655367Y-118410005D01*
X168655370Y-118410006D01*
X168749866Y-118440709D01*
X168844364Y-118471413D01*
X169040639Y-118502500D01*
X169040640Y-118502500D01*
X169239360Y-118502500D01*
X169239361Y-118502500D01*
X169435636Y-118471413D01*
X169624632Y-118410005D01*
X169801694Y-118319787D01*
X169962464Y-118202981D01*
X170102981Y-118062464D01*
X170219787Y-117901694D01*
X170299515Y-117745218D01*
X170347490Y-117694423D01*
X170415311Y-117677628D01*
X170481446Y-117700165D01*
X170520484Y-117745218D01*
X170600213Y-117901694D01*
X170717019Y-118062464D01*
X170857536Y-118202981D01*
X171018306Y-118319787D01*
X171105149Y-118364035D01*
X171195367Y-118410005D01*
X171195370Y-118410006D01*
X171289866Y-118440709D01*
X171384364Y-118471413D01*
X171580639Y-118502500D01*
X171580640Y-118502500D01*
X171779360Y-118502500D01*
X171779361Y-118502500D01*
X171975636Y-118471413D01*
X172164632Y-118410005D01*
X172341694Y-118319787D01*
X172502464Y-118202981D01*
X172642981Y-118062464D01*
X172759787Y-117901694D01*
X172839515Y-117745218D01*
X172887490Y-117694423D01*
X172955311Y-117677628D01*
X173021446Y-117700165D01*
X173060484Y-117745218D01*
X173140213Y-117901694D01*
X173257019Y-118062464D01*
X173397536Y-118202981D01*
X173558306Y-118319787D01*
X173645149Y-118364035D01*
X173735367Y-118410005D01*
X173735370Y-118410006D01*
X173829866Y-118440709D01*
X173924364Y-118471413D01*
X174120639Y-118502500D01*
X174120640Y-118502500D01*
X174319360Y-118502500D01*
X174319361Y-118502500D01*
X174515636Y-118471413D01*
X174704632Y-118410005D01*
X174881694Y-118319787D01*
X175042464Y-118202981D01*
X175182981Y-118062464D01*
X175299787Y-117901694D01*
X175379515Y-117745218D01*
X175427490Y-117694423D01*
X175495311Y-117677628D01*
X175561446Y-117700165D01*
X175600484Y-117745218D01*
X175680213Y-117901694D01*
X175797019Y-118062464D01*
X175937536Y-118202981D01*
X176098306Y-118319787D01*
X176185149Y-118364035D01*
X176275367Y-118410005D01*
X176275370Y-118410006D01*
X176369866Y-118440709D01*
X176464364Y-118471413D01*
X176660639Y-118502500D01*
X176660640Y-118502500D01*
X176859360Y-118502500D01*
X176859361Y-118502500D01*
X177055636Y-118471413D01*
X177244632Y-118410005D01*
X177421694Y-118319787D01*
X177582464Y-118202981D01*
X177722981Y-118062464D01*
X177839787Y-117901694D01*
X177919515Y-117745218D01*
X177967490Y-117694423D01*
X178035311Y-117677628D01*
X178101446Y-117700165D01*
X178140484Y-117745218D01*
X178220213Y-117901694D01*
X178337019Y-118062464D01*
X178477536Y-118202981D01*
X178638306Y-118319787D01*
X178725149Y-118364035D01*
X178815367Y-118410005D01*
X178815370Y-118410006D01*
X178909866Y-118440709D01*
X179004364Y-118471413D01*
X179200639Y-118502500D01*
X179200640Y-118502500D01*
X179399360Y-118502500D01*
X179399361Y-118502500D01*
X179595636Y-118471413D01*
X179784632Y-118410005D01*
X179961694Y-118319787D01*
X180122464Y-118202981D01*
X180262981Y-118062464D01*
X180379787Y-117901694D01*
X180459515Y-117745218D01*
X180507490Y-117694423D01*
X180575311Y-117677628D01*
X180641446Y-117700165D01*
X180680484Y-117745218D01*
X180760213Y-117901694D01*
X180877019Y-118062464D01*
X181017536Y-118202981D01*
X181178306Y-118319787D01*
X181265149Y-118364035D01*
X181355367Y-118410005D01*
X181355370Y-118410006D01*
X181449866Y-118440709D01*
X181544364Y-118471413D01*
X181740639Y-118502500D01*
X181740640Y-118502500D01*
X181939360Y-118502500D01*
X181939361Y-118502500D01*
X182135636Y-118471413D01*
X182324632Y-118410005D01*
X182501694Y-118319787D01*
X182662464Y-118202981D01*
X182802981Y-118062464D01*
X182919787Y-117901694D01*
X182999515Y-117745218D01*
X183047490Y-117694423D01*
X183115311Y-117677628D01*
X183181446Y-117700165D01*
X183220484Y-117745218D01*
X183300213Y-117901694D01*
X183417019Y-118062464D01*
X183557536Y-118202981D01*
X183718306Y-118319787D01*
X183805149Y-118364035D01*
X183895367Y-118410005D01*
X183895370Y-118410006D01*
X183989866Y-118440709D01*
X184084364Y-118471413D01*
X184280639Y-118502500D01*
X184280640Y-118502500D01*
X184479360Y-118502500D01*
X184479361Y-118502500D01*
X184675636Y-118471413D01*
X184864632Y-118410005D01*
X185041694Y-118319787D01*
X185202464Y-118202981D01*
X185342981Y-118062464D01*
X185459787Y-117901694D01*
X185539515Y-117745218D01*
X185587490Y-117694423D01*
X185655311Y-117677628D01*
X185721446Y-117700165D01*
X185760484Y-117745218D01*
X185840213Y-117901694D01*
X185957019Y-118062464D01*
X186097536Y-118202981D01*
X186258306Y-118319787D01*
X186345149Y-118364035D01*
X186435367Y-118410005D01*
X186435370Y-118410006D01*
X186529866Y-118440709D01*
X186624364Y-118471413D01*
X186820639Y-118502500D01*
X186820640Y-118502500D01*
X187019360Y-118502500D01*
X187019361Y-118502500D01*
X187215636Y-118471413D01*
X187404632Y-118410005D01*
X187581694Y-118319787D01*
X187742464Y-118202981D01*
X187882981Y-118062464D01*
X187999787Y-117901694D01*
X188090005Y-117724632D01*
X188151413Y-117535636D01*
X188182500Y-117339361D01*
X188182500Y-117140639D01*
X188151413Y-116944364D01*
X188105277Y-116802371D01*
X188090006Y-116755370D01*
X188090005Y-116755367D01*
X188011753Y-116601791D01*
X187999787Y-116578306D01*
X187882981Y-116417536D01*
X187742464Y-116277019D01*
X187581694Y-116160213D01*
X187570499Y-116154509D01*
X187404632Y-116069994D01*
X187404629Y-116069993D01*
X187215637Y-116008587D01*
X187117498Y-115993043D01*
X187019361Y-115977500D01*
X186820639Y-115977500D01*
X186755214Y-115987862D01*
X186624362Y-116008587D01*
X186435370Y-116069993D01*
X186435367Y-116069994D01*
X186258305Y-116160213D01*
X186097533Y-116277021D01*
X185957021Y-116417533D01*
X185840213Y-116578305D01*
X185760485Y-116734780D01*
X185712510Y-116785576D01*
X185644689Y-116802371D01*
X185578554Y-116779833D01*
X185539515Y-116734780D01*
X185471753Y-116601791D01*
X185459787Y-116578306D01*
X185342981Y-116417536D01*
X185202464Y-116277019D01*
X185041694Y-116160213D01*
X185030499Y-116154509D01*
X184864632Y-116069994D01*
X184864629Y-116069993D01*
X184675637Y-116008587D01*
X184577498Y-115993043D01*
X184479361Y-115977500D01*
X184280639Y-115977500D01*
X184215214Y-115987862D01*
X184084362Y-116008587D01*
X183895370Y-116069993D01*
X183895367Y-116069994D01*
X183718305Y-116160213D01*
X183557533Y-116277021D01*
X183417021Y-116417533D01*
X183300213Y-116578305D01*
X183220485Y-116734780D01*
X183172510Y-116785576D01*
X183104689Y-116802371D01*
X183038554Y-116779833D01*
X182999515Y-116734780D01*
X182931753Y-116601791D01*
X182919787Y-116578306D01*
X182802981Y-116417536D01*
X182662464Y-116277019D01*
X182501694Y-116160213D01*
X182490499Y-116154509D01*
X182324632Y-116069994D01*
X182324629Y-116069993D01*
X182135637Y-116008587D01*
X182037498Y-115993043D01*
X181939361Y-115977500D01*
X181740639Y-115977500D01*
X181675214Y-115987862D01*
X181544362Y-116008587D01*
X181355370Y-116069993D01*
X181355367Y-116069994D01*
X181178305Y-116160213D01*
X181017533Y-116277021D01*
X180877021Y-116417533D01*
X180760213Y-116578305D01*
X180680485Y-116734780D01*
X180632510Y-116785576D01*
X180564689Y-116802371D01*
X180498554Y-116779833D01*
X180459515Y-116734780D01*
X180391753Y-116601791D01*
X180379787Y-116578306D01*
X180262981Y-116417536D01*
X180122464Y-116277019D01*
X179961694Y-116160213D01*
X179950499Y-116154509D01*
X179784632Y-116069994D01*
X179784629Y-116069993D01*
X179595637Y-116008587D01*
X179497498Y-115993043D01*
X179399361Y-115977500D01*
X179200639Y-115977500D01*
X179135214Y-115987862D01*
X179004362Y-116008587D01*
X178815370Y-116069993D01*
X178815367Y-116069994D01*
X178638305Y-116160213D01*
X178477533Y-116277021D01*
X178337021Y-116417533D01*
X178220213Y-116578305D01*
X178140485Y-116734780D01*
X178092510Y-116785576D01*
X178024689Y-116802371D01*
X177958554Y-116779833D01*
X177919515Y-116734780D01*
X177851753Y-116601791D01*
X177839787Y-116578306D01*
X177722981Y-116417536D01*
X177582464Y-116277019D01*
X177421694Y-116160213D01*
X177410499Y-116154509D01*
X177244632Y-116069994D01*
X177244629Y-116069993D01*
X177055637Y-116008587D01*
X176957498Y-115993043D01*
X176859361Y-115977500D01*
X176660639Y-115977500D01*
X176595214Y-115987862D01*
X176464362Y-116008587D01*
X176275370Y-116069993D01*
X176275367Y-116069994D01*
X176098305Y-116160213D01*
X175937533Y-116277021D01*
X175797021Y-116417533D01*
X175680213Y-116578305D01*
X175600485Y-116734780D01*
X175552510Y-116785576D01*
X175484689Y-116802371D01*
X175418554Y-116779833D01*
X175379515Y-116734780D01*
X175311753Y-116601791D01*
X175299787Y-116578306D01*
X175182981Y-116417536D01*
X175042464Y-116277019D01*
X174881694Y-116160213D01*
X174870499Y-116154509D01*
X174704632Y-116069994D01*
X174704629Y-116069993D01*
X174515637Y-116008587D01*
X174417498Y-115993043D01*
X174319361Y-115977500D01*
X174120639Y-115977500D01*
X174055214Y-115987862D01*
X173924362Y-116008587D01*
X173735370Y-116069993D01*
X173735367Y-116069994D01*
X173558305Y-116160213D01*
X173397533Y-116277021D01*
X173257021Y-116417533D01*
X173140213Y-116578305D01*
X173060485Y-116734780D01*
X173012510Y-116785576D01*
X172944689Y-116802371D01*
X172878554Y-116779833D01*
X172839515Y-116734780D01*
X172771753Y-116601791D01*
X172759787Y-116578306D01*
X172642981Y-116417536D01*
X172502464Y-116277019D01*
X172341694Y-116160213D01*
X172330499Y-116154509D01*
X172164632Y-116069994D01*
X172164629Y-116069993D01*
X171975637Y-116008587D01*
X171877498Y-115993043D01*
X171779361Y-115977500D01*
X171580639Y-115977500D01*
X171515214Y-115987862D01*
X171384362Y-116008587D01*
X171195370Y-116069993D01*
X171195367Y-116069994D01*
X171018305Y-116160213D01*
X170857533Y-116277021D01*
X170717021Y-116417533D01*
X170600213Y-116578305D01*
X170520485Y-116734780D01*
X170472510Y-116785576D01*
X170404689Y-116802371D01*
X170338554Y-116779833D01*
X170299515Y-116734780D01*
X170231753Y-116601791D01*
X170219787Y-116578306D01*
X170102981Y-116417536D01*
X169962464Y-116277019D01*
X169801694Y-116160213D01*
X169790499Y-116154509D01*
X169624632Y-116069994D01*
X169624629Y-116069993D01*
X169435637Y-116008587D01*
X169306533Y-115988139D01*
X169278034Y-115974629D01*
X169248798Y-115962757D01*
X169246695Y-115959773D01*
X169243398Y-115958210D01*
X169226724Y-115931432D01*
X169208552Y-115905643D01*
X169208396Y-115901996D01*
X169206467Y-115898898D01*
X169206917Y-115867356D01*
X169205572Y-115835837D01*
X169207412Y-115832684D01*
X169207465Y-115829036D01*
X169224895Y-115802746D01*
X169240806Y-115775501D01*
X169244580Y-115773056D01*
X169246075Y-115770803D01*
X169269656Y-115755171D01*
X169273982Y-115752967D01*
X169379179Y-115709394D01*
X169442134Y-115667328D01*
X169448660Y-115664005D01*
X169476089Y-115658858D01*
X169502721Y-115650520D01*
X169504935Y-115650500D01*
X177564071Y-115650500D01*
X177648615Y-115633682D01*
X177689744Y-115625501D01*
X177808127Y-115576465D01*
X177833899Y-115559245D01*
X177833900Y-115559245D01*
X177907168Y-115510289D01*
X177914669Y-115505277D01*
X192624419Y-100795527D01*
X192685742Y-100762042D01*
X192755434Y-100767026D01*
X192811367Y-100808898D01*
X192835784Y-100874362D01*
X192836100Y-100883208D01*
X192836100Y-113544536D01*
X192839963Y-113563954D01*
X192859579Y-113662568D01*
X192861099Y-113670209D01*
X192910135Y-113788592D01*
X192929442Y-113817488D01*
X192933915Y-113827851D01*
X192934991Y-113836641D01*
X192941683Y-113852797D01*
X192963033Y-113960128D01*
X192963036Y-113960137D01*
X193023374Y-114105809D01*
X193023381Y-114105822D01*
X193110982Y-114236925D01*
X193110985Y-114236929D01*
X193222479Y-114348423D01*
X193222483Y-114348426D01*
X193353586Y-114436027D01*
X193353599Y-114436034D01*
X193456473Y-114478645D01*
X193499275Y-114496374D01*
X193653925Y-114527136D01*
X193653928Y-114527137D01*
X193653930Y-114527137D01*
X193811616Y-114527137D01*
X193811617Y-114527136D01*
X193966269Y-114496374D01*
X194111951Y-114436031D01*
X194243061Y-114348426D01*
X194265718Y-114325767D01*
X194266608Y-114325282D01*
X194267110Y-114324397D01*
X194297207Y-114308573D01*
X194327038Y-114292284D01*
X194328348Y-114292200D01*
X194328953Y-114291883D01*
X194333415Y-114291878D01*
X194364193Y-114289921D01*
X194370936Y-114290510D01*
X194421158Y-114300500D01*
X194485252Y-114300500D01*
X194490642Y-114300971D01*
X194518346Y-114311804D01*
X194546886Y-114320185D01*
X194550529Y-114324390D01*
X194555713Y-114326417D01*
X194573164Y-114350511D01*
X194592641Y-114372989D01*
X194593432Y-114378496D01*
X194596697Y-114383003D01*
X194598351Y-114412703D01*
X194602585Y-114442147D01*
X194600273Y-114447208D01*
X194600583Y-114452765D01*
X194585916Y-114478645D01*
X194573560Y-114505703D01*
X194567966Y-114510321D01*
X194566135Y-114513553D01*
X194560401Y-114516567D01*
X194541849Y-114531885D01*
X194532709Y-114537161D01*
X194525382Y-114541392D01*
X194343338Y-114681081D01*
X194181081Y-114843338D01*
X194041392Y-115025382D01*
X193926657Y-115224109D01*
X193926650Y-115224123D01*
X193838842Y-115436112D01*
X193818967Y-115510289D01*
X193779452Y-115657762D01*
X193778738Y-115663183D01*
X193749500Y-115885258D01*
X193749500Y-116114741D01*
X193770866Y-116277020D01*
X193779452Y-116342238D01*
X193808193Y-116449501D01*
X193838842Y-116563887D01*
X193926650Y-116775876D01*
X193926657Y-116775890D01*
X194041392Y-116974617D01*
X194181081Y-117156661D01*
X194181089Y-117156670D01*
X194343330Y-117318911D01*
X194343338Y-117318918D01*
X194343339Y-117318919D01*
X194393962Y-117357764D01*
X194525382Y-117458607D01*
X194525385Y-117458608D01*
X194525388Y-117458611D01*
X194724112Y-117573344D01*
X194724117Y-117573346D01*
X194724123Y-117573349D01*
X194815480Y-117611190D01*
X194936113Y-117661158D01*
X195157762Y-117720548D01*
X195385266Y-117750500D01*
X195385273Y-117750500D01*
X195614727Y-117750500D01*
X195614734Y-117750500D01*
X195842238Y-117720548D01*
X196063887Y-117661158D01*
X196275888Y-117573344D01*
X196474612Y-117458611D01*
X196653033Y-117321702D01*
X196718201Y-117296508D01*
X196786646Y-117310546D01*
X196836636Y-117359360D01*
X196850136Y-117395886D01*
X196867562Y-117483492D01*
X196867565Y-117483502D01*
X196927903Y-117629173D01*
X196927910Y-117629186D01*
X197015511Y-117760289D01*
X197015514Y-117760293D01*
X197127008Y-117871787D01*
X197127012Y-117871790D01*
X197258115Y-117959391D01*
X197258128Y-117959398D01*
X197403799Y-118019736D01*
X197403804Y-118019738D01*
X197558454Y-118050500D01*
X197558457Y-118050501D01*
X197558459Y-118050501D01*
X197716145Y-118050501D01*
X197716146Y-118050500D01*
X197870798Y-118019738D01*
X198016480Y-117959395D01*
X198147590Y-117871790D01*
X198259090Y-117760290D01*
X198346695Y-117629180D01*
X198376804Y-117556486D01*
X198403680Y-117516264D01*
X199787820Y-116132124D01*
X199849142Y-116098641D01*
X199918834Y-116103625D01*
X199974767Y-116145497D01*
X199999184Y-116210961D01*
X199999500Y-116219807D01*
X199999500Y-120875500D01*
X199979815Y-120942539D01*
X199927011Y-120988294D01*
X199875500Y-120999500D01*
X125634677Y-120999500D01*
X125567638Y-120979815D01*
X125521883Y-120927011D01*
X125511939Y-120857853D01*
X125534360Y-120802614D01*
X125568922Y-120755043D01*
X125568921Y-120755043D01*
X125568925Y-120755039D01*
X125658235Y-120579758D01*
X125719026Y-120392663D01*
X125728301Y-120334101D01*
X125749800Y-120198367D01*
X125749800Y-120001634D01*
X125719026Y-119807338D01*
X125658233Y-119620239D01*
X125568924Y-119444962D01*
X125453294Y-119285811D01*
X125416273Y-119248790D01*
X125382788Y-119187467D01*
X125387772Y-119117775D01*
X125429642Y-119061842D01*
X125505246Y-119005246D01*
X125591496Y-118890031D01*
X125641791Y-118755183D01*
X125648200Y-118695573D01*
X125648199Y-117959398D01*
X125648199Y-117304429D01*
X125648198Y-117304423D01*
X125648197Y-117304416D01*
X125641791Y-117244817D01*
X125614318Y-117171159D01*
X125591497Y-117109971D01*
X125591493Y-117109964D01*
X125505247Y-116994755D01*
X125403139Y-116918316D01*
X125361269Y-116862382D01*
X125356285Y-116792690D01*
X125377133Y-116746165D01*
X125408502Y-116702987D01*
X125482028Y-116601788D01*
X125564078Y-116440756D01*
X125619927Y-116268871D01*
X125648200Y-116090365D01*
X125648200Y-115909635D01*
X125619927Y-115731129D01*
X125564078Y-115559244D01*
X125482028Y-115398212D01*
X125456499Y-115363074D01*
X125375803Y-115252003D01*
X125248002Y-115124202D01*
X125215128Y-115100318D01*
X125172462Y-115044988D01*
X125166483Y-114975375D01*
X125199088Y-114913579D01*
X125215124Y-114899683D01*
X125248002Y-114875797D01*
X125375798Y-114748001D01*
X125375800Y-114747997D01*
X125375803Y-114747995D01*
X125438708Y-114661412D01*
X125482028Y-114601787D01*
X125564078Y-114440755D01*
X125619927Y-114268870D01*
X125648200Y-114090364D01*
X125648200Y-113909634D01*
X125619927Y-113731128D01*
X125564078Y-113559243D01*
X125482028Y-113398211D01*
X125459260Y-113366873D01*
X125375803Y-113252002D01*
X125248000Y-113124199D01*
X125247993Y-113124193D01*
X125232736Y-113113108D01*
X125218661Y-113094856D01*
X125201253Y-113079747D01*
X125197729Y-113067710D01*
X125190070Y-113057778D01*
X125188097Y-113034811D01*
X125181622Y-113012692D01*
X125185165Y-113000660D01*
X125184092Y-112988165D01*
X125194847Y-112967780D01*
X125201360Y-112945668D01*
X125213031Y-112933319D01*
X125216699Y-112926370D01*
X125224494Y-112919013D01*
X125228469Y-112915573D01*
X125305554Y-112859568D01*
X128999500Y-112859568D01*
X128999500Y-113140431D01*
X129030942Y-113419494D01*
X129030945Y-113419512D01*
X129093439Y-113693317D01*
X129093443Y-113693329D01*
X129186200Y-113958411D01*
X129308053Y-114211442D01*
X129308055Y-114211445D01*
X129457477Y-114449248D01*
X129632584Y-114668825D01*
X129831175Y-114867416D01*
X130050752Y-115042523D01*
X130288555Y-115191945D01*
X130541592Y-115313801D01*
X130618761Y-115340803D01*
X130670645Y-115358959D01*
X130727421Y-115399681D01*
X130753168Y-115464633D01*
X130739712Y-115533195D01*
X130691324Y-115583598D01*
X130629690Y-115600000D01*
X130295280Y-115600000D01*
X130162093Y-115610482D01*
X130162087Y-115610483D01*
X129942170Y-115665898D01*
X129942167Y-115665899D01*
X129735669Y-115759695D01*
X129735663Y-115759698D01*
X129549241Y-115888851D01*
X129549229Y-115888861D01*
X129388861Y-116049229D01*
X129388851Y-116049241D01*
X129259698Y-116235663D01*
X129259695Y-116235669D01*
X129165899Y-116442167D01*
X129165898Y-116442170D01*
X129110483Y-116662087D01*
X129110482Y-116662093D01*
X129100000Y-116795280D01*
X129100000Y-117750000D01*
X130172769Y-117750000D01*
X130150000Y-117893753D01*
X130150000Y-118106247D01*
X130172769Y-118250000D01*
X129100000Y-118250000D01*
X129100000Y-119204719D01*
X129110482Y-119337906D01*
X129110483Y-119337912D01*
X129165898Y-119557829D01*
X129165899Y-119557832D01*
X129259695Y-119764330D01*
X129259698Y-119764336D01*
X129388851Y-119950758D01*
X129388861Y-119950770D01*
X129549229Y-120111138D01*
X129549241Y-120111148D01*
X129735663Y-120240301D01*
X129735669Y-120240304D01*
X129942167Y-120334100D01*
X129942170Y-120334101D01*
X130162087Y-120389516D01*
X130162093Y-120389517D01*
X130295280Y-120399999D01*
X130295294Y-120400000D01*
X131250000Y-120400000D01*
X131250000Y-119327231D01*
X131393753Y-119350000D01*
X131606247Y-119350000D01*
X131750000Y-119327231D01*
X131750000Y-120400000D01*
X132704706Y-120400000D01*
X132704719Y-120399999D01*
X132837906Y-120389517D01*
X132837912Y-120389516D01*
X133057829Y-120334101D01*
X133057832Y-120334100D01*
X133264330Y-120240304D01*
X133264336Y-120240301D01*
X133450758Y-120111148D01*
X133450770Y-120111138D01*
X133611138Y-119950770D01*
X133611148Y-119950758D01*
X133740301Y-119764336D01*
X133740304Y-119764330D01*
X133834100Y-119557832D01*
X133834101Y-119557829D01*
X133889516Y-119337912D01*
X133889517Y-119337906D01*
X133899999Y-119204719D01*
X133900000Y-119204706D01*
X133900000Y-118250000D01*
X132827231Y-118250000D01*
X132850000Y-118106247D01*
X132850000Y-117893753D01*
X132827231Y-117750000D01*
X133900000Y-117750000D01*
X133900000Y-116795293D01*
X133899999Y-116795280D01*
X133889517Y-116662093D01*
X133889516Y-116662087D01*
X133834101Y-116442170D01*
X133834100Y-116442167D01*
X133740304Y-116235669D01*
X133740301Y-116235663D01*
X133611148Y-116049241D01*
X133611138Y-116049229D01*
X133450770Y-115888861D01*
X133450758Y-115888851D01*
X133264336Y-115759698D01*
X133264330Y-115759695D01*
X133057832Y-115665899D01*
X133057829Y-115665898D01*
X132837912Y-115610483D01*
X132837906Y-115610482D01*
X132704719Y-115600000D01*
X132370310Y-115600000D01*
X132303271Y-115580315D01*
X132257516Y-115527511D01*
X132247572Y-115458353D01*
X132276597Y-115394797D01*
X132329355Y-115358959D01*
X132367828Y-115345496D01*
X132458408Y-115313801D01*
X132711445Y-115191945D01*
X132949248Y-115042523D01*
X133168825Y-114867416D01*
X133367416Y-114668825D01*
X133542523Y-114449248D01*
X133691945Y-114211445D01*
X133813801Y-113958408D01*
X133906560Y-113693318D01*
X133969055Y-113419509D01*
X134000500Y-113140425D01*
X134000500Y-112859575D01*
X133985467Y-112726155D01*
X133969057Y-112580505D01*
X133969054Y-112580487D01*
X133963245Y-112555038D01*
X133906560Y-112306682D01*
X133813801Y-112041592D01*
X133691945Y-111788555D01*
X133542523Y-111550752D01*
X133367416Y-111331175D01*
X133168825Y-111132584D01*
X132949248Y-110957477D01*
X132711445Y-110808055D01*
X132711442Y-110808053D01*
X132458411Y-110686200D01*
X132193329Y-110593443D01*
X132193317Y-110593439D01*
X131919512Y-110530945D01*
X131919494Y-110530942D01*
X131640431Y-110499500D01*
X131640425Y-110499500D01*
X131359575Y-110499500D01*
X131359568Y-110499500D01*
X131080505Y-110530942D01*
X131080487Y-110530945D01*
X130806682Y-110593439D01*
X130806670Y-110593443D01*
X130541588Y-110686200D01*
X130288557Y-110808053D01*
X130050753Y-110957476D01*
X129831175Y-111132583D01*
X129632583Y-111331175D01*
X129457476Y-111550753D01*
X129308053Y-111788557D01*
X129186200Y-112041588D01*
X129093443Y-112306670D01*
X129093439Y-112306682D01*
X129030945Y-112580487D01*
X129030942Y-112580505D01*
X128999500Y-112859568D01*
X125305554Y-112859568D01*
X125314190Y-112853294D01*
X125453294Y-112714190D01*
X125568925Y-112555038D01*
X125658235Y-112379757D01*
X125719026Y-112192662D01*
X125740037Y-112060005D01*
X125749800Y-111998366D01*
X125749800Y-111801633D01*
X125719026Y-111607337D01*
X125658233Y-111420238D01*
X125568924Y-111244961D01*
X125453294Y-111085810D01*
X125314190Y-110946706D01*
X125155038Y-110831075D01*
X125109855Y-110808053D01*
X124979761Y-110741766D01*
X124792662Y-110680973D01*
X124598366Y-110650200D01*
X124598361Y-110650200D01*
X124401639Y-110650200D01*
X124401634Y-110650200D01*
X124207337Y-110680973D01*
X124020238Y-110741766D01*
X123844961Y-110831075D01*
X123754159Y-110897047D01*
X123685810Y-110946706D01*
X123685808Y-110946708D01*
X123685807Y-110946708D01*
X123546708Y-111085807D01*
X123546708Y-111085808D01*
X123546706Y-111085810D01*
X123512723Y-111132584D01*
X123431075Y-111244961D01*
X123341766Y-111420238D01*
X123280973Y-111607337D01*
X123250200Y-111801633D01*
X123250200Y-111998366D01*
X123280973Y-112192662D01*
X123341766Y-112379761D01*
X123386227Y-112467019D01*
X123431075Y-112555038D01*
X123546706Y-112714190D01*
X123685810Y-112853294D01*
X123767263Y-112912473D01*
X123809928Y-112967803D01*
X123815907Y-113037417D01*
X123783301Y-113099212D01*
X123767266Y-113113107D01*
X123751999Y-113124199D01*
X123624196Y-113252002D01*
X123517974Y-113398207D01*
X123435923Y-113559240D01*
X123380072Y-113731131D01*
X123374470Y-113766503D01*
X123351800Y-113909634D01*
X123351800Y-114090364D01*
X123354248Y-114105822D01*
X123377474Y-114252464D01*
X123380073Y-114268870D01*
X123435922Y-114440755D01*
X123479935Y-114527136D01*
X123517974Y-114601790D01*
X123624196Y-114747995D01*
X123752001Y-114875800D01*
X123784870Y-114899680D01*
X123827537Y-114955009D01*
X123833517Y-115024623D01*
X123800911Y-115086418D01*
X123784872Y-115100317D01*
X123751999Y-115124200D01*
X123624196Y-115252003D01*
X123517974Y-115398208D01*
X123435923Y-115559241D01*
X123380072Y-115731132D01*
X123351800Y-115909635D01*
X123351800Y-116090364D01*
X123370200Y-116206540D01*
X123380073Y-116268871D01*
X123428377Y-116417536D01*
X123435923Y-116440758D01*
X123517971Y-116601787D01*
X123622867Y-116746165D01*
X123646346Y-116811972D01*
X123630520Y-116880026D01*
X123596860Y-116918316D01*
X123494752Y-116994755D01*
X123408506Y-117109964D01*
X123408502Y-117109971D01*
X123358208Y-117244817D01*
X123353088Y-117292446D01*
X123351801Y-117304423D01*
X123351800Y-117304435D01*
X123351800Y-118695570D01*
X123351801Y-118695576D01*
X123358208Y-118755183D01*
X123408502Y-118890028D01*
X123408506Y-118890035D01*
X123477658Y-118982409D01*
X123494754Y-119005246D01*
X123570357Y-119061842D01*
X123612227Y-119117775D01*
X123617211Y-119187467D01*
X123583728Y-119248787D01*
X123546709Y-119285806D01*
X123546708Y-119285809D01*
X123546706Y-119285811D01*
X123524222Y-119316758D01*
X123431075Y-119444962D01*
X123341766Y-119620239D01*
X123280973Y-119807338D01*
X123250200Y-120001634D01*
X123250200Y-120198367D01*
X123280973Y-120392663D01*
X123341766Y-120579762D01*
X123431077Y-120755043D01*
X123465640Y-120802614D01*
X123489121Y-120868420D01*
X123473296Y-120936474D01*
X123423191Y-120985169D01*
X123365323Y-120999500D01*
X121124500Y-120999500D01*
X121057461Y-120979815D01*
X121011706Y-120927011D01*
X121000500Y-120875500D01*
X121000500Y-108426916D01*
X121006737Y-108405672D01*
X121008317Y-108383585D01*
X121016390Y-108372799D01*
X121020185Y-108359877D01*
X121036916Y-108345379D01*
X121050187Y-108327651D01*
X121062809Y-108322942D01*
X121072989Y-108314122D01*
X121094904Y-108310970D01*
X121115651Y-108303232D01*
X121128814Y-108306095D01*
X121142147Y-108304178D01*
X121162287Y-108313375D01*
X121183924Y-108318082D01*
X121201651Y-108331352D01*
X121205703Y-108333203D01*
X121212179Y-108339233D01*
X121250499Y-108377553D01*
X121250503Y-108377555D01*
X122250500Y-109377552D01*
X122397007Y-109483996D01*
X122558361Y-109566211D01*
X122696671Y-109611150D01*
X122730590Y-109622172D01*
X122909449Y-109650501D01*
X122909454Y-109650501D01*
X123090546Y-109650501D01*
X123090547Y-109650501D01*
X123269409Y-109622172D01*
X123441639Y-109566211D01*
X123602994Y-109483996D01*
X123749501Y-109377552D01*
X123877552Y-109249501D01*
X123983996Y-109102994D01*
X124066211Y-108941639D01*
X124122172Y-108769409D01*
X124150501Y-108590547D01*
X124150501Y-108409454D01*
X124150501Y-108409448D01*
X124122172Y-108230590D01*
X124111150Y-108196671D01*
X124066211Y-108058361D01*
X123983996Y-107897007D01*
X123877552Y-107750500D01*
X123654585Y-107527533D01*
X123186819Y-107059766D01*
X123153334Y-106998443D01*
X123150500Y-106972085D01*
X123150500Y-98027915D01*
X123170185Y-97960876D01*
X123186819Y-97940234D01*
X124316068Y-96810985D01*
X124377391Y-96777500D01*
X124403749Y-96774666D01*
X126123226Y-96774666D01*
X126209934Y-96760931D01*
X126302084Y-96746337D01*
X126474314Y-96690377D01*
X126635669Y-96608162D01*
X126782176Y-96501719D01*
X126910228Y-96373667D01*
X127016671Y-96227160D01*
X127037258Y-96186755D01*
X127085230Y-96135961D01*
X127153051Y-96119165D01*
X127219186Y-96141701D01*
X127235423Y-96155370D01*
X128359536Y-97279483D01*
X128359539Y-97279485D01*
X128359541Y-97279487D01*
X128466083Y-97350675D01*
X128584466Y-97399711D01*
X128584470Y-97399711D01*
X128584471Y-97399712D01*
X128710138Y-97424710D01*
X128710141Y-97424710D01*
X140995065Y-97424710D01*
X141062104Y-97444395D01*
X141063909Y-97445576D01*
X141120821Y-97483604D01*
X141120823Y-97483605D01*
X141120827Y-97483607D01*
X141266498Y-97543945D01*
X141266503Y-97543947D01*
X141410138Y-97572518D01*
X141421153Y-97574709D01*
X141421156Y-97574710D01*
X141421158Y-97574710D01*
X141578844Y-97574710D01*
X141578845Y-97574709D01*
X141733497Y-97543947D01*
X141879179Y-97483604D01*
X142010289Y-97395999D01*
X142121789Y-97284499D01*
X142209394Y-97153389D01*
X142269737Y-97007707D01*
X142300500Y-96853052D01*
X142300500Y-96695368D01*
X142300500Y-96695365D01*
X142300499Y-96695363D01*
X142285994Y-96622444D01*
X142269737Y-96540713D01*
X142269735Y-96540708D01*
X142209397Y-96395037D01*
X142209390Y-96395024D01*
X142121789Y-96263921D01*
X142121786Y-96263917D01*
X142010292Y-96152423D01*
X142010288Y-96152420D01*
X141879185Y-96064819D01*
X141879172Y-96064812D01*
X141733501Y-96004474D01*
X141733489Y-96004471D01*
X141578845Y-95973710D01*
X141578842Y-95973710D01*
X141421158Y-95973710D01*
X141421155Y-95973710D01*
X141266510Y-96004471D01*
X141266498Y-96004474D01*
X141120827Y-96064812D01*
X141120820Y-96064816D01*
X141091928Y-96084121D01*
X141063955Y-96102812D01*
X140997279Y-96123690D01*
X140995065Y-96123710D01*
X129095018Y-96123710D01*
X129027979Y-96104025D01*
X129007337Y-96087391D01*
X128186819Y-95266873D01*
X128153334Y-95205550D01*
X128150500Y-95179192D01*
X128150500Y-93775549D01*
X134187872Y-93775549D01*
X134194273Y-93835077D01*
X134194275Y-93835084D01*
X134244517Y-93969791D01*
X134244521Y-93969798D01*
X134330681Y-94084892D01*
X134330684Y-94084895D01*
X134445778Y-94171055D01*
X134445785Y-94171059D01*
X134580492Y-94221301D01*
X134580499Y-94221303D01*
X134640027Y-94227704D01*
X134640044Y-94227705D01*
X135737872Y-94227705D01*
X135737872Y-94131259D01*
X135737871Y-94131258D01*
X136237872Y-94131258D01*
X136237872Y-94227705D01*
X137335700Y-94227705D01*
X137335716Y-94227704D01*
X137395244Y-94221303D01*
X137395251Y-94221301D01*
X137529958Y-94171059D01*
X137529965Y-94171055D01*
X137645059Y-94084895D01*
X137645062Y-94084892D01*
X137731222Y-93969798D01*
X137731226Y-93969791D01*
X137781468Y-93835084D01*
X137781470Y-93835077D01*
X137787871Y-93775549D01*
X137787872Y-93775532D01*
X137787872Y-92327705D01*
X137241425Y-92327705D01*
X137395183Y-92481463D01*
X137428668Y-92542786D01*
X137423684Y-92612478D01*
X137395184Y-92656825D01*
X137324304Y-92727705D01*
X137395184Y-92798585D01*
X137428669Y-92859908D01*
X137423685Y-92929600D01*
X137395184Y-92973947D01*
X136237872Y-94131258D01*
X135737871Y-94131258D01*
X134951497Y-93344884D01*
X135172872Y-93344884D01*
X135172872Y-93410526D01*
X135197991Y-93471170D01*
X135244407Y-93517586D01*
X135305051Y-93542705D01*
X135370693Y-93542705D01*
X135431337Y-93517586D01*
X135477753Y-93471170D01*
X135502872Y-93410526D01*
X135502872Y-93377705D01*
X135691426Y-93377705D01*
X135737872Y-93424150D01*
X135737872Y-93424149D01*
X136237872Y-93424149D01*
X136284317Y-93377705D01*
X136251496Y-93344884D01*
X136472872Y-93344884D01*
X136472872Y-93410526D01*
X136497991Y-93471170D01*
X136544407Y-93517586D01*
X136605051Y-93542705D01*
X136670693Y-93542705D01*
X136731337Y-93517586D01*
X136777753Y-93471170D01*
X136802872Y-93410526D01*
X136802872Y-93344884D01*
X136777753Y-93284240D01*
X136731337Y-93237824D01*
X136670693Y-93212705D01*
X136605051Y-93212705D01*
X136544407Y-93237824D01*
X136497991Y-93284240D01*
X136472872Y-93344884D01*
X136251496Y-93344884D01*
X136237872Y-93331260D01*
X136237872Y-93424149D01*
X135737872Y-93424149D01*
X135737872Y-93331259D01*
X135691426Y-93377705D01*
X135502872Y-93377705D01*
X135502872Y-93344884D01*
X135477753Y-93284240D01*
X135431337Y-93237824D01*
X135370693Y-93212705D01*
X135305051Y-93212705D01*
X135244407Y-93237824D01*
X135197991Y-93284240D01*
X135172872Y-93344884D01*
X134951497Y-93344884D01*
X134580560Y-92973947D01*
X134547075Y-92912624D01*
X134552059Y-92842932D01*
X134557807Y-92829872D01*
X134609979Y-92727705D01*
X135041426Y-92727705D01*
X135337872Y-93024151D01*
X135634318Y-92727705D01*
X136341426Y-92727705D01*
X136637872Y-93024151D01*
X136934318Y-92727705D01*
X136637872Y-92431259D01*
X136341426Y-92727705D01*
X135634318Y-92727705D01*
X135337872Y-92431259D01*
X135041426Y-92727705D01*
X134609979Y-92727705D01*
X134623994Y-92700259D01*
X134580560Y-92656825D01*
X134547075Y-92595502D01*
X134552059Y-92525810D01*
X134580560Y-92481463D01*
X134734318Y-92327705D01*
X134187872Y-92327705D01*
X134187872Y-93775549D01*
X128150500Y-93775549D01*
X128150500Y-93485917D01*
X128170185Y-93418878D01*
X128171366Y-93417072D01*
X128209394Y-93360161D01*
X128269737Y-93214479D01*
X128300500Y-93059824D01*
X128300500Y-92902140D01*
X128300500Y-92902137D01*
X128300499Y-92902135D01*
X128284322Y-92820807D01*
X128269737Y-92747485D01*
X128259037Y-92721653D01*
X128209397Y-92601809D01*
X128209390Y-92601796D01*
X128121789Y-92470693D01*
X128121786Y-92470689D01*
X128010292Y-92359195D01*
X128010288Y-92359192D01*
X127879185Y-92271591D01*
X127879172Y-92271584D01*
X127733501Y-92211246D01*
X127733489Y-92211243D01*
X127578845Y-92180482D01*
X127578842Y-92180482D01*
X127421158Y-92180482D01*
X127421155Y-92180482D01*
X127266510Y-92211243D01*
X127266498Y-92211246D01*
X127120827Y-92271584D01*
X127120814Y-92271591D01*
X126989711Y-92359192D01*
X126989707Y-92359195D01*
X126878213Y-92470689D01*
X126878210Y-92470693D01*
X126790609Y-92601796D01*
X126790602Y-92601809D01*
X126730264Y-92747480D01*
X126730261Y-92747492D01*
X126699500Y-92902135D01*
X126699500Y-93059828D01*
X126730261Y-93214471D01*
X126730264Y-93214483D01*
X126790602Y-93360154D01*
X126790606Y-93360161D01*
X126828602Y-93417026D01*
X126849480Y-93483703D01*
X126849500Y-93485917D01*
X126849500Y-94552163D01*
X126829815Y-94619202D01*
X126777011Y-94664957D01*
X126707853Y-94674901D01*
X126652616Y-94652482D01*
X126635671Y-94640171D01*
X126474314Y-94557954D01*
X126474311Y-94557953D01*
X126302085Y-94501995D01*
X126123226Y-94473666D01*
X126123221Y-94473666D01*
X123971516Y-94473666D01*
X123971492Y-94473665D01*
X123966381Y-94473665D01*
X123785288Y-94473665D01*
X123726275Y-94483012D01*
X123606423Y-94501995D01*
X123434197Y-94557953D01*
X123434194Y-94557954D01*
X123272836Y-94640172D01*
X123126339Y-94746607D01*
X123126334Y-94746611D01*
X121212181Y-96660765D01*
X121150858Y-96694250D01*
X121081166Y-96689266D01*
X121025233Y-96647394D01*
X121000816Y-96581930D01*
X121000500Y-96573084D01*
X121000500Y-92044884D01*
X135172872Y-92044884D01*
X135172872Y-92110526D01*
X135197991Y-92171170D01*
X135244407Y-92217586D01*
X135305051Y-92242705D01*
X135370693Y-92242705D01*
X135431337Y-92217586D01*
X135477753Y-92171170D01*
X135502872Y-92110526D01*
X135502872Y-92044884D01*
X136472872Y-92044884D01*
X136472872Y-92110526D01*
X136497991Y-92171170D01*
X136544407Y-92217586D01*
X136605051Y-92242705D01*
X136670693Y-92242705D01*
X136731337Y-92217586D01*
X136777753Y-92171170D01*
X136802872Y-92110526D01*
X136802872Y-92044884D01*
X136777753Y-91984240D01*
X136731337Y-91937824D01*
X136670693Y-91912705D01*
X136605051Y-91912705D01*
X136544407Y-91937824D01*
X136497991Y-91984240D01*
X136472872Y-92044884D01*
X135502872Y-92044884D01*
X135477753Y-91984240D01*
X135431337Y-91937824D01*
X135370693Y-91912705D01*
X135305051Y-91912705D01*
X135244407Y-91937824D01*
X135197991Y-91984240D01*
X135172872Y-92044884D01*
X121000500Y-92044884D01*
X121000500Y-90379860D01*
X134187872Y-90379860D01*
X134187872Y-91827705D01*
X134734318Y-91827705D01*
X134734318Y-91827704D01*
X134580560Y-91673946D01*
X134547075Y-91612623D01*
X134552059Y-91542931D01*
X134557807Y-91529871D01*
X134609979Y-91427705D01*
X135041426Y-91427705D01*
X135337872Y-91724151D01*
X135634318Y-91427705D01*
X136341426Y-91427705D01*
X136637872Y-91724151D01*
X136934318Y-91427705D01*
X136637872Y-91131259D01*
X136341426Y-91427705D01*
X135634318Y-91427705D01*
X135337872Y-91131259D01*
X135041426Y-91427705D01*
X134609979Y-91427705D01*
X134623994Y-91400259D01*
X134580560Y-91356825D01*
X134547075Y-91295502D01*
X134552059Y-91225810D01*
X134580560Y-91181463D01*
X135017139Y-90744884D01*
X135172872Y-90744884D01*
X135172872Y-90810526D01*
X135197991Y-90871170D01*
X135244407Y-90917586D01*
X135305051Y-90942705D01*
X135370693Y-90942705D01*
X135431337Y-90917586D01*
X135477753Y-90871170D01*
X135502872Y-90810526D01*
X135502872Y-90777705D01*
X135691426Y-90777705D01*
X135737872Y-90824150D01*
X135737872Y-90824149D01*
X136237872Y-90824149D01*
X136284317Y-90777705D01*
X136251496Y-90744884D01*
X136472872Y-90744884D01*
X136472872Y-90810526D01*
X136497991Y-90871170D01*
X136544407Y-90917586D01*
X136605051Y-90942705D01*
X136670693Y-90942705D01*
X136731337Y-90917586D01*
X136777753Y-90871170D01*
X136802872Y-90810526D01*
X136802872Y-90744884D01*
X136777753Y-90684240D01*
X136731337Y-90637824D01*
X136670693Y-90612705D01*
X136605051Y-90612705D01*
X136544407Y-90637824D01*
X136497991Y-90684240D01*
X136472872Y-90744884D01*
X136251496Y-90744884D01*
X136237872Y-90731260D01*
X136237872Y-90824149D01*
X135737872Y-90824149D01*
X135737872Y-90731259D01*
X135691426Y-90777705D01*
X135502872Y-90777705D01*
X135502872Y-90744884D01*
X135477753Y-90684240D01*
X135431337Y-90637824D01*
X135370693Y-90612705D01*
X135305051Y-90612705D01*
X135244407Y-90637824D01*
X135197991Y-90684240D01*
X135172872Y-90744884D01*
X135017139Y-90744884D01*
X135123361Y-90638662D01*
X135737871Y-90024151D01*
X136237872Y-90024151D01*
X137395184Y-91181463D01*
X137428669Y-91242786D01*
X137423685Y-91312478D01*
X137395184Y-91356825D01*
X137324304Y-91427705D01*
X137395183Y-91498584D01*
X137428668Y-91559907D01*
X137423684Y-91629599D01*
X137395183Y-91673946D01*
X137241425Y-91827703D01*
X137241426Y-91827705D01*
X137787872Y-91827705D01*
X137787872Y-90379877D01*
X137787871Y-90379860D01*
X137781470Y-90320332D01*
X137781468Y-90320325D01*
X137731226Y-90185618D01*
X137731222Y-90185611D01*
X137645062Y-90070517D01*
X137645059Y-90070514D01*
X137529965Y-89984354D01*
X137529958Y-89984350D01*
X137395251Y-89934108D01*
X137395244Y-89934106D01*
X137335716Y-89927705D01*
X136237872Y-89927705D01*
X136237872Y-90024151D01*
X135737871Y-90024151D01*
X135737872Y-90024150D01*
X135737872Y-89927705D01*
X134640027Y-89927705D01*
X134580499Y-89934106D01*
X134580492Y-89934108D01*
X134445785Y-89984350D01*
X134445778Y-89984354D01*
X134330684Y-90070514D01*
X134330681Y-90070517D01*
X134244521Y-90185611D01*
X134244517Y-90185618D01*
X134194275Y-90320325D01*
X134194273Y-90320332D01*
X134187872Y-90379860D01*
X121000500Y-90379860D01*
X121000500Y-85885258D01*
X123749500Y-85885258D01*
X123749500Y-86114741D01*
X123763182Y-86218657D01*
X123779452Y-86342238D01*
X123821858Y-86500500D01*
X123838842Y-86563887D01*
X123926650Y-86775876D01*
X123926657Y-86775890D01*
X124041392Y-86974617D01*
X124181081Y-87156661D01*
X124181089Y-87156670D01*
X124343330Y-87318911D01*
X124343338Y-87318918D01*
X124525382Y-87458607D01*
X124525385Y-87458608D01*
X124525388Y-87458611D01*
X124724112Y-87573344D01*
X124724117Y-87573346D01*
X124724123Y-87573349D01*
X124815480Y-87611190D01*
X124936113Y-87661158D01*
X125157762Y-87720548D01*
X125385266Y-87750500D01*
X125385273Y-87750500D01*
X125614727Y-87750500D01*
X125614734Y-87750500D01*
X125842238Y-87720548D01*
X126063887Y-87661158D01*
X126275888Y-87573344D01*
X126474612Y-87458611D01*
X126656661Y-87318919D01*
X126656665Y-87318914D01*
X126656670Y-87318911D01*
X126818911Y-87156670D01*
X126818914Y-87156665D01*
X126818919Y-87156661D01*
X126958611Y-86974612D01*
X127073344Y-86775888D01*
X127161158Y-86563887D01*
X127220548Y-86342238D01*
X127250500Y-86114734D01*
X127250500Y-85885266D01*
X127220548Y-85657762D01*
X127161158Y-85436113D01*
X127090967Y-85266657D01*
X127073349Y-85224123D01*
X127073346Y-85224117D01*
X127073344Y-85224112D01*
X126958611Y-85025388D01*
X126958608Y-85025385D01*
X126958607Y-85025382D01*
X126818918Y-84843338D01*
X126818911Y-84843330D01*
X126656670Y-84681089D01*
X126656661Y-84681081D01*
X126474617Y-84541392D01*
X126458990Y-84532370D01*
X126275888Y-84426656D01*
X126275876Y-84426650D01*
X126063887Y-84338842D01*
X126036792Y-84331582D01*
X125842238Y-84279452D01*
X125804215Y-84274446D01*
X125614741Y-84249500D01*
X125614734Y-84249500D01*
X125385266Y-84249500D01*
X125385258Y-84249500D01*
X125168715Y-84278009D01*
X125157762Y-84279452D01*
X125064076Y-84304554D01*
X124936112Y-84338842D01*
X124724123Y-84426650D01*
X124724109Y-84426657D01*
X124525382Y-84541392D01*
X124343338Y-84681081D01*
X124181081Y-84843338D01*
X124041392Y-85025382D01*
X123926657Y-85224109D01*
X123926650Y-85224123D01*
X123838842Y-85436112D01*
X123779453Y-85657759D01*
X123779451Y-85657770D01*
X123749500Y-85885258D01*
X121000500Y-85885258D01*
X121000500Y-84199983D01*
X133399500Y-84199983D01*
X133399500Y-85800001D01*
X133399501Y-85800018D01*
X133410000Y-85902796D01*
X133410001Y-85902799D01*
X133455894Y-86041294D01*
X133465186Y-86069334D01*
X133557288Y-86218656D01*
X133681344Y-86342712D01*
X133830666Y-86434814D01*
X133997203Y-86489999D01*
X134099991Y-86500500D01*
X135400008Y-86500499D01*
X135502797Y-86489999D01*
X135669334Y-86434814D01*
X135818656Y-86342712D01*
X135942712Y-86218656D01*
X136034814Y-86069334D01*
X136034814Y-86069331D01*
X136038178Y-86063879D01*
X136090126Y-86017154D01*
X136159088Y-86005931D01*
X136223170Y-86033774D01*
X136231398Y-86041294D01*
X136370213Y-86180109D01*
X136542179Y-86305048D01*
X136542181Y-86305049D01*
X136542184Y-86305051D01*
X136731588Y-86401557D01*
X136933757Y-86467246D01*
X137143713Y-86500500D01*
X137143714Y-86500500D01*
X137356286Y-86500500D01*
X137356287Y-86500500D01*
X137566243Y-86467246D01*
X137768412Y-86401557D01*
X137957816Y-86305051D01*
X138026640Y-86255048D01*
X138129786Y-86180109D01*
X138129788Y-86180106D01*
X138129792Y-86180104D01*
X138280104Y-86029792D01*
X138280106Y-86029788D01*
X138280109Y-86029786D01*
X138405048Y-85857820D01*
X138405050Y-85857817D01*
X138405051Y-85857816D01*
X138501557Y-85668412D01*
X138567246Y-85466243D01*
X138600500Y-85256287D01*
X138600500Y-84743713D01*
X138567246Y-84533757D01*
X138501557Y-84331588D01*
X138493925Y-84316609D01*
X138461597Y-84253160D01*
X138461596Y-84253159D01*
X138423024Y-84177459D01*
X138405051Y-84142184D01*
X138372443Y-84097302D01*
X138280109Y-83970213D01*
X138129786Y-83819890D01*
X137957820Y-83694951D01*
X137768414Y-83598444D01*
X137768413Y-83598443D01*
X137768412Y-83598443D01*
X137566243Y-83532754D01*
X137566241Y-83532753D01*
X137566240Y-83532753D01*
X137404957Y-83507208D01*
X137356287Y-83499500D01*
X137143713Y-83499500D01*
X137095042Y-83507208D01*
X136933760Y-83532753D01*
X136731585Y-83598444D01*
X136542179Y-83694951D01*
X136370215Y-83819889D01*
X136231398Y-83958706D01*
X136170075Y-83992190D01*
X136100383Y-83987206D01*
X136044450Y-83945334D01*
X136038178Y-83936120D01*
X135942712Y-83781344D01*
X135818657Y-83657289D01*
X135818656Y-83657288D01*
X135669334Y-83565186D01*
X135502797Y-83510001D01*
X135502795Y-83510000D01*
X135400010Y-83499500D01*
X134099998Y-83499500D01*
X134099981Y-83499501D01*
X133997203Y-83510000D01*
X133997200Y-83510001D01*
X133830668Y-83565185D01*
X133830663Y-83565187D01*
X133681342Y-83657289D01*
X133557289Y-83781342D01*
X133465187Y-83930663D01*
X133465185Y-83930668D01*
X133463258Y-83936484D01*
X133410001Y-84097203D01*
X133410001Y-84097204D01*
X133410000Y-84097204D01*
X133399500Y-84199983D01*
X121000500Y-84199983D01*
X121000500Y-82124500D01*
X121020185Y-82057461D01*
X121072989Y-82011706D01*
X121124500Y-82000500D01*
X199875500Y-82000500D01*
X199942539Y-82020185D01*
G37*
G04 #@! TD.AperFunction*
G04 #@! TA.AperFunction,Conductor*
G36*
X196490897Y-105137344D02*
G01*
X196516817Y-105142789D01*
X196558485Y-105179156D01*
X196614516Y-105256276D01*
X196743725Y-105385485D01*
X196891557Y-105492891D01*
X197054370Y-105575848D01*
X197228156Y-105632315D01*
X197295836Y-105643034D01*
X197408631Y-105660900D01*
X197408636Y-105660900D01*
X197591371Y-105660900D01*
X197691632Y-105645019D01*
X197771846Y-105632315D01*
X197945632Y-105575848D01*
X198108445Y-105492891D01*
X198256277Y-105385485D01*
X198385486Y-105256276D01*
X198492892Y-105108444D01*
X198575849Y-104945631D01*
X198607570Y-104848004D01*
X198647006Y-104790330D01*
X198711365Y-104763132D01*
X198780211Y-104775047D01*
X198831687Y-104822291D01*
X198849500Y-104886324D01*
X198849500Y-108279192D01*
X198829815Y-108346231D01*
X198777011Y-108391986D01*
X198707853Y-108401930D01*
X198644297Y-108372905D01*
X198637819Y-108366873D01*
X196000466Y-105729520D01*
X195966981Y-105668197D01*
X195971965Y-105598505D01*
X196013837Y-105542572D01*
X196031854Y-105531353D01*
X196108178Y-105492464D01*
X196125978Y-105479531D01*
X195552847Y-104906400D01*
X195553504Y-104906400D01*
X195656865Y-104878705D01*
X195749536Y-104825201D01*
X195825201Y-104749536D01*
X195878705Y-104656865D01*
X195906400Y-104553504D01*
X195906400Y-104552847D01*
X196490897Y-105137344D01*
G37*
G04 #@! TD.AperFunction*
G04 #@! TA.AperFunction,Conductor*
G36*
X196586417Y-103220693D02*
G01*
X196600317Y-103236734D01*
X196614516Y-103256277D01*
X196743725Y-103385486D01*
X196763266Y-103399683D01*
X196805930Y-103455012D01*
X196811909Y-103524625D01*
X196779303Y-103586420D01*
X196763267Y-103600316D01*
X196743728Y-103614512D01*
X196743722Y-103614517D01*
X196614517Y-103743722D01*
X196558487Y-103820841D01*
X196503156Y-103863506D01*
X196487777Y-103865773D01*
X195906400Y-104447151D01*
X195906400Y-104446496D01*
X195878705Y-104343135D01*
X195825201Y-104250464D01*
X195749536Y-104174799D01*
X195656865Y-104121295D01*
X195553504Y-104093600D01*
X195552846Y-104093600D01*
X196137344Y-103509101D01*
X196142787Y-103483188D01*
X196179155Y-103441517D01*
X196256276Y-103385486D01*
X196385485Y-103256277D01*
X196399682Y-103236736D01*
X196455008Y-103194070D01*
X196524621Y-103188089D01*
X196586417Y-103220693D01*
G37*
G04 #@! TD.AperFunction*
M02*
