M48
; DRILL file {KiCad 9.0.2+dfsg-1} date 2025-08-18T20:56:26-0400
; FORMAT={-:-/ absolute / metric / decimal}
; #@! TF.CreationDate,2025-08-18T20:56:26-04:00
; #@! TF.GenerationSoftware,Kicad,Pcbnew,9.0.2+dfsg-1
; #@! TF.FileFunction,Plated,1,2,PTH
FMAT,2
METRIC
; #@! TA.AperFunction,Plated,PTH,ViaDrill
T1C0.300
; #@! TA.AperFunction,Plated,PTH,ComponentDrill
T2C0.330
; #@! TA.AperFunction,Plated,PTH,ComponentDrill
T3C0.762
; #@! TA.AperFunction,Plated,PTH,ComponentDrill
T4C0.787
; #@! TA.AperFunction,Plated,PTH,ComponentDrill
T5C0.813
; #@! TA.AperFunction,Plated,PTH,ComponentDrill
T6C0.950
; #@! TA.AperFunction,Plated,PTH,ComponentDrill
T7C1.000
; #@! TA.AperFunction,Plated,PTH,ComponentDrill
T8C1.499
; #@! TA.AperFunction,Plated,PTH,ComponentDrill
T9C2.700
%
G90
G05
T1
X123.0Y-108.5
X126.0Y-93.0
X126.033Y-95.624
X127.5Y-92.981
X129.0Y-118.0
X130.5Y-89.5
X131.5Y-120.5
X133.113Y-90.173
X133.5Y-104.5
X134.0Y-118.0
X138.863Y-91.443
X141.5Y-96.774
X148.0Y-87.0
X148.5Y-95.624
X148.5Y-96.774
X153.0Y-94.0
X158.2Y-92.15
X161.287Y-94.202
X162.846Y-95.667
X165.5Y-99.65
X168.0Y-87.0
X169.0Y-115.0
X170.5Y-114.0
X171.226Y-96.774
X171.88Y-95.623
X172.0Y-97.424
X172.0Y-99.15
X174.5Y-96.774
X175.175Y-92.825
X175.5Y-91.5
X177.5Y-91.5
X179.5Y-90.0
X187.883Y-91.555
X193.733Y-113.727
X194.5Y-113.5
X197.637Y-117.25
X198.196Y-115.868
T2
X135.338Y-90.778
X135.338Y-92.078
X135.338Y-93.378
X136.638Y-90.778
X136.638Y-92.078
X136.638Y-93.378
X184.358Y-90.89
X184.358Y-92.19
X184.358Y-93.49
X185.658Y-90.89
X185.658Y-92.19
X185.658Y-93.49
T3
X138.66Y-102.0
X138.66Y-117.24
X141.2Y-102.0
X141.2Y-117.24
X141.5Y-105.81
X141.5Y-108.35
X141.5Y-110.89
X141.5Y-113.43
X143.74Y-102.0
X143.74Y-117.24
X146.28Y-102.0
X146.28Y-117.24
X148.82Y-102.0
X148.82Y-117.24
X151.36Y-102.0
X151.36Y-117.24
X153.9Y-102.0
X153.9Y-117.24
X156.44Y-102.0
X156.44Y-117.24
X158.98Y-102.0
X158.98Y-117.24
X161.52Y-102.0
X161.52Y-117.24
X164.06Y-102.0
X164.06Y-117.24
X166.6Y-102.0
X166.6Y-117.24
X169.14Y-102.0
X169.14Y-117.24
X171.68Y-102.0
X171.68Y-117.24
X174.22Y-102.0
X174.22Y-117.24
X176.76Y-102.0
X176.76Y-117.24
X179.3Y-102.0
X179.3Y-117.24
X181.84Y-102.0
X181.84Y-117.24
X184.38Y-102.0
X184.38Y-117.24
X186.92Y-102.0
X186.92Y-117.24
T4
X124.5Y-114.0
X124.5Y-116.0
X124.5Y-118.0
T5
X195.5Y-98.5
X195.5Y-100.5
X195.5Y-102.5
X195.5Y-104.5
X197.5Y-98.5
X197.5Y-100.5
X197.5Y-102.5
X197.5Y-104.5
T6
X148.0Y-84.975
X150.5Y-84.975
X153.0Y-84.975
X168.0Y-84.975
X170.5Y-84.975
X173.0Y-84.975
T7
X134.75Y-85.0
X137.25Y-85.0
X183.729Y-85.0
X186.229Y-85.0
T8
X124.5Y-111.9
X124.5Y-120.1
T9
X131.5Y-113.0
X131.5Y-118.0
M30
