G04 #@! TF.GenerationSoftware,KiCad,Pcbnew,9.0.2+dfsg-1*
G04 #@! TF.CreationDate,2025-08-18T21:53:10-04:00*
G04 #@! TF.ProjectId,Basic_Controller,42617369-635f-4436-9f6e-74726f6c6c65,rev?*
G04 #@! TF.SameCoordinates,Original*
G04 #@! TF.FileFunction,Paste,Top*
G04 #@! TF.FilePolarity,Positive*
%FSLAX46Y46*%
G04 Gerber Fmt 4.6, Leading zero omitted, Abs format (unit mm)*
G04 Created by KiCad (PCBNEW 9.0.2+dfsg-1) date 2025-08-18 21:53:10*
%MOMM*%
%LPD*%
G01*
G04 APERTURE LIST*
G04 Aperture macros list*
%AMRoundRect*
0 Rectangle with rounded corners*
0 $1 Rounding radius*
0 $2 $3 $4 $5 $6 $7 $8 $9 X,Y pos of 4 corners*
0 Add a 4 corners polygon primitive as box body*
4,1,4,$2,$3,$4,$5,$6,$7,$8,$9,$2,$3,0*
0 Add four circle primitives for the rounded corners*
1,1,$1+$1,$2,$3*
1,1,$1+$1,$4,$5*
1,1,$1+$1,$6,$7*
1,1,$1+$1,$8,$9*
0 Add four rect primitives between the rounded corners*
20,1,$1+$1,$2,$3,$4,$5,0*
20,1,$1+$1,$4,$5,$6,$7,0*
20,1,$1+$1,$6,$7,$8,$9,0*
20,1,$1+$1,$8,$9,$2,$3,0*%
G04 Aperture macros list end*
%ADD10R,2.200000X0.500000*%
%ADD11R,2.400000X3.100000*%
%ADD12RoundRect,0.225000X0.250000X-0.225000X0.250000X0.225000X-0.250000X0.225000X-0.250000X-0.225000X0*%
%ADD13RoundRect,0.225000X-0.225000X-0.250000X0.225000X-0.250000X0.225000X0.250000X-0.225000X0.250000X0*%
%ADD14RoundRect,0.200000X0.275000X-0.200000X0.275000X0.200000X-0.275000X0.200000X-0.275000X-0.200000X0*%
%ADD15RoundRect,0.218750X-0.218750X-0.256250X0.218750X-0.256250X0.218750X0.256250X-0.218750X0.256250X0*%
%ADD16RoundRect,0.200000X-0.200000X-0.275000X0.200000X-0.275000X0.200000X0.275000X-0.200000X0.275000X0*%
%ADD17RoundRect,0.375000X-0.625000X-0.375000X0.625000X-0.375000X0.625000X0.375000X-0.625000X0.375000X0*%
%ADD18RoundRect,0.500000X-0.500000X-1.400000X0.500000X-1.400000X0.500000X1.400000X-0.500000X1.400000X0*%
%ADD19RoundRect,0.225000X-0.250000X0.225000X-0.250000X-0.225000X0.250000X-0.225000X0.250000X0.225000X0*%
%ADD20RoundRect,0.375000X0.375000X-0.625000X0.375000X0.625000X-0.375000X0.625000X-0.375000X-0.625000X0*%
%ADD21RoundRect,0.500000X1.400000X-0.500000X1.400000X0.500000X-1.400000X0.500000X-1.400000X-0.500000X0*%
%ADD22RoundRect,0.225000X0.225000X0.250000X-0.225000X0.250000X-0.225000X-0.250000X0.225000X-0.250000X0*%
G04 APERTURE END LIST*
D10*
X138362872Y-41672705D03*
X138362872Y-42942705D03*
X138362872Y-44212705D03*
X138362872Y-45482705D03*
X132612872Y-45482705D03*
X132612872Y-44212705D03*
X132612872Y-42942705D03*
X132612872Y-41672705D03*
D11*
X135487872Y-43577705D03*
D12*
X186000000Y-48785828D03*
X186000000Y-47235828D03*
D13*
X159950000Y-35000000D03*
X161500000Y-35000000D03*
D14*
X130509869Y-47133662D03*
X130509869Y-45483662D03*
D15*
X123000000Y-61500000D03*
X124575000Y-61500000D03*
D12*
X187525539Y-48786376D03*
X187525539Y-47236376D03*
D16*
X177873274Y-45596959D03*
X179523274Y-45596959D03*
D11*
X184507678Y-43689585D03*
D10*
X181632678Y-41784585D03*
X181632678Y-43054585D03*
X181632678Y-44324585D03*
X181632678Y-45594585D03*
X187382678Y-45594585D03*
X187382678Y-44324585D03*
X187382678Y-43054585D03*
X187382678Y-41784585D03*
D17*
X123200000Y-65700000D03*
X123200000Y-68000000D03*
D18*
X129500000Y-68000000D03*
D17*
X123200000Y-70300000D03*
D19*
X132000000Y-67950000D03*
X132000000Y-69500000D03*
D20*
X157700000Y-43650000D03*
X160000000Y-43650000D03*
D21*
X160000000Y-37350000D03*
D20*
X162300000Y-43650000D03*
D12*
X137001284Y-48674210D03*
X137001284Y-47124210D03*
D22*
X198445741Y-53574114D03*
X196895741Y-53574114D03*
D12*
X191151253Y-62236555D03*
X191151253Y-60686555D03*
D22*
X162337424Y-45701837D03*
X160787424Y-45701837D03*
X124550000Y-63000000D03*
X123000000Y-63000000D03*
D12*
X138526823Y-48674210D03*
X138526823Y-47124210D03*
M02*
