M48
; DRILL file {KiCad 9.0.2+dfsg-1} date 2025-08-18T21:53:15-0400
; FORMAT={-:-/ absolute / metric / decimal}
; #@! TF.CreationDate,2025-08-18T21:53:15-04:00
; #@! TF.GenerationSoftware,Kicad,Pcbnew,9.0.2+dfsg-1
; #@! TF.FileFunction,Plated,1,2,PTH
FMAT,2
METRIC
; #@! TA.AperFunction,Plated,PTH,ViaDrill
T1C0.300
; #@! TA.AperFunction,Plated,PTH,ComponentDrill
T2C0.330
; #@! TA.AperFunction,Plated,PTH,ComponentDrill
T3C0.762
; #@! TA.AperFunction,Plated,PTH,ComponentDrill
T4C0.787
; #@! TA.AperFunction,Plated,PTH,ComponentDrill
T5C0.813
; #@! TA.AperFunction,Plated,PTH,ComponentDrill
T6C0.950
; #@! TA.AperFunction,Plated,PTH,ComponentDrill
T7C1.000
; #@! TA.AperFunction,Plated,PTH,ComponentDrill
T8C1.499
; #@! TA.AperFunction,Plated,PTH,ComponentDrill
T9C2.700
%
G90
G05
T1
X122.0Y-44.5
X123.0Y-63.0
X123.2Y-65.7
X125.0Y-41.5
X128.0Y-44.5
X129.0Y-48.0
X131.0Y-40.0
X132.0Y-69.5
X132.613Y-41.673
X138.363Y-42.943
X141.0Y-48.274
X147.5Y-38.5
X148.0Y-47.124
X148.0Y-48.274
X152.5Y-45.5
X157.7Y-43.65
X160.787Y-45.702
X162.346Y-47.167
X165.0Y-51.15
X167.5Y-38.5
X168.5Y-66.5
X170.0Y-65.5
X170.726Y-48.274
X171.38Y-47.123
X171.5Y-48.924
X171.5Y-50.65
X174.0Y-48.274
X174.675Y-44.325
X175.0Y-43.0
X177.0Y-43.0
X179.0Y-41.5
X187.383Y-43.055
X193.233Y-65.227
X194.0Y-65.0
X197.137Y-68.75
X197.696Y-67.368
T2
X134.838Y-42.278
X134.838Y-43.578
X134.838Y-44.878
X136.138Y-42.278
X136.138Y-43.578
X136.138Y-44.878
X183.858Y-42.39
X183.858Y-43.69
X183.858Y-44.99
X185.158Y-42.39
X185.158Y-43.69
X185.158Y-44.99
T3
X138.16Y-53.5
X138.16Y-68.74
X140.7Y-53.5
X140.7Y-68.74
X141.0Y-57.31
X141.0Y-59.85
X141.0Y-62.39
X141.0Y-64.93
X143.24Y-53.5
X143.24Y-68.74
X145.78Y-53.5
X145.78Y-68.74
X148.32Y-53.5
X148.32Y-68.74
X150.86Y-53.5
X150.86Y-68.74
X153.4Y-53.5
X153.4Y-68.74
X155.94Y-53.5
X155.94Y-68.74
X158.48Y-53.5
X158.48Y-68.74
X161.02Y-53.5
X161.02Y-68.74
X163.56Y-53.5
X163.56Y-68.74
X166.1Y-53.5
X166.1Y-68.74
X168.64Y-53.5
X168.64Y-68.74
X171.18Y-53.5
X171.18Y-68.74
X173.72Y-53.5
X173.72Y-68.74
X176.26Y-53.5
X176.26Y-68.74
X178.8Y-53.5
X178.8Y-68.74
X181.34Y-53.5
X181.34Y-68.74
X183.88Y-53.5
X183.88Y-68.74
X186.42Y-53.5
X186.42Y-68.74
T4
X124.5Y-56.0
X126.5Y-56.0
X128.5Y-56.0
T5
X194.998Y-44.0
X194.998Y-46.0
X194.998Y-48.0
X194.998Y-50.0
X196.998Y-44.0
X196.998Y-46.0
X196.998Y-48.0
X196.998Y-50.0
T6
X147.5Y-36.475
X150.0Y-36.475
X152.5Y-36.475
X167.5Y-36.475
X170.0Y-36.475
X172.5Y-36.475
T7
X134.25Y-36.5
X136.75Y-36.5
X183.229Y-36.5
X185.729Y-36.5
T8
X122.4Y-56.0
X130.6Y-56.0
T9
X125.0Y-44.5
X125.0Y-49.5
M30
